<svg width="16" height="16" viewBox="0 0 16 16" fill="none" xmlns="http://www.w3.org/2000/svg">
<path d="M13.278 6.899C13.721 6.488 14 5.9 14 5.25C14 4.009 12.99 3 11.75 3H9.5C9.224 3 9 3.224 9 3.5V10.5C9 10.776 9.224 11 9.5 11H12C13.24 11 14.25 9.991 14.25 8.75C14.25 7.984 13.865 7.306 13.278 6.899ZM10 4H11.75C12.439 4 13 4.561 13 5.25C13 5.939 12.439 6.5 11.75 6.5H10V4ZM12 10H10V7.5H11.75C11.808 7.5 11.864 7.498 11.92 7.494C11.946 7.498 11.973 7.5 12 7.5C12.689 7.5 13.25 8.061 13.25 8.75C13.25 9.439 12.689 10 12 10ZM4.971 3.332C4.828 2.934 4.172 2.934 4.03 3.332L1.53 10.332C1.437 10.592 1.573 10.878 1.833 10.971C2.094 11.065 2.378 10.929 2.472 10.668L3.068 9H5.935L6.531 10.668C6.604 10.873 6.797 11 7.002 11C7.058 11 7.114 10.991 7.17 10.971C7.43 10.878 7.566 10.592 7.473 10.332L4.973 3.332H4.971ZM3.424 8L4.5 4.987L5.576 8H3.424ZM4.5 14H7C7.276 14 7.5 13.776 7.5 13.5C7.5 13.224 7.276 13 7 13H4.5C4.224 13 4 13.224 4 13.5C4 13.776 4.224 14 4.5 14ZM9 14H11.5C11.776 14 12 13.776 12 13.5C12 13.224 11.776 13 11.5 13H9C8.724 13 8.5 13.224 8.5 13.5C8.5 13.776 8.724 14 9 14ZM15.854 11.646C15.76 11.553 15.633 11.5 15.5 11.5C15.367 11.5 15.24 11.552 15.146 11.646C15.053 11.74 15 11.867 15 12V12.5C15 12.633 14.948 12.76 14.854 12.854C14.76 12.947 14.633 13 14.5 13H13.5C13.224 13 13 13.224 13 13.5C13 13.776 13.224 14 13.5 14H14.5C14.898 14 15.28 13.843 15.561 13.561C15.842 13.279 16 12.898 16 12.5V12C16 11.867 15.948 11.74 15.854 11.646ZM1.146 12.854C1.053 12.76 1 12.633 1 12.5V12C1 11.867 0.948 11.74 0.854 11.646C0.76 11.553 0.633 11.5 0.5 11.5C0.367 11.5 0.24 11.552 0.146 11.646C0.053 11.74 0 11.867 0 12V12.5C0 12.898 0.158 13.28 0.439 13.561C0.721 13.842 1.102 14 1.5 14H2.5C2.776 14 3 13.776 3 13.5C3 13.224 2.776 13 2.5 13H1.5C1.367 13 1.24 12.948 1.146 12.854Z" fill="#202020"/>
</svg>
