<svg width="16" height="16" viewBox="0 0 16 16" fill="none" xmlns="http://www.w3.org/2000/svg">
<path d="M1 1.5C1 1.224 1.224 1 1.5 1H14.5C14.776 1 15 1.224 15 1.5C15 1.776 14.776 2 14.5 2H1.5C1.224 2 1 1.776 1 1.5ZM14.5 13H1.5C1.224 13 1 13.224 1 13.5C1 13.776 1.224 14 1.5 14H14.5C14.776 14 15 13.776 15 13.5C15 13.224 14.776 13 14.5 13ZM1.5 5H2.5C2.776 5 3 4.776 3 4.5C3 4.224 2.776 4 2.5 4H1.5C1.224 4 1 4.224 1 4.5C1 4.776 1.224 5 1.5 5ZM14.5 4H13.5C13.224 4 13 4.224 13 4.5C13 4.776 13.224 5 13.5 5H14.5C14.776 5 15 4.776 15 4.5C15 4.224 14.776 4 14.5 4ZM1.5 8H2.5C2.776 8 3 7.776 3 7.5C3 7.224 2.776 7 2.5 7H1.5C1.224 7 1 7.224 1 7.5C1 7.776 1.224 8 1.5 8ZM14.5 7H13.5C13.224 7 13 7.224 13 7.5C13 7.776 13.224 8 13.5 8H14.5C14.776 8 15 7.776 15 7.5C15 7.224 14.776 7 14.5 7ZM1.5 11H2.5C2.776 11 3 10.776 3 10.5C3 10.224 2.776 10 2.5 10H1.5C1.224 10 1 10.224 1 10.5C1 10.776 1.224 11 1.5 11ZM14.5 10H13.5C13.224 10 13 10.224 13 10.5C13 10.776 13.224 11 13.5 11H14.5C14.776 11 15 10.776 15 10.5C15 10.224 14.776 10 14.5 10Z" fill="#202020"/>
<path d="M9 8H5C4.448 8 4 7.552 4 7V5C4 4.448 4.448 4 5 4H9C9.552 4 10 4.448 10 5V7C10 7.552 9.552 8 9 8ZM4.999 5V7H8.999V5H4.999Z" fill="#006CBF"/>
</svg>
