<svg width="16" height="16" viewBox="0 0 16 16" fill="none" xmlns="http://www.w3.org/2000/svg">
<path d="M13.75 15H2.25C1.561 15 1 14.439 1 13.75V2.25C1 1.561 1.561 1 2.25 1H13.75C14.439 1 15 1.561 15 2.25V13.75C15 14.439 14.439 15 13.75 15ZM2.25 2C2.112 2 2 2.112 2 2.25V13.75C2 13.888 2.112 14 2.25 14H13.75C13.888 14 14 13.888 14 13.75V2.25C14 2.112 13.888 2 13.75 2H2.25Z" fill="#202020"/>
<path d="M12.5 3H9.5C9.224 3 9 3.224 9 3.5C9 3.776 9.224 4 9.5 4H11.293L4 11.293V9.5C4 9.224 3.776 9 3.5 9C3.224 9 3 9.224 3 9.5V12.5C3 12.776 3.224 13 3.5 13H6.5C6.776 13 7 12.776 7 12.5C7 12.224 6.776 12 6.5 12H4.707L12 4.707V6.5C12 6.776 12.224 7 12.5 7C12.776 7 13 6.776 13 6.5V3.5C13 3.224 12.776 3 12.5 3Z" fill="#006CBF"/>
</svg>
