<svg width="16" height="16" viewBox="0 0 16 16" fill="none" xmlns="http://www.w3.org/2000/svg">
<path d="M13.75 14H6.526C6.123 14 5.755 13.813 5.517 13.488C5.279 13.163 5.212 12.756 5.334 12.371L8.356 2.871C8.522 2.35 9.001 2 9.547 2H13.749C14.438 2 14.999 2.561 14.999 3.25V12.75C14.999 13.439 14.438 14 13.749 14H13.75ZM9.548 3C9.439 3 9.343 3.07 9.31 3.174L6.288 12.674C6.254 12.779 6.296 12.86 6.325 12.898C6.353 12.937 6.416 13.001 6.527 13.001H13.751C13.889 13.001 14.001 12.889 14.001 12.751V3.25C14.001 3.112 13.889 3 13.751 3H9.548ZM6 4.5C6 4.224 5.776 4 5.5 4H2.5C2.224 4 2 4.224 2 4.5C2 4.776 2.224 5 2.5 5H5.5C5.776 5 6 4.776 6 4.5ZM5 7.5C5 7.224 4.776 7 4.5 7H1.5C1.224 7 1 7.224 1 7.5C1 7.776 1.224 8 1.5 8H4.5C4.776 8 5 7.776 5 7.5ZM4 10.5C4 10.224 3.776 10 3.5 10H0.5C0.224 10 0 10.224 0 10.5C0 10.776 0.224 11 0.5 11H3.5C3.776 11 4 10.776 4 10.5Z" fill="#202020"/>
</svg>
