<svg width="16" height="16" viewBox="0 0 16 16" fill="none" xmlns="http://www.w3.org/2000/svg">
<g clip-path="url(#clip0_7198_12229)">
<path d="M10 6.56666e-07C10.7153 8.85191e-05 11.43 0.0391464 12.141 0.117001C12.266 0.133001 12.441 0.157001 12.684 0.191001C12.927 0.225001 13.184 0.272001 13.469 0.332001C13.754 0.392001 14.048 0.465001 14.348 0.551001C14.6278 0.628395 14.9007 0.728735 15.164 0.851001C15.3835 0.952545 15.5859 1.08748 15.764 1.251C15.8362 1.31302 15.8944 1.38967 15.9347 1.47586C15.9751 1.56206 15.9966 1.65584 15.998 1.751V13.251C15.9966 13.3462 15.9751 13.4399 15.9347 13.5261C15.8944 13.6123 15.8362 13.689 15.764 13.751C15.5859 13.9145 15.3835 14.0495 15.164 14.151C14.9007 14.2733 14.6278 14.3736 14.348 14.451C14.048 14.537 13.755 14.61 13.469 14.67C13.182 14.73 12.921 14.778 12.684 14.815C12.447 14.852 12.266 14.874 12.141 14.885C11.4299 14.9622 10.7152 15.0006 10 15C9.28473 15.0002 8.56999 14.9611 7.859 14.883C7.734 14.872 7.559 14.849 7.316 14.813C7.073 14.777 6.816 14.728 6.531 14.668C6.246 14.608 5.952 14.535 5.652 14.449C5.37221 14.3716 5.09929 14.2713 4.836 14.149C4.61654 14.0475 4.41414 13.9125 4.236 13.749C4.16357 13.6873 4.10508 13.6109 4.0644 13.5249C4.02371 13.4388 4.00176 13.3451 4 13.25V11.5H0.663997C0.57629 11.5006 0.4894 11.4831 0.408721 11.4487C0.328042 11.4143 0.255295 11.3637 0.194997 11.3C0.132822 11.2399 0.0834866 11.1677 0.0499707 11.088C0.0164548 11.0082 -0.000545359 10.9225 -2.66361e-06 10.836V4.164C0.000100276 4.07713 0.0178854 3.9912 0.0522695 3.91143C0.0866535 3.83166 0.136917 3.75972 0.199997 3.7C0.259718 3.63692 0.331654 3.58666 0.411425 3.55227C0.491196 3.51789 0.577132 3.5001 0.663997 3.5H4V1.75C4.00137 1.65484 4.02294 1.56106 4.06328 1.47486C4.10362 1.38867 4.16181 1.31202 4.234 1.25C4.41214 1.08648 4.61454 0.951545 4.834 0.850001C5.09729 0.727735 5.37021 0.627395 5.65 0.550001C5.95 0.464667 6.24366 0.392001 6.531 0.332001C6.818 0.272001 7.079 0.225001 7.316 0.191001C7.553 0.157001 7.734 0.133001 7.859 0.117001C8.56999 0.038874 9.28473 -0.000184708 10 6.56666e-07V6.56666e-07ZM3.148 8.93H4.848L5.248 10.13H6.578L4.664 4.875H3.364L1.427 10.125H2.75L3.148 8.93ZM3.448 7.914L3.987 6.281L4.511 7.914H3.448ZM15 5.6V2.719C14.6283 2.87905 14.2427 3.00458 13.848 3.094C13.4227 3.19333 12.9863 3.27267 12.539 3.332C12.0917 3.39133 11.649 3.43433 11.211 3.461C10.773 3.487 10.3693 3.5 10 3.5C9.63066 3.5 9.227 3.487 8.789 3.461C8.35233 3.435 7.90966 3.392 7.461 3.332C7.01233 3.272 6.576 3.19267 6.152 3.094C5.75731 3.00458 5.37169 2.87905 5 2.719V3.5H7.336C7.51194 3.50053 7.68052 3.57065 7.80493 3.69506C7.92934 3.81947 7.99947 3.98806 8 4.164V6.4C8.333 6.437 8.667 6.463 9 6.479C9.333 6.495 9.667 6.502 10 6.502C10.1933 6.502 10.4267 6.49667 10.7 6.486C10.976 6.476 11.272 6.456 11.587 6.428C11.902 6.4 12.226 6.362 12.56 6.318C12.894 6.274 13.213 6.218 13.52 6.15C13.8058 6.08914 14.0877 6.01099 14.364 5.916C14.59 5.84161 14.8042 5.73519 15 5.6ZM15 13.084V10.719C14.6283 10.8791 14.2427 11.0046 13.848 11.094C13.4227 11.1933 12.9863 11.2727 12.539 11.332C12.0917 11.3913 11.649 11.4343 11.211 11.461C10.773 11.487 10.3693 11.5 10 11.5C9.62 11.5 9.241 11.4883 8.863 11.465C8.485 11.4417 8.10866 11.4083 7.734 11.365C7.6191 11.4525 7.47839 11.4993 7.334 11.498H5V13.084C5.18478 13.2222 5.39034 13.3302 5.609 13.404C5.88568 13.5043 6.16903 13.5852 6.457 13.646C6.767 13.7127 7.09133 13.7687 7.43 13.814C7.768 13.858 8.098 13.895 8.418 13.924C8.738 13.953 9.036 13.972 9.318 13.982C9.6 13.992 9.818 14 10 14C10.182 14 10.411 13.995 10.688 13.984C10.965 13.973 11.262 13.954 11.582 13.926C11.902 13.898 12.232 13.86 12.57 13.816C12.908 13.772 13.233 13.716 13.543 13.648C13.831 13.5872 14.1143 13.5063 14.391 13.406C14.6097 13.3322 14.8152 13.2242 15 13.086V13.084ZM10 1C9.661 1 9.284 1.012 8.867 1.035C8.45 1.058 8.027 1.099 7.598 1.156C7.17639 1.21196 6.75787 1.28905 6.344 1.387C5.97323 1.47093 5.61201 1.59256 5.266 1.75C5.61549 1.91025 5.98036 2.03456 6.355 2.121C6.76564 2.21886 7.18124 2.29464 7.6 2.348C8.024 2.402 8.443 2.441 8.857 2.465C9.272 2.488 9.657 2.5 10.002 2.5C10.347 2.5 10.732 2.488 11.147 2.465C11.562 2.442 11.98 2.402 12.404 2.348C12.8221 2.29457 13.237 2.21879 13.647 2.121C14.0216 2.03456 14.3865 1.91025 14.736 1.75C14.39 1.59241 14.0288 1.47077 13.658 1.387C13.2428 1.28892 12.8229 1.21182 12.4 1.156C11.9713 1.09933 11.5483 1.059 11.131 1.035C10.716 1.012 10.339 1 10 1ZM15 9.6V6.719C14.6283 6.87905 14.2427 7.00458 13.848 7.094C13.4227 7.19267 12.9863 7.272 12.539 7.332C12.0917 7.392 11.649 7.435 11.211 7.461C10.773 7.487 10.3693 7.5 10 7.5C9.667 7.5 9.333 7.491 9 7.473C8.667 7.455 8.333 7.43 8 7.4V10.4C8.333 10.437 8.667 10.463 9 10.479C9.333 10.495 9.667 10.502 10 10.502C10.1933 10.502 10.4267 10.4967 10.7 10.486C10.976 10.476 11.272 10.456 11.587 10.428C11.902 10.4 12.226 10.362 12.56 10.318C12.894 10.274 13.213 10.218 13.52 10.15C13.807 10.0887 14.0902 10.0106 14.368 9.916C14.5936 9.84358 14.8067 9.73701 15 9.6V9.6Z" fill="#A4373A"/>
</g>
<defs>
<clipPath id="clip0_7198_12229">
<rect width="16" height="16" fill="white"/>
</clipPath>
</defs>
</svg>
