<svg width="16" height="16" viewBox="0 0 16 16" fill="none" xmlns="http://www.w3.org/2000/svg">
<g clip-path="url(#clip0_7198_12247)">
<path d="M13.64 2C12.93 1.38 12.01 1 11 1H9C8.26 1 7.62 1.4 7.27 2H11C12.65 2 14 3.35 14 5V11C14.55 11 15 10.55 15 10V5C15 3.8 14.47 2.73 13.64 2ZM10.5 7H6.5C6.257 7 6.065 7.176 6.019 7.405C6.175 7.586 6.315 7.779 6.437 7.987C6.459 7.99 6.478 8 6.5 8H10.5C10.776 8 11 7.776 11 7.5C11 7.224 10.776 7 10.5 7ZM10.5 5H6.5C6.224 5 6 5.224 6 5.5C6 5.776 6.224 6 6.5 6H10.5C10.776 6 11 5.776 11 5.5C11 5.224 10.776 5 10.5 5ZM10.5 9H6.858C6.942 9.322 7 9.653 7 10H10.5C10.776 10 11 9.776 11 9.5C11 9.224 10.776 9 10.5 9ZM11 3H6C4.897 3 4 3.897 4 5V6.142C4.356 6.235 4.69 6.375 5 6.556V5C5 4.449 5.448 4 6 4H11C11.552 4 12 4.449 12 5V12C12 12.551 11.552 13 11 13H6V14H11C12.103 14 13 13.103 13 12V5C13 3.897 12.103 3 11 3Z" fill="#202020"/>
<path d="M6 10C6 11.657 4.657 13 3 13C1.343 13 0 11.657 0 10C0 8.343 1.343 7 3 7C4.657 7 6 8.343 6 10ZM1 13.443V15.5C1 15.591 1.024 15.679 1.071 15.757C1.118 15.835 1.184 15.898 1.264 15.941C1.337 15.98 1.418 16 1.5 16C1.599 16 1.695 15.97 1.777 15.915L3 15.1L4.223 15.916C4.298 15.966 4.386 15.995 4.476 15.999C4.566 16.003 4.656 15.983 4.736 15.94C4.816 15.897 4.882 15.834 4.929 15.756C4.975 15.678 5 15.59 5 15.499V13.443C4.409 13.787 3.732 13.999 3 13.999C2.268 13.999 1.591 13.787 1 13.443Z" fill="#202020"/>
</g>
<defs>
<clipPath id="clip0_7198_12247">
<rect width="16" height="16" fill="white"/>
</clipPath>
</defs>
</svg>
