<svg width="16" height="16" viewBox="0 0 16 16" fill="none" xmlns="http://www.w3.org/2000/svg">
<path d="M13 9.5C13 8.67157 12.3284 8 11.5 8H4.5C4.37383 8 4.25129 8.01558 4.13421 8.04492C4.50593 8.09783 4.8715 8.19733 5.22208 8.34254C5.62263 8.50846 5.99484 8.73042 6.32843 9H11.5C11.7761 9 12 9.22386 12 9.5V10C12 11.4376 10.5678 13 8 13C7.99055 13 7.98112 13 7.97171 12.9999C7.92008 13.3485 7.8023 13.6847 7.62408 13.9901C7.74725 13.9967 7.87257 14 8 14C11.1405 14 13 11.9714 13 10V9.5Z" fill="#202020"/>
<path fill-rule="evenodd" clip-rule="evenodd" d="M10.75 4.25C10.75 2.73122 9.51878 1.5 8 1.5C6.48122 1.5 5.25 2.73122 5.25 4.25C5.25 5.76878 6.48122 7 8 7C9.51878 7 10.75 5.76878 10.75 4.25ZM6.25 4.25C6.25 3.2835 7.0335 2.5 8 2.5C8.9665 2.5 9.75 3.2835 9.75 4.25C9.75 5.2165 8.9665 6 8 6C7.0335 6 6.25 5.2165 6.25 4.25Z" fill="#202020"/>
<path d="M3.50004 9C4.4283 9 5.31854 9.36875 5.97492 10.0251C6.63129 10.6815 7.00004 11.5717 7.00004 12.5C7.03339 12.9447 6.89063 13.3848 6.60256 13.7252C6.31448 14.0657 5.90416 14.2793 5.46004 14.32C5.28133 14.3277 5.10352 14.2906 4.94283 14.212C4.78214 14.1334 4.64367 14.0158 4.54004 13.87C4.40798 14.0138 4.24713 14.1282 4.06794 14.2057C3.88876 14.2832 3.69527 14.3222 3.50004 14.32C3.27793 14.3057 3.06098 14.2467 2.86218 14.1466C2.66338 14.0465 2.48682 13.9074 2.34305 13.7375C2.19928 13.5675 2.09125 13.3704 2.02545 13.1578C1.95964 12.9451 1.93739 12.7214 1.96004 12.5C1.93739 12.2786 1.95964 12.0549 2.02545 11.8422C2.09125 11.6296 2.19928 11.4325 2.34305 11.2625C2.48682 11.0926 2.66338 10.9535 2.86218 10.8534C3.06098 10.7533 3.27793 10.6943 3.50004 10.68C3.76687 10.6776 4.02882 10.7515 4.25504 10.893C4.29844 10.8168 4.36462 10.756 4.44428 10.7193C4.52395 10.6826 4.61311 10.6718 4.69926 10.6883C4.7854 10.7049 4.8642 10.748 4.9246 10.8116C4.985 10.8752 5.02397 10.9561 5.03604 11.043V12.5C5.03604 13.2 5.19304 13.48 5.45604 13.48C5.80804 13.48 6.15604 13.075 6.15604 12.5C6.15564 11.9465 5.98246 11.407 5.66068 10.9566C5.33889 10.5063 4.88455 10.1677 4.36105 9.98795C3.83756 9.80824 3.27102 9.79644 2.74049 9.95419C2.20996 10.1119 1.74192 10.4314 1.40165 10.8679C1.06139 11.3044 0.86589 11.8363 0.842432 12.3893C0.818973 12.9423 0.968727 13.4888 1.2708 13.9526C1.57287 14.4164 2.01218 14.7743 2.52744 14.9764C3.0427 15.1785 3.60821 15.2147 4.14504 15.08L4.30104 15.036L4.41504 15C4.51473 14.9644 4.62418 14.9677 4.7215 15.0094C4.81883 15.051 4.89684 15.1278 4.93994 15.2245C4.98303 15.3212 4.98803 15.4306 4.95394 15.5308C4.91984 15.631 4.84916 15.7147 4.75604 15.765L4.70304 15.789L4.56004 15.838C4.07906 15.9897 3.57098 16.0356 3.0706 15.9726C2.57021 15.9096 2.08935 15.7393 1.66093 15.4732C1.23251 15.2071 0.866658 14.8516 0.58842 14.4309C0.310182 14.0103 0.126134 13.5345 0.048878 13.0361C-0.0283781 12.5378 0.00298266 12.0286 0.140813 11.5435C0.278644 11.0583 0.519688 10.6087 0.847441 10.2254C1.17519 9.8421 1.58191 9.53415 2.03975 9.32265C2.49758 9.11115 2.99572 9.00108 3.50004 9ZM3.50004 11.52C3.09504 11.52 2.80004 11.942 2.80004 12.5C2.80004 13.058 3.09504 13.48 3.50004 13.48C3.90504 13.48 4.20004 13.058 4.20004 12.5C4.20004 11.942 3.90504 11.52 3.50004 11.52Z" fill="#202020"/>
</svg>
