<svg width="16" height="16" viewBox="0 0 16 16" fill="none" xmlns="http://www.w3.org/2000/svg">
<path d="M10 4.5C10 4.776 9.776 5 9.5 5H5.5C5.224 5 5 4.776 5 4.5C5 4.224 5.224 4 5.5 4H9.5C9.776 4 10 4.224 10 4.5ZM3 6.5C2.448 6.5 2 6.948 2 7.5C2 8.052 2.448 8.5 3 8.5C3.552 8.5 4 8.052 4 7.5C4 6.948 3.552 6.5 3 6.5ZM9.5 7H5.5C5.224 7 5 7.224 5 7.5C5 7.776 5.224 8 5.5 8H9.5C9.776 8 10 7.776 10 7.5C10 7.224 9.776 7 9.5 7ZM9.5 10H5.5C5.224 10 5 10.224 5 10.5C5 10.776 5.224 11 5.5 11H9.5C9.776 11 10 10.776 10 10.5C10 10.224 9.776 10 9.5 10ZM3 9.5C2.448 9.5 2 9.948 2 10.5C2 11.052 2.448 11.5 3 11.5C3.552 11.5 4 11.052 4 10.5C4 9.948 3.552 9.5 3 9.5ZM3 3.5C2.448 3.5 2 3.948 2 4.5C2 5.052 2.448 5.5 3 5.5C3.552 5.5 4 5.052 4 4.5C4 3.948 3.552 3.5 3 3.5ZM1.5 2H14.5C14.776 2 15 1.776 15 1.5C15 1.224 14.776 1 14.5 1H1.5C1.224 1 1 1.224 1 1.5C1 1.776 1.224 2 1.5 2ZM14.5 13H1.5C1.224 13 1 13.224 1 13.5C1 13.776 1.224 14 1.5 14H14.5C14.776 14 15 13.776 15 13.5C15 13.224 14.776 13 14.5 13Z" fill="#202020"/>
<path d="M14.354 8.64602C14.159 8.45102 13.842 8.45102 13.647 8.64602L13.001 9.29202V4.49902C13.001 4.22302 12.777 3.99902 12.501 3.99902C12.225 3.99902 12.001 4.22302 12.001 4.49902V9.29202L11.355 8.64602C11.16 8.45102 10.843 8.45102 10.648 8.64602C10.453 8.84102 10.453 9.15802 10.648 9.35302L12.148 10.853C12.246 10.951 12.374 10.999 12.502 10.999C12.63 10.999 12.758 10.95 12.856 10.853L14.356 9.35302C14.551 9.15802 14.551 8.84102 14.356 8.64602H14.354Z" fill="#006CBF"/>
</svg>
