<svg width="16" height="16" viewBox="0 0 16 16" fill="none" xmlns="http://www.w3.org/2000/svg">
<path d="M8.00865 8.73568C8.26569 8.52253 8.50301 8.28642 8.71746 8.0305L9.47996 8.793L11.783 6.49C11.978 6.295 12.295 6.295 12.49 6.49C12.685 6.685 12.685 7.002 12.49 7.197H12.491L9.83396 9.854C9.63896 10.049 9.32196 10.049 9.12696 9.854L8.00865 8.73568Z" fill="#11910D"/>
<path d="M5.23991 9.95066C4.99791 9.9832 4.75092 10 4.5 10C4.40174 10 4.30408 9.99742 4.20708 9.99233C4.85963 12.3014 6.98633 13.999 9.50098 13.999C12.533 13.999 15.001 11.531 15.001 8.49901C15.001 8.22301 14.777 7.99901 14.501 7.99901L14.5 8.00001C14.224 8.00001 14 8.22401 14 8.50001C14 10.981 11.981 13 9.49998 13C7.52628 13 5.84497 11.7223 5.23991 9.95066Z" fill="#202020"/>
<path d="M9.97758 4.00001H12.293L11.647 4.64601C11.452 4.84101 11.452 5.15801 11.647 5.35301C11.745 5.45101 11.873 5.49901 12.001 5.49901C12.129 5.49901 12.257 5.45001 12.355 5.35301L13.855 3.85301C14.05 3.65801 14.05 3.34101 13.855 3.14601L12.355 1.64601C12.16 1.45101 11.843 1.45101 11.648 1.64601C11.453 1.84101 11.453 2.15801 11.648 2.35301L12.294 2.99901H9.79269C9.88399 3.3216 9.9466 3.65624 9.97758 4.00001Z" fill="#202020"/>
<path fill-rule="evenodd" clip-rule="evenodd" d="M1.99994 0.758387C2.73996 0.26392 3.60999 0 4.5 0C5.69348 0 6.83807 0.474106 7.68198 1.31802C8.5259 2.16193 9 3.30653 9 4.5C9 5.39002 8.73608 6.26004 8.24162 7.00007C7.74715 7.74009 7.04434 8.31686 6.22208 8.65746C5.39981 8.99805 4.49501 9.08717 3.6221 8.91353C2.74918 8.7399 1.94736 8.31132 1.31802 7.68198C0.688685 7.05264 0.260102 6.25082 0.0864683 5.37791C-0.0871652 4.50499 0.00194976 3.60019 0.342544 2.77792C0.683138 1.95566 1.25991 1.25285 1.99994 0.758387ZM6.713 4.937L3.743 6.587C3.66689 6.62932 3.58104 6.65103 3.49396 6.64998C3.40688 6.64893 3.32158 6.62515 3.24652 6.581C3.17145 6.53685 3.10922 6.47386 3.06598 6.39826C3.02274 6.32266 3 6.23708 3 6.15V2.85C3 2.76291 3.02274 2.67733 3.06598 2.60173C3.10922 2.52614 3.17145 2.46315 3.24652 2.41899C3.32158 2.37484 3.40688 2.35106 3.49396 2.35001C3.58104 2.34896 3.66689 2.37067 3.743 2.413L6.713 4.063C6.79091 4.10631 6.85582 4.16967 6.90101 4.2465C6.94621 4.32334 6.97004 4.41086 6.97004 4.5C6.97004 4.58914 6.94621 4.67666 6.90101 4.75349C6.85582 4.83033 6.79091 4.89368 6.713 4.937Z" fill="#11910D"/>
</svg>
