<svg width="16" height="16" viewBox="0 0 16 16" fill="none" xmlns="http://www.w3.org/2000/svg">
<path d="M1.20831 3.90596C1.91398 4.41873 2.71394 5 4.24899 5C5.78599 5 6.58699 4.418 7.29299 3.904C7.95999 3.419 8.53699 3 9.74999 3C10.9628 3 11.5388 3.41884 12.2056 3.90372C12.4276 4.06472 12.742 4.019 12.904 3.794C13.066 3.571 13.018 3.258 12.794 3.096C12.088 2.582 11.288 2 9.74999 2C8.21199 2 7.41099 2.582 6.70499 3.096C6.03799 3.581 5.46099 4 4.24899 4C3.03699 4 2.46199 3.582 1.79599 3.097C1.57299 2.935 1.26099 2.983 1.09699 3.207C0.934986 3.43 0.983986 3.743 1.20699 3.905L1.20831 3.90596Z" fill="#202020"/>
<path d="M6.37329 9.50424C6.69308 8.68335 7.20434 7.9582 7.85221 7.38366C7.40144 7.58938 7.04226 7.85045 6.70499 8.096C6.03815 8.58088 5.46175 9 4.24899 9C3.03599 9 2.46199 8.582 1.79599 8.097C1.57199 7.934 1.26099 7.984 1.09699 8.207C0.934986 8.43 0.984986 8.743 1.20699 8.905L1.20831 8.90596C1.91398 9.41873 2.71394 10 4.24899 10C5.17894 10 5.83985 9.78666 6.37329 9.50424Z" fill="#202020"/>
<path fill-rule="evenodd" clip-rule="evenodd" d="M16 11.5C16 13.9853 13.9853 16 11.5 16C9.01472 16 7 13.9853 7 11.5C7 9.01472 9.01472 7 11.5 7C13.9853 7 16 9.01472 16 11.5ZM13.8536 9.64645C14.0488 9.84171 14.0488 10.1583 13.8536 10.3536L10.8536 13.3536C10.6583 13.5488 10.3417 13.5488 10.1464 13.3536L9.14645 12.3536C8.95118 12.1583 8.95118 11.8417 9.14645 11.6464C9.34171 11.4512 9.65829 11.4512 9.85355 11.6464L10.5 12.2929L13.1464 9.64645C13.3417 9.45118 13.6583 9.45118 13.8536 9.64645Z" fill="#11910D"/>
</svg>
