<svg width="16" height="16" viewBox="0 0 16 16" fill="none" xmlns="http://www.w3.org/2000/svg">
<path d="M12.333 13H3.707C3.44 13 3.188 12.896 3 12.707L1.293 11C1.106 10.814 1 10.556 1 10.293V5.707C1 5.444 1.106 5.186 1.293 5L3 3.293C3.188 3.104 3.44 3 3.707 3H12.293C12.56 3 12.812 3.104 13 3.293L14.707 5C14.894 5.186 15 5.444 15 5.707V10.75C15 11.063 14.851 11.363 14.6 11.55L12.934 12.8C12.761 12.929 12.548 13 12.333 13ZM3.707 4L2 5.707V10.293L3.707 12H12.333L14 10.75V5.707L12.293 4H3.707Z" fill="#202020"/>
</svg>
