<svg width="16" height="16" viewBox="0 0 16 16" fill="none" xmlns="http://www.w3.org/2000/svg">
<path d="M13 11V9.5C13 8.673 12.327 8 11.5 8H9.707L8 6.293V4.929C8.86 4.705 9.5 3.929 9.5 3C9.5 1.897 8.603 1 7.5 1C6.397 1 5.5 1.897 5.5 3C5.5 3.929 6.14 4.705 7 4.929V6.293L5.293 8H3.5C2.673 8 2 8.673 2 9.5V11H1.5C0.673 11 0 11.673 0 12.5C0 13.327 0.673 14 1.5 14H3.5C4.327 14 5 13.327 5 12.5C5 11.673 4.327 11 3.5 11H3V9.5C3 9.224 3.225 9 3.5 9H5.293L7.147 10.854C7.245 10.952 7.373 11 7.501 11C7.629 11 7.757 10.951 7.855 10.854L9.709 9H11.502C11.777 9 12.002 9.224 12.002 9.5V11H11.502C10.675 11 10.002 11.673 10.002 12.5C10.002 13.327 10.675 14 11.502 14H13.502C14.329 14 15.002 13.327 15.002 12.5C15.002 11.673 14.329 11 13.502 11H13ZM4 12.5C4 12.776 3.775 13 3.5 13H1.5C1.225 13 1 12.776 1 12.5C1 12.224 1.225 12 1.5 12H3.5C3.775 12 4 12.224 4 12.5ZM6.5 3C6.5 2.449 6.948 2 7.5 2C8.052 2 8.5 2.449 8.5 3C8.5 3.551 8.052 4 7.5 4C6.948 4 6.5 3.551 6.5 3ZM7.5 9.793L6.207 8.5L7.5 7.207L8.793 8.5L7.5 9.793ZM13.5 13H11.5C11.225 13 11 12.776 11 12.5C11 12.224 11.225 12 11.5 12H13.5C13.775 12 14 12.224 14 12.5C14 12.776 13.775 13 13.5 13Z" fill="#202020"/>
</svg>
