<svg width="16" height="16" viewBox="0 0 16 16" fill="none" xmlns="http://www.w3.org/2000/svg">
<path d="M10 5.99976H13.5C13.7761 5.99976 14 5.7759 14 5.49976V3.49976C14 3.22361 13.7761 2.99976 13.5 2.99976H10V3.99976H13V4.99976H10V5.99976Z" fill="#159195"/>
<path d="M5 8.98253V8.99976H4.5C4.22386 8.99976 4 9.22361 4 9.49976C4 9.7759 4.22386 9.99976 4.5 9.99976H5V11.9998H4.5C4.22386 11.9998 4 12.2236 4 12.4998C4 12.7759 4.22386 12.9998 4.5 12.9998H5C5 14.1043 5.89543 14.9998 7 14.9998H14C15.1046 14.9998 16 14.1043 16 12.9998V2.99976C16 1.89519 15.1046 0.999756 14 0.999756H10V1.99976H14C14.5523 1.99976 15 2.44747 15 2.99976V12.9998C15 13.552 14.5523 13.9998 14 13.9998H7C6.44772 13.9998 6 13.552 6 12.9998H6.5C6.77614 12.9998 7 12.7759 7 12.4998C7 12.2236 6.77614 11.9998 6.5 11.9998H6V9.99976H6.5C6.77614 9.99976 7 9.7759 7 9.49976C7 9.22361 6.77614 8.99976 6.5 8.99976H6V8.98752L5 8.98253Z" fill="#202020"/>
<path d="M6.67611 4.67399L2.93511 7.03199C2.8335 7.08767 2.71857 7.11443 2.60281 7.10938C2.48705 7.10433 2.37489 7.06765 2.27851 7.00333C2.18214 6.93901 2.10523 6.84951 2.05615 6.74455C2.00706 6.63959 1.98768 6.52319 2.00011 6.40799V1.69299C1.98748 1.57771 2.00671 1.46117 2.05571 1.35606C2.1047 1.25095 2.18159 1.16129 2.27801 1.09684C2.37442 1.0324 2.48667 0.995627 2.60252 0.99054C2.71838 0.985452 2.83342 1.01224 2.93511 1.06799L6.67611 3.42599C6.77618 3.4964 6.85785 3.58986 6.91422 3.69846C6.9706 3.80706 7.00003 3.92763 7.00003 4.04999C7.00003 4.17235 6.9706 4.29292 6.91422 4.40152C6.85785 4.51012 6.77618 4.60357 6.67611 4.67399V4.67399Z" fill="#006CBF"/>
<path d="M0.5 8C0.367392 8 0.240215 7.94732 0.146447 7.85355C0.0526784 7.75979 0 7.63261 0 7.5V0.5C0 0.367392 0.0526784 0.240215 0.146447 0.146447C0.240215 0.0526784 0.367392 0 0.5 0C0.632608 0 0.759785 0.0526784 0.853553 0.146447C0.947322 0.240215 1 0.367392 1 0.5V7.5C1 7.63261 0.947322 7.75979 0.853553 7.85355C0.759785 7.94732 0.632608 8 0.5 8Z" fill="#202020"/>
<path d="M8.5 8C8.36739 8 8.24021 7.94732 8.14645 7.85355C8.05268 7.75979 8 7.63261 8 7.5V0.5C8 0.367392 8.05268 0.240215 8.14645 0.146447C8.24021 0.0526784 8.36739 0 8.5 0C8.63261 0 8.75979 0.0526784 8.85355 0.146447C8.94732 0.240215 9 0.367392 9 0.5V7.5C9 7.63261 8.94732 7.75979 8.85355 7.85355C8.75979 7.94732 8.63261 8 8.5 8Z" fill="#202020"/>
</svg>
