<svg width="16" height="16" viewBox="0 0 16 16" fill="none" xmlns="http://www.w3.org/2000/svg">
<path d="M13.5 3H5.5C4.673 3 4 3.673 4 4.5V5H2C1.449 5 1 5.449 1 6V9C1 9.551 1.449 10 2 10H4V10.5C4 11.327 4.673 12 5.5 12H13.5C14.327 12 15 11.327 15 10.5V4.5C15 3.673 14.327 3 13.5 3ZM2 6H5V9H2V6ZM14 10.5C14 10.776 13.776 11 13.5 11H5.5C5.224 11 5 10.776 5 10.5V10C5.551 10 6 9.551 6 9V6C6 5.449 5.551 5 5 5V4.5C5 4.224 5.224 4 5.5 4H13.5C13.776 4 14 4.224 14 4.5V10.5ZM11 6C11 6.552 10.552 7 10 7C9.448 7 9 6.552 9 6C9 5.448 9.448 5 10 5C10.552 5 11 5.448 11 6ZM9 9C9 9.552 8.552 10 8 10C7.448 10 7 9.552 7 9C7 8.448 7.448 8 8 8C8.552 8 9 8.448 9 9ZM13 9C13 9.552 12.552 10 12 10C11.448 10 11 9.552 11 9C11 8.448 11.448 8 12 8C12.552 8 13 8.448 13 9Z" fill="#202020"/>
</svg>
