<svg width="16" height="16" viewBox="0 0 16 16" fill="none" xmlns="http://www.w3.org/2000/svg">
<g clip-path="url(#clip0_7198_12340)">
<path fill-rule="evenodd" clip-rule="evenodd" d="M3 3.5C3 2.075 5.149 1 8 1C10.851 1 13 2.075 13 3.5V12.5C13 13.925 10.8511 15 8.00019 15C8.10947 14.8543 8.21102 14.7023 8.30426 14.5445C8.41173 14.3627 8.50722 14.1749 8.59041 13.9822C10.6896 13.854 12 13.0602 12 12.5V5.021C10.7859 5.71872 9.39905 6.05816 8 6C7.45074 6.02283 6.90336 5.98438 6.36757 5.88703C6.36586 5.8832 6.36413 5.87938 6.36238 5.87557C6.24288 5.61456 6.051 5.39333 5.80951 5.23813C5.56802 5.08293 5.28706 5.00028 5 5H3V3.5ZM12 3.5C12 2.888 10.441 2 8 2C5.558 2 4 2.888 4 3.5C4 4.112 5.559 5 8 5C10.441 5 12 4.112 12 3.5Z" fill="#3487C7"/>
<path d="M4 8C3.20888 8 2.43552 8.2346 1.77772 8.67412C1.11992 9.11365 0.607234 9.73836 0.304484 10.4693C0.00173312 11.2002 -0.0774802 12.0044 0.0768607 12.7804C0.231202 13.5563 0.612165 14.269 1.17157 14.8284C1.73098 15.3878 2.44372 15.7688 3.21964 15.9231C3.99556 16.0775 4.79983 15.9983 5.53074 15.6955C6.26164 15.3928 6.88635 14.8801 7.32588 14.2223C7.76541 13.5645 8 12.7911 8 12C8 10.9391 7.57857 9.92172 6.82843 9.17157C6.07828 8.42143 5.06087 8 4 8V8ZM4 15C3.40666 15 2.82664 14.8241 2.33329 14.4944C1.83994 14.1648 1.45543 13.6962 1.22836 13.1481C1.0013 12.5999 0.94189 11.9967 1.05765 11.4147C1.1734 10.8328 1.45912 10.2982 1.87868 9.87868C2.29824 9.45912 2.83279 9.1734 3.41473 9.05764C3.99667 8.94189 4.59987 9.0013 5.14805 9.22836C5.69623 9.45542 6.16477 9.83994 6.49441 10.3333C6.82405 10.8266 7 11.4067 7 12C7 12.7956 6.68393 13.5587 6.12132 14.1213C5.55871 14.6839 4.79565 15 4 15V15ZM4.5 10.5V12.5C4.5 12.6326 4.44732 12.7598 4.35356 12.8536C4.25979 12.9473 4.13261 13 4 13C3.86739 13 3.74022 12.9473 3.64645 12.8536C3.55268 12.7598 3.5 12.6326 3.5 12.5V10.5C3.5 10.3674 3.55268 10.2402 3.64645 10.1464C3.74022 10.0527 3.86739 10 4 10C4.13261 10 4.25979 10.0527 4.35356 10.1464C4.44732 10.2402 4.5 10.3674 4.5 10.5ZM2.5 6.5C2.5 6.36739 2.55268 6.24021 2.64645 6.14645C2.74022 6.05268 2.86739 6 3 6H5C5.13261 6 5.25979 6.05268 5.35356 6.14645C5.44732 6.24021 5.5 6.36739 5.5 6.5C5.5 6.63261 5.44732 6.75979 5.35356 6.85355C5.25979 6.94732 5.13261 7 5 7H3C2.86739 7 2.74022 6.94732 2.64645 6.85355C2.55268 6.75979 2.5 6.63261 2.5 6.5Z" fill="#202020"/>
</g>
<defs>
<clipPath id="clip0_7198_12340">
<rect width="16" height="16" fill="white"/>
</clipPath>
</defs>
</svg>
