<svg width="16" height="16" viewBox="0 0 16 16" fill="none" xmlns="http://www.w3.org/2000/svg">
<path fill-rule="evenodd" clip-rule="evenodd" d="M6 9.79297V10H5C4.8983 10 4.79901 10.031 4.7154 10.0889C4.63178 10.1468 4.5678 10.2288 4.532 10.324L3.032 14.324C3.00355 14.3997 2.99386 14.4811 3.00377 14.5613C3.01368 14.6415 3.04289 14.7181 3.0889 14.7846C3.13491 14.8511 3.19635 14.9054 3.26795 14.9429C3.33954 14.9804 3.41917 15 3.5 15H15.5C15.5808 15 15.6605 14.9804 15.7321 14.9429C15.8037 14.9054 15.8651 14.8511 15.9111 14.7846C15.9571 14.7181 15.9863 14.6415 15.9962 14.5613C16.0061 14.4811 15.9965 14.3997 15.968 14.324L14.468 10.324C14.4322 10.2288 14.3682 10.1468 14.2846 10.0889C14.201 10.031 14.1017 10 14 10H13V2.5C13 2.10218 12.842 1.72064 12.5607 1.43934C12.2794 1.15804 11.8978 1 11.5 1L8.74284 1C8.99647 1.30711 9.21739 1.64222 9.40029 2H11.5C11.6326 2 11.7598 2.05268 11.8536 2.14645C11.9473 2.24021 12 2.36739 12 2.5V11.5C12 11.6326 11.9473 11.7598 11.8536 11.8536C11.7598 11.9473 11.6326 12 11.5 12H7.5C7.36739 12 7.24021 11.9473 7.14645 11.8536C7.05268 11.7598 7 11.6326 7 11.5V9.40029C6.68321 9.56223 6.34864 9.69436 6 9.79297ZM5.347 11L4.222 14H14.778L13.653 11H13V11.5C13 11.8978 12.842 12.2794 12.5607 12.5607C12.2794 12.842 11.8978 13 11.5 13H7.5C7.10218 13 6.72064 12.842 6.43934 12.5607C6.15804 12.2794 6 11.8978 6 11.5V11H5.347Z" fill="#202020"/>
<path d="M8.04433 8.70583C8.06894 8.76032 8.10336 8.81046 8.14645 8.85355C8.24021 8.94732 8.36739 9 8.5 9H10.5C10.6326 9 10.7598 8.94732 10.8536 8.85355C10.9473 8.75979 11 8.63261 11 8.5C11 8.36739 10.9473 8.24021 10.8536 8.14645C10.7598 8.05268 10.6326 8 10.5 8H8.74284C8.53165 8.25572 8.29779 8.49202 8.04433 8.70583Z" fill="#202020"/>
<path d="M9.97758 5H10.5C10.6326 5 10.7598 4.94732 10.8536 4.85355C10.9473 4.75979 11 4.63261 11 4.5C11 4.36739 10.9473 4.24021 10.8536 4.14645C10.7598 4.05268 10.6326 4 10.5 4H9.97758C9.99242 4.16468 10 4.33146 10 4.5C10 4.66854 9.99242 4.83532 9.97758 5Z" fill="#202020"/>
<path d="M8.14645 10.1464C8.05268 10.2402 8 10.3674 8 10.5C8 10.6326 8.05268 10.7598 8.14645 10.8536C8.24021 10.9473 8.36739 11 8.5 11H10.5C10.6326 11 10.7598 10.9473 10.8536 10.8536C10.9473 10.7598 11 10.6326 11 10.5C11 10.3674 10.9473 10.2402 10.8536 10.1464C10.7598 10.0527 10.6326 10 10.5 10H8.5C8.36739 10 8.24021 10.0527 8.14645 10.1464Z" fill="#202020"/>
<path fill-rule="evenodd" clip-rule="evenodd" d="M1.99994 0.758387C2.73996 0.26392 3.60999 0 4.5 0C5.69348 0 6.83807 0.474106 7.68198 1.31802C8.5259 2.16193 9 3.30653 9 4.5C9 5.39002 8.73608 6.26004 8.24162 7.00007C7.74715 7.74009 7.04434 8.31686 6.22208 8.65746C5.39981 8.99805 4.49501 9.08717 3.6221 8.91353C2.74918 8.7399 1.94736 8.31132 1.31802 7.68198C0.688685 7.05264 0.260102 6.25082 0.0864683 5.37791C-0.0871652 4.50499 0.00194976 3.60019 0.342544 2.77792C0.683138 1.95566 1.25991 1.25285 1.99994 0.758387ZM6.713 4.937L3.743 6.587C3.66689 6.62932 3.58104 6.65103 3.49396 6.64998C3.40688 6.64893 3.32158 6.62515 3.24652 6.581C3.17145 6.53685 3.10922 6.47386 3.06598 6.39826C3.02274 6.32266 3 6.23708 3 6.15V2.85C3 2.76291 3.02274 2.67733 3.06598 2.60173C3.10922 2.52614 3.17145 2.46315 3.24652 2.41899C3.32158 2.37484 3.40688 2.35106 3.49396 2.35001C3.58104 2.34896 3.66689 2.37067 3.743 2.413L6.713 4.063C6.79091 4.10631 6.85582 4.16967 6.90101 4.2465C6.94621 4.32334 6.97004 4.41086 6.97004 4.5C6.97004 4.58914 6.94621 4.67666 6.90101 4.75349C6.85582 4.83033 6.79091 4.89368 6.713 4.937Z" fill="#11910D"/>
</svg>
