<svg width="16" height="16" viewBox="0 0 16 16" fill="none" xmlns="http://www.w3.org/2000/svg">
<path d="M9.50167 6.79084L11.1462 5.146C11.2442 5.049 11.3722 5 11.5002 5C11.7762 5 12.0002 5.224 12.0002 5.5C12.0002 5.628 11.9522 5.756 11.8542 5.854L6.5512 11.157C6.3562 11.352 6.2582 11.608 6.2582 11.864C6.2582 12.416 6.7062 12.864 7.2582 12.864C7.5142 12.864 7.7702 12.766 7.9652 12.571L13.2682 7.268C13.7562 6.78 14.0002 6.14 14.0002 5.5C14.0002 4.119 12.8812 3 11.5002 3C10.9395 3 10.3788 3.18728 9.92031 3.56185C9.85927 3.2067 9.76418 2.86319 9.63852 2.53481C10.2055 2.1784 10.8521 2 11.4992 2C13.4322 2 14.9992 3.567 14.9992 5.5C14.9992 6.396 14.6572 7.292 13.9742 7.975L8.6712 13.278C8.2812 13.669 7.7692 13.864 7.2572 13.864C6.1522 13.864 5.2572 12.969 5.2572 11.864C5.2572 11.352 5.4522 10.841 5.8432 10.45L6.79178 9.50124C7.98777 8.95229 8.95294 7.98695 9.50167 6.79084Z" fill="#202020"/>
<path fill-rule="evenodd" clip-rule="evenodd" d="M9 4.5C9 6.98528 6.98528 9 4.5 9C2.01472 9 0 6.98528 0 4.5C0 2.01472 2.01472 0 4.5 0C6.98528 0 9 2.01472 9 4.5ZM4.5 2C4.77614 2 5 2.22386 5 2.5V4H6.5C6.77614 4 7 4.22386 7 4.5C7 4.77614 6.77614 5 6.5 5H5V6.5C5 6.77614 4.77614 7 4.5 7C4.22386 7 4 6.77614 4 6.5V5H2.5C2.22386 5 2 4.77614 2 4.5C2 4.22386 2.22386 4 2.5 4H4V2.5C4 2.22386 4.22386 2 4.5 2Z" fill="#11910D"/>
</svg>
