<svg width="16" height="16" viewBox="0 0 16 16" fill="none" xmlns="http://www.w3.org/2000/svg">
<path fill-rule="evenodd" clip-rule="evenodd" d="M8 8.74284C8.25589 8.53151 8.49234 8.29748 8.70626 8.04383C8.7603 8.06823 8.81048 8.10249 8.854 8.146L12.854 12.146C12.997 12.289 13.039 12.504 12.962 12.691C12.884 12.878 12.702 13 12.5 13H10.25L8.9 14.8C8.771 14.972 8.546 15.042 8.342 14.974C8.138 14.906 8 14.715 8 14.5L8 8.74284ZM9 9.707V13L9.6 12.2C9.694 12.074 9.843 12 10 12H11.293L9 9.707Z" fill="#006CBF"/>
<path d="M9.97758 4H13C13.55 4 14 4.45 14 5V11C14 11.26 13.9 11.49 13.75 11.67C13.96 11.99 14.04 12.37 13.98 12.74C14.59 12.4 15 11.74 15 11V5C15 3.9 14.1 3 13 3L9.79297 3C9.88412 3.32228 9.94663 3.65659 9.97758 4Z" fill="#202020"/>
<path d="M2 9.40029C1.64222 9.21739 1.30711 8.99647 1 8.74284L1 11C1 12.1 1.9 13 3 13H7V12H3C2.45 12 2 11.55 2 11V9.40029Z" fill="#202020"/>
<path fill-rule="evenodd" clip-rule="evenodd" d="M9 4.5C9 6.98528 6.98528 9 4.5 9C2.01472 9 0 6.98528 0 4.5C0 2.01472 2.01472 0 4.5 0C6.98528 0 9 2.01472 9 4.5ZM4.5 2C4.77614 2 5 2.22386 5 2.5V4H6.5C6.77614 4 7 4.22386 7 4.5C7 4.77614 6.77614 5 6.5 5H5V6.5C5 6.77614 4.77614 7 4.5 7C4.22386 7 4 6.77614 4 6.5V5H2.5C2.22386 5 2 4.77614 2 4.5C2 4.22386 2.22386 4 2.5 4H4V2.5C4 2.22386 4.22386 2 4.5 2Z" fill="#11910D"/>
</svg>
