<svg width="16" height="16" viewBox="0 0 16 16" fill="none" xmlns="http://www.w3.org/2000/svg">
<path d="M5.37889 9.93016C5.09271 9.97612 4.79914 10 4.5 10C4.43917 10 4.37856 9.99901 4.31821 9.99705C4.5833 10.7447 4.99557 11.4317 5.52891 12.0196C5.62511 12.1256 5.77603 12.1634 5.91115 12.1153L7.27068 11.6312C7.30687 11.6184 7.3441 11.6084 7.38197 11.6015C7.76701 11.5316 8.13608 11.7857 8.2063 12.1691L8.46529 13.5846C8.49104 13.7254 8.5996 13.8367 8.74013 13.8665C9.1513 13.9536 9.57289 13.9979 10 13.9979C10.4268 13.9979 10.8482 13.9537 11.2591 13.8666C11.3996 13.8369 11.5082 13.7256 11.534 13.5849L11.7937 12.1692C11.8006 12.1314 11.8106 12.0944 11.8235 12.0583C11.9552 11.6913 12.3608 11.5001 12.7294 11.6312L14.0888 12.1153C14.224 12.1634 14.3749 12.1256 14.4711 12.0196C15.04 11.3926 15.4711 10.6528 15.7328 9.84685C15.777 9.71089 15.7344 9.56183 15.625 9.46935L14.5231 8.53782C14.4937 8.51303 14.4665 8.48589 14.4416 8.45667C14.1882 8.1596 14.2247 7.71429 14.5231 7.46205L15.625 6.53053C15.7344 6.43805 15.777 6.28899 15.7328 6.15302C15.4711 5.34708 15.04 4.60729 14.4711 3.98033C14.3749 3.87431 14.224 3.83652 14.0888 3.88463L12.7293 4.36865C12.6931 4.38152 12.6559 4.39146 12.618 4.39833C12.233 4.46825 11.8639 4.21413 11.7937 3.83074L11.534 2.41496C11.5082 2.27427 11.3996 2.16301 11.2591 2.13325C10.8482 2.04621 10.4268 2.00195 10 2.00195C9.80382 2.00195 9.60881 2.0113 9.41544 2.02986C9.57141 2.33963 9.69897 2.66616 9.79467 3.00604C9.86289 3.00332 9.93134 3.00195 10 3.00195C10.213 3.00195 10.424 3.0151 10.6321 3.04107L10.8101 4.01117C10.9805 4.9408 11.8727 5.55003 12.7967 5.38225C12.8877 5.36572 12.9775 5.34176 13.0647 5.31073L14.0014 4.97726C14.2564 5.31084 14.4684 5.67476 14.6319 6.06064L13.8774 6.6984C13.1566 7.30787 13.0675 8.38649 13.6807 9.10555C13.7408 9.17609 13.8067 9.24166 13.8775 9.3015L14.6319 9.93924C14.4684 10.3251 14.2564 10.689 14.0014 11.0226L13.0646 10.6891C12.1797 10.3742 11.2013 10.8317 10.8823 11.7205C10.851 11.8078 10.8268 11.8978 10.81 11.9891L10.6321 12.9588C10.424 12.9848 10.213 12.9979 10 12.9979C9.78684 12.9979 9.5757 12.9848 9.36738 12.9587L9.18994 11.989C9.01965 11.0592 8.12743 10.4498 7.2033 10.6176C7.11227 10.6342 7.0225 10.6581 6.93528 10.6892L5.99863 11.0226C5.74357 10.689 5.53161 10.3251 5.36814 9.93924L5.37889 9.93016Z" fill="#202020"/>
<path fill-rule="evenodd" clip-rule="evenodd" d="M8.10829 8.65104C8.37839 9.43599 9.1233 10 9.99994 10C11.1045 10 11.9999 9.10457 11.9999 8C11.9999 6.89543 11.1045 6 9.99994 6C9.92899 6 9.85891 6.00369 9.78987 6.0109C9.49396 7.04888 8.9008 7.96157 8.10829 8.65104ZM9.99994 7C9.44765 7 8.99994 7.44772 8.99994 8C8.99994 8.55228 9.44765 9 9.99994 9C10.5522 9 10.9999 8.55228 10.9999 8C10.9999 7.44772 10.5522 7 9.99994 7Z" fill="#202020"/>
<path fill-rule="evenodd" clip-rule="evenodd" d="M9 4.5C9 6.98528 6.98528 9 4.5 9C2.01472 9 0 6.98528 0 4.5C0 2.01472 2.01472 0 4.5 0C6.98528 0 9 2.01472 9 4.5ZM4.5 2C4.77614 2 5 2.22386 5 2.5V4H6.5C6.77614 4 7 4.22386 7 4.5C7 4.77614 6.77614 5 6.5 5H5V6.5C5 6.77614 4.77614 7 4.5 7C4.22386 7 4 6.77614 4 6.5V5H2.5C2.22386 5 2 4.77614 2 4.5C2 4.22386 2.22386 4 2.5 4H4V2.5C4 2.22386 4.22386 2 4.5 2Z" fill="#11910D"/>
</svg>
