<svg width="16" height="16" viewBox="0 0 16 16" fill="none" xmlns="http://www.w3.org/2000/svg">
<path d="M14.5 14H13.5C12.673 14 12 13.327 12 12.5V4.5C12 3.673 12.673 3 13.5 3H14.5C15.327 3 16 3.673 16 4.5V12.5C16 13.327 15.327 14 14.5 14ZM13.5 4C13.224 4 13 4.224 13 4.5V12.5C13 12.776 13.224 13 13.5 13H14.5C14.776 13 15 12.776 15 12.5V4.5C15 4.224 14.776 4 14.5 4H13.5Z" fill="#006CBF"/>
<path d="M10.854 8.14576L9.354 6.64576C9.159 6.45076 8.842 6.45076 8.647 6.64576C8.452 6.84076 8.452 7.15776 8.647 7.35276L9.293 7.99876H6.5C6.224 7.99876 6 8.22276 6 8.49876C6 8.77476 6.224 8.99876 6.5 8.99876H9.293L8.647 9.64476C8.452 9.83976 8.452 10.1568 8.647 10.3518C8.745 10.4498 8.873 10.4978 9.001 10.4978C9.129 10.4978 9.257 10.4488 9.355 10.3518L10.855 8.85176C11.05 8.65676 11.05 8.33976 10.855 8.14476L10.854 8.14576Z" fill="#006CBF"/>
<path d="M6 10V12.5C6 12.776 5.776 13 5.5 13H4V4H5.5C5.776 4 6 4.224 6 4.5V7H7V4.5C7 3.673 6.327 3 5.5 3H1.5C0.673 3 0 3.673 0 4.5V12.5C0 13.327 0.673 14 1.5 14H5.5C6.327 14 7 13.327 7 12.5V10H6ZM3 13H1.5C1.224 13 1 12.776 1 12.5V4.5C1 4.224 1.224 4 1.5 4H3V13Z" fill="#202020"/>
</svg>
