<svg width="16" height="16" viewBox="0 0 16 16" fill="none" xmlns="http://www.w3.org/2000/svg">
<path d="M5 9.97758V10C5 9.99251 4.99992 9.98505 5 9.97758C4.99996 9.97758 5.00004 9.97757 5 9.97758Z" fill="#202020"/>
<path fill-rule="evenodd" clip-rule="evenodd" d="M9.40029 2C9.21739 1.64222 8.99647 1.30711 8.74284 1L10.5858 1C10.9836 1 11.3651 1.15804 11.6464 1.43934L14.5607 4.35355C14.842 4.63486 15 5.01639 15 5.41421V13C15 14.1046 14.1046 15 13 15H10V14H13C13.5523 14 14 13.5523 14 13V6H11.5C10.6716 6 10 5.32843 10 4.5V2H9.40029ZM13.7929 5H11.5C11.2239 5 11 4.77614 11 4.5V2.20711L13.7929 5Z" fill="#202020"/>
<path d="M6.02289 9.78644C6.617 9.6156 7.16987 9.34732 7.66308 9H8C8.552 9 9 9.448 9 10V12H6V10C6 9.92671 6.0079 9.85526 6.02289 9.78644Z" fill="#202020"/>
<path d="M3 13H5V16H3C2.448 16 2 15.552 2 15V14C2 13.448 2.448 13 3 13Z" fill="#202020"/>
<path d="M9 15C9 15.552 8.552 16 8 16H6V13H9V15Z" fill="#202020"/>
<path fill-rule="evenodd" clip-rule="evenodd" d="M9 4.5C9 6.98528 6.98528 9 4.5 9C2.01472 9 0 6.98528 0 4.5C0 2.01472 2.01472 0 4.5 0C6.98528 0 9 2.01472 9 4.5ZM4.5 2C4.77614 2 5 2.22386 5 2.5V4H6.5C6.77614 4 7 4.22386 7 4.5C7 4.77614 6.77614 5 6.5 5H5V6.5C5 6.77614 4.77614 7 4.5 7C4.22386 7 4 6.77614 4 6.5V5H2.5C2.22386 5 2 4.77614 2 4.5C2 4.22386 2.22386 4 2.5 4H4V2.5C4 2.22386 4.22386 2 4.5 2Z" fill="#11910D"/>
</svg>
