<svg width="16" height="16" viewBox="0 0 16 16" fill="none" xmlns="http://www.w3.org/2000/svg">
<g clip-path="url(#clip0_7198_12476)">
<path d="M9.40029 7H11.501C11.777 7 12.001 6.776 12.001 6.5C12.001 6.224 11.777 6 11.501 6L9.79297 6C9.69436 6.34864 9.56223 6.68321 9.40029 7Z" fill="#202020"/>
<path d="M6.50098 16C6.22498 16 6.00098 15.776 6.00098 15.5C6.00098 15.224 6.22498 15 6.50098 15H11.501C11.777 15 12.001 15.224 12.001 15.5C12.001 15.776 11.777 16 11.501 16H6.50098Z" fill="#202020"/>
<path d="M11.501 10H15.501C15.777 10 16.001 9.776 16.001 9.5C16.001 9.224 15.777 9 15.501 9H11.501C11.225 9 11.001 9.224 11.001 9.5C11.001 9.776 11.225 10 11.501 10Z" fill="#202020"/>
<path d="M11.501 12C11.225 12 11.001 12.224 11.001 12.5C11.001 12.776 11.225 13 11.501 13H15.501C15.777 13 16.001 12.776 16.001 12.5C16.001 12.224 15.777 12 15.501 12H11.501Z" fill="#202020"/>
<path d="M7.01349 9.39337C7.2297 9.28209 7.43759 9.1569 7.63595 9.01898C7.7163 9.04125 7.79214 9.08392 7.85521 9.147L9.85522 11.147C10.0502 11.342 10.0502 11.659 9.85522 11.854L7.85521 13.854C7.75721 13.952 7.62921 14 7.50121 14C7.37321 14 7.24521 13.951 7.14721 13.854C6.95221 13.659 6.95221 13.342 7.14721 13.147L8.29321 12.001H4.50021C4.22421 12.001 4.00022 11.777 4.00022 11.501C4.00022 11.225 4.22421 11.001 4.50021 11.001L4.50121 11H8.29422L7.14822 9.854C7.02334 9.72913 6.97844 9.55423 7.01349 9.39337Z" fill="#006CBF"/>
<path fill-rule="evenodd" clip-rule="evenodd" d="M9 4.5C9 6.98528 6.98528 9 4.5 9C2.01472 9 0 6.98528 0 4.5C0 2.01472 2.01472 0 4.5 0C6.98528 0 9 2.01472 9 4.5ZM4.5 2C4.77614 2 5 2.22386 5 2.5V4H6.5C6.77614 4 7 4.22386 7 4.5C7 4.77614 6.77614 5 6.5 5H5V6.5C5 6.77614 4.77614 7 4.5 7C4.22386 7 4 6.77614 4 6.5V5H2.5C2.22386 5 2 4.77614 2 4.5C2 4.22386 2.22386 4 2.5 4H4V2.5C4 2.22386 4.22386 2 4.5 2Z" fill="#11910D"/>
</g>
<defs>
<clipPath id="clip0_7198_12476">
<rect width="16" height="16" fill="white"/>
</clipPath>
</defs>
</svg>
