<svg width="16" height="16" viewBox="0 0 16 16" fill="none" xmlns="http://www.w3.org/2000/svg">
<path d="M7.06856 9.36463C7.64005 9.06225 8.15185 8.66212 8.58169 8.1865C8.83497 8.36792 9 8.66469 9 9C9 9.55228 8.55228 10 8 10C7.57638 10 7.21429 9.73659 7.06856 9.36463Z" fill="#202020"/>
<path d="M4.85103 9.98898C4.89963 9.99624 4.94938 10 5 10C5.12705 10 5.24856 9.97631 5.36037 9.9331C5.19297 9.9594 5.02307 9.97814 4.85103 9.98898Z" fill="#202020"/>
<path d="M9.40029 7C9.56223 6.68321 9.69436 6.34864 9.79297 6H10.5C10.7761 6 11 5.77614 11 5.5V4.5C11 4.22386 10.7761 4 10.5 4H9.97758C9.94663 3.65659 9.88412 3.32228 9.79297 3H10.5C11.3284 3 12 3.67157 12 4.5V5.5C12 6.32843 11.3284 7 10.5 7H9.40029Z" fill="#202020"/>
<path d="M9.40029 2C9.21739 1.64222 8.99647 1.30711 8.74284 1L11.5 1C12.8807 1 14 2.11929 14 3.5V12.5C14 13.8807 12.8807 15 11.5 15H4.5C3.11929 15 2 13.8807 2 12.5L2 9.40029C2.31679 9.56223 2.65136 9.69436 3 9.79297V12.5C3 13.3284 3.67157 14 4.5 14H11.5C12.3284 14 13 13.3284 13 12.5V3.5C13 2.67157 12.3284 2 11.5 2H9.40029Z" fill="#202020"/>
<path d="M5 13C5.55228 13 6 12.5523 6 12C6 11.4477 5.55228 11 5 11C4.44772 11 4 11.4477 4 12C4 12.5523 4.44772 13 5 13Z" fill="#202020"/>
<path d="M12 9C12 9.55228 11.5523 10 11 10C10.4477 10 10 9.55228 10 9C10 8.44772 10.4477 8 11 8C11.5523 8 12 8.44772 12 9Z" fill="#202020"/>
<path d="M11 13C11.5523 13 12 12.5523 12 12C12 11.4477 11.5523 11 11 11C10.4477 11 10 11.4477 10 12C10 12.5523 10.4477 13 11 13Z" fill="#202020"/>
<path d="M8 13C8.55228 13 9 12.5523 9 12C9 11.4477 8.55228 11 8 11C7.44772 11 7 11.4477 7 12C7 12.5523 7.44772 13 8 13Z" fill="#202020"/>
<path fill-rule="evenodd" clip-rule="evenodd" d="M9 4.5C9 6.98528 6.98528 9 4.5 9C2.01472 9 0 6.98528 0 4.5C0 2.01472 2.01472 0 4.5 0C6.98528 0 9 2.01472 9 4.5ZM4.5 2C4.77614 2 5 2.22386 5 2.5V4H6.5C6.77614 4 7 4.22386 7 4.5C7 4.77614 6.77614 5 6.5 5H5V6.5C5 6.77614 4.77614 7 4.5 7C4.22386 7 4 6.77614 4 6.5V5H2.5C2.22386 5 2 4.77614 2 4.5C2 4.22386 2.22386 4 2.5 4H4V2.5C4 2.22386 4.22386 2 4.5 2Z" fill="#11910D"/>
</svg>
