<svg width="16" height="16" viewBox="0 0 16 16" fill="none" xmlns="http://www.w3.org/2000/svg">
<path d="M9.79297 3C9.69436 2.65136 9.56223 2.31679 9.40029 2L13.5 2C13.7761 2 14 2.22386 14 2.5V8.5C14 8.77614 13.7761 9 13.5 9C13.2239 9 13 8.77614 13 8.5V3.7071L8.87973 7.82734C9.41829 7.11954 9.78918 6.27725 9.93321 5.35966L12.2929 3H9.79297Z" fill="#202020"/>
<path d="M5.35963 9.93322L2.14638 13.1464C1.95111 13.3417 1.95111 13.6583 2.14637 13.8536C2.34163 14.0488 2.65822 14.0488 2.85348 13.8536L7.82731 8.87975C7.11951 9.4183 6.27721 9.7892 5.35963 9.93322Z" fill="#202020"/>
<path fill-rule="evenodd" clip-rule="evenodd" d="M9 4.5C9 6.98528 6.98528 9 4.5 9C2.01472 9 0 6.98528 0 4.5C0 2.01472 2.01472 0 4.5 0C6.98528 0 9 2.01472 9 4.5ZM4.5 2C4.77614 2 5 2.22386 5 2.5V4H6.5C6.77614 4 7 4.22386 7 4.5C7 4.77614 6.77614 5 6.5 5H5V6.5C5 6.77614 4.77614 7 4.5 7C4.22386 7 4 6.77614 4 6.5V5H2.5C2.22386 5 2 4.77614 2 4.5C2 4.22386 2.22386 4 2.5 4H4V2.5C4 2.22386 4.22386 2 4.5 2Z" fill="#11910D"/>
</svg>
