<svg width="16" height="16" viewBox="0 0 16 16" fill="none" xmlns="http://www.w3.org/2000/svg">
<g clip-path="url(#clip0_7198_12673)">
<path fill-rule="evenodd" clip-rule="evenodd" d="M9.5 6.79449V10.5C9.5 11.3284 8.82843 12 8 12V13C8.8178 13 9.54389 12.6073 10 12.0002C10.4561 12.6073 11.1822 13 12 13H14.5C15.3284 13 16 12.3284 16 11.5V4.5C16 3.67157 15.3284 3 14.5 3H12C11.1822 3 10.4561 3.39267 10 3.99976C9.99157 3.98854 9.98305 3.97739 9.97444 3.96632C9.99135 4.14193 10 4.31996 10 4.5C10 5.31896 9.821 6.09612 9.5 6.79449ZM10.5 5.5V10.5C10.5 11.3284 11.1716 12 12 12H14.5C14.7761 12 15 11.7761 15 11.5V4.5C15 4.22386 14.7761 4 14.5 4H12C11.1716 4 10.5 4.67157 10.5 5.5Z" fill="#202020"/>
<path d="M5.75 16H1.25C0.561 16 0 15.439 0 14.75V11.25C0 10.561 0.561 10 1.25 10H5.75C6.439 10 7 10.561 7 11.25V14.75C7 15.439 6.439 16 5.75 16ZM1.25 11C1.112 11 1 11.112 1 11.25V14.75C1 14.888 1.112 15 1.25 15H5.75C5.888 15 6 14.888 6 14.75V11.25C6 11.112 5.888 11 5.75 11H1.25Z" fill="#202020"/>
<path fill-rule="evenodd" clip-rule="evenodd" d="M9 4.5C9 6.98528 6.98528 9 4.5 9C2.01472 9 0 6.98528 0 4.5C0 2.01472 2.01472 0 4.5 0C6.98528 0 9 2.01472 9 4.5ZM4.5 2C4.77614 2 5 2.22386 5 2.5V4H6.5C6.77614 4 7 4.22386 7 4.5C7 4.77614 6.77614 5 6.5 5H5V6.5C5 6.77614 4.77614 7 4.5 7C4.22386 7 4 6.77614 4 6.5V5H2.5C2.22386 5 2 4.77614 2 4.5C2 4.22386 2.22386 4 2.5 4H4V2.5C4 2.22386 4.22386 2 4.5 2Z" fill="#11910D"/>
</g>
<defs>
<clipPath id="clip0_7198_12673">
<rect width="16" height="16" fill="white"/>
</clipPath>
</defs>
</svg>
