<svg width="16" height="16" viewBox="0 0 16 16" fill="none" xmlns="http://www.w3.org/2000/svg">
<g clip-path="url(#clip0_7198_12677)">
<path d="M8.86325 9.42975C8.95349 9.66108 9.00031 9.90835 9 10.1591V10.707L14 5.707V7.329C14 7.46161 14.0527 7.58879 14.1465 7.68255C14.2402 7.77632 14.3674 7.829 14.5 7.829C14.6326 7.829 14.7598 7.77632 14.8536 7.68255C14.9473 7.58879 15 7.46161 15 7.329V4.5C15 4.36739 14.9473 4.24022 14.8536 4.14645C14.7598 4.05268 14.6326 4 14.5 4H11.672C11.5394 4 11.4122 4.05268 11.3184 4.14645C11.2247 4.24022 11.172 4.36739 11.172 4.5C11.172 4.63261 11.2247 4.75979 11.3184 4.85355C11.4122 4.94732 11.5394 5 11.672 5H13.293L8.86325 9.42975Z" fill="#202020"/>
<path d="M9 13V13.8411C9 13.8943 8.99787 13.9473 8.99367 14H14.293L13.146 15.146C13.0995 15.1925 13.0626 15.2477 13.0375 15.3084C13.0123 15.3692 12.9994 15.4343 12.9994 15.5C12.9994 15.5657 13.0123 15.6308 13.0375 15.6916C13.0626 15.7523 13.0995 15.8075 13.146 15.854C13.1925 15.9005 13.2477 15.9374 13.3084 15.9625C13.3692 15.9877 13.4343 16.0006 13.5 16.0006C13.5657 16.0006 13.6308 15.9877 13.6916 15.9625C13.7523 15.9374 13.8075 15.9005 13.854 15.854L15.854 13.854C15.9006 13.8076 15.9375 13.7524 15.9627 13.6916C15.9879 13.6309 16.0009 13.5658 16.0009 13.5C16.0009 13.4342 15.9879 13.3691 15.9627 13.3084C15.9375 13.2476 15.9006 13.1924 15.854 13.146L13.854 11.146C13.7601 11.0521 13.6328 10.9994 13.5 10.9994C13.3672 10.9994 13.2399 11.0521 13.146 11.146C13.0521 11.2399 12.9994 11.3672 12.9994 11.5C12.9994 11.6328 13.0521 11.7601 13.146 11.854L14.293 13H9Z" fill="#202020"/>
<path fill-rule="evenodd" clip-rule="evenodd" d="M7.33431 9.21436C6.50657 9.71306 5.53679 9.99993 4.5 9.99993C3.46321 9.99993 2.49343 9.71306 1.66569 9.21436L1.606 9.23993C1.42616 9.31702 1.27288 9.44518 1.16517 9.60854C1.05745 9.77189 1.00002 9.96326 1 10.1589V13.8409C1.00002 14.0366 1.05745 14.228 1.16517 14.3913C1.27288 14.5547 1.42616 14.6828 1.606 14.7599L4.106 15.8309C4.2305 15.8843 4.36454 15.9118 4.5 15.9118C4.63546 15.9118 4.7695 15.8843 4.894 15.8309L7.394 14.7599C7.57384 14.6828 7.72712 14.5547 7.83484 14.3913C7.94255 14.228 7.99998 14.0366 8 13.8409V10.1589C7.99998 9.96326 7.94255 9.77189 7.83484 9.60854C7.72712 9.44518 7.57384 9.31702 7.394 9.23993L7.33431 9.21436ZM4 11.8089L2.276 10.9469C2.15851 10.8869 2.0695 10.7829 2.02837 10.6575C1.98725 10.5322 1.99734 10.3956 2.05645 10.2777C2.11556 10.1597 2.21889 10.0699 2.34394 10.0278C2.46898 9.9857 2.60559 9.99473 2.724 10.0529L4.5 10.9409L6.276 10.0529C6.33488 10.0229 6.39912 10.0049 6.465 9.99993C6.53075 9.99487 6.59684 10.0029 6.65949 10.0235C6.72213 10.0441 6.78008 10.0768 6.83 10.1199C6.87948 10.1631 6.91996 10.2157 6.94913 10.2745C6.9783 10.3334 6.99558 10.3974 7 10.4629C7.0053 10.5288 6.99748 10.5951 6.977 10.6579C6.95636 10.7206 6.92333 10.7785 6.87987 10.8281C6.8364 10.8778 6.7834 10.9182 6.724 10.9469L5 11.8089V13.9999C5 14.1325 4.94732 14.2597 4.85355 14.3535C4.75979 14.4473 4.63261 14.4999 4.5 14.4999C4.36739 14.4999 4.24021 14.4473 4.14645 14.3535C4.05268 14.2597 4 14.1325 4 13.9999V11.8089Z" fill="#202020"/>
<path fill-rule="evenodd" clip-rule="evenodd" d="M9 4.5C9 6.98528 6.98528 9 4.5 9C2.01472 9 0 6.98528 0 4.5C0 2.01472 2.01472 0 4.5 0C6.98528 0 9 2.01472 9 4.5ZM4.5 2C4.77614 2 5 2.22386 5 2.5V4H6.5C6.77614 4 7 4.22386 7 4.5C7 4.77614 6.77614 5 6.5 5H5V6.5C5 6.77614 4.77614 7 4.5 7C4.22386 7 4 6.77614 4 6.5V5H2.5C2.22386 5 2 4.77614 2 4.5C2 4.22386 2.22386 4 2.5 4H4V2.5C4 2.22386 4.22386 2 4.5 2Z" fill="#11910D"/>
</g>
<defs>
<clipPath id="clip0_7198_12677">
<rect width="16" height="16" fill="white"/>
</clipPath>
</defs>
</svg>
