<svg width="16" height="16" viewBox="0 0 16 16" fill="none" xmlns="http://www.w3.org/2000/svg">
<g clip-path="url(#clip0_7198_12718)">
<path d="M6.18043 9.73855C6.31614 9.8969 6.51773 10 6.74951 10H8.33338L7.05299 14.3888C6.66907 15.7047 8.37726 16.5898 9.23096 15.5173L15.8379 7.21709C16.229 6.72572 15.8791 6 15.2511 6H13.2216L14.2149 3.35112C14.4601 2.69737 13.9768 2 13.2786 2L9.40029 2C9.56223 2.31679 9.69436 2.65136 9.79297 3H13.2786L12.0319 6.32444C11.9743 6.47799 11.9957 6.65001 12.0891 6.7848C12.1825 6.91958 12.3361 7 12.5001 7H14.7326L8.44856 14.8945C8.39618 14.9603 8.34467 14.9826 8.30213 14.9899C8.25354 14.9983 8.19467 14.9902 8.13794 14.9608C8.08121 14.9314 8.04067 14.888 8.0195 14.8434C8.00096 14.8045 7.98941 14.7496 8.01297 14.6688L9.48008 9.64003C9.52416 9.48895 9.49453 9.32593 9.4001 9.20001C9.30568 9.0741 9.15748 9 9.00009 9H7.66308C7.21374 9.31642 6.71489 9.56725 6.18043 9.73855Z" fill="#B27C00"/>
<path fill-rule="evenodd" clip-rule="evenodd" d="M9 4.5C9 6.98528 6.98528 9 4.5 9C2.01472 9 0 6.98528 0 4.5C0 2.01472 2.01472 0 4.5 0C6.98528 0 9 2.01472 9 4.5ZM4.5 2C4.77614 2 5 2.22386 5 2.5V4H6.5C6.77614 4 7 4.22386 7 4.5C7 4.77614 6.77614 5 6.5 5H5V6.5C5 6.77614 4.77614 7 4.5 7C4.22386 7 4 6.77614 4 6.5V5H2.5C2.22386 5 2 4.77614 2 4.5C2 4.22386 2.22386 4 2.5 4H4V2.5C4 2.22386 4.22386 2 4.5 2Z" fill="#11910D"/>
</g>
<defs>
<clipPath id="clip0_7198_12718">
<rect width="16" height="16" fill="white"/>
</clipPath>
</defs>
</svg>
