<svg width="16" height="16" viewBox="0 0 16 16" fill="none" xmlns="http://www.w3.org/2000/svg">
<g clip-path="url(#clip0_7198_12796)">
<path d="M7.36506 9.19576C7.65101 9.02092 7.91974 8.82069 8.16814 8.59821L8.502 9.099L9.086 8.223C9.238 7.993 9.547 7.931 9.779 8.084C10.009 8.237 10.071 8.547 9.918 8.777L9.103 10L9.918 11.223C10.071 11.453 10.009 11.763 9.779 11.916C9.693 11.973 9.597 12 9.502 12C9.34 12 9.181 11.922 9.085 11.777L8.501 10.901L7.917 11.777C7.82 11.922 7.662 12 7.5 12C7.405 12 7.308 11.973 7.223 11.916H7.225C6.995 11.763 6.933 11.453 7.086 11.223L7.901 10L7.36506 9.19576Z" fill="#202020"/>
<path d="M16 14V10.5C16 10.224 15.776 10 15.5 10C15.224 10 15 10.224 15 10.5V14C15 14.551 14.551 15 14 15H6C5.449 15 5 14.551 5 14V10.5C5 10.224 4.776 10 4.5 10C4.224 10 4 10.224 4 10.5V14C4 15.103 4.897 16 6 16H14C15.103 16 16 15.103 16 14Z" fill="#202020"/>
<path d="M12 11.5V10.151L11.084 8.777C10.931 8.547 10.993 8.237 11.223 8.084C11.453 7.931 11.763 7.994 11.916 8.223L12.5 9.099L13.084 8.223C13.236 7.993 13.545 7.931 13.777 8.084C14.007 8.237 14.069 8.547 13.916 8.777L13 10.151V11.5C13 11.776 12.776 12 12.5 12C12.224 12 12 11.776 12 11.5Z" fill="#202020"/>
<path fill-rule="evenodd" clip-rule="evenodd" d="M9 4.5C9 6.98528 6.98528 9 4.5 9C2.01472 9 0 6.98528 0 4.5C0 2.01472 2.01472 0 4.5 0C6.98528 0 9 2.01472 9 4.5ZM4.5 2C4.77614 2 5 2.22386 5 2.5V4H6.5C6.77614 4 7 4.22386 7 4.5C7 4.77614 6.77614 5 6.5 5H5V6.5C5 6.77614 4.77614 7 4.5 7C4.22386 7 4 6.77614 4 6.5V5H2.5C2.22386 5 2 4.77614 2 4.5C2 4.22386 2.22386 4 2.5 4H4V2.5C4 2.22386 4.22386 2 4.5 2Z" fill="#11910D"/>
</g>
<defs>
<clipPath id="clip0_7198_12796">
<rect width="16" height="16" fill="white"/>
</clipPath>
</defs>
</svg>
