<svg width="16" height="16" viewBox="0 0 16 16" fill="none" xmlns="http://www.w3.org/2000/svg">
<path d="M11.498 6.504C12.051 6.504 12.5 6.055 12.5 5.502C12.5 4.949 12.051 4.5 11.498 4.5C10.945 4.5 10.496 4.949 10.496 5.502C10.496 6.055 10.945 6.504 11.498 6.504Z" fill="#B27C00"/>
<path d="M6.79357 9.50042C7.53573 9.15945 8.18894 8.65812 8.70882 8.04079C9.24173 7.95393 9.81395 8.10733 10.207 8.50099L13.853 12.147C14.048 12.342 14.048 12.659 13.853 12.854C13.7551 12.9519 13.6273 12.9999 13.4995 13C13.3717 12.9999 13.2439 12.9509 13.146 12.854L9.5 9.20799C9.232 8.93999 8.768 8.93999 8.5 9.20799L4.854 12.854C4.659 13.049 4.342 13.049 4.147 12.854C3.952 12.659 3.952 12.342 4.147 12.147L6.79357 9.50042Z" fill="#006CBF"/>
<path d="M9.79297 3H12.5C13.327 3 14 3.673 14 4.5V11.5C14 12.327 13.327 13 12.5 13H5.5C4.673 13 4 12.327 4 11.5V9.97758C3.65659 9.94663 3.32228 9.88412 3 9.79297L3 11.5C3 12.879 4.121 14 5.5 14H12.5C13.879 14 15 12.879 15 11.5V4.5C15 3.121 13.879 2 12.5 2L9.40029 2C9.56223 2.31679 9.69436 2.65136 9.79297 3Z" fill="#202020"/>
<path fill-rule="evenodd" clip-rule="evenodd" d="M9 4.5C9 6.98528 6.98528 9 4.5 9C2.01472 9 0 6.98528 0 4.5C0 2.01472 2.01472 0 4.5 0C6.98528 0 9 2.01472 9 4.5ZM4.5 2C4.77614 2 5 2.22386 5 2.5V4H6.5C6.77614 4 7 4.22386 7 4.5C7 4.77614 6.77614 5 6.5 5H5V6.5C5 6.77614 4.77614 7 4.5 7C4.22386 7 4 6.77614 4 6.5V5H2.5C2.22386 5 2 4.77614 2 4.5C2 4.22386 2.22386 4 2.5 4H4V2.5C4 2.22386 4.22386 2 4.5 2Z" fill="#11910D"/>
</svg>
