<svg width="16" height="16" viewBox="0 0 16 16" fill="none" xmlns="http://www.w3.org/2000/svg">
<path fill-rule="evenodd" clip-rule="evenodd" d="M5.64848 9.87991C5.27806 9.9586 4.89387 10 4.5 10C3.80796 10 3.14576 9.87218 2.53574 9.63887C2.20346 9.99609 2 10.4747 2 11C2 12.103 2.897 13 4 13C4.929 13 5.705 12.36 5.929 11.5H9.051C9.296 13.192 10.742 14.5 12.5 14.5C14.43 14.5 16 12.93 16 11C16 9.07 14.43 7.5 12.5 7.5C10.742 7.5 9.296 8.808 9.051 10.5H5.929C5.87063 10.2759 5.77476 10.0667 5.64848 9.87991ZM3 11C3 11.551 3.448 12 4 12C4.552 12 5 11.551 5 11C5 10.449 4.552 10 4 10C3.448 10 3 10.449 3 11ZM10 11C10 12.378 11.121 13.5 12.5 13.5C13.879 13.5 15 12.378 15 11C15 9.622 13.879 8.5 12.5 8.5C11.121 8.5 10 9.622 10 11Z" fill="#006CBF"/>
<path fill-rule="evenodd" clip-rule="evenodd" d="M9 4.5C9 6.98528 6.98528 9 4.5 9C2.01472 9 0 6.98528 0 4.5C0 2.01472 2.01472 0 4.5 0C6.98528 0 9 2.01472 9 4.5ZM4.5 2C4.77614 2 5 2.22386 5 2.5V4H6.5C6.77614 4 7 4.22386 7 4.5C7 4.77614 6.77614 5 6.5 5H5V6.5C5 6.77614 4.77614 7 4.5 7C4.22386 7 4 6.77614 4 6.5V5H2.5C2.22386 5 2 4.77614 2 4.5C2 4.22386 2.22386 4 2.5 4H4V2.5C4 2.22386 4.22386 2 4.5 2Z" fill="#11910D"/>
</svg>
