<svg width="16" height="16" viewBox="0 0 16 16" fill="none" xmlns="http://www.w3.org/2000/svg">
<g clip-path="url(#clip0_7198_12952)">
<path fill-rule="evenodd" clip-rule="evenodd" d="M8.511 12L8.5 10.5H9.5L9.511 12H10.5C10.633 12 10.76 12.052 10.854 12.146C10.947 12.24 11 12.367 11 12.5V13H11.5C11.633 13 11.76 13.052 11.854 13.146C11.947 13.24 12 13.367 12 13.5V14H15.5C15.633 14 15.76 14.052 15.854 14.146C15.947 14.24 16 14.367 16 14.5C16 14.633 15.948 14.76 15.854 14.854C15.76 14.947 15.633 15 15.5 15H12V15.5C12 15.633 11.948 15.76 11.854 15.854C11.76 15.947 11.633 16 11.5 16H6.5C6.367 16 6.24 15.948 6.146 15.854C6.053 15.76 6 15.633 6 15.5V15H2.5C2.367 15 2.24 14.948 2.146 14.854C2.053 14.76 2 14.633 2 14.5C2 14.367 2.052 14.24 2.146 14.146C2.24 14.053 2.367 14 2.5 14H6V13.5C6 13.367 6.052 13.24 6.146 13.146C6.24 13.053 6.367 13 6.5 13H7V12.5C7 12.367 7.052 12.24 7.146 12.146C7.24 12.053 7.367 12 7.5 12H8.511ZM10 13H8V13.5C8 13.633 7.948 13.76 7.854 13.854C7.76 13.947 7.633 14 7.5 14H7V15H11V14H10.5C10.367 14 10.24 13.948 10.146 13.854C10.053 13.76 10 13.633 10 13.5V13Z" fill="#202020"/>
<path d="M5.40106 9.92655C6.08631 10.6343 7.54954 11 9 11C10.988 11 13 10.313 13 8.99999V1.99999C13 0.423776 10.1178 -0.206341 7.81332 0.109634C8.15823 0.370336 8.47145 0.670743 8.74618 1.00405C8.82921 1.00137 8.91383 0.999987 9 0.999987C10.861 0.999987 12 1.64699 12 1.99999C12 2.30045 11.1748 2.81392 9.78152 2.9601C9.87449 3.27953 9.93928 3.61096 9.973 3.95153C10.6746 3.86366 11.3596 3.66188 12 3.35199V8.99999C12 9.35299 10.861 9.99999 9 9.99999C7.97107 9.99999 7.16284 9.8022 6.6458 9.56568C6.25224 9.7326 5.83522 9.855 5.40106 9.92655Z" fill="#3487C7"/>
<path fill-rule="evenodd" clip-rule="evenodd" d="M9 4.5C9 6.98528 6.98528 9 4.5 9C2.01472 9 0 6.98528 0 4.5C0 2.01472 2.01472 0 4.5 0C6.98528 0 9 2.01472 9 4.5ZM4.5 2C4.77614 2 5 2.22386 5 2.5V4H6.5C6.77614 4 7 4.22386 7 4.5C7 4.77614 6.77614 5 6.5 5H5V6.5C5 6.77614 4.77614 7 4.5 7C4.22386 7 4 6.77614 4 6.5V5H2.5C2.22386 5 2 4.77614 2 4.5C2 4.22386 2.22386 4 2.5 4H4V2.5C4 2.22386 4.22386 2 4.5 2Z" fill="#11910D"/>
</g>
<defs>
<clipPath id="clip0_7198_12952">
<rect width="16" height="16" fill="white"/>
</clipPath>
</defs>
</svg>
