<svg width="16" height="16" viewBox="0 0 16 16" fill="none" xmlns="http://www.w3.org/2000/svg">
<path d="M6.06131 9.77524C6.22535 10.8136 6.71361 11.7812 7.46622 12.5338C8.40355 13.4711 9.67441 13.9984 11 14C12.3256 13.9984 13.5964 13.4711 14.5338 12.5338C15.4711 11.5964 15.9984 10.3256 16 9C15.9984 7.67441 15.4711 6.40355 14.5338 5.46622C13.5964 4.52888 12.3256 4.00159 11 4C10.6567 4.00041 10.3171 4.03608 9.98603 4.10499C9.99529 4.23545 10 4.36718 10 4.5C10 4.71531 9.98763 4.92774 9.96355 5.1366C10.2987 5.04667 10.647 5 11 5C12.0609 5 13.0783 5.42142 13.8284 6.17157C14.5786 6.92172 15 7.93913 15 9C15 10.0609 14.5786 11.0783 13.8284 11.8284C13.0783 12.5786 12.0609 13 11 13C9.93913 13 8.92172 12.5786 8.17157 11.8284C7.51403 11.1709 7.10906 10.308 7.01909 9.39048C6.71523 9.54732 6.39487 9.67667 6.06131 9.77524Z" fill="#202020"/>
<path fill-rule="evenodd" clip-rule="evenodd" d="M9.00773 7.65208C9.04256 7.99404 9.19412 8.31543 9.43935 8.56065C9.72065 8.84196 10.1022 9 10.5 9C10.8978 9 11.2793 8.84196 11.5607 8.56065C11.842 8.27935 12 7.89782 12 7.5C12 7.10218 11.842 6.72065 11.5607 6.43935C11.2793 6.15804 10.8978 6 10.5 6C10.2256 6 9.95897 6.07518 9.72763 6.21414C9.55808 6.73152 9.31387 7.21508 9.00773 7.65208ZM10.1465 7.14645C10.2402 7.05269 10.3674 7 10.5 7C10.6326 7 10.7598 7.05269 10.8535 7.14645C10.9473 7.24022 11 7.36739 11 7.5C11 7.63261 10.9473 7.75978 10.8535 7.85355C10.7598 7.94731 10.6326 8 10.5 8C10.3674 8 10.2402 7.94731 10.1465 7.85355C10.0527 7.75978 10 7.63261 10 7.5C10 7.36739 10.0527 7.24022 10.1465 7.14645Z" fill="#202020"/>
<path fill-rule="evenodd" clip-rule="evenodd" d="M9 4.5C9 6.98528 6.98528 9 4.5 9C2.01472 9 0 6.98528 0 4.5C0 2.01472 2.01472 0 4.5 0C6.98528 0 9 2.01472 9 4.5ZM4.5 2C4.77614 2 5 2.22386 5 2.5V4H6.5C6.77614 4 7 4.22386 7 4.5C7 4.77614 6.77614 5 6.5 5H5V6.5C5 6.77614 4.77614 7 4.5 7C4.22386 7 4 6.77614 4 6.5V5H2.5C2.22386 5 2 4.77614 2 4.5C2 4.22386 2.22386 4 2.5 4H4V2.5C4 2.22386 4.22386 2 4.5 2Z" fill="#11910D"/>
</svg>
