<svg width="16" height="16" viewBox="0 0 16 16" fill="none" xmlns="http://www.w3.org/2000/svg">
<g clip-path="url(#clip0_7198_12978)">
<path d="M5 9.97758V12H4C3.636 12 3.294 12.098 3 12.269V9.79297C2.65136 9.69436 2.31679 9.56223 2 9.40029L2 14C2 15.103 2.897 16 4 16H14C15.103 16 16 15.103 16 14V8C16 6.897 15.103 6 14 6H9.79297C9.69436 6.34864 9.56223 6.68321 9.40029 7H14C14.552 7 15 7.449 15 8V14C15 14.551 14.552 15 14 15H4C3.448 15 3 14.551 3 14C3 13.449 3.448 13 4 13H5C5.552 13 6 12.551 6 12V9.79297C5.67772 9.88412 5.34341 9.94663 5 9.97758Z" fill="#202020"/>
<path d="M8.04424 8.70592C8.12271 8.87934 8.29727 9 8.5 9C8.77614 9 9 8.77614 9 8.5C9 8.29727 8.87934 8.12271 8.70592 8.04424C8.50447 8.28305 8.28305 8.50447 8.04424 8.70592Z" fill="#202020"/>
<path d="M10.5 8H13.5C13.776 8 14 8.224 14 8.5C14 8.776 13.776 9 13.5 9H10.5C10.224 9 10 8.776 10 8.5C10 8.224 10.224 8 10.5 8Z" fill="#202020"/>
<path d="M8.5 11C8.77614 11 9 10.7761 9 10.5C9 10.2239 8.77614 10 8.5 10C8.22386 10 8 10.2239 8 10.5C8 10.7761 8.22386 11 8.5 11Z" fill="#202020"/>
<path d="M10.5 10H13.5C13.776 10 14 10.224 14 10.5C14 10.776 13.776 11 13.5 11H10.5C10.224 11 10 10.776 10 10.5C10 10.224 10.224 10 10.5 10Z" fill="#202020"/>
<path d="M8.5 13C8.77614 13 9 12.7761 9 12.5C9 12.2239 8.77614 12 8.5 12C8.22386 12 8 12.2239 8 12.5C8 12.7761 8.22386 13 8.5 13Z" fill="#202020"/>
<path d="M10.5 12H13.5C13.776 12 14 12.224 14 12.5C14 12.776 13.776 13 13.5 13H10.5C10.224 13 10 12.776 10 12.5C10 12.224 10.224 12 10.5 12Z" fill="#202020"/>
<path fill-rule="evenodd" clip-rule="evenodd" d="M9 4.5C9 6.98528 6.98528 9 4.5 9C2.01472 9 0 6.98528 0 4.5C0 2.01472 2.01472 0 4.5 0C6.98528 0 9 2.01472 9 4.5ZM4.5 2C4.77614 2 5 2.22386 5 2.5V4H6.5C6.77614 4 7 4.22386 7 4.5C7 4.77614 6.77614 5 6.5 5H5V6.5C5 6.77614 4.77614 7 4.5 7C4.22386 7 4 6.77614 4 6.5V5H2.5C2.22386 5 2 4.77614 2 4.5C2 4.22386 2.22386 4 2.5 4H4V2.5C4 2.22386 4.22386 2 4.5 2Z" fill="#11910D"/>
</g>
<defs>
<clipPath id="clip0_7198_12978">
<rect width="16" height="16" fill="white"/>
</clipPath>
</defs>
</svg>
