<svg width="16" height="16" viewBox="0 0 16 16" fill="none" xmlns="http://www.w3.org/2000/svg">
<path d="M5 9.97758C5 9.985 5 9.99247 5 10V12C5 13.1046 5.89543 14 7 14C7.27614 14 7.5 13.7761 7.5 13.5C7.5 13.2239 7.27614 13 7 13C6.44772 13 6 12.5523 6 12L6.00003 9.94145C6.00006 9.89209 6.00009 9.84257 5.99991 9.79299C5.67766 9.88413 5.34338 9.94664 5 9.97758Z" fill="#202020"/>
<path d="M13 4C13 2.89543 12.1046 2 11 2C10.7239 2 10.5 2.22386 10.5 2.5C10.5 2.77614 10.7239 3 11 3C11.5523 3 12 3.44772 12 4L12 6.063C11.9997 6.51001 11.9993 6.971 12.1609 7.37408C12.258 7.61645 12.4035 7.82057 12.5993 8.00002C12.4035 8.17962 12.2579 8.384 12.1608 8.6268C11.9994 9.03033 11.9997 9.49235 12 9.94145L12 12C12 12.5523 11.5523 13 11 13C10.7239 13 10.5 13.2239 10.5 13.5C10.5 13.7761 10.7239 14 11 14C12.1046 14 13 13.1046 13 12V10C13 9.46732 13.0077 9.20211 13.0892 8.99819C13.1519 8.84151 13.2843 8.66685 13.7236 8.44719C13.893 8.36249 14 8.18935 14 7.99997C14 7.81058 13.893 7.63745 13.7236 7.55276C13.2842 7.33309 13.1517 7.15835 13.0891 7.00209C13.0077 6.79889 13 6.53494 13 6.00469V4Z" fill="#202020"/>
<path fill-rule="evenodd" clip-rule="evenodd" d="M9 4.5C9 6.98528 6.98528 9 4.5 9C2.01472 9 0 6.98528 0 4.5C0 2.01472 2.01472 0 4.5 0C6.98528 0 9 2.01472 9 4.5ZM4.5 2C4.77614 2 5 2.22386 5 2.5V4H6.5C6.77614 4 7 4.22386 7 4.5C7 4.77614 6.77614 5 6.5 5H5V6.5C5 6.77614 4.77614 7 4.5 7C4.22386 7 4 6.77614 4 6.5V5H2.5C2.22386 5 2 4.77614 2 4.5C2 4.22386 2.22386 4 2.5 4H4V2.5C4 2.22386 4.22386 2 4.5 2Z" fill="#11910D"/>
</svg>
