<svg width="16" height="16" viewBox="0 0 16 16" fill="none" xmlns="http://www.w3.org/2000/svg">
<path d="M4.55223 9.99976C4.59834 10.0797 4.64729 10.1582 4.699 10.235C5.022 10.714 5.445 11.118 5.939 11.419C6.433 11.719 6.986 11.909 7.561 11.975C8.135 12.041 8.717 11.982 9.266 11.801C9.329 11.781 9.388 11.749 9.438 11.706C9.488 11.663 9.53 11.611 9.56 11.552C9.59 11.493 9.608 11.429 9.613 11.363C9.618 11.297 9.61 11.231 9.589 11.168C9.568 11.105 9.535 11.047 9.492 10.997C9.448 10.947 9.396 10.906 9.336 10.877C9.276 10.848 9.212 10.83 9.146 10.826C9.08 10.822 9.014 10.831 8.951 10.853C8.349 11.054 7.699 11.059 7.095 10.867C6.52697 10.6867 6.02682 10.3425 5.65662 9.87818C5.30008 9.95448 4.93072 9.99624 4.55223 9.99976Z" fill="#202020"/>
<path d="M9.76989 6.07929C9.81524 6.10793 9.85588 6.14382 9.89 6.186C9.962 6.275 10.002 6.386 10.002 6.501V8.501C10.002 8.634 10.054 8.761 10.148 8.855C10.242 8.948 10.369 9.001 10.502 9.001C10.635 9.001 10.762 8.949 10.856 8.855C10.949 8.761 11.002 8.634 11.002 8.501V8.001C11 7.367 10.798 6.749 10.424 6.237C10.2667 6.02123 10.0823 5.82899 9.87654 5.66423C9.95495 5.30038 9.99737 4.92316 9.99988 4.53646C10.3 4.70979 10.5788 4.92279 10.828 5.172C11.579 5.922 12 6.939 12 8V8.5C12.002 8.807 11.908 9.108 11.732 9.361L11.733 9.363C11.557 9.616 11.307 9.808 11.018 9.913C10.729 10.018 10.414 10.031 10.117 9.95C9.82 9.869 9.555 9.698 9.359 9.461C9.087 9.716 8.749 9.89 8.383 9.963C8.017 10.036 7.638 10.005 7.289 9.874C7.07791 9.79477 6.88256 9.68078 6.7109 9.53758C7.06866 9.38033 7.40649 9.1861 7.71953 8.95971C7.81014 8.98627 7.90449 9 8 9C8.265 9 8.519 8.895 8.707 8.707L8.708 8.706C8.896 8.519 9.001 8.264 9.001 7.999C9.001 7.90348 8.98727 7.8089 8.9607 7.71816C9.31591 7.22667 9.59188 6.67413 9.76989 6.07929Z" fill="#202020"/>
<path d="M1 8.74284L1 12C1 13.103 1.897 14 3 14H4.5C4.776 14 5 13.776 5 13.5C5 13.224 4.776 13 4.5 13H3C2.449 13 2 12.552 2 12V9.40029C1.64222 9.21739 1.30711 8.99647 1 8.74284Z" fill="#202020"/>
<path d="M13 14C14.103 14 15 13.103 15 12V4C15 2.897 14.103 2 13 2H11.5C11.224 2 11 2.224 11 2.5C11 2.776 11.224 3 11.5 3H13C13.551 3 14 3.448 14 4V12C14 12.552 13.551 13 13 13H11.5C11.224 13 11 13.224 11 13.5C11 13.776 11.224 14 11.5 14H13Z" fill="#202020"/>
<path fill-rule="evenodd" clip-rule="evenodd" d="M9 4.5C9 6.98528 6.98528 9 4.5 9C2.01472 9 0 6.98528 0 4.5C0 2.01472 2.01472 0 4.5 0C6.98528 0 9 2.01472 9 4.5ZM4.5 2C4.77614 2 5 2.22386 5 2.5V4H6.5C6.77614 4 7 4.22386 7 4.5C7 4.77614 6.77614 5 6.5 5H5V6.5C5 6.77614 4.77614 7 4.5 7C4.22386 7 4 6.77614 4 6.5V5H2.5C2.22386 5 2 4.77614 2 4.5C2 4.22386 2.22386 4 2.5 4H4V2.5C4 2.22386 4.22386 2 4.5 2Z" fill="#11910D"/>
</svg>
