<svg width="16" height="16" viewBox="0 0 16 16" fill="none" xmlns="http://www.w3.org/2000/svg">
<path d="M5 9.97758C4.83532 9.99242 4.66854 10 4.5 10C4.33146 10 4.16468 9.99242 4 9.97758L4 13.25C4 14.2165 4.7835 15 5.75 15H10.25C11.2165 15 12 14.2165 12 13.25V2.75C12 1.7835 11.2165 1 10.25 1L8.74284 1C8.99647 1.30711 9.21739 1.64222 9.40029 2H10.25C10.6642 2 11 2.33579 11 2.75V13.25C11 13.6642 10.6642 14 10.25 14H5.75C5.33579 14 5 13.6642 5 13.25V9.97758Z" fill="#202020"/>
<path d="M6.5 12.5C6.5 12.2239 6.72386 12 7 12H9C9.27614 12 9.5 12.2239 9.5 12.5C9.5 12.7761 9.27614 13 9 13H7C6.72386 13 6.5 12.7761 6.5 12.5Z" fill="#202020"/>
<path fill-rule="evenodd" clip-rule="evenodd" d="M9 4.5C9 6.98528 6.98528 9 4.5 9C2.01472 9 0 6.98528 0 4.5C0 2.01472 2.01472 0 4.5 0C6.98528 0 9 2.01472 9 4.5ZM4.5 2C4.77614 2 5 2.22386 5 2.5V4H6.5C6.77614 4 7 4.22386 7 4.5C7 4.77614 6.77614 5 6.5 5H5V6.5C5 6.77614 4.77614 7 4.5 7C4.22386 7 4 6.77614 4 6.5V5H2.5C2.22386 5 2 4.77614 2 4.5C2 4.22386 2.22386 4 2.5 4H4V2.5C4 2.22386 4.22386 2 4.5 2Z" fill="#11910D"/>
</svg>
