<svg width="16" height="16" viewBox="0 0 16 16" fill="none" xmlns="http://www.w3.org/2000/svg">
<path d="M4.54813 9.99979C4.5321 9.99993 4.51606 10 4.5 10C4.08345 10 3.67772 9.95369 3.28767 9.86595L2.05327 11.1453C1.24088 11.9872 1.32876 13.3455 2.24289 14.0757C3.03692 14.7101 4.18171 14.6425 4.89566 13.9192L9.90215 8.84736C10.2514 8.94684 10.6198 9 10.9999 9C13.209 9 14.9999 7.20914 14.9999 5C14.9999 4.49138 14.9047 4.0038 14.7307 3.55493C14.6697 3.39732 14.5331 3.28125 14.3677 3.24637C14.2023 3.2115 14.0305 3.26254 13.911 3.38207L12.0001 5.29302L10.7072 4.00012L12.6182 2.08904C12.7377 1.96953 12.7888 1.79773 12.7539 1.63235C12.719 1.46698 12.603 1.3304 12.4454 1.26931C11.9964 1.09524 11.5087 1 10.9999 1C10.3113 1 9.66341 1.17398 9.09768 1.48038C9.28032 1.75791 9.43852 2.05296 9.56919 2.36248C9.99444 2.13132 10.4818 2 10.9999 2C11.0945 2 11.188 2.00436 11.2802 2.01289L9.89051 3.40261C9.96231 3.75722 10 4.12421 10 4.5C10 4.56811 9.99876 4.63593 9.99631 4.70344L11.6466 6.35368C11.7403 6.44745 11.8675 6.50013 12.0001 6.50013C12.1327 6.50013 12.2599 6.44745 12.3537 6.35368L13.987 4.72023C13.9955 4.81228 13.9999 4.9056 13.9999 5C13.9999 6.65685 12.6567 8 10.9999 8C10.6261 8 10.2693 7.93186 9.9406 7.80777C9.75569 7.73797 9.54702 7.78364 9.40817 7.9243L4.18398 13.2167C3.82955 13.5758 3.26123 13.6093 2.86703 13.2944C2.41323 12.9319 2.3696 12.2576 2.7729 11.8396L4.54813 9.99979Z" fill="#202020"/>
<path fill-rule="evenodd" clip-rule="evenodd" d="M9 4.5C9 6.98528 6.98528 9 4.5 9C2.01472 9 0 6.98528 0 4.5C0 2.01472 2.01472 0 4.5 0C6.98528 0 9 2.01472 9 4.5ZM4.5 2C4.77614 2 5 2.22386 5 2.5V4H6.5C6.77614 4 7 4.22386 7 4.5C7 4.77614 6.77614 5 6.5 5H5V6.5C5 6.77614 4.77614 7 4.5 7C4.22386 7 4 6.77614 4 6.5V5H2.5C2.22386 5 2 4.77614 2 4.5C2 4.22386 2.22386 4 2.5 4H4V2.5C4 2.22386 4.22386 2 4.5 2Z" fill="#11910D"/>
</svg>
