<svg width="16" height="16" viewBox="0 0 16 16" fill="none" xmlns="http://www.w3.org/2000/svg">
<path d="M5 9.97758C4.83532 9.99242 4.66854 10 4.5 10C4.33146 10 4.16468 9.99242 4 9.97758L4 13.25C4 14.216 4.784 15 5.75 15H12.25C13.216 15 14 14.216 14 13.25V2.75C14 1.784 13.216 1 12.25 1L8.74284 1C8.99647 1.30711 9.21739 1.64222 9.40029 2H10V3.5C10 3.776 10.224 4 10.5 4C10.776 4 11 3.776 11 3.5V2H12.25C12.664 2 13 2.336 13 2.75V10H12.5C12.224 10 12 10.224 12 10.5C12 10.776 12.224 11 12.5 11H13V13.25C13 13.664 12.664 14 12.25 14H11V12.5C11 12.224 10.776 12 10.5 12C10.224 12 10 12.224 10 12.5V14H5.75C5.336 14 5 13.664 5 13.25V11H5.5C5.776 11 6 10.776 6 10.5C6 10.224 5.776 10 5.5 10H5V9.97758Z" fill="#202020"/>
<path d="M10 7V5.5C10 5.224 10.224 5 10.5 5C10.776 5 11 5.224 11 5.5V7C11 7.276 10.776 7.5 10.5 7.5C10.224 7.5 10 7.276 10 7Z" fill="#202020"/>
<path d="M10 10.5V9C10 8.724 10.224 8.5 10.5 8.5C10.776 8.5 11 8.724 11 9V10.5C11 10.776 10.776 11 10.5 11C10.224 11 10 10.776 10 10.5Z" fill="#202020"/>
<path d="M7.5 11C7.224 11 7 10.776 7 10.5C7 10.224 7.224 10 7.5 10H8.5C8.776 10 9 10.224 9 10.5C9 10.776 8.776 11 8.5 11H7.5Z" fill="#202020"/>
<path fill-rule="evenodd" clip-rule="evenodd" d="M9 4.5C9 6.98528 6.98528 9 4.5 9C2.01472 9 0 6.98528 0 4.5C0 2.01472 2.01472 0 4.5 0C6.98528 0 9 2.01472 9 4.5ZM4.5 2C4.77614 2 5 2.22386 5 2.5V4H6.5C6.77614 4 7 4.22386 7 4.5C7 4.77614 6.77614 5 6.5 5H5V6.5C5 6.77614 4.77614 7 4.5 7C4.22386 7 4 6.77614 4 6.5V5H2.5C2.22386 5 2 4.77614 2 4.5C2 4.22386 2.22386 4 2.5 4H4V2.5C4 2.22386 4.22386 2 4.5 2Z" fill="#11910D"/>
</svg>
