<svg width="16" height="16" viewBox="0 0 16 16" fill="none" xmlns="http://www.w3.org/2000/svg">
<g clip-path="url(#clip0_7198_13472)">
<path d="M7.33873 9.21176L7.76305 9.44024C7.91104 9.51992 8.08916 9.51992 8.23715 9.44024L13 6.87562V7.43304C13.3008 7.22979 13.6418 7.09267 14 7.03114V5C14 3.89543 13.1046 3 12 3H9.79297C9.88412 3.32228 9.94663 3.65659 9.97758 4H12C12.5523 4 13 4.44772 13 5V5.73987L8.69374 8.05862C8.30842 8.51226 7.85082 8.90257 7.33873 9.21176Z" fill="#202020"/>
<path d="M7.6335 13C7.81313 12.644 8.04879 12.3171 8.33303 12.0325L8.36553 12H4C3.44772 12 3 11.5523 3 11V9.79297C2.65136 9.69436 2.31679 9.56223 2 9.40029V11C2 12.1046 2.89543 13 4 13H7.6335Z" fill="#202020"/>
<path d="M15.5449 8.45396C15.2519 8.16162 14.8549 7.99744 14.4409 7.99744C14.027 7.99744 13.63 8.16162 13.3369 8.45396L9.04895 12.7414C8.69299 13.0975 8.44065 13.5437 8.31895 14.0323L8.01895 15.2431C7.99361 15.3452 7.99509 15.452 8.02324 15.5534C8.0514 15.6547 8.10528 15.747 8.17964 15.8213C8.25401 15.8957 8.34633 15.9496 8.44766 15.9777C8.54899 16.0059 8.65588 16.0074 8.75795 15.982L9.96895 15.6821C10.4572 15.5598 10.9031 15.3071 11.2589 14.9512L15.5479 10.6637C15.6931 10.5185 15.8081 10.3461 15.8865 10.1564C15.9649 9.96675 16.0051 9.76346 16.0049 9.5582C16.0046 9.35295 15.9638 9.14976 15.8849 8.96028C15.806 8.7708 15.6905 8.59875 15.5449 8.45396Z" fill="#006CBF"/>
<path fill-rule="evenodd" clip-rule="evenodd" d="M9 4.5C9 6.98528 6.98528 9 4.5 9C2.01472 9 0 6.98528 0 4.5C0 2.01472 2.01472 0 4.5 0C6.98528 0 9 2.01472 9 4.5ZM4.5 2C4.77614 2 5 2.22386 5 2.5V4H6.5C6.77614 4 7 4.22386 7 4.5C7 4.77614 6.77614 5 6.5 5H5V6.5C5 6.77614 4.77614 7 4.5 7C4.22386 7 4 6.77614 4 6.5V5H2.5C2.22386 5 2 4.77614 2 4.5C2 4.22386 2.22386 4 2.5 4H4V2.5C4 2.22386 4.22386 2 4.5 2Z" fill="#11910D"/>
</g>
<defs>
<clipPath id="clip0_7198_13472">
<rect width="16" height="16" fill="white"/>
</clipPath>
</defs>
</svg>
