<svg width="16" height="16" viewBox="0 0 16 16" fill="none" xmlns="http://www.w3.org/2000/svg">
<g clip-path="url(#clip0_7198_13141)">
<path fill-rule="evenodd" clip-rule="evenodd" d="M7.65217 9.00766C6.75954 9.63303 5.67263 10 4.5 10C3.73101 10 2.99887 9.84218 2.33422 9.55717C2.12531 9.81497 2 10.1431 2 10.5V14.5C2 15.327 2.673 16 3.5 16H7.5C8.327 16 9 15.327 9 14.5V13H11.5C12.327 13 13 12.327 13 11.5V9H14.5C15.327 9 16 8.327 16 7.5V3.5C16 2.673 15.327 2 14.5 2H10.5C10.1431 2 9.81497 2.12531 9.55717 2.33422C9.84218 2.99887 10 3.73101 10 4.5C10 5.67263 9.63303 6.75954 9.00766 7.65217C9.08419 8.40799 9.72436 9 10.5 9H12V11.5C12 11.776 11.775 12 11.5 12H9V10.5C9 9.72436 8.40799 9.08419 7.65217 9.00766ZM10 4.5V4H15V7.5C15 7.776 14.775 8 14.5 8H10.5C10.225 8 10 7.776 10 7.5V4.5ZM7.5 15C7.775 15 8 14.776 8 14.5V11H3V14.5C3 14.776 3.225 15 3.5 15H7.5Z" fill="#202020"/>
<path fill-rule="evenodd" clip-rule="evenodd" d="M9 4.5C9 6.98528 6.98528 9 4.5 9C2.01472 9 0 6.98528 0 4.5C0 2.01472 2.01472 0 4.5 0C6.98528 0 9 2.01472 9 4.5ZM4.5 2C4.77614 2 5 2.22386 5 2.5V4H6.5C6.77614 4 7 4.22386 7 4.5C7 4.77614 6.77614 5 6.5 5H5V6.5C5 6.77614 4.77614 7 4.5 7C4.22386 7 4 6.77614 4 6.5V5H2.5C2.22386 5 2 4.77614 2 4.5C2 4.22386 2.22386 4 2.5 4H4V2.5C4 2.22386 4.22386 2 4.5 2Z" fill="#11910D"/>
</g>
<defs>
<clipPath id="clip0_7198_13141">
<rect width="16" height="16" fill="white"/>
</clipPath>
</defs>
</svg>
