<svg width="16" height="16" viewBox="0 0 16 16" fill="none" xmlns="http://www.w3.org/2000/svg">
<path fill-rule="evenodd" clip-rule="evenodd" d="M5 9.97758L5 13C5 14.1046 5.89543 15 7 15H13C14.1046 15 15 14.1046 15 13V5.41421C15 5.01639 14.842 4.63486 14.5607 4.35355L11.6464 1.43934C11.3651 1.15804 10.9836 1 10.5858 1L8.74284 1C8.99647 1.30711 9.21739 1.64222 9.40029 2H10V4.5C10 5.32843 10.6716 6 11.5 6H14V13C14 13.5523 13.5523 14 13 14H7C6.44772 14 6 13.5523 6 13V9.79297C5.67772 9.88412 5.34341 9.94663 5 9.97758ZM13.7929 5H11.5C11.2239 5 11 4.77614 11 4.5V2.20711L13.7929 5Z" fill="#202020"/>
<path d="M7.66308 9C8.06621 8.71611 8.42948 8.37943 8.74284 8H12.5C12.7761 8 13 8.22386 13 8.5C13 8.77614 12.7761 9 12.5 9H7.66308Z" fill="#202020"/>
<path d="M7.5 10C7.22386 10 7 10.2239 7 10.5C7 10.7761 7.22386 11 7.5 11H12.5C12.7761 11 13 10.7761 13 10.5C13 10.2239 12.7761 10 12.5 10H7.5Z" fill="#202020"/>
<path d="M7.5 12C7.22386 12 7 12.2239 7 12.5C7 12.7761 7.22386 13 7.5 13H12.5C12.7761 13 13 12.7761 13 12.5C13 12.2239 12.7761 12 12.5 12H7.5Z" fill="#202020"/>
<path fill-rule="evenodd" clip-rule="evenodd" d="M9 4.5C9 6.98528 6.98528 9 4.5 9C2.01472 9 0 6.98528 0 4.5C0 2.01472 2.01472 0 4.5 0C6.98528 0 9 2.01472 9 4.5ZM4.5 2C4.77614 2 5 2.22386 5 2.5V4H6.5C6.77614 4 7 4.22386 7 4.5C7 4.77614 6.77614 5 6.5 5H5V6.5C5 6.77614 4.77614 7 4.5 7C4.22386 7 4 6.77614 4 6.5V5H2.5C2.22386 5 2 4.77614 2 4.5C2 4.22386 2.22386 4 2.5 4H4V2.5C4 2.22386 4.22386 2 4.5 2Z" fill="#11910D"/>
</svg>
