<svg width="16" height="16" viewBox="0 0 16 16" fill="none" xmlns="http://www.w3.org/2000/svg">
<g clip-path="url(#clip0_7198_13287)">
<path d="M9.97756 5C9.94661 5.34341 9.8841 5.67772 9.79295 6H15V11.5C15 12.3284 14.3284 13 13.5 13H10.9852C10.9943 13.0821 10.999 13.1655 10.999 13.25C10.999 13.4407 10.9599 13.7073 10.8567 14H13.5C14.8807 14 16 12.8807 16 11.5V4.5C16 3.11929 14.8807 2 13.5 2H9.40027C9.56221 2.31679 9.69434 2.65136 9.79295 3H13.5C14.3284 3 15 3.67157 15 4.5V5H9.97756Z" fill="#202020"/>
<path d="M4.73549 9.99501C4.6574 9.9983 4.5789 9.99996 4.5 9.99996C3.17728 9.99996 1.96361 9.53303 1.01484 8.75501C1.00504 8.83528 1 8.91703 1 8.99996C1 10.105 1.895 11 3 11C3.74269 11 4.39052 10.5956 4.73549 9.99501Z" fill="#202020"/>
<path d="M6.02712 9.78518C6.16046 10.4769 6.76952 11 7.5 11C8.328 11 9 10.328 9 9.49996C9 9.02931 8.78287 8.60906 8.44339 8.33398C7.78647 9.00952 6.95745 9.51685 6.02712 9.78518Z" fill="#202020"/>
<path d="M0 13.25C0 12.56 0.56 12 1.25 12H4.75C5.44 12 6 12.56 6 13.25C6 13.25 6 13.347 5.973 13.5C5.871 14.086 5.378 15.5 3 15.5C0 15.5 0 13.25 0 13.25Z" fill="#202020"/>
<path d="M6.984 13.742C6.99 13.688 6.994 13.64 6.996 13.6H6.997L7 13.5V13.25C7 12.787 6.86 12.358 6.621 12H8.75C9.44 12 10 12.56 10 13.25C10 13.25 10 15 7.5 15C7.138 15 6.829 14.963 6.565 14.901C6.74 14.626 6.844 14.359 6.906 14.136C6.948 13.983 6.971 13.849 6.984 13.742Z" fill="#202020"/>
<path fill-rule="evenodd" clip-rule="evenodd" d="M9 4.5C9 6.98528 6.98528 9 4.5 9C2.01472 9 0 6.98528 0 4.5C0 2.01472 2.01472 0 4.5 0C6.98528 0 9 2.01472 9 4.5ZM4.5 2C4.77614 2 5 2.22386 5 2.5V4H6.5C6.77614 4 7 4.22386 7 4.5C7 4.77614 6.77614 5 6.5 5H5V6.5C5 6.77614 4.77614 7 4.5 7C4.22386 7 4 6.77614 4 6.5V5H2.5C2.22386 5 2 4.77614 2 4.5C2 4.22386 2.22386 4 2.5 4H4V2.5C4 2.22386 4.22386 2 4.5 2Z" fill="#11910D"/>
</g>
<defs>
<clipPath id="clip0_7198_13287">
<rect width="16" height="16" fill="white"/>
</clipPath>
</defs>
</svg>
