<svg width="16" height="16" viewBox="0 0 16 16" fill="none" xmlns="http://www.w3.org/2000/svg">
<path fill-rule="evenodd" clip-rule="evenodd" d="M8.16841 8.59797L7.23395 10H6.50195C6.22595 10 6.00195 10.224 6.00195 10.5V12.5C6.00195 12.776 6.22595 13 6.50195 13H8.50195C8.77795 13 9.00195 12.776 9.00195 12.5V10.5C9.00195 10.224 8.77795 10 8.50195 10H8.43595L9.50195 8.401L10.568 10H10.502C10.226 10 10.002 10.224 10.002 10.5V12.5C10.002 12.776 10.226 13 10.502 13H12.502C12.778 13 13.002 12.776 13.002 12.5V10.5C13.002 10.224 12.778 10 12.502 10H11.768L10.435 8H10.501C10.777 8 11.001 7.776 11.001 7.5V5.5C11.001 5.224 10.777 5 10.501 5H9.97758C9.94663 5.34341 9.88412 5.67772 9.79297 6H9.99995V7H9.40029C9.09028 7.60645 8.67099 8.14776 8.16841 8.59797ZM7.99995 12H6.99995V11H7.99995V12ZM12 12H11V11H12V12Z" fill="#202020"/>
<path d="M9.97758 4C9.91316 3.28509 9.71193 2.60964 9.40029 2L14.5 2C15.327 2 16 2.673 16 3.5V13.5C16 14.327 15.327 15 14.5 15H4.5C3.673 15 3 14.327 3 13.5L3 9.79297C3.32228 9.88412 3.65659 9.94663 4 9.97758V13.5C4 13.776 4.225 14 4.5 14H14.5C14.775 14 15 13.776 15 13.5V4H9.97758Z" fill="#202020"/>
<path fill-rule="evenodd" clip-rule="evenodd" d="M9 4.5C9 6.98528 6.98528 9 4.5 9C2.01472 9 0 6.98528 0 4.5C0 2.01472 2.01472 0 4.5 0C6.98528 0 9 2.01472 9 4.5ZM4.5 2C4.77614 2 5 2.22386 5 2.5V4H6.5C6.77614 4 7 4.22386 7 4.5C7 4.77614 6.77614 5 6.5 5H5V6.5C5 6.77614 4.77614 7 4.5 7C4.22386 7 4 6.77614 4 6.5V5H2.5C2.22386 5 2 4.77614 2 4.5C2 4.22386 2.22386 4 2.5 4H4V2.5C4 2.22386 4.22386 2 4.5 2Z" fill="#11910D"/>
</svg>
