<svg width="16" height="16" viewBox="0 0 16 16" fill="none" xmlns="http://www.w3.org/2000/svg">
<path d="M10 3H9.79297C9.69436 2.65136 9.56223 2.31679 9.40029 2L11.5 2C11.776 2 12 2.224 12 2.5C12 2.776 11.776 3 11.5 3H11V6.689C11 7.132 11.118 7.566 11.341 7.949L11.954 9L11.033 9.406L10.477 8.453C10.165 7.918 10 7.309 10 6.689V3Z" fill="#202020"/>
<path fill-rule="evenodd" clip-rule="evenodd" d="M5.51734 9.9061C6.30445 9.7589 7.03252 9.44404 7.66308 9L11.954 9L13.555 11.744C14.138 12.744 13.417 14 12.259 14H5.741C4.583 14 3.862 12.744 4.445 11.744L5.51734 9.9061ZM5.741 13H12.258C12.644 13 12.884 12.581 12.69 12.248L11.379 10H6.62L5.309 12.248C5.115 12.581 5.355 13 5.741 13Z" fill="#159195"/>
<path fill-rule="evenodd" clip-rule="evenodd" d="M9 4.5C9 6.98528 6.98528 9 4.5 9C2.01472 9 0 6.98528 0 4.5C0 2.01472 2.01472 0 4.5 0C6.98528 0 9 2.01472 9 4.5ZM4.5 2C4.77614 2 5 2.22386 5 2.5V4H6.5C6.77614 4 7 4.22386 7 4.5C7 4.77614 6.77614 5 6.5 5H5V6.5C5 6.77614 4.77614 7 4.5 7C4.22386 7 4 6.77614 4 6.5V5H2.5C2.22386 5 2 4.77614 2 4.5C2 4.22386 2.22386 4 2.5 4H4V2.5C4 2.22386 4.22386 2 4.5 2Z" fill="#11910D"/>
</svg>
