<svg width="16" height="16" viewBox="0 0 16 16" fill="none" xmlns="http://www.w3.org/2000/svg">
<path fill-rule="evenodd" clip-rule="evenodd" d="M3 9.79297V10H5V9.97758C5.34341 9.94663 5.67772 9.88412 6 9.79297V10L10 10V6H9.79297C9.88412 5.67772 9.94663 5.34341 9.97758 5H10V3H9.79297C9.69436 2.65136 9.56223 2.31679 9.40029 2L11.5 2C12.8807 2 14 3.11929 14 4.5V11.5C14 12.8807 12.8807 14 11.5 14H4.5C3.11929 14 2 12.8807 2 11.5L2 9.40029C2.31679 9.56223 2.65136 9.69436 3 9.79297ZM10 13H6V11L10 11V13ZM3 11H5V13H4.5C3.67157 13 3 12.3284 3 11.5V11ZM11 6H13V10H11V6ZM11 11H13V11.5C13 12.3284 12.3284 13 11.5 13H11V11ZM13 4.5V5H11V3H11.5C12.3284 3 13 3.67157 13 4.5Z" fill="#202020"/>
<path fill-rule="evenodd" clip-rule="evenodd" d="M9 4.5C9 6.98528 6.98528 9 4.5 9C2.01472 9 0 6.98528 0 4.5C0 2.01472 2.01472 0 4.5 0C6.98528 0 9 2.01472 9 4.5ZM4.5 2C4.77614 2 5 2.22386 5 2.5V4H6.5C6.77614 4 7 4.22386 7 4.5C7 4.77614 6.77614 5 6.5 5H5V6.5C5 6.77614 4.77614 7 4.5 7C4.22386 7 4 6.77614 4 6.5V5H2.5C2.22386 5 2 4.77614 2 4.5C2 4.22386 2.22386 4 2.5 4H4V2.5C4 2.22386 4.22386 2 4.5 2Z" fill="#11910D"/>
</svg>
