<svg width="16" height="16" viewBox="0 0 16 16" fill="none" xmlns="http://www.w3.org/2000/svg">
<path d="M9.97758 5H13.25C13.6642 5 14 5.33579 14 5.75V12.25C14 12.6642 13.6642 13 13.25 13H2.75C2.33579 13 2 12.6642 2 12.25V9.40029C1.64222 9.21739 1.30711 8.99647 1 8.74284L1 12.25C1 13.2165 1.7835 14 2.75 14H13.25C14.2165 14 15 13.2165 15 12.25V5.75C15 4.7835 14.2165 4 13.25 4L9.97758 4C9.99242 4.16468 10 4.33146 10 4.5C10 4.66854 9.99242 4.83532 9.97758 5Z" fill="#202020"/>
<path d="M6 11.5C6 11.2239 6.22386 11 6.5 11H9.5C9.77614 11 10 11.2239 10 11.5C10 11.7761 9.77614 12 9.5 12H6.5C6.22386 12 6 11.7761 6 11.5Z" fill="#202020"/>
<path fill-rule="evenodd" clip-rule="evenodd" d="M9 4.5C9 6.98528 6.98528 9 4.5 9C2.01472 9 0 6.98528 0 4.5C0 2.01472 2.01472 0 4.5 0C6.98528 0 9 2.01472 9 4.5ZM4.5 2C4.77614 2 5 2.22386 5 2.5V4H6.5C6.77614 4 7 4.22386 7 4.5C7 4.77614 6.77614 5 6.5 5H5V6.5C5 6.77614 4.77614 7 4.5 7C4.22386 7 4 6.77614 4 6.5V5H2.5C2.22386 5 2 4.77614 2 4.5C2 4.22386 2.22386 4 2.5 4H4V2.5C4 2.22386 4.22386 2 4.5 2Z" fill="#11910D"/>
</svg>
