<svg width="16" height="16" viewBox="0 0 16 16" fill="none" xmlns="http://www.w3.org/2000/svg">
<g clip-path="url(#clip0_7198_13340)">
<path d="M9.71435 6.25267C9.80525 6.27996 9.89563 6.30944 9.98544 6.34113C11.1492 6.75176 12.1578 7.51164 12.8735 8.51699H12.8755C13.1188 8.27907 13.3444 8.02372 13.5505 7.75299C12.6896 6.62781 11.5074 5.79055 10.1602 5.35203C10.0884 5.32865 10.0162 5.30646 9.94385 5.28546C9.89624 5.61841 9.81881 5.94175 9.71435 6.25267Z" fill="#5C2E91"/>
<path d="M2.48778 9.62046C2.17637 9.49802 1.87883 9.34799 1.59817 9.17338C1.27838 9.89619 1.0816 10.6721 1.02052 11.469C1.01445 11.5359 1.02227 11.6033 1.04351 11.667C1.06474 11.7307 1.09893 11.7894 1.14391 11.8392C1.1889 11.8891 1.24371 11.9291 1.30491 11.9568C1.36611 11.9845 1.43236 11.9992 1.49952 12H1.53452C1.65433 12.0012 1.77019 11.9572 1.85898 11.8768C1.94777 11.7963 2.00295 11.6853 2.01352 11.566C2.06166 10.8915 2.22323 10.2342 2.48778 9.62046Z" fill="#5C2E91"/>
<path d="M13.9815 11.537C13.9328 10.9206 13.7891 10.3155 13.5555 9.74299C13.8176 9.4909 14.0618 9.22092 14.2865 8.93499C14.6777 9.72794 14.9136 10.5884 14.9815 11.47C14.9875 11.537 14.9794 11.6046 14.958 11.6684C14.9365 11.7322 14.902 11.7909 14.8567 11.8407C14.8114 11.8905 14.7563 11.9303 14.6948 11.9578C14.6333 11.9852 14.5668 11.9996 14.4995 12H14.4625C14.3385 11.9984 14.2198 11.9496 14.1305 11.8636C14.0411 11.7776 13.9879 11.6608 13.9815 11.537Z" fill="#5C2E91"/>
<path d="M6.21978 9.72562C5.67859 9.90367 5.1003 10 4.49951 10C4.47264 10 4.44581 9.99981 4.41903 9.99942C5.49462 10.6495 6.73179 10.9982 7.99951 11C9.76335 10.9977 11.4615 10.3304 12.7551 9.13137C14.0487 7.93231 14.8426 6.2896 14.9785 4.531C14.9846 4.46411 14.9768 4.39669 14.9555 4.33298C14.9343 4.26926 14.9001 4.21063 14.8551 4.16076C14.8101 4.11089 14.7553 4.07087 14.6941 4.0432C14.6329 4.01553 14.5667 4.00083 14.4995 4H14.4615C14.3419 3.99903 14.2263 4.04315 14.1377 4.12357C14.0491 4.20399 13.9941 4.31482 13.9835 4.434C13.8725 5.94564 13.194 7.35939 12.0842 8.3917C10.9743 9.42401 9.51522 9.99852 7.99951 10C7.39144 9.99948 6.79163 9.9057 6.21978 9.72562Z" fill="#006CBF"/>
<path fill-rule="evenodd" clip-rule="evenodd" d="M8.99951 4.5C8.99951 6.98528 6.98479 9 4.49951 9C2.01423 9 -0.000488281 6.98528 -0.000488281 4.5C-0.000488281 2.01472 2.01423 0 4.49951 0C6.98479 0 8.99951 2.01472 8.99951 4.5ZM4.49951 2C4.77565 2 4.99951 2.22386 4.99951 2.5V4H6.49951C6.77565 4 6.99951 4.22386 6.99951 4.5C6.99951 4.77614 6.77565 5 6.49951 5H4.99951V6.5C4.99951 6.77614 4.77565 7 4.49951 7C4.22337 7 3.99951 6.77614 3.99951 6.5V5H2.49951C2.22337 5 1.99951 4.77614 1.99951 4.5C1.99951 4.22386 2.22337 4 2.49951 4H3.99951V2.5C3.99951 2.22386 4.22337 2 4.49951 2Z" fill="#11910D"/>
</g>
<defs>
<clipPath id="clip0_7198_13340">
<rect width="16" height="16" fill="white"/>
</clipPath>
</defs>
</svg>
