<svg width="16" height="16" viewBox="0 0 16 16" fill="none" xmlns="http://www.w3.org/2000/svg">
<path fill-rule="evenodd" clip-rule="evenodd" d="M6.00397 9.79184C5.98737 10.1867 6.01744 10.5842 6.09499 10.976C6.28799 11.946 6.76399 12.837 7.46299 13.536C8.16199 14.235 9.05299 14.712 10.023 14.904C10.993 15.097 11.998 14.998 12.912 14.619C13.826 14.241 14.606 13.6 15.156 12.777C15.706 11.955 15.999 10.988 15.999 9.99902C15.997 8.67302 15.47 7.40302 14.533 6.46502C13.596 5.52802 12.325 5.00002 10.999 4.99902L11 5.00002C10.651 5.00002 10.3048 5.0365 9.96679 5.10786C9.88625 5.84045 9.66183 6.52973 9.3224 7.14684C9.24892 7.42737 9.19156 7.71218 9.15099 8.00002H8.74282C8.42946 8.37945 8.06618 8.71614 7.66305 9.00002H9.03699C9.01299 9.33202 8.99999 9.66802 8.99999 10C8.99999 10.332 9.01299 10.668 9.03699 11H7.14199C7.05199 10.674 7.00399 10.338 6.99999 10C7.00249 9.78853 7.02222 9.57781 7.05869 9.36984C6.72582 9.5451 6.37278 9.68723 6.00397 9.79184ZM10.17 12C10.405 13.309 10.82 14 11 14C11.18 14 11.6 13.309 11.83 12H10.17ZM9.99999 10C9.99999 10.358 10.016 10.689 10.041 11H11.959C11.984 10.689 12 10.358 12 10C12 9.64202 11.984 9.31102 11.959 9.00002H10.041C10.016 9.31102 9.99999 9.64202 9.99999 10ZM11.83 8.00002C11.6 6.69102 11.18 6.00002 11 6.00002C10.82 6.00002 10.405 6.69102 10.17 8.00002H11.83ZM14.863 9.00002H12.963C12.987 9.33202 12.995 9.66802 12.995 10C12.995 10.332 12.982 10.668 12.958 11H14.858C14.948 10.674 14.996 10.338 15 10C14.997 9.66202 14.951 9.32602 14.863 9.00002ZM12.844 8.00002H14.444C13.979 7.19902 13.25 6.58502 12.382 6.26202C12.605 6.82102 12.76 7.40402 12.844 8.00002ZM9.15099 12H7.55599C8.01999 12.8 8.74699 13.414 9.61299 13.738C9.39099 13.179 9.23499 12.596 9.15099 12ZM12.849 12C12.765 12.596 12.61 13.179 12.387 13.738C13.255 13.415 13.984 12.8 14.449 12H12.849Z" fill="#006CBF"/>
<path d="M0.5 11H3.5C3.776 11 4 10.776 4 10.5C4 10.224 3.776 10 3.5 10H0.5C0.224 10 0 10.224 0 10.5C0 10.776 0.224 11 0.5 11Z" fill="#006CBF"/>
<path d="M2.5 14H4.5C4.776 14 5 13.776 5 13.5C5 13.224 4.776 13 4.5 13H2.5C2.224 13 2 13.224 2 13.5C2 13.776 2.224 14 2.5 14Z" fill="#006CBF"/>
<path fill-rule="evenodd" clip-rule="evenodd" d="M9 4.5C9 6.98528 6.98528 9 4.5 9C2.01472 9 0 6.98528 0 4.5C0 2.01472 2.01472 0 4.5 0C6.98528 0 9 2.01472 9 4.5ZM4.5 2C4.77614 2 5 2.22386 5 2.5V4H6.5C6.77614 4 7 4.22386 7 4.5C7 4.77614 6.77614 5 6.5 5H5V6.5C5 6.77614 4.77614 7 4.5 7C4.22386 7 4 6.77614 4 6.5V5H2.5C2.22386 5 2 4.77614 2 4.5C2 4.22386 2.22386 4 2.5 4H4V2.5C4 2.22386 4.22386 2 4.5 2Z" fill="#11910D"/>
</svg>
