<svg width="16" height="16" viewBox="0 0 16 16" fill="none" xmlns="http://www.w3.org/2000/svg">
<g clip-path="url(#clip0_7198_13483)">
<path d="M4.82505 2C4.64643 2 4.48138 2.09528 4.39205 2.24997L1.21605 7.74997C1.12671 7.90468 1.12671 8.09532 1.21605 8.25003L4.39205 13.75C4.48138 13.9047 4.64643 14 4.82505 14H7.87794L6.87794 13H5.1137L2.22642 8L5.1137 3H10.8864L13.2977 7.17579L14.6332 8.51126L14.784 8.25003C14.8734 8.09532 14.8734 7.90468 14.784 7.74997L11.608 2.24997C11.5187 2.09528 11.3537 2 11.175 2H4.82505Z" fill="#5C2E91"/>
<path d="M7 6C7 5.44772 7.44772 5 8 5C8.55228 5 9 5.44772 9 6V7H9.87796L7 9.87796V9H6C5.44772 9 5 8.55228 5 8C5 7.44772 5.44772 7 6 7H7V6Z" fill="#5C2E91"/>
<path fill-rule="evenodd" clip-rule="evenodd" d="M11.854 15.854L15.854 11.854C15.9006 11.8075 15.9375 11.7524 15.9628 11.6916C15.988 11.6309 16.0009 11.5657 16.0009 11.5C16.0009 11.4342 15.988 11.3691 15.9628 11.3083C15.9375 11.2476 15.9006 11.1924 15.854 11.146L11.854 7.14598C11.8076 7.09941 11.7524 7.06247 11.6917 7.03727C11.6309 7.01206 11.5658 6.99908 11.5 6.99908C11.4343 6.99908 11.3692 7.01206 11.3084 7.03727C11.2477 7.06247 11.1925 7.09941 11.146 7.14598L7.14604 11.146C7.09948 11.1924 7.06253 11.2476 7.03733 11.3083C7.01212 11.3691 6.99915 11.4342 6.99915 11.5C6.99915 11.5657 7.01212 11.6309 7.03733 11.6916C7.06253 11.7524 7.09948 11.8075 7.14604 11.854L11.146 15.854C11.1925 15.9005 11.2477 15.9375 11.3084 15.9627C11.3692 15.9879 11.4343 16.0009 11.5 16.0009C11.5658 16.0009 11.6309 15.9879 11.6917 15.9627C11.7524 15.9375 11.8076 15.9005 11.854 15.854ZM11.8536 11.8536C11.9473 11.7598 12 11.6326 12 11.5V9.5C12 9.36739 11.9473 9.24021 11.8536 9.14645C11.7598 9.05268 11.6326 9 11.5 9C11.3674 9 11.2402 9.05268 11.1464 9.14645C11.0527 9.24021 11 9.36739 11 9.5V11.5C11 11.6326 11.0527 11.7598 11.1464 11.8536C11.2402 11.9473 11.3674 12 11.5 12C11.6326 12 11.7598 11.9473 11.8536 11.8536ZM12.125 13.5C12.125 13.8452 11.8452 14.125 11.5 14.125C11.1548 14.125 10.875 13.8452 10.875 13.5C10.875 13.1548 11.1548 12.875 11.5 12.875C11.8452 12.875 12.125 13.1548 12.125 13.5Z" fill="#006CBF"/>
</g>
<defs>
<clipPath id="clip0_7198_13483">
<rect width="16" height="16" fill="white"/>
</clipPath>
</defs>
</svg>
