<svg width="16" height="16" viewBox="0 0 16 16" fill="none" xmlns="http://www.w3.org/2000/svg">
<g clip-path="url(#clip0_7198_13544)">
<path d="M14.975 2.24299L11.475 1.07699C11.166 0.974988 10.834 0.974988 10.526 1.07699L7.02597 2.24299C6.41397 2.44899 6.00197 3.01999 6.00197 3.66699V6.00098H6.99995C6.99996 6.00098 6.99995 6.00098 6.99995 6.00098L6.99997 3.66699C6.99997 3.45099 7.13797 3.26099 7.34297 3.19099L10.842 2.02599C10.944 1.99099 11.057 1.99099 11.158 2.02599L14.657 3.19099C14.862 3.25999 15 3.45099 15 3.66699V8.33299C15 8.54899 14.862 8.73899 14.658 8.80799L11.158 9.97399C11.056 10.009 10.943 10.009 10.842 9.97399L8.99995 9.36069V10.4143L10.527 10.923C10.681 10.974 10.84 11 11.002 11C11.164 11 11.322 10.974 11.477 10.923L14.978 9.75599C15.59 9.55099 16.002 8.97999 16.002 8.33299V3.66699C16.002 3.02099 15.59 2.44899 14.977 2.24299H14.975Z" fill="#202020"/>
<path d="M13.3139 3.78598L10.9999 4.71198L8.68593 3.78598C8.42993 3.68298 8.13893 3.80798 8.03693 4.06398C7.93493 4.31998 8.05793 4.61098 8.31493 4.71298L10.5009 5.58698V7.49898C10.5009 7.77498 10.7249 7.99898 11.0009 7.99898C11.2769 7.99898 11.5009 7.77498 11.5009 7.49898V5.58698L13.6869 4.71298C13.9439 4.60998 14.0679 4.31898 13.9649 4.06398C13.8619 3.80898 13.5709 3.68298 13.3159 3.78598H13.3139Z" fill="#202020"/>
<path fill-rule="evenodd" clip-rule="evenodd" d="M7.70688 7.29398C7.51938 7.10643 7.26507 7.00103 6.99988 7.00098H0.999878C0.734661 7.00098 0.480307 7.10633 0.292771 7.29387C0.105235 7.48141 -0.00012207 7.73576 -0.00012207 8.00098V14.001C-0.00012207 14.2662 0.105235 14.5205 0.292771 14.7081C0.480307 14.8956 0.734661 15.001 0.999878 15.001H6.99988C7.26509 15.001 7.51945 14.8956 7.70698 14.7081C7.89452 14.5205 7.99988 14.2662 7.99988 14.001V8.00098C7.99982 7.73578 7.89443 7.48147 7.70688 7.29398ZM0.999878 13.2939L2.14632 12.1474C2.34159 11.9522 2.65817 11.9522 2.85343 12.1474C3.04869 12.3427 3.04869 12.6593 2.85343 12.8545L1.70698 14.001H6.29277L5.14632 12.8545C4.95106 12.6593 4.95106 12.3427 5.14632 12.1474C5.34159 11.9522 5.65817 11.9522 5.85343 12.1474L6.99988 13.2939V8.70808L5.85343 9.85453C5.65817 10.0498 5.34159 10.0498 5.14632 9.85453C4.95106 9.65927 4.95106 9.34269 5.14632 9.14742L6.29277 8.00098H1.70698L2.85343 9.14742C3.04869 9.34269 3.04869 9.65927 2.85343 9.85453C2.65817 10.0498 2.34159 10.0498 2.14632 9.85453L0.999878 8.70808V13.2939Z" fill="#202020"/>
</g>
<defs>
<clipPath id="clip0_7198_13544">
<rect width="16" height="16" fill="white"/>
</clipPath>
</defs>
</svg>
