<svg width="16" height="16" viewBox="0 0 16 16" fill="none" xmlns="http://www.w3.org/2000/svg">
<path d="M7 6C7 5.44772 7.44772 5 8 5C8.55228 5 9 5.44772 9 6V7H10C10.5523 7 11 7.44772 11 8C11 8.55228 10.5523 9 10 9H9V10C9 10.5523 8.55228 11 8 11C7.44772 11 7 10.5523 7 10V9H6C5.44772 9 5 8.55228 5 8C5 7.44771 5.44772 7 6 7H7V6Z" fill="#C50F1F"/>
<path fill-rule="evenodd" clip-rule="evenodd" d="M8 2C4.68629 2 2 4.68629 2 8C2 11.3137 4.68629 14 8 14C11.3137 14 14 11.3137 14 8C14 4.68629 11.3137 2 8 2ZM3 8C3 5.23858 5.23858 3 8 3C10.7614 3 13 5.23858 13 8C13 10.7614 10.7614 13 8 13C5.23858 13 3 10.7614 3 8Z" fill="#C50F1F"/>
</svg>
