<svg width="16" height="16" viewBox="0 0 16 16" fill="none" xmlns="http://www.w3.org/2000/svg">
<path fill-rule="evenodd" clip-rule="evenodd" d="M4.39205 2.24997C4.48138 2.09528 4.64643 2 4.82505 2H11.175C11.3537 2 11.5187 2.09528 11.608 2.24997L14.784 7.74997C14.8734 7.90468 14.8734 8.09532 14.784 8.25003L11.608 13.75C11.5187 13.9047 11.3537 14 11.175 14H4.82505C4.64643 14 4.48138 13.9047 4.39205 13.75L1.21605 8.25003C1.12671 8.09532 1.12671 7.90468 1.21605 7.74997L4.39205 2.24997ZM5.1137 3L2.22642 8L5.1137 13H10.8864L13.7737 8L10.8864 3H5.1137Z" fill="#5C2E91"/>
<path d="M8 5C7.44772 5 7 5.44772 7 6V7H6C5.44772 7 5 7.44772 5 8C5 8.55228 5.44772 9 6 9H7V10C7 10.5523 7.44772 11 8 11C8.55228 11 9 10.5523 9 10V9H10C10.5523 9 11 8.55228 11 8C11 7.44772 10.5523 7 10 7H9V6C9 5.44772 8.55228 5 8 5Z" fill="#5C2E91"/>
</svg>
