<svg width="16" height="16" viewBox="0 0 16 16" fill="none" xmlns="http://www.w3.org/2000/svg">
<path fill-rule="evenodd" clip-rule="evenodd" d="M6.59009 1.58492C6.96498 1.2112 7.47274 1.00134 8.00209 1.00134C8.53144 1.00134 9.03919 1.2112 9.41409 1.58492L14.4146 6.58547C14.7896 6.96053 15.0003 7.4692 15.0003 7.99953C15.0003 8.52985 14.7896 9.03847 14.4147 9.41352L9.41464 14.4136C9.03975 14.7873 8.53143 14.9977 8.00209 14.9977C7.47274 14.9977 6.96498 14.7879 6.59009 14.4141L1.58953 9.41358C1.21459 9.03852 1.00391 8.52985 1.00391 7.99953C1.00391 7.4692 1.21454 6.96058 1.58948 6.58553L6.59009 1.58492ZM7 6C7 5.44772 7.44772 5 8 5C8.55228 5 9 5.44772 9 6V7H10C10.5523 7 11 7.44772 11 8C11 8.55228 10.5523 9 10 9H9V10C9 10.5523 8.55228 11 8 11C7.44772 11 7 10.5523 7 10V9H6C5.44772 9 5 8.55228 5 8C5 7.44771 5.44772 7 6 7H7V6Z" fill="#C50F1F"/>
</svg>
