<svg width="16" height="16" viewBox="0 0 16 16" fill="none" xmlns="http://www.w3.org/2000/svg">
<path fill-rule="evenodd" clip-rule="evenodd" d="M4.39193 2.24997C4.48125 2.09528 4.64631 2 4.82493 2H11.1749C11.3535 2 11.5186 2.09528 11.6079 2.24997L14.7839 7.74997C14.8733 7.90468 14.8733 8.09532 14.7839 8.25003L11.6079 13.75C11.5186 13.9047 11.3535 14 11.1749 14H4.82493C4.64631 14 4.48125 13.9047 4.39193 13.75L1.21593 8.25003C1.12659 8.09532 1.12659 7.90468 1.21593 7.74997L4.39193 2.24997ZM7 6C7 5.44772 7.44772 5 8 5C8.55228 5 9 5.44772 9 6V7H10C10.5523 7 11 7.44772 11 8C11 8.55228 10.5523 9 10 9H9V10C9 10.5523 8.55228 11 8 11C7.44772 11 7 10.5523 7 10V9H6C5.44772 9 5 8.55228 5 8C5 7.44771 5.44772 7 6 7H7V6Z" fill="#5C2E91"/>
</svg>
