<svg width="16" height="16" viewBox="0 0 16 16" fill="none" xmlns="http://www.w3.org/2000/svg">
<path d="M9.37564 8.95237C10.0215 8.78517 10.5 8.19733 10.5 7.5V6.5C10.5 6.225 10.724 6 11 6C11.276 6 11.5 5.776 11.5 5.5C11.5 5.224 11.275 5 11 5C10.725 5 10.5 4.775 10.5 4.5V3.5C10.5 2.673 9.827 2 9 2C8.724 2 8.5 2.224 8.5 2.5C8.5 2.776 8.725 3 9 3C9.275 3 9.5 3.225 9.5 3.5V4.5C9.5 4.884 9.645 5.234 9.883 5.5C9.645 5.766 9.5 6.116 9.5 6.5V7.5C9.5 7.775 9.276 8 9 8C8.92232 8 8.84876 8.01774 8.78315 8.0494C9.0088 8.32913 9.2076 8.63143 9.37564 8.95237Z" fill="#202020"/>
<path d="M7.5 4H6.5C6.224 4 6 3.776 6 3.5C6 3.224 6.224 3 6.5 3H7.5C7.776 3 8 3.224 8 3.5C8 3.776 7.776 4 7.5 4Z" fill="#202020"/>
<path d="M6.5 6H7.5C7.776 6 8 5.776 8 5.5C8 5.224 7.776 5 7.5 5H6.5C6.224 5 6 5.224 6 5.5C6 5.776 6.224 6 6.5 6Z" fill="#202020"/>
<path d="M12.5 8H15.5V8.002C15.776 8.002 16 7.778 16 7.502C16 7.226 15.776 7.002 15.5 7.002H13.5L14.4 5.802C14.533 5.624 14.533 5.38 14.4 5.202L13.5 4.002H15.5C15.776 4.002 16 3.778 16 3.502C16 3.226 15.776 3.002 15.5 3.002H12.5C12.311 3.002 12.138 3.109 12.053 3.278C11.968 3.447 11.987 3.65 12.1 3.801L13.375 5.501L12.1 7.201C11.987 7.352 11.968 7.555 12.053 7.724C12.138 7.893 12.311 8 12.5 8Z" fill="#202020"/>
<path fill-rule="evenodd" clip-rule="evenodd" d="M9 11.5C9 9.01472 6.98528 7 4.5 7C2.01472 7 0 9.01472 0 11.5C0 13.9853 2.01472 16 4.5 16C6.98528 16 9 13.9853 9 11.5ZM4.5 14C4.77614 14 5 13.7761 5 13.5V12H6.5C6.77614 12 7 11.7761 7 11.5C7 11.2239 6.77614 11 6.5 11H5V9.5C5 9.22386 4.77614 9 4.5 9C4.22386 9 4 9.22386 4 9.5V11H2.5C2.22386 11 2 11.2239 2 11.5C2 11.7761 2.22386 12 2.5 12H4V13.5C4 13.7761 4.22386 14 4.5 14Z" fill="#11910D"/>
</svg>
