<svg width="16" height="16" viewBox="0 0 16 16" fill="none" xmlns="http://www.w3.org/2000/svg">
<path d="M5.5 10.5C5.5 10.776 5.724 11 6 11C6.827 11 7.5 10.327 7.5 9.5V8.5C7.5 8.225 7.724 8 8 8C8.276 8 8.5 7.776 8.5 7.5C8.5 7.224 8.275 7 8 7C7.725 7 7.5 6.775 7.5 6.5V5.5C7.5 4.673 6.827 4 6 4C5.724 4 5.5 4.224 5.5 4.5C5.5 4.776 5.725 5 6 5C6.275 5 6.5 5.225 6.5 5.5V6.5C6.5 6.884 6.645 7.234 6.883 7.5C6.645 7.766 6.5 8.116 6.5 8.5V9.5C6.5 9.775 6.276 10 6 10C5.724 10 5.5 10.224 5.5 10.5Z" fill="#202020"/>
<path d="M3.5 6H4.5C4.776 6 5 5.776 5 5.5C5 5.224 4.776 5 4.5 5H3.5C3.224 5 3 5.224 3 5.5C3 5.776 3.224 6 3.5 6Z" fill="#202020"/>
<path d="M4.5 8H3.5C3.224 8 3 7.776 3 7.5C3 7.224 3.224 7 3.5 7H4.5C4.776 7 5 7.224 5 7.5C5 7.776 4.776 8 4.5 8Z" fill="#202020"/>
<path d="M3.5 10H4.5C4.776 10 5 9.776 5 9.5C5 9.224 4.776 9 4.5 9H3.5C3.224 9 3 9.224 3 9.5C3 9.776 3.224 10 3.5 10Z" fill="#202020"/>
<path d="M12.5001 9.99995H9.50005C9.31105 9.99995 9.13805 9.89295 9.05305 9.72395C8.96805 9.55495 8.98705 9.35195 9.10005 9.20095L10.3751 7.50095L9.10005 5.80095C8.98705 5.64995 8.96805 5.44695 9.05305 5.27795C9.13805 5.10895 9.31105 5.00195 9.50005 5.00195H12.5001C12.7761 5.00195 13.0001 5.22595 13.0001 5.50195C13.0001 5.77795 12.7761 6.00195 12.5001 6.00195H10.5001L11.4001 7.20195C11.5331 7.37995 11.5331 7.62395 11.4001 7.80195L10.5001 9.00195H12.5001C12.7761 9.00195 13.0001 9.22595 13.0001 9.50195C13.0001 9.77795 12.7761 10.002 12.5001 10.002V9.99995Z" fill="#202020"/>
<path fill-rule="evenodd" clip-rule="evenodd" d="M0 12C0 13.103 0.897 14 2 14H14C15.103 14 16 13.103 16 12V5.121C16 4.595 15.787 4.079 15.414 3.707L13.293 1.586C12.921 1.213 12.405 1 11.879 1H2C0.897 1 0 1.897 0 3V12ZM1 3C1 2.449 1.449 2 2 2H11.879C12.142 2 12.4 2.107 12.586 2.293L14.707 4.414C14.893 4.6 15 4.858 15 5.121V12C15 12.551 14.551 13 14 13H2C1.449 13 1 12.551 1 12V3Z" fill="#202020"/>
</svg>
