<svg width="16" height="16" viewBox="0 0 16 16" fill="none" xmlns="http://www.w3.org/2000/svg">
<path d="M7.5 4C7.224 4 7 3.776 7 3.5V1.5C7 1.224 7.224 1 7.5 1C7.776 1 8 1.224 8 1.5V3.5C8 3.776 7.776 4 7.5 4ZM4 7.5C4 7.224 3.776 7 3.5 7H1.5C1.224 7 1 7.224 1 7.5C1 7.776 1.224 8 1.5 8H3.5C3.776 8 4 7.776 4 7.5ZM8 13.5V11.5C8 11.224 7.776 11 7.5 11C7.224 11 7 11.224 7 11.5V13.5C7 13.776 7.224 14 7.5 14C7.776 14 8 13.776 8 13.5ZM14 7.5C14 7.224 13.776 7 13.5 7H11.5C11.224 7 11 7.224 11 7.5C11 7.776 11.224 8 11.5 8H13.5C13.776 8 14 7.776 14 7.5ZM10 8.75V6.25C10 5.561 9.439 5 8.75 5H6.25C5.561 5 5 5.561 5 6.25V8.75C5 9.439 5.561 10 6.25 10H8.75C9.439 10 10 9.439 10 8.75ZM8.75 6C8.888 6 9 6.112 9 6.25V8.75C9 8.888 8.888 9 8.75 9H6.25C6.112 9 6 8.888 6 8.75V6.25C6 6.112 6.112 6 6.25 6H8.75Z" fill="#202020"/>
</svg>
