<svg width="16" height="16" viewBox="0 0 16 16" fill="none" xmlns="http://www.w3.org/2000/svg">
<path d="M6 5H13.5C13.776 5 14 5.224 14 5.5C14 5.776 13.776 6 13.5 6H6V13.5C6 13.776 5.776 14 5.5 14C5.224 14 5 13.776 5 13.5V6H2.5C2.224 6 2 5.776 2 5.5C2 5.224 2.224 5 2.5 5H5V2.5C5 2.224 5.224 2 5.5 2C5.776 2 6 2.224 6 2.5V5Z" fill="#202020"/>
<path fill-rule="evenodd" clip-rule="evenodd" d="M8.25 7H10.75C11.439 7 12 7.561 12 8.25V10.75C12 11.439 11.439 12 10.75 12H8.25C7.561 12 7 11.439 7 10.75V8.25C7 7.561 7.561 7 8.25 7ZM10.75 11C10.888 11 11 10.888 11 10.75V8.25C11 8.112 10.888 8 10.75 8H8.25C8.112 8 8 8.112 8 8.25V10.75C8 10.888 8.112 11 8.25 11H10.75Z" fill="#202020"/>
</svg>
