<svg width="16" height="16" viewBox="0 0 16 16" fill="none" xmlns="http://www.w3.org/2000/svg">
<g clip-path="url(#clip0_7198_13630)">
<path fill-rule="evenodd" clip-rule="evenodd" d="M5 3.5C5 3.22386 5.22386 3 5.5 3H10.5C10.7761 3 11 3.22386 11 3.5V5.5C11 5.77614 10.7761 6 10.5 6H5.5C5.22386 6 5 5.77614 5 5.5V3.5ZM6 4V5H10V4H6Z" fill="#159195"/>
<path d="M2 3C2 1.89543 2.89543 1 4 1H11C12.1046 1 13 1.89543 13 3V6.085C12.9793 6.09239 12.9588 6.10025 12.9385 6.10858C12.7603 6.18153 12.5984 6.28906 12.462 6.42497C12.3162 6.56353 12.2001 6.73026 12.1207 6.91505C12.0412 7.09984 12.0002 7.29884 12 7.49997V3C12 2.44772 11.5523 2 11 2H4C3.44772 2 3 2.44772 3 3H3.5C3.77614 3 4 3.22386 4 3.5C4 3.77614 3.77614 4 3.5 4H3V6H3.5C3.77614 6 4 6.22386 4 6.5C4 6.77614 3.77614 7 3.5 7H3V9H3.5C3.77614 9 4 9.22386 4 9.5C4 9.77614 3.77614 10 3.5 10H3V12H3.5C3.77614 12 4 12.2239 4 12.5C4 12.7761 3.77614 13 3.5 13H3C3 13.5523 3.44772 14 4 14H11C11.5523 14 12 13.5523 12 13V11.5362C12.0046 11.9029 12.1497 12.2544 12.406 12.518C12.5445 12.6704 12.7134 12.7921 12.9018 12.8751C12.9341 12.8893 12.9669 12.9024 13 12.9142V13C13 14.1046 12.1046 15 11 15H4C2.89543 15 2 14.1046 2 13H1.5C1.22386 13 1 12.7761 1 12.5C1 12.2239 1.22386 12 1.5 12H2V10H1.5C1.22386 10 1 9.77614 1 9.5C1 9.22386 1.22386 9 1.5 9H2V7H1.5C1.22386 7 1 6.77614 1 6.5C1 6.22386 1.22386 6 1.5 6H2V4H1.5C1.22386 4 1 3.77614 1 3.5C1 3.22386 1.22386 3 1.5 3H2Z" fill="#202020"/>
<path d="M15.85 9.85003L13.85 11.85C13.8049 11.8975 13.7506 11.9352 13.6904 11.9611C13.6303 11.9869 13.5655 12.0002 13.5 12.0002C13.4345 12.0002 13.3697 11.9869 13.3096 11.9611C13.2494 11.9352 13.1951 11.8975 13.15 11.85C13.1026 11.8049 13.0648 11.7506 13.039 11.6905C13.0132 11.6303 12.9998 11.5655 12.9998 11.5C12.9998 11.4346 13.0132 11.3698 13.039 11.3096C13.0648 11.2494 13.1026 11.1951 13.15 11.15L14.29 10H9.5C9.36739 10 9.24021 9.94735 9.14645 9.85358C9.05268 9.75981 9 9.63264 9 9.50003C9 9.36742 9.05268 9.24024 9.14645 9.14647C9.24021 9.05271 9.36739 9.00003 9.5 9.00003H14.29L13.15 7.85003C13.1026 7.80491 13.0648 7.75062 13.039 7.69045C13.0132 7.63028 12.9998 7.5655 12.9998 7.50003C12.9998 7.43456 13.0132 7.36977 13.039 7.3096C13.0648 7.24944 13.1026 7.19515 13.15 7.15003C13.1951 7.10259 13.2494 7.06481 13.3096 7.039C13.3697 7.01319 13.4345 6.99988 13.5 6.99988C13.5655 6.99988 13.6303 7.01319 13.6904 7.039C13.7506 7.06481 13.8049 7.10259 13.85 7.15003L15.85 9.15003C15.8974 9.19515 15.9352 9.24944 15.961 9.3096C15.9868 9.36977 16.0001 9.43456 16.0001 9.50003C16.0001 9.5655 15.9868 9.63028 15.961 9.69045C15.9352 9.75062 15.8974 9.80491 15.85 9.85003V9.85003Z" fill="#006CBF"/>
</g>
<defs>
<clipPath id="clip0_7198_13630">
<rect width="16" height="16" fill="white"/>
</clipPath>
</defs>
</svg>
