<svg width="16" height="16" viewBox="0 0 16 16" fill="none" xmlns="http://www.w3.org/2000/svg">
<path d="M7.99951 3C7.01051 3 6.04351 3.293 5.22151 3.843C4.39951 4.392 3.75851 5.173 3.37951 6.087C3.00151 7.001 2.90251 8.006 3.09451 8.976C3.28651 9.946 3.76351 10.837 4.46251 11.536C5.16151 12.235 6.05251 12.712 7.02251 12.904C7.99251 13.097 8.99751 12.998 9.91151 12.62C10.8255 12.242 11.6055 11.601 12.1555 10.779C12.7045 9.957 12.9985 8.99 12.9985 8.001C12.9985 6.675 12.4715 5.403 11.5345 4.465C10.5975 3.527 9.32551 3.001 7.99851 3.001L7.99951 3ZM5.99951 10C5.44751 10 4.99951 9.552 4.99951 9C4.99951 8.448 5.44751 8 5.99951 8C6.55151 8 6.99951 8.448 6.99951 9C6.99951 9.552 6.55151 10 5.99951 10ZM7.99951 7C7.44751 7 6.99951 6.552 6.99951 6C6.99951 5.448 7.44751 5 7.99951 5C8.55151 5 8.99951 5.448 8.99951 6C8.99951 6.552 8.55151 7 7.99951 7ZM2.99951 3C2.44751 3 1.99951 2.552 1.99951 2C1.99951 1.448 2.44751 1 2.99951 1C3.55151 1 3.99951 1.448 3.99951 2C3.99951 2.552 3.55151 3 2.99951 3ZM14.9995 3C14.9995 3.552 14.5515 4 13.9995 4C13.4475 4 12.9995 3.552 12.9995 3C12.9995 2.448 13.4475 2 13.9995 2C14.5515 2 14.9995 2.448 14.9995 3ZM12.9995 14C12.9995 14.552 12.5515 15 11.9995 15C11.4475 15 10.9995 14.552 10.9995 14C10.9995 13.448 11.4475 13 11.9995 13C12.5515 13 12.9995 13.448 12.9995 14Z" fill="#202020"/>
</svg>
