<svg width="16" height="16" viewBox="0 0 16 16" fill="none" xmlns="http://www.w3.org/2000/svg">
<path d="M3 8.87497C2.98206 8.86818 2.96421 8.86112 2.94646 8.85378C2.71134 8.75665 2.49775 8.61399 2.31796 8.43401L2 8.11505V11.5C2 12.8807 3.11929 14 4.5 14H11.5C12.8807 14 14 12.8807 14 11.5V4.5C14 3.11929 12.8807 2 11.5 2L8.51273 2C8.63377 2.1623 8.73456 2.33932 8.8125 2.52719C8.87589 2.67998 8.92352 2.83841 8.95491 3H11.5C12.3284 3 13 3.67157 13 4.5V11.5C13 12.3284 12.3284 13 11.5 13H4.5C3.67157 13 3 12.3284 3 11.5V8.87497Z" fill="#202020"/>
<path d="M8 3.47497C8.00008 3.75775 7.91887 4.0346 7.76604 4.27253C7.61321 4.51046 7.39521 4.69945 7.138 4.81697L5.467 5.58197C5.3533 5.63421 5.25157 5.70929 5.16813 5.80253C5.08469 5.89577 5.02134 6.00519 4.982 6.12397L4.582 7.35497C4.53205 7.50707 4.44396 7.64384 4.32613 7.75223C4.20831 7.86062 4.06467 7.93701 3.90893 7.97411C3.7532 8.01122 3.59055 8.0078 3.43651 7.96418C3.28247 7.92057 3.14217 7.83821 3.029 7.72497L2 6.69997L0.7 7.99997H0V7.29997L1.3 5.99997L0.275 4.97497C0.161758 4.8618 0.079401 4.7215 0.0357859 4.56746C-0.00782913 4.41342 -0.0112475 4.25077 0.0258569 4.09504C0.0629612 3.9393 0.13935 3.79566 0.247738 3.67784C0.356125 3.56001 0.492895 3.47192 0.645 3.42197L1.876 3.02197C1.99478 2.98263 2.1042 2.91928 2.19744 2.83584C2.29068 2.7524 2.36576 2.65067 2.418 2.53697L3.183 0.86597C3.28192 0.649337 3.43183 0.459879 3.61991 0.313789C3.80799 0.167699 4.02864 0.0693219 4.26301 0.0270662C4.49739 -0.0151895 4.7385 -6.70031e-05 4.96576 0.0711411C5.19302 0.142349 5.39965 0.267525 5.568 0.43597L7.568 2.43597C7.84401 2.71136 7.99939 3.08507 8 3.47497V3.47497Z" fill="#202020"/>
</svg>
