<svg width="16" height="16" viewBox="0 0 16 16" fill="none" xmlns="http://www.w3.org/2000/svg">
<path d="M8 15C4.141 15 1 11.86 1 8C1 4.14 4.141 1 8 1C11.859 1 15 4.14 15 8C15 8.276 14.776 8.5 14.5 8.5C14.224 8.5 14 8.276 14 8C14 4.691 11.309 2 8 2C4.691 2 2 4.691 2 8C2 11.309 4.691 14 8 14C8.276 14 8.5 14.224 8.5 14.5C8.5 14.776 8.276 15 8 15ZM5.525 11.182C5.72 10.987 5.72 10.67 5.525 10.475C4.864 9.814 4.5 8.935 4.5 8C4.5 7.065 4.864 6.186 5.525 5.525C6.847 4.203 9.152 4.203 10.474 5.525C11.135 6.186 11.499 7.065 11.499 8C11.499 8.276 11.723 8.5 11.999 8.5C12.275 8.5 12.499 8.276 12.499 8C12.499 6.797 12.031 5.667 11.181 4.818C10.331 3.968 9.202 3.5 7.999 3.5C6.796 3.5 5.667 3.968 4.817 4.818C3.966 5.668 3.499 6.797 3.499 8C3.499 9.203 3.967 10.333 4.817 11.182C4.915 11.28 5.043 11.328 5.171 11.328C5.299 11.328 5.427 11.279 5.525 11.182ZM10 8C10 6.897 9.103 6 8 6C6.897 6 6 6.897 6 8C6 9.103 6.897 10 8 10C9.103 10 10 9.103 10 8ZM9 8C9 8.551 8.552 9 8 9C7.448 9 7 8.551 7 8C7 7.449 7.448 7 8 7C8.552 7 9 7.449 9 8Z" fill="#DE590B"/>
</svg>
