<svg width="16" height="16" viewBox="0 0 16 16" fill="none" xmlns="http://www.w3.org/2000/svg">
<g clip-path="url(#clip0_4517_330)">
<path d="M2.99902 11.9922C2.99913 12.5441 3.44611 12.9912 3.99805 12.9912H11.9883C12.5401 12.9911 12.9872 12.544 12.9873 11.9922V10.2451H13.9854V11.9922C13.9852 13.096 13.0911 13.991 11.9873 13.9912H9.98438V14H8.98535V13.9912H6.99023V14H5.99121V13.9912H3.99805C2.89511 13.9912 2.0001 13.0961 2 11.9922V10.2451H2.99902V11.9922Z" fill="#202020"/>
<path d="M8.09766 2C8.03273 2.15606 7.99902 2.32403 7.99902 2.49707C7.99903 2.67344 8.0338 2.84498 8.09863 3H3.99805C3.44605 3 2.99902 3.44702 2.99902 3.99902V6.49805H2V3.99902C2 2.89502 2.89405 2 3.99805 2H8.09766Z" fill="#202020"/>
<path d="M9.96973 4.99681C10.0727 4.99261 10.172 5.02111 10.2559 5.07396L10.2725 5.12474C10.3452 5.33396 10.4682 5.51808 10.6318 5.66478L11.7969 7.99485H12.7715L12.8281 8.16868C12.9141 8.41568 13.0721 8.6251 13.2881 8.7761C13.4105 8.86109 13.5462 8.91907 13.6924 8.95579C13.6334 8.98041 13.569 8.99485 13.501 8.99485H11.4893C11.3004 8.99485 11.1271 8.88825 11.042 8.71946L10.041 6.71556L8.45605 10.6804C8.38298 10.8632 8.20858 10.9859 8.0127 10.9939C7.81681 11.0018 7.63385 10.8934 7.5459 10.7175L5.99512 7.61497L5.44336 8.72044C5.35834 8.88929 5.18498 8.99579 4.99609 8.99583H2.49902C2.22402 8.99583 2 8.77183 2 8.49583C2.00009 8.21991 2.22408 7.99681 2.49902 7.99681H4.68555L5.54688 6.27513C5.63188 6.10613 5.80514 5.99876 5.99414 5.99876C6.18309 5.99881 6.35643 6.10617 6.44141 6.27513L7.94141 9.27708L9.52637 5.31321C9.59934 5.13029 9.77285 5.00685 9.96875 4.99876L9.96973 4.99681Z" fill="#202020"/>
<path d="M13.8 2.217L13.785 2.213L13.02 1.964C12.861 1.911 12.712 1.834 12.578 1.735C12.516 1.689 12.457 1.638 12.402 1.583C12.229 1.41 12.098 1.198 12.021 0.966L11.772 0.201C11.751 0.142 11.713 0.091 11.661 0.055C11.614 0.022 11.559 0.003 11.502 0C11.497 0 11.492 0 11.487 0C11.424 0 11.363 0.019 11.312 0.055C11.261 0.091 11.222 0.142 11.202 0.201L10.953 0.966C10.877 1.197 10.749 1.407 10.578 1.58C10.553 1.605 10.528 1.629 10.502 1.652C10.347 1.79 10.166 1.896 9.96905 1.964L9.37405 2.157H9.37205L9.20005 2.212C9.14105 2.233 9.09005 2.272 9.05405 2.323C9.01805 2.374 8.99805 2.435 8.99805 2.498C8.99805 2.561 9.01805 2.622 9.05405 2.672C9.09005 2.723 9.14105 2.761 9.20005 2.782L9.96705 3.031L10.05 3.061C10.05 3.061 10.055 3.063 10.057 3.064C10.12 3.089 10.182 3.119 10.241 3.152C10.367 3.223 10.482 3.311 10.585 3.413C10.739 3.566 10.859 3.75 10.937 3.952C10.947 3.979 10.957 4.006 10.966 4.033L11.215 4.798C11.236 4.857 11.274 4.908 11.326 4.944C11.377 4.98 11.438 5 11.501 5H11.505C11.566 5 11.626 4.98 11.676 4.944C11.71 4.92 11.738 4.889 11.76 4.854C11.771 4.836 11.78 4.817 11.787 4.798L12.036 4.033C12.113 3.8 12.244 3.589 12.417 3.416C12.59 3.243 12.802 3.112 13.035 3.035L13.8 2.786C13.859 2.765 13.91 2.727 13.946 2.676C13.982 2.625 14.002 2.564 14.002 2.501C14.002 2.438 13.983 2.378 13.946 2.326C13.91 2.275 13.859 2.237 13.8 2.217ZM15.216 5.572L15.828 5.771L15.84 5.774C15.887 5.791 15.928 5.822 15.957 5.862C15.986 5.903 16.001 5.952 16.001 6.002C16.001 6.052 15.985 6.101 15.957 6.142C15.929 6.183 15.887 6.214 15.84 6.23L15.228 6.429C15.042 6.491 14.873 6.595 14.734 6.734C14.595 6.873 14.491 7.042 14.429 7.228L14.23 7.84C14.213 7.887 14.183 7.928 14.142 7.957C14.101 7.986 14.052 8.001 14.002 8.001C14 8.001 13.997 8.001 13.995 8.001C13.946 8.001 13.899 7.985 13.859 7.957C13.818 7.928 13.787 7.887 13.771 7.84L13.571 7.228C13.509 7.042 13.404 6.872 13.266 6.733C13.127 6.594 12.958 6.49 12.771 6.428L12.747 6.42V6.417L12.164 6.228C12.117 6.211 12.076 6.18 12.047 6.14C12.018 6.099 12.003 6.05 12.003 6C12.003 5.95 12.019 5.901 12.047 5.86C12.075 5.819 12.117 5.788 12.164 5.772L12.776 5.573C12.96 5.51 13.127 5.404 13.263 5.266C13.4 5.127 13.502 4.959 13.563 4.775L13.762 4.163C13.779 4.116 13.81 4.075 13.85 4.046C13.891 4.017 13.94 4.002 13.99 4.002C14.04 4.002 14.089 4.018 14.13 4.046C14.171 4.075 14.202 4.116 14.218 4.163L14.417 4.775C14.479 4.961 14.583 5.13 14.722 5.269C14.861 5.408 15.03 5.512 15.216 5.574V5.572Z" fill="#202020"/>
</g>
<defs>
<clipPath id="clip0_4517_330">
<rect width="16" height="16" fill="white"/>
</clipPath>
</defs>
</svg>
