<svg width="16" height="16" viewBox="0 0 16 16" fill="none" xmlns="http://www.w3.org/2000/svg">
<path d="M12.987 2C14.091 2 14.985 2.895 14.985 3.999H14.986V6.498H13.987V3.999C13.987 3.447 13.54 3 12.988 3H4.998C4.446 3 3.999 3.447 3.999 3.999V5.9798C3.71012 5.94788 3.41708 5.94389 3.12388 5.9689C3.08248 5.97243 3.04119 5.97653 3 5.98119V3.999C3 2.895 3.894 2 4.998 2H12.987Z" fill="#202020"/>
<path d="M9.17286 13.991H9.985V14H10.984V13.991H12.987C14.091 13.991 14.985 13.096 14.985 11.992V10.245H13.987V11.992C13.987 12.544 13.54 12.991 12.988 12.991H8.17236L9.17286 13.991Z" fill="#202020"/>
<path d="M10.526 5.313C10.599 5.13 10.773 5.007 10.969 4.999L10.97 4.997C11.166 4.989 11.349 5.097 11.437 5.273L12.797 7.995H14.501C14.776 7.995 15 8.219 15 8.495C15 8.771 14.777 8.995 14.501 8.995H12.489C12.3 8.995 12.127 8.888 12.042 8.719L11.041 6.716L9.456 10.68C9.383 10.863 9.209 10.986 9.013 10.994C8.817 11.002 8.634 10.894 8.546 10.718L7.86392 9.35339C7.86039 9.33932 7.8568 9.32526 7.85313 9.31122C7.69015 8.68663 7.39589 8.10938 6.99516 7.61531C6.77523 7.3442 6.52304 7.0979 6.24309 6.88281L6.547 6.275C6.632 6.106 6.805 5.999 6.994 5.999C7.183 5.999 7.356 6.106 7.441 6.275L8.941 9.277L10.526 5.313Z" fill="#11910D"/>
<path d="M8.854 15.0869L6.293 12.5269C6.74929 11.9266 6.99749 11.194 7 10.4399C7 9.74771 6.79473 9.07102 6.41015 8.49545C6.02556 7.91988 5.47894 7.47127 4.83939 7.20636C4.19985 6.94146 3.49612 6.87215 2.81719 7.00719C2.13825 7.14224 1.51461 7.47559 1.02513 7.96507C0.535644 8.45455 0.202301 9.07819 0.0672531 9.75713C-0.0677952 10.4361 0.00151649 11.1398 0.266423 11.7793C0.53133 12.4189 0.979934 12.9655 1.55551 13.3501C2.13108 13.7347 2.80777 13.9399 3.5 13.9399C4.25357 13.9375 4.98584 13.6897 5.586 13.2339L8.146 15.7939C8.23976 15.8878 8.36697 15.9406 8.49965 15.9407C8.63233 15.9408 8.75962 15.8882 8.8535 15.7944C8.94739 15.7007 9.00019 15.5735 9.00028 15.4408C9.00037 15.3081 8.94776 15.1808 8.854 15.0869V15.0869ZM1 10.4399C1 9.94549 1.14662 9.46214 1.42133 9.05102C1.69603 8.63989 2.08648 8.31946 2.54329 8.13024C3.00011 7.94103 3.50277 7.89152 3.98773 7.98798C4.47268 8.08444 4.91814 8.32255 5.26777 8.67218C5.6174 9.02181 5.8555 9.46726 5.95196 9.95222C6.04843 10.4372 5.99892 10.9398 5.8097 11.3967C5.62048 11.8535 5.30005 12.2439 4.88893 12.5186C4.4778 12.7933 3.99445 12.9399 3.5 12.9399C2.83696 12.9399 2.20108 12.6766 1.73223 12.2077C1.26339 11.7389 1 11.103 1 10.4399V10.4399Z" fill="#006CBF"/>
</svg>
