<svg width="16" height="16" viewBox="0 0 16 16" fill="none" xmlns="http://www.w3.org/2000/svg">
<g clip-path="url(#clip0_7198_13694)">
<path d="M2 9.59946V12.3133C2 12.9339 2.38224 13.4905 2.96153 13.7133L7.92306 15.6216C8.61627 15.8882 9.38373 15.8882 10.0769 15.6216L15.0385 13.7133C15.6178 13.4905 16 12.9339 16 12.3133V5.68685C16 5.06619 15.6178 4.50964 15.0385 4.28683L10.0769 2.37855C9.85592 2.29354 9.62735 2.23564 9.39605 2.20484L9.27604 2.325C9.35419 2.61415 9.38837 2.9143 9.37714 3.21447C9.49269 3.23665 9.60676 3.26913 9.71796 3.3119L14.6795 5.22018C14.8726 5.29445 15 5.47997 15 5.68685V12.3133C15 12.5201 14.8726 12.7057 14.6795 12.7799L9.71796 14.6882C9.25582 14.866 8.74418 14.866 8.28204 14.6882L3.32051 12.7799C3.12741 12.7057 3 12.5201 3 12.3133V9.38053C2.76935 9.37326 2.54031 9.33906 2.31904 9.28L2 9.59946Z" fill="#202020"/>
<path d="M6.20446 7.34595L8.49988 8.3297V11.5C8.49988 11.7761 8.72374 12 8.99988 12C9.27603 12 9.49988 11.7761 9.49988 11.5V8.3297L12.6968 6.95958C12.9507 6.8508 13.0682 6.55686 12.9595 6.30305C12.8507 6.04923 12.5567 5.93166 12.3029 6.04043L8.99988 7.45602L6.53072 6.39781C6.52151 6.39794 6.51228 6.398 6.50304 6.398C6.465 6.398 6.4279 6.3961 6.3899 6.39415L6.38704 6.394C6.38904 6.431 6.39004 6.469 6.39004 6.507C6.39004 6.80135 6.32609 7.08635 6.20446 7.34595Z" fill="#202020"/>
<path d="M9.47997 0.500023C9.47997 0.633023 9.42697 0.760023 9.33297 0.854023L8.15097 2.03702C8.13397 2.05002 8.11697 2.06202 8.09797 2.07202C8.32597 2.45402 8.41997 2.90102 8.36597 3.34202C8.31197 3.78302 8.11197 4.19402 7.79797 4.50902L7.19797 5.10902C7.01397 5.29302 6.76397 5.39602 6.50397 5.39602C6.24397 5.39602 5.99497 5.29302 5.81097 5.10902L4.36897 3.67002C4.18497 3.48602 4.08197 3.23702 4.08197 2.97702C4.08197 2.71702 4.18497 2.46802 4.36897 2.28402L4.96897 1.68402C5.28397 1.37002 5.69497 1.17002 6.13597 1.11602C6.57697 1.06202 7.02297 1.15602 7.40497 1.38402C7.41597 1.36603 7.42697 1.34802 7.43997 1.33102L8.62597 0.145023C8.71997 0.0520234 8.84697 -0.000976562 8.97997 -0.000976562C9.11297 -0.000976562 9.23997 0.0520235 9.33397 0.146023C9.42797 0.240023 9.47997 0.367023 9.47997 0.500023Z" fill="#159195"/>
<path d="M3.34301 4.16301C3.46201 4.21201 3.57001 4.28401 3.66101 4.37501L5.10401 5.81201C5.28801 5.99601 5.39101 6.24501 5.39101 6.50601C5.39101 6.76701 5.28801 7.01601 5.10401 7.20001L4.50401 7.80001C4.18901 8.11401 3.77801 8.31401 3.33701 8.36801C2.89601 8.42201 2.45001 8.32801 2.06801 8.10001C2.05701 8.11801 2.04501 8.13601 2.03201 8.15301L0.847015 9.33901C0.752015 9.43001 0.626015 9.48001 0.495015 9.47901C0.364015 9.47801 0.239015 9.42601 0.146015 9.33301C0.0540147 9.24101 0.00101472 9.11501 1.47153e-05 8.98401C-0.000985285 8.85301 0.0490147 8.72601 0.140015 8.63201L1.32201 7.44701C1.33901 7.43401 1.35701 7.42201 1.37501 7.41201C1.14701 7.03001 1.05301 6.58301 1.10701 6.14201C1.16101 5.70101 1.36101 5.29001 1.67501 4.97501L2.27501 4.37501C2.36601 4.28401 2.47401 4.21201 2.59301 4.16301C2.71201 4.11301 2.83901 4.08801 2.96801 4.08801C3.09701 4.08801 3.22401 4.11401 3.34301 4.16301Z" fill="#159195"/>
</g>
<defs>
<clipPath id="clip0_7198_13694">
<rect width="16" height="16" fill="white"/>
</clipPath>
</defs>
</svg>
