<svg width="16" height="16" viewBox="0 0 16 16" fill="none" xmlns="http://www.w3.org/2000/svg">
<path d="M6.22093 9.95173L4.951 9.76697C4.656 9.72497 4.414 9.52097 4.322 9.23697C4.229 8.95297 4.304 8.64597 4.519 8.43697L6.444 6.56097L5.989 3.91197C5.939 3.61697 6.057 3.32497 6.299 3.14897C6.541 2.97497 6.856 2.95197 7.12 3.08897L9.499 4.33997L11.878 3.08997C12.142 2.95097 12.457 2.97297 12.7 3.14897C12.942 3.32497 13.06 3.61697 13.01 3.91197L12.6313 6.11648C12.3099 6.04926 11.9781 6.01012 11.6387 6.00171L11.95 4.18397L9.864 5.28097C9.636 5.40097 9.365 5.40097 9.137 5.28097L7.051 4.18397L7.449 6.50797C7.493 6.76097 7.408 7.01997 7.224 7.19897L5.536 8.84297L6.60089 8.9977C6.4459 9.30053 6.31817 9.61962 6.22093 9.95173Z" fill="#202020"/>
<path d="M4.5 4.99997H2.5C2.224 4.99997 2 4.77597 2 4.49997C2 4.22397 2.224 3.99997 2.5 3.99997H4.5C4.776 3.99997 5 4.22397 5 4.49997C5 4.77597 4.776 4.99997 4.5 4.99997Z" fill="#202020"/>
<path d="M0.5 7.99997C0.224 7.99997 0 7.77597 0 7.49997C0 7.22397 0.224 6.99997 0.5 6.99997H3.5C3.776 6.99997 4 7.22397 4 7.49997C4 7.77597 3.776 7.99997 3.5 7.99997H0.5Z" fill="#202020"/>
<path d="M1.5 11C1.224 11 1 10.776 1 10.5C1 10.224 1.224 9.99997 1.5 9.99997H3.5C3.776 9.99997 4 10.224 4 10.5C4 10.776 3.776 11 3.5 11H1.5Z" fill="#202020"/>
<path fill-rule="evenodd" clip-rule="evenodd" d="M11.5 16C13.9853 16 16 13.9853 16 11.5C16 9.01472 13.9853 7 11.5 7C9.01472 7 7 9.01472 7 11.5C7 13.9853 9.01472 16 11.5 16ZM13.3536 10.3536C13.5488 10.1583 13.5488 9.84171 13.3536 9.64645C13.1583 9.45118 12.8417 9.45118 12.6464 9.64645L11.5 10.7929L10.3536 9.64645C10.1583 9.45118 9.84171 9.45118 9.64645 9.64645C9.45118 9.84171 9.45118 10.1583 9.64645 10.3536L10.7929 11.5L9.64645 12.6464C9.45118 12.8417 9.45118 13.1583 9.64645 13.3536C9.84171 13.5488 10.1583 13.5488 10.3536 13.3536L11.5 12.2071L12.6464 13.3536C12.8417 13.5488 13.1583 13.5488 13.3536 13.3536C13.5488 13.1583 13.5488 12.8417 13.3536 12.6464L12.2071 11.5L13.3536 10.3536Z" fill="#C50F1F"/>
</svg>
