<svg width="16" height="16" viewBox="0 0 16 16" fill="none" xmlns="http://www.w3.org/2000/svg">
<g clip-path="url(#clip0_7198_13736)">
<path d="M3.006 2H13.006C14.111 2 15.006 2.895 15.006 4V10C15.006 11.105 14.111 12 13.006 12H7.709C7.825 11.674 7.903 11.341 7.942 11H13.006C13.558 11 14.006 10.552 14.006 10V4C14.006 3.448 13.558 3 13.006 3H3.006C2.454 3 2.006 3.448 2.006 4V6.234C1.632 6.357 1.299 6.521 1.006 6.719V4C1.006 2.895 1.901 2 3.006 2Z" fill="#202020"/>
<path d="M7.506 5C7.782 5 8.006 4.776 8.006 4.5C8.006 4.224 7.782 4 7.506 4H4.506C4.23 4 4.006 4.224 4.006 4.5C4.006 4.776 4.23 5 4.506 5H7.506Z" fill="#202020"/>
<path d="M10.506 7C10.782 7 11.006 6.776 11.006 6.5C11.006 6.224 10.782 6 10.506 6H4.506C4.414 6 4.332 6.032 4.258 6.075C5.02 6.205 5.713 6.532 6.3 7H10.506Z" fill="#202020"/>
<path d="M9.006 8.5C9.006 8.224 8.782 8 8.506 8H7.242C7.447 8.306 7.601 8.645 7.726 9H8.506C8.782 9 9.006 8.776 9.006 8.5Z" fill="#202020"/>
<path fill-rule="evenodd" clip-rule="evenodd" d="M6.29301 12.574L8.85401 15.134V15.135C8.94701 15.229 9.00001 15.356 9.00001 15.489C9.00001 15.622 8.94701 15.749 8.85301 15.843C8.75901 15.937 8.63201 15.989 8.49901 15.989C8.36601 15.989 8.23901 15.936 8.14501 15.842L5.58501 13.282C4.98501 13.738 4.25301 13.986 3.49901 13.988C2.80701 13.988 2.13101 13.783 1.55501 13.398C0.980006 13.013 0.531006 12.467 0.266006 11.827C0.00100645 11.188 -0.0679936 10.484 0.0670064 9.805C0.202006 9.126 0.536006 8.502 1.02501 8.013C1.51401 7.523 2.13801 7.19 2.81701 7.055C3.49601 6.92 4.19901 6.989 4.83901 7.254C5.47901 7.519 6.02501 7.967 6.41001 8.543C6.79501 9.118 7.00001 9.795 7.00001 10.487C6.99701 11.241 6.74901 11.974 6.29301 12.574ZM1.42101 9.098C1.14701 9.509 1.00001 9.993 1.00001 10.487L0.999006 10.486C0.999006 11.149 1.26201 11.785 1.73101 12.254C2.20001 12.723 2.83601 12.986 3.49901 12.986C3.99401 12.986 4.47701 12.84 4.88801 12.565C5.29901 12.29 5.62001 11.9 5.80901 11.443C5.99801 10.987 6.04701 10.484 5.95101 9.999C5.85501 9.514 5.61701 9.069 5.26701 8.719C4.91701 8.37 4.47201 8.131 3.98701 8.035C3.50201 7.938 3.00001 7.988 2.54301 8.177C2.08601 8.366 1.69601 8.687 1.42101 9.098Z" fill="#202020"/>
<path d="M3.506 10.5C3.23 10.5 3.006 10.276 3.006 10V9.5C3.006 9.224 3.23 9 3.506 9C3.782 9 4.006 9.224 4.006 9.5V10C4.006 10.276 3.782 10.5 3.506 10.5ZM3.506 11C3.23 11 3.006 11.224 3.006 11.5C3.006 11.776 3.23 12 3.506 12C3.782 12 4.006 11.776 4.006 11.5C4.006 11.224 3.782 11 3.506 11Z" fill="#C50F1F"/>
</g>
<defs>
<clipPath id="clip0_7198_13736">
<rect width="16" height="16" fill="white"/>
</clipPath>
</defs>
</svg>
