<svg width="16" height="16" viewBox="0 0 16 16" fill="none" xmlns="http://www.w3.org/2000/svg">
<path fill-rule="evenodd" clip-rule="evenodd" d="M1.85301 1.14698L14.854 14.146C15.049 14.341 15.049 14.658 14.854 14.853C14.756 14.951 14.628 14.999 14.5 15C14.372 15 14.244 14.951 14.146 14.854L13.146 13.854C12.951 13.948 12.731 14 12.5 14H3.50001C2.67201 14 2.00001 13.328 2.00001 12.5V3.49998C2.00001 3.26898 2.05201 3.04998 2.14601 2.85398L1.14601 1.85398C0.951006 1.65898 0.951006 1.34198 1.14601 1.14698C1.34101 0.951982 1.65801 0.951982 1.85301 1.14698ZM3.00001 12.5C3.00001 12.776 3.22401 13 3.50001 13H12.292L3.00001 3.70798V12.5Z" fill="#202020"/>
<path d="M14.0001 11.878V3.5C14.0001 2.672 13.3281 2 12.5001 2H4.12207L5.12207 3H12.5001C12.7761 3 13.0001 3.224 13.0001 3.5V10.878L14.0001 11.878Z" fill="#202020"/>
</svg>
