<svg width="16" height="16" viewBox="0 0 16 16" fill="none" xmlns="http://www.w3.org/2000/svg">
<g clip-path="url(#clip0_7198_13797)">
<path d="M15.958 13.3L14.208 9.3C14.128 9.117 13.949 9 13.75 9H13V4C13 2.897 12.103 2 11 2H5.00001C3.89701 2 3.00001 2.897 3.00001 4V9H2.25001C2.05101 9 1.87201 9.117 1.79201 9.3L0.0420113 13.3C-0.0259887 13.454 -0.0109887 13.633 0.0820113 13.774C0.174011 13.916 0.332011 14.001 0.500011 14.001H15.5C15.669 14.001 15.826 13.916 15.918 13.774C16.01 13.633 16.025 13.455 15.958 13.3ZM5.00001 3H11C11.551 3 12 3.448 12 4H4.00001C4.00001 3.448 4.44901 3 5.00001 3ZM12 5V10C12 10.552 11.551 11 11 11H7.00001V5H12ZM4.00001 5H6.00001V11H5.00001C4.44901 11 4.00001 10.552 4.00001 10V5ZM1.26501 13L2.57701 10H3.00001C3.00001 11.103 3.89701 12 5.00001 12H11C12.103 12 13 11.103 13 10H13.423L14.735 13H1.26501Z" fill="#202020"/>
</g>
<defs>
<clipPath id="clip0_7198_13797">
<rect width="16" height="16" fill="white"/>
</clipPath>
</defs>
</svg>
