<svg width="16" height="16" viewBox="0 0 16 16" fill="none" xmlns="http://www.w3.org/2000/svg">
<path d="M13.746 11H2.254C1.563 11 1 10.438 1 9.746V6.254C1 5.563 1.562 5 2.254 5H13.746C14.437 5 15 5.562 15 6.254V9.746C15 10.437 14.438 11 13.746 11ZM2.254 6C2.114 6 2 6.114 2 6.254V9.746C2 9.886 2.114 10 2.254 10H13.746C13.886 10 14 9.886 14 9.746V6.254C14 6.114 13.886 6 13.746 6H2.254ZM4 7C3.448 7 3 7.448 3 8C3 8.552 3.448 9 4 9C4.552 9 5 8.552 5 8C5 7.448 4.552 7 4 7ZM8 7C7.448 7 7 7.448 7 8C7 8.552 7.448 9 8 9C8.552 9 9 8.552 9 8C9 7.448 8.552 7 8 7ZM12 7C11.448 7 11 7.448 11 8C11 8.552 11.448 9 12 9C12.552 9 13 8.552 13 8C13 7.448 12.552 7 12 7Z" fill="#202020"/>
</svg>
