<svg width="16" height="16" viewBox="0 0 16 16" fill="none" xmlns="http://www.w3.org/2000/svg">
<g clip-path="url(#clip0_7198_13764)">
<path fill-rule="evenodd" clip-rule="evenodd" d="M2 4.5C2 3.11929 3.11929 2 4.5 2H11.5C12.8807 2 14 3.11929 14 4.5V11.5C14 12.8807 12.8807 14 11.5 14H10.9643C10.988 13.8357 11.0001 13.669 11.0001 13.501C11.0001 13.3323 10.9879 13.165 10.964 13H11.5C12.3284 13 13 12.3284 13 11.5V6H3V11.001H2V4.5ZM3 5H13V4.5C13 3.67157 12.3284 3 11.5 3H4.5C3.67157 3 3 3.67157 3 4.5V5Z" fill="#202020"/>
<path fill-rule="evenodd" clip-rule="evenodd" d="M7.50003 11.001C7.11343 11.0015 6.73227 11.0922 6.38683 11.2658C6.04139 11.4394 5.74118 11.6911 5.51003 12.001H5.50003H1.50003C1.43464 12.0014 1.37 12.0149 1.30989 12.0407C1.24979 12.0664 1.19544 12.1039 1.15003 12.151L1.09003 12.221L0.220028 13.091L0.150028 13.151C0.102586 13.1961 0.0648117 13.2504 0.0389999 13.3106C0.0131882 13.3707 -0.00012207 13.4355 -0.00012207 13.501C-0.00012207 13.5665 0.0131882 13.6312 0.0389999 13.6914C0.0648117 13.7516 0.102586 13.8059 0.150028 13.851L1.15003 14.851C1.19515 14.8984 1.24944 14.9362 1.3096 14.962C1.36977 14.9878 1.43456 15.0011 1.50003 15.0011C1.5655 15.0011 1.63028 14.9878 1.69045 14.962C1.75062 14.9362 1.80491 14.8984 1.85003 14.851L2.50003 14.201L3.15003 14.851C3.19515 14.8984 3.24944 14.9362 3.3096 14.962C3.36977 14.9878 3.43456 15.0011 3.50003 15.0011C3.5655 15.0011 3.63028 14.9878 3.69045 14.962C3.75062 14.9362 3.80491 14.8984 3.85003 14.851L4.50003 14.201H5.11203C5.24294 14.6454 5.49501 15.0446 5.83999 15.3538C6.18497 15.6631 6.60924 15.8701 7.06527 15.9519C7.5213 16.0336 7.99107 15.9867 8.42197 15.8165C8.85286 15.6463 9.22786 15.3595 9.50494 14.9882C9.78203 14.6169 9.95026 14.1758 9.99079 13.7142C10.0313 13.2527 9.94254 12.789 9.73441 12.3751C9.52628 11.9612 9.20701 11.6134 8.81238 11.3707C8.41774 11.128 7.96332 11 7.50003 11.001V11.001ZM8.50003 14.251C8.35169 14.251 8.20669 14.207 8.08335 14.1246C7.96001 14.0422 7.86388 13.925 7.80712 13.788C7.75035 13.6509 7.7355 13.5002 7.76444 13.3547C7.79338 13.2092 7.86481 13.0755 7.9697 12.9707C8.07459 12.8658 8.20822 12.7943 8.35371 12.7654C8.4992 12.7365 8.65 12.7513 8.78704 12.8081C8.92409 12.8648 9.04122 12.961 9.12363 13.0843C9.20604 13.2076 9.25003 13.3526 9.25003 13.501C9.25003 13.6999 9.17101 13.8907 9.03036 14.0313C8.88971 14.172 8.69894 14.251 8.50003 14.251V14.251Z" fill="#202020"/>
</g>
<defs>
<clipPath id="clip0_7198_13764">
<rect width="16" height="16" fill="white"/>
</clipPath>
</defs>
</svg>
