<svg width="16" height="16" viewBox="0 0 16 16" fill="none" xmlns="http://www.w3.org/2000/svg">
<path d="M7.49994 4.49881C7.49994 4.22267 7.7238 3.99881 7.99994 3.99881C8.27608 3.99881 8.49994 4.22267 8.49994 4.49881V5.4988C8.49994 5.77494 8.27608 5.9988 7.99994 5.9988C7.7238 5.9988 7.49994 5.77494 7.49994 5.4988V4.49881ZM10.5777 5.29421C10.3824 5.09895 10.0658 5.09895 9.87055 5.29421L9.16345 6.00131C8.96819 6.19657 8.96819 6.51316 9.16346 6.70842C9.35872 6.90368 9.6753 6.90368 9.87056 6.70842L10.5777 6.00132C10.7729 5.80606 10.7729 5.48948 10.5777 5.29421ZM6.10076 5.29421C5.9055 5.09895 5.58892 5.09895 5.39365 5.29421C5.19839 5.48948 5.19839 5.80606 5.39365 6.00132L6.10075 6.70842C6.29601 6.90368 6.6126 6.90368 6.80786 6.70842C7.00312 6.51316 7.00312 6.19657 6.80786 6.00131L6.10076 5.29421ZM7.998 2.0011C6.76908 2.0011 5.64707 2.48217 4.83038 3.31092C4.03183 4.12126 3.53976 5.24859 3.49908 6.54377L3.49847 6.56307L3.49936 6.58236C3.55605 7.81935 4.15409 8.90732 5.23634 10.0366L5.93745 12.9782L5.94472 12.9998C6.045 13.2974 6.23726 13.5444 6.4792 13.7174C6.73005 13.8968 7.03703 13.999 7.36148 13.999L7.36289 13.999L8.74635 13.9951L8.76712 13.9933C9.08176 13.9661 9.37405 13.8428 9.60709 13.6476C9.83816 13.454 10.0128 13.1875 10.0874 12.8745L10.8833 9.82479C11.9173 8.83037 12.5011 7.68033 12.5011 6.38731C12.5011 5.17281 11.9938 4.07615 11.1819 3.28548C10.3651 2.49011 9.23818 2.0011 7.998 2.0011ZM5.54265 4.01283C6.17053 3.37568 7.0356 3.0011 7.998 3.0011C8.97157 3.0011 9.84983 3.38414 10.4842 4.0019C11.1143 4.61554 11.5011 5.45828 11.5011 6.38731C11.5011 7.37859 11.0482 8.31301 10.0965 9.19229L9.98898 9.29163L9.54303 11H8.50122V7.50024C8.50122 7.2241 8.27736 7.00024 8.00122 7.00024C7.72508 7.00024 7.50122 7.2241 7.50122 7.50024V11H6.49398L6.14503 9.53599L6.04771 9.43683C5.00134 8.37074 4.54723 7.48049 4.49924 6.55567C4.53666 5.50835 4.93318 4.6313 5.54265 4.01283ZM6.73233 12H9.28199L9.11816 12.6276L9.11517 12.6405C9.09338 12.734 9.04087 12.8174 8.96491 12.881C8.89238 12.9418 8.80032 12.983 8.6984 12.9952L7.36087 12.999C7.24766 12.9988 7.14388 12.9633 7.06093 12.904C6.9858 12.8503 6.92984 12.7786 6.89863 12.6978L6.73233 12Z" fill="#5C2E91"/>
</svg>
