<svg width="16" height="16" viewBox="0 0 16 16" fill="none" xmlns="http://www.w3.org/2000/svg">
<path d="M4.025 6H1.25C1.112 6 1 6.112 1 6.25V9.75C1 9.888 1.112 10 1.25 10H4.025C4.067 10.366 4.185 10.708 4.381 11H1.25C0.561 11 0 10.439 0 9.75V6.25C0 5.561 0.561 5 1.25 5H4.381C4.185 5.292 4.066 5.634 4.025 6Z" fill="#202020"/>
<path d="M11.619 5H14.75C15.439 5 16 5.561 16 6.25V9.75C16 10.439 15.439 11 14.75 11H11.619C11.815 10.708 11.934 10.366 11.975 10H14.75C14.888 10 15 9.888 15 9.75V6.25C15 6.112 14.888 6 14.75 6H11.975C11.933 5.634 11.815 5.292 11.619 5Z" fill="#202020"/>
<path d="M3 9C3.55228 9 4 8.55228 4 8C4 7.44772 3.55228 7 3 7C2.44772 7 2 7.44772 2 8C2 8.55228 2.44772 9 3 9Z" fill="#202020"/>
<path d="M13 9C13.5523 9 14 8.55228 14 8C14 7.44772 13.5523 7 13 7C12.4477 7 12 7.44772 12 8C12 8.55228 12.4477 9 13 9Z" fill="#202020"/>
<path d="M9 8C9 8.55228 8.55228 9 8 9C7.44772 9 7 8.55228 7 8C7 7.44772 7.44772 7 8 7C8.55228 7 9 7.44772 9 8Z" fill="#006CBF"/>
<path fill-rule="evenodd" clip-rule="evenodd" d="M5 9.75C5 10.439 5.561 11 6.25 11H9.75C10.439 11 11 10.439 11 9.75V6.25C11 5.561 10.439 5 9.75 5H6.25C5.561 5 5 5.561 5 6.25V9.75ZM6 6.25C6 6.112 6.112 6 6.25 6H9.75C9.888 6 10 6.112 10 6.25V9.75C10 9.888 9.888 10 9.75 10H6.25C6.112 10 6 9.888 6 9.75V6.25Z" fill="#006CBF"/>
</svg>
