<svg width="16" height="16" viewBox="0 0 16 16" fill="none" xmlns="http://www.w3.org/2000/svg">
<path d="M13.746 15H2.254C1.563 15 1 14.438 1 13.746V10.254C1 9.563 1.562 9 2.254 9H13.746C14.437 9 15 9.562 15 10.254V13.746C15 14.437 14.438 15 13.746 15ZM2.254 10C2.114 10 2 10.114 2 10.254V13.746C2 13.886 2.114 14 2.254 14H13.746C13.886 14 14 13.886 14 13.746V10.254C14 10.114 13.886 10 13.746 10H2.254ZM4 11C3.448 11 3 11.448 3 12C3 12.552 3.448 13 4 13C4.552 13 5 12.552 5 12C5 11.448 4.552 11 4 11ZM8 11C7.448 11 7 11.448 7 12C7 12.552 7.448 13 8 13C8.552 13 9 12.552 9 12C9 11.448 8.552 11 8 11ZM12 11C11.448 11 11 11.448 11 12C11 12.552 11.448 13 12 13C12.552 13 13 12.552 13 12C13 11.448 12.552 11 12 11ZM13.75 8H2.25C1.561 8 1 7.439 1 6.75V2.25C1 1.561 1.561 1 2.25 1H13.75C14.439 1 15 1.561 15 2.25V6.75C15 7.439 14.439 8 13.75 8ZM2.25 2C2.112 2 2 2.112 2 2.25V6.75C2 6.888 2.112 7 2.25 7H13.75C13.888 7 14 6.888 14 6.75V2.25C14 2.112 13.888 2 13.75 2H2.25ZM13 3.5C13 3.224 12.776 3 12.5 3H3.5C3.224 3 3 3.224 3 3.5C3 3.776 3.224 4 3.5 4H12.5C12.776 4 13 3.776 13 3.5ZM13 5.5C13 5.224 12.776 5 12.5 5H3.5C3.224 5 3 5.224 3 5.5C3 5.776 3.224 6 3.5 6H12.5C12.776 6 13 5.776 13 5.5Z" fill="#202020"/>
</svg>
