<svg width="16" height="16" viewBox="0 0 16 16" fill="none" xmlns="http://www.w3.org/2000/svg">
<g clip-path="url(#clip0_7198_13890)">
<path fill-rule="evenodd" clip-rule="evenodd" d="M3.58579 0.585786C3.96086 0.210714 4.46957 0 5 0H8.586C8.98355 8.48813e-05 9.3648 0.157982 9.646 0.439L12.561 3.354C12.842 3.6352 12.9999 4.01645 13 4.414V10.5257L12 11.5254V5H9.5C9.10218 5 8.72064 4.84196 8.43934 4.56066C8.15804 4.27936 8 3.89782 8 3.5V1H5C4.73478 1 4.48043 1.10536 4.29289 1.29289C4.10536 1.48043 4 1.73478 4 2V12C4 12.2652 4.10536 12.5196 4.29289 12.7071C4.48043 12.8946 4.73478 13 5 13H6.25061C6.25061 13 6.25061 13 6.25061 13C6.25061 13.2297 6.29586 13.4572 6.38377 13.6695C6.43209 13.7861 6.49276 13.8969 6.56459 14H5C4.46957 14 3.96086 13.7893 3.58579 13.4142C3.21071 13.0391 3 12.5304 3 12V2C3 1.46957 3.21071 0.960859 3.58579 0.585786ZM9.5 4H11.793L9 1.207V3.5C9 3.63261 9.05268 3.75979 9.14645 3.85355C9.24021 3.94732 9.36739 4 9.5 4Z" fill="#202020"/>
<path d="M10.4749 13L10.5 13.025L10.525 13H10.4749Z" fill="#202020"/>
<path fill-rule="evenodd" clip-rule="evenodd" d="M10.6504 6.02317C10.8585 6.08878 11 6.2818 11 6.50004V11.5C11 11.7762 10.7762 12 10.5 12C10.2239 12 10 11.7762 10 11.5V11H7.96037L7.77475 11.2652C7.62243 11.285 7.47305 11.3248 7.33053 11.3838C7.11829 11.4717 6.92544 11.6006 6.76299 11.763C6.72851 11.7975 6.69554 11.8334 6.66415 11.8705C6.47988 11.7038 6.44425 11.4221 6.59043 11.2133L10.0904 6.21331C10.2156 6.03452 10.4422 5.95756 10.6504 6.02317ZM10 8.08622V10H8.66037L10 8.08622Z" fill="#202020"/>
<path d="M10.5 16C10.4343 16.0001 10.3692 15.9873 10.3085 15.9623C10.2477 15.9372 10.1925 15.9004 10.146 15.854L7.64602 13.354C7.55213 13.2601 7.49939 13.1328 7.49939 13C7.49939 12.8672 7.55213 12.7399 7.64602 12.646C7.73991 12.5521 7.86725 12.4994 8.00002 12.4994C8.1328 12.4994 8.26013 12.5521 8.35402 12.646L10.5 14.793L15.146 10.146C15.2399 10.0521 15.3672 9.99939 15.5 9.99939C15.6328 9.99939 15.7601 10.0521 15.854 10.146C15.9479 10.2399 16.0007 10.3672 16.0007 10.5C16.0007 10.6328 15.9479 10.7601 15.854 10.854L10.854 15.854C10.8075 15.9004 10.7523 15.9372 10.6916 15.9623C10.6308 15.9873 10.5657 16.0001 10.5 16Z" fill="#11910D"/>
</g>
<defs>
<clipPath id="clip0_7198_13890">
<rect width="16" height="16" fill="white"/>
</clipPath>
</defs>
</svg>
