<svg width="16" height="16" viewBox="0 0 16 16" fill="none" xmlns="http://www.w3.org/2000/svg">
<path fill-rule="evenodd" clip-rule="evenodd" d="M2 4.5C2 3.11929 3.11929 2 4.5 2H11.5C12.8807 2 14 3.11929 14 4.5V11.5C14 12.8807 12.8807 14 11.5 14H8.4149C8.47161 13.8396 8.50068 13.6705 8.50068 13.5C8.50068 13.3295 8.4716 13.1604 8.41489 13H11.5C12.3284 13 13 12.3284 13 11.5V6H3.58017C3.49966 5.9465 3.41398 5.90079 3.32425 5.8636C3.1422 5.78816 2.94706 5.74933 2.75 5.74933C2.55294 5.74933 2.3578 5.78816 2.17575 5.8636C2.11521 5.88869 2.05651 5.91766 2 5.95029V4.5ZM3 5H13V4.5C13 3.67157 12.3284 3 11.5 3H4.5C3.67157 3 3 3.67157 3 4.5V5Z" fill="#202020"/>
<path d="M0.396828 8.89657C0.201566 9.09183 0.201566 9.40842 0.396828 9.60368L1.39668 10.6035C1.59194 10.7988 1.90852 10.7988 2.10378 10.6035L2.7073 10H3V13C3 13.2652 3.10536 13.5196 3.29289 13.7071C3.48043 13.8947 3.73479 14 4 14H4.81686C4.70846 14.1876 4.73165 14.4309 4.88807 14.595L5.37607 15.107C5.46899 15.2045 5.59732 15.2604 5.732 15.262C5.86668 15.2636 5.99632 15.2108 6.09155 15.1156L7.35355 13.8536C7.54882 13.6583 7.54882 13.3417 7.35355 13.1465L6.85355 12.6465C6.65829 12.4512 6.34171 12.4512 6.14645 12.6465L5.79289 13H4V10H4.82217C4.72152 10.1859 4.74699 10.4223 4.90009 10.583L5.38809 11.095C5.48102 11.1925 5.60935 11.2484 5.74403 11.25C5.87871 11.2516 6.00834 11.1988 6.10358 11.1036L7.35358 9.85356C7.54884 9.6583 7.54884 9.34172 7.35358 9.14645L6.85358 8.64645C6.65832 8.45119 6.34173 8.45119 6.14647 8.64645L5.79292 9.00001H3.7073L4.10348 8.60383C4.29874 8.40857 4.29874 8.09198 4.10348 7.89672L3.10363 6.89687C2.90837 6.70161 2.59179 6.70161 2.39653 6.89687L0.396828 8.89657Z" fill="#B27C00"/>
</svg>
