<svg width="16" height="16" viewBox="0 0 16 16" fill="none" xmlns="http://www.w3.org/2000/svg">
<path fill-rule="evenodd" clip-rule="evenodd" d="M7.5 3.02506C6.68776 3.10669 5.90512 3.3863 5.22215 3.84265C4.3999 4.39206 3.75904 5.17295 3.3806 6.08658C3.00216 7.00021 2.90315 8.00555 3.09607 8.97545C3.289 9.94536 3.7652 10.8363 4.46446 11.5355C5.16373 12.2348 6.05464 12.711 7.02455 12.9039C7.99445 13.0969 8.99979 12.9978 9.91342 12.6194C10.827 12.241 11.6079 11.6001 12.1573 10.7779C12.6137 10.0949 12.8933 9.31224 12.9749 8.5H8C7.86739 8.5 7.74021 8.44732 7.64645 8.35355C7.55268 8.25979 7.5 8.13261 7.5 8V3.02506ZM4.66658 3.01118C5.65327 2.35189 6.81331 2 8 2C8.27614 2 8.5 2.22386 8.5 2.5V7.5H13.5C13.7761 7.5 14 7.72386 14 8C14 9.18669 13.6481 10.3467 12.9888 11.3334C12.3295 12.3201 11.3925 13.0892 10.2961 13.5433C9.19974 13.9974 7.99334 14.1162 6.82946 13.8847C5.66557 13.6532 4.59647 13.0818 3.75736 12.2426C2.91824 11.4035 2.3468 10.3344 2.11529 9.17054C1.88378 8.00666 2.0026 6.80026 2.45672 5.7039C2.91085 4.60754 3.67988 3.67047 4.66658 3.01118Z" fill="#202020"/>
</svg>
