<svg width="16" height="16" viewBox="0 0 16 16" fill="none" xmlns="http://www.w3.org/2000/svg">
<path d="M12.5 15C12.224 15 12 14.776 12 14.5V5.102L8.82903 7.876C8.65903 8.025 8.40903 8.04 8.22303 7.916L5.46403 6.077L1.72403 7.947C1.47603 8.069 1.17703 7.971 1.05303 7.723C0.930028 7.476 1.03003 7.176 1.27703 7.052L5.27703 5.052C5.43603 4.971 5.62703 4.983 5.77803 5.083L8.46003 6.871L12.172 3.623C12.319 3.495 12.529 3.463 12.708 3.544C12.887 3.625 13.001 3.803 13.001 3.999V14.499C13.001 14.775 12.777 14.999 12.501 14.999L12.5 15Z" fill="#3487C7"/>
<path d="M14.5 15H1.5C1.224 15 1 14.776 1 14.5V1.5C1 1.224 1.224 1 1.5 1C1.776 1 2 1.224 2 1.5V14H14.5C14.776 14 15 14.224 15 14.5C15 14.776 14.776 15 14.5 15Z" fill="#202020"/>
</svg>
