<svg width="16" height="16" viewBox="0 0 16 16" fill="none" xmlns="http://www.w3.org/2000/svg">
<path d="M9 1.5C9 1.224 8.776 1 8.5 1C8.224 1 8 1.224 8 1.5L8 14.5C8 14.776 8.224 15 8.5 15C8.776 15 9 14.776 9 14.5L9 1.5ZM7 13L7 12L4 12C3.448 12 3 11.552 3 11L3 5C3 4.448 3.448 4 4 4L7 4L7 3L4 3C2.895 3 2 3.895 2 5L2 11C2 12.105 2.895 13 4 13L7 13ZM13 13L10 13L10 12L13 12C13.552 12 14 11.552 14 11L14 5C14 4.448 13.552 4 13 4L10 4L10 3L13 3C14.105 3 15 3.895 15 5L15 11C15 12.105 14.105 13 13 13Z" fill="#202020"/>
</svg>
