<svg width="16" height="16" viewBox="0 0 16 16" fill="none" xmlns="http://www.w3.org/2000/svg">
<g clip-path="url(#clip0_7198_12055)">
<path fill-rule="evenodd" clip-rule="evenodd" d="M6 1C4.89543 1 4 1.89543 4 3V6.0234C4.16468 6.00856 4.33146 6.00098 4.5 6.00098C4.66854 6.00098 4.83532 6.00856 5 6.0234V3C5 2.44772 5.44772 2 6 2H9V4.5C9 5.32843 9.67157 6 10.5 6H13V13C13 13.5523 12.5523 14 12 14H9.40079C9.21799 14.3578 8.99717 14.6929 8.74364 15H12C13.1046 15 14 14.1046 14 13V5.41421C14 5.01639 13.842 4.63486 13.5607 4.35355L10.6464 1.43934C10.3651 1.15804 9.98361 1 9.58579 1H6ZM12.7929 5H10.5C10.2239 5 10 4.77614 10 4.5V2.20711L12.7929 5Z" fill="#202020"/>
<path d="M9.79324 13H11.5C11.7761 13 12 12.7761 12 12.5C12 12.2239 11.7761 12 11.5 12H9.97767C9.94678 12.3434 9.88433 12.6777 9.79324 13Z" fill="#202020"/>
<path d="M9.97749 11H11.5C11.7761 11 12 10.7761 12 10.5C12 10.2239 11.7761 10 11.5 10H9.79269C9.88391 10.3223 9.94648 10.6566 9.97749 11Z" fill="#202020"/>
<path d="M9.39979 9H11.5C11.7761 9 12 8.77614 12 8.5C12 8.22386 11.7761 8 11.5 8H8.74203C8.99577 8.30709 9.2168 8.64221 9.39979 9Z" fill="#202020"/>
<path d="M3.01115 11.001H5.98915C5.96386 9.97881 5.74959 8.97015 5.35715 8.02598C4.93515 7.10098 4.55715 7.00098 4.50015 7.00098C4.44315 7.00098 4.06515 7.10098 3.64315 8.02598C3.25071 8.97015 3.03643 9.97881 3.01115 11.001V11.001ZM0.0271454 11.001C0.119033 10.1814 0.43439 9.4028 0.938769 8.75029C1.44315 8.09777 2.11715 7.59641 2.88715 7.30098C2.32984 8.45608 2.03059 9.71862 2.01015 11.001H0.0271454ZM0.0271454 12.001H2.01015C2.03059 13.2833 2.32984 14.5459 2.88715 15.701C2.11715 15.4055 1.44315 14.9042 0.938769 14.2517C0.43439 13.5991 0.119033 12.8206 0.0271454 12.001ZM4.50015 16.001C4.44315 16.001 4.06515 15.901 3.64315 14.976C3.25071 14.0318 3.03643 13.0231 3.01115 12.001H5.98915C5.96386 13.0231 5.74959 14.0318 5.35715 14.976C4.93515 15.901 4.55715 16.001 4.50015 16.001ZM8.97314 12.001C8.88126 12.8206 8.5659 13.5991 8.06152 14.2517C7.55714 14.9042 6.88314 15.4055 6.11315 15.701C6.67045 14.5459 6.9697 13.2833 6.99015 12.001H8.97314ZM6.11315 7.30098C6.88314 7.59641 7.55714 8.09777 8.06152 8.75029C8.5659 9.4028 8.88126 10.1814 8.97314 11.001H6.99015C6.9697 9.71862 6.67045 8.45608 6.11315 7.30098V7.30098Z" fill="#006CBF"/>
</g>
<defs>
<clipPath id="clip0_7198_12055">
<rect width="16" height="16" fill="white"/>
</clipPath>
</defs>
</svg>
