<svg width="16" height="16" viewBox="0 0 16 16" fill="none" xmlns="http://www.w3.org/2000/svg">
<path fill-rule="evenodd" clip-rule="evenodd" d="M2 4.5C2 3.11929 3.11929 2 4.5 2H11.5C12.8807 2 14 3.11929 14 4.5V11.5C14 12.8807 12.8807 14 11.5 14H10.918C10.8632 13.7902 10.7803 13.5879 10.671 13.4L10.4402 13H11.5C12.3284 13 13 12.3284 13 11.5V6H3V7.04508C2.96182 7.10006 2.92579 7.15674 2.89203 7.215L2 8.76151V4.5ZM3 5H13V4.5C13 3.67157 12.3284 3 11.5 3H4.5C3.67157 3 3 3.67157 3 4.5V5Z" fill="#202020"/>
<path d="M1.42896 16C1.17785 15.9989 0.931454 15.9318 0.714536 15.8053C0.497618 15.6788 0.317831 15.4974 0.19326 15.2794C0.0686878 15.0614 0.00372278 14.8144 0.00489849 14.5633C0.00607421 14.3122 0.0733492 14.0658 0.199957 13.849L3.76296 7.67096C3.88838 7.45374 4.06878 7.27337 4.286 7.14797C4.50323 7.02256 4.74963 6.95654 5.00046 6.95654C5.25128 6.95654 5.49769 7.02256 5.71491 7.14797C5.93214 7.27337 6.11253 7.45374 6.23796 7.67096L9.80896 13.856C9.93493 14.0728 10.0009 14.3192 9.99996 14.57C9.99969 14.949 9.84909 15.3124 9.58118 15.5805C9.31328 15.8486 8.94996 15.9994 8.57096 16H1.42896Z" fill="#7C52AB"/>
<path d="M7.66601 12.143H5.28301L5.00001 11.651L4.18001 10.231C4.14248 10.1665 4.08824 10.1133 4.02301 10.077C3.92448 10.0201 3.80739 10.0047 3.6975 10.0341C3.5876 10.0636 3.4939 10.1355 3.43701 10.234L4.62901 8.17099C4.66673 8.10602 4.72086 8.0521 4.78597 8.01461C4.85107 7.97713 4.92488 7.9574 5.00001 7.9574C5.07514 7.9574 5.14895 7.97713 5.21406 8.01461C5.27917 8.0521 5.33329 8.10602 5.37101 8.17099L6.55701 10.226L6.56301 10.235L7.66601 12.143Z" fill="#9A70C9"/>
<path d="M6.61994 14.5709C6.62007 14.6273 6.60906 14.6832 6.58755 14.7353C6.56604 14.7874 6.53444 14.8347 6.49458 14.8746C6.45472 14.9145 6.40737 14.946 6.35526 14.9676C6.30316 14.9891 6.24731 15.0001 6.19094 14.9999H3.80894C3.86526 15.0001 3.92106 14.9891 3.97311 14.9675C4.02517 14.946 4.07245 14.9144 4.11223 14.8745C4.15201 14.8347 4.18351 14.7873 4.20492 14.7352C4.22632 14.6831 4.2372 14.6273 4.23694 14.5709C4.23728 14.4958 4.2176 14.422 4.17994 14.3569L4.17394 14.3489L3.79994 13.7339L2.95194 12.3489C2.91356 12.2862 2.85979 12.2344 2.79573 12.1983C2.73167 12.1623 2.65945 12.1432 2.58594 12.1429H5.28594L5.37394 12.2939L5.41094 12.3569L6.56594 14.3569C6.60123 14.4228 6.61977 14.4963 6.61994 14.5709Z" fill="#CCA2EB"/>
<path d="M4.237 14.5709C4.23727 14.6273 4.22639 14.6831 4.20498 14.7352C4.18358 14.7873 4.15208 14.8347 4.1123 14.8745C4.07251 14.9144 4.02523 14.946 3.97318 14.9675C3.92113 14.9891 3.86533 15.0001 3.809 14.9999H1.429C1.37263 15.0001 1.31679 14.9891 1.26468 14.9676C1.21257 14.946 1.16522 14.9145 1.12536 14.8746C1.0855 14.8347 1.0539 14.7874 1.03239 14.7353C1.01088 14.6832 0.999873 14.6273 1 14.5709C0.999663 14.4958 1.01934 14.422 1.057 14.3569L2.211 12.3569C2.24929 12.2922 2.30367 12.2385 2.36885 12.201C2.43403 12.1635 2.50781 12.1435 2.583 12.1429C2.65651 12.1432 2.72873 12.1623 2.79279 12.1983C2.85686 12.2344 2.91063 12.2862 2.949 12.3489L3.8 13.7339L4.177 14.3489L4.183 14.3569C4.21962 14.4222 4.23826 14.4961 4.237 14.5709Z" fill="#E0B6F5"/>
<path d="M8.99994 14.5709C9.00007 14.6273 8.98906 14.6832 8.96755 14.7353C8.94604 14.7874 8.91444 14.8347 8.87458 14.8746C8.83472 14.9144 8.78737 14.946 8.73526 14.9675C8.68316 14.9891 8.62731 15.0001 8.57094 14.9999H6.19094C6.24731 15.0001 6.30316 14.9891 6.35526 14.9675C6.40737 14.946 6.45472 14.9144 6.49458 14.8746C6.53444 14.8347 6.56604 14.7874 6.58755 14.7353C6.60906 14.6832 6.62007 14.6273 6.61994 14.5709C6.61885 14.496 6.59927 14.4225 6.56294 14.3569L5.37094 12.2939L5.28294 12.1429H7.66594L8.94294 14.3569C8.9806 14.4219 9.00028 14.4958 8.99994 14.5709ZM5.28294 12.1429H2.58294C2.50774 12.1435 2.43397 12.1635 2.36878 12.201C2.3036 12.2385 2.24922 12.2922 2.21094 12.3569L2.33394 12.1429L3.42594 10.2539L3.43694 10.2369C3.49383 10.1384 3.58753 10.0665 3.69742 10.0371C3.80732 10.0076 3.92441 10.023 4.02294 10.0799C4.08817 10.1162 4.14241 10.1694 4.17994 10.2339L4.99994 11.6509L5.28294 12.1429Z" fill="#B88EE7"/>
</svg>
