<svg width="16" height="16" viewBox="0 0 16 16" fill="none" xmlns="http://www.w3.org/2000/svg">
<g clip-path="url(#clip0_7198_13999)">
<path d="M15.752 7.26403C15.649 7.09503 15.513 6.95003 15.351 6.83603C15.571 6.52103 15.684 6.14303 15.671 5.75903C15.68 5.42603 15.605 5.09603 15.453 4.80003C15.322 4.56103 15.127 4.36303 14.889 4.23003C14.577 4.06803 14.229 3.98903 13.879 4.00003H12.5C12.367 4.00003 12.24 4.05203 12.146 4.14603C12.053 4.24003 12 4.36703 12 4.50003V9.50003C12 9.63303 12.052 9.76003 12.146 9.85403C12.24 9.94703 12.367 10 12.5 10H14.129C14.503 10.002 14.871 9.90903 15.198 9.72903C15.455 9.57803 15.666 9.35903 15.807 9.09703C15.948 8.83503 16.014 8.53903 15.998 8.24103C16.008 7.89903 15.923 7.56103 15.752 7.26403ZM13 5.00003H13.88C14.059 4.99003 14.238 5.02403 14.401 5.10003C14.476 5.14103 14.537 5.20303 14.577 5.27803C14.65 5.42703 14.685 5.59303 14.677 5.75903C14.694 5.87703 14.677 5.99803 14.629 6.10803C14.581 6.21803 14.502 6.31103 14.402 6.37803C14.249 6.46103 14.076 6.50303 13.902 6.50003H13.001V5.00003H13ZM14.936 8.59403C14.883 8.70503 14.798 8.79803 14.693 8.86103C14.519 8.95303 14.326 9.00003 14.129 9.00003H13V7.50003H14.065C14.279 7.48703 14.494 7.52103 14.693 7.60003C14.776 7.64003 14.845 7.70303 14.893 7.78103C14.967 7.92103 15.002 8.07903 14.993 8.23803C15.009 8.35903 14.989 8.48303 14.936 8.59403ZM5.46496 9.31403L3.46496 4.31403C3.31496 3.93303 2.68797 3.93303 2.53697 4.31403L0.536967 9.31403C0.433967 9.57003 0.557967 9.86103 0.814967 9.96303C1.06997 10.067 1.36197 9.94103 1.46397 9.68503L1.73797 8.99903H4.26196L4.53596 9.68503C4.61396 9.88003 4.80196 9.99903 4.99996 9.99903C5.06196 9.99903 5.12497 9.98703 5.18597 9.96303C5.44297 9.86003 5.56796 9.56903 5.46496 9.31403ZM2.13897 8.00003L3.00097 5.84703L3.86297 8.00003H2.13897Z" fill="#202020"/>
<path d="M7.70701 6.99998L8.85301 5.85398C9.04801 5.65898 9.04801 5.34198 8.85301 5.14698C8.65801 4.95198 8.34101 4.95198 8.14601 5.14698L6.14701 7.14598C6.10101 7.19198 6.06401 7.24798 6.03801 7.30898C5.98701 7.43098 5.98701 7.56898 6.03801 7.69098C6.06301 7.75298 6.10001 7.80798 6.14701 7.85398L8.14601 9.85298C8.24401 9.95098 8.37201 9.99898 8.50001 9.99898C8.62801 9.99898 8.75602 9.94998 8.85402 9.85298C9.04902 9.65798 9.04902 9.34098 8.85402 9.14598L7.708 7.99998H10.501C10.777 7.99998 11.001 7.77598 11.001 7.49998C11.001 7.22398 10.777 6.99998 10.501 6.99998H7.70701Z" fill="#006CBF"/>
</g>
<defs>
<clipPath id="clip0_7198_13999">
<rect width="16" height="16" fill="white"/>
</clipPath>
</defs>
</svg>
