<svg width="16" height="16" viewBox="0 0 16 16" fill="none" xmlns="http://www.w3.org/2000/svg">
<g clip-path="url(#clip0_7198_14003)">
<path fill-rule="evenodd" clip-rule="evenodd" d="M12.84 7.28L13.617 6.5C14.447 6.831 15 7.319 15 7.969V13C15 14.313 12.736 15 10.5 15C8.264 15 6 14.313 6 13V7.969C6 7.319 6.553 6.831 7.383 6.5L8.16 7.28C7.406 7.509 7 7.805 7 7.969C7 8.259 8.227 8.969 10.5 8.969C12.773 8.969 14 8.259 14 7.969C14 7.805 13.594 7.509 12.84 7.28ZM10.5 14C12.773 14 14 13.29 14 13V9.26C12.903 9.761 11.706 10.004 10.5 9.969C9.294 10.004 8.097 9.761 7 9.26V13C7 13.29 8.227 14 10.5 14Z" fill="#3487C7"/>
<path d="M11.647 5.647C11.842 5.452 12.159 5.452 12.354 5.647H12.356C12.551 5.842 12.551 6.159 12.356 6.354L10.856 7.854C10.758 7.951 10.63 8 10.502 8C10.374 8 10.246 7.952 10.148 7.854L8.64796 6.354C8.45296 6.159 8.45296 5.842 8.64796 5.647C8.84296 5.452 9.15996 5.452 9.35496 5.647L10.001 6.293V4.5C10.001 4.224 10.225 4 10.501 4C10.777 4 11.001 4.224 11.001 4.5V6.293L11.647 5.647Z" fill="#202020"/>
<path d="M10 2.5C10 2.224 10.224 2 10.5 2C10.776 2 11 2.224 11 2.5C11 2.776 10.776 3 10.5 3C10.224 3 10 2.776 10 2.5Z" fill="#202020"/>
<path d="M14 2.5C14 2.224 14.224 2 14.5 2C14.776 2 15 2.224 15 2.5C15 2.776 14.776 3 14.5 3C14.224 3 14 2.776 14 2.5Z" fill="#202020"/>
<path d="M8 3.5C8 3.224 8.224 3 8.5 3C8.776 3 9 3.224 9 3.5C9 3.776 8.776 4 8.5 4C8.224 4 8 3.776 8 3.5Z" fill="#202020"/>
<path d="M12 3.5C12 3.224 12.224 3 12.5 3C12.776 3 13 3.224 13 3.5C13 3.776 12.776 4 12.5 4C12.224 4 12 3.776 12 3.5Z" fill="#202020"/>
<path d="M8 1.5C8 1.224 8.224 1 8.5 1C8.776 1 9 1.224 9 1.5C9 1.776 8.776 2 8.5 2C8.224 2 8 1.776 8 1.5Z" fill="#202020"/>
<path d="M12 1.5C12 1.224 12.224 1 12.5 1C12.776 1 13 1.224 13 1.5C13 1.776 12.776 2 12.5 2C12.224 2 12 1.776 12 1.5Z" fill="#202020"/>
<path d="M6.85 2.85003L4.85 4.85003C4.80488 4.89747 4.75059 4.93524 4.69042 4.96106C4.63026 4.98687 4.56547 5.00018 4.5 5.00018C4.43453 5.00018 4.36974 4.98687 4.30958 4.96106C4.24941 4.93524 4.19512 4.89747 4.15 4.85003C4.10256 4.80491 4.06478 4.75062 4.03897 4.69045C4.01316 4.63028 3.99985 4.5655 3.99985 4.50003C3.99985 4.43456 4.01316 4.36977 4.03897 4.3096C4.06478 4.24944 4.10256 4.19515 4.15 4.15003L5.29 3.00003H0.5C0.367392 3.00003 0.240215 2.94735 0.146447 2.85358C0.0526784 2.75981 0 2.63264 0 2.50003C0 2.36742 0.0526784 2.24024 0.146447 2.14647C0.240215 2.05271 0.367392 2.00003 0.5 2.00003H5.29L4.15 0.850028C4.10256 0.804911 4.06478 0.750619 4.03897 0.690452C4.01316 0.630285 3.99985 0.565498 3.99985 0.500028C3.99985 0.434558 4.01316 0.369771 4.03897 0.309604C4.06478 0.249437 4.10256 0.195146 4.15 0.150028C4.19512 0.102586 4.24941 0.0648117 4.30958 0.0389999C4.36974 0.0131882 4.43453 -0.00012207 4.5 -0.00012207C4.56547 -0.00012207 4.63026 0.0131882 4.69042 0.0389999C4.75059 0.0648117 4.80488 0.102586 4.85 0.150028L6.85 2.15003C6.89744 2.19515 6.93522 2.24944 6.96103 2.3096C6.98684 2.36977 7.00015 2.43456 7.00015 2.50003C7.00015 2.5655 6.98684 2.63028 6.96103 2.69045C6.93522 2.75062 6.89744 2.80491 6.85 2.85003V2.85003Z" fill="#006CBF"/>
</g>
<defs>
<clipPath id="clip0_7198_14003">
<rect width="16" height="16" fill="white"/>
</clipPath>
</defs>
</svg>
