<svg width="16" height="16" viewBox="0 0 16 16" fill="none" xmlns="http://www.w3.org/2000/svg">
<g clip-path="url(#clip0_7198_14041)">
<path d="M6.99952 1C5.89495 1 4.99952 1.89543 4.99952 3L3.50009 3.00009C2.67167 3.00009 2.00009 3.67167 2.00009 4.50009L1.99984 6.00048C0.895343 6.00057 0 6.89597 0 8.00048C0 9.10505 0.895523 10.0005 2.00009 10.0005V11.5001C2.00009 12.3285 2.67167 13.0001 3.50009 13.0001L5.00048 13.0002C5.00057 14.1047 5.89597 15 7.00048 15C7.16235 15 7.31972 14.9808 7.47044 14.9445L6.76299 14.237C6.64728 14.1213 6.5486 13.9902 6.46963 13.8476C6.18783 13.6707 6.00048 13.3571 6.00048 12.9998L6.00016 12.0001H3.50009C3.22395 12.0001 3.00009 11.7762 3.00009 11.5001V9.00048H2C1.44772 9.00048 1 8.55277 1 8.00048C1 7.4482 1.44788 7.00048 2.00016 7.00048L3.00009 7.00016V4.50009C3.00009 4.22395 3.22395 4.00009 3.50009 4.00009H5.99952V3C5.99952 2.44772 6.44723 2 6.99952 2C7.5518 2 7.99952 2.44788 7.99952 3.00016L7.99984 4.00009H10.5C10.7761 4.00009 11 4.22395 11 4.50009L10.9998 6.00048C9.89534 6.00057 9 6.89597 9 8.00048C9 9.10505 9.89549 10.0005 11.0001 10.0005L11.0001 11.5001C11.0001 11.7762 10.7762 12.0001 10.5001 12.0001H9.47425L10.475 13.0001H10.5001C10.5084 13.0001 10.5168 13 10.5251 12.9999L11.9999 11.5255C12 11.5171 12.0001 11.5086 12.0001 11.5001L12 9.00048H11C10.4477 9.00048 10 8.55277 10 8.00048C10 7.4482 10.4479 7.00048 11.0002 7.00048L12 7.00016L12 4.50007C12 3.67165 11.3284 3.00009 10.5 3.00009L8.99952 2.99984C8.99943 1.89534 8.10403 1 6.99952 1Z" fill="#202020"/>
<path d="M10.5 16C10.4343 16.0001 10.3692 15.9873 10.3085 15.9623C10.2477 15.9372 10.1925 15.9004 10.146 15.854L7.64602 13.354C7.55213 13.2601 7.49939 13.1328 7.49939 13C7.49939 12.8672 7.55213 12.7399 7.64602 12.646C7.73991 12.5521 7.86725 12.4994 8.00002 12.4994C8.1328 12.4994 8.26013 12.5521 8.35402 12.646L10.5 14.793L15.146 10.146C15.2399 10.0521 15.3672 9.99939 15.5 9.99939C15.6328 9.99939 15.7601 10.0521 15.854 10.146C15.9479 10.2399 16.0007 10.3672 16.0007 10.5C16.0007 10.6328 15.9479 10.7601 15.854 10.854L10.854 15.854C10.8075 15.9004 10.7523 15.9372 10.6916 15.9623C10.6308 15.9873 10.5657 16.0001 10.5 16Z" fill="#11910D"/>
</g>
<defs>
<clipPath id="clip0_7198_14041">
<rect width="16" height="16" fill="white"/>
</clipPath>
</defs>
</svg>
