<svg width="16" height="16" viewBox="0 0 16 16" fill="none" xmlns="http://www.w3.org/2000/svg">
<path d="M13.5 11H8.5C7.673 11 7 10.327 7 9.5V2.5C7 1.673 7.673 1 8.5 1H13.5C14.327 1 15 1.673 15 2.5V9.5C15 10.327 14.327 11 13.5 11ZM8.5 2C8.224 2 8 2.224 8 2.5V9.5C8 9.776 8.224 10 8.5 10H13.5C13.776 10 14 9.776 14 9.5V2.5C14 2.224 13.776 2 13.5 2H8.5ZM13 3.5C13 3.224 12.776 3 12.5 3H9.5C9.224 3 9 3.224 9 3.5C9 3.776 9.224 4 9.5 4H12.5C12.776 4 13 3.776 13 3.5ZM12 5.5C12 5.224 11.776 5 11.5 5H9.5C9.224 5 9 5.224 9 5.5C9 5.776 9.224 6 9.5 6H11.5C11.776 6 12 5.776 12 5.5ZM13 7.5C13 7.224 12.776 7 12.5 7H9.5C9.224 7 9 7.224 9 7.5C9 7.776 9.224 8 9.5 8H12.5C12.776 8 13 7.776 13 7.5ZM5 10.5C5 10.224 4.776 10 4.5 10H1.5C1.224 10 1 10.224 1 10.5C1 10.776 1.224 11 1.5 11H4.5C4.776 11 5 10.776 5 10.5ZM4 12.5C4 12.224 3.776 12 3.5 12H1.5C1.224 12 1 12.224 1 12.5C1 12.776 1.224 13 1.5 13H3.5C3.776 13 4 12.776 4 12.5ZM5 14.5C5 14.224 4.776 14 4.5 14H1.5C1.224 14 1 14.224 1 14.5C1 14.776 1.224 15 1.5 15H4.5C4.776 15 5 14.776 5 14.5Z" fill="#202020"/>
<path d="M4.50075 3C4.77675 3 5.00075 3.224 5.00075 3.5C5.00075 3.776 4.77675 4 4.50075 4H3.25075C3.18475 4 3.12075 4.026 3.07375 4.073C3.02675 4.12 3.00075 4.183 3.00075 4.25V6.293L3.64675 5.647C3.84175 5.452 4.15875 5.452 4.35375 5.647C4.54875 5.842 4.54875 6.159 4.35375 6.354L2.85375 7.854C2.65875 8.049 2.34175 8.049 2.14675 7.854L0.646753 6.354C0.451754 6.159 0.451754 5.842 0.646753 5.647C0.841753 5.452 1.15875 5.452 1.35375 5.647L1.99975 6.293V4.25C1.99975 3.918 2.13175 3.601 2.36575 3.366C2.59975 3.132 2.91775 3 3.24975 3L4.50075 3Z" fill="#006CBF"/>
</svg>
