<svg width="16" height="16" viewBox="0 0 16 16" fill="none" xmlns="http://www.w3.org/2000/svg">
<path d="M11.4991 1.00001C12.1398 0.998862 12.7684 1.17384 13.3164 1.50581C13.8643 1.83778 14.3104 2.31398 14.6061 2.88236C14.9017 3.45074 15.0354 4.08945 14.9925 4.72867C14.9497 5.3679 14.732 5.98305 14.3632 6.50692C14.3137 6.57716 14.2618 6.64539 14.2076 6.71152C13.9038 6.53936 13.582 6.39529 13.2457 6.28281C13.3558 6.1756 13.4563 6.058 13.5455 5.93126C13.8088 5.55729 13.9642 5.11814 13.9948 4.66181C14.0253 4.20548 13.9299 3.74953 13.7189 3.34377C13.5078 2.93802 13.1893 2.59807 12.7982 2.36108C12.407 2.1241 11.9582 1.99919 11.5009 2C10.9857 2.00093 10.4835 2.16161 10.0635 2.45991C9.64352 2.75822 9.32637 3.17945 9.1558 3.66556C9.0855 3.86591 8.89633 4 8.684 4H2.70711L2.20711 4.5L3.5 5.7929L4.14645 5.14645C4.34171 4.95119 4.65829 4.95119 4.85355 5.14645L5.5 5.7929L6.14645 5.14645C6.34171 4.95119 6.65829 4.95119 6.85355 5.14645L7.5 5.7929L8.14645 5.14645C8.24021 5.05268 8.36739 5 8.5 5H8.684C8.89546 5 9.08405 5.13303 9.15501 5.33222C9.28291 5.69128 9.491 6.01527 9.76229 6.28016C9.42581 6.39212 9.10379 6.5357 8.79972 6.70738C8.67818 6.55874 8.56905 6.40028 8.47348 6.23363L7.85355 6.85356C7.65829 7.04882 7.34171 7.04882 7.14645 6.85356L6.5 6.20711L5.85355 6.85356C5.65829 7.04882 5.34171 7.04882 5.14645 6.85356L4.5 6.20711L3.85355 6.85356C3.65829 7.04882 3.34171 7.04882 3.14645 6.85356L1.14645 4.85356C0.951184 4.6583 0.951184 4.34171 1.14645 4.14645L2.14645 3.14645C2.24021 3.05268 2.36739 3 2.5 3H8.3494C8.60429 2.46011 8.99443 1.99266 9.48448 1.64462C10.0732 1.22652 10.7771 1.0013 11.4991 1.00001Z" fill="#006CBF"/>
<path d="M12.5 5.25C12.9142 5.25 13.25 4.91421 13.25 4.5C13.25 4.08579 12.9142 3.75 12.5 3.75C12.0858 3.75 11.75 4.08579 11.75 4.5C11.75 4.91421 12.0858 5.25 12.5 5.25Z" fill="#006CBF"/>
<path d="M7.11305 8.18217C6.93633 7.9817 6.73621 7.80109 6.5159 7.64462C5.92721 7.22652 5.22333 7.0013 4.50127 7.00001C3.86061 6.99886 3.23196 7.17384 2.68402 7.50581C2.13608 7.83778 1.68993 8.31398 1.39432 8.88236C1.09871 9.45074 0.965019 10.0894 1.00785 10.7287C1.05069 11.3679 1.2684 11.9831 1.6372 12.5069C2.006 13.0308 2.51169 13.4432 3.09903 13.6991C3.68636 13.955 4.33273 14.0445 4.96751 13.9579C5.4629 13.8903 5.93636 13.7175 6.35678 13.4529C6.2318 13.1239 6.13748 12.7798 6.0773 12.4241C6.07418 12.4267 6.07107 12.4292 6.06794 12.4317C5.71292 12.7201 5.28548 12.9053 4.83232 12.9671C4.37917 13.0289 3.91774 12.965 3.49846 12.7823C3.07917 12.5996 2.71817 12.3052 2.45489 11.9313C2.19161 11.5573 2.03619 11.1181 2.00561 10.6618C1.97504 10.2055 2.07048 9.74953 2.2815 9.34377C2.49253 8.93802 2.81103 8.59807 3.20219 8.36108C3.59336 8.1241 4.04213 7.99919 4.49948 8C5.01464 8.00093 5.51684 8.16161 5.93685 8.45991C6.18005 8.63264 6.38876 8.84659 6.5545 9.09048C6.71149 8.76888 6.89892 8.46485 7.11305 8.18217Z" fill="#202020"/>
<path d="M3.50038 11.25C3.08616 11.25 2.75038 10.9142 2.75038 10.5C2.75038 10.0858 3.08616 9.75 3.50038 9.75C3.91459 9.75 4.25038 10.0858 4.25038 10.5C4.25038 10.9142 3.91459 11.25 3.50038 11.25Z" fill="#202020"/>
<path fill-rule="evenodd" clip-rule="evenodd" d="M11.5 16C13.9853 16 16 13.9853 16 11.5C16 9.01472 13.9853 7 11.5 7C9.01472 7 7 9.01472 7 11.5C7 13.9853 9.01472 16 11.5 16ZM13.3536 10.3536C13.5488 10.1583 13.5488 9.84171 13.3536 9.64645C13.1583 9.45118 12.8417 9.45118 12.6464 9.64645L11.5 10.7929L10.3536 9.64645C10.1583 9.45118 9.84171 9.45118 9.64645 9.64645C9.45118 9.84171 9.45118 10.1583 9.64645 10.3536L10.7929 11.5L9.64645 12.6464C9.45118 12.8417 9.45118 13.1583 9.64645 13.3536C9.84171 13.5488 10.1583 13.5488 10.3536 13.3536L11.5 12.2071L12.6464 13.3536C12.8417 13.5488 13.1583 13.5488 13.3536 13.3536C13.5488 13.1583 13.5488 12.8417 13.3536 12.6464L12.2071 11.5L13.3536 10.3536Z" fill="#C50F1F"/>
</svg>
