<svg width="16" height="16" viewBox="0 0 16 16" fill="none" xmlns="http://www.w3.org/2000/svg">
<path d="M13 13C13 13.2868 12.9394 13.5596 12.8303 13.8063C12.5796 13.327 12.0773 12.999 11.5 12.999H11.001V10.5L11.001 10.493V3H5V9C4.62138 9.00026 4.26677 9.14323 3.98602 9.401C3.72102 9.174 3.38202 9.031 3.00202 9.031L3 9.031V3C3 1.897 3.897 1 5 1H11C12.103 1 13 1.897 13 3V13Z" fill="#202020"/>
<path d="M8.354 10.146C8.448 10.24 8.5 10.367 8.5 10.5C8.5 10.633 8.447 10.76 8.354 10.854C8.261 10.948 8.133 11 8 11H7V14.499C7 14.632 6.947 14.759 6.854 14.853C6.761 14.947 6.633 14.999 6.5 14.999C6.367 14.999 6.24 14.946 6.146 14.853C6.052 14.76 6 14.632 6 14.499V11H5C4.867 11 4.74 10.947 4.646 10.854C4.552 10.761 4.5 10.633 4.5 10.5C4.5 10.367 4.553 10.24 4.646 10.146C4.74 10.052 4.867 10 5 10H8C8.133 10 8.26 10.053 8.354 10.146Z" fill="#202020"/>
<path fill-rule="evenodd" clip-rule="evenodd" d="M4.96701 14.323L3.46801 10.324C3.32201 9.93301 2.67901 9.93301 2.53201 10.324L1.03301 14.323C0.935009 14.582 1.06601 14.87 1.32501 14.967C1.58201 15.067 1.87201 14.933 1.96901 14.675L2.22201 13.999H3.77901L4.03201 14.675C4.10701 14.875 4.29801 14.999 4.50001 14.999C4.55901 14.999 4.61801 14.989 4.67601 14.967C4.93501 14.87 5.06501 14.582 4.96701 14.323ZM2.59701 12.999L3.00101 11.923L3.40501 12.999H2.59701Z" fill="#202020"/>
<path d="M11.5 14.999C11.776 14.999 12 14.775 12 14.499C12 14.223 11.776 13.999 11.5 13.999H10V10.5C10 10.224 9.776 10 9.5 10C9.224 10 9 10.224 9 10.5V14.499C9 14.775 9.224 14.999 9.5 14.999H11.5Z" fill="#202020"/>
</svg>
