<svg width="16" height="16" viewBox="0 0 16 16" fill="none" xmlns="http://www.w3.org/2000/svg">
<path fill-rule="evenodd" clip-rule="evenodd" d="M8.22199 2.84302C9.04399 2.29302 10.011 2.00002 11 2.00002L10.999 1.99902C12.325 2.00002 13.596 2.52802 14.533 3.46502C15.47 4.40302 15.997 5.67302 15.999 6.99902C15.999 7.98802 15.706 8.95502 15.156 9.77702C14.606 10.6 13.826 11.241 12.912 11.619C12.303 11.8716 11.6536 11.9998 11.001 12.0001V11C11.1816 10.9974 11.6004 10.3065 11.83 9.00002H10.17C10.1807 9.05954 10.1917 9.11779 10.2031 9.17475C9.99352 9.06324 9.7545 9 9.50102 9C9.38214 9 9.26722 9.01487 9.15706 9.04225C9.155 9.02818 9.15297 9.0141 9.15099 9.00002H8.00916C8.00644 9.00001 8.00373 9 8.00102 9H6.41603C6.27334 8.67283 6.16535 8.32968 6.09499 7.97602C5.90299 7.00602 6.00199 6.00102 6.37999 5.08702C6.75899 4.17302 7.39999 3.39202 8.22199 2.84302ZM9.99999 7.00002C9.99999 7.35802 10.016 7.68902 10.041 8.00002H11.959C11.984 7.68902 12 7.35802 12 7.00002C12 6.64202 11.984 6.31102 11.959 6.00002H10.041C10.016 6.31102 9.99999 6.64202 9.99999 7.00002ZM7.14199 6.00002C7.05199 6.32602 7.00399 6.66202 6.99999 7.00002C7.00399 7.33802 7.05199 7.67402 7.14199 8.00002H9.03699C9.01299 7.66802 8.99999 7.33202 8.99999 7.00002C8.99999 6.66802 9.01299 6.33202 9.03699 6.00002H7.14199ZM11.83 5.00002C11.6 3.69102 11.18 3.00002 11 3.00002C10.82 3.00002 10.405 3.69102 10.17 5.00002H11.83ZM14.863 6.00002H12.963C12.987 6.33202 12.995 6.66802 12.995 7.00002C12.995 7.33202 12.982 7.66802 12.958 8.00002H14.858C14.948 7.67402 14.996 7.33802 15 7.00002C14.997 6.66202 14.951 6.32602 14.863 6.00002ZM12.844 5.00002H14.444C13.979 4.19902 13.25 3.58502 12.382 3.26202C12.605 3.82102 12.76 4.40402 12.844 5.00002ZM9.15099 5.00002C9.23499 4.40402 9.39099 3.82102 9.61299 3.26202C8.74699 3.58602 8.01999 4.20002 7.55599 5.00002H9.15099ZM12.849 9.00002C12.765 9.59602 12.61 10.179 12.387 10.738C13.255 10.415 13.984 9.80002 14.449 9.00002H12.849Z" fill="#006CBF"/>
<path d="M2.5 5H4.5C4.776 5 5 4.776 5 4.5C5 4.224 4.776 4 4.5 4H2.5C2.224 4 2 4.224 2 4.5C2 4.776 2.224 5 2.5 5Z" fill="#006CBF"/>
<path d="M0.5 8H3.5C3.776 8 4 7.776 4 7.5C4 7.224 3.776 7 3.5 7H0.5C0.224 7 0 7.224 0 7.5C0 7.776 0.224 8 0.5 8Z" fill="#006CBF"/>
<path d="M8.354 10.146C8.448 10.24 8.5 10.367 8.5 10.5C8.5 10.633 8.447 10.76 8.354 10.854C8.261 10.948 8.133 11 8 11H7V14.499C7 14.632 6.947 14.759 6.854 14.853C6.761 14.947 6.633 14.999 6.5 14.999C6.367 14.999 6.24 14.946 6.146 14.853C6.052 14.76 6 14.632 6 14.499V11H5C4.867 11 4.74 10.947 4.646 10.854C4.552 10.761 4.5 10.633 4.5 10.5C4.5 10.367 4.553 10.24 4.646 10.146C4.74 10.052 4.867 10 5 10H8C8.133 10 8.26 10.053 8.354 10.146Z" fill="#202020"/>
<path fill-rule="evenodd" clip-rule="evenodd" d="M4.96701 14.323L3.46801 10.324C3.32201 9.93301 2.67901 9.93301 2.53201 10.324L1.03301 14.323C0.935009 14.582 1.06601 14.87 1.32501 14.967C1.58201 15.067 1.87201 14.933 1.96901 14.675L2.22201 13.999H3.77901L4.03201 14.675C4.10701 14.875 4.29801 14.999 4.50001 14.999C4.55901 14.999 4.61801 14.989 4.67601 14.967C4.93501 14.87 5.06501 14.582 4.96701 14.323ZM2.59701 12.999L3.00101 11.923L3.40501 12.999H2.59701Z" fill="#202020"/>
<path d="M11.5 14.999C11.776 14.999 12 14.775 12 14.499C12 14.223 11.776 13.999 11.5 13.999H10V10.5C10 10.224 9.776 10 9.5 10C9.224 10 9 10.224 9 10.5V14.499C9 14.775 9.224 14.999 9.5 14.999H11.5Z" fill="#202020"/>
</svg>
