<svg width="16" height="16" viewBox="0 0 16 16" fill="none" xmlns="http://www.w3.org/2000/svg">
<g clip-path="url(#clip0_7198_14123)">
<path d="M13.4781 6.00047C13.4927 6.00068 13.5073 6.00068 13.5218 6.00047C13.7877 6.01192 14 6.23132 14 6.5V9.5C14 9.776 13.776 10 13.5 10C13.224 10 13 9.776 13 9.5V6.5C13 6.23133 13.2123 6.01193 13.4781 6.00047Z" fill="#202020"/>
<path d="M8.89013 5.01213L9.43895 5.56095C9.64873 5.77086 9.91606 5.91384 10.2071 5.97177C10.2897 5.9882 10.3731 5.99758 10.4565 6H9C8.724 6 8.5 5.776 8.5 5.5C8.5 5.26174 8.66692 5.06224 8.89013 5.01213Z" fill="#202020"/>
<path d="M7.08504 2C7.02834 2.16039 6.99927 2.32945 6.99927 2.49995C6.99927 2.67049 7.02835 2.83958 7.08507 3H6.5C6.224 3 6 2.776 6 2.5C6 2.224 6.224 2 6.5 2H7.08504Z" fill="#202020"/>
<path d="M2 4.5C2 4.776 2.224 5 2.5 5C2.776 5 3 4.776 3 4.5C3 3.673 3.673 3 4.5 3C4.776 3 5 2.776 5 2.5C5 2.224 4.776 2 4.5 2C3.121 2 2 3.121 2 4.5Z" fill="#202020"/>
<path d="M9.5 13C9.776 13 10 13.224 10 13.5C10 13.776 9.776 14 9.5 14H6.5C6.224 14 6 13.776 6 13.5C6 13.224 6.224 13 6.5 13H9.5Z" fill="#202020"/>
<path d="M13.5 11C13.776 11 14 11.224 14 11.5C14 12.879 12.879 14 11.5 14C11.224 14 11 13.776 11 13.5C11 13.224 11.224 13 11.5 13C12.327 13 13 12.327 13 11.5C13 11.224 13.224 11 13.5 11Z" fill="#202020"/>
<path d="M7 5C7.276 5 7.5 5.224 7.5 5.5C7.5 5.776 7.276 6 7 6H4.5C4.224 6 4 5.776 4 5.5C4 5.224 4.224 5 4.5 5H7Z" fill="#202020"/>
<path d="M15.854 2.85402L13.854 4.85402C13.7602 4.94791 13.6328 5.00065 13.5 5.00065C13.3673 5.00065 13.2399 4.94791 13.146 4.85402C13.0522 4.76013 12.9994 4.6328 12.9994 4.50002C12.9994 4.36725 13.0522 4.23991 13.146 4.14602L14.293 3.00002H9.70704L10.854 4.14602C10.9479 4.23991 11.0007 4.36725 11.0007 4.50002C11.0007 4.6328 10.9479 4.76013 10.854 4.85402C10.7602 4.94791 10.6328 5.00065 10.5 5.00065C10.3673 5.00065 10.2399 4.94791 10.146 4.85402L8.14604 2.85402C8.09948 2.80758 8.06253 2.7524 8.03733 2.69165C8.01212 2.63091 7.99915 2.56579 7.99915 2.50002C7.99915 2.43425 8.01212 2.36913 8.03733 2.30839C8.06253 2.24764 8.09948 2.19247 8.14604 2.14602L10.146 0.146021C10.2399 0.0521343 10.3673 -0.000610355 10.5 -0.000610352C10.6328 -0.000610348 10.7602 0.0521343 10.854 0.146021C10.9479 0.239908 11.0007 0.367245 11.0007 0.500021C11.0007 0.632797 10.9479 0.760134 10.854 0.854021L9.70704 2.00002H14.293L13.146 0.854021C13.0522 0.760134 12.9994 0.632797 12.9994 0.500021C12.9994 0.367245 13.0522 0.239908 13.146 0.146021C13.2399 0.0521343 13.3673 -0.000610348 13.5 -0.000610352C13.6328 -0.000610355 13.7602 0.0521343 13.854 0.146021L15.854 2.14602C15.9006 2.19247 15.9375 2.24764 15.9628 2.30839C15.988 2.36913 16.0009 2.43425 16.0009 2.50002C16.0009 2.56579 15.988 2.63091 15.9628 2.69165C15.9375 2.7524 15.9006 2.80758 15.854 2.85402Z" fill="#006CBF"/>
<path d="M2.5 16C1.121 16 0 14.878 0 13.5V8.5C0 7.673 0.673 7 1.5 7C2.327 7 3 7.673 3 8.5V12.5C3 12.776 2.776 13 2.5 13C2.224 13 2 12.776 2 12.5V8.5C2 8.224 1.775 8 1.5 8C1.225 8 1 8.224 1 8.5V13.5C1 14.327 1.673 15 2.5 15C3.327 15 4 14.327 4 13.5V9.5C4 9.224 4.224 9 4.5 9C4.776 9 5 9.224 5 9.5V13.5C5 14.878 3.879 16 2.5 16Z" fill="#202020"/>
</g>
<defs>
<clipPath id="clip0_7198_14123">
<rect width="16" height="16" fill="white"/>
</clipPath>
</defs>
</svg>
