<svg width="16" height="16" viewBox="0 0 16 16" fill="none" xmlns="http://www.w3.org/2000/svg">
<g clip-path="url(#clip0_7198_14150)">
<path fill-rule="evenodd" clip-rule="evenodd" d="M4.5 1H10.5C11.327 1 12 1.673 12 2.5V8.36685L10.3663 10H8V12.4141C7.69058 12.8206 7.46574 13.2872 7.34103 13.7863L7.28812 14H4.5C3.673 14 3 13.327 3 12.5V2.5C3 1.673 3.673 1 4.5 1ZM7 6H4V9H7V6ZM11 6H8V9H11V6ZM11 5V2.5C11 2.224 10.776 2 10.5 2H8V5H11ZM7 2H4.5C4.224 2 4 2.224 4 2.5V5H7V2ZM4 10V12.5C4 12.776 4.224 13 4.5 13H7V10H4Z" fill="#202020"/>
<path d="M15.5449 8.45396C15.2519 8.16162 14.8549 7.99744 14.4409 7.99744C14.027 7.99744 13.63 8.16162 13.3369 8.45396L9.04895 12.7414C8.69299 13.0975 8.44065 13.5437 8.31895 14.0323L8.01895 15.2431C7.99361 15.3452 7.99509 15.452 8.02324 15.5534C8.0514 15.6547 8.10528 15.747 8.17964 15.8213C8.25401 15.8957 8.34633 15.9496 8.44766 15.9777C8.54899 16.0059 8.65588 16.0074 8.75795 15.982L9.96895 15.6821C10.4572 15.5598 10.9031 15.3071 11.2589 14.9512L15.5479 10.6637C15.6931 10.5185 15.8081 10.3461 15.8865 10.1564C15.9649 9.96675 16.0051 9.76346 16.0049 9.5582C16.0046 9.35295 15.9638 9.14976 15.8849 8.96028C15.806 8.7708 15.6905 8.59875 15.5449 8.45396V8.45396Z" fill="#006CBF"/>
</g>
<defs>
<clipPath id="clip0_7198_14150">
<rect width="16" height="16" fill="white"/>
</clipPath>
</defs>
</svg>
