<svg width="16" height="16" viewBox="0 0 16 16" fill="none" xmlns="http://www.w3.org/2000/svg">
<path d="M7 9.40029L7 9.48172C7 10.3101 7.67157 10.9817 8.5 10.9817H10.2231L13.1496 13.8567C13.2933 13.9978 13.5076 14.039 13.6934 13.9611C13.8791 13.8832 14 13.7014 14 13.5V2.50001C14 2.29898 13.8796 2.11749 13.6944 2.03934C13.5091 1.96119 13.2951 2.00157 13.1511 2.14185L10.2244 4.99273H9.97823C9.94774 5.33611 9.8857 5.67042 9.79502 5.99273H10.4277C10.558 5.99273 10.6832 5.94184 10.7765 5.85089L13 3.68507V12.3079L10.7781 10.125C10.6846 10.0332 10.5587 9.98172 10.4277 9.98172H8.5C8.22386 9.98172 8 9.75786 8 9.48172V8.74284C7.69289 8.99647 7.35778 9.21739 7 9.40029Z" fill="#202020"/>
<path fill-rule="evenodd" clip-rule="evenodd" d="M1.99994 0.758387C2.73996 0.26392 3.60999 0 4.5 0C5.69348 0 6.83807 0.474106 7.68198 1.31802C8.5259 2.16193 9 3.30653 9 4.5C9 5.39002 8.73608 6.26004 8.24162 7.00007C7.74715 7.74009 7.04434 8.31686 6.22208 8.65746C5.39981 8.99805 4.49501 9.08717 3.6221 8.91353C2.74918 8.7399 1.94736 8.31132 1.31802 7.68198C0.688685 7.05264 0.260102 6.25082 0.0864683 5.37791C-0.0871652 4.50499 0.00194976 3.60019 0.342544 2.77792C0.683138 1.95566 1.25991 1.25285 1.99994 0.758387ZM6.713 4.937L3.743 6.587C3.66689 6.62932 3.58104 6.65103 3.49396 6.64998C3.40688 6.64893 3.32158 6.62515 3.24652 6.581C3.17145 6.53685 3.10922 6.47386 3.06598 6.39826C3.02274 6.32266 3 6.23708 3 6.15V2.85C3 2.76291 3.02274 2.67733 3.06598 2.60173C3.10922 2.52614 3.17145 2.46315 3.24652 2.41899C3.32158 2.37484 3.40688 2.35106 3.49396 2.35001C3.58104 2.34896 3.66689 2.37067 3.743 2.413L6.713 4.063C6.79091 4.10631 6.85582 4.16967 6.90101 4.2465C6.94621 4.32334 6.97004 4.41086 6.97004 4.5C6.97004 4.58914 6.94621 4.67666 6.90101 4.75349C6.85582 4.83033 6.79091 4.89368 6.713 4.937Z" fill="#11910D"/>
</svg>
