<svg width="16" height="16" viewBox="0 0 16 16" fill="none" xmlns="http://www.w3.org/2000/svg">
<path fill-rule="evenodd" clip-rule="evenodd" d="M6.19043 6.16237L5 6.91283V10.05C4.39298 10.1739 3.85359 10.5188 3.48641 11.0178C3.11922 11.5168 2.95039 12.1343 3.01266 12.7507C3.07493 13.3671 3.36386 13.9385 3.82343 14.3539C4.283 14.7694 4.88047 14.9995 5.5 14.9995C6.11954 14.9995 6.71701 14.7694 7.17658 14.3539C7.63615 13.9385 7.92508 13.3671 7.98734 12.7507C8.04961 12.1343 7.88079 11.5168 7.5136 11.0178C7.14642 10.5188 6.60703 10.1739 6 10.05V7.46598C6.37219 7.7632 6.77166 8.01992 7.1916 8.23355C7.06707 8.01142 7 7.75917 7 7.5V6.99376C6.64157 6.74377 6.36178 6.46111 6.19043 6.16237ZM7 12.5C7 12.7966 6.91203 13.0867 6.74721 13.3333C6.58239 13.58 6.34812 13.7723 6.07403 13.8858C5.79994 13.9993 5.49834 14.029 5.20737 13.9712C4.9164 13.9133 4.64912 13.7704 4.43934 13.5606C4.22957 13.3509 4.0867 13.0836 4.02883 12.7926C3.97095 12.5016 4.00065 12.2 4.11418 11.926C4.22772 11.6519 4.41997 11.4176 4.66665 11.2528C4.91332 11.088 5.20333 11 5.5 11C5.89783 11 6.27936 11.158 6.56066 11.4393C6.84197 11.7206 7 12.1022 7 12.5Z" fill="#202020"/>
<path fill-rule="evenodd" clip-rule="evenodd" d="M9.92281 7.975C9.84981 8.19363 9.72671 8.39461 9.56066 8.56066C9.4252 8.69613 9.26649 8.803 9.09391 8.87741C9.40775 8.9352 9.72648 8.97165 10.048 8.98598C10.1401 9.4506 10.3623 9.8795 10.6887 10.2227C11.0151 10.566 11.4322 10.8094 11.8917 10.9248C12.3511 11.0401 12.8338 11.0225 13.2836 10.8741C13.7334 10.7257 14.1318 10.4526 14.4324 10.0865C14.733 9.72047 14.9234 9.27655 14.9815 8.80647C15.0395 8.33639 14.9629 7.85948 14.7604 7.43128C14.5579 7.00308 14.2379 6.64122 13.8378 6.38782C13.4376 6.13442 12.9737 5.99992 12.5 5.99998C11.9265 6.00006 11.3704 6.19736 10.925 6.55877C10.4797 6.92018 10.1722 7.42373 10.054 7.98498C10.0102 7.98207 9.96643 7.97874 9.92281 7.975ZM12.5 9.99998C12.2033 9.99998 11.9133 9.91201 11.6666 9.74718C11.42 9.58236 11.2277 9.34809 11.1142 9.074C11.0007 8.79991 10.9709 8.49831 11.0288 8.20734C11.0867 7.91637 11.2296 7.6491 11.4393 7.43932C11.6491 7.22954 11.9164 7.08668 12.2074 7.0288C12.4983 6.97092 12.7999 7.00063 13.074 7.11416C13.3481 7.22769 13.5824 7.41995 13.7472 7.66662C13.912 7.9133 14 8.20331 14 8.49998C14 8.8978 13.842 9.27933 13.5607 9.56064C13.2794 9.84194 12.8978 9.99998 12.5 9.99998Z" fill="#202020"/>
<path d="M6.67611 4.67399L2.93511 7.03199C2.8335 7.08767 2.71857 7.11443 2.60281 7.10938C2.48705 7.10433 2.37489 7.06765 2.27851 7.00333C2.18214 6.93901 2.10523 6.84951 2.05615 6.74455C2.00706 6.63959 1.98768 6.52319 2.00011 6.40799V1.69299C1.98748 1.57771 2.00671 1.46117 2.05571 1.35606C2.1047 1.25095 2.18159 1.16129 2.27801 1.09684C2.37442 1.0324 2.48667 0.995627 2.60252 0.99054C2.71838 0.985452 2.83342 1.01224 2.93511 1.06799L6.67611 3.42599C6.77618 3.4964 6.85785 3.58986 6.91422 3.69846C6.9706 3.80706 7.00003 3.92763 7.00003 4.04999C7.00003 4.17235 6.9706 4.29292 6.91422 4.40152C6.85785 4.51012 6.77618 4.60357 6.67611 4.67399V4.67399Z" fill="#006CBF"/>
<path d="M0.5 8C0.367392 8 0.240215 7.94732 0.146447 7.85355C0.0526784 7.75979 0 7.63261 0 7.5V0.5C0 0.367392 0.0526784 0.240215 0.146447 0.146447C0.240215 0.0526784 0.367392 0 0.5 0C0.632608 0 0.759785 0.0526784 0.853553 0.146447C0.947322 0.240215 1 0.367392 1 0.5V7.5C1 7.63261 0.947322 7.75979 0.853553 7.85355C0.759785 7.94732 0.632608 8 0.5 8Z" fill="#202020"/>
<path d="M8.5 8C8.36739 8 8.24021 7.94732 8.14645 7.85355C8.05268 7.75979 8 7.63261 8 7.5V0.5C8 0.367392 8.05268 0.240215 8.14645 0.146447C8.24021 0.0526784 8.36739 0 8.5 0C8.63261 0 8.75979 0.0526784 8.85355 0.146447C8.94732 0.240215 9 0.367392 9 0.5V7.5C9 7.63261 8.94732 7.75979 8.85355 7.85355C8.75979 7.94732 8.63261 8 8.5 8Z" fill="#202020"/>
</svg>
