<svg width="16" height="16" viewBox="0 0 16 16" fill="none" xmlns="http://www.w3.org/2000/svg">
<path d="M15.5 11H15V10.5C15 9.673 14.327 9 13.5 9H12.5C11.673 9 11 9.673 11 10.5V11H10V10.5C10 9.673 9.327 9 8.5 9H7.5C6.673 9 6 9.673 6 10.5V11H5V10.5C5 9.673 4.327 9 3.5 9H2.5C1.673 9 1 9.673 1 10.5V11H0.5C0.224 11 0 11.224 0 11.5C0 11.776 0.224 12 0.5 12H1V12.5C1 13.327 1.673 14 2.5 14H3.5C4.327 14 5 13.327 5 12.5V12H6V12.5C6 13.327 6.673 14 7.5 14H8.5C9.327 14 10 13.327 10 12.5V12H11V12.5C11 13.327 11.673 14 12.5 14H13.5C14.327 14 15 13.327 15 12.5V12H15.5C15.776 12 16 11.776 16 11.5C16 11.224 15.776 11 15.5 11ZM4 12.5C4 12.776 3.776 13 3.5 13H2.5C2.224 13 2 12.776 2 12.5V10.5C2 10.224 2.224 10 2.5 10H3.5C3.776 10 4 10.224 4 10.5V12.5ZM9 12.5C9 12.776 8.776 13 8.5 13H7.5C7.224 13 7 12.776 7 12.5V10.5C7 10.224 7.224 10 7.5 10H8.5C8.776 10 9 10.224 9 10.5V12.5ZM14 12.5C14 12.776 13.776 13 13.5 13H12.5C12.224 13 12 12.776 12 12.5V10.5C12 10.224 12.224 10 12.5 10H13.5C13.776 10 14 10.224 14 10.5V12.5Z" fill="#202020"/>
<path d="M9.85396 4.146C9.65896 3.951 9.34196 3.951 9.14696 4.146L8.00096 5.292V1.5C8.00096 1.224 7.77696 1 7.50096 1C7.22496 1 7.00096 1.224 7.00096 1.5V5.293L5.85496 4.147C5.65996 3.952 5.34296 3.952 5.14796 4.147C4.95296 4.342 4.95296 4.659 5.14796 4.854L7.14796 6.854C7.24596 6.952 7.37396 7 7.50196 7C7.62996 7 7.75796 6.951 7.85596 6.854L9.85596 4.854C10.051 4.659 10.051 4.342 9.85596 4.147L9.85396 4.146Z" fill="#006CBF"/>
</svg>
