<svg width="16" height="16" viewBox="0 0 16 16" fill="none" xmlns="http://www.w3.org/2000/svg">
<path d="M1.5 11C1.224 11 1 10.776 1 10.5V4.5C1 4.224 1.224 4 1.5 4C1.776 4 2 4.224 2 4.5V10.5C2 10.776 1.776 11 1.5 11ZM14 10.5V4.5C14 4.224 13.776 4 13.5 4C13.224 4 13 4.224 13 4.5V10.5C13 10.776 13.224 11 13.5 11C13.776 11 14 10.776 14 10.5Z" fill="#202020"/>
<path d="M8.707 7L9.975 5.732C10.17 5.537 10.17 5.22 9.975 5.025C9.78 4.83 9.463 4.83 9.268 5.025L8 6.293V4.5C8 4.224 7.776 4 7.5 4C7.224 4 7 4.224 7 4.5V6.293L5.732 5.025C5.537 4.83 5.22 4.83 5.025 5.025C4.83 5.22 4.83 5.537 5.025 5.732L6.293 7H4.5C4.224 7 4 7.224 4 7.5C4 7.776 4.224 8 4.5 8H6.293L5.025 9.268C4.83 9.463 4.83 9.78 5.025 9.975C5.123 10.073 5.251 10.121 5.379 10.121C5.507 10.121 5.635 10.072 5.733 9.975L7.001 8.707V10.5C7.001 10.776 7.225 11 7.501 11C7.777 11 8.001 10.776 8.001 10.5V8.707L9.269 9.975C9.367 10.073 9.495 10.121 9.623 10.121C9.751 10.121 9.879 10.072 9.977 9.975C10.172 9.78 10.172 9.463 9.977 9.268L8.709 8H10.502C10.778 8 11.002 7.776 11.002 7.5C11.002 7.224 10.778 7 10.502 7H8.707Z" fill="#006CBF"/>
</svg>
