<svg width="16" height="16" viewBox="0 0 16 16" fill="none" xmlns="http://www.w3.org/2000/svg">
<path d="M12.25 1H5.75C4.784 1 4 1.784 4 2.75V8.19549L4.712 7.88996C4.80563 7.85018 4.90191 7.81764 5 7.79251V2.75C5 2.336 5.336 2 5.75 2H12.25C12.664 2 13 2.336 13 2.75V12.25C13 12.664 12.664 13 12.25 13H9.99991C9.99649 13.3525 9.89995 13.6974 9.72071 14H12.25C13.216 14 14 13.216 14 12.25V2.75C14 1.784 13.216 1 12.25 1Z" fill="#202020"/>
<path d="M10 11H11.5C11.776 11 12 10.776 12 10.5C12 10.224 11.776 10 11.5 10H9.83295C9.94261 10.2512 9.99997 10.5234 10 10.8V11Z" fill="#202020"/>
<path d="M6.54462 8H11.5C11.776 8 12 7.776 12 7.5C12 7.224 11.776 7 11.5 7H6.5C6.224 7 6 7.224 6 7.5C6 7.62555 6.04635 7.74034 6.12286 7.82818C6.17869 7.84632 6.23379 7.86693 6.288 7.88996L6.54462 8Z" fill="#202020"/>
<path d="M11.5 4H6.5C6.224 4 6 4.224 6 4.5C6 4.776 6.224 5 6.5 5H11.5C11.776 5 12 4.776 12 4.5C12 4.224 11.776 4 11.5 4Z" fill="#202020"/>
<path d="M8.394 9.88004L5.894 8.80904C5.7695 8.75567 5.63546 8.72815 5.5 8.72815C5.36454 8.72815 5.2305 8.75567 5.106 8.80904L0.606 10.74C0.426157 10.8171 0.272882 10.9453 0.165165 11.1086C0.0574481 11.272 2.16103e-05 11.4634 0 11.659V13.841C2.16103e-05 14.0367 0.0574481 14.2281 0.165165 14.3914C0.272882 14.5548 0.426157 14.6829 0.606 14.76L3.106 15.831C3.2305 15.8844 3.36454 15.9119 3.5 15.9119C3.63546 15.9119 3.7695 15.8844 3.894 15.831L8.394 13.9C8.57384 13.8229 8.72712 13.6948 8.83484 13.5314C8.94255 13.3681 8.99998 13.1767 9 12.981V10.8C9.00017 10.6042 8.94284 10.4126 8.83511 10.2491C8.72738 10.0855 8.574 9.9572 8.394 9.88004V9.88004ZM7.694 11.246L4 12.83V14.5C4 14.6326 3.94732 14.7598 3.85355 14.8536C3.75979 14.9474 3.63261 15 3.5 15C3.36739 15 3.24021 14.9474 3.14645 14.8536C3.05268 14.7598 3 14.6326 3 14.5V12.83L1.3 12.1C1.23959 12.0742 1.18487 12.0367 1.13896 11.9896C1.09305 11.9426 1.05685 11.887 1.03243 11.826C0.983109 11.7028 0.984752 11.565 1.037 11.443C1.08925 11.321 1.18782 11.2248 1.31103 11.1755C1.43424 11.1261 1.572 11.1278 1.694 11.18L3.494 11.953L7.294 10.323C7.35441 10.2972 7.41932 10.2835 7.48503 10.2827C7.55074 10.2819 7.61596 10.294 7.67697 10.3185C7.73798 10.3429 7.79358 10.3791 7.8406 10.425C7.88761 10.4709 7.92513 10.5256 7.951 10.586C7.97687 10.6464 7.99059 10.7114 7.99137 10.7771C7.99216 10.8428 7.97999 10.908 7.95557 10.969C7.93115 11.03 7.89495 11.0856 7.84904 11.1326C7.80313 11.1797 7.74841 11.2172 7.688 11.243L7.694 11.246Z" fill="#006CBF"/>
</svg>
