<svg width="16" height="16" viewBox="0 0 16 16" fill="none" xmlns="http://www.w3.org/2000/svg">
<path fill-rule="evenodd" clip-rule="evenodd" d="M3 8.97255V11.5C3 12.8807 4.11929 14 5.5 14H12.5C13.8807 14 15 12.8807 15 11.5V4.5C15 3.11929 13.8807 2 12.5 2H10V3H11V5H10V6H11V10L7 10V8.99252L6 8.98752V10H4V8.97754L3 8.97255ZM11 13H7V11L11 11V13ZM4 11H6V13H5.5C4.67157 13 4 12.3284 4 11.5V11ZM12 6H14V10H12V6ZM12 11H14V11.5C14 12.3284 13.3284 13 12.5 13H12V11ZM14 4.5V5H12V3H12.5C13.3284 3 14 3.67157 14 4.5Z" fill="#202020"/>
<path d="M6.67611 4.67399L2.93511 7.03199C2.8335 7.08767 2.71857 7.11443 2.60281 7.10938C2.48705 7.10433 2.37489 7.06765 2.27851 7.00333C2.18214 6.93901 2.10523 6.84951 2.05615 6.74455C2.00706 6.63959 1.98768 6.52319 2.00011 6.40799V1.69299C1.98748 1.57771 2.00671 1.46117 2.05571 1.35606C2.1047 1.25095 2.18159 1.16129 2.27801 1.09684C2.37442 1.0324 2.48667 0.995627 2.60252 0.99054C2.71838 0.985452 2.83342 1.01224 2.93511 1.06799L6.67611 3.42599C6.77618 3.4964 6.85785 3.58986 6.91422 3.69846C6.9706 3.80706 7.00003 3.92763 7.00003 4.04999C7.00003 4.17235 6.9706 4.29292 6.91422 4.40152C6.85785 4.51012 6.77618 4.60357 6.67611 4.67399V4.67399Z" fill="#006CBF"/>
<path d="M0.5 8C0.367392 8 0.240215 7.94732 0.146447 7.85355C0.0526784 7.75979 0 7.63261 0 7.5V0.5C0 0.367392 0.0526784 0.240215 0.146447 0.146447C0.240215 0.0526784 0.367392 0 0.5 0C0.632608 0 0.759785 0.0526784 0.853553 0.146447C0.947322 0.240215 1 0.367392 1 0.5V7.5C1 7.63261 0.947322 7.75979 0.853553 7.85355C0.759785 7.94732 0.632608 8 0.5 8Z" fill="#202020"/>
<path d="M8.5 8C8.36739 8 8.24021 7.94732 8.14645 7.85355C8.05268 7.75979 8 7.63261 8 7.5V0.5C8 0.367392 8.05268 0.240215 8.14645 0.146447C8.24021 0.0526784 8.36739 0 8.5 0C8.63261 0 8.75979 0.0526784 8.85355 0.146447C8.94732 0.240215 9 0.367392 9 0.5V7.5C9 7.63261 8.94732 7.75979 8.85355 7.85355C8.75979 7.94732 8.63261 8 8.5 8Z" fill="#202020"/>
</svg>
