<svg width="16" height="16" viewBox="0 0 16 16" fill="none" xmlns="http://www.w3.org/2000/svg">
<g clip-path="url(#clip0_7198_14269)">
<path d="M4.50081 1.49194e-08C4.77681 1.82081e-08 5.00081 0.224 5.00081 0.5C5.00081 0.776 4.77681 1 4.50081 1H3.25081C3.18481 1 3.12081 1.026 3.07381 1.073C3.02681 1.12 3.00081 1.183 3.00081 1.25V3.293L3.64681 2.647C3.84181 2.452 4.15881 2.452 4.35381 2.647C4.54881 2.842 4.54881 3.159 4.35381 3.354L2.85381 4.854C2.65881 5.049 2.34181 5.049 2.14681 4.854L0.646814 3.354C0.451815 3.159 0.451815 2.842 0.646814 2.647C0.841814 2.452 1.15881 2.452 1.35381 2.647L1.99981 3.293V1.25C1.99981 0.918 2.13181 0.601 2.36581 0.366C2.59981 0.132 2.91781 -3.95448e-09 3.24981 0L4.50081 1.49194e-08Z" fill="#006CBF"/>
<path d="M14.9998 8.99975C14.8998 9.09975 14.7698 9.14975 14.6498 9.14975C14.5198 9.14975 14.3898 9.09975 14.2898 8.99975L11.4898 6.19975C11.2198 5.92975 10.7598 5.92975 10.4898 6.19975L10.2898 6.39975C10.0898 6.12975 9.84984 5.88975 9.57984 5.69975L9.78984 5.48975C10.4298 4.84975 11.5598 4.84975 12.1998 5.48975L14.9998 8.28975C15.1898 8.48975 15.1898 8.80975 14.9998 8.99975Z" fill="#006CBF"/>
<path d="M8.65471 15.1382C8.52671 15.1382 8.39871 15.0892 8.30071 14.9922L5.49971 12.1912C5.23171 11.9232 4.76771 11.9232 4.49971 12.1912L1.69871 14.9922C1.50371 15.1872 1.18671 15.1872 0.991714 14.9922C0.796714 14.7972 0.796714 14.4802 0.991714 14.2852L3.79271 11.4842C4.43771 10.8392 5.56271 10.8392 6.20671 11.4842L9.00772 14.2852C9.20271 14.4802 9.20271 14.7972 9.00772 14.9922C8.90972 15.0902 8.78271 15.1382 8.65471 15.1382Z" fill="#006CBF"/>
<path d="M14 3C14 3.552 13.552 4 13 4C12.448 4 12 3.552 12 3C12 2.448 12.448 2 13 2C13.552 2 14 2.448 14 3Z" fill="#B27C00"/>
<path d="M8 9C8 9.552 7.552 10 7 10C6.448 10 6 9.552 6 9C6 8.448 6.448 8 7 8C7.552 8 8 8.448 8 9Z" fill="#B27C00"/>
<path d="M13.5 0H8.5C7.12 0 6 1.12 6 2.5V5H7V2.5C7 1.67 7.67 1 8.5 1H13.5C14.33 1 15 1.67 15 2.5V7.5C15 7.73 14.95 7.95 14.85 8.14C14.71 8.45 14.45 8.71 14.14 8.85C13.95 8.95 13.73 9 13.5 9H11V10H13.5C14.88 10 16 8.88 16 7.5V2.5C16 1.12 14.88 0 13.5 0Z" fill="#202020"/>
<path d="M2.5 15C1.673 15 1 14.327 1 13.5C1 13.224 0.776 13 0.5 13C0.224 13 0 13.224 0 13.5C0 14.878 1.122 16 2.5 16C2.776 16 3 15.776 3 15.5C3 15.224 2.776 15 2.5 15Z" fill="#202020"/>
<path d="M1 11.5C1 11.776 0.776 12 0.5 12C0.224 12 0 11.776 0 11.5V10.5C0 10.224 0.224 10 0.5 10C0.776 10 1 10.224 1 10.5V11.5Z" fill="#202020"/>
<path d="M2.5 6C1.122 6 0 7.122 0 8.5C0 8.776 0.224 9 0.5 9C0.776 9 1 8.776 1 8.5C1 7.673 1.673 7 2.5 7C2.776 7 3 6.776 3 6.5C3 6.224 2.776 6 2.5 6Z" fill="#202020"/>
<path d="M4.5 6H5.5C5.776 6 6 6.224 6 6.5C6 6.776 5.776 7 5.5 7H4.5C4.224 7 4 6.776 4 6.5C4 6.224 4.224 6 4.5 6Z" fill="#202020"/>
<path d="M7.5 7C8.327 7 9 7.673 9 8.5C9 8.776 9.224 9 9.5 9C9.776 9 10 8.776 10 8.5C10 7.122 8.878 6 7.5 6C7.224 6 7 6.224 7 6.5C7 6.776 7.224 7 7.5 7Z" fill="#202020"/>
<path d="M9 10.5C9 10.224 9.224 10 9.5 10C9.776 10 10 10.224 10 10.5V11.5C10 11.776 9.776 12 9.5 12C9.224 12 9 11.776 9 11.5V10.5Z" fill="#202020"/>
<path d="M9.5 13C9.224 13 9 13.224 9 13.5C9 14.327 8.327 15 7.5 15C7.224 15 7 15.224 7 15.5C7 15.776 7.224 16 7.5 16C8.878 16 10 14.878 10 13.5C10 13.224 9.776 13 9.5 13Z" fill="#202020"/>
<path d="M4.5 15H5.5C5.776 15 6 15.224 6 15.5C6 15.776 5.776 16 5.5 16H4.5C4.224 16 4 15.776 4 15.5C4 15.224 4.224 15 4.5 15Z" fill="#202020"/>
</g>
<defs>
<clipPath id="clip0_7198_14269">
<rect width="16" height="16" fill="white"/>
</clipPath>
</defs>
</svg>
