<svg width="16" height="16" viewBox="0 0 16 16" fill="none" xmlns="http://www.w3.org/2000/svg">
<path d="M10.5 1H5.5C4.30693 1.00132 3.16311 1.47585 2.31948 2.31948C1.47585 3.16311 1.00132 4.30693 1 5.5V10.5C1.00132 11.6931 1.47585 12.8369 2.31948 13.6805C3.16311 14.5241 4.30693 14.9987 5.5 15H10.5C11.6931 14.9987 12.8369 14.5241 13.6805 13.6805C14.5241 12.8369 14.9987 11.6931 15 10.5V5.5C14.9987 4.30693 14.5241 3.16311 13.6805 2.31948C12.8369 1.47585 11.6931 1.00132 10.5 1ZM14 10.5C14 11.4283 13.6313 12.3185 12.9749 12.9749C12.3185 13.6313 11.4283 14 10.5 14H5.5C4.57174 14 3.6815 13.6313 3.02513 12.9749C2.36875 12.3185 2 11.4283 2 10.5V5.5C2 4.57174 2.36875 3.6815 3.02513 3.02513C3.6815 2.36875 4.57174 2 5.5 2H10.5C11.4283 2 12.3185 2.36875 12.9749 3.02513C13.6313 3.6815 14 4.57174 14 5.5V10.5Z" fill="#3487C7"/>
<path d="M11.459 6.5462C11.0932 6.19568 10.6061 6 10.0995 6C9.59284 6 9.10578 6.19568 8.73997 6.5462L7.99997 7.2862L7.25997 6.5462C6.89417 6.19568 6.40711 6 5.90047 6C5.39384 6 4.90678 6.19568 4.54097 6.5462C4.3566 6.72342 4.20942 6.93563 4.10806 7.17042C4.0067 7.40521 3.95319 7.65786 3.95066 7.91358C3.94812 8.16931 3.99663 8.42297 4.09332 8.65971C4.19002 8.89646 4.33296 9.11155 4.5138 9.29238C4.69463 9.47321 4.90971 9.61616 5.14646 9.71286C5.38321 9.80955 5.63687 9.85805 5.89259 9.85552C6.14831 9.85299 6.40096 9.79948 6.63575 9.69812C6.87054 9.59675 7.08276 9.44958 7.25997 9.2652L7.99997 8.5252L8.73997 9.2652C8.91719 9.44958 9.12941 9.59675 9.36419 9.69812C9.59898 9.79948 9.85163 9.85299 10.1074 9.85552C10.3631 9.85805 10.6167 9.80955 10.8535 9.71286C11.0902 9.61616 11.3053 9.47321 11.4862 9.29238C11.667 9.11155 11.8099 8.89646 11.9066 8.65971C12.0033 8.42297 12.0518 8.16931 12.0493 7.91358C12.0468 7.65786 11.9932 7.40521 11.8919 7.17042C11.7905 6.93563 11.6433 6.72342 11.459 6.5462ZM7.37597 7.9062L6.63797 8.6432C6.43906 8.83243 6.17502 8.93797 5.90047 8.93797C5.62593 8.93797 5.36189 8.83243 5.16297 8.6432C4.96708 8.44675 4.85707 8.18064 4.85707 7.9032C4.85707 7.62577 4.96708 7.35966 5.16297 7.1632C5.2601 7.06697 5.37532 6.99092 5.50198 6.93943C5.62865 6.88794 5.76425 6.86203 5.90097 6.8632C6.03829 6.86244 6.17435 6.88942 6.301 6.94252C6.42764 6.99562 6.54225 7.07374 6.63797 7.1722L7.37597 7.9062ZM11.137 7.9062C11.1381 8.04277 11.1122 8.17822 11.0607 8.30472C11.0092 8.43121 10.9332 8.54626 10.837 8.6432C10.6382 8.83237 10.3744 8.93787 10.1 8.93787C9.8256 8.93787 9.56172 8.83237 9.36297 8.6432L8.62397 7.9062L9.36297 7.1682C9.56195 6.97949 9.82574 6.8743 10.1 6.8743C10.3742 6.8743 10.638 6.97949 10.837 7.1682C10.9332 7.26533 11.0093 7.38055 11.0607 7.50721C11.1122 7.63388 11.1381 7.76948 11.137 7.9062Z" fill="#3487C7"/>
</svg>
