<svg width="16" height="16" viewBox="0 0 16 16" fill="none" xmlns="http://www.w3.org/2000/svg">
<path d="M11 1H5C3.93913 1 2.92172 1.42143 2.17157 2.17157C1.42143 2.92172 1 3.93913 1 5V11C1 12.0609 1.42143 13.0783 2.17157 13.8284C2.92172 14.5786 3.93913 15 5 15H11C12.0609 15 13.0783 14.5786 13.8284 13.8284C14.5786 13.0783 15 12.0609 15 11V5C15 3.93913 14.5786 2.92172 13.8284 2.17157C13.0783 1.42143 12.0609 1 11 1ZM11.442 8.628C10.884 9.01675 10.2181 9.22055 9.53815 9.21069C8.85818 9.20082 8.19846 8.97777 7.652 8.573C7.27344 8.29109 6.81498 8.13698 6.343 8.133C5.94649 8.13226 5.55909 8.25186 5.232 8.476C4.91867 8.68902 4.48924 8.58824 4.30111 8.25936C4.13164 7.96313 4.21766 7.58482 4.49977 7.39277L4.567 7.347C5.09706 6.98386 5.72448 6.78936 6.367 6.789C7.08203 6.79225 7.77738 7.02345 8.352 7.449C8.70067 7.70723 9.12142 7.84984 9.55524 7.85683C9.98906 7.86382 10.4142 7.73485 10.771 7.488C11.0775 7.25353 11.5203 7.34292 11.7118 7.67791L11.7218 7.69529C11.8819 7.97546 11.8142 8.33054 11.5621 8.53203L11.442 8.628Z" fill="#11910D"/>
</svg>
