<svg width="16" height="16" viewBox="0 0 16 16" fill="none" xmlns="http://www.w3.org/2000/svg">
<path d="M11.1686 8.40654C11.3594 8.25367 11.4104 7.98465 11.2888 7.77258L11.2812 7.75938C11.136 7.50606 10.8009 7.4386 10.569 7.61599C10.2282 7.85203 9.82205 7.9754 9.40756 7.96876C8.99306 7.96212 8.59105 7.82582 8.258 7.57899C7.78307 7.21973 7.20771 7.01792 6.61243 7.00178C6.01714 6.98564 5.4317 7.15599 4.938 7.48899L4.87623 7.53129C4.66375 7.67683 4.59971 7.96293 4.7278 8.18637C4.87008 8.43456 5.19498 8.51064 5.431 8.34899C5.77741 8.12092 6.18651 8.00698 6.60094 8.02312C7.01538 8.03926 7.41437 8.18467 7.742 8.43899C8.22053 8.79346 8.79805 8.98918 9.39349 8.99868C9.98893 9.00819 10.5724 8.831 11.062 8.49199L11.1686 8.40654Z" fill="#11910D"/>
<path fill-rule="evenodd" clip-rule="evenodd" d="M5.5 1H10.5C11.6931 1.00132 12.8369 1.47585 13.6805 2.31948C14.5241 3.16311 14.9987 4.30693 15 5.5V10.5C14.9987 11.6931 14.5241 12.8369 13.6805 13.6805C12.8369 14.5241 11.6931 14.9987 10.5 15H5.5C4.30693 14.9987 3.16311 14.5241 2.31948 13.6805C1.47585 12.8369 1.00132 11.6931 1 10.5V5.5C1.00132 4.30693 1.47585 3.16311 2.31948 2.31948C3.16311 1.47585 4.30693 1.00132 5.5 1ZM12.9749 12.9749C13.6313 12.3185 14 11.4283 14 10.5V5.5C14 4.57174 13.6313 3.6815 12.9749 3.02513C12.3185 2.36875 11.4283 2 10.5 2H5.5C4.57174 2 3.6815 2.36875 3.02513 3.02513C2.36875 3.6815 2 4.57174 2 5.5V10.5C2 11.4283 2.36875 12.3185 3.02513 12.9749C3.6815 13.6313 4.57174 14 5.5 14H10.5C11.4283 14 12.3185 13.6313 12.9749 12.9749Z" fill="#11910D"/>
</svg>
