<svg width="16" height="16" viewBox="0 0 16 16" fill="none" xmlns="http://www.w3.org/2000/svg">
<path d="M11 1H5C3.93913 1 2.92172 1.42143 2.17157 2.17157C1.42143 2.92172 1 3.93913 1 5V11C1 12.0609 1.42143 13.0783 2.17157 13.8284C2.92172 14.5786 3.93913 15 5 15H11C12.0609 15 13.0783 14.5786 13.8284 13.8284C14.5786 13.0783 15 12.0609 15 11V5C15 3.93913 14.5786 2.92172 13.8284 2.17157C13.0783 1.42143 12.0609 1 11 1ZM7.155 4.85C7.3511 4.65322 7.60939 4.53058 7.88582 4.50299C8.16225 4.4754 8.43969 4.54457 8.67081 4.69871C8.90193 4.85285 9.07241 5.0824 9.15317 5.34821C9.23393 5.61401 9.21997 5.89961 9.11366 6.15626C9.00735 6.41292 8.81529 6.62475 8.57023 6.7556C8.32517 6.88645 8.04231 6.92823 7.76989 6.8738C7.49747 6.81937 7.25237 6.67211 7.07641 6.45714C6.90045 6.24217 6.80452 5.9728 6.805 5.695C6.80445 5.53799 6.83511 5.38243 6.89519 5.23737C6.95528 5.09231 7.04359 4.96064 7.155 4.85ZM5.7 9.2C5.4222 9.20048 5.15283 9.10455 4.93786 8.92859C4.72289 8.75263 4.57563 8.50753 4.5212 8.23511C4.46677 7.96269 4.50855 7.67983 4.6394 7.43477C4.77025 7.18971 4.98208 6.99765 5.23874 6.89134C5.49539 6.78503 5.78099 6.77107 6.04679 6.85183C6.3126 6.93259 6.54215 7.10307 6.69629 7.33419C6.85043 7.56531 6.9196 7.84275 6.89201 8.11918C6.86442 8.39561 6.74178 8.6539 6.545 8.85C6.43436 8.96141 6.30269 9.04972 6.15763 9.10981C6.01257 9.16989 5.85701 9.20055 5.7 9.2ZM8.85 11.155C8.68258 11.3238 8.46878 11.4391 8.23573 11.4862C8.00268 11.5333 7.76089 11.5101 7.54104 11.4196C7.32119 11.3291 7.13319 11.1753 7.00089 10.9777C6.86859 10.7802 6.79796 10.5478 6.79796 10.31C6.79796 10.0722 6.86859 9.83984 7.00089 9.64228C7.13319 9.44473 7.32119 9.29093 7.54104 9.20039C7.76089 9.10986 8.00268 9.08668 8.23573 9.13379C8.46878 9.1809 8.68258 9.29618 8.85 9.465C8.96109 9.57553 9.04915 9.707 9.10909 9.85179C9.16903 9.99659 9.19965 10.1518 9.19918 10.3085C9.19872 10.4653 9.16718 10.6203 9.10638 10.7648C9.04558 10.9092 8.95674 11.0401 8.845 11.15L8.85 11.155ZM11.15 8.855C10.9826 9.02382 10.7688 9.1391 10.5357 9.18621C10.3027 9.23332 10.0609 9.21014 9.84104 9.11961C9.62119 9.02907 9.43319 8.87527 9.30089 8.67772C9.16859 8.48016 9.09796 8.24776 9.09796 8.01C9.09796 7.77224 9.16859 7.53984 9.30089 7.34228C9.43319 7.14473 9.62119 6.99093 9.84104 6.90039C10.0609 6.80986 10.3027 6.78668 10.5357 6.83379C10.7688 6.8809 10.9826 6.99618 11.15 7.165C11.2607 7.27511 11.3485 7.40601 11.4084 7.55016C11.4683 7.69431 11.4992 7.84889 11.4992 8.005C11.4992 8.16111 11.4683 8.31568 11.4084 8.45984C11.3485 8.60399 11.2607 8.73489 11.15 8.845V8.855Z" fill="#5C2E91"/>
</svg>
