<svg width="16" height="16" viewBox="0 0 16 16" fill="none" xmlns="http://www.w3.org/2000/svg">
<path fill-rule="evenodd" clip-rule="evenodd" d="M5 1H11C12.0609 1 13.0783 1.42143 13.8284 2.17157C14.5786 2.92172 15 3.93913 15 5V11C15 12.0609 14.5786 13.0783 13.8284 13.8284C13.0783 14.5786 12.0609 15 11 15H5C3.93913 15 2.92172 14.5786 2.17157 13.8284C1.42143 13.0783 1 12.0609 1 11V5C1 3.93913 1.42143 2.92172 2.17157 2.17157C2.92172 1.42143 3.93913 1 5 1ZM9.207 7.5H11.002C11.278 7.5 11.502 7.724 11.502 8C11.502 8.276 11.278 8.5 11.002 8.5H9.209L10.477 9.768C10.672 9.963 10.672 10.28 10.477 10.475C10.379 10.572 10.251 10.621 10.123 10.621C9.995 10.621 9.867 10.573 9.769 10.475L8.501 9.207V11C8.501 11.276 8.277 11.5 8.001 11.5C7.725 11.5 7.501 11.276 7.501 11V9.207L6.233 10.475C6.135 10.572 6.007 10.621 5.879 10.621C5.751 10.621 5.623 10.573 5.525 10.475C5.33 10.28 5.33 9.963 5.525 9.768L6.793 8.5H5C4.724 8.5 4.5 8.276 4.5 8C4.5 7.724 4.724 7.5 5 7.5H6.793L5.525 6.232C5.33 6.037 5.33 5.72 5.525 5.525C5.72 5.33 6.037 5.33 6.232 5.525L7.5 6.793V5C7.5 4.724 7.724 4.5 8 4.5C8.276 4.5 8.5 4.724 8.5 5V6.793L9.768 5.525C9.963 5.33 10.28 5.33 10.475 5.525C10.67 5.72 10.67 6.037 10.475 6.232L9.207 7.5Z" fill="#00467E"/>
</svg>
