<svg width="16" height="16" viewBox="0 0 16 16" fill="none" xmlns="http://www.w3.org/2000/svg">
<path d="M11 1H5C3.93913 1 2.92172 1.42143 2.17157 2.17157C1.42143 2.92172 1 3.93913 1 5V11C1 12.0609 1.42143 13.0783 2.17157 13.8284C2.92172 14.5786 3.93913 15 5 15H11C12.0609 15 13.0783 14.5786 13.8284 13.8284C14.5786 13.0783 15 12.0609 15 11V5C15 3.93913 14.5786 2.92172 13.8284 2.17157C13.0783 1.42143 12.0609 1 11 1ZM10.473 8.263L8 10.757L5.482 8.218C5.24765 7.97318 5.09019 7.66505 5.02907 7.3317C4.96795 6.99835 5.00585 6.6544 5.13809 6.34236C5.27033 6.03032 5.49111 5.76387 5.77315 5.57595C6.05518 5.38804 6.3861 5.28688 6.725 5.285C7.246 5.285 7.711 5.819 8 6.185C8.289 5.818 8.754 5.285 9.275 5.285C9.61966 5.28609 9.95617 5.38994 10.2415 5.58326C10.5269 5.77658 10.7481 6.05059 10.8769 6.37028C11.0057 6.68997 11.0363 7.0408 10.9647 7.37795C10.8931 7.7151 10.7226 8.02324 10.475 8.263H10.473Z" fill="#C50F1F"/>
</svg>
