<svg width="16" height="16" viewBox="0 0 16 16" fill="none" xmlns="http://www.w3.org/2000/svg">
<path d="M11 1H5C3.93913 1 2.92172 1.42143 2.17157 2.17157C1.42143 2.92172 1 3.93913 1 5V11C1 12.0609 1.42143 13.0783 2.17157 13.8284C2.92172 14.5786 3.93913 15 5 15H11C12.0609 15 13.0783 14.5786 13.8284 13.8284C14.5786 13.0783 15 12.0609 15 11V5C15 3.93913 14.5786 2.92172 13.8284 2.17157C13.0783 1.42143 12.0609 1 11 1ZM10.2425 9.2275C10.5228 9.50778 10.5228 9.96222 10.2425 10.2425C9.96222 10.5228 9.50778 10.5228 9.2275 10.2425L8 9.015L6.7725 10.2425C6.49222 10.5228 6.03778 10.5228 5.7575 10.2425C5.47722 9.96222 5.47722 9.50778 5.7575 9.2275L6.985 8L5.7575 6.7725C5.47722 6.49222 5.47722 6.03778 5.7575 5.7575C6.03778 5.47722 6.49222 5.47722 6.7725 5.7575L8 6.985L9.2275 5.7575C9.50778 5.47722 9.96222 5.47722 10.2425 5.7575C10.5228 6.03778 10.5228 6.49222 10.2425 6.7725L9.015 8L10.2425 9.2275Z" fill="#5C2E91"/>
</svg>
