<svg width="16" height="16" viewBox="0 0 16 16" fill="none" xmlns="http://www.w3.org/2000/svg">
<path d="M9.207 7.5H11.002C11.278 7.5 11.502 7.724 11.502 8C11.502 8.276 11.278 8.5 11.002 8.5H9.209L10.477 9.768C10.672 9.963 10.672 10.28 10.477 10.475C10.379 10.572 10.251 10.621 10.123 10.621C9.995 10.621 9.867 10.573 9.769 10.475L8.501 9.207V11C8.501 11.276 8.277 11.5 8.001 11.5C7.725 11.5 7.501 11.276 7.501 11V9.207L6.233 10.475C6.135 10.572 6.007 10.621 5.879 10.621C5.751 10.621 5.623 10.573 5.525 10.475C5.33 10.28 5.33 9.963 5.525 9.768L6.793 8.5H5C4.724 8.5 4.5 8.276 4.5 8C4.5 7.724 4.724 7.5 5 7.5H6.793L5.525 6.232C5.33 6.037 5.33 5.72 5.525 5.525C5.72 5.33 6.037 5.33 6.232 5.525L7.5 6.793V5C7.5 4.724 7.724 4.5 8 4.5C8.276 4.5 8.5 4.724 8.5 5V6.793L9.768 5.525C9.963 5.33 10.28 5.33 10.475 5.525C10.67 5.72 10.67 6.037 10.475 6.232L9.207 7.5Z" fill="#00467E"/>
<path fill-rule="evenodd" clip-rule="evenodd" d="M5.5 1H10.5C11.6931 1.00132 12.8369 1.47585 13.6805 2.31948C14.5241 3.16311 14.9987 4.30693 15 5.5V10.5C14.9987 11.6931 14.5241 12.8369 13.6805 13.6805C12.8369 14.5241 11.6931 14.9987 10.5 15H5.5C4.30693 14.9987 3.16311 14.5241 2.31948 13.6805C1.47585 12.8369 1.00132 11.6931 1 10.5V5.5C1.00132 4.30693 1.47585 3.16311 2.31948 2.31948C3.16311 1.47585 4.30693 1.00132 5.5 1ZM12.9749 12.9749C13.6313 12.3185 14 11.4283 14 10.5V5.5C14 4.57174 13.6313 3.6815 12.9749 3.02513C12.3185 2.36875 11.4283 2 10.5 2H5.5C4.57174 2 3.6815 2.36875 3.02513 3.02513C2.36875 3.6815 2 4.57174 2 5.5V10.5C2 11.4283 2.36875 12.3185 3.02513 12.9749C3.6815 13.6313 4.57174 14 5.5 14H10.5C11.4283 14 12.3185 13.6313 12.9749 12.9749Z" fill="#00467E"/>
</svg>
