<svg width="16" height="16" viewBox="0 0 16 16" fill="none" xmlns="http://www.w3.org/2000/svg">
<path d="M10.0835 5.9165C9.85347 5.68647 9.48053 5.68647 9.2505 5.9165L8 7.167L6.7495 5.9165C6.51947 5.68647 6.14653 5.68647 5.9165 5.9165C5.68647 6.14653 5.68647 6.51947 5.9165 6.7495L7.167 8L5.9165 9.2505C5.68647 9.48053 5.68647 9.85347 5.9165 10.0835C6.14653 10.3135 6.51947 10.3135 6.7495 10.0835L8 8.833L9.2505 10.0835C9.48053 10.3135 9.85347 10.3135 10.0835 10.0835C10.3135 9.85347 10.3135 9.48053 10.0835 9.2505L8.833 8L10.0835 6.7495C10.3135 6.51947 10.3135 6.14653 10.0835 5.9165Z" fill="#5C2E91"/>
<path fill-rule="evenodd" clip-rule="evenodd" d="M5.5 1H10.5C11.6931 1.00132 12.8369 1.47585 13.6805 2.31948C14.5241 3.16311 14.9987 4.30693 15 5.5V10.5C14.9987 11.6931 14.5241 12.8369 13.6805 13.6805C12.8369 14.5241 11.6931 14.9987 10.5 15H5.5C4.30693 14.9987 3.16311 14.5241 2.31948 13.6805C1.47585 12.8369 1.00132 11.6931 1 10.5V5.5C1.00132 4.30693 1.47585 3.16311 2.31948 2.31948C3.16311 1.47585 4.30693 1.00132 5.5 1ZM12.9749 12.9749C13.6313 12.3185 14 11.4283 14 10.5V5.5C14 4.57174 13.6313 3.6815 12.9749 3.02513C12.3185 2.36875 11.4283 2 10.5 2H5.5C4.57174 2 3.6815 2.36875 3.02513 3.02513C2.36875 3.6815 2 4.57174 2 5.5V10.5C2 11.4283 2.36875 12.3185 3.02513 12.9749C3.6815 13.6313 4.57174 14 5.5 14H10.5C11.4283 14 12.3185 13.6313 12.9749 12.9749Z" fill="#5C2E91"/>
</svg>
