<svg width="16" height="16" viewBox="0 0 16 16" fill="none" xmlns="http://www.w3.org/2000/svg">
<path d="M6.00001 10.5C5.87201 10.5 5.74401 10.451 5.64601 10.354C5.45101 10.159 5.45101 9.84199 5.64601 9.64699L7.29201 8.00099L5.64601 6.35499C5.45101 6.15999 5.45101 5.84299 5.64601 5.64799C5.84101 5.45299 6.15801 5.45299 6.35301 5.64799L8.35301 7.64799C8.54801 7.84299 8.54801 8.15999 8.35301 8.35499L6.35301 10.355C6.25501 10.453 6.12701 10.501 5.99901 10.501L6.00001 10.5Z" fill="#159195"/>
<path d="M9.00001 10.5C8.87201 10.5 8.74401 10.451 8.64601 10.354C8.45101 10.159 8.45101 9.84199 8.64601 9.64699L10.292 8.00099L8.64601 6.35499C8.45101 6.15999 8.45101 5.84299 8.64601 5.64799C8.84101 5.45299 9.15801 5.45299 9.35301 5.64799L11.353 7.64799C11.548 7.84299 11.548 8.15999 11.353 8.35499L9.35301 10.355C9.25501 10.453 9.12701 10.501 8.99901 10.501L9.00001 10.5Z" fill="#159195"/>
<path fill-rule="evenodd" clip-rule="evenodd" d="M5.5 1H10.5C11.6931 1.00132 12.8369 1.47585 13.6805 2.31948C14.5241 3.16311 14.9987 4.30693 15 5.5V10.5C14.9987 11.6931 14.5241 12.8369 13.6805 13.6805C12.8369 14.5241 11.6931 14.9987 10.5 15H5.5C4.30693 14.9987 3.16311 14.5241 2.31948 13.6805C1.47585 12.8369 1.00132 11.6931 1 10.5V5.5C1.00132 4.30693 1.47585 3.16311 2.31948 2.31948C3.16311 1.47585 4.30693 1.00132 5.5 1ZM12.9749 12.9749C13.6313 12.3185 14 11.4283 14 10.5V5.5C14 4.57174 13.6313 3.6815 12.9749 3.02513C12.3185 2.36875 11.4283 2 10.5 2H5.5C4.57174 2 3.6815 2.36875 3.02513 3.02513C2.36875 3.6815 2 4.57174 2 5.5V10.5C2 11.4283 2.36875 12.3185 3.02513 12.9749C3.6815 13.6313 4.57174 14 5.5 14H10.5C11.4283 14 12.3185 13.6313 12.9749 12.9749Z" fill="#159195"/>
</svg>
