<svg width="16" height="16" viewBox="0 0 16 16" fill="none" xmlns="http://www.w3.org/2000/svg">
<path d="M13.68 2.319C12.837 1.476 11.693 1.001 10.5 1H5.5C4.307 1.001 3.163 1.476 2.319 2.319C1.475 3.162 1.001 4.307 1 5.5V10.5C1.001 11.693 1.476 12.837 2.319 13.68C3.163 14.524 4.306 14.998 5.5 15H10.5C11.693 14.999 12.837 14.524 13.68 13.68C14.524 12.836 14.998 11.693 15 10.5V5.5C14.999 4.307 14.524 3.163 13.68 2.319ZM5.75 10.75C5.336 10.75 5 10.414 5 10C5 9.8 5.078 9.611 5.22 9.47L6.69 8L5.22 6.53C5.078 6.388 5 6.2 5 6C5 5.586 5.336 5.25 5.75 5.25C5.95 5.25 6.139 5.328 6.28 5.47L8.28 7.47C8.426 7.616 8.499 7.808 8.499 8C8.499 8.192 8.426 8.384 8.28 8.53L6.28 10.53C6.138 10.672 5.95 10.75 5.75 10.75ZM12 8C12 8.192 11.927 8.384 11.781 8.53L9.781 10.53C9.639 10.672 9.451 10.75 9.251 10.75C8.837 10.75 8.501 10.414 8.501 10C8.501 9.8 8.579 9.611 8.721 9.47L10.191 8L8.721 6.53C8.579 6.388 8.501 6.2 8.501 6C8.501 5.586 8.837 5.25 9.251 5.25C9.451 5.25 9.64 5.328 9.781 5.47L11.781 7.47C11.927 7.616 12 7.808 12 8Z" fill="#159195"/>
</svg>
