<svg width="16" height="16" viewBox="0 0 16 16" fill="none" xmlns="http://www.w3.org/2000/svg">
<path d="M11 1H5C3.93913 1 2.92172 1.42143 2.17157 2.17157C1.42143 2.92172 1 3.93913 1 5V11C1 12.0609 1.42143 13.0783 2.17157 13.8284C2.92172 14.5786 3.93913 15 5 15H11C12.0609 15 13.0783 14.5786 13.8284 13.8284C14.5786 13.0783 15 12.0609 15 11V5C15 3.93913 14.5786 2.92172 13.8284 2.17157C13.0783 1.42143 12.0609 1 11 1ZM11.442 10.628C10.884 11.0167 10.2181 11.2206 9.53815 11.2107C8.85818 11.2008 8.19846 10.9778 7.652 10.573C7.27344 10.2911 6.81498 10.137 6.343 10.133C5.94649 10.1323 5.55909 10.2519 5.232 10.476C4.91867 10.689 4.48924 10.5882 4.30111 10.2594C4.13164 9.96313 4.21766 9.58482 4.49977 9.39277L4.567 9.347C5.09706 8.98386 5.72448 8.78936 6.367 8.789C7.08203 8.79225 7.77738 9.02345 8.352 9.449C8.70067 9.70723 9.12142 9.84984 9.55524 9.85683C9.98906 9.86382 10.4142 9.73485 10.771 9.488C11.0775 9.25353 11.5203 9.34292 11.7118 9.67791L11.7218 9.69529C11.8819 9.97546 11.8142 10.3305 11.5621 10.532L11.442 10.628ZM11.442 6.628C10.884 7.01675 10.2181 7.22055 9.53815 7.21069C8.85818 7.20082 8.19846 6.97777 7.652 6.573C7.27344 6.29109 6.81498 6.13698 6.343 6.133C5.94649 6.13226 5.55909 6.25186 5.232 6.476C4.91945 6.69118 4.48795 6.58972 4.30015 6.25998C4.13148 5.96385 4.21711 5.5852 4.49882 5.39342L4.567 5.347C5.09706 4.98386 5.72448 4.78936 6.367 4.789C7.08203 4.79225 7.77738 5.02345 8.352 5.449C8.70067 5.70723 9.12142 5.84984 9.55524 5.85683C9.98906 5.86382 10.4142 5.73485 10.771 5.488C11.0775 5.25353 11.5203 5.34292 11.7118 5.67791L11.7218 5.69529C11.8819 5.97546 11.8142 6.33054 11.5621 6.53203L11.442 6.628Z" fill="#B27C00"/>
</svg>
