<svg width="16" height="16" viewBox="0 0 16 16" fill="none" xmlns="http://www.w3.org/2000/svg">
<path d="M14.5 13H1.5C1.224 13 1 12.776 1 12.5V1.5C1 1.224 1.224 1 1.5 1C1.776 1 2 1.224 2 1.5V12H14.5C14.776 12 15 12.224 15 12.5C15 12.776 14.776 13 14.5 13ZM3 14.5C3 14.224 2.776 14 2.5 14H1.5C1.224 14 1 14.224 1 14.5C1 14.776 1.224 15 1.5 15H2.5C2.776 15 3 14.776 3 14.5ZM6 14.5C6 14.224 5.776 14 5.5 14H4.5C4.224 14 4 14.224 4 14.5C4 14.776 4.224 15 4.5 15H5.5C5.776 15 6 14.776 6 14.5ZM9 14.5C9 14.224 8.776 14 8.5 14H7.5C7.224 14 7 14.224 7 14.5C7 14.776 7.224 15 7.5 15H8.5C8.776 15 9 14.776 9 14.5ZM12 14.5C12 14.224 11.776 14 11.5 14H10.5C10.224 14 10 14.224 10 14.5C10 14.776 10.224 15 10.5 15H11.5C11.776 15 12 14.776 12 14.5ZM15 14.5C15 14.224 14.776 14 14.5 14H13.5C13.224 14 13 14.224 13 14.5C13 14.776 13.224 15 13.5 15H14.5C14.776 15 15 14.776 15 14.5Z" fill="#202020"/>
</svg>
