<svg width="16" height="16" viewBox="0 0 16 16" fill="none" xmlns="http://www.w3.org/2000/svg">
<g clip-path="url(#clip0_7198_14640)">
<path d="M13.936 2.91797V13.1C13.936 14.15 11.251 15 7.936 15H7.86C4.576 14.986 1.936 14.132 1.936 13.1V2.91797C1.936 3.97497 4.62 4.82897 7.936 4.82897C11.252 4.82897 13.936 3.97497 13.936 2.91797Z" fill="#00539C"/>
<path d="M13.936 2.911C13.936 3.976 11.251 4.823 7.936 4.823C4.621 4.823 1.936 3.969 1.936 2.911C1.936 1.853 4.62 1 7.935 1C11.25 1 13.936 1.855 13.936 2.911Z" fill="#DFDFDF"/>
<path d="M12.542 2.761C12.542 3.436 10.47 3.976 7.93499 3.976C5.39999 3.976 3.33499 3.436 3.33499 2.761C3.33499 2.086 5.39999 1.547 7.93499 1.547C10.47 1.547 12.542 2.087 12.542 2.761Z" fill="#50E6FF"/>
<path d="M11.58 3.50002C10.3979 3.8509 9.16763 4.01223 7.93501 3.97802C6.70239 4.01216 5.47215 3.85083 4.29001 3.50002C5.47754 3.17795 6.70479 3.0261 7.93501 3.04902C9.16523 3.02602 10.3925 3.17787 11.58 3.50002V3.50002Z" fill="#32BEDD"/>
<path d="M5.936 8H3.936V9H5.936V12H2.936V11H4.936V10H2.936V7H5.936V8ZM12.936 12H10.936V7H11.936V11H12.936V12ZM9.936 11.293V7H6.936V12H9.229L10.583 13.352L11.289 12.646L9.936 11.293ZM8.936 11H7.936V8H8.936V11Z" fill="white"/>
</g>
<defs>
<clipPath id="clip0_7198_14640">
<rect width="16" height="16" fill="white"/>
</clipPath>
</defs>
</svg>
