<svg width="16" height="16" viewBox="0 0 16 16" fill="none" xmlns="http://www.w3.org/2000/svg">
<g clip-path="url(#clip0_7198_14557)">
<path d="M15 2.08301V7.91101C15 8.51101 13.657 9.00001 12 9.00001H11.963C11.6409 8.9979 11.3193 8.97552 11 8.93301V13.911C11 14.511 9.657 15 8 15H7.963C6.32 14.992 5 14.511 5 13.911V8.93301C4.66848 8.97703 4.33443 8.99941 4 9.00001H3.963C2.32 8.99201 1 8.51101 1 7.91101V2.08301C1 2.69201 2.343 3.18301 4 3.18301C5.657 3.18301 7 2.69301 7 2.08301V7.91101C7 8.27701 6.5 8.59901 5.734 8.79701C6.45775 9.06913 7.22699 9.19983 8 9.18201C8.77179 9.20018 9.53994 9.07051 10.263 8.80001C9.5 8.60001 9 8.27901 9 7.91101V2.08301C9 2.69201 10.343 3.18301 12 3.18301C13.657 3.18301 15 2.69201 15 2.08301Z" fill="#007ACC"/>
<path d="M7 2.09C7 2.699 5.657 3.19 4 3.19C2.343 3.19 1 2.7 1 2.09C1 1.48 2.343 1 4 1C5.657 1 7 1.489 7 2.09Z" fill="#DFDFDF"/>
<path d="M6.3 1.99994C6.3 2.38694 5.264 2.69994 4 2.69994C2.736 2.69994 1.7 2.38394 1.7 1.99994C1.7 1.61594 2.732 1.34094 4 1.34094C5.268 1.34094 6.3 1.64994 6.3 2.04094" fill="#50E6FF"/>
<path d="M5.822 2.41801C5.23605 2.61801 4.61886 2.71083 4 2.69201C3.38319 2.72178 2.76606 2.64049 2.178 2.45201C2.76748 2.26848 3.38274 2.18136 4 2.19401C4.61542 2.1705 5.23061 2.24613 5.822 2.41801V2.41801Z" fill="#32BEDD"/>
<path d="M15 2.09C15 2.699 13.657 3.19 12 3.19C10.343 3.19 9 2.7 9 2.09C9 1.48 10.343 1 12 1C13.657 1 15 1.489 15 2.09Z" fill="#DFDFDF"/>
<path d="M14.3 1.99999C14.3 2.38699 13.264 2.69999 12 2.69999C10.736 2.69999 9.7 2.38399 9.7 1.99999C9.7 1.61599 10.734 1.34399 12 1.34399C13.266 1.34399 14.3 1.65299 14.3 2.04399" fill="#50E6FF"/>
<path d="M13.822 2.41801C13.236 2.61801 12.6189 2.71083 12 2.69201C11.3832 2.72178 10.7661 2.64049 10.178 2.45201C10.7675 2.26848 11.3827 2.18136 12 2.19401C12.6154 2.1705 13.2306 2.24613 13.822 2.41801V2.41801Z" fill="#32BEDD"/>
<path d="M11 8.09C11 8.699 9.657 9.19 8 9.19C6.343 9.19 5 8.7 5 8.09C5 7.48 6.343 7 8 7C9.657 7 11 7.489 11 8.09Z" fill="#DFDFDF"/>
<path d="M10.3 7.99994C10.3 8.38694 9.264 8.69994 8 8.69994C6.736 8.69994 5.7 8.38394 5.7 7.99994C5.7 7.61594 6.732 7.34094 8 7.34094C9.268 7.34094 10.3 7.64994 10.3 8.04094" fill="#50E6FF"/>
<path d="M9.822 8.41801C9.23605 8.61801 8.61886 8.71083 8 8.69201C7.38319 8.72178 6.76606 8.64049 6.178 8.452C6.76748 8.26848 7.38274 8.18136 8 8.19401C8.61542 8.1705 9.23061 8.24613 9.822 8.41801V8.41801Z" fill="#32BEDD"/>
</g>
<defs>
<clipPath id="clip0_7198_14557">
<rect width="16" height="16" fill="white"/>
</clipPath>
</defs>
</svg>
