<svg width="16" height="16" viewBox="0 0 16 16" fill="none" xmlns="http://www.w3.org/2000/svg">
<g clip-path="url(#clip0_7198_14523)">
<path d="M10.5 0.999966C11.6788 0.985555 12.8151 1.43993 13.659 2.26318C14.5029 3.08643 14.9852 4.21114 15 5.38997C15 5.43297 15 5.47597 15 5.51897C15.0049 6.10273 14.8947 6.68174 14.6757 7.22291C14.4568 7.76408 14.1333 8.2568 13.7239 8.67293C13.3144 9.08906 12.827 9.42044 12.2895 9.64814C11.7519 9.87584 11.1748 9.99539 10.591 9.99997H6V5.48097C5.99068 4.30215 6.44991 3.16788 7.27671 2.32758C8.10351 1.48728 9.23019 1.00974 10.409 0.999966H10.5Z" fill="#50E6FF"/>
<path d="M6 11H10V15H6V11ZM1.556 15H5V11H1V14.444C1 14.5915 1.05858 14.7329 1.16285 14.8372C1.26712 14.9414 1.40854 15 1.556 15V15ZM1 10H5V6H1V10Z" fill="#007ACC"/>
<path d="M9.748 5.74702H10.748V8.00002H9.748V5.74702ZM7.5 8.00002H8.5V4.62002H7.5V8.00002ZM12 3.49402V8.00002H13V3.49402H12Z" fill="white"/>
</g>
<defs>
<clipPath id="clip0_7198_14523">
<rect width="16" height="16" fill="white"/>
</clipPath>
</defs>
</svg>
