<svg width="16" height="16" viewBox="0 0 16 16" fill="none" xmlns="http://www.w3.org/2000/svg">
<g clip-path="url(#clip0_7198_14570)">
<path d="M15 2.08301V6.05301C14.8356 6.01832 14.668 6.00056 14.5 6.00001H11.5C10.8373 6.00206 10.2022 6.26504 9.732 6.73201C9.3697 7.09471 9.12865 7.56073 9.042 8.06601C9.01855 8.01738 9.00431 7.96483 9 7.91101V2.08301C9 2.69201 10.343 3.18301 12 3.18301C13.657 3.18301 15 2.69201 15 2.08301ZM5.734 8.80001C6.5 8.60001 7 8.27701 7 7.91101V2.08301C7 2.69201 5.657 3.18301 4 3.18301C2.343 3.18301 1 2.69301 1 2.08301V7.91101C1 8.51101 2.32 8.99201 3.963 9.00001H4C4.33443 8.99941 4.66848 8.97703 5 8.93301V13.911C5 14.511 6.32 14.992 7.963 15H8C8.33443 14.9994 8.66848 14.977 9 14.933V9.11501C8.66848 9.15903 8.33443 9.18141 8 9.18201C7.22719 9.20078 6.45795 9.07111 5.734 8.80001V8.80001Z" fill="#007ACC"/>
<path d="M7 2.09C7 2.699 5.657 3.19 4 3.19C2.343 3.19 1 2.7 1 2.09C1 1.48 2.343 1 4 1C5.657 1 7 1.489 7 2.09Z" fill="#DFDFDF"/>
<path d="M6.3 1.99994C6.3 2.38694 5.264 2.69994 4 2.69994C2.736 2.69994 1.7 2.38394 1.7 1.99994C1.7 1.61594 2.732 1.34094 4 1.34094C5.268 1.34094 6.3 1.64994 6.3 2.04094" fill="#50E6FF"/>
<path d="M5.822 2.41801C5.23605 2.61801 4.61886 2.71083 4 2.69201C3.3832 2.72178 2.76606 2.64049 2.178 2.45201C2.76748 2.26848 3.38274 2.18136 4 2.19401C4.61542 2.1705 5.23061 2.24613 5.822 2.41801V2.41801Z" fill="#32BEDD"/>
<path d="M15 2.09C15 2.699 13.657 3.19 12 3.19C10.343 3.19 9 2.7 9 2.09C9 1.48 10.343 1 12 1C13.657 1 15 1.489 15 2.09Z" fill="#DFDFDF"/>
<path d="M14.3 1.99999C14.3 2.38699 13.264 2.69999 12 2.69999C10.736 2.69999 9.7 2.38399 9.7 1.99999C9.7 1.61599 10.734 1.34399 12 1.34399C13.266 1.34399 14.3 1.65299 14.3 2.04399" fill="#50E6FF"/>
<path d="M13.822 2.41801C13.236 2.61801 12.6189 2.71083 12 2.69201C11.3832 2.72178 10.7661 2.64049 10.178 2.45201C10.7675 2.26848 11.3827 2.18136 12 2.19401C12.6154 2.1705 13.2306 2.24613 13.822 2.41801V2.41801Z" fill="#32BEDD"/>
<path d="M15.5 8.5V15.5H10.5V8.5C10.5 8.23478 10.6054 7.98043 10.7929 7.79289C10.9804 7.60536 11.2348 7.5 11.5 7.5H14.5C14.7652 7.5 15.0196 7.60536 15.2071 7.79289C15.3946 7.98043 15.5 8.23478 15.5 8.5Z" fill="#F0EFF1"/>
<path d="M9 9.12201C8.66843 9.16555 8.33442 9.18793 8 9.18901C6.343 9.18901 5 8.69901 5 8.08901C5 7.47901 6.343 7.00001 8 7.00001C8.4725 6.99929 8.94399 7.04383 9.408 7.13301C9.14137 7.53903 8.99953 8.01427 9 8.50001V9.12201Z" fill="#DFDFDF"/>
<path d="M9 8.62103C8.66879 8.66853 8.3346 8.69226 8 8.69203C6.734 8.69203 5.7 8.38403 5.7 7.99203C5.7 7.60003 6.732 7.34103 8 7.34103C8.4152 7.33895 8.82968 7.37577 9.238 7.45103C9.08316 7.77917 9.00193 8.13719 9 8.50003V8.62103Z" fill="#50E6FF"/>
<path d="M9 8.618C8.66986 8.67508 8.33495 8.69986 8 8.692C7.3832 8.72178 6.76606 8.64048 6.178 8.452C6.76748 8.26847 7.38274 8.18135 8 8.194C8.34244 8.18348 8.68514 8.20355 9.024 8.254C9.016 8.336 9 8.417 9 8.5V8.618Z" fill="#32BEDD"/>
<path d="M14.5 7H11.5C11.1022 7 10.7206 7.15804 10.4393 7.43934C10.158 7.72064 10 8.10218 10 8.5V16H16V8.5C16 8.10218 15.842 7.72064 15.5607 7.43934C15.2794 7.15804 14.8978 7 14.5 7ZM15 15H11V8.5C11 8.36739 11.0527 8.24021 11.1464 8.14645C11.2402 8.05268 11.3674 8 11.5 8H14.5C14.6326 8 14.7598 8.05268 14.8536 8.14645C14.9473 8.24021 15 8.36739 15 8.5V15ZM12 9H14V10H12V9ZM12 13H14V14H12V13Z" fill="#424242"/>
</g>
<defs>
<clipPath id="clip0_7198_14570">
<rect width="16" height="16" fill="white"/>
</clipPath>
</defs>
</svg>
