<svg width="16" height="16" viewBox="0 0 16 16" fill="none" xmlns="http://www.w3.org/2000/svg">
<path d="M10.5 1L8 1.463V4.872L10.5 5.405V1ZM5 1L2.5 1.463V4.872L5 5.405V1ZM8 5.594L5.5 6.057V9.466L8 9.999V5.594ZM13.5 5.594L11 6.057V9.466L13.5 9.999V5.594ZM2.5 5.594L0 6.057V9.466L2.5 9.999V5.594ZM10.5 10.594L8 11.057V14.466L10.5 14.999V10.594ZM5 10.594L2.5 11.057V14.466L5 14.999V10.594Z" fill="#B77AF4"/>
<path d="M10.5 5.406L13 4.392V1.857L10.5 1V5.406ZM5 5.406L7.5 4.392V1.857L5 1V5.406ZM8 10L10.5 8.986V6.451L8 5.594V10ZM13.5 10L16 8.986V6.451L13.5 5.594V10ZM2.5 10L5 8.986V6.451L2.5 5.594V10ZM10.5 15L13 13.986V11.451L10.5 10.594V15ZM5 15L7.5 13.986V11.451L5 10.594V15Z" fill="#9659E8"/>
<path d="M8 1.463V4.872L10.5 5.405V1L8 1.463ZM8.351 4.464L8.345 1.841L9.053 1.723L9.066 4.602L8.351 4.463V4.464ZM9.358 4.673L9.342 1.67L10.156 1.516L10.181 4.803L9.358 4.673ZM2.5 1.463V4.872L5 5.405V1L2.5 1.463ZM2.851 4.464L2.845 1.841L3.553 1.723L3.566 4.602L2.851 4.463V4.464ZM3.858 4.673L3.842 1.67L4.656 1.516L4.681 4.803L3.858 4.673ZM5.5 6.058V9.467L8 10V5.594L5.5 6.058ZM5.851 9.059L5.845 6.436L6.553 6.318L6.566 9.197L5.851 9.058V9.059ZM6.858 9.268L6.842 6.265L7.656 6.111L7.681 9.398L6.858 9.268ZM11 6.058V9.467L13.5 10V5.594L11 6.058ZM11.351 9.059L11.345 6.436L12.053 6.318L12.066 9.197L11.351 9.058V9.059ZM12.358 9.268L12.342 6.265L13.156 6.111L13.181 9.398L12.358 9.268ZM0 6.058V9.467L2.5 10V5.594L0 6.058ZM0.351 9.059L0.345 6.436L1.053 6.318L1.066 9.197L0.351 9.058V9.059ZM1.358 9.268L1.342 6.265L2.156 6.111L2.181 9.398L1.357 9.268H1.358ZM8 11.058V14.467L10.5 15V10.594L8 11.058ZM8.351 14.059L8.345 11.436L9.053 11.318L9.066 14.197L8.351 14.058V14.059ZM9.358 14.268L9.342 11.265L10.156 11.111L10.181 14.398L9.358 14.268ZM2.5 11.058V14.467L5 15V10.594L2.5 11.058ZM2.851 14.059L2.845 11.436L3.553 11.318L3.566 14.197L2.851 14.058V14.059ZM3.858 14.268L3.842 11.265L4.656 11.111L4.681 14.398L3.858 14.268Z" fill="#341A6E"/>
</svg>
