<svg width="16" height="16" viewBox="0 0 16 16" fill="none" xmlns="http://www.w3.org/2000/svg">
<g clip-path="url(#clip0_7198_14447)">
<path d="M7.408 5.46496L5.267 6.28296V2.82996L7.408 3.58796V5.46496ZM4.923 6.27596L3.323 5.66596V3.39996L4.923 2.83296V6.27596ZM3.684 3.51796L3.584 3.54596L3.5 3.57096L3.407 3.59996V5.47396L3.5 5.49996L3.592 5.52896L3.692 5.55896L3.684 3.51796ZM4.138 3.38996L4.013 3.42596L3.9 3.45796L3.79 3.48896V5.58896L3.9 5.62296L4.016 5.65896L4.141 5.69796L4.138 3.38996ZM4.728 3.22396L4.564 3.26996L4.412 3.31296L4.27 3.35296V5.74096L4.412 5.78496L4.564 5.83296L4.728 5.88296V3.22396ZM12.421 3.58796L10.279 2.82996V6.28296L12.421 5.46496V3.58796ZM9.936 6.27596L8.336 5.66596V3.39996L9.936 2.83296V6.27596ZM8.7 3.51796L8.6 3.54596L8.508 3.57096L8.42 3.59996V5.47396L8.507 5.50096L8.6 5.52996L8.7 5.55996V3.51796ZM9.15 3.38996L9.026 3.42596L8.91 3.45796L8.8 3.48896V5.58896L8.91 5.62296L9.026 5.65896L9.15 5.69996V3.38996ZM9.741 3.22396L9.577 3.26996L9.425 3.31296L9.283 3.35296V5.74096L9.425 5.78496L9.577 5.83296L9.741 5.88296V3.22396ZM5.267 13.17L7.408 12.353V10.475L5.267 9.71696V13.17ZM3.319 10.285L4.919 9.71696V13.163L3.319 12.553V10.285ZM4.27 12.629L4.412 12.673L4.564 12.72L4.728 12.771V10.111L4.564 10.157L4.412 10.2L4.27 10.24V12.629ZM3.787 12.479L3.897 12.513L4.013 12.549L4.138 12.588V10.278L4.013 10.313L3.897 10.345L3.787 10.376V12.479ZM3.407 12.362L3.495 12.389L3.587 12.417L3.687 12.448V10.406L3.587 10.433L3.495 10.459L3.407 10.483V12.362ZM10.279 13.17L12.421 12.353V10.475L10.279 9.71696V13.17ZM8.332 10.285L9.932 9.71696V13.163L8.332 12.553V10.285ZM9.283 12.629L9.425 12.673L9.577 12.72L9.741 12.771V10.111L9.577 10.157L9.425 10.2L9.283 10.24V12.629ZM8.8 12.479L8.91 12.513L9.026 12.549L9.15 12.588V10.278L9.026 10.313L8.91 10.345L8.8 10.376V12.479ZM8.42 12.362L8.507 12.389L8.599 12.417L8.699 12.448V10.406L8.599 10.433L8.507 10.459L8.42 10.483V12.362ZM7.934 9.71696L10.076 8.89996V7.02196L7.934 6.26296V9.71696ZM5.987 6.83096L7.587 6.26296V9.70996L5.987 9.09996V6.83096ZM6.938 9.17496L7.08 9.21896L7.232 9.26596L7.396 9.31696V6.65796L7.232 6.69996L7.08 6.74296L6.938 6.78296V9.17496ZM6.455 9.02596L6.565 9.05996L6.681 9.09596L6.805 9.13396V6.82396L6.681 6.85896L6.565 6.89196L6.455 6.92296V9.02596ZM6.075 8.90796L6.162 8.93496L6.254 8.96396L6.354 8.99396V6.95196L6.254 6.97896L6.162 7.00496L6.075 7.02996V8.90796ZM2.947 9.71696L5.089 8.89996V7.02196L2.947 6.26296V9.71696ZM1 6.83096L2.6 6.26296V9.70996L1 9.09996V6.83096ZM1.951 9.17496L2.093 9.21896L2.245 9.26596L2.409 9.31696V6.65796L2.245 6.69996L2.093 6.74296L1.951 6.78296V9.17496ZM1.468 9.02596L1.578 9.05996L1.694 9.09496L1.819 9.13396V6.82396L1.694 6.85896L1.578 6.89196L1.468 6.92296V9.02596ZM1.088 8.90796L1.176 8.93496L1.267 8.96396L1.367 8.99396V6.95196L1.267 6.97896L1.176 7.00496L1.088 7.02996V8.90796ZM12.858 6.26296V9.71696L15 8.89996V7.02196L12.858 6.26296ZM10.911 6.83096L12.511 6.26296V9.70996L10.911 9.09896V6.83096ZM11.862 9.17496L12 9.21896L12.152 9.26596L12.316 9.31696V6.65796L12.152 6.70396L12 6.74696L11.858 6.78696L11.862 9.17496ZM11.379 9.02596L11.489 9.05996L11.605 9.09596L11.729 9.13396V6.82396L11.605 6.85896L11.489 6.89196L11.379 6.92296V9.02596ZM11 8.90796L11.087 8.93496L11.179 8.96396L11.279 8.99396V6.95196L11.179 6.97896L11.087 7.00496L11 7.02996V8.90796Z" fill="#5C2E91"/>
</g>
<defs>
<clipPath id="clip0_7198_14447">
<rect width="16" height="16" fill="white"/>
</clipPath>
</defs>
</svg>
