<svg width="16" height="16" viewBox="0 0 16 16" fill="none" xmlns="http://www.w3.org/2000/svg">
<g clip-path="url(#clip0_7198_14607)">
<path d="M11.89 7.06994L8.27999 9.17994C8.19552 9.22859 8.12524 9.29848 8.07613 9.38268C8.02701 9.46688 8.00076 9.56246 8 9.65994V11.6499C6.97137 12.0197 5.86083 12.0993 4.79 11.8799C3.77998 11.6782 2.84147 11.2123 2.07 10.5299C1.76073 10.2692 1.48226 9.97391 1.24 9.64994C0.498551 8.67901 0.0711527 7.5049 0.014934 6.28454C-0.0412847 5.06418 0.276356 3.85574 0.925393 2.82076C1.57443 1.78578 2.52394 0.973577 3.64698 0.492735C4.77002 0.0118928 6.01308 -0.114679 7.21 0.12994C8.74468 0.441242 10.0955 1.34336 10.971 2.64168C11.8465 3.93999 12.1766 5.53045 11.89 7.06994Z" fill="#773ADC"/>
<path d="M3 4.64899C2.49506 5.19006 2.21986 5.90601 2.23241 6.64599C2.24495 7.38597 2.54425 8.09219 3.06725 8.61583C3.59024 9.13948 4.29609 9.43965 5.03605 9.45311C5.77602 9.46657 6.49231 9.19227 7.034 8.68799L8.344 7.37799L4.305 3.33899L3 4.64899Z" fill="white"/>
<path d="M8.10001 2.532C8.13989 2.49216 8.17153 2.44485 8.19311 2.39277C8.2147 2.3407 8.22581 2.28488 8.22581 2.2285C8.22581 2.17213 8.2147 2.11631 8.19311 2.06423C8.17153 2.01216 8.13989 1.96485 8.10001 1.925L8.02101 1.845C7.94037 1.7644 7.83102 1.71912 7.71701 1.71912C7.60299 1.71912 7.49364 1.7644 7.41301 1.845L5.77901 3.484L6.46601 4.171L8.10001 2.532Z" fill="white"/>
<path d="M9.8 3.62299L9.72 3.54299C9.6394 3.46269 9.53027 3.4176 9.4165 3.4176C9.30273 3.4176 9.19359 3.46269 9.113 3.54299L7.476 5.18399L8.162 5.87099L9.8 4.23099C9.88012 4.1501 9.92507 4.04085 9.92507 3.92699C9.92507 3.81314 9.88012 3.70388 9.8 3.62299Z" fill="white"/>
<path d="M3 8.68795C2.86699 8.55467 2.74742 8.40864 2.643 8.25195L1.243 9.65195C1.48527 9.97592 1.76374 10.2712 2.073 10.532L3.516 9.09295C3.329 8.97824 3.15585 8.84234 3 8.68795Z" fill="#B796F9"/>
<path d="M4.048 2.78105L4.641 2.18805C4.68114 2.14895 4.73496 2.12708 4.791 2.12708C4.84703 2.12708 4.90085 2.14895 4.941 2.18805L9.459 6.70005C9.49809 6.74019 9.51997 6.79401 9.51997 6.85005C9.51997 6.90608 9.49809 6.9599 9.459 7.00005L8.867 7.60005C8.82685 7.63914 8.77303 7.66102 8.717 7.66102C8.66096 7.66102 8.60714 7.63914 8.567 7.60005L4.048 3.08405C4.008 3.04377 3.98555 2.98931 3.98555 2.93255C3.98555 2.87578 4.008 2.82132 4.048 2.78105Z" fill="#B796F9"/>
<path d="M16 9.91895V13.9659L12.5 15.9999V11.9469L16 9.91895Z" fill="#32BEDD"/>
<path d="M16 9.91898L12.5 11.953L9 9.91398L12.5 7.88098L16 9.91898Z" fill="#9CEBFF"/>
<path d="M12.5 11.9529V15.9999L9 13.9659V9.91394L12.5 11.9529Z" fill="#50E6FF"/>
</g>
<defs>
<clipPath id="clip0_7198_14607">
<rect width="16" height="16" fill="white"/>
</clipPath>
</defs>
</svg>
