<svg width="16" height="16" viewBox="0 0 16 16" fill="none" xmlns="http://www.w3.org/2000/svg">
<g clip-path="url(#clip0_7198_14539)">
<path d="M13 1.84V14.16C13 14.3828 12.9115 14.5964 12.754 14.754C12.5964 14.9115 12.3828 15 12.16 15H3.84C3.61722 15 3.40356 14.9115 3.24603 14.754C3.0885 14.5964 3 14.3828 3 14.16V1.84C3 1.61722 3.0885 1.40356 3.24603 1.24603C3.40356 1.0885 3.61722 1 3.84 1H12.16C12.3828 1 12.5964 1.0885 12.754 1.24603C12.9115 1.40356 13 1.61722 13 1.84Z" fill="#424242"/>
<path d="M4 2.4V12.262H6.227L5.115 15H3.862C3.63922 15 3.42556 14.9115 3.26803 14.754C3.1105 14.5964 3.022 14.3828 3.022 14.16V1.84C3.022 1.61722 3.1105 1.40356 3.26803 1.24603C3.42556 1.0885 3.63922 1 3.862 1H10.806L10.237 2.4H4Z" fill="#555555"/>
<path d="M12 2.40002V12.262H4V2.40002H12Z" fill="#3999C6"/>
<path d="M9.49399 1.78906C9.49452 1.81658 9.48956 1.84393 9.47939 1.8695C9.46923 1.89508 9.45407 1.91838 9.43479 1.93802C9.41552 1.95767 9.39252 1.97328 9.36714 1.98393C9.34176 1.99458 9.31451 2.00006 9.28699 2.00006H6.83899C6.78409 2.00006 6.73144 1.97825 6.69262 1.93943C6.6538 1.90061 6.63199 1.84796 6.63199 1.79306C6.63199 1.73816 6.6538 1.68551 6.69262 1.64669C6.73144 1.60787 6.78409 1.58606 6.83899 1.58606H9.28699C9.3412 1.58605 9.39326 1.60731 9.43196 1.64527C9.47067 1.68323 9.49294 1.73486 9.49399 1.78906V1.78906Z" fill="white"/>
<path d="M11 5.63098V9.09998L8 10.841V7.36998L11 5.63098Z" fill="#32D4F5"/>
<path d="M11 5.63098V9.09998L8 10.841V7.36998L11 5.63098Z" fill="#50E6FF"/>
<path d="M11 5.63096L8 7.37496L5 5.63096L8 3.88696L11 5.63096Z" fill="#9CEBFF"/>
<path d="M8 7.37498V10.841L5 9.09998V5.63098L8 7.37498Z" fill="#50E6FF"/>
<path d="M11 9.09998L8 10.841L5 9.09998V5.63098L8 7.37498L11 9.09998Z" fill="#9CEBFF"/>
<path d="M8 7.37496V7.37196V10.841L5 9.09996L8 7.37096L5 5.63096L8 3.88696L11 5.63096L8 7.37496Z" fill="#C3F1FF"/>
</g>
<defs>
<clipPath id="clip0_7198_14539">
<rect width="16" height="16" fill="white"/>
</clipPath>
</defs>
</svg>
