<svg width="16" height="16" viewBox="0 0 16 16" fill="none" xmlns="http://www.w3.org/2000/svg">
<g clip-path="url(#clip0_7198_14414)">
<path d="M13.762 8.446C13.6683 8.75751 13.5441 9.05898 13.391 9.346L13.432 9.387L14.632 11.269L13.268 12.633L11.386 11.433L11.345 11.392C11.058 11.5451 10.7565 11.6693 10.445 11.763V11.822L9.964 14H8.932C8.96974 13.8659 8.98892 13.7273 8.989 13.588V10H9C9.55126 10.0024 10.0925 9.85285 10.5644 9.56778C11.0362 9.28271 11.4204 8.87314 11.6747 8.38405C11.929 7.89495 12.0437 7.34523 12.006 6.79525C11.9684 6.24527 11.78 5.71629 11.4614 5.26639C11.1428 4.81648 10.7064 4.46306 10.2002 4.24491C9.69391 4.02677 9.13732 3.95233 8.59152 4.02979C8.04572 4.10724 7.53182 4.33358 7.10623 4.68397C6.68064 5.03435 6.35982 5.49523 6.179 6.016C6.148 6.016 6.118 6.005 6.088 6.005C5.89084 6.00455 5.69555 6.0432 5.51343 6.11873C5.33131 6.19426 5.16598 6.30515 5.027 6.445L3.234 8.237L2 7.964V6.036L4.179 5.554H4.238C4.33166 5.24249 4.45593 4.94102 4.609 4.654L4.568 4.613L3.368 2.731L4.732 1.368L6.614 2.568L6.655 2.609C6.94202 2.45593 7.24349 2.33166 7.555 2.238V2.179L8.036 0H9.964L10.446 2.179V2.238C10.7575 2.33166 11.059 2.45593 11.346 2.609L11.387 2.568L13.269 1.368L14.633 2.732L13.433 4.614L13.392 4.655C13.5451 4.94202 13.6693 5.24349 13.763 5.555H13.822L16 6.036V7.964L13.821 8.446H13.762Z" fill="#949494"/>
<path d="M10.25 7C10.25 7.16415 10.2177 7.3267 10.1549 7.47835C10.092 7.63001 9.99997 7.76781 9.8839 7.88388C9.76782 7.99996 9.63002 8.09203 9.47837 8.15485C9.32671 8.21767 9.16416 8.25 9.00001 8.25H8.98901V8.206C8.99014 7.92717 8.91305 7.65361 8.76651 7.41639C8.61998 7.17917 8.40985 6.9878 8.16001 6.864L7.81201 6.69C7.87721 6.42347 8.02945 6.1863 8.24463 6.01604C8.4598 5.84578 8.72563 5.75216 9.00001 5.75C9.16416 5.75 9.32671 5.78233 9.47837 5.84515C9.63002 5.90797 9.76782 6.00004 9.8839 6.11612C9.99997 6.23219 10.092 6.36999 10.1549 6.52165C10.2177 6.6733 10.25 6.83585 10.25 7V7Z" fill="#767676"/>
<path d="M7.71299 7.75903L6.31299 7.05903C6.21911 7.01218 6.11288 6.99604 6.00932 7.01292C5.90577 7.02979 5.81014 7.0788 5.73599 7.15303L2.89999 9.98803L1.09999 8.60703C1.06647 8.58088 1.02676 8.56383 0.984716 8.55752C0.942671 8.55121 0.89971 8.55587 0.85999 8.57103L0.15299 8.83603C0.105286 8.85389 0.0641448 8.88584 0.0350305 8.92763C0.00591616 8.96943 -0.00979284 9.01909 -0.0100098 9.07003V12.724C-0.00979284 12.775 0.00591616 12.8246 0.0350305 12.8664C0.0641448 12.9082 0.105286 12.9402 0.15299 12.958L0.85999 13.223C0.89971 13.2382 0.942671 13.2428 0.984716 13.2365C1.02676 13.2302 1.06647 13.2132 1.09999 13.187L2.89999 11.806L5.73699 14.642C5.81114 14.7163 5.90677 14.7653 6.01032 14.7821C6.11388 14.799 6.22011 14.7829 6.31399 14.736L7.71399 14.036C7.79694 13.9945 7.86668 13.9306 7.91543 13.8517C7.96417 13.7728 7.98999 13.6818 7.98999 13.589V8.20603C7.98989 8.11315 7.96393 8.02212 7.915 7.94317C7.86608 7.86422 7.79612 7.80045 7.71299 7.75903ZM0.98899 11.9V9.90003L1.98899 10.9L0.98899 11.9ZM5.98899 12.364L4.08199 10.9L5.98899 9.43303V12.364Z" fill="#5C2E91"/>
</g>
<defs>
<clipPath id="clip0_7198_14414">
<rect width="16" height="16" fill="white"/>
</clipPath>
</defs>
</svg>
