<svg width="16" height="16" viewBox="0 0 16 16" fill="none" xmlns="http://www.w3.org/2000/svg">
<g clip-path="url(#clip0_7198_14688)">
<path d="M13 15H7.00001C6.99921 14.8353 7.05932 14.6761 7.16877 14.553C7.27823 14.4298 7.42931 14.3515 7.59301 14.333C8.78001 14.147 8.82001 12.848 8.82001 11.468H11.173C11.173 12.848 11.22 14.147 12.407 14.333C12.5707 14.3515 12.7218 14.4298 12.8312 14.553C12.9407 14.6761 13.0008 14.8353 13 15V15Z" fill="#7A7A7A"/>
<path d="M14.5 13H5.5C5.36739 13 5.24021 12.9473 5.14645 12.8536C5.05268 12.7598 5 12.6326 5 12.5V5.5C5 5.36739 5.05268 5.24021 5.14645 5.14645C5.24021 5.05268 5.36739 5 5.5 5H14.5C14.6326 5 14.7598 5.05268 14.8536 5.14645C14.9473 5.24021 15 5.36739 15 5.5V12.5C15 12.6326 14.9473 12.7598 14.8536 12.8536C14.7598 12.9473 14.6326 13 14.5 13ZM13 3.5V4H4V11H3.5C3.36739 11 3.24021 10.9473 3.14645 10.8536C3.05268 10.7598 3 10.6326 3 10.5V3.5C3 3.36739 3.05268 3.24021 3.14645 3.14645C3.24021 3.05268 3.36739 3 3.5 3H12.5C12.6326 3 12.7598 3.05268 12.8536 3.14645C12.9473 3.24021 13 3.36739 13 3.5ZM11 1.5V2H2V9H1.5C1.36739 9 1.24021 8.94732 1.14645 8.85355C1.05268 8.75979 1 8.63261 1 8.5V1.5C1 1.36739 1.05268 1.24021 1.14645 1.14645C1.24021 1.05268 1.36739 1 1.5 1H10.5C10.6326 1 10.7598 1.05268 10.8536 1.14645C10.9473 1.24021 11 1.36739 11 1.5Z" fill="#0078D4"/>
<path d="M12 7.84497V10.155L10 11.318V8.99997L12 7.84497Z" fill="#32D4F5"/>
<path d="M12 7.84497V10.155L10 11.318V8.99997L12 7.84497Z" fill="#2FA2C8"/>
<path d="M12 7.84501L10 9.00801L8 7.84501L10 6.68201L12 7.84501Z" fill="#9CEBFF"/>
<path d="M10 9.00797V11.318L8 10.155V7.84497L10 9.00797Z" fill="#50E6FF"/>
<path d="M12 10.155L10 11.318L8 10.155V7.84497L10 9.00797V8.99997L12 10.155Z" fill="#32BEDD"/>
<path d="M10 9.00801V11.321L8 10.155L10 9.00501L8 7.84501L10 6.68201L12 7.84501L10 9.00801Z" fill="#9CEBFF"/>
</g>
<defs>
<clipPath id="clip0_7198_14688">
<rect width="16" height="16" fill="white"/>
</clipPath>
</defs>
</svg>
