<svg width="16" height="16" viewBox="0 0 16 16" fill="none" xmlns="http://www.w3.org/2000/svg">
<g clip-path="url(#clip0_7198_14585)">
<path d="M12 5.18994V9.80994L8 12.1359V7.50794L12 5.18994Z" fill="#32D4F5"/>
<path d="M12 5.18994V9.80994L8 12.1359V7.50794L12 5.18994Z" fill="#2FA2C8"/>
<path d="M12 5.19001L8 7.51501L4 5.19001L8 2.86401L12 5.19001Z" fill="#9CEBFF"/>
<path d="M8 7.51494V12.1359L4 9.80994V5.18994L8 7.51494Z" fill="#50E6FF"/>
<path d="M12 9.80994L8 12.1359L4 9.80994V5.18994L8 7.51494V7.50694L12 9.80994Z" fill="#32BEDD"/>
<path d="M8 7.51501V7.51101V12.136L4 9.81001L7.993 7.51001L4 5.19001L8 2.86401L12 5.19001L8 7.51501Z" fill="#9CEBFF"/>
<path d="M2 3.18996V11.876L3.828 12.848C3.86071 12.8654 3.88519 12.895 3.89606 12.9305C3.90693 12.9659 3.90332 13.0042 3.886 13.037L3.547 13.672C3.53848 13.6881 3.52685 13.7024 3.51278 13.7141C3.49872 13.7258 3.48249 13.7346 3.46503 13.7399C3.44757 13.7453 3.42921 13.7472 3.41102 13.7455C3.39283 13.7438 3.37515 13.7385 3.359 13.73L1 12.475V2.59996L3.354 1.29996C3.38622 1.28206 3.42424 1.27769 3.45968 1.28782C3.49513 1.29795 3.5251 1.32174 3.543 1.35396L3.892 1.98396C3.90995 2.01633 3.91434 2.0545 3.90422 2.09011C3.8941 2.12571 3.87029 2.15586 3.838 2.17396L2 3.18996Z" fill="#949494"/>
<path d="M1 2.59996L3.354 1.29996C3.38622 1.28206 3.42424 1.27769 3.45968 1.28782C3.49513 1.29795 3.5251 1.32174 3.543 1.35396L3.892 1.98396C3.90995 2.01633 3.91434 2.0545 3.90422 2.09011C3.8941 2.12571 3.87029 2.15586 3.838 2.17396L2 3.18996L1 2.59996ZM2 11.876L1 12.454V12.474L3.36 13.73C3.37615 13.7385 3.39383 13.7438 3.41202 13.7455C3.43021 13.7472 3.44857 13.7453 3.46603 13.7399C3.48349 13.7346 3.49972 13.7258 3.51378 13.7141C3.52785 13.7024 3.53948 13.6881 3.548 13.672L3.887 13.037C3.90432 13.0042 3.90793 12.9659 3.89706 12.9305C3.88619 12.895 3.86171 12.8654 3.829 12.848L2 11.876Z" fill="#A3A3A3"/>
<path d="M14 11.837V3.15102L12.172 2.17902C12.1395 2.16144 12.1152 2.13169 12.1045 2.09628C12.0938 2.06086 12.0976 2.02266 12.115 1.99002L12.453 1.35402C12.4704 1.32155 12.5 1.29731 12.5352 1.28662C12.5705 1.27593 12.6085 1.27967 12.641 1.29702L15 2.55202V12.426L12.649 13.726C12.6165 13.7439 12.5782 13.7481 12.5426 13.7378C12.507 13.7275 12.4769 13.7035 12.459 13.671L12.11 13.041C12.1012 13.025 12.0956 13.0074 12.0936 12.9892C12.0916 12.9711 12.0932 12.9527 12.0983 12.9351C12.1034 12.9176 12.1119 12.9012 12.1234 12.8869C12.1348 12.8727 12.149 12.8608 12.165 12.852L14 11.837Z" fill="#949494"/>
<path d="M15 12.426L12.649 13.726C12.6165 13.7438 12.5782 13.7481 12.5426 13.7377C12.507 13.7274 12.4769 13.7034 12.459 13.6709L12.11 13.041C12.1012 13.0249 12.0956 13.0073 12.0936 12.9892C12.0916 12.971 12.0932 12.9526 12.0983 12.935C12.1034 12.9175 12.1119 12.9011 12.1234 12.8868C12.1348 12.8726 12.149 12.8607 12.165 12.852L14 11.837L15 12.426ZM14 3.14995L15 2.57195V2.55195L12.642 1.29995C12.6095 1.2826 12.5715 1.27886 12.5362 1.28955C12.501 1.30024 12.4714 1.32448 12.454 1.35695L12.116 1.99295C12.0986 2.02559 12.0948 2.06379 12.1055 2.09921C12.1162 2.13462 12.1405 2.16437 12.173 2.18195L14 3.14995Z" fill="#A3A3A3"/>
</g>
<defs>
<clipPath id="clip0_7198_14585">
<rect width="16" height="16" fill="white"/>
</clipPath>
</defs>
</svg>
