<svg width="16" height="16" viewBox="0 0 16 16" fill="none" xmlns="http://www.w3.org/2000/svg">
<g clip-path="url(#clip0_7198_14500)">
<path d="M14.91 8.53795L14.166 9.25895L14.144 9.28095L11.144 12.255C11.0763 12.3104 10.9902 12.3384 10.9029 12.3332C10.8155 12.328 10.7333 12.2901 10.6726 12.2271C10.612 12.164 10.5773 12.0804 10.5755 11.9929C10.5737 11.9054 10.605 11.8204 10.663 11.755L13.9 8.53795C13.9623 8.46961 13.9969 8.38045 13.9969 8.28795C13.9969 8.19545 13.9623 8.10629 13.9 8.03795L10.733 4.92995C10.6976 4.89864 10.6693 4.86011 10.65 4.81695C10.6302 4.77398 10.62 4.72724 10.62 4.67995C10.62 4.63266 10.6302 4.58592 10.65 4.54295C10.6693 4.49979 10.6976 4.46126 10.733 4.42995C10.7973 4.3671 10.8836 4.33191 10.9735 4.33191C11.0634 4.33191 11.1497 4.3671 11.214 4.42995L14.232 7.35995L14.91 8.03795C14.9668 8.1089 14.9978 8.19707 14.9978 8.28795C14.9978 8.37883 14.9668 8.46701 14.91 8.53795ZM2.162 8.53795C2.09967 8.46961 2.06512 8.38045 2.06512 8.28795C2.06512 8.19545 2.09967 8.10629 2.162 8.03795L5.267 4.92995C5.30271 4.89868 5.33135 4.86016 5.351 4.81695C5.37013 4.77381 5.38001 4.72714 5.38001 4.67995C5.38001 4.63276 5.37013 4.58609 5.351 4.54295C5.33135 4.49974 5.30271 4.46122 5.267 4.42995C5.20272 4.3671 5.1164 4.33191 5.0265 4.33191C4.9366 4.33191 4.85028 4.3671 4.786 4.42995L1.768 7.35695L1.09 8.03495C1.0332 8.1059 1.00225 8.19407 1.00225 8.28495C1.00225 8.37583 1.0332 8.46401 1.09 8.53495L1.768 9.29995L1.79 9.32195L4.851 12.252C4.91869 12.3074 5.00479 12.3354 5.09214 12.3302C5.1795 12.325 5.26171 12.2871 5.32238 12.2241C5.38305 12.161 5.41773 12.0774 5.41951 11.9899C5.4213 11.9024 5.39005 11.8174 5.332 11.752L2.162 8.53795Z" fill="#1BA1E2"/>
<path d="M5.464 14.9L7.65 8.494L4.85 8.472L7.147 2H11.411L8.568 6.351H11.5L5.464 14.9Z" fill="#FFCC00"/>
<path d="M5.464 14.9L9.618 7.4L6.818 7.378L9.181 2H11.411L8.568 6.351H11.5L5.464 14.9Z" fill="#FCB714"/>
</g>
<defs>
<clipPath id="clip0_7198_14500">
<rect width="16" height="16" fill="white"/>
</clipPath>
</defs>
</svg>
