<svg width="16" height="16" viewBox="0 0 16 16" fill="none" xmlns="http://www.w3.org/2000/svg">
<g clip-path="url(#clip0_8832_22235)">
<path d="M14 4H1V1.5C1 1.36739 1.05268 1.24021 1.14645 1.14645C1.24021 1.05268 1.36739 1 1.5 1H13.5C13.6326 1 13.7598 1.05268 13.8536 1.14645C13.9473 1.24021 14 1.36739 14 1.5V4Z" fill="#005BA1"/>
<path d="M1 4V10.5C1 10.6326 1.05268 10.7598 1.14645 10.8536C1.24021 10.9473 1.36739 11 1.5 11H7V8.75C7.0021 8.28652 7.18715 7.84262 7.51489 7.51489C7.84262 7.18715 8.28652 7.0021 8.75 7H14V4H1Z" fill="#0078D4"/>
<path d="M12 2.75C12 2.8163 11.9737 2.87989 11.9268 2.92678C11.8799 2.97366 11.8163 3 11.75 3H3.25C3.1837 3 3.12011 2.97366 3.07322 2.92678C3.02634 2.87989 3 2.8163 3 2.75V2.25C3 2.1837 3.02634 2.12011 3.07322 2.07322C3.12011 2.02634 3.1837 2 3.25 2H11.75C11.8163 2 11.8799 2.02634 11.9268 2.07322C11.9737 2.12011 12 2.1837 12 2.25V2.75Z" fill="white"/>
<path d="M14.25 15H8.75C8.55109 15 8.36032 14.921 8.21967 14.7803C8.07902 14.6397 8 14.4489 8 14.25V8.75C8 8.55109 8.07902 8.36032 8.21967 8.21967C8.36032 8.07902 8.55109 8 8.75 8H14.25C14.4489 8 14.6397 8.07902 14.7803 8.21967C14.921 8.36032 15 8.55109 15 8.75V14.25C15 14.4489 14.921 14.6397 14.7803 14.7803C14.6397 14.921 14.4489 15 14.25 15Z" fill="#50E6FF"/>
<path d="M10.921 11.357L9.44399 9.879C9.42679 9.86208 9.40362 9.8526 9.37949 9.8526C9.35536 9.8526 9.3322 9.86208 9.31499 9.879L9.11499 10.079C9.09814 10.096 9.08868 10.119 9.08868 10.143C9.08868 10.167 9.09814 10.19 9.11499 10.207L10.399 11.487L9.14299 12.747C9.1262 12.7639 9.11677 12.7867 9.11677 12.8105C9.11677 12.8343 9.1262 12.8571 9.14299 12.874L9.34299 13.074C9.35126 13.0823 9.36108 13.0889 9.37189 13.0933C9.3827 13.0978 9.39429 13.1001 9.40599 13.1001C9.4177 13.1001 9.42928 13.0978 9.44009 13.0933C9.45091 13.0889 9.46073 13.0823 9.46899 13.074L10.924 11.616C10.9572 11.5804 10.9756 11.5336 10.9756 11.485C10.9756 11.4364 10.9572 11.3895 10.924 11.354L10.921 11.357Z" fill="white"/>
<path d="M13.841 12.456H11.57C11.5496 12.4559 11.5294 12.4598 11.5105 12.4675C11.4917 12.4753 11.4745 12.4867 11.4601 12.5011C11.4457 12.5155 11.4343 12.5327 11.4265 12.5515C11.4188 12.5704 11.4149 12.5906 11.415 12.611V12.844C11.4149 12.8644 11.4188 12.8847 11.4265 12.9036C11.4343 12.9225 11.4456 12.9397 11.4601 12.9542C11.4745 12.9687 11.4916 12.9803 11.5105 12.9881C11.5293 12.996 11.5496 13 11.57 13H13.844C13.8645 13 13.8848 12.996 13.9037 12.9881C13.9226 12.9803 13.9398 12.9688 13.9543 12.9543C13.9688 12.9398 13.9803 12.9226 13.9881 12.9037C13.996 12.8848 14 12.8645 14 12.844V12.844V12.611C14 12.5906 13.996 12.5703 13.9881 12.5514C13.9803 12.5326 13.9688 12.5154 13.9543 12.501C13.9398 12.4866 13.9226 12.4752 13.9036 12.4675C13.8847 12.4598 13.8645 12.4559 13.844 12.456V12.456H13.841Z" fill="white"/>
</g>
<defs>
<clipPath id="clip0_8832_22235">
<rect width="16" height="16" fill="white"/>
</clipPath>
</defs>
</svg>
