<svg width="16" height="16" viewBox="0 0 16 16" fill="none" xmlns="http://www.w3.org/2000/svg">
<g clip-path="url(#clip0_7198_14655)">
<path d="M1 5H15V13.533C15 13.5943 14.9879 13.6551 14.9645 13.7117C14.941 13.7684 14.9066 13.8199 14.8632 13.8632C14.8199 13.9066 14.7684 13.941 14.7117 13.9645C14.6551 13.9879 14.5943 14 14.533 14H1.467C1.34314 14 1.22436 13.9508 1.13678 13.8632C1.0492 13.7756 1 13.6569 1 13.533V5Z" fill="#0078D4"/>
<path opacity="0.6" d="M2 6H14V13H2V6Z" fill="#5EA0EF"/>
<path d="M1.467 2H14.533C14.5945 2.00013 14.6553 2.01237 14.712 2.03601C14.7688 2.05965 14.8203 2.09423 14.8636 2.13778C14.907 2.18133 14.9414 2.233 14.9648 2.28983C14.9882 2.34666 15.0001 2.40754 15 2.469V2.469V5H1V2.47C0.999737 2.40854 1.01158 2.34763 1.03486 2.29075C1.05813 2.23387 1.09239 2.18213 1.13566 2.13849C1.17893 2.09484 1.23038 2.06015 1.28706 2.03639C1.34374 2.01263 1.40454 2.00026 1.466 2H1.467Z" fill="#005BA1"/>
<path d="M6.529 11.2799L6.28 11.5289C6.26959 11.5394 6.2572 11.5478 6.24356 11.5535C6.22992 11.5591 6.21528 11.5621 6.2005 11.5621C6.18572 11.5621 6.17109 11.5591 6.15744 11.5535C6.1438 11.5478 6.13141 11.5394 6.121 11.5289V11.5289L4.312 9.71495C4.2698 9.67259 4.24611 9.61524 4.24611 9.55545C4.24611 9.49566 4.2698 9.43831 4.312 9.39595L4.561 9.14795L6.53 11.1209C6.54043 11.1314 6.54868 11.1439 6.55427 11.1575C6.55987 11.1712 6.5627 11.1859 6.56261 11.2007C6.56252 11.2154 6.5595 11.2301 6.55373 11.2437C6.54796 11.2573 6.53956 11.2696 6.529 11.2799ZM9.37 11.2799L9.62 11.5289C9.63033 11.5394 9.64263 11.5477 9.65619 11.5534C9.66975 11.5591 9.6843 11.562 9.699 11.562C9.7137 11.562 9.72825 11.5591 9.74181 11.5534C9.75538 11.5477 9.76768 11.5394 9.778 11.5289L11.586 9.71495C11.6282 9.67259 11.6519 9.61524 11.6519 9.55545C11.6519 9.49566 11.6282 9.43831 11.586 9.39595L11.335 9.14795L9.37 11.1209C9.35951 11.1314 9.35118 11.1437 9.3455 11.1574C9.33982 11.171 9.33689 11.1857 9.33689 11.2004C9.33689 11.2152 9.33982 11.2299 9.3455 11.2435C9.35118 11.2572 9.35951 11.2695 9.37 11.2799Z" fill="white"/>
<path d="M6.313 7.55899L6.562 7.80899C6.58289 7.82998 6.59461 7.85838 6.59461 7.88799C6.59461 7.9176 6.58289 7.946 6.562 7.96699V7.96699L4.562 9.96699L4.31 9.71499C4.28917 9.69418 4.27264 9.66948 4.26137 9.64228C4.25009 9.61508 4.24429 9.58593 4.24429 9.55649C4.24429 9.52705 4.25009 9.49789 4.26137 9.4707C4.27264 9.4435 4.28917 9.41879 4.31 9.39799L6.154 7.55899C6.16441 7.5485 6.1768 7.54017 6.19044 7.53449C6.20409 7.5288 6.21872 7.52588 6.2335 7.52588C6.24828 7.52588 6.26292 7.5288 6.27656 7.53449C6.29021 7.54017 6.30259 7.5485 6.313 7.55899V7.55899ZM9.585 7.55899L9.336 7.80899C9.31512 7.82998 9.30339 7.85838 9.30339 7.88799C9.30339 7.9176 9.31512 7.946 9.336 7.96699V7.96699L11.336 9.96699L11.585 9.71699C11.6273 9.67446 11.651 9.61694 11.651 9.55699C11.651 9.49704 11.6273 9.43952 11.585 9.39699L9.745 7.55899C9.72384 7.53804 9.69527 7.52629 9.6655 7.52629C9.63573 7.52629 9.60716 7.53804 9.586 7.55899V7.55899H9.585Z" fill="white"/>
<path d="M7.346 12.172L6.946 12.045C6.92619 12.0382 6.90977 12.024 6.90009 12.0054C6.89042 11.9868 6.88824 11.9652 6.894 11.945L8.52 6.86504C8.5226 6.85467 8.52733 6.84496 8.53389 6.83651C8.54045 6.82807 8.54869 6.82109 8.5581 6.81601C8.56751 6.81093 8.57787 6.80787 8.58853 6.80701C8.59918 6.80615 8.6099 6.80753 8.62 6.81104H8.625L9.025 6.93804C9.03537 6.94064 9.04508 6.94537 9.05353 6.95193C9.06197 6.95849 9.06895 6.96674 9.07403 6.97614C9.07911 6.98555 9.08218 6.99591 9.08303 7.00657C9.08389 7.01723 9.08251 7.02794 9.079 7.03804V7.04304L7.447 12.123C7.44372 12.1329 7.43854 12.142 7.43173 12.1499C7.42493 12.1577 7.41665 12.1641 7.40736 12.1688C7.39808 12.1734 7.38797 12.1762 7.37761 12.1769C7.36725 12.1776 7.35685 12.1763 7.347 12.173L7.346 12.172Z" fill="white"/>
<path d="M3 3.5C3 3.59889 2.97068 3.69556 2.91574 3.77779C2.86079 3.86001 2.7827 3.9241 2.69134 3.96194C2.59998 3.99978 2.49945 4.00969 2.40246 3.99039C2.30546 3.9711 2.21637 3.92348 2.14645 3.85355C2.07652 3.78363 2.0289 3.69454 2.00961 3.59755C1.99031 3.50055 2.00022 3.40002 2.03806 3.30866C2.0759 3.2173 2.13999 3.13921 2.22222 3.08427C2.30444 3.02932 2.40111 3 2.5 3V3C2.63261 3 2.75979 3.05268 2.85355 3.14645C2.94732 3.24021 3 3.36739 3 3.5ZM5 3.5C5 3.59889 4.97068 3.69556 4.91574 3.77779C4.86079 3.86001 4.78271 3.9241 4.69134 3.96194C4.59998 3.99978 4.49945 4.00969 4.40246 3.99039C4.30546 3.9711 4.21637 3.92348 4.14645 3.85355C4.07652 3.78363 4.0289 3.69454 4.00961 3.59755C3.99031 3.50055 4.00022 3.40002 4.03806 3.30866C4.0759 3.2173 4.13999 3.13921 4.22221 3.08427C4.30444 3.02932 4.40111 3 4.5 3C4.63261 3 4.75979 3.05268 4.85355 3.14645C4.94732 3.24021 5 3.36739 5 3.5ZM7 3.5C7 3.59889 6.97068 3.69556 6.91574 3.77779C6.86079 3.86001 6.78271 3.9241 6.69134 3.96194C6.59998 3.99978 6.49945 4.00969 6.40246 3.99039C6.30546 3.9711 6.21637 3.92348 6.14645 3.85355C6.07652 3.78363 6.0289 3.69454 6.00961 3.59755C5.99032 3.50055 6.00022 3.40002 6.03806 3.30866C6.0759 3.2173 6.13999 3.13921 6.22222 3.08427C6.30444 3.02932 6.40111 3 6.5 3C6.63261 3 6.75979 3.05268 6.85355 3.14645C6.94732 3.24021 7 3.36739 7 3.5Z" fill="white"/>
</g>
<defs>
<clipPath id="clip0_7198_14655">
<rect width="16" height="16" fill="white"/>
</clipPath>
</defs>
</svg>
