<svg width="16" height="16" viewBox="0 0 16 16" fill="none" xmlns="http://www.w3.org/2000/svg">
<g clip-path="url(#clip0_7198_14629)">
<path d="M15 8.00004C15.005 9.55831 14.4919 11.074 13.5413 12.3088C12.5907 13.5435 11.2566 14.4272 9.74888 14.8208C8.24114 15.2145 6.64533 15.0957 5.21247 14.4832C3.77961 13.8708 2.59102 12.7993 1.83367 11.4375C1.07633 10.0756 0.793199 8.50064 1.02883 6.96029C1.26446 5.41993 2.00548 4.00162 3.13531 2.92845C4.26515 1.85529 5.71969 1.18818 7.27012 1.03206C8.82055 0.87594 10.3789 1.23967 11.7 2.06604L12.419 0.618042L13.138 2.48904C13.285 2.91004 13.409 3.31404 13.519 3.71004C14.4786 4.93414 15.0001 6.44464 15 8.00004V8.00004Z" fill="#5FB832"/>
<path d="M12.474 9.98905C10.874 12.0661 7.521 11.3741 5.391 11.4801C5.14182 11.4823 4.89301 11.5 4.646 11.5331L4.965 11.4271C6.03599 11.1245 7.08564 10.751 8.107 10.3091C9.05368 9.82724 9.88298 9.14341 10.5363 8.30587C11.1897 7.46833 11.6511 6.49752 11.888 5.46205C11.4873 6.44893 10.8813 7.33926 10.1101 8.07392C9.33885 8.80857 8.42016 9.37073 7.415 9.72305C6.26597 10.1054 5.09139 10.4061 3.9 10.6231L3.793 10.5701C2.249 9.82405 2.193 6.47005 4.965 5.40405C6.19 4.92505 7.365 5.19105 8.693 4.87105C9.4683 4.683 10.1979 4.34096 10.8383 3.86527C11.4787 3.38958 12.017 2.78995 12.421 2.10205C13.22 4.40005 14.072 7.85905 12.474 9.98905ZM3.474 11.0001C3.3685 10.9999 3.26531 11.031 3.17751 11.0895C3.08971 11.148 3.02123 11.2312 2.98077 11.3286C2.9403 11.4261 2.92966 11.5333 2.9502 11.6368C2.97073 11.7403 3.02152 11.8353 3.09612 11.9099C3.17072 11.9845 3.26578 12.0353 3.36927 12.0559C3.47275 12.0764 3.58 12.0658 3.67744 12.0253C3.77487 11.9848 3.8581 11.9164 3.91659 11.8285C3.97509 11.7407 4.0062 11.6376 4.006 11.5321C4.00574 11.391 3.94961 11.2559 3.84989 11.1562C3.75018 11.0564 3.61502 11.0003 3.474 11.0001V11.0001Z" fill="white"/>
</g>
<defs>
<clipPath id="clip0_7198_14629">
<rect width="16" height="16" fill="white"/>
</clipPath>
</defs>
</svg>
