<svg width="16" height="16" viewBox="0 0 16 16" fill="none" xmlns="http://www.w3.org/2000/svg">
<g clip-path="url(#clip0_7198_14467)">
<path d="M11.19 4.99999H10.5C10.173 4.99867 9.84895 5.06177 9.54635 5.18569C9.24374 5.30961 8.96851 5.49192 8.73636 5.72221C8.50422 5.9525 8.3197 6.22626 8.19336 6.52786C8.06701 6.82946 8.0013 7.15299 7.99999 7.47999V13C6.86709 13 5.77402 12.5819 4.93026 11.8259C4.08651 11.0699 3.55141 10.0291 3.42753 8.903C3.30364 7.77689 3.59968 6.64466 4.25891 5.7233C4.91813 4.80194 5.89418 4.15626 6.99999 3.90999C7.73451 3.73995 8.49928 3.75028 9.22894 3.9401C9.9586 4.12991 10.6314 4.49357 11.19 4.99999V4.99999Z" fill="#0072C6"/>
<path d="M7.28 10.32C7.28281 10.6508 7.15736 10.9697 6.93 11.21C6.70227 11.4489 6.38989 11.589 6.06 11.6H4.54C4.06566 11.0707 3.72303 10.4368 3.54 9.74999C3.33228 9.06307 3.28777 8.33714 3.41 7.62999H5C5.15529 7.66715 5.30152 7.73517 5.43 7.82999C5.56168 7.92104 5.67108 8.04069 5.75 8.17999C5.82978 8.31564 5.88401 8.46477 5.91 8.61999C5.94001 8.77522 5.94001 8.93476 5.91 9.08999H6.14C6.46215 9.09562 6.7699 9.22444 7 9.44999C7.20188 9.69311 7.30218 10.0048 7.28 10.32V10.32ZM10.28 4.37999H9.75C9.64427 4.35999 9.53573 4.35999 9.43 4.37999C9.33274 4.42832 9.24202 4.4888 9.16 4.55999C9.08808 4.65631 9.0339 4.76466 9 4.87999C8.96022 4.98198 8.93987 5.09051 8.94 5.19999V5.42999H8.4C8.17391 5.43117 7.95217 5.49222 7.75734 5.60692C7.56251 5.72162 7.40153 5.88587 7.29079 6.08298C7.18004 6.28009 7.12348 6.50301 7.12685 6.72907C7.13023 6.95514 7.19342 7.17627 7.31 7.36999C7.46884 7.62816 7.71291 7.8227 8 7.91999V7.49999C7.99868 7.17299 8.06179 6.84895 8.18571 6.54634C8.30963 6.24374 8.49193 5.9685 8.72222 5.73636C8.95251 5.50421 9.22627 5.3197 9.52787 5.19335C9.82947 5.067 10.153 5.0013 10.48 4.99999H11.17C10.8973 4.75623 10.5949 4.54791 10.27 4.37999H10.28Z" fill="#F0EFF1"/>
<path d="M5.08 11.91C6.09199 11.6071 7.0704 11.2017 8 10.7V11.62C7.35217 11.9719 6.68437 12.2858 6 12.56C5.04471 12.9458 4.02956 13.1623 3 13.2C2.66027 13.234 2.31732 13.186 2 13.06C1.69635 12.9379 1.42571 12.7461 1.21 12.5C0.749999 11.68 1.36 10.1 3.35 8.28996C3.36108 8.64548 3.39784 8.99973 3.46 9.34996C2.19 10.57 1.75 11.62 2 12C2.25 12.38 3.38 12.44 5.08 11.91ZM1.73 3.68996C1.92512 3.7579 2.10514 3.86319 2.26 3.99996C2.41753 4.14798 2.54046 4.32895 2.62 4.52996C2.70018 4.73027 2.74093 4.94419 2.74 5.15996C2.7441 5.19034 2.75807 5.21853 2.77974 5.24021C2.80142 5.26189 2.82962 5.27585 2.86 5.27996C3 5.31996 3 5.25996 3 5.19996C3.00136 4.97614 3.04714 4.75482 3.13469 4.54882C3.22223 4.34283 3.3498 4.15627 3.51 3.99996C3.65271 3.86715 3.81887 3.76203 4 3.68996C4.19829 3.60208 4.41312 3.55775 4.63 3.55996V3.55996C4.631 3.5433 4.631 3.52661 4.63 3.50996V3.50996C4.40135 3.45507 4.18674 3.35287 4 3.20996C3.799 3.13041 3.61803 3.00749 3.47 2.84996C3.32095 2.70077 3.2021 2.5242 3.12 2.32996C3.04086 2.12934 3.00015 1.91562 3 1.69996C3 1.57996 2.89 1.57996 2.83 1.57996C2.77 1.57996 2.71 1.57996 2.71 1.69996C2.70985 1.91562 2.66914 2.12934 2.59 2.32996C2.50077 2.52269 2.37899 2.6986 2.23 2.84996C2.08197 3.00749 1.901 3.13041 1.7 3.20996C1.50286 3.28907 1.29242 3.3298 1.08 3.32996C1.06764 3.32356 1.05392 3.32022 1.04 3.32022C1.02608 3.32022 1.01236 3.32356 0.999999 3.32996C0.991008 3.35586 0.991008 3.38405 0.999999 3.40996C0.999999 3.46996 1.06 3.57996 1.12 3.51996C1.33304 3.53299 1.54092 3.59092 1.73 3.68996V3.68996ZM14.83 4.25996C14.36 3.55996 13.31 3.38996 11.62 3.79996C11.1031 3.91706 10.5951 4.07079 10.1 4.25996C10.4115 4.42293 10.7034 4.62087 10.97 4.84996C11.27 4.78996 11.56 4.66996 11.79 4.60996C12.2281 4.49899 12.6781 4.4419 13.13 4.43996C13.66 4.43996 13.95 4.54996 14.07 4.72996C14.106 4.84726 14.106 4.97265 14.07 5.08996C14.3492 5.15279 14.6139 5.26817 14.85 5.42996C14.94 5.24569 14.9911 5.04484 15 4.83996C14.9789 4.63794 14.9213 4.44142 14.83 4.25996V4.25996Z" fill="#00BCF2"/>
<path d="M13.5 6H10.5C10.1022 6 9.72064 6.15804 9.43934 6.43934C9.15804 6.72064 9 7.10218 9 7.5V15H15V7.5C15 7.10218 14.842 6.72064 14.5607 6.43934C14.2794 6.15804 13.8978 6 13.5 6ZM14 14H10V7.5C10.0023 7.36811 10.0557 7.24228 10.149 7.149C10.2423 7.05573 10.3681 7.00231 10.5 7H13.5C13.6319 7.00231 13.7577 7.05573 13.851 7.149C13.9443 7.24228 13.9977 7.36811 14 7.5V14ZM11 8H13V9H11V8ZM11 12H13V13H11V12Z" fill="#424242"/>
</g>
<defs>
<clipPath id="clip0_7198_14467">
<rect width="16" height="16" fill="white"/>
</clipPath>
</defs>
</svg>
