<svg width="16" height="16" viewBox="0 0 16 16" fill="none" xmlns="http://www.w3.org/2000/svg">
<g clip-path="url(#clip0_7198_14486)">
<path d="M8.419 8.22302C11.999 8.22302 14.902 9.41502 14.902 10.886C14.902 12.357 12 13.548 8.419 13.548C4.838 13.548 1.936 12.356 1.936 10.886C1.936 9.41602 4.839 8.22302 8.419 8.22302Z" fill="#76BC2D"/>
<path d="M6.43099 10.86C6.43099 10.535 7.39399 10.272 8.58299 10.272C9.77199 10.272 10.735 10.535 10.735 10.86C10.735 11.185 9.77199 11.447 8.58299 11.447C7.39399 11.447 6.43099 11.184 6.43099 10.86ZM8.45299 13.5C4.83999 13.5 1.93599 12.307 1.97099 10.838V12.338C1.97099 13.807 4.94399 15 8.45299 15C11.962 15 14.815 13.833 14.936 12.407V10.834C14.936 12.3 12.041 13.5 8.45299 13.5Z" fill="#5E9624"/>
<path d="M8.419 2.23206C12 2.23206 14.9 3.42406 14.9 4.89406C14.9 6.36406 12 7.55706 8.419 7.55706C4.838 7.55706 1.936 6.36506 1.936 4.89406C1.936 3.42306 4.839 2.23206 8.419 2.23206Z" fill="#5B9FEE"/>
<path d="M8.583 4.27197C9.772 4.27197 10.735 4.53497 10.735 4.85997C10.735 5.18497 9.772 5.44697 8.583 5.44697C7.394 5.44697 6.431 5.18397 6.431 4.85997C6.431 4.53597 7.394 4.27197 8.583 4.27197Z" fill="#005BA1"/>
<path d="M8.45299 7.50001C12.041 7.50001 14.936 6.30701 14.936 4.83801V6.40701C14.815 7.83301 11.963 9.00001 8.45299 9.00001C4.94299 9.00001 1.97099 7.80701 1.97099 6.33801V4.83801C1.93599 6.30001 4.83999 7.50001 8.45299 7.50001Z" fill="#0078D4"/>
</g>
<defs>
<clipPath id="clip0_7198_14486">
<rect width="16" height="16" fill="white"/>
</clipPath>
</defs>
</svg>
