<svg width="16" height="16" viewBox="0 0 16 16" fill="none" xmlns="http://www.w3.org/2000/svg">
<g clip-path="url(#clip0_7198_14394)">
<path d="M6.124 10.215H5.98C5.87448 10.223 5.76852 10.223 5.663 10.215C4.72682 10.2482 3.81562 9.90908 3.12904 9.27179C2.44245 8.6345 2.03646 7.75105 2 6.81499C2.02155 5.98474 2.34084 5.1899 2.89965 4.57548C3.45845 3.96105 4.21951 3.56799 5.044 3.46799C5.31921 2.7323 5.81563 2.09998 6.46497 1.65801C7.11431 1.21605 7.88465 0.986165 8.67 0.999989C9.64029 0.967493 10.5841 1.31973 11.2959 1.97998C12.0076 2.64023 12.4297 3.55499 12.47 4.52499C13.132 4.6123 13.7437 4.92492 14.2023 5.41027C14.6609 5.89563 14.9384 6.5241 14.988 7.18999L13.788 5.98999L13.144 6.30999L12.676 6.55199L12.254 5.39999H9.9L9.66 6.21799L9.537 6.59099L8.387 6.04699L6.76 7.65199L7.115 8.46099L7.288 8.79899L6.124 9.21999V10.215Z" fill="#007ACC"/>
<path d="M14.9 10.61V9.71L14.853 9.672L13.91 9.347L13.671 8.729L14.15 7.8L14.196 7.7L13.91 7.39L13.57 7.027L13.446 7.089L12.546 7.553L11.928 7.375L11.533 6.37H10.633L10.586 6.417L10.277 7.336L9.643 7.576L8.6 7.077L7.966 7.711L8.028 7.835L8.5 8.73499L8.244 9.354L7.155 9.748V10.648L7.286 10.687L8.244 11L8.5 11.657L8.005 12.7L8.639 13.342L8.762 13.288L9.662 12.824L10.28 13.079L10.674 14.169H11.586V13.98L11.903 13.021L12.514 12.766L13.573 13.253L14.207 12.619L14.15 12.5L13.709 11.665L13.887 11.031L14.9 10.61ZM11.1 11.444C10.8492 11.4456 10.6035 11.3727 10.3941 11.2347C10.1847 11.0966 10.0209 10.8996 9.92352 10.6684C9.82612 10.4373 9.79946 10.1824 9.84692 9.93613C9.89437 9.68983 10.0138 9.46314 10.1901 9.28473C10.3664 9.10632 10.5917 8.98421 10.8374 8.93385C11.0831 8.88348 11.3383 8.90712 11.5705 9.00178C11.8028 9.09644 12.0018 9.25786 12.1423 9.46563C12.2829 9.67339 12.3586 9.91817 12.36 10.169C12.3612 10.3355 12.3295 10.5006 12.2668 10.6549C12.2041 10.8091 12.1116 10.9495 11.9945 11.0679C11.8775 11.1863 11.7382 11.2805 11.5847 11.345C11.4312 11.4096 11.2665 11.4432 11.1 11.444V11.444Z" fill="#FCB714"/>
<path d="M7.835 13.207V12.743L7.363 12.581L7.24 12.264L7.479 11.785V11.73L7.332 11.584L7.155 11.406H7.093L6.629 11.638L6.312 11.553L6.112 11.035H5.655L5.501 11.506L5.153 11.661L4.635 11.367L4.295 11.661V11.723L4.527 12.179L4.395 12.496L3.862 12.728V13.207H3.931L4.418 13.369L4.55 13.686L4.302 14.219L4.627 14.544H4.689L5.153 14.312L5.47 14.443L5.67 15H6.126V14.93L6.288 14.443L6.597 14.312L7.138 14.559L7.463 14.235V14.173L7.231 13.717L7.316 13.392L7.835 13.207ZM5.9 13.6V13.631C5.77137 13.6327 5.64511 13.5963 5.5372 13.5263C5.42929 13.4563 5.34459 13.3558 5.29382 13.2376C5.24304 13.1194 5.22848 12.9888 5.25197 12.8623C5.27546 12.7359 5.33596 12.6192 5.42579 12.5271C5.51562 12.435 5.63076 12.3717 5.75661 12.3451C5.88247 12.3185 6.01339 12.3298 6.1328 12.3777C6.25221 12.4255 6.35474 12.5077 6.4274 12.6139C6.50007 12.72 6.5396 12.8453 6.541 12.974V12.982C6.5331 13.1473 6.46234 13.3034 6.34319 13.4182C6.22404 13.5331 6.0655 13.5981 5.9 13.6V13.6Z" fill="#76BC2D"/>
</g>
<defs>
<clipPath id="clip0_7198_14394">
<rect width="16" height="16" fill="white"/>
</clipPath>
</defs>
</svg>
