<svg width="16" height="16" viewBox="0 0 16 16" fill="none" xmlns="http://www.w3.org/2000/svg">
<g clip-path="url(#clip0_7198_14373)">
<path d="M15 5H1V2.5C1 2.36739 1.05268 2.24021 1.14645 2.14645C1.24021 2.05268 1.36739 2 1.5 2H14.5C14.6326 2 14.7598 2.05268 14.8536 2.14645C14.9473 2.24021 15 2.36739 15 2.5V5Z" fill="#0072C6"/>
<path d="M1 5H15V13.5C15 13.6326 14.9473 13.7598 14.8536 13.8536C14.7598 13.9473 14.6326 14 14.5 14H1.5C1.36739 14 1.24021 13.9473 1.14645 13.8536C1.05268 13.7598 1 13.6326 1 13.5V5Z" fill="#00BCF2"/>
<path d="M7.5 11C7.19053 10.9991 6.8889 10.9026 6.63647 10.7235C6.38404 10.5445 6.19316 10.2918 6.09 10H4C3.73478 10 3.48043 9.89464 3.29289 9.70711C3.10536 9.51957 3 9.26522 3 9V5H4V9H6.09C6.18173 8.74056 6.34305 8.51135 6.55632 8.33746C6.76959 8.16357 7.02659 8.0517 7.29918 8.01408C7.57177 7.97647 7.84946 8.01457 8.10185 8.12421C8.35425 8.23384 8.57162 8.4108 8.73017 8.6357C8.88873 8.86061 8.98237 9.12479 9.00083 9.39935C9.0193 9.67391 8.96188 9.94825 8.83487 10.1924C8.70785 10.4365 8.51614 10.6409 8.2807 10.7834C8.04526 10.9258 7.77518 11.0008 7.5 11V11ZM12 5V9H11C10.8809 8.15996 10.46 7.39206 9.81579 6.83991C9.17161 6.28776 8.34836 5.98917 7.5 6H7.42C7.30418 6.0077 7.19581 6.05987 7.11755 6.14559C7.03928 6.23131 6.99716 6.34396 7 6.46V6.55C7.00799 6.67547 7.0648 6.79283 7.15825 6.87694C7.25171 6.96105 7.37438 7.00522 7.5 7C8.16304 7 8.79893 7.26339 9.26777 7.73223C9.73661 8.20107 10 8.83696 10 9.5C10 10.163 9.73661 10.7989 9.26777 11.2678C8.79893 11.7366 8.16304 12 7.5 12C7.37438 11.9948 7.25171 12.039 7.15825 12.1231C7.0648 12.2072 7.00799 12.3245 7 12.45V12.54C6.99716 12.656 7.03928 12.7687 7.11755 12.8544C7.19581 12.9401 7.30418 12.9923 7.42 13H7.5C8.34836 13.0108 9.17161 12.7122 9.81579 12.1601C10.46 11.6079 10.8809 10.84 11 10H12C12.2652 10 12.5196 9.89464 12.7071 9.70711C12.8946 9.51957 13 9.26522 13 9V5H12Z" fill="white"/>
<path d="M7.5 8C7.79667 8 8.08668 8.08797 8.33335 8.2528C8.58003 8.41762 8.77229 8.65189 8.88582 8.92597C8.99935 9.20006 9.02906 9.50166 8.97118 9.79264C8.9133 10.0836 8.77044 10.3509 8.56066 10.5607C8.35088 10.7704 8.08361 10.9133 7.79264 10.9712C7.50166 11.0291 7.20006 10.9994 6.92597 10.8858C6.65189 10.7723 6.41762 10.58 6.2528 10.3334C6.08797 10.0867 6 9.79667 6 9.5C6 9.10218 6.15804 8.72064 6.43934 8.43934C6.72064 8.15804 7.10218 8 7.5 8V8Z" fill="#682878"/>
</g>
<defs>
<clipPath id="clip0_7198_14373">
<rect width="16" height="16" fill="white"/>
</clipPath>
</defs>
</svg>
