<svg width="16" height="16" viewBox="0 0 16 16" fill="none" xmlns="http://www.w3.org/2000/svg">
<g clip-path="url(#clip0_7198_14534)">
<path d="M15 8.99996C15 9.79561 14.6839 10.5587 14.1213 11.1213C13.5587 11.6839 12.7957 12 12 12H10.948C10.8292 12.8307 10.4154 13.5909 9.78233 14.1417C9.14926 14.6925 8.33915 14.9971 7.5 15C7.36739 15 7.24022 14.9473 7.14645 14.8535C7.05268 14.7597 7 14.6326 7 14.5C7 14.3674 7.05268 14.2402 7.14645 14.1464C7.24022 14.0526 7.36739 14 7.5 14C8.16304 14 8.79893 13.7366 9.26777 13.2677C9.73661 12.7989 10 12.163 10 11.5C10 10.8369 9.73661 10.201 9.26777 9.73219C8.79893 9.26335 8.16304 8.99996 7.5 8.99996C7.36739 8.99996 7.24022 8.94728 7.14645 8.85351C7.05268 8.75975 7 8.63257 7 8.49996C7 8.36735 7.05268 8.24017 7.14645 8.14641C7.24022 8.05264 7.36739 7.99996 7.5 7.99996C8.33932 8.00255 9.14968 8.30709 9.78296 8.85793C10.4162 9.40876 10.8301 10.1691 10.949 11H12C12.5304 11 13.0391 10.7892 13.4142 10.4142C13.7893 10.0391 14 9.53039 14 8.99996C14 8.46953 13.7893 7.96082 13.4142 7.58575C13.0391 7.21067 12.5304 6.99996 12 6.99996H11V5.99996C11.0024 5.26745 10.7361 4.5595 10.2515 4.01019C9.76687 3.46088 9.09766 3.10835 8.37057 3.01938C7.64348 2.9304 6.90901 3.11115 6.30625 3.5274C5.7035 3.94365 5.27432 4.56649 5.1 5.27796L4.932 5.95696L4.232 6.03196C3.6011 6.09822 3.01925 6.40269 2.60514 6.88325C2.19104 7.36382 1.97588 7.98427 2.00356 8.61804C2.03124 9.2518 2.29968 9.85113 2.75411 10.2938C3.20854 10.7364 3.81473 10.989 4.449 11H8V12H4.5C3.60511 12.0016 2.74376 11.6595 2.09385 11.0443C1.44393 10.4291 1.05508 9.58784 1.00759 8.69421C0.960107 7.80057 1.25761 6.92283 1.83868 6.24224C2.41974 5.56164 3.23998 5.13019 4.13 5.03696C4.36362 4.089 4.93644 3.25947 5.74019 2.70522C6.54393 2.15096 7.52289 1.91038 8.49199 2.02896C9.46109 2.14754 10.3532 2.61707 10.9995 3.34877C11.6459 4.08047 12.0019 5.02364 12 5.99996C12.7957 5.99996 13.5587 6.31603 14.1213 6.87864C14.6839 7.44125 15 8.20431 15 8.99996Z" fill="#1BA1E2"/>
<path d="M8.74899 11.5C8.7486 11.7472 8.67509 11.9888 8.53772 12.1943C8.40035 12.3998 8.20526 12.5601 7.97699 12.655C7.72922 12.7575 7.45504 12.7777 7.19494 12.7125C6.93484 12.6472 6.70262 12.5001 6.53255 12.2928C6.36248 12.0854 6.26359 11.8289 6.25049 11.5611C6.23738 11.2933 6.31075 11.0283 6.45976 10.8054C6.60877 10.5824 6.82553 10.4133 7.07801 10.323C7.3305 10.2327 7.60534 10.226 7.86194 10.3039C8.11854 10.3817 8.3433 10.54 8.50303 10.7554C8.66276 10.9708 8.74899 11.2318 8.74899 11.5Z" fill="#652D90"/>
</g>
<defs>
<clipPath id="clip0_7198_14534">
<rect width="16" height="16" fill="white"/>
</clipPath>
</defs>
</svg>
