<svg width="16" height="16" viewBox="0 0 16 16" fill="none" xmlns="http://www.w3.org/2000/svg">
<g clip-path="url(#clip0_7198_14699)">
<path d="M11 14.553H5.00001C4.99921 14.3883 5.05932 14.229 5.16877 14.1059C5.27823 13.9828 5.42931 13.9045 5.59301 13.886C6.78001 13.7 6.82001 12.4 6.82001 11.021H9.17301C9.17301 12.401 9.22001 13.7 10.407 13.886C10.5707 13.9045 10.7218 13.9828 10.8312 14.1059C10.9407 14.229 11.0008 14.3883 11 14.553V14.553Z" fill="#7A7A7A"/>
<path d="M1.451 2H14.551C14.6703 2.00053 14.7845 2.04828 14.8686 2.1328C14.9528 2.21732 15 2.33173 15 2.451V10.562C14.9997 10.6814 14.9521 10.7959 14.8676 10.8803C14.783 10.9646 14.6684 11.012 14.549 11.012H1.451C1.33156 11.012 1.217 10.9646 1.13245 10.8803C1.0479 10.7959 1.00026 10.6814 1 10.562V2.451C1 2.33139 1.04752 2.21667 1.13209 2.13209C1.21667 2.04752 1.33139 2 1.451 2V2Z" fill="#0078D4"/>
<path d="M10.588 5.005V8L8 9.5V6.505L10.588 5.005Z" fill="#32D4F5"/>
<path d="M10.588 5.005V8L8 9.5V6.505L10.588 5.005Z" fill="#2FA2C8"/>
<path d="M10.588 5.005L8 6.51L5.41 5.01L8 3.5L10.588 5.005Z" fill="#9CEBFF"/>
<path d="M8 6.51V9.5L5.412 8V5.005L8 6.51Z" fill="#50E6FF"/>
<path d="M10.588 8L8 9.5L5.412 8V5.005L8 6.51L10.588 8Z" fill="#32BEDD"/>
<path d="M8 6.51V9.5L5.412 8L8 6.506L5.416 5.006L8 3.5L10.586 5.005L8 6.51Z" fill="#9CEBFF"/>
</g>
<defs>
<clipPath id="clip0_7198_14699">
<rect width="16" height="16" fill="white"/>
</clipPath>
</defs>
</svg>
