<svg width="16" height="16" viewBox="0 0 16 16" fill="none" xmlns="http://www.w3.org/2000/svg">
<g clip-path="url(#clip0_7198_14506)">
<path d="M5.294 10.7629C5.31396 10.7825 5.32981 10.8058 5.34063 10.8316C5.35146 10.8574 5.35703 10.885 5.35703 10.9129C5.35703 10.9409 5.35146 10.9685 5.34063 10.9943C5.32981 11.0201 5.31396 11.0434 5.294 11.0629L4.835 11.5229C4.81567 11.5424 4.79269 11.5578 4.76737 11.5683C4.74206 11.5789 4.71492 11.5843 4.6875 11.5843C4.66008 11.5843 4.63294 11.5789 4.60763 11.5683C4.58231 11.5578 4.55933 11.5424 4.54 11.5229L1.131 8.12295C1.05296 8.0446 1.00914 7.93853 1.00914 7.82795C1.00914 7.71737 1.05296 7.61129 1.131 7.53295L1.592 7.06995L5.294 10.7629ZM14.872 7.53395L14.414 7.07395L10.714 10.7679C10.675 10.8071 10.6531 10.8602 10.6531 10.9154C10.6531 10.9707 10.675 11.0238 10.714 11.0629L11.173 11.5229C11.2122 11.562 11.2652 11.5839 11.3205 11.5839C11.3758 11.5839 11.4288 11.562 11.468 11.5229L14.877 8.12295C14.9543 8.04411 14.9972 7.93783 14.9963 7.82741C14.9953 7.71699 14.9506 7.61146 14.872 7.53395V7.53395Z" fill="#50E6FF"/>
<path d="M5.224 4.63096C5.26302 4.67013 5.28493 4.72316 5.28493 4.77846C5.28493 4.83375 5.26302 4.88678 5.224 4.92596L1.585 8.57596L1.123 8.11495C1.08412 8.0763 1.05326 8.03033 1.03221 7.9797C1.01115 7.92908 1.00031 7.87479 1.00031 7.81996C1.00031 7.76512 1.01115 7.71083 1.03221 7.66021C1.05326 7.60958 1.08412 7.56362 1.123 7.52496L4.467 4.16996C4.50617 4.13093 4.55921 4.10903 4.6145 4.10903C4.66979 4.10903 4.72283 4.13093 4.762 4.16996L5.224 4.63096ZM14.878 7.52295L11.533 4.16796C11.5135 4.14788 11.4902 4.13191 11.4644 4.12101C11.4387 4.11011 11.411 4.10449 11.383 4.10449C11.355 4.10449 11.3273 4.11011 11.3016 4.12101C11.2758 4.13191 11.2525 4.14788 11.233 4.16796L10.771 4.62795C10.7509 4.64744 10.735 4.67075 10.7241 4.69652C10.7132 4.72229 10.7075 4.74998 10.7075 4.77796C10.7075 4.80593 10.7132 4.83363 10.7241 4.85939C10.735 4.88516 10.7509 4.90847 10.771 4.92796L14.41 8.57695L14.872 8.11695C14.9119 8.07863 14.9437 8.03273 14.9657 7.98195C14.9876 7.93117 14.9992 7.87653 14.9997 7.82122C15.0003 7.7659 14.9898 7.71104 14.9689 7.65982C14.948 7.60861 14.9171 7.56208 14.878 7.52295V7.52295Z" fill="#1490DF"/>
<path d="M7.577 8.55095H4.767C4.72751 8.55233 4.68903 8.53828 4.65972 8.51177C4.63041 8.48526 4.61258 8.44838 4.61 8.40895C4.61048 8.3884 4.61561 8.36823 4.625 8.34995L7.993 1.68495C8.00716 1.65872 8.02828 1.63691 8.05404 1.62191C8.0798 1.60691 8.1092 1.59931 8.139 1.59995H11.462C11.5013 1.59855 11.5397 1.61247 11.569 1.63877C11.5982 1.66506 11.6162 1.70169 11.619 1.74095C11.6188 1.76951 11.6093 1.79723 11.592 1.81995L7.636 7.03695H11.494C11.5334 7.03504 11.5719 7.04881 11.6011 7.07524C11.6304 7.10166 11.6479 7.13859 11.65 7.17795C11.6504 7.19646 11.6471 7.21486 11.6402 7.23205C11.6334 7.24923 11.6231 7.26485 11.61 7.27795L5.2 13.9429C5.14 13.9789 4.712 14.3349 4.922 13.7949L7.577 8.55095Z" fill="#FEA11B"/>
</g>
<defs>
<clipPath id="clip0_7198_14506">
<rect width="16" height="16" fill="white"/>
</clipPath>
</defs>
</svg>
