<svg width="16" height="16" viewBox="0 0 16 16" fill="none" xmlns="http://www.w3.org/2000/svg">
<g clip-path="url(#clip0_7198_14420)">
<path d="M2.25 5.33997V10.2L1.84 10.11L1.07 9.93997C1.05055 9.93388 1.03343 9.922 1.02092 9.90592C1.00841 9.88983 1.00111 9.87031 1 9.84997V5.64997C1.00111 5.62962 1.00841 5.6101 1.02092 5.59401C1.03343 5.57793 1.05055 5.56605 1.07 5.55997L1.86 5.40997L2.25 5.33997Z" fill="#A67AF4"/>
<path d="M8.91 10.6199L10.2 10.8999L7.62 11.9699H7.56C7.53309 11.9662 7.50834 11.9532 7.49006 11.9331C7.47179 11.913 7.46115 11.8871 7.46 11.8599V3.67995C7.46 3.61995 7.5 3.57995 7.57 3.56995H7.62L7.63 3.57995L10.5 4.57995L8.91 4.87995C8.72395 4.92278 8.55772 5.02694 8.43801 5.17566C8.3183 5.32439 8.25209 5.50904 8.25 5.69995V9.78995C8.25002 9.98252 8.31528 10.1694 8.43513 10.3201C8.55499 10.4709 8.72238 10.5765 8.91 10.6199V10.6199Z" fill="#773ADC"/>
<path d="M7.708 3.70502V11.831C7.70899 11.8403 7.70899 11.8497 7.708 11.859C7.70453 11.8767 7.69761 11.8935 7.68764 11.9085C7.67767 11.9235 7.66484 11.9364 7.64989 11.9464C7.63493 11.9564 7.61815 11.9634 7.6005 11.9669C7.58284 11.9705 7.56466 11.9705 7.547 11.967L3.107 11C3.0758 10.9932 3.04799 10.9757 3.02843 10.9505C3.00886 10.9252 2.9988 10.8939 3 10.862V4.54102C2.99975 4.50927 3.01046 4.47841 3.03031 4.45363C3.05017 4.42886 3.07796 4.41169 3.109 4.40502L7.548 3.56702H7.574C7.59186 3.56728 7.60949 3.57105 7.62589 3.57813C7.6423 3.58521 7.65714 3.59545 7.66958 3.60826C7.68203 3.62108 7.69183 3.63622 7.69842 3.65282C7.70501 3.66942 7.70826 3.68716 7.708 3.70502V3.70502Z" fill="#A67AF4"/>
<path opacity="0.25" d="M7.041 4.55005V10.966L5.5 10.709V4.82805L7.041 4.55005ZM3.6 10.3L4.944 10.583V4.91305L3.6 5.14505V10.3Z" fill="#F4F4F4"/>
<path d="M15 6.247V9.154C14.9995 9.18609 14.9898 9.21737 14.9721 9.24413C14.9544 9.27089 14.9294 9.29201 14.9 9.305L14.321 9.544L12 10.5H11.963C11.943 10.4997 11.9239 10.4916 11.9099 10.4774C11.8959 10.4632 11.888 10.444 11.888 10.424V5.146C11.888 5.13228 11.8919 5.11884 11.8991 5.10718C11.9064 5.09553 11.9167 5.08612 11.929 5.08H11.943C11.9452 5.079 11.9476 5.07849 11.95 5.07849C11.9524 5.07849 11.9548 5.079 11.957 5.08C11.9661 5.07896 11.9753 5.08108 11.983 5.086H12L14.284 5.877L14.889 6.09C14.9219 6.10075 14.9505 6.12183 14.9705 6.15011C14.9905 6.17839 15.0008 6.21237 15 6.247V6.247Z" fill="#773ADC"/>
<path d="M12.046 5.16305V10.423C12.047 10.4297 12.047 10.4364 12.046 10.443V10.443C12.0412 10.4649 12.0281 10.4841 12.0095 10.4966C11.9908 10.5091 11.9681 10.5139 11.946 10.51L9.069 9.88305C9.05007 9.87853 9.03312 9.868 9.02068 9.85304C9.00824 9.83807 9.00098 9.81948 9 9.80005V5.70004C8.99976 5.67956 9.00659 5.65962 9.01934 5.64359C9.03209 5.62756 9.04999 5.61642 9.07 5.61204L11.944 5.07105H11.959C11.9709 5.07103 11.9826 5.07343 11.9935 5.07811C12.0044 5.08279 12.0142 5.08965 12.0224 5.09827C12.0305 5.10688 12.0368 5.11707 12.0409 5.12821C12.0449 5.13935 12.0467 5.15121 12.046 5.16305V5.16305Z" fill="#A67AF4"/>
<path d="M4.09 3.46001L2.436 3.76501C3.088 2.90693 3.92933 2.21097 4.89442 1.73137C5.85951 1.25177 6.92231 1.00149 8 1.00001C8.79387 0.99855 9.58207 1.13386 10.33 1.40001C10.1427 1.68355 10.0324 2.01094 10.01 2.35001C9.36585 2.11586 8.68539 1.99737 8 2.00001C6.56208 1.99274 5.17124 2.51208 4.09 3.46001V3.46001ZM2.95 11.73C2.7711 11.691 2.60906 11.5965 2.48697 11.4601C2.36488 11.3236 2.28895 11.1521 2.27 10.97L1.6 10.82C1.82251 11.3303 2.10807 11.8107 2.45 12.25C2.60932 12.0475 2.80627 11.8778 3.03 11.75L2.95 11.73ZM13.33 10.76C12.8231 11.7361 12.0581 12.5543 11.1182 13.1256C10.1784 13.6969 9.09984 13.9994 8 14C7.31461 14.0026 6.63415 13.8842 5.99 13.65C5.96758 13.9891 5.8573 14.3165 5.67 14.6C6.41793 14.8662 7.20613 15.0015 8 15C9.46786 14.9986 10.8983 14.5366 12.0895 13.679C13.2808 12.8214 14.1729 11.6116 14.64 10.22L13.33 10.76ZM12.96 4.63001L14.37 5.12001C14.1574 4.62962 13.8818 4.16906 13.55 3.75001C13.3424 4.01441 13.0704 4.22102 12.76 4.35001C12.8323 4.4392 12.8991 4.53271 12.96 4.63001V4.63001ZM12 3.75001C12.2472 3.75001 12.4889 3.6767 12.6945 3.53935C12.9 3.402 13.0602 3.20677 13.1548 2.97837C13.2495 2.74996 13.2742 2.49863 13.226 2.25615C13.1777 2.01367 13.0587 1.79094 12.8839 1.61613C12.7091 1.44131 12.4863 1.32226 12.2439 1.27403C12.0014 1.2258 11.7501 1.25055 11.5216 1.34516C11.2932 1.43977 11.098 1.59999 10.9607 1.80555C10.8233 2.01111 10.75 2.25279 10.75 2.50001C10.75 2.83153 10.8817 3.14947 11.1161 3.3839C11.3505 3.61832 11.6685 3.75001 12 3.75001V3.75001ZM4 12.25C3.75277 12.25 3.5111 12.3233 3.30554 12.4607C3.09998 12.598 2.93976 12.7932 2.84515 13.0217C2.75054 13.2501 2.72579 13.5014 2.77402 13.7439C2.82225 13.9864 2.9413 14.2091 3.11612 14.3839C3.29093 14.5587 3.51366 14.6778 3.75614 14.726C3.99861 14.7742 4.24995 14.7495 4.47835 14.6549C4.70676 14.5603 4.90199 14.4 5.03934 14.1945C5.17669 13.9889 5.25 13.7472 5.25 13.5C5.25 13.1685 5.1183 12.8505 4.88388 12.6161C4.64946 12.3817 4.33152 12.25 4 12.25Z" fill="#32BEDD"/>
</g>
<defs>
<clipPath id="clip0_7198_14420">
<rect width="16" height="16" fill="white"/>
</clipPath>
</defs>
</svg>
