<svg width="16" height="16" viewBox="0 0 16 16" fill="none" xmlns="http://www.w3.org/2000/svg">
<g clip-path="url(#clip0_7198_14683)">
<path d="M12 6.50998C12.301 6.2185 12.4739 5.81939 12.4806 5.40044C12.4874 4.98149 12.3274 4.57702 12.036 4.27598L12 4.23998L9.17 1.46998C8.85519 1.1683 8.43602 0.999878 8 0.999878C7.56398 0.999878 7.1448 1.1683 6.83 1.46998L4 4.23998C3.69901 4.53147 3.52612 4.93058 3.51937 5.34953C3.51262 5.76848 3.67255 6.17295 3.964 6.47398L4 6.50998L6.35 8.85998C6.43543 8.94102 6.48569 9.05231 6.49 9.16998V13.46C6.49172 13.6027 6.54914 13.739 6.65 13.84L7.74 14.9C7.77498 14.931 7.81577 14.9548 7.86 14.97C7.90403 14.9897 7.95174 15 8 15C8.04826 15 8.09597 14.9897 8.14 14.97C8.18423 14.9548 8.22501 14.931 8.26 14.9L9.31 13.9L9.93 13.3C9.94988 13.2805 9.96549 13.2571 9.97582 13.2313C9.98615 13.2055 9.99098 13.1778 9.99 13.15C9.98964 13.0942 9.96821 13.0406 9.93 13L9.48 12.57C9.44085 12.5259 9.41922 12.469 9.41922 12.41C9.41922 12.351 9.44085 12.2941 9.48 12.25L9.93 11.82C9.96821 11.7793 9.98964 11.7258 9.99 11.67C9.99098 11.6422 9.98615 11.6145 9.97582 11.5887C9.96549 11.5628 9.94988 11.5394 9.93 11.52L9.48 11.09C9.44126 11.0437 9.42004 10.9853 9.42004 10.925C9.42004 10.8647 9.44126 10.8062 9.48 10.76L9.93 10.33C9.94988 10.3105 9.96549 10.2871 9.97582 10.2613C9.98615 10.2355 9.99098 10.2078 9.99 10.18C9.99787 10.1474 9.99642 10.1132 9.98581 10.0814C9.9752 10.0496 9.95586 10.0214 9.93 9.99998L9.31 9.38999V9.18998L12 6.50998ZM8 2.13998C8.18382 2.14124 8.36375 2.19314 8.52 2.28998C8.6674 2.3971 8.78734 2.5376 8.87 2.69998C8.93425 2.86889 8.95153 3.05205 8.92 3.22998C8.88001 3.40538 8.78964 3.56526 8.66 3.68998C8.52995 3.82129 8.36214 3.90869 8.18 3.93998C8.00424 3.99526 7.81575 3.99526 7.64 3.93998C7.42018 3.85729 7.24195 3.69105 7.14417 3.47751C7.04639 3.26397 7.03698 3.02043 7.118 2.79998C7.16513 2.67122 7.24106 2.55493 7.34 2.45998C7.42295 2.36513 7.52412 2.28793 7.6375 2.23295C7.75088 2.17798 7.87415 2.14636 8 2.13998V2.13998Z" fill="#FCB714"/>
<path d="M8 9.25V13.25C8 13.3163 7.97366 13.3799 7.92678 13.4268C7.87989 13.4737 7.8163 13.5 7.75 13.5C7.6837 13.5 7.62011 13.4737 7.57322 13.4268C7.52634 13.3799 7.5 13.3163 7.5 13.25V9.25C7.5 9.1837 7.52634 9.12011 7.57322 9.07322C7.62011 9.02634 7.6837 9 7.75 9C7.8163 9 7.87989 9.02634 7.92678 9.07322C7.97366 9.12011 8 9.1837 8 9.25ZM5.75 5.5H10.25C10.3163 5.5 10.3799 5.47366 10.4268 5.42678C10.4737 5.37989 10.5 5.3163 10.5 5.25C10.5 5.1837 10.4737 5.12011 10.4268 5.07322C10.3799 5.02634 10.3163 5 10.25 5H5.75C5.6837 5 5.62011 5.02634 5.57322 5.07322C5.52634 5.12011 5.5 5.1837 5.5 5.25C5.5 5.3163 5.52634 5.37989 5.57322 5.42678C5.62011 5.47366 5.6837 5.5 5.75 5.5ZM10.25 6H5.75C5.6837 6 5.62011 6.02634 5.57322 6.07322C5.52634 6.12011 5.5 6.1837 5.5 6.25C5.5 6.3163 5.52634 6.37989 5.57322 6.42678C5.62011 6.47366 5.6837 6.5 5.75 6.5H10.25C10.3163 6.5 10.3799 6.47366 10.4268 6.42678C10.4737 6.37989 10.5 6.3163 10.5 6.25C10.5 6.1837 10.4737 6.12011 10.4268 6.07322C10.3799 6.02634 10.3163 6 10.25 6Z" fill="#F28300"/>
</g>
<defs>
<clipPath id="clip0_7198_14683">
<rect width="16" height="16" fill="white"/>
</clipPath>
</defs>
</svg>
