<svg width="16" height="16" viewBox="0 0 16 16" fill="none" xmlns="http://www.w3.org/2000/svg">
<path d="M8.5 15H2.5C1.673 15 1 14.327 1 13.5V7.5C1 6.673 1.673 6 2.5 6H8.5C9.327 6 10 6.673 10 7.5V13.5C10 14.327 9.327 15 8.5 15Z" fill="#202020"/>
<path d="M13.5 1H7.5C6.67 1 6 1.67 6 2.5V5H7V2.5C7 2.22 7.22 2 7.5 2H13.5C13.78 2 14 2.22 14 2.5V8.5C14 8.78 13.78 9 13.5 9H11V10H13.5C14.33 10 15 9.33 15 8.5V2.5C15 1.67 14.33 1 13.5 1Z" fill="#202020"/>
<path d="M13 3V8H11V7.5C11 6.12 9.88 5 8.5 5H8V3H13Z" fill="#006CBF"/>
</svg>
