<svg width="16" height="16" viewBox="0 0 16 16" fill="none" xmlns="http://www.w3.org/2000/svg">
<path d="M2 4.5C2 3.119 3.119 2 4.5 2H11.5C12.881 2 14 3.119 14 4.5V11.5C14 12.881 12.881 14 11.5 14H4.5C3.119 14 2 12.881 2 11.5V4.5ZM4.5 3C3.672 3 3 3.672 3 4.5V11.5C3 12.328 3.672 13 4.5 13H11.5C12.328 13 13 12.328 13 11.5V4.5C13 3.672 12.328 3 11.5 3H4.5ZM9.697 11.96C9.951 11.851 10.068 11.557 9.96 11.303L6.96 4.303C6.85 4.049 6.555 3.934 6.303 4.04C6.049 4.149 5.932 4.443 6.04 4.697L9.04 11.697C9.122 11.886 9.307 12 9.5 12C9.566 12 9.633 11.987 9.697 11.96Z" fill="#202020"/>
</svg>
