<svg width="16" height="16" viewBox="0 0 16 16" fill="none" xmlns="http://www.w3.org/2000/svg">
<path d="M4 14H2C1.448 14 1 13.552 1 13V12C1 11.448 1.448 11 2 11H4C4.552 11 5 11.448 5 12V13C5 13.552 4.552 14 4 14ZM2 12V13H4V12H2ZM9 10H7C6.448 10 6 9.552 6 9V8C6 7.448 6.448 7 7 7H9C9.552 7 10 7.448 10 8V9C10 9.552 9.552 10 9 10ZM7 8V9H9V8H7ZM14 6H12C11.448 6 11 5.552 11 5V4C11 3.448 11.448 3 12 3H14C14.552 3 15 3.448 15 4V5C15 5.552 14.552 6 14 6ZM12 4V5H14V4H12ZM4 10H2C1.448 10 1 9.552 1 9V8C1 7.448 1.448 7 2 7H4C4.552 7 5 7.448 5 8V9C5 9.552 4.552 10 4 10ZM2 8V9H4V8H2ZM9 6H7C6.448 6 6 5.552 6 5V4C6 3.448 6.448 3 7 3H9C9.552 3 10 3.448 10 4V5C10 5.552 9.552 6 9 6ZM7 4V5H9V4H7ZM4 6H2C1.448 6 1 5.552 1 5V4C1 3.448 1.448 3 2 3H4C4.552 3 5 3.448 5 4V5C5 5.552 4.552 6 4 6ZM2 4V5H4V4H2Z" fill="#202020"/>
</svg>
