<svg width="16" height="16" viewBox="0 0 16 16" fill="none" xmlns="http://www.w3.org/2000/svg">
<path d="M6.75 1H13.25C14.216 1 15 1.784 15 2.75V12.25C15 13.216 14.216 14 13.25 14H12V13H13.25C13.664 13 14 12.664 14 12.25V2.75C14 2.336 13.664 2 13.25 2H6.75C6.336 2 6 2.336 6 2.75V8H5V2.75C5 1.784 5.784 1 6.75 1Z" fill="#202020"/>
<path d="M7.5 8H10.5C10.776 8 11 7.776 11 7.5C11 7.224 10.776 7 10.5 7H7.5C7.224 7 7 7.224 7 7.5C7 7.776 7.224 8 7.5 8Z" fill="#202020"/>
<path d="M12.5 4H7.5C7.224 4 7 4.224 7 4.5C7 4.776 7.224 5 7.5 5H12.5C12.776 5 13 4.776 13 4.5C13 4.224 12.776 4 12.5 4Z" fill="#202020"/>
<path d="M13 7.5C13 7.77614 12.7761 8 12.5 8C12.2239 8 12 7.77614 12 7.5C12 7.22386 12.2239 7 12.5 7C12.7761 7 13 7.22386 13 7.5Z" fill="#202020"/>
<path d="M9.5 16H8.5C8.224 16 8 15.776 8 15.5C8 15.224 8.224 15 8.5 15H9.5C9.775 15 10 14.775 10 14.5V13.5C10 13.224 10.224 13 10.5 13C10.776 13 11 13.224 11 13.5V14.5C11 15.327 10.327 16 9.5 16ZM11 11.5V10.5C11 9.673 10.327 9 9.5 9H8.5C8.224 9 8 9.224 8 9.5C8 9.776 8.224 10 8.5 10H9.5C9.775 10 10 10.225 10 10.5V11.5C10 11.776 10.224 12 10.5 12C10.776 12 11 11.776 11 11.5ZM7 9.5C7 9.224 6.776 9 6.5 9H4.5C4.224 9 4 9.224 4 9.5C4 9.776 4.224 10 4.5 10H6.5C6.776 10 7 9.776 7 9.5ZM1 11.5V10.5C1 10.225 1.225 10 1.5 10H2.5C2.776 10 3 9.776 3 9.5C3 9.224 2.776 9 2.5 9H1.5C0.673 9 0 9.673 0 10.5V11.5C0 11.776 0.224 12 0.5 12C0.776 12 1 11.776 1 11.5ZM3 15.5C3 15.224 2.776 15 2.5 15H1.5C1.225 15 1 14.775 1 14.5V13.5C1 13.224 0.776 13 0.5 13C0.224 13 0 13.224 0 13.5V14.5C0 15.327 0.673 16 1.5 16H2.5C2.776 16 3 15.776 3 15.5ZM7 15.5C7 15.224 6.776 15 6.5 15H4.5C4.224 15 4 15.224 4 15.5C4 15.776 4.224 16 4.5 16H6.5C6.776 16 7 15.776 7 15.5ZM5 11.5C5 11.224 4.776 11 4.5 11H2.5C2.224 11 2 11.224 2 11.5C2 11.776 2.224 12 2.5 12H4.5C4.776 12 5 11.776 5 11.5ZM9 13.5C9 13.224 8.776 13 8.5 13H2.5C2.224 13 2 13.224 2 13.5C2 13.776 2.224 14 2.5 14H8.5C8.776 14 9 13.776 9 13.5Z" fill="#202020"/>
</svg>
