<svg width="16" height="16" viewBox="0 0 16 16" fill="none" xmlns="http://www.w3.org/2000/svg">
<path d="M13.5 2H6.5C6.367 2 6.24 2.053 6.146 2.146L2.146 6.146C2.052 6.24 2 6.367 2 6.5V13.5C2 13.776 2.224 14 2.5 14H10.5C10.776 14 11 13.776 11 13.5V11H13.5C13.776 11 14 10.776 14 10.5V2.5C14 2.224 13.776 2 13.5 2ZM3 13V6.707L6.707 3H13V6H8C8 5.449 7.551 5 7 5H6C5.449 5 5 5.449 5 6V7C5 7.551 5.449 8 6 8V13H3ZM6 7V6H7V7H6ZM13 10H10.5C10.224 10 10 10.224 10 10.5V13H7V8C7.551 8 8 7.551 8 7H13V10Z" fill="#202020"/>
</svg>
