<svg width="16" height="16" viewBox="0 0 16 16" fill="none" xmlns="http://www.w3.org/2000/svg">
<path d="M12.5 12C12.3674 12 12.2402 11.9473 12.1464 11.8536C12.0527 11.7598 12 11.6326 12 11.5V4C12 3.73478 11.8946 3.48043 11.7071 3.29289C11.5196 3.10536 11.2652 3 11 3H5C4.73478 3 4.48043 3.10536 4.29289 3.29289C4.10536 3.48043 4 3.73478 4 4V11.5C4 11.6326 3.94732 11.7598 3.85355 11.8536C3.75979 11.9473 3.63261 12 3.5 12C3.36739 12 3.24021 11.9473 3.14645 11.8536C3.05268 11.7598 3 11.6326 3 11.5V4C3 3.46957 3.21071 2.96086 3.58579 2.58579C3.96086 2.21071 4.46957 2 5 2H11C11.5304 2 12.0391 2.21071 12.4142 2.58579C12.7893 2.96086 13 3.46957 13 4V11.5C13 11.6326 12.9473 11.7598 12.8536 11.8536C12.7598 11.9473 12.6326 12 12.5 12Z" fill="#202020"/>
<path d="M6.5 6C6.10218 6 5.72064 6.15804 5.43934 6.43934C5.15804 6.72064 5 7.10218 5 7.5V9.5C5 9.89782 5.15804 10.2794 5.43934 10.5607C5.72064 10.842 6.10218 11 6.5 11C6.89782 11 7.27936 10.842 7.56066 10.5607C7.84196 10.2794 8 9.89782 8 9.5V7.5C8 7.10218 7.84196 6.72064 7.56066 6.43934C7.27936 6.15804 6.89782 6 6.5 6ZM7 9.5C7 9.63261 6.94732 9.75979 6.85355 9.85355C6.75979 9.94732 6.63261 10 6.5 10C6.36739 10 6.24021 9.94732 6.14645 9.85355C6.05268 9.75979 6 9.63261 6 9.5V7.5C6 7.36739 6.05268 7.24021 6.14645 7.14645C6.24021 7.05268 6.36739 7 6.5 7C6.63261 7 6.75979 7.05268 6.85355 7.14645C6.94732 7.24021 7 7.36739 7 7.5V9.5ZM11 6.5V10.5C11 10.6326 10.9473 10.7598 10.8536 10.8536C10.7598 10.9473 10.6326 11 10.5 11C10.3674 11 10.2402 10.9473 10.1464 10.8536C10.0527 10.7598 10 10.6326 10 10.5V7.823C9.89103 7.88403 9.77652 7.93459 9.658 7.974C9.59505 7.99767 9.52796 8.0084 9.46077 8.00555C9.39357 8.00269 9.32764 7.98631 9.26692 7.95738C9.2062 7.92844 9.15195 7.88756 9.1074 7.83717C9.06285 7.78678 9.02893 7.72792 9.00766 7.66411C8.98639 7.60031 8.97821 7.53287 8.98362 7.46582C8.98902 7.39878 9.00789 7.33352 9.03911 7.27395C9.07033 7.21437 9.11324 7.16171 9.16528 7.1191C9.21733 7.0765 9.27743 7.04483 9.342 7.026C9.49705 6.96558 9.63784 6.87357 9.75542 6.75581C9.873 6.63806 9.9648 6.49714 10.025 6.342C10.0624 6.22915 10.1389 6.13334 10.2406 6.07176C10.3423 6.01018 10.4626 5.98687 10.58 6.006C10.6973 6.02501 10.804 6.08517 10.8809 6.17569C10.9579 6.26621 11.0001 6.38118 11 6.5Z" fill="#202020"/>
<path d="M5.5 13.5C5.5 13.6326 5.44732 13.7598 5.35355 13.8536C5.25979 13.9473 5.13261 14 5 14H3.5C3.36739 14 3.24021 13.9473 3.14645 13.8536C3.05268 13.7598 3 13.6326 3 13.5C3 13.3674 3.05268 13.2402 3.14645 13.1464C3.24021 13.0527 3.36739 13 3.5 13H5C5.13261 13 5.25979 13.0527 5.35355 13.1464C5.44732 13.2402 5.5 13.3674 5.5 13.5ZM9 13H7C6.86739 13 6.74021 13.0527 6.64645 13.1464C6.55268 13.2402 6.5 13.3674 6.5 13.5C6.5 13.6326 6.55268 13.7598 6.64645 13.8536C6.74021 13.9473 6.86739 14 7 14H9C9.13261 14 9.25979 13.9473 9.35355 13.8536C9.44732 13.7598 9.5 13.6326 9.5 13.5C9.5 13.3674 9.44732 13.2402 9.35355 13.1464C9.25979 13.0527 9.13261 13 9 13ZM12.5 13H11C10.8674 13 10.7402 13.0527 10.6464 13.1464C10.5527 13.2402 10.5 13.3674 10.5 13.5C10.5 13.6326 10.5527 13.7598 10.6464 13.8536C10.7402 13.9473 10.8674 14 11 14H12.5C12.6326 14 12.7598 13.9473 12.8536 13.8536C12.9473 13.7598 13 13.6326 13 13.5C13 13.3674 12.9473 13.2402 12.8536 13.1464C12.7598 13.0527 12.6326 13 12.5 13Z" fill="#202020"/>
</svg>
