<svg width="16" height="16" viewBox="0 0 16 16" fill="none" xmlns="http://www.w3.org/2000/svg">
<path d="M4 1.55514C4 1.10707 4.49834 0.838865 4.87232 1.08566L6.32618 2.04506C6.74686 2.32268 7 2.79301 7 3.29704V12.2397H4.8L4 10.6V1.55514Z" fill="#1355F4"/>
<path d="M5.20554 11.656L5.17642 11.6443C4.66495 11.4398 4.24635 11.0546 4 10.5619C4 12.4628 5.54099 14.0038 7.4419 14.0038H7.4893C8.2052 14.0038 8.90378 13.7836 9.49028 13.373L11.7699 11.7773C12.1733 11.4949 12.4135 11.0335 12.4135 10.5411V9.92635C12.4135 9.4325 12.0132 9.03215 11.5193 9.03215C11.3539 9.03215 11.1916 9.07807 11.0507 9.1648L7.29356 11.4769C6.6651 11.8636 5.89068 11.9301 5.20554 11.656Z" fill="#47C2FC"/>
<path d="M8.37854 7.56892L7.85287 5.83923C7.80453 5.68019 7.82337 5.50829 7.90502 5.36349C8.07181 5.06767 8.44849 4.96567 8.74177 5.1369L11.5111 6.75383C12.3193 7.22572 12.862 8.04673 12.9794 8.97521C13.1048 9.96735 12.7293 10.957 11.9771 11.6161L11.9231 11.6635L11.6503 11.8606C12.2877 11.3496 12.4053 10.4252 11.9163 9.77078C11.7426 9.53831 11.5058 9.36051 11.2341 9.25862L9.27433 8.52369C8.84346 8.36212 8.51235 8.0092 8.37854 7.56892Z" fill="#4CE7ED"/>
</svg>
