<svg width="16" height="16" viewBox="0 0 16 16" fill="none" xmlns="http://www.w3.org/2000/svg">
<g clip-path="url(#clip0_7199_47092)">
<path d="M15.5 8.5C15.633 8.5 15.76 8.447 15.854 8.354C15.948 8.26 16 8.133 16 8C16 7.867 15.947 7.74 15.854 7.646C15.76 7.552 15.633 7.5 15.5 7.5H14V6H15.5C15.633 6 15.76 5.947 15.854 5.854C15.948 5.76 16 5.633 16 5.5C16 5.367 15.947 5.24 15.854 5.146C15.76 5.052 15.633 5 15.5 5H14C14 4.47 13.789 3.961 13.414 3.586C13.039 3.211 12.53 3 12 3V1.5C12 1.367 11.947 1.24 11.854 1.146C11.76 1.052 11.633 1 11.5 1C11.367 1 11.24 1.053 11.146 1.146C11.052 1.24 11 1.367 11 1.5V3H9.5V1.5C9.5 1.367 9.447 1.24 9.354 1.146C9.26 1.052 9.133 1 9 1C8.867 1 8.74 1.053 8.646 1.146C8.552 1.24 8.5 1.367 8.5 1.5V3H7V1.5C7 1.367 6.947 1.24 6.854 1.146C6.76 1.052 6.633 1 6.5 1C6.367 1 6.24 1.053 6.146 1.146C6.052 1.24 6 1.367 6 1.5V3C5.47 3 4.961 3.211 4.586 3.586C4.211 3.961 4 4.47 4 5V5.0249C4.34082 5.06151 4.67514 5.13682 5 5.25005V5C5 4.735 5.105 4.48 5.293 4.293C5.481 4.105 5.735 4 6 4H12C12.265 4 12.52 4.105 12.707 4.293C12.895 4.481 13 4.735 13 5V11C13 11.265 12.895 11.52 12.707 11.707C12.519 11.894 12.265 12 12 12H9.54584L10.2629 12.717C10.3528 12.8021 10.4374 12.897 10.5153 13H11V14.1683C11.0146 14.2731 11.0226 14.379 11.0239 14.486C11.0245 14.5386 11.0235 14.5909 11.0209 14.6431C11.0444 14.722 11.0872 14.7946 11.146 14.854C11.24 14.948 11.367 15 11.5 15C11.633 15 11.76 14.947 11.854 14.854C11.948 14.76 12 14.633 12 14.5V13C12.53 13 13.039 12.789 13.414 12.414C13.789 12.039 14 11.53 14 11H15.5C15.633 11 15.76 10.947 15.854 10.854C15.948 10.76 16 10.633 16 10.5C16 10.367 15.947 10.24 15.854 10.146C15.76 10.052 15.633 10 15.5 10H14V8.5H15.5Z" fill="#202020"/>
<path d="M9 10.5C8.63277 10.5 8.28384 10.4205 7.9695 10.2778C8.03363 9.89965 8.04965 9.51421 8.01687 9.13194C8.28035 9.36109 8.62428 9.5 9 9.5C9.827 9.5 10.5 8.827 10.5 8C10.5 7.173 9.827 6.5 9 6.5C8.33614 6.5 7.77152 6.93366 7.57459 7.53254C7.4308 7.23829 7.25497 6.95948 7.04986 6.70202C7.01593 6.65941 6.98123 6.61745 6.94581 6.57615C7.39761 5.92614 8.14977 5.5 9 5.5C10.379 5.5 11.5 6.621 11.5 8C11.5 9.379 10.379 10.5 9 10.5Z" fill="#202020"/>
<path d="M2.75809 6.33404C2.76709 6.26504 2.79409 6.20004 2.83709 6.14504C2.88009 6.09004 2.93609 6.04804 3.00009 6.02304C3.03509 6.00904 3.07109 6.00104 3.10809 5.99704C3.70209 5.92704 4.30509 6.01104 4.85809 6.23904C5.41109 6.46704 5.89709 6.83204 6.27009 7.30004C6.64309 7.76804 6.89009 8.32304 6.98809 8.91404C7.08609 9.50504 7.03309 10.11 6.83209 10.673L9.55809 13.399C9.70409 13.538 9.82009 13.704 9.90009 13.889C9.98009 14.073 10.0231 14.272 10.0251 14.473C10.0271 14.674 9.99009 14.874 9.91409 15.06C9.83809 15.246 9.72609 15.416 9.58409 15.558C9.44209 15.7 9.27309 15.813 9.08609 15.888C8.90009 15.964 8.70009 16.002 8.49909 15.999C8.29809 15.997 8.09909 15.954 7.91509 15.874C7.73109 15.794 7.56409 15.677 7.42509 15.532L4.69909 12.806C4.13509 13.007 3.53009 13.061 2.94009 12.962C2.35009 12.864 1.79409 12.616 1.32609 12.244C0.858086 11.871 0.493086 11.385 0.265086 10.832C0.037086 10.279 -0.045914 9.67704 0.023086 9.08204C0.035086 9.00104 0.070086 8.92604 0.124086 8.86504C0.178086 8.80404 0.248086 8.76004 0.326086 8.73704C0.404086 8.71504 0.487086 8.71604 0.565086 8.74004C0.643086 8.76404 0.712086 8.81004 0.765086 8.87204L1.74009 9.84703C2.02509 10.118 2.40509 10.268 2.79809 10.263C3.19209 10.258 3.56809 10.1 3.84609 9.82103C4.12409 9.54303 4.28309 9.16704 4.28809 8.77304C4.29309 8.37904 4.14409 8.00004 3.87209 7.71504L2.89709 6.74004C2.82509 6.66904 2.77709 6.57904 2.75909 6.48004C2.75109 6.43204 2.75009 6.38304 2.75709 6.33504L2.75809 6.33404Z" fill="#202020"/>
</g>
<defs>
<clipPath id="clip0_7199_47092">
<rect width="16" height="16" fill="white"/>
</clipPath>
</defs>
</svg>
