<svg width="16" height="16" viewBox="0 0 16 16" fill="none" xmlns="http://www.w3.org/2000/svg">
<path fill-rule="evenodd" clip-rule="evenodd" d="M3.00098 3.00098C3.00098 1.89641 3.89641 1.00098 5.00098 1.00098H8.58676C8.98459 1.00098 9.36612 1.15901 9.64742 1.44032L12.5616 4.35453C12.8429 4.63583 13.001 5.01737 13.001 5.41519V13.001C13.001 13.9762 12.303 14.7884 11.3793 14.9652L10.415 14.001H11.001C11.5533 14.001 12.001 13.5533 12.001 13.001V6.00098H9.50098C8.67255 6.00098 8.00098 5.3294 8.00098 4.50098V2.00098H5.00098C4.44869 2.00098 4.00098 2.44869 4.00098 3.00098V7.58691L3.00098 6.58691V3.00098ZM9.50098 5.00098H11.7939L9.00098 2.20808V4.50098C9.00098 4.77712 9.22483 5.00098 9.50098 5.00098Z" fill="#202020"/>
<path d="M3.00098 12.6649V13.001C3.00098 14.1055 3.89641 15.001 5.00098 15.001H5.33704L3.00098 12.6649Z" fill="#202020"/>
<path d="M3.00098 8.00098L10.001 15.001H7.16498C6.89978 15.0009 6.64547 14.8955 6.45798 14.708L3.29398 11.544C3.10643 11.3565 3.00103 11.1022 3.00098 10.837V8.00098Z" fill="#202020"/>
</svg>
