<svg width="16" height="16" viewBox="0 0 16 16" fill="none" xmlns="http://www.w3.org/2000/svg">
<path d="M4.00098 2.75098C4.00098 1.78448 4.78448 1.00098 5.75098 1.00098H10.251C11.2175 1.00098 12.001 1.78448 12.001 2.75098V13.251C12.001 13.6296 11.8808 13.9801 11.6764 14.2664L10.9452 13.5352C10.9812 13.4475 11.001 13.3516 11.001 13.251V2.75098C11.001 2.33676 10.6652 2.00098 10.251 2.00098H5.75098C5.33676 2.00098 5.00098 2.33676 5.00098 2.75098V7.59094L4.00098 6.59094V2.75098Z" fill="#202020"/>
<path d="M6.33301 15.001L4.00098 12.6689V13.251C4.00098 14.2175 4.78448 15.001 5.75098 15.001H6.33301Z" fill="#202020"/>
<path d="M4.00098 8.005L11.001 15.005H8.16498C7.89978 15.0049 7.64547 14.8996 7.45798 14.712L4.29398 11.548C4.10643 11.3605 4.00103 11.1062 4.00098 10.841V8.005Z" fill="#202020"/>
</svg>
