<svg width="16" height="16" viewBox="0 0 16 16" fill="none" xmlns="http://www.w3.org/2000/svg">
<g clip-path="url(#clip0_2545_375)">
<path d="M12.25 1C13.2165 1 14 1.7835 14 2.75V13.25C14 14.2165 13.2165 15 12.25 15H7.75C7.25979 15 6.8177 14.7974 6.5 14.4727L7.20703 13.7656C7.34368 13.9095 7.53593 14 7.75 14H12.25C12.6642 14 13 13.6642 13 13.25V2.75C13 2.33579 12.6642 2 12.25 2H7.75C7.33579 2 7 2.33579 7 2.75V7.17188C6.77229 7.06324 6.51868 7 6.25 7H6V2.75C6 1.7835 6.7835 1 7.75 1H12.25Z" fill="#202020"/>
<path d="M11 12C11.2761 12 11.5 12.2239 11.5 12.5C11.5 12.7761 11.2761 13 11 13H9C8.72386 13 8.5 12.7761 8.5 12.5C8.5 12.2239 8.72386 12 9 12H11Z" fill="#202020"/>
<path d="M7.24902 8.74899H7.19902L6.99902 8.75899V8.74899C6.99902 8.33899 6.65902 7.99899 6.24902 7.99899H5.74902C5.33902 7.99899 4.99902 8.33899 4.99902 8.74899V8.90899L3.74902 8.99899H3.69902C3.50902 9.01899 3.33902 9.09899 3.21902 9.21899L1.21902 11.219C1.07902 11.359 0.999023 11.539 0.999023 11.749C0.999023 11.789 0.999023 11.819 1.00902 11.859L1.16902 12.999H0.749023C0.339023 12.999 -0.000976562 13.339 -0.000976562 13.749C-0.000976562 14.129 0.279023 14.439 0.639023 14.489L1.39902 14.599L1.50902 15.359C1.55902 15.719 1.86902 15.999 2.24902 15.999C2.65902 15.999 2.99902 15.659 2.99902 15.249V14.829L4.13902 14.989C4.17902 14.999 4.20902 14.999 4.24902 14.999C4.45902 14.999 4.63902 14.919 4.77902 14.779L6.77902 12.779C6.91902 12.639 6.99902 12.459 6.99902 12.249V10.999H7.24902C7.65902 10.999 7.99902 10.659 7.99902 10.249V9.49899C7.99902 9.08899 7.65902 8.74899 7.24902 8.74899ZM4.99902 12.999H2.99902V10.999H4.99902V12.999Z" fill="#20AC9D"/>
<path d="M14.5 3C15.3284 3 16 3.67157 16 4.5V7.5C16 8.32843 15.3284 9 14.5 9H8.9873C8.95839 8.79525 8.88753 8.5982 8.77832 8.4209C8.67791 8.25703 8.54585 8.11464 8.38965 8H14.5C14.7761 8 15 7.77614 15 7.5V4.5C15 4.22386 14.7761 4 14.5 4H3.5C3.22386 4 3 4.22386 3 4.5V7.5C3 7.77614 3.22386 8 3.5 8H3.66699L3.59473 8.00488C3.18083 8.04793 2.79666 8.22778 2.51172 8.51172L2.45117 8.57129C2.1731 8.29901 2 7.91993 2 7.5V4.5C2 3.67157 2.67157 3 3.5 3H14.5Z" fill="#202020"/>
</g>
<defs>
<clipPath id="clip0_2545_375">
<rect width="16" height="16" fill="white"/>
</clipPath>
</defs>
</svg>
