<svg width="16" height="16" viewBox="0 0 16 16" fill="none" xmlns="http://www.w3.org/2000/svg">
<path d="M3.69909 2.14704C3.60016 1.82552 3.84057 1.5 4.17698 1.5H8.5L12.3009 13.853C12.3998 14.1745 12.1594 14.5 11.823 14.5H7.5L3.69909 2.14704Z" fill="#20AC9D"/>
<path fill-rule="evenodd" clip-rule="evenodd" d="M5 2C4.44772 2 4 2.44772 4 3V13C4 13.5523 4.44772 14 5 14H11C11.5523 14 12 13.5523 12 13V3C12 2.44772 11.5523 2 11 2H5ZM3 3C3 1.89543 3.89543 1 5 1H11C12.1046 1 13 1.89543 13 3V13C13 14.1046 12.1046 15 11 15H5C3.89543 15 3 14.1046 3 13V3Z" fill="#202020"/>
</svg>
