<svg width="16" height="16" viewBox="0 0 16 16" fill="none" xmlns="http://www.w3.org/2000/svg">
<path d="M12.5 2C13.881 2 15 3.119 15 4.5V11.5C15 12.881 13.881 14 12.5 14H6.97363L7.48633 13.4873C7.63011 13.3435 7.74328 13.178 7.82812 13H12.5C13.328 13 14 12.328 14 11.5V4.5C14 3.672 13.328 3 12.5 3H4.5C3.672 3 3 3.672 3 4.5V8.1709C2.81901 8.25648 2.65362 8.37129 2.5127 8.51172L2 9.02441V4.5C2 3.119 3.119 2 4.5 2H12.5Z" fill="#202020"/>
<path fill-rule="evenodd" clip-rule="evenodd" d="M12.25 9C12.663 9 13 9.336 13 9.75V11.25C13 11.664 12.663 12 12.25 12H9.75C9.337 12 9 11.664 9 11.25V9.75C9 9.336 9.337 9 9.75 9H12.25ZM10 11H12V10H10V11Z" fill="#202020"/>
<path fill-rule="evenodd" clip-rule="evenodd" d="M11 4C12.103 4 13 4.897 13 6C13 7.103 12.103 8 11 8C9.897 8 9 7.103 9 6C9 4.897 9.897 4 11 4ZM11 5C10.448 5 10 5.449 10 6C10 6.551 10.448 7 11 7C11.552 7 12 6.551 12 6C12 5.449 11.552 5 11 5Z" fill="#202020"/>
<path d="M5 7H5.75C5.12648 7 4.57848 7.32869 4.26855 7.82031C4.10577 7.6827 4 7.4796 4 7.25V4.75C4 4.336 4.337 4 4.75 4H7.25C7.663 4 8 4.336 8 4.75V7.25C8 7.4796 7.89423 7.6827 7.73145 7.82031C7.42142 7.32884 6.87375 7 6.25 7H7V5H5V7Z" fill="#202020"/>
<path d="M7.25 8.75H7.2L7 8.76V8.75C7 8.34 6.66 8 6.25 8H5.75C5.34 8 5 8.34 5 8.75V8.91L3.75 9H3.7C3.51 9.02 3.34 9.1 3.22 9.22L1.22 11.22C1.08 11.36 1 11.54 1 11.75C1 11.79 1 11.82 1.01 11.86L1.17 13H0.75C0.34 13 0 13.34 0 13.75C0 14.13 0.28 14.44 0.64 14.49L1.4 14.6L1.51 15.36C1.56 15.72 1.87 16 2.25 16C2.66 16 3 15.66 3 15.25V14.83L4.14 14.99C4.18 15 4.21 15 4.25 15C4.46 15 4.64 14.92 4.78 14.78L6.78 12.78C6.92 12.64 7 12.46 7 12.25V11H7.25C7.66 11 8 10.66 8 10.25V9.5C8 9.09 7.66 8.75 7.25 8.75ZM5 13H3V11H5V13Z" fill="#20AC9D"/>
</svg>
