<svg width="16" height="16" viewBox="0 0 16 16" fill="none" xmlns="http://www.w3.org/2000/svg">
<path fill-rule="evenodd" clip-rule="evenodd" d="M11.5 2C12.8807 2 14 3.11929 14 4.5V11.5C14 12.8807 12.8807 14 11.5 14H6.97363L7.48633 13.4873C7.63011 13.3435 7.74328 13.178 7.82812 13H11.5C12.3284 13 13 12.3284 13 11.5V6H3V8.1709C2.81901 8.25648 2.65362 8.37129 2.5127 8.51172L2 9.02441V4.5C2 3.11929 3.11929 2 4.5 2H11.5ZM4.5 3C3.67157 3 3 3.67157 3 4.5V5H13V4.5C13 3.67157 12.3284 3 11.5 3H4.5Z" fill="#202020"/>
<path d="M7.25 8.75H7.2L7 8.76V8.75C7 8.34 6.66 8 6.25 8H5.75C5.34 8 5 8.34 5 8.75V8.91L3.75 9H3.7C3.51 9.02 3.34 9.1 3.22 9.22L1.22 11.22C1.08 11.36 1 11.54 1 11.75C1 11.79 1 11.82 1.01 11.86L1.17 13H0.75C0.34 13 0 13.34 0 13.75C0 14.13 0.28 14.44 0.64 14.49L1.4 14.6L1.51 15.36C1.56 15.72 1.87 16 2.25 16C2.66 16 3 15.66 3 15.25V14.83L4.14 14.99C4.18 15 4.21 15 4.25 15C4.46 15 4.64 14.92 4.78 14.78L6.78 12.78C6.92 12.64 7 12.46 7 12.25V11H7.25C7.66 11 8 10.66 8 10.25V9.5C8 9.09 7.66 8.75 7.25 8.75ZM5 13H3V11H5V13Z" fill="#20AC9D"/>
</svg>
