<svg width="16" height="16" viewBox="0 0 16 16" fill="none" xmlns="http://www.w3.org/2000/svg">
<g clip-path="url(#clip0_2540_465)">
<path fill-rule="evenodd" clip-rule="evenodd" d="M5.25195 2.25C6.12195 2.25 7.00098 2.765 7.00098 3.75V6.5C7.00098 6.776 6.77698 7 6.50098 7C6.36198 7 6.23651 6.94259 6.14551 6.85059C5.91156 6.93653 5.62283 7 5.25098 7C3.93798 7 3.25098 6.246 3.25098 5.5C3.25098 4.754 3.93798 4 5.25098 4C5.55295 4 5.79699 4.02267 6.00098 4.05566V3.75C6.00098 3.256 5.28098 3.25 5.25098 3.25C4.78847 3.25 4.60149 3.36339 4.5791 3.37695L4.57715 3.37793C4.38116 3.57292 4.07779 3.56121 3.88379 3.36523C3.68879 3.17024 3.70345 2.84149 3.89844 2.64648C3.99144 2.55349 4.36397 2.25001 5.25195 2.25ZM5.25195 5C4.60297 5.00001 4.25195 5.258 4.25195 5.5C4.25195 5.742 4.60297 5.99999 5.25195 6C5.69895 6 5.90895 5.88455 6.00195 5.81055V5.07422C5.85795 5.03822 5.62395 5 5.25195 5Z" fill="#202020"/>
<path fill-rule="evenodd" clip-rule="evenodd" d="M8.50098 1C8.77698 1 9.00098 1.224 9.00098 1.5V2.81348C9.29598 2.61948 9.63498 2.5 10.001 2.5C11.104 2.5 12.001 3.509 12.001 4.75C12.001 5.991 11.104 7 10.001 7C9.62098 7 9.2698 6.87302 8.9668 6.66602C8.89778 6.85998 8.71795 7 8.50098 7C8.22498 7 8.00098 6.776 8.00098 6.5V1.5C8.00098 1.224 8.22498 1 8.50098 1ZM10.001 3.5C9.44898 3.5 9.00098 4.061 9.00098 4.75C9.00098 5.439 9.44898 6 10.001 6C10.553 6 11.001 5.439 11.001 4.75C11.001 4.061 10.553 3.5 10.001 3.5Z" fill="#202020"/>
<path d="M14.749 2.5C14.892 2.5 16.001 2.60533 16.001 3.23633C16.0008 3.51118 15.7769 3.73633 15.5 3.73633C15.3671 3.73632 15.2816 3.68578 15.1895 3.63184C15.0814 3.56856 14.9638 3.5 14.749 3.5C14.197 3.5 13.749 4.061 13.749 4.75C13.749 5.439 14.197 6 14.749 6C14.9612 6 15.079 5.93204 15.1875 5.86914C15.2805 5.81526 15.3667 5.76465 15.5 5.76465C15.7789 5.76465 16.0008 5.99182 16.001 6.26367C16.001 6.89667 14.887 7 14.749 7C13.646 7 12.749 5.991 12.749 4.75C12.749 3.509 13.646 2.5 14.749 2.5Z" fill="#202020"/>
<path d="M7.25 8.75H7.2L7 8.76V8.75C7 8.34 6.66 8 6.25 8H5.75C5.34 8 5 8.34 5 8.75V8.91L3.75 9H3.7C3.51 9.02 3.34 9.1 3.22 9.22L1.22 11.22C1.08 11.36 1 11.54 1 11.75C1 11.79 1 11.82 1.01 11.86L1.17 13H0.75C0.34 13 0 13.34 0 13.75C0 14.13 0.28 14.44 0.64 14.49L1.4 14.6L1.51 15.36C1.56 15.72 1.87 16 2.25 16C2.66 16 3 15.66 3 15.25V14.83L4.14 14.99C4.18 15 4.21 15 4.25 15C4.46 15 4.64 14.92 4.78 14.78L6.78 12.78C6.92 12.64 7 12.46 7 12.25V11H7.25C7.66 11 8 10.66 8 10.25V9.5C8 9.09 7.66 8.75 7.25 8.75ZM5 13H3V11H5V13Z" fill="#20AC9D"/>
</g>
<defs>
<clipPath id="clip0_2540_465">
<rect width="16" height="16" fill="white"/>
</clipPath>
</defs>
</svg>
