<svg width="16" height="16" viewBox="0 0 16 16" fill="none" xmlns="http://www.w3.org/2000/svg">
<path d="M4.5 4H9.5C10.7142 4 11.7284 4.86986 11.9534 6.01843C11.8039 6.00622 11.6527 6 11.5 6C11.3056 6 11.1136 6.01008 10.9245 6.02975C10.7267 5.43232 10.1628 5 9.5 5H4.5C3.673 5 3 5.673 3 6.5V11.5C3 12.327 3.673 13 4.5 13H6.20703C6.30564 13.3486 6.43777 13.6832 6.59971 14H4.5C3.121 14 2 12.878 2 11.5V6.5C2 5.122 3.121 4 4.5 4Z" fill="#202020"/>
<path d="M14 6.59971V6.5C14 4.015 11.985 2 9.5 2H6C5.182 2 4.456 2.393 4 3H9.5C11.3332 3 12.8371 4.40929 12.9876 6.20355C13.3407 6.30252 13.6795 6.43585 14 6.59971Z" fill="#202020"/>
<path fill-rule="evenodd" clip-rule="evenodd" d="M11.5 16C13.9853 16 16 13.9853 16 11.5C16 9.01472 13.9853 7 11.5 7C9.01472 7 7 9.01472 7 11.5C7 13.9853 9.01472 16 11.5 16ZM13.3536 10.3536C13.5488 10.1583 13.5488 9.84171 13.3536 9.64645C13.1583 9.45118 12.8417 9.45118 12.6464 9.64645L11.5 10.7929L10.3536 9.64645C10.1583 9.45118 9.84171 9.45118 9.64645 9.64645C9.45118 9.84171 9.45118 10.1583 9.64645 10.3536L10.7929 11.5L9.64645 12.6464C9.45118 12.8417 9.45118 13.1583 9.64645 13.3536C9.84171 13.5488 10.1583 13.5488 10.3536 13.3536L11.5 12.2071L12.6464 13.3536C12.8417 13.5488 13.1583 13.5488 13.3536 13.3536C13.5488 13.1583 13.5488 12.8417 13.3536 12.6464L12.2071 11.5L13.3536 10.3536Z" fill="#C50F1F"/>
</svg>
