<svg width="16" height="16" viewBox="0 0 16 16" fill="none" xmlns="http://www.w3.org/2000/svg">
<path fill-rule="evenodd" clip-rule="evenodd" d="M14.146 14.854C14.244 14.951 14.372 15 14.5 15V14.999C14.628 14.999 14.756 14.951 14.854 14.853C15.049 14.658 15.049 14.341 14.854 14.146L1.85301 1.14701C1.65801 0.952013 1.34101 0.952013 1.14601 1.14701C0.951006 1.34201 0.951006 1.65901 1.14601 1.85401L3.01854 3.72655C3.00632 3.81595 3 3.90724 3 4V14.5C3 14.7022 3.12182 14.8845 3.30866 14.9619C3.4955 15.0393 3.71055 14.9966 3.85355 14.8536L8 10.7071L12.1464 14.8536C12.2894 14.9966 12.5045 15.0393 12.6913 14.9619C12.8782 14.8845 13 14.7022 13 14.5V13.708L14.146 14.854ZM12 12.708L4 4.70801V13.2929L7.64645 9.64645C7.84171 9.45118 8.15829 9.45118 8.35355 9.64645L12 13.2929V12.708Z" fill="#202020"/>
<path d="M12 4V9.87801L13 10.878V4C13 2.89543 12.1046 2 11 2H5C4.7395 2 4.49063 2.0498 4.2624 2.14041L5.12199 3H11C11.5523 3 12 3.44772 12 4Z" fill="#202020"/>
</svg>
