<svg width="16" height="16" viewBox="0 0 16 16" fill="none" xmlns="http://www.w3.org/2000/svg">
<g clip-path="url(#clip0_7199_47386)">
<path fill-rule="evenodd" clip-rule="evenodd" d="M8.5 2H11.5C11.8978 2 12.2794 2.15804 12.5607 2.43934C12.842 2.72064 13 3.10218 13 3.5V12.5C13 12.8978 12.842 13.2794 12.5607 13.5607C12.2794 13.842 11.8978 14 11.5 14H9.96458C9.9881 13.8353 10 13.6683 10 13.5V13H11.5C11.6326 13 11.7598 12.9473 11.8536 12.8536C11.9473 12.7598 12 12.6326 12 12.5V11H10V10H12V6H8V6.33794C7.68904 6.18984 7.35294 6.0863 7 6.0356V3.5C7 3.10218 7.15804 2.72064 7.43934 2.43934C7.72064 2.15804 8.10218 2 8.5 2ZM8.14645 3.14645C8.05268 3.24021 8 3.36739 8 3.5V5H12V3.5C12 3.36739 11.9473 3.24021 11.8536 3.14645C11.7598 3.05268 11.6326 3 11.5 3H8.5C8.36739 3 8.24021 3.05268 8.14645 3.14645Z" fill="#202020"/>
<path fill-rule="evenodd" clip-rule="evenodd" d="M2.5 7H6.5C7.881 7 8.999 8.119 8.999 9.5V13.5C8.999 14.01 8.847 14.484 8.585 14.879L5.56 11.854C4.975 11.268 4.025 11.268 3.439 11.854L0.414 14.879C0.152 14.484 0 14.01 0 13.5V9.5C0 8.119 1.119 7 2.5 7ZM5.5 9.75C5.5 10.164 5.836 10.5 6.25 10.5C6.664 10.5 7 10.164 7 9.75C7 9.336 6.664 9 6.25 9C5.836 9 5.5 9.336 5.5 9.75Z" fill="#202020"/>
<path d="M2.50009 16C1.99009 16 1.51609 15.848 1.12109 15.586L4.14709 12.561C4.34209 12.366 4.65909 12.366 4.85409 12.561L7.87909 15.586C7.48309 15.848 7.01009 16 6.50009 16H2.50009Z" fill="#202020"/>
</g>
<defs>
<clipPath id="clip0_7199_47386">
<rect width="16" height="16" fill="white"/>
</clipPath>
</defs>
</svg>
