<svg width="16" height="16" viewBox="0 0 16 16" fill="none" xmlns="http://www.w3.org/2000/svg">
<path fill-rule="evenodd" clip-rule="evenodd" d="M2.5 1.5C2.5 1.224 2.724 1 3 1H6C6.276 1 6.5 1.224 6.5 1.5C6.5 1.776 6.276 2 6 2H5V3H5.5C6.328 3 7 3.672 7 4.5V9.5C7 10.328 6.328 11 5.5 11H5V12H6C6.276 12 6.5 12.224 6.5 12.5C6.5 12.776 6.276 13 6 13H3C2.724 13 2.5 12.776 2.5 12.5C2.5 12.224 2.724 12 3 12H4V11H3.5C2.672 11 2 10.328 2 9.5V4.5C2 3.672 2.672 3 3.5 3H4V2H3C2.724 2 2.5 1.776 2.5 1.5ZM3 8V9.5C3 9.776 3.224 10 3.5 10H5.5C5.776 10 6 9.776 6 9.5V8H3ZM3.5 4C3.224 4 3 4.224 3 4.5V7H6V4.5C6 4.224 5.776 4 5.5 4H3.5Z" fill="#202020"/>
<path fill-rule="evenodd" clip-rule="evenodd" d="M9.5 3.5C9.5 3.224 9.724 3 10 3H13C13.276 3 13.5 3.224 13.5 3.5C13.5 3.776 13.276 4 13 4H12V5H12.5C13.328 5 14 5.672 14 6.5V11.5C14 12.328 13.328 13 12.5 13H12V14H13C13.276 14 13.5 14.224 13.5 14.5C13.5 14.776 13.276 15 13 15H10C9.724 15 9.5 14.776 9.5 14.5C9.5 14.224 9.724 14 10 14H11V13H10.5C9.672 13 9 12.328 9 11.5V6.5C9 5.672 9.672 5 10.5 5H11V4H10C9.724 4 9.5 3.776 9.5 3.5ZM10 9V11.5C10 11.776 10.224 12 10.5 12H12.5C12.776 12 13 11.776 13 11.5V9H10ZM10.5 6C10.224 6 10 6.224 10 6.5V8H13V6.5C13 6.224 12.776 6 12.5 6H10.5Z" fill="#202020"/>
</svg>
