<svg width="16" height="16" viewBox="0 0 16 16" fill="none" xmlns="http://www.w3.org/2000/svg">
<path fill-rule="evenodd" clip-rule="evenodd" d="M4 5.5C4 5.22414 4.22414 5 4.5 5H8.5V4H4.5C3.67186 4 3 4.67186 3 5.5V10.5C3 11.3281 3.67186 12 4.5 12H8V13C8 13.5521 8.44786 14 9 14H13C13.5521 14 14 13.5521 14 13V10C14 9.44786 13.5521 9 13 9H9C8.44786 9 8 9.44786 8 10V11H4.5C4.22414 11 4 10.7759 4 10.5V5.5ZM9 10H13V13H9V10Z" fill="#202020"/>
<path fill-rule="evenodd" clip-rule="evenodd" d="M8 3C8 2.44786 8.44786 2 9 2H13C13.5521 2 14 2.44786 14 3V6C14 6.55214 13.5521 7 13 7H9C8.44786 7 8 6.55214 8 6V3ZM13 3H9V6H13V3Z" fill="#006CBF"/>
</svg>
