<svg width="16" height="16" viewBox="0 0 16 16" fill="none" xmlns="http://www.w3.org/2000/svg">
<path fill-rule="evenodd" clip-rule="evenodd" d="M7 3.5C7 4.70948 6.14112 5.71836 5 5.94999V8H7.25716C7.00353 8.30711 6.78261 8.64222 6.59971 9H5V10.05C5.40372 10.132 5.77211 10.3112 6.07964 10.5622C6.02728 10.867 6 11.1803 6 11.5C6 12.3678 6.20097 13.1886 6.55889 13.9185C6.1079 14.5718 5.35395 15 4.5 15C3.11929 15 2 13.8807 2 12.5C2 11.2905 2.85888 10.2816 4 10.05V5.94999C2.85888 5.71836 2 4.70948 2 3.5C2 2.11929 3.11929 1 4.5 1C5.88071 1 7 2.11929 7 3.5ZM3 3.5C3 4.32843 3.67157 5 4.5 5C5.32843 5 6 4.32843 6 3.5C6 2.67157 5.32843 2 4.5 2C3.67157 2 3 2.67157 3 3.5ZM4.5 14C5.32843 14 6 13.3284 6 12.5C6 11.6716 5.32843 11 4.5 11C3.67157 11 3 11.6716 3 12.5C3 13.3284 3.67157 14 4.5 14Z" fill="#202020"/>
<path fill-rule="evenodd" clip-rule="evenodd" d="M12 6.02242V5.94999C13.1411 5.71836 14 4.70948 14 3.5C14 2.11929 12.8807 1 11.5 1C10.1193 1 9 2.11929 9 3.5C9 4.70948 9.85888 5.71836 11 5.94999V6.02242C11.1647 6.00758 11.3315 6 11.5 6C11.6685 6 11.8353 6.00758 12 6.02242ZM10 3.5C10 4.32843 10.6716 5 11.5 5C12.3284 5 13 4.32843 13 3.5C13 2.67157 12.3284 2 11.5 2C10.6716 2 10 2.67157 10 3.5Z" fill="#202020"/>
<path fill-rule="evenodd" clip-rule="evenodd" d="M16 11.5C16 13.9853 13.9853 16 11.5 16C9.01472 16 7 13.9853 7 11.5C7 9.01472 9.01472 7 11.5 7C13.9853 7 16 9.01472 16 11.5ZM11.4626 12.3084C11.4374 12.2476 11.4005 12.1925 11.3539 12.146L9.8539 10.646C9.76001 10.5521 9.63268 10.4994 9.4999 10.4994C9.36712 10.4994 9.23979 10.5521 9.1459 10.646C9.05201 10.7399 8.99927 10.8672 8.99927 11C8.99927 11.1328 9.05201 11.2601 9.1459 11.354L10.2929 12.5L9.1459 13.646C9.05201 13.7399 8.99927 13.8672 8.99927 14C8.99927 14.1328 9.05201 14.2601 9.1459 14.354C9.23979 14.4479 9.36712 14.5007 9.4999 14.5007C9.63268 14.5007 9.76001 14.4479 9.8539 14.354L11.3539 12.854C11.4005 12.8076 11.4374 12.7524 11.4626 12.6917C11.4878 12.6309 11.5008 12.5658 11.5008 12.5C11.5008 12.4343 11.4878 12.3691 11.4626 12.3084ZM13.8539 9.35402L12.7069 10.5L13.8539 11.646C13.9478 11.7399 14.0005 11.8672 14.0005 12C14.0005 12.1328 13.9478 12.2601 13.8539 12.354C13.76 12.4479 13.6327 12.5007 13.4999 12.5007C13.3671 12.5007 13.2398 12.4479 13.1459 12.354L11.6459 10.854C11.5993 10.8076 11.5624 10.7524 11.5372 10.6917C11.512 10.6309 11.499 10.5658 11.499 10.5C11.499 10.4343 11.512 10.3691 11.5372 10.3084C11.5624 10.2476 11.5993 10.1925 11.6459 10.146L13.1459 8.64602C13.2398 8.55213 13.3671 8.49939 13.4999 8.49939C13.6327 8.49939 13.76 8.55213 13.8539 8.64602C13.9478 8.73991 14.0005 8.86725 14.0005 9.00002C14.0005 9.1328 13.9478 9.26013 13.8539 9.35402Z" fill="#006CBF"/>
</svg>
