<svg width="16" height="16" viewBox="0 0 16 16" fill="none" xmlns="http://www.w3.org/2000/svg">
<g clip-path="url(#clip0_7199_47480)">
<path fill-rule="evenodd" clip-rule="evenodd" d="M7 3.5C7 4.70948 6.14112 5.71836 5 5.94999V8H7.25716C7.00353 8.30711 6.78261 8.64222 6.59971 9H5V10.05C5.40372 10.132 5.77211 10.3112 6.07964 10.5622C6.02728 10.867 6 11.1803 6 11.5C6 12.3678 6.20097 13.1886 6.55889 13.9185C6.1079 14.5718 5.35395 15 4.5 15C3.11929 15 2 13.8807 2 12.5C2 11.2905 2.85888 10.2816 4 10.05V5.94999C2.85888 5.71836 2 4.70948 2 3.5C2 2.11929 3.11929 1 4.5 1C5.88071 1 7 2.11929 7 3.5ZM3 3.5C3 4.32843 3.67157 5 4.5 5C5.32843 5 6 4.32843 6 3.5C6 2.67157 5.32843 2 4.5 2C3.67157 2 3 2.67157 3 3.5ZM4.5 14C5.32843 14 6 13.3284 6 12.5C6 11.6716 5.32843 11 4.5 11C3.67157 11 3 11.6716 3 12.5C3 13.3284 3.67157 14 4.5 14Z" fill="#202020"/>
<path fill-rule="evenodd" clip-rule="evenodd" d="M12 6.02242V5.94999C13.1411 5.71836 14 4.70948 14 3.5C14 2.11929 12.8807 1 11.5 1C10.1193 1 9 2.11929 9 3.5C9 4.70948 9.85888 5.71836 11 5.94999V6.02242C11.1647 6.00758 11.3315 6 11.5 6C11.6685 6 11.8353 6.00758 12 6.02242ZM10 3.5C10 4.32843 10.6716 5 11.5 5C12.3284 5 13 4.32843 13 3.5C13 2.67157 12.3284 2 11.5 2C10.6716 2 10 2.67157 10 3.5Z" fill="#202020"/>
<path d="M11.5 16C10.61 16 9.73996 15.7361 8.99993 15.2416C8.25991 14.7471 7.68314 14.0443 7.34255 13.2221C7.00195 12.3998 6.91283 11.495 7.08647 10.6221C7.2601 9.74918 7.68868 8.94736 8.31802 8.31802C8.94736 7.68869 9.74918 7.2601 10.6221 7.08647C11.495 6.91283 12.3998 7.00195 13.2221 7.34254C14.0443 7.68314 14.7472 8.25991 15.2416 8.99994C15.7361 9.73996 16 10.61 16 11.5C16 12.091 15.8836 12.6761 15.6575 13.2221C15.4313 13.768 15.0999 14.2641 14.682 14.682C14.2641 15.0998 13.768 15.4313 13.2221 15.6575C12.6761 15.8836 12.091 16 11.5 16ZM11.854 9.147C11.8083 9.10128 11.7539 9.06523 11.694 9.041C11.6328 9.01423 11.5668 9.00028 11.5 9V9C11.4354 9.00013 11.3715 9.01305 11.312 9.038C11.2512 9.06313 11.1958 9.09981 11.149 9.146L9.14901 11.146C9.05512 11.2399 9.00237 11.3672 9.00237 11.5C9.00237 11.6328 9.05512 11.7601 9.14901 11.854C9.24289 11.9479 9.37023 12.0006 9.503 12.0006C9.63578 12.0006 9.76312 11.9479 9.85701 11.854L11 10.707V13.5C11 13.6326 11.0527 13.7598 11.1464 13.8536C11.2402 13.9473 11.3674 14 11.5 14C11.6326 14 11.7598 13.9473 11.8536 13.8536C11.9473 13.7598 12 13.6326 12 13.5V10.707L13.146 11.854C13.2399 11.9479 13.3672 12.0006 13.5 12.0006C13.6328 12.0006 13.7601 11.9479 13.854 11.854C13.9479 11.7601 14.0006 11.6328 14.0006 11.5C14.0006 11.3672 13.9479 11.2399 13.854 11.146L11.854 9.147Z" fill="#11910D"/>
</g>
<defs>
<clipPath id="clip0_7199_47480">
<rect width="16" height="16" fill="white"/>
</clipPath>
</defs>
</svg>
