<svg width="16" height="16" viewBox="0 0 16 16" fill="none" xmlns="http://www.w3.org/2000/svg">
<path d="M13 9H9C8.449 9 8 9.448 8 10V11H5.5C5.224 11 5 10.775 5 10.5V6.5C5 6.224 4.776 6 4.5 6C4.224 6 4 6.224 4 6.5V10.5C4 11.327 4.673 12 5.5 12H8V13C8 13.552 8.449 14 9 14H13C13.551 14 14 13.552 14 13V10C14 9.448 13.551 9 13 9ZM13 13H9V10H13V13Z" fill="#202020"/>
<path d="M13 7H3C2.449 7 2 6.552 2 6V3C2 2.448 2.449 2 3 2H13C13.551 2 14 2.448 14 3V6C14 6.552 13.551 7 13 7ZM3 3V6H13V3H3Z" fill="#006CBF"/>
</svg>
