<svg width="16" height="16" viewBox="0 0 16 16" fill="none" xmlns="http://www.w3.org/2000/svg">
<path d="M13 5V6C13.55 6 14 5.55 14 5C14 3.35 12.65 2 11 2H5C4.45 2 4 2.45 4 3H11C12.1 3 13 3.9 13 5Z" fill="#202020"/>
<path fill-rule="evenodd" clip-rule="evenodd" d="M11 10H8C7.448 10 7 10.448 7 11H5.25C5.112 11 5 10.888 5 10.75V8H11C11.552 8 12 7.552 12 7V5C12 4.448 11.552 4 11 4H3C2.448 4 2 4.448 2 5V7C2 7.552 2.448 8 3 8H4V10.75C4 11.439 4.561 12 5.25 12H7V13C7 13.552 7.448 14 8 14H11C11.552 14 12 13.552 12 13V11C12 10.448 11.552 10 11 10ZM3 5H11V7H3V5ZM11 13H8V11H11V13Z" fill="#202020"/>
<path d="M11 9.00012C11.57 9.00012 12.09 8.76012 12.45 8.37012C12.74 8.54012 13.01 8.75012 13.23 9.00012C13.71 9.53012 14 10.2401 14 11.0001C14 11.5501 13.55 12.0001 13 12.0001V11.0001C13 10.4701 12.8 9.99012 12.45 9.63012C12.09 9.24012 11.57 9.00012 11 9.00012Z" fill="#202020"/>
</svg>
