<svg width="16" height="16" viewBox="0 0 16 16" fill="none" xmlns="http://www.w3.org/2000/svg">
<path d="M4.5 2C3.119 2 2 3.119 2 4.5V11.5C2 12.881 3.119 14 4.5 14H11.5C12.881 14 14 12.881 14 11.5V4.5C14 3.119 12.881 2 11.5 2H4.5ZM13 5H3V4.5C3 3.672 3.672 3 4.5 3H11.5C12.328 3 13 3.672 13 4.5V5ZM3 6H13V11.5C13 12.328 12.328 13 11.5 13H4.5C3.672 13 3 12.328 3 11.5V6Z" fill="#202020"/>
<path d="M4 8C4 7.448 4.448 7 5 7C5.552 7 6 7.448 6 8C6 8.552 5.552 9 5 9C4.448 9 4 8.552 4 8ZM5 10C4.448 10 4 10.448 4 11C4 11.552 4.448 12 5 12C5.552 12 6 11.552 6 11C6 10.448 5.552 10 5 10Z" fill="#C50F1F"/>
</svg>
