<svg width="16" height="16" viewBox="0 0 16 16" fill="none" xmlns="http://www.w3.org/2000/svg">
<path d="M8 14C4.691 14 2 11.309 2 8C2 4.691 4.691 2 8 2C11.309 2 14 4.691 14 8C14 11.309 11.309 14 8 14ZM8 3C5.243 3 3 5.243 3 8C3 10.757 5.243 13 8 13C10.757 13 13 10.757 13 8C13 5.243 10.757 3 8 3Z" fill="#C50F1F"/>
<path d="M6.99998 9.292L7.39598 8.896L7.39798 8.897C7.59298 8.702 7.90998 8.702 8.10498 8.897C8.29998 9.092 8.29998 9.409 8.10498 9.604L6.85498 10.855H6.85298C6.80698 10.901 6.75198 10.937 6.69198 10.962C6.56998 11.013 6.43198 11.013 6.30998 10.962C6.25098 10.938 6.19798 10.902 6.15298 10.858L6.14698 10.854L4.89698 9.604C4.70198 9.409 4.70198 9.092 4.89698 8.897C5.09198 8.702 5.40898 8.702 5.60398 8.897L5.99998 9.293V5.5C5.99998 5.224 6.22398 5 6.49998 5C6.77598 5 6.99998 5.224 6.99998 5.5V9.292Z" fill="#C50F1F"/>
<path d="M9.85401 5.14698L11.104 6.39598H11.102C11.297 6.59098 11.297 6.90798 11.102 7.10298C10.907 7.29798 10.59 7.29798 10.395 7.10298L9.99901 6.70698V10.501C9.99901 10.777 9.77501 11.001 9.49901 11.001C9.22301 11.001 8.99901 10.777 8.99901 10.501V6.70798L8.60301 7.10398C8.40801 7.29898 8.09101 7.29898 7.89601 7.10398C7.70101 6.90898 7.70101 6.59198 7.89601 6.39698L9.14601 5.14698C9.19301 5.10098 9.24801 5.06398 9.30901 5.03898C9.43101 4.98798 9.56901 4.98798 9.69101 5.03898C9.75201 5.06398 9.80801 5.10098 9.85401 5.14698Z" fill="#C50F1F"/>
</svg>
