<svg width="16" height="16" viewBox="0 0 16 16" fill="none" xmlns="http://www.w3.org/2000/svg">
<g clip-path="url(#clip0_7199_47509)">
<path d="M2 8C2 4.68629 4.68629 2 8 2C11.3137 2 14 4.68629 14 8C14 8.16245 13.9935 8.3234 13.9809 8.48259L13.2935 7.10787C13.1632 6.84637 12.9776 6.6175 12.7507 6.43649C12.0943 4.44081 10.2154 3 8 3C5.23858 3 3 5.23858 3 8C3 9.20247 3.42447 10.3058 4.13175 11.1683L4.40006 10.9H4.39606C4.4915 10.82 4.61335 10.7785 4.73776 10.7837C4.86217 10.7888 4.9802 10.8401 5.06874 10.9277C5.15729 11.0152 5.20998 11.1327 5.21652 11.257C5.22305 11.3813 5.18295 11.5037 5.10406 11.6L4.83396 11.8701C5.40844 12.3406 6.08958 12.6858 6.83559 12.8637L6.37831 13.7783C3.85244 13.0708 2 10.7518 2 8Z" fill="#C50F1F"/>
<path d="M11.0001 6.0644C10.8072 6.11456 10.622 6.1935 10.451 6.29937C10.233 6.43426 10.044 6.60917 9.89323 6.81383L8.60006 8.107C8.5044 8.1902 8.38071 8.23396 8.25401 8.22942C8.12732 8.22488 8.00707 8.17238 7.91762 8.08254C7.82816 7.99271 7.77617 7.87224 7.77217 7.74552C7.76817 7.61881 7.81245 7.4953 7.89606 7.4L9.29306 6H7.50006C7.36745 6 7.24028 5.94732 7.14651 5.85355C7.05274 5.75979 7.00006 5.63261 7.00006 5.5C7.00006 5.36739 7.05274 5.24021 7.14651 5.14645C7.24028 5.05268 7.36745 5 7.50006 5H10.5001C10.6327 5 10.7598 5.05268 10.8536 5.14645C10.9474 5.24021 11.0001 5.36739 11.0001 5.5V6.0644Z" fill="#C50F1F"/>
<path d="M5.90006 9.4L6.40006 8.9H6.39606C6.48995 8.80558 6.6175 8.75233 6.75065 8.75195C6.8838 8.75158 7.01164 8.80411 7.10606 8.898C7.20048 8.99189 7.25373 9.11943 7.25411 9.25259C7.25448 9.38574 7.20195 9.51358 7.10806 9.608L6.60806 10.108C6.51417 10.2019 6.38684 10.2546 6.25406 10.2546C6.12129 10.2546 5.99395 10.2019 5.90006 10.108C5.80617 10.0141 5.75343 9.88678 5.75343 9.754C5.75343 9.62122 5.80617 9.49389 5.90006 9.4Z" fill="#C50F1F"/>
<path fill-rule="evenodd" clip-rule="evenodd" d="M12.3931 7.55201L15.8931 14.552C15.9694 14.7044 16.0056 14.8738 15.9981 15.044C15.9906 15.2143 15.9397 15.3799 15.8502 15.5249C15.7607 15.67 15.6357 15.7898 15.4869 15.8729C15.3381 15.9561 15.1705 15.9998 15.0001 16H8.00006C7.8292 16.0007 7.66101 15.9576 7.51154 15.8748C7.36207 15.792 7.23631 15.6723 7.14625 15.5271C7.0562 15.3818 7.00486 15.216 6.99712 15.0453C6.98938 14.8746 7.02551 14.7048 7.10206 14.552L10.6021 7.55201C10.6849 7.38534 10.8126 7.24509 10.9708 7.14705C11.129 7.04901 11.3114 6.99707 11.4976 6.99707C11.6837 6.99707 11.8661 7.04901 12.0243 7.14705C12.1825 7.24509 12.3102 7.38534 12.3931 7.55201ZM12 12.495V9.495C12 9.36239 11.9473 9.23521 11.8536 9.14144C11.7598 9.04767 11.6326 8.995 11.5 8.995C11.3674 8.995 11.2402 9.04767 11.1464 9.14144C11.0527 9.23521 11 9.36239 11 9.495V12.495C11 12.6276 11.0527 12.7548 11.1464 12.8485C11.2402 12.9423 11.3674 12.995 11.5 12.995C11.6326 12.995 11.7598 12.9423 11.8536 12.8485C11.9473 12.7548 12 12.6276 12 12.495ZM11.2222 14.0843C11.3044 14.0293 11.4011 14 11.5 14C11.6326 14 11.7598 14.0527 11.8536 14.1464C11.9473 14.2402 12 14.3674 12 14.5C12 14.5989 11.9707 14.6956 11.9157 14.7778C11.8608 14.86 11.7827 14.9241 11.6913 14.9619C11.6 14.9998 11.4994 15.0097 11.4025 14.9904C11.3055 14.9711 11.2164 14.9235 11.1464 14.8535C11.0765 14.7836 11.0289 14.6945 11.0096 14.5975C10.9903 14.5006 11.0002 14.4 11.0381 14.3087C11.0759 14.2173 11.14 14.1392 11.2222 14.0843Z" fill="#B27C00"/>
</g>
<defs>
<clipPath id="clip0_7199_47509">
<rect width="16" height="16" fill="white"/>
</clipPath>
</defs>
</svg>
