<svg width="16" height="16" viewBox="0 0 16 16" fill="none" xmlns="http://www.w3.org/2000/svg">
<path d="M1 8C1 4.68629 3.68629 2 7 2C9.66154 2 11.9183 3.73296 12.7035 6.13208C12.3425 6.0515 11.9682 6.0064 11.5842 6.00063C10.8128 4.23439 9.05056 3 7 3C4.23858 3 2 5.23858 2 8C2 9.20247 2.42447 10.3058 3.13175 11.1683L3.40006 10.9H3.39606C3.4915 10.82 3.61335 10.7785 3.73776 10.7837C3.86217 10.7888 3.9802 10.8401 4.06874 10.9277C4.15729 11.0152 4.20998 11.1327 4.21652 11.257C4.22305 11.3813 4.18295 11.5037 4.10406 11.6L3.83396 11.8701C4.49797 12.414 5.30448 12.7903 6.18896 12.9346C6.28791 13.3018 6.42394 13.6538 6.59278 13.9864C3.46898 13.777 1 11.1769 1 8Z" fill="#C50F1F"/>
<path d="M10.0001 6.20702C8.82717 6.53874 7.81355 7.2498 7.10012 8.1993C7.03207 8.1744 6.96964 8.13478 6.91762 8.08254C6.82816 7.99271 6.77617 7.87224 6.77217 7.74552C6.76817 7.61881 6.81245 7.4953 6.89606 7.4L8.29306 6H6.50006C6.36745 6 6.24028 5.94732 6.14651 5.85355C6.05274 5.75979 6.00006 5.63261 6.00006 5.5C6.00006 5.36739 6.05274 5.24021 6.14651 5.14645C6.24028 5.05268 6.36745 5 6.50006 5H9.50006C9.63267 5 9.75985 5.05268 9.85361 5.14645C9.94738 5.24021 10.0001 5.36739 10.0001 5.5V6.20702Z" fill="#C50F1F"/>
<path d="M4.90006 9.4L5.40006 8.9H5.39606C5.48995 8.80558 5.6175 8.75233 5.75065 8.75195C5.8838 8.75158 6.01164 8.80411 6.10606 8.898C6.20048 8.99189 6.25373 9.11943 6.25411 9.25259C6.25448 9.38574 6.20195 9.51358 6.10806 9.608L5.60806 10.108C5.51417 10.2019 5.38684 10.2546 5.25406 10.2546C5.12129 10.2546 4.99395 10.2019 4.90006 10.108C4.80617 10.0141 4.75343 9.88678 4.75343 9.754C4.75343 9.62122 4.80617 9.49389 4.90006 9.4Z" fill="#C50F1F"/>
<path fill-rule="evenodd" clip-rule="evenodd" d="M11.5 16C13.9853 16 16 13.9853 16 11.5C16 9.01472 13.9853 7 11.5 7C9.01472 7 7 9.01472 7 11.5C7 13.9853 9.01472 16 11.5 16ZM13.3536 10.3536C13.5488 10.1583 13.5488 9.84171 13.3536 9.64645C13.1583 9.45118 12.8417 9.45118 12.6464 9.64645L11.5 10.7929L10.3536 9.64645C10.1583 9.45118 9.84171 9.45118 9.64645 9.64645C9.45118 9.84171 9.45118 10.1583 9.64645 10.3536L10.7929 11.5L9.64645 12.6464C9.45118 12.8417 9.45118 13.1583 9.64645 13.3536C9.84171 13.5488 10.1583 13.5488 10.3536 13.3536L11.5 12.2071L12.6464 13.3536C12.8417 13.5488 13.1583 13.5488 13.3536 13.3536C13.5488 13.1583 13.5488 12.8417 13.3536 12.6464L12.2071 11.5L13.3536 10.3536Z" fill="#C50F1F"/>
</svg>
