<svg width="16" height="16" viewBox="0 0 16 16" fill="none" xmlns="http://www.w3.org/2000/svg">
<path fill-rule="evenodd" clip-rule="evenodd" d="M2 8C2 4.68629 4.68629 2 8 2C11.3137 2 14 4.68629 14 8C14 11.3137 11.3137 14 8 14C4.68629 14 2 11.3137 2 8ZM11.0002 8.5V5.5C11.0002 5.36739 10.9475 5.24021 10.8537 5.14645C10.7599 5.05268 10.6328 5 10.5002 5H7.50016C7.36755 5 7.24037 5.05268 7.14661 5.14645C7.05284 5.24021 7.00016 5.36739 7.00016 5.5C7.00016 5.63261 7.05284 5.75979 7.14661 5.85355C7.24037 5.94732 7.36755 6 7.50016 6H9.29316L7.89616 7.4C7.81255 7.4953 7.76827 7.61881 7.77227 7.74552C7.77627 7.87224 7.82826 7.99271 7.91771 8.08254C8.00717 8.17238 8.12741 8.22488 8.25411 8.22942C8.38081 8.23396 8.5045 8.1902 8.60016 8.107L10.0002 6.707V8.5C10.0002 8.63261 10.0528 8.75979 10.1466 8.85355C10.2404 8.94732 10.3675 9 10.5002 9C10.6328 9 10.7599 8.94732 10.8537 8.85355C10.9475 8.75979 11.0002 8.63261 11.0002 8.5ZM4.83404 11.8701L5.10416 11.6C5.18304 11.5037 5.22315 11.3813 5.21661 11.257C5.21008 11.1327 5.15739 11.0152 5.06884 10.9277C4.98029 10.8401 4.86227 10.7888 4.73786 10.7837C4.61344 10.7785 4.4916 10.82 4.39616 10.9H4.40016L4.13184 11.1683C4.34214 11.4248 4.57745 11.66 4.83404 11.8701ZM6.40016 8.9L5.90016 9.4C5.80627 9.49389 5.75353 9.62122 5.75353 9.754C5.75353 9.88678 5.80627 10.0141 5.90016 10.108C5.99405 10.2019 6.12138 10.2546 6.25416 10.2546C6.38693 10.2546 6.51427 10.2019 6.60816 10.108L7.10816 9.608C7.20205 9.51358 7.25458 9.38574 7.2542 9.25259C7.25383 9.11943 7.20058 8.99189 7.10616 8.898C7.01174 8.80411 6.88389 8.75158 6.75074 8.75195C6.61759 8.75233 6.49005 8.80558 6.39616 8.9H6.40016Z" fill="#C50F1F"/>
</svg>
