<svg width="16" height="16" viewBox="0 0 16 16" fill="none" xmlns="http://www.w3.org/2000/svg">
<path d="M11.0001 8.5V5.5C11.0001 5.36739 10.9474 5.24021 10.8536 5.14645C10.7598 5.05268 10.6327 5 10.5001 5H7.50006C7.36745 5 7.24028 5.05268 7.14651 5.14645C7.05274 5.24021 7.00006 5.36739 7.00006 5.5C7.00006 5.63261 7.05274 5.75979 7.14651 5.85355C7.24028 5.94732 7.36745 6 7.50006 6H9.29306L7.89606 7.4C7.81245 7.4953 7.76817 7.61881 7.77217 7.74552C7.77617 7.87224 7.82816 7.99271 7.91762 8.08254C8.00707 8.17238 8.12732 8.22488 8.25401 8.22942C8.38071 8.23396 8.5044 8.1902 8.60006 8.107L10.0001 6.707V8.5C10.0001 8.63261 10.0527 8.75979 10.1465 8.85355C10.2403 8.94732 10.3675 9 10.5001 9C10.6327 9 10.7598 8.94732 10.8536 8.85355C10.9474 8.75979 11.0001 8.63261 11.0001 8.5Z" fill="#C50F1F"/>
<path d="M5.90006 9.4L6.40006 8.9H6.39606C6.48995 8.80558 6.6175 8.75233 6.75065 8.75195C6.8838 8.75158 7.01164 8.80411 7.10606 8.898C7.20048 8.99189 7.25373 9.11943 7.25411 9.25259C7.25448 9.38574 7.20195 9.51358 7.10806 9.608L6.60806 10.108C6.51417 10.2019 6.38684 10.2546 6.25406 10.2546C6.12129 10.2546 5.99395 10.2019 5.90006 10.108C5.80617 10.0141 5.75343 9.88678 5.75343 9.754C5.75343 9.62122 5.80617 9.49389 5.90006 9.4Z" fill="#C50F1F"/>
<path fill-rule="evenodd" clip-rule="evenodd" d="M8 2C4.68629 2 2 4.68629 2 8C2 11.3137 4.68629 14 8 14C11.3137 14 14 11.3137 14 8C14 4.68629 11.3137 2 8 2ZM3 8C3 5.23858 5.23858 3 8 3C10.7614 3 13 5.23858 13 8C13 10.7614 10.7614 13 8 13C6.79859 13 5.69614 12.5763 4.83396 11.8701L5.10406 11.6C5.18295 11.5037 5.22305 11.3813 5.21652 11.257C5.20998 11.1327 5.15729 11.0152 5.06874 10.9277C4.9802 10.8401 4.86217 10.7888 4.73776 10.7837C4.61335 10.7785 4.4915 10.82 4.39606 10.9H4.40006L4.13175 11.1683C3.42447 10.3058 3 9.20247 3 8Z" fill="#C50F1F"/>
</svg>
