<svg width="16" height="16" viewBox="0 0 16 16" fill="none" xmlns="http://www.w3.org/2000/svg">
<path d="M15 9.5V2.5C15 1.67 14.33 1 13.5 1H6.5C5.67 1 5 1.67 5 2.5V4H6V2.5C6 2.22 6.22 2 6.5 2H13.5C13.78 2 14 2.22 14 2.5V9.5C14 9.78 13.78 10 13.5 10H12V11H13.5C14.33 11 15 10.33 15 9.5Z" fill="#202020"/>
<path d="M10.85 14.143L10.854 14.147L10.841 14.16C10.695 14.456 10.456 14.695 10.16 14.841L10.147 14.854L10.143 14.85C9.947 14.944 9.731 15 9.5 15H2.5C1.673 15 1 14.327 1 13.5V6.5C1 6.269 1.057 6.053 1.15 5.857L1.146 5.853L1.159 5.84C1.305 5.544 1.544 5.305 1.84 5.159L1.853 5.146L1.857 5.15C2.053 5.056 2.269 5 2.5 5H9.5C10.327 5 11 5.673 11 6.5V13.5C11 13.731 10.943 13.947 10.85 14.143Z" fill="#006CBF"/>
</svg>
