<svg width="16" height="16" viewBox="0 0 16 16" fill="none" xmlns="http://www.w3.org/2000/svg">
<g clip-path="url(#clip0_7199_47642)">
<path d="M12.671 6.24599C13.0591 7.2477 13.1045 8.34977 12.8 9.37999C12.5611 10.2174 12.1076 10.9779 11.4844 11.5862C10.8612 12.1945 10.0899 12.6294 9.24696 12.848C8.81091 12.9611 8.36349 13.0142 7.91683 13.0075C7.97235 13.1655 8.00055 13.3321 8 13.5C7.99979 13.6745 7.9689 13.8473 7.90894 14.0108C9.09144 14.0267 10.2569 13.693 11.2562 13.0454C12.4105 12.2973 13.2731 11.1757 13.6997 9.86802C14.1263 8.56034 14.0911 7.14585 13.6 5.86099C13.5695 5.78295 13.52 5.7138 13.4558 5.65992C13.3917 5.60604 13.315 5.56914 13.2329 5.55261C13.1507 5.53608 13.0657 5.54046 12.9857 5.56534C12.9057 5.59022 12.8333 5.6348 12.775 5.69499C12.7063 5.76697 12.6599 5.85731 12.6414 5.9551C12.623 6.05288 12.6333 6.15392 12.671 6.24599Z" fill="#202020"/>
<path d="M3.00691 11.3583C2.46227 10.5489 2.11963 9.61381 2.01662 8.63201C1.87309 7.26401 2.20348 5.88819 2.95256 4.73454C3.70164 3.58089 4.82401 2.71932 6.13206 2.29384C7.44011 1.86837 8.85457 1.90478 10.139 2.39699C10.217 2.42745 10.2862 2.47704 10.3401 2.54119C10.394 2.60534 10.4309 2.68201 10.4474 2.76414C10.4639 2.84628 10.4595 2.93125 10.4347 3.01125C10.4098 3.09125 10.3652 3.16371 10.305 3.22199C10.2335 3.29138 10.1433 3.33852 10.0455 3.35769C9.94771 3.37686 9.84645 3.36724 9.754 3.32999C8.7524 2.94154 7.65033 2.89582 6.62 3.19999C5.78258 3.43893 5.02209 3.89244 4.41381 4.51563C3.80554 5.13882 3.37057 5.91007 3.15198 6.75303C2.93338 7.59599 2.93874 8.48143 3.16753 9.32168C3.26326 9.67329 3.39673 10.0119 3.56471 10.3319C3.52908 10.3612 3.4948 10.3923 3.462 10.425C3.31621 10.5635 3.20008 10.7303 3.12066 10.915C3.05996 11.0563 3.02167 11.2058 3.00691 11.3583Z" fill="#202020"/>
<path fill-rule="evenodd" clip-rule="evenodd" d="M12.2286 4.47855C12.4238 4.28329 12.4238 3.96671 12.2286 3.77145C12.0333 3.57618 11.7167 3.57618 11.5214 3.77145L8.64671 6.64619C8.45089 6.55248 8.23157 6.5 8 6.5C7.17157 6.5 6.5 7.17157 6.5 8C6.5 8.82843 7.17157 9.5 8 9.5C8.82843 9.5 9.5 8.82843 9.5 8C9.5 7.76843 9.44752 7.54911 9.35381 7.35329L12.2286 4.47855ZM7.5 8C7.5 7.72386 7.72386 7.5 8 7.5C8.27614 7.5 8.5 7.72386 8.5 8C8.5 8.27614 8.27614 8.5 8 8.5C7.72386 8.5 7.5 8.27614 7.5 8Z" fill="#202020"/>
<path d="M6.85 13.85L4.85 15.85C4.80488 15.8975 4.75059 15.9352 4.69042 15.9611C4.63026 15.9869 4.56547 16.0002 4.5 16.0002C4.43453 16.0002 4.36974 15.9869 4.30958 15.9611C4.24941 15.9352 4.19512 15.8975 4.15 15.85C4.10256 15.8049 4.06478 15.7506 4.03897 15.6905C4.01316 15.6303 3.99985 15.5655 3.99985 15.5C3.99985 15.4346 4.01316 15.3698 4.03897 15.3096C4.06478 15.2494 4.10256 15.1951 4.15 15.15L5.29 14H0.5C0.367392 14 0.240215 13.9473 0.146447 13.8536C0.0526784 13.7598 0 13.6326 0 13.5C0 13.3674 0.0526784 13.2402 0.146447 13.1465C0.240215 13.0527 0.367392 13 0.5 13H5.29L4.15 11.85C4.10256 11.8049 4.06478 11.7506 4.03897 11.6905C4.01316 11.6303 3.99985 11.5655 3.99985 11.5C3.99985 11.4346 4.01316 11.3698 4.03897 11.3096C4.06478 11.2494 4.10256 11.1951 4.15 11.15C4.19512 11.1026 4.24941 11.0648 4.30958 11.039C4.36974 11.0132 4.43453 10.9999 4.5 10.9999C4.56547 10.9999 4.63026 11.0132 4.69042 11.039C4.75059 11.0648 4.80488 11.1026 4.85 11.15L6.85 13.15C6.89744 13.1951 6.93522 13.2494 6.96103 13.3096C6.98684 13.3698 7.00015 13.4346 7.00015 13.5C7.00015 13.5655 6.98684 13.6303 6.96103 13.6905C6.93522 13.7506 6.89744 13.8049 6.85 13.85V13.85Z" fill="#006CBF"/>
</g>
<defs>
<clipPath id="clip0_7199_47642">
<rect width="16" height="16" fill="white"/>
</clipPath>
</defs>
</svg>
