<svg width="16" height="16" viewBox="0 0 16 16" fill="none" xmlns="http://www.w3.org/2000/svg">
<g clip-path="url(#clip0_7199_47652)">
<path d="M12.8 9.37999C13.1045 8.34977 13.0591 7.2477 12.671 6.24599C12.6333 6.15392 12.623 6.05288 12.6414 5.9551C12.6599 5.85731 12.7063 5.76697 12.775 5.69499C12.8333 5.6348 12.9057 5.59022 12.9857 5.56534C13.0657 5.54046 13.1507 5.53608 13.2329 5.55261C13.315 5.56914 13.3917 5.60604 13.4558 5.65992C13.52 5.7138 13.5695 5.78295 13.6 5.86099C14.0911 7.14585 14.1263 8.56034 13.6997 9.86802C13.2731 11.1757 12.4105 12.2973 11.2562 13.0454C10.2573 13.6928 9.09236 14.0264 7.91034 14.0108C7.96911 13.8485 8 13.6758 8 13.5C8 13.3307 7.97139 13.1644 7.91686 13.0075C8.3635 13.0142 8.81092 12.9611 9.24696 12.848C10.0899 12.6294 10.8612 12.1945 11.4844 11.5862C12.1076 10.9779 12.5611 10.2174 12.8 9.37999Z" fill="#202020"/>
<path d="M2.01662 8.63201C2.06627 9.10525 2.1716 9.56763 2.32839 10.0103C2.38523 10.0036 2.44253 10.0001 2.5 9.99997C2.69252 9.99872 2.88337 10.0356 3.06154 10.1086C3.2397 10.1815 3.40164 10.2891 3.538 10.425C3.56343 10.4491 3.58796 10.4742 3.61155 10.5H3.6571C3.44514 10.1313 3.2802 9.7355 3.16753 9.32168C2.93874 8.48143 2.93338 7.59599 3.15198 6.75303C3.37057 5.91007 3.80554 5.13882 4.41381 4.51563C5.02209 3.89244 5.78258 3.43893 6.62 3.19999C7.65033 2.89582 8.7524 2.94154 9.754 3.32999C9.84645 3.36724 9.94771 3.37686 10.0455 3.35769C10.1433 3.33852 10.2335 3.29138 10.305 3.22199C10.3652 3.16371 10.4098 3.09125 10.4347 3.01125C10.4595 2.93125 10.4639 2.84628 10.4474 2.76414C10.4309 2.68201 10.394 2.60534 10.3401 2.54119C10.2862 2.47704 10.217 2.42745 10.139 2.39699C8.85457 1.90478 7.44011 1.86837 6.13206 2.29384C4.82401 2.71932 3.70164 3.58089 2.95256 4.73454C2.20348 5.88819 1.87309 7.26401 2.01662 8.63201Z" fill="#202020"/>
<path fill-rule="evenodd" clip-rule="evenodd" d="M12.2286 3.77145C12.4238 3.96671 12.4238 4.28329 12.2286 4.47855L9.35381 7.35329C9.44752 7.54911 9.5 7.76843 9.5 8C9.5 8.82843 8.82843 9.5 8 9.5C7.17157 9.5 6.5 8.82843 6.5 8C6.5 7.17157 7.17157 6.5 8 6.5C8.23157 6.5 8.45089 6.55248 8.64671 6.64619L11.5214 3.77145C11.7167 3.57618 12.0333 3.57618 12.2286 3.77145ZM8 7.5C7.72386 7.5 7.5 7.72386 7.5 8C7.5 8.27614 7.72386 8.5 8 8.5C8.27614 8.5 8.5 8.27614 8.5 8C8.5 7.72386 8.27614 7.5 8 7.5Z" fill="#202020"/>
<path d="M0.15 13.85L2.15 15.85C2.19512 15.8975 2.24941 15.9352 2.30958 15.9611C2.36974 15.9869 2.43453 16.0002 2.5 16.0002C2.56547 16.0002 2.63026 15.9869 2.69042 15.9611C2.75059 15.9352 2.80488 15.8975 2.85 15.85C2.89744 15.8049 2.93522 15.7506 2.96103 15.6905C2.98684 15.6303 3.00015 15.5655 3.00015 15.5C3.00015 15.4346 2.98684 15.3698 2.96103 15.3096C2.93522 15.2494 2.89744 15.1951 2.85 15.15L1.71 14H6.5C6.63261 14 6.75979 13.9473 6.85355 13.8536C6.94732 13.7598 7 13.6326 7 13.5C7 13.3674 6.94732 13.2402 6.85355 13.1465C6.75979 13.0527 6.63261 13 6.5 13H1.71L2.85 11.85C2.89744 11.8049 2.93522 11.7506 2.96103 11.6905C2.98684 11.6303 3.00015 11.5655 3.00015 11.5C3.00015 11.4346 2.98684 11.3698 2.96103 11.3096C2.93522 11.2494 2.89744 11.1951 2.85 11.15C2.80488 11.1026 2.75059 11.0648 2.69042 11.039C2.63026 11.0132 2.56547 10.9999 2.5 10.9999C2.43453 10.9999 2.36974 11.0132 2.30958 11.039C2.24941 11.0648 2.19512 11.1026 2.15 11.15L0.15 13.15C0.102558 13.1951 0.0647836 13.2494 0.0389719 13.3096C0.0131602 13.3698 -0.000149727 13.4346 -0.000149727 13.5C-0.000149727 13.5655 0.0131602 13.6303 0.0389719 13.6905C0.0647836 13.7506 0.102558 13.8049 0.15 13.85V13.85Z" fill="#006CBF"/>
</g>
<defs>
<clipPath id="clip0_7199_47652">
<rect width="16" height="16" fill="white"/>
</clipPath>
</defs>
</svg>
