<svg width="16" height="16" viewBox="0 0 16 16" fill="none" xmlns="http://www.w3.org/2000/svg">
<path d="M4.04031 5.30305C4.14909 5.04923 4.44303 4.93166 4.69684 5.04043L7.99988 6.45602L11.3029 5.04043C11.5567 4.93166 11.8507 5.04923 11.9595 5.30305C12.0682 5.55686 11.9507 5.8508 11.6968 5.95958L8.49988 7.3297V10.5C8.49988 10.7761 8.27603 11 7.99988 11C7.988 11 7.97621 10.9996 7.96453 10.9988C8.03402 10.4385 7.99786 9.86587 7.85313 9.31125C7.76912 8.98932 7.65024 8.67997 7.49988 8.3881V7.3297L5.9013 6.6446C5.49927 6.39121 5.06186 6.20464 4.60609 6.08951L4.30292 5.95958C4.04911 5.8508 3.93153 5.55686 4.04031 5.30305Z" fill="#202020"/>
<path d="M2 6.21248V4.68685C2 4.47997 2.12741 4.29445 2.32051 4.22018L7.28204 2.3119C7.74418 2.13415 8.25582 2.13415 8.71796 2.3119L13.6795 4.22018C13.8726 4.29445 14 4.47997 14 4.68685V11.3133C14 11.5201 13.8726 11.7057 13.6795 11.7799L8.82767 13.646L9.56201 14.38C9.57517 14.3931 9.58805 14.4065 9.60067 14.4201L14.0385 12.7133C14.6178 12.4905 15 11.9339 15 11.3133V4.68685C15 4.06619 14.6178 3.50964 14.0385 3.28683L9.07694 1.37855C8.38373 1.11193 7.61627 1.11193 6.92306 1.37855L1.96153 3.28683C1.38224 3.50964 1 4.06619 1 4.68685V6.71625C1.3113 6.5071 1.64732 6.33793 2 6.21248Z" fill="#202020"/>
<path d="M8.854 15.087L6.293 12.527C6.74929 11.9267 6.99749 11.194 7 10.44C7 9.74774 6.79473 9.07105 6.41015 8.49548C6.02556 7.91991 5.47894 7.4713 4.83939 7.2064C4.19985 6.94149 3.49612 6.87218 2.81719 7.00723C2.13825 7.14227 1.51461 7.47562 1.02513 7.9651C0.535644 8.45458 0.202301 9.07822 0.0672531 9.75716C-0.0677952 10.4361 0.00151649 11.1398 0.266423 11.7794C0.53133 12.4189 0.979934 12.9655 1.55551 13.3501C2.13108 13.7347 2.80777 13.94 3.5 13.94C4.25357 13.9375 4.98584 13.6897 5.586 13.234L8.146 15.794C8.23976 15.8879 8.36697 15.9407 8.49965 15.9408C8.63233 15.9408 8.75962 15.8882 8.8535 15.7945C8.94739 15.7007 9.00019 15.5735 9.00028 15.4408C9.00037 15.3081 8.94776 15.1809 8.854 15.087V15.087ZM1 10.44C1 9.94552 1.14662 9.46217 1.42133 9.05105C1.69603 8.63993 2.08648 8.31949 2.54329 8.13027C3.00011 7.94106 3.50277 7.89155 3.98773 7.98801C4.47268 8.08447 4.91814 8.32258 5.26777 8.67221C5.6174 9.02184 5.8555 9.4673 5.95196 9.95225C6.04843 10.4372 5.99892 10.9399 5.8097 11.3967C5.62048 11.8535 5.30005 12.2439 4.88893 12.5186C4.4778 12.7934 3.99445 12.94 3.5 12.94C2.83696 12.94 2.20108 12.6766 1.73223 12.2077C1.26339 11.7389 1 11.103 1 10.44V10.44Z" fill="#006CBF"/>
</svg>
