<svg width="16" height="16" viewBox="0 0 16 16" fill="none" xmlns="http://www.w3.org/2000/svg">
<path d="M10 14H4C2.897 14 2 13.103 2 12V6C2 4.897 2.897 4 4 4C5.103 4 6 4.897 6 6V7.172L10.586 2.586C10.962 2.208 11.465 2 12 2C13.103 2 13.999 2.897 13.999 4C13.999 4.535 13.791 5.037 13.414 5.414L8.828 10H10C11.103 10 12 10.897 12 12C12 13.103 11.103 14 10 14ZM4 5C3.448 5 3 5.448 3 6V12C3 12.552 3.448 13 4 13H10C10.552 13 11 12.552 11 12C11 11.448 10.552 11 10 11H7.621C7.419 11 7.236 10.878 7.159 10.691C7.082 10.504 7.125 10.289 7.267 10.146L12.706 4.707C12.894 4.519 12.998 4.268 12.998 4C12.998 3.448 12.55 3 11.999 3C11.731 3 11.48 3.104 11.293 3.292L5.853 8.732C5.709 8.876 5.494 8.917 5.308 8.84C5.121 8.763 4.999 8.58 4.999 8.378V5.999C4.999 5.447 4.551 4.999 3.999 4.999L4 5Z" fill="#202020"/>
</svg>
