<svg width="16" height="16" viewBox="0 0 16 16" fill="none" xmlns="http://www.w3.org/2000/svg">
<path d="M14.5 15H1.5C1.224 15 1 14.776 1 14.5V1.5C1 1.224 1.224 1 1.5 1C1.776 1 2 1.224 2 1.5V14H14.5C14.776 14 15 14.224 15 14.5C15 14.776 14.776 15 14.5 15Z" fill="#202020"/>
<path d="M4.5 10C3.673 10 3 10.673 3 11.5C3 12.327 3.673 13 4.5 13C5.327 13 6 12.327 6 11.5C6 10.673 5.327 10 4.5 10ZM4.5 12C4.224 12 4 11.776 4 11.5C4 11.224 4.224 11 4.5 11C4.776 11 5 11.224 5 11.5C5 11.776 4.776 12 4.5 12ZM6.5 3C5.122 3 4 4.122 4 5.5C4 6.878 5.122 8 6.5 8C7.878 8 9 6.878 9 5.5C9 4.122 7.878 3 6.5 3ZM6.5 7C5.673 7 5 6.327 5 5.5C5 4.673 5.673 4 6.5 4C7.327 4 8 4.673 8 5.5C8 6.327 7.327 7 6.5 7ZM12.5 5C13.327 5 14 4.327 14 3.5C14 2.673 13.327 2 12.5 2C11.673 2 11 2.673 11 3.5C11 4.327 11.673 5 12.5 5ZM12.5 3C12.776 3 13 3.224 13 3.5C13 3.776 12.776 4 12.5 4C12.224 4 12 3.776 12 3.5C12 3.224 12.224 3 12.5 3ZM12 8C10.897 8 10 8.897 10 10C10 11.103 10.897 12 12 12C13.103 12 14 11.103 14 10C14 8.897 13.103 8 12 8ZM12 11C11.449 11 11 10.551 11 10C11 9.449 11.449 9 12 9C12.551 9 13 9.449 13 10C13 10.551 12.551 11 12 11Z" fill="#3487C7"/>
</svg>
