<svg width="16" height="16" viewBox="0 0 16 16" fill="none" xmlns="http://www.w3.org/2000/svg">
<path d="M14.5 5C14.224 5 14 5.224 14 5.5V9.5C14 9.775 13.775 10 13.5 10H8V11H13.5C14.327 11 15 10.327 15 9.5V5.5C15 5.224 14.776 5 14.5 5Z" fill="#202020"/>
<path d="M6 7.586V5.5C6 5.224 6.224 5 6.5 5C6.776 5 7 5.224 7 5.5V8.586L6 7.586Z" fill="#202020"/>
<path d="M8.5 7C8.77614 7 9 6.77614 9 6.5C9 6.22386 8.77614 6 8.5 6C8.22386 6 8 6.22386 8 6.5C8 6.77614 8.22386 7 8.5 7Z" fill="#202020"/>
<path d="M10.5 7C10.7761 7 11 6.77614 11 6.5C11 6.22386 10.7761 6 10.5 6C10.2239 6 10 6.22386 10 6.5C10 6.77614 10.2239 7 10.5 7Z" fill="#202020"/>
<path d="M9.5 9C9.77614 9 10 8.77614 10 8.5C10 8.22386 9.77614 8 9.5 8C9.22386 8 9 8.22386 9 8.5C9 8.77614 9.22386 9 9.5 9Z" fill="#202020"/>
<path d="M11.5 9C11.7761 9 12 8.77614 12 8.5C12 8.22386 11.7761 8 11.5 8C11.2239 8 11 8.22386 11 8.5C11 8.77614 11.2239 9 11.5 9Z" fill="#202020"/>
<path d="M12.5 7C12.7761 7 13 6.77614 13 6.5C13 6.22386 12.7761 6 12.5 6C12.2239 6 12 6.22386 12 6.5C12 6.77614 12.2239 7 12.5 7Z" fill="#202020"/>
<path d="M11.647 2.646C11.842 2.451 12.159 2.451 12.354 2.646L12.356 2.647C12.551 2.842 12.551 3.159 12.356 3.354L10.856 4.854C10.758 4.951 10.63 5 10.502 5C10.374 5 10.246 4.952 10.148 4.854L8.64799 3.354C8.45299 3.159 8.45299 2.842 8.64799 2.647C8.84299 2.452 9.15999 2.452 9.35499 2.647L10.001 3.293V0.5C10.001 0.224 10.225 0 10.501 0C10.777 0 11.001 0.224 11.001 0.5V3.292L11.647 2.646Z" fill="#006CBF"/>
<path d="M4.5 10H7L4 7V9.5C4 9.63261 4.05268 9.75979 4.14645 9.85355C4.24021 9.94732 4.36739 10 4.5 10ZM3 9.5V7H1C0.734784 7 0.48043 7.10536 0.292893 7.29289C0.105357 7.48043 0 7.73478 0 8V15C0 15.2652 0.105357 15.5196 0.292893 15.7071C0.48043 15.8946 0.734784 16 1 16H6C6.26522 16 6.51957 15.8946 6.70711 15.7071C6.89464 15.5196 7 15.2652 7 15V11H4.5C4.10218 11 3.72064 10.842 3.43934 10.5607C3.15804 10.2794 3 9.89782 3 9.5ZM5.5 15H1.5C1.36739 15 1.24021 14.9473 1.14645 14.8536C1.05268 14.7598 1 14.6326 1 14.5C1 14.3674 1.05268 14.2402 1.14645 14.1464C1.24021 14.0527 1.36739 14 1.5 14H5.5C5.63261 14 5.75979 14.0527 5.85355 14.1464C5.94732 14.2402 6 14.3674 6 14.5C6 14.6326 5.94732 14.7598 5.85355 14.8536C5.75979 14.9473 5.63261 15 5.5 15ZM6 12.5C6 12.6326 5.94732 12.7598 5.85355 12.8536C5.75979 12.9473 5.63261 13 5.5 13H1.5C1.36739 13 1.24021 12.9473 1.14645 12.8536C1.05268 12.7598 1 12.6326 1 12.5C1 12.3674 1.05268 12.2402 1.14645 12.1464C1.24021 12.0527 1.36739 12 1.5 12H5.5C5.63261 12 5.75979 12.0527 5.85355 12.1464C5.94732 12.2402 6 12.3674 6 12.5Z" fill="#202020"/>
</svg>
