<svg width="16" height="16" viewBox="0 0 16 16" fill="none" xmlns="http://www.w3.org/2000/svg">
<path d="M2.5 3C2.22386 3 2 3.22386 2 3.5C2 3.77614 2.22386 4 2.5 4H13.5C13.7761 4 14 3.77614 14 3.5C14 3.22386 13.7761 3 13.5 3H2.5Z" fill="#202020"/>
<path d="M4.5 7C4.22386 7 4 7.22386 4 7.5C4 7.77614 4.22386 8 4.5 8H11.5C11.7761 8 12 7.77614 12 7.5C12 7.22386 11.7761 7 11.5 7H4.5Z" fill="#202020"/>
<path d="M6.92562 11C6.97389 11.1472 7 11.3044 7 11.4678V12H9.5C9.77614 12 10 11.7761 10 11.5C10 11.2239 9.77614 11 9.5 11H6.92562Z" fill="#202020"/>
<path d="M5.5 12H2.5C2.224 12 2 11.776 2 11.5C2 11.224 2.224 11 2.5 11H5.5C5.776 11 6 11.224 6 11.5C6 11.776 5.776 12 5.5 12ZM6 13.5C6 13.224 5.776 13 5.5 13H2.5C2.224 13 2 13.224 2 13.5C2 13.776 2.224 14 2.5 14H5.5C5.776 14 6 13.776 6 13.5Z" fill="#006CBF"/>
</svg>
