<svg width="16" height="16" viewBox="0 0 16 16" fill="none" xmlns="http://www.w3.org/2000/svg">
<g clip-path="url(#clip0_7199_47753)">
<path d="M14.5 15H12.5C12.224 15 12 14.776 12 14.5C12 14.224 12.224 14 12.5 14H14.5C14.776 14 15 14.224 15 14.5C15 14.776 14.776 15 14.5 15Z" fill="#202020"/>
<path d="M10.5 15H8.5C8.224 15 8 14.776 8 14.5C8 14.224 8.224 14 8.5 14H10.5C10.776 14 11 14.224 11 14.5C11 14.776 10.776 15 10.5 15Z" fill="#202020"/>
<path d="M6.5 15H4.5C4.224 15 4 14.776 4 14.5C4 14.224 4.224 14 4.5 14H6.5C6.776 14 7 14.224 7 14.5C7 14.776 6.776 15 6.5 15Z" fill="#202020"/>
<path d="M1.5 15C1.224 15 1 14.776 1 14.5V13.5C1 13.224 1.224 13 1.5 13C1.776 13 2 13.224 2 13.5V14H2.5C2.776 14 3 14.224 3 14.5C3 14.776 2.776 15 2.5 15H1.5Z" fill="#202020"/>
<path d="M1.5 12C1.224 12 1 11.776 1 11.5V9.5C1 9.224 1.224 9 1.5 9C1.776 9 2 9.224 2 9.5V11.5C2 11.776 1.776 12 1.5 12Z" fill="#202020"/>
<path fill-rule="evenodd" clip-rule="evenodd" d="M13.652 4.024C13.448 3.958 13.219 4.033 13.092 4.21L8.092 11.21C7.932 11.435 7.984 11.747 8.208 11.907C8.297 11.97 8.398 12 8.499 12C8.654 12 8.809 11.927 8.906 11.791L10.185 10H12.999V11.5C12.999 11.776 13.223 12 13.499 12C13.775 12 13.999 11.776 13.999 11.5V4.5C13.999 4.283 13.858 4.09 13.651 4.024H13.652ZM10.9 9L13 6.06V9H10.9Z" fill="#202020"/>
<path d="M2.15 6.85L0.149998 4.85C0.102555 4.80488 0.0647811 4.75059 0.0389694 4.69042C0.0131577 4.63026 -0.000152588 4.56547 -0.000152588 4.5C-0.000152588 4.43453 0.0131577 4.36974 0.0389694 4.30958C0.0647811 4.24941 0.102555 4.19512 0.149998 4.15C0.195115 4.10256 0.249406 4.06478 0.309574 4.03897C0.369741 4.01316 0.434528 3.99985 0.499998 3.99985C0.565468 3.99985 0.630254 4.01316 0.690422 4.03897C0.750589 4.06478 0.80488 4.10256 0.849998 4.15L2 5.29V0.5C2 0.367392 2.05268 0.240215 2.14644 0.146447C2.24021 0.0526784 2.36739 0 2.5 0C2.63261 0 2.75978 0.0526784 2.85355 0.146447C2.94732 0.240215 3 0.367392 3 0.5V5.29L4.15 4.15C4.24314 4.05872 4.36855 4.00788 4.49896 4.00854C4.62938 4.0092 4.75426 4.0613 4.84648 4.15352C4.9387 4.24574 4.9908 4.37062 4.99146 4.50104C4.99211 4.63145 4.94128 4.75686 4.85 4.85L2.85 6.85C2.80488 6.89744 2.75059 6.93522 2.69042 6.96103C2.63025 6.98684 2.56547 7.00015 2.5 7.00015C2.43453 7.00015 2.36974 6.98684 2.30957 6.96103C2.24941 6.93522 2.19512 6.89744 2.15 6.85V6.85Z" fill="#006CBF"/>
</g>
<defs>
<clipPath id="clip0_7199_47753">
<rect width="16" height="16" fill="white"/>
</clipPath>
</defs>
</svg>
