<svg width="16" height="16" viewBox="0 0 16 16" fill="none" xmlns="http://www.w3.org/2000/svg">
<path d="M15 8C15 8.553 14.553 9 14 9H4.83C4.932 8.699 5 8.381 5 8.046C5 7.677 4.924 7.327 4.802 7H14C14.553 7 15 7.447 15 8ZM14 4.5V6H13V4.5C13 3.672 12.328 3 11.5 3H4.5C3.672 3 3 3.672 3 4.5V5.235C2.686 5.121 2.354 5.046 2 5.046V4.5C2 3.119 3.119 2 4.5 2H11.5C12.881 2 14 3.119 14 4.5ZM13 10H14V11.5C14 12.881 12.881 14 11.5 14H4.5C3.119 14 2 12.881 2 11.5V11.046C2.354 11.046 2.686 10.967 3 10.852V11.5C3 12.328 3.672 13 4.5 13H11.5C12.328 13 13 12.328 13 11.5V10Z" fill="#202020"/>
<path d="M2 10.0459C3.10457 10.0459 4 9.15047 4 8.0459C4 6.94133 3.10457 6.0459 2 6.0459C0.89543 6.0459 0 6.94133 0 8.0459C0 9.15047 0.89543 10.0459 2 10.0459Z" fill="#006CBF"/>
</svg>
