<svg width="16" height="16" viewBox="0 0 16 16" fill="none" xmlns="http://www.w3.org/2000/svg">
<path d="M1 5.5C1 4.119 2.119 3 3.5 3H12.5C13.881 3 15 4.119 15 5.5V10.5C15 11.881 13.881 13 12.5 13H3.5C2.119 13 1 11.881 1 10.5V5.5ZM3.5 4C2.672 4 2 4.672 2 5.5V10.5C2 11.328 2.672 12 3.5 12H12.5C13.328 12 14 11.328 14 10.5V5.5C14 4.672 13.328 4 12.5 4H3.5Z" fill="#202020"/>
<path fill-rule="evenodd" clip-rule="evenodd" d="M9.56302 10.9969C9.65502 10.9899 9.83302 10.9249 9.90802 10.8709C10.011 10.7969 10.09 10.6949 10.137 10.5789C10.172 10.4929 10.193 10.3019 10.177 10.2099L9.94902 8.88091L10.917 7.94791C11.01 7.85891 11.075 7.74491 11.105 7.62191C11.127 7.53091 11.12 7.33791 11.091 7.24891C11.051 7.12791 10.978 7.02091 10.876 6.93691C10.806 6.87991 10.632 6.80491 10.543 6.79191L9.20802 6.59791L8.60602 5.37691C8.54902 5.26291 8.46202 5.16891 8.35602 5.10391C8.27702 5.05591 8.09402 5.00391 8.00202 5.00391C7.87702 5.00391 7.75502 5.03891 7.65302 5.10091C7.57002 5.14991 7.43902 5.29291 7.39602 5.37891L6.79902 6.58691L5.47702 6.77891C5.35302 6.79391 5.23502 6.84291 5.12702 6.92791C5.05602 6.98691 4.94802 7.14391 4.91802 7.23091C4.87602 7.35191 4.87002 7.48191 4.90102 7.60791C4.92302 7.69891 5.01902 7.86591 5.08502 7.93091L6.05402 8.88291L5.82402 10.2299C5.80702 10.3529 5.82402 10.4779 5.87302 10.5909C5.91002 10.6749 6.02802 10.8209 6.10302 10.8739C6.20602 10.9459 6.32502 10.9879 6.44102 10.9959H6.46602C6.56502 10.9959 6.72802 10.9609 6.80402 10.9199L8.00202 10.2909L9.19902 10.9169C9.30902 10.9749 9.43602 10.9999 9.56302 10.9929V10.9969ZM8.93502 8.87891L9.08102 9.73091L8.31502 9.32991C8.21902 9.27991 8.11002 9.25291 8.00202 9.25291C7.92102 9.25291 7.76002 9.29291 7.68902 9.33091L6.92402 9.73291L7.06802 8.88991C7.08802 8.78191 7.07902 8.66891 7.04702 8.57191C7.02302 8.49291 6.93502 8.34991 6.87602 8.29291L6.25202 7.67991L7.12902 7.55291C7.23602 7.53391 7.33902 7.48991 7.42402 7.42391C7.48602 7.37691 7.58802 7.25091 7.62202 7.18091L8.00102 6.41391L8.37502 7.17191C8.42202 7.27691 8.49502 7.36791 8.58102 7.43191C8.64902 7.48391 8.80702 7.55091 8.89202 7.56291L9.74702 7.68791L9.13302 8.27991C9.05302 8.35691 8.99202 8.45191 8.95902 8.55391C8.93302 8.63191 8.92002 8.79791 8.93502 8.87891Z" fill="#B27C00"/>
</svg>
