<svg width="16" height="16" viewBox="0 0 16 16" fill="none" xmlns="http://www.w3.org/2000/svg">
<path d="M13 3H2C0.897 3 0 3.897 0 5V10C0 11.103 0.897 12 2 12H13C14.103 12 15 11.103 15 10V5C15 3.897 14.103 3 13 3ZM1 10V5C1 4.448 1.449 4 2 4H7V11H2C1.449 11 1 10.552 1 10ZM14 10C14 10.552 13.551 11 13 11H8V4H13C13.551 4 14 4.448 14 5V10ZM6 7.5C6 7.776 5.776 8 5.5 8H2.5C2.224 8 2 7.776 2 7.5C2 7.224 2.224 7 2.5 7H5.5C5.776 7 6 7.224 6 7.5ZM13 7.5C13 7.776 12.776 8 12.5 8H9.5C9.224 8 9 7.776 9 7.5C9 7.224 9.224 7 9.5 7H12.5C12.776 7 13 7.224 13 7.5Z" fill="#202020"/>
</svg>
