<svg width="16" height="16" viewBox="0 0 16 16" fill="none" xmlns="http://www.w3.org/2000/svg">
<path d="M7 3.03V3C7 0.369996 15 0.369996 15 3V10C15 11.09 13.61 11.75 12 11.94V10.93C13.26 10.76 14 10.28 14 10V4.35C13.29 4.69 12.53 4.9 11.75 4.97C11.55 4.58 11.24 4.26 10.85 4H11C12.86 4 14 3.35 14 3C14 2.65 12.86 2 11 2C9.14 2 8 2.65 8 3C8 3.02373 8.00626 3.04121 8.01383 3.06234L8.02 3.08C7.68 3.05 7.34 3.03 7 3.03Z" fill="#3487C7"/>
<path d="M3 6C3 3.374 11 3.374 11 6V13C11 14.313 8.988 15 7 15C6.11758 15 5.23043 14.8646 4.5166 14.5993L5.18545 13.7631C5.6656 13.9028 6.27854 14 7 14C8.861 14 10 13.353 10 13V7.352C9.066 7.804 8.037 8.026 7 8C6.76474 8.00589 6.52989 7.99903 6.29647 7.97961C6.40854 7.64767 6.39944 7.28971 6.27654 6.96596C6.50342 6.98784 6.74493 7 7 7C8.861 7 10 6.353 10 6C10 5.647 8.861 5 7 5C5.139 5 4 5.647 4 6C4 6 4 5.99999 4 6H3Z" fill="#3487C7"/>
<path d="M1.64198 16C1.32998 16 1.04398 15.858 0.856984 15.61C0.668984 15.362 0.608984 15.048 0.692984 14.748L1.46498 12H0.499984C0.340984 12 0.190984 11.924 0.0969841 11.796C0.00298412 11.668 -0.0240159 11.502 0.0229841 11.351L1.27298 7.351C1.33798 7.142 1.53198 7 1.75098 7H4.87598C5.03998 7 5.19298 7.081 5.28698 7.215C5.37998 7.35 5.40098 7.522 5.34398 7.675L4.47298 9.999H5.87598C6.06798 9.999 6.24298 10.109 6.32598 10.282C6.40998 10.455 6.38698 10.661 6.26598 10.811L2.41198 15.629C2.22398 15.863 1.94398 15.999 1.64198 15.999V16Z" fill="#B27C00"/>
</svg>
