<svg width="16" height="16" viewBox="0 0 16 16" fill="none" xmlns="http://www.w3.org/2000/svg">
<path fill-rule="evenodd" clip-rule="evenodd" d="M3 3.5C3 2.075 5.149 1 8 1C10.851 1 13 2.075 13 3.5V6.20703C12.6777 6.11588 12.3434 6.05337 12 6.02242V5.021C10.7859 5.71872 9.39905 6.05816 8 6C6.60095 6.05816 5.21405 5.71872 4 5.021V6H3V3.5ZM12 3.5C12 2.888 10.441 2 8 2C5.558 2 4 2.888 4 3.5C4 4.112 5.559 5 8 5C10.441 5 12 4.112 12 3.5Z" fill="#3487C7"/>
<path d="M4.67682 14.399C5.37251 14.7008 6.24866 14.904 7.23542 14.9735C6.96446 14.6412 6.73156 14.2767 6.54337 13.8866C6.08475 13.8118 5.67887 13.7044 5.33351 13.578L4.67682 14.399Z" fill="#3487C7"/>
<path d="M1.64198 16C1.32998 16 1.04398 15.858 0.856984 15.61C0.668984 15.362 0.608984 15.048 0.692984 14.748L1.46498 12H0.499984C0.340984 12 0.190984 11.924 0.0969841 11.796C0.00298412 11.668 -0.0240159 11.502 0.0229841 11.351L1.27298 7.351C1.33798 7.142 1.53198 7 1.75098 7H4.87598C5.03998 7 5.19298 7.081 5.28698 7.215C5.37998 7.35 5.40098 7.522 5.34398 7.675L4.47298 9.999H5.87598C6.06798 9.999 6.24298 10.109 6.32598 10.282C6.40998 10.455 6.38698 10.661 6.26598 10.811L2.41198 15.629C2.22398 15.863 1.94398 15.999 1.64198 15.999V16Z" fill="#B27C00"/>
<path fill-rule="evenodd" clip-rule="evenodd" d="M11.5 16C13.9853 16 16 13.9853 16 11.5C16 9.01472 13.9853 7 11.5 7C9.01472 7 7 9.01472 7 11.5C7 13.9853 9.01472 16 11.5 16ZM13.3536 10.3536C13.5488 10.1583 13.5488 9.84171 13.3536 9.64645C13.1583 9.45118 12.8417 9.45118 12.6464 9.64645L11.5 10.7929L10.3536 9.64645C10.1583 9.45118 9.84171 9.45118 9.64645 9.64645C9.45118 9.84171 9.45118 10.1583 9.64645 10.3536L10.7929 11.5L9.64645 12.6464C9.45118 12.8417 9.45118 13.1583 9.64645 13.3536C9.84171 13.5488 10.1583 13.5488 10.3536 13.3536L11.5 12.2071L12.6464 13.3536C12.8417 13.5488 13.1583 13.5488 13.3536 13.3536C13.5488 13.1583 13.5488 12.8417 13.3536 12.6464L12.2071 11.5L13.3536 10.3536Z" fill="#C50F1F"/>
</svg>
