<svg width="16" height="16" viewBox="0 0 16 16" fill="none" xmlns="http://www.w3.org/2000/svg">
<path d="M13.5 2H2.5C1.67 2 1 2.67 1 3.5V10.5C1 11.33 1.67 12 2.5 12H4V13.94C4 14.78 4.99 15.23 5.63 14.68L8.69 12H13.5C14.33 12 15 11.33 15 10.5V3.5C15 2.67 14.33 2 13.5 2ZM14 10.5C14 10.78 13.78 11 13.5 11H8.31L5 13.9V11H2.5C2.22 11 2 10.78 2 10.5V3.5C2 3.22 2.22 3 2.5 3H13.5C13.78 3 14 3.22 14 3.5V10.5Z" fill="#202020"/>
<path fill-rule="evenodd" clip-rule="evenodd" d="M7.5 4.5L7.508 4.41C7.55 4.177 7.754 4 8 4C8.246 4 8.45 4.177 8.492 4.41L8.5 4.5V7L8.492 7.09C8.45 7.323 8.246 7.5 8 7.5C7.754 7.5 7.55 7.323 7.508 7.09L7.5 7V4.5ZM8 10C7.586 10 7.25 9.664 7.25 9.25C7.25 8.836 7.586 8.5 8 8.5C8.414 8.5 8.75 8.836 8.75 9.25C8.75 9.664 8.414 10 8 10Z" fill="#202020"/>
</svg>
