<svg width="16" height="16" viewBox="0 0 16 16" fill="none" xmlns="http://www.w3.org/2000/svg">
<path d="M14.9303 5.37849L14.9619 5.22211C15.1136 4.33428 14.807 3.42456 14.1406 2.81364C12.8106 1.59422 10.7581 1 7.99841 1C5.24328 1 3.19296 1.59226 1.86274 2.80764C1.15227 3.45676 0.849138 4.44489 1.07198 5.38528L1.20864 5.96198C1.43281 6.908 2.31644 7.54073 3.27586 7.44223L4.49755 7.31681C5.31724 7.23266 5.99295 6.63169 6.17829 5.82198L6.46429 4.57253L6.4742 4.54424L6.53761 4.50976C6.58154 4.48798 6.65001 4.45834 6.74834 4.42807C7.02855 4.3418 7.44806 4.29518 7.99841 4.29518C8.74328 4.29518 9.24181 4.38195 9.4668 4.52067C9.50691 4.5454 9.53547 4.58537 9.54605 4.63158L9.81846 5.82165C10.0039 6.63158 10.6799 7.23263 11.4998 7.31654L12.7277 7.44221C13.6897 7.54065 14.5748 6.90412 14.796 5.95477L14.9303 5.37849ZM7.99841 2.05903C10.5203 2.05903 12.3271 2.58211 13.4344 3.59728C13.8274 3.95767 14.0119 4.49137 13.9314 5.01549L13.9081 5.13619L13.7739 5.71248C13.6733 6.144 13.271 6.43333 12.8337 6.38858L11.6058 6.26292C11.2331 6.22478 10.9258 5.95157 10.8416 5.58342L10.5691 4.39332C10.4951 4.06993 10.2952 3.7902 10.0145 3.6171C9.58374 3.35153 8.92079 3.23615 7.99841 3.23615C6.59446 3.23615 5.74379 3.49804 5.48076 4.20297L5.45066 4.29866L5.15519 5.58375C5.07095 5.9518 4.76381 6.22497 4.39122 6.26322L3.16953 6.38864C2.73343 6.43341 2.33178 6.14581 2.22988 5.7158L2.09322 5.1391C1.95952 4.57487 2.1414 3.98199 2.56768 3.59251C3.67535 2.58048 5.4805 2.05903 7.99841 2.05903Z" fill="#202020"/>
<path d="M8 9C8.55229 9 9 8.55228 9 8C9 7.44772 8.55229 7 8 7C7.44772 7 7 7.44772 7 8C7 8.55228 7.44772 9 8 9Z" fill="#202020"/>
<path d="M10 12C10.5523 12 11 11.5523 11 11C11 10.4477 10.5523 10 10 10C9.44771 10 9 10.4477 9 11C9 11.5523 9.44771 12 10 12Z" fill="#202020"/>
<path d="M4 15C4.55228 15 5 14.5523 5 14C5 13.4477 4.55228 13 4 13C3.44772 13 3 13.4477 3 14C3 14.5523 3.44772 15 4 15Z" fill="#202020"/>
<path d="M8 15C8.55229 15 9 14.5523 9 14C9 13.4477 8.55229 13 8 13C7.44772 13 7 13.4477 7 14C7 14.5523 7.44772 15 8 15Z" fill="#202020"/>
<path d="M13 14C13 14.5523 12.5523 15 12 15C11.4477 15 11 14.5523 11 14C11 13.4477 11.4477 13 12 13C12.5523 13 13 13.4477 13 14Z" fill="#202020"/>
<path d="M7 11C7 11.5523 6.55228 12 6 12C5.44772 12 5 11.5523 5 11C5 10.4477 5.44772 10 6 10C6.55228 10 7 10.4477 7 11Z" fill="#202020"/>
</svg>
