<svg width="16" height="16" viewBox="0 0 16 16" fill="none" xmlns="http://www.w3.org/2000/svg">
<path d="M11.5 3H3.5C2.119 3 1 4.119 1 5.5V10.5C1 11.881 2.119 13 3.5 13H11.5C12.881 13 14 11.881 14 10.5V5.5C14 4.119 12.881 3 11.5 3ZM13 10.5C13 11.328 12.328 12 11.5 12H3.5C2.672 12 2 11.328 2 10.5V5.5C2 4.672 2.672 4 3.5 4H11.5C12.328 4 13 4.672 13 5.5V10.5ZM11 8.25V10.5C11 10.776 10.776 11 10.5 11C10.224 11 10 10.776 10 10.5V8.25C10 8.112 9.888 8 9.75 8H8V10.5C8 10.776 7.776 11 7.5 11C7.224 11 7 10.776 7 10.5V8H5.25C5.112 8 5 8.112 5 8.25V10.5C5 10.776 4.776 11 4.5 11C4.224 11 4 10.776 4 10.5V8.25C4 7.561 4.561 7 5.25 7H7V5.5C7 5.224 7.224 5 7.5 5C7.776 5 8 5.224 8 5.5V7H9.75C10.439 7 11 7.561 11 8.25Z" fill="#202020"/>
</svg>
