<svg width="16" height="16" viewBox="0 0 16 16" fill="none" xmlns="http://www.w3.org/2000/svg">
<path d="M5.378 1.07022L5.222 1.03822C4.334 0.886218 3.424 1.19322 2.814 1.85922C1.594 3.18922 1 5.24222 1 8.00222C1 10.7622 1.592 12.8072 2.808 14.1382C3.457 14.8482 4.445 15.1522 5.386 14.9292L5.963 14.7922C6.909 14.5682 7.542 13.6842 7.443 12.7252L7.318 11.5032C7.234 10.6832 6.633 10.0082 5.823 9.82222L4.574 9.53622L4.546 9.52622L4.512 9.46322C4.49 9.41922 4.461 9.35122 4.43 9.25222C4.344 8.97222 4.297 8.55222 4.297 8.00222C4.297 7.25722 4.384 6.75922 4.522 6.53422C4.547 6.49422 4.587 6.46522 4.633 6.45522L5.823 6.18322C6.633 5.99822 7.234 5.32222 7.318 4.50222L7.444 3.27422C7.542 2.31222 6.906 1.42722 5.957 1.20622L5.381 1.07222L5.378 1.07022ZM2.059 8.00222C2.059 5.48022 2.582 3.67322 3.597 2.56622C3.957 2.17322 4.491 1.98822 5.015 2.06922L5.136 2.09222L5.712 2.22622C6.144 2.32722 6.433 2.72922 6.388 3.16622L6.262 4.39422C6.224 4.76722 5.951 5.07422 5.582 5.15822L4.392 5.43022C4.069 5.50422 3.789 5.70422 3.616 5.98522C3.35 6.41622 3.235 7.07922 3.235 8.00122C3.235 9.40522 3.497 10.2562 4.202 10.5192L4.298 10.5492L5.583 10.8442C5.951 10.9282 6.224 11.2352 6.262 11.6082L6.387 12.8302C6.432 13.2662 6.144 13.6682 5.714 13.7702L5.137 13.9072C4.573 14.0412 3.98 13.8592 3.59 13.4322C2.578 12.3242 2.057 10.5192 2.057 8.00122L2.059 8.00222Z" fill="#202020"/>
<path d="M9.00001 4.49998C9.00001 4.22398 9.22401 3.99998 9.50001 3.99998H13.293L12.147 2.85398C11.952 2.65898 11.952 2.34198 12.147 2.14698C12.342 1.95198 12.659 1.95198 12.854 2.14698L14.854 4.14698C15.049 4.34198 15.049 4.65898 14.854 4.85398L12.854 6.85398C12.756 6.95198 12.628 6.99998 12.5 6.99998C12.372 6.99998 12.244 6.95098 12.146 6.85398C11.951 6.65898 11.951 6.34198 12.146 6.14698L13.292 5.00098H9.50001C9.22401 5.00098 9.00001 4.77598 9.00001 4.49998ZM14.5 11H10.707L11.853 9.85398C12.048 9.65898 12.048 9.34198 11.853 9.14698C11.658 8.95198 11.341 8.95198 11.146 9.14698L9.14601 11.146C8.95101 11.341 8.95101 11.658 9.14601 11.853L11.146 13.853C11.244 13.951 11.372 13.999 11.5 13.999C11.628 13.999 11.756 13.95 11.854 13.853C12.049 13.658 12.049 13.341 11.854 13.146L10.708 12H14.501C14.777 12 15.001 11.776 15.001 11.5C15.001 11.224 14.776 11 14.5 11Z" fill="#006CBF"/>
</svg>
