<svg width="16" height="16" viewBox="0 0 16 16" fill="none" xmlns="http://www.w3.org/2000/svg">
<path d="M6.378 1.07022L6.222 1.03822C5.334 0.886218 4.424 1.19322 3.814 1.85922C2.594 3.18922 2 5.24222 2 8.00222C2 10.7622 2.592 12.8072 3.808 14.1382C4.457 14.8482 5.445 15.1522 6.386 14.9292L6.963 14.7922C7.909 14.5682 8.542 13.6842 8.443 12.7252L8.318 11.5032C8.234 10.6832 7.633 10.0082 6.823 9.82222L5.574 9.53622L5.546 9.52622L5.512 9.46322C5.49 9.41922 5.461 9.35122 5.43 9.25222C5.344 8.97222 5.297 8.55222 5.297 8.00222C5.297 7.25722 5.384 6.75922 5.522 6.53422C5.547 6.49422 5.587 6.46522 5.633 6.45522L6.823 6.18322C7.633 5.99822 8.234 5.32222 8.318 4.50222L8.444 3.27422C8.542 2.31222 7.906 1.42722 6.957 1.20622L6.381 1.07222L6.378 1.07022ZM3.059 8.00222C3.059 5.48022 3.582 3.67322 4.597 2.56622C4.957 2.17322 5.491 1.98822 6.015 2.06922L6.136 2.09222L6.712 2.22622C7.144 2.32722 7.433 2.72922 7.388 3.16622L7.262 4.39422C7.224 4.76722 6.951 5.07422 6.582 5.15822L5.392 5.43022C5.069 5.50422 4.789 5.70422 4.616 5.98522C4.35 6.41622 4.235 7.07922 4.235 8.00122C4.235 9.40522 4.497 10.2562 5.202 10.5192L5.298 10.5492L6.583 10.8442C6.951 10.9282 7.224 11.2352 7.262 11.6082L7.387 12.8302C7.432 13.2662 7.144 13.6682 6.714 13.7702L6.137 13.9072C5.573 14.0412 4.98 13.8592 4.59 13.4322C3.578 12.3242 3.057 10.5192 3.057 8.00122L3.059 8.00222Z" fill="#202020"/>
<path d="M14.85 7.85015L12.85 9.85015C12.8049 9.89759 12.7506 9.93537 12.6904 9.96118C12.6303 9.98699 12.5655 10.0003 12.5 10.0003C12.4345 10.0003 12.3697 9.98699 12.3096 9.96118C12.2494 9.93537 12.1951 9.89759 12.15 9.85015C12.1026 9.80503 12.0648 9.75074 12.039 9.69057C12.0132 9.63041 11.9998 9.56562 11.9998 9.50015C11.9998 9.43468 12.0132 9.36989 12.039 9.30973C12.0648 9.24956 12.1026 9.19527 12.15 9.15015L13.29 8.00015H8.5C8.36739 8.00015 8.24021 7.94747 8.14645 7.8537C8.05268 7.75994 8 7.63276 8 7.50015C8 7.36754 8.05268 7.24037 8.14645 7.1466C8.24021 7.05283 8.36739 7.00015 8.5 7.00015H13.29L12.15 5.85015C12.1026 5.80503 12.0648 5.75074 12.039 5.69057C12.0132 5.63041 11.9998 5.56562 11.9998 5.50015C11.9998 5.43468 12.0132 5.36989 12.039 5.30973C12.0648 5.24956 12.1026 5.19527 12.15 5.15015C12.1951 5.10271 12.2494 5.06493 12.3096 5.03912C12.3697 5.01331 12.4345 5 12.5 5C12.5655 5 12.6303 5.01331 12.6904 5.03912C12.7506 5.06493 12.8049 5.10271 12.85 5.15015L14.85 7.15015C14.8974 7.19527 14.9352 7.24956 14.961 7.30973C14.9868 7.36989 15.0001 7.43468 15.0001 7.50015C15.0001 7.56562 14.9868 7.63041 14.961 7.69057C14.9352 7.75074 14.8974 7.80503 14.85 7.85015Z" fill="#006CBF"/>
</svg>
