<svg width="16" height="16" viewBox="0 0 16 16" fill="none" xmlns="http://www.w3.org/2000/svg">
<path d="M4.953 15C4.428 15 4 14.572 4 14.047V11.106C2.115 10.174 1 8.65798 1 7.00098C1 4.24398 4.141 2.00098 8 2.00098C11.859 2.00098 15 4.24398 15 7.00098C15 9.59698 12.314 11.711 8.724 11.971L5.586 14.761C5.41 14.916 5.186 15 4.953 15ZM8 2.99998C4.691 2.99998 2 4.79398 2 6.99998C2 8.33498 3.011 9.57998 4.703 10.331L5 10.463V14.047L8.318 10.992L8.493 10.982C11.581 10.812 14 9.06298 14 6.99998C14 4.79398 11.309 2.99998 8 2.99998Z" fill="#202020"/>
</svg>
