<svg width="16" height="16" viewBox="0 0 16 16" fill="none" xmlns="http://www.w3.org/2000/svg">
<g clip-path="url(#clip0_7199_53540)">
<path fill-rule="evenodd" clip-rule="evenodd" d="M2 4.5C2 3.11929 3.11929 2 4.5 2H11.5C12.8807 2 14 3.11929 14 4.5V11.5C14 12.8807 12.8807 14 11.5 14H4.90685L4.87695 13.8199C4.83096 13.5285 4.72917 13.2503 4.57873 13H11.5C12.3284 13 13 12.3284 13 11.5V6H3V6.03681C2.83455 6.01266 2.66742 6.00065 2.49995 6.00094C2.33205 5.99547 2.16481 6.00452 2 6.02759V4.5ZM3 5H13V4.5C13 3.67157 12.3284 3 11.5 3H4.5C3.67157 3 3 3.67157 3 4.5V5Z" fill="#202020"/>
<path d="M2.50594 16.001C2.11067 16.0208 1.71897 15.9177 1.38466 15.7059C1.05036 15.494 0.789852 15.1839 0.63894 14.818C0.217065 13.763 0.000193053 12.6372 -6.04704e-05 11.501C-0.00744528 10.362 0.207927 9.23243 0.633939 8.17601C0.78619 7.8119 1.04711 7.50365 1.38108 7.29335C1.71505 7.08305 2.10579 6.98096 2.49994 7.00101C2.68952 7.00021 2.87853 7.02203 3.06294 7.06601C3.3654 7.13913 3.62883 7.32434 3.79998 7.58422C3.97113 7.8441 4.03724 8.15926 3.98494 8.46601L3.88994 9.02101C3.8497 9.27617 3.73385 9.51338 3.55736 9.702C3.38087 9.89061 3.15186 10.0219 2.89994 10.079L1.95594 10.292L1.87894 10.626C1.81828 10.9138 1.78678 11.2069 1.78494 11.501C1.7883 11.8009 1.8218 12.0998 1.88494 12.393L1.95894 12.712L2.90294 12.924C3.15478 12.9809 3.38377 13.112 3.56026 13.3005C3.73676 13.4889 3.85265 13.726 3.89294 13.981L3.98594 14.544C4.03708 14.8494 3.97059 15.1628 3.79988 15.4211C3.62917 15.6794 3.36691 15.8634 3.06594 15.936C2.88253 15.9799 2.69453 16.0017 2.50594 16.001Z" fill="#006CBF"/>
</g>
<defs>
<clipPath id="clip0_7199_53540">
<rect width="16" height="16" fill="white"/>
</clipPath>
</defs>
</svg>
