<svg width="16" height="16" viewBox="0 0 16 16" fill="none" xmlns="http://www.w3.org/2000/svg">
<path d="M9.378 1.07022L9.222 1.03822C8.334 0.886218 7.424 1.19322 6.814 1.85922C5.594 3.18922 5 5.24222 5 8.00222C5 10.7622 5.592 12.8072 6.808 14.1382C7.457 14.8482 8.445 15.1522 9.386 14.9292L9.963 14.7922C10.909 14.5682 11.542 13.6842 11.443 12.7252L11.318 11.5032C11.234 10.6832 10.633 10.0082 9.823 9.82222L8.574 9.53622L8.546 9.52622L8.512 9.46322C8.49 9.41922 8.461 9.35122 8.43 9.25222C8.344 8.97222 8.297 8.55222 8.297 8.00222C8.297 7.25722 8.384 6.75922 8.522 6.53422C8.547 6.49422 8.587 6.46522 8.633 6.45522L9.823 6.18322C10.633 5.99822 11.234 5.32222 11.318 4.50222L11.444 3.27422C11.542 2.31222 10.906 1.42722 9.957 1.20622L9.381 1.07222L9.378 1.07022ZM6.059 8.00222C6.059 5.48022 6.582 3.67322 7.597 2.56622C7.957 2.17322 8.491 1.98822 9.015 2.06922L9.136 2.09222L9.712 2.22622C10.144 2.32722 10.433 2.72922 10.388 3.16622L10.262 4.39422C10.224 4.76722 9.951 5.07422 9.582 5.15822L8.392 5.43022C8.069 5.50422 7.789 5.70422 7.616 5.98522C7.35 6.41622 7.235 7.07922 7.235 8.00122C7.235 9.40522 7.497 10.2562 8.202 10.5192L8.298 10.5492L9.583 10.8442C9.951 10.9282 10.224 11.2352 10.262 11.6082L10.387 12.8302C10.432 13.2662 10.144 13.6682 9.714 13.7702L9.137 13.9072C8.573 14.0412 7.98 13.8592 7.59 13.4322C6.578 12.3242 6.057 10.5192 6.057 8.00122L6.059 8.00222Z" fill="#202020"/>
</svg>
