<svg width="16" height="16" viewBox="0 0 16 16" fill="none" xmlns="http://www.w3.org/2000/svg">
<path d="M12.378 1.07022L12.222 1.03822C11.334 0.886218 10.424 1.19322 9.814 1.85922C8.594 3.18922 8 5.24222 8 8.00222C8 10.7622 8.592 12.8072 9.808 14.1382C10.457 14.8482 11.445 15.1522 12.386 14.9292L12.963 14.7922C13.909 14.5682 14.542 13.6842 14.443 12.7252L14.318 11.5032C14.234 10.6832 13.633 10.0082 12.823 9.82222L11.574 9.53622L11.546 9.52622L11.512 9.46322C11.49 9.41922 11.461 9.35122 11.43 9.25222C11.344 8.97222 11.297 8.55222 11.297 8.00222C11.297 7.25722 11.384 6.75922 11.522 6.53422C11.547 6.49422 11.587 6.46522 11.633 6.45522L12.823 6.18322C13.633 5.99822 14.234 5.32222 14.318 4.50222L14.444 3.27422C14.542 2.31222 13.906 1.42722 12.957 1.20622L12.381 1.07222L12.378 1.07022ZM9.059 8.00222C9.059 5.48022 9.582 3.67322 10.597 2.56622C10.957 2.17322 11.491 1.98822 12.015 2.06922L12.136 2.09222L12.712 2.22622C13.144 2.32722 13.433 2.72922 13.388 3.16622L13.262 4.39422C13.224 4.76722 12.951 5.07422 12.582 5.15822L11.392 5.43022C11.069 5.50422 10.789 5.70422 10.616 5.98522C10.35 6.41622 10.235 7.07922 10.235 8.00122C10.235 9.40522 10.497 10.2562 11.202 10.5192L11.298 10.5492L12.583 10.8442C12.951 10.9282 13.224 11.2352 13.262 11.6082L13.387 12.8302C13.432 13.2662 13.144 13.6682 12.714 13.7702L12.137 13.9072C11.573 14.0412 10.98 13.8592 10.59 13.4322C9.578 12.3242 9.057 10.5192 9.057 8.00122L9.059 8.00222Z" fill="#202020"/>
<path d="M6.85 7.85015L4.85 9.85015C4.80488 9.89759 4.75059 9.93537 4.69042 9.96118C4.63026 9.98699 4.56547 10.0003 4.5 10.0003C4.43453 10.0003 4.36974 9.98699 4.30958 9.96118C4.24941 9.93537 4.19512 9.89759 4.15 9.85015C4.10256 9.80503 4.06478 9.75074 4.03897 9.69057C4.01316 9.63041 3.99985 9.56562 3.99985 9.50015C3.99985 9.43468 4.01316 9.36989 4.03897 9.30973C4.06478 9.24956 4.10256 9.19527 4.15 9.15015L5.29 8.00015H0.5C0.367392 8.00015 0.240215 7.94747 0.146447 7.8537C0.0526784 7.75994 0 7.63276 0 7.50015C0 7.36754 0.0526784 7.24037 0.146447 7.1466C0.240215 7.05283 0.367392 7.00015 0.5 7.00015H5.29L4.15 5.85015C4.10256 5.80503 4.06478 5.75074 4.03897 5.69057C4.01316 5.63041 3.99985 5.56562 3.99985 5.50015C3.99985 5.43468 4.01316 5.36989 4.03897 5.30973C4.06478 5.24956 4.10256 5.19527 4.15 5.15015C4.19512 5.10271 4.24941 5.06493 4.30958 5.03912C4.36974 5.01331 4.43453 5 4.5 5C4.56547 5 4.63026 5.01331 4.69042 5.03912C4.75059 5.06493 4.80488 5.10271 4.85 5.15015L6.85 7.15015C6.89744 7.19527 6.93522 7.24956 6.96103 7.30973C6.98684 7.36989 7.00015 7.43468 7.00015 7.50015C7.00015 7.56562 6.98684 7.63041 6.96103 7.69057C6.93522 7.75074 6.89744 7.80503 6.85 7.85015Z" fill="#006CBF"/>
</svg>
