<svg width="16" height="16" viewBox="0 0 16 16" fill="none" xmlns="http://www.w3.org/2000/svg">
<path d="M10.8881 8.76602L9.98506 7.86302C9.91706 6.86802 9.12806 6.08002 8.13406 6.01202L7.23206 5.11002C7.47806 5.04502 7.73206 4.99902 7.99906 4.99902C9.65606 4.99902 10.9991 6.34202 10.9991 7.99902C10.9991 8.26602 10.9531 8.52002 10.8881 8.76602Z" fill="#159195"/>
<path d="M5 8.00003C5 7.17203 5.336 6.42203 5.879 5.87903L6.586 6.58603C6.224 6.94803 6 7.44803 6 8.00003C6 9.10503 6.895 10 8 10C8.552 10 9.052 9.77603 9.414 9.41403L10.121 10.121C9.578 10.664 8.828 11 8 11C6.343 11 5 9.65703 5 8.00003Z" fill="#159195"/>
<path fill-rule="evenodd" clip-rule="evenodd" d="M14.5 15C14.372 15 14.244 14.951 14.146 14.854L12.2726 12.9806C12.1836 12.9933 12.0926 13 12 13H4C2.895 13 2 12.105 2 11V6C2 5.10868 2.58233 4.35399 3.38747 4.09545L1.14601 1.85398C0.951006 1.65898 0.951006 1.34198 1.14601 1.14698C1.34101 0.951982 1.65801 0.951982 1.85301 1.14698L14.854 14.146C15.049 14.341 15.049 14.658 14.854 14.853C14.756 14.951 14.628 14.999 14.5 14.999V15ZM4.29202 5L11.292 12H4C3.448 12 3 11.552 3 11V6C3 5.448 3.448 5 4 5H4.29202Z" fill="#202020"/>
<path d="M11.309 4H12C13.105 4 14 4.895 14 6V11C14 11.259 13.947 11.506 13.857 11.734L13 10.877V5.999C13 5.447 12.552 4.999 12 4.999H11C10.811 4.999 10.638 4.892 10.553 4.723L9.82903 3.276C9.74503 3.107 9.57103 3 9.38203 3H6.61803C6.42903 3 6.25603 3.107 6.17103 3.276L5.91303 3.791L5.16803 3.046L5.27603 2.829C5.53003 2.321 6.05003 2 6.61803 2H9.38203C9.95103 2 10.47 2.321 10.724 2.829L11.309 4Z" fill="#202020"/>
</svg>
