<svg width="16" height="16" viewBox="0 0 16 16" fill="none" xmlns="http://www.w3.org/2000/svg">
<g clip-path="url(#clip0_7199_53675)">
<path fill-rule="evenodd" clip-rule="evenodd" d="M3.87839 6L2.99999 5.12099L2.03428 6.08738C2.0116 6.22286 2 6.36083 2 6.5V11.5C2 12.163 2.26339 12.7989 2.73223 13.2678C3.20107 13.7366 3.83696 14 4.5 14H9.5C9.8283 14 10.1534 13.9353 10.4567 13.8097C10.76 13.6841 11.0356 13.4999 11.2678 13.2678C11.4999 13.0356 11.6841 12.76 11.8097 12.4567C11.8764 12.2956 11.926 12.1284 11.9577 11.9577C12.1284 11.926 12.2956 11.8764 12.4567 11.8097C12.76 11.6841 13.0356 11.4999 13.2678 11.2678C13.4999 11.0356 13.6841 10.76 13.8097 10.4567C13.9353 10.1534 14 9.8283 14 9.5V4.5C14 3.83696 13.7366 3.20107 13.2678 2.73223C12.7989 2.26339 12.163 2 11.5 2H6.5C6.36083 2 6.22286 2.0116 6.08738 2.03428L5.12099 2.99999L6.56099 4.43899C6.77091 4.64877 6.91388 4.91611 6.97181 5.20717C7.02457 5.47223 7.00465 5.74612 6.91488 6H11V11.5C11 11.8978 10.842 12.2794 10.5607 12.5607C10.2794 12.842 9.89782 13 9.5 13H4.5C4.10218 13 3.72064 12.842 3.43934 12.5607C3.15804 12.2794 3 11.8978 3 11.5V6H3.87839ZM12.5607 10.5607C12.401 10.7204 12.209 10.8403 12 10.9142V6.5C12 6.1717 11.9353 5.84661 11.8097 5.54329C11.6841 5.23998 11.4999 4.96438 11.2678 4.73223C11.0356 4.50009 10.76 4.31594 10.4567 4.1903C10.1534 4.06466 9.8283 4 9.5 4H13V9.5C13 9.89782 12.842 10.2794 12.5607 10.5607Z" fill="#202020"/>
<path d="M5 6.91497C4.97499 6.90615 4.95019 6.89665 4.92563 6.88649C4.74354 6.81115 4.57815 6.70053 4.43899 6.56099L4 6.12169V9.5C4 10.8807 5.11929 12 6.5 12H11C11.5523 12 12 11.5523 12 11V6C12 5.44772 11.5523 5 11 5H6.91489C6.9387 5.06734 6.95776 5.13656 6.97181 5.20717C7.02457 5.47223 7.00465 5.74612 6.91488 6L11 6V11H6.5C5.67157 11 5 10.3284 5 9.5V6.91497Z" fill="#B27C00"/>
<path d="M6 8.5C6 8.22386 6.22386 8 6.5 8H9.5C9.77614 8 10 8.22386 10 8.5C10 8.77614 9.77614 9 9.5 9H6.5C6.22386 9 6 8.77614 6 8.5Z" fill="#B27C00"/>
<path d="M5.85402 5.14602C5.94791 5.23991 6.00065 5.36725 6.00065 5.50002C6.00065 5.6328 5.94791 5.76013 5.85402 5.85402C5.76013 5.94791 5.6328 6.00065 5.50002 6.00065C5.36725 6.00065 5.23991 5.94791 5.14602 5.85402L3.00002 3.70702L0.854021 5.85402C0.760135 5.94791 0.632797 6.00065 0.500021 6.00065C0.367245 6.00065 0.239908 5.94791 0.146021 5.85402C0.0521346 5.76013 -0.000610349 5.6328 -0.000610352 5.50002C-0.000610354 5.36725 0.0521346 5.23991 0.146021 5.14602L2.29302 3.00002L0.146021 0.854021C0.0521346 0.760135 -0.000610353 0.632797 -0.000610352 0.500021C-0.000610351 0.367245 0.0521346 0.239908 0.146021 0.146021C0.239908 0.0521346 0.367245 -0.000610351 0.500021 -0.000610352C0.632797 -0.000610353 0.760135 0.0521346 0.854021 0.146021L3.00002 2.29302L5.14602 0.146021C5.23991 0.0521346 5.36725 -0.000610354 5.50002 -0.000610352C5.6328 -0.000610349 5.76013 0.0521346 5.85402 0.146021C5.94791 0.239908 6.00065 0.367245 6.00065 0.500021C6.00065 0.632797 5.94791 0.760135 5.85402 0.854021L3.70702 3.00002L5.85402 5.14602Z" fill="#C50F1F"/>
</g>
<defs>
<clipPath id="clip0_7199_53675">
<rect width="16" height="16" fill="white"/>
</clipPath>
</defs>
</svg>
