<svg width="16" height="16" viewBox="0 0 16 16" fill="none" xmlns="http://www.w3.org/2000/svg">
<g clip-path="url(#clip0_7199_53646)">
<path d="M1 6.91471L1 12.5C1 13.879 2.121 15 3.5 15H12.5C13.879 15 15 13.879 15 12.5V6.5C15 6.224 14.776 6 14.5 6C14.224 6 14 6.224 14 6.5V12.5C14 13.327 13.327 14 12.5 14H3.5C2.673 14 2 13.327 2 12.5V6.5C2 6.39306 1.96637 6.29394 1.90913 6.21262L1.56099 6.56099C1.4012 6.72078 1.20908 6.84081 1 6.91471Z" fill="#202020"/>
<path d="M11 4C11.552 4 12 3.552 12 3C12 2.448 11.552 2 11 2C10.448 2 10 2.448 10 3C10 3.552 10.448 4 11 4Z" fill="#202020"/>
<path d="M10 6C10 6.552 9.552 7 9 7C8.448 7 8 6.552 8 6C8 5.448 8.448 5 9 5C9.552 5 10 5.448 10 6Z" fill="#202020"/>
<path d="M7 10C7.552 10 8 9.552 8 9C8 8.448 7.552 8 7 8C6.448 8 6 8.448 6 9C6 9.552 6.448 10 7 10Z" fill="#202020"/>
<path d="M6 12C6 12.552 5.552 13 5 13C4.448 13 4 12.552 4 12C4 11.448 4.448 11 5 11C5.552 11 6 11.448 6 12Z" fill="#202020"/>
<path d="M9 13C9.552 13 10 12.552 10 12C10 11.448 9.552 11 9 11C8.448 11 8 11.448 8 12C8 12.552 8.448 13 9 13Z" fill="#202020"/>
<path d="M12 9C12 9.552 11.552 10 11 10C10.448 10 10 9.552 10 9C10 8.448 10.448 8 11 8C11.552 8 12 8.448 12 9Z" fill="#202020"/>
<path d="M5.85402 5.14602C5.94791 5.23991 6.00065 5.36725 6.00065 5.50002C6.00065 5.6328 5.94791 5.76013 5.85402 5.85402C5.76013 5.94791 5.6328 6.00065 5.50002 6.00065C5.36725 6.00065 5.23991 5.94791 5.14602 5.85402L3.00002 3.70702L0.854021 5.85402C0.760135 5.94791 0.632797 6.00065 0.500021 6.00065C0.367245 6.00065 0.239908 5.94791 0.146021 5.85402C0.0521346 5.76013 -0.000610349 5.6328 -0.000610352 5.50002C-0.000610354 5.36725 0.0521346 5.23991 0.146021 5.14602L2.29302 3.00002L0.146021 0.854021C0.0521346 0.760135 -0.000610353 0.632797 -0.000610352 0.500021C-0.000610351 0.367245 0.0521346 0.239908 0.146021 0.146021C0.239908 0.0521346 0.367245 -0.000610351 0.500021 -0.000610352C0.632797 -0.000610353 0.760135 0.0521346 0.854021 0.146021L3.00002 2.29302L5.14602 0.146021C5.23991 0.0521346 5.36725 -0.000610354 5.50002 -0.000610352C5.6328 -0.000610349 5.76013 0.0521346 5.85402 0.146021C5.94791 0.239908 6.00065 0.367245 6.00065 0.500021C6.00065 0.632797 5.94791 0.760135 5.85402 0.854021L3.70702 3.00002L5.85402 5.14602Z" fill="#C50F1F"/>
</g>
<defs>
<clipPath id="clip0_7199_53646">
<rect width="16" height="16" fill="white"/>
</clipPath>
</defs>
</svg>
