<svg width="16" height="16" viewBox="0 0 16 16" fill="none" xmlns="http://www.w3.org/2000/svg">
<g clip-path="url(#clip0_7199_53691)">
<path d="M5.98955 6.91809C5.95621 7.28136 5.84357 7.63383 5.659 7.95L5.046 9.001L6.027 9.303L6.523 8.453C6.835 7.917 7 7.309 7 6.689V5.54491C6.99458 5.72581 6.95644 5.90519 6.88645 6.07411C6.77287 6.34828 6.5805 6.5826 6.3337 6.74741C6.2262 6.81921 6.11047 6.8764 5.98955 6.91809Z" fill="#202020"/>
<path d="M7 5.45505V3H9V6.689C9 7.309 9.165 7.918 9.477 8.453L10.033 9.406L10.954 9L10.341 7.949C10.118 7.566 10 7.132 10 6.689V3H10.5C10.776 3 11 2.776 11 2.5C11 2.224 10.776 2 10.5 2H6.12168L5.21221 2.90884C5.2936 2.96626 5.39289 3 5.5 3H6V3.87839L6.56099 4.43899C6.77091 4.64877 6.91388 4.91611 6.97181 5.20717C6.98815 5.28924 6.99752 5.37215 7 5.45505Z" fill="#202020"/>
<path fill-rule="evenodd" clip-rule="evenodd" d="M10.954 9L12.555 11.744C13.138 12.744 12.417 14 11.259 14H4.741C3.583 14 2.862 12.744 3.445 11.744L5.046 9H10.954ZM4.741 13H11.258C11.644 13 11.884 12.581 11.69 12.248L10.379 10H5.62L4.309 12.248C4.115 12.581 4.355 13 4.741 13Z" fill="#159195"/>
<path d="M5.85402 5.14602C5.94791 5.23991 6.00065 5.36725 6.00065 5.50002C6.00065 5.6328 5.94791 5.76013 5.85402 5.85402C5.76013 5.94791 5.6328 6.00065 5.50002 6.00065C5.36725 6.00065 5.23991 5.94791 5.14602 5.85402L3.00002 3.70702L0.854021 5.85402C0.760135 5.94791 0.632797 6.00065 0.500021 6.00065C0.367245 6.00065 0.239908 5.94791 0.146021 5.85402C0.0521346 5.76013 -0.000610349 5.6328 -0.000610352 5.50002C-0.000610354 5.36725 0.0521346 5.23991 0.146021 5.14602L2.29302 3.00002L0.146021 0.854021C0.0521346 0.760135 -0.000610353 0.632797 -0.000610352 0.500021C-0.000610351 0.367245 0.0521346 0.239908 0.146021 0.146021C0.239908 0.0521346 0.367245 -0.000610351 0.500021 -0.000610352C0.632797 -0.000610353 0.760135 0.0521346 0.854021 0.146021L3.00002 2.29302L5.14602 0.146021C5.23991 0.0521346 5.36725 -0.000610354 5.50002 -0.000610352C5.6328 -0.000610349 5.76013 0.0521346 5.85402 0.146021C5.94791 0.239908 6.00065 0.367245 6.00065 0.500021C6.00065 0.632797 5.94791 0.760135 5.85402 0.854021L3.70702 3.00002L5.85402 5.14602Z" fill="#C50F1F"/>
</g>
<defs>
<clipPath id="clip0_7199_53691">
<rect width="16" height="16" fill="white"/>
</clipPath>
</defs>
</svg>
