<svg width="16" height="16" viewBox="0 0 16 16" fill="none" xmlns="http://www.w3.org/2000/svg">
<g clip-path="url(#clip0_7199_53717)">
<path d="M5.49999 6.99999C5.32951 7.00035 5.16042 6.97153 5 6.91497V10.5C5 11.327 5.673 12 6.5 12H9.5C10.327 12 11 11.327 11 10.5V5.5C11 4.673 10.327 4 9.5 4H6.5C6.38327 4 6.26962 4.01341 6.16048 4.03876L6.56099 4.43899C6.71998 4.59788 6.84057 4.78978 6.91489 5H9.5C9.775 5 10 5.225 10 5.5V10.5C10 10.775 9.775 11 9.5 11H6.5C6.225 11 6 10.775 6 10.5V6.91444C5.84024 6.97084 5.67122 7.00007 5.49999 6.99999Z" fill="#202020"/>
<path d="M14 4.5C14 3.119 12.881 2 11.5 2H10.5C10.224 2 10 2.224 10 2.5C10 2.776 10.224 3 10.5 3H11.5C12.328 3 13 3.672 13 4.5V5.5C13 5.776 13.224 6 13.5 6C13.776 6 14 5.776 14 5.5V4.5Z" fill="#202020"/>
<path d="M14 11.5C14 12.881 12.881 14 11.5 14H10.5C10.224 14 10 13.776 10 13.5C10 13.224 10.224 13 10.5 13H11.5C12.328 13 13 12.328 13 11.5V10.5C13 10.224 13.224 10 13.5 10C13.776 10 14 10.224 14 10.5V11.5Z" fill="#202020"/>
<path d="M4.5 14C3.119 14 2 12.881 2 11.5V10.5C2 10.224 2.224 10 2.5 10C2.776 10 3 10.224 3 10.5V11.5C3 12.328 3.672 13 4.5 13H5.5C5.776 13 6 13.224 6 13.5C6 13.776 5.776 14 5.5 14H4.5Z" fill="#202020"/>
<path d="M5.85402 5.14602C5.94791 5.23991 6.00065 5.36725 6.00065 5.50002C6.00065 5.6328 5.94791 5.76013 5.85402 5.85402C5.76013 5.94791 5.6328 6.00065 5.50002 6.00065C5.36725 6.00065 5.23991 5.94791 5.14602 5.85402L3.00002 3.70702L0.854021 5.85402C0.760135 5.94791 0.632797 6.00065 0.500021 6.00065C0.367245 6.00065 0.239908 5.94791 0.146021 5.85402C0.0521346 5.76013 -0.000610349 5.6328 -0.000610352 5.50002C-0.000610354 5.36725 0.0521346 5.23991 0.146021 5.14602L2.29302 3.00002L0.146021 0.854021C0.0521346 0.760135 -0.000610353 0.632797 -0.000610352 0.500021C-0.000610351 0.367245 0.0521346 0.239908 0.146021 0.146021C0.239908 0.0521346 0.367245 -0.000610351 0.500021 -0.000610352C0.632797 -0.000610353 0.760135 0.0521346 0.854021 0.146021L3.00002 2.29302L5.14602 0.146021C5.23991 0.0521346 5.36725 -0.000610354 5.50002 -0.000610352C5.6328 -0.000610349 5.76013 0.0521346 5.85402 0.146021C5.94791 0.239908 6.00065 0.367245 6.00065 0.500021C6.00065 0.632797 5.94791 0.760135 5.85402 0.854021L3.70702 3.00002L5.85402 5.14602Z" fill="#C50F1F"/>
</g>
<defs>
<clipPath id="clip0_7199_53717">
<rect width="16" height="16" fill="white"/>
</clipPath>
</defs>
</svg>
