<svg width="16" height="16" viewBox="0 0 16 16" fill="none" xmlns="http://www.w3.org/2000/svg">
<path d="M4 3.5C4 3.776 4.224 4 4.5 4C4.776 4 5 3.776 5 3.5V1.5C5 1.224 4.776 1 4.5 1C4.224 1 4 1.224 4 1.5V3.5Z" fill="#202020"/>
<path d="M4 14.5C4 14.776 4.224 15 4.5 15C4.776 15 5 14.776 5 14.5V10.5C5 10.224 4.776 10 4.5 10C4.224 10 4 10.224 4 10.5V14.5Z" fill="#202020"/>
<path d="M11.5 15C11.224 15 11 14.776 11 14.5V12.5C11 12.224 11.224 12 11.5 12C11.776 12 12 12.224 12 12.5V14.5C12 14.776 11.776 15 11.5 15Z" fill="#202020"/>
<path d="M11 5.5C11 5.776 11.224 6 11.5 6C11.776 6 12 5.776 12 5.5V1.5C12 1.224 11.776 1 11.5 1C11.224 1 11 1.224 11 1.5V5.5Z" fill="#202020"/>
<path fill-rule="evenodd" clip-rule="evenodd" d="M3.5 11H5.5C6.327 11 7 10.327 7 9.5V4.5C7 3.673 6.327 3 5.5 3H3.5C2.673 3 2 3.673 2 4.5V9.5C2 10.327 2.673 11 3.5 11ZM3 4.5C3 4.224 3.225 4 3.5 4H5.5C5.775 4 6 4.224 6 4.5V9.5C6 9.776 5.775 10 5.5 10H3.5C3.225 10 3 9.776 3 9.5V4.5Z" fill="#3487C7"/>
<path fill-rule="evenodd" clip-rule="evenodd" d="M10.5 13H12.5C13.327 13 14 12.327 14 11.5V6.5C14 5.673 13.327 5 12.5 5H10.5C9.673 5 9 5.673 9 6.5V11.5C9 12.327 9.673 13 10.5 13ZM10 6.5C10 6.224 10.225 6 10.5 6H12.5C12.775 6 13 6.224 13 6.5V11.5C13 11.776 12.775 12 12.5 12H10.5C10.225 12 10 11.776 10 11.5V6.5Z" fill="#3487C7"/>
</svg>
