<svg width="16" height="16" viewBox="0 0 16 16" fill="none" xmlns="http://www.w3.org/2000/svg">
<path d="M3.5 2C3.22386 2 3 2.22386 3 2.5C3 2.77614 3.22386 3 3.5 3H12.5C12.7761 3 13 2.77614 13 2.5C13 2.22386 12.7761 2 12.5 2H3.5Z" fill="#202020"/>
<path fill-rule="evenodd" clip-rule="evenodd" d="M3 6.5C3 5.119 4.119 4 5.5 4H10.5C11.881 4 13 5.119 13 6.5V11.5C13 12.881 11.881 14 10.5 14H5.5C4.119 14 3 12.881 3 11.5V6.5ZM7 13H9V11H7V13ZM6 11H4V11.5C4 12.328 4.672 13 5.5 13H6V11ZM7 10H9V8H7V10ZM6 8H4V10H6V8ZM7 7H9V5H7V7ZM6 5H5.5C4.672 5 4 5.672 4 6.5V7H6V5ZM10 8V10H12V8H10ZM10 11V13H10.5C11.328 13 12 12.328 12 11.5V11H10ZM12 7V6.5C12 5.672 11.328 5 10.5 5H10V7H12Z" fill="#202020"/>
</svg>
