<svg width="16" height="16" viewBox="0 0 16 16" fill="none" xmlns="http://www.w3.org/2000/svg">
<path d="M8.85355 3.14645C8.65829 2.95118 8.34171 2.95118 8.14645 3.14645C7.95118 3.34171 7.95118 3.65829 8.14645 3.85355L9.14645 4.85355C9.34171 5.04882 9.65829 5.04882 9.85355 4.85355L10.8536 3.85355C11.0488 3.65829 11.0488 3.34171 10.8536 3.14645C10.6583 2.95118 10.3417 2.95118 10.1464 3.14645L9.5 3.79289L8.85355 3.14645Z" fill="#202020"/>
<path fill-rule="evenodd" clip-rule="evenodd" d="M2.5 1C1.67157 1 1 1.67157 1 2.5V5.5C1 6.32843 1.67157 7 2.5 7H11.5C12.3284 7 13 6.32843 13 5.5V2.5C13 1.67157 12.3284 1 11.5 1H2.5ZM2 2.5C2 2.22386 2.22386 2 2.5 2H11.5C11.7761 2 12 2.22386 12 2.5V5.5C12 5.77614 11.7761 6 11.5 6H2.5C2.22386 6 2 5.77614 2 5.5V2.5Z" fill="#202020"/>
<path d="M10.8536 11.1464C10.6583 10.9512 10.3417 10.9512 10.1464 11.1464C9.95118 11.3417 9.95118 11.6583 10.1464 11.8536L11.1464 12.8536C11.3417 13.0488 11.6583 13.0488 11.8536 12.8536L12.8536 11.8536C13.0488 11.6583 13.0488 11.3417 12.8536 11.1464C12.6583 10.9512 12.3417 10.9512 12.1464 11.1464L11.5 11.7929L10.8536 11.1464Z" fill="#202020"/>
<path fill-rule="evenodd" clip-rule="evenodd" d="M3 10.5C3 9.67157 3.67157 9 4.5 9H13.5C14.3284 9 15 9.67157 15 10.5V13.5C15 14.3284 14.3284 15 13.5 15H4.5C3.67157 15 3 14.3284 3 13.5V10.5ZM4.5 10C4.22386 10 4 10.2239 4 10.5V13.5C4 13.7761 4.22386 14 4.5 14H13.5C13.7761 14 14 13.7761 14 13.5V10.5C14 10.2239 13.7761 10 13.5 10H4.5Z" fill="#202020"/>
</svg>
