<svg width="16" height="16" viewBox="0 0 16 16" fill="none" xmlns="http://www.w3.org/2000/svg">
<path d="M2 4.5V3.75C2 3.286 2.184 2.841 2.513 2.513C2.841 2.185 3.286 2 3.75 2H4.5C4.776 2 5 2.224 5 2.5C5 2.776 4.776 3 4.5 3H3.75C3.551 3 3.36 3.079 3.22 3.22C3.079 3.361 3 3.551 3 3.75V4.5C3 4.776 2.776 5 2.5 5C2.224 5 2 4.776 2 4.5ZM2.5 10C2.776 10 3 9.776 3 9.5V6.5C3 6.224 2.776 6 2.5 6C2.224 6 2 6.224 2 6.5V9.5C2 9.776 2.224 10 2.5 10ZM4.5 13H3.75C3.551 13 3.36 12.921 3.22 12.78C3.079 12.639 3 12.449 3 12.25V11.5C3 11.224 2.776 11 2.5 11C2.224 11 2 11.224 2 11.5V12.25C2 12.714 2.184 13.159 2.513 13.487C2.841 13.815 3.286 14 3.75 14H4.5C4.776 14 5 13.776 5 13.5C5 13.224 4.776 13 4.5 13ZM9.5 13H6.5C6.224 13 6 13.224 6 13.5C6 13.776 6.224 14 6.5 14H9.5C9.776 14 10 13.776 10 13.5C10 13.224 9.776 13 9.5 13ZM13.5 11C13.224 11 13 11.224 13 11.5V12.25C13 12.449 12.921 12.64 12.78 12.78C12.639 12.921 12.449 13 12.25 13H11.5C11.224 13 11 13.224 11 13.5C11 13.776 11.224 14 11.5 14H12.25C12.714 14 13.159 13.816 13.487 13.487C13.815 13.158 14 12.714 14 12.25V11.5C14 11.224 13.776 11 13.5 11ZM13.5 6C13.224 6 13 6.224 13 6.5V9.5C13 9.776 13.224 10 13.5 10C13.776 10 14 9.776 14 9.5V6.5C14 6.224 13.776 6 13.5 6ZM13.487 2.513C13.159 2.185 12.714 2 12.25 2H11.5C11.224 2 11 2.224 11 2.5C11 2.776 11.224 3 11.5 3H12.25C12.449 3 12.64 3.079 12.78 3.22C12.921 3.361 13 3.551 13 3.75V4.5C13 4.776 13.224 5 13.5 5C13.776 5 14 4.776 14 4.5V3.75C14 3.286 13.816 2.841 13.487 2.513ZM6.5 3H9.5C9.776 3 10 2.776 10 2.5C10 2.224 9.776 2 9.5 2H6.5C6.224 2 6 2.224 6 2.5C6 2.776 6.224 3 6.5 3ZM6.5 11H5C4.448 11 4 10.551 4 10V6C4 5.449 4.448 5 5 5H6.5C7.1 5 7.633 5.271 8 5.691C8.367 5.271 8.9 5 9.5 5H11C11.552 5 12 5.449 12 6V10C12 10.551 11.552 11 11 11H9.5C8.9 11 8.367 10.729 8 10.309C7.633 10.729 7.1 11 6.5 11ZM8.5 7V9C8.5 9.551 8.948 10 9.5 10H11V6H9.5C8.948 6 8.5 6.449 8.5 7ZM5 10H6.5C7.052 10 7.5 9.551 7.5 9V7C7.5 6.449 7.052 6 6.5 6H5V10Z" fill="#202020"/>
</svg>
