<svg width="16" height="16" viewBox="0 0 16 16" fill="none" xmlns="http://www.w3.org/2000/svg">
<path fill-rule="evenodd" clip-rule="evenodd" d="M6 8C6 6.89543 6.89543 6 8 6C9.10457 6 10 6.89543 10 8C10 9.10457 9.10457 10 8 10C6.89543 10 6 9.10457 6 8ZM8 7C7.44772 7 7 7.44772 7 8C7 8.55228 7.44772 9 8 9C8.55228 9 9 8.55228 9 8C9 7.44772 8.55228 7 8 7Z" fill="#006CBF"/>
<path d="M2 8C2 4.68629 4.68629 2 8 2C11.3137 2 14 4.68629 14 8C14 10.6124 12.3304 12.8349 10 13.6586V12.584C11.7659 11.8124 13 10.0503 13 8C13 5.23858 10.7614 3 8 3C5.23858 3 3 5.23858 3 8C3 8.71073 3.14829 9.38682 3.41562 9.99902H2.34107C2.12018 9.37374 2 8.70091 2 8Z" fill="#006CBF"/>
<path fill-rule="evenodd" clip-rule="evenodd" d="M1.5 10.999H7.5C7.89782 10.999 8.27936 11.1571 8.56066 11.4384C8.84196 11.7197 9 12.1012 9 12.499V14.499C9 14.6316 8.94732 14.7588 8.85355 14.8526C8.75979 14.9463 8.63261 14.999 8.5 14.999H8V15.499C8 15.7752 7.77614 15.999 7.5 15.999C7.22386 15.999 7 15.7752 7 15.499V14.999H2V15.499C2 15.7752 1.77614 15.999 1.5 15.999C1.22386 15.999 1 15.7752 1 15.499V14.999H0.5C0.367392 14.999 0.240215 14.9463 0.146447 14.8526C0.0526784 14.7588 0 14.6316 0 14.499V12.499C0 12.1012 0.158035 11.7197 0.43934 11.4384C0.720644 11.1571 1.10218 10.999 1.5 10.999ZM7.5 13.999C7.63261 13.999 7.75979 13.9463 7.85355 13.8526C7.94732 13.7588 8 13.6316 8 13.499C8 13.4001 7.97068 13.3035 7.91574 13.2212C7.86079 13.139 7.7827 13.0749 7.69134 13.0371C7.59998 12.9992 7.49944 12.9893 7.40245 13.0086C7.30546 13.0279 7.21637 13.0755 7.14645 13.1455C7.07652 13.2154 7.0289 13.3045 7.00961 13.4015C6.99031 13.4985 7.00022 13.599 7.03806 13.6904C7.0759 13.7817 7.13999 13.8598 7.22221 13.9148C7.30444 13.9697 7.40111 13.999 7.5 13.999Z" fill="#202020"/>
</svg>
