<svg width="16" height="16" viewBox="0 0 16 16" fill="none" xmlns="http://www.w3.org/2000/svg">
<g clip-path="url(#clip0_7199_53826)">
<path d="M3 2C1.89543 2 1 2.89543 1 4V6.35418C1.28596 6.03018 1.62359 5.75287 2 5.53513V4C2 3.44772 2.44772 3 3 3H13C13.5523 3 14 3.44772 14 4V8.52085L14.9539 10.4287C14.9841 10.2906 15 10.1472 15 10V4C15 2.89543 14.1046 2 13 2H3Z" fill="#202020"/>
<path d="M7.26744 12L7.76744 11H7.46487C7.33133 11.2309 7.17538 11.4471 7 11.6458V12H7.26744Z" fill="#202020"/>
<path d="M9.26744 8L8.76744 9H8.5C8.22386 9 8 8.77614 8 8.5C8 8.22386 8.22386 8 8.5 8H9.26744Z" fill="#202020"/>
<path d="M4.37051 5.01693C5.23921 5.09672 6.02752 5.45428 6.64582 6H11.5C11.7761 6 12 5.77614 12 5.5C12 5.22386 11.7761 5 11.5 5H4.5C4.45522 5 4.41181 5.00589 4.37051 5.01693Z" fill="#202020"/>
<path d="M4 12C5.657 12 7 10.657 7 9C7 7.343 5.657 6 4 6C2.343 6 1 7.343 1 9C1 10.657 2.343 12 4 12Z" fill="#202020"/>
<path d="M2 14.5V12.443C2.591 12.787 3.268 12.999 4 12.999C4.732 12.999 5.409 12.787 6 12.443V14.499C6 14.59 5.975 14.678 5.929 14.756C5.882 14.834 5.816 14.897 5.736 14.94C5.656 14.983 5.566 15.003 5.476 14.999C5.386 14.995 5.298 14.966 5.223 14.916L4 14.1L2.777 14.915C2.695 14.97 2.599 15 2.5 15C2.418 15 2.337 14.98 2.264 14.941C2.184 14.898 2.118 14.835 2.071 14.757C2.024 14.679 2 14.591 2 14.5Z" fill="#202020"/>
<path fill-rule="evenodd" clip-rule="evenodd" d="M12.3931 7.55201L15.8931 14.552C15.9694 14.7044 16.0056 14.8738 15.9981 15.044C15.9906 15.2143 15.9397 15.3799 15.8502 15.5249C15.7607 15.67 15.6357 15.7898 15.4869 15.8729C15.3381 15.9561 15.1705 15.9998 15.0001 16H8.00006C7.8292 16.0007 7.66101 15.9576 7.51154 15.8748C7.36207 15.792 7.23631 15.6723 7.14625 15.5271C7.0562 15.3818 7.00486 15.216 6.99712 15.0453C6.98938 14.8746 7.02551 14.7048 7.10206 14.552L10.6021 7.55201C10.6849 7.38534 10.8126 7.24509 10.9708 7.14705C11.129 7.04901 11.3114 6.99707 11.4976 6.99707C11.6837 6.99707 11.8661 7.04901 12.0243 7.14705C12.1825 7.24509 12.3102 7.38534 12.3931 7.55201ZM12 12.495V9.495C12 9.36239 11.9473 9.23521 11.8536 9.14144C11.7598 9.04767 11.6326 8.995 11.5 8.995C11.3674 8.995 11.2402 9.04767 11.1464 9.14144C11.0527 9.23521 11 9.36239 11 9.495V12.495C11 12.6276 11.0527 12.7548 11.1464 12.8485C11.2402 12.9423 11.3674 12.995 11.5 12.995C11.6326 12.995 11.7598 12.9423 11.8536 12.8485C11.9473 12.7548 12 12.6276 12 12.495ZM11.2222 14.0843C11.3044 14.0293 11.4011 14 11.5 14C11.6326 14 11.7598 14.0527 11.8536 14.1464C11.9473 14.2402 12 14.3674 12 14.5C12 14.5989 11.9707 14.6956 11.9157 14.7778C11.8608 14.86 11.7827 14.9241 11.6913 14.9619C11.6 14.9998 11.4994 15.0097 11.4025 14.9904C11.3055 14.9711 11.2164 14.9235 11.1464 14.8535C11.0765 14.7836 11.0289 14.6945 11.0096 14.5975C10.9903 14.5006 11.0002 14.4 11.0381 14.3087C11.0759 14.2173 11.14 14.1392 11.2222 14.0843Z" fill="#B27C00"/>
</g>
<defs>
<clipPath id="clip0_7199_53826">
<rect width="16" height="16" fill="white"/>
</clipPath>
</defs>
</svg>
