<svg width="16" height="16" viewBox="0 0 16 16" fill="none" xmlns="http://www.w3.org/2000/svg">
<path d="M3 2C1.89543 2 1 2.89543 1 4V6.35418C1.28596 6.03018 1.62359 5.75287 2 5.53513V4C2 3.44772 2.44772 3 3 3H13C13.5523 3 14 3.44772 14 4V6.59971C14.3578 6.78261 14.6929 7.00353 15 7.25716V4C15 2.89543 14.1046 2 13 2H3Z" fill="#202020"/>
<path d="M6.94368 8.41844C6.39514 9.22792 6.05665 10.1913 6.00649 11.2304C5.47499 11.7088 4.77153 12 4 12C2.343 12 1 10.657 1 9C1 7.343 2.343 6 4 6C5.45802 6 6.67293 7.03983 6.94368 8.41844Z" fill="#202020"/>
<path d="M11.5 6C11.7761 6 12 5.77614 12 5.5C12 5.22386 11.7761 5 11.5 5H4.5C4.45522 5 4.41181 5.00589 4.37051 5.01693C5.23921 5.09672 6.02752 5.45428 6.64582 6H11.5Z" fill="#202020"/>
<path d="M2 14.5V12.443C2.591 12.787 3.268 12.999 4 12.999C4.732 12.999 5.409 12.787 6 12.443V14.499C6 14.59 5.975 14.678 5.929 14.756C5.882 14.834 5.816 14.897 5.736 14.94C5.656 14.983 5.566 15.003 5.476 14.999C5.386 14.995 5.298 14.966 5.223 14.916L4 14.1L2.777 14.915C2.695 14.97 2.599 15 2.5 15C2.418 15 2.337 14.98 2.264 14.941C2.184 14.898 2.118 14.835 2.071 14.757C2.024 14.679 2 14.591 2 14.5Z" fill="#202020"/>
<path fill-rule="evenodd" clip-rule="evenodd" d="M11.5 16C13.9853 16 16 13.9853 16 11.5C16 9.01472 13.9853 7 11.5 7C9.01472 7 7 9.01472 7 11.5C7 13.9853 9.01472 16 11.5 16ZM13.3536 10.3536C13.5488 10.1583 13.5488 9.84171 13.3536 9.64645C13.1583 9.45118 12.8417 9.45118 12.6464 9.64645L11.5 10.7929L10.3536 9.64645C10.1583 9.45118 9.84171 9.45118 9.64645 9.64645C9.45118 9.84171 9.45118 10.1583 9.64645 10.3536L10.7929 11.5L9.64645 12.6464C9.45118 12.8417 9.45118 13.1583 9.64645 13.3536C9.84171 13.5488 10.1583 13.5488 10.3536 13.3536L11.5 12.2071L12.6464 13.3536C12.8417 13.5488 13.1583 13.5488 13.3536 13.3536C13.5488 13.1583 13.5488 12.8417 13.3536 12.6464L12.2071 11.5L13.3536 10.3536Z" fill="#C50F1F"/>
</svg>
