<svg width="16" height="16" viewBox="0 0 16 16" fill="none" xmlns="http://www.w3.org/2000/svg">
<g clip-path="url(#clip0_7199_53890)">
<path fill-rule="evenodd" clip-rule="evenodd" d="M4.5 9H6.29289L2.14645 13.1464C1.95118 13.3417 1.95118 13.6583 2.14645 13.8536C2.34171 14.0488 2.65829 14.0488 2.85355 13.8536L7.5 9.20711L10.0137 11.7208C9.99499 11.5937 9.99258 11.4638 10.0072 11.3344C10.0376 11.0648 10.1404 10.8099 10.3029 10.5958L8.70711 9H10.5C11.4283 9 12.3185 8.63125 12.9749 7.97487C13.6313 7.3185 14 6.42826 14 5.5C14 4.57174 13.6313 3.6815 12.9749 3.02513C12.3185 2.36875 11.4283 2 10.5 2C9.57174 2 8.6815 2.36875 8.02513 3.02513C7.82163 3.22862 7.64578 3.4546 7.49999 3.69721C7.47123 3.64934 7.44127 3.60209 7.41014 3.55551C7.02556 2.97993 6.47893 2.53133 5.83939 2.26642C5.19985 2.00152 4.49612 1.9322 3.81719 2.06725C3.13825 2.2023 2.51461 2.53564 2.02513 3.02513C1.53564 3.51461 1.2023 4.13825 1.06725 4.81719C0.932205 5.49612 1.00152 6.19985 1.26642 6.83939C1.53133 7.47893 1.97993 8.02556 2.55551 8.41014C3.13108 8.79473 3.80777 9 4.5 9ZM4.01228 3.04804C4.49723 2.95158 4.9999 3.00108 5.45671 3.1903C5.91353 3.37952 6.30397 3.69995 6.57868 4.11108C6.85338 4.5222 7 5.00555 7 5.5V8H4.5C4.00555 8 3.5222 7.85338 3.11108 7.57868C2.69995 7.30397 2.37952 6.91353 2.1903 6.45671C2.00108 5.9999 1.95158 5.49723 2.04804 5.01228C2.1445 4.52732 2.3826 4.08187 2.73223 3.73223C3.08187 3.3826 3.52732 3.1445 4.01228 3.04804ZM8 8H10.5C11.163 8 11.7989 7.73661 12.2678 7.26777C12.7366 6.79893 13 6.16304 13 5.5C13 4.83696 12.7366 4.20107 12.2678 3.73223C11.7989 3.26339 11.163 3 10.5 3C9.83696 3 9.20107 3.26339 8.73223 3.73223C8.26339 4.20107 8 4.83696 8 5.5L8 8Z" fill="#202020"/>
<path d="M14 12.294V10.708L15.146 11.855C15.2399 11.9489 15.3672 12.0017 15.5 12.0017C15.6328 12.0017 15.7601 11.9489 15.854 11.855C15.9479 11.7612 16.0006 11.6338 16.0006 11.501C16.0006 11.3683 15.9479 11.2409 15.854 11.147L13.854 9.14704C13.8076 9.10047 13.7524 9.06353 13.6916 9.03833C13.6309 9.01312 13.5658 9.00014 13.5 9.00014C13.4342 9.00014 13.3691 9.01312 13.3084 9.03833C13.2476 9.06353 13.1924 9.10047 13.146 9.14704L11.146 11.147C11.0521 11.2409 10.9994 11.3683 10.9994 11.501C10.9994 11.6338 11.0521 11.7612 11.146 11.855C11.2399 11.9489 11.3672 12.0017 11.5 12.0017C11.6328 12.0017 11.7601 11.9489 11.854 11.855L13 10.708V15.501C13 15.6336 13.0527 15.7608 13.1464 15.8546C13.2402 15.9484 13.3674 16.001 13.5 16.001C13.6326 16.001 13.7598 15.9484 13.8536 15.8546C13.9473 15.7608 14 15.6336 14 15.501V13.708L15 14.708V15.501C15 15.6336 15.0527 15.7608 15.1464 15.8546C15.2402 15.9484 15.3674 16.001 15.5 16.001C15.6326 16.001 15.7598 15.9484 15.8536 15.8546C15.9473 15.7608 16 15.6336 16 15.501V14.501C16.0001 14.4353 15.9873 14.3702 15.9622 14.3095C15.9372 14.2488 15.9004 14.1936 15.854 14.147L14 12.294Z" fill="#11910D"/>
</g>
<defs>
<clipPath id="clip0_7199_53890">
<rect width="16" height="16" fill="white"/>
</clipPath>
</defs>
</svg>
