<svg width="16" height="16" viewBox="0 0 16 16" fill="none" xmlns="http://www.w3.org/2000/svg">
<g clip-path="url(#clip0_7199_53880)">
<path fill-rule="evenodd" clip-rule="evenodd" d="M6.29289 9H4.5C3.80777 9 3.13108 8.79473 2.55551 8.41014C1.97993 8.02556 1.53133 7.47893 1.26642 6.83939C1.00152 6.19985 0.932205 5.49612 1.06725 4.81719C1.2023 4.13825 1.53564 3.51461 2.02513 3.02513C2.51461 2.53564 3.13825 2.2023 3.81719 2.06725C4.49612 1.9322 5.19985 2.00152 5.83939 2.26642C6.47893 2.53133 7.02556 2.97993 7.41014 3.55551C7.44127 3.60209 7.47123 3.64934 7.49999 3.69721C7.64578 3.4546 7.82163 3.22862 8.02513 3.02513C8.6815 2.36875 9.57174 2 10.5 2C11.4283 2 12.3185 2.36875 12.9749 3.02513C13.6313 3.6815 14 4.57174 14 5.5C14 6.42826 13.6313 7.3185 12.9749 7.97487C12.3185 8.63125 11.4283 9 10.5 9H8.70711L11.7224 12.0153C11.4835 11.9791 11.2378 12.001 11.0068 12.081C10.8575 12.1327 10.7184 12.2073 10.5941 12.3012L7.5 9.20711L2.85355 13.8536C2.65829 14.0488 2.34171 14.0488 2.14645 13.8536C1.95118 13.6583 1.95118 13.3417 2.14645 13.1464L6.29289 9ZM5.45671 3.1903C4.9999 3.00108 4.49723 2.95158 4.01228 3.04804C3.52732 3.1445 3.08187 3.3826 2.73223 3.73223C2.3826 4.08187 2.1445 4.52732 2.04804 5.01228C1.95158 5.49723 2.00108 5.9999 2.1903 6.45671C2.37952 6.91353 2.69995 7.30397 3.11108 7.57868C3.5222 7.85338 4.00555 8 4.5 8H7V5.5C7 5.00555 6.85338 4.5222 6.57868 4.11108C6.30397 3.69995 5.91353 3.37952 5.45671 3.1903ZM10.5 8H8L8 5.5C8 4.83696 8.26339 4.20107 8.73223 3.73223C9.20107 3.26339 9.83696 3 10.5 3C11.163 3 11.7989 3.26339 12.2678 3.73223C12.7366 4.20107 13 4.83696 13 5.5C13 6.16304 12.7366 6.79893 12.2678 7.26777C11.7989 7.73661 11.163 8 10.5 8Z" fill="#202020"/>
<path d="M14 12.707V14.293L15.146 13.146C15.2399 13.0521 15.3672 12.9994 15.5 12.9994C15.6328 12.9994 15.7601 13.0521 15.854 13.146C15.9479 13.2399 16.0006 13.3672 16.0006 13.5C16.0006 13.6328 15.9479 13.7601 15.854 13.854L13.854 15.854C13.8076 15.9006 13.7524 15.9375 13.6916 15.9627C13.6309 15.9879 13.5658 16.0009 13.5 16.0009C13.4342 16.0009 13.3691 15.9879 13.3084 15.9627C13.2476 15.9375 13.1924 15.9006 13.146 15.854L11.146 13.854C11.0521 13.7601 10.9994 13.6328 10.9994 13.5C10.9994 13.3672 11.0521 13.2399 11.146 13.146C11.2399 13.0521 11.3672 12.9994 11.5 12.9994C11.6328 12.9994 11.7601 13.0521 11.854 13.146L13 14.293V9.5C13 9.36739 13.0527 9.24021 13.1464 9.14645C13.2402 9.05268 13.3674 9 13.5 9C13.6326 9 13.7598 9.05268 13.8536 9.14645C13.9473 9.24021 14 9.36739 14 9.5V11.293L15 10.293V9.5C15 9.36739 15.0527 9.24021 15.1464 9.14645C15.2402 9.05268 15.3674 9 15.5 9C15.6326 9 15.7598 9.05268 15.8536 9.14645C15.9473 9.24021 16 9.36739 16 9.5V10.5C16.0001 10.5657 15.9873 10.6308 15.9622 10.6915C15.9372 10.7523 15.9004 10.8075 15.854 10.854L14 12.707Z" fill="#11910D"/>
</g>
<defs>
<clipPath id="clip0_7199_53880">
<rect width="16" height="16" fill="white"/>
</clipPath>
</defs>
</svg>
