<svg width="16" height="16" viewBox="0 0 16 16" fill="none" xmlns="http://www.w3.org/2000/svg">
<path d="M8.75 15H7.25C6.561 15 6 14.439 6 13.75V6.25C6 5.561 6.561 5 7.25 5H8.75C9.439 5 10 5.561 10 6.25V13.75C10 14.439 9.439 15 8.75 15ZM7.25 6C7.112 6 7 6.112 7 6.25V13.75C7 13.888 7.112 14 7.25 14H8.75C8.888 14 9 13.888 9 13.75V6.25C9 6.112 8.888 6 8.75 6H7.25Z" fill="#3487C7"/>
<path fill-rule="evenodd" clip-rule="evenodd" d="M12.25 15H13.75C14.439 15 15 14.439 15 13.75V2.25C15 1.561 14.439 1 13.75 1H12.25C11.561 1 11 1.561 11 2.25V13.75C11 14.439 11.561 15 12.25 15ZM12 2.25C12 2.112 12.112 2 12.25 2H13.75C13.888 2 14 2.112 14 2.25V13.75C14 13.888 13.888 14 13.75 14H12.25C12.112 14 12 13.888 12 13.75V2.25Z" fill="#202020"/>
<path fill-rule="evenodd" clip-rule="evenodd" d="M2.25 15H3.75C4.439 15 5 14.439 5 13.75V8.25C5 7.561 4.439 7 3.75 7H2.25C1.561 7 1 7.561 1 8.25V13.75C1 14.439 1.561 15 2.25 15ZM2 8.25C2 8.112 2.112 8 2.25 8H3.75C3.888 8 4 8.112 4 8.25V13.75C4 13.888 3.888 14 3.75 14H2.25C2.112 14 2 13.888 2 13.75V8.25Z" fill="#202020"/>
</svg>
