<svg width="16" height="16" viewBox="0 0 16 16" fill="none" xmlns="http://www.w3.org/2000/svg">
<path d="M9.49997 11.9999C9.92697 12.0019 10.348 11.8939 10.722 11.6869C11.096 11.4799 11.41 11.1809 11.636 10.8169C11.861 10.4539 11.99 10.0389 12.009 9.61195C12.028 9.18495 11.938 8.75995 11.746 8.37795C11.554 7.99595 11.268 7.66994 10.914 7.42994C10.56 7.18994 10.151 7.04494 9.72497 7.00894C9.29897 6.97294 8.87097 7.04594 8.48197 7.22194C8.09297 7.39794 7.75497 7.67095 7.50097 8.01495C7.24697 7.67095 6.90897 7.39794 6.51997 7.22194C6.13097 7.04594 5.70197 6.97294 5.27697 7.00894C4.85097 7.04494 4.44197 7.19094 4.08797 7.42994C3.73397 7.66994 3.44797 7.99595 3.25597 8.37795C3.06397 8.75995 2.97397 9.18495 2.99297 9.61195C3.01197 10.0389 3.14097 10.4539 3.36597 10.8169C3.59097 11.1799 3.90597 11.4799 4.27997 11.6869C4.65397 11.8939 5.07497 12.0019 5.50197 11.9999H6.29497L4.00197 14.2919C3.80597 14.4869 3.80597 14.8039 4.00197 14.9999C4.19697 15.1949 4.51397 15.1949 4.70997 14.9999L7.50197 12.2069L10.294 14.9999C10.489 15.1959 10.806 15.1959 11.002 14.9999C11.197 14.8039 11.197 14.4879 11.002 14.2919L8.70897 11.9999H9.50197H9.49997ZM6.99997 10.9999H5.49997C5.20297 10.9999 4.91297 10.9119 4.66697 10.7469C4.41997 10.5819 4.22797 10.3479 4.11497 10.0739C4.00097 9.79995 3.97197 9.49794 4.02997 9.20694C4.08797 8.91594 4.23097 8.64894 4.44097 8.43894C4.65097 8.22894 4.91797 8.08594 5.20897 8.02794C5.49997 7.96994 5.80197 7.99994 6.07597 8.11294C6.34997 8.22694 6.58397 8.41894 6.74897 8.66494C6.91397 8.91194 7.00197 9.20194 7.00197 9.49794V10.9979L6.99997 10.9999ZM7.99997 9.49994C7.99997 9.20294 8.08797 8.91294 8.25297 8.66694C8.41797 8.41994 8.65197 8.22794 8.92597 8.11494C9.19997 8.00094 9.50197 7.97194 9.79297 8.02994C10.084 8.08794 10.351 8.23094 10.561 8.44094C10.771 8.65094 10.914 8.91794 10.971 9.20894C11.028 9.49994 10.999 9.80194 10.886 10.0759C10.772 10.3499 10.58 10.5839 10.334 10.7489C10.087 10.9139 9.79697 11.0019 9.50097 11.0019H8.00097V9.50194L7.99997 9.49994Z" fill="#202020"/>
<path d="M9.85398 3.14601L7.85398 1.14601C7.65898 0.951006 7.34198 0.951006 7.14698 1.14601L5.14698 3.14601C4.95198 3.34101 4.95198 3.65801 5.14698 3.85301C5.34198 4.04801 5.65898 4.04801 5.85398 3.85301L6.99998 2.70701V5.50001C6.99998 5.77601 7.22398 6.00001 7.49998 6.00001C7.77598 6.00001 7.99998 5.77601 7.99998 5.50001V2.70701L9.14598 3.85301C9.24398 3.95101 9.37198 3.99901 9.49998 3.99901C9.62798 3.99901 9.75598 3.95001 9.85398 3.85301C10.049 3.65801 10.049 3.34101 9.85398 3.14601Z" fill="#006CBF"/>
</svg>
