<svg width="16" height="16" viewBox="0 0 16 16" fill="none" xmlns="http://www.w3.org/2000/svg">
<path fill-rule="evenodd" clip-rule="evenodd" d="M8.5 2H11.5C11.8978 2 12.2794 2.15804 12.5607 2.43934C12.842 2.72064 13 3.10218 13 3.5V12.5C13 12.8978 12.842 13.2794 12.5607 13.5607C12.2794 13.842 11.8978 14 11.5 14H9V13H11.5C11.6326 13 11.7598 12.9473 11.8536 12.8536C11.9473 12.7598 12 12.6326 12 12.5V11H9V10H12V6H8V7.26794C7.69855 7.09391 7.35412 7 7 7V3.5C7 3.10218 7.15804 2.72064 7.43934 2.43934C7.72064 2.15804 8.10218 2 8.5 2ZM8.14645 3.14645C8.05268 3.24021 8 3.36739 8 3.5V5H12V3.5C12 3.36739 11.9473 3.24021 11.8536 3.14645C11.7598 3.05268 11.6326 3 11.5 3H8.5C8.36739 3 8.24021 3.05268 8.14645 3.14645Z" fill="#202020"/>
<path d="M7.707 8.293C7.51951 8.10545 7.26519 8.00006 7 8H1C0.734805 8.00006 0.480493 8.10545 0.293 8.293C0.105451 8.48049 5.66374e-05 8.73481 0 9V15C5.66374e-05 15.2652 0.105451 15.5195 0.293 15.707C0.480493 15.8946 0.734805 15.9999 1 16H7C7.26519 15.9999 7.51951 15.8946 7.707 15.707C7.89455 15.5195 7.99994 15.2652 8 15V9C7.99994 8.73481 7.89455 8.48049 7.707 8.293ZM7 15H1V9H7V15Z" fill="#202020"/>
</svg>
