<svg width="16" height="16" viewBox="0 0 16 16" fill="none" xmlns="http://www.w3.org/2000/svg">
<path d="M12 2H4C2.346 2 1 3.346 1 5V10C1 11.654 2.346 13 4 13H12C13.654 13 15 11.654 15 10V5C15 3.346 13.654 2 12 2ZM14 10C14 11.103 13.103 12 12 12H4C2.897 12 2 11.103 2 10V5C2 3.897 2.897 3 4 3H12C13.103 3 14 3.897 14 5V10ZM12 4H4C3.449 4 3 4.448 3 5V10C3 10.552 3.449 11 4 11H12C12.551 11 13 10.552 13 10V5C13 4.448 12.551 4 12 4ZM12 7H10V5H12V7ZM7 7V5H9V7H7ZM9 8V10H7V8H9ZM6 5V7H4V5H6ZM4 8H6V10H4V8ZM10 10V8H12V10H10Z" fill="#202020"/>
</svg>
