<svg width="16" height="16" viewBox="0 0 16 16" fill="none" xmlns="http://www.w3.org/2000/svg">
<path fill-rule="evenodd" clip-rule="evenodd" d="M3 2H4C4.552 2 5 2.448 5 3V4C5 4.552 4.552 5 4 5H3C2.448 5 2 4.552 2 4V3C2 2.448 2.448 2 3 2ZM3 4H4V3H3V4Z" fill="#202020"/>
<path d="M13.5 4H7.5C7.224 4 7 3.776 7 3.5C7 3.224 7.224 3 7.5 3H13.5C13.776 3 14 3.224 14 3.5C14 3.776 13.776 4 13.5 4Z" fill="#202020"/>
<path d="M7.5 7H13.5C13.776 7 14 7.224 14 7.5C14 7.776 13.776 8 13.5 8H7.5C7.224 8 7 7.776 7 7.5C7 7.224 7.224 7 7.5 7Z" fill="#202020"/>
<path d="M13.5 11H7.5C7.224 11 7 11.224 7 11.5C7 11.776 7.224 12 7.5 12H13.5C13.776 12 14 11.776 14 11.5C14 11.224 13.776 11 13.5 11Z" fill="#202020"/>
<path fill-rule="evenodd" clip-rule="evenodd" d="M4 6H3C2.448 6 2 6.448 2 7V8C2 8.552 2.448 9 3 9H4C4.552 9 5 8.552 5 8V7C5 6.448 4.552 6 4 6ZM4 8H3V7H4V8Z" fill="#202020"/>
<path fill-rule="evenodd" clip-rule="evenodd" d="M3 10H4C4.552 10 5 10.448 5 11V12C5 12.552 4.552 13 4 13H3C2.448 13 2 12.552 2 12V11C2 10.448 2.448 10 3 10ZM3 12H4V11H3V12Z" fill="#202020"/>
</svg>
