<svg width="16" height="16" viewBox="0 0 16 16" fill="none" xmlns="http://www.w3.org/2000/svg">
<path d="M9.85398 3.14601L7.85398 1.14601C7.65898 0.951006 7.34198 0.951006 7.14698 1.14601L5.14698 3.14601C4.95198 3.34101 4.95198 3.65801 5.14698 3.85301C5.34198 4.04801 5.65898 4.04801 5.85398 3.85301L6.99998 2.70701V7.50001C6.99998 7.77601 7.22398 8.00001 7.49998 8.00001C7.77598 8.00001 7.99998 7.77601 7.99998 7.50001V2.70701L9.14598 3.85301C9.24398 3.95101 9.37198 3.99901 9.49998 3.99901C9.62798 3.99901 9.75598 3.95001 9.85398 3.85301C10.049 3.65801 10.049 3.34101 9.85398 3.14601Z" fill="#006CBF"/>
<path d="M13 14H2C1.449 14 1 13.552 1 13V10C1 9.448 1.449 9 2 9H13C13.551 9 14 9.448 14 10V13C14 13.552 13.551 14 13 14ZM2 10V13H13V10H2Z" fill="#202020"/>
</svg>
