<svg width="16" height="16" viewBox="0 0 16 16" fill="none" xmlns="http://www.w3.org/2000/svg">
<path d="M6.99984 5.00009H4.99984V7.00009H6.99984V5.00009ZM10.9998 2.80909C10.3918 2.45709 9.71784 2.21009 8.99984 2.09009V3.00009H10.9998V2.80909ZM6.99984 9.00009H8.99984V7.00009H6.99984V9.00009ZM10.9998 7.00009V5.00009H8.99984V7.00009H10.9998ZM8.99984 11.0001H10.9998V9.00009H8.99984V11.0001ZM4.99984 9.00009V11.0001H6.99984V9.00009H4.99984ZM8.99984 5.00009V3.00009H6.99984V5.00009H8.99984ZM8.99984 13.9101C9.71784 13.7891 10.3918 13.5431 10.9998 13.1911V13.0001H8.99984V13.9101ZM12.9998 11.0001H13.1908C13.5428 10.3921 13.7898 9.71809 13.9098 9.00009H12.9998V11.0001ZM6.99984 2.09009C6.28184 2.21109 5.60784 2.45709 4.99984 2.80909V3.00009H6.99984V2.09009ZM13.9098 7.00009C13.7888 6.28209 13.5428 5.60809 13.1908 5.00009H12.9998V7.00009H13.9098ZM2.08984 9.00009C2.21084 9.71809 2.45684 10.3921 2.80884 11.0001H2.99984V9.00009H2.08984ZM4.99984 13.1911C5.60784 13.5431 6.28184 13.7901 6.99984 13.9101V13.0001H4.99984V13.1911ZM2.80884 5.00009C2.45684 5.60809 2.20984 6.28209 2.08984 7.00009H2.99984V5.00009H2.80884ZM6.99984 11.0001V13.0001H8.99984V11.0001H6.99984ZM4.99984 7.00009H2.99984V9.00009H4.99984V7.00009ZM2.99984 11.0001V11.3141C3.44384 11.9821 4.01784 12.5561 4.68584 13.0001H4.99984V11.0001H2.99984ZM10.9998 9.00009H12.9998V7.00009H10.9998V9.00009ZM12.9998 5.00009V4.68609C12.5558 4.01809 11.9818 3.44409 11.3138 3.00009H10.9998V5.00009H12.9998ZM10.9998 13.0001H11.3138C11.9818 12.5561 12.5558 11.9821 12.9998 11.3141V11.0001H10.9998V13.0001ZM4.99984 3.00009H4.68584C4.01784 3.44409 3.44384 4.01809 2.99984 4.68609V5.00009H4.99984V3.00009Z" fill="#202020"/>
</svg>
