<svg width="16" height="16" viewBox="0 0 16 16" fill="none" xmlns="http://www.w3.org/2000/svg">
<path d="M9.5 4H4.5C3.121 4 2 5.122 2 6.5V11.5C2 12.878 3.121 14 4.5 14H9.5C10.879 14 12 12.878 12 11.5V6.5C12 5.122 10.879 4 9.5 4ZM11 11.5C11 12.327 10.327 13 9.5 13H4.5C3.673 13 3 12.327 3 11.5V6.5C3 5.673 3.673 5 4.5 5H9.5C10.327 5 11 5.673 11 6.5V11.5ZM14 6.5V9C14 9.818 13.607 10.544 13 11V6.5C13 4.567 11.433 3 9.5 3H4C4.456 2.393 5.182 2 6 2H9.5C11.985 2 14 4.015 14 6.5ZM9.353 7.647C9.548 7.842 9.548 8.159 9.353 8.354L6.853 10.854C6.755 10.952 6.627 11 6.499 11C6.371 11 6.243 10.951 6.145 10.854L4.895 9.604C4.7 9.409 4.7 9.092 4.895 8.897C5.09 8.702 5.407 8.702 5.602 8.897L6.498 9.793L8.644 7.647C8.839 7.452 9.156 7.452 9.351 7.647H9.353Z" fill="#202020"/>
</svg>
