<svg width="16" height="16" viewBox="0 0 16 16" fill="none" xmlns="http://www.w3.org/2000/svg">
<path d="M4.04031 5.30305C4.14909 5.04923 4.44303 4.93166 4.69684 5.04043L7.99988 6.45602L11.3029 5.04043C11.5567 4.93166 11.8507 5.04923 11.9595 5.30305C12.0682 5.55686 11.9507 5.8508 11.6968 5.95958L11.6004 6.0009C11.567 6.0003 11.5335 6 11.5 6C9.92391 6 8.50266 6.66294 7.49988 7.72518V7.3297L4.30292 5.95958C4.04911 5.8508 3.93153 5.55686 4.04031 5.30305Z" fill="#5C2E91"/>
<path d="M6.30571 13.3127L2.32051 11.7799C2.12741 11.7057 2 11.5201 2 11.3133V4.68685C2 4.47997 2.12741 4.29445 2.32051 4.22018L7.28204 2.3119C7.74418 2.13415 8.25582 2.13415 8.71796 2.3119L13.6795 4.22018C13.8726 4.29445 14 4.47997 14 4.68685V6.59971C14.3578 6.78261 14.6929 7.00353 15 7.25716V4.68685C15 4.06619 14.6178 3.50964 14.0385 3.28683L9.07694 1.37855C8.38373 1.11193 7.61627 1.11193 6.92306 1.37855L1.96153 3.28683C1.38224 3.50964 1 4.06619 1 4.68685V11.3133C1 11.9339 1.38224 12.4905 1.96153 12.7133L6.92306 14.6216C6.94455 14.6298 6.9661 14.6378 6.98773 14.6456C6.7032 14.2382 6.47243 13.7905 6.30571 13.3127Z" fill="#5C2E91"/>
<path fill-rule="evenodd" clip-rule="evenodd" d="M11.5 16C13.9853 16 16 13.9853 16 11.5C16 9.01472 13.9853 7 11.5 7C9.01472 7 7 9.01472 7 11.5C7 13.9853 9.01472 16 11.5 16ZM11.5 8.50342C10.452 8.50342 9.63568 9.32081 9.64659 10.4577C9.64924 10.7338 9.87524 10.9555 10.1514 10.9529C10.4275 10.9502 10.6492 10.7242 10.6465 10.4481C10.641 9.8691 11.0062 9.50342 11.5 9.50342C11.9723 9.50342 12.3534 9.89531 12.3534 10.4529C12.3534 10.6547 12.2822 10.7679 11.9937 10.9968L11.7157 11.2118C11.2099 11.6161 11 11.9293 10.9999 12.5003C10.9999 12.7764 11.2238 13.0003 11.4999 13.0003C11.7454 13.0003 11.9495 12.8234 11.9919 12.5902L12.0034 12.434C12.0202 12.2863 12.103 12.1804 12.3487 11.9858L12.6257 11.7715C13.1391 11.3606 13.3534 11.0387 13.3534 10.4529C13.3534 9.34921 12.531 8.50342 11.5 8.50342ZM11.4999 13.3803C11.155 13.3803 10.8754 13.6599 10.8754 14.0048C10.8754 14.3497 11.155 14.6293 11.4999 14.6293C11.8448 14.6293 12.1244 14.3497 12.1244 14.0048C12.1244 13.6599 11.8448 13.3803 11.4999 13.3803Z" fill="#006CBF"/>
</svg>
