<svg width="16" height="16" viewBox="0 0 16 16" fill="none" xmlns="http://www.w3.org/2000/svg">
<path d="M1 3.24941C1 2.55938 1.55917 2 2.24895 2H2.74852C3.4383 2 3.99747 2.55938 3.99747 3.24941V6.37548L3.811 6.18901C3.6717 6.04962 3.5063 5.93904 3.32425 5.8636C3.21924 5.82009 3.10988 5.78875 2.99831 5.77002V3.24941C2.99831 3.11141 2.88648 2.99953 2.74852 2.99953H2.24895C2.11099 2.99953 1.99916 3.11141 1.99916 3.24941V5.95078C1.88606 6.01617 1.78175 6.0962 1.689 6.18901L1 6.87842V3.24941Z" fill="#202020"/>
<path d="M7.9941 3.24941V8.37211L7.561 7.93901C7.4217 7.79962 7.2563 7.68904 7.07425 7.6136C7.04807 7.60275 7.02162 7.59266 6.99494 7.58334V3.24941C6.99494 3.11141 6.88311 2.99953 6.74515 2.99953H6.24557C6.10762 2.99953 5.99578 3.11141 5.99578 3.24941V7.58661C5.97224 7.59502 5.94889 7.60401 5.92575 7.6136C5.7437 7.68904 5.5783 7.79962 5.439 7.93901L5.379 8.00001H5.229C5.19415 7.78923 5.11447 7.58961 4.99663 7.4141V3.24941C4.99663 2.55938 5.5558 2 6.24557 2H6.74515C7.43492 2 7.9941 2.55938 7.9941 3.24941Z" fill="#202020"/>
<path fill-rule="evenodd" clip-rule="evenodd" d="M11.9723 4.77682C11.7231 4.15733 11.0311 3.84331 10.4011 4.06385L9.81888 4.26764C9.14658 4.50297 8.80684 5.25222 9.07268 5.91326L12.0098 13.2166C12.2589 13.8361 12.9509 14.1502 13.581 13.9296L14.1632 13.7258C14.8355 13.4904 15.1752 12.7412 14.9093 12.0802L11.9723 4.77682ZM10.7311 5.00729C10.8571 4.96318 10.9955 5.02598 11.0453 5.14988L13.9824 12.4532C14.0356 12.5854 13.9676 12.7353 13.8332 12.7823L13.251 12.9862C13.1249 13.0303 12.9865 12.9675 12.9367 12.8436L9.99964 5.5402C9.94647 5.40799 10.0144 5.25815 10.1489 5.21108L10.7311 5.00729Z" fill="#202020"/>
<path d="M0.396828 8.89657C0.201566 9.09183 0.201566 9.40842 0.396828 9.60368L1.39668 10.6035C1.59194 10.7988 1.90852 10.7988 2.10378 10.6035L2.7073 10H3V13C3 13.2652 3.10536 13.5196 3.29289 13.7071C3.48043 13.8947 3.73479 14 4 14H4.81686C4.70846 14.1876 4.73165 14.4309 4.88807 14.595L5.37607 15.107C5.46899 15.2045 5.59732 15.2604 5.732 15.262C5.86668 15.2636 5.99632 15.2108 6.09155 15.1156L7.35355 13.8536C7.54882 13.6583 7.54882 13.3417 7.35355 13.1465L6.85355 12.6465C6.65829 12.4512 6.34171 12.4512 6.14645 12.6465L5.79289 13H4V10H4.82217C4.72152 10.1859 4.74699 10.4223 4.90009 10.583L5.38809 11.095C5.48102 11.1925 5.60935 11.2484 5.74403 11.25C5.87871 11.2516 6.00834 11.1988 6.10358 11.1036L7.35358 9.85356C7.54884 9.6583 7.54884 9.34172 7.35358 9.14645L6.85358 8.64645C6.65832 8.45119 6.34173 8.45119 6.14647 8.64645L5.79292 9.00001H3.7073L4.10348 8.60383C4.29874 8.40857 4.29874 8.09198 4.10348 7.89672L3.10363 6.89687C2.90837 6.70161 2.59179 6.70161 2.39653 6.89687L0.396828 8.89657Z" fill="#B27C00"/>
</svg>
