<svg width="16" height="16" viewBox="0 0 16 16" fill="none" xmlns="http://www.w3.org/2000/svg">
<g clip-path="url(#clip0_7199_54204)">
<path fill-rule="evenodd" clip-rule="evenodd" d="M5.121 3H6C6.82843 3 7.5 3.67157 7.5 4.5V11.5C7.5 12.3284 6.82843 13 6 13H2.5C2.22386 13 2 12.7761 2 12.5V6.12168L1.56099 6.56099C1.4012 6.72078 1.20908 6.84081 1 6.91471L1 12.5C1 13.3284 1.67157 14 2.5 14H6C6.8178 14 7.54389 13.6073 8 13.0002C8.45612 13.6073 9.1822 14 10 14H13.5C14.3284 14 15 13.3284 15 12.5V3.5C15 2.67157 14.3284 2 13.5 2H10C9.1822 2 8.45612 2.39267 8 2.99976C7.56612 2.42226 6.88794 2.03879 6.1189 2.00278L5.121 3ZM8.5 4.5V11.5C8.5 12.3284 9.17157 13 10 13H13.5C13.7761 13 14 12.7761 14 12.5V3.5C14 3.22386 13.7761 3 13.5 3H10C9.17157 3 8.5 3.67157 8.5 4.5Z" fill="#202020"/>
<path d="M5.85402 5.14602C5.94791 5.23991 6.00065 5.36725 6.00065 5.50002C6.00065 5.6328 5.94791 5.76013 5.85402 5.85402C5.76013 5.94791 5.6328 6.00065 5.50002 6.00065C5.36725 6.00065 5.23991 5.94791 5.14602 5.85402L3.00002 3.70702L0.854021 5.85402C0.760135 5.94791 0.632797 6.00065 0.500021 6.00065C0.367245 6.00065 0.239908 5.94791 0.146021 5.85402C0.0521346 5.76013 -0.000610349 5.6328 -0.000610352 5.50002C-0.000610354 5.36725 0.0521346 5.23991 0.146021 5.14602L2.29302 3.00002L0.146021 0.854021C0.0521346 0.760135 -0.000610353 0.632797 -0.000610352 0.500021C-0.000610351 0.367245 0.0521346 0.239908 0.146021 0.146021C0.239908 0.0521346 0.367245 -0.000610351 0.500021 -0.000610352C0.632797 -0.000610353 0.760135 0.0521346 0.854021 0.146021L3.00002 2.29302L5.14602 0.146021C5.23991 0.0521346 5.36725 -0.000610354 5.50002 -0.000610352C5.6328 -0.000610349 5.76013 0.0521346 5.85402 0.146021C5.94791 0.239908 6.00065 0.367245 6.00065 0.500021C6.00065 0.632797 5.94791 0.760135 5.85402 0.854021L3.70702 3.00002L5.85402 5.14602Z" fill="#C50F1F"/>
</g>
<defs>
<clipPath id="clip0_7199_54204">
<rect width="16" height="16" fill="white"/>
</clipPath>
</defs>
</svg>
