<svg width="16" height="16" viewBox="0 0 16 16" fill="none" xmlns="http://www.w3.org/2000/svg">
<path d="M14.85 1.85L9.85 6.85L9.15 6.15L14.15 1.15C14.34 0.95 14.66 0.95 14.85 1.15C15.05 1.34 15.05 1.66 14.85 1.85V1.85Z" fill="#202020"/>
<path d="M9.476 5.81698C8.024 4.71398 5.969 4.87998 4.653 6.18998L3.969 6.82898L1.294 8.04498C1.145 8.11298 1.038 8.24998 1.009 8.41098C0.979998 8.57198 1.031 8.73798 1.147 8.85398L7.147 14.854C7.263 14.97 7.428 15.022 7.59 14.992C7.751 14.963 7.888 14.856 7.956 14.707L9.168 12.04L9.854 11.354C11.179 10.029 11.289 7.97098 10.184 6.52398C9.982 6.25898 9.742 6.01898 9.476 5.81698V5.81698ZM4.141 7.84898L8.151 11.859L7.343 13.637L2.364 8.65698L4.142 7.84898H4.141ZM8.75 11.043L4.969 7.26298L5.341 6.91598L5.353 6.90398C6.418 5.83898 8.102 5.80998 9.146 6.85398C10.2 7.90798 10.2 9.59198 9.146 10.647L8.75 11.043V11.043Z" fill="#B27C00"/>
</svg>
