<svg width="16" height="16" viewBox="0 0 16 16" fill="none" xmlns="http://www.w3.org/2000/svg">
<path d="M9.5 13.9998H10.75C10.816 13.9998 10.88 13.9738 10.927 13.9268C10.974 13.8798 11 13.8168 11 13.7498V11.7068L10.354 12.3528C10.159 12.5478 9.842 12.5478 9.647 12.3528C9.452 12.1578 9.452 11.8408 9.647 11.6458L11.147 10.1458C11.342 9.95076 11.659 9.95076 11.854 10.1458L13.354 11.6458C13.549 11.8408 13.549 12.1578 13.354 12.3528C13.159 12.5478 12.842 12.5478 12.647 12.3528L12.001 11.7068V13.7498C12.001 14.0818 11.869 14.3988 11.635 14.6338C11.401 14.8678 11.083 14.9998 10.751 14.9998H9.5C9.224 14.9998 9 14.7758 9 14.4998C9 14.2238 9.224 13.9998 9.5 13.9998Z" fill="#006CBF"/>
<path d="M11 1C8.794 1 7 2.794 7 5C7 7.206 8.794 9 11 9C13.206 9 15 7.206 15 5C15 2.794 13.206 1 11 1ZM11 8C10.803 8 10.518 7.636 10.301 7H11.698C11.481 7.636 11.196 8 10.999 8H11ZM10.073 6C10.03 5.694 10 5.365 10 5C10 4.635 10.03 4.306 10.073 4H11.927C11.97 4.306 12 4.635 12 5C12 5.365 11.97 5.694 11.927 6H10.073ZM8 5C8 4.648 8.072 4.314 8.184 4H9.066C9.027 4.329 9 4.663 9 5C9 5.337 9.027 5.671 9.066 6H8.184C8.072 5.686 8 5.352 8 5ZM11 2C11.197 2 11.482 2.364 11.699 3H10.302C10.519 2.364 10.804 2 11.001 2H11ZM12.934 4H13.816C13.928 4.314 14 4.648 14 5C14 5.352 13.928 5.686 13.816 6H12.934C12.973 5.671 13 5.337 13 5C13 4.663 12.973 4.329 12.934 4ZM13.22 3H12.746C12.694 2.807 12.632 2.626 12.564 2.452C12.809 2.603 13.028 2.787 13.219 3H13.22ZM9.436 2.452C9.368 2.626 9.306 2.807 9.254 3H8.78C8.972 2.787 9.191 2.603 9.436 2.452ZM8.781 7H9.255C9.307 7.193 9.369 7.374 9.437 7.548C9.192 7.397 8.972 7.213 8.781 7ZM12.565 7.548C12.633 7.374 12.695 7.193 12.747 7H13.221C13.029 7.213 12.811 7.397 12.566 7.548H12.565Z" fill="#006CBF"/>
<path d="M5.5 8H1.5C0.673 8 0 8.673 0 9.5V13.5C0 14.327 0.673 15 1.5 15H5.5C6.327 15 7 14.327 7 13.5V9.5C7 8.673 6.327 8 5.5 8ZM1 9.5C1 9.225 1.224 9 1.5 9H5.5C5.776 9 6 9.225 6 9.5V10H1V9.5ZM6 13.5C6 13.775 5.776 14 5.5 14H1.5C1.224 14 1 13.775 1 13.5V11H6V13.5Z" fill="#202020"/>
</svg>
