<svg width="16" height="16" viewBox="0 0 16 16" fill="none" xmlns="http://www.w3.org/2000/svg">
<path d="M6.5 1H14.5C15.327 1 16 1.673 16 2.5V10.5C16 11.327 15.327 12 14.5 12H7V11H14.5C14.776 11 15 10.775 15 10.5V2.5C15 2.225 14.776 2 14.5 2H6.5C6.224 2 6 2.225 6 2.5V5.26756C5.70583 5.09739 5.36429 5 5 5V2.5C5 1.673 5.673 1 6.5 1Z" fill="#202020"/>
<path d="M7 9.5C7 9.776 7.224 10 7.5 10C7.776 10 8 9.776 8 9.5V4.5C8 4.224 7.776 4 7.5 4C7.224 4 7 4.224 7 4.5V9.5Z" fill="#202020"/>
<path d="M11 9.5V6C11 5.724 10.776 5.5 10.5 5.5C10.224 5.5 10 5.724 10 6V9.5C10 9.776 10.224 10 10.5 10C10.776 10 11 9.776 11 9.5Z" fill="#202020"/>
<path d="M14 9.5V3.5C14 3.224 13.776 3 13.5 3C13.224 3 13 3.224 13 3.5V9.5C13 9.776 13.224 10 13.5 10C13.776 10 14 9.776 14 9.5Z" fill="#202020"/>
<path d="M5 6H1C0.448 6 0 6.448 0 7V15C0 15.552 0.448 16 1 16H5C5.552 16 6 15.552 6 15V7C6 6.448 5.552 6 5 6ZM4.5 15H1.5C1.224 15 1 14.776 1 14.5C1 14.224 1.224 14 1.5 14H4.5C4.776 14 5 14.224 5 14.5C5 14.776 4.776 15 4.5 15ZM4.5 13H1.5C1.224 13 1 12.776 1 12.5C1 12.224 1.224 12 1.5 12H4.5C4.776 12 5 12.224 5 12.5C5 12.776 4.776 13 4.5 13ZM4.5 8H1.5C1.224 8 1 7.776 1 7.5C1 7.224 1.224 7 1.5 7H4.5C4.776 7 5 7.224 5 7.5C5 7.776 4.776 8 4.5 8Z" fill="#202020"/>
</svg>
