<svg width="16" height="16" viewBox="0 0 16 16" fill="none" xmlns="http://www.w3.org/2000/svg">
<path fill-rule="evenodd" clip-rule="evenodd" d="M4 8V13C4 14.1046 4.89543 15 6 15H12C13.1046 15 14 14.1046 14 13V5.41421C14 5.01639 13.842 4.63486 13.5607 4.35355L10.6464 1.43934C10.3651 1.15804 9.98361 1 9.58579 1H8V2H9V4.5C9 5.32843 9.67157 6 10.5 6H13V13C13 13.5523 12.5523 14 12 14H6C5.44772 14 5 13.5523 5 13V8H4ZM10.5 5H12.7929L10 2.20711V4.5C10 4.77614 10.2239 5 10.5 5Z" fill="#202020"/>
<path fill-rule="evenodd" clip-rule="evenodd" d="M1 0H6C6.26522 0 6.51957 0.105357 6.70711 0.292893C6.89464 0.48043 7 0.734784 7 1V6C7 6.26522 6.89464 6.51957 6.70711 6.70711C6.51957 6.89464 6.26522 7 6 7H1C0.734784 7 0.48043 6.89464 0.292893 6.70711C0.105357 6.51957 0 6.26522 0 6V1C0 0.734784 0.105357 0.48043 0.292893 0.292893C0.48043 0.105357 0.734784 0 1 0ZM5.3539 4.64602C5.44779 4.73991 5.50053 4.86725 5.50053 5.00002C5.50053 5.1328 5.44779 5.26013 5.3539 5.35402C5.26001 5.44791 5.13268 5.50065 4.9999 5.50065C4.86712 5.50065 4.73979 5.44791 4.6459 5.35402L3.4999 4.20702L2.3539 5.35402C2.26001 5.44791 2.13267 5.50065 1.9999 5.50065C1.86712 5.50065 1.73979 5.44791 1.6459 5.35402C1.55201 5.26013 1.49927 5.1328 1.49927 5.00002C1.49927 4.86725 1.55201 4.73991 1.6459 4.64602L2.7929 3.50002L1.6459 2.35402C1.55201 2.26013 1.49927 2.1328 1.49927 2.00002C1.49927 1.86725 1.55201 1.73991 1.6459 1.64602C1.73979 1.55213 1.86712 1.49939 1.9999 1.49939C2.13267 1.49939 2.26001 1.55213 2.3539 1.64602L3.4999 2.79302L4.6459 1.64602C4.73979 1.55213 4.86712 1.49939 4.9999 1.49939C5.13268 1.49939 5.26001 1.55213 5.3539 1.64602C5.44779 1.73991 5.50053 1.86725 5.50053 2.00002C5.50053 2.1328 5.44779 2.26013 5.3539 2.35402L4.2069 3.50002L5.3539 4.64602Z" fill="#202020"/>
</svg>
