<svg width="16" height="16" viewBox="0 0 16 16" fill="none" xmlns="http://www.w3.org/2000/svg">
<path d="M8 6H11.5C11.7761 6 12 5.77614 12 5.5V3.5C12 3.22386 11.7761 3 11.5 3H8V4H11V5H8V6Z" fill="#159195"/>
<path d="M3 8V9H2.5C2.22386 9 2 9.22386 2 9.5C2 9.77614 2.22386 10 2.5 10H3V12H2.5C2.22386 12 2 12.2239 2 12.5C2 12.7761 2.22386 13 2.5 13H3C3 14.1046 3.89543 15 5 15H12C13.1046 15 14 14.1046 14 13V3C14 1.89543 13.1046 1 12 1H8V2H12C12.5523 2 13 2.44772 13 3V13C13 13.5523 12.5523 14 12 14H5C4.44772 14 4 13.5523 4 13H4.5C4.77614 13 5 12.7761 5 12.5C5 12.2239 4.77614 12 4.5 12H4V10H4.5C4.77614 10 5 9.77614 5 9.5C5 9.22386 4.77614 9 4.5 9H4V8H3Z" fill="#202020"/>
<path fill-rule="evenodd" clip-rule="evenodd" d="M1 0H6C6.26522 0 6.51957 0.105357 6.70711 0.292893C6.89464 0.48043 7 0.734784 7 1V6C7 6.26522 6.89464 6.51957 6.70711 6.70711C6.51957 6.89464 6.26522 7 6 7H1C0.734784 7 0.48043 6.89464 0.292893 6.70711C0.105357 6.51957 0 6.26522 0 6V1C0 0.734784 0.105357 0.48043 0.292893 0.292893C0.48043 0.105357 0.734784 0 1 0ZM5.3539 4.64602C5.44779 4.73991 5.50053 4.86725 5.50053 5.00002C5.50053 5.1328 5.44779 5.26013 5.3539 5.35402C5.26001 5.44791 5.13268 5.50065 4.9999 5.50065C4.86712 5.50065 4.73979 5.44791 4.6459 5.35402L3.4999 4.20702L2.3539 5.35402C2.26001 5.44791 2.13267 5.50065 1.9999 5.50065C1.86712 5.50065 1.73979 5.44791 1.6459 5.35402C1.55201 5.26013 1.49927 5.1328 1.49927 5.00002C1.49927 4.86725 1.55201 4.73991 1.6459 4.64602L2.7929 3.50002L1.6459 2.35402C1.55201 2.26013 1.49927 2.1328 1.49927 2.00002C1.49927 1.86725 1.55201 1.73991 1.6459 1.64602C1.73979 1.55213 1.86712 1.49939 1.9999 1.49939C2.13267 1.49939 2.26001 1.55213 2.3539 1.64602L3.4999 2.79302L4.6459 1.64602C4.73979 1.55213 4.86712 1.49939 4.9999 1.49939C5.13268 1.49939 5.26001 1.55213 5.3539 1.64602C5.44779 1.73991 5.50053 1.86725 5.50053 2.00002C5.50053 2.1328 5.44779 2.26013 5.3539 2.35402L4.2069 3.50002L5.3539 4.64602Z" fill="#202020"/>
</svg>
