<svg width="16" height="16" viewBox="0 0 16 16" fill="none" xmlns="http://www.w3.org/2000/svg">
<path d="M4.64644 11.3536C4.84171 11.5488 5.15829 11.5488 5.35355 11.3536L6.99999 9.70711L8.64644 11.3536C8.8417 11.5488 9.15828 11.5488 9.35354 11.3536C9.54881 11.1583 9.54881 10.8417 9.35354 10.6465L7.7071 9.00001L9.35354 7.35356C9.54881 7.1583 9.54881 6.84172 9.35354 6.64646C9.15828 6.45119 8.8417 6.45119 8.64644 6.64646L6.99999 8.2929L5.35355 6.64646C5.15829 6.45119 4.84171 6.45119 4.64644 6.64646C4.45118 6.84172 4.45118 7.1583 4.64644 7.35356L6.29289 9.00001L4.64644 10.6465C4.45118 10.8417 4.45118 11.1583 4.64644 11.3536ZM4 14C2.89543 14 2 13.1046 2 12V6.00001C2 4.89544 2.89543 4.00001 4 4.00001H9.99999C11.1046 4.00001 12 4.89544 12 6.00001V12C12 13.1046 11.1046 14 9.99999 14H4ZM3 12C3 12.5523 3.44771 13 4 13H9.99999C10.5523 13 11 12.5523 11 12V6.00001C11 5.44773 10.5523 5.00001 9.99999 5.00001H4C3.44771 5.00001 3 5.44773 3 6.00001V12ZM13 12.7324C13.5978 12.3866 14 11.7403 14 11V5.5C14 3.567 12.433 2 10.5 2H5.00001C4.25973 2 3.61339 2.4022 3.26758 3H10.5C11.8807 3 13 4.11929 13 5.5V12.7324Z" fill="#202020"/>
</svg>
