<svg width="16" height="16" viewBox="0 0 16 16" fill="none" xmlns="http://www.w3.org/2000/svg">
<g clip-path="url(#clip0_7199_54494)">
<path d="M12.6298 6.11616C12.1326 5.79702 11.5676 5.59556 10.978 5.52902C10.9399 5.0271 10.8008 4.53806 10.569 4.09126C10.3372 3.64446 10.0175 3.24913 9.629 2.92902C8.88273 2.33133 7.9561 2.00389 7 2.00002C6.4169 1.97831 5.83658 2.09061 5.30367 2.32828C4.77077 2.56596 4.29946 2.92268 3.926 3.37102C3.42865 3.98926 3.1166 4.73575 3.026 5.52402C2.24308 5.55864 1.50069 5.88186 0.941948 6.43137C0.383203 6.98089 0.0476586 7.71778 -6.58678e-07 8.50002C-0.014889 9.21284 0.228794 9.90694 0.685999 10.454C1.03522 10.8079 1.45584 11.0834 1.91985 11.262C2.38386 11.4407 2.8806 11.5184 3.377 11.49C3.13455 11.2172 3.00043 10.865 3 10.5C3 10.493 3.00177 10.4862 3.00355 10.4794C3.00504 10.4737 3.00654 10.468 3.007 10.462C2.41947 10.4474 1.85926 10.2109 1.439 9.80002C1.14049 9.43391 0.984555 8.97215 0.999999 8.50002C1.00159 8.29331 1.04549 8.08911 1.129 7.90002C1.33076 7.45 1.66716 7.07367 2.09183 6.82292C2.5165 6.57216 3.00851 6.45934 3.5 6.50002C3.63261 6.50002 3.75978 6.44734 3.85355 6.35357C3.94732 6.2598 4 6.13263 4 6.00002C4.00188 5.27362 4.24848 4.56904 4.7 4.00002C4.98054 3.66756 5.33405 3.40435 5.73299 3.2309C6.13193 3.05745 6.56552 2.97844 7 3.00002C7.7264 3.00189 8.43097 3.2485 9 3.70002C9.33246 3.98056 9.59567 4.33407 9.76912 4.73301C9.94257 5.13195 10.0216 5.56554 10 6.00002C10 6.06799 10.0138 6.13454 10.04 6.19589C10.5049 6.0682 10.9945 6 11.5 6C11.8873 6 12.2652 6.04003 12.6298 6.11616Z" fill="#3487C7"/>
<path d="M6.60542 14.0111C6.71705 14.2283 6.84272 14.4371 6.98122 14.6362C6.9219 14.8462 6.72892 15 6.5 15H2.5C2.22386 15 2 14.7761 2 14.5C2 14.2239 2.22386 14 2.5 14H6.5C6.53616 14 6.57143 14.0038 6.60542 14.0111Z" fill="#202020"/>
<path d="M6.02242 12C6.05337 12.3434 6.11588 12.6777 6.20703 13H4.5C4.22386 13 4 12.7761 4 12.5C4 12.2239 4.22386 12 4.5 12H6.02242Z" fill="#202020"/>
<path d="M6.20703 10C6.11588 10.3223 6.05337 10.6566 6.02242 11H4.5C4.22386 11 4 10.7761 4 10.5C4 10.2239 4.22386 10 4.5 10H6.20703Z" fill="#202020"/>
<path d="M2 8.5C2 8.22386 2.22386 8 2.5 8H5.5C5.77614 8 6 8.22386 6 8.5C6 8.77614 5.77614 9 5.5 9H2.5C2.22386 9 2 8.77614 2 8.5Z" fill="#202020"/>
<path fill-rule="evenodd" clip-rule="evenodd" d="M8.99994 7.75839C9.73996 7.26392 10.61 7 11.5 7C12.6935 7 13.8381 7.47411 14.682 8.31802C15.5259 9.16193 16 10.3065 16 11.5C16 12.39 15.7361 13.26 15.2416 14.0001C14.7471 14.7401 14.0443 15.3169 13.2221 15.6575C12.3998 15.9981 11.495 16.0872 10.6221 15.9135C9.74918 15.7399 8.94736 15.3113 8.31802 14.682C7.68868 14.0526 7.2601 13.2508 7.08647 12.3779C6.91283 11.505 7.00195 10.6002 7.34254 9.77792C7.68314 8.95566 8.25991 8.25285 8.99994 7.75839ZM13.5 12.5C13.5 12.7652 13.3946 13.0196 13.2071 13.2071C13.0196 13.3946 12.7652 13.5 12.5 13.5H10.5C10.2348 13.5 9.98043 13.3946 9.79289 13.2071C9.60536 13.0196 9.5 12.7652 9.5 12.5V10.5C9.5 10.2348 9.60536 9.98043 9.79289 9.79289C9.98043 9.60536 10.2348 9.5 10.5 9.5H12.5C12.7652 9.5 13.0196 9.60536 13.2071 9.79289C13.3946 9.98043 13.5 10.2348 13.5 10.5V12.5Z" fill="#C50F1F"/>
</g>
<defs>
<clipPath id="clip0_7199_54494">
<rect width="16" height="16" fill="white"/>
</clipPath>
</defs>
</svg>
