<svg width="16" height="16" viewBox="0 0 16 16" fill="none" xmlns="http://www.w3.org/2000/svg">
<g clip-path="url(#clip0_7199_54320)">
<path d="M5 4C5 2.34315 6.34315 1 8 1C9.65685 1 11 2.34315 11 4C11 4.27614 11.2239 4.5 11.5 4.5H11.75C12.9353 4.5 13.9066 5.41658 13.9936 6.57965L14.9132 7.49922C14.97 7.2587 15 7.00786 15 6.75C15 5.029 13.6623 3.62043 11.97 3.50733C11.7272 1.53063 10.0423 0 8 0C5.95767 0 4.27283 1.53062 4.03004 3.50733C2.33769 3.62043 1 5.029 1 6.75C1 8.54493 2.45507 10 4.25 10H8V9H4.25C3.00736 9 2 7.99264 2 6.75C2 5.50736 3.00736 4.5 4.25 4.5H4.5C4.77614 4.5 5 4.27614 5 4Z" fill="#3487C7"/>
<path d="M4.85 15.85C4.805 15.897 4.751 15.935 4.69 15.961C4.63 15.987 4.565 16 4.5 16C4.435 16 4.37 15.987 4.31 15.961C4.25 15.935 4.196 15.897 4.15 15.85C4.103 15.805 4.065 15.751 4.039 15.69C4.013 15.63 4 15.565 4 15.5C4 15.435 4.013 15.37 4.039 15.31C4.065 15.25 4.103 15.196 4.15 15.15L5.29 14H0.5C0.367 14 0.24 13.947 0.146 13.854C0.052 13.761 0 13.633 0 13.5C0 13.367 0.053 13.24 0.146 13.146C0.24 13.052 0.367 13 0.5 13H5.29L4.15 11.85C4.059 11.757 4.008 11.631 4.009 11.501C4.009 11.371 4.062 11.246 4.154 11.153C4.246 11.061 4.371 11.009 4.502 11.008C4.632 11.008 4.758 11.058 4.851 11.149L6.851 13.149C6.898 13.194 6.936 13.248 6.962 13.309C6.988 13.369 7.001 13.434 7.001 13.499C7.001 13.564 6.988 13.629 6.962 13.689C6.936 13.749 6.898 13.803 6.851 13.849L4.85 15.85Z" fill="#006CBF"/>
<path d="M13.5 10H16L13 7V9.5C13 9.63261 13.0527 9.75979 13.1464 9.85355C13.2402 9.94732 13.3674 10 13.5 10ZM12 9.5V7H10C9.73478 7 9.48043 7.10536 9.29289 7.29289C9.10536 7.48043 9 7.73478 9 8V15C9 15.2652 9.10536 15.5196 9.29289 15.7071C9.48043 15.8946 9.73478 16 10 16H15C15.2652 16 15.5196 15.8946 15.7071 15.7071C15.8946 15.5196 16 15.2652 16 15V11H13.5C13.1022 11 12.7206 10.842 12.4393 10.5607C12.158 10.2794 12 9.89782 12 9.5Z" fill="#202020"/>
</g>
<defs>
<clipPath id="clip0_7199_54320">
<rect width="16" height="16" fill="white"/>
</clipPath>
</defs>
</svg>
