<svg width="16" height="16" viewBox="0 0 16 16" fill="none" xmlns="http://www.w3.org/2000/svg">
<g clip-path="url(#clip0_7199_54510)">
<path d="M5 6C5 4.34315 6.34315 3 8 3C9.65685 3 11 4.34315 11 6C11 6.0075 11.0002 6.01496 11.0005 6.02238C11.165 6.00757 11.3316 6 11.5 6C12.5407 6 13.5138 6.28903 14.3436 6.79119C13.7917 6.06155 12.939 5.57209 11.97 5.50733C11.7272 3.53063 10.0423 2 8 2C5.95767 2 4.27283 3.53062 4.03004 5.50733C2.33769 5.62043 1 7.029 1 8.75C1 10.5449 2.45507 12 4.25 12H6.02242C6.00758 11.8353 6 11.6685 6 11.5C6 11.3315 6.00758 11.1647 6.02242 11H4.25C3.00736 11 2 9.99264 2 8.75C2 7.50736 3.00736 6.5 4.25 6.5H4.5C4.77614 6.5 5 6.27614 5 6Z" fill="#3487C7"/>
<path fill-rule="evenodd" clip-rule="evenodd" d="M8.99994 7.75839C9.73996 7.26392 10.61 7 11.5 7C12.6935 7 13.8381 7.47411 14.682 8.31802C15.5259 9.16193 16 10.3065 16 11.5C16 12.39 15.7361 13.26 15.2416 14.0001C14.7471 14.7401 14.0443 15.3169 13.2221 15.6575C12.3998 15.9981 11.495 16.0872 10.6221 15.9135C9.74918 15.7399 8.94736 15.3113 8.31802 14.682C7.68868 14.0526 7.2601 13.2508 7.08647 12.3779C6.91283 11.505 7.00195 10.6002 7.34254 9.77792C7.68314 8.95566 8.25991 8.25285 8.99994 7.75839ZM13.5 12.5C13.5 12.7652 13.3946 13.0196 13.2071 13.2071C13.0196 13.3946 12.7652 13.5 12.5 13.5H10.5C10.2348 13.5 9.98043 13.3946 9.79289 13.2071C9.60536 13.0196 9.5 12.7652 9.5 12.5V10.5C9.5 10.2348 9.60536 9.98043 9.79289 9.79289C9.98043 9.60536 10.2348 9.5 10.5 9.5H12.5C12.7652 9.5 13.0196 9.60536 13.2071 9.79289C13.3946 9.98043 13.5 10.2348 13.5 10.5V12.5Z" fill="#C50F1F"/>
</g>
<defs>
<clipPath id="clip0_7199_54510">
<rect width="16" height="16" fill="white"/>
</clipPath>
</defs>
</svg>
