<svg width="16" height="16" viewBox="0 0 16 16" fill="none" xmlns="http://www.w3.org/2000/svg">
<path fill-rule="evenodd" clip-rule="evenodd" d="M6.5 1C5.11929 1 4 2.11929 4 3.5V8.12458C4.32449 8.04079 4.66034 7.99756 5 7.99756V5H15V10.5C15 11.3284 14.3284 12 13.5 12H10.2345C10.2998 12.0729 10.3617 12.1493 10.4198 12.2288C10.5935 12.4661 10.7304 12.7262 10.8274 13H13.5C14.8807 13 16 11.8807 16 10.5V3.5C16 2.11929 14.8807 1 13.5 1H6.5ZM15 4H5V3.5C5 2.67157 5.67157 2 6.5 2H13.5C14.3284 2 15 2.67157 15 3.5V4Z" fill="#202020"/>
<path d="M8.16088 9.54623L9.35355 8.35355C9.54882 8.15829 9.54882 7.84171 9.35355 7.64645L7.85355 6.14645C7.65829 5.95118 7.34171 5.95118 7.14645 6.14645C6.95118 6.34171 6.95118 6.65829 7.14645 6.85355L8.29289 8L7.45408 8.83882C7.47182 8.85261 7.48947 8.86655 7.50701 8.88066C7.75179 9.07754 7.97086 9.3012 8.16088 9.54623Z" fill="#202020"/>
<path d="M10.5 9C10.2239 9 10 9.22386 10 9.5C10 9.77614 10.2239 10 10.5 10H13.5C13.7761 10 14 9.77614 14 9.5C14 9.22386 13.7761 9 13.5 9H10.5Z" fill="#202020"/>
<path d="M8 16H2C1.46957 16 0.960859 15.7893 0.585786 15.4142C0.210714 15.0391 0 14.5304 0 14C0 13.4696 0.210714 12.9609 0.585786 12.5858C0.960859 12.2107 1.46957 12 2 12C2 11.2044 2.31607 10.4413 2.87868 9.87868C3.44129 9.31607 4.20435 9 5 9C5.79565 9 6.55871 9.31607 7.12132 9.87868C7.68393 10.4413 8 11.2044 8 12C8.53043 12 9.03914 12.2107 9.41421 12.5858C9.78929 12.9609 10 13.4696 10 14C10 14.5304 9.78929 15.0391 9.41421 15.4142C9.03914 15.7893 8.53043 16 8 16Z" fill="#3487C7"/>
</svg>
