<svg width="16" height="16" viewBox="0 0 16 16" fill="none" xmlns="http://www.w3.org/2000/svg">
<g clip-path="url(#clip0_7199_54478)">
<path d="M11.978 5.52902C12.664 5.60644 13.3167 5.86648 13.868 6.28202C14.2164 6.53804 14.5001 6.87189 14.6967 7.25697C14.8318 7.52177 14.9231 7.80577 14.968 8.09792C14.7651 8.17477 14.5805 8.29506 14.4274 8.45141C14.2823 8.3852 14.1341 8.32667 13.9836 8.27595C13.9559 8.07468 13.8938 7.8791 13.7994 7.69795C13.6703 7.45013 13.4845 7.23634 13.257 7.07402C12.7489 6.69754 12.1324 6.49612 11.5 6.50002C11.3674 6.50002 11.2402 6.44734 11.1464 6.35357C11.0527 6.2598 11 6.13263 11 6.00002C11.0216 5.56554 10.9426 5.13195 10.7691 4.73301C10.5957 4.33407 10.3325 3.98056 10 3.70002C9.43098 3.2485 8.7264 3.00189 8 3.00002C7.56552 2.97844 7.13193 3.05745 6.73299 3.2309C6.33405 3.40435 5.98054 3.66756 5.7 4.00002C5.24848 4.56904 5.00188 5.27362 5 6.00002C5 6.13263 4.94732 6.2598 4.85355 6.35357C4.75979 6.44734 4.63261 6.50002 4.5 6.50002C4.00851 6.45934 3.5165 6.57216 3.09183 6.82292C2.66717 7.07367 2.33076 7.45 2.129 7.90002C2.04549 8.08911 2.00159 8.29331 2 8.50002C1.98456 8.97215 2.14049 9.43391 2.439 9.80002C2.85926 10.2109 3.41947 10.4474 4.007 10.462C4.00654 10.468 4.00504 10.4737 4.00355 10.4794C4.00177 10.4862 4 10.493 4 10.5C4.00043 10.865 4.13455 11.2172 4.377 11.49C3.8806 11.5184 3.38386 11.4407 2.91985 11.262C2.45585 11.0834 2.03522 10.8079 1.686 10.454C1.22879 9.90694 0.985112 9.21284 1 8.50002C1.04766 7.71778 1.3832 6.98089 1.94195 6.43137C2.50069 5.88186 3.24308 5.55864 4.026 5.52402C4.11661 4.73575 4.42865 3.98926 4.926 3.37102C5.29946 2.92268 5.77077 2.56596 6.30367 2.32828C6.83658 2.09061 7.4169 1.97831 8 2.00002C8.9561 2.00389 9.88273 2.33133 10.629 2.92902C11.0175 3.24913 11.3372 3.64446 11.569 4.09126C11.8008 4.53806 11.9399 5.0271 11.978 5.52902Z" fill="#3487C7"/>
<path d="M3 8.5C3 8.22386 3.22386 8 3.5 8H6.5C6.77614 8 7 8.22386 7 8.5C7 8.77614 6.77614 9 6.5 9H3.5C3.22386 9 3 8.77614 3 8.5Z" fill="#202020"/>
<path d="M8 8.5C8 8.22386 8.22386 8 8.5 8H11.5C11.6041 8 11.7008 8.03183 11.7809 8.08629C11.0148 8.20473 10.2904 8.51892 9.6792 9H8.5C8.22386 9 8 8.77614 8 8.5Z" fill="#202020"/>
<path d="M8.02719 12H5.5C5.22386 12 5 12.2239 5 12.5C5 12.7761 5.22386 13 5.5 13H8.02732C7.99023 12.6686 7.98998 12.3332 8.02719 12Z" fill="#202020"/>
<path d="M5 10.5C5 10.2239 5.22386 10 5.5 10H7.5C7.77614 10 8 10.2239 8 10.5C8 10.7761 7.77614 11 7.5 11H5.5C5.22386 11 5 10.7761 5 10.5Z" fill="#202020"/>
<path d="M3 14.5C3 14.2239 3.22386 14 3.5 14H7.5C7.77614 14 8 14.2239 8 14.5C8 14.7761 7.77614 15 7.5 15H3.5C3.22386 15 3 14.7761 3 14.5Z" fill="#202020"/>
<path d="M15.9994 9.49939V11.4994C15.9994 11.632 15.9468 11.7592 15.853 11.8529C15.7592 11.9467 15.6321 11.9994 15.4994 11.9994H13.4994C13.3668 11.9994 13.2397 11.9467 13.1459 11.8529C13.0521 11.7592 12.9994 11.632 12.9994 11.4994C12.9994 11.3668 13.0521 11.2396 13.1459 11.1458C13.2397 11.0521 13.3668 10.9994 13.4994 10.9994H14.4994C14.4287 10.9049 14.3511 10.8157 14.2674 10.7324C13.7911 10.2778 13.1579 10.0242 12.4994 10.0242C11.841 10.0242 11.2078 10.2778 10.7314 10.7324C10.4992 10.9645 10.315 11.2402 10.1893 11.5435C10.0637 11.8469 9.99898 12.172 9.99898 12.5004C9.99898 12.8287 10.0637 13.1539 10.1893 13.4573C10.315 13.7606 10.4992 14.0362 10.7314 14.2684C11.2079 14.7227 11.8411 14.9762 12.4994 14.9762C13.1578 14.9762 13.791 14.7227 14.2674 14.2684C14.3617 14.1773 14.488 14.1269 14.6191 14.1281C14.7502 14.1292 14.8757 14.1818 14.9684 14.2745C15.0611 14.3672 15.1136 14.4926 15.1148 14.6237C15.1159 14.7548 15.0655 14.8811 14.9744 14.9754C14.318 15.6318 13.4278 16.0006 12.4994 16.0006C11.5711 16.0006 10.6809 15.6318 10.0244 14.9754C9.36804 14.319 8.99927 13.4287 8.99927 12.5004C8.99927 11.5721 9.36804 10.6818 10.0244 10.0254C10.6913 9.38901 11.5777 9.03396 12.4994 9.03396C13.4212 9.03396 14.3076 9.38901 14.9744 10.0254L14.9994 10.0514V9.49939C14.9994 9.36678 15.0521 9.2396 15.1459 9.14584C15.2397 9.05207 15.3668 8.99939 15.4994 8.99939C15.6321 8.99939 15.7592 9.05207 15.853 9.14584C15.9468 9.2396 15.9994 9.36678 15.9994 9.49939Z" fill="#006CBF"/>
</g>
<defs>
<clipPath id="clip0_7199_54478">
<rect width="16" height="16" fill="white"/>
</clipPath>
</defs>
</svg>
