<svg width="16" height="16" viewBox="0 0 16 16" fill="none" xmlns="http://www.w3.org/2000/svg">
<path d="M13.868 6.28202C13.3167 5.86648 12.664 5.60644 11.978 5.52902C11.9399 5.0271 11.8008 4.53806 11.569 4.09126C11.3372 3.64446 11.0175 3.24913 10.629 2.92902C9.88273 2.33133 8.95611 2.00389 8 2.00002C7.4169 1.97831 6.83659 2.09061 6.30368 2.32828C5.77077 2.56596 5.29947 2.92268 4.926 3.37102C4.42865 3.98926 4.11661 4.73575 4.026 5.52402C3.24308 5.55864 2.5007 5.88186 1.94195 6.43137C1.38321 6.98089 1.04766 7.71778 1 8.50002C0.985115 9.21284 1.2288 9.90694 1.686 10.454C2.03523 10.8079 2.45585 11.0834 2.91986 11.262C3.38386 11.4407 3.88061 11.5184 4.377 11.49C4.13455 11.2172 4.00043 10.865 4 10.5C4 10.487 4.006 10.475 4.007 10.462C3.41947 10.4474 2.85927 10.2109 2.439 9.80002C2.14049 9.43391 1.98456 8.97215 2 8.50002C2.00159 8.29331 2.04549 8.08911 2.129 7.90002C2.33076 7.45 2.66717 7.07367 3.09184 6.82292C3.5165 6.57216 4.00851 6.45934 4.5 6.50002C4.63261 6.50002 4.75979 6.44734 4.85356 6.35357C4.94732 6.2598 5 6.13263 5 6.00002C5.00188 5.27362 5.24848 4.56904 5.7 4.00002C5.98055 3.66756 6.33406 3.40435 6.73299 3.2309C7.13193 3.05745 7.56553 2.97844 8 3.00002C8.7264 3.00189 9.43098 3.2485 10 3.70002C10.3325 3.98056 10.5957 4.33407 10.7691 4.73301C10.9426 5.13195 11.0216 5.56554 11 6.00002C11 6.13263 11.0527 6.2598 11.1464 6.35357C11.2402 6.44734 11.3674 6.50002 11.5 6.50002C12.1324 6.49612 12.7489 6.69754 13.257 7.07402C13.4845 7.23634 13.6703 7.45013 13.7995 7.69795C13.9286 7.94576 13.9973 8.22059 14 8.50002C14.017 8.76853 13.9739 9.03745 13.8739 9.28723C13.7739 9.53701 13.6196 9.76138 13.422 9.94402C13.2838 10.0571 13.1307 10.1506 12.967 10.222C12.967 10.238 12.978 10.252 12.981 10.269C13.0258 10.5549 12.9869 10.8477 12.869 11.112C12.8254 11.1973 12.7738 11.2784 12.715 11.354C13.2154 11.2486 13.683 11.0239 14.078 10.699C14.3837 10.4226 14.6248 10.0823 14.7841 9.70228C14.9435 9.32224 15.0172 8.91176 15 8.50002C14.9971 8.0677 14.8932 7.64204 14.6967 7.25697C14.5001 6.87189 14.2164 6.53804 13.868 6.28202Z" fill="#3487C7"/>
<path d="M3.5 8C3.22386 8 3 8.22386 3 8.5C3 8.77614 3.22386 9 3.5 9H6.5C6.77614 9 7 8.77614 7 8.5C7 8.22386 6.77614 8 6.5 8H3.5Z" fill="#202020"/>
<path d="M8.5 8C8.22386 8 8 8.22386 8 8.5C8 8.77614 8.22386 9 8.5 9H11.5C11.7761 9 12 8.77614 12 8.5C12 8.22386 11.7761 8 11.5 8H8.5Z" fill="#202020"/>
<path d="M9 10.5C9 10.2239 9.22386 10 9.5 10H11.5C11.7761 10 12 10.2239 12 10.5C12 10.7761 11.7761 11 11.5 11H9.5C9.22386 11 9 10.7761 9 10.5Z" fill="#202020"/>
<path d="M5.5 10C5.22386 10 5 10.2239 5 10.5C5 10.7761 5.22386 11 5.5 11H7.5C7.77614 11 8 10.7761 8 10.5C8 10.2239 7.77614 10 7.5 10H5.5Z" fill="#202020"/>
<path d="M5 12.5C5 12.2239 5.22386 12 5.5 12H9.5C9.77614 12 10 12.2239 10 12.5C10 12.7761 9.77614 13 9.5 13H5.5C5.22386 13 5 12.7761 5 12.5Z" fill="#202020"/>
<path d="M3.5 14C3.22386 14 3 14.2239 3 14.5C3 14.7761 3.22386 15 3.5 15H7.5C7.77614 15 8 14.7761 8 14.5C8 14.2239 7.77614 14 7.5 14H3.5Z" fill="#202020"/>
</svg>
