<svg width="16" height="16" viewBox="0 0 16 16" fill="none" xmlns="http://www.w3.org/2000/svg">
<path d="M5 5C5 3.34315 6.34315 2 8 2C9.65685 2 11 3.34315 11 5C11 5.27614 11.2239 5.5 11.5 5.5H11.75C12.9926 5.5 14 6.50736 14 7.75C14 8.99264 12.9926 10 11.75 10H11.114L11.538 10.424C11.6835 10.563 11.7995 10.7299 11.8789 10.9148C11.8904 10.9416 11.9011 10.9687 11.911 10.9961C13.6311 10.9122 15 9.49094 15 7.75C15 6.029 13.6623 4.62043 11.97 4.50733C11.7272 2.53063 10.0423 1 8 1C5.95767 1 4.27283 2.53062 4.03004 4.50733C2.33769 4.62043 1 6.029 1 7.75C1 9.54493 2.45507 11 4.25 11H5.08301C5.09191 10.9749 5.10151 10.9501 5.11182 10.9255C5.18802 10.7437 5.30074 10.5795 5.443 10.443L5.886 10H4.25C3.00736 10 2 8.99264 2 7.75C2 6.50736 3.00736 5.5 4.25 5.5H4.5C4.77614 5.5 5 5.27614 5 5Z" fill="#3487C7"/>
<path d="M8.15 9.15L6.15 11.15C6.10256 11.1951 6.06478 11.2494 6.03897 11.3096C6.01316 11.3697 5.99985 11.4345 5.99985 11.5C5.99985 11.5655 6.01316 11.6303 6.03897 11.6904C6.06478 11.7506 6.10256 11.8049 6.15 11.85C6.19512 11.8974 6.24941 11.9352 6.30957 11.961C6.36974 11.9868 6.43453 12.0002 6.5 12.0002C6.56547 12.0002 6.63025 11.9868 6.69042 11.961C6.75059 11.9352 6.80488 11.8974 6.85 11.85L8 10.71V15.5C8 15.6326 8.05268 15.7598 8.14644 15.8536C8.24021 15.9473 8.36739 16 8.5 16C8.63261 16 8.75978 15.9473 8.85355 15.8536C8.94732 15.7598 9 15.6326 9 15.5V10.71L10.15 11.85C10.2431 11.9413 10.3685 11.9921 10.499 11.9915C10.6294 11.9908 10.7543 11.9387 10.8465 11.8465C10.9387 11.7543 10.9908 11.6294 10.9915 11.499C10.9921 11.3685 10.9413 11.2431 10.85 11.15L8.85 9.15C8.80488 9.10256 8.75059 9.06478 8.69042 9.03897C8.63025 9.01316 8.56547 8.99985 8.5 8.99985C8.43453 8.99985 8.36974 9.01316 8.30957 9.03897C8.24941 9.06478 8.19512 9.10256 8.15 9.15V9.15Z" fill="#006CBF"/>
</svg>
