<svg width="16" height="16" viewBox="0 0 16 16" fill="none" xmlns="http://www.w3.org/2000/svg">
<path d="M9.961 13H4.039C2.95 13 2.129 12.693 1.6 12.089C1.104 11.524 1 10.85 1 10.385C1 9.495 1.699 8.019 3.571 7.796C3.661 7.13 3.933 6.493 4.339 5.996C4.975 5.219 5.895 4.808 7 4.808C7.824 4.808 8.653 5.1 9.273 5.609C9.933 6.148 10.335 6.906 10.436 7.802C11.019 7.883 11.576 8.111 12.012 8.448C12.649 8.94 13 9.629 13 10.386C13 11.183 12.721 11.847 12.193 12.305C11.66 12.767 10.91 13.001 9.961 13.001V13ZM7 5.808C6.205 5.808 5.553 6.092 5.113 6.629C4.813 6.996 4.615 7.474 4.556 7.975L4.516 8.311C4.489 8.543 4.303 8.726 4.07 8.749L3.733 8.783C2.318 8.929 2 10.015 2 10.385C2 10.679 2.061 11.098 2.352 11.431C2.683 11.809 3.25 12 4.039 12H9.962C10.663 12 11.193 11.849 11.538 11.549C11.849 11.278 12 10.898 12 10.385C12 9.938 11.793 9.541 11.401 9.239C11.09 9 10.684 8.839 10.255 8.787L9.917 8.746C9.684 8.718 9.501 8.531 9.479 8.297L9.447 7.958C9.384 7.308 9.104 6.763 8.64 6.383C8.194 6.018 7.597 5.808 7 5.808Z" fill="#3487C7"/>
<path d="M14.01 5.64C13.58 5.3 13.02 5.08 12.44 4.99C12.33 4.1 11.93 3.34 11.27 2.8C10.65 2.29 9.82 2 9 2C7.9 2 6.98 2.41 6.34 3.19C6.15 3.42 6 3.67 5.89 3.94C6.24 3.85 6.61 3.81 7 3.81C7.04 3.81 7.07 3.81 7.11 3.82C7.55 3.28 8.21 3 9 3C9.6 3 10.19 3.21 10.64 3.57C11.1 3.95 11.38 4.5 11.45 5.15L11.48 5.49C11.5 5.72 11.68 5.91 11.92 5.94L12.26 5.98C12.68 6.03 13.09 6.19 13.4 6.43C13.79 6.73 14 7.13 14 7.58C14 8.08 13.86 8.45 13.56 8.72C13.73 9.02 13.86 9.35 13.93 9.69C14.02 9.63 14.11 9.57 14.19 9.5C14.72 9.04 15 8.37 15 7.58C15 6.82 14.65 6.13 14.01 5.64Z" fill="#3487C7"/>
</svg>
