<svg width="16" height="16" viewBox="0 0 16 16" fill="none" xmlns="http://www.w3.org/2000/svg">
<path d="M11.5 5H8.5C8.36739 5 8.24021 4.94732 8.14645 4.85355C8.05268 4.75979 8 4.63261 8 4.5C8 4.36739 8.05268 4.24021 8.14645 4.14645C8.24021 4.05268 8.36739 4 8.5 4H11.5C11.6326 4 11.7598 4.05268 11.8536 4.14645C11.9473 4.24021 12 4.36739 12 4.5C12 4.63261 11.9473 4.75979 11.8536 4.85355C11.7598 4.94732 11.6326 5 11.5 5Z" fill="#202020"/>
<path d="M8.87364 11H11.5C11.6326 11 11.7598 10.9473 11.8536 10.8536C11.9473 10.7598 12 10.6326 12 10.5C12 10.3674 11.9473 10.2402 11.8536 10.1464C11.7598 10.0527 11.6326 10 11.5 10H8.5C8.48869 10 8.47741 10.0004 8.4662 10.0011C8.64549 10.3124 8.78305 10.6482 8.87364 11Z" fill="#202020"/>
<path d="M10.8274 13C10.7304 12.7262 10.5935 12.4661 10.4198 12.2288C10.3617 12.1493 10.2998 12.0729 10.2345 12H11.5C11.6326 12 11.7598 12.0527 11.8536 12.1464C11.9473 12.2402 12 12.3674 12 12.5C12 12.6326 11.9473 12.7598 11.8536 12.8536C11.7598 12.9473 11.6326 13 11.5 13H10.8274Z" fill="#202020"/>
<path d="M11 14H12C12.2652 14 12.5196 13.8946 12.7071 13.7071C12.8946 13.5196 13 13.2652 13 13V3C13 2.73478 12.8946 2.48043 12.7071 2.29289C12.5196 2.10536 12.2652 2 12 2H8C7.73478 2 7.48043 2.10536 7.29289 2.29289C7.10536 2.48043 7 2.73478 7 3V8.53343C6.6862 8.35226 6.3497 8.21486 6 8.12457V3C6 2.46957 6.21071 1.96086 6.58579 1.58579C6.96086 1.21071 7.46957 1 8 1H12C12.5304 1 13.0391 1.21071 13.4142 1.58579C13.7893 1.96086 14 2.46957 14 3V13C14 13.5304 13.7893 14.0391 13.4142 14.4142C13.0391 14.7893 12.5304 15 12 15H10.8285C10.941 14.6818 11 14.3439 11 14C11 14 11 14 11 14Z" fill="#202020"/>
<path d="M8 16H2C1.46957 16 0.960859 15.7893 0.585786 15.4142C0.210714 15.0391 0 14.5304 0 14C0 13.4696 0.210714 12.9609 0.585786 12.5858C0.960859 12.2107 1.46957 12 2 12C2 11.2044 2.31607 10.4413 2.87868 9.87868C3.44129 9.31607 4.20435 9 5 9C5.79565 9 6.55871 9.31607 7.12132 9.87868C7.68393 10.4413 8 11.2044 8 12C8.53043 12 9.03914 12.2107 9.41421 12.5858C9.78929 12.9609 10 13.4696 10 14C10 14.5304 9.78929 15.0391 9.41421 15.4142C9.03914 15.7893 8.53043 16 8 16Z" fill="#3487C7"/>
</svg>
