<svg width="16" height="16" viewBox="0 0 16 16" fill="none" xmlns="http://www.w3.org/2000/svg">
<path d="M5 6C5 4.34315 6.34315 3 8 3C9.65685 3 11 4.34315 11 6C11 6.0075 11.0002 6.01496 11.0005 6.02238C11.165 6.00757 11.3316 6 11.5 6C12.5407 6 13.5138 6.28903 14.3436 6.79119C13.7917 6.06155 12.939 5.57209 11.97 5.50733C11.7272 3.53063 10.0423 2 8 2C5.95767 2 4.27283 3.53062 4.03004 5.50733C2.33769 5.62043 1 7.029 1 8.75C1 10.5449 2.45507 12 4.25 12H6.02242C6.00758 11.8353 6 11.6685 6 11.5C6 11.3315 6.00758 11.1647 6.02242 11H4.25C3.00736 11 2 9.99264 2 8.75C2 7.50736 3.00736 6.5 4.25 6.5H4.5C4.77614 6.5 5 6.27614 5 6Z" fill="#3487C7"/>
<path fill-rule="evenodd" clip-rule="evenodd" d="M11.5 16C13.9853 16 16 13.9853 16 11.5C16 9.01472 13.9853 7 11.5 7C9.01472 7 7 9.01472 7 11.5C7 13.9853 9.01472 16 11.5 16ZM13.3536 10.3536C13.5488 10.1583 13.5488 9.84171 13.3536 9.64645C13.1583 9.45118 12.8417 9.45118 12.6464 9.64645L11.5 10.7929L10.3536 9.64645C10.1583 9.45118 9.84171 9.45118 9.64645 9.64645C9.45118 9.84171 9.45118 10.1583 9.64645 10.3536L10.7929 11.5L9.64645 12.6464C9.45118 12.8417 9.45118 13.1583 9.64645 13.3536C9.84171 13.5488 10.1583 13.5488 10.3536 13.3536L11.5 12.2071L12.6464 13.3536C12.8417 13.5488 13.1583 13.5488 13.3536 13.3536C13.5488 13.1583 13.5488 12.8417 13.3536 12.6464L12.2071 11.5L13.3536 10.3536Z" fill="#C50F1F"/>
</svg>
