<svg width="16" height="16" viewBox="0 0 16 16" fill="none" xmlns="http://www.w3.org/2000/svg">
<g clip-path="url(#clip0_7199_54448)">
<path d="M5 5C5 3.34315 6.34315 2 8 2C9.65685 2 11 3.34315 11 5C11 5.27614 11.2239 5.5 11.5 5.5H11.75C12.9926 5.5 14 6.50736 14 7.75C14 8.94169 13.0736 9.917 11.9016 9.99497C11.8727 10.0777 11.8364 10.1582 11.793 10.2354C11.6218 10.5397 11.3498 10.7747 11.024 10.9L11.1241 11H11.75C13.5449 11 15 9.54493 15 7.75C15 6.029 13.6623 4.62043 11.97 4.50733C11.7272 2.53063 10.0423 1 8 1C5.95767 1 4.27283 2.53062 4.03004 4.50733C2.33769 4.62043 1 6.029 1 7.75C1 9.41042 2.24517 10.78 3.85268 10.976L3.43899 10.562C3.30163 10.423 3.19201 10.259 3.11599 10.079C3.05553 9.93406 3.0183 9.78076 3.00544 9.62474C2.39939 9.22161 2 8.53245 2 7.75C2 6.50736 3.00736 5.5 4.25 5.5H4.5C4.77614 5.5 5 5.27614 5 5Z" fill="#3487C7"/>
<path d="M6.5 12C6.59902 12.0002 6.69586 11.971 6.77825 11.916C6.86064 11.8611 6.92487 11.7829 6.96278 11.6915C7.0007 11.6 7.01061 11.4993 6.99124 11.4022C6.97187 11.3051 6.92411 11.2159 6.854 11.146L5.708 10H10.5C10.6326 10 10.7598 9.94733 10.8536 9.85356C10.9473 9.75979 11 9.63262 11 9.50001C11 9.3674 10.9473 9.24022 10.8536 9.14645C10.7598 9.05269 10.6326 9.00001 10.5 9.00001H5.708L6.855 7.85501C6.92551 7.78507 6.97361 7.69572 6.99314 7.59835C7.01268 7.50098 7.00277 7.39999 6.96469 7.30827C6.9266 7.21655 6.86207 7.13824 6.77931 7.08334C6.69655 7.02844 6.59931 6.99943 6.5 7.00001C6.43423 7.00002 6.3691 7.01301 6.30835 7.03824C6.24761 7.06346 6.19244 7.10043 6.146 7.14701L4.146 9.14701C4.05253 9.24071 4.00003 9.36766 4 9.50001C4.00005 9.56587 4.01296 9.63109 4.038 9.69201C4.0629 9.75288 4.09999 9.80801 4.147 9.85401L6.147 11.854C6.1934 11.9003 6.24844 11.937 6.309 11.962C6.36961 11.9869 6.43447 11.9998 6.5 12Z" fill="#006CBF"/>
<path d="M9.5 11C9.40098 10.9998 9.30414 11.0291 9.22175 11.084C9.13936 11.1389 9.07513 11.2171 9.03722 11.3085C8.9993 11.4 8.98939 11.5007 9.00876 11.5978C9.02813 11.6949 9.07589 11.7841 9.146 11.854L10.292 13H5.5C5.36739 13 5.24021 13.0527 5.14645 13.1464C5.05268 13.2402 5 13.3674 5 13.5C5 13.6326 5.05268 13.7598 5.14645 13.8536C5.24021 13.9473 5.36739 14 5.5 14H10.292L9.145 15.145C9.07449 15.2149 9.02639 15.3043 9.00686 15.4017C8.98732 15.499 8.99723 15.6 9.03531 15.6917C9.0734 15.7835 9.13793 15.8618 9.22069 15.9167C9.30345 15.9716 9.40069 16.0006 9.5 16C9.56577 16 9.6309 15.987 9.69165 15.9618C9.75239 15.9365 9.80756 15.8996 9.854 15.853L11.854 13.853C11.9475 13.7593 12 13.6324 12 13.5C11.9999 13.4341 11.987 13.3689 11.962 13.308C11.9371 13.2471 11.9 13.192 11.853 13.146L9.853 11.146C9.8066 11.0997 9.75155 11.063 9.691 11.038C9.63039 11.0131 9.56553 11.0002 9.5 11Z" fill="#006CBF"/>
</g>
<defs>
<clipPath id="clip0_7199_54448">
<rect width="16" height="16" fill="white"/>
</clipPath>
</defs>
</svg>
