<svg width="16" height="16" viewBox="0 0 16 16" fill="none" xmlns="http://www.w3.org/2000/svg">
<path fill-rule="evenodd" clip-rule="evenodd" d="M2 4.5C2 3.11929 3.11929 2 4.5 2H11.5C12.8807 2 14 3.11929 14 4.5V11.5C14 12.8807 12.8807 14 11.5 14H8.09938L7.58756 13H11.5C12.3284 13 13 12.3284 13 11.5V6H4.00487L3.989 5.96899L3.9732 6H3V7.91005L2 9.8727V4.5ZM3 5H13V4.5C13 3.67157 12.3284 3 11.5 3H4.5C3.67157 3 3 3.67157 3 4.5V5Z" fill="#202020"/>
<path d="M3.991 8.168L4.656 14.752L8 16L3.991 8.168Z" fill="#CC0000"/>
<path d="M7.994 15.993L2.022 13.677L0 16L7.994 15.993Z" fill="#73D216"/>
<path d="M0 16L4.37 11.877L4 8.17L0 16Z" fill="#3465A4"/>
</svg>
