<svg width="16" height="16" viewBox="0 0 16 16" fill="none" xmlns="http://www.w3.org/2000/svg">
<g clip-path="url(#clip0_7199_54663)">
<path d="M1 6C1 3.23858 3.23858 1 6 1C8.76142 1 11 3.23858 11 6C11 6.00748 11 6.01496 11 6.02243C10.6547 6.05355 10.3186 6.11657 9.99466 6.20855C9.99821 6.13948 10 6.06995 10 6C10 3.79086 8.20914 2 6 2C3.79086 2 2 3.79086 2 6C2 8.20914 3.79086 10 6 10C6.06995 10 6.13948 9.99821 6.20855 9.99466C6.11657 10.3186 6.05355 10.6547 6.02243 11C6.01496 11 6.00748 11 6 11C5.2889 11 4.61246 10.8516 4 10.584V13.6169L5.74275 12.5713C5.84939 12.5073 5.97394 12.4864 6.09227 12.5086C6.1843 13.0052 6.34305 13.4783 6.55885 13.9184L6 13.5831L3.75725 14.9287C3.60278 15.0214 3.4104 15.0239 3.25365 14.9351C3.0969 14.8463 3 14.6801 3 14.5V10.0004C1.78555 9.08816 1 7.63582 1 6Z" fill="#202020"/>
<path fill-rule="evenodd" clip-rule="evenodd" d="M11.5 7C9.01472 7 7 9.01472 7 11.5C7 13.9853 9.01472 16 11.5 16C13.9853 16 16 13.9853 16 11.5C16 9.01472 13.9853 7 11.5 7ZM10.875 9.5C10.875 9.15482 11.1548 8.875 11.5 8.875C11.8452 8.875 12.125 9.15482 12.125 9.5C12.125 9.84518 11.8452 10.125 11.5 10.125C11.1548 10.125 10.875 9.84518 10.875 9.5ZM12 13.5C12 13.7761 11.7761 14 11.5 14C11.2239 14 11 13.7761 11 13.5L11 11.5C11 11.2239 11.2239 11 11.5 11C11.7761 11 12 11.2239 12 11.5V13.5Z" fill="#006CBF"/>
</g>
<defs>
<clipPath id="clip0_7199_54663">
<rect width="16" height="16" fill="white"/>
</clipPath>
</defs>
</svg>
