<svg width="16" height="16" viewBox="0 0 16 16" fill="none" xmlns="http://www.w3.org/2000/svg">
<path d="M1 6C1 3.23858 3.23858 1 6 1C8.76142 1 11 3.23858 11 6C11 6.00748 11 6.01496 11 6.02243C10.6547 6.05355 10.3186 6.11658 9.99466 6.20855C9.99821 6.13948 10 6.06995 10 6C10 3.79086 8.20914 2 6 2C3.79086 2 2 3.79086 2 6C2 8.20914 3.79086 10 6 10C6.06995 10 6.13948 9.99821 6.20855 9.99466C6.11658 10.3186 6.05355 10.6547 6.02243 11C6.01496 11 6.00748 11 6 11C5.2889 11 4.61246 10.8516 4 10.584V13.6169L5.74275 12.5713C5.84939 12.5073 5.97394 12.4864 6.09227 12.5086C6.1843 13.0052 6.34305 13.4783 6.55885 13.9184L6 13.5831L3.75725 14.9287C3.60278 15.0214 3.4104 15.0239 3.25365 14.9351C3.0969 14.8463 3 14.6801 3 14.5V10.0004C1.78555 9.08816 1 7.63582 1 6Z" fill="#202020"/>
<path fill-rule="evenodd" clip-rule="evenodd" d="M11.5 16C13.9853 16 16 13.9853 16 11.5C16 9.01472 13.9853 7 11.5 7C9.01472 7 7 9.01472 7 11.5C7 13.9853 9.01472 16 11.5 16ZM13.3536 10.3536C13.5488 10.1583 13.5488 9.84171 13.3536 9.64645C13.1583 9.45118 12.8417 9.45118 12.6464 9.64645L11.5 10.7929L10.3536 9.64645C10.1583 9.45118 9.84171 9.45118 9.64645 9.64645C9.45118 9.84171 9.45118 10.1583 9.64645 10.3536L10.7929 11.5L9.64645 12.6464C9.45118 12.8417 9.45118 13.1583 9.64645 13.3536C9.84171 13.5488 10.1583 13.5488 10.3536 13.3536L11.5 12.2071L12.6464 13.3536C12.8417 13.5488 13.1583 13.5488 13.3536 13.3536C13.5488 13.1583 13.5488 12.8417 13.3536 12.6464L12.2071 11.5L13.3536 10.3536Z" fill="#C50F1F"/>
</svg>
