<svg width="16" height="16" viewBox="0 0 16 16" fill="none" xmlns="http://www.w3.org/2000/svg">
<path d="M5.61798 9.92021C5.28498 10.9642 4.74298 11.9342 3.99998 12.7722C2.70698 11.3142 1.99998 9.46122 1.99998 7.50022C1.99998 5.53922 2.70698 3.68621 3.99998 2.22821C4.74298 3.06621 5.28498 4.03621 5.61798 5.08021L6.49498 4.55421C6.05398 3.28621 5.33498 2.12221 4.35298 1.14621C4.15798 0.953215 3.84298 0.953215 3.64798 1.14621C1.94098 2.84221 1.00098 5.09922 1.00098 7.50022C1.00098 9.90122 1.94098 12.1582 3.64798 13.8542C3.74598 13.9512 3.87298 14.0002 4.00098 14.0002C4.12898 14.0002 4.25598 13.9512 4.35398 13.8542C5.33598 12.8782 6.05498 11.7132 6.49598 10.4462L5.61798 9.92021Z" fill="#006CBF"/>
<path d="M14.9292 13.7568C14.8352 13.9128 14.6702 13.9998 14.5002 13.9998C14.4132 13.9998 14.3242 13.9778 14.2432 13.9288L4.24323 7.92885C4.23723 7.92485 4.23723 7.91685 4.23223 7.91185C4.17023 7.87185 4.11223 7.82385 4.07223 7.75685C3.93023 7.52085 4.00723 7.21285 4.24323 7.07085L14.2432 1.07085C14.4812 0.92585 14.7872 1.00685 14.9292 1.24285C15.0712 1.47885 14.9942 1.78685 14.7582 1.92885L5.47223 7.49985L14.7572 13.0708C14.9942 13.2128 15.0712 13.5198 14.9292 13.7568ZM12.0002 7.49985C12.0002 7.22385 11.7762 6.99985 11.5002 6.99985H9.50023C9.22423 6.99985 9.00023 7.22385 9.00023 7.49985C9.00023 7.77585 9.22423 7.99985 9.50023 7.99985H11.5002C11.7762 7.99985 12.0002 7.77585 12.0002 7.49985ZM15.0002 5.49985C15.0002 5.22385 14.7762 4.99985 14.5002 4.99985H12.0002C11.7242 4.99985 11.5002 5.22385 11.5002 5.49985C11.5002 5.77585 11.7242 5.99985 12.0002 5.99985H14.5002C14.7762 5.99985 15.0002 5.77585 15.0002 5.49985ZM15.0002 7.49985C15.0002 7.22385 14.7762 6.99985 14.5002 6.99985H13.5002C13.2242 6.99985 13.0002 7.22385 13.0002 7.49985C13.0002 7.77585 13.2242 7.99985 13.5002 7.99985H14.5002C14.7762 7.99985 15.0002 7.77585 15.0002 7.49985ZM15.0002 9.49985C15.0002 9.22385 14.7762 8.99985 14.5002 8.99985H12.0002C11.7242 8.99985 11.5002 9.22385 11.5002 9.49985C11.5002 9.77585 11.7242 9.99985 12.0002 9.99985H14.5002C14.7762 9.99985 15.0002 9.77585 15.0002 9.49985Z" fill="#202020"/>
</svg>
