<svg width="16" height="16" viewBox="0 0 16 16" fill="none" xmlns="http://www.w3.org/2000/svg">
<g clip-path="url(#clip0_7199_54569)">
<path d="M1 3.5C1 3.22386 1.22386 3 1.5 3H7C7.27614 3 7.5 3.22386 7.5 3.5C7.5 3.77614 7.27614 4 7 4H1.5C1.22386 4 1 3.77614 1 3.5Z" fill="#202020"/>
<path d="M4 6.5C4 6.22386 4.22386 6 4.5 6H8.5C8.77614 6 9 6.22386 9 6.5C9 6.77614 8.77614 7 8.5 7H4.5C4.22386 7 4 6.77614 4 6.5Z" fill="#202020"/>
<path d="M7.9141 9H11.5C11.7761 9 12 9.22386 12 9.5C12 9.77614 11.7761 10 11.5 10H8V9.50003C7.99997 9.32877 7.97062 9.15975 7.9141 9Z" fill="#202020"/>
<path d="M7.75678 13C7.74034 12.9515 7.7214 12.9038 7.7 12.857C7.65612 12.7601 7.6018 12.6682 7.538 12.583L7.561 12.561C7.70054 12.4219 7.81116 12.2565 7.8865 12.0744C7.89667 12.0498 7.90616 12.025 7.91499 12H9C9.27614 12 9.5 12.2239 9.5 12.5C9.5 12.7761 9.27614 13 9 13H7.75678Z" fill="#202020"/>
<path d="M11 6C10.7239 6 10.5 6.22386 10.5 6.5C10.5 6.77614 10.7239 7 11 7H13.5C13.7761 7 14 6.77614 14 6.5C14 6.22386 13.7761 6 13.5 6H11Z" fill="#202020"/>
<path d="M9 3.5C9 3.22386 9.22386 3 9.5 3H14.5C14.7761 3 15 3.22386 15 3.5C15 3.77614 14.7761 4 14.5 4H9.5C9.22386 4 9 3.77614 9 3.5Z" fill="#202020"/>
<path d="M6.5 12.0001H4.5C4.36739 12.0001 4.24021 11.9474 4.14645 11.8536C4.05268 11.7598 4 11.6327 4 11.5001C4 11.3674 4.05268 11.2403 4.14645 11.1465C4.24021 11.0527 4.36739 11.0001 4.5 11.0001H5.5C5.22862 10.6381 4.86412 10.3566 4.44536 10.1856C4.0266 10.0145 3.56927 9.96021 3.1221 10.0286C2.67493 10.0969 2.25469 10.2853 1.90616 10.5737C1.55763 10.8621 1.29387 11.2396 1.143 11.6661C1.11351 11.7489 1.06271 11.8225 0.995698 11.8794C0.928691 11.9364 0.847854 11.9746 0.761342 11.9903C0.67483 12.006 0.585703 11.9987 0.502949 11.969C0.420196 11.9392 0.346743 11.8882 0.29 11.8211C0.214158 11.7312 0.172379 11.6176 0.172 11.5001C0.171277 11.4432 0.180761 11.3866 0.2 11.3331C0.397396 10.772 0.734827 10.2707 1.1803 9.87656C1.62577 9.48247 2.16451 9.20869 2.74546 9.08119C3.3264 8.95368 3.93028 8.97667 4.49984 9.14798C5.06941 9.31929 5.58578 9.63323 6 10.0601V9.50005C6 9.36744 6.05268 9.24027 6.14645 9.1465C6.24021 9.05273 6.36739 9.00005 6.5 9.00005C6.63261 9.00005 6.75979 9.05273 6.85355 9.1465C6.94732 9.24027 7 9.36744 7 9.50005V11.5001C7 11.6327 6.94732 11.7598 6.85355 11.8536C6.75979 11.9474 6.63261 12.0001 6.5 12.0001ZM1 15.5001V14.9401C1.41422 15.3669 1.93059 15.6808 2.50016 15.8521C3.06972 16.0234 3.6736 16.0464 4.25454 15.9189C4.83549 15.7914 5.37423 15.5176 5.8197 15.1235C6.26517 14.7294 6.6026 14.2281 6.8 13.667C6.82522 13.6035 6.83746 13.5355 6.836 13.4671C6.83401 13.3998 6.81907 13.3336 6.792 13.272C6.76432 13.2105 6.72414 13.1553 6.674 13.1101C6.62424 13.0656 6.5661 13.0316 6.503 13.0101C6.43876 12.988 6.37079 12.9788 6.303 12.9831C6.23582 12.9872 6.17018 13.0049 6.11 13.035C6.05005 13.0657 5.99671 13.1078 5.953 13.159C5.90802 13.2103 5.87399 13.2702 5.853 13.3351C5.7016 13.7605 5.43776 14.1371 5.08952 14.4246C4.74129 14.7122 4.32165 14.9001 3.87521 14.9683C3.42876 15.0365 2.97218 14.9825 2.55397 14.812C2.13576 14.6415 1.77154 14.3609 1.5 14.0001H2.5C2.63261 14.0001 2.75979 13.9474 2.85355 13.8536C2.94732 13.7598 3 13.6327 3 13.5001C3 13.3674 2.94732 13.2403 2.85355 13.1465C2.75979 13.0527 2.63261 13.0001 2.5 13.0001H0.5C0.367392 13.0001 0.240215 13.0527 0.146447 13.1465C0.0526784 13.2403 0 13.3674 0 13.5001V15.5001C0 15.6327 0.0526784 15.7598 0.146447 15.8536C0.240215 15.9474 0.367392 16.0001 0.5 16.0001C0.632608 16.0001 0.759785 15.9474 0.853553 15.8536C0.947322 15.7598 1 15.6327 1 15.5001Z" fill="#006CBF"/>
</g>
<defs>
<clipPath id="clip0_7199_54569">
<rect width="16" height="16" fill="white"/>
</clipPath>
</defs>
</svg>
