<svg width="16" height="16" viewBox="0 0 16 16" fill="none" xmlns="http://www.w3.org/2000/svg">
<g clip-path="url(#clip0_7199_54718)">
<path d="M1 6C1 3.23858 3.23858 1 6 1C8.76142 1 11 3.23858 11 6C11 6.00748 11 6.01496 11 6.02243C10.6547 6.05355 10.3186 6.11658 9.99466 6.20855C9.99821 6.13948 10 6.06995 10 6C10 3.79086 8.20914 2 6 2C3.79086 2 2 3.79086 2 6C2 8.20914 3.79086 10 6 10C6.06995 10 6.13948 9.99821 6.20855 9.99466C6.11658 10.3186 6.05355 10.6547 6.02243 11C6.01496 11 6.00748 11 6 11C5.2889 11 4.61246 10.8516 4 10.584V13.6169L5.74275 12.5713C5.84939 12.5073 5.97394 12.4864 6.09227 12.5086C6.1843 13.0052 6.34305 13.4783 6.55885 13.9184L6 13.5831L3.75725 14.9287C3.60278 15.0214 3.4104 15.0239 3.25365 14.9351C3.0969 14.8463 3 14.6801 3 14.5V10.0004C1.78555 9.08816 1 7.63582 1 6Z" fill="#202020"/>
<path d="M11.5 7C12.39 7 13.26 7.26392 14.0001 7.75839C14.7401 8.25285 15.3169 8.95566 15.6575 9.77792C15.9981 10.6002 16.0872 11.505 15.9135 12.3779C15.7399 13.2508 15.3113 14.0526 14.682 14.682C14.0526 15.3113 13.2508 15.7399 12.3779 15.9135C11.505 16.0872 10.6002 15.9981 9.77792 15.6575C8.95566 15.3169 8.25285 14.7401 7.75839 14.0001C7.26392 13.26 7 12.39 7 11.5C7 10.3065 7.47411 9.16193 8.31802 8.31802C9.16193 7.47411 10.3065 7 11.5 7V7ZM11.146 13.853C11.1917 13.8987 11.2461 13.9348 11.306 13.959C11.3672 13.9858 11.4332 13.9997 11.5 14V14C11.5646 13.9999 11.6285 13.987 11.688 13.962C11.7488 13.9369 11.8042 13.9002 11.851 13.854L13.851 11.854C13.9449 11.7601 13.9976 11.6328 13.9976 11.5C13.9976 11.3672 13.9449 11.2399 13.851 11.146C13.7571 11.0521 13.6298 10.9994 13.497 10.9994C13.3642 10.9994 13.2369 11.0521 13.143 11.146L12 12.293V9.5C12 9.36739 11.9473 9.24021 11.8536 9.14645C11.7598 9.05268 11.6326 9 11.5 9C11.3674 9 11.2402 9.05268 11.1464 9.14645C11.0527 9.24021 11 9.36739 11 9.5V12.293L9.854 11.146C9.76011 11.0521 9.63278 10.9994 9.5 10.9994C9.36722 10.9994 9.23989 11.0521 9.146 11.146C9.05211 11.2399 8.99937 11.3672 8.99937 11.5C8.99937 11.6328 9.05211 11.7601 9.146 11.854L11.146 13.853Z" fill="#202020"/>
</g>
<defs>
<clipPath id="clip0_7199_54718">
<rect width="16" height="16" fill="white"/>
</clipPath>
</defs>
</svg>
