<svg width="16" height="16" viewBox="0 0 16 16" fill="none" xmlns="http://www.w3.org/2000/svg">
<path d="M1.5 2C1.22386 2 1 2.22386 1 2.5C1 2.77614 1.22386 3 1.5 3H7C7.27614 3 7.5 2.77614 7.5 2.5C7.5 2.22386 7.27614 2 7 2H1.5Z" fill="#202020"/>
<path d="M4.5 5C4.22386 5 4 5.22386 4 5.5C4 5.77614 4.22386 6 4.5 6H8.5C8.77614 6 9 5.77614 9 5.5C9 5.22386 8.77614 5 8.5 5H4.5Z" fill="#202020"/>
<path d="M10.5 5.5C10.5 5.22386 10.7239 5 11 5H13.5C13.7761 5 14 5.22386 14 5.5C14 5.77614 13.7761 6 13.5 6H11C10.7239 6 10.5 5.77614 10.5 5.5Z" fill="#202020"/>
<path fill-rule="evenodd" clip-rule="evenodd" d="M7.28573 7.96569C6.48327 8.92152 6 10.1543 6 11.5C6 12.8457 6.48328 14.0785 7.28573 15.0343C6.51951 15.6391 5.5519 16 4.5 16C2.01472 16 0 13.9853 0 11.5C0 9.01472 2.01472 7 4.5 7C5.5519 7 6.51951 7.36092 7.28573 7.96569ZM4.5 8.875C4.84518 8.875 5.125 9.15482 5.125 9.5C5.125 9.84518 4.84518 10.125 4.5 10.125C4.15482 10.125 3.875 9.84518 3.875 9.5C3.875 9.15482 4.15482 8.875 4.5 8.875ZM4.5 14C4.22386 14 4 13.7761 4 13.5V11.5C4 11.2239 4.22386 11 4.5 11C4.77614 11 5 11.2239 5 11.5V13.5C5 13.7761 4.77614 14 4.5 14Z" fill="#202020"/>
<path d="M9 2.5C9 2.22386 9.22386 2 9.5 2H14.5C14.7761 2 15 2.22386 15 2.5C15 2.77614 14.7761 3 14.5 3H9.5C9.22386 3 9 2.77614 9 2.5Z" fill="#202020"/>
<path fill-rule="evenodd" clip-rule="evenodd" d="M11.5 16C13.9853 16 16 13.9853 16 11.5C16 9.01472 13.9853 7 11.5 7C9.01472 7 7 9.01472 7 11.5C7 13.9853 9.01472 16 11.5 16ZM13.3536 10.3536C13.5488 10.1583 13.5488 9.84171 13.3536 9.64645C13.1583 9.45118 12.8417 9.45118 12.6464 9.64645L11.5 10.7929L10.3536 9.64645C10.1583 9.45118 9.84171 9.45118 9.64645 9.64645C9.45118 9.84171 9.45118 10.1583 9.64645 10.3536L10.7929 11.5L9.64645 12.6464C9.45118 12.8417 9.45118 13.1583 9.64645 13.3536C9.84171 13.5488 10.1583 13.5488 10.3536 13.3536L11.5 12.2071L12.6464 13.3536C12.8417 13.5488 13.1583 13.5488 13.3536 13.3536C13.5488 13.1583 13.5488 12.8417 13.3536 12.6464L12.2071 11.5L13.3536 10.3536Z" fill="#C50F1F"/>
</svg>
