<svg width="16" height="16" viewBox="0 0 16 16" fill="none" xmlns="http://www.w3.org/2000/svg">
<path fill-rule="evenodd" clip-rule="evenodd" d="M2 4.5C2 3.119 3.119 2 4.5 2H11.5C12.881 2 14 3.119 14 4.5V11.5C14 12.881 12.881 14 11.5 14H4.5C3.119 14 2 12.881 2 11.5V4.5ZM3 5H13V4.5C13 3.672 12.328 3 11.5 3H4.5C3.672 3 3 3.672 3 4.5V5ZM13 6H3V11.5C3 12.328 3.672 13 4.5 13H11.5C12.328 13 13 12.328 13 11.5V6Z" fill="#202020"/>
<path d="M11.354 8.64576L9.85398 7.14576C9.65898 6.95076 9.34198 6.95076 9.14698 7.14576C8.95198 7.34076 8.95198 7.65776 9.14698 7.85276L10.293 8.99876L9.14698 10.1448C8.95198 10.3398 8.95198 10.6568 9.14698 10.8518C9.34198 11.0468 9.65898 11.0468 9.85398 10.8518L11.354 9.35176C11.549 9.15676 11.549 8.84076 11.354 8.64576ZM4.64698 9.35276L6.14698 10.8528C6.34198 11.0478 6.65898 11.0478 6.85398 10.8528C7.04898 10.6578 7.04898 10.3408 6.85398 10.1458L5.70798 8.99976L6.85398 7.85376C7.04898 7.65876 7.04898 7.34176 6.85398 7.14676C6.65898 6.95176 6.34198 6.95176 6.14698 7.14676L4.64698 8.64676C4.45198 8.84176 4.45198 9.15876 4.64698 9.35376V9.35276Z" fill="#006CBF"/>
</svg>
