<svg width="16" height="16" viewBox="0 0 16 16" fill="none" xmlns="http://www.w3.org/2000/svg">
<path d="M1 3.5C1 3.22386 1.22386 3 1.5 3H7C7.27614 3 7.5 3.22386 7.5 3.5C7.5 3.77614 7.27614 4 7 4H1.5C1.22386 4 1 3.77614 1 3.5Z" fill="#202020"/>
<path d="M4.21917 6.08626C4.29922 6.03182 4.3959 6 4.5 6H8.5C8.77614 6 9 6.22386 9 6.5C9 6.77614 8.77614 7 8.5 7H5.73716C5.56109 6.80293 5.35886 6.62898 5.13499 6.48347C4.85261 6.29992 4.54285 6.16618 4.21917 6.08626Z" fill="#202020"/>
<path d="M7.94955 13H9C9.27614 13 9.5 12.7761 9.5 12.5C9.5 12.2239 9.27614 12 9 12H7.5002C7.72274 12.2968 7.87581 12.6386 7.94955 13Z" fill="#202020"/>
<path d="M6.328 10H11.5C11.7761 10 12 9.77614 12 9.5C12 9.22386 11.7761 9 11.5 9H6.5C6.49994 9.15739 6.48749 9.31517 6.46246 9.47188C6.43362 9.65245 6.38848 9.82917 6.328 10Z" fill="#202020"/>
<path d="M11 6C10.7239 6 10.5 6.22386 10.5 6.5C10.5 6.77614 10.7239 7 11 7H13.5C13.7761 7 14 6.77614 14 6.5C14 6.22386 13.7761 6 13.5 6H11Z" fill="#202020"/>
<path d="M9 3.5C9 3.22386 9.22386 3 9.5 3H14.5C14.7761 3 15 3.22386 15 3.5C15 3.77614 14.7761 4 14.5 4H9.5C9.22386 4 9 3.77614 9 3.5Z" fill="#202020"/>
<path d="M1.5 9C1.5 9.39556 1.6173 9.78224 1.83706 10.1111C2.05682 10.44 2.36918 10.6964 2.73463 10.8478C3.10009 10.9991 3.50222 11.0387 3.89018 10.9616C4.27814 10.8844 4.63451 10.6939 4.91421 10.4142C5.19392 10.1345 5.3844 9.77814 5.46157 9.39018C5.53874 9.00222 5.49913 8.60009 5.34776 8.23463C5.19638 7.86918 4.94004 7.55682 4.61114 7.33706C4.28224 7.1173 3.89556 7 3.5 7C2.96957 7 2.46086 7.21071 2.08579 7.58579C1.71071 7.96086 1.5 8.46957 1.5 9ZM0 13.5C0 14.745 1 16 3.5 16C6 16 7 14.75 7 13.5C7 13.1022 6.84196 12.7206 6.56066 12.4393C6.27936 12.158 5.89782 12 5.5 12H1.5C1.10218 12 0.720644 12.158 0.43934 12.4393C0.158035 12.7206 0 13.1022 0 13.5Z" fill="#202020"/>
</svg>
