<svg width="16" height="16" viewBox="0 0 16 16" fill="none" xmlns="http://www.w3.org/2000/svg">
<path d="M10.8542 3.14576C10.6592 2.95076 10.3422 2.95076 10.1472 3.14576C9.95223 3.34076 9.95223 3.65776 10.1472 3.85276L11.1472 4.85276C11.3422 5.04776 11.6592 5.04776 11.8542 4.85276L12.8542 3.85276C13.0492 3.65776 13.0492 3.34076 12.8542 3.14576C12.6592 2.95076 12.3422 2.95076 12.1472 3.14576L11.5012 3.79176L10.8542 3.14576Z" fill="#202020"/>
<path fill-rule="evenodd" clip-rule="evenodd" d="M2.5 1C1.672 1 1 1.672 1 2.5V5.5C1 6.328 1.672 7 2.5 7H13.5C14.328 7 15 6.328 15 5.5V2.5C15 1.672 14.328 1 13.5 1H2.5ZM2 2.5C2 2.224 2.224 2 2.5 2H13.5C13.776 2 14 2.224 14 2.5V5.5C14 5.776 13.776 6 13.5 6H2.5C2.224 6 2 5.776 2 5.5V2.5Z" fill="#202020"/>
<path d="M7.5 9H14.5C14.776 9 15 8.776 15 8.5C15 8.224 14.776 8 14.5 8H7.5C7.224 8 7 8.224 7 8.5C7 8.776 7.224 9 7.5 9Z" fill="#202020"/>
<path d="M14.5 11C14.776 11 15 11.224 15 11.5C15 11.776 14.776 12 14.5 12H7.5C7.224 12 7 11.776 7 11.5C7 11.224 7.224 11 7.5 11H14.5Z" fill="#202020"/>
<path d="M14.5 14C14.776 14 15 14.224 15 14.5C15 14.776 14.776 15 14.5 15H7.5C7.224 15 7 14.776 7 14.5C7 14.224 7.224 14 7.5 14H14.5Z" fill="#202020"/>
<path d="M5.14623 13.1458L4.00023 14.2918V9.70579L5.14623 10.8518C5.24423 10.9498 5.37223 10.9978 5.50023 10.9978C5.62823 10.9978 5.75623 10.9488 5.85423 10.8518C6.04923 10.6568 6.04923 10.3398 5.85423 10.1448L3.85423 8.14479C3.65923 7.94979 3.34223 7.94979 3.14723 8.14479L1.14723 10.1448C0.952227 10.3398 0.952227 10.6568 1.14723 10.8518C1.24523 10.9498 1.37323 10.9978 1.50123 10.9978C1.62923 10.9978 1.75723 10.9488 1.85523 10.8518L3.00123 9.70579V14.2918L1.85523 13.1458C1.66023 12.9508 1.34323 12.9508 1.14823 13.1458C0.953227 13.3408 0.953227 13.6578 1.14823 13.8528L3.14823 15.8528C3.24623 15.9508 3.37423 15.9988 3.50223 15.9988C3.63023 15.9988 3.75823 15.9498 3.85623 15.8528L5.85623 13.8528C6.05123 13.6578 6.05123 13.3408 5.85623 13.1458C5.66123 12.9508 5.34423 12.9508 5.14923 13.1458H5.14623Z" fill="#006CBF"/>
</svg>
