<svg width="16" height="16" viewBox="0 0 16 16" fill="none" xmlns="http://www.w3.org/2000/svg">
<path d="M6.5 3H0.5C0.224 3 0 2.776 0 2.5C0 2.224 0.224 2 0.5 2H6.5C6.776 2 7 2.224 7 2.5C7 2.776 6.776 3 6.5 3ZM7 6.5C7 6.224 6.776 6 6.5 6H4.5C4.224 6 4 6.224 4 6.5C4 6.776 4.224 7 4.5 7H6.5C6.776 7 7 6.776 7 6.5ZM3 8V7C3 6.448 2.551 6 2 6H1C0.449 6 0 6.448 0 7V8C0 8.552 0.449 9 1 9H2C2.551 9 3 8.552 3 8ZM2.001 7V8H1.001V7H2.001ZM7.001 10.5C7.001 10.224 6.777 10 6.501 10H4.501C4.225 10 4.001 10.224 4.001 10.5C4.001 10.776 4.225 11 4.501 11H6.501C6.777 11 7.001 10.776 7.001 10.5ZM3.001 12V11C3.001 10.448 2.552 10 2.001 10H1.001C0.45 10 0.001 10.448 0.001 11V12C0.001 12.552 0.45 13 1.001 13H2.001C2.552 13 3.001 12.552 3.001 12ZM2.002 11V12H1.002V11H2.002ZM15 2.5C15 2.224 14.776 2 14.5 2H8.5C8.224 2 8 2.224 8 2.5C8 2.776 8.224 3 8.5 3H14.5C14.776 3 15 2.776 15 2.5ZM15 6.5C15 6.224 14.776 6 14.5 6H12.5C12.224 6 12 6.224 12 6.5C12 6.776 12.224 7 12.5 7H14.5C14.776 7 15 6.776 15 6.5ZM11 8V7C11 6.448 10.551 6 10 6H9C8.449 6 8 6.448 8 7V8C8 8.552 8.449 9 9 9H10C10.551 9 11 8.552 11 8ZM10.001 7V8H9.001V7H10.001ZM15.001 10.5C15.001 10.224 14.777 10 14.501 10H12.501C12.225 10 12.001 10.224 12.001 10.5C12.001 10.776 12.225 11 12.501 11H14.501C14.777 11 15.001 10.776 15.001 10.5ZM11.001 12V11C11.001 10.448 10.552 10 10.001 10H9.001C8.45 10 8.001 10.448 8.001 11V12C8.001 12.552 8.45 13 9.001 13H10.001C10.552 13 11.001 12.552 11.001 12ZM10.002 11V12H9.002V11H10.002Z" fill="#202020"/>
</svg>
