<svg width="16" height="16" viewBox="0 0 16 16" fill="none" xmlns="http://www.w3.org/2000/svg">
<path fill-rule="evenodd" clip-rule="evenodd" d="M6.5 1.99902H9.5C9.89782 1.99902 10.2794 2.15706 10.5607 2.43836C10.842 2.71967 11 3.1012 11 3.49902V12.499C11 12.8968 10.842 13.2784 10.5607 13.5597C10.2794 13.841 9.89782 13.999 9.5 13.999H9.18187L8.18137 12.999H9.5C9.63261 12.999 9.75979 12.9463 9.85355 12.8526C9.94732 12.7588 10 12.6316 10 12.499V10.999H7.96437C8.00554 10.6679 8.0098 10.3325 7.97656 9.99902H10V5.99902H6V6.70762C5.68685 6.4986 5.35072 6.33111 5 6.20743V3.49902C5 3.1012 5.15804 2.71967 5.43934 2.43836C5.72064 2.15706 6.10218 1.99902 6.5 1.99902ZM6.14645 3.14547C6.05268 3.23924 6 3.36642 6 3.49902V4.99902H10V3.49902C10 3.36642 9.94732 3.23924 9.85355 3.14547C9.75979 3.0517 9.63261 2.99902 9.5 2.99902H6.5C6.36739 2.99902 6.24021 3.0517 6.14645 3.14547Z" fill="#202020"/>
<path d="M8.854 15.086L6.293 12.526C6.74929 11.9257 6.99749 11.193 7 10.439C7 9.74673 6.79473 9.07004 6.41015 8.49447C6.02556 7.9189 5.47894 7.47029 4.83939 7.20539C4.19985 6.94048 3.49612 6.87117 2.81719 7.00622C2.13825 7.14127 1.51461 7.47461 1.02513 7.96409C0.535644 8.45358 0.202301 9.07722 0.0672531 9.75615C-0.0677952 10.4351 0.00151649 11.1388 0.266423 11.7784C0.53133 12.4179 0.979934 12.9645 1.55551 13.3491C2.13108 13.7337 2.80777 13.939 3.5 13.939C4.25357 13.9365 4.98584 13.6887 5.586 13.233L8.146 15.793C8.23976 15.8869 8.36697 15.9397 8.49965 15.9397C8.63233 15.9398 8.75962 15.8872 8.8535 15.7935C8.94739 15.6997 9.00019 15.5725 9.00028 15.4398C9.00037 15.3071 8.94776 15.1799 8.854 15.086V15.086ZM1 10.439C1 9.94451 1.14662 9.46116 1.42133 9.05004C1.69603 8.63892 2.08648 8.31849 2.54329 8.12927C3.00011 7.94005 3.50277 7.89054 3.98773 7.987C4.47268 8.08347 4.91814 8.32157 5.26777 8.6712C5.6174 9.02083 5.8555 9.46629 5.95196 9.95124C6.04843 10.4362 5.99892 10.9389 5.8097 11.3957C5.62048 11.8525 5.30005 12.2429 4.88893 12.5176C4.4778 12.7923 3.99445 12.939 3.5 12.939C2.83696 12.939 2.20108 12.6756 1.73223 12.2067C1.26339 11.7379 1 11.102 1 10.439V10.439Z" fill="#006CBF"/>
</svg>
