<svg width="16" height="16" viewBox="0 0 16 16" fill="none" xmlns="http://www.w3.org/2000/svg">
<path fill-rule="evenodd" clip-rule="evenodd" d="M8.5 2H11.5C11.8978 2 12.2794 2.15804 12.5607 2.43934C12.842 2.72064 13 3.10218 13 3.5V12.5C13 12.8978 12.842 13.2794 12.5607 13.5607C12.2794 13.842 11.8978 14 11.5 14H9.40029C9.56223 13.6832 9.69436 13.3486 9.79297 13H11.5C11.6326 13 11.7598 12.9473 11.8536 12.8536C11.9473 12.7598 12 12.6326 12 12.5V11H9.97758C9.94663 10.6566 9.88412 10.3223 9.79297 10H12V6H8V7.25716C7.69289 7.00353 7.35778 6.78261 7 6.59971V3.5C7 3.10218 7.15804 2.72064 7.43934 2.43934C7.72064 2.15804 8.10218 2 8.5 2ZM8.14645 3.14645C8.05268 3.24021 8 3.36739 8 3.5V5H12V3.5C12 3.36739 11.9473 3.24021 11.8536 3.14645C11.7598 3.05268 11.6326 3 11.5 3H8.5C8.36739 3 8.24021 3.05268 8.14645 3.14645Z" fill="#202020"/>
<path fill-rule="evenodd" clip-rule="evenodd" d="M0.634576 10.9201C1.72253 10.6421 2.36853 9.52323 2.06523 8.44208L1.90905 7.8853C2.16313 7.69 2.43852 7.5227 2.73095 7.38782L3.0683 7.74578C3.85724 8.5829 5.188 8.5836 5.97782 7.74731L6.3025 7.40352C6.60029 7.54404 6.88008 7.71831 7.13731 7.9216L7.01112 8.34389C6.68178 9.44603 7.34777 10.5982 8.46721 10.8628L8.81621 10.9454C8.83779 11.1271 8.84891 11.3122 8.84891 11.5C8.84891 11.656 8.84124 11.8101 8.82627 11.962L8.36573 12.0797C7.27778 12.3576 6.63178 13.4765 6.93507 14.5576L7.09122 15.1143C6.83715 15.3096 6.56178 15.477 6.26936 15.6119L5.932 15.2539C5.14306 14.4168 3.8123 14.4161 3.02248 15.2524L2.69749 15.5965C2.39976 15.4561 2.12002 15.2819 1.86284 15.0786L1.98918 14.6558C2.31852 13.5537 1.65253 12.4016 0.533096 12.1369L0.18354 12.0542C0.16198 11.8726 0.150879 11.6876 0.150879 11.5C0.150879 11.3439 0.158554 11.1898 0.173535 11.0378L0.634576 10.9201ZM5.4999 11.5C5.4999 12.0523 5.05218 12.5 4.4999 12.5C3.94761 12.5 3.4999 12.0523 3.4999 11.5C3.4999 10.9477 3.94761 10.5 4.4999 10.5C5.05218 10.5 5.4999 10.9477 5.4999 11.5Z" fill="#202020"/>
</svg>
