<svg width="16" height="16" viewBox="0 0 16 16" fill="none" xmlns="http://www.w3.org/2000/svg">
<path d="M1 5.5C1 4.119 2.119 3 3.5 3H12.5C13.881 3 15 4.119 15 5.5V10.5C15 11.881 13.881 13 12.5 13H3.5C2.119 13 1 11.881 1 10.5V5.5ZM3.5 4C2.672 4 2 4.672 2 5.5V10.5C2 11.328 2.672 12 3.5 12H12.5C13.328 12 14 11.328 14 10.5V5.5C14 4.672 13.328 4 12.5 4H3.5Z" fill="#202020"/>
<path d="M10.854 5.64601L12.854 7.64601L12.855 7.64501C13.05 7.84001 13.05 8.15701 12.855 8.35201L10.855 10.352C10.757 10.449 10.629 10.498 10.501 10.498C10.373 10.498 10.245 10.45 10.147 10.352C9.95198 10.157 9.95198 9.84001 10.147 9.64501L11.793 7.99901L10.147 6.35301C9.95198 6.15801 9.95198 5.84101 10.147 5.64601C10.342 5.45101 10.659 5.45101 10.854 5.64601Z" fill="#202020"/>
<path d="M4.20701 7.99998L5.85301 6.35398C6.04801 6.15898 6.04801 5.84198 5.85301 5.64698C5.65801 5.45198 5.34101 5.45198 5.14601 5.64698L3.14601 7.64698C2.95101 7.84198 2.95101 8.15898 3.14601 8.35398L5.14601 10.354C5.24401 10.452 5.37201 10.5 5.50001 10.5C5.62801 10.5 5.75601 10.451 5.85401 10.354C6.04901 10.159 6.04901 9.84198 5.85401 9.64698L4.20701 7.99998Z" fill="#202020"/>
<path d="M9.5 7.5H8.5V6.5C8.5 6.224 8.276 6 8 6C7.724 6 7.5 6.224 7.5 6.5V7.5H6.5C6.224 7.5 6 7.724 6 8C6 8.276 6.224 8.5 6.5 8.5H7.5V9.5C7.5 9.776 7.724 10 8 10C8.276 10 8.5 9.776 8.5 9.5V8.5H9.5C9.776 8.5 10 8.276 10 8C10 7.724 9.776 7.5 9.5 7.5Z" fill="#202020"/>
</svg>
