<svg width="16" height="16" viewBox="0 0 16 16" fill="none" xmlns="http://www.w3.org/2000/svg">
<path d="M8.5 1H5.5C4.67 1 4 1.67 4 2.5V4H1.5C0.673 4 0 4.673 0 5.5V8.5C0 9.327 0.673 10 1.5 10H4.5C5.327 10 6 9.327 6 8.5V7H8.5C9.33 7 10 6.33 10 5.5V2.5C10 1.67 9.33 1 8.5 1ZM5 8.5C5 8.776 4.775 9 4.5 9H1.5C1.225 9 1 8.776 1 8.5V6H5V8.5ZM9 5.5C9 5.78 8.78 6 8.5 6H6V5.5C6 4.849 5.581 4.299 5 4.092V3H9V5.5Z" fill="#202020"/>
<path d="M8.5 10C8.776 10 9 9.776 9 9.5C9 9.224 8.776 9 8.5 9H8C7.448 9 7 9.448 7 10V15C7 15.552 7.448 16 8 16H8.5C8.776 16 9 15.776 9 15.5C9 15.224 8.776 15 8.5 15H8V10H8.5Z" fill="#202020"/>
<path d="M9.64696 10.954C9.63596 9.817 10.452 9 11.5 9H11.501C12.532 9 13.354 9.845 13.354 10.949C13.354 11.535 13.139 11.857 12.626 12.268L12.349 12.482C12.104 12.676 12.021 12.782 12.004 12.93L11.992 13.086C11.95 13.319 11.746 13.496 11.5 13.496C11.224 13.496 11 13.272 11 12.996C11 12.424 11.21 12.111 11.716 11.707L11.994 11.492C12.283 11.263 12.354 11.15 12.354 10.948C12.354 10.391 11.973 9.999 11.501 9.999C11.007 9.999 10.642 10.365 10.647 10.944C10.65 11.22 10.428 11.446 10.152 11.449C9.87596 11.452 9.64996 11.23 9.64696 10.954Z" fill="#202020"/>
<path d="M10.876 14.501C10.876 14.157 11.155 13.877 11.5 13.877C11.845 13.877 12.125 14.156 12.125 14.501C12.125 14.846 11.844 15.126 11.5 15.126C11.156 15.126 10.876 14.845 10.876 14.501Z" fill="#202020"/>
<path d="M14.5 9H15C15.552 9 16 9.448 16 10V15C16 15.552 15.552 16 15 16H14.5C14.224 16 14 15.776 14 15.5C14 15.224 14.224 15 14.5 15H15V10H14.5C14.224 10 14 9.776 14 9.5C14 9.224 14.224 9 14.5 9Z" fill="#202020"/>
</svg>
