<svg width="16" height="16" viewBox="0 0 16 16" fill="none" xmlns="http://www.w3.org/2000/svg">
<path fill-rule="evenodd" clip-rule="evenodd" d="M3.5 4H5.5C5.898 4 6.28 4.158 6.561 4.439C6.842 4.721 7 5.102 7 5.5V12.5C7 12.898 6.842 13.28 6.561 13.561C6.279 13.842 5.898 14 5.5 14H3.5C3.102 14 2.72 13.842 2.439 13.561C2.158 13.279 2 12.898 2 12.5V5.5C2 5.102 2.158 4.72 2.439 4.439C2.721 4.158 3.102 4 3.5 4ZM6 8H3V10H6V8ZM3.146 5.146C3.053 5.24 3 5.367 3 5.5V7H6V5.5C6 5.367 5.948 5.24 5.854 5.146C5.76 5.053 5.633 5 5.5 5H3.5C3.367 5 3.24 5.052 3.146 5.146ZM5.854 12.854C5.947 12.76 6 12.633 6 12.5V11H3V12.5C3 12.633 3.052 12.76 3.146 12.854C3.24 12.947 3.367 13 3.5 13H5.5C5.633 13 5.76 12.948 5.854 12.854Z" fill="#202020"/>
<path fill-rule="evenodd" clip-rule="evenodd" d="M10.5 4H12.5C12.898 4 13.28 4.158 13.561 4.439C13.842 4.721 14 5.102 14 5.5V12.5C14 12.898 13.842 13.28 13.561 13.561C13.279 13.842 12.898 14 12.5 14H10.5C10.102 14 9.72 13.842 9.439 13.561C9.158 13.279 9 12.898 9 12.5V5.5C9 5.102 9.158 4.72 9.439 4.439C9.721 4.158 10.102 4 10.5 4ZM13 8H10V10H13V8ZM10.146 5.146C10.053 5.24 10 5.367 10 5.5V7H13V5.5C13 5.367 12.948 5.24 12.854 5.146C12.76 5.053 12.633 5 12.5 5H10.5C10.367 5 10.24 5.052 10.146 5.146ZM12.854 12.854C12.947 12.76 13 12.633 13 12.5V11H10V12.5C10 12.633 10.052 12.76 10.146 12.854C10.24 12.947 10.367 13 10.5 13H12.5C12.633 13 12.76 12.948 12.854 12.854Z" fill="#202020"/>
<path d="M6.5 3H2.5C2.224 3 2 2.776 2 2.5C2 2.224 2.224 2 2.5 2H6.5C6.776 2 7 2.224 7 2.5C7 2.776 6.776 3 6.5 3ZM14 2.5C14 2.224 13.776 2 13.5 2H9.5C9.224 2 9 2.224 9 2.5C9 2.776 9.224 3 9.5 3H13.5C13.776 3 14 2.776 14 2.5Z" fill="#006CBF"/>
</svg>
