<svg width="16" height="16" viewBox="0 0 16 16" fill="none" xmlns="http://www.w3.org/2000/svg">
<g clip-path="url(#clip0_7199_54896)">
<path fill-rule="evenodd" clip-rule="evenodd" d="M8.0862 2H7.5C7.10218 2 6.72064 2.15804 6.43934 2.43934C6.15804 2.72064 6 3.10218 6 3.5V12.5C6 12.8978 6.15804 13.2794 6.43934 13.5607C6.72064 13.842 7.10218 14 7.5 14H10.5C10.8978 14 11.2794 13.842 11.5607 13.5607C11.842 13.2794 12 12.8978 12 12.5V6.91384C11.7916 6.84034 11.6007 6.72063 11.4401 6.56L11 6.11992V10H7V6H10.8801L9.88008 5H7V3.5C7 3.36739 7.05268 3.24021 7.14645 3.14645C7.24021 3.05268 7.36739 3 7.5 3H8.08604C7.97289 2.68094 7.9697 2.32811 8.0862 2ZM10.8536 12.8536C10.9473 12.7598 11 12.6326 11 12.5V11H7V12.5C7 12.6326 7.05268 12.7598 7.14645 12.8536C7.24021 12.9473 7.36739 13 7.5 13H10.5C10.6326 13 10.7598 12.9473 10.8536 12.8536Z" fill="#202020"/>
<path d="M12.5 6C12.3999 6.00034 12.3008 5.9805 12.2085 5.94167C12.1163 5.90284 12.0328 5.84582 11.963 5.774L9.22103 3.026C9.1084 2.91332 9.0343 2.76791 9.00933 2.61056C8.98436 2.45322 9.00981 2.29201 9.08203 2.15L9.94503 0.419C10.0078 0.293545 10.1041 0.187956 10.2232 0.113982C10.3424 0.0400076 10.4798 0.000550077 10.62 0H14.38C14.5205 0.000685878 14.6581 0.0402995 14.7774 0.114442C14.8967 0.188584 14.9932 0.294352 15.056 0.42L15.92 2.155C15.9912 2.29606 16.0161 2.45597 15.9911 2.61199C15.9662 2.76801 15.8927 2.91219 15.781 3.024L13.033 5.778C12.9636 5.84879 12.8806 5.90492 12.789 5.94305C12.6975 5.98118 12.5992 6.00055 12.5 6V6Z" fill="#202020"/>
</g>
<defs>
<clipPath id="clip0_7199_54896">
<rect width="16" height="16" fill="white"/>
</clipPath>
</defs>
</svg>
