<svg width="16" height="16" viewBox="0 0 16 16" fill="none" xmlns="http://www.w3.org/2000/svg">
<g clip-path="url(#clip0_7199_54859)">
<path fill-rule="evenodd" clip-rule="evenodd" d="M5.5 1H7.5C7.898 1 8.28 1.158 8.561 1.439C8.842 1.721 9 2.102 9 2.5V5C8.64588 5 8.30145 5.09391 8 5.26794V5H5V7H7V8H5V9.5C5 9.633 5.052 9.76 5.146 9.854C5.24 9.947 5.367 10 5.5 10H7V10.0361C6.29542 10.1375 5.63541 10.4548 5.11407 10.9496C4.86076 10.8823 4.62722 10.7492 4.439 10.561C4.158 10.279 4 9.898 4 9.5V2.5C4 2.102 4.158 1.72 4.439 1.439C4.721 1.158 5.102 1 5.5 1ZM5.146 2.146C5.053 2.24 5 2.367 5 2.5V4H8V2.5C8 2.367 7.948 2.24 7.854 2.146C7.76 2.053 7.633 2 7.5 2H5.5C5.367 2 5.24 2.052 5.146 2.146Z" fill="#202020"/>
<path d="M15 6C15.2652 6.00006 15.5195 6.10545 15.707 6.293C15.8945 6.48049 15.9999 6.73481 16 7V13C15.9999 13.2652 15.8945 13.5195 15.707 13.707C15.5195 13.8946 15.2652 13.9999 15 14H10.9643C10.988 13.8357 11.0001 13.669 11.0001 13.501C11.0001 13.3323 10.9879 13.165 10.964 13H15V7H9V10.3387C8.68479 10.1892 8.34779 10.0871 8 10.0369V7C8.00006 6.73481 8.10545 6.48049 8.293 6.293C8.48049 6.10545 8.73481 6.00006 9 6H15Z" fill="#202020"/>
<path fill-rule="evenodd" clip-rule="evenodd" d="M7.50003 11.001C7.11343 11.0015 6.73227 11.0922 6.38683 11.2658C6.04139 11.4394 5.74118 11.6911 5.51003 12.001H1.50003C1.43464 12.0014 1.37 12.0149 1.30989 12.0407C1.24979 12.0664 1.19544 12.1039 1.15003 12.151L1.09003 12.221L0.220028 13.091L0.150028 13.151C0.102586 13.1961 0.0648117 13.2504 0.0389999 13.3106C0.0131882 13.3707 -0.00012207 13.4355 -0.00012207 13.501C-0.00012207 13.5665 0.0131882 13.6312 0.0389999 13.6914C0.0648117 13.7516 0.102586 13.8059 0.150028 13.851L1.15003 14.851C1.19515 14.8984 1.24944 14.9362 1.3096 14.962C1.36977 14.9878 1.43456 15.0011 1.50003 15.0011C1.5655 15.0011 1.63028 14.9878 1.69045 14.962C1.75062 14.9362 1.80491 14.8984 1.85003 14.851L2.50003 14.201L3.15003 14.851C3.19515 14.8984 3.24944 14.9362 3.3096 14.962C3.36977 14.9878 3.43456 15.0011 3.50003 15.0011C3.5655 15.0011 3.63028 14.9878 3.69045 14.962C3.75062 14.9362 3.80491 14.8984 3.85003 14.851L4.50003 14.201H5.11203C5.24294 14.6454 5.49501 15.0446 5.83999 15.3538C6.18497 15.6631 6.60924 15.8701 7.06527 15.9519C7.5213 16.0336 7.99107 15.9867 8.42197 15.8165C8.85286 15.6463 9.22786 15.3595 9.50494 14.9882C9.78203 14.6169 9.95026 14.1758 9.99079 13.7142C10.0313 13.2527 9.94254 12.789 9.73441 12.3751C9.52628 11.9612 9.20701 11.6134 8.81238 11.3707C8.41774 11.128 7.96332 11 7.50003 11.001ZM8.50003 14.251C8.35169 14.251 8.20669 14.207 8.08335 14.1246C7.96001 14.0422 7.86388 13.925 7.80712 13.788C7.75035 13.6509 7.7355 13.5002 7.76444 13.3547C7.79338 13.2092 7.86481 13.0755 7.9697 12.9707C8.07459 12.8658 8.20822 12.7943 8.35371 12.7654C8.4992 12.7365 8.65 12.7513 8.78704 12.8081C8.92409 12.8648 9.04122 12.961 9.12363 13.0843C9.20604 13.2076 9.25003 13.3526 9.25003 13.501C9.25003 13.6999 9.17101 13.8907 9.03036 14.0313C8.88971 14.172 8.69894 14.251 8.50003 14.251Z" fill="#202020"/>
</g>
<defs>
<clipPath id="clip0_7199_54859">
<rect width="16" height="16" fill="white"/>
</clipPath>
</defs>
</svg>
