<svg width="16" height="16" viewBox="0 0 16 16" fill="none" xmlns="http://www.w3.org/2000/svg">
<path fill-rule="evenodd" clip-rule="evenodd" d="M5.5 2H8.5C8.89782 2 9.27936 2.15804 9.56066 2.43934C9.84196 2.72064 10 3.10218 10 3.5V6.20703C9.65136 6.30564 9.31679 6.43777 9 6.59971V6H5V10H6.20703C6.11588 10.3223 6.05337 10.6566 6.02242 11H5V12.5C5 12.6326 5.05268 12.7598 5.14645 12.8536C5.24021 12.9473 5.36739 13 5.5 13H6.20703C6.30564 13.3486 6.43777 13.6832 6.59971 14H5.5C5.10218 14 4.72064 13.842 4.43934 13.5607C4.15804 13.2794 4 12.8978 4 12.5V3.5C4 3.10218 4.15804 2.72064 4.43934 2.43934C4.72064 2.15804 5.10218 2 5.5 2ZM5.14645 3.14645C5.05268 3.24021 5 3.36739 5 3.5V5H9V3.5C9 3.36739 8.94732 3.24021 8.85355 3.14645C8.75979 3.05268 8.63261 3 8.5 3H5.5C5.36739 3 5.24021 3.05268 5.14645 3.14645Z" fill="#202020"/>
<path fill-rule="evenodd" clip-rule="evenodd" d="M11.5 16C13.9853 16 16 13.9853 16 11.5C16 9.01472 13.9853 7 11.5 7C9.01472 7 7 9.01472 7 11.5C7 13.9853 9.01472 16 11.5 16ZM13.3536 10.3536C13.5488 10.1583 13.5488 9.84171 13.3536 9.64645C13.1583 9.45118 12.8417 9.45118 12.6464 9.64645L11.5 10.7929L10.3536 9.64645C10.1583 9.45118 9.84171 9.45118 9.64645 9.64645C9.45118 9.84171 9.45118 10.1583 9.64645 10.3536L10.7929 11.5L9.64645 12.6464C9.45118 12.8417 9.45118 13.1583 9.64645 13.3536C9.84171 13.5488 10.1583 13.5488 10.3536 13.3536L11.5 12.2071L12.6464 13.3536C12.8417 13.5488 13.1583 13.5488 13.3536 13.3536C13.5488 13.1583 13.5488 12.8417 13.3536 12.6464L12.2071 11.5L13.3536 10.3536Z" fill="#C50F1F"/>
</svg>
