<svg width="16" height="16" viewBox="0 0 16 16" fill="none" xmlns="http://www.w3.org/2000/svg">
<g clip-path="url(#clip0_7199_54911)">
<path d="M8.0862 2H7.5C7.10218 2 6.72064 2.15804 6.43934 2.43934C6.15804 2.72064 6 3.10218 6 3.5V7H7V6H10.8801L9.88008 5H7V3.5C7 3.36739 7.05268 3.24021 7.14645 3.14645C7.24022 3.05268 7.36739 3 7.5 3H8.08604C7.97289 2.68094 7.9697 2.32811 8.0862 2Z" fill="#202020"/>
<path d="M11 6.11992L11.4401 6.56C11.6007 6.72063 11.7916 6.84034 12 6.91384V12.5C12 12.8978 11.842 13.2794 11.5607 13.5607C11.2794 13.842 10.8978 14 10.5 14H9V13H10.5C10.6326 13 10.7598 12.9473 10.8536 12.8536C10.9473 12.7598 11 12.6326 11 12.5V11H9V10H11V6.11992Z" fill="#202020"/>
<path d="M12.5 6C12.3999 6.00034 12.3008 5.9805 12.2085 5.94167C12.1163 5.90284 12.0328 5.84582 11.963 5.774L9.22103 3.026C9.1084 2.91332 9.0343 2.76791 9.00933 2.61056C8.98436 2.45322 9.00981 2.29201 9.08203 2.15L9.94503 0.419C10.0078 0.293545 10.1041 0.187956 10.2232 0.113982C10.3424 0.0400076 10.4798 0.000550077 10.62 0H14.38C14.5205 0.000685878 14.6581 0.0402995 14.7774 0.114442C14.8967 0.188584 14.9932 0.294352 15.056 0.42L15.92 2.155C15.9912 2.29606 16.0161 2.45597 15.9911 2.61199C15.9662 2.76801 15.8927 2.91219 15.781 3.024L13.033 5.778C12.9636 5.84879 12.8806 5.90492 12.789 5.94305C12.6975 5.98118 12.5992 6.00055 12.5 6Z" fill="#202020"/>
<path d="M7.707 8.293C7.51951 8.10545 7.26519 8.00006 7 8H1C0.734805 8.00006 0.480493 8.10545 0.293 8.293C0.105451 8.48049 5.66374e-05 8.73481 0 9V15C5.66374e-05 15.2652 0.105451 15.5195 0.293 15.707C0.480493 15.8946 0.734805 15.9999 1 16H7C7.26519 15.9999 7.51951 15.8946 7.707 15.707C7.89455 15.5195 7.99994 15.2652 8 15V9C7.99994 8.73481 7.89455 8.48049 7.707 8.293ZM7 15H1V9H7V15Z" fill="#202020"/>
</g>
<defs>
<clipPath id="clip0_7199_54911">
<rect width="16" height="16" fill="white"/>
</clipPath>
</defs>
</svg>
