<svg width="16" height="16" viewBox="0 0 16 16" fill="none" xmlns="http://www.w3.org/2000/svg">
<g clip-path="url(#clip0_7199_54878)">
<path fill-rule="evenodd" clip-rule="evenodd" d="M5.5 2H8.5C8.89782 2 9.27936 2.15804 9.56066 2.43934C9.84196 2.72064 10 3.10218 10 3.5V9.08593C9.79111 9.15984 9.59915 9.27981 9.43948 9.43948C9.15809 9.72088 9 10.1025 9 10.5005C9 10.8984 9.15809 11.2801 9.43948 11.5615L10 12.1216V12.5C10 12.8978 9.84196 13.2794 9.56066 13.5607C9.27936 13.842 8.89782 14 8.5 14H5.5C5.10218 14 4.72064 13.842 4.43934 13.5607C4.15804 13.2794 4 12.8978 4 12.5V3.5C4 3.10218 4.15804 2.72064 4.43934 2.43934C4.72064 2.15804 5.10218 2 5.5 2ZM9 6H5V10H9V6ZM5.14645 3.14645C5.05268 3.24021 5 3.36739 5 3.5V5H9V3.5C9 3.36739 8.94732 3.24021 8.85355 3.14645C8.75979 3.05268 8.63261 3 8.5 3H5.5C5.36739 3 5.24021 3.05268 5.14645 3.14645ZM8.85355 12.8536C8.94732 12.7598 9 12.6326 9 12.5V11H5V12.5C5 12.6326 5.05268 12.7598 5.14645 12.8536C5.24021 12.9473 5.36739 13 5.5 13H8.5C8.63261 13 8.75979 12.9473 8.85355 12.8536Z" fill="#202020"/>
<path d="M15.8544 15.1465C15.9483 15.2404 16.001 15.3677 16.001 15.5005C16.001 15.6333 15.9483 15.7606 15.8544 15.8545C15.7605 15.9484 15.6332 16.0011 15.5004 16.0011C15.3676 16.0011 15.2403 15.9484 15.1464 15.8545L13.0004 13.7075L10.8544 15.8545C10.7605 15.9484 10.6332 16.0011 10.5004 16.0011C10.3676 16.0011 10.2403 15.9484 10.1464 15.8545C10.0525 15.7606 9.99976 15.6333 9.99976 15.5005C9.99976 15.3677 10.0525 15.2404 10.1464 15.1465L12.2934 13.0005L10.1464 10.8545C10.0525 10.7606 9.99976 10.6333 9.99976 10.5005C9.99976 10.3677 10.0525 10.2404 10.1464 10.1465C10.2403 10.0526 10.3676 9.99988 10.5004 9.99988C10.6332 9.99988 10.7605 10.0526 10.8544 10.1465L13.0004 12.2935L15.1464 10.1465C15.2403 10.0526 15.3676 9.99988 15.5004 9.99988C15.6332 9.99988 15.7605 10.0526 15.8544 10.1465C15.9483 10.2404 16.001 10.3677 16.001 10.5005C16.001 10.6333 15.9483 10.7606 15.8544 10.8545L13.7074 13.0005L15.8544 15.1465Z" fill="#202020"/>
</g>
<defs>
<clipPath id="clip0_7199_54878">
<rect width="16" height="16" fill="white"/>
</clipPath>
</defs>
</svg>
