<svg width="16" height="16" viewBox="0 0 16 16" fill="none" xmlns="http://www.w3.org/2000/svg">
<path d="M8.5 1H12.5C13.327 1 14 1.673 14 2.5V6.59971C13.6832 6.43777 13.3486 6.30564 13 6.20703V2.5C13 2.224 12.775 2 12.5 2H8.5C8.225 2 8 2.224 8 2.5V7H8.33692C7.81812 7.36534 7.36534 7.81812 7 8.33692V8H2.5C2.225 8 2 8.224 2 8.5V12.5C2 12.775 2.225 13 2.5 13H6.20703C6.30564 13.3486 6.43777 13.6832 6.59971 14H2.5C1.673 14 1 13.327 1 12.5V8.5C1 7.673 1.673 7 2.5 7H7V2.5C7 1.673 7.673 1 8.5 1Z" fill="#202020"/>
<path fill-rule="evenodd" clip-rule="evenodd" d="M11.5 16C13.9853 16 16 13.9853 16 11.5C16 9.01472 13.9853 7 11.5 7C9.01472 7 7 9.01472 7 11.5C7 13.9853 9.01472 16 11.5 16ZM13.3536 10.3536C13.5488 10.1583 13.5488 9.84171 13.3536 9.64645C13.1583 9.45118 12.8417 9.45118 12.6464 9.64645L11.5 10.7929L10.3536 9.64645C10.1583 9.45118 9.84171 9.45118 9.64645 9.64645C9.45118 9.84171 9.45118 10.1583 9.64645 10.3536L10.7929 11.5L9.64645 12.6464C9.45118 12.8417 9.45118 13.1583 9.64645 13.3536C9.84171 13.5488 10.1583 13.5488 10.3536 13.3536L11.5 12.2071L12.6464 13.3536C12.8417 13.5488 13.1583 13.5488 13.3536 13.3536C13.5488 13.1583 13.5488 12.8417 13.3536 12.6464L12.2071 11.5L13.3536 10.3536Z" fill="#C50F1F"/>
</svg>
