<svg width="16" height="16" viewBox="0 0 16 16" fill="none" xmlns="http://www.w3.org/2000/svg">
<path d="M13.75 3H13V2.25C13 1.561 12.439 1 11.75 1H9.25C8.561 1 8 1.561 8 2.25V3H7.25C6.561 3 6 3.561 6 4.25V5H6.75C6.81604 5 6.88027 5.00845 6.94456 5.01691C6.96302 5.01934 6.98149 5.02177 7 5.024V4.25C7 4.112 7.112 4 7.25 4H8.5C8.776 4 9 3.776 9 3.5V2.25C9 2.112 9.112 2 9.25 2H11.75C11.888 2 12 2.112 12 2.25V3.5C12 3.776 12.224 4 12.5 4H13.75C13.888 4 14 4.112 14 4.25V7H13.75C14.212 7 14.642 7.141 15 7.381V4.25C15 3.561 14.439 3 13.75 3Z" fill="#202020"/>
<path d="M10 4.5C10 4.224 10.224 4 10.5 4C10.776 4 11 4.224 11 4.5V5H11.5C11.776 5 12 5.224 12 5.5C12 5.776 11.776 6 11.5 6H11V6.5C11 6.776 10.776 7 10.5 7C10.224 7 10 6.776 10 6.5V6H9.5C9.224 6 9 5.776 9 5.5C9 5.224 9.224 5 9.5 5H10V4.5Z" fill="#202020"/>
<path d="M5 11C5 11.5523 4.55228 12 4 12C3.44772 12 3 11.5523 3 11C3 10.4477 3.44772 10 4 10C4.55228 10 5 10.4477 5 11Z" fill="#202020"/>
<path d="M9 11C9 11.5523 8.55228 12 8 12C7.44772 12 7 11.5523 7 11C7 10.4477 7.44772 10 8 10C8.55228 10 9 10.4477 9 11Z" fill="#202020"/>
<path d="M12 12C12.5523 12 13 11.5523 13 11C13 10.4477 12.5523 10 12 10C11.4477 10 11 10.4477 11 11C11 11.5523 11.4477 12 12 12Z" fill="#202020"/>
<path fill-rule="evenodd" clip-rule="evenodd" d="M8 8H13.75C14.439 8 15 8.561 15 9.25V12.75C15 13.439 14.439 14 13.75 14H2.25C1.561 14 1 13.439 1 12.75V9.25C1 8.561 1.561 8 2.25 8H3V7.25C3 6.561 3.561 6 4.25 6H6.75C7.439 6 8 6.561 8 7.25V8ZM13.75 13C13.888 13 14 12.888 14 12.75V9.25C14 9.112 13.888 9 13.75 9H7.5C7.224 9 7 8.776 7 8.5V7.25C7 7.112 6.888 7 6.75 7H4.25C4.112 7 4 7.112 4 7.25V8.5C4 8.776 3.776 9 3.5 9H2.25C2.112 9 2 9.112 2 9.25V12.75C2 12.888 2.112 13 2.25 13H13.75Z" fill="#202020"/>
</svg>
