<svg width="16" height="16" viewBox="0 0 16 16" fill="none" xmlns="http://www.w3.org/2000/svg">
<path d="M8.5 10H7.5C7.224 10 7 10.224 7 10.5V11H4.5C4.224 11 4 10.776 4 10.5V8H4.5C4.776 8 5 7.776 5 7.5V6.5C5 6.224 4.776 6 4.5 6H2.5C2.224 6 2 6.224 2 6.5V7.5C2 7.776 2.224 8 2.5 8H3V10.5C3 11.327 3.673 12 4.5 12H7V12.5C7 12.776 7.224 13 7.5 13H8.5C8.776 13 9 12.776 9 12.5V10.5C9 10.224 8.776 10 8.5 10Z" fill="#202020"/>
<path d="M6 0H4C3.449 0 3 0.449 3 1V3H1C0.449 3 0 3.449 0 4V6C0 6.551 0.449 7 1 7H6C6.551 7 7 6.551 7 6V1C7 0.449 6.551 0 6 0ZM6 1V3H4V1H6ZM1 4H3V6H1V4ZM4 6V4H6V6H4ZM14 8H9C8.449 8 8 8.449 8 9V14C8 14.551 8.449 15 9 15H11C11.551 15 12 14.551 12 14V12H14C14.551 12 15 11.551 15 11V9C15 8.449 14.551 8 14 8ZM11 9V11H9V9H11ZM9 14V12H11V14H9ZM14 9V11H12V9H14Z" fill="#202020"/>
</svg>
