<svg width="16" height="16" viewBox="0 0 16 16" fill="none" xmlns="http://www.w3.org/2000/svg">
<g clip-path="url(#clip0_7199_55109)">
<path fill-rule="evenodd" clip-rule="evenodd" d="M6.5 2H9.5C9.89782 2 10.2794 2.15804 10.5607 2.43934C10.842 2.72064 11 3.10218 11 3.5V6.02242C10.6566 6.05336 10.3223 6.11587 10 6.20702V6H6V7.00107C5.99998 7.00107 6.00002 7.00107 6 7.00107H5V3.5C5 3.10218 5.15804 2.72064 5.43934 2.43934C5.72064 2.15804 6.10218 2 6.5 2ZM6.14645 3.14645C6.05268 3.24021 6 3.36739 6 3.5V5H10V3.5C10 3.36739 9.94732 3.24021 9.85355 3.14645C9.75979 3.05268 9.63261 3 9.5 3H6.5C6.36739 3 6.24021 3.05268 6.14645 3.14645Z" fill="#202020"/>
<path fill-rule="evenodd" clip-rule="evenodd" d="M11.5 16C13.9853 16 16 13.9853 16 11.5C16 9.01472 13.9853 7 11.5 7C9.01472 7 7 9.01472 7 11.5C7 13.9853 9.01472 16 11.5 16ZM13.3536 10.3536C13.5488 10.1583 13.5488 9.84171 13.3536 9.64645C13.1583 9.45118 12.8417 9.45118 12.6464 9.64645L11.5 10.7929L10.3536 9.64645C10.1583 9.45118 9.84171 9.45118 9.64645 9.64645C9.45118 9.84171 9.45118 10.1583 9.64645 10.3536L10.7929 11.5L9.64645 12.6464C9.45118 12.8417 9.45118 13.1583 9.64645 13.3536C9.84171 13.5488 10.1583 13.5488 10.3536 13.3536L11.5 12.2071L12.6464 13.3536C12.8417 13.5488 13.1583 13.5488 13.3536 13.3536C13.5488 13.1583 13.5488 12.8417 13.3536 12.6464L12.2071 11.5L13.3536 10.3536Z" fill="#C50F1F"/>
<path fill-rule="evenodd" clip-rule="evenodd" d="M6.87662 8.51979C6.32195 9.37852 6 10.4017 6 11.5C6 12.6774 6.36997 13.7684 7 14.6631V15.001C7 15.2662 6.89464 15.5205 6.70711 15.7081C6.51957 15.8956 6.26522 16.001 6 16.001H1C0.734784 16.001 0.48043 15.8956 0.292893 15.7081C0.105357 15.5205 0 15.2662 0 15.001V9.00098C0 8.73576 0.105357 8.48141 0.292893 8.29387C0.48043 8.10633 0.734784 8.00098 1 8.00098H6C6.26522 8.00098 6.51957 8.10633 6.70711 8.29387C6.77462 8.36139 6.83149 8.43757 6.87662 8.51979ZM1.5 15.001C1.40111 15.001 1.30444 14.9717 1.22221 14.9167C1.13999 14.8618 1.0759 14.7837 1.03806 14.6923C1.00022 14.601 0.990315 14.5004 1.00961 14.4034C1.0289 14.3064 1.07652 14.2173 1.14645 14.1474C1.21637 14.0775 1.30546 14.0299 1.40245 14.0106C1.49945 13.9913 1.59998 14.0012 1.69134 14.039C1.7827 14.0769 1.86079 14.141 1.91573 14.2232C1.97068 14.3054 2 14.4021 2 14.501C2 14.6336 1.94732 14.7608 1.85355 14.8545C1.75979 14.9483 1.63261 15.001 1.5 15.001ZM1.5 13.001C1.40111 13.001 1.30444 12.9717 1.22221 12.9167C1.13999 12.8618 1.0759 12.7837 1.03806 12.6923C1.00022 12.601 0.990315 12.5004 1.00961 12.4034C1.0289 12.3064 1.07652 12.2173 1.14645 12.1474C1.21637 12.0775 1.30546 12.0299 1.40245 12.0106C1.49945 11.9913 1.59998 12.0012 1.69134 12.039C1.7827 12.0769 1.86079 12.141 1.91573 12.2232C1.97068 12.3054 2 12.4021 2 12.501C2 12.6336 1.94732 12.7608 1.85355 12.8545C1.75979 12.9483 1.63261 13.001 1.5 13.001ZM3.5 15.001C3.40111 15.001 3.30444 14.9717 3.22221 14.9167C3.13999 14.8618 3.0759 14.7837 3.03806 14.6923C3.00022 14.601 2.99031 14.5004 3.00961 14.4034C3.0289 14.3064 3.07652 14.2173 3.14645 14.1474C3.21637 14.0775 3.30546 14.0299 3.40245 14.0106C3.49945 13.9913 3.59998 14.0012 3.69134 14.039C3.7827 14.0769 3.86079 14.141 3.91573 14.2232C3.97068 14.3054 4 14.4021 4 14.501C4 14.6336 3.94732 14.7608 3.85355 14.8545C3.75979 14.9483 3.63261 15.001 3.5 15.001ZM3.5 13.001C3.40111 13.001 3.30444 12.9717 3.22221 12.9167C3.13999 12.8618 3.0759 12.7837 3.03806 12.6923C3.00022 12.601 2.99031 12.5004 3.00961 12.4034C3.0289 12.3064 3.07652 12.2173 3.14645 12.1474C3.21637 12.0775 3.30546 12.0299 3.40245 12.0106C3.49945 11.9913 3.59998 12.0012 3.69134 12.039C3.7827 12.0769 3.86079 12.141 3.91573 12.2232C3.97068 12.3054 4 12.4021 4 12.501C4 12.6336 3.94732 12.7608 3.85355 12.8545C3.75979 12.9483 3.63261 13.001 3.5 13.001ZM5.5 15.001C5.40111 15.001 5.30444 14.9717 5.22221 14.9167C5.13999 14.8618 5.0759 14.7837 5.03806 14.6923C5.00022 14.601 4.99031 14.5004 5.00961 14.4034C5.0289 14.3064 5.07652 14.2173 5.14645 14.1474C5.21637 14.0775 5.30546 14.0299 5.40245 14.0106C5.49945 13.9913 5.59998 14.0012 5.69134 14.039C5.7827 14.0769 5.86079 14.141 5.91573 14.2232C5.97068 14.3054 6 14.4021 6 14.501C6 14.6336 5.94732 14.7608 5.85355 14.8545C5.75979 14.9483 5.63261 15.001 5.5 15.001ZM5.5 13.001C5.40111 13.001 5.30444 12.9717 5.22221 12.9167C5.13999 12.8618 5.0759 12.7837 5.03806 12.6923C5.00022 12.601 4.99031 12.5004 5.00961 12.4034C5.0289 12.3064 5.07652 12.2173 5.14645 12.1474C5.21637 12.0775 5.30546 12.0299 5.40245 12.0106C5.49945 11.9913 5.59998 12.0012 5.69134 12.039C5.7827 12.0769 5.86079 12.141 5.91573 12.2232C5.97068 12.3054 6 12.4021 6 12.501C6 12.6336 5.94732 12.7608 5.85355 12.8545C5.75979 12.9483 5.63261 13.001 5.5 13.001ZM6 10.501C6 10.6336 5.94732 10.7608 5.85355 10.8545C5.75979 10.9483 5.63261 11.001 5.5 11.001H1.5C1.36739 11.001 1.24021 10.9483 1.14645 10.8545C1.05268 10.7608 1 10.6336 1 10.501V9.50098C1 9.36837 1.05268 9.24119 1.14645 9.14742C1.24021 9.05365 1.36739 9.00098 1.5 9.00098H5.5C5.63261 9.00098 5.75979 9.05365 5.85355 9.14742C5.94732 9.24119 6 9.36837 6 9.50098V10.501Z" fill="#202020"/>
</g>
<defs>
<clipPath id="clip0_7199_55109">
<rect width="16" height="16" fill="white"/>
</clipPath>
</defs>
</svg>
