<svg width="16" height="16" viewBox="0 0 16 16" fill="none" xmlns="http://www.w3.org/2000/svg">
<path d="M4.468 3.32401C4.322 2.93301 3.678 2.93301 3.531 3.32401L0.531999 11.324C0.434999 11.583 0.565999 11.871 0.823999 11.968C1.082 12.067 1.371 11.934 1.468 11.676L2.096 10H5.903L6.531 11.676C6.606 11.876 6.797 12 6.999 12C7.058 12 7.117 11.99 7.175 11.968C7.433 11.871 7.564 11.583 7.467 11.324L4.468 3.32401ZM2.471 9.00001L3.999 4.92401L5.527 9.00001H2.471ZM9.999 11.5C9.999 11.776 9.775 12 9.499 12C9.223 12 8.999 11.776 8.999 11.5C8.999 11.224 9.223 11 9.499 11C9.775 11 9.999 11.224 9.999 11.5ZM11.999 11.5C11.999 11.776 11.775 12 11.499 12C11.223 12 10.999 11.776 10.999 11.5C10.999 11.224 11.223 11 11.499 11C11.775 11 11.999 11.224 11.999 11.5ZM13.999 11.5C13.999 11.776 13.775 12 13.499 12C13.223 12 12.999 11.776 12.999 11.5C12.999 11.224 13.223 11 13.499 11C13.775 11 13.999 11.224 13.999 11.5Z" fill="#202020"/>
<path d="M13.854 5.14576L11.854 3.14576C11.659 2.95076 11.342 2.95076 11.147 3.14576C10.952 3.34076 10.952 3.65776 11.147 3.85276L12.293 4.99876H8.5C8.224 4.99876 8 5.22276 8 5.49876C8 5.77476 8.224 5.99876 8.5 5.99876H12.293L11.147 7.14476C10.952 7.33976 10.952 7.65676 11.147 7.85176C11.245 7.94976 11.373 7.99776 11.501 7.99776C11.629 7.99776 11.757 7.94876 11.855 7.85176L13.855 5.85176C14.05 5.65676 14.05 5.33976 13.855 5.14476L13.854 5.14576Z" fill="#006CBF"/>
</svg>
