<svg width="16" height="16" viewBox="0 0 16 16" fill="none" xmlns="http://www.w3.org/2000/svg">
<path fill-rule="evenodd" clip-rule="evenodd" d="M3 1C1.89543 1 1 1.89543 1 3V13C1 14.1046 1.89543 15 3 15H7.25716C7.00353 14.6929 6.78261 14.3578 6.59971 14H3C2.44772 14 2 13.5523 2 13V3C2 2.44772 2.44772 2 3 2H6V4.5C6 5.32843 6.67157 6 7.5 6H10V6.20703C10.3223 6.11588 10.6566 6.05337 11 6.02242V5.41421C11 5.01639 10.842 4.63486 10.5607 4.35355L7.64645 1.43934C7.36514 1.15804 6.98361 1 6.58579 1H3ZM9.79289 5H7.5C7.22386 5 7 4.77614 7 4.5V2.20711L9.79289 5Z" fill="#202020"/>
<path d="M6.02242 12C6.05337 12.3434 6.11588 12.6777 6.20703 13H3.5C3.22386 13 3 12.7761 3 12.5C3 12.2239 3.22386 12 3.5 12H6.02242Z" fill="#202020"/>
<path d="M6.20703 10C6.11588 10.3223 6.05337 10.6566 6.02242 11H3.5C3.22386 11 3 10.7761 3 10.5C3 10.2239 3.22386 10 3.5 10H6.20703Z" fill="#202020"/>
<path d="M7.25716 8C7.00353 8.30711 6.78261 8.64222 6.59971 9H3.5C3.22386 9 3 8.77614 3 8.5C3 8.22386 3.22386 8 3.5 8L7.25716 8Z" fill="#202020"/>
<path fill-rule="evenodd" clip-rule="evenodd" d="M11.5 16C13.9853 16 16 13.9853 16 11.5C16 9.01472 13.9853 7 11.5 7C9.01472 7 7 9.01472 7 11.5C7 13.9853 9.01472 16 11.5 16ZM11.5 8.50342C10.452 8.50342 9.63568 9.32081 9.64659 10.4577C9.64924 10.7338 9.87524 10.9555 10.1514 10.9529C10.4275 10.9502 10.6492 10.7242 10.6465 10.4481C10.641 9.8691 11.0062 9.50342 11.5 9.50342C11.9723 9.50342 12.3534 9.89531 12.3534 10.4529C12.3534 10.6547 12.2822 10.7679 11.9937 10.9968L11.7157 11.2118C11.2099 11.6161 11 11.9293 10.9999 12.5003C10.9999 12.7764 11.2238 13.0003 11.4999 13.0003C11.7454 13.0003 11.9495 12.8234 11.9919 12.5902L12.0034 12.434C12.0202 12.2863 12.103 12.1804 12.3487 11.9858L12.6257 11.7715C13.1391 11.3606 13.3534 11.0387 13.3534 10.4529C13.3534 9.34921 12.531 8.50342 11.5 8.50342ZM11.4999 13.3803C11.155 13.3803 10.8754 13.6599 10.8754 14.0048C10.8754 14.3497 11.155 14.6293 11.4999 14.6293C11.8448 14.6293 12.1244 14.3497 12.1244 14.0048C12.1244 13.6599 11.8448 13.3803 11.4999 13.3803Z" fill="#006CBF"/>
</svg>
