<svg width="16" height="16" viewBox="0 0 16 16" fill="none" xmlns="http://www.w3.org/2000/svg">
<path d="M4 8H3V12.5C3 13.925 5.149 15 8 15C10.851 15 13 13.925 13 12.5V3.5C13 2.075 10.851 1 8 1C7.61726 1 7.24717 1.01937 6.89324 1.05637C7.09738 1.11401 7.28846 1.21471 7.45289 1.35344C7.65795 1.52643 7.8117 1.75023 7.90007 2.0005C7.93321 2.00017 7.96652 2 8 2C10.441 2 12 2.888 12 3.5C12 4.10158 10.4936 4.96983 8.12394 4.99923L8.56099 5.436C8.69835 5.57503 8.80797 5.73895 8.88399 5.919C8.89273 5.93983 8.90099 5.96083 8.90876 5.98199C9.99369 5.8937 11.0498 5.56709 12 5.021V12.5C12 13.111 10.441 14 8 14C5.558 14 4 13.111 4 12.5V8.54884C3.99894 8.51627 3.99894 8.48369 4 8.45116V8Z" fill="#3487C7"/>
<path d="M2.5 5.00001C2.59902 5.00019 2.69586 4.97096 2.77825 4.91603C2.86064 4.8611 2.92487 4.78295 2.96278 4.69147C3.0007 4.6 3.01061 4.49933 2.99124 4.40222C2.97187 4.30511 2.92411 4.21594 2.854 4.14601L1.708 3.00001H6.5C6.63261 3.00001 6.75979 2.94733 6.85355 2.85356C6.94732 2.75979 7 2.63262 7 2.50001C7 2.3674 6.94732 2.24022 6.85355 2.14645C6.75979 2.05269 6.63261 2.00001 6.5 2.00001H1.708L2.855 0.855008C2.92551 0.785073 2.97361 0.695723 2.99314 0.598349C3.01268 0.500975 3.00277 0.399989 2.96469 0.308267C2.9266 0.216546 2.86207 0.138243 2.77931 0.0833424C2.69655 0.0284419 2.59931 -0.000569089 2.5 8.45845e-06C2.43423 2.23932e-05 2.3691 0.013014 2.30835 0.0382389C2.24761 0.0634637 2.19244 0.100426 2.146 0.147008L0.146 2.14701C0.052531 2.24071 2.8119e-05 2.36766 0 2.50001C5.01638e-05 2.56587 0.0129584 2.63109 0.0380001 2.69201C0.0629008 2.75288 0.0999949 2.80801 0.147 2.85401L2.147 4.85401C2.1934 4.90028 2.24844 4.93697 2.309 4.96201C2.36961 4.98692 2.43447 4.99983 2.5 5.00001Z" fill="#006CBF"/>
<path d="M5.5 4C5.40098 3.99982 5.30414 4.02905 5.22175 4.08398C5.13936 4.13891 5.07513 4.21706 5.03722 4.30854C4.9993 4.40001 4.98939 4.50068 5.00876 4.59779C5.02813 4.6949 5.07589 4.78407 5.146 4.854L6.292 6H1.5C1.36739 6 1.24021 6.05268 1.14645 6.14645C1.05268 6.24022 1 6.36739 1 6.5C1 6.63261 1.05268 6.75979 1.14645 6.85355C1.24021 6.94732 1.36739 7 1.5 7H6.292L5.145 8.145C5.07449 8.21494 5.02639 8.30429 5.00686 8.40166C4.98732 8.49903 4.99723 8.60002 5.03531 8.69174C5.0734 8.78346 5.13793 8.86177 5.22069 8.91667C5.30345 8.97157 5.40069 9.00058 5.5 9C5.56577 8.99999 5.6309 8.987 5.69165 8.96177C5.75239 8.93655 5.80756 8.89958 5.854 8.853L7.854 6.853C7.94747 6.7593 7.99997 6.63235 8 6.5C7.99995 6.43414 7.98704 6.36892 7.962 6.308C7.9371 6.24713 7.9 6.192 7.853 6.146L5.853 4.146C5.8066 4.09973 5.75155 4.06304 5.691 4.038C5.63039 4.01309 5.56553 4.00018 5.5 4Z" fill="#006CBF"/>
</svg>
