<svg width="16" height="16" viewBox="0 0 16 16" fill="none" xmlns="http://www.w3.org/2000/svg">
<g clip-path="url(#clip0_7199_54994)">
<path fill-rule="evenodd" clip-rule="evenodd" d="M3 5.91428L3 12.5C3 13.925 5.149 15 8 15C10.851 15 13 13.925 13 12.5V3.5C13 2.075 10.851 1 8 1C7.62094 1 7.25429 1.019 6.90346 1.05531C7.14975 1.12409 7.37665 1.25536 7.56066 1.43937C7.72045 1.59916 7.84046 1.79128 7.91433 2.00037C7.94277 2.00012 7.97132 2 8 2C10.441 2 12 2.888 12 3.5C12 4.112 10.441 5 8 5C6.17822 5 4.84772 4.50538 4.28992 4.00003H3.913C3.97055 4.16045 3.99999 4.3296 4 4.50003C4.00479 4.87973 3.85878 5.24584 3.594 5.51803C3.45555 5.67047 3.28663 5.79215 3.09817 5.87518C3.06588 5.88941 3.03313 5.90245 3 5.91428ZM4 12.5C4 13.111 5.558 14 8 14C10.441 14 12 13.111 12 12.5V5.021C10.7859 5.71872 9.39905 6.05816 8 6C6.60095 6.05816 5.21405 5.71872 4 5.021V12.5Z" fill="#3487C7"/>
<path d="M0.15 2.85003L2.15 4.85003C2.19512 4.89747 2.24941 4.93524 2.30958 4.96106C2.36974 4.98687 2.43453 5.00018 2.5 5.00018C2.56547 5.00018 2.63026 4.98687 2.69042 4.96106C2.75059 4.93524 2.80488 4.89747 2.85 4.85003C2.89744 4.80491 2.93522 4.75062 2.96103 4.69045C2.98684 4.63028 3.00015 4.5655 3.00015 4.50003C3.00015 4.43456 2.98684 4.36977 2.96103 4.3096C2.93522 4.24944 2.89744 4.19515 2.85 4.15003L1.71 3.00003H6.5C6.63261 3.00003 6.75979 2.94735 6.85355 2.85358C6.94732 2.75981 7 2.63264 7 2.50003C7 2.36742 6.94732 2.24024 6.85355 2.14647C6.75979 2.05271 6.63261 2.00003 6.5 2.00003H1.71L2.85 0.850028C2.89744 0.804911 2.93522 0.750619 2.96103 0.690452C2.98684 0.630285 3.00015 0.565498 3.00015 0.500028C3.00015 0.434558 2.98684 0.369771 2.96103 0.309604C2.93522 0.249437 2.89744 0.195146 2.85 0.150028C2.80488 0.102586 2.75059 0.0648117 2.69042 0.0389999C2.63026 0.0131882 2.56547 -0.00012207 2.5 -0.00012207C2.43453 -0.00012207 2.36974 0.0131882 2.30958 0.0389999C2.24941 0.0648117 2.19512 0.102586 2.15 0.150028L0.15 2.15003C0.102558 2.19515 0.0647836 2.24944 0.0389719 2.3096C0.0131602 2.36977 -0.000149727 2.43456 -0.000149727 2.50003C-0.000149727 2.5655 0.0131602 2.63028 0.0389719 2.69045C0.0647836 2.75062 0.102558 2.80491 0.15 2.85003V2.85003Z" fill="#006CBF"/>
</g>
<defs>
<clipPath id="clip0_7199_54994">
<rect width="16" height="16" fill="white"/>
</clipPath>
</defs>
</svg>
