<svg width="16" height="16" viewBox="0 0 16 16" fill="none" xmlns="http://www.w3.org/2000/svg">
<g clip-path="url(#clip0_7199_55106)">
<path d="M6 8.00123H1C0.735 8.00123 0.48 8.10623 0.293 8.29423C0.105 8.48223 0 8.73623 0 9.00123V15.0012C0 15.2662 0.105 15.5212 0.293 15.7082C0.481 15.8952 0.735 16.0012 1 16.0012H6C6.265 16.0012 6.52 15.8962 6.707 15.7082C6.894 15.5202 7 15.2662 7 15.0012V9.00123C7 8.73623 6.895 8.48123 6.707 8.29423C6.519 8.10623 6.265 8.00123 6 8.00123ZM1.854 14.8542C1.76 14.9482 1.633 15.0002 1.5 15.0002C1.401 15.0002 1.304 14.9712 1.222 14.9162C1.14 14.8612 1.076 14.7832 1.038 14.6922C1 14.6012 0.99 14.5002 1.009 14.4032C1.028 14.3062 1.076 14.2172 1.146 14.1472C1.216 14.0772 1.305 14.0302 1.402 14.0102C1.499 13.9912 1.6 14.0012 1.691 14.0382C1.782 14.0762 1.86 14.1402 1.915 14.2222C1.97 14.3042 1.999 14.4012 1.999 14.5002C1.999 14.6332 1.947 14.7602 1.854 14.8542ZM1.854 12.8542C1.76 12.9482 1.633 13.0002 1.5 13.0002C1.401 13.0002 1.304 12.9712 1.222 12.9162C1.14 12.8612 1.076 12.7832 1.038 12.6922C1 12.6012 0.99 12.5002 1.009 12.4032C1.028 12.3062 1.076 12.2172 1.146 12.1472C1.216 12.0772 1.305 12.0302 1.402 12.0102C1.499 11.9912 1.6 12.0012 1.691 12.0382C1.782 12.0762 1.86 12.1402 1.915 12.2222C1.97 12.3042 1.999 12.4012 1.999 12.5002C1.999 12.6332 1.947 12.7602 1.854 12.8542ZM3.854 14.8542C3.76 14.9482 3.633 15.0002 3.5 15.0002C3.401 15.0002 3.304 14.9712 3.222 14.9162C3.14 14.8612 3.076 14.7832 3.038 14.6922C3 14.6012 2.99 14.5002 3.009 14.4032C3.028 14.3062 3.076 14.2172 3.146 14.1472C3.216 14.0772 3.305 14.0302 3.402 14.0102C3.499 13.9912 3.6 14.0012 3.691 14.0382C3.782 14.0762 3.86 14.1402 3.915 14.2222C3.97 14.3042 3.999 14.4012 3.999 14.5002C3.999 14.6332 3.946 14.7602 3.853 14.8542H3.854ZM3.854 12.8542C3.76 12.9482 3.633 13.0002 3.5 13.0002C3.401 13.0002 3.304 12.9712 3.222 12.9162C3.14 12.8612 3.076 12.7832 3.038 12.6922C3 12.6012 2.99 12.5002 3.009 12.4032C3.028 12.3062 3.076 12.2172 3.146 12.1472C3.216 12.0772 3.305 12.0302 3.402 12.0102C3.499 11.9912 3.6 12.0012 3.691 12.0382C3.782 12.0762 3.86 12.1402 3.915 12.2222C3.97 12.3042 3.999 12.4012 3.999 12.5002C3.999 12.6332 3.946 12.7602 3.853 12.8542H3.854ZM5.854 14.8542C5.76 14.9482 5.633 15.0002 5.5 15.0002C5.401 15.0002 5.304 14.9712 5.222 14.9162C5.14 14.8612 5.076 14.7832 5.038 14.6922C5 14.6012 4.99 14.5002 5.009 14.4032C5.028 14.3062 5.076 14.2172 5.146 14.1472C5.216 14.0772 5.305 14.0302 5.402 14.0102C5.499 13.9912 5.6 14.0012 5.691 14.0382C5.782 14.0762 5.86 14.1402 5.915 14.2222C5.97 14.3042 5.999 14.4012 5.999 14.5002C5.999 14.6332 5.947 14.7602 5.854 14.8542ZM5.854 12.8542C5.76 12.9482 5.633 13.0002 5.5 13.0002C5.401 13.0002 5.304 12.9712 5.222 12.9162C5.14 12.8612 5.076 12.7832 5.038 12.6922C5 12.6012 4.99 12.5002 5.009 12.4032C5.028 12.3062 5.076 12.2172 5.146 12.1472C5.216 12.0772 5.305 12.0302 5.402 12.0102C5.499 11.9912 5.6 12.0012 5.691 12.0382C5.782 12.0762 5.86 12.1402 5.915 12.2222C5.97 12.3042 5.999 12.4012 5.999 12.5002C5.999 12.6332 5.947 12.7602 5.854 12.8542ZM6 10.5002C6 10.6332 5.947 10.7602 5.854 10.8542C5.76 10.9482 5.633 11.0002 5.5 11.0002H1.5C1.367 11.0002 1.24 10.9472 1.146 10.8542C1.052 10.7602 1 10.6332 1 10.5002V9.50023C1 9.36723 1.053 9.24023 1.146 9.14623C1.24 9.05223 1.367 9.00023 1.5 9.00023H5.5C5.633 9.00023 5.76 9.05323 5.854 9.14623C5.948 9.24023 6 9.36723 6 9.50023V10.5002ZM6 3.87723L5.099 2.97623C5.173 2.77723 5.286 2.59223 5.44 2.43923C5.721 2.15823 6.103 2.00023 6.501 2.00023H9.501C9.899 2.00023 10.28 2.15823 10.562 2.43923C10.843 2.72023 11.001 3.10223 11.001 3.50023V8.87823L10.001 7.87823V6.00023H8.123L7.123 5.00023H10.001V3.50023C10.001 3.36723 9.948 3.24023 9.855 3.14623C9.761 3.05223 9.634 3.00023 9.501 3.00023H6.501C6.368 3.00023 6.241 3.05323 6.147 3.14623C6.053 3.24023 6.001 3.36723 6.001 3.50023V3.87823L6 3.87723ZM14.854 14.8522C14.756 14.9502 14.628 14.9982 14.5 14.9982C14.372 14.9992 14.244 14.9502 14.146 14.8532L11 11.7072V12.4992C11 12.8972 10.842 13.2782 10.561 13.5602C10.28 13.8412 9.898 13.9992 9.5 13.9992H8V12.9992H9.5C9.633 12.9992 9.76 12.9462 9.854 12.8532C9.948 12.7592 10 12.6322 10 12.4992V10.9992H8V9.99923H9.292L6 6.70723V7.00023H5V5.70723L1.146 1.85423C0.951 1.65923 0.951 1.34223 1.146 1.14723C1.341 0.952227 1.658 0.952227 1.853 1.14723L14.854 14.1462C15.049 14.3412 15.049 14.6572 14.854 14.8522Z" fill="#202020"/>
</g>
<defs>
<clipPath id="clip0_7199_55106">
<rect width="16" height="16" fill="white"/>
</clipPath>
</defs>
</svg>
