<svg width="16" height="16" viewBox="0 0 16 16" fill="none" xmlns="http://www.w3.org/2000/svg">
<g clip-path="url(#clip0_7199_55114)">
<path fill-rule="evenodd" clip-rule="evenodd" d="M6.5 2H9.5C9.89782 2 10.2794 2.15804 10.5607 2.43934C10.842 2.72064 11 3.10218 11 3.5V6.06442C10.8072 6.11458 10.622 6.19351 10.451 6.29937C10.2818 6.40409 10.13 6.53295 10 6.68112V6H6V7.00098C6.00002 7.00098 5.99998 7.00098 6 7.00098H5V3.5C5 3.10218 5.15804 2.72064 5.43934 2.43934C5.72064 2.15804 6.10218 2 6.5 2ZM6.14645 3.14645C6.05268 3.24021 6 3.36739 6 3.5V5H10V3.5C10 3.36739 9.94732 3.24021 9.85355 3.14645C9.75979 3.05268 9.63261 3 9.5 3H6.5C6.36739 3 6.24021 3.05268 6.14645 3.14645Z" fill="#202020"/>
<path fill-rule="evenodd" clip-rule="evenodd" d="M7 9.00098V12.5349L6.21351 14.1079C5.98115 14.5695 5.93654 15.1033 6.08904 15.5971C6.12926 15.7274 6.18238 15.8522 6.24708 15.97C6.167 15.9904 6.08405 16.001 6 16.001H1C0.734784 16.001 0.48043 15.8956 0.292893 15.7081C0.105357 15.5205 0 15.2662 0 15.001V9.00098C0 8.73576 0.105357 8.48141 0.292893 8.29387C0.48043 8.10633 0.734784 8.00098 1 8.00098H6C6.26522 8.00098 6.51957 8.10633 6.70711 8.29387C6.89464 8.48141 7 8.73576 7 9.00098ZM1.5 15.001C1.40111 15.001 1.30444 14.9717 1.22221 14.9167C1.13999 14.8618 1.0759 14.7837 1.03806 14.6923C1.00022 14.601 0.990315 14.5004 1.00961 14.4034C1.0289 14.3064 1.07652 14.2173 1.14645 14.1474C1.21637 14.0775 1.30546 14.0299 1.40245 14.0106C1.49945 13.9913 1.59998 14.0012 1.69134 14.039C1.7827 14.0769 1.86079 14.141 1.91573 14.2232C1.97068 14.3054 2 14.4021 2 14.501C2 14.6336 1.94732 14.7608 1.85355 14.8545C1.75979 14.9483 1.63261 15.001 1.5 15.001ZM1.5 13.001C1.40111 13.001 1.30444 12.9717 1.22221 12.9167C1.13999 12.8618 1.0759 12.7837 1.03806 12.6923C1.00022 12.601 0.990315 12.5004 1.00961 12.4034C1.0289 12.3064 1.07652 12.2173 1.14645 12.1474C1.21637 12.0775 1.30546 12.0299 1.40245 12.0106C1.49945 11.9913 1.59998 12.0012 1.69134 12.039C1.7827 12.0769 1.86079 12.141 1.91573 12.2232C1.97068 12.3054 2 12.4021 2 12.501C2 12.6336 1.94732 12.7608 1.85355 12.8545C1.75979 12.9483 1.63261 13.001 1.5 13.001ZM3.5 15.001C3.40111 15.001 3.30444 14.9717 3.22221 14.9167C3.13999 14.8618 3.0759 14.7837 3.03806 14.6923C3.00022 14.601 2.99031 14.5004 3.00961 14.4034C3.0289 14.3064 3.07652 14.2173 3.14645 14.1474C3.21637 14.0775 3.30546 14.0299 3.40245 14.0106C3.49945 13.9913 3.59998 14.0012 3.69134 14.039C3.7827 14.0769 3.86079 14.141 3.91573 14.2232C3.97068 14.3054 4 14.4021 4 14.501C4 14.6336 3.94732 14.7608 3.85355 14.8545C3.75979 14.9483 3.63261 15.001 3.5 15.001ZM3.5 13.001C3.40111 13.001 3.30444 12.9717 3.22221 12.9167C3.13999 12.8618 3.0759 12.7837 3.03806 12.6923C3.00022 12.601 2.99031 12.5004 3.00961 12.4034C3.0289 12.3064 3.07652 12.2173 3.14645 12.1474C3.21637 12.0775 3.30546 12.0299 3.40245 12.0106C3.49945 11.9913 3.59998 12.0012 3.69134 12.039C3.7827 12.0769 3.86079 12.141 3.91573 12.2232C3.97068 12.3054 4 12.4021 4 12.501C4 12.6336 3.94732 12.7608 3.85355 12.8545C3.75979 12.9483 3.63261 13.001 3.5 13.001ZM5.5 15.001C5.40111 15.001 5.30444 14.9717 5.22221 14.9167C5.13999 14.8618 5.0759 14.7837 5.03806 14.6923C5.00022 14.601 4.99031 14.5004 5.00961 14.4034C5.0289 14.3064 5.07652 14.2173 5.14645 14.1474C5.21637 14.0775 5.30546 14.0299 5.40245 14.0106C5.49945 13.9913 5.59998 14.0012 5.69134 14.039C5.7827 14.0769 5.86079 14.141 5.91573 14.2232C5.97068 14.3054 6 14.4021 6 14.501C6 14.6336 5.94732 14.7608 5.85355 14.8545C5.75979 14.9483 5.63261 15.001 5.5 15.001ZM5.5 13.001C5.40111 13.001 5.30444 12.9717 5.22221 12.9167C5.13999 12.8618 5.0759 12.7837 5.03806 12.6923C5.00022 12.601 4.99031 12.5004 5.00961 12.4034C5.0289 12.3064 5.07652 12.2173 5.14645 12.1474C5.21637 12.0775 5.30546 12.0299 5.40245 12.0106C5.49945 11.9913 5.59998 12.0012 5.69134 12.039C5.7827 12.0769 5.86079 12.141 5.91573 12.2232C5.97068 12.3054 6 12.4021 6 12.501C6 12.6336 5.94732 12.7608 5.85355 12.8545C5.75979 12.9483 5.63261 13.001 5.5 13.001ZM6 10.501C6 10.6336 5.94732 10.7608 5.85355 10.8545C5.75979 10.9483 5.63261 11.001 5.5 11.001H1.5C1.36739 11.001 1.24021 10.9483 1.14645 10.8545C1.05268 10.7608 1 10.6336 1 10.501V9.50098C1 9.36837 1.05268 9.24119 1.14645 9.14742C1.24021 9.05365 1.36739 9.00098 1.5 9.00098H5.5C5.63261 9.00098 5.75979 9.05365 5.85355 9.14742C5.94732 9.24119 6 9.36837 6 9.50098V10.501Z" fill="#202020"/>
<path fill-rule="evenodd" clip-rule="evenodd" d="M12.3931 7.55201L15.8931 14.552C15.9694 14.7044 16.0056 14.8738 15.9981 15.044C15.9906 15.2143 15.9397 15.3799 15.8502 15.5249C15.7607 15.67 15.6357 15.7898 15.4869 15.8729C15.3381 15.9561 15.1705 15.9998 15.0001 16H8.00006C7.8292 16.0007 7.66101 15.9576 7.51154 15.8748C7.36207 15.792 7.23631 15.6723 7.14625 15.5271C7.0562 15.3818 7.00486 15.216 6.99712 15.0453C6.98938 14.8746 7.02551 14.7048 7.10206 14.552L10.6021 7.55201C10.6849 7.38534 10.8126 7.24509 10.9708 7.14705C11.129 7.04901 11.3114 6.99707 11.4976 6.99707C11.6837 6.99707 11.8661 7.04901 12.0243 7.14705C12.1825 7.24509 12.3102 7.38534 12.3931 7.55201ZM12 12.495V9.495C12 9.36239 11.9473 9.23521 11.8536 9.14144C11.7598 9.04767 11.6326 8.995 11.5 8.995C11.3674 8.995 11.2402 9.04767 11.1464 9.14144C11.0527 9.23521 11 9.36239 11 9.495V12.495C11 12.6276 11.0527 12.7548 11.1464 12.8485C11.2402 12.9423 11.3674 12.995 11.5 12.995C11.6326 12.995 11.7598 12.9423 11.8536 12.8485C11.9473 12.7548 12 12.6276 12 12.495ZM11.2222 14.0843C11.3044 14.0293 11.4011 14 11.5 14C11.6326 14 11.7598 14.0527 11.8536 14.1464C11.9473 14.2402 12 14.3674 12 14.5C12 14.5989 11.9707 14.6956 11.9157 14.7778C11.8608 14.86 11.7827 14.9241 11.6913 14.9619C11.6 14.9998 11.4994 15.0097 11.4025 14.9904C11.3055 14.9711 11.2164 14.9235 11.1464 14.8535C11.0765 14.7836 11.0289 14.6945 11.0096 14.5975C10.9903 14.5006 11.0002 14.4 11.0381 14.3087C11.0759 14.2173 11.14 14.1392 11.2222 14.0843Z" fill="#B27C00"/>
</g>
<defs>
<clipPath id="clip0_7199_55114">
<rect width="16" height="16" fill="white"/>
</clipPath>
</defs>
</svg>
