<svg width="16" height="16" viewBox="0 0 16 16" fill="none" xmlns="http://www.w3.org/2000/svg">
<path d="M5.354 1.64723C5.159 1.45223 4.842 1.45223 4.647 1.64723C4.452 1.84223 4.452 2.15923 4.647 2.35423L5.293 3.00023H3.25C2.918 3.00023 2.601 3.13223 2.366 3.36623C2.132 3.60023 2 3.91823 2 4.25023V5.50023C2 5.77623 2.224 6.00023 2.5 6.00023C2.776 6.00023 3 5.77623 3 5.50023V4.25023C3 4.18423 3.026 4.12023 3.073 4.07323C3.12 4.02623 3.183 4.00023 3.25 4.00023H5.293L4.647 4.64623C4.452 4.84123 4.452 5.15823 4.647 5.35323C4.842 5.54823 5.159 5.54823 5.354 5.35323L6.854 3.85323C7.049 3.65823 7.049 3.34123 6.854 3.14623L5.354 1.64723Z" fill="#006CBF"/>
<path d="M13.9998 10.5C13.9998 10.224 13.7758 10 13.4998 10C13.2238 10 12.9998 10.224 12.9998 10.5V11.75C12.9998 11.816 12.9738 11.88 12.9268 11.927C12.8798 11.974 12.8168 12 12.7498 12H10.7068L11.3528 11.354C11.5478 11.159 11.5478 10.842 11.3528 10.647C11.1578 10.452 10.8408 10.452 10.6458 10.647L9.14576 12.147C8.95076 12.342 8.95076 12.659 9.14576 12.854L10.6458 14.354C10.8408 14.549 11.1578 14.549 11.3528 14.354C11.5478 14.159 11.5478 13.842 11.3528 13.647L10.7068 13.001H12.7498C13.0818 13.001 13.3988 12.869 13.6338 12.635C13.8678 12.401 13.9998 12.083 13.9998 11.751V10.5Z" fill="#006CBF"/>
<path d="M14.707 3L13 1.293C12.814 1.106 12.556 1 12.293 1H10.25C9.561 1 9 1.561 9 2.25V7.75C9 8.439 9.561 9 10.25 9H13.75C14.439 9 15 8.439 15 7.75V3.707C15 3.44 14.896 3.188 14.707 3ZM14 7.75C14 7.888 13.888 8 13.75 8H10.25C10.112 8 10 7.888 10 7.75V2.25C10 2.112 10.112 2 10.25 2H12V3.5C12 3.776 12.224 4 12.5 4H14V7.75ZM6.707 9L5 7.293C4.814 7.106 4.556 7 4.293 7H2.25C1.561 7 1 7.561 1 8.25V13.75C1 14.439 1.561 15 2.25 15H5.75C6.439 15 7 14.439 7 13.75V9.707C7 9.44 6.896 9.188 6.707 9ZM6 13.75C6 13.888 5.888 14 5.75 14H2.25C2.112 14 2 13.888 2 13.75V8.25C2 8.112 2.112 8 2.25 8H4V9.5C4 9.776 4.224 10 4.5 10H6V13.75Z" fill="#202020"/>
</svg>
