<svg width="16" height="16" viewBox="0 0 16 16" fill="none" xmlns="http://www.w3.org/2000/svg">
<path fill-rule="evenodd" clip-rule="evenodd" d="M3 2.99902C3 1.89445 3.89543 0.999023 5 0.999023H8.58579C8.98361 0.999023 9.36514 1.15706 9.64645 1.43836L12.5607 4.35258C12.842 4.63388 13 5.01541 13 5.41324V12.999C13 14.1036 12.1046 14.999 11 14.999H8V13.999H11C11.5523 13.999 12 13.5513 12 12.999V5.99902H9.5C8.67157 5.99902 8 5.32745 8 4.49902V1.99902H5C4.44772 1.99902 4 2.44674 4 2.99902V8.26733C3.40259 8.61359 3 9.26008 3 9.99902V2.99902ZM9.5 4.99902H11.7929L9 2.20613V4.49902C9 4.77517 9.22386 4.99902 9.5 4.99902Z" fill="#202020"/>
<path d="M3 12.999H1C0.448 12.999 0 13.447 0 13.999V14.999C0 15.551 0.448 15.999 1 15.999H3V12.999Z" fill="#202020"/>
<path d="M7 14.999C7 15.551 6.552 15.999 6 15.999H4V12.999H7V14.999Z" fill="#202020"/>
<path d="M5 8.99902H6C6.552 8.99902 7 9.44702 7 9.99902V11.999H4V9.99902C4 9.44702 4.448 8.99902 5 8.99902Z" fill="#202020"/>
</svg>
