<svg width="16" height="16" viewBox="0 0 16 16" fill="none" xmlns="http://www.w3.org/2000/svg">
<path d="M11.5 14C11.775 14 12 13.776 12 13.5V9.121L13 8.121V13.5C13 14.327 12.327 15 11.5 15H4.5C3.673 15 3 14.327 3 13.5V11.121L4 12.121V13.5C4 13.776 4.225 14 4.5 14H11.5Z" fill="#202020"/>
<path d="M4.5 1H11.5C12.327 1 13 1.673 13 2.5V4.879L12 3.879V2.5C12 2.224 11.775 2 11.5 2H4.5C4.225 2 4 2.224 4 2.5V6.879L3 7.879V2.5C3 1.673 3.673 1 4.5 1Z" fill="#202020"/>
<path d="M8.50027 9.99976C8.77627 9.99976 9.00027 9.77576 9.00027 9.49976L8.99927 9.49876C8.99927 9.22276 8.77527 8.99876 8.49927 8.99876H4.70627L5.85227 7.85276C6.04727 7.65776 6.04727 7.34076 5.85227 7.14576C5.65727 6.95076 5.34027 6.95076 5.14527 7.14576L3.14527 9.14576C2.95027 9.34076 2.95027 9.65776 3.14527 9.85276L5.14527 11.8528C5.24327 11.9498 5.37127 11.9988 5.49927 11.9988C5.62727 11.9988 5.75527 11.9508 5.85327 11.8528C6.04827 11.6578 6.04827 11.3408 5.85327 11.1458L4.70727 9.99976H8.50027Z" fill="#202020"/>
<path d="M10.8543 4.14576L12.8543 6.14576L12.8553 6.14476C13.0503 6.33976 13.0503 6.65676 12.8553 6.85176L10.8553 8.85176C10.7573 8.94876 10.6293 8.99776 10.5013 8.99776C10.3733 8.99776 10.2453 8.94976 10.1473 8.85176C9.95227 8.65676 9.95227 8.33976 10.1473 8.14476L11.2933 6.99876H7.50027C7.22427 6.99876 7.00027 6.77476 7.00027 6.49876C7.00027 6.22276 7.22427 5.99876 7.50027 5.99876H11.2933L10.1473 4.85276C9.95227 4.65776 9.95227 4.34076 10.1473 4.14576C10.3423 3.95076 10.6593 3.95076 10.8543 4.14576Z" fill="#202020"/>
</svg>
