<svg width="16" height="16" viewBox="0 0 16 16" fill="none" xmlns="http://www.w3.org/2000/svg">
<path d="M11.5 15H4.5C3.673 15 3 14.327 3 13.5V2.5C3 1.673 3.673 1 4.5 1H11.5C12.327 1 13 1.673 13 2.5V13.5C13 14.327 12.327 15 11.5 15ZM4.5 2C4.225 2 4 2.224 4 2.5V13.5C4 13.776 4.225 14 4.5 14H11.5C11.775 14 12 13.776 12 13.5V2.5C12 2.224 11.775 2 11.5 2H4.5ZM11 5C11 4.448 10.553 4 10 4H6C5.447 4 5 4.448 5 5C5 5.552 5.447 6 6 6H10C10.553 6 11 5.552 11 5ZM11 9C11 8.448 10.553 8 10 8H6C5.447 8 5 8.448 5 9C5 9.552 5.447 10 6 10H10C10.553 10 11 9.552 11 9Z" fill="#202020"/>
</svg>
