<svg width="16" height="16" viewBox="0 0 16 16" fill="none" xmlns="http://www.w3.org/2000/svg">
<path d="M11.5 1H4.5C3.673 1 3 1.673 3 2.5V5.381C3.02519 5.35245 3.0481 5.32248 3.071 5.29252C3.10264 5.25111 3.13429 5.20971 3.172 5.172C3.421 4.923 3.704 4.726 4 4.554V2.501C4 2.225 4.225 2.001 4.5 2.001H11.5C11.775 2.001 12 2.225 12 2.501V4.756C12.312 4.805 12.601 4.945 12.828 5.173C12.8657 5.21071 12.8974 5.25211 12.929 5.29351C12.9519 5.32348 12.9748 5.35345 13 5.382V2.501C13 1.674 12.327 1 11.5 1Z" fill="#202020"/>
<path d="M12 11.447V13.5C12 13.776 11.775 14 11.5 14H4.5C4.225 14 4 13.776 4 13.5V11.245C3.688 11.196 3.399 11.056 3.172 10.828C3.13429 10.7903 3.10265 10.7489 3.071 10.7075C3.0481 10.6775 3.02519 10.6476 3 10.619V13.5C3 14.327 3.673 15 4.5 15H11.5C12.327 15 13 14.327 13 13.5V10.619C12.9748 10.6476 12.9519 10.6775 12.929 10.7075C12.8974 10.7489 12.8657 10.7903 12.828 10.828C12.579 11.077 12.296 11.275 12 11.447Z" fill="#202020"/>
<path d="M3.99998 8C3.99998 7.466 4.20798 6.964 4.58598 6.586C4.96398 6.208 5.46598 6 5.99998 6H8.79298L8.14698 6.646C7.95198 6.841 7.95198 7.158 8.14698 7.353C8.24498 7.451 8.37298 7.499 8.50098 7.499C8.62898 7.499 8.75698 7.45 8.85498 7.353L10.354 5.854C10.4 5.808 10.437 5.752 10.463 5.691C10.514 5.569 10.514 5.431 10.463 5.309C10.438 5.247 10.401 5.192 10.354 5.146L8.85498 3.647C8.65998 3.452 8.34298 3.452 8.14798 3.647C7.95298 3.842 7.95298 4.159 8.14798 4.354L8.79398 5H6.00098C5.19898 5 4.44598 5.312 3.87998 5.879C3.31398 6.446 3.00098 7.199 3.00098 8C3.00098 8.801 3.31298 9.554 3.87998 10.121C3.97798 10.219 4.10598 10.267 4.23398 10.267C4.36198 10.267 4.48998 10.218 4.58798 10.121C4.78298 9.926 4.78298 9.609 4.58798 9.414C4.20998 9.036 4.00198 8.534 4.00198 8H3.99998Z" fill="#202020"/>
<path d="M11.414 5.879C11.609 5.684 11.926 5.684 12.121 5.879C12.688 6.446 13.001 7.199 13.001 8C13.001 8.801 12.688 9.554 12.122 10.121C11.556 10.688 10.803 11 10.001 11H7.20801L7.85401 11.646C8.04901 11.841 8.04901 12.158 7.85401 12.353C7.75601 12.45 7.62801 12.499 7.50001 12.499C7.37201 12.499 7.24401 12.451 7.14601 12.353L5.64701 10.854C5.60001 10.808 5.56301 10.753 5.53801 10.691C5.48701 10.569 5.48701 10.431 5.53801 10.309C5.56401 10.248 5.60101 10.192 5.64701 10.146L7.14601 8.647C7.34101 8.452 7.65801 8.452 7.85301 8.647C8.04801 8.842 8.04801 9.159 7.85301 9.354L7.20701 10H10C10.534 10 11.036 9.792 11.414 9.414C11.792 9.036 12 8.534 12 8C12 7.466 11.792 6.964 11.414 6.586C11.219 6.391 11.219 6.074 11.414 5.879Z" fill="#202020"/>
</svg>
