<svg width="16" height="16" viewBox="0 0 16 16" fill="none" xmlns="http://www.w3.org/2000/svg">
<path d="M8 15C5.771 15 2 14.579 2 13C1.99972 12.9605 2.00442 12.9212 2.014 12.883L2.061 12.683C2.06946 12.6485 2.08152 12.615 2.097 12.583L7.55 1.28298C7.59568 1.20409 7.66131 1.13859 7.74029 1.09306C7.81927 1.04753 7.90883 1.02356 8 1.02356C8.09117 1.02356 8.18073 1.04753 8.25971 1.09306C8.33869 1.13859 8.40432 1.20409 8.45 1.28298L13.903 12.583C13.9185 12.615 13.9305 12.6485 13.939 12.683L13.986 12.883C13.9956 12.9212 14.0003 12.9605 14 13C14 14.579 10.229 15 8 15ZM3.01 13.019C3.207 13.36 5.035 14 8 14C10.94 14 12.763 13.371 12.988 13.009L12.979 12.971L8 2.65098L3.01 13.019Z" fill="#3487C7"/>
</svg>
