<svg width="16" height="16" viewBox="0 0 16 16" fill="none" xmlns="http://www.w3.org/2000/svg">
<path d="M13 14H2C0.897 14 0 13.103 0 12V3C0 1.897 0.897 1 2 1H13C14.103 1 15 1.897 15 3V12C15 13.103 14.103 14 13 14ZM2 2C1.448 2 1 2.449 1 3V12C1 12.551 1.448 13 2 13H13C13.552 13 14 12.551 14 12V3C14 2.449 13.552 2 13 2H2ZM8 11.5V3.5C8 3.224 7.776 3 7.5 3C7.224 3 7 3.224 7 3.5V11.5C7 11.776 7.224 12 7.5 12C7.776 12 8 11.776 8 11.5ZM4.354 5.646C4.159 5.451 3.842 5.451 3.647 5.646C3.452 5.841 3.452 6.158 3.647 6.353L4.293 6.999H2.5C2.224 6.999 2 7.223 2 7.499C2 7.775 2.224 7.999 2.5 7.999H4.293L3.647 8.645C3.452 8.84 3.452 9.157 3.647 9.352C3.745 9.45 3.873 9.498 4.001 9.498C4.129 9.498 4.257 9.449 4.355 9.352L5.855 7.852C6.05 7.657 6.05 7.34 5.855 7.145L4.355 5.645L4.354 5.646ZM12.5 7H10.707L11.353 6.354C11.548 6.159 11.548 5.842 11.353 5.647C11.158 5.452 10.841 5.452 10.646 5.647L9.146 7.147C8.951 7.342 8.951 7.659 9.146 7.854L10.646 9.354C10.744 9.452 10.872 9.5 11 9.5C11.128 9.5 11.256 9.451 11.354 9.354C11.549 9.159 11.549 8.842 11.354 8.647L10.708 8.001H12.501C12.777 8.001 13.001 7.777 13.001 7.501C13.001 7.225 12.777 7.001 12.501 7.001L12.5 7Z" fill="#202020"/>
</svg>
