<svg width="16" height="16" viewBox="0 0 16 16" fill="none" xmlns="http://www.w3.org/2000/svg">
<path d="M1 5.5C1 4.119 2.119 3 3.5 3H12.5C13.881 3 15 4.119 15 5.5V10.5C15 11.881 13.881 13 12.5 13H3.5C2.119 13 1 11.881 1 10.5V5.5ZM3.5 4C2.672 4 2 4.672 2 5.5V10.5C2 11.328 2.672 12 3.5 12H12.5C13.328 12 14 11.328 14 10.5V5.5C14 4.672 13.328 4 12.5 4H3.5Z" fill="#202020"/>
<path d="M7.50001 10.0002C7.37201 10.0002 7.24401 9.95123 7.14601 9.85423L5.14601 7.85423C4.95101 7.65923 4.95101 7.34223 5.14601 7.14723C5.34101 6.95223 5.65801 6.95223 5.85301 7.14723L7.49901 8.79323L10.645 5.64723C10.84 5.45223 11.157 5.45223 11.352 5.64723C11.547 5.84223 11.547 6.15923 11.352 6.35423L7.85201 9.85423C7.75401 9.95223 7.62601 10.0002 7.49801 10.0002H7.50001Z" fill="#11910D"/>
</svg>
