<svg width="16" height="16" viewBox="0 0 16 16" fill="none" xmlns="http://www.w3.org/2000/svg">
<g clip-path="url(#clip0_7199_55159)">
<path d="M11.5 5H8.5C8.36739 5 8.24021 4.94732 8.14645 4.85355C8.05268 4.75979 8 4.63261 8 4.5C8 4.36739 8.05268 4.24021 8.14645 4.14645C8.24021 4.05268 8.36739 4 8.5 4H11.5C11.6326 4 11.7598 4.05268 11.8536 4.14645C11.9473 4.24021 12 4.36739 12 4.5C12 4.63261 11.9473 4.75979 11.8536 4.85355C11.7598 4.94732 11.6326 5 11.5 5Z" fill="#202020"/>
<path d="M8.54584 11H11.5C11.6326 11 11.7598 10.9473 11.8536 10.8536C11.9473 10.7598 12 10.6326 12 10.5C12 10.3674 11.9473 10.2402 11.8536 10.1464C11.7598 10.0527 11.6326 10 11.5 10H8.5C8.36739 10 8.24021 10.0527 8.14645 10.1464C8.06308 10.2298 8.0122 10.3396 8.00193 10.4561L8.54584 11Z" fill="#202020"/>
<path d="M10.5153 13C10.4374 12.897 10.3528 12.8021 10.2629 12.717L9.54584 12H11.5C11.6326 12 11.7598 12.0527 11.8536 12.1464C11.9473 12.2402 12 12.3674 12 12.5C12 12.6326 11.9473 12.7598 11.8536 12.8536C11.7598 12.9473 11.6326 13 11.5 13H10.5153Z" fill="#202020"/>
<path d="M10.9706 14H12C12.2652 14 12.5196 13.8946 12.7071 13.7071C12.8946 13.5196 13 13.2652 13 13V3C13 2.73478 12.8946 2.48043 12.7071 2.29289C12.5196 2.10536 12.2652 2 12 2H8C7.73478 2 7.48043 2.10536 7.29289 2.29289C7.10536 2.48043 7 2.73478 7 3V6.64054C6.7132 6.2932 6.37524 5.99081 6 5.74378V3C6 2.46957 6.21071 1.96086 6.58579 1.58579C6.96086 1.21071 7.46957 1 8 1H12C12.5304 1 13.0391 1.21071 13.4142 1.58579C13.7893 1.96086 14 2.46957 14 3V13C14 13.5304 13.7893 14.0391 13.4142 14.4142C13.0391 14.7893 12.5304 15 12 15H10.9772C11.0103 14.8316 11.0259 14.6599 11.0239 14.486C11.0219 14.3214 11.0041 14.1591 10.9706 14Z" fill="#202020"/>
<path d="M2.75809 6.334C2.76709 6.265 2.79409 6.2 2.83709 6.145C2.88009 6.09 2.93609 6.048 3.00009 6.023C3.03509 6.009 3.07109 6.001 3.10809 5.997C3.70209 5.927 4.30509 6.011 4.85809 6.239C5.41109 6.467 5.89709 6.832 6.27009 7.3C6.64309 7.768 6.89009 8.323 6.98809 8.914C7.08609 9.505 7.03309 10.11 6.83209 10.673L9.55809 13.399C9.70409 13.538 9.82009 13.704 9.90009 13.889C9.98009 14.073 10.0231 14.272 10.0251 14.473C10.0271 14.674 9.99009 14.874 9.91409 15.06C9.83809 15.246 9.72609 15.416 9.58409 15.558C9.44209 15.7 9.27309 15.813 9.08609 15.888C8.90009 15.964 8.70009 16.002 8.49909 15.999C8.29809 15.997 8.09909 15.954 7.91509 15.874C7.73109 15.794 7.56409 15.677 7.42509 15.532L4.69909 12.806C4.13509 13.007 3.53009 13.061 2.94009 12.962C2.35009 12.864 1.79409 12.616 1.32609 12.244C0.858086 11.871 0.493086 11.385 0.265086 10.832C0.037086 10.279 -0.045914 9.677 0.023086 9.082C0.035086 9.001 0.070086 8.926 0.124086 8.865C0.178086 8.804 0.248086 8.76 0.326086 8.737C0.404086 8.715 0.487086 8.716 0.565086 8.74C0.643086 8.764 0.712086 8.81 0.765086 8.872L1.74009 9.847C2.02509 10.118 2.40509 10.268 2.79809 10.263C3.19209 10.258 3.56809 10.1 3.84609 9.821C4.12409 9.543 4.28309 9.167 4.28809 8.773C4.29309 8.379 4.14409 8 3.87209 7.715L2.89709 6.74C2.82509 6.669 2.77709 6.579 2.75909 6.48C2.75109 6.432 2.75009 6.383 2.75709 6.335L2.75809 6.334Z" fill="#202020"/>
</g>
<defs>
<clipPath id="clip0_7199_55159">
<rect width="16" height="16" fill="white"/>
</clipPath>
</defs>
</svg>
