<svg width="16" height="16" viewBox="0 0 16 16" fill="none" xmlns="http://www.w3.org/2000/svg">
<path d="M5 6C5 4.34315 6.34315 3 8 3C9.65685 3 11 4.34315 11 6C11 6.27614 11.2239 6.5 11.5 6.5H11.75C12.0112 6.5 12.262 6.54451 12.4953 6.62637C12.5015 6.62556 12.5078 6.62477 12.514 6.624C12.636 6.61 12.758 6.602 12.88 6.602C13.142 6.602 13.402 6.637 13.653 6.704L13.9757 6.38173C13.4441 5.8819 12.7441 5.55907 11.97 5.50733C11.7272 3.53063 10.0423 2 8 2C5.95767 2 4.27283 3.53062 4.03004 5.50733C2.33769 5.62043 1 7.029 1 8.75C1 10.5449 2.45507 12 4.25 12H6.72694C6.83978 11.6372 7.02117 11.2966 7.26024 11H4.25C3.00736 11 2 9.99264 2 8.75C2 7.50736 3.00736 6.5 4.25 6.5H4.5C4.77614 6.5 5 6.27614 5 6Z" fill="#3487C7"/>
<path d="M15.98 7.00002C15.98 7.13302 15.927 7.26002 15.833 7.35402L14.651 8.53702C14.634 8.55002 14.617 8.56202 14.598 8.57202C14.826 8.95402 14.92 9.40102 14.866 9.84202C14.812 10.283 14.612 10.694 14.298 11.009L13.698 11.609C13.514 11.793 13.264 11.896 13.004 11.896C12.744 11.896 12.495 11.793 12.311 11.609L10.869 10.17C10.685 9.98602 10.582 9.73702 10.582 9.47702C10.582 9.21702 10.685 8.96802 10.869 8.78402L11.469 8.18402C11.784 7.87002 12.195 7.67002 12.636 7.61602C13.077 7.56202 13.523 7.65602 13.905 7.88402C13.916 7.86603 13.927 7.84802 13.94 7.83102L15.126 6.64502C15.22 6.55202 15.347 6.49902 15.48 6.49902C15.613 6.49902 15.74 6.55202 15.834 6.64602C15.928 6.74002 15.98 6.86702 15.98 7.00002Z" fill="#159195"/>
<path d="M9.84301 10.663C9.96201 10.712 10.07 10.784 10.161 10.875L11.604 12.312C11.788 12.496 11.891 12.745 11.891 13.006C11.891 13.267 11.788 13.516 11.604 13.7L11.004 14.3C10.689 14.614 10.278 14.814 9.83701 14.868C9.39601 14.922 8.95001 14.828 8.56801 14.6C8.55701 14.618 8.54501 14.636 8.53201 14.653L7.34701 15.839C7.25201 15.93 7.12601 15.98 6.99501 15.979C6.86401 15.978 6.73901 15.926 6.64601 15.833C6.55401 15.741 6.50101 15.615 6.50001 15.484C6.49901 15.353 6.54901 15.226 6.64001 15.132L7.82201 13.947C7.83901 13.934 7.85701 13.922 7.87501 13.912C7.64701 13.53 7.55301 13.083 7.60701 12.642C7.66101 12.201 7.86101 11.79 8.17501 11.475L8.77501 10.875C8.86601 10.784 8.97401 10.712 9.09301 10.663C9.21201 10.613 9.33901 10.588 9.46801 10.588C9.59701 10.588 9.72401 10.614 9.84301 10.663Z" fill="#159195"/>
</svg>
