<svg width="16" height="16" viewBox="0 0 16 16" fill="none" xmlns="http://www.w3.org/2000/svg">
<g clip-path="url(#clip0_7199_55259)">
<path d="M8 3C8.27614 3 8.5 3.22386 8.5 3.5V6H9.5C9.77614 6 10 6.22386 10 6.5V8H11.5C11.7761 8 12 8.22386 12 8.5V9.5H14.379L13.3797 10.5H12.6213L11.5615 9.43948C11.4016 9.27956 11.2093 9.15947 11 9.08559V9H9.5C9.22386 9 9 8.77614 9 8.5V7H7V8.5C7 8.77614 6.77614 9 6.5 9H5V11H9.08559C9.15947 11.2093 9.27956 11.4016 9.43948 11.5615L9.8783 12H4.5C4.22386 12 4 11.7761 4 11.5V10.5H1.5C1.22386 10.5 1 10.2761 1 10C1 9.72386 1.22386 9.5 1.5 9.5H4V8.5C4 8.22386 4.22386 8 4.5 8H6V6.5C6 6.22386 6.22386 6 6.5 6H7.5V3.5C7.5 3.22386 7.72386 3 8 3Z" fill="#202020"/>
<path d="M15.8544 15.1465C15.9483 15.2404 16.001 15.3677 16.001 15.5005C16.001 15.6333 15.9483 15.7606 15.8544 15.8545C15.7605 15.9484 15.6332 16.0011 15.5004 16.0011C15.3676 16.0011 15.2403 15.9484 15.1464 15.8545L13.0004 13.7075L10.8544 15.8545C10.7605 15.9484 10.6332 16.0011 10.5004 16.0011C10.3676 16.0011 10.2403 15.9484 10.1464 15.8545C10.0525 15.7606 9.99976 15.6333 9.99976 15.5005C9.99976 15.3677 10.0525 15.2404 10.1464 15.1465L12.2934 13.0005L10.1464 10.8545C10.0525 10.7606 9.99976 10.6333 9.99976 10.5005C9.99976 10.3677 10.0525 10.2404 10.1464 10.1465C10.2403 10.0526 10.3676 9.99988 10.5004 9.99988C10.6332 9.99988 10.7605 10.0526 10.8544 10.1465L13.0004 12.2935L15.1464 10.1465C15.2403 10.0526 15.3676 9.99988 15.5004 9.99988C15.6332 9.99988 15.7605 10.0526 15.8544 10.1465C15.9483 10.2404 16.001 10.3677 16.001 10.5005C16.001 10.6333 15.9483 10.7606 15.8544 10.8545L13.7074 13.0005L15.8544 15.1465Z" fill="#202020"/>
</g>
<defs>
<clipPath id="clip0_7199_55259">
<rect width="16" height="16" fill="white"/>
</clipPath>
</defs>
</svg>
