<svg width="16" height="16" viewBox="0 0 16 16" fill="none" xmlns="http://www.w3.org/2000/svg">
<g clip-path="url(#clip0_7199_55233)">
<path fill-rule="evenodd" clip-rule="evenodd" d="M2.17102 9.42821C2.81179 12.0524 5.17845 14 8 14C11.3137 14 14 11.3137 14 8C14 5.17891 12.053 2.81256 9.4295 2.17134L9.27604 2.325C9.37604 2.695 9.40404 3.083 9.35704 3.466C9.33039 3.6825 9.27971 3.89499 9.20702 4.09946C9.24255 4.16849 9.27777 4.24123 9.31258 4.31781C9.4073 4.52619 9.49448 4.75446 9.57265 5H8.69968C8.63845 5.07497 8.57351 5.14709 8.50504 5.216L7.90304 5.818C7.83691 5.88396 7.76697 5.9447 7.69374 6H9.82134C9.93562 6.6108 10 7.28604 10 8C10 8.71396 9.93562 9.3892 9.82134 10H6.17866C6.06438 9.3892 6 8.71396 6 8C6 7.89295 6.00145 7.78676 6.00429 7.68154C5.94604 7.76028 5.88155 7.83531 5.81104 7.906L5.21004 8.507C5.14861 8.5683 5.08461 8.62675 5.01829 8.68222C5.04289 9.13796 5.09191 9.57941 5.16299 10H3.41604C3.32862 9.7999 3.25391 9.59298 3.19294 9.38025C3.15964 9.3814 3.12634 9.382 3.09304 9.382C2.83104 9.382 2.57004 9.347 2.31904 9.28L2.17102 9.42821ZM5.77705 12.096C5.62614 11.764 5.49428 11.3962 5.38411 11H3.99963C4.52341 11.6973 5.22525 12.2532 6.03766 12.6002C5.94287 12.4388 5.85596 12.2696 5.77705 12.096ZM9.31258 11.6822C9.4073 11.4738 9.49448 11.2455 9.57265 11H6.42735C6.50552 11.2455 6.5927 11.4738 6.68742 11.6822C7.12457 12.6439 7.62628 13 8 13C8.37372 13 8.87543 12.6439 9.31258 11.6822ZM12.0004 11H10.6159C10.5057 11.3962 10.3739 11.764 10.2229 12.096C10.144 12.2696 10.0571 12.4388 9.96234 12.6002C10.7747 12.2532 11.4766 11.6973 12.0004 11ZM10.837 10H12.584C12.8516 9.38754 13 8.7111 13 8C13 7.28889 12.8516 6.61246 12.584 6H10.837C10.9431 6.6275 11 7.30146 11 8C11 8.69854 10.9431 9.3725 10.837 10ZM12.0004 5C11.4766 4.30269 10.7747 3.74677 9.96234 3.39978C10.0571 3.56117 10.144 3.7304 10.2229 3.90401C10.3739 4.23601 10.5057 4.6038 10.6159 5H12.0004Z" fill="#006CBF"/>
<path d="M9.47997 0.500023C9.47997 0.633023 9.42697 0.760023 9.33297 0.854023L8.15097 2.03702C8.13397 2.05002 8.11697 2.06202 8.09797 2.07202C8.32597 2.45402 8.41997 2.90102 8.36597 3.34202C8.31197 3.78302 8.11197 4.19402 7.79797 4.50902L7.19797 5.10902C7.01397 5.29302 6.76397 5.39602 6.50397 5.39602C6.24397 5.39602 5.99497 5.29302 5.81097 5.10902L4.36897 3.67002C4.18497 3.48602 4.08197 3.23702 4.08197 2.97702C4.08197 2.71702 4.18497 2.46802 4.36897 2.28402L4.96897 1.68402C5.28397 1.37002 5.69497 1.17002 6.13597 1.11602C6.57697 1.06202 7.02297 1.15602 7.40497 1.38402C7.41597 1.36603 7.42697 1.34802 7.43997 1.33102L8.62597 0.145023C8.71997 0.0520234 8.84697 -0.000976562 8.97997 -0.000976562C9.11297 -0.000976562 9.23997 0.0520235 9.33397 0.146023C9.42797 0.240023 9.47997 0.367023 9.47997 0.500023Z" fill="#159195"/>
<path d="M3.34301 4.16301C3.46201 4.21201 3.57001 4.28401 3.66101 4.37501L5.10401 5.81201C5.28801 5.99601 5.39101 6.24501 5.39101 6.50601C5.39101 6.76701 5.28801 7.01601 5.10401 7.20001L4.50401 7.80001C4.18901 8.11401 3.77801 8.31401 3.33701 8.36801C2.89601 8.42201 2.45001 8.32801 2.06801 8.10001C2.05701 8.11801 2.04501 8.13601 2.03201 8.15301L0.847015 9.33901C0.752015 9.43001 0.626015 9.48001 0.495015 9.47901C0.364015 9.47801 0.239015 9.42601 0.146015 9.33301C0.0540147 9.24101 0.00101472 9.11501 1.47153e-05 8.98401C-0.000985285 8.85301 0.0490147 8.72601 0.140015 8.63201L1.32201 7.44701C1.33901 7.43401 1.35701 7.42201 1.37501 7.41201C1.14701 7.03001 1.05301 6.58301 1.10701 6.14201C1.16101 5.70101 1.36101 5.29001 1.67501 4.97501L2.27501 4.37501C2.36601 4.28401 2.47401 4.21201 2.59301 4.16301C2.71201 4.11301 2.83901 4.08801 2.96801 4.08801C3.09701 4.08801 3.22401 4.11401 3.34301 4.16301Z" fill="#159195"/>
</g>
<defs>
<clipPath id="clip0_7199_55233">
<rect width="16" height="16" fill="white"/>
</clipPath>
</defs>
</svg>
