<svg width="16" height="16" viewBox="0 0 16 16" fill="none" xmlns="http://www.w3.org/2000/svg">
<path d="M2.73223 2.73223C3.20107 2.26339 3.83696 2 4.5 2H11.5C12.163 2 12.7989 2.26339 13.2678 2.73223C13.7366 3.20107 14 3.83696 14 4.5V7H13V4.5C13 4.10218 12.842 3.72064 12.5607 3.43934C12.2794 3.15804 11.8978 3 11.5 3H4.5C4.10218 3 3.72064 3.15804 3.43934 3.43934C3.15804 3.72064 3 4.10218 3 4.5V11.5C3 11.8978 3.15804 12.2794 3.43934 12.5607C3.72064 12.842 4.10218 13 4.5 13H7V14H4.5C3.83696 14 3.20107 13.7366 2.73223 13.2678C2.26339 12.7989 2 12.163 2 11.5V4.5C2 3.83696 2.26339 3.20107 2.73223 2.73223Z" fill="#202020"/>
<path d="M5.14645 6.14645C5.05268 6.24021 5 6.36739 5 6.5C5 6.63261 5.05268 6.75979 5.14645 6.85355C5.24021 6.94732 5.36739 7 5.5 7H10.5C10.6326 7 10.7598 6.94732 10.8536 6.85355C10.9473 6.75979 11 6.63261 11 6.5C11 6.36739 10.9473 6.24021 10.8536 6.14645C10.7598 6.05268 10.6326 6 10.5 6H5.5C5.36739 6 5.24021 6.05268 5.14645 6.14645Z" fill="#006CBF"/>
<path d="M7.17071 9C7.06015 9.31278 7 9.64936 7 10H5.5C5.36739 10 5.24021 9.94732 5.14645 9.85355C5.05268 9.75979 5 9.63261 5 9.5C5 9.36739 5.05268 9.24021 5.14645 9.14645C5.24021 9.05268 5.36739 9 5.5 9H7.17071Z" fill="#006CBF"/>
<path fill-rule="evenodd" clip-rule="evenodd" d="M10 8C8.89543 8 8 8.89543 8 10V14C8 15.1046 8.89543 16 10 16H14C15.1046 16 16 15.1046 16 14V10C16 8.89543 15.1046 8 14 8H10ZM10 10.5C10 10.2239 10.2239 10 10.5 10H13.5C13.7761 10 14 10.2239 14 10.5V13.5C14 13.7761 13.7761 14 13.5 14C13.2239 14 13 13.7761 13 13.5V11.7071L10.8536 13.8536C10.6583 14.0488 10.3417 14.0488 10.1464 13.8536C9.95118 13.6583 9.95118 13.3417 10.1464 13.1465L12.2929 11H10.5C10.2239 11 10 10.7761 10 10.5Z" fill="#202020"/>
</svg>
