<svg width="16" height="16" viewBox="0 0 16 16" fill="none" xmlns="http://www.w3.org/2000/svg">
<path fill-rule="evenodd" clip-rule="evenodd" d="M6.5 1C5.11929 1 4 2.11929 4 3.5V7H5V5H15V10.5C15 11.3284 14.3284 12 13.5 12H6.57932L7.20694 13H13.5C14.8807 13 16 11.8807 16 10.5V3.5C16 2.11929 14.8807 1 13.5 1H6.5ZM15 4H5V3.5C5 2.67157 5.67157 2 6.5 2H13.5C14.3284 2 15 2.67157 15 3.5V4Z" fill="#202020"/>
<path d="M6.14645 9.85355C6.14652 9.85363 6.14637 9.85348 6.14645 9.85355C6.34171 10.0488 6.65829 10.0488 6.85355 9.85355L8.35355 8.35355C8.54882 8.15829 8.54882 7.84171 8.35355 7.64645L6.85355 6.14645C6.65829 5.95118 6.34171 5.95118 6.14645 6.14645C5.95118 6.34171 5.95118 6.65829 6.14645 6.85355L7.29289 8L6.98746 8.30543C6.99575 8.36914 7.00002 8.43408 7.00002 8.5C7.00002 9.09599 6.65098 9.612 6.14645 9.85355Z" fill="#202020"/>
<path d="M9.5 9C9.22386 9 9 9.22386 9 9.5C9 9.77614 9.22386 10 9.5 10H13.5C13.7761 10 14 9.77614 14 9.5C14 9.22386 13.7761 9 13.5 9H9.5Z" fill="#202020"/>
<path d="M0.11 14.41C0.12 14.36 0.14 14.32 0.17 14.28L0.973 13H6.027L6.83 14.28C6.86 14.32 6.88 14.36 6.89 14.41C6.96 14.55 7 14.71 7 14.88C7 15.47 6.55 15.95 5.98 15.99C5.95 16 5.91 16 5.88 16H1.12C1.09 16 1.05 16 1.02 15.99C0.45 15.95 0 15.47 0 14.88C0 14.71 0.0399997 14.55 0.11 14.41Z" fill="#159195"/>
<path d="M5.5 9H5V11.2C5 11.3 5.03 11.4 5.08 11.49L5.4 12H1.6L1.92 11.49C1.97 11.4 2 11.3 2 11.2V9H1.5C1.224 9 1 8.776 1 8.5C1 8.224 1.224 8 1.5 8H5.5C5.776 8 6 8.224 6 8.5C6 8.776 5.776 9 5.5 9Z" fill="#202020"/>
</svg>
