<svg width="16" height="16" viewBox="0 0 16 16" fill="none" xmlns="http://www.w3.org/2000/svg">
<g clip-path="url(#clip0_7199_55355)">
<path d="M2.73223 2.73223C3.20107 2.26339 3.83696 2 4.5 2H11.5C12.163 2 12.7989 2.26339 13.2678 2.73223C13.7366 3.20107 14 3.83696 14 4.5V8.25606C13.6816 8.14352 13.3467 8.06579 13 8.02746V4.5C13 4.10218 12.842 3.72064 12.5607 3.43934C12.2794 3.15804 11.8978 3 11.5 3H4.5C4.10218 3 3.72064 3.15804 3.43934 3.43934C3.15804 3.72064 3 4.10218 3 4.5V11.5C3 11.8978 3.15804 12.2794 3.43934 12.5607C3.72064 12.842 4.10218 13 4.5 13H8.02746C8.06579 13.3467 8.14352 13.6816 8.25606 14H4.5C3.83696 14 3.20107 13.7366 2.73223 13.2678C2.26339 12.7989 2 12.163 2 11.5V4.5C2 3.83696 2.26339 3.20107 2.73223 2.73223Z" fill="#202020"/>
<path d="M5.14645 6.14645C5.05268 6.24021 5 6.36739 5 6.5C5 6.63261 5.05268 6.75979 5.14645 6.85355C5.24021 6.94732 5.36739 7 5.5 7H10.5C10.6326 7 10.7598 6.94732 10.8536 6.85355C10.9473 6.75979 11 6.63261 11 6.5C11 6.36739 10.9473 6.24021 10.8536 6.14645C10.7598 6.05268 10.6326 6 10.5 6H5.5C5.36739 6 5.24021 6.05268 5.14645 6.14645Z" fill="#006CBF"/>
<path d="M9.67133 9H5.5C5.36739 9 5.24021 9.05268 5.14645 9.14645C5.05268 9.24021 5 9.36739 5 9.5C5 9.63261 5.05268 9.75979 5.14645 9.85355C5.24021 9.94732 5.36739 10 5.5 10H8.75777C9.01056 9.62236 9.31899 9.28512 9.67133 9Z" fill="#006CBF"/>
<path fill-rule="evenodd" clip-rule="evenodd" d="M12.5 16C14.433 16 16 14.433 16 12.5C16 10.567 14.433 9 12.5 9C10.567 9 9 10.567 9 12.5C9 14.433 10.567 16 12.5 16ZM15 12.5C15 13.8807 13.8807 15 12.5 15C11.9905 15 11.5165 14.8476 11.1213 14.5858L14.5858 11.1213C14.8476 11.5165 15 11.9905 15 12.5ZM10.4142 13.8787L13.8787 10.4142C13.4835 10.1524 13.0095 10 12.5 10C11.1193 10 10 11.1193 10 12.5C10 13.0095 10.1524 13.4835 10.4142 13.8787Z" fill="#202020"/>
</g>
<defs>
<clipPath id="clip0_7199_55355">
<rect width="16" height="16" fill="white"/>
</clipPath>
</defs>
</svg>
