<svg width="16" height="16" viewBox="0 0 16 16" fill="none" xmlns="http://www.w3.org/2000/svg">
<path d="M5 9.5V10.5C5 10.776 5.224 11 5.5 11C5.776 11 6 10.776 6 10.5V9.5C6 9.224 5.776 9 5.5 9C5.224 9 5 9.224 5 9.5Z" fill="#202020"/>
<path d="M10 9.5C10 9.224 10.224 9 10.5 9C10.776 9 11 9.224 11 9.5V10.5C11 10.776 10.776 11 10.5 11C10.224 11 10 10.776 10 10.5V9.5Z" fill="#202020"/>
<path d="M7 7.5C7 7.224 7.224 7 7.5 7H8.5C8.776 7 9 7.224 9 7.5C9 7.776 8.776 8 8.5 8H7.5C7.224 8 7 7.776 7 7.5Z" fill="#202020"/>
<path d="M7 12.5C7 12.224 7.224 12 7.5 12H8.5C8.776 12 9 12.224 9 12.5C9 12.776 8.776 13 8.5 13H7.5C7.224 13 7 12.776 7 12.5Z" fill="#202020"/>
<path d="M5 8C5 7.449 5.449 7 6 7C6.276 7 6.5 7.224 6.5 7.5C6.5 7.776 6.276 8 6 8C6 8.276 5.776 8.5 5.5 8.5C5.224 8.5 5 8.276 5 8Z" fill="#202020"/>
<path d="M5.5 11.5C5.776 11.5 6 11.724 6 12C6.276 12 6.5 12.224 6.5 12.5C6.5 12.776 6.276 13 6 13C5.449 13 5 12.551 5 12C5 11.724 5.224 11.5 5.5 11.5Z" fill="#202020"/>
<path d="M10 12C10 11.724 10.224 11.5 10.5 11.5C10.776 11.5 11 11.724 11 12C11 12.551 10.551 13 10 13C9.724 13 9.5 12.776 9.5 12.5C9.5 12.224 9.724 12 10 12Z" fill="#202020"/>
<path d="M10.5 8.5C10.224 8.5 10 8.276 10 8C9.724 8 9.5 7.776 9.5 7.5C9.5 7.224 9.724 7 10 7C10.551 7 11 7.449 11 8C11 8.276 10.776 8.5 10.5 8.5Z" fill="#202020"/>
<path fill-rule="evenodd" clip-rule="evenodd" d="M3 3C3 1.895 3.895 1 5 1H8.586C8.984 1 9.366 1.158 9.647 1.439L12.561 4.353C12.842 4.635 13 5.016 13 5.414V13C13 14.105 12.105 15 11 15H5C3.895 15 3 14.105 3 13V3ZM5 2C4.448 2 4 2.448 4 3V13C4 13.552 4.448 14 5 14H11C11.552 14 12 13.552 12 13V6H9.5C8.672 6 8 5.328 8 4.5V2H5ZM9.5 5H11.793L9 2.207V4.5C9 4.776 9.224 5 9.5 5Z" fill="#202020"/>
</svg>
