<svg width="16" height="16" viewBox="0 0 16 16" fill="none" xmlns="http://www.w3.org/2000/svg">
<path d="M5.75 14H2.25C1.561 14 1 13.439 1 12.75V10.25C1 9.561 1.561 9 2.25 9H5.75C6.439 9 7 9.561 7 10.25V12.75C7 13.439 6.439 14 5.75 14ZM2.25 10C2.112 10 2 10.112 2 10.25V12.75C2 12.888 2.112 13 2.25 13H5.75C5.888 13 6 12.888 6 12.75V10.25C6 10.112 5.888 10 5.75 10H2.25ZM13.75 14H10.25C9.561 14 9 13.439 9 12.75V10.25C9 9.561 9.561 9 10.25 9H13.75C14.439 9 15 9.561 15 10.25V12.75C15 13.439 14.439 14 13.75 14ZM10.25 10C10.112 10 10 10.112 10 10.25V12.75C10 12.888 10.112 13 10.25 13H13.75C13.888 13 14 12.888 14 12.75V10.25C14 10.112 13.888 10 13.75 10H10.25ZM13.75 7H10.25C9.561 7 9 6.439 9 5.75V3.25C9 2.561 9.561 2 10.25 2H13.75C14.439 2 15 2.561 15 3.25V5.75C15 6.439 14.439 7 13.75 7ZM10.25 3C10.112 3 10 3.112 10 3.25V5.75C10 5.888 10.112 6 10.25 6H13.75C13.888 6 14 5.888 14 5.75V3.25C14 3.112 13.888 3 13.75 3H10.25Z" fill="#202020"/>
</svg>
