<svg width="16" height="16" viewBox="0 0 16 16" fill="none" xmlns="http://www.w3.org/2000/svg">
<path d="M6 12H13C14.103 12 15 11.103 15 10V6C15 4.897 14.103 4 13 4H4C2.897 4 2 4.897 2 6V10H3V6C3 5.448 3.448 5 4 5H13C13.552 5 14 5.448 14 6V10C14 10.552 13.552 11 13 11H6V12Z" fill="#202020"/>
<path d="M6.5 2C6.224 2 6 2.224 6 2.5C6 2.776 6.224 3 6.5 3H10.5C10.776 3 11 2.776 11 2.5C11 2.224 10.776 2 10.5 2H9V1.5C9 1.224 8.776 1 8.5 1C8.224 1 8 1.224 8 1.5V2H6.5Z" fill="#006CBF"/>
<path d="M6 13.5C6 13.224 6.224 13 6.5 13H10.5C10.776 13 11 13.224 11 13.5C11 13.776 10.776 14 10.5 14H9V14.5C9 14.776 8.776 15 8.5 15C8.224 15 8 14.776 8 14.5V14H6.5C6.224 14 6 13.776 6 13.5Z" fill="#006CBF"/>
<path d="M4.5 12H0.5C0.224 12 0 11.776 0 11.5C0 11.224 0.224 11 0.5 11H4.5C4.776 11 5 11.224 5 11.5C5 11.776 4.776 12 4.5 12ZM5 14.5C5 14.224 4.776 14 4.5 14H0.5C0.224 14 0 14.224 0 14.5C0 14.776 0.224 15 0.5 15H4.5C4.776 15 5 14.776 5 14.5Z" fill="#202020"/>
</svg>
