<svg width="16" height="16" viewBox="0 0 16 16" fill="none" xmlns="http://www.w3.org/2000/svg">
<path d="M1 3.5C1 2.119 2.119 1 3.5 1H11.5C12.881 1 14 2.119 14 3.5V11.5C14 12.881 12.881 14 11.5 14H3.5C2.119 14 1 12.881 1 11.5V3.5ZM3.5 2C2.672 2 2 2.672 2 3.5V11.5C2 12.328 2.672 13 3.5 13H11.5C12.328 13 13 12.328 13 11.5V3.5C13 2.672 12.328 2 11.5 2H3.5Z" fill="#202020"/>
<path d="M6 5H5C4.449 5 4 5.449 4 6V7C4 7.551 4.449 8 5 8H6C6.551 8 7 7.551 7 7V6C7 5.449 6.551 5 6 5ZM6 7H5V6H6V7ZM10 5H9C8.449 5 8 5.449 8 6V7C8 7.551 8.449 8 9 8H10C10.551 8 11 7.551 11 7V6C11 5.449 10.551 5 10 5ZM10 7H9V6H10V7ZM6 9H5C4.449 9 4 9.449 4 10V11C4 11.551 4.449 12 5 12H6C6.551 12 7 11.551 7 11V10C7 9.449 6.551 9 6 9ZM6 11H5V10H6V11ZM10 9H9C8.449 9 8 9.449 8 10V11C8 11.551 8.449 12 9 12H10C10.551 12 11 11.551 11 11V10C11 9.449 10.551 9 10 9ZM10 11H9V10H10V11ZM4 3.5C4 3.224 4.224 3 4.5 3H10.5C10.776 3 11 3.224 11 3.5C11 3.776 10.776 4 10.5 4H4.5C4.224 4 4 3.776 4 3.5Z" fill="#202020"/>
</svg>
