<svg width="16" height="16" viewBox="0 0 16 16" fill="none" xmlns="http://www.w3.org/2000/svg">
<g clip-path="url(#clip0_7199_55472)">
<path d="M5.20714 10.5L5.85414 9.85402C5.94803 9.76013 6.00077 9.6328 6.00077 9.50002C6.00077 9.36725 5.94803 9.23991 5.85414 9.14602C5.76026 9.05213 5.63292 8.99939 5.50014 8.99939C5.36737 8.99939 5.24003 9.05213 5.14614 9.14602L4.50014 9.79302L3.85414 9.14602C3.76026 9.05213 3.63292 8.99939 3.50014 8.99939C3.36737 8.99939 3.24003 9.05213 3.14614 9.14602C3.05226 9.23991 2.99951 9.36725 2.99951 9.50002C2.99951 9.6328 3.05226 9.76013 3.14614 9.85402L3.79314 10.5L3.14614 11.146C3.09966 11.1925 3.06278 11.2477 3.03762 11.3084C3.01246 11.3692 2.99951 11.4343 2.99951 11.5C2.99951 11.5658 3.01246 11.6309 3.03762 11.6916C3.06278 11.7523 3.09966 11.8075 3.14614 11.854C3.19263 11.9005 3.24782 11.9374 3.30856 11.9625C3.3693 11.9877 3.4344 12.0007 3.50014 12.0007C3.56589 12.0007 3.63099 11.9877 3.69173 11.9625C3.75247 11.9374 3.80766 11.9005 3.85414 11.854L4.50014 11.207L5.14614 11.854C5.19263 11.9005 5.24782 11.9374 5.30856 11.9625C5.3693 11.9877 5.4344 12.0007 5.50014 12.0007C5.56589 12.0007 5.63099 11.9877 5.69173 11.9625C5.75247 11.9374 5.80766 11.9005 5.85414 11.854C5.90063 11.8075 5.93751 11.7523 5.96267 11.6916C5.98783 11.6309 6.00077 11.5658 6.00077 11.5C6.00077 11.4343 5.98783 11.3692 5.96267 11.3084C5.93751 11.2477 5.90063 11.1925 5.85414 11.146L5.20714 10.5Z" fill="#202020"/>
<path fill-rule="evenodd" clip-rule="evenodd" d="M1.58579 1.58579C1.96086 1.21071 2.46957 1 3 1H6.586C6.98355 1.00008 7.3648 1.15798 7.646 1.439L10.561 4.354C10.842 4.6352 10.9999 5.01645 11 5.414V6.06442C10.8072 6.11458 10.622 6.19351 10.451 6.29937C10.2818 6.40409 10.13 6.53295 10 6.68112V6H7.5C7.10218 6 6.72064 5.84196 6.43934 5.56066C6.15804 5.27936 6 4.89782 6 4.5V2H3C2.73478 2 2.48043 2.10536 2.29289 2.29289C2.10536 2.48043 2 2.73478 2 3V13C2 13.2652 2.10536 13.5196 2.29289 13.7071C2.48043 13.8946 2.73478 14 3 14H6.26744L6.21351 14.1079C6.07295 14.3871 6.0011 14.6928 6.00001 15H3C2.46957 15 1.96086 14.7893 1.58579 14.4142C1.21071 14.0391 1 13.5304 1 13V3C1 2.46957 1.21071 1.96086 1.58579 1.58579ZM7.5 5H9.793L7 2.207V4.5C7 4.63261 7.05268 4.75979 7.14645 4.85355C7.24021 4.94732 7.36739 5 7.5 5Z" fill="#202020"/>
<path fill-rule="evenodd" clip-rule="evenodd" d="M12.3931 7.55201L15.8931 14.552C15.9694 14.7044 16.0056 14.8738 15.9981 15.044C15.9906 15.2143 15.9397 15.3799 15.8502 15.5249C15.7607 15.67 15.6357 15.7898 15.4869 15.8729C15.3381 15.9561 15.1705 15.9998 15.0001 16H8.00006C7.8292 16.0007 7.66101 15.9576 7.51154 15.8748C7.36207 15.792 7.23631 15.6723 7.14625 15.5271C7.0562 15.3818 7.00486 15.216 6.99712 15.0453C6.98938 14.8746 7.02551 14.7048 7.10206 14.552L10.6021 7.55201C10.6849 7.38534 10.8126 7.24509 10.9708 7.14705C11.129 7.04901 11.3114 6.99707 11.4976 6.99707C11.6837 6.99707 11.8661 7.04901 12.0243 7.14705C12.1825 7.24509 12.3102 7.38534 12.3931 7.55201ZM12 12.495V9.495C12 9.36239 11.9473 9.23521 11.8536 9.14144C11.7598 9.04767 11.6326 8.995 11.5 8.995C11.3674 8.995 11.2402 9.04767 11.1464 9.14144C11.0527 9.23521 11 9.36239 11 9.495V12.495C11 12.6276 11.0527 12.7548 11.1464 12.8485C11.2402 12.9423 11.3674 12.995 11.5 12.995C11.6326 12.995 11.7598 12.9423 11.8536 12.8485C11.9473 12.7548 12 12.6276 12 12.495ZM11.2222 14.0843C11.3044 14.0293 11.4011 14 11.5 14C11.6326 14 11.7598 14.0527 11.8536 14.1464C11.9473 14.2402 12 14.3674 12 14.5C12 14.5989 11.9707 14.6956 11.9157 14.7778C11.8608 14.86 11.7827 14.9241 11.6913 14.9619C11.6 14.9998 11.4994 15.0097 11.4025 14.9904C11.3055 14.9711 11.2164 14.9235 11.1464 14.8535C11.0765 14.7836 11.0289 14.6945 11.0096 14.5975C10.9903 14.5006 11.0002 14.4 11.0381 14.3087C11.0759 14.2173 11.14 14.1392 11.2222 14.0843Z" fill="#B27C00"/>
</g>
<defs>
<clipPath id="clip0_7199_55472">
<rect width="16" height="16" fill="white"/>
</clipPath>
</defs>
</svg>
