<svg width="16" height="16" viewBox="0 0 16 16" fill="none" xmlns="http://www.w3.org/2000/svg">
<g clip-path="url(#clip0_7199_55507)">
<path d="M14.809 6L14.107 4.597C14.036 4.454 14 4.301 14 4.142V1H14.5C14.776 1 15 0.776 15 0.5C15 0.224 14.776 0 14.5 0H9.5C9.224 0 9 0.224 9 0.5C9 0.776 9.224 1 9.5 1H10V4.142C10 4.301 9.964 4.454 9.893 4.597L9.191 6L10.093 6.432L10.787 5.044C10.926 4.766 11 4.453 11 4.142V1H13V4.142C13 4.454 13.074 4.766 13.213 5.044L13.92 6.458L14.809 6Z" fill="#202020"/>
<path d="M9.91321 10H14.691C15.413 10 16 9.413 16 8.691C16 8.489 15.952 8.286 15.862 8.105L14.809 6H9.19103L8.19055 8H8.50003C8.75127 8.00017 8.99782 8.06344 9.21732 8.18318L9.80903 6.999H14.191L14.967 8.552C14.988 8.595 15 8.643 15 8.691C15 8.861 14.861 9 14.691 9H9.91321C9.99586 9.23376 10.0195 9.48501 9.98106 9.73123C9.96672 9.82314 9.94394 9.91309 9.91321 10Z" fill="#159195"/>
<path d="M0.148319 4.854L2.14832 6.854C2.19476 6.90056 2.24994 6.93751 2.31069 6.96271C2.37143 6.98792 2.43655 7.00089 2.50232 7.00089C2.56809 7.00089 2.63321 6.98792 2.69395 6.96271C2.7547 6.93751 2.80987 6.90056 2.85632 6.854L4.85632 4.854C4.95021 4.76011 5.00295 4.63278 5.00295 4.5C5.00295 4.36722 4.95021 4.23989 4.85632 4.146C4.76243 4.05211 4.6351 3.99937 4.50232 3.99937C4.36954 3.99937 4.24221 4.05211 4.14832 4.146L3.00232 5.293V2.5C3.00232 2.10218 3.16035 1.72064 3.44166 1.43934C3.72296 1.15804 4.10449 1 4.50232 1H5.50232C5.63493 1 5.7621 0.947322 5.85587 0.853554C5.94964 0.759786 6.00232 0.632608 6.00232 0.5C6.00232 0.367392 5.94964 0.240214 5.85587 0.146446C5.7621 0.052678 5.63493 0 5.50232 0H4.50232C3.83928 0 3.20339 0.263392 2.73455 0.732233C2.26571 1.20107 2.00232 1.83696 2.00232 2.5V5.293L0.856319 4.146C0.762433 4.05211 0.635095 3.99937 0.502319 3.99937C0.369544 3.99937 0.242206 4.05211 0.148319 4.146C0.0544326 4.23989 0.00168753 4.36722 0.00168753 4.5C0.00168753 4.63278 0.0544326 4.76011 0.148319 4.854Z" fill="#006CBF"/>
<path d="M0.5 9C0.223858 9 0 9.22386 0 9.5C0 9.77614 0.223858 10 0.5 10H3.5C3.77614 10 4 9.77614 4 9.5C4 9.22386 3.77614 9 3.5 9H0.5Z" fill="#202020"/>
<path d="M5.5 9C5.22386 9 5 9.22386 5 9.5C5 9.77614 5.22386 10 5.5 10H8.5C8.77614 10 9 9.77614 9 9.5C9 9.22386 8.77614 9 8.5 9H5.5Z" fill="#202020"/>
<path d="M6 11.5C6 11.2239 6.22386 11 6.5 11H8.5C8.77614 11 9 11.2239 9 11.5C9 11.7761 8.77614 12 8.5 12H6.5C6.22386 12 6 11.7761 6 11.5Z" fill="#202020"/>
<path d="M2.5 11C2.22386 11 2 11.2239 2 11.5C2 11.7761 2.22386 12 2.5 12H4.5C4.77614 12 5 11.7761 5 11.5C5 11.2239 4.77614 11 4.5 11H2.5Z" fill="#202020"/>
<path d="M2 13.5C2 13.2239 2.22386 13 2.5 13H6.5C6.77614 13 7 13.2239 7 13.5C7 13.7761 6.77614 14 6.5 14H2.5C2.22386 14 2 13.7761 2 13.5Z" fill="#202020"/>
<path d="M0.5 15C0.223858 15 0 15.2239 0 15.5C0 15.7761 0.223858 16 0.5 16H4.5C4.77614 16 5 15.7761 5 15.5C5 15.2239 4.77614 15 4.5 15H0.5Z" fill="#202020"/>
</g>
<defs>
<clipPath id="clip0_7199_55507">
<rect width="16" height="16" fill="white"/>
</clipPath>
</defs>
</svg>
