<svg width="16" height="16" viewBox="0 0 16 16" fill="none" xmlns="http://www.w3.org/2000/svg">
<path fill-rule="evenodd" clip-rule="evenodd" d="M1 9.5C1 9.224 1.224 9 1.5 9C1.776 9 2 9.224 2 9.5V11.5C2 11.633 2.053 11.76 2.146 11.854C2.24 11.948 2.367 12 2.5 12H5.293L4.147 10.854C3.952 10.659 3.952 10.342 4.147 10.147C4.342 9.952 4.659 9.952 4.854 10.147L6.854 12.147C7.049 12.342 7.049 12.659 6.854 12.854L4.854 14.854C4.659 15.049 4.342 15.049 4.147 14.854C3.952 14.659 3.952 14.342 4.147 14.147L5.293 13.001H2.5C2.102 13.001 1.721 12.843 1.439 12.562C1.158 12.281 1 11.899 1 11.501V9.501V9.5Z" fill="#006CBF"/>
<path d="M14.75 9H12.207L11.353 8.146C11.259 8.052 11.132 8 10.999 8H9.24902C8.56002 8 7.99902 8.561 7.99902 9.25V13.75C7.99902 14.439 8.56002 15 9.24902 15H14.749C15.438 15 15.999 14.439 15.999 13.75V10.25C15.999 9.561 15.438 9 14.749 9H14.75ZM9.25002 9H10.793L11.293 9.5L10.793 10H9.00002V9.25C9.00002 9.112 9.11202 9 9.25002 9ZM15 13.75C15 13.888 14.888 14 14.75 14H9.25002C9.11202 14 9.00002 13.888 9.00002 13.75V11H11C11.133 11 11.26 10.947 11.354 10.854L12.208 10H14.751C14.889 10 15.001 10.112 15.001 10.25V13.75H15Z" fill="#B27C00"/>
<path fill-rule="evenodd" clip-rule="evenodd" d="M1.25 1H6.75C7.439 1 8 1.561 8 2.25V6.75C8 7.439 7.439 8 6.75 8H1.25C0.561 8 0 7.439 0 6.75V2.25C0 1.561 0.561 1 1.25 1ZM6.75 2H1.25C1.112 2 1 2.112 1 2.25V6.75C1 6.888 1.112 7 1.25 7H6.75C6.888 7 7 6.888 7 6.75V2.25C7 2.112 6.888 2 6.75 2Z" fill="#202020"/>
</svg>
