<svg width="16" height="16" viewBox="0 0 16 16" fill="none" xmlns="http://www.w3.org/2000/svg">
<path d="M11.25 12H2.75C1.785 12 1 11.215 1 10.25V6.75C1 5.785 1.785 5 2.75 5H11.25C12.215 5 13 5.785 13 6.75V10.25C13 11.215 12.215 12 11.25 12ZM2.75 6C2.336 6 2 6.336 2 6.75V10.25C2 10.664 2.336 11 2.75 11H11.25C11.664 11 12 10.664 12 10.25V6.75C12 6.336 11.664 6 11.25 6H2.75ZM11.25 3H4.75C4.06 3 3.45 3.41 3.18 4H11.25C12.77 4 14 5.23 14 6.75V9.82C14.59 9.55 15 8.94 15 8.25V6.75C15 4.68 13.32 3 11.25 3ZM10 8.5C10 8.224 9.776 8 9.5 8H4.5C4.224 8 4 8.224 4 8.5C4 8.776 4.224 9 4.5 9H9.5C9.776 9 10 8.776 10 8.5Z" fill="#202020"/>
</svg>
