<svg width="16" height="16" viewBox="0 0 16 16" fill="none" xmlns="http://www.w3.org/2000/svg">
<g clip-path="url(#clip0_7199_55544)">
<path d="M2 4.00003H1V12C1 13.103 1.897 14 3 14H4.5C4.776 14 5 13.776 5 13.5C5 13.224 4.776 13 4.5 13H3C2.449 13 2 12.552 2 12V4.00003Z" fill="#202020"/>
<path fill-rule="evenodd" clip-rule="evenodd" d="M5.557 5.55703L6.97677 4.13726C7.30959 4.04767 7.65354 4.0012 8 4C9.06 4 10.078 4.422 10.828 5.172C11.579 5.922 12 6.939 12 8V8.5C12.002 8.807 11.908 9.108 11.732 9.361L11.733 9.363C11.557 9.616 11.307 9.808 11.018 9.913C10.729 10.018 10.414 10.031 10.117 9.95C9.82 9.869 9.555 9.698 9.359 9.461C9.087 9.716 8.749 9.89 8.383 9.963C8.017 10.036 7.638 10.005 7.289 9.874C6.94 9.743 6.634 9.517 6.407 9.221C6.179 8.925 6.039 8.571 6.002 8.2C5.965 7.829 6.032 7.455 6.197 7.12C6.361 6.785 6.616 6.503 6.933 6.305C7.249 6.108 7.615 6.002 7.988 6.002C8.361 6.001 8.727 6.105 9.044 6.301C9.09 6.196 9.171 6.11 9.273 6.057C9.375 6.004 9.492 5.989 9.604 6.012C9.717 6.036 9.818 6.097 9.89 6.186C9.962 6.275 10.002 6.386 10.002 6.501V8.501C10.002 8.634 10.054 8.761 10.148 8.855C10.242 8.948 10.369 9.001 10.502 9.001C10.635 9.001 10.762 8.949 10.856 8.855C10.949 8.761 11.002 8.634 11.002 8.501V8.001C11 7.367 10.798 6.749 10.424 6.237C10.05 5.724 9.523 5.344 8.919 5.15C8.315 4.956 7.666 4.958 7.063 5.157C6.46 5.356 5.936 5.74 5.566 6.255C5.196 6.771 4.998 7.39 5.002 8.024C5.005 8.658 5.21 9.275 5.586 9.786C5.962 10.297 6.49 10.675 7.095 10.867C7.699 11.059 8.349 11.054 8.951 10.853C9.014 10.831 9.08 10.822 9.146 10.826C9.212 10.83 9.276 10.848 9.336 10.877C9.396 10.906 9.448 10.947 9.492 10.997C9.535 11.047 9.568 11.105 9.589 11.168C9.61 11.231 9.618 11.297 9.613 11.363C9.608 11.429 9.59 11.493 9.56 11.552C9.53 11.611 9.488 11.663 9.438 11.706C9.388 11.749 9.329 11.781 9.266 11.801C8.717 11.982 8.135 12.041 7.561 11.975C6.986 11.909 6.433 11.719 5.939 11.419C5.445 11.118 5.022 10.714 4.699 10.235C4.376 9.755 4.161 9.212 4.068 8.641C3.975 8.07 4.007 7.486 4.162 6.929C4.25267 6.60316 4.38373 6.291 4.55177 5.99974C4.73128 5.99551 4.90858 5.95774 5.07447 5.88822C5.25629 5.81202 5.42052 5.69929 5.557 5.55703ZM8 9C8.265 9 8.519 8.895 8.707 8.707L8.708 8.706C8.896 8.519 9.001 8.264 9.001 7.999C9.001 7.801 8.942 7.607 8.832 7.443C8.722 7.279 8.566 7.151 8.383 7.075C8.2 6.999 7.999 6.979 7.805 7.018C7.611 7.057 7.433 7.152 7.293 7.292C7.153 7.432 7.058 7.61 7.019 7.804C6.981 7.998 7 8.199 7.076 8.382C7.151 8.565 7.28 8.721 7.444 8.831C7.609 8.941 7.802 9 8 9Z" fill="#202020"/>
<path d="M13 14C14.103 14 15 13.103 15 12V4C15 2.897 14.103 2 13 2H11.5C11.224 2 11 2.224 11 2.5C11 2.776 11.224 3 11.5 3H13C13.551 3 14 3.448 14 4V12C14 12.552 13.551 13 13 13H11.5C11.224 13 11 13.224 11 13.5C11 13.776 11.224 14 11.5 14H13Z" fill="#202020"/>
<path d="M6.85 2.85003L4.85 4.85003C4.80488 4.89747 4.75059 4.93524 4.69042 4.96106C4.63026 4.98687 4.56547 5.00018 4.5 5.00018C4.43453 5.00018 4.36974 4.98687 4.30958 4.96106C4.24941 4.93524 4.19512 4.89747 4.15 4.85003C4.10256 4.80491 4.06478 4.75062 4.03897 4.69045C4.01316 4.63028 3.99985 4.5655 3.99985 4.50003C3.99985 4.43456 4.01316 4.36977 4.03897 4.3096C4.06478 4.24944 4.10256 4.19515 4.15 4.15003L5.29 3.00003H0.5C0.367392 3.00003 0.240215 2.94735 0.146447 2.85358C0.0526784 2.75981 0 2.63264 0 2.50003C0 2.36742 0.0526784 2.24024 0.146447 2.14647C0.240215 2.05271 0.367392 2.00003 0.5 2.00003H5.29L4.15 0.850028C4.10256 0.804911 4.06478 0.750619 4.03897 0.690452C4.01316 0.630285 3.99985 0.565498 3.99985 0.500028C3.99985 0.434558 4.01316 0.369771 4.03897 0.309604C4.06478 0.249437 4.10256 0.195146 4.15 0.150028C4.19512 0.102586 4.24941 0.0648117 4.30958 0.0389999C4.36974 0.0131882 4.43453 -0.00012207 4.5 -0.00012207C4.56547 -0.00012207 4.63026 0.0131882 4.69042 0.0389999C4.75059 0.0648117 4.80488 0.102586 4.85 0.150028L6.85 2.15003C6.89744 2.19515 6.93522 2.24944 6.96103 2.3096C6.98684 2.36977 7.00015 2.43456 7.00015 2.50003C7.00015 2.5655 6.98684 2.63028 6.96103 2.69045C6.93522 2.75062 6.89744 2.80491 6.85 2.85003V2.85003Z" fill="#006CBF"/>
</g>
<defs>
<clipPath id="clip0_7199_55544">
<rect width="16" height="16" fill="white"/>
</clipPath>
</defs>
</svg>
