<svg width="16" height="16" viewBox="0 0 16 16" fill="none" xmlns="http://www.w3.org/2000/svg">
<path d="M11.1947 12H13C14.103 12 15 11.103 15 10V6C15 4.897 14.103 4 13 4H4C2.897 4 2 4.897 2 6V10C2 10.0289 2.00062 10.0576 2.00183 10.0862C2.32047 10.1995 2.58979 10.4176 2.768 10.699C2.87002 10.6008 2.98031 10.5113 3.0977 10.4314C3.03508 10.3008 3 10.1545 3 10V6C3 5.448 3.448 5 4 5H13C13.552 5 14 5.448 14 6V10C14 10.552 13.552 11 13 11H10.6987C10.9394 11.2909 11.112 11.6308 11.1947 12Z" fill="#202020"/>
<path d="M6.5 2C6.224 2 6 2.224 6 2.5C6 2.776 6.224 3 6.5 3H10.5C10.776 3 11 2.776 11 2.5C11 2.224 10.776 2 10.5 2H9V1.5C9 1.224 8.776 1 8.5 1C8.224 1 8 1.224 8 1.5V2H6.5Z" fill="#006CBF"/>
<path d="M2 11.5V15.5C2 15.776 1.776 16 1.5 16C1.224 16 1 15.776 1 15.5V12.899C0.841 12.963 0.671 13 0.5 13C0.224 13 0 12.776 0 12.5C0 12.224 0.224 12 0.5 12C0.725 12 1 11.724 1 11.5C1 11.224 1.224 11 1.5 11C1.776 11 2 11.224 2 11.5ZM4.8 14.4C5.335 13.999 6 13.5 6 12.5C6 11.673 5.327 11 4.5 11C3.673 11 3 11.673 3 12.5C3 12.776 3.224 13 3.5 13C3.776 13 4 12.775 4 12.5C4 12.225 4.225 12 4.5 12C4.775 12 5 12.225 5 12.5C5 12.977 4.711 13.217 4.2 13.6C3.665 14.001 3 14.5 3 15.5C3 15.776 3.224 16 3.5 16H5.5C5.776 16 6 15.776 6 15.5C6 15.224 5.776 15 5.5 15H4.146C4.279 14.798 4.502 14.624 4.8 14.4ZM9.795 13.5C10.075 13.234 10.25 12.886 10.25 12.5C10.25 11.673 9.465 11 8.5 11C7.535 11 6.75 11.673 6.75 12.5C6.75 12.776 6.974 13 7.25 13C7.526 13 7.75 12.776 7.75 12.5C7.75 12.233 8.101 12 8.5 12C8.899 12 9.25 12.233 9.25 12.5C9.25 12.767 8.899 13 8.5 13C8.224 13 8 13.224 8 13.5C8 13.776 8.224 14 8.5 14C8.899 14 9.25 14.233 9.25 14.5C9.25 14.767 8.899 15 8.5 15C8.101 15 7.75 14.767 7.75 14.5C7.75 14.224 7.526 14 7.25 14C6.974 14 6.75 14.224 6.75 14.5C6.75 15.327 7.535 16 8.5 16C9.465 16 10.25 15.327 10.25 14.5C10.25 14.114 10.075 13.766 9.795 13.5Z" fill="#202020"/>
</svg>
