<svg width="16" height="16" viewBox="0 0 16 16" fill="none" xmlns="http://www.w3.org/2000/svg">
<path d="M6.5 3H5V1.5C5 1.224 4.776 1 4.5 1C4.224 1 4 1.224 4 1.5V3H2.5C2.224 3 2 3.224 2 3.5C2 3.776 2.224 4 2.5 4H4V5.5C4 5.776 4.224 6 4.5 6C4.776 6 5 5.776 5 5.5V4H6.5C6.776 4 7 3.776 7 3.5C7 3.224 6.776 3 6.5 3Z" fill="#202020"/>
<path d="M6.5 11H5V9.5C5 9.224 4.776 9 4.5 9C4.224 9 4 9.224 4 9.5V11H2.5C2.224 11 2 11.224 2 11.5C2 11.776 2.224 12 2.5 12H4V13.5C4 13.776 4.224 14 4.5 14C4.776 14 5 13.776 5 13.5V12H6.5C6.776 12 7 11.776 7 11.5C7 11.224 6.776 11 6.5 11Z" fill="#202020"/>
<path fill-rule="evenodd" clip-rule="evenodd" d="M10 1H13C13.551 1 14 1.449 14 2V3C14 3.551 13.551 4 13 4H10C9.449 4 9 3.551 9 3V2C9 1.449 9.449 1 10 1ZM10 3H13V2H10V3Z" fill="#202020"/>
<path fill-rule="evenodd" clip-rule="evenodd" d="M13 6H10C9.449 6 9 6.449 9 7V8C9 8.551 9.449 9 10 9H13C13.551 9 14 8.551 14 8V7C14 6.449 13.551 6 13 6ZM13 8H10V7H13V8Z" fill="#202020"/>
<path fill-rule="evenodd" clip-rule="evenodd" d="M10 11H13C13.551 11 14 11.449 14 12V13C14 13.551 13.551 14 13 14H10C9.449 14 9 13.551 9 13V12C9 11.449 9.449 11 10 11ZM10 13H13V12H10V13Z" fill="#202020"/>
</svg>
