<svg width="16" height="16" viewBox="0 0 16 16" fill="none" xmlns="http://www.w3.org/2000/svg">
<path d="M1 3.5C1 2.67157 1.67157 2 2.5 2H6C6.8178 2 7.54389 2.39267 8 2.99976C8.45612 2.39267 9.1822 2 10 2H13.5C14.3284 2 15 2.67157 15 3.5V12.5C15 13.3284 14.3284 14 13.5 14H11.1942C11.1553 13.8278 11.0965 13.6602 11.019 13.5C11.0965 13.3398 11.1553 13.1722 11.1942 13H13.5C13.7761 13 14 12.7761 14 12.5V3.5C14 3.22386 13.7761 3 13.5 3H10C9.17157 3 8.5 3.67157 8.5 4.5V10C8.14733 10 7.81004 10.0604 7.5 10.1706V4.5C7.5 3.67157 6.82843 3 6 3H2.5C2.22386 3 2 3.22386 2 3.5V10.0856C1.84354 10.0302 1.67523 10 1.5 10C1.32471 10 1.15642 10.0302 1 10.0856V3.5Z" fill="#202020"/>
<path d="M2 11.5V15.5C2 15.776 1.776 16 1.5 16C1.224 16 1 15.776 1 15.5V12.899C0.841 12.963 0.671 13 0.5 13C0.224 13 0 12.776 0 12.5C0 12.224 0.224 12 0.5 12C0.725 12 1 11.724 1 11.5C1 11.224 1.224 11 1.5 11C1.776 11 2 11.224 2 11.5ZM4.8 14.4C5.335 13.999 6 13.5 6 12.5C6 11.673 5.327 11 4.5 11C3.673 11 3 11.673 3 12.5C3 12.776 3.224 13 3.5 13C3.776 13 4 12.775 4 12.5C4 12.225 4.225 12 4.5 12C4.775 12 5 12.225 5 12.5C5 12.977 4.711 13.217 4.2 13.6C3.665 14.001 3 14.5 3 15.5C3 15.776 3.224 16 3.5 16H5.5C5.776 16 6 15.776 6 15.5C6 15.224 5.776 15 5.5 15H4.146C4.279 14.798 4.502 14.624 4.8 14.4ZM9.795 13.5C10.075 13.234 10.25 12.886 10.25 12.5C10.25 11.673 9.465 11 8.5 11C7.535 11 6.75 11.673 6.75 12.5C6.75 12.776 6.974 13 7.25 13C7.526 13 7.75 12.776 7.75 12.5C7.75 12.233 8.101 12 8.5 12C8.899 12 9.25 12.233 9.25 12.5C9.25 12.767 8.899 13 8.5 13C8.224 13 8 13.224 8 13.5C8 13.776 8.224 14 8.5 14C8.899 14 9.25 14.233 9.25 14.5C9.25 14.767 8.899 15 8.5 15C8.101 15 7.75 14.767 7.75 14.5C7.75 14.224 7.526 14 7.25 14C6.974 14 6.75 14.224 6.75 14.5C6.75 15.327 7.535 16 8.5 16C9.465 16 10.25 15.327 10.25 14.5C10.25 14.114 10.075 13.766 9.795 13.5Z" fill="#202020"/>
</svg>
