<svg width="16" height="16" viewBox="0 0 16 16" fill="none" xmlns="http://www.w3.org/2000/svg">
<path fill-rule="evenodd" clip-rule="evenodd" d="M5.5 2C4.83696 2 4.20107 2.26339 3.73223 2.73223C3.26339 3.20107 3 3.83696 3 4.5V9.031L3.00202 9.031C3.38202 9.031 3.72102 9.174 3.98602 9.401C3.99066 9.39674 3.99532 9.39251 4 9.38831V6H14V11.5C14 11.8978 13.842 12.2794 13.5607 12.5607C13.2794 12.842 12.8978 13 12.5 13H11.5551C12.1712 13.0224 12.6938 13.4182 12.9027 13.9674C13.4165 13.8835 13.8949 13.6406 14.2678 13.2678C14.7366 12.7989 15 12.163 15 11.5V4.5C15 3.83696 14.7366 3.20107 14.2678 2.73223C13.7989 2.26339 13.163 2 12.5 2H5.5ZM14 5H4V4.5C4 4.10218 4.15804 3.72064 4.43934 3.43934C4.72064 3.15804 5.10218 3 5.5 3H12.5C12.8978 3 13.2794 3.15804 13.5607 3.43934C13.842 3.72064 14 4.10218 14 4.5V5Z" fill="#A33FB1"/>
<path d="M11.001 12H12.5C12.7761 12 13 11.7761 13 11.5C13 11.2239 12.7761 11 12.5 11H11.001V12Z" fill="#A33FB1"/>
<path fill-rule="evenodd" clip-rule="evenodd" d="M10.9153 10H12.5C12.7761 10 13 9.77614 13 9.5V7.5C13 7.22386 12.7761 7 12.5 7H9.5C9.22386 7 9 7.22386 9 7.5V9.09071C9.15649 9.03283 9.32439 9 9.50102 9C10.1528 9 10.7089 9.41802 10.9153 10ZM10 8V9H12V8H10Z" fill="#A33FB1"/>
<path d="M5.5 7C5.22386 7 5 7.22386 5 7.5C5 7.77614 5.22386 8 5.5 8H7.5C7.77614 8 8 7.77614 8 7.5C8 7.22386 7.77614 7 7.5 7H5.5Z" fill="#A33FB1"/>
<path d="M8.354 10.146C8.448 10.24 8.5 10.367 8.5 10.5C8.5 10.633 8.447 10.76 8.354 10.854C8.261 10.948 8.133 11 8 11H7V14.499C7 14.632 6.947 14.759 6.854 14.853C6.761 14.947 6.633 14.999 6.5 14.999C6.367 14.999 6.24 14.946 6.146 14.853C6.052 14.76 6 14.632 6 14.499V11H5C4.867 11 4.74 10.947 4.646 10.854C4.552 10.761 4.5 10.633 4.5 10.5C4.5 10.367 4.553 10.24 4.646 10.146C4.74 10.052 4.867 10 5 10H8C8.133 10 8.26 10.053 8.354 10.146Z" fill="#202020"/>
<path fill-rule="evenodd" clip-rule="evenodd" d="M4.96701 14.323L3.46801 10.324C3.32201 9.93301 2.67901 9.93301 2.53201 10.324L1.03301 14.323C0.935009 14.582 1.06601 14.87 1.32501 14.967C1.58201 15.067 1.87201 14.933 1.96901 14.675L2.22201 13.999H3.77901L4.03201 14.675C4.10701 14.875 4.29801 14.999 4.50001 14.999C4.55901 14.999 4.61801 14.989 4.67601 14.967C4.93501 14.87 5.06501 14.582 4.96701 14.323ZM2.59701 12.999L3.00101 11.923L3.40501 12.999H2.59701Z" fill="#202020"/>
<path d="M11.5 14.999C11.776 14.999 12 14.775 12 14.499C12 14.223 11.776 13.999 11.5 13.999H10V10.5C10 10.224 9.776 10 9.5 10C9.224 10 9 10.224 9 10.5V14.499C9 14.775 9.224 14.999 9.5 14.999H11.5Z" fill="#202020"/>
</svg>
