<svg width="16" height="16" viewBox="0 0 16 16" fill="none" xmlns="http://www.w3.org/2000/svg">
<g clip-path="url(#clip0_7199_52444)">
<path d="M7.07063 2.04285C7.02342 2.19039 6.99927 2.3446 6.99927 2.50001C6.99927 2.69707 7.0381 2.89221 7.11354 3.07426C7.18898 3.25631 7.29956 3.42171 7.43895 3.56101L7.9941 4.11616V9H6.99494V3.24941C6.99494 3.11141 6.88311 2.99953 6.74515 2.99953H6.24557C6.10762 2.99953 5.99578 3.11141 5.99578 3.24941V9H5.00102L4.99663 9.00001V3.24941C4.99663 2.55938 5.5558 2 6.24557 2H6.74515C6.85775 2 6.96686 2.0149 7.07063 2.04285Z" fill="#A33FB1"/>
<path d="M3.99747 9.39058V3.24941C3.99747 2.55938 3.4383 2 2.74852 2H2.24895C1.55917 2 1 2.55938 1 3.24941V11.5629L1.59602 9.973C1.68253 9.74416 1.82213 9.54807 1.99916 9.39498V3.24941C1.99916 3.11141 2.11099 2.99953 2.24895 2.99953H2.74852C2.88648 2.99953 2.99831 3.11141 2.99831 3.24941V9.031L3.00202 9.031C3.38202 9.031 3.72102 9.174 3.98602 9.401C3.98982 9.39751 3.99364 9.39404 3.99747 9.39058Z" fill="#A33FB1"/>
<path d="M12.9043 13.9716C13.1224 14.019 13.3556 14.0085 13.581 13.9296L14.1632 13.7258C14.8355 13.4904 15.1752 12.7412 14.9093 12.0802L11.9737 4.78029C11.9363 4.97715 11.8597 5.16551 11.7474 5.33372C11.629 5.511 11.4747 5.66019 11.2956 5.77227L13.9824 12.4532C14.0356 12.5854 13.9676 12.7353 13.8332 12.7823L13.251 12.9862C13.125 13.0303 12.9865 12.9675 12.9367 12.8436L10.1701 5.96396C9.89339 5.90159 9.63979 5.76198 9.43895 5.56101L9.02004 5.14211C8.95765 5.38916 8.96995 5.6578 9.07268 5.91326L10.4507 9.33979C10.7864 9.61512 11.001 10.033 11.001 10.5V10.7083L11.95 13.0679C12.3896 13.2065 12.7426 13.5426 12.9043 13.9716Z" fill="#A33FB1"/>
<path d="M8.354 10.146C8.448 10.24 8.5 10.367 8.5 10.5C8.5 10.633 8.447 10.76 8.354 10.854C8.261 10.948 8.133 11 8 11H7V14.499C7 14.632 6.947 14.759 6.854 14.853C6.761 14.947 6.633 14.999 6.5 14.999C6.367 14.999 6.24 14.946 6.146 14.853C6.052 14.76 6 14.632 6 14.499V11H5C4.867 11 4.74 10.947 4.646 10.854C4.552 10.761 4.5 10.633 4.5 10.5C4.5 10.367 4.553 10.24 4.646 10.146C4.74 10.052 4.867 10 5 10H8C8.133 10 8.26 10.053 8.354 10.146Z" fill="#202020"/>
<path fill-rule="evenodd" clip-rule="evenodd" d="M4.96701 14.323L3.46801 10.324C3.32201 9.93301 2.67901 9.93301 2.53201 10.324L1.03301 14.323C0.935009 14.582 1.06601 14.87 1.32501 14.967C1.58201 15.067 1.87201 14.933 1.96901 14.675L2.22201 13.999H3.77901L4.03201 14.675C4.10701 14.875 4.29801 14.999 4.50001 14.999C4.55901 14.999 4.61801 14.989 4.67601 14.967C4.93501 14.87 5.06501 14.582 4.96701 14.323ZM2.59701 12.999L3.00101 11.923L3.40501 12.999H2.59701Z" fill="#202020"/>
<path d="M11.5 14.999C11.776 14.999 12 14.775 12 14.499C12 14.223 11.776 13.999 11.5 13.999H10V10.5C10 10.224 9.776 10 9.5 10C9.224 10 9 10.224 9 10.5V14.499C9 14.775 9.224 14.999 9.5 14.999H11.5Z" fill="#202020"/>
<path d="M15.854 2.85399L13.854 4.85399C13.7602 4.94788 13.6328 5.00062 13.5 5.00062C13.3673 5.00062 13.2399 4.94788 13.146 4.85399C13.0522 4.7601 12.9994 4.63277 12.9994 4.49999C12.9994 4.36721 13.0522 4.23988 13.146 4.14599L14.293 2.99999H9.70704L10.854 4.14599C10.9479 4.23988 11.0007 4.36721 11.0007 4.49999C11.0007 4.63277 10.9479 4.7601 10.854 4.85399C10.7602 4.94788 10.6328 5.00062 10.5 5.00062C10.3673 5.00062 10.2399 4.94788 10.146 4.85399L8.14604 2.85399C8.09948 2.80754 8.06253 2.75237 8.03733 2.69162C8.01212 2.63088 7.99915 2.56576 7.99915 2.49999C7.99915 2.43422 8.01212 2.3691 8.03733 2.30836C8.06253 2.24761 8.09948 2.19244 8.14604 2.14599L10.146 0.14599C10.2399 0.0521037 10.3673 -0.000640872 10.5 -0.000640869C10.6328 -0.000640866 10.7602 0.0521037 10.854 0.14599C10.9479 0.239877 11.0007 0.367215 11.0007 0.49999C11.0007 0.632766 10.9479 0.760104 10.854 0.853991L9.70704 1.99999H14.293L13.146 0.853991C13.0522 0.760104 12.9994 0.632766 12.9994 0.49999C12.9994 0.367215 13.0522 0.239877 13.146 0.14599C13.2399 0.0521037 13.3673 -0.000640866 13.5 -0.000640869C13.6328 -0.000640873 13.7602 0.0521037 13.854 0.14599L15.854 2.14599C15.9006 2.19244 15.9375 2.24761 15.9628 2.30836C15.988 2.3691 16.0009 2.43422 16.0009 2.49999C16.0009 2.56576 15.988 2.63088 15.9628 2.69162C15.9375 2.75237 15.9006 2.80754 15.854 2.85399Z" fill="#202020"/>
</g>
<defs>
<clipPath id="clip0_7199_52444">
<rect width="16" height="16" fill="white"/>
</clipPath>
</defs>
</svg>
