<svg width="16" height="16" viewBox="0 0 16 16" fill="none" xmlns="http://www.w3.org/2000/svg">
<path fill-rule="evenodd" clip-rule="evenodd" d="M12.4999 9.20715C12.7651 9.20715 13.0194 9.31247 13.2069 9.49994L13.9999 10.2929C14.1874 10.4805 14.2927 10.7348 14.2927 10.9999C14.2927 11.2651 14.1874 11.5194 13.9999 11.7069L12.7069 12.9999C12.5962 13.1106 12.4623 13.1926 12.3165 13.2413C12.0814 13.0881 11.8009 12.999 11.5 12.999H11.292L11.001 12.708V10.5C11.001 10.3248 10.9708 10.1564 10.9153 9.99994H11.2929L11.7929 9.49994C11.9805 9.31247 12.2348 9.20715 12.4999 9.20715ZM11.2069 11.4999L11.9999 12.2929L13.2929 10.9999L12.4999 10.2069L11.2069 11.4999Z" fill="#A33FB1"/>
<path fill-rule="evenodd" clip-rule="evenodd" d="M8.99994 9.09073V5.99994H10.3629C10.2479 6.1876 10.1989 6.40832 10.2238 6.62701C10.2486 6.84571 10.3458 7.04983 10.4999 7.20694L11.2929 7.99994C11.4805 8.18741 11.7348 8.29273 11.9999 8.29273C12.2651 8.29273 12.5194 8.18741 12.7069 7.99994L13.9999 6.70694C14.1874 6.51941 14.2927 6.2651 14.2927 5.99994C14.2927 5.73478 14.1874 5.48047 13.9999 5.29294L13.2069 4.49994C13.0194 4.31247 12.7651 4.20715 12.4999 4.20715C12.2348 4.20715 11.9805 4.31247 11.7929 4.49994L11.2929 4.99994H6.70694L7.49994 4.20694C7.68741 4.01941 7.79273 3.7651 7.79273 3.49994C7.79273 3.23478 7.68741 2.98047 7.49994 2.79294L6.20694 1.49994C6.01941 1.31247 5.7651 1.20715 5.49994 1.20715C5.23478 1.20715 4.98047 1.31247 4.79294 1.49994L1.49994 4.79294C1.31247 4.98047 1.20715 5.23478 1.20715 5.49994C1.20715 5.7651 1.31247 6.01941 1.49994 6.20694L2.79294 7.49994C2.98047 7.68741 3.23478 7.79273 3.49994 7.79273C3.7651 7.79273 4.01941 7.68741 4.20694 7.49994L5.70694 5.99994H7.99994V9H8.00102C8.26902 9 8.52502 9.076 8.75202 9.208C8.83089 9.16217 8.91368 9.12264 8.99994 9.09073ZM2.20694 5.49994L3.49994 6.79294L6.79294 3.49994L5.49994 2.20694L2.20694 5.49994ZM11.9999 7.29294L13.2929 5.99994L12.4999 5.20694L11.2069 6.49994L11.9999 7.29294Z" fill="#A33FB1"/>
<path d="M8.354 10.146C8.448 10.24 8.5 10.367 8.5 10.5C8.5 10.633 8.447 10.76 8.354 10.854C8.261 10.948 8.133 11 8 11H7V14.499C7 14.632 6.947 14.759 6.854 14.853C6.761 14.947 6.633 14.999 6.5 14.999C6.367 14.999 6.24 14.946 6.146 14.853C6.052 14.76 6 14.632 6 14.499V11H5C4.867 11 4.74 10.947 4.646 10.854C4.552 10.761 4.5 10.633 4.5 10.5C4.5 10.367 4.553 10.24 4.646 10.146C4.74 10.052 4.867 10 5 10H8C8.133 10 8.26 10.053 8.354 10.146Z" fill="#202020"/>
<path fill-rule="evenodd" clip-rule="evenodd" d="M4.96701 14.323L3.46801 10.324C3.32201 9.93301 2.67901 9.93301 2.53201 10.324L1.03301 14.323C0.935009 14.582 1.06601 14.87 1.32501 14.967C1.58201 15.067 1.87201 14.933 1.96901 14.675L2.22201 13.999H3.77901L4.03201 14.675C4.10701 14.875 4.29801 14.999 4.50001 14.999C4.55901 14.999 4.61801 14.989 4.67601 14.967C4.93501 14.87 5.06501 14.582 4.96701 14.323ZM2.59701 12.999L3.00101 11.923L3.40501 12.999H2.59701Z" fill="#202020"/>
<path d="M11.5 14.999C11.776 14.999 12 14.775 12 14.499C12 14.223 11.776 13.999 11.5 13.999H10V10.5C10 10.224 9.776 10 9.5 10C9.224 10 9 10.224 9 10.5V14.499C9 14.775 9.224 14.999 9.5 14.999H11.5Z" fill="#202020"/>
</svg>
