<svg width="16" height="16" viewBox="0 0 16 16" fill="none" xmlns="http://www.w3.org/2000/svg">
<path fill-rule="evenodd" clip-rule="evenodd" d="M15 4.414V11C15 11.5304 14.7893 12.0391 14.4142 12.4142C14.0391 12.7893 13.5304 13 13 13H11.7436C11.9972 12.6929 12.218 12.3578 12.4008 12H13C13.2652 12 13.5196 11.8946 13.7071 11.7071C13.8946 11.5196 14 11.2652 14 11V5H12.5C12.1022 5 11.7206 4.84197 11.4393 4.56066C11.158 4.27936 11 3.89783 11 3.5V2H8C7.73478 2 7.48043 2.10536 7.29289 2.29289C7.10536 2.48043 7 2.73478 7 3V4.0234C6.65659 4.05434 6.32228 4.11686 6 4.20801V3C6 2.46957 6.21071 1.96086 6.58579 1.58579C6.96086 1.21071 7.46957 1 8 1H11.585C11.782 0.99991 11.9771 1.03863 12.1592 1.11396C12.3412 1.18928 12.5066 1.29973 12.646 1.439L14.561 3.354C14.842 3.6352 14.9999 4.01645 15 4.414ZM13.792 4L12 2.207V3.5C12 3.63261 12.0527 3.75979 12.1465 3.85355C12.2402 3.94732 12.3674 4 12.5 4H13.792Z" fill="#202020"/>
<path d="M6.01117 9H8.00102C8.01861 9 8.03615 9.00033 8.05363 9.00098H8.98915C8.96386 7.97881 8.74959 6.97015 8.35715 6.02598C7.93515 5.10098 7.55715 5.00098 7.50015 5.00098C7.44315 5.00098 7.06515 5.10098 6.64315 6.02598C6.25083 6.96985 6.03657 7.97817 6.01117 9Z" fill="#A33FB1"/>
<path d="M5.01016 9C5.03074 7.71798 5.32999 6.45579 5.88715 5.30098C5.11715 5.59641 4.44315 6.09777 3.93877 6.75029C3.43439 7.4028 3.11903 8.18138 3.02715 9.00098H4.94685C4.96485 9.00033 4.98291 9 5.00102 9H5.01016Z" fill="#A33FB1"/>
<path d="M11.001 12.3282C11.0214 12.3029 11.0416 12.2774 11.0615 12.2517C11.5659 11.5991 11.8813 10.8206 11.9731 10.001H10.9157C10.9709 10.1572 11.001 10.3251 11.001 10.5V12.3282Z" fill="#A33FB1"/>
<path d="M11.0615 6.75029C10.5571 6.09777 9.88314 5.59641 9.11315 5.30098C9.67045 6.45608 9.9697 7.71862 9.99014 9.00098H11.9731C11.8813 8.18138 11.5659 7.4028 11.0615 6.75029Z" fill="#A33FB1"/>
<path d="M8.354 10.146C8.448 10.24 8.5 10.367 8.5 10.5C8.5 10.633 8.447 10.76 8.354 10.854C8.261 10.948 8.133 11 8 11H7V14.499C7 14.632 6.947 14.759 6.854 14.853C6.761 14.947 6.633 14.999 6.5 14.999C6.367 14.999 6.24 14.946 6.146 14.853C6.052 14.76 6 14.632 6 14.499V11H5C4.867 11 4.74 10.947 4.646 10.854C4.552 10.761 4.5 10.633 4.5 10.5C4.5 10.367 4.553 10.24 4.646 10.146C4.74 10.052 4.867 10 5 10H8C8.133 10 8.26 10.053 8.354 10.146Z" fill="#202020"/>
<path fill-rule="evenodd" clip-rule="evenodd" d="M4.96701 14.323L3.46801 10.324C3.32201 9.93301 2.67901 9.93301 2.53201 10.324L1.03301 14.323C0.935009 14.582 1.06601 14.87 1.32501 14.967C1.58201 15.067 1.87201 14.933 1.96901 14.675L2.22201 13.999H3.77901L4.03201 14.675C4.10701 14.875 4.29801 14.999 4.50001 14.999C4.55901 14.999 4.61801 14.989 4.67601 14.967C4.93501 14.87 5.06501 14.582 4.96701 14.323ZM2.59701 12.999L3.00101 11.923L3.40501 12.999H2.59701Z" fill="#202020"/>
<path d="M11.5 14.999C11.776 14.999 12 14.775 12 14.499C12 14.223 11.776 13.999 11.5 13.999H10V10.5C10 10.224 9.776 10 9.5 10C9.224 10 9 10.224 9 10.5V14.499C9 14.775 9.224 14.999 9.5 14.999H11.5Z" fill="#202020"/>
</svg>
