<svg width="16" height="16" viewBox="0 0 16 16" fill="none" xmlns="http://www.w3.org/2000/svg">
<path fill-rule="evenodd" clip-rule="evenodd" d="M2 4.5C2 3.11929 3.11929 2 4.5 2H11.5C12.8807 2 14 3.11929 14 4.5V11.5C14 12.8807 12.8807 14 11.5 14H8V13H11.5C12.3284 13 13 12.3284 13 11.5V6H2V4.5ZM3 5H13V4.5C13 3.67157 12.3284 3 11.5 3H4.5C3.67157 3 3 3.67157 3 4.5V5Z" fill="#202020"/>
<path d="M4.5 10H7L4 7V9.5C4 9.63261 4.05268 9.75979 4.14645 9.85355C4.24021 9.94732 4.36739 10 4.5 10ZM3 9.5V7H1C0.734784 7 0.48043 7.10536 0.292893 7.29289C0.105357 7.48043 0 7.73478 0 8V15C0 15.2652 0.105357 15.5196 0.292893 15.7071C0.48043 15.8946 0.734784 16 1 16H6C6.26522 16 6.51957 15.8946 6.70711 15.7071C6.89464 15.5196 7 15.2652 7 15V11H4.5C4.10218 11 3.72064 10.842 3.43934 10.5607C3.15804 10.2794 3 9.89782 3 9.5Z" fill="#A33FB1"/>
</svg>
