<svg width="16" height="16" viewBox="0 0 16 16" fill="none" xmlns="http://www.w3.org/2000/svg">
<g clip-path="url(#clip0_7199_52678)">
<path fill-rule="evenodd" clip-rule="evenodd" d="M5 1C3.89543 1 3 1.89543 3 3V9.63178C3.13955 9.75635 3.25463 9.906 3.33924 10.073C3.42826 10.2488 3.4818 10.4404 3.49679 10.6368C3.50607 10.7584 3.50048 10.8803 3.48034 11H3.83273L4 10.3346V3C4 2.44772 4.44772 2 5 2H8V4.5C8 5.32843 8.67157 6 9.5 6H12V13C12 13.5523 11.5523 14 11 14H10.1898L9.33327 15H11C12.1046 15 13 14.1046 13 13V5.41421C13 5.01639 12.842 4.63486 12.5607 4.35355L9.64645 1.43934C9.36514 1.15804 8.98361 1 8.58579 1H5ZM11.7929 5H9.5C9.22386 5 9 4.77614 9 4.5V2.20711L11.7929 5Z" fill="#202020"/>
<path fill-rule="evenodd" clip-rule="evenodd" d="M2.32706 10.3704C2.53669 10.5501 2.56097 10.8657 2.38128 11.0754L1.16035 12.5L2.38128 13.9246C2.56097 14.1343 2.53669 14.4499 2.32706 14.6296C2.11742 14.8093 1.80181 14.7851 1.62212 14.5754L0.12231 12.8254C-0.0381658 12.6381 -0.0381658 12.3618 0.12231 12.1746L1.62212 10.4246C1.80181 10.2149 2.11742 10.1907 2.32706 10.3704Z" fill="#A33FB1"/>
<path fill-rule="evenodd" clip-rule="evenodd" d="M7.6756 10.3704C7.88523 10.1907 8.20084 10.2149 8.38053 10.4246L9.88035 12.1746C10.0408 12.3618 10.0408 12.6381 9.88035 12.8254L8.38053 14.5754C8.20084 14.7851 7.88523 14.8093 7.6756 14.6296C7.46596 14.4499 7.44168 14.1343 7.62137 13.9246L8.84231 12.5L7.62137 11.0754C7.44168 10.8657 7.46596 10.5501 7.6756 10.3704Z" fill="#A33FB1"/>
<path fill-rule="evenodd" clip-rule="evenodd" d="M5.87249 9.01492C6.14035 9.0819 6.30321 9.35337 6.23624 9.62126L4.73643 15.6213C4.66947 15.8892 4.39803 16.052 4.13017 15.9851C3.86231 15.9181 3.69945 15.6466 3.76641 15.3787L5.26622 9.37873C5.33319 9.11083 5.60462 8.94795 5.87249 9.01492Z" fill="#A33FB1"/>
</g>
<defs>
<clipPath id="clip0_7199_52678">
<rect width="16" height="16" fill="white"/>
</clipPath>
</defs>
</svg>
