<svg width="16" height="16" viewBox="0 0 16 16" fill="none" xmlns="http://www.w3.org/2000/svg">
<g clip-path="url(#clip0_7199_52632)">
<path fill-rule="evenodd" clip-rule="evenodd" d="M13.4999 8.20715C13.7651 8.20715 14.0194 8.31247 14.2069 8.49994L14.9999 9.29294C15.1874 9.48047 15.2927 9.73478 15.2927 9.99994C15.2927 10.2651 15.1874 10.5194 14.9999 10.7069L14 11.7069V10.5C14 10.4346 13.9957 10.3697 13.9873 10.3055L14.2929 9.99994L13.4999 9.20694L13.4039 9.30295C13.1451 9.10748 12.8281 9 12.5 9H8.99994V4.99994H7V3.5C7 3.43461 6.99573 3.36967 6.98735 3.30553L7.79294 2.49994L6.49994 1.20694L5.69425 2.01263C5.63019 2.00426 5.56532 2 5.5 2H4.29288L5.79294 0.49994C5.98047 0.312469 6.23478 0.207153 6.49994 0.207153C6.7651 0.207153 7.01941 0.312469 7.20694 0.49994L8.49994 1.79294C8.68741 1.98047 8.79273 2.23478 8.79273 2.49994C8.79273 2.7651 8.68741 3.01941 8.49994 3.20694L7.70694 3.99994H12.2929L12.7929 3.49994C12.9805 3.31247 13.2348 3.20715 13.4999 3.20715C13.7651 3.20715 14.0194 3.31247 14.2069 3.49994L14.9999 4.29294C15.1874 4.48047 15.2927 4.73478 15.2927 4.99994C15.2927 5.2651 15.1874 5.51941 14.9999 5.70694L13.7069 6.99994C13.5194 7.18741 13.2651 7.29273 12.9999 7.29273C12.7348 7.29273 12.4805 7.18741 12.2929 6.99994L11.4999 6.20694C11.3458 6.04983 11.2486 5.84571 11.2238 5.62701C11.1989 5.40832 11.2479 5.1876 11.3629 4.99994H9.99994V8.99994H12.2929L12.7929 8.49994C12.9805 8.31247 13.2348 8.20715 13.4999 8.20715ZM12.9999 6.29294L14.2929 4.99994L13.4999 4.20694L12.2069 5.49994L12.9999 6.29294Z" fill="#A33FB1"/>
<path fill-rule="evenodd" clip-rule="evenodd" d="M0.146447 8.85355C0.240215 8.94732 0.367392 9 0.5 9H5.5C5.63261 9 5.75979 8.94732 5.85355 8.85355C5.94732 8.75979 6 8.63261 6 8.5V3.5C6 3.36739 5.94732 3.24021 5.85355 3.14645C5.75979 3.05268 5.63261 3 5.5 3H0.5C0.367392 3 0.240215 3.05268 0.146447 3.14645C0.0526784 3.24021 0 3.36739 0 3.5V8.5C0 8.63261 0.0526784 8.75979 0.146447 8.85355ZM1.93895 4.26056C1.8295 4.05991 1.59793 3.95902 1.37646 4.01549C1.15498 4.07196 1 4.27143 1 4.49999V7.49999C1 7.77613 1.22386 7.99999 1.5 7.99999C1.77614 7.99999 2 7.77613 2 7.49999V6.46082L2.56105 7.48941C2.64867 7.65004 2.81703 7.74999 3 7.74999C3.18297 7.74999 3.35133 7.65004 3.43895 7.48941L4 6.46082V7.49999C4 7.77613 4.22386 7.99999 4.5 7.99999C4.77614 7.99999 5 7.77613 5 7.49999V4.49999C5 4.27143 4.84502 4.07196 4.62354 4.01549C4.40207 3.95902 4.1705 4.05991 4.06105 4.26056L3 6.20582L1.93895 4.26056Z" fill="#202020"/>
<path fill-rule="evenodd" clip-rule="evenodd" d="M7.5 16H12.5C12.6326 16 12.7598 15.9473 12.8536 15.8536C12.9473 15.7598 13 15.6326 13 15.5V10.5C13 10.3674 12.9473 10.2402 12.8536 10.1464C12.7598 10.0527 12.6326 10 12.5 10H7.5C7.36739 10 7.24021 10.0527 7.14645 10.1464C7.05268 10.2402 7 10.3674 7 10.5V15.5C7 15.6326 7.05268 15.7598 7.14645 15.8536C7.24021 15.9473 7.36739 16 7.5 16ZM9.514 12C9.37768 12 9.24694 12.0542 9.15055 12.1505C9.05415 12.2469 9 12.3777 9 12.514V13.486C9 13.6223 9.05415 13.7531 9.15055 13.8495C9.24694 13.9458 9.37768 14 9.514 14H10.486C10.5755 14 10.6635 13.9766 10.7412 13.9322C10.8189 13.8877 10.8836 13.8237 10.929 13.7465C11.069 13.5085 11.3754 13.429 11.6135 13.569C11.8515 13.709 11.931 14.0154 11.791 14.2535C11.6573 14.4808 11.4666 14.6692 11.2377 14.8001C11.0088 14.9311 10.7497 15 10.486 15H9.514C9.11246 15 8.72737 14.8405 8.44344 14.5566C8.15951 14.2726 8 13.8875 8 13.486V12.514C8 12.1125 8.15951 11.7274 8.44344 11.4434C8.72737 11.1595 9.11246 11 9.514 11H10.5C10.7633 11 11.022 11.0693 11.25 11.201C11.478 11.3326 11.6674 11.522 11.799 11.75C11.9371 11.9891 11.8551 12.2949 11.616 12.433C11.3769 12.5711 11.0711 12.4891 10.933 12.25C10.8891 12.174 10.826 12.1109 10.75 12.067C10.674 12.0231 10.5878 12 10.5 12H9.514Z" fill="#202020"/>
<path fill-rule="evenodd" clip-rule="evenodd" d="M0.146447 15.8536C0.240215 15.9473 0.367392 16 0.5 16H5.5C5.63261 16 5.75979 15.9473 5.85355 15.8536C5.94732 15.7598 6 15.6326 6 15.5V10.5C6 10.3674 5.94732 10.2402 5.85355 10.1464C5.75979 10.0527 5.63261 10 5.5 10H0.5C0.367392 10 0.240215 10.0527 0.146447 10.1464C0.0526784 10.2402 0 10.3674 0 10.5V15.5C0 15.6326 0.0526784 15.7598 0.146447 15.8536ZM2 11.5C2 11.2239 2.22386 11 2.5 11H4.5C4.77614 11 5 11.2239 5 11.5C5 11.7761 4.77614 12 4.5 12H3V12.75H4C4.27614 12.75 4.5 12.9739 4.5 13.25C4.5 13.5261 4.27614 13.75 4 13.75H3V14.5C3 14.7761 2.77614 15 2.5 15C2.22386 15 2 14.7761 2 14.5V11.5Z" fill="#202020"/>
</g>
<defs>
<clipPath id="clip0_7199_52632">
<rect width="16" height="16" fill="white"/>
</clipPath>
</defs>
</svg>
