<svg width="16" height="16" viewBox="0 0 16 16" fill="none" xmlns="http://www.w3.org/2000/svg">
<g clip-path="url(#clip0_7199_52690)">
<path d="M14.5 5C14.224 5 14 5.224 14 5.5V9.5C14 9.775 13.775 10 13.5 10H8V11H13.5C14.327 11 15 10.327 15 9.5V5.5C15 5.224 14.776 5 14.5 5Z" fill="#202020"/>
<path d="M6 7.58698V5.5C6 5.224 6.224 5 6.5 5C6.776 5 7 5.224 7 5.5V8.58698L6 7.58698Z" fill="#202020"/>
<path d="M8.5 7C8.77614 7 9 6.77614 9 6.5C9 6.22386 8.77614 6 8.5 6C8.22386 6 8 6.22386 8 6.5C8 6.77614 8.22386 7 8.5 7Z" fill="#202020"/>
<path d="M10.5 7C10.7761 7 11 6.77614 11 6.5C11 6.22386 10.7761 6 10.5 6C10.2239 6 10 6.22386 10 6.5C10 6.77614 10.2239 7 10.5 7Z" fill="#202020"/>
<path d="M9.5 9C9.77614 9 10 8.77614 10 8.5C10 8.22386 9.77614 8 9.5 8C9.22386 8 9 8.22386 9 8.5C9 8.77614 9.22386 9 9.5 9Z" fill="#202020"/>
<path d="M11.5 9C11.7761 9 12 8.77614 12 8.5C12 8.22386 11.7761 8 11.5 8C11.2239 8 11 8.22386 11 8.5C11 8.77614 11.2239 9 11.5 9Z" fill="#202020"/>
<path d="M12.5 7C12.7761 7 13 6.77614 13 6.5C13 6.22386 12.7761 6 12.5 6C12.2239 6 12 6.22386 12 6.5C12 6.77614 12.2239 7 12.5 7Z" fill="#202020"/>
<path d="M11.647 2.646C11.842 2.451 12.159 2.451 12.354 2.646L12.356 2.647C12.551 2.842 12.551 3.159 12.356 3.354L10.856 4.854C10.758 4.951 10.63 5 10.502 5C10.374 5 10.246 4.952 10.148 4.854L8.648 3.354C8.453 3.159 8.453 2.842 8.648 2.647C8.843 2.452 9.16 2.452 9.355 2.647L10.001 3.293V0.5C10.001 0.224 10.225 0 10.501 0C10.777 0 11.001 0.224 11.001 0.5V3.292L11.647 2.646Z" fill="#006CBF"/>
<path d="M4.5 10.001H7L4 7.00098V9.50098C4 9.63358 4.05268 9.76076 4.14645 9.85453C4.24021 9.9483 4.36739 10.001 4.5 10.001ZM3 9.50098V7.00098H1C0.734784 7.00098 0.48043 7.10633 0.292893 7.29387C0.105357 7.48141 0 7.73576 0 8.00098V15.001C0 15.2662 0.105357 15.5205 0.292893 15.7081C0.48043 15.8956 0.734784 16.001 1 16.001H6C6.26522 16.001 6.51957 15.8956 6.70711 15.7081C6.89464 15.5205 7 15.2662 7 15.001V11.001H4.5C4.10218 11.001 3.72064 10.8429 3.43934 10.5616C3.15804 10.2803 3 9.8988 3 9.50098ZM5.5 15.001H1.5C1.36739 15.001 1.24021 14.9483 1.14645 14.8545C1.05268 14.7608 1 14.6336 1 14.501C1 14.3684 1.05268 14.2412 1.14645 14.1474C1.24021 14.0537 1.36739 14.001 1.5 14.001H5.5C5.63261 14.001 5.75979 14.0537 5.85355 14.1474C5.94732 14.2412 6 14.3684 6 14.501C6 14.6336 5.94732 14.7608 5.85355 14.8545C5.75979 14.9483 5.63261 15.001 5.5 15.001ZM6 12.501C6 12.6336 5.94732 12.7608 5.85355 12.8545C5.75979 12.9483 5.63261 13.001 5.5 13.001H1.5C1.36739 13.001 1.24021 12.9483 1.14645 12.8545C1.05268 12.7608 1 12.6336 1 12.501C1 12.3684 1.05268 12.2412 1.14645 12.1474C1.24021 12.0537 1.36739 12.001 1.5 12.001H5.5C5.63261 12.001 5.75979 12.0537 5.85355 12.1474C5.94732 12.2412 6 12.3684 6 12.501Z" fill="#A33FB1"/>
</g>
<defs>
<clipPath id="clip0_7199_52690">
<rect width="16" height="16" fill="white"/>
</clipPath>
</defs>
</svg>
