<svg width="16" height="16" viewBox="0 0 16 16" fill="none" xmlns="http://www.w3.org/2000/svg">
<g clip-path="url(#clip0_7199_52760)">
<path fill-rule="evenodd" clip-rule="evenodd" d="M2 4.5C2 3.11929 3.11929 2 4.5 2H11.5C12.8807 2 14 3.11929 14 4.5V11.5C14 12.8807 12.8807 14 11.5 14H8V13H11.5C12.3284 13 13 12.3284 13 11.5V6L2 6.00098V4.5ZM3 5H13V4.5C13 3.67157 12.3284 3 11.5 3H4.5C3.67157 3 3 3.67157 3 4.5V5Z" fill="#202020"/>
<path d="M6 7.00098H1C0.734784 7.00098 0.48043 7.10633 0.292893 7.29387C0.105357 7.48141 0 7.73576 0 8.00098V15.001C0 15.2662 0.105357 15.5205 0.292893 15.7081C0.48043 15.8956 0.734784 16.001 1 16.001H6C6.26522 16.001 6.51957 15.8956 6.70711 15.7081C6.89464 15.5205 7 15.2662 7 15.001V8.00098C7 7.73576 6.89464 7.48141 6.70711 7.29387C6.51957 7.10633 6.26522 7.00098 6 7.00098ZM5.5 14.001H1.5C1.36739 14.001 1.24021 13.9483 1.14645 13.8545C1.05268 13.7608 1 13.6336 1 13.501C1 13.3684 1.05268 13.2412 1.14645 13.1474C1.24021 13.0537 1.36739 13.001 1.5 13.001H5.5C5.63261 13.001 5.75979 13.0537 5.85355 13.1474C5.94732 13.2412 6 13.3684 6 13.501C6 13.6336 5.94732 13.7608 5.85355 13.8545C5.75979 13.9483 5.63261 14.001 5.5 14.001ZM5.5 12.001H1.5C1.36739 12.001 1.24021 11.9483 1.14645 11.8545C1.05268 11.7608 1 11.6336 1 11.501C1 11.3684 1.05268 11.2412 1.14645 11.1474C1.24021 11.0537 1.36739 11.001 1.5 11.001H5.5C5.63261 11.001 5.75979 11.0537 5.85355 11.1474C5.94732 11.2412 6 11.3684 6 11.501C6 11.6336 5.94732 11.7608 5.85355 11.8545C5.75979 11.9483 5.63261 12.001 5.5 12.001ZM5.5 10.001H1.5C1.36739 10.001 1.24021 9.9483 1.14645 9.85453C1.05268 9.76076 1 9.63358 1 9.50098C1 9.36837 1.05268 9.24119 1.14645 9.14742C1.24021 9.05365 1.36739 9.00098 1.5 9.00098H5.5C5.63261 9.00098 5.75979 9.05365 5.85355 9.14742C5.94732 9.24119 6 9.36837 6 9.50098C6 9.63358 5.94732 9.76076 5.85355 9.85453C5.75979 9.9483 5.63261 10.001 5.5 10.001Z" fill="#A33FB1"/>
</g>
<defs>
<clipPath id="clip0_7199_52760">
<rect width="16" height="16" fill="white"/>
</clipPath>
</defs>
</svg>
