<svg width="16" height="16" viewBox="0 0 16 16" fill="none" xmlns="http://www.w3.org/2000/svg">
<g clip-path="url(#clip0_7199_55615)">
<path fill-rule="evenodd" clip-rule="evenodd" d="M9.50127 6.79172C9.365 7.08863 9.20306 7.37132 9.0183 7.63694C9.04072 7.71655 9.0832 7.79167 9.14576 7.85423L10.6458 9.35423C10.7438 9.45223 10.8718 9.50023 10.9998 9.50023C11.1278 9.50023 11.2558 9.45123 11.3538 9.35423C11.5488 9.15923 11.5488 8.84223 11.3538 8.64723L10.7078 8.00123H12.5008C12.7758 8.00123 13.0008 8.22623 13.0008 8.50123V12.0722C12.1408 12.2962 11.5008 13.0722 11.5008 14.0012C11.5008 15.1042 12.3978 16.0012 13.5008 16.0012C14.6038 16.0012 15.5008 15.1042 15.5008 14.0012C15.5008 13.0722 14.8608 12.2962 14.0008 12.0722L13.9998 12.0712V8.50023C13.9998 7.67323 13.3268 7.00023 12.4998 7.00023H10.7068L11.3528 6.35423C11.5478 6.15923 11.5478 5.84223 11.3528 5.64723C11.1578 5.45223 10.8408 5.45223 10.6458 5.64723L9.50127 6.79172ZM12.4998 14.0002C12.4998 14.5522 12.9478 15.0002 13.4998 15.0002C14.0518 15.0002 14.4998 14.5522 14.4998 14.0002C14.4998 13.4482 14.0518 13.0002 13.4998 13.0002C12.9478 13.0002 12.4998 13.4482 12.4998 14.0002Z" fill="#202020"/>
<path fill-rule="evenodd" clip-rule="evenodd" d="M6 12.071V9.79297C6.34864 9.69436 6.68321 9.56223 7 9.40029V12.071C7.86 12.295 8.5 13.071 8.5 14C8.5 15.103 7.603 16 6.5 16C5.397 16 4.5 15.103 4.5 14C4.5 13.071 5.14 12.295 6 12.071ZM6.5 15C7.052 15 7.5 14.552 7.5 14C7.5 13.448 7.052 13 6.5 13C5.948 13 5.5 13.448 5.5 14C5.5 14.552 5.948 15 6.5 15Z" fill="#202020"/>
<path fill-rule="evenodd" clip-rule="evenodd" d="M9 4.5C9 6.98528 6.98528 9 4.5 9C2.01472 9 0 6.98528 0 4.5C0 2.01472 2.01472 0 4.5 0C6.98528 0 9 2.01472 9 4.5ZM4.5 2C4.77614 2 5 2.22386 5 2.5V4H6.5C6.77614 4 7 4.22386 7 4.5C7 4.77614 6.77614 5 6.5 5H5V6.5C5 6.77614 4.77614 7 4.5 7C4.22386 7 4 6.77614 4 6.5V5H2.5C2.22386 5 2 4.77614 2 4.5C2 4.22386 2.22386 4 2.5 4H4V2.5C4 2.22386 4.22386 2 4.5 2Z" fill="#11910D"/>
</g>
<defs>
<clipPath id="clip0_7199_55615">
<rect width="16" height="16" fill="white"/>
</clipPath>
</defs>
</svg>
