<svg width="16" height="16" viewBox="0 0 16 16" fill="none" xmlns="http://www.w3.org/2000/svg">
<path d="M14.5 8C14.776 8 15 7.776 15 7.5C15 7.224 14.776 7 14.5 7H13V3.5C13 3.224 13.224 3 13.5 3H14.5C14.776 3 15 2.776 15 2.5C15 2.224 14.776 2 14.5 2H13.5C12.673 2 12 2.673 12 3.5V7H11V6.25C11 5.561 10.439 5 9.75 5H6.25C5.561 5 5 5.561 5 6.25V7H4V3.5C4 2.673 3.327 2 2.5 2H1.5C1.224 2 1 2.224 1 2.5C1 2.776 1.224 3 1.5 3H2.5C2.776 3 3 3.224 3 3.5V7H1.5C1.224 7 1 7.224 1 7.5C1 7.776 1.224 8 1.5 8H3V11.5C3 11.776 2.776 12 2.5 12H1.5C1.224 12 1 12.224 1 12.5C1 12.776 1.224 13 1.5 13H2.5C3.327 13 4 12.327 4 11.5V8H5V8.75C5 9.439 5.561 10 6.25 10H9.75C10.439 10 11 9.439 11 8.75V8H12V11.5C12 12.327 12.673 13 13.5 13H14.5C14.776 13 15 12.776 15 12.5C15 12.224 14.776 12 14.5 12H13.5C13.224 12 13 11.776 13 11.5V8H14.5ZM10 8.75C10 8.888 9.888 9 9.75 9H6.25C6.112 9 6 8.888 6 8.75V6.25C6 6.112 6.112 6 6.25 6H9.75C9.888 6 10 6.112 10 6.25V8.75Z" fill="#202020"/>
</svg>
