<svg width="16" height="16" viewBox="0 0 16 16" fill="none" xmlns="http://www.w3.org/2000/svg">
<path d="M4.50025 15C4.37225 15 4.24425 14.951 4.14625 14.854L1.14625 11.854C0.95125 11.659 0.95125 11.342 1.14625 11.147L4.14625 8.147C4.34125 7.952 4.65825 7.952 4.85325 8.147L7.85325 11.147C8.04825 11.342 8.04825 11.659 7.85325 11.854L4.85325 14.854C4.75525 14.952 4.62825 15 4.50025 15ZM2.20725 11.5L4.50025 13.793L6.79325 11.5L4.50025 9.207L2.20725 11.5ZM9.40925 10.549C9.24025 10.549 9.07925 10.464 8.98625 10.316C8.87225 10.135 8.88525 9.901 9.02025 9.734C9.64525 8.962 9.99325 7.989 10.0002 6.996C10.0002 4.434 7.59725 2.247 4.53025 2.022C4.26725 2.003 4.06425 1.782 4.06725 1.518C4.07025 1.254 4.27725 1.038 4.54125 1.024C4.85725 1.007 5.17725 1 5.50025 1C10.8273 1 15.0002 3.196 15.0002 6C15.0002 7.98 12.9022 9.718 9.52625 10.535C9.48725 10.545 9.44725 10.549 9.40825 10.549H9.40925ZM8.26025 2.225C9.93925 3.32 11.0002 5.05 11.0002 7C10.9952 7.764 10.8262 8.516 10.5132 9.204C12.6672 8.448 14.0002 7.25 14.0002 6C14.0002 4.284 11.5623 2.778 8.26025 2.225Z" fill="#202020"/>
</svg>
