<svg width="16" height="16" viewBox="0 0 16 16" fill="none" xmlns="http://www.w3.org/2000/svg">
<path d="M5 1C3.89543 1 3 1.89543 3 3V13C3 14.1046 3.89543 15 5 15H11C12.1046 15 13 14.1046 13 13V5.41421C13 5.01639 12.842 4.63486 12.5607 4.35355L9.64645 1.43934C9.36514 1.15804 8.98361 1 8.58579 1H5ZM4 3C4 2.44772 4.44772 2 5 2H8V4.5C8 5.32843 8.67157 6 9.5 6H12V13C12 13.5523 11.5523 14 11 14H5C4.44772 14 4 13.5523 4 13V3ZM11.7929 5H9.5C9.22386 5 9 4.77614 9 4.5V2.20711L11.7929 5Z" fill="#11910D"/>
<path d="M8.49902 9.5C8.49902 9.22385 8.27517 9 7.99902 9C7.72288 9 7.49902 9.22385 7.49902 9.5V12.5C7.49902 12.7761 7.72288 13 7.99902 13C8.27517 13 8.49902 12.7761 8.49902 12.5V9.5Z" fill="#11910D"/>
<path d="M8.74807 7.50003C8.74807 7.91371 8.41271 8.24906 7.99903 8.24906C7.58535 8.24906 7.25 7.91371 7.25 7.50003C7.25 7.08635 7.58535 6.75099 7.99903 6.75099C8.41271 6.75099 8.74807 7.08635 8.74807 7.50003Z" fill="#11910D"/>
</svg>
