<svg width="16" height="16" viewBox="0 0 16 16" fill="none" xmlns="http://www.w3.org/2000/svg">
<path d="M10.477 8.453L11.033 9.406L11.954 9L11.341 7.949C11.118 7.566 11 7.132 11 6.689V3H11.5C11.776 3 12 2.776 12 2.5C12 2.224 11.776 2 11.5 2H6.5C6.224 2 6 2.224 6 2.5C6 2.776 6.224 3 6.5 3H7V6.69C7 7.03764 6.92733 7.38035 6.78828 7.6964C6.92624 8.0285 7 8.38737 7 8.75V9.29469L7.027 9.303L7.523 8.453C7.835 7.917 8 7.309 8 6.689V3H10V6.689C10 7.309 10.165 7.918 10.477 8.453Z" fill="#202020"/>
<path d="M7 14H12.259C13.417 14 14.138 12.744 13.555 11.744L11.954 9H7V10H11.379L12.69 12.248C12.884 12.581 12.644 13 12.258 13H7V14Z" fill="#11910D"/>
<path d="M4.25 8C4.45 8 4.639 8.078 4.78 8.22C4.922 8.362 5 8.55 5 8.75V14.249C5 14.449 4.922 14.638 4.78 14.78C4.638 14.922 4.45 15 4.25 15H1.751C1.551 15 1.362 14.922 1.22 14.78C1.078 14.638 1 14.45 1 14.25V8.75C1 8.55 1.078 8.361 1.22 8.22C1.362 8.078 1.55 8 1.75 8H4.25ZM4.25 7H1.75C1.286 7 0.841 7.184 0.513 7.513C0.185 7.841 0 8.286 0 8.75V14.25C0 14.714 0.185 15.159 0.513 15.487C0.841 15.815 1.286 16 1.75 16H4.25C4.714 16 5.159 15.815 5.487 15.487C5.815 15.159 6 14.714 6 14.25V8.75C6 8.286 5.816 7.841 5.487 7.513C5.159 7.185 4.714 7 4.25 7ZM3.5 14H2.5C2.367 14 2.24 13.947 2.146 13.853C2.052 13.759 2 13.632 2 13.5C2 13.368 2.053 13.24 2.146 13.146C2.24 13.052 2.367 13 2.5 13H3.5C3.633 13 3.76 13.053 3.854 13.146C3.948 13.24 4 13.367 4 13.5C4 13.633 3.947 13.76 3.854 13.853C3.76 13.947 3.633 14 3.5 14Z" fill="#11910D"/>
</svg>
