<svg width="16" height="16" viewBox="0 0 16 16" fill="none" xmlns="http://www.w3.org/2000/svg">
<g clip-path="url(#clip0_7199_52961)">
<path fill-rule="evenodd" clip-rule="evenodd" d="M2.54686 10.0001C2.51565 9.99909 2.48439 9.99908 2.45314 10.0001H2.34143C2.12032 9.37449 2 8.70129 2 8C2 4.68629 4.68629 2 8 2C11.3137 2 14 4.68629 14 8C14 10.9944 11.8065 13.4765 8.93863 13.927C8.97971 13.7887 9.00069 13.6449 9.00069 13.5C9.00069 13.3029 8.96186 13.1078 8.88642 12.9258C8.84146 12.8173 8.78404 12.7147 8.71548 12.6201C8.91609 12.4102 9.12057 12.1046 9.31258 11.6822C9.4073 11.4738 9.49448 11.2455 9.57265 11H7.122L6.56101 10.439C6.35123 10.2291 6.08389 10.0861 5.79283 10.0282C5.68046 10.0058 5.5665 9.99652 5.45315 10.0001H2.54686ZM8 3C8.37372 3 8.87543 3.35608 9.31258 4.31781C9.4073 4.52619 9.49448 4.75446 9.57265 5H6.42735C6.50552 4.75446 6.5927 4.52619 6.68742 4.31781C7.12457 3.35608 7.62628 3 8 3ZM5.77705 3.90401C5.62614 4.23601 5.49428 4.6038 5.38411 5H3.99963C4.52341 4.30269 5.22525 3.74677 6.03766 3.39978C5.94287 3.56117 5.85596 3.7304 5.77705 3.90401ZM5.16299 6C5.05694 6.6275 5 7.30146 5 8C5 8.69854 5.05694 9.3725 5.16299 10H3.41604C3.14845 9.38754 3 8.7111 3 8C3 7.2889 3.14845 6.61246 3.41604 6H5.16299ZM10 8C10 8.71396 9.93562 9.3892 9.82134 10H6.17866C6.06438 9.3892 6 8.71396 6 8C6 7.28604 6.06438 6.6108 6.17866 6H9.82134C9.93562 6.6108 10 7.28604 10 8ZM10.6159 11H12.0004C11.4766 11.6973 10.7747 12.2532 9.96234 12.6002C10.0571 12.4388 10.144 12.2696 10.2229 12.096C10.3739 11.764 10.5057 11.3962 10.6159 11ZM12.584 10H10.837C10.9431 9.3725 11 8.69854 11 8C11 7.30146 10.9431 6.6275 10.837 6H12.584C12.8516 6.61246 13 7.2889 13 8C13 8.7111 12.8516 9.38754 12.584 10ZM9.96234 3.39978C10.7747 3.74677 11.4766 4.30269 12.0004 5H10.6159C10.5057 4.6038 10.3739 4.23601 10.2229 3.90401C10.144 3.7304 10.0571 3.56117 9.96234 3.39978Z" fill="#202020"/>
<path d="M7.85401 13.854L5.85401 15.854C5.76012 15.9479 5.63278 16.0006 5.50001 16.0006C5.36723 16.0006 5.2399 15.9479 5.14601 15.854C5.05212 15.7601 4.99938 15.6328 4.99938 15.5C4.99938 15.3672 5.05212 15.2399 5.14601 15.146L6.29301 14H1.70701L2.85401 15.146C2.9479 15.2399 3.00064 15.3672 3.00064 15.5C3.00064 15.6328 2.9479 15.7601 2.85401 15.854C2.76012 15.9479 2.63278 16.0006 2.50001 16.0006C2.36723 16.0006 2.2399 15.9479 2.14601 15.854L0.146009 13.854C0.0994455 13.8075 0.0625027 13.7524 0.0372962 13.6916C0.0120898 13.6309 -0.00088501 13.5658 -0.00088501 13.5C-0.00088501 13.4342 0.0120898 13.3691 0.0372962 13.3084C0.0625027 13.2476 0.0994455 13.1924 0.146009 13.146L2.14601 11.146C2.2399 11.0521 2.36723 10.9994 2.50001 10.9994C2.63278 10.9994 2.76012 11.0521 2.85401 11.146C2.9479 11.2399 3.00064 11.3672 3.00064 11.5C3.00064 11.6328 2.9479 11.7601 2.85401 11.854L1.70701 13H6.29301L5.14601 11.854C5.05212 11.7601 4.99938 11.6328 4.99938 11.5C4.99938 11.3672 5.05212 11.2399 5.14601 11.146C5.2399 11.0521 5.36723 10.9994 5.50001 10.9994C5.63278 10.9994 5.76012 11.0521 5.85401 11.146L7.85401 13.146C7.90057 13.1924 7.93751 13.2476 7.96272 13.3084C7.98793 13.3691 8.0009 13.4342 8.0009 13.5C8.0009 13.5658 7.98793 13.6309 7.96272 13.6916C7.93751 13.7524 7.90057 13.8075 7.85401 13.854Z" fill="#11910D"/>
</g>
<defs>
<clipPath id="clip0_7199_52961">
<rect width="16" height="16" fill="white"/>
</clipPath>
</defs>
</svg>
