<svg width="16" height="16" viewBox="0 0 16 16" fill="none" xmlns="http://www.w3.org/2000/svg">
<path fill-rule="evenodd" clip-rule="evenodd" d="M4.5 2C3.11929 2 2 3.11929 2 4.5V6H5V6.00514C5.3858 6.0372 5.74401 6.21771 6 6.50683V6L10 6V10L7.28958 10C7.40427 10.3242 7.40174 10.6791 7.28877 11L10 11V13H6V12.7448L4.99596 14H11.5C12.8807 14 14 12.8807 14 11.5V4.5C14 3.11929 12.8807 2 11.5 2H4.5ZM10 5L6 5V3H10V5ZM4.5 3H5V5H3V4.5C3 3.67157 3.67157 3 4.5 3ZM11 6H13V10H11V6ZM11 11H13V11.5C13 12.3284 12.3284 13 11.5 13H11V11ZM13 4.5V5H11V3H11.5C12.3284 3 13 3.67157 13 4.5Z" fill="#202020"/>
<path d="M6 9.00474V8.77305L5.91495 9C5.94343 9.00077 5.97179 9.00235 6 9.00474Z" fill="#202020"/>
<path d="M1.64198 16C1.32998 16 1.04398 15.858 0.856984 15.61C0.668984 15.362 0.608984 15.048 0.692984 14.748L1.46498 12H0.499984C0.340984 12 0.190984 11.924 0.0969841 11.796C0.00298412 11.668 -0.0240159 11.502 0.0229841 11.351L1.27298 7.351C1.33798 7.142 1.53198 7 1.75098 7H4.87598C5.03998 7 5.19298 7.081 5.28698 7.215C5.37998 7.35 5.40098 7.522 5.34398 7.675L4.47298 9.999H5.87598C6.06798 9.999 6.24298 10.109 6.32598 10.282C6.40998 10.455 6.38698 10.661 6.26598 10.811L2.41198 15.629C2.22398 15.863 1.94398 15.999 1.64198 15.999V16Z" fill="#11910D"/>
</svg>
