<svg width="16" height="16" viewBox="0 0 16 16" fill="none" xmlns="http://www.w3.org/2000/svg">
<path d="M2.24895 1C1.55917 1 1 1.55938 1 2.24941V6.06992C1.3041 5.82154 1.63945 5.61003 1.99916 5.44228V2.24941C1.99916 2.11141 2.11099 1.99953 2.24895 1.99953H2.74852C2.88648 1.99953 2.99831 2.11141 2.99831 2.24941V5.10628C3.32055 5.03683 3.65483 5.00018 3.99747 5V2.24941C3.99747 1.55938 3.4383 1 2.74852 1H2.24895Z" fill="#202020"/>
<path d="M7.9941 7.18166V2.24941C7.9941 1.55938 7.43492 1 6.74515 1H6.24557C5.5558 1 4.99663 1.55938 4.99663 2.24941V5.1052C5.3453 5.17995 5.6799 5.29308 5.99578 5.43995V2.24941C5.99578 2.11141 6.10762 1.99953 6.24557 1.99953H6.74515C6.88311 1.99953 6.99494 2.11141 6.99494 2.24941V6.06584C7.38361 6.38241 7.72144 6.75912 7.9941 7.18166Z" fill="#202020"/>
<path fill-rule="evenodd" clip-rule="evenodd" d="M10.4011 3.06385C11.0311 2.84331 11.7231 3.15733 11.9723 3.77682L14.9093 11.0802C15.1752 11.7412 14.8355 12.4904 14.1632 12.7258L13.581 12.9296C12.9509 13.1502 12.2589 12.8361 12.0098 12.2166L9.07268 4.91326C8.80684 4.25222 9.14658 3.50297 9.81888 3.26764L10.4011 3.06385ZM11.0453 4.14988C10.9955 4.02598 10.8571 3.96318 10.7311 4.00729L10.1489 4.21108C10.0144 4.25815 9.94647 4.40799 9.99964 4.5402L12.9367 11.8436C12.9865 11.9675 13.1249 12.0303 13.251 11.9862L13.8332 11.7823C13.9676 11.7353 14.0356 11.5854 13.9824 11.4532L11.0453 4.14988Z" fill="#202020"/>
<path d="M2.131 15.021C2.259 15.597 2.761 16 3.352 16H4.649C5.24 16 5.742 15.598 5.87 15.021L6.097 14H1.904L2.131 15.021ZM4 6C1.933 6 0.25 7.682 0.25 9.75C0.25 10.861 0.738 11.895 1.596 12.612L1.682 13H3.5V11.418C2.78 11.201 2.25 10.54 2.25 9.75C2.25 8.785 3.035 8 4 8C4.965 8 5.75 8.785 5.75 9.75C5.75 10.54 5.22 11.202 4.5 11.418V13H6.318L6.404 12.612C7.261 11.894 7.75 10.861 7.75 9.75C7.75 7.682 6.067 6 4 6ZM4.75 9.75C4.75 9.337 4.413 9 4 9C3.587 9 3.25 9.337 3.25 9.75C3.25 10.163 3.587 10.5 4 10.5C4.413 10.5 4.75 10.163 4.75 9.75Z" fill="#11910D"/>
</svg>
