<svg width="16" height="16" viewBox="0 0 16 16" fill="none" xmlns="http://www.w3.org/2000/svg">
<path d="M7 6.5C7 6.224 7.224 6 7.5 6H12.5C12.776 6 13 6.224 13 6.5C13 6.776 12.776 7 12.5 7H7.5C7.224 7 7 6.776 7 6.5Z" fill="#202020"/>
<path fill-rule="evenodd" clip-rule="evenodd" d="M11 4H14.5C15.327 4 16 4.673 16 5.5V13.5C16 14.327 15.327 15 14.5 15H9V14H14.5C14.776 14 15 13.776 15 13.5V11H8.91421C8.84033 10.791 8.72036 10.599 8.56066 10.4393C8.27936 10.158 7.89782 10 7.5 10H12.5C12.776 10 13 9.776 13 9.5C13 9.224 12.776 9 12.5 9H7.5C7.224 9 7 9.224 7 9.5C7 9.776 7.224 10 7.5 10C7.10218 10 6.72064 10.158 6.43934 10.4393C6.27964 10.599 6.15967 10.791 6.08579 11H5V11.3643L4 10.6977V2.5C4 1.673 4.673 1 5.5 1H9.5C10.327 1 11 1.673 11 2.5V4ZM9.5 2H5.5C5.224 2 5 2.224 5 2.5V4H10V2.5C10 2.224 9.776 2 9.5 2ZM5 5V8H15V5.5C15 5.224 14.776 5 14.5 5H5Z" fill="#202020"/>
<path d="M5.95351 15H6V14.969L5.95351 15Z" fill="#202020"/>
<path d="M0.5 16C0.367392 16 0.240215 15.9473 0.146447 15.8536C0.0526784 15.7598 0 15.6326 0 15.5V11.5C0 11.3674 0.0526784 11.2402 0.146447 11.1464C0.240215 11.0527 0.367392 11 0.5 11C0.632608 11 0.759785 11.0527 0.853553 11.1464C0.947322 11.2402 1 11.3674 1 11.5V15.5C1 15.6326 0.947322 15.7598 0.853553 15.8536C0.759785 15.9473 0.632608 16 0.5 16Z" fill="#11910D"/>
<path d="M7.5 16C7.36739 16 7.24021 15.9473 7.14645 15.8536C7.05268 15.7598 7 15.6326 7 15.5V11.5C7 11.3674 7.05268 11.2402 7.14645 11.1464C7.24021 11.0527 7.36739 11 7.5 11C7.63261 11 7.75979 11.0527 7.85355 11.1464C7.94732 11.2402 8 11.3674 8 11.5V15.5C8 15.6326 7.94732 15.7598 7.85355 15.8536C7.75979 15.9473 7.63261 16 7.5 16Z" fill="#11910D"/>
<path d="M2.5 16C2.41771 15.9998 2.3367 15.9796 2.264 15.941C2.1842 15.8983 2.11749 15.8347 2.071 15.757C2.0245 15.6793 1.99996 15.5905 2 15.5V11.5C2.00005 11.4095 2.02462 11.3208 2.07111 11.2432C2.1176 11.1657 2.18427 11.1021 2.264 11.0594C2.34373 11.0168 2.43355 10.9965 2.52389 11.0008C2.61423 11.0051 2.70171 11.0339 2.777 11.084L5.777 13.084C5.84548 13.1296 5.90163 13.1915 5.94046 13.2641C5.97929 13.3366 5.99961 13.4177 5.99961 13.5C5.99961 13.5823 5.97929 13.6633 5.94046 13.7359C5.90163 13.8085 5.84548 13.8703 5.777 13.916L2.777 15.916C2.69497 15.9707 2.5986 15.9999 2.5 16Z" fill="#11910D"/>
</svg>
