<svg width="64" height="64" viewBox="0 0 64 64" fill="none" xmlns="http://www.w3.org/2000/svg">
<g clip-path="url(#clip0_509_23)">
<path d="M64 2V16H62V58H32.79L24.73 62.65C23.3 63.48 21.66 63.92 20 63.92C18.34 63.92 16.7 63.48 15.26 62.65L7.2 58L6.73 57.73C3.81 56.04 2 52.9 2 49.53V6H35.12C35.6 5 36.22 4.08 37 3.26C39.02 1.13 41.73 0 44.83 0C45.99 0 47.03 0.12 48 0.34V0H62V2H64Z" fill="#F6F6F6"/>
<path d="M34 11.29C34 10.84 34.07 10.43 34.11 10H6V31.946C6.237 31.778 6.482 31.621 6.735 31.474L10 29.589V21.999H44.33C37.97 21.999 34 16.089 34 11.289V11.29Z" fill="#424242"/>
<path d="M51.9999 18V20C51.9999 20 49.0599 22 44.3299 22H53.9999V50H37.9879C37.9169 51.416 37.5269 52.78 36.8719 54H57.9999V18H51.9999Z" fill="#424242"/>
<path d="M14.507 31.58L8.702 35.091C7.025 36.105 6 37.923 6 39.883V49.316C6 51.225 6.972 52.999 8.572 54.027C8.959 54.207 9.376 54.296 9.792 54.296C10.325 54.296 10.858 54.149 11.327 53.856L18.094 49.631L17.1 49.029C15.424 48.014 14.4 46.198 14.4 44.238V42.939H14.398V32.681C14.398 32.307 14.435 31.939 14.506 31.58H14.507ZM20.842 50.272L12.386 55.552C12.161 55.693 11.927 55.813 11.687 55.914L17.1 59.19C17.991 59.73 18.996 59.999 20 59.999C21.004 59.999 22.009 59.729 22.9 59.19L31.3 54.105C32.775 53.213 33.744 51.699 33.956 50.014C33.795 49.027 33.201 48.151 32.32 47.64L25.6 43.737V44.236C25.6 46.195 24.576 48.012 22.9 49.027L20.843 50.272H20.842ZM34 39.883V46.376C33.789 46.206 33.563 46.05 33.324 45.911L24.797 40.958L22.898 39.81C22.007 39.271 21.003 39.002 20 39.002C18.997 39.002 17.993 39.271 17.102 39.81L16.399 40.235V32.68C16.399 31.406 17.064 30.224 18.154 29.562L18.326 29.458C18.871 29.287 19.436 29.202 20.001 29.202C21.005 29.202 22.008 29.471 22.899 30.01L31.299 35.091C32.976 36.105 34 37.923 34 39.883Z" fill="#424242"/>
<path d="M60 8V6H58V4H56V6H54V4H52V6H50V8H52V10H50V12H52V14H54V12H56V14H58V12H60V10H58V8H60ZM56 10H54V8H56V10Z" fill="#388A34"/>
<path d="M44.334 18C45.84 18 47.066 17.762 48 17.283V14.498C47.066 15.076 46.033 15.367 44.906 15.367C43.724 15.367 42.785 14.976 42.086 14.199C41.391 13.422 41.043 12.379 41.043 11.07C41.043 9.66 41.434 8.552 42.223 7.746C42.957 7 43.903 6.625 45.067 6.625C46.159 6.625 47.135 6.895 48.001 7.436V4.5C47.136 4.168 46.083 4 44.833 4C42.817 4 41.177 4.67 39.907 6.012C38.637 7.352 38.001 9.11 38.001 11.289C38.001 13.258 38.532 14.848 39.593 16.055C40.726 17.352 42.305 18 44.334 18Z" fill="#388A34"/>
<path d="M10 22V29.59L15.266 26.55C16.704 25.72 18.341 25.281 20 25.281C21.659 25.281 23.296 25.719 24.733 26.549L33.265 31.476C36.185 33.161 37.999 36.303 37.999 39.676V49.527C37.999 49.685 37.995 49.843 37.987 50.001H53.999V22.001L10 22Z" fill="#F0EFF1"/>
</g>
<defs>
<clipPath id="clip0_509_23">
<rect width="64" height="64" fill="white"/>
</clipPath>
</defs>
</svg>
