<svg width="16" height="16" viewBox="0 0 16 16" fill="none" xmlns="http://www.w3.org/2000/svg">
<g clip-path="url(#clip0_509_2)">
<path d="M8 15.464C7.299 15.464 6.607 15.279 6 14.929L3 13.197C1.766 12.484 1 11.157 1 9.73299V6.26899C1 4.84399 1.767 3.51699 3 2.80499L6 1.07299C6.607 0.721987 7.299 0.536987 8 0.536987C8.701 0.536987 9.393 0.721987 10 1.07299L13 2.80399C14.233 3.51599 15 4.84399 15 6.26799V9.73199C15 11.156 14.233 12.483 13 13.196L10 14.928C9.393 15.279 8.701 15.464 8 15.464Z" fill="#F6F6F6"/>
<path d="M5.50602 2.494C5.50202 2.548 5.50002 2.603 5.50002 2.658V7.999C5.50002 8.786 5.87102 9.527 6.50002 9.999L7.17502 10.505L5.08702 12.081C4.57402 12.469 3.87002 12.486 3.33802 12.123L2.92102 11.839C2.34202 11.368 1.99902 10.657 1.99902 9.9V6.096C1.99902 5.241 2.43602 4.446 3.15702 3.987L5.50502 2.493L5.50602 2.494ZM7.23702 1.562C6.79302 1.743 6.50002 2.176 6.50002 2.659V5.848L6.66402 5.745C7.48202 5.234 8.52002 5.239 9.33302 5.757L14 8.732V6.098C14 5.243 13.563 4.448 12.842 3.989L9.61002 1.933C8.89302 1.477 8.03202 1.354 7.23602 1.563L7.23702 1.562ZM10.5 8.004V7.687L13.584 9.653C13.864 9.832 14.002 10.167 13.928 10.491C13.777 11.112 13.393 11.66 12.842 12.011L9.61002 14.067C8.62702 14.692 7.37102 14.692 6.38902 14.067L5.06502 13.224C5.28502 13.141 5.49602 13.026 5.69002 12.88L9.50602 9.999C10.132 9.527 10.5 8.788 10.5 8.004Z" fill="#424242"/>
</g>
<defs>
<clipPath id="clip0_509_2">
<rect width="16" height="16" fill="white"/>
</clipPath>
</defs>
</svg>
