<svg width="256" height="256" viewBox="0 0 256 256" fill="none" xmlns="http://www.w3.org/2000/svg">
<g clip-path="url(#clip0_509_39)">
<path d="M248 8V0H192V1.374C188.134 0.482 183.965 0 179.328 0C166.914 0 156.082 4.514 148.012 13.043C144.895 16.331 142.399 19.998 140.491 24L8 24.004V131.918C2.904 138.74 0 147.128 0 155.873V196.127C0 210.284 7.593 223.518 19.816 230.661L53.816 250.533C59.934 254.108 66.914 255.998 74 255.998C81.086 255.998 88.065 254.108 94.184 250.532L125.894 232H248V64H256V8H248Z" fill="#F6F6F6"/>
<path d="M136 45.15C136 43.36 136.27 41.71 136.42 40H24V118.893L40 109.542V88H177.34C151.88 88 136 64.38 136 45.15Z" fill="#424242"/>
<path d="M208 72V80C208 80 196.26 88 177.34 88H216V200H147.788C147.229 205.681 145.476 211.133 142.688 216H231.999V72H207.999H208Z" fill="#424242"/>
<path d="M50.989 122.03L27.193 136.47C20.245 140.686 16 148.239 16 156.385V195.592C16 202.77 19.296 209.487 24.833 213.867C29.993 216.656 36.26 216.487 41.273 213.392L67.053 197.477L61.986 194.4C55.042 190.183 50.8 182.632 50.8 174.488V163.251H50.76V125.047C50.76 124.028 50.838 123.02 50.989 122.03ZM78.169 199.155L45.073 219.586C43.005 220.862 40.789 221.793 38.505 222.378L61.984 236.636C69.369 241.121 78.626 241.121 86.011 236.636L120.811 215.503C127.06 211.708 131.121 205.213 131.871 198.016C131.33 194.107 129.06 190.608 125.635 188.538L97.197 171.354V174.48C97.197 182.623 92.955 190.175 86.011 194.392L78.168 199.154L78.169 199.155ZM132 156.393V184.193C131.184 183.503 130.308 182.872 129.376 182.309L92.653 160.119L92.651 160.123L86.007 156.091C78.625 151.611 69.375 151.611 61.992 156.091L58.01 158.507V125.047C58.01 120.666 60.265 116.599 63.968 114.287C70.977 110.913 79.27 111.271 86.007 115.359L120.807 136.477C127.755 140.693 132 148.246 132 156.392V156.393Z" fill="#424242"/>
<path d="M240 32V24H232V16H224V24H216V16H208V24H200V32H208V40H200V48H208V56H216V48H224V56H232V48H240V40H232V32H240ZM224 40H216V32H224V40Z" fill="#388A34"/>
<path d="M177.336 72C183.359 72 188.266 71.047 192 69.133V57.992C188.266 60.304 184.133 61.469 179.625 61.469C174.898 61.469 171.141 59.906 168.343 56.797C165.562 53.688 164.171 49.516 164.171 44.281C164.171 38.64 165.733 34.211 168.89 30.984C171.827 28 175.608 26.5 180.265 26.5C184.632 26.5 188.539 27.578 191.999 29.742V18C188.538 16.672 184.327 16 179.327 16C171.265 16 164.702 18.68 159.624 24.047C154.546 29.406 151.999 36.438 151.999 45.156C151.999 53.031 154.124 59.39 158.366 64.219C162.897 69.406 169.219 72 177.336 72Z" fill="#388A34"/>
<path d="M40 88V109.542L53.816 101.467C59.934 97.891 66.914 96.001 74 96.001C81.086 96.001 88.065 97.891 94.184 101.466L128.184 121.338C140.408 128.482 148 141.715 148 155.872V196.126C148 197.428 147.914 198.717 147.788 199.999H216V87.999L40 88Z" fill="#F0EFF1"/>
</g>
<defs>
<clipPath id="clip0_509_39">
<rect width="256" height="256" fill="white"/>
</clipPath>
</defs>
</svg>
