<svg width="32" height="32" viewBox="0 0 32 32" fill="none" xmlns="http://www.w3.org/2000/svg">
<g clip-path="url(#clip0_509_55)">
<path d="M31 0H24V0.02C24 0.012 23.996 0.006 23.988 0H22.61C21.05 0 19.88 0.42 18.88 1.49C18.45 1.94 18.14 2.45 17.89 3H0V23.761C0.109 25.409 1.042 26.916 2.49 27.76L4.64 29L6.53 30.09L6.99 30.35C7.75 30.79 8.61 31.03 9.49 31.03C10.37 31.03 11.23 30.79 11.99 30.36L12.43 30.11L14.35 29H32V1H31V0Z" fill="#F6F6F6"/>
<path d="M18.29 9.34C17.44 8.37 17 7.12 17 5.64C17 5.42 17.03 5.21 17.05 5H2V14.353C2.306 14.078 2.634 13.824 2.999 13.613L4 13.035V11H7.925C8.437 10.861 8.966 10.788 9.5 10.788C10.034 10.788 10.563 10.861 11.075 11H22.17C20.16 11 18.95 10.1 18.29 9.34ZM26 9V9.86L24.91 10.42C24.16 10.81 23.24 11 22.17 11H28V25H20V27H30V9H26Z" fill="#424242"/>
<path d="M18.702 18.958V19.01L18.728 18.982L18.702 18.958Z" fill="#2B579A"/>
<path d="M6.38302 13.947C6.37802 14.015 6.37502 14.083 6.37502 14.152V20.829C6.37502 21.813 6.83802 22.739 7.62502 23.329L8.46902 23.962L5.85902 25.932C5.21702 26.417 4.33802 26.438 3.67302 25.985L3.15202 25.63C2.42802 25.041 1.99902 24.153 1.99902 23.207V18.452C1.99902 17.384 2.54502 16.389 3.44602 15.816L6.38102 13.948L6.38302 13.947ZM8.54602 12.781C7.99102 13.008 7.62502 13.549 7.62502 14.152V18.139L7.83002 18.011C8.85202 17.372 10.15 17.378 11.166 18.026L16.999 21.745V18.452C16.999 17.384 16.453 16.389 15.552 15.816L11.513 13.245C10.617 12.675 9.54002 12.52 8.54602 12.781ZM12.625 20.834V20.438L16.48 22.896C16.83 23.119 17.003 23.539 16.91 23.944C16.722 24.72 16.241 25.405 15.552 25.844L11.513 28.415C10.285 29.197 8.71502 29.197 7.48602 28.415L5.83102 27.362C6.10602 27.258 6.36902 27.115 6.61202 26.931L11.383 23.329C12.165 22.738 12.625 21.814 12.625 20.834Z" fill="#424242"/>
<path d="M24 7.249C23.533 7.538 23.018 7.684 22.453 7.684C21.861 7.684 21.392 7.489 21.043 7.1C20.695 6.711 20.522 6.19 20.522 5.536C20.522 4.83 20.717 4.277 21.112 3.874C21.479 3.5 21.952 3.312 22.534 3.312C23.08 3.312 23.567 3.448 24.001 3.718V2.25C23.567 2.084 23.042 2 22.418 2C21.41 2 20.588 2.335 19.954 3.006C19.319 3.676 19.001 4.555 19.001 5.644C19.001 6.629 19.267 7.424 19.797 8.028C20.362 8.676 21.153 9 22.168 9C22.921 9 23.534 8.881 24.001 8.642L24 7.249ZM29 4V5H30V6H29V7H28V6H27V7H26V6H25V5H26V4H25V3H26V2H27V3H28V2H29V3H30V4H29ZM28 4H27V5H28V4Z" fill="#388A34"/>
<path d="M11.079 11C11.574 11.135 12.052 11.333 12.499 11.591L16.002 13.615C17.857 14.687 19 16.667 19 18.809V22.851C19 23.598 18.861 24.325 18.601 25.001H28V11.001H11.079V11Z" fill="#F0EFF1"/>
<path d="M6.5 11.592C6.948 11.333 7.426 11.135 7.921 11H4V13.035L6.5 11.591V11.592Z" fill="#F0EFF1"/>
</g>
<defs>
<clipPath id="clip0_509_55">
<rect width="32" height="32" fill="white"/>
</clipPath>
</defs>
</svg>
