<svg width="48" height="48" viewBox="0 0 48 48" fill="none" xmlns="http://www.w3.org/2000/svg">
<g clip-path="url(#clip0_509_9)">
<path d="M48 3V44H21.04L17.5 46.05C16.44 46.66 15.23 46.98 14 46.98C12.77 46.98 11.56 46.66 10.5 46.04L6.96 44L3.5 42C1.34 40.76 0 38.43 0 35.94V5H25.14C25.5 4.25 25.96 3.56 26.55 2.94C28.06 1.35 30.09 0.5 32.42 0.5C33.62 0.5 34.7 0.67 35.64 1H46.02V3H48Z" fill="#F6F6F6"/>
<path d="M26.23 14.51C24.95 13.05 24.29 11.19 24.29 8.97C24.29 8.64 24.31 8.32 24.34 8H3V22.132C3.164 22.017 3.325 21.898 3.501 21.796L6 20.353V16.999H12.47C12.971 16.887 13.483 16.816 14 16.816C14.517 16.816 15.029 16.886 15.53 16.999H32.04C29.03 16.999 27.22 15.649 26.23 14.509V14.51ZM36.42 16L36.16 16.13C35.04 16.71 33.65 16.999 32.04 16.999L42 17V38H27.677C27.324 39.139 26.689 40.173 25.824 41H45V16H36.42Z" fill="#424242"/>
<path d="M9.61202 21.713L5.12202 24.429C3.80402 25.226 2.99902 26.654 2.99902 28.194V35.606C2.99902 36.757 3.44902 37.846 4.22702 38.655C5.32402 39.308 6.69302 39.301 7.78402 38.634L12.414 35.8L11.722 35.381C10.405 34.584 9.60002 33.156 9.60002 31.617V22.023C9.60002 21.92 9.60402 21.817 9.61202 21.714V21.713ZM11.722 43.364L7.21802 40.638C7.71402 40.515 8.19602 40.315 8.64602 40.04L14.683 36.345L16.28 35.378C17.597 34.581 18.401 33.153 18.401 31.614V31.346L24.101 34.791C24.571 35.075 24.887 35.548 24.975 36.08C24.828 37.434 24.059 38.655 22.879 39.369L16.279 43.364C14.878 44.212 13.123 44.212 11.722 43.364ZM25 33.407V28.193C25 26.653 24.195 25.225 22.877 24.428L16.277 20.436C15.061 19.701 13.579 19.604 12.293 20.145C11.645 20.547 11.25 21.257 11.25 22.021V28.422L11.723 28.136C13.123 27.289 14.877 27.289 16.278 28.136L17.499 28.874V28.872L24.955 33.378C24.97 33.387 24.985 33.396 25 33.406V33.407Z" fill="#424242"/>
<path d="M32.045 14C33.174 14 34.094 13.821 34.795 13.463V11.373C34.094 11.807 33.32 12.025 32.475 12.025C31.588 12.025 30.883 11.732 30.36 11.149C29.839 10.566 29.577 9.78399 29.577 8.80199C29.577 7.74399 29.87 6.91299 30.462 6.30899C31.013 5.74899 31.722 5.46799 32.595 5.46799C33.415 5.46799 34.148 5.66999 34.796 6.07499V3.87399C34.148 3.62499 33.357 3.49899 32.419 3.49899C30.907 3.49899 29.677 4.00099 28.726 5.00799C27.773 6.01299 27.296 7.33099 27.296 8.96599C27.296 10.443 27.694 11.635 28.489 12.54C29.339 13.513 30.524 13.999 32.046 13.999L32.045 14Z" fill="#388A34"/>
<path d="M45 8V6H43V4H41V6H40V4H38V6H36V8H38V9H36V11H38V13H40V11H41V13H43V11H45V9H43V8H45ZM41 9H40V8H41V9Z" fill="#388A34"/>
<path d="M42 17V38H27.68C27.89 37.34 28 36.64 28 35.94V27.86C28 25.37 26.66 23.04 24.5 21.8L17.5 17.76C16.9 17.41 16.25 17.15 15.57 17H42ZM6 20.357L10.5 17.76C11.1 17.41 11.75 17.15 12.43 17H6V20.357Z" fill="#F0EFF1"/>
</g>
<defs>
<clipPath id="clip0_509_9">
<rect width="48" height="48" fill="white"/>
</clipPath>
</defs>
</svg>
