<svg width="16" height="16" viewBox="0 0 16 16" fill="none" xmlns="http://www.w3.org/2000/svg">
<path d="M10 12V13H11C11.2761 13 11.5 12.7761 11.5 12.5C11.5 12.2239 11.2761 12 11 12H10Z" fill="#202020"/>
<path d="M7 7V2.75C7 2.33579 7.33579 2 7.75 2H12.25C12.6642 2 13 2.33579 13 2.75V13.25C13 13.6642 12.6642 14 12.25 14H9.99121C9.96639 14.3518 9.88961 14.6882 9.76921 15H12.25C13.2165 15 14 14.2165 14 13.25V2.75C14 1.7835 13.2165 1 12.25 1H7.75C6.7835 1 6 1.7835 6 2.75V7H7Z" fill="#202020"/>
<path d="M2.25 11.25C1.362 11.25 0.989 11.553 0.896 11.646C0.701 11.841 0.687 12.17 0.882 12.365C1.076 12.561 1.379 12.573 1.575 12.378C1.577 12.378 1.757 12.25 2.249 12.25C2.279 12.25 2.999 12.256 2.999 12.75V13.056C2.795 13.023 2.551 13 2.249 13C0.936 13 0.249 13.754 0.249 14.5C0.249 15.246 0.936 16 2.249 16C2.621 16 2.91 15.937 3.144 15.851C3.235 15.943 3.36 16 3.499 16C3.775 16 3.999 15.776 3.999 15.5V12.75C3.999 11.765 3.12 11.25 2.25 11.25ZM3 14.811C2.907 14.885 2.697 15 2.25 15C1.601 15 1.25 14.742 1.25 14.5C1.25 14.258 1.601 14 2.25 14C2.622 14 2.856 14.038 3 14.074V14.811ZM7 11.5C6.634 11.5 6.295 11.619 6 11.813V10.5C6 10.224 5.776 10 5.5 10C5.224 10 5 10.224 5 10.5V15.5C5 15.776 5.224 16 5.5 16C5.717 16 5.897 15.86 5.966 15.666C6.269 15.873 6.62 16 7 16C8.103 16 9 14.991 9 13.75C9 12.509 8.103 11.5 7 11.5ZM7 15C6.448 15 6 14.439 6 13.75C6 13.061 6.448 12.5 7 12.5C7.552 12.5 8 13.061 8 13.75C8 14.439 7.552 15 7 15ZM8.5 9H0.5C0.224 9 0 8.776 0 8.5C0 8.224 0.224 8 0.5 8H8.5C8.776 8 9 8.224 9 8.5C9 8.776 8.776 9 8.5 9Z" fill="#11910D"/>
</svg>
