<svg width="16" height="16" viewBox="0 0 16 16" fill="none" xmlns="http://www.w3.org/2000/svg">
<path fill-rule="evenodd" clip-rule="evenodd" d="M14 8C14 11.3137 11.3137 14 8 14C7.65929 14 7.32521 13.9716 7 13.917V12.2573C7.35068 12.7901 7.71307 13 8 13C8.37372 13 8.87543 12.6439 9.31258 11.6822C9.4073 11.4738 9.49448 11.2455 9.57265 11H7V10H9.82134C9.93562 9.3892 10 8.71396 10 8C10 7.28604 9.93562 6.6108 9.82134 6H6.17866C6.13695 6.22293 6.10189 6.45445 6.07418 6.6933C5.80119 6.45177 5.48155 6.26726 5.13878 6.14953C5.14654 6.09941 5.15461 6.04956 5.16299 6H2.34141C3.16508 3.66962 5.38756 2 8 2C11.3137 2 14 4.68629 14 8ZM9.31258 4.31781C8.87543 3.35608 8.37372 3 8 3C7.62628 3 7.12457 3.35608 6.68742 4.31781C6.5927 4.52619 6.50552 4.75446 6.42735 5H9.57265C9.49448 4.75446 9.4073 4.52619 9.31258 4.31781ZM5.38411 5C5.49428 4.6038 5.62614 4.23601 5.77705 3.90401C5.85596 3.7304 5.94287 3.56117 6.03766 3.39978C5.22525 3.74677 4.52341 4.30269 3.99963 5H5.38411ZM12.0004 11H10.6159C10.5057 11.3962 10.3739 11.764 10.2229 12.096C10.144 12.2696 10.0571 12.4388 9.96234 12.6002C10.7747 12.2532 11.4766 11.6973 12.0004 11ZM10.837 10H12.584C12.8516 9.38754 13 8.7111 13 8C13 7.2889 12.8516 6.61246 12.584 6H10.837C10.9431 6.6275 11 7.30146 11 8C11 8.69854 10.9431 9.3725 10.837 10ZM12.0004 5C11.4766 4.30269 10.7747 3.74677 9.96234 3.39978C10.0571 3.56117 10.144 3.7304 10.2229 3.90401C10.3739 4.23601 10.5057 4.6038 10.6159 5H12.0004Z" fill="#202020"/>
<path d="M4.25 8C4.45 8 4.639 8.078 4.78 8.22C4.922 8.362 5 8.55 5 8.75V14.249C5 14.449 4.922 14.638 4.78 14.78C4.638 14.922 4.45 15 4.25 15H1.751C1.551 15 1.362 14.922 1.22 14.78C1.078 14.638 1 14.45 1 14.25V8.75C1 8.55 1.078 8.361 1.22 8.22C1.362 8.078 1.55 8 1.75 8H4.25ZM4.25 7H1.75C1.286 7 0.841 7.184 0.513 7.513C0.185 7.841 0 8.286 0 8.75V14.25C0 14.714 0.185 15.159 0.513 15.487C0.841 15.815 1.286 16 1.75 16H4.25C4.714 16 5.159 15.815 5.487 15.487C5.815 15.159 6 14.714 6 14.25V8.75C6 8.286 5.816 7.841 5.487 7.513C5.159 7.185 4.714 7 4.25 7ZM3.5 14H2.5C2.367 14 2.24 13.947 2.146 13.853C2.052 13.759 2 13.632 2 13.5C2 13.368 2.053 13.24 2.146 13.146C2.24 13.052 2.367 13 2.5 13H3.5C3.633 13 3.76 13.053 3.854 13.146C3.948 13.24 4 13.367 4 13.5C4 13.633 3.947 13.76 3.854 13.853C3.76 13.947 3.633 14 3.5 14Z" fill="#11910D"/>
</svg>
