<svg width="16" height="16" viewBox="0 0 16 16" fill="none" xmlns="http://www.w3.org/2000/svg">
<path d="M2.24895 2C1.55917 2 1 2.55938 1 3.24941V6.10569C1.24285 6.03633 1.4955 6 1.75 6H1.99916V3.24941C1.99916 3.11141 2.11099 2.99953 2.24895 2.99953H2.74852C2.88648 2.99953 2.99831 3.11141 2.99831 3.24941V6H3.99747V3.24941C3.99747 2.55938 3.4383 2 2.74852 2H2.24895Z" fill="#202020"/>
<path d="M7 13.9683C7.56756 13.8506 7.9941 13.3476 7.9941 12.745V3.24941C7.9941 2.55938 7.43492 2 6.74515 2H6.24557C5.5558 2 4.99663 2.55938 4.99663 3.24941V6.10492C5.36021 6.20841 5.70216 6.38598 5.99578 6.62654V3.24941C5.99578 3.11141 6.10762 2.99953 6.24557 2.99953H6.74515C6.88311 2.99953 6.99494 3.11141 6.99494 3.24941V8.58529C6.9983 8.64005 7 8.69498 7 8.75V13.9683Z" fill="#202020"/>
<path fill-rule="evenodd" clip-rule="evenodd" d="M10.4011 4.06385C11.0311 3.84331 11.7231 4.15733 11.9723 4.77682L14.9093 12.0802C15.1752 12.7412 14.8355 13.4904 14.1632 13.7258L13.581 13.9296C12.9509 14.1502 12.2589 13.8361 12.0098 13.2166L9.07268 5.91326C8.80684 5.25222 9.14658 4.50297 9.81888 4.26764L10.4011 4.06385ZM11.0453 5.14988C10.9955 5.02598 10.8571 4.96318 10.7311 5.00729L10.1489 5.21108C10.0144 5.25815 9.94647 5.40799 9.99964 5.5402L12.9367 12.8436C12.9865 12.9675 13.1249 13.0303 13.251 12.9862L13.8332 12.7823C13.9676 12.7353 14.0356 12.5854 13.9824 12.4532L11.0453 5.14988Z" fill="#202020"/>
<path d="M4.25 8C4.45 8 4.639 8.078 4.78 8.22C4.922 8.362 5 8.55 5 8.75V14.249C5 14.449 4.922 14.638 4.78 14.78C4.638 14.922 4.45 15 4.25 15H1.751C1.551 15 1.362 14.922 1.22 14.78C1.078 14.638 1 14.45 1 14.25V8.75C1 8.55 1.078 8.361 1.22 8.22C1.362 8.078 1.55 8 1.75 8H4.25ZM4.25 7H1.75C1.286 7 0.841 7.184 0.513 7.513C0.185 7.841 0 8.286 0 8.75V14.25C0 14.714 0.185 15.159 0.513 15.487C0.841 15.815 1.286 16 1.75 16H4.25C4.714 16 5.159 15.815 5.487 15.487C5.815 15.159 6 14.714 6 14.25V8.75C6 8.286 5.816 7.841 5.487 7.513C5.159 7.185 4.714 7 4.25 7ZM3.5 14H2.5C2.367 14 2.24 13.947 2.146 13.853C2.052 13.759 2 13.632 2 13.5C2 13.368 2.053 13.24 2.146 13.146C2.24 13.052 2.367 13 2.5 13H3.5C3.633 13 3.76 13.053 3.854 13.146C3.948 13.24 4 13.367 4 13.5C4 13.633 3.947 13.76 3.854 13.853C3.76 13.947 3.633 14 3.5 14Z" fill="#11910D"/>
</svg>
