<svg width="16" height="16" viewBox="0 0 16 16" fill="none" xmlns="http://www.w3.org/2000/svg">
<path d="M4.5 3H1.5C1.224 3 1 3.224 1 3.5C1 3.776 1.224 4 1.5 4H4.5C4.776 4 5 3.776 5 3.5C5 3.224 4.776 3 4.5 3ZM4.5 6H3.5C3.224 6 3 6.224 3 6.5C3 6.776 3.224 7 3.5 7H4.5C4.776 7 5 6.776 5 6.5C5 6.224 4.776 6 4.5 6ZM14.561 3.354L12.646 1.439C12.507 1.3 12.341 1.189 12.159 1.114C11.977 1.039 11.782 1 11.585 1H8C7.47 1 6.961 1.211 6.586 1.586C6.211 1.961 6 2.47 6 3V8H7V3C7 2.735 7.105 2.48 7.293 2.293C7.481 2.106 7.735 2 8 2H11V3.5C11 3.898 11.158 4.279 11.439 4.561C11.72 4.843 12.102 5 12.5 5H14V11C14 11.265 13.895 11.52 13.707 11.707C13.519 11.894 13.265 12 13 12H9V13H13C13.53 13 14.039 12.789 14.414 12.414C14.789 12.039 15 11.53 15 11V4.414C15 4.016 14.842 3.635 14.561 3.354ZM12.5 4C12.367 4 12.24 3.947 12.146 3.854C12.052 3.761 12 3.633 12 3.5V2.207L13.792 4H12.5Z" fill="#202020"/>
<path d="M3.25 14H1.75C1.337 14 1 13.663 1 13.25V11.75C1 11.337 1.337 11 1.75 11H3.25C3.663 11 4 11.337 4 11.75V13.25C4 13.663 3.663 14 3.25 14ZM2 13H3V12H2V13ZM7.25 14H5.75C5.337 14 5 13.663 5 13.25V11.75C5 11.337 5.337 11 5.75 11H7.25C7.663 11 8 11.337 8 11.75V13.25C8 13.663 7.663 14 7.25 14ZM6 13H7V12H6V13ZM9 9.5C9 9.224 8.776 9 8.5 9H0.5C0.224 9 0 9.224 0 9.5C0 9.776 0.224 10 0.5 10H8.5C8.776 10 9 9.776 9 9.5ZM9 15.5C9 15.224 8.776 15 8.5 15H0.5C0.224 15 0 15.224 0 15.5C0 15.776 0.224 16 0.5 16H8.5C8.776 16 9 15.776 9 15.5Z" fill="#202020"/>
</svg>
