<svg width="16" height="16" viewBox="0 0 16 16" fill="none" xmlns="http://www.w3.org/2000/svg">
<g clip-path="url(#clip0_7199_53262)">
<path fill-rule="evenodd" clip-rule="evenodd" d="M15 8C15 11.3137 12.3137 14 9 14C8.57506 14 8.16044 13.9558 7.76048 13.8718L8.8199 12.974C8.88248 12.9916 8.94274 13 9 13C9.37372 13 9.87543 12.6439 10.3126 11.6822C10.4073 11.4738 10.4945 11.2455 10.5727 11H9.41292C9.28831 10.6499 9.12912 10.3151 8.93866 10H10.8213C10.9356 9.3892 11 8.71396 11 8C11 7.28604 10.9356 6.6108 10.8213 6H7.17866C7.06438 6.6108 7 7.28604 7 8C7 8.03135 7.00012 8.06262 7.00037 8.09382C6.68382 7.9096 6.35032 7.7579 6.00505 7.64054C6.02112 7.07015 6.07525 6.51917 6.16299 6H4.41604C4.22895 6.42821 4.1001 6.88769 4.03951 7.36842C3.68793 7.39744 3.34551 7.46445 3.01547 7.56582C3.23793 4.45479 5.83229 2 9 2C12.3137 2 15 4.68629 15 8ZM10.3126 4.31781C9.87543 3.35608 9.37372 3 9 3C8.62628 3 8.12457 3.35608 7.68742 4.31781C7.5927 4.52619 7.50552 4.75446 7.42735 5H10.5727C10.4945 4.75446 10.4073 4.52619 10.3126 4.31781ZM6.38411 5C6.49428 4.6038 6.62614 4.23601 6.77705 3.90401C6.85596 3.7304 6.94287 3.56117 7.03766 3.39978C6.22525 3.74677 5.52341 4.30269 4.99963 5H6.38411ZM13.0004 11H11.6159C11.5057 11.3962 11.3739 11.764 11.2229 12.096C11.144 12.2696 11.0571 12.4388 10.9623 12.6002C11.7747 12.2532 12.4766 11.6973 13.0004 11ZM11.837 10H13.584C13.8516 9.38754 14 8.7111 14 8C14 7.2889 13.8516 6.61246 13.584 6H11.837C11.9431 6.6275 12 7.30146 12 8C12 8.69854 11.9431 9.3725 11.837 10ZM13.0004 5C12.4766 4.30269 11.7747 3.74677 10.9623 3.39978C11.0571 3.56117 11.144 3.7304 11.2229 3.90401C11.3739 4.23601 11.5057 4.6038 11.6159 5H13.0004Z" fill="#202020"/>
<path d="M8.516 11.489L8.505 11.466C8.22481 10.5968 7.68473 9.83452 6.95765 9.28197C6.23056 8.72941 5.35147 8.4132 4.439 8.37601C1.992 8.37601 0 10.689 0 13.532C0 14.662 1.321 15.607 3.448 16L3.862 15.89L8.378 12.061L8.524 11.506L8.516 11.489ZM7.005 10.976C6.781 10.948 6.555 10.922 6.324 10.907C6.38385 10.8728 6.4468 10.8444 6.512 10.822C6.60044 10.8101 6.69042 10.8176 6.7756 10.8443C6.86079 10.8709 6.93909 10.9158 7.005 10.976ZM4.439 9.37601C5.03674 9.38179 5.61894 9.56714 6.11 9.90801C5.57856 10.1173 5.114 10.4671 4.766 10.92C3.57089 10.9542 2.39707 11.2448 1.324 11.772C1.53977 11.1043 1.95305 10.5178 2.50923 10.09C3.06541 9.66222 3.73831 9.41325 4.439 9.37601V9.37601ZM4.039 11.989C3.80088 12.4232 3.60015 12.8768 3.439 13.345C3.22582 12.9649 2.97272 12.6085 2.684 12.282C3.12719 12.146 3.58117 12.048 4.041 11.989H4.039ZM1 13.532C1 13.271 1.25 12.97 1.711 12.698C2.31991 13.2919 2.75492 14.0408 2.969 14.864C1.677 14.515 1 13.961 1 13.532ZM4.216 14.278C4.42703 13.428 4.78399 12.621 5.271 11.893C5.354 11.893 5.429 11.883 5.514 11.883C5.98852 11.8821 6.46257 11.9128 6.933 11.975L4.216 14.278Z" fill="#11910D"/>
</g>
<defs>
<clipPath id="clip0_7199_53262">
<rect width="16" height="16" fill="white"/>
</clipPath>
</defs>
</svg>
