<svg width="16" height="16" viewBox="0 0 16 16" fill="none" xmlns="http://www.w3.org/2000/svg">
<path d="M11 3C11.552 3 12 2.552 12 2C12 1.448 11.552 1 11 1C10.448 1 10 1.448 10 2C10 2.552 10.448 3 11 3Z" fill="#006CBF"/>
<path d="M12 5C12 4.448 12.448 4 13 4C13.552 4 14 4.448 14 5C14 5.552 13.552 6 13 6C12.448 6 12 5.552 12 5Z" fill="#006CBF"/>
<path d="M1.5 1C1.776 1 2 1.224 2 1.5V3.5C2 3.776 1.776 4 1.5 4C1.224 4 1 3.776 1 3.5V1.5C1 1.224 1.224 1 1.5 1Z" fill="#202020"/>
<path d="M1.5 5C1.776 5 2 5.224 2 5.5V7.5C2 7.776 1.776 8 1.5 8C1.224 8 1 7.776 1 7.5V5.5C1 5.224 1.224 5 1.5 5Z" fill="#202020"/>
<path d="M2 9.5C2 9.224 1.776 9 1.5 9C1.224 9 1 9.224 1 9.5V11.5C1 11.776 1.224 12 1.5 12C1.776 12 2 11.776 2 11.5V9.5Z" fill="#202020"/>
<path d="M1.5 13C1.776 13 2 13.224 2 13.5V14H2.5C2.776 14 3 14.224 3 14.5C3 14.776 2.776 15 2.5 15H1.5C1.224 15 1 14.776 1 14.5V13.5C1 13.224 1.224 13 1.5 13Z" fill="#202020"/>
<path d="M4.5 14C4.224 14 4 14.224 4 14.5C4 14.776 4.224 15 4.5 15H6.5C6.72879 15 6.92184 14.8461 6.9812 14.6362C6.84271 14.437 6.71706 14.2283 6.60543 14.0112C6.57143 14.0038 6.53616 14 6.5 14H4.5Z" fill="#202020"/>
<path d="M6.20703 10H5.52898C5.52135 10 5.51461 9.99792 5.50796 9.99586C5.5024 9.99415 5.4969 9.99245 5.49098 9.99199L3.93498 12.746C3.79798 12.987 3.49098 13.069 3.25298 12.935C3.01298 12.799 2.92798 12.494 3.06398 12.254L8.15098 3.254C8.25398 3.073 8.45898 2.977 8.66298 3.006C8.86798 3.038 9.03298 3.193 9.07598 3.396L9.69397 6.30339C9.36827 6.41657 9.05649 6.55951 8.76189 6.72895L8.37198 4.896L6.05198 9H6.59971C6.43777 9.31679 6.30564 9.65135 6.20703 10Z" fill="#202020"/>
<path fill-rule="evenodd" clip-rule="evenodd" d="M11.5 16C13.9853 16 16 13.9853 16 11.5C16 9.01472 13.9853 7 11.5 7C9.01472 7 7 9.01472 7 11.5C7 13.9853 9.01472 16 11.5 16ZM13.3536 10.3536C13.5488 10.1583 13.5488 9.84171 13.3536 9.64645C13.1583 9.45118 12.8417 9.45118 12.6464 9.64645L11.5 10.7929L10.3536 9.64645C10.1583 9.45118 9.84171 9.45118 9.64645 9.64645C9.45118 9.84171 9.45118 10.1583 9.64645 10.3536L10.7929 11.5L9.64645 12.6464C9.45118 12.8417 9.45118 13.1583 9.64645 13.3536C9.84171 13.5488 10.1583 13.5488 10.3536 13.3536L11.5 12.2071L12.6464 13.3536C12.8417 13.5488 13.1583 13.5488 13.3536 13.3536C13.5488 13.1583 13.5488 12.8417 13.3536 12.6464L12.2071 11.5L13.3536 10.3536Z" fill="#C50F1F"/>
</svg>
