<svg width="16" height="16" viewBox="0 0 16 16" fill="none" xmlns="http://www.w3.org/2000/svg">
<path d="M7 7.5C7 8.32843 6.32843 9 5.5 9C4.67157 9 4 8.32843 4 7.5C4 6.67157 4.67157 6 5.5 6C6.32843 6 7 6.67157 7 7.5Z" fill="#11910D"/>
<path fill-rule="evenodd" clip-rule="evenodd" d="M8.82508 4.46782L11.2929 2H10.5C10.2239 2 10 1.77614 10 1.5C10 1.22386 10.2239 1 10.5 1H12.4999C12.5677 1 12.6324 1.01349 12.6914 1.03794C12.7504 1.06234 12.8056 1.09851 12.8536 1.14645C12.9015 1.19439 12.9377 1.24964 12.9621 1.30861C12.9842 1.36223 12.9967 1.41893 12.9994 1.47601C12.9998 1.484 13 1.492 13 1.5V3.5C13 3.77614 12.7761 4 12.5 4C12.2239 4 12 3.77614 12 3.5V2.70711L9.4195 5.28761C9.71139 5.80363 9.90433 6.38302 9.97254 7H13.2929L12.6464 6.35355C12.4512 6.15829 12.4512 5.84171 12.6464 5.64645C12.8417 5.45118 13.1583 5.45118 13.3536 5.64645L14.8536 7.14645C15.0488 7.34171 15.0488 7.65829 14.8536 7.85355L13.3536 9.35355C13.1583 9.54882 12.8417 9.54882 12.6464 9.35355C12.4512 9.15829 12.4512 8.84171 12.6464 8.64645L13.2929 8H9.97254C9.90433 8.61698 9.71139 9.19637 9.4195 9.71239L12 12.2929V11.5C12 11.2239 12.2239 11 12.5 11C12.7761 11 13 11.2239 13 11.5V13.4995C13 13.5075 12.9998 13.516 12.9994 13.524C12.9967 13.5811 12.9842 13.6378 12.9621 13.6914C12.9377 13.7504 12.9015 13.8056 12.8536 13.8536C12.8056 13.9015 12.7504 13.9377 12.6914 13.9621C12.6333 13.9861 12.5697 13.9996 12.503 14L12.5 14H10.5C10.2239 14 10 13.7761 10 13.5C10 13.2239 10.2239 13 10.5 13H11.2929L8.82508 10.5322C8.00213 11.4341 6.81715 12 5.5 12C3.01472 12 1 9.98528 1 7.5C1 5.01472 3.01472 3 5.5 3C6.81715 3 8.00213 3.56589 8.82508 4.46782ZM2 7.5C2 5.567 3.567 4 5.5 4C7.433 4 9 5.567 9 7.5C9 9.433 7.433 11 5.5 11C3.567 11 2 9.433 2 7.5Z" fill="#11910D"/>
</svg>
