<svg width="16" height="16" viewBox="0 0 16 16" fill="none" xmlns="http://www.w3.org/2000/svg">
<g clip-path="url(#clip0_7199_53432)">
<path fill-rule="evenodd" clip-rule="evenodd" d="M9.99999 4.5C9.99999 5.32843 10.6716 6 11.5 6H14V13C14 13.5523 13.5523 14 13 14H7.74469C7.61934 14.356 7.45049 14.6915 7.24457 15H13C14.1046 15 15 14.1046 15 13V5.41421C15 5.01639 14.842 4.63486 14.5606 4.35355L11.6464 1.43934C11.3651 1.15804 10.9836 1 10.5858 1H8.74282C8.99645 1.30711 9.21738 1.64222 9.40028 2H9.99999V4.5ZM11.5 5H13.7929L11 2.20711V4.5C11 4.77614 11.2238 5 11.5 5Z" fill="#202020"/>
<path d="M5.77754 9.85085C5.36757 9.94837 4.93981 9.99999 4.5 9.99999C3.58443 9.99999 2.7211 9.77628 1.96172 9.38052C1.61993 9.54281 1.30304 9.75956 1.02445 10.0254C0.368035 10.6818 -0.000732429 11.5721 -0.000732422 12.5004C-0.000732415 13.4287 0.368035 14.319 1.02445 14.9754C1.68086 15.6318 2.57114 16.0006 3.49945 16.0006C4.42775 16.0006 5.31804 15.6318 5.97445 14.9754C6.06553 14.8811 6.11592 14.7548 6.11478 14.6237C6.11364 14.4926 6.06106 14.3672 5.96836 14.2745C5.87565 14.1818 5.75024 14.1292 5.61915 14.1281C5.48805 14.1269 5.36175 14.1773 5.26745 14.2684C4.79095 14.7228 4.15783 14.9762 3.49945 14.9762C2.84106 14.9762 2.20794 14.7228 1.73145 14.2684C1.49923 14.0363 1.31502 13.7606 1.18934 13.4573C1.06367 13.1539 0.99898 12.8288 0.99898 12.5004C0.99898 12.1721 1.06367 11.8469 1.18934 11.5436C1.31502 11.2402 1.49923 10.9646 1.73145 10.7324C2.20782 10.2778 2.84099 10.0242 3.49945 10.0242C4.15791 10.0242 4.79107 10.2778 5.26745 10.7324C5.35114 10.8157 5.42868 10.9049 5.49945 10.9994H4.49945C4.36684 10.9994 4.23966 11.0521 4.14589 11.1459C4.05212 11.2396 3.99945 11.3668 3.99945 11.4994C3.99945 11.632 4.05212 11.7592 4.14589 11.853C4.23966 11.9467 4.36684 11.9994 4.49945 11.9994H6.49945C6.63205 11.9994 6.75923 11.9467 6.853 11.853C6.94677 11.7592 6.99945 11.632 6.99945 11.4994V9.49941C6.99945 9.46755 6.9964 9.43599 6.99048 9.40514C6.67634 9.56496 6.34479 9.69548 5.99945 9.79312V10.0514L5.97445 10.0254C5.91076 9.96464 5.84507 9.90643 5.77754 9.85085Z" fill="#11910D"/>
<path fill-rule="evenodd" clip-rule="evenodd" d="M9 4.5C9 6.98528 6.98528 9 4.5 9C2.01472 9 0 6.98528 0 4.5C0 2.01472 2.01472 0 4.5 0C6.98528 0 9 2.01472 9 4.5ZM4.5 2C4.77614 2 5 2.22386 5 2.5V4H6.5C6.77614 4 7 4.22386 7 4.5C7 4.77614 6.77614 5 6.5 5H5V6.5C5 6.77614 4.77614 7 4.5 7C4.22386 7 4 6.77614 4 6.5V5H2.5C2.22386 5 2 4.77614 2 4.5C2 4.22386 2.22386 4 2.5 4H4V2.5C4 2.22386 4.22386 2 4.5 2Z" fill="#11910D"/>
</g>
<defs>
<clipPath id="clip0_7199_53432">
<rect width="16" height="16" fill="white"/>
</clipPath>
</defs>
</svg>
