<svg width="16" height="16" viewBox="0 0 16 16" fill="none" xmlns="http://www.w3.org/2000/svg">
<path d="M2.24895 2C1.55917 2 1 2.55938 1 3.24941V9.63141C1.11143 9.5322 1.23726 9.44984 1.37353 9.38731C1.56983 9.29722 1.78319 9.2504 1.99916 9.25V3.24941C1.99916 3.11141 2.11099 2.99953 2.24895 2.99953H2.74852C2.88648 2.99953 2.99831 3.11141 2.99831 3.24941V9.62756C3.12303 9.7375 3.22826 9.86782 3.3095 10.013C3.3731 10.0041 3.43726 9.99975 3.50148 10H3.99747V3.24941C3.99747 2.55938 3.4383 2 2.74852 2H2.24895Z" fill="#202020"/>
<path d="M7.9941 9.62323V3.24941C7.9941 2.55938 7.43492 2 6.74515 2H6.24557C5.5558 2 4.99663 2.55938 4.99663 3.24941V10H5.50123C5.56571 9.99879 5.63019 10.0021 5.6942 10.01C5.77429 9.86999 5.87611 9.7437 5.99578 9.63581V3.24941C5.99578 3.11141 6.10762 2.99953 6.24557 2.99953H6.74515C6.88311 2.99953 6.99494 3.11141 6.99494 3.24941V9.24822C7.03514 9.24803 7.07548 9.24946 7.11586 9.25253C7.44297 9.27743 7.75086 9.40867 7.9941 9.62323Z" fill="#202020"/>
<path fill-rule="evenodd" clip-rule="evenodd" d="M10.4011 4.06385C11.0311 3.84331 11.7231 4.15733 11.9723 4.77682L14.9093 12.0802C15.1752 12.7412 14.8355 13.4904 14.1632 13.7258L13.581 13.9296C12.9509 14.1502 12.2589 13.8361 12.0098 13.2166L9.07268 5.91326C8.80684 5.25222 9.14658 4.50297 9.81888 4.26764L10.4011 4.06385ZM11.0453 5.14988C10.9955 5.02598 10.8571 4.96318 10.7311 5.00729L10.1489 5.21108C10.0144 5.25815 9.94647 5.40799 9.99964 5.5402L12.9367 12.8436C12.9865 12.9675 13.1249 13.0303 13.251 12.9862L13.8332 12.7823C13.9676 12.7353 14.0356 12.5854 13.9824 12.4532L11.0453 5.14988Z" fill="#202020"/>
<path fill-rule="evenodd" clip-rule="evenodd" d="M2.32706 10.3704C2.53669 10.5501 2.56097 10.8657 2.38128 11.0754L1.16035 12.5L2.38128 13.9246C2.56097 14.1343 2.53669 14.4499 2.32706 14.6296C2.11742 14.8093 1.80181 14.7851 1.62212 14.5754L0.12231 12.8254C-0.0381658 12.6382 -0.0381658 12.3619 0.12231 12.1746L1.62212 10.4246C1.80181 10.215 2.11742 10.1907 2.32706 10.3704Z" fill="#11910D"/>
<path fill-rule="evenodd" clip-rule="evenodd" d="M6.67572 10.3704C6.88536 10.1907 7.20097 10.215 7.38066 10.4246L8.88047 12.1746C9.04095 12.3619 9.04095 12.6382 8.88047 12.8254L7.38066 14.5754C7.20097 14.7851 6.88536 14.8093 6.67572 14.6296C6.46609 14.4499 6.44181 14.1343 6.6215 13.9246L7.84243 12.5L6.6215 11.0754C6.44181 10.8657 6.46609 10.5501 6.67572 10.3704Z" fill="#11910D"/>
<path d="M6.00157 11.5V13.5C6.00157 13.6326 5.94889 13.7598 5.85512 13.8536C5.76136 13.9473 5.63418 14 5.50157 14H3.50157C3.36896 14 3.24179 13.9473 3.14802 13.8536C3.05425 13.7598 3.00157 13.6326 3.00157 13.5V11.5C3.00157 11.3674 3.05425 11.2402 3.14802 11.1464C3.24179 11.0527 3.36896 11 3.50157 11H5.50157C5.63418 11 5.76136 11.0527 5.85512 11.1464C5.94889 11.2402 6.00157 11.3674 6.00157 11.5Z" fill="#11910D"/>
</svg>
