<svg width="16" height="16" viewBox="0 0 16 16" fill="none" xmlns="http://www.w3.org/2000/svg">
<path d="M3.99905 12H12.292L11.145 10.854C11.051 10.76 10.998 10.633 10.998 10.5C10.998 10.367 11.051 10.24 11.145 10.146C11.239 10.052 11.366 9.99902 11.499 9.99902C11.632 9.99902 11.759 10.052 11.853 10.146L13.853 12.146C13.9 12.192 13.936 12.248 13.962 12.308C13.987 12.369 14 12.434 14 12.5C14 12.566 13.987 12.631 13.962 12.692C13.937 12.753 13.9 12.808 13.853 12.854L11.853 14.854C11.806 14.901 11.751 14.937 11.691 14.962C11.63 14.987 11.565 15 11.499 15C11.433 15 11.368 14.987 11.307 14.962C11.246 14.937 11.191 14.9 11.145 14.854C11.099 14.808 11.062 14.752 11.037 14.692C11.012 14.631 10.999 14.566 10.999 14.5C10.999 14.434 11.012 14.369 11.037 14.308C11.062 14.247 11.099 14.192 11.145 14.146L12.292 13H3.49905C3.36605 13 3.23905 12.947 3.14505 12.854C3.05105 12.76 2.99905 12.633 2.99905 12.5V3.70702L1.85305 4.85402C1.75905 4.94802 1.63205 5.00102 1.49905 5.00102C1.36605 5.00102 1.23905 4.94802 1.14505 4.85402C1.05105 4.76002 0.998047 4.63302 0.998047 4.50002C0.998047 4.36702 1.05105 4.24002 1.14505 4.14602L3.14505 2.14602C3.19105 2.09902 3.24705 2.06302 3.30705 2.03702C3.36805 2.01202 3.43305 1.99902 3.49905 1.99902C3.56505 1.99902 3.63005 2.01202 3.69105 2.03702C3.75205 2.06202 3.80705 2.09902 3.85305 2.14602L5.85305 4.14602C5.94705 4.24002 6.00005 4.36702 6.00005 4.50002C6.00005 4.63302 5.94705 4.76002 5.85305 4.85402C5.75905 4.94802 5.63205 5.00102 5.49905 5.00102C5.36605 5.00102 5.23905 4.94802 5.14505 4.85402L3.99905 3.70702" fill="#202020"/>
<path d="M7.5 9C7.224 9 7 8.776 7 8.5V6.5C7 6.224 7.224 6 7.5 6C7.776 6 8 6.224 8 6.5V8.5C8 8.776 7.776 9 7.5 9ZM11 8.5V4.5C11 4.224 10.776 4 10.5 4C10.224 4 10 4.224 10 4.5V8.5C10 8.776 10.224 9 10.5 9C10.776 9 11 8.776 11 8.5ZM14 8.5V2.5C14 2.224 13.776 2 13.5 2C13.224 2 13 2.224 13 2.5V8.5C13 8.776 13.224 9 13.5 9C13.776 9 14 8.776 14 8.5Z" fill="#202020"/>
</svg>
