<svg width="16" height="16" viewBox="0 0 16 16" fill="none" xmlns="http://www.w3.org/2000/svg">
<path d="M4.04031 5.30305C4.14909 5.04923 4.44303 4.93166 4.69684 5.04043L7.99988 6.45602L11.3029 5.04043C11.5567 4.93166 11.8507 5.04923 11.9595 5.30305C12.0682 5.55686 11.9507 5.8508 11.6968 5.95958L8.49988 7.3297V10.5C8.49988 10.7761 8.27603 11 7.99988 11C7.72374 11 7.49988 10.7761 7.49988 10.5V7.3297L4.30292 5.95958C4.04911 5.8508 3.93153 5.55686 4.04031 5.30305Z" fill="#5C2E91"/>
<path d="M6.92306 1.37855C7.61627 1.11193 8.38373 1.11193 9.07694 1.37855L14.0385 3.28683C14.6178 3.50964 15 4.06619 15 4.68685V11.3133C15 11.9339 14.6178 12.4905 14.0385 12.7133L9.07694 14.6216C8.38373 14.8882 7.61627 14.8882 6.92306 14.6216L5 13.8819V12.8105L7.28204 13.6882C7.74418 13.866 8.25582 13.866 8.71796 13.6882L13.6795 11.7799C13.8726 11.7057 14 11.5201 14 11.3133V4.68685C14 4.47997 13.8726 4.29445 13.6795 4.22018L8.71796 2.3119C8.25582 2.13415 7.74418 2.13415 7.28204 2.3119L2.32051 4.22018C2.12741 4.29445 2 4.47997 2 4.68685V7.03588C1.65221 7.08608 1.31521 7.18821 1 7.33772V4.68685C1 4.06619 1.38224 3.50964 1.96153 3.28683L6.92306 1.37855Z" fill="#5C2E91"/>
<path d="M2.5 8C1.83696 8 1.20107 8.26339 0.732233 8.73223C0.263392 9.20107 0 9.83696 0 10.5C0 10.7761 0.223858 11 0.5 11C0.776142 11 1 10.7761 1 10.5C1 10.3674 1.05268 10.2402 1.14645 10.1464C1.24021 10.0527 1.36739 10 1.5 10H2.5V11.134C2.42495 11.1773 2.35523 11.2306 2.29289 11.2929C2.10536 11.4804 2 11.7348 2 12V15.25C2 15.4489 2.07902 15.6397 2.21967 15.7803C2.36032 15.921 2.55109 16 2.75 16H3.25C3.44891 16 3.63968 15.921 3.78033 15.7803C3.92098 15.6397 4 15.4489 4 15.25V12C4 11.7348 3.89464 11.4804 3.70711 11.2929C3.64477 11.2306 3.57505 11.1773 3.5 11.134V10H3.75C4.01522 10 4.26957 9.89464 4.45711 9.70711C4.47192 9.69229 4.48622 9.67706 4.5 9.66144C4.51378 9.67706 4.52808 9.69229 4.54289 9.70711C4.73043 9.89464 4.98478 10 5.25 10H5.5C5.77614 10 6 9.77614 6 9.5V8.5C6 8.22386 5.77614 8 5.5 8H5.25C4.98478 8 4.73043 8.10536 4.54289 8.29289C4.52808 8.30771 4.51378 8.32294 4.5 8.33856C4.48622 8.32294 4.47192 8.30771 4.45711 8.29289C4.26957 8.10536 4.01522 8 3.75 8H2.5Z" fill="#202020"/>
</svg>
