<svg width="16" height="16" viewBox="0 0 16 16" fill="none" xmlns="http://www.w3.org/2000/svg">
<path fill-rule="evenodd" clip-rule="evenodd" d="M2.355 5L4.294 6.939C4.587 7.232 4.733 7.616 4.733 8C4.733 8.384 4.587 8.768 4.294 9.061L2.355 11H10.793C11.058 11 11.313 10.895 11.5 10.707L13.853 8.353C13.951 8.255 13.999 8.127 13.999 7.999C13.999 7.871 13.95 7.743 13.853 7.645L11.5 5.291C11.312 5.103 11.058 4.998 10.793 4.998H2.355V5ZM1.221 5.28C1.068 5.128 1 4.94 1 4.755C1 4.37 1.299 4 1.752 4H10.793C11.323 4 11.832 4.211 12.207 4.586L14.561 6.94C14.854 7.233 15 7.617 15 8.001C15 8.385 14.854 8.769 14.561 9.062L12.207 11.416C11.832 11.791 11.323 12.002 10.793 12.002H1.752C1.3 12.002 1 11.632 1 11.247C1 11.063 1.068 10.875 1.221 10.722L3.587 8.356C3.685 8.258 3.733 8.13 3.733 8.002C3.733 7.874 3.684 7.746 3.587 7.648L1.221 5.28Z" fill="#202020"/>
</svg>
