<svg width="16" height="16" viewBox="0 0 16 16" fill="none" xmlns="http://www.w3.org/2000/svg">
<path d="M15.63 7.12001L12.88 4.37001C12.41 3.89001 11.59 3.89001 11.12 4.37001L10 5.49001L8.88 4.37001C8.41 3.89001 7.59 3.89001 7.12 4.37001L6 5.49001L4.88 4.37001C4.41 3.89001 3.59 3.89001 3.12 4.37001L0.37 7.12001C0.13 7.35001 0 7.67001 0 8.00001C0 8.33001 0.13 8.65001 0.37 8.88001L3.12 11.63C3.35 11.87 3.67 12 4 12C4.33 12 4.65 11.87 4.88 11.63L6 10.51L7.12 11.63C7.35 11.87 7.67 12 8 12C8.33 12 8.65 11.87 8.88 11.63L10 10.51L11.12 11.63C11.35 11.87 11.67 12 12 12C12.33 12 12.65 11.87 12.88 11.63L15.63 8.88001C15.87 8.65001 16 8.33001 16 8.00001C16 7.67001 15.87 7.35001 15.63 7.12001ZM4.18 10.93C4.12 10.98 3.88 10.98 3.82 10.93L1.07 8.18001C1.05 8.15001 1 8.09001 1 8.00001C1 7.91001 1.05 7.85001 1.07 7.82001L3.82 5.07001C3.85 5.05001 3.91 5.00001 4 5.00001C4.09 5.00001 4.15 5.05001 4.18 5.07001L6.93 7.82001C6.95 7.85001 7 7.91001 7 8.00001C7 8.09001 6.95 8.15001 6.93 8.18001L4.18 10.93ZM8.18 10.93C8.12 10.98 7.88 10.98 7.82 10.93L6.7 9.81001L7.63 8.88001C7.87 8.65001 8 8.33001 8 8.00001C8 7.67001 7.87 7.35001 7.63 7.12001L6.7 6.19001L7.82 5.07001C7.85 5.05001 7.91 5.00001 8 5.00001C8.09 5.00001 8.15 5.05001 8.18 5.07001L10.93 7.82001C10.95 7.85001 11 7.91001 11 8.00001C11 8.09001 10.95 8.15001 10.93 8.18001L8.18 10.93ZM14.93 8.18001L12.18 10.93C12.12 10.98 11.88 10.98 11.82 10.93L10.7 9.81001L11.63 8.88001C11.87 8.65001 12 8.33001 12 8.00001C12 7.67001 11.87 7.35001 11.63 7.12001L10.7 6.19001L11.82 5.07001C11.85 5.05001 11.91 5.00001 12 5.00001C12.09 5.00001 12.15 5.05001 12.18 5.07001L14.93 7.82001C14.95 7.85001 15 7.91001 15 8.00001C15 8.09001 14.95 8.15001 14.93 8.18001Z" fill="#B27C00"/>
</svg>
