<svg width="16" height="16" viewBox="0 0 16 16" fill="none" xmlns="http://www.w3.org/2000/svg">
<path d="M3 3.75C3 3.336 3.336 3 3.75 3H5.5C5.776 3 6 2.776 6 2.5C6 2.224 5.776 2 5.5 2H3.75C2.783 2 2 2.783 2 3.75V5.5C2 5.776 2.224 6 2.5 6C2.776 6 3 5.776 3 5.5V3.75Z" fill="#202020"/>
<path d="M10.5 2C10.224 2 10 2.224 10 2.5C10 2.776 10.224 3 10.5 3H12.25C12.664 3 13 3.336 13 3.75V5.5C13 5.776 13.224 6 13.5 6C13.776 6 14 5.776 14 5.5V3.75C14 2.783 13.217 2 12.25 2H10.5Z" fill="#202020"/>
<path d="M3 10.5C3 10.224 2.776 10 2.5 10C2.224 10 2 10.224 2 10.5V12.25C2 13.217 2.783 14 3.75 14H5.5C5.776 14 6 13.776 6 13.5C6 13.224 5.776 13 5.5 13H3.75C3.336 13 3 12.664 3 12.25V10.5Z" fill="#202020"/>
<path d="M14 10.5C14 10.224 13.776 10 13.5 10C13.224 10 13 10.224 13 10.5V12.25C13 12.664 12.664 13 12.25 13H10.5C10.224 13 10 13.224 10 13.5C10 13.776 10.224 14 10.5 14H12.25C13.217 14 14 13.217 14 12.25V10.5Z" fill="#202020"/>
<path fill-rule="evenodd" clip-rule="evenodd" d="M10.975 6.37302C10.98 6.39502 10.984 6.41402 10.987 6.43602L10.988 6.43502C10.9892 6.4442 10.9917 6.45303 10.9942 6.46181C10.9976 6.47406 11.001 6.4862 11.001 6.49902V10.999C11.001 11.55 10.552 11.999 10.001 11.999H6.00098C5.44998 11.999 5.00098 11.55 5.00098 10.999V4.99902C5.00098 4.44802 5.44998 3.99902 6.00098 3.99902H8.50098C8.5138 3.99902 8.52594 4.00242 8.53819 4.00585C8.54697 4.0083 8.5558 4.01077 8.56498 4.01202C8.58698 4.01502 8.60598 4.01902 8.62798 4.02502C8.71198 4.04702 8.79098 4.08302 8.85398 4.14602L10.854 6.14602C10.916 6.20902 10.952 6.28902 10.975 6.37302ZM5.99998 5.00002V11H9.99998V7.00002H8.49998C8.22398 7.00002 7.99998 6.77602 7.99998 6.50002V5.00002H5.99998Z" fill="#202020"/>
</svg>
