<svg width="16" height="16" viewBox="0 0 16 16" fill="none" xmlns="http://www.w3.org/2000/svg">
<g clip-path="url(#clip0_7199_55802)">
<path d="M4.5 2C3.11929 2 2 3.11929 2 4.5V11.5C2 12.8807 3.11929 14 4.5 14H7.28811L7.34103 13.7862C7.40933 13.5129 7.50766 13.2493 7.63347 13H4.5C3.67157 13 3 12.3284 3 11.5V4.5C3 3.67157 3.67157 3 4.5 3H11.5C12.3284 3 13 3.67157 13 4.5V7.43299C13.3008 7.22975 13.6418 7.09263 14 7.03109V4.5C14 3.11929 12.8807 2 11.5 2H4.5Z" fill="#202020"/>
<path d="M15.5449 8.45396C15.2519 8.16162 14.8549 7.99744 14.4409 7.99744C14.027 7.99744 13.63 8.16162 13.3369 8.45396L9.04895 12.7414C8.69299 13.0975 8.44065 13.5437 8.31895 14.0323L8.01895 15.2431C7.99361 15.3452 7.99509 15.452 8.02324 15.5534C8.0514 15.6547 8.10528 15.747 8.17964 15.8213C8.25401 15.8957 8.34633 15.9496 8.44766 15.9777C8.54899 16.0059 8.65588 16.0074 8.75795 15.982L9.96895 15.6821C10.4572 15.5598 10.9031 15.3071 11.2589 14.9512L15.5479 10.6637C15.6931 10.5185 15.8081 10.3461 15.8865 10.1564C15.9649 9.96675 16.0051 9.76346 16.0049 9.5582C16.0046 9.35295 15.9638 9.14976 15.8849 8.96028C15.806 8.7708 15.6905 8.59875 15.5449 8.45396V8.45396Z" fill="#006CBF"/>
</g>
<defs>
<clipPath id="clip0_7199_55802">
<rect width="16" height="16" fill="white"/>
</clipPath>
</defs>
</svg>
