<svg width="16" height="16" viewBox="0 0 16 16" fill="none" xmlns="http://www.w3.org/2000/svg">
<g clip-path="url(#clip0_7199_55786)">
<path fill-rule="evenodd" clip-rule="evenodd" d="M1.58579 1.58579C1.96086 1.21071 2.46957 1 3 1H6.586C6.98355 1.00008 7.3648 1.15798 7.646 1.439L10.561 4.354C10.842 4.6352 10.9999 5.01645 11 5.414V9.36643L10 10.3661V6H7.5C7.10218 6 6.72064 5.84196 6.43934 5.56066C6.15804 5.27936 6 4.89782 6 4.5V2H3C2.73478 2 2.48043 2.10536 2.29289 2.29289C2.10536 2.48043 2 2.73478 2 3V13C2 13.2652 2.10536 13.5196 2.29289 13.7071C2.48043 13.8946 2.73478 14 3 14H7.28811L7.04103 14.9981L7.04055 15H3C2.46957 15 1.96086 14.7893 1.58579 14.4142C1.21071 14.0391 1 13.5304 1 13V3C1 2.46957 1.21071 1.96086 1.58579 1.58579ZM7.5 5H9.793L7 2.207V4.5C7 4.63261 7.05268 4.75979 7.14645 4.85355C7.24021 4.94732 7.36739 5 7.5 5Z" fill="#202020"/>
<path fill-rule="evenodd" clip-rule="evenodd" d="M9.00004 11.3657V7.50004C9.00004 7.2818 8.8585 7.08878 8.65036 7.02317C8.44222 6.95756 8.21558 7.03452 8.09043 7.21331L4.59043 12.2133C4.43207 12.4395 4.48709 12.7513 4.71331 12.9097C4.93954 13.068 5.2513 13.013 5.40966 12.7868L5.96037 12H8.00004V12.4139C8.10204 12.2799 8.21322 12.1524 8.33303 12.0324L9.00004 11.3657ZM8.00004 9.08622V11H6.66037L8.00004 9.08622Z" fill="#202020"/>
<path d="M15.5449 8.45396C15.2519 8.16162 14.8549 7.99744 14.4409 7.99744C14.027 7.99744 13.63 8.16162 13.3369 8.45396L9.04895 12.7414C8.69299 13.0975 8.44065 13.5437 8.31895 14.0323L8.01895 15.2431C7.99361 15.3452 7.99509 15.452 8.02324 15.5534C8.0514 15.6547 8.10528 15.747 8.17964 15.8213C8.25401 15.8957 8.34633 15.9496 8.44766 15.9777C8.54899 16.0059 8.65588 16.0074 8.75795 15.982L9.96895 15.6821C10.4572 15.5598 10.9031 15.3071 11.2589 14.9512L15.5479 10.6637C15.6931 10.5185 15.8081 10.3461 15.8865 10.1564C15.9649 9.96675 16.0051 9.76346 16.0049 9.5582C16.0046 9.35295 15.9638 9.14976 15.8849 8.96028C15.806 8.7708 15.6905 8.59875 15.5449 8.45396V8.45396Z" fill="#006CBF"/>
</g>
<defs>
<clipPath id="clip0_7199_55786">
<rect width="16" height="16" fill="white"/>
</clipPath>
</defs>
</svg>
