<svg width="16" height="16" viewBox="0 0 16 16" fill="none" xmlns="http://www.w3.org/2000/svg">
<path fill-rule="evenodd" clip-rule="evenodd" d="M12 8V9.092C12.581 9.299 13 9.849 13 10.5C13 11.327 12.327 12 11.5 12C10.673 12 10 11.327 10 10.5C10 9.849 10.419 9.299 11 9.092V8H8V9.092C8.581 9.299 9 9.849 9 10.5C9 11.327 8.327 12 7.5 12C7.32477 12 7.15646 11.9698 7 11.9143V10.5C7 10.776 7.224 11 7.5 11C7.776 11 8 10.776 8 10.5C8 10.224 7.776 10 7.5 10C7.224 10 7 10.224 7 10.5V8C7 7.449 7.449 7 8 7H9V5.908C8.419 5.701 8 5.151 8 4.5C8 3.673 8.673 3 9.5 3C10.327 3 11 3.673 11 4.5C11 5.151 10.581 5.701 10 5.908V7H11C11.551 7 12 7.449 12 8ZM10 4.5C10 4.224 9.776 4 9.5 4C9.224 4 9 4.224 9 4.5C9 4.776 9.224 5 9.5 5C9.776 5 10 4.776 10 4.5ZM11 10.5C11 10.776 11.224 11 11.5 11C11.776 11 12 10.776 12 10.5C12 10.224 11.776 10 11.5 10C11.224 10 11 10.224 11 10.5Z" fill="#202020"/>
<path d="M7 13V14H14C15.103 14 16 13.103 16 12V3C16 1.897 15.103 1 14 1H5C3.897 1 3 1.897 3 3V6C3.13 6 3.26 6 3.387 6.011C3.59791 6.02254 3.80252 6.043 4 6.07183V3C4 2.449 4.449 2 5 2H14C14.551 2 15 2.449 15 3V12C15 12.551 14.551 13 14 13H7Z" fill="#202020"/>
<path d="M6 8.5C6 7.728 4.833 7.092 3.333 7.009C3.22367 7.003 3.11267 7 3 7C2.88733 7 2.77633 7.003 2.667 7.009C2.4707 7.01979 2.27511 7.04082 2.081 7.072C1.82712 7.1117 1.57694 7.17223 1.333 7.253C0.529 7.522 0 7.98 0 8.5C0 9.328 1.343 10 3 10C4.657 10 6 9.328 6 8.5ZM6 10.2V14.5C6 15.328 4.657 16 3 16C1.343 16 0 15.328 0 14.5V10.2C0.896699 10.7625 1.94228 11.0413 3 11C4.05772 11.0413 5.1033 10.7625 6 10.2V10.2Z" fill="#3487C7"/>
</svg>
