<svg width="16" height="16" viewBox="0 0 16 16" fill="none" xmlns="http://www.w3.org/2000/svg">
<path d="M11.5 5H8.5C8.36739 5 8.24021 4.94732 8.14645 4.85355C8.05268 4.75979 8 4.63261 8 4.5C8 4.36739 8.05268 4.24021 8.14645 4.14645C8.24021 4.05268 8.36739 4 8.5 4H11.5C11.6326 4 11.7598 4.05268 11.8536 4.14645C11.9473 4.24021 12 4.36739 12 4.5C12 4.63261 11.9473 4.75979 11.8536 4.85355C11.7598 4.94732 11.6326 5 11.5 5Z" fill="#202020"/>
<path d="M9 11H11.5C11.6326 11 11.7598 10.9473 11.8536 10.8536C11.9473 10.7598 12 10.6326 12 10.5C12 10.3674 11.9473 10.2402 11.8536 10.1464C11.7598 10.0527 11.6326 10 11.5 10H9V11Z" fill="#202020"/>
<path d="M9 13V12H11.5C11.6326 12 11.7598 12.0527 11.8536 12.1464C11.9473 12.2402 12 12.3674 12 12.5C12 12.6326 11.9473 12.7598 11.8536 12.8536C11.7598 12.9473 11.6326 13 11.5 13H9Z" fill="#202020"/>
<path d="M8.99981 14H12C12.2652 14 12.5196 13.8946 12.7071 13.7071C12.8946 13.5196 13 13.2652 13 13V3C13 2.73478 12.8946 2.48043 12.7071 2.29289C12.5196 2.10536 12.2652 2 12 2H8C7.73478 2 7.48043 2.10536 7.29289 2.29289C7.10536 2.48043 7 2.73478 7 3V4.51205C6.69565 4.38812 6.36122 4.28493 6 4.20442V3C6 2.46957 6.21071 1.96086 6.58579 1.58579C6.96086 1.21071 7.46957 1 8 1H12C12.5304 1 13.0391 1.21071 13.4142 1.58579C13.7893 1.96086 14 2.46957 14 3V13C14 13.5304 13.7893 14.0391 13.4142 14.4142C13.0391 14.7893 12.5304 15 12 15H8.75968C8.9104 14.7026 8.99532 14.3697 8.99981 14Z" fill="#202020"/>
<path d="M0 6.9695V13.9695C0 15.2825 2.012 15.9695 4 15.9695C5.988 15.9695 8 15.2825 8 13.9695V6.9695C8 4.3435 0 4.3435 0 6.9695ZM4 5.9695C5.861 5.9695 7 6.6165 7 6.9695C7 7.3225 5.861 7.9695 4 7.9695C2.139 7.9695 1 7.3225 1 6.9695C1 6.6165 2.139 5.9695 4 5.9695ZM4 14.9695C2.139 14.9695 1 14.3225 1 13.9695V11.8215C1.771 12.2445 2.883 12.4695 4 12.4695C5.117 12.4695 6.229 12.2455 7 11.8215V13.9695C7 14.3225 5.861 14.9695 4 14.9695ZM4 11.4695C2.139 11.4695 1 10.8225 1 10.4695V8.3215C1.934 8.7735 2.963 8.9955 4 8.9695C5.037 8.9955 6.066 8.7735 7 8.3215V10.4695C7 10.8225 5.861 11.4695 4 11.4695Z" fill="#3487C7"/>
</svg>
