<svg width="16" height="16" viewBox="0 0 16 16" fill="none" xmlns="http://www.w3.org/2000/svg">
<path fill-rule="evenodd" clip-rule="evenodd" d="M4 3.5C4 2.075 6.149 1 9 1C11.851 1 14 2.075 14 3.5V12.5C14 13.925 11.851 15 9 15C8.65475 15 8.3198 14.9842 7.99771 14.954C7.99858 14.9291 7.99902 14.9041 7.99902 14.879C7.99902 14.598 7.94102 14.319 7.83102 14.063C7.81483 14.0129 7.79626 13.965 7.77645 13.9211C8.15334 13.9715 8.56248 14 9 14C11.441 14 13 13.111 13 12.5V5.021C11.7859 5.71872 10.3991 6.05816 9 6C7.60095 6.05816 6.21405 5.71872 5 5.021V7H4V3.5ZM13 3.5C13 2.888 11.441 2 9 2C6.558 2 5 2.888 5 3.5C5 4.112 6.559 5 9 5C11.441 5 13 4.112 13 3.5Z" fill="#3487C7"/>
<path d="M0.11 14.41C0.12 14.36 0.14 14.32 0.17 14.28L0.973 13H6.027L6.83 14.28C6.86 14.32 6.88 14.36 6.89 14.41C6.96 14.55 7 14.71 7 14.88C7 15.47 6.55 15.95 5.98 15.99C5.95 16 5.91 16 5.88 16H1.12C1.09 16 1.05 16 1.02 15.99C0.45 15.95 0 15.47 0 14.88C0 14.71 0.0399997 14.55 0.11 14.41Z" fill="#159195"/>
<path d="M5.5 9H5V11.2C5 11.3 5.03 11.4 5.08 11.49L5.4 12H1.6L1.92 11.49C1.97 11.4 2 11.3 2 11.2V9H1.5C1.224 9 1 8.776 1 8.5C1 8.224 1.224 8 1.5 8H5.5C5.776 8 6 8.224 6 8.5C6 8.776 5.776 9 5.5 9Z" fill="#202020"/>
</svg>
