<svg width="16" height="16" viewBox="0 0 16 16" fill="none" xmlns="http://www.w3.org/2000/svg">
<path fill-rule="evenodd" clip-rule="evenodd" d="M2 5.5C2 4.075 4.149 3 7 3C9.851 3 12 4.075 12 5.5V13.5C12 14.925 9.851 16 7 16C4.149 16 2 14.925 2 13.5V13H3V13.5C3 13.8672 3.56274 14.3348 4.54192 14.6495C4.65009 14.7415 4.77127 14.8176 4.90183 14.8751C5.09028 14.9581 5.29407 15.0007 5.5 15C5.64555 15.0018 5.79022 14.9815 5.92915 14.9401C6.26312 14.9786 6.62091 15 7 15C9.441 15 11 14.111 11 13.5V7.021C9.78595 7.71872 8.39905 8.05816 7 8C5.60095 8.05816 4.21405 7.71872 3 7.021V9.99997H2V5.5ZM11 5.5C11 4.888 9.441 4 7 4C4.558 4 3 4.888 3 5.5C3 6.112 4.559 7 7 7C9.441 7 11 6.112 11 5.5Z" fill="#3487C7"/>
<path d="M15.5 5C15.224 5 15 4.776 15 4.5C15 2.57 13.43 1 11.5 1C11.224 1 11 0.776 11 0.5C11 0.224 11.224 0 11.5 0C13.981 0 16 2.019 16 4.5C16 4.776 15.776 5 15.5 5Z" fill="#202020"/>
<path d="M13.5 5C13.224 5 13 4.776 13 4.5C13 3.673 12.327 3 11.5 3C11.224 3 11 2.776 11 2.5C11 2.224 11.224 2 11.5 2C12.878 2 14 3.122 14 4.5C14 4.776 13.776 5 13.5 5Z" fill="#202020"/>
<path d="M7.85 11.85L5.85 13.85C5.80488 13.8975 5.75059 13.9352 5.69042 13.9611C5.63026 13.9869 5.56547 14.0002 5.5 14.0002C5.43453 14.0002 5.36974 13.9869 5.30958 13.9611C5.24941 13.9352 5.19512 13.8975 5.15 13.85C5.10256 13.8049 5.06478 13.7506 5.03897 13.6905C5.01316 13.6303 4.99985 13.5655 4.99985 13.5C4.99985 13.4346 5.01316 13.3698 5.03897 13.3096C5.06478 13.2494 5.10256 13.1951 5.15 13.15L6.29 12H1.5C1.36739 12 1.24021 11.9473 1.14645 11.8536C1.05268 11.7598 1 11.6326 1 11.5C1 11.3674 1.05268 11.2402 1.14645 11.1465C1.24021 11.0527 1.36739 11 1.5 11H6.29L5.15 9.85003C5.10256 9.80491 5.06478 9.75062 5.03897 9.69045C5.01316 9.63028 4.99985 9.5655 4.99985 9.50003C4.99985 9.43456 5.01316 9.36977 5.03897 9.3096C5.06478 9.24944 5.10256 9.19515 5.15 9.15003C5.19512 9.10259 5.24941 9.06481 5.30958 9.039C5.36974 9.01319 5.43453 8.99988 5.5 8.99988C5.56547 8.99988 5.63026 9.01319 5.69042 9.039C5.75059 9.06481 5.80488 9.10259 5.85 9.15003L7.85 11.15C7.89744 11.1951 7.93522 11.2494 7.96103 11.3096C7.98684 11.3698 8.00015 11.4346 8.00015 11.5C8.00015 11.5655 7.98684 11.6303 7.96103 11.6905C7.93522 11.7506 7.89744 11.8049 7.85 11.85V11.85Z" fill="#006CBF"/>
</svg>
