<svg width="16" height="16" viewBox="0 0 16 16" fill="none" xmlns="http://www.w3.org/2000/svg">
<path fill-rule="evenodd" clip-rule="evenodd" d="M7.14645 6.14645C7.34171 5.95118 7.65829 5.95118 7.85355 6.14645L9.85355 8.14645C10.0488 8.3417 10.0488 8.65826 9.85358 8.85352L4.15358 14.5545C3.87229 14.8357 3.49075 14.9938 3.093 14.9938C2.69525 14.9938 2.31379 14.8358 2.0325 14.5546L1.44664 13.9688C1.30718 13.8294 1.19654 13.664 1.12105 13.4819C1.04557 13.2998 1.00671 13.1046 1.00671 12.9075C1.00671 12.7104 1.04557 12.5152 1.12105 12.3331C1.19654 12.151 1.30718 11.9856 1.44664 11.8462L7.14645 6.14645ZM2.15355 13.2614L2.7395 13.8474C2.73952 13.8474 2.73948 13.8474 2.7395 13.8474C2.83326 13.9411 2.96044 13.9938 3.093 13.9938C3.22554 13.9938 3.35266 13.9412 3.44642 13.8475L8.79292 8.50003L7.5 7.20711L2.15355 12.5536C2.10707 12.6 2.06999 12.6553 2.04483 12.716C2.01966 12.7767 2.00671 12.8418 2.00671 12.9075C2.00671 12.9732 2.01966 13.0383 2.04483 13.099C2.06999 13.1597 2.10707 13.215 2.15355 13.2614Z" fill="#B27C00"/>
<path fill-rule="evenodd" clip-rule="evenodd" d="M10.4396 2.85329L11.0054 2.28745C11.193 2.09998 11.4473 1.99461 11.7125 1.99461C11.9777 1.99461 12.232 2.09992 12.4195 2.28739L13.7126 3.58045C13.9 3.76797 14.0054 4.02234 14.0054 4.2875C14.0054 4.55266 13.9001 4.80697 13.7126 4.9945L13.1467 5.5604C14.3518 7.30303 15.0002 9.37445 15 11.5001C15 11.7023 14.8781 11.8846 14.6913 11.962C14.5045 12.0393 14.2894 11.9965 14.1464 11.8536L10.5 8.20711L9.85355 8.85355C9.65829 9.04882 9.34171 9.04882 9.14645 8.85355L7.14645 6.85355C6.95118 6.65829 6.95118 6.34171 7.14645 6.14645L7.79289 5.5L4.14645 1.85355C4.00345 1.71056 3.96067 1.49552 4.03805 1.30868C4.11543 1.12185 4.29772 1.00002 4.49995 1C6.62555 0.999767 8.69697 1.64821 10.4396 2.85329ZM5.79637 2.08926L8.85355 5.14645C8.94732 5.24021 9 5.36739 9 5.5C9 5.63261 8.94732 5.75979 8.85355 5.85355L8.20711 6.5L9.5 7.79289L10.1464 7.14645C10.3417 6.95118 10.6583 6.95118 10.8536 7.14645L13.9107 10.2036C13.6907 8.61484 13.0682 7.10068 12.093 5.80932C11.9427 5.61026 11.9621 5.33084 12.1384 5.15445L13.0054 4.2875L11.7125 2.99461L10.8456 3.86155C10.6692 4.03794 10.3897 4.05734 10.1907 3.907C8.89932 2.93179 7.38516 2.30932 5.79637 2.08926Z" fill="#202020"/>
</svg>
