<svg width="16" height="16" viewBox="0 0 16 16" fill="none" xmlns="http://www.w3.org/2000/svg">
<path d="M13 1H11C10.449 1 10 1.449 10 2H6.5C5.673 2 5 2.673 5 3.5V6.30804C5.38014 6.437 5.7166 6.60306 6 6.79972V3.5C6 3.224 6.224 3 6.5 3H10V4C10 4.551 10.449 5 11 5H12V10.5C12 10.776 11.776 11 11.5 11H7V12H11.5C12.327 12 13 11.327 13 10.5V5C13.551 5 14 4.551 14 4V2C14 1.449 13.551 1 13 1Z" fill="#202020"/>
<path d="M6 8.5C6 7.728 4.833 7.092 3.333 7.009C3.22367 7.003 3.11267 7 3 7C2.88733 7 2.77633 7.003 2.667 7.009C2.4707 7.01979 2.2751 7.04082 2.081 7.072C1.82712 7.1117 1.57694 7.17223 1.333 7.253C0.529 7.522 0 7.98 0 8.5C0 9.328 1.343 10 3 10C4.657 10 6 9.328 6 8.5ZM6 10.2V14.5C6 15.328 4.657 16 3 16C1.343 16 0 15.328 0 14.5V10.2C0.896699 10.7625 1.94228 11.0413 3 11C4.05772 11.0413 5.1033 10.7625 6 10.2Z" fill="#3487C7"/>
</svg>
