<svg width="16" height="16" viewBox="0 0 16 16" fill="none" xmlns="http://www.w3.org/2000/svg">
<path d="M1 5.96906V12.9691C1 14.2821 3.012 14.9691 5 14.9691C6.988 14.9691 9 14.2821 9 12.9691V5.96906C9 3.34306 1 3.34306 1 5.96906ZM5 4.96906C6.861 4.96906 8 5.61606 8 5.96906C8 6.32206 6.861 6.96906 5 6.96906C3.139 6.96906 2 6.32206 2 5.96906C2 5.61606 3.139 4.96906 5 4.96906ZM5 13.9691C3.139 13.9691 2 13.3221 2 12.9691V7.32106C2.934 7.77306 3.963 7.99506 5 7.96906C6.037 7.99506 7.066 7.77306 8 7.32106V12.9691C8 13.3221 6.861 13.9691 5 13.9691ZM7 2.97006V3.21006C8.3 3.50006 9.26 4.08006 9.71 4.87006C10.13 4.95006 10.57 4.98006 11 4.97006C12.04 5.00006 13.07 4.77006 14 4.32006V9.97006C14 10.3201 12.86 10.9701 11 10.9701C10.64 10.9701 10.3 10.9501 10 10.9001V11.9101C10.33 11.9501 10.66 11.9701 11 11.9701C12.99 11.9701 15 11.2801 15 9.97006V2.97006C15 0.340059 7 0.340059 7 2.97006ZM11 3.97006C9.14 3.97006 8 3.32006 8 2.97006C8 2.62006 9.14 1.97006 11 1.97006C12.86 1.97006 14 2.62006 14 2.97006C14 3.32006 12.86 3.97006 11 3.97006Z" fill="#3487C7"/>
<path d="M7.50003 10.5C7.50003 10.776 7.27603 11 7.00003 11H4.70703L5.35303 11.646C5.54803 11.841 5.54803 12.158 5.35303 12.353C5.25503 12.451 5.12703 12.499 4.99903 12.499C4.87103 12.499 4.74303 12.45 4.64503 12.353L3.14503 10.853C2.95003 10.658 2.95003 10.341 3.14503 10.146L4.64503 8.64601C4.84003 8.45101 5.15703 8.45101 5.35203 8.64601C5.54703 8.84101 5.54703 9.15801 5.35203 9.35301L4.70603 9.99901H6.99903C7.27503 9.99901 7.49903 10.223 7.49903 10.499L7.50003 10.5ZM12.854 7.14601L11.354 5.64601C11.159 5.45101 10.842 5.45101 10.647 5.64601C10.452 5.84101 10.452 6.15801 10.647 6.35301L11.293 6.99901H10V7.99901H11.293L10.647 8.64501C10.452 8.84001 10.452 9.15701 10.647 9.35201C10.745 9.45001 10.873 9.49801 11.001 9.49801C11.129 9.49801 11.257 9.44901 11.355 9.35201L12.855 7.85201C13.05 7.65701 13.05 7.34001 12.855 7.14501L12.854 7.14601Z" fill="#202020"/>
</svg>
