<svg width="16" height="16" viewBox="0 0 16 16" fill="none" xmlns="http://www.w3.org/2000/svg">
<g clip-path="url(#clip0_7201_58828)">
<path fill-rule="evenodd" clip-rule="evenodd" d="M8.5 2H13.5C14.163 2 14.7989 2.26339 15.2678 2.73223C15.7366 3.20107 16 3.83696 16 4.5V9.5C16 9.8283 15.9353 10.1534 15.8097 10.4567C15.6841 10.76 15.4999 11.0356 15.2678 11.2678C15.0356 11.4999 14.76 11.6841 14.4567 11.8097C14.2956 11.8764 14.1284 11.926 13.9577 11.9577C13.926 12.1284 13.8764 12.2956 13.8097 12.4567C13.6841 12.76 13.4999 13.0356 13.2678 13.2678C13.0356 13.4999 12.76 13.6841 12.4567 13.8097C12.1534 13.9353 11.8283 14 11.5 14H8.71307C8.72469 13.9839 8.736 13.9676 8.747 13.951C8.912 13.704 8.999 13.416 8.999 13.122C8.99913 13.0813 8.99886 13.0406 8.99818 13H11.5C11.8978 13 12.2794 12.842 12.5607 12.5607C12.842 12.2794 13 11.8978 13 11.5V6H5V7.38092C4.67549 7.26066 4.34108 7.16829 4 7.10487V6.5C4 5.83696 4.26339 5.20107 4.73223 4.73223C5.09172 4.37275 5.54941 4.13405 6.04225 4.04225C6.13405 3.54941 6.37275 3.09172 6.73223 2.73223C7.20107 2.26339 7.83696 2 8.5 2ZM14 10.9142C14.209 10.8403 14.401 10.7204 14.5607 10.5607C14.842 10.2794 15 9.89782 15 9.5V4H11.5C11.8283 4 12.1534 4.06466 12.4567 4.1903C12.76 4.31594 13.0356 4.50009 13.2678 4.73223C13.4999 4.96438 13.6841 5.23998 13.8097 5.54329C13.9353 5.84661 14 6.1717 14 6.5V10.9142Z" fill="#202020"/>
<path d="M7 5C6.44772 5 6 5.44771 6 6V7.48113C6.07118 7.47239 6.14331 7.46795 6.216 7.46795C6.49214 7.46795 6.75933 7.53178 7 7.65259V6L13 6V11H8.62304C8.74338 11.3248 8.83544 11.6592 8.89835 12H13C13.5523 12 14 11.5523 14 11V6C14 5.44772 13.5523 5 13 5H7Z" fill="#B27C00"/>
<path d="M8.04 8.56795C8.16176 8.69008 8.26313 8.82705 8.34243 8.97466C8.39197 8.9911 8.44494 9 8.5 9H11.5C11.7761 9 12 8.77614 12 8.5C12 8.22386 11.7761 8 11.5 8H8.5C8.22386 8 8 8.22386 8 8.5C8 8.50966 8.00027 8.51925 8.00081 8.52877L8.04 8.56795Z" fill="#B27C00"/>
<path d="M5.543 12.087L1.911 15.72C1.73 15.9 1.486 16.001 1.231 16.001C0.976 16.001 0.732 15.9 0.551 15.72L0.281 15.449C0.101 15.268 0 15.024 0 14.769C0 14.514 0.101 14.27 0.281 14.089L3.913 10.457C4.007 10.363 4.134 10.311 4.267 10.311C4.4 10.311 4.527 10.364 4.62 10.457L5.543 11.38C5.637 11.474 5.689 11.601 5.689 11.733C5.689 11.865 5.636 11.993 5.543 12.087V12.087Z" fill="#B27C00"/>
<path d="M7.99998 13.119C7.99998 13.218 7.97098 13.314 7.91598 13.397C7.86098 13.48 7.78298 13.543 7.69198 13.581C7.63098 13.606 7.56598 13.619 7.49998 13.619C7.36798 13.619 7.24098 13.566 7.14698 13.473L5.65198 11.98L5.54298 12.087C5.44898 12.181 5.32198 12.233 5.18898 12.233C5.05598 12.233 4.92898 12.18 4.83598 12.087L3.91298 11.164C3.81898 11.07 3.76698 10.943 3.76698 10.81C3.76698 10.677 3.81998 10.55 3.91298 10.457L4.02098 10.349L2.52798 8.85499C2.45798 8.78499 2.40998 8.69599 2.39098 8.59899C2.37198 8.50199 2.38098 8.40099 2.41898 8.30999C2.45698 8.21899 2.52098 8.13999 2.60298 8.08499C2.68498 8.02999 2.78198 8.00099 2.88098 8.00099C3.83898 7.99899 4.77798 8.26899 5.58798 8.77999L5.69998 8.67499C5.83898 8.54199 6.02398 8.46799 6.21598 8.46799C6.40798 8.46799 6.59298 8.54199 6.73198 8.67499L7.33198 9.27499C7.46898 9.41199 7.54598 9.59799 7.54598 9.79199C7.54598 9.98599 7.46898 10.172 7.33198 10.309L7.22598 10.415C7.73398 11.225 8.00198 12.163 7.99898 13.119H7.99998Z" fill="#202020"/>
</g>
<defs>
<clipPath id="clip0_7201_58828">
<rect width="16" height="16" fill="white"/>
</clipPath>
</defs>
</svg>
