<svg width="16" height="16" viewBox="0 0 16 16" fill="none" xmlns="http://www.w3.org/2000/svg">
<path d="M14.561 4.35398L12.647 2.43998C12.366 2.15898 11.984 2.00098 11.586 2.00098H3.414C3.016 2.00098 2.635 2.15898 2.354 2.43998L0.439 4.35498C0.158 4.63598 0 5.01798 0 5.41498V11.001C0 12.106 0.895 13.001 2 13.001H13C14.105 13.001 15 12.106 15 11.001V5.41498C15 5.01698 14.842 4.63498 14.561 4.35398ZM7 12H2C1.448 12 1 11.552 1 11V5.41398C1 5.28098 1.053 5.15398 1.146 5.05998L3.06 3.14598C3.154 3.05198 3.281 2.99998 3.414 2.99998H7V12ZM14 11C14 11.552 13.552 12 13 12H8V2.99998H11.586C11.719 2.99998 11.846 3.05298 11.939 3.14598L13.853 5.05998C13.947 5.15398 13.999 5.28098 13.999 5.41298V10.999L14 11Z" fill="#202020"/>
<path d="M4.50001 9.99998C4.37201 9.99998 4.24401 9.95098 4.14601 9.85398L2.14601 7.85398C1.95101 7.65898 1.95101 7.34198 2.14601 7.14698L4.14601 5.14698C4.34101 4.95198 4.65801 4.95198 4.85301 5.14698C5.04801 5.34198 5.04801 5.65898 4.85301 5.85398L3.20701 7.49998L4.85301 9.14598C5.04801 9.34098 5.04801 9.65798 4.85301 9.85298C4.75501 9.95098 4.62701 9.99898 4.49901 9.99898L4.50001 9.99998ZM10.854 9.85398L12.854 7.85398C13.049 7.65898 13.049 7.34198 12.854 7.14698L10.854 5.14698C10.659 4.95198 10.342 4.95198 10.147 5.14698C9.95201 5.34198 9.95201 5.65898 10.147 5.85398L11.793 7.49998L10.147 9.14598C9.95201 9.34098 9.95201 9.65798 10.147 9.85298C10.245 9.95098 10.373 9.99898 10.501 9.99898C10.629 9.99898 10.757 9.94998 10.855 9.85298L10.854 9.85398Z" fill="#006CBF"/>
</svg>
