<svg width="16" height="16" viewBox="0 0 16 16" fill="none" xmlns="http://www.w3.org/2000/svg">
<path d="M2 4.5C2 3.119 3.119 2 4.5 2H11.5C12.881 2 14 3.119 14 4.5V11.5C14 12.881 12.881 14 11.5 14H4.5C3.119 14 2 12.881 2 11.5V4.5ZM4.5 3C3.672 3 3 3.672 3 4.5V11.5C3 12.328 3.672 13 4.5 13H11.5C12.328 13 13 12.328 13 11.5V4.5C13 3.672 12.328 3 11.5 3H4.5Z" fill="#202020"/>
<path d="M5 5.5C5 5.776 4.776 6 4.5 6C4.224 6 4 5.776 4 5.5C4 5.224 4.224 5 4.5 5C4.776 5 5 5.224 5 5.5ZM11.5 5C11.224 5 11 5.224 11 5.5C11 5.776 11.224 6 11.5 6C11.776 6 12 5.776 12 5.5C12 5.224 11.776 5 11.5 5ZM9.5 5H6.5C6.224 5 6 5.224 6 5.5C6 5.776 6.224 6 6.5 6H9.5C9.776 6 10 5.776 10 5.5C10 5.224 9.776 5 9.5 5Z" fill="#006CBF"/>
<path d="M5 8C5 8.276 4.776 8.5 4.5 8.5C4.224 8.5 4 8.276 4 8C4 7.724 4.224 7.5 4.5 7.5C4.776 7.5 5 7.724 5 8ZM11.5 7.5C11.224 7.5 11 7.724 11 8C11 8.276 11.224 8.5 11.5 8.5C11.776 8.5 12 8.276 12 8C12 7.724 11.776 7.5 11.5 7.5ZM9.5 7.5H8.5C8.224 7.5 8 7.724 8 8C8 8.276 8.224 8.5 8.5 8.5H9.5C9.776 8.5 10 8.276 10 8C10 7.724 9.776 7.5 9.5 7.5Z" fill="#11910D"/>
<path d="M5 10.5C5 10.776 4.776 11 4.5 11C4.224 11 4 10.776 4 10.5C4 10.224 4.224 10 4.5 10C4.776 10 5 10.224 5 10.5ZM11.5 10C11.224 10 11 10.224 11 10.5C11 10.776 11.224 11 11.5 11C11.776 11 12 10.776 12 10.5C12 10.224 11.776 10 11.5 10ZM9.5 10H7.5C7.224 10 7 10.224 7 10.5C7 10.776 7.224 11 7.5 11H9.5C9.776 11 10 10.776 10 10.5C10 10.224 9.776 10 9.5 10Z" fill="#C50F1F"/>
</svg>
