<svg width="16" height="16" viewBox="0 0 16 16" fill="none" xmlns="http://www.w3.org/2000/svg">
<path fill-rule="evenodd" clip-rule="evenodd" d="M9 2.5C9 1.469 10.555 1 12 1C13.445 1 15 1.469 15 2.5V7.5C15 8.531 13.445 9 12 9C10.555 9 9 8.531 9 7.5V2.5ZM13.987 2.5C13.402 2.11 12.7 1.934 12 2C11.292 1.92 10.579 2.106 10 2.522V2.533C10.603 2.89 11.301 3.053 12 3C12.7 3.066 13.402 2.89 13.987 2.5ZM10 7.5C10.588 7.895 11.295 8.071 12 8C12.709 8.082 13.424 7.893 14 7.472V3.651C13.361 3.892 12.683 4.011 12 4C11.317 4.011 10.639 3.892 10 3.651V7.5Z" fill="#3487C7"/>
<path fill-rule="evenodd" clip-rule="evenodd" d="M1 8.5C1 7.469 2.555 7 4 7C5.445 7 7 7.469 7 8.5V13.5C7 14.531 5.445 15 4 15C2.555 15 1 14.531 1 13.5V8.5ZM5.987 8.5C5.402 8.11 4.7 7.934 4 8C3.292 7.92 2.579 8.106 2 8.522V8.533C2.603 8.89 3.301 9.053 4 9C4.7 9.066 5.402 8.89 5.987 8.5ZM2 13.5C2.588 13.895 3.295 14.071 4 14C4.709 14.082 5.424 13.893 6 13.472V9.651C5.361 9.892 4.683 10.011 4 10C3.317 10.011 2.639 9.892 2 9.651V13.5Z" fill="#3487C7"/>
<path d="M4.647 1.64698C4.842 1.45198 5.159 1.45198 5.354 1.64698L6.854 3.14598C7.049 3.34098 7.049 3.65798 6.854 3.85298L5.354 5.35298C5.159 5.54798 4.842 5.54798 4.647 5.35298C4.452 5.15798 4.452 4.84098 4.647 4.64598L5.293 3.99998H3.25C3.183 3.99998 3.12 4.02598 3.073 4.07298C3.026 4.11998 3 4.18398 3 4.24998V5.49998C3 5.77598 2.776 5.99998 2.5 5.99998C2.224 5.99998 2 5.77598 2 5.49998V4.24998C2 3.91798 2.132 3.59998 2.366 3.36598C2.601 3.13198 2.918 2.99998 3.25 2.99998H5.293L4.647 2.35398C4.452 2.15898 4.452 1.84198 4.647 1.64698Z" fill="#006CBF"/>
<path d="M13.5 10C13.776 10 14 10.224 14 10.5V11.751C14 12.083 13.868 12.401 13.634 12.635C13.399 12.869 13.082 13.001 12.75 13.001H10.707L11.353 13.647C11.548 13.842 11.548 14.159 11.353 14.354C11.158 14.549 10.841 14.549 10.646 14.354L9.14601 12.854C8.95101 12.659 8.95101 12.342 9.14601 12.147L10.646 10.647C10.841 10.452 11.158 10.452 11.353 10.647C11.548 10.842 11.548 11.159 11.353 11.354L10.707 12H12.75C12.817 12 12.88 11.974 12.927 11.927C12.974 11.88 13 11.816 13 11.75V10.5C13 10.224 13.224 10 13.5 10Z" fill="#006CBF"/>
</svg>
