<svg width="16" height="16" viewBox="0 0 16 16" fill="none" xmlns="http://www.w3.org/2000/svg">
<path d="M2.24895 2C1.55917 2 1 2.55938 1 3.24941V6.30884C1.00433 6.30788 1.00866 6.30694 1.013 6.306C1.30639 6.20787 1.60742 6.13428 1.913 6.086C1.94169 6.08131 1.97041 6.07682 1.99916 6.07251V3.24941C1.99916 3.11141 2.11099 2.99953 2.24895 2.99953H2.74852C2.88648 2.99953 2.99831 3.11141 2.99831 3.24941V6H3C3.13 6 3.26 6 3.387 6.011C3.59701 6.02249 3.80077 6.04283 3.99747 6.07147V3.24941C3.99747 2.55938 3.4383 2 2.74852 2H2.24895Z" fill="#202020"/>
<path d="M7 13.9683C7.56756 13.8506 7.9941 13.3476 7.9941 12.745V3.24941C7.9941 2.55938 7.43492 2 6.74515 2H6.24557C5.5558 2 4.99663 2.55938 4.99663 3.24941V6.3069C5.37626 6.43538 5.71243 6.60084 5.99578 6.7968V3.24941C5.99578 3.11141 6.10762 2.99953 6.24557 2.99953H6.74515C6.88311 2.99953 6.99494 3.11141 6.99494 3.24941V8.27589L7 8.272V13.9683Z" fill="#202020"/>
<path fill-rule="evenodd" clip-rule="evenodd" d="M10.4011 4.06385C11.0311 3.84331 11.7231 4.15733 11.9723 4.77682L14.9093 12.0802C15.1752 12.7412 14.8355 13.4904 14.1632 13.7258L13.581 13.9296C12.9509 14.1502 12.2589 13.8361 12.0098 13.2166L9.07268 5.91326C8.80684 5.25222 9.14658 4.50297 9.81888 4.26764L10.4011 4.06385ZM11.0453 5.14988C10.9955 5.02598 10.8571 4.96318 10.7311 5.00729L10.1489 5.21108C10.0144 5.25815 9.94647 5.40799 9.99964 5.5402L12.9367 12.8436C12.9865 12.9675 13.1249 13.0303 13.251 12.9862L13.8332 12.7823C13.9676 12.7353 14.0356 12.5854 13.9824 12.4532L11.0453 5.14988Z" fill="#202020"/>
<path d="M6 8.5C6 7.728 4.833 7.092 3.333 7.009C3.22367 7.003 3.11267 7 3 7C2.88733 7 2.77633 7.003 2.667 7.009C2.4707 7.01979 2.27511 7.04082 2.081 7.072C1.82712 7.1117 1.57694 7.17223 1.333 7.253C0.529 7.522 0 7.98 0 8.5C0 9.328 1.343 10 3 10C4.657 10 6 9.328 6 8.5ZM6 10.2V14.5C6 15.328 4.657 16 3 16C1.343 16 0 15.328 0 14.5V10.2C0.896699 10.7625 1.94228 11.0413 3 11C4.05772 11.0413 5.1033 10.7625 6 10.2V10.2Z" fill="#3487C7"/>
</svg>
