<svg width="16" height="16" viewBox="0 0 16 16" fill="none" xmlns="http://www.w3.org/2000/svg">
<path d="M13.854 12.146L11.854 10.146C11.659 9.951 11.342 9.951 11.147 10.146C10.952 10.341 10.952 10.658 11.147 10.853L12.293 11.999H4V3.707L5.146 4.853C5.244 4.951 5.372 4.999 5.5 4.999C5.628 4.999 5.756 4.95 5.854 4.853C6.049 4.658 6.049 4.341 5.854 4.146L3.854 2.146C3.659 1.951 3.342 1.951 3.147 2.146L1.147 4.146C0.951998 4.341 0.951998 4.658 1.147 4.853C1.342 5.048 1.659 5.048 1.854 4.853L3 3.707V12.5C3 12.776 3.224 13 3.5 13H12.293L11.147 14.146C10.952 14.341 10.952 14.658 11.147 14.853C11.245 14.951 11.373 14.999 11.501 14.999C11.629 14.999 11.757 14.95 11.855 14.853L13.855 12.853C14.05 12.658 14.049 12.341 13.854 12.146Z" fill="#202020"/>
<path d="M11.543 6.08697L7.911 9.71997C7.73 9.89997 7.486 10.001 7.231 10.001C6.976 10.001 6.732 9.89997 6.551 9.71997L6.281 9.44897C6.101 9.26797 6 9.02397 6 8.76897C6 8.51397 6.101 8.26997 6.281 8.08897L9.913 4.45697C10.007 4.36297 10.134 4.31097 10.267 4.31097C10.4 4.31097 10.527 4.36397 10.62 4.45697L11.543 5.37997C11.637 5.47397 11.689 5.60097 11.689 5.73297C11.689 5.86497 11.636 5.99297 11.543 6.08697V6.08697Z" fill="#B27C00"/>
<path d="M14 7.11899C14 7.21799 13.971 7.31399 13.916 7.39699C13.861 7.47999 13.783 7.54299 13.692 7.58099C13.631 7.60599 13.566 7.61899 13.5 7.61899C13.368 7.61899 13.241 7.56599 13.147 7.47299L11.652 5.97999L11.543 6.08699C11.449 6.18099 11.322 6.23299 11.189 6.23299C11.056 6.23299 10.929 6.17999 10.836 6.08699L9.91298 5.16399C9.81898 5.06999 9.76698 4.94299 9.76698 4.80999C9.76698 4.67699 9.81998 4.54999 9.91298 4.45699L10.021 4.34899L8.52798 2.85499C8.45798 2.78499 8.40998 2.69599 8.39098 2.59899C8.37198 2.50199 8.38098 2.40099 8.41898 2.30999C8.45698 2.21899 8.52098 2.13999 8.60298 2.08499C8.68498 2.02999 8.78198 2.00099 8.88098 2.00099C9.83898 1.99899 10.778 2.26899 11.588 2.77999L11.7 2.67499C11.839 2.54199 12.024 2.46799 12.216 2.46799C12.408 2.46799 12.593 2.54199 12.732 2.67499L13.332 3.27499C13.469 3.41199 13.546 3.59799 13.546 3.79199C13.546 3.98599 13.469 4.17199 13.332 4.30899L13.226 4.41499C13.734 5.22499 14.002 6.16299 13.999 7.11899H14Z" fill="#202020"/>
</svg>
