<svg width="16" height="16" viewBox="0 0 16 16" fill="none" xmlns="http://www.w3.org/2000/svg">
<g clip-path="url(#clip0_7201_58788)">
<path fill-rule="evenodd" clip-rule="evenodd" d="M7.5 2H10.5C10.8978 2 11.2794 2.15804 11.5607 2.43934C11.842 2.72064 12 3.10218 12 3.5V12.5C12 12.8978 11.842 13.2794 11.5607 13.5607C11.2794 13.842 10.8978 14 10.5 14H8.71307C8.72469 13.9839 8.736 13.9676 8.747 13.951C8.912 13.704 8.999 13.416 8.999 13.122C8.99913 13.0813 8.99886 13.0406 8.99818 13H10.5C10.6326 13 10.7598 12.9473 10.8536 12.8536C10.9473 12.7598 11 12.6326 11 12.5V11H8.62304C8.55792 10.8243 8.48453 10.6514 8.403 10.482H8.404C8.46997 10.3294 8.51431 10.1674 8.5345 10H11V6H7V7.65259C6.75933 7.53178 6.49214 7.46795 6.216 7.46795C6.14331 7.46795 6.07118 7.47239 6 7.48113V3.5C6 3.10218 6.15804 2.72064 6.43934 2.43934C6.72064 2.15804 7.10218 2 7.5 2ZM7.14645 3.14645C7.05268 3.24021 7 3.36739 7 3.5V5H11V3.5C11 3.36739 10.9473 3.24021 10.8536 3.14645C10.7598 3.05268 10.6326 3 10.5 3H7.5C7.36739 3 7.24021 3.05268 7.14645 3.14645Z" fill="#202020"/>
<path d="M5.543 12.087L1.911 15.72C1.73 15.9 1.486 16.001 1.231 16.001C0.976 16.001 0.732 15.9 0.551 15.72L0.281 15.449C0.101 15.268 0 15.024 0 14.769C0 14.514 0.101 14.27 0.281 14.089L3.913 10.457C4.007 10.363 4.134 10.311 4.267 10.311C4.4 10.311 4.527 10.364 4.62 10.457L5.543 11.38C5.637 11.474 5.689 11.601 5.689 11.733C5.689 11.865 5.636 11.993 5.543 12.087V12.087Z" fill="#B27C00"/>
<path d="M7.99998 13.119C7.99998 13.218 7.97098 13.314 7.91598 13.397C7.86098 13.48 7.78298 13.543 7.69198 13.581C7.63098 13.606 7.56598 13.619 7.49998 13.619C7.36798 13.619 7.24098 13.566 7.14698 13.473L5.65198 11.98L5.54298 12.087C5.44898 12.181 5.32198 12.233 5.18898 12.233C5.05598 12.233 4.92898 12.18 4.83598 12.087L3.91298 11.164C3.81898 11.07 3.76698 10.943 3.76698 10.81C3.76698 10.677 3.81998 10.55 3.91298 10.457L4.02098 10.349L2.52798 8.85499C2.45798 8.78499 2.40998 8.69599 2.39098 8.59899C2.37198 8.50199 2.38098 8.40099 2.41898 8.30999C2.45698 8.21899 2.52098 8.13999 2.60298 8.08499C2.68498 8.02999 2.78198 8.00099 2.88098 8.00099C3.83898 7.99899 4.77798 8.26899 5.58798 8.77999L5.69998 8.67499C5.83898 8.54199 6.02398 8.46799 6.21598 8.46799C6.40798 8.46799 6.59298 8.54199 6.73198 8.67499L7.33198 9.27499C7.46898 9.41199 7.54598 9.59799 7.54598 9.79199C7.54598 9.98599 7.46898 10.172 7.33198 10.309L7.22598 10.415C7.73398 11.225 8.00198 12.163 7.99898 13.119H7.99998Z" fill="#202020"/>
</g>
<defs>
<clipPath id="clip0_7201_58788">
<rect width="16" height="16" fill="white"/>
</clipPath>
</defs>
</svg>
