<svg width="16" height="16" viewBox="0 0 16 16" fill="none" xmlns="http://www.w3.org/2000/svg">
<g clip-path="url(#clip0_7201_59076)">
<path fill-rule="evenodd" clip-rule="evenodd" d="M3 3.5C3 2.075 5.149 1 8 1C10.851 1 13 2.075 13 3.5V10.879L12 9.8783V5.021C10.7859 5.71872 9.39905 6.05816 8 6C6.60095 6.05816 5.21405 5.71872 4 5.021V12.5C4 13.111 5.558 14 8 14C8.82027 14 9.54094 13.8996 10.1363 13.7431L9.43948 14.4395C9.29429 14.5847 9.18193 14.7566 9.10717 14.9436C8.75311 14.9806 8.38289 15 8 15C5.149 15 3 13.925 3 12.5V3.5ZM12 3.5C12 2.888 10.441 2 8 2C5.558 2 4 2.888 4 3.5C4 4.112 5.559 5 8 5C10.441 5 12 4.112 12 3.5Z" fill="#3487C7"/>
<path d="M15.8544 15.1465C15.9483 15.2404 16.001 15.3677 16.001 15.5005C16.001 15.6333 15.9483 15.7606 15.8544 15.8545C15.7605 15.9484 15.6332 16.0011 15.5004 16.0011C15.3676 16.0011 15.2403 15.9484 15.1464 15.8545L13.0004 13.7075L10.8544 15.8545C10.7605 15.9484 10.6332 16.0011 10.5004 16.0011C10.3676 16.0011 10.2403 15.9484 10.1464 15.8545C10.0525 15.7606 9.99976 15.6333 9.99976 15.5005C9.99976 15.3677 10.0525 15.2404 10.1464 15.1465L12.2934 13.0005L10.1464 10.8545C10.0525 10.7606 9.99976 10.6333 9.99976 10.5005C9.99976 10.3677 10.0525 10.2404 10.1464 10.1465C10.2403 10.0526 10.3676 9.99988 10.5004 9.99988C10.6332 9.99988 10.7605 10.0526 10.8544 10.1465L13.0004 12.2935L15.1464 10.1465C15.2403 10.0526 15.3676 9.99988 15.5004 9.99988C15.6332 9.99988 15.7605 10.0526 15.8544 10.1465C15.9483 10.2404 16.001 10.3677 16.001 10.5005C16.001 10.6333 15.9483 10.7606 15.8544 10.8545L13.7074 13.0005L15.8544 15.1465Z" fill="#202020"/>
</g>
<defs>
<clipPath id="clip0_7201_59076">
<rect width="16" height="16" fill="white"/>
</clipPath>
</defs>
</svg>
