<svg width="16" height="16" viewBox="0 0 16 16" fill="none" xmlns="http://www.w3.org/2000/svg">
<path d="M2 6V13C2 14.313 4.012 15 6 15C7.988 15 10 14.313 10 13V6C10 3.374 2 3.374 2 6ZM6 5C7.861 5 9 5.647 9 6C9 6.353 7.861 7 6 7C4.139 7 3 6.353 3 6C3 5.647 4.139 5 6 5ZM6 14C4.139 14 3 13.353 3 13V7.352C3.934 7.804 4.963 8.026 6 8C7.037 8.026 8.066 7.804 9 7.352V13C9 13.353 7.861 14 6 14Z" fill="#3487C7"/>
<path d="M6 3V3.03C6.34 3.03 6.68 3.05 7.02 3.08C7.01 3.05 7 3.03 7 3C7 2.65 8.14 2 10 2C11.86 2 13 2.65 13 3C13 3.35 11.86 4 10 4H9.85C10.24 4.26 10.55 4.58 10.75 4.97C11.53 4.9 12.29 4.69 13 4.35V10C13 10.28 12.26 10.76 11 10.93V11.94C12.61 11.75 14 11.09 14 10V3C14 0.369996 6 0.369996 6 3Z" fill="#3487C7"/>
</svg>
