<svg width="16" height="16" viewBox="0 0 16 16" fill="none" xmlns="http://www.w3.org/2000/svg">
<path fill-rule="evenodd" clip-rule="evenodd" d="M4 3.5C4 2.075 6.149 1 9 1C11.851 1 14 2.075 14 3.5V12.5C14 13.925 11.851 15 9 15C8.7586 15 8.52224 14.9923 8.29178 14.9773L8.447 14.9C8.87135 14.6896 9.23452 14.3752 9.50321 13.9871C11.6532 13.876 13 13.0679 13 12.5V5.021C11.7859 5.71872 10.3991 6.05816 9 6C7.60095 6.05816 6.21405 5.71872 5 5.021V6H4V3.5ZM13 3.5C13 2.888 11.441 2 9 2C6.558 2 5 2.888 5 3.5C5 4.112 6.559 5 9 5C11.441 5 13 4.112 13 3.5Z" fill="#3487C7"/>
<path d="M9 10.5V12.382C9.00011 12.718 8.9066 13.0473 8.72997 13.3331C8.55333 13.6189 8.30056 13.8499 8 14V10.5C8 9.83696 7.73661 9.20107 7.26777 8.73223C6.79893 8.26339 6.16304 8 5.5 8H2C2.15015 7.69944 2.38107 7.44667 2.66687 7.27003C2.95266 7.0934 3.28203 6.99989 3.618 7H5.5C6.42826 7 7.3185 7.36875 7.97487 8.02513C8.63125 8.6815 9 9.57174 9 10.5ZM7 10.5V14.5C7 14.8978 6.84196 15.2794 6.56066 15.5607C6.27936 15.842 5.89782 16 5.5 16H1.5C1.10218 16 0.720644 15.842 0.43934 15.5607C0.158035 15.2794 0 14.8978 0 14.5V10.5C0 10.1022 0.158035 9.72064 0.43934 9.43934C0.720644 9.15804 1.10218 9 1.5 9H5.5C5.89782 9 6.27936 9.15804 6.56066 9.43934C6.84196 9.72064 7 10.1022 7 10.5ZM4 13V12H3V13H4ZM3 14V15H4V14H3ZM1 13H2V12H1V13ZM4 11V10H3V11H4ZM5 13H6V12H5V13ZM5.5 10H5V11H6V10.5C6 10.3674 5.94732 10.2402 5.85355 10.1464C5.75979 10.0527 5.63261 10 5.5 10ZM1 10.5V11H2V10H1.5C1.36739 10 1.24021 10.0527 1.14645 10.1464C1.05268 10.2402 1 10.3674 1 10.5ZM1.5 15H2V14H1V14.5C1 14.6326 1.05268 14.7598 1.14645 14.8536C1.24021 14.9473 1.36739 15 1.5 15ZM6 14.5V14H5V15H5.5C5.63261 15 5.75979 14.9473 5.85355 14.8536C5.94732 14.7598 6 14.6326 6 14.5Z" fill="#202020"/>
</svg>
