<svg width="16" height="16" viewBox="0 0 16 16" fill="none" xmlns="http://www.w3.org/2000/svg">
<path fill-rule="evenodd" clip-rule="evenodd" d="M3 3.5C3 2.075 5.149 1 8 1C10.851 1 13 2.075 13 3.5V6.207C12.6777 6.11585 12.3434 6.05334 12 6.02239V5.021C10.7859 5.71872 9.39905 6.05816 8 6C6.60095 6.05816 5.21405 5.71872 4 5.021V6.04098C3.8355 6.01318 3.66827 5.99902 3.5 5.99902C3.33173 5.99902 3.1645 6.01318 3 6.04098V3.5ZM12 3.5C12 2.888 10.441 2 8 2C5.558 2 4 2.888 4 3.5C4 4.112 5.559 5 8 5C10.441 5 12 4.112 12 3.5Z" fill="#3487C7"/>
<path d="M6.03208 12.0975C6.12212 12.9309 6.39827 13.7084 6.81814 14.3877C6.42978 15.2807 5.3965 16 3.5 16C1 16 0 14.745 0 13.5C0 13.1022 0.158035 12.7206 0.43934 12.4393C0.720644 12.158 1.10218 12 1.5 12H5.5C5.68358 12 5.86369 12.0337 6.03208 12.0975Z" fill="#202020"/>
<path d="M1.5 9C1.5 9.39556 1.6173 9.78224 1.83706 10.1111C2.05682 10.44 2.36918 10.6964 2.73463 10.8478C3.10009 10.9991 3.50222 11.0387 3.89018 10.9616C4.27814 10.8844 4.63451 10.6939 4.91421 10.4142C5.19392 10.1345 5.3844 9.77814 5.46157 9.39018C5.53874 9.00222 5.49913 8.60009 5.34776 8.23463C5.19638 7.86918 4.94004 7.55682 4.61114 7.33706C4.28224 7.1173 3.89556 7 3.5 7C2.96957 7 2.46086 7.21071 2.08579 7.58579C1.71071 7.96086 1.5 8.46957 1.5 9Z" fill="#202020"/>
<path fill-rule="evenodd" clip-rule="evenodd" d="M11.5 16C13.9853 16 16 13.9853 16 11.5C16 9.01472 13.9853 7 11.5 7C9.01472 7 7 9.01472 7 11.5C7 13.9853 9.01472 16 11.5 16ZM13.3536 10.3536C13.5488 10.1583 13.5488 9.84171 13.3536 9.64645C13.1583 9.45118 12.8417 9.45118 12.6464 9.64645L11.5 10.7929L10.3536 9.64645C10.1583 9.45118 9.84171 9.45118 9.64645 9.64645C9.45118 9.84171 9.45118 10.1583 9.64645 10.3536L10.7929 11.5L9.64645 12.6464C9.45118 12.8417 9.45118 13.1583 9.64645 13.3536C9.84171 13.5488 10.1583 13.5488 10.3536 13.3536L11.5 12.2071L12.6464 13.3536C12.8417 13.5488 13.1583 13.5488 13.3536 13.3536C13.5488 13.1583 13.5488 12.8417 13.3536 12.6464L12.2071 11.5L13.3536 10.3536Z" fill="#C50F1F"/>
</svg>
