<svg width="16" height="16" viewBox="0 0 16 16" fill="none" xmlns="http://www.w3.org/2000/svg">
<path fill-rule="evenodd" clip-rule="evenodd" d="M5 1C3.89543 1 3 1.89543 3 3V6C3.13 6 3.26 6 3.387 6.011C3.59791 6.02254 3.80252 6.043 4 6.07183V3C4 2.44772 4.44772 2 5 2H8V4.5C8 5.32843 8.67157 6 9.5 6H12V13C12 13.5523 11.5523 14 11 14H7V14.5C7 14.6727 6.97607 14.8397 6.92998 15H11C12.1046 15 13 14.1046 13 13V5.41421C13 5.01639 12.842 4.63486 12.5607 4.35355L9.64645 1.43934C9.36514 1.15804 8.98361 1 8.58579 1H5ZM11.7929 5H9.5C9.22386 5 9 4.77614 9 4.5V2.20711L11.7929 5Z" fill="#202020"/>
<path d="M7 13H10.5C10.7761 13 11 12.7761 11 12.5C11 12.2239 10.7761 12 10.5 12H7V13Z" fill="#202020"/>
<path d="M7 11V10H10.5C10.7761 10 11 10.2239 11 10.5C11 10.7761 10.7761 11 10.5 11H7Z" fill="#202020"/>
<path d="M7 9V8.272L6.987 8.282C6.9753 8.18602 6.95588 8.09194 6.92907 8H10.5C10.7761 8 11 8.22386 11 8.5C11 8.77614 10.7761 9 10.5 9H7Z" fill="#202020"/>
<path d="M6 8.5C6 7.728 4.833 7.092 3.333 7.009C3.22367 7.003 3.11267 7 3 7C2.88733 7 2.77633 7.003 2.667 7.009C2.4707 7.01979 2.27511 7.04082 2.081 7.072C1.82712 7.1117 1.57694 7.17223 1.333 7.253C0.529 7.522 0 7.98 0 8.5C0 9.328 1.343 10 3 10C4.657 10 6 9.328 6 8.5ZM6 10.2V14.5C6 15.328 4.657 16 3 16C1.343 16 0 15.328 0 14.5V10.2C0.896699 10.7625 1.94228 11.0413 3 11C4.05772 11.0413 5.1033 10.7625 6 10.2V10.2Z" fill="#3487C7"/>
</svg>
