<svg width="16" height="16" viewBox="0 0 16 16" fill="none" xmlns="http://www.w3.org/2000/svg">
<g clip-path="url(#clip0_7201_59066)">
<path d="M7.2448 5.99288C7.49551 6.00804 7.74756 6.01049 8 6C9.39905 6.05816 10.7859 5.71872 12 5.021V12.5C12 13.111 10.441 14 8 14C5.558 14 4 13.111 4 12.5V7.95999C3.88111 7.97337 3.76193 7.98191 3.64208 7.986C3.61913 7.98648 3.59687 7.9897 3.57454 7.99293C3.55014 7.99646 3.52565 8 3.50008 8C3.48558 8 3.47133 7.99775 3.45708 7.9955C3.44283 7.99325 3.42858 7.991 3.41408 7.991C3.27596 7.98839 3.13784 7.98144 3 7.96802L3 12.5C3 13.925 5.149 15 8 15C10.851 15 13 13.925 13 12.5V3.5C13 2.075 10.851 1 8 1C7.74607 1 7.49771 1.00853 7.25594 1.02507C7.30024 1.0956 7.33757 1.17006 7.37501 1.24475C7.39686 1.28834 7.41874 1.332 7.44208 1.375C7.46386 1.41514 7.48661 1.4546 7.50933 1.49402C7.55963 1.58128 7.60981 1.66832 7.64908 1.762C7.65031 1.76447 7.65171 1.7666 7.65308 1.76867C7.65503 1.77163 7.6569 1.77447 7.65808 1.778C7.68818 1.85152 7.71146 1.92724 7.73273 2.00359C7.82059 2.00121 7.90969 2 8 2C10.441 2 12 2.888 12 3.5C12 4.112 10.441 5 8 5C7.90849 5 7.81823 4.99875 7.72924 4.99632C7.71945 5.02392 7.7094 5.05147 7.69908 5.079C7.69003 5.10303 7.68122 5.12723 7.6724 5.15145C7.65004 5.21288 7.62761 5.27447 7.60108 5.334C7.49923 5.56143 7.38369 5.78299 7.2448 5.99288Z" fill="#3487C7"/>
<path d="M0.499359 0.000584581L2.49936 0.000584493C2.63197 0.000584487 2.75914 0.053263 2.85291 0.147031C2.94668 0.240799 2.99936 0.367976 2.99936 0.500584L2.99936 2.50058C2.99936 2.63319 2.94668 2.76037 2.85291 2.85414C2.75914 2.94791 2.63197 3.00058 2.49936 3.00058C2.36675 3.00058 2.23957 2.94791 2.14581 2.85414C2.05204 2.76037 1.99936 2.63319 1.99936 2.50058L1.99936 1.50058C1.90486 1.57135 1.81562 1.64889 1.73236 1.73258C1.27779 2.20896 1.02417 2.84212 1.02417 3.50058C1.02417 4.15905 1.27779 4.79221 1.73236 5.26858C1.96451 5.5008 2.24014 5.68501 2.5435 5.81069C2.84686 5.93636 3.172 6.00105 3.50036 6.00105C3.82872 6.00105 4.15386 5.93636 4.45722 5.81069C4.76058 5.68501 5.0362 5.5008 5.26836 5.26858C5.7227 4.79209 5.97617 4.15897 5.97617 3.50058C5.97617 2.8422 5.7227 2.20908 5.26836 1.73258C5.17728 1.63828 5.12688 1.51198 5.12802 1.38088C5.12916 1.24979 5.18175 1.12438 5.27445 1.03168C5.36715 0.938971 5.49256 0.886387 5.62366 0.885247C5.75476 0.884108 5.88106 0.934505 5.97536 1.02558C6.63177 1.682 7.00054 2.57228 7.00054 3.50058C7.00054 4.42889 6.63177 5.31917 5.97536 5.97558C5.31895 6.63199 4.42866 7.00076 3.50036 7.00076C2.57205 7.00076 1.68177 6.632 1.02536 5.97558C0.388984 5.30872 0.033928 4.42236 0.033928 3.50058C0.033928 2.57881 0.388984 1.69245 1.02536 1.02558L1.05136 1.00058L0.499359 1.00058C0.366751 1.00058 0.239574 0.947906 0.145805 0.854138C0.0520373 0.76037 -0.000641147 0.633193 -0.000641153 0.500585C-0.000641159 0.367976 0.0520372 0.240799 0.145805 0.147031C0.239574 0.0532631 0.366751 0.000584586 0.499359 0.000584581V0.000584581Z" fill="#006CBF"/>
</g>
<defs>
<clipPath id="clip0_7201_59066">
<rect width="16" height="16" fill="white"/>
</clipPath>
</defs>
</svg>
