<svg width="16" height="16" viewBox="0 0 16 16" fill="none" xmlns="http://www.w3.org/2000/svg">
<path fill-rule="evenodd" clip-rule="evenodd" d="M3 3.5C3 2.075 5.149 1 8 1C10.851 1 13 2.075 13 3.5V12.5C13 13.925 10.851 15 8 15V14C10.441 14 12 13.111 12 12.5V5.021C10.7859 5.71872 9.39905 6.05816 8 6C6.60095 6.05816 5.21405 5.71872 4 5.021V6H3V3.5ZM12 3.5C12 2.888 10.441 2 8 2C5.558 2 4 2.888 4 3.5C4 4.112 5.559 5 8 5C10.441 5 12 4.112 12 3.5Z" fill="#3487C7"/>
<path d="M7 10H4.5C4.36739 10 4.24021 9.94732 4.14645 9.85355C4.05268 9.75979 4 9.63261 4 9.5V7L7 10Z" fill="#202020"/>
<path fill-rule="evenodd" clip-rule="evenodd" d="M3 7V9.5C3 9.89782 3.15804 10.2794 3.43934 10.5607C3.72064 10.842 4.10218 11 4.5 11H7V15C7 15.2652 6.89464 15.5196 6.70711 15.7071C6.51957 15.8946 6.26522 16 6 16H1C0.734784 16 0.48043 15.8946 0.292893 15.7071C0.105357 15.5196 0 15.2652 0 15V8C0 7.73478 0.105357 7.48043 0.292893 7.29289C0.48043 7.10536 0.734784 7 1 7H3ZM2.5 11C2.77614 11 3 11.2239 3 11.5V14.5C3 14.7761 2.77614 15 2.5 15C2.22386 15 2 14.7761 2 14.5V11.5C2 11.2239 2.22386 11 2.5 11ZM4.5 12C4.77614 12 5 12.2239 5 12.5V14.5C5 14.7761 4.77614 15 4.5 15C4.22386 15 4 14.7761 4 14.5V12.5C4 12.2239 4.22386 12 4.5 12Z" fill="#202020"/>
</svg>
