<svg width="16" height="16" viewBox="0 0 16 16" fill="none" xmlns="http://www.w3.org/2000/svg">
<g clip-path="url(#clip0_7201_59196)">
<path fill-rule="evenodd" clip-rule="evenodd" d="M2 3.5C2 2.075 4.149 1 7 1C9.851 1 12 2.075 12 3.5V8.00002H11V5.021C9.78595 5.71872 8.39905 6.05816 7 6C5.60095 6.05816 4.21405 5.71872 3 5.021V12.5C3 13.111 4.558 14 7 14C9.441 14 11 13.111 11 12.5V11H12V11.5C11.9998 11.5126 11.9998 11.5252 12 11.5378V12.5C12 13.925 9.851 15 7 15C4.149 15 2 13.925 2 12.5V3.5ZM11 3.5C11 2.888 9.441 2 7 2C4.558 2 3 2.888 3 3.5C3 4.112 4.559 5 7 5C9.441 5 11 4.112 11 3.5Z" fill="#3487C7"/>
<path d="M13.85 11.85C13.805 11.897 13.751 11.935 13.69 11.961C13.63 11.987 13.565 12 13.5 12C13.435 12 13.37 11.987 13.31 11.961C13.25 11.935 13.196 11.897 13.15 11.85C13.103 11.805 13.065 11.751 13.039 11.69C13.013 11.63 13 11.565 13 11.5C13 11.435 13.013 11.37 13.039 11.31C13.065 11.25 13.103 11.196 13.15 11.15L14.29 10H9.5C9.367 10 9.24 9.947 9.146 9.854C9.052 9.761 9 9.633 9 9.5C9 9.367 9.053 9.24 9.146 9.146C9.24 9.052 9.367 9 9.5 9H14.29L13.15 7.85C13.059 7.757 13.008 7.631 13.009 7.501C13.009 7.371 13.062 7.246 13.154 7.153C13.246 7.061 13.371 7.009 13.502 7.008C13.632 7.008 13.758 7.058 13.851 7.149L15.851 9.149C15.898 9.194 15.936 9.248 15.962 9.309C15.988 9.369 16.001 9.434 16.001 9.499C16.001 9.564 15.988 9.629 15.962 9.689C15.936 9.749 15.898 9.803 15.851 9.849L13.85 11.85Z" fill="#006CBF"/>
</g>
<defs>
<clipPath id="clip0_7201_59196">
<rect width="16" height="16" fill="white"/>
</clipPath>
</defs>
</svg>
