<svg width="16" height="16" viewBox="0 0 16 16" fill="none" xmlns="http://www.w3.org/2000/svg">
<g clip-path="url(#clip0_7201_58744)">
<path d="M7 8.58698L8 9.58698V9.26C9.097 9.761 10.294 10.004 11.5 9.969C12.706 10.004 13.903 9.761 15 9.26V13C15 13.29 13.773 14 11.5 14C9.227 14 8 13.29 8 13V14.3037C8.86829 14.7638 10.189 15 11.5 15C13.736 15 16 14.313 16 13V7.969C16 7.319 15.447 6.831 14.617 6.5L13.84 7.28C14.594 7.509 15 7.805 15 7.969C15 8.259 13.773 8.969 11.5 8.969C9.227 8.969 8 8.259 8 7.969C8 7.805 8.406 7.509 9.16 7.28L8.383 6.5C7.553 6.831 7 7.319 7 7.969V8.58698Z" fill="#3487C7"/>
<path d="M12.647 5.64602C12.842 5.45102 13.159 5.45102 13.354 5.64602H13.356C13.551 5.84102 13.551 6.15802 13.356 6.35302L11.856 7.85302C11.758 7.95002 11.63 7.99902 11.502 7.99902C11.374 7.99902 11.246 7.95102 11.148 7.85302L9.64796 6.35302C9.45296 6.15802 9.45296 5.84102 9.64796 5.64602C9.84296 5.45102 10.16 5.45102 10.355 5.64602L11.001 6.29202V4.49902C11.001 4.22302 11.225 3.99902 11.501 3.99902C11.777 3.99902 12.001 4.22302 12.001 4.49902V6.29202L12.647 5.64602Z" fill="#006CBF"/>
<path d="M7.5 3C7.776 3 8 2.776 8 2.5C8 2.224 7.776 2 7.5 2C7.224 2 7 2.224 7 2.5C7 2.776 7.224 3 7.5 3Z" fill="#202020"/>
<path d="M11 2.5C11 2.224 11.224 2 11.5 2C11.776 2 12 2.224 12 2.5C12 2.776 11.776 3 11.5 3C11.224 3 11 2.776 11 2.5Z" fill="#202020"/>
<path d="M15 2.5C15 2.224 15.224 2 15.5 2C15.776 2 16 2.224 16 2.5C16 2.776 15.776 3 15.5 3C15.224 3 15 2.776 15 2.5Z" fill="#202020"/>
<path d="M9 3.5C9 3.224 9.224 3 9.5 3C9.776 3 10 3.224 10 3.5C10 3.776 9.776 4 9.5 4C9.224 4 9 3.776 9 3.5Z" fill="#202020"/>
<path d="M13 3.5C13 3.224 13.224 3 13.5 3C13.776 3 14 3.224 14 3.5C14 3.776 13.776 4 13.5 4C13.224 4 13 3.776 13 3.5Z" fill="#202020"/>
<path d="M9 1.5C9 1.224 9.224 1 9.5 1C9.776 1 10 1.224 10 1.5C10 1.776 9.776 2 9.5 2C9.224 2 9 1.776 9 1.5Z" fill="#202020"/>
<path d="M13 1.5C13 1.224 13.224 1 13.5 1C13.776 1 14 1.224 14 1.5C14 1.776 13.776 2 13.5 2C13.224 2 13 1.776 13 1.5Z" fill="#202020"/>
<path d="M4.5 10.001H7L4 7.00098V9.50098C4 9.63358 4.05268 9.76076 4.14645 9.85453C4.24021 9.9483 4.36739 10.001 4.5 10.001ZM3 9.50098V7.00098H1C0.734784 7.00098 0.48043 7.10633 0.292893 7.29387C0.105357 7.48141 0 7.73576 0 8.00098V15.001C0 15.2662 0.105357 15.5205 0.292893 15.7081C0.48043 15.8956 0.734784 16.001 1 16.001H6C6.26522 16.001 6.51957 15.8956 6.70711 15.7081C6.89464 15.5205 7 15.2662 7 15.001V11.001H4.5C4.10218 11.001 3.72064 10.8429 3.43934 10.5616C3.15804 10.2803 3 9.8988 3 9.50098ZM5.5 15.001H1.5C1.36739 15.001 1.24021 14.9483 1.14645 14.8545C1.05268 14.7608 1 14.6336 1 14.501C1 14.3684 1.05268 14.2412 1.14645 14.1474C1.24021 14.0537 1.36739 14.001 1.5 14.001H5.5C5.63261 14.001 5.75979 14.0537 5.85355 14.1474C5.94732 14.2412 6 14.3684 6 14.501C6 14.6336 5.94732 14.7608 5.85355 14.8545C5.75979 14.9483 5.63261 15.001 5.5 15.001ZM6 12.501C6 12.6336 5.94732 12.7608 5.85355 12.8545C5.75979 12.9483 5.63261 13.001 5.5 13.001H1.5C1.36739 13.001 1.24021 12.9483 1.14645 12.8545C1.05268 12.7608 1 12.6336 1 12.501C1 12.3684 1.05268 12.2412 1.14645 12.1474C1.24021 12.0537 1.36739 12.001 1.5 12.001H5.5C5.63261 12.001 5.75979 12.0537 5.85355 12.1474C5.94732 12.2412 6 12.3684 6 12.501Z" fill="#202020"/>
</g>
<defs>
<clipPath id="clip0_7201_58744">
<rect width="16" height="16" fill="white"/>
</clipPath>
</defs>
</svg>
