<svg width="16" height="16" viewBox="0 0 16 16" fill="none" xmlns="http://www.w3.org/2000/svg">
<g clip-path="url(#clip0_7201_59156)">
<path fill-rule="evenodd" clip-rule="evenodd" d="M3 3.5C3 2.075 5.149 1 8 1C10.851 1 13 2.075 13 3.5V6.20703C12.6777 6.11588 12.3434 6.05337 12 6.02242V5.021C10.7859 5.71872 9.39905 6.05816 8 6C6.60095 6.05816 5.21405 5.71872 4 5.021V12.5C4 12.9785 4.95573 13.6276 6.54336 13.8866C6.73156 14.2767 6.96446 14.6412 7.23542 14.9735C4.77338 14.8001 3 13.7945 3 12.5V3.5ZM12 3.5C12 2.888 10.441 2 8 2C5.558 2 4 2.888 4 3.5C4 4.112 5.559 5 8 5C10.441 5 12 4.112 12 3.5Z" fill="#3487C7"/>
<path fill-rule="evenodd" clip-rule="evenodd" d="M8.99994 7.75839C9.73996 7.26392 10.61 7 11.5 7C12.6935 7 13.8381 7.47411 14.682 8.31802C15.5259 9.16193 16 10.3065 16 11.5C16 12.39 15.7361 13.26 15.2416 14.0001C14.7471 14.7401 14.0443 15.3169 13.2221 15.6575C12.3998 15.9981 11.495 16.0872 10.6221 15.9135C9.74918 15.7399 8.94736 15.3113 8.31802 14.682C7.68868 14.0526 7.2601 13.2508 7.08647 12.3779C6.91283 11.505 7.00195 10.6002 7.34254 9.77792C7.68314 8.95566 8.25991 8.25285 8.99994 7.75839ZM13.713 11.937L10.743 13.587C10.6669 13.6293 10.581 13.651 10.494 13.65C10.4069 13.6489 10.3216 13.6251 10.2465 13.581C10.1714 13.5368 10.1092 13.4739 10.066 13.3983C10.0227 13.3227 10 13.2371 10 13.15V9.85C10 9.76291 10.0227 9.67733 10.066 9.60173C10.1092 9.52614 10.1714 9.46315 10.2465 9.41899C10.3216 9.37484 10.4069 9.35106 10.494 9.35001C10.581 9.34896 10.6669 9.37067 10.743 9.413L13.713 11.063C13.7909 11.1063 13.8558 11.1697 13.901 11.2465C13.9462 11.3233 13.97 11.4109 13.97 11.5C13.97 11.5891 13.9462 11.6767 13.901 11.7535C13.8558 11.8303 13.7909 11.8937 13.713 11.937Z" fill="#11910D"/>
</g>
<defs>
<clipPath id="clip0_7201_59156">
<rect width="16" height="16" fill="white"/>
</clipPath>
</defs>
</svg>
