<svg width="16" height="16" viewBox="0 0 16 16" fill="none" xmlns="http://www.w3.org/2000/svg">
<path fill-rule="evenodd" clip-rule="evenodd" d="M3 3.5C3 2.075 5.149 1 8 1C10.851 1 13 2.075 13 3.5V12.5C13 13.925 10.851 15 8 15C7.85079 15 7.7035 14.9971 7.55834 14.9913L8.41548 13.9913C10.6165 13.8979 12 13.0756 12 12.5V5.021C10.7859 5.71872 9.39905 6.05816 8 6C6.60095 6.05816 5.21405 5.71872 4 5.021V9.5H3.001C3.00133 9.5 3.00066 9.5 3.001 9.5L3 3.5ZM12 3.5C12 2.888 10.441 2 8 2C5.558 2 4 2.888 4 3.5C4 4.112 5.559 5 8 5C10.441 5 12 4.112 12 3.5Z" fill="#3487C7"/>
<path d="M6.38191 10.674C6.20191 10.465 5.88691 10.44 5.67691 10.62C5.46791 10.8 5.44291 11.114 5.62291 11.324L6.84391 12.749L5.62291 14.174C5.44291 14.384 5.46691 14.699 5.67691 14.879C5.88691 15.059 6.20191 15.035 6.38191 14.825L7.88191 13.075C8.04191 12.888 8.04191 12.611 7.88191 12.424L6.38191 10.674Z" fill="#202020"/>
<path d="M3.38193 11.325C3.56193 11.115 3.53793 10.8 3.32793 10.62V10.621C3.11793 10.441 2.80293 10.465 2.62293 10.675L1.12293 12.425C0.96293 12.612 0.96293 12.889 1.12293 13.076L2.62293 14.826C2.80293 15.036 3.11793 15.06 3.32793 14.88C3.53693 14.7 3.56193 14.385 3.38193 14.175L2.16093 12.75L3.38193 11.325Z" fill="#202020"/>
</svg>
