<svg width="16" height="16" viewBox="0 0 16 16" fill="none" xmlns="http://www.w3.org/2000/svg">
<g clip-path="url(#clip0_7201_58804)">
<path d="M4.69684 5.04043C4.44303 4.93166 4.14909 5.04923 4.04031 5.30305C3.93153 5.55686 4.04911 5.8508 4.30292 5.95958L7.49988 7.3297V8.02784L8.04 8.56795C8.26952 8.79817 8.42662 9.08111 8.49988 9.38874V7.3297L11.6968 5.95958C11.9507 5.8508 12.0682 5.55686 11.9595 5.30305C11.8507 5.04923 11.5567 4.93166 11.3029 5.04043L7.99988 6.45602L4.69684 5.04043Z" fill="#5C2E91"/>
<path d="M13.6795 11.7799L8.91598 13.612C8.87458 13.7307 8.81801 13.8446 8.747 13.951C8.584 14.197 8.352 14.389 8.076 14.504C8.05076 14.5143 8.02542 14.524 8 14.5329V14.8215C8.36517 14.8215 8.73033 14.7549 9.07694 14.6216L14.0385 12.7133C14.6178 12.4905 15 11.9339 15 11.3133V4.68685C15 4.06619 14.6178 3.50964 14.0385 3.28683L9.07694 1.37855C8.38373 1.11193 7.61627 1.11193 6.92306 1.37855L1.96153 3.28683C1.38224 3.50964 1 4.06619 1 4.68685V11.3133C1 11.5025 1.03555 11.6859 1.1014 11.8556L2 10.9576V9.74195L1.821 9.56295C1.611 9.35295 1.47 9.08895 1.411 8.79795C1.352 8.50195 1.382 8.20295 1.494 7.92995C1.60237 7.66837 1.7762 7.44955 2 7.28736V4.68685C2 4.47997 2.12741 4.29445 2.32051 4.22018L7.28204 2.3119C7.74418 2.13415 8.25582 2.13415 8.71796 2.3119L13.6795 4.22018C13.8726 4.29445 14 4.47997 14 4.68685V11.3133C14 11.5201 13.8726 11.7057 13.6795 11.7799Z" fill="#5C2E91"/>
<path d="M5.543 12.087L1.911 15.72C1.73 15.9 1.486 16.001 1.231 16.001C0.976 16.001 0.732 15.9 0.551 15.72L0.281 15.449C0.101 15.268 0 15.024 0 14.769C0 14.514 0.101 14.27 0.281 14.089L3.913 10.457C4.007 10.363 4.134 10.311 4.267 10.311C4.4 10.311 4.527 10.364 4.62 10.457L5.543 11.38C5.637 11.474 5.689 11.601 5.689 11.733C5.689 11.865 5.636 11.993 5.543 12.087V12.087Z" fill="#B27C00"/>
<path d="M7.99998 13.119C7.99998 13.218 7.97098 13.314 7.91598 13.397C7.86098 13.48 7.78298 13.543 7.69198 13.581C7.63098 13.606 7.56598 13.619 7.49998 13.619C7.36798 13.619 7.24098 13.566 7.14698 13.473L5.65198 11.98L5.54298 12.087C5.44898 12.181 5.32198 12.233 5.18898 12.233C5.05598 12.233 4.92898 12.18 4.83598 12.087L3.91298 11.164C3.81898 11.07 3.76698 10.943 3.76698 10.81C3.76698 10.677 3.81998 10.55 3.91298 10.457L4.02098 10.349L2.52798 8.85499C2.45798 8.78499 2.40998 8.69599 2.39098 8.59899C2.37198 8.50199 2.38098 8.40099 2.41898 8.30999C2.45698 8.21899 2.52098 8.13999 2.60298 8.08499C2.68498 8.02999 2.78198 8.00099 2.88098 8.00099C3.83898 7.99899 4.77798 8.26899 5.58798 8.77999L5.69998 8.67499C5.83898 8.54199 6.02398 8.46799 6.21598 8.46799C6.40798 8.46799 6.59298 8.54199 6.73198 8.67499L7.33198 9.27499C7.46898 9.41199 7.54598 9.59799 7.54598 9.79199C7.54598 9.98599 7.46898 10.172 7.33198 10.309L7.22598 10.415C7.73398 11.225 8.00198 12.163 7.99898 13.119H7.99998Z" fill="#202020"/>
</g>
<defs>
<clipPath id="clip0_7201_58804">
<rect width="16" height="16" fill="white"/>
</clipPath>
</defs>
</svg>
