<svg width="16" height="16" viewBox="0 0 16 16" fill="none" xmlns="http://www.w3.org/2000/svg">
<g clip-path="url(#clip0_7201_58817)">
<path fill-rule="evenodd" clip-rule="evenodd" d="M4.05279 2.27639C4.13749 2.107 4.31062 2 4.5 2H13.5C13.6894 2 13.8625 2.107 13.9472 2.27639L15.9472 6.27639C16.035 6.45206 16.0119 6.66287 15.8881 6.8153L9.38806 14.8153C9.29312 14.9322 9.15057 15 9 15C8.84944 15 8.70689 14.9322 8.61195 14.8153L8.27644 14.4024C8.46487 14.2884 8.6252 14.1348 8.747 13.951C8.912 13.704 8.999 13.416 8.999 13.122C8.99936 13.0129 8.99679 12.9041 8.99133 12.7956L9.00002 12.8234L10.8199 7H7.1802L7.50208 8.03004L7.423 7.95095C7.11125 7.65351 6.70771 7.48421 6.27909 7.46907L6.13251 7H3.55049L3.58494 7.0424C3.35238 7.01554 3.11741 7.00195 2.881 7.00195C2.69561 7.00195 2.5141 7.03562 2.34392 7.1008L2.11195 6.8153C1.9881 6.66287 1.96496 6.45206 2.05279 6.27639L4.05279 2.27639ZM4.80902 3L3.30902 6H6.10972L6.85972 3H4.80902ZM14.4495 7H11.8675L10.2538 12.164L14.4495 7ZM11.8903 6H14.691L13.191 3H11.1403L11.8903 6ZM7.14049 6H10.8596L10.1096 3H7.89049L7.14049 6Z" fill="#006CBF"/>
<path d="M5.543 12.087L1.911 15.72C1.73 15.9 1.486 16.001 1.231 16.001C0.976 16.001 0.732 15.9 0.551 15.72L0.281 15.449C0.101 15.268 0 15.024 0 14.769C0 14.514 0.101 14.27 0.281 14.089L3.913 10.457C4.007 10.363 4.134 10.311 4.267 10.311C4.4 10.311 4.527 10.364 4.62 10.457L5.543 11.38C5.637 11.474 5.689 11.601 5.689 11.733C5.689 11.865 5.636 11.993 5.543 12.087V12.087Z" fill="#B27C00"/>
<path d="M7.99998 13.119C7.99998 13.218 7.97098 13.314 7.91598 13.397C7.86098 13.48 7.78298 13.543 7.69198 13.581C7.63098 13.606 7.56598 13.619 7.49998 13.619C7.36798 13.619 7.24098 13.566 7.14698 13.473L5.65198 11.98L5.54298 12.087C5.44898 12.181 5.32198 12.233 5.18898 12.233C5.05598 12.233 4.92898 12.18 4.83598 12.087L3.91298 11.164C3.81898 11.07 3.76698 10.943 3.76698 10.81C3.76698 10.677 3.81998 10.55 3.91298 10.457L4.02098 10.349L2.52798 8.85499C2.45798 8.78499 2.40998 8.69599 2.39098 8.59899C2.37198 8.50199 2.38098 8.40099 2.41898 8.30999C2.45698 8.21899 2.52098 8.13999 2.60298 8.08499C2.68498 8.02999 2.78198 8.00099 2.88098 8.00099C3.83898 7.99899 4.77798 8.26899 5.58798 8.77999L5.69998 8.67499C5.83898 8.54199 6.02398 8.46799 6.21598 8.46799C6.40798 8.46799 6.59298 8.54199 6.73198 8.67499L7.33198 9.27499C7.46898 9.41199 7.54598 9.59799 7.54598 9.79199C7.54598 9.98599 7.46898 10.172 7.33198 10.309L7.22598 10.415C7.73398 11.225 8.00198 12.163 7.99898 13.119H7.99998Z" fill="#202020"/>
</g>
<defs>
<clipPath id="clip0_7201_58817">
<rect width="16" height="16" fill="white"/>
</clipPath>
</defs>
</svg>
