<svg width="16" height="16" viewBox="0 0 16 16" fill="none" xmlns="http://www.w3.org/2000/svg">
<g clip-path="url(#clip0_7201_59309)">
<path d="M7.54923 9.07806L6.826 10.234C6.679 10.468 6.751 10.777 6.984 10.923C7.219 11.07 7.527 10.999 7.673 10.765L8.924 8.765C8.974 8.686 9 8.594 9 8.5V7.66308C8.60818 8.21948 8.11578 8.69995 7.54923 9.07806Z" fill="#202020"/>
<path d="M9.79297 6C9.88412 5.67772 9.94663 5.34341 9.97758 5H11.501C11.777 5 12.001 5.224 12.001 5.5C12.001 5.776 11.777 6 11.501 6H11.001V8.357L12.174 10.235C12.32 10.469 12.249 10.777 12.015 10.923L12.014 10.924C11.932 10.976 11.84 11 11.749 11C11.583 11 11.42 10.917 11.325 10.765L10.076 8.765C10.026 8.686 10 8.594 10 8.5V6H9.79297Z" fill="#202020"/>
<path d="M9.79297 3C9.69436 2.65136 9.56223 2.31679 9.40029 2L14 2C15.103 2 16 2.897 16 4V13C16 14.103 15.103 15 14 15H5C3.897 15 3 14.103 3 13L3 9.79297C3.32228 9.88412 3.65659 9.94663 4 9.97758V13C4 13.552 4.448 14 5 14H14C14.552 14 15 13.552 15 13V4C15 3.449 14.552 3 14 3H9.79297Z" fill="#202020"/>
<path fill-rule="evenodd" clip-rule="evenodd" d="M6.89993 13H12.0979C12.2779 13 12.4549 12.952 12.6039 12.862C12.7589 12.772 12.8869 12.64 12.9739 12.483C13.0609 12.325 13.1039 12.147 13.0979 11.976C13.0939 11.795 13.0419 11.62 12.9449 11.468L12.0279 9.99902H6.97393L6.05193 11.47C5.95693 11.622 5.90493 11.797 5.90093 11.97C5.89493 12.151 5.93893 12.33 6.02493 12.483C6.11193 12.64 6.23993 12.772 6.38893 12.859C6.54293 12.951 6.71893 13 6.89993 13ZM6.89993 12.001L7.52693 11H11.4729L12.0979 12.001H6.89993Z" fill="#159195"/>
<path fill-rule="evenodd" clip-rule="evenodd" d="M1.99994 0.758387C2.73996 0.26392 3.60999 0 4.5 0C5.69348 0 6.83807 0.474106 7.68198 1.31802C8.5259 2.16193 9 3.30653 9 4.5C9 5.39002 8.73608 6.26004 8.24162 7.00007C7.74715 7.74009 7.04434 8.31686 6.22208 8.65746C5.39981 8.99805 4.49501 9.08717 3.6221 8.91353C2.74918 8.7399 1.94736 8.31132 1.31802 7.68198C0.688685 7.05264 0.260102 6.25082 0.0864683 5.37791C-0.0871652 4.50499 0.00194976 3.60019 0.342544 2.77792C0.683138 1.95566 1.25991 1.25285 1.99994 0.758387ZM6.713 4.937L3.743 6.587C3.66689 6.62932 3.58104 6.65103 3.49396 6.64998C3.40688 6.64893 3.32158 6.62515 3.24652 6.581C3.17145 6.53685 3.10922 6.47386 3.06598 6.39826C3.02274 6.32266 3 6.23708 3 6.15V2.85C3 2.76291 3.02274 2.67733 3.06598 2.60173C3.10922 2.52614 3.17145 2.46315 3.24652 2.41899C3.32158 2.37484 3.40688 2.35106 3.49396 2.35001C3.58104 2.34896 3.66689 2.37067 3.743 2.413L6.713 4.063C6.79091 4.10631 6.85582 4.16967 6.90101 4.2465C6.94621 4.32334 6.97004 4.41086 6.97004 4.5C6.97004 4.58914 6.94621 4.67666 6.90101 4.75349C6.85582 4.83033 6.79091 4.89368 6.713 4.937Z" fill="#11910D"/>
</g>
<defs>
<clipPath id="clip0_7201_59309">
<rect width="16" height="16" fill="white"/>
</clipPath>
</defs>
</svg>
