<svg width="16" height="16" viewBox="0 0 16 16" fill="none" xmlns="http://www.w3.org/2000/svg">
<path d="M4 3.49968C4 2.35243 5.2355 1.62986 6.23541 2.19233L14.2357 6.69262C15.2551 7.26609 15.2551 8.73391 14.2356 9.30735L9 12.2523V9C9 8.46957 8.78929 7.96086 8.41421 7.58579C8.03914 7.21071 7.53043 7 7 7H4V3.49968Z" fill="#11910D"/>
<path d="M7.707 8.293C7.51951 8.10545 7.26519 8.00006 7 8H1C0.734805 8.00006 0.480493 8.10545 0.293 8.293C0.105451 8.48049 5.66374e-05 8.73481 0 9V15C5.66374e-05 15.2652 0.105451 15.5195 0.293 15.707C0.480493 15.8946 0.734805 15.9999 1 16H7C7.26519 15.9999 7.51951 15.8946 7.707 15.707C7.89455 15.5195 7.99994 15.2652 8 15V9C7.99994 8.73481 7.89455 8.48049 7.707 8.293ZM7 15H1V9H7V15Z" fill="#202020"/>
<path d="M3.50001 14C3.4343 14.0001 3.36922 13.9873 3.30848 13.9622C3.24773 13.9372 3.19253 13.9004 3.14601 13.854L1.90001 12.6C1.85344 12.5536 1.8165 12.4984 1.79129 12.4376C1.76609 12.3769 1.75311 12.3118 1.75311 12.246C1.75311 12.1802 1.76609 12.1151 1.79129 12.0544C1.8165 11.9936 1.85344 11.9384 1.90001 11.892C1.94645 11.8454 2.00163 11.8085 2.06237 11.7833C2.12312 11.7581 2.18824 11.7451 2.25401 11.7451C2.31977 11.7451 2.3849 11.7581 2.44564 11.7833C2.50639 11.8085 2.56156 11.8454 2.60801 11.892L3.50801 12.792L5.65401 10.645C5.70045 10.5984 5.75563 10.5615 5.81637 10.5363C5.87712 10.5111 5.94224 10.4981 6.00801 10.4981C6.07377 10.4981 6.1389 10.5111 6.19964 10.5363C6.26039 10.5615 6.31556 10.5984 6.36201 10.645C6.40857 10.6914 6.44551 10.7466 6.47072 10.8074C6.49593 10.8681 6.5089 10.9332 6.5089 10.999C6.5089 11.0648 6.49593 11.1299 6.47072 11.1906C6.44551 11.2514 6.40857 11.3066 6.36201 11.353L3.86201 13.853C3.81462 13.9005 3.75815 13.9381 3.69596 13.9633C3.63377 13.9886 3.56712 14.0011 3.50001 14Z" fill="#202020"/>
</svg>
