<svg width="16" height="16" viewBox="0 0 16 16" fill="none" xmlns="http://www.w3.org/2000/svg">
<path fill-rule="evenodd" clip-rule="evenodd" d="M6 5C6 6.103 6.897 7 8 7C9.103 7 10 6.103 10 5V3C10 1.897 9.103 1 8 1C6.897 1 6 1.897 6 3V5ZM7 3C7 2.449 7.448 2 8 2C8.552 2 9 2.449 9 3V5C9 5.551 8.552 6 8 6C7.448 6 7 5.551 7 5V3Z" fill="#202020"/>
<path fill-rule="evenodd" clip-rule="evenodd" d="M11 5C11 6.103 11.897 7 13 7C14.103 7 15 6.103 15 5V3C15 1.897 14.103 1 13 1C11.897 1 11 1.897 11 3V5ZM12 3C12 2.449 12.448 2 13 2C13.552 2 14 2.449 14 3V5C14 5.551 13.552 6 13 6C12.448 6 12 5.551 12 5V3Z" fill="#202020"/>
<path fill-rule="evenodd" clip-rule="evenodd" d="M11 12C11 13.103 11.897 14 13 14C14.103 14 15 13.103 15 12V10C15 8.897 14.103 8 13 8C11.897 8 11 8.897 11 10V12ZM12 10C12 9.449 12.448 9 13 9C13.552 9 14 9.449 14 10V12C14 12.551 13.552 13 13 13C12.448 13 12 12.551 12 12V10Z" fill="#202020"/>
<path d="M3 6C3 5.448 3.448 5 4 5C4.552 5 5 5.448 5 6C5 6.552 4.552 7 4 7C3.448 7 3 6.552 3 6Z" fill="#202020"/>
<path d="M8 13C8 12.448 8.448 12 9 12C9.552 12 10 12.448 10 13C10 13.552 9.552 14 9 14C8.448 14 8 13.552 8 13Z" fill="#202020"/>
<path d="M6.85 11.85L4.85 13.85C4.80488 13.8975 4.75059 13.9352 4.69042 13.9611C4.63026 13.9869 4.56547 14.0002 4.5 14.0002C4.43453 14.0002 4.36974 13.9869 4.30958 13.9611C4.24941 13.9352 4.19512 13.8975 4.15 13.85C4.10256 13.8049 4.06478 13.7506 4.03897 13.6905C4.01316 13.6303 3.99985 13.5655 3.99985 13.5C3.99985 13.4346 4.01316 13.3698 4.03897 13.3096C4.06478 13.2494 4.10256 13.1951 4.15 13.15L5.29 12H0.5C0.367392 12 0.240215 11.9473 0.146447 11.8536C0.0526784 11.7598 0 11.6326 0 11.5C0 11.3674 0.0526784 11.2402 0.146447 11.1465C0.240215 11.0527 0.367392 11 0.5 11H5.29L4.15 9.85003C4.10256 9.80491 4.06478 9.75062 4.03897 9.69045C4.01316 9.63028 3.99985 9.5655 3.99985 9.50003C3.99985 9.43456 4.01316 9.36977 4.03897 9.3096C4.06478 9.24944 4.10256 9.19515 4.15 9.15003C4.19512 9.10259 4.24941 9.06481 4.30958 9.039C4.36974 9.01319 4.43453 8.99988 4.5 8.99988C4.56547 8.99988 4.63026 9.01319 4.69042 9.039C4.75059 9.06481 4.80488 9.10259 4.85 9.15003L6.85 11.15C6.89744 11.1951 6.93522 11.2494 6.96103 11.3096C6.98684 11.3698 7.00015 11.4346 7.00015 11.5C7.00015 11.5655 6.98684 11.6303 6.96103 11.6905C6.93522 11.7506 6.89744 11.8049 6.85 11.85V11.85Z" fill="#006CBF"/>
</svg>
