<svg width="16" height="16" viewBox="0 0 16 16" fill="none" xmlns="http://www.w3.org/2000/svg">
<path fill-rule="evenodd" clip-rule="evenodd" d="M10.5 2H7.5C7.10218 2 6.72064 2.15804 6.43934 2.43934C6.15804 2.72064 6 3.10218 6 3.5V7H7V6H11V6.02242C11.1647 6.00758 11.3315 6 11.5 6C11.6685 6 11.8353 6.00758 12 6.02242V3.5C12 3.10218 11.842 2.72064 11.5607 2.43934C11.2794 2.15804 10.8978 2 10.5 2ZM7 3.5C7 3.36739 7.05268 3.24021 7.14645 3.14645C7.24021 3.05268 7.36739 3 7.5 3H10.5C10.6326 3 10.7598 3.05268 10.8536 3.14645C10.9473 3.24021 11 3.36739 11 3.5V5H7V3.5Z" fill="#202020"/>
<path d="M2.146 10.646C2.24 10.553 2.367 10.5 2.5 10.5C2.633 10.5 2.76 10.552 2.854 10.646C2.947 10.74 3 10.867 3 11V13C3 13.133 2.948 13.261 2.854 13.354C2.76 13.447 2.633 13.5 2.5 13.5C2.367 13.5 2.239 13.448 2.146 13.354C2.053 13.26 2 13.133 2 13V11C2 10.867 2.052 10.74 2.146 10.646Z" fill="#202020"/>
<path fill-rule="evenodd" clip-rule="evenodd" d="M7.23436 8.02779C7.15819 8.00946 7.07955 8 7 8H1C0.735 8 0.48 8.105 0.293 8.293C0.105 8.481 0 8.735 0 9V15C0 15.265 0.105 15.52 0.293 15.707C0.481 15.895 0.735 16 1 16H7C7.265 16 7.52 15.895 7.707 15.707C7.74612 15.6679 7.78164 15.6259 7.81337 15.5816C7.42799 15.2333 7.09218 14.8312 6.81777 14.3871C6.72912 14.4601 6.61648 14.5 6.5 14.5C6.367 14.5 6.24 14.447 6.146 14.354C6.052 14.261 6 14.133 6 14V11.323C5.891 11.384 5.777 11.435 5.658 11.474C5.595 11.498 5.528 11.508 5.461 11.506C5.394 11.503 5.328 11.487 5.267 11.458C5.206 11.429 5.152 11.388 5.108 11.338C5.064 11.288 5.03 11.229 5.008 11.165C4.987 11.101 4.979 11.034 4.984 10.967C4.989 10.9 5.008 10.835 5.039 10.775C5.07 10.715 5.113 10.663 5.165 10.62C5.217 10.577 5.277 10.546 5.342 10.527C5.497 10.467 5.638 10.375 5.755 10.257C5.873 10.139 5.964 9.998 6.025 9.843C6.062 9.73 6.139 9.634 6.241 9.573C6.28094 9.54872 6.32364 9.53043 6.36784 9.51829C6.578 8.97437 6.87215 8.47224 7.23436 8.02779ZM3.561 14.061C3.842 13.779 4 13.398 4 13V11C4 10.602 3.843 10.22 3.561 9.939C3.279 9.658 2.898 9.5 2.5 9.5C2.102 9.5 1.72 9.657 1.439 9.939C1.158 10.221 1 10.602 1 11V13C1 13.398 1.158 13.78 1.439 14.061C1.721 14.342 2.102 14.5 2.5 14.5C2.898 14.5 3.28 14.342 3.561 14.061Z" fill="#202020"/>
<path fill-rule="evenodd" clip-rule="evenodd" d="M11.5 16C13.9853 16 16 13.9853 16 11.5C16 9.01472 13.9853 7 11.5 7C9.01472 7 7 9.01472 7 11.5C7 13.9853 9.01472 16 11.5 16ZM13.3536 10.3536C13.5488 10.1583 13.5488 9.84171 13.3536 9.64645C13.1583 9.45118 12.8417 9.45118 12.6464 9.64645L11.5 10.7929L10.3536 9.64645C10.1583 9.45118 9.84171 9.45118 9.64645 9.64645C9.45118 9.84171 9.45118 10.1583 9.64645 10.3536L10.7929 11.5L9.64645 12.6464C9.45118 12.8417 9.45118 13.1583 9.64645 13.3536C9.84171 13.5488 10.1583 13.5488 10.3536 13.3536L11.5 12.2071L12.6464 13.3536C12.8417 13.5488 13.1583 13.5488 13.3536 13.3536C13.5488 13.1583 13.5488 12.8417 13.3536 12.6464L12.2071 11.5L13.3536 10.3536Z" fill="#C50F1F"/>
</svg>
