<svg width="16" height="16" viewBox="0 0 16 16" fill="none" xmlns="http://www.w3.org/2000/svg">
<path fill-rule="evenodd" clip-rule="evenodd" d="M7.5 2H10.5C10.8978 2 11.2794 2.15804 11.5607 2.43934C11.842 2.72064 12 3.10218 12 3.5V12.5C12 12.8978 11.842 13.2794 11.5607 13.5607C11.2794 13.842 10.8978 14 10.5 14H9V13H10.5C10.6326 13 10.7598 12.9473 10.8536 12.8536C10.9473 12.7598 11 12.6326 11 12.5V11H9V10H11V6H7V7H6V3.5C6 3.10218 6.15804 2.72064 6.43934 2.43934C6.72064 2.15804 7.10218 2 7.5 2ZM7.14645 3.14645C7.05268 3.24021 7 3.36739 7 3.5V5H11V3.5C11 3.36739 10.9473 3.24021 10.8536 3.14645C10.7598 3.05268 10.6326 3 10.5 3H7.5C7.36739 3 7.24021 3.05268 7.14645 3.14645Z" fill="#202020"/>
<path fill-rule="evenodd" clip-rule="evenodd" d="M2.5 10.5C2.367 10.5 2.24 10.553 2.146 10.646C2.052 10.74 2 10.867 2 11V13C2 13.133 2.053 13.26 2.146 13.354C2.239 13.448 2.367 13.5 2.5 13.5C2.633 13.5 2.76 13.447 2.854 13.354C2.948 13.261 3 13.133 3 13V11C3 10.867 2.947 10.74 2.854 10.646C2.76 10.552 2.633 10.5 2.5 10.5ZM7.707 8.293C7.52 8.105 7.265 8 7 8H1C0.735 8 0.48 8.105 0.293 8.293C0.105 8.481 0 8.735 0 9V15C0 15.265 0.105 15.52 0.293 15.707C0.481 15.895 0.735 16 1 16H7C7.265 16 7.52 15.895 7.707 15.707C7.895 15.519 8 15.265 8 15V9C8 8.735 7.895 8.48 7.707 8.293ZM4 13C4 13.398 3.842 13.779 3.561 14.061C3.28 14.342 2.898 14.5 2.5 14.5C2.102 14.5 1.721 14.342 1.439 14.061C1.158 13.78 1 13.398 1 13V11C1 10.602 1.158 10.221 1.439 9.939C1.72 9.657 2.102 9.5 2.5 9.5C2.898 9.5 3.279 9.658 3.561 9.939C3.843 10.22 4 10.602 4 11V13ZM7 14C7 14.133 6.947 14.26 6.854 14.354C6.761 14.448 6.633 14.5 6.5 14.5C6.367 14.5 6.24 14.447 6.146 14.354C6.052 14.261 6 14.133 6 14V11.323C5.891 11.384 5.777 11.435 5.658 11.474C5.595 11.498 5.528 11.508 5.461 11.506C5.394 11.503 5.328 11.487 5.267 11.458C5.206 11.429 5.152 11.388 5.108 11.338C5.064 11.288 5.03 11.229 5.008 11.165C4.987 11.101 4.979 11.034 4.984 10.967C4.989 10.9 5.008 10.835 5.039 10.775C5.07 10.715 5.113 10.663 5.165 10.62C5.217 10.577 5.277 10.546 5.342 10.527C5.497 10.467 5.638 10.375 5.755 10.257C5.873 10.139 5.964 9.998 6.025 9.843C6.062 9.73 6.139 9.634 6.241 9.573C6.343 9.511 6.463 9.488 6.58 9.507C6.697 9.526 6.804 9.586 6.881 9.677C6.958 9.768 7 9.883 7 10.001V14.001V14Z" fill="#202020"/>
</svg>
