<svg width="16" height="16" viewBox="0 0 16 16" fill="none" xmlns="http://www.w3.org/2000/svg">
<g clip-path="url(#clip0_7201_59415)">
<path d="M9.51796 9.245C9.2722 8.69898 8.93995 8.2003 8.53865 7.76642C8.56139 7.72346 8.59083 7.68313 8.62696 7.647C8.82196 7.452 9.13896 7.452 9.33396 7.647L10.48 8.793L12.783 6.49C12.978 6.295 13.295 6.295 13.49 6.49C13.685 6.685 13.685 7.002 13.49 7.197H13.491L10.834 9.854C10.639 10.049 10.322 10.049 10.127 9.854L9.51796 9.245Z" fill="#11910D"/>
<path d="M15 8.50001C15 8.22401 15.224 8.00001 15.5 8.00001L15.501 7.99901C15.777 7.99901 16.001 8.22301 16.001 8.49901C16.001 11.531 13.533 13.999 10.501 13.999C10.142 13.999 9.79093 13.9644 9.45092 13.8984C9.59784 13.5957 9.71781 13.2774 9.80772 12.9468C10.0334 12.9818 10.2646 13 10.5 13C12.981 13 15 10.981 15 8.50001Z" fill="#202020"/>
<path d="M6.52826 6.38607C7.28643 4.96753 8.78251 4.00001 10.5 4.00001H13.293L12.647 4.64601C12.452 4.84101 12.452 5.15801 12.647 5.35301C12.745 5.45101 12.873 5.49901 13.001 5.49901C13.129 5.49901 13.257 5.45001 13.355 5.35301L14.855 3.85301C15.05 3.65801 15.05 3.34101 14.855 3.14601L13.355 1.64601C13.16 1.45101 12.843 1.45101 12.648 1.64601C12.453 1.84101 12.453 2.15801 12.648 2.35301L13.294 2.99901H10.501C8.3282 2.99901 6.44506 4.26642 5.55224 6.10055C5.88959 6.16591 6.21595 6.2621 6.52826 6.38607Z" fill="#202020"/>
<path d="M9 11.5C9 13.9853 6.98528 16 4.5 16C2.01472 16 0 13.9853 0 11.5C0 9.01472 2.01472 7 4.5 7C6.98528 7 9 9.01472 9 11.5ZM4.5 9C4.22386 9 4 9.22386 4 9.5V11.5C4 11.7761 4.22386 12 4.5 12H6C6.27614 12 6.5 11.7761 6.5 11.5C6.5 11.2239 6.27614 11 6 11H5V9.5C5 9.22386 4.77614 9 4.5 9Z" fill="#202020"/>
</g>
<defs>
<clipPath id="clip0_7201_59415">
<rect width="16" height="16" fill="white"/>
</clipPath>
</defs>
</svg>
