<svg width="16" height="16" viewBox="0 0 16 16" fill="none" xmlns="http://www.w3.org/2000/svg">
<g clip-path="url(#clip0_7201_59776)">
<path d="M5.19985 2.92119L5.75846 2.36297C5.84239 2.31503 5.93183 2.27469 6.02601 2.24299L9.52601 1.07699C9.83401 0.974988 10.166 0.974988 10.475 1.07699L13.975 2.24299H13.977C14.59 2.44899 15.002 3.02099 15.002 3.66699V8.33299C15.002 8.97999 14.59 9.55099 13.978 9.75599L10.477 10.923C10.322 10.974 10.164 11 10.002 11C9.99382 11 9.98564 10.9999 9.97747 10.9998C9.94495 10.6397 9.87773 10.2897 9.77918 9.95307L9.84201 9.97399C9.94301 10.009 10.056 10.009 10.158 9.97399L13.658 8.80799C13.862 8.73899 14 8.54899 14 8.33299V3.66699C14 3.45099 13.862 3.25999 13.657 3.19099L10.158 2.02599C10.057 1.99099 9.94401 1.99099 9.84201 2.02599L6.34301 3.19099C6.13801 3.26099 6.00001 3.45099 6.00001 3.66699V3.8784L5.14582 3.0248C5.1625 2.98953 5.18053 2.95497 5.19985 2.92119Z" fill="#202020"/>
<path d="M12.314 3.78598L9.99998 4.71198L7.68598 3.78598C7.42998 3.68298 7.13898 3.80798 7.03698 4.06398C6.93498 4.31998 7.05798 4.61098 7.31498 4.71298L9.50098 5.58698V7.49898C9.50098 7.77498 9.72498 7.99898 10.001 7.99898C10.277 7.99898 10.501 7.77498 10.501 7.49898V5.58698L12.687 4.71298C12.944 4.60998 13.068 4.31898 12.965 4.06398C12.862 3.80898 12.571 3.68298 12.316 3.78598H12.314Z" fill="#202020"/>
<path d="M3.01115 11.001L5.98915 11.001C5.96386 9.97881 5.74959 8.97015 5.35715 8.02598C4.93515 7.10098 4.55715 7.00098 4.50015 7.00098C4.44315 7.00098 4.06515 7.10098 3.64315 8.02598C3.25071 8.97015 3.03643 9.97881 3.01115 11.001ZM0.0271456 11.001C0.119033 10.1814 0.434391 9.4028 0.938769 8.75028C1.44315 8.09777 2.11715 7.59641 2.88715 7.30098C2.32984 8.45608 2.03059 9.71862 2.01015 11.001L0.0271456 11.001ZM0.0271454 12.001L2.01015 12.001C2.03059 13.2833 2.32984 14.5459 2.88714 15.701C2.11715 15.4055 1.44315 14.9042 0.938768 14.2517C0.43439 13.5991 0.119033 12.8206 0.0271454 12.001ZM4.50014 16.001C4.44314 16.001 4.06514 15.901 3.64314 14.976C3.25071 14.0318 3.03643 13.0231 3.01115 12.001L5.98915 12.001C5.96386 13.0231 5.74959 14.0318 5.35715 14.976C4.93515 15.901 4.55714 16.001 4.50014 16.001ZM8.97314 12.001C8.88126 12.8206 8.5659 13.5992 8.06152 14.2517C7.55714 14.9042 6.88314 15.4055 6.11314 15.701C6.67045 14.5459 6.9697 13.2833 6.99015 12.001L8.97314 12.001ZM6.11315 7.30098C6.88314 7.59641 7.55714 8.09777 8.06152 8.75029C8.5659 9.4028 8.88126 10.1814 8.97314 11.001L6.99015 11.001C6.9697 9.71862 6.67045 8.45608 6.11315 7.30098Z" fill="#006CBF"/>
<path d="M5.85402 5.14602C5.94791 5.23991 6.00065 5.36725 6.00065 5.50002C6.00065 5.6328 5.94791 5.76013 5.85402 5.85402C5.76013 5.94791 5.6328 6.00065 5.50002 6.00065C5.36725 6.00065 5.23991 5.94791 5.14602 5.85402L3.00002 3.70702L0.854021 5.85402C0.760135 5.94791 0.632797 6.00065 0.500021 6.00065C0.367245 6.00065 0.239908 5.94791 0.146021 5.85402C0.0521346 5.76013 -0.000610349 5.6328 -0.000610352 5.50002C-0.000610354 5.36725 0.0521346 5.23991 0.146021 5.14602L2.29302 3.00002L0.146021 0.854021C0.0521346 0.760135 -0.000610353 0.632797 -0.000610352 0.500021C-0.000610351 0.367245 0.0521346 0.239908 0.146021 0.146021C0.239908 0.0521346 0.367245 -0.000610351 0.500021 -0.000610352C0.632797 -0.000610353 0.760135 0.0521346 0.854021 0.146021L3.00002 2.29302L5.14602 0.146021C5.23991 0.0521346 5.36725 -0.000610354 5.50002 -0.000610352C5.6328 -0.000610349 5.76013 0.0521346 5.85402 0.146021C5.94791 0.239908 6.00065 0.367245 6.00065 0.500021C6.00065 0.632797 5.94791 0.760135 5.85402 0.854021L3.70702 3.00002L5.85402 5.14602Z" fill="#C50F1F"/>
</g>
<defs>
<clipPath id="clip0_7201_59776">
<rect width="16" height="16" fill="white"/>
</clipPath>
</defs>
</svg>
