<svg width="16" height="16" viewBox="0 0 16 16" fill="none" xmlns="http://www.w3.org/2000/svg">
<g clip-path="url(#clip0_7201_59728)">
<path fill-rule="evenodd" clip-rule="evenodd" d="M9.5 1H13.5C14.327 1 15 1.673 15 2.5V6.5C15 7.327 14.327 8 13.5 8H12V10.5C12 11.327 11.327 12 10.5 12H8V13.5C8 14.327 7.327 15 6.5 15H2.5C1.673 15 1 14.327 1 13.5V9.5C1 8.673 1.673 8 2.5 8H6.5C7.327 8 8 8.673 8 9.5V11H10.5C10.775 11 11 10.776 11 10.5V8H9.5C8.673 8 8 7.327 8 6.5V2.5C8 1.673 8.673 1 9.5 1ZM6.5 14C6.775 14 7 13.776 7 13.5V10H2V13.5C2 13.776 2.225 14 2.5 14H6.5ZM13.5 7C13.775 7 14 6.776 14 6.5V3H9V6.5C9 6.776 9.225 7 9.5 7H13.5Z" fill="#202020"/>
<path d="M5.85402 5.14602C5.94791 5.23991 6.00065 5.36725 6.00065 5.50002C6.00065 5.6328 5.94791 5.76013 5.85402 5.85402C5.76013 5.94791 5.6328 6.00065 5.50002 6.00065C5.36725 6.00065 5.23991 5.94791 5.14602 5.85402L3.00002 3.70702L0.854021 5.85402C0.760135 5.94791 0.632797 6.00065 0.500021 6.00065C0.367245 6.00065 0.239908 5.94791 0.146021 5.85402C0.0521346 5.76013 -0.000610349 5.6328 -0.000610352 5.50002C-0.000610354 5.36725 0.0521346 5.23991 0.146021 5.14602L2.29302 3.00002L0.146021 0.854021C0.0521346 0.760135 -0.000610353 0.632797 -0.000610352 0.500021C-0.000610351 0.367245 0.0521346 0.239908 0.146021 0.146021C0.239908 0.0521346 0.367245 -0.000610351 0.500021 -0.000610352C0.632797 -0.000610353 0.760135 0.0521346 0.854021 0.146021L3.00002 2.29302L5.14602 0.146021C5.23991 0.0521346 5.36725 -0.000610354 5.50002 -0.000610352C5.6328 -0.000610349 5.76013 0.0521346 5.85402 0.146021C5.94791 0.239908 6.00065 0.367245 6.00065 0.500021C6.00065 0.632797 5.94791 0.760135 5.85402 0.854021L3.70702 3.00002L5.85402 5.14602Z" fill="#C50F1F"/>
</g>
<defs>
<clipPath id="clip0_7201_59728">
<rect width="16" height="16" fill="white"/>
</clipPath>
</defs>
</svg>
