<svg width="16" height="16" viewBox="0 0 16 16" fill="none" xmlns="http://www.w3.org/2000/svg">
<g clip-path="url(#clip0_7201_59636)">
<path fill-rule="evenodd" clip-rule="evenodd" d="M4.92563 6.88649C5.10773 6.96184 5.30293 7.00041 5.49999 6.99999C5.79676 7.00013 6.0869 6.91223 6.3337 6.74741C6.5805 6.5826 6.77287 6.34828 6.88645 6.07411C6.91951 5.99432 6.94546 5.91219 6.96422 5.82867L8.29289 4.5L6.93934 3.14645C6.84557 3.05268 6.71839 3 6.58579 3H5.121L6.12168 2H6.58579C6.98361 2 7.36514 2.15804 7.64645 2.43934L9.20711 4H13.5C14.8807 4 16 5.11929 16 6.5V11.5C16 12.8807 14.8807 14 13.5 14H4.5C3.11929 14 2 12.8807 2 11.5V6.12168L2.99999 5.12099L3 6H3.87839L4.43899 6.56099C4.57815 6.70053 4.74354 6.81115 4.92563 6.88649ZM3 11.5V7H6.58579C6.98361 7 7.36514 6.84197 7.64645 6.56066L9.20711 5H13.5C14.3284 5 15 5.67157 15 6.5V11.5C15 12.3284 14.3284 13 13.5 13H4.5C3.67157 13 3 12.3284 3 11.5Z" fill="#B27C00"/>
<path d="M5.85402 5.14602C5.94791 5.23991 6.00065 5.36725 6.00065 5.50002C6.00065 5.6328 5.94791 5.76013 5.85402 5.85402C5.76013 5.94791 5.6328 6.00065 5.50002 6.00065C5.36725 6.00065 5.23991 5.94791 5.14602 5.85402L3.00002 3.70702L0.854021 5.85402C0.760135 5.94791 0.632797 6.00065 0.500021 6.00065C0.367245 6.00065 0.239908 5.94791 0.146021 5.85402C0.0521346 5.76013 -0.000610349 5.6328 -0.000610352 5.50002C-0.000610354 5.36725 0.0521346 5.23991 0.146021 5.14602L2.29302 3.00002L0.146021 0.854021C0.0521346 0.760135 -0.000610353 0.632797 -0.000610352 0.500021C-0.000610351 0.367245 0.0521346 0.239908 0.146021 0.146021C0.239908 0.0521346 0.367245 -0.000610351 0.500021 -0.000610352C0.632797 -0.000610353 0.760135 0.0521346 0.854021 0.146021L3.00002 2.29302L5.14602 0.146021C5.23991 0.0521346 5.36725 -0.000610354 5.50002 -0.000610352C5.6328 -0.000610349 5.76013 0.0521346 5.85402 0.146021C5.94791 0.239908 6.00065 0.367245 6.00065 0.500021C6.00065 0.632797 5.94791 0.760135 5.85402 0.854021L3.70702 3.00002L5.85402 5.14602Z" fill="#C50F1F"/>
</g>
<defs>
<clipPath id="clip0_7201_59636">
<rect width="16" height="16" fill="white"/>
</clipPath>
</defs>
</svg>
