<svg width="16" height="16" viewBox="0 0 16 16" fill="none" xmlns="http://www.w3.org/2000/svg">
<g clip-path="url(#clip0_7201_59646)">
<path d="M6.31817 6.75765L6.87495 7.50001L5.59995 9.20001C5.43395 9.42101 5.47895 9.73401 5.69995 9.90001C5.92095 10.066 6.23395 10.021 6.39995 9.80001L7.49995 8.33301L8.59995 9.80001C8.76595 10.021 9.07895 10.066 9.29995 9.90001C9.52095 9.73401 9.56595 9.42101 9.39995 9.20001L8.12495 7.50001L9.39995 5.80001C9.56595 5.57901 9.52095 5.26601 9.29995 5.10001C9.07895 4.93401 8.76595 4.97901 8.59995 5.20001L7.49995 6.66701L6.94043 5.92082C6.92527 5.97268 6.90727 6.02386 6.88645 6.07411C6.77287 6.34828 6.5805 6.5826 6.3337 6.74741C6.32855 6.75086 6.32337 6.75427 6.31817 6.75765Z" fill="#202020"/>
<path d="M10.7371 5.07399C10.972 4.92899 11.28 5.00199 11.425 5.23699H11.423L12.498 6.97699L13.573 5.23699C13.718 5.00199 14.026 4.92899 14.261 5.07399C14.496 5.21899 14.569 5.52699 14.424 5.76199L12.999 8.06999V9.49899C12.999 9.77499 12.775 9.99899 12.499 9.99899C12.223 9.99899 11.999 9.77499 11.999 9.49899V8.06999L10.574 5.76199C10.429 5.52699 10.502 5.21899 10.7371 5.07399Z" fill="#202020"/>
<path d="M16 12.5C16 13.879 14.879 15 13.5 15H5.5C4.121 15 3 13.879 3 12.5V7.5C3 7.224 3.224 7 3.5 7C3.776 7 4 7.224 4 7.5V12.5C4 13.327 4.673 14 5.5 14H13.5C14.327 14 15 13.327 15 12.5V7.5C15 7.224 15.224 7 15.5 7C15.776 7 16 7.224 16 7.5V12.5Z" fill="#202020"/>
<path d="M5.85402 5.14602C5.94791 5.23991 6.00065 5.36725 6.00065 5.50002C6.00065 5.6328 5.94791 5.76013 5.85402 5.85402C5.76013 5.94791 5.6328 6.00065 5.50002 6.00065C5.36725 6.00065 5.23991 5.94791 5.14602 5.85402L3.00002 3.70702L0.854021 5.85402C0.760135 5.94791 0.632797 6.00065 0.500021 6.00065C0.367245 6.00065 0.239908 5.94791 0.146021 5.85402C0.0521346 5.76013 -0.000610349 5.6328 -0.000610352 5.50002C-0.000610354 5.36725 0.0521346 5.23991 0.146021 5.14602L2.29302 3.00002L0.146021 0.854021C0.0521346 0.760135 -0.000610353 0.632797 -0.000610352 0.500021C-0.000610351 0.367245 0.0521346 0.239908 0.146021 0.146021C0.239908 0.0521346 0.367245 -0.000610351 0.500021 -0.000610352C0.632797 -0.000610353 0.760135 0.0521346 0.854021 0.146021L3.00002 2.29302L5.14602 0.146021C5.23991 0.0521346 5.36725 -0.000610354 5.50002 -0.000610352C5.6328 -0.000610349 5.76013 0.0521346 5.85402 0.146021C5.94791 0.239908 6.00065 0.367245 6.00065 0.500021C6.00065 0.632797 5.94791 0.760135 5.85402 0.854021L3.70702 3.00002L5.85402 5.14602Z" fill="#C50F1F"/>
</g>
<defs>
<clipPath id="clip0_7201_59646">
<rect width="16" height="16" fill="white"/>
</clipPath>
</defs>
</svg>
