<svg width="16" height="16" viewBox="0 0 16 16" fill="none" xmlns="http://www.w3.org/2000/svg">
<g clip-path="url(#clip0_8634_22283)">
<path fill-rule="evenodd" clip-rule="evenodd" d="M9.5 1C10.153 1 10.709 1.417 10.915 2H11.5C12.328 2 13 2.672 13 3.5V13.5C13 14.328 12.328 15 11.5 15H4.5C3.672 15 3 14.328 3 13.5V5.12109L4 6.12109V13.5C4 13.776 4.224 14 4.5 14H11.5C11.776 14 12 13.776 12 13.5V3.5C12 3.224 11.776 3 11.5 3H10.915C10.709 3.583 10.153 4 9.5 4H6.5C6.34419 4 6.19407 3.97571 6.05273 3.93164L5.12109 3L6.56055 1.56055C6.72021 1.40088 6.83917 1.20888 6.91309 1H9.5ZM6.5 2C6.224 2 6 2.224 6 2.5C6 2.776 6.224 3 6.5 3H9.5C9.776 3 10 2.776 10 2.5C10 2.224 9.776 2 9.5 2H6.5Z" fill="#202020"/>
<path d="M6.64453 9.64746C6.83953 9.45246 7.15656 9.45246 7.35156 9.64746C7.54656 9.84246 7.54656 10.1595 7.35156 10.3545L5.85156 11.8545C5.75388 11.9519 5.62648 11.9997 5.49902 12C5.37157 11.9997 5.24417 11.9509 5.14648 11.8545L4.64648 11.3545C4.45148 11.1595 4.45148 10.8425 4.64648 10.6475C4.84148 10.4525 5.15754 10.4525 5.35254 10.6475L5.49902 10.793L6.64453 9.64746Z" fill="#202020"/>
<path d="M10.5 10C10.776 10 11 10.224 11 10.5C11 10.776 10.776 11 10.5 11H9C8.724 11 8.5 10.776 8.5 10.5C8.5 10.224 8.724 10 9 10H10.5Z" fill="#202020"/>
<path d="M6.99902 5.50098C7.12685 5.50111 7.25419 5.55009 7.35156 5.64746C7.54656 5.84246 7.54656 6.15949 7.35156 6.35449L5.85156 7.85449C5.75388 7.95192 5.62648 7.99975 5.49902 8C5.37157 7.99975 5.24417 7.95093 5.14648 7.85449L4.64648 7.35449C4.46809 7.1761 4.45355 6.89598 4.60156 6.7002C4.70148 6.7751 4.80987 6.83876 4.92578 6.88672C5.10782 6.96201 5.30301 7.00042 5.5 7C5.79677 7.00013 6.08719 6.91188 6.33398 6.74707C6.58061 6.58227 6.77319 6.34826 6.88672 6.07422C6.96236 5.89163 6.99889 5.69671 6.99902 5.50098Z" fill="#202020"/>
<path d="M10.5 6C10.776 6 11 6.224 11 6.5C11 6.776 10.776 7 10.5 7H9C8.724 7 8.5 6.776 8.5 6.5C8.5 6.224 8.724 6 9 6H10.5Z" fill="#202020"/>
<path d="M5.85402 5.14602C5.94791 5.23991 6.00065 5.36725 6.00065 5.50002C6.00065 5.6328 5.94791 5.76013 5.85402 5.85402C5.76013 5.94791 5.6328 6.00065 5.50002 6.00065C5.36725 6.00065 5.23991 5.94791 5.14602 5.85402L3.00002 3.70702L0.854021 5.85402C0.760135 5.94791 0.632797 6.00065 0.500021 6.00065C0.367245 6.00065 0.239908 5.94791 0.146021 5.85402C0.0521346 5.76013 -0.000610349 5.6328 -0.000610352 5.50002C-0.000610354 5.36725 0.0521346 5.23991 0.146021 5.14602L2.29302 3.00002L0.146021 0.854021C0.0521346 0.760135 -0.000610353 0.632797 -0.000610352 0.500021C-0.000610351 0.367245 0.0521346 0.239908 0.146021 0.146021C0.239908 0.0521346 0.367245 -0.000610351 0.500021 -0.000610352C0.632797 -0.000610353 0.760135 0.0521346 0.854021 0.146021L3.00002 2.29302L5.14602 0.146021C5.23991 0.0521346 5.36725 -0.000610354 5.50002 -0.000610352C5.6328 -0.000610349 5.76013 0.0521346 5.85402 0.146021C5.94791 0.239908 6.00065 0.367245 6.00065 0.500021C6.00065 0.632797 5.94791 0.760135 5.85402 0.854021L3.70702 3.00002L5.85402 5.14602Z" fill="#C50F1F"/>
</g>
<defs>
<clipPath id="clip0_8634_22283">
<rect width="16" height="16" fill="white"/>
</clipPath>
</defs>
</svg>
