<svg width="16" height="16" viewBox="0 0 16 16" fill="none" xmlns="http://www.w3.org/2000/svg">
<g clip-path="url(#clip0_7201_59601)">
<path d="M9.79329 13H13.293L12.146 14.146C12.0995 14.1925 12.0626 14.2477 12.0375 14.3084C12.0123 14.3692 11.9994 14.4343 11.9994 14.5C11.9994 14.5657 12.0123 14.6308 12.0375 14.6916C12.0626 14.7523 12.0995 14.8075 12.146 14.854C12.1925 14.9005 12.2477 14.9374 12.3084 14.9625C12.3692 14.9877 12.4343 15.0006 12.5 15.0006C12.5658 15.0006 12.6309 14.9877 12.6916 14.9625C12.7523 14.9374 12.8075 14.9005 12.854 14.854L14.854 12.854C14.9006 12.8076 14.9375 12.7524 14.9627 12.6916C14.9879 12.6309 15.0009 12.5658 15.0009 12.5C15.0009 12.4342 14.9879 12.3691 14.9627 12.3084C14.9375 12.2476 14.9006 12.1924 14.854 12.146L12.854 10.146C12.7601 10.0521 12.6328 9.99937 12.5 9.99937C12.3672 9.99937 12.2399 10.0521 12.146 10.146C12.0521 10.2399 11.9994 10.3672 11.9994 10.5C11.9994 10.6328 12.0521 10.7601 12.146 10.854L13.293 12H9.97769C9.94681 12.3434 9.88437 12.6777 9.79329 13Z" fill="#202020"/>
<path d="M9.14789 8.55912L13 4.707V6.329C13 6.46161 13.0527 6.58879 13.1465 6.68255C13.2402 6.77632 13.3674 6.829 13.5 6.829C13.6326 6.829 13.7598 6.77632 13.8536 6.68255C13.9473 6.58879 14 6.46161 14 6.329V3.5C14 3.36739 13.9473 3.24022 13.8536 3.14645C13.7598 3.05268 13.6326 3 13.5 3H10.672C10.5394 3 10.4122 3.05268 10.3185 3.14645C10.2247 3.24022 10.172 3.36739 10.172 3.5C10.172 3.63261 10.2247 3.75979 10.3185 3.85355C10.4122 3.94732 10.5394 4 10.672 4H12.293L8.53235 7.76066C8.76088 8.00691 8.96713 8.27413 9.14789 8.55912Z" fill="#202020"/>
<path d="M5.85402 5.14614C5.94791 5.24003 6.00065 5.36737 6.00065 5.50014C6.00065 5.63292 5.94791 5.76026 5.85402 5.85414C5.76013 5.94803 5.6328 6.00078 5.50002 6.00078C5.36725 6.00078 5.23991 5.94803 5.14602 5.85414L3.00002 3.70714L0.854021 5.85414C0.760135 5.94803 0.632797 6.00078 0.500021 6.00078C0.367245 6.00078 0.239908 5.94803 0.146021 5.85414C0.0521346 5.76026 -0.000610349 5.63292 -0.000610352 5.50014C-0.000610354 5.36737 0.0521346 5.24003 0.146021 5.14614L2.29302 3.00014L0.146021 0.854143C0.0521346 0.760257 -0.000610353 0.632919 -0.000610352 0.500143C-0.000610351 0.367368 0.0521346 0.24003 0.146021 0.146143C0.239908 0.0522567 0.367245 -0.00048828 0.500021 -0.000488281C0.632797 -0.000488282 0.760135 0.0522567 0.854021 0.146143L3.00002 2.29314L5.14602 0.146143C5.23991 0.0522567 5.36725 -0.000488283 5.50002 -0.000488281C5.6328 -0.000488279 5.76013 0.0522567 5.85402 0.146143C5.94791 0.24003 6.00065 0.367368 6.00065 0.500143C6.00065 0.632919 5.94791 0.760257 5.85402 0.854143L3.70702 3.00014L5.85402 5.14614Z" fill="#C50F1F"/>
<path d="M3.01115 11.0001H5.98915C5.96386 9.97795 5.74959 8.96929 5.35715 8.02512C4.93515 7.10012 4.55715 7.00012 4.50015 7.00012C4.44315 7.00012 4.06515 7.10012 3.64315 8.02512C3.25071 8.96929 3.03643 9.97795 3.01115 11.0001ZM0.0271454 11.0001C0.119033 10.1805 0.43439 9.40195 0.938769 8.74943C1.44315 8.09691 2.11715 7.59556 2.88715 7.30012C2.32984 8.45522 2.03059 9.71777 2.01015 11.0001H0.0271454ZM0.0271454 12.0001H2.01015C2.03059 13.2825 2.32984 14.545 2.88715 15.7001C2.11715 15.4047 1.44315 14.9033 0.938769 14.2508C0.43439 13.5983 0.119033 12.8197 0.0271454 12.0001ZM4.50015 16.0001C4.44315 16.0001 4.06515 15.9001 3.64315 14.9751C3.25071 14.031 3.03643 13.0223 3.01115 12.0001H5.98915C5.96386 13.0223 5.74959 14.031 5.35715 14.9751C4.93515 15.9001 4.55715 16.0001 4.50015 16.0001ZM8.97314 12.0001C8.88126 12.8197 8.5659 13.5983 8.06152 14.2508C7.55714 14.9033 6.88314 15.4047 6.11315 15.7001C6.67045 14.545 6.9697 13.2825 6.99015 12.0001H8.97314ZM6.11315 7.30012C6.88314 7.59556 7.55714 8.09691 8.06152 8.74943C8.5659 9.40195 8.88126 10.1805 8.97314 11.0001H6.99015C6.9697 9.71777 6.67045 8.45522 6.11315 7.30012Z" fill="#006CBF"/>
</g>
<defs>
<clipPath id="clip0_7201_59601">
<rect width="16" height="16" fill="white"/>
</clipPath>
</defs>
</svg>
