<svg width="16" height="16" viewBox="0 0 16 16" fill="none" xmlns="http://www.w3.org/2000/svg">
<g clip-path="url(#clip0_7201_59748)">
<path fill-rule="evenodd" clip-rule="evenodd" d="M5 6.91497C5.16042 6.97153 5.32951 7.00035 5.49999 6.99999C5.67122 7.00007 5.84024 6.97084 6 6.91444V10L10 10V6L6.91488 6C7.00465 5.74612 7.02457 5.47223 6.97181 5.20717C6.95776 5.13656 6.9387 5.06734 6.91489 5L10 5V3H6V3.87839L5.12099 2.99999L6.12168 2H11.5C12.8807 2 14 3.11929 14 4.5V11.5C14 12.8807 12.8807 14 11.5 14H4.5C3.11929 14 2 12.8807 2 11.5V6.12168L2.99999 5.12099L3.87839 6H3V10H5V6.91497ZM10 13H6V11L10 11V13ZM3 11H5V13H4.5C3.67157 13 3 12.3284 3 11.5V11ZM11 6H13V10H11V6ZM11 11H13V11.5C13 12.3284 12.3284 13 11.5 13H11V11ZM13 4.5V5H11V3H11.5C12.3284 3 13 3.67157 13 4.5Z" fill="#202020"/>
<path d="M5.85402 5.14602C5.94791 5.23991 6.00065 5.36725 6.00065 5.50002C6.00065 5.6328 5.94791 5.76013 5.85402 5.85402C5.76013 5.94791 5.6328 6.00065 5.50002 6.00065C5.36725 6.00065 5.23991 5.94791 5.14602 5.85402L3.00002 3.70702L0.854021 5.85402C0.760135 5.94791 0.632797 6.00065 0.500021 6.00065C0.367245 6.00065 0.239908 5.94791 0.146021 5.85402C0.0521346 5.76013 -0.000610349 5.6328 -0.000610352 5.50002C-0.000610354 5.36725 0.0521346 5.23991 0.146021 5.14602L2.29302 3.00002L0.146021 0.854021C0.0521346 0.760135 -0.000610353 0.632797 -0.000610352 0.500021C-0.000610351 0.367245 0.0521346 0.239908 0.146021 0.146021C0.239908 0.0521346 0.367245 -0.000610351 0.500021 -0.000610352C0.632797 -0.000610353 0.760135 0.0521346 0.854021 0.146021L3.00002 2.29302L5.14602 0.146021C5.23991 0.0521346 5.36725 -0.000610354 5.50002 -0.000610352C5.6328 -0.000610349 5.76013 0.0521346 5.85402 0.146021C5.94791 0.239908 6.00065 0.367245 6.00065 0.500021C6.00065 0.632797 5.94791 0.760135 5.85402 0.854021L3.70702 3.00002L5.85402 5.14602Z" fill="#C50F1F"/>
</g>
<defs>
<clipPath id="clip0_7201_59748">
<rect width="16" height="16" fill="white"/>
</clipPath>
</defs>
</svg>
