<svg width="16" height="16" viewBox="0 0 16 16" fill="none" xmlns="http://www.w3.org/2000/svg">
<g clip-path="url(#clip0_7201_59686)">
<path fill-rule="evenodd" clip-rule="evenodd" d="M7 8.00098C7.26519 8.00103 7.51951 8.10643 7.707 8.29398C7.89455 8.48147 7.99994 8.73578 8 9.00098V15.001C8 15.2662 7.89464 15.5205 7.70711 15.7081C7.51957 15.8956 7.26522 16.001 7 16.001H1C0.734784 16.001 0.48043 15.8956 0.292893 15.7081C0.105357 15.5205 0 15.2662 0 15.001V9.00098C0 8.73576 0.105357 8.48141 0.292893 8.29387C0.48043 8.10633 0.734784 8.00098 1 8.00098H7ZM2.14645 13.1474L1 14.2939V9.70808L2.14645 10.8545C2.34171 11.0498 2.65829 11.0498 2.85355 10.8545C3.04882 10.6593 3.04882 10.3427 2.85355 10.1474L1.70711 9.00098H6.29289L5.14645 10.1474C4.95118 10.3427 4.95118 10.6593 5.14645 10.8545C5.34171 11.0498 5.65829 11.0498 5.85355 10.8545L7 9.70808V14.2939L5.85355 13.1474C5.65829 12.9522 5.34171 12.9522 5.14645 13.1474C4.95118 13.3427 4.95118 13.6593 5.14645 13.8545L6.29289 15.001H1.70711L2.85355 13.8545C3.04882 13.6593 3.04882 13.3427 2.85355 13.1474C2.65829 12.9522 2.34171 12.9522 2.14645 13.1474Z" fill="#202020"/>
<path d="M5.00195 6.91565C5.16179 6.97177 5.3302 7.00035 5.49999 6.99999C5.6712 7.00007 5.84021 6.97085 5.99995 6.91446V7.00098H5.00195L5.00195 6.91565Z" fill="#202020"/>
<path d="M5.14578 3.02476L5.99995 3.87834V3.66699C5.99995 3.45099 6.13795 3.26099 6.34295 3.19099L9.84195 2.02599C9.94395 1.99099 10.057 1.99099 10.158 2.02599L13.657 3.19099C13.862 3.25999 14 3.45099 14 3.66699V8.33299C14 8.54899 13.862 8.73899 13.658 8.80799L10.158 9.97399C10.056 10.009 9.94295 10.009 9.84195 9.97399L9 9.69366V10.7474L9.52695 10.923C9.68095 10.974 9.83995 11 10.002 11C10.164 11 10.322 10.974 10.477 10.923L13.978 9.75599C14.59 9.55099 15.002 8.97999 15.002 8.33299V3.66699C15.002 3.02099 14.59 2.44899 13.977 2.24299H13.975L10.475 1.07699C10.166 0.974988 9.83395 0.974988 9.52595 1.07699L6.02595 2.24299C5.93183 2.27467 5.84243 2.31499 5.75854 2.36289L5.19971 2.92133C5.18042 2.95505 5.16243 2.98955 5.14578 3.02476Z" fill="#202020"/>
<path d="M12.314 3.78601L10 4.71201L7.68604 3.78601C7.43004 3.68301 7.13904 3.80801 7.03704 4.06401C6.93504 4.32001 7.05804 4.61101 7.31504 4.71301L9.50104 5.58701V7.49901C9.50104 7.77501 9.72504 7.99901 10.001 7.99901C10.277 7.99901 10.501 7.77501 10.501 7.49901V5.58701L12.687 4.71301C12.944 4.61001 13.068 4.31901 12.965 4.06401C12.862 3.80901 12.571 3.68301 12.316 3.78601H12.314Z" fill="#202020"/>
<path d="M5.85402 5.14602C5.94791 5.23991 6.00065 5.36725 6.00065 5.50002C6.00065 5.6328 5.94791 5.76013 5.85402 5.85402C5.76013 5.94791 5.6328 6.00065 5.50002 6.00065C5.36725 6.00065 5.23991 5.94791 5.14602 5.85402L3.00002 3.70702L0.854021 5.85402C0.760135 5.94791 0.632797 6.00065 0.500021 6.00065C0.367245 6.00065 0.239908 5.94791 0.146021 5.85402C0.0521346 5.76013 -0.000610349 5.6328 -0.000610352 5.50002C-0.000610354 5.36725 0.0521346 5.23991 0.146021 5.14602L2.29302 3.00002L0.146021 0.854021C0.0521346 0.760135 -0.000610353 0.632797 -0.000610352 0.500021C-0.000610351 0.367245 0.0521346 0.239908 0.146021 0.146021C0.239908 0.0521346 0.367245 -0.000610351 0.500021 -0.000610352C0.632797 -0.000610353 0.760135 0.0521346 0.854021 0.146021L3.00002 2.29302L5.14602 0.146021C5.23991 0.0521346 5.36725 -0.000610354 5.50002 -0.000610352C5.6328 -0.000610349 5.76013 0.0521346 5.85402 0.146021C5.94791 0.239908 6.00065 0.367245 6.00065 0.500021C6.00065 0.632797 5.94791 0.760135 5.85402 0.854021L3.70702 3.00002L5.85402 5.14602Z" fill="#C50F1F"/>
</g>
<defs>
<clipPath id="clip0_7201_59686">
<rect width="16" height="16" fill="white"/>
</clipPath>
</defs>
</svg>
