<svg width="16" height="16" viewBox="0 0 16 16" fill="none" xmlns="http://www.w3.org/2000/svg">
<g clip-path="url(#clip0_7201_59581)">
<path fill-rule="evenodd" clip-rule="evenodd" d="M5 6.91497C5.16042 6.97153 5.32951 7.00035 5.49999 6.99999C5.67122 7.00007 5.84024 6.97084 6 6.91444V7H9V5.5C9 5.367 8.948 5.24 8.854 5.146C8.76 5.053 8.633 5 8.5 5H6.91489C6.84057 4.78978 6.71998 4.59788 6.56099 4.43899L6.1606 4.03888C6.27098 4.01324 6.38478 4 6.5 4H8.5C8.898 4 9.28 4.158 9.561 4.439C9.842 4.721 10 5.102 10 5.5V12.5C10 12.898 9.842 13.28 9.561 13.561C9.279 13.842 8.898 14 8.5 14H6.5C6.102 14 5.72 13.842 5.439 13.561C5.158 13.279 5 12.898 5 12.5L5 6.91497ZM9 8H6V10H9V8ZM8.854 12.854C8.947 12.76 9 12.633 9 12.5V11H6V12.5C6 12.633 6.052 12.76 6.146 12.854C6.24 12.947 6.367 13 6.5 13H8.5C8.633 13 8.76 12.948 8.854 12.854Z" fill="#202020"/>
<path d="M12 10.5V5.5C12 3.57 10.43 2 8.5 2C7.85 2 7.29 2.42 7.09 3H8.5C9.88 3 11 4.12 11 5.5V11.91C11.58 11.71 12 11.15 12 10.5Z" fill="#202020"/>
<path d="M5.85402 5.14602C5.94791 5.23991 6.00065 5.36725 6.00065 5.50002C6.00065 5.6328 5.94791 5.76013 5.85402 5.85402C5.76013 5.94791 5.6328 6.00065 5.50002 6.00065C5.36725 6.00065 5.23991 5.94791 5.14602 5.85402L3.00002 3.70702L0.854021 5.85402C0.760135 5.94791 0.632797 6.00065 0.500021 6.00065C0.367245 6.00065 0.239908 5.94791 0.146021 5.85402C0.0521346 5.76013 -0.000610349 5.6328 -0.000610352 5.50002C-0.000610354 5.36725 0.0521346 5.23991 0.146021 5.14602L2.29302 3.00002L0.146021 0.854021C0.0521346 0.760135 -0.000610353 0.632797 -0.000610352 0.500021C-0.000610351 0.367245 0.0521346 0.239908 0.146021 0.146021C0.239908 0.0521346 0.367245 -0.000610351 0.500021 -0.000610352C0.632797 -0.000610353 0.760135 0.0521346 0.854021 0.146021L3.00002 2.29302L5.14602 0.146021C5.23991 0.0521346 5.36725 -0.000610354 5.50002 -0.000610352C5.6328 -0.000610349 5.76013 0.0521346 5.85402 0.146021C5.94791 0.239908 6.00065 0.367245 6.00065 0.500021C6.00065 0.632797 5.94791 0.760135 5.85402 0.854021L3.70702 3.00002L5.85402 5.14602Z" fill="#C50F1F"/>
</g>
<defs>
<clipPath id="clip0_7201_59581">
<rect width="16" height="16" fill="white"/>
</clipPath>
</defs>
</svg>
