<svg width="16" height="16" viewBox="0 0 16 16" fill="none" xmlns="http://www.w3.org/2000/svg">
<path d="M2 8.5C1.724 8.5 1.5 8.276 1.5 8C1.5 7.724 1.724 7.5 2 7.5H5.382C5.404 7.524 5.427 7.548 5.45 7.571L5.879 8L5.44 8.439C5.42 8.459 5.401 8.479 5.383 8.5H2ZM14 7.5H10.618C10.596 7.525 10.573 7.549 10.549 7.572L10.121 8L10.56 8.439C10.58 8.459 10.599 8.479 10.617 8.5H13.999C14.275 8.5 14.499 8.276 14.499 8C14.499 7.724 14.275 7.5 13.999 7.5H14ZM11.5 11H4.5C3.119 11 2 12.119 2 13.5C2 13.776 2.224 14 2.5 14C2.776 14 3 13.776 3 13.5C3 12.672 3.672 12 4.5 12H5V13.5C5 13.776 5.224 14 5.5 14C5.776 14 6 13.776 6 13.5V12H10V13.5C10 13.776 10.224 14 10.5 14C10.776 14 11 13.776 11 13.5V12H11.5C12.328 12 13 12.672 13 13.5C13 13.776 13.224 14 13.5 14C13.776 14 14 13.776 14 13.5C14 12.119 12.881 11 11.5 11ZM4.5 5H11.5C12.881 5 14 3.881 14 2.5C14 2.224 13.776 2 13.5 2C13.224 2 13 2.224 13 2.5C13 3.328 12.328 4 11.5 4H11V2.5C11 2.224 10.776 2 10.5 2C10.224 2 10 2.224 10 2.5V4H6V2.5C6 2.224 5.776 2 5.5 2C5.224 2 5 2.224 5 2.5V4H4.5C3.672 4 3 3.328 3 2.5C3 2.224 2.776 2 2.5 2C2.224 2 2 2.224 2 2.5C2 3.881 3.119 5 4.5 5Z" fill="#202020"/>
<path d="M6.14601 9.85402C5.95101 9.65902 5.95101 9.34202 6.14601 9.14702L7.29201 8.00102L6.14601 6.85502C5.95101 6.66002 5.95101 6.34302 6.14601 6.14802C6.34101 5.95302 6.65801 5.95302 6.85301 6.14802L7.99901 7.29402L9.14501 6.14802C9.34001 5.95302 9.65701 5.95302 9.85201 6.14802C10.047 6.34302 10.047 6.66002 9.85201 6.85502L8.70601 8.00102L9.85201 9.14702C10.047 9.34202 10.047 9.65902 9.85201 9.85402C9.65701 10.049 9.34001 10.049 9.14501 9.85402L7.99901 8.70802L6.85301 9.85402C6.65801 10.049 6.34101 10.049 6.14601 9.85402Z" fill="#C50F1F"/>
</svg>
