<svg width="16" height="16" viewBox="0 0 16 16" fill="none" xmlns="http://www.w3.org/2000/svg">
<path d="M8.5 1.99998V5.38198C8.476 5.40398 8.452 5.42698 8.429 5.44998L8 5.87898L7.561 5.43998C7.541 5.41998 7.521 5.40098 7.5 5.38298V2.00098C7.5 1.72498 7.724 1.50098 8 1.50098C8.276 1.50098 8.5 1.72398 8.5 1.99998ZM8 10.121L7.561 10.56C7.541 10.58 7.521 10.599 7.5 10.617V13.999C7.5 14.275 7.724 14.499 8 14.499C8.276 14.499 8.5 14.275 8.5 13.999V10.617C8.475 10.595 8.451 10.572 8.428 10.548L8 10.12V10.121ZM2.5 1.99998C2.224 1.99998 2 2.22398 2 2.49998C2 2.77598 2.224 2.99998 2.5 2.99998C3.328 2.99998 4 3.67198 4 4.49998V4.99998H2.5C2.224 4.99998 2 5.22398 2 5.49998C2 5.77598 2.224 5.99998 2.5 5.99998H4V9.99998H2.5C2.224 9.99998 2 10.224 2 10.5C2 10.776 2.224 11 2.5 11H4V11.5C4 12.328 3.328 13 2.5 13C2.224 13 2 13.224 2 13.5C2 13.776 2.224 14 2.5 14C3.881 14 5 12.881 5 11.5V4.49998C5 3.11898 3.881 1.99998 2.5 1.99998ZM13.5 5.99998C13.776 5.99998 14 5.77598 14 5.49998C14 5.22398 13.776 4.99998 13.5 4.99998H12V4.49998C12 3.67198 12.672 2.99998 13.5 2.99998C13.776 2.99998 14 2.77598 14 2.49998C14 2.22398 13.776 1.99998 13.5 1.99998C12.119 1.99998 11 3.11898 11 4.49998V11.5C11 12.881 12.119 14 13.5 14C13.776 14 14 13.776 14 13.5C14 13.224 13.776 13 13.5 13C12.672 13 12 12.328 12 11.5V11H13.5C13.776 11 14 10.776 14 10.5C14 10.224 13.776 9.99998 13.5 9.99998H12V5.99998H13.5Z" fill="#202020"/>
<path d="M6.14601 6.14601C6.34101 5.95101 6.65801 5.95101 6.85301 6.14601L7.99901 7.29201L9.14501 6.14601C9.34001 5.95101 9.65701 5.95101 9.85201 6.14601C10.047 6.34101 10.047 6.65801 9.85201 6.85301L8.70601 7.99901L9.85201 9.14501C10.047 9.34001 10.047 9.65701 9.85201 9.85201C9.65701 10.047 9.34001 10.047 9.14501 9.85201L7.99901 8.70601L6.85301 9.85201C6.65801 10.047 6.34101 10.047 6.14601 9.85201C5.95101 9.65701 5.95101 9.34001 6.14601 9.14501L7.29201 7.99901L6.14601 6.85301C5.95101 6.65801 5.95101 6.34101 6.14601 6.14601Z" fill="#C50F1F"/>
</svg>
