<svg width="16" height="16" viewBox="0 0 16 16" fill="none" xmlns="http://www.w3.org/2000/svg">
<g clip-path="url(#clip0_7201_59766)">
<path d="M2 6.12168L1.56099 6.56099C1.4012 6.72078 1.20908 6.84081 1 6.91471L1 10.5C1 11.881 2.119 13 3.5 13H12.5C13.881 13 15 11.881 15 10.5V5.5C15 4.119 13.881 3 12.5 3H5.121L6.12169 4H12.5C13.328 4 14 4.672 14 5.5V10.5C14 11.328 13.328 12 12.5 12H3.5C2.672 12 2 11.328 2 10.5V6.12168Z" fill="#202020"/>
<path d="M4.92563 6.88649C5.02467 6.92747 5.12758 6.95757 5.23256 6.97644L4.208 8.001L6.354 10.147C6.549 10.342 6.549 10.659 6.354 10.854L6.355 10.855C6.257 10.952 6.129 11.001 6.001 11.001C5.873 11.001 5.745 10.953 5.647 10.855L3.147 8.355C2.952 8.16 2.952 7.843 3.147 7.648L4.33654 6.45846L4.43899 6.56099C4.57815 6.70053 4.74354 6.81115 4.92563 6.88649Z" fill="#202020"/>
<path d="M12.854 8.354L10.355 10.853C10.257 10.95 10.129 10.999 10.001 10.999C9.873 10.999 9.745 10.951 9.647 10.853C9.452 10.658 9.452 10.341 9.647 10.146L11.793 8L9.647 5.854C9.452 5.659 9.452 5.342 9.647 5.147C9.842 4.952 10.159 4.952 10.354 5.147L12.854 7.647C13.049 7.842 13.049 8.159 12.854 8.354Z" fill="#202020"/>
<path d="M5.85402 5.14602C5.94791 5.23991 6.00065 5.36725 6.00065 5.50002C6.00065 5.6328 5.94791 5.76013 5.85402 5.85402C5.76013 5.94791 5.6328 6.00065 5.50002 6.00065C5.36725 6.00065 5.23991 5.94791 5.14602 5.85402L3.00002 3.70702L0.854021 5.85402C0.760135 5.94791 0.632797 6.00065 0.500021 6.00065C0.367245 6.00065 0.239908 5.94791 0.146021 5.85402C0.0521346 5.76013 -0.000610349 5.6328 -0.000610352 5.50002C-0.000610354 5.36725 0.0521346 5.23991 0.146021 5.14602L2.29302 3.00002L0.146021 0.854021C0.0521346 0.760135 -0.000610353 0.632797 -0.000610352 0.500021C-0.000610351 0.367245 0.0521346 0.239908 0.146021 0.146021C0.239908 0.0521346 0.367245 -0.000610351 0.500021 -0.000610352C0.632797 -0.000610353 0.760135 0.0521346 0.854021 0.146021L3.00002 2.29302L5.14602 0.146021C5.23991 0.0521346 5.36725 -0.000610354 5.50002 -0.000610352C5.6328 -0.000610349 5.76013 0.0521346 5.85402 0.146021C5.94791 0.239908 6.00065 0.367245 6.00065 0.500021C6.00065 0.632797 5.94791 0.760135 5.85402 0.854021L3.70702 3.00002L5.85402 5.14602Z" fill="#C50F1F"/>
</g>
<defs>
<clipPath id="clip0_7201_59766">
<rect width="16" height="16" fill="white"/>
</clipPath>
</defs>
</svg>
