<svg width="16" height="16" viewBox="0 0 16 16" fill="none" xmlns="http://www.w3.org/2000/svg">
<g clip-path="url(#clip0_7201_59870)">
<path d="M6 11.5V10.5C6 10.224 5.776 10 5.5 10H4.5C4.224 10 4 10.224 4 10.5V11.5C4 11.776 4.224 12 4.5 12H5.5C5.776 12 6 11.776 6 11.5Z" fill="#202020"/>
<path d="M7 7.5C7 7.224 7.224 7 7.5 7H8.5C8.776 7 9 7.224 9 7.5V8.26831C8.69692 8.44398 8.44398 8.69692 8.26831 9H7.5C7.224 9 7 8.776 7 8.5V7.5Z" fill="#202020"/>
<path fill-rule="evenodd" clip-rule="evenodd" d="M8 14H4C3.448 14 3 13.552 3 13V3C3 2.448 3.448 2 4 2H7V4.5C7 5.328 7.672 6 8.5 6H11V8H12V5.414C12 5.016 11.842 4.634 11.561 4.353L8.647 1.439C8.365 1.158 7.984 1 7.586 1H4C2.895 1 2 1.895 2 3V13C2 14.105 2.895 15 4 15H8V14ZM8.5 5C8.224 5 8 4.776 8 4.5V2.207L10.793 5H8.5Z" fill="#202020"/>
<path d="M4.5 7H5.5C5.776 7 6 7.224 6 7.5V8.5C6 8.776 5.776 9 5.5 9H4.5C4.224 9 4 8.776 4 8.5V7.5C4 7.224 4.224 7 4.5 7Z" fill="#202020"/>
<path d="M12 15L12 13L9 13L9 15C9 15.552 9.448 16 10 16L11 16C11.552 16 12 15.552 12 15ZM9 12L9 10C9 9.448 9.448 9 10 9L12 9L12 12L9 12ZM16 10L16 11C16 11.552 15.552 12 15 12L13 12L13 9L15 9C15.552 9 16 9.448 16 10Z" fill="#202020"/>
</g>
<defs>
<clipPath id="clip0_7201_59870">
<rect width="16" height="16" fill="white"/>
</clipPath>
</defs>
</svg>
