<svg width="16" height="16" viewBox="0 0 16 16" fill="none" xmlns="http://www.w3.org/2000/svg">
<g clip-path="url(#clip0_7201_59865)">
<path d="M8 6.5C8 6.224 8.224 6 8.5 6H9.5C9.776 6 10 6.224 10 6.5V7.5C10 7.776 9.776 8 9.5 8H8.5C8.224 8 8 7.776 8 7.5V6.5Z" fill="#202020"/>
<path d="M5.5 6H6.5C6.776 6 7 6.224 7 6.5V7.5C7 7.52817 6.99767 7.55581 6.99318 7.58272C6.83481 7.52758 6.66811 7.49932 6.5 7.49932C6.30294 7.49932 6.1078 7.53815 5.92575 7.61359C5.7437 7.68904 5.5783 7.79961 5.439 7.939L5.39078 7.98802C5.32494 7.97333 5.26398 7.94565 5.21074 7.9078C5.17035 7.73303 5.09877 7.56756 5 7.41914V6.5C5 6.224 5.224 6 5.5 6Z" fill="#202020"/>
<path fill-rule="evenodd" clip-rule="evenodd" d="M12 8V5H9.5C8.672 5 8 4.328 8 3.5V1H5C4.448 1 4 1.448 4 2V6.378L3.811 6.189C3.6717 6.04961 3.5063 5.93904 3.32425 5.86359C3.21977 5.8203 3.11099 5.78906 3 5.7703V2C3 0.895 3.895 0 5 0H8.586C8.984 0 9.365 0.158 9.647 0.439L12.561 3.353C12.842 3.634 13 4.016 13 4.414V8H12ZM9.5 4C9.224 4 9 3.776 9 3.5V1.207L11.793 4H9.5Z" fill="#202020"/>
<path d="M0.396828 8.89657C0.201566 9.09183 0.201566 9.40842 0.396828 9.60368L1.39668 10.6035C1.59194 10.7988 1.90852 10.7988 2.10378 10.6035L2.7073 10H3V13C3 13.2652 3.10536 13.5196 3.29289 13.7071C3.48043 13.8947 3.73479 14 4 14H4.81686C4.70846 14.1876 4.73165 14.4309 4.88807 14.595L5.37607 15.107C5.46899 15.2045 5.59732 15.2604 5.732 15.262C5.86668 15.2636 5.99632 15.2108 6.09155 15.1156L7.35355 13.8536C7.54882 13.6583 7.54882 13.3417 7.35355 13.1465L6.85355 12.6465C6.65829 12.4512 6.34171 12.4512 6.14645 12.6465L5.79289 13H4V10H4.82217C4.72152 10.1859 4.74699 10.4223 4.90009 10.583L5.38809 11.095C5.48102 11.1925 5.60935 11.2484 5.74403 11.25C5.87871 11.2516 6.00834 11.1988 6.10358 11.1036L7.35358 9.85356C7.54884 9.6583 7.54884 9.34172 7.35358 9.14645L6.85358 8.64645C6.65832 8.45119 6.34173 8.45119 6.14647 8.64645L5.79292 9.00001H3.7073L4.10348 8.60383C4.29874 8.40857 4.29874 8.09198 4.10348 7.89672L3.10363 6.89687C2.90837 6.70161 2.59179 6.70161 2.39653 6.89687L0.396828 8.89657Z" fill="#B27C00"/>
<path d="M12 15V13H9L9 15C9 15.552 9.448 16 10 16H11C11.552 16 12 15.552 12 15ZM9 12L9 10C9 9.448 9.448 9 10 9L12 9V12H9ZM16 10V11C16 11.552 15.552 12 15 12H13L13 9L15 9C15.552 9 16 9.448 16 10Z" fill="#202020"/>
</g>
<defs>
<clipPath id="clip0_7201_59865">
<rect width="16" height="16" fill="white"/>
</clipPath>
</defs>
</svg>
