<svg width="16" height="16" viewBox="0 0 16 16" fill="none" xmlns="http://www.w3.org/2000/svg">
<path d="M14.589 5.94103C14.411 5.73003 14.095 5.70503 13.885 5.88103L8.49995 10.424V7.50003C8.49995 7.22403 8.27595 7.00003 7.99995 7.00003C7.72395 7.00003 7.49995 7.22403 7.49995 7.50003V10.424L2.11495 5.88203C1.90495 5.70503 1.59095 5.73103 1.41095 5.94203C1.23195 6.15303 1.25995 6.46803 1.47095 6.64603L7.67795 11.882C7.70095 11.901 7.72695 11.91 7.75195 11.925C7.75595 11.927 7.75895 11.93 7.76295 11.932C7.77595 11.939 7.78595 11.951 7.79895 11.957C7.80595 11.96 7.81195 11.962 7.81895 11.964C7.87695 11.987 7.93795 12 7.99995 12C8.06195 12 8.12295 11.986 8.18095 11.964C8.18795 11.961 8.19495 11.96 8.20095 11.957C8.21395 11.951 8.22495 11.94 8.23695 11.932C8.24095 11.93 8.24395 11.927 8.24795 11.925C8.27295 11.911 8.29895 11.901 8.32195 11.882L14.529 6.64603C14.74 6.46803 14.767 6.15203 14.589 5.94103Z" fill="#202020"/>
<path d="M8.00006 8C5.84306 8 3.73806 7.601 1.74706 6.812C1.64806 6.774 1.55306 6.716 1.46806 6.644C1.19406 6.413 1.06206 6.049 1.12706 5.698C1.74906 2.396 4.64006 0 8.00006 0C11.3601 0 14.2511 2.396 14.8731 5.696C14.9381 6.049 14.8071 6.412 14.5291 6.646C14.4471 6.715 14.3511 6.773 14.2481 6.813C12.2621 7.6 10.1571 8 8.00006 8ZM8.00006 1C5.12006 1 2.64306 3.053 2.10906 5.882C5.86906 7.366 10.1371 7.366 13.8831 5.882C13.3571 3.053 10.8801 1 8.00006 1ZM8.75006 15H7.25006C6.56106 15 6.00006 14.439 6.00006 13.75V12.25C6.00006 11.561 6.56106 11 7.25006 11H8.75006C9.43906 11 10.0001 11.561 10.0001 12.25V13.75C10.0001 14.439 9.43906 15 8.75006 15ZM7.25006 12C7.11206 12 7.00006 12.112 7.00006 12.25V13.75C7.00006 13.888 7.11206 14 7.25006 14H8.75006C8.88806 14 9.00006 13.888 9.00006 13.75V12.25C9.00006 12.112 8.88806 12 8.75006 12H7.25006Z" fill="#3487C7"/>
</svg>
