<svg width="16" height="16" viewBox="0 0 16 16" fill="none" xmlns="http://www.w3.org/2000/svg">
<g clip-path="url(#clip0_7201_59880)">
<path d="M7.49951 13C7.22337 13 6.99951 13.2239 6.99951 13.5C6.99951 13.7761 7.22337 14 7.49951 14L13.4995 14C13.7757 14 13.9995 13.7761 13.9995 13.5L13.9995 7.5C13.9995 7.22386 13.7757 7 13.4995 7C13.2234 7 12.9995 7.22386 12.9995 7.5L12.9995 12.2929L2.85299 2.14644C2.65773 1.95118 2.34115 1.95118 2.14588 2.14645C1.95062 2.34171 1.95062 2.65829 2.14589 2.85355L12.2924 13L7.49951 13Z" fill="#006CBF"/>
<path d="M4.49953 14H0.499528C0.307528 14 0.132528 13.89 0.0495279 13.717C-0.0344721 13.543 -0.0114721 13.338 0.109528 13.188L3.45953 9H0.499528C0.223528 9 -0.000472097 8.776 -0.000472097 8.5C-0.000472097 8.224 0.223528 8 0.499528 8H4.49953C4.69153 8 4.86653 8.11 4.94953 8.283C5.03353 8.456 5.01053 8.662 4.88953 8.812L1.53953 13H4.49953C4.77553 13 4.99953 13.224 4.99953 13.5C4.99953 13.776 4.77553 14 4.49953 14Z" fill="#202020"/>
</g>
<defs>
<clipPath id="clip0_7201_59880">
<rect width="16" height="16" fill="white"/>
</clipPath>
</defs>
</svg>
