<svg width="16" height="16" viewBox="0 0 16 16" fill="none" xmlns="http://www.w3.org/2000/svg">
<g clip-path="url(#clip0_7201_59911)">
<path d="M4.5 2C3.121 2 2 3.122 2 4.5C2 4.776 2.224 5 2.5 5C2.776 5 3 4.776 3 4.5C3 3.673 3.673 3 4.5 3C4.776 3 5 2.776 5 2.5C5 2.224 4.776 2 4.5 2Z" fill="#202020"/>
<path d="M3 9.5C3 9.776 2.776 10 2.5 10C2.224 10 2 9.776 2 9.5V6.5C2 6.224 2.224 6 2.5 6C2.776 6 3 6.224 3 6.5V9.5Z" fill="#202020"/>
<path d="M3 11.5C3 12.327 3.673 13 4.5 13C4.776 13 5 13.224 5 13.5C5 13.776 4.776 14 4.5 14C3.121 14 2 12.878 2 11.5C2 11.224 2.224 11 2.5 11C2.776 11 3 11.224 3 11.5Z" fill="#202020"/>
<path d="M7.28812 14L7.34103 13.7863C7.40933 13.5129 7.50767 13.2493 7.63349 13H6.5C6.224 13 6 13.224 6 13.5C6 13.776 6.224 14 6.5 14H7.28812Z" fill="#202020"/>
<path d="M13 6.5C13 6.224 13.224 6 13.5 6C13.776 6 14 6.224 14 6.5V7.03112C13.6418 7.09266 13.3008 7.22978 13 7.43302V6.5Z" fill="#202020"/>
<path d="M13 4.5C13 3.673 12.327 3 11.5 3C11.224 3 11 2.776 11 2.5C11 2.224 11.224 2 11.5 2C12.879 2 14 3.122 14 4.5C14 4.776 13.776 5 13.5 5C13.224 5 13 4.776 13 4.5Z" fill="#202020"/>
<path d="M9.5 3H6.5C6.224 3 6 2.776 6 2.5C6 2.224 6.224 2 6.5 2H9.5C9.776 2 10 2.224 10 2.5C10 2.776 9.776 3 9.5 3Z" fill="#202020"/>
<path d="M4 5.5C4 5.224 4.224 5 4.5 5H7C7.276 5 7.5 5.224 7.5 5.5C7.5 5.776 7.276 6 7 6H4.5C4.224 6 4 5.776 4 5.5Z" fill="#202020"/>
<path d="M8.5 5.5C8.5 5.224 8.724 5 9 5H11.5C11.776 5 12 5.224 12 5.5C12 5.776 11.776 6 11.5 6H9C8.724 6 8.5 5.776 8.5 5.5Z" fill="#202020"/>
<path d="M15.5449 8.45393C15.2519 8.16159 14.8549 7.99741 14.4409 7.99741C14.027 7.99741 13.63 8.16159 13.3369 8.45393L9.04895 12.7414C8.69299 13.0975 8.44065 13.5437 8.31895 14.0322L8.01895 15.2431C7.99361 15.3451 7.99509 15.452 8.02324 15.5533C8.0514 15.6546 8.10528 15.747 8.17964 15.8213C8.25401 15.8957 8.34633 15.9495 8.44766 15.9777C8.54899 16.0058 8.65588 16.0073 8.75795 15.982L9.96895 15.682C10.4572 15.5598 10.9031 15.3071 11.2589 14.9511L15.5479 10.6637C15.6931 10.5185 15.8081 10.3461 15.8865 10.1564C15.9649 9.96672 16.0051 9.76343 16.0049 9.55817C16.0046 9.35292 15.9638 9.14973 15.8849 8.96025C15.806 8.77077 15.6905 8.59872 15.5449 8.45393V8.45393Z" fill="#006CBF"/>
</g>
<defs>
<clipPath id="clip0_7201_59911">
<rect width="16" height="16" fill="white"/>
</clipPath>
</defs>
</svg>
