<svg width="16" height="16" viewBox="0 0 16 16" fill="none" xmlns="http://www.w3.org/2000/svg">
<path d="M2.5 2H13.5C14.33 2 15 2.67 15 3.5V7.25716C14.6929 7.00353 14.3578 6.78261 14 6.59971V3.5C14 3.22 13.78 3 13.5 3H2.5C2.22 3 2 3.22 2 3.5V10.5C2 10.78 2.22 11 2.5 11H5V13.9L6.17279 12.8731C6.26302 13.2242 6.38703 13.5617 6.54116 13.882L5.63 14.68C4.99 15.23 4 14.78 4 13.94V12H2.5C1.67 12 1 11.33 1 10.5V3.5C1 2.67 1.67 2 2.5 2Z" fill="#202020"/>
<path fill-rule="evenodd" clip-rule="evenodd" d="M11.5 7C9.01472 7 7 9.01472 7 11.5C7 13.9853 9.01472 16 11.5 16C13.9853 16 16 13.9853 16 11.5C16 9.01472 13.9853 7 11.5 7ZM10.875 9.5C10.875 9.15482 11.1548 8.875 11.5 8.875C11.8452 8.875 12.125 9.15482 12.125 9.5C12.125 9.84518 11.8452 10.125 11.5 10.125C11.1548 10.125 10.875 9.84518 10.875 9.5ZM12 13.5C12 13.7761 11.7761 14 11.5 14C11.2239 14 11 13.7761 11 13.5L11 11.5C11 11.2239 11.2239 11 11.5 11C11.7761 11 12 11.2239 12 11.5V13.5Z" fill="#006CBF"/>
</svg>
