<svg width="16" height="16" viewBox="0 0 16 16" fill="none" xmlns="http://www.w3.org/2000/svg">
<g clip-path="url(#clip0_7201_59963)">
<path d="M4.5 2C3.11929 2 2 3.11929 2 4.5V11.5C2 11.6712 2.01721 11.8384 2.05 12H3.08534C3.03007 11.8436 3 11.6753 3 11.5V4.5C3 3.67157 3.67157 3 4.5 3H11.5C12.3284 3 13 3.67157 13 4.5V11.5C13 12.3284 12.3284 13 11.5 13H7.91417C7.97145 13.1602 8.00056 13.3294 8 13.5C7.9998 13.6706 7.97024 13.8398 7.91284 14H11.5C12.8807 14 14 12.8807 14 11.5V4.5C14 3.11929 12.8807 2 11.5 2H4.5Z" fill="#202020"/>
<path d="M6.85 13.85L4.85 15.85C4.80488 15.8975 4.75059 15.9352 4.69042 15.9611C4.63026 15.9869 4.56547 16.0002 4.5 16.0002C4.43453 16.0002 4.36974 15.9869 4.30958 15.9611C4.24941 15.9352 4.19512 15.8975 4.15 15.85C4.10256 15.8049 4.06478 15.7506 4.03897 15.6905C4.01316 15.6303 3.99985 15.5655 3.99985 15.5C3.99985 15.4346 4.01316 15.3698 4.03897 15.3096C4.06478 15.2494 4.10256 15.1951 4.15 15.15L5.29 14H0.5C0.367392 14 0.240215 13.9473 0.146447 13.8536C0.0526784 13.7598 0 13.6326 0 13.5C0 13.3674 0.0526784 13.2402 0.146447 13.1465C0.240215 13.0527 0.367392 13 0.5 13H5.29L4.15 11.85C4.10256 11.8049 4.06478 11.7506 4.03897 11.6905C4.01316 11.6303 3.99985 11.5655 3.99985 11.5C3.99985 11.4346 4.01316 11.3698 4.03897 11.3096C4.06478 11.2494 4.10256 11.1951 4.15 11.15C4.19512 11.1026 4.24941 11.0648 4.30958 11.039C4.36974 11.0132 4.43453 10.9999 4.5 10.9999C4.56547 10.9999 4.63026 11.0132 4.69042 11.039C4.75059 11.0648 4.80488 11.1026 4.85 11.15L6.85 13.15C6.89744 13.1951 6.93522 13.2494 6.96103 13.3096C6.98684 13.3698 7.00015 13.4346 7.00015 13.5C7.00015 13.5655 6.98684 13.6303 6.96103 13.6905C6.93522 13.7506 6.89744 13.8049 6.85 13.85V13.85Z" fill="#006CBF"/>
</g>
<defs>
<clipPath id="clip0_7201_59963">
<rect width="16" height="16" fill="white"/>
</clipPath>
</defs>
</svg>
