<svg width="16" height="16" viewBox="0 0 16 16" fill="none" xmlns="http://www.w3.org/2000/svg">
<path d="M5 0C2.243 0 0 2.243 0 5C0 7.757 2.243 10 5 10C5.144 10 5.281 9.982 5.419 9.964L5.556 9.946C7.88 9.686 9.686 7.881 9.947 5.555L9.964 5.421C9.983 5.282 10 5.143 10 4.999C10 2.243 7.757 0 5 0ZM1 5C1 2.794 2.794 1 5 1C6.858 1 8.411 2.279 8.858 4H5.5C4.673 4 4 4.673 4 5.5V8.858C2.28 8.411 1 6.859 1 5ZM8.973 5.287L8.953 5.444C8.745 7.302 7.302 8.745 5.445 8.952L5.284 8.973C5.191 8.986 5.097 9 5 9V5.5C5 5.225 5.224 5 5.5 5H9C9 5.098 8.986 5.192 8.973 5.287Z" fill="#202020"/>
<path d="M12.5 5H11C11 5.188 10.979 5.372 10.955 5.555L10.938 5.683C10.926 5.792 10.896 5.894 10.878 6H12.499C12.775 6 12.999 6.225 12.999 6.5V12.5C12.999 12.775 12.775 13 12.499 13H6.49902C6.22302 13 5.99902 12.775 5.99902 12.5V10.897L5.54702 10.956C5.42902 10.972 5.30802 10.986 5.18502 10.994L4.99902 11.015V12.5C4.99902 13.327 5.67202 14 6.49902 14H12.499C13.326 14 13.999 13.327 13.999 12.5V6.5C13.999 5.673 13.326 5 12.499 5H12.5Z" fill="#202020"/>
</svg>
