<svg width="16" height="16" viewBox="0 0 16 16" fill="none" xmlns="http://www.w3.org/2000/svg">
<path d="M4 9H2C1.448 9 1 8.552 1 8V6C1 5.448 1.448 5 2 5H4C4.552 5 5 5.448 5 6V8C5 8.552 4.552 9 4 9ZM2 6V8H4V6H2ZM11 2.5C11 2.224 10.776 2 10.5 2H1.5C1.224 2 1 2.224 1 2.5C1 2.776 1.224 3 1.5 3H10.5C10.776 3 11 2.776 11 2.5ZM11 5.5C11 5.224 10.776 5 10.5 5H6.5C6.224 5 6 5.224 6 5.5C6 5.776 6.224 6 6.5 6H10.5C10.776 6 11 5.776 11 5.5ZM11 8.5C11 8.224 10.776 8 10.5 8H6.5C6.224 8 6 8.224 6 8.5C6 8.776 6.224 9 6.5 9H10.5C10.776 9 11 8.776 11 8.5ZM11 11.5C11 11.224 10.776 11 10.5 11H1.5C1.224 11 1 11.224 1 11.5C1 11.776 1.224 12 1.5 12H10.5C10.776 12 11 11.776 11 11.5ZM14.5 2H12.5C12.224 2 12 2.224 12 2.5V3.5C12 3.776 12.224 4 12.5 4H14.5C14.776 4 15 3.776 15 3.5V2.5C15 2.224 14.776 2 14.5 2ZM14.5 5H12.5C12.224 5 12 5.224 12 5.5V6.5C12 6.776 12.224 7 12.5 7H14.5C14.776 7 15 6.776 15 6.5V5.5C15 5.224 14.776 5 14.5 5ZM14.5 8H12.5C12.224 8 12 8.224 12 8.5V9.5C12 9.776 12.224 10 12.5 10H14.5C14.776 10 15 9.776 15 9.5V8.5C15 8.224 14.776 8 14.5 8Z" fill="#202020"/>
</svg>
