<svg width="16" height="16" viewBox="0 0 16 16" fill="none" xmlns="http://www.w3.org/2000/svg">
<g clip-path="url(#clip0_7201_60015)">
<path fill-rule="evenodd" clip-rule="evenodd" d="M8.0499 10.4351C7.89522 10.2842 7.70799 10.1661 7.5 10.092V8H9.26744L9.71351 7.10787C9.73176 7.07126 9.75109 7.03529 9.77146 7H7.5V4.929C8.36 4.705 9 3.929 9 3C9 1.897 8.103 1 7 1C5.897 1 5 1.897 5 3C5 3.929 5.64 4.705 6.5 4.929V7H3.5C2.673 7 2 7.673 2 8.5V10.092C1.419 10.299 1 10.849 1 11.5C1 12.327 1.673 13 2.5 13C3.327 13 4 12.327 4 11.5C4 10.849 3.581 10.299 3 10.092V8.5C3 8.224 3.225 8 3.5 8H6.5V10.092C5.919 10.299 5.5 10.849 5.5 11.5C5.5 12.2508 6.05473 12.8747 6.77581 12.9833L7.32973 11.8754C7.24155 11.953 7.12603 12 7 12C6.725 12 6.5 11.776 6.5 11.5C6.5 11.224 6.725 11 7 11C7.275 11 7.5 11.224 7.5 11.5C7.5 11.5127 7.49953 11.5253 7.49859 11.5377L8.0499 10.4351ZM7 2C6.448 2 6 2.449 6 3C6 3.551 6.448 4 7 4C7.552 4 8 3.551 8 3C8 2.449 7.552 2 7 2ZM2 11.5C2 11.776 2.225 12 2.5 12C2.775 12 3 11.776 3 11.5C3 11.224 2.775 11 2.5 11C2.225 11 2 11.224 2 11.5Z" fill="#202020"/>
<path fill-rule="evenodd" clip-rule="evenodd" d="M12.3931 7.55201L15.8931 14.552C15.9694 14.7044 16.0056 14.8738 15.9981 15.044C15.9906 15.2143 15.9397 15.3799 15.8502 15.5249C15.7607 15.67 15.6357 15.7898 15.4869 15.8729C15.3381 15.9561 15.1705 15.9998 15.0001 16H8.00006C7.8292 16.0007 7.66101 15.9576 7.51154 15.8748C7.36207 15.792 7.23631 15.6723 7.14625 15.5271C7.0562 15.3818 7.00486 15.216 6.99712 15.0453C6.98938 14.8746 7.02551 14.7048 7.10206 14.552L10.6021 7.55201C10.6849 7.38534 10.8126 7.24509 10.9708 7.14705C11.129 7.04901 11.3114 6.99707 11.4976 6.99707C11.6837 6.99707 11.8661 7.04901 12.0243 7.14705C12.1825 7.24509 12.3102 7.38534 12.3931 7.55201ZM12 12.495V9.495C12 9.36239 11.9473 9.23521 11.8536 9.14144C11.7598 9.04767 11.6326 8.995 11.5 8.995C11.3674 8.995 11.2402 9.04767 11.1464 9.14144C11.0527 9.23521 11 9.36239 11 9.495V12.495C11 12.6276 11.0527 12.7548 11.1464 12.8485C11.2402 12.9423 11.3674 12.995 11.5 12.995C11.6326 12.995 11.7598 12.9423 11.8536 12.8485C11.9473 12.7548 12 12.6276 12 12.495ZM11.2222 14.0843C11.3044 14.0293 11.4011 14 11.5 14C11.6326 14 11.7598 14.0527 11.8536 14.1464C11.9473 14.2402 12 14.3674 12 14.5C12 14.5989 11.9707 14.6956 11.9157 14.7778C11.8608 14.86 11.7827 14.9241 11.6913 14.9619C11.6 14.9998 11.4994 15.0097 11.4025 14.9904C11.3055 14.9711 11.2164 14.9235 11.1464 14.8535C11.0765 14.7836 11.0289 14.6945 11.0096 14.5975C10.9903 14.5006 11.0002 14.4 11.0381 14.3087C11.0759 14.2173 11.14 14.1392 11.2222 14.0843Z" fill="#B27C00"/>
</g>
<defs>
<clipPath id="clip0_7201_60015">
<rect width="16" height="16" fill="white"/>
</clipPath>
</defs>
</svg>
