<svg width="16" height="16" viewBox="0 0 16 16" fill="none" xmlns="http://www.w3.org/2000/svg">
<path d="M6 4V7H2V4H6ZM2 10H6V9H2V10ZM2 13H6V12H2V13Z" fill="#C50F1F"/>
<path d="M9 10H13V12H9V10ZM9 7V9H13V7H9Z" fill="#11910D"/>
<path d="M2.25 3H6V4H2.25C2.112 4 2 4.112 2 4.25V12.75C2 12.888 2.112 13 2.25 13H6V14H2.25C1.561 14 1 13.439 1 12.75V4.25C1 3.561 1.561 3 2.25 3ZM12.75 3H9V4H12.75C12.888 4 13 4.112 13 4.25V12.75C13 12.888 12.888 13 12.75 13H9V14H12.75C13.439 14 14 13.439 14 12.75V4.25C14 3.561 13.439 3 12.75 3ZM7.5 1C7.224 1 7 1.224 7 1.5V14.5C7 14.776 7.224 15 7.5 15C7.776 15 8 14.776 8 14.5V1.5C8 1.224 7.776 1 7.5 1Z" fill="#202020"/>
</svg>
