<svg width="16" height="16" viewBox="0 0 16 16" fill="none" xmlns="http://www.w3.org/2000/svg">
<path d="M11.854 14.854L13.854 12.854C13.9006 12.8075 13.9375 12.7524 13.9627 12.6916C13.9879 12.6309 14.0009 12.5657 14.0009 12.5C14.0009 12.4342 13.9879 12.3691 13.9627 12.3083C13.9375 12.2476 13.9006 12.1924 13.854 12.146L11.854 10.146C11.7601 10.0521 11.6328 9.99935 11.5 9.99935C11.3672 9.99935 11.2399 10.0521 11.146 10.146C11.0521 10.2399 10.9994 10.3672 10.9994 10.5C10.9994 10.6328 11.0521 10.7601 11.146 10.854L12.293 12H7.72129C7.67387 12.1286 7.62043 12.2554 7.56101 12.3799L8.18135 13H12.293L11.146 14.146C11.0995 14.1925 11.0626 14.2477 11.0375 14.3084C11.0123 14.3691 10.9994 14.4342 10.9994 14.5C10.9994 14.5657 11.0123 14.6308 11.0375 14.6916C11.0626 14.7523 11.0995 14.8075 11.146 14.854C11.1925 14.9005 11.2477 14.9373 11.3084 14.9625C11.3692 14.9877 11.4343 15.0006 11.5 15.0006C11.5657 15.0006 11.6308 14.9877 11.6916 14.9625C11.7523 14.9373 11.8075 14.9005 11.854 14.854Z" fill="#202020"/>
<path d="M3.00001 5.98119C3.04119 5.97653 3.08249 5.97243 3.12388 5.9689C3.41742 5.94386 3.7108 5.94789 4.00001 5.97991V3.70698L5.14601 4.85398C5.23989 4.94787 5.36723 5.00061 5.50001 5.00061C5.63278 5.00061 5.76012 4.94787 5.85401 4.85398C5.94789 4.76009 6.00064 4.63275 6.00064 4.49998C6.00064 4.3672 5.94789 4.23986 5.85401 4.14598L3.85401 2.14598C3.80756 2.09941 3.75238 2.06247 3.69164 2.03727C3.63089 2.01206 3.56577 1.99908 3.50001 1.99908C3.43424 1.99908 3.36912 2.01206 3.30837 2.03727C3.24763 2.06247 3.19245 2.09941 3.14601 2.14598L1.14601 4.14598C1.05212 4.23986 0.999374 4.3672 0.999374 4.49998C0.999374 4.63275 1.05212 4.76009 1.14601 4.85398C1.23989 4.94787 1.36723 5.00061 1.50001 5.00061C1.63278 5.00061 1.76012 4.94787 1.85401 4.85398L3.00001 3.70698V5.98119Z" fill="#202020"/>
<path d="M7.28192 8.01106L11.293 3.99998H9.67201C9.5394 3.99998 9.41222 3.9473 9.31845 3.85353C9.22468 3.75976 9.17201 3.63259 9.17201 3.49998C9.17201 3.36737 9.22468 3.24019 9.31845 3.14643C9.41222 3.05266 9.5394 2.99998 9.67201 2.99998H12.5C12.6326 2.99998 12.7598 3.05266 12.8536 3.14643C12.9473 3.24019 13 3.36737 13 3.49998V6.32898C13 6.46159 12.9473 6.58876 12.8536 6.68253C12.7598 6.7763 12.6326 6.82898 12.5 6.82898C12.3674 6.82898 12.2402 6.7763 12.1465 6.68253C12.0527 6.58876 12 6.46159 12 6.32898V4.70698L7.74624 8.96074C7.62888 8.62555 7.4727 8.30696 7.28192 8.01106Z" fill="#202020"/>
<path d="M8.854 15.0869L6.293 12.5269C6.74929 11.9266 6.99749 11.194 7 10.4399C7 9.74771 6.79473 9.07102 6.41015 8.49545C6.02556 7.91988 5.47894 7.47127 4.83939 7.20636C4.19985 6.94146 3.49612 6.87215 2.81719 7.00719C2.13825 7.14224 1.51461 7.47559 1.02513 7.96507C0.535644 8.45455 0.202301 9.07819 0.0672531 9.75713C-0.0677952 10.4361 0.00151649 11.1398 0.266423 11.7793C0.53133 12.4189 0.979934 12.9655 1.55551 13.3501C2.13108 13.7347 2.80777 13.9399 3.5 13.9399C4.25357 13.9375 4.98584 13.6897 5.586 13.2339L8.146 15.7939C8.23976 15.8878 8.36697 15.9406 8.49965 15.9407C8.63233 15.9408 8.75962 15.8882 8.8535 15.7944C8.94739 15.7007 9.00019 15.5735 9.00028 15.4408C9.00037 15.3081 8.94776 15.1808 8.854 15.0869V15.0869ZM1 10.4399C1 9.94549 1.14662 9.46214 1.42133 9.05102C1.69603 8.63989 2.08648 8.31946 2.54329 8.13024C3.00011 7.94103 3.50277 7.89152 3.98773 7.98798C4.47268 8.08444 4.91814 8.32255 5.26777 8.67218C5.6174 9.02181 5.8555 9.46726 5.95196 9.95222C6.04843 10.4372 5.99892 10.9398 5.8097 11.3967C5.62048 11.8535 5.30005 12.2439 4.88893 12.5186C4.4778 12.7933 3.99445 12.9399 3.5 12.9399C2.83696 12.9399 2.20108 12.6766 1.73223 12.2077C1.26339 11.7389 1 11.103 1 10.4399V10.4399Z" fill="#006CBF"/>
</svg>
