<svg width="16" height="16" viewBox="0 0 16 16" fill="none" xmlns="http://www.w3.org/2000/svg">
<g clip-path="url(#clip0_7201_60087)">
<path d="M11.854 14.854L13.854 12.854C13.9006 12.8075 13.9375 12.7524 13.9627 12.6916C13.9879 12.6309 14.0009 12.5657 14.0009 12.5C14.0009 12.4342 13.9879 12.3691 13.9627 12.3083C13.9375 12.2476 13.9006 12.1924 13.854 12.146L11.854 10.146C11.7601 10.0521 11.6328 9.99935 11.5 9.99935C11.3672 9.99935 11.2399 10.0521 11.146 10.146C11.0521 10.2399 10.9994 10.3672 10.9994 10.5C10.9994 10.6328 11.0521 10.7601 11.146 10.854L12.293 12H9.999V13H12.293L11.146 14.146C11.0995 14.1925 11.0626 14.2477 11.0375 14.3084C11.0123 14.3691 10.9994 14.4342 10.9994 14.5C10.9994 14.5657 11.0123 14.6308 11.0375 14.6916C11.0626 14.7523 11.0995 14.8075 11.146 14.854C11.1925 14.9005 11.2477 14.9373 11.3084 14.9625C11.3691 14.9877 11.4342 15.0006 11.5 15.0006C11.5657 15.0006 11.6308 14.9877 11.6916 14.9625C11.7523 14.9373 11.8075 14.9005 11.854 14.854Z" fill="#202020"/>
<path d="M2.99999 6.50973L3.003 6.50801C3.308 6.33601 3.649 6.24701 3.996 6.24701L3.99999 6.24701V3.70698L5.14599 4.85398C5.23988 4.94787 5.36721 5.00061 5.49999 5.00061C5.63277 5.00061 5.7601 4.94787 5.85399 4.85398C5.94788 4.76009 6.00062 4.63275 6.00062 4.49998C6.00062 4.3672 5.94788 4.23986 5.85399 4.14598L3.85399 2.14598C3.80755 2.09941 3.75237 2.06247 3.69162 2.03727C3.63088 2.01206 3.56576 1.99908 3.49999 1.99908C3.43422 1.99908 3.3691 2.01206 3.30836 2.03727C3.24761 2.06247 3.19244 2.09941 3.14599 2.14598L1.14599 4.14598C1.0521 4.23986 0.999359 4.3672 0.999359 4.49998C0.999359 4.63275 1.0521 4.76009 1.14599 4.85398C1.23988 4.94787 1.36721 5.00061 1.49999 5.00061C1.63277 5.00061 1.7601 4.94787 1.85399 4.85398L2.99999 3.70698V6.50973Z" fill="#202020"/>
<path d="M7.33436 7.95861L11.293 3.99998H9.67199C9.53938 3.99998 9.4122 3.9473 9.31844 3.85353C9.22467 3.75976 9.17199 3.63259 9.17199 3.49998C9.17199 3.36737 9.22467 3.24019 9.31844 3.14643C9.4122 3.05266 9.53938 2.99998 9.67199 2.99998H12.5C12.6326 2.99998 12.7598 3.05266 12.8535 3.14643C12.9473 3.24019 13 3.36737 13 3.49998V6.32898C13 6.46159 12.9473 6.58876 12.8535 6.68253C12.7598 6.7763 12.6326 6.82898 12.5 6.82898C12.3674 6.82898 12.2402 6.7763 12.1464 6.68253C12.0527 6.58876 12 6.46159 12 6.32898V4.70698L8.00089 8.70608C7.94968 8.69614 7.89801 8.68812 7.846 8.68201C7.73184 8.40718 7.55709 8.15916 7.33436 7.95861Z" fill="#202020"/>
<path d="M8.486 9.98902L8.13 9.80702C7.824 9.62502 7.432 9.62101 7.122 9.79701L7 9.86701V9.44701C7 9.09901 6.814 8.77002 6.515 8.59002L4.506 7.38502C4.2 7.20202 3.808 7.20002 3.498 7.37502L0.504 9.08602C0.193 9.26402 0 9.59702 0 9.95402V12.381C0 12.731 0.187 13.06 0.485 13.238L2.49 14.441C2.645 14.535 2.823 14.585 3.006 14.585C3.179 14.585 3.35 14.539 3.502 14.453L3.624 14.384V14.804C3.624 15.154 3.811 15.483 4.138 15.677L4.49 15.857C4.645 15.951 4.823 16.001 5.006 16.001C5.18 16.001 5.351 15.956 5.502 15.87L8.495 14.159C8.806 13.981 8.999 13.648 8.999 13.29V10.863C8.999 10.515 8.813 10.186 8.485 9.99001L8.486 9.98902ZM3.007 13.585L1.001 12.381V9.95501L3.995 8.24302L6.001 9.44701V10.439L4.129 11.509C3.818 11.687 3.625 12.02 3.625 12.377V13.232L3.007 13.585Z" fill="#202020"/>
</g>
<defs>
<clipPath id="clip0_7201_60087">
<rect width="16" height="16" fill="white"/>
</clipPath>
</defs>
</svg>
