<svg width="16" height="16" viewBox="0 0 16 16" fill="none" xmlns="http://www.w3.org/2000/svg">
<path d="M11.854 14.854L13.854 12.854C13.9006 12.8075 13.9375 12.7524 13.9627 12.6916C13.9879 12.6309 14.0009 12.5657 14.0009 12.5C14.0009 12.4342 13.9879 12.3691 13.9627 12.3083C13.9375 12.2476 13.9006 12.1924 13.854 12.146L11.854 10.146C11.7601 10.0521 11.6328 9.99935 11.5 9.99935C11.3672 9.99935 11.2399 10.0521 11.146 10.146C11.0521 10.2399 10.9994 10.3672 10.9994 10.5C10.9994 10.6328 11.0521 10.7601 11.146 10.854L12.293 12H9.97758C9.94664 12.3434 9.88412 12.6777 9.79297 13H12.293L11.146 14.146C11.0995 14.1925 11.0626 14.2477 11.0375 14.3084C11.0123 14.3691 10.9994 14.4342 10.9994 14.5C10.9994 14.5657 11.0123 14.6308 11.0375 14.6916C11.0626 14.7523 11.0995 14.8075 11.146 14.854C11.1925 14.9005 11.2477 14.9373 11.3084 14.9625C11.3692 14.9877 11.4343 15.0006 11.5 15.0006C11.5657 15.0006 11.6308 14.9877 11.6916 14.9625C11.7523 14.9373 11.8075 14.9005 11.854 14.854Z" fill="#202020"/>
<path d="M3.00001 6.20703C3.32229 6.11588 3.6566 6.05337 4.00001 6.02242V3.70698L5.14601 4.85398C5.23989 4.94787 5.36723 5.00061 5.50001 5.00061C5.63278 5.00061 5.76012 4.94787 5.85401 4.85398C5.94789 4.76009 6.00064 4.63275 6.00064 4.49998C6.00064 4.3672 5.94789 4.23986 5.85401 4.14598L3.85401 2.14598C3.80756 2.09941 3.75238 2.06247 3.69164 2.03727C3.63089 2.01206 3.56577 1.99908 3.50001 1.99908C3.43424 1.99908 3.36912 2.01206 3.30837 2.03727C3.24763 2.06247 3.19245 2.09941 3.14601 2.14598L1.14601 4.14598C1.05212 4.23986 0.999374 4.3672 0.999374 4.49998C0.999374 4.63275 1.05212 4.76009 1.14601 4.85398C1.23989 4.94787 1.36723 5.00061 1.50001 5.00061C1.63278 5.00061 1.76012 4.94787 1.85401 4.85398L3.00001 3.70698V6.20703Z" fill="#202020"/>
<path d="M8.01958 7.27341L11.293 3.99998H9.67201C9.5394 3.99998 9.41222 3.9473 9.31845 3.85353C9.22468 3.75976 9.17201 3.63259 9.17201 3.49998C9.17201 3.36737 9.22468 3.24019 9.31845 3.14643C9.41222 3.05266 9.5394 2.99998 9.67201 2.99998H12.5C12.6326 2.99998 12.7598 3.05266 12.8536 3.14643C12.9473 3.24019 13 3.36737 13 3.49998V6.32898C13 6.46159 12.9473 6.58876 12.8536 6.68253C12.7598 6.7763 12.6326 6.82898 12.5 6.82898C12.3674 6.82898 12.2402 6.7763 12.1465 6.68253C12.0527 6.58876 12 6.46159 12 6.32898V4.70698L8.72658 7.9804C8.51277 7.72393 8.27606 7.48721 8.01958 7.27341Z" fill="#202020"/>
<path d="M3.01115 11H5.98915C5.96386 9.97783 5.74959 8.96917 5.35715 8.025C4.93515 7.1 4.55715 7 4.50015 7C4.44315 7 4.06515 7.1 3.64315 8.025C3.25071 8.96917 3.03643 9.97783 3.01115 11V11ZM0.0271454 11C0.119033 10.1804 0.43439 9.40183 0.938769 8.74931C1.44315 8.09679 2.11715 7.59543 2.88715 7.3C2.32984 8.4551 2.03059 9.71765 2.01015 11H0.0271454ZM0.0271454 12H2.01015C2.03059 13.2824 2.32984 14.5449 2.88715 15.7C2.11715 15.4046 1.44315 14.9032 0.938769 14.2507C0.43439 13.5982 0.119033 12.8196 0.0271454 12ZM4.50015 16C4.44315 16 4.06515 15.9 3.64315 14.975C3.25071 14.0308 3.03643 13.0222 3.01115 12H5.98915C5.96386 13.0222 5.74959 14.0308 5.35715 14.975C4.93515 15.9 4.55715 16 4.50015 16ZM8.97314 12C8.88126 12.8196 8.5659 13.5982 8.06152 14.2507C7.55714 14.9032 6.88314 15.4046 6.11315 15.7C6.67045 14.5449 6.9697 13.2824 6.99015 12H8.97314ZM6.11315 7.3C6.88314 7.59543 7.55714 8.09679 8.06152 8.74931C8.5659 9.40183 8.88126 10.1804 8.97314 11H6.99015C6.9697 9.71765 6.67045 8.4551 6.11315 7.3V7.3Z" fill="#006CBF"/>
</svg>
