<svg width="16" height="16" viewBox="0 0 16 16" fill="none" xmlns="http://www.w3.org/2000/svg">
<path d="M13.854 12.854L11.854 14.854C11.8075 14.9005 11.7523 14.9373 11.6916 14.9625C11.6308 14.9877 11.5657 15.0006 11.5 15.0006C11.4343 15.0006 11.3692 14.9877 11.3084 14.9625C11.2477 14.9373 11.1925 14.9005 11.146 14.854C11.0995 14.8075 11.0626 14.7523 11.0375 14.6916C11.0123 14.6308 10.9994 14.5657 10.9994 14.5C10.9994 14.4342 11.0123 14.3691 11.0375 14.3084C11.0626 14.2477 11.0995 14.1925 11.146 14.146L12.293 13H5V12L12.293 12L11.146 10.854C11.0521 10.7601 10.9994 10.6328 10.9994 10.5C10.9994 10.3672 11.0521 10.2399 11.146 10.146C11.2399 10.0521 11.3672 9.99935 11.5 9.99935C11.6328 9.99935 11.7601 10.0521 11.854 10.146L13.854 12.146C13.9006 12.1924 13.9375 12.2476 13.9627 12.3083C13.9879 12.3691 14.0009 12.4342 14.0009 12.5C14.0009 12.5657 13.9879 12.6309 13.9627 12.6916C13.9375 12.7524 13.9006 12.8075 13.854 12.854Z" fill="#202020"/>
<path d="M3.75 7H3.00001V3.70698L1.85401 4.85398C1.76012 4.94787 1.63278 5.00061 1.50001 5.00061C1.36723 5.00061 1.23989 4.94787 1.14601 4.85398C1.05212 4.76009 0.999374 4.63275 0.999374 4.49998C0.999374 4.3672 1.05212 4.23986 1.14601 4.14598L3.14601 2.14598C3.19245 2.09941 3.24763 2.06247 3.30837 2.03727C3.36912 2.01206 3.43424 1.99908 3.50001 1.99908C3.56577 1.99908 3.63089 2.01206 3.69164 2.03727C3.75238 2.06247 3.80756 2.09941 3.85401 2.14598L5.85401 4.14598C5.94789 4.23986 6.00064 4.3672 6.00064 4.49998C6.00064 4.63275 5.94789 4.76009 5.85401 4.85398C5.76012 4.94787 5.63278 5.00061 5.50001 5.00061C5.36723 5.00061 5.23989 4.94787 5.14601 4.85398L4.00001 3.70698V7.01616C3.91729 7.0054 3.83378 6.99998 3.75 7Z" fill="#202020"/>
<path d="M11.293 3.99998L6.98736 8.30563C6.99573 8.36973 7 8.43464 7 8.5V9.5C7 9.57536 6.99433 9.65014 6.98322 9.72376L12 4.70698V6.32898C12 6.46159 12.0527 6.58876 12.1465 6.68253C12.2402 6.7763 12.3674 6.82898 12.5 6.82898C12.6326 6.82898 12.7598 6.7763 12.8536 6.68253C12.9473 6.58876 13 6.46159 13 6.32898V3.49998C13 3.36737 12.9473 3.24019 12.8536 3.14643C12.7598 3.05266 12.6326 2.99998 12.5 2.99998H9.67201C9.5394 2.99998 9.41222 3.05266 9.31845 3.14643C9.22468 3.24019 9.17201 3.36737 9.17201 3.49998C9.17201 3.63259 9.22468 3.75976 9.31845 3.85353C9.41222 3.9473 9.5394 3.99998 9.67201 3.99998H11.293Z" fill="#202020"/>
<path d="M2.5 8C1.83696 8 1.20107 8.26339 0.732233 8.73223C0.263392 9.20107 0 9.83696 0 10.5C0 10.7761 0.223858 11 0.5 11C0.776142 11 1 10.7761 1 10.5C1 10.3674 1.05268 10.2402 1.14645 10.1464C1.24021 10.0527 1.36739 10 1.5 10H2.5V11.134C2.42495 11.1773 2.35523 11.2306 2.29289 11.2929C2.10536 11.4804 2 11.7348 2 12V15.25C2 15.4489 2.07902 15.6397 2.21967 15.7803C2.36032 15.921 2.55109 16 2.75 16H3.25C3.44891 16 3.63968 15.921 3.78033 15.7803C3.92098 15.6397 4 15.4489 4 15.25V12C4 11.7348 3.89464 11.4804 3.70711 11.2929C3.64477 11.2306 3.57505 11.1773 3.5 11.134V10H3.75C4.01522 10 4.26957 9.89464 4.45711 9.70711C4.47192 9.69229 4.48622 9.67706 4.5 9.66144C4.51378 9.67706 4.52808 9.69229 4.54289 9.70711C4.73043 9.89464 4.98478 10 5.25 10H5.5C5.77614 10 6 9.77614 6 9.5V8.5C6 8.22386 5.77614 8 5.5 8H5.25C4.98478 8 4.73043 8.10536 4.54289 8.29289C4.52808 8.30771 4.51378 8.32294 4.5 8.33856C4.48622 8.32294 4.47192 8.30771 4.45711 8.29289C4.26957 8.10536 4.01522 8 3.75 8H2.5Z" fill="#202020"/>
</svg>
