<svg width="16" height="16" viewBox="0 0 16 16" fill="none" xmlns="http://www.w3.org/2000/svg">
<g clip-path="url(#clip0_7201_60097)">
<path d="M11.854 14.854L13.854 12.854C13.9006 12.8075 13.9375 12.7524 13.9627 12.6916C13.9879 12.6309 14.0009 12.5657 14.0009 12.5C14.0009 12.4342 13.9879 12.3691 13.9627 12.3083C13.9375 12.2476 13.9006 12.1924 13.854 12.146L11.854 10.146C11.7601 10.0521 11.6328 9.99935 11.5 9.99935C11.3672 9.99935 11.2399 10.0521 11.146 10.146C11.0521 10.2399 10.9994 10.3672 10.9994 10.5C10.9994 10.6328 11.0521 10.7601 11.146 10.854L12.293 12H4.70699L4.72422 11.9828C4.65019 11.9941 4.57523 11.9999 4.49997 12C4.32967 11.9994 4.16067 11.9703 3.99997 11.914V13H12.293L11.146 14.146C11.0995 14.1925 11.0626 14.2477 11.0375 14.3084C11.0123 14.3691 10.9994 14.4342 10.9994 14.5C10.9994 14.5657 11.0123 14.6308 11.0375 14.6916C11.0626 14.7523 11.0995 14.8075 11.146 14.854C11.1925 14.9005 11.2477 14.9373 11.3084 14.9625C11.3691 14.9877 11.4342 15.0006 11.5 15.0006C11.5657 15.0006 11.6308 14.9877 11.6916 14.9625C11.7523 14.9373 11.8075 14.9005 11.854 14.854Z" fill="#202020"/>
<path d="M2.99999 7.08585C3.02468 7.09468 3.04915 7.10417 3.07339 7.11433C3.25495 7.19042 3.41939 7.30219 3.55697 7.443L3.99999 7.88602V3.70698L5.14599 4.85398C5.23988 4.94787 5.36721 5.00061 5.49999 5.00061C5.63277 5.00061 5.7601 4.94787 5.85399 4.85398C5.94788 4.76009 6.00062 4.63275 6.00062 4.49998C6.00062 4.3672 5.94788 4.23986 5.85399 4.14598L3.85399 2.14598C3.80755 2.09941 3.75237 2.06247 3.69162 2.03727C3.63088 2.01206 3.56576 1.99908 3.49999 1.99908C3.43422 1.99908 3.3691 2.01206 3.30836 2.03727C3.24761 2.06247 3.19244 2.09941 3.14599 2.14598L1.14599 4.14598C1.0521 4.23986 0.999359 4.3672 0.999359 4.49998C0.999359 4.63275 1.0521 4.76009 1.14599 4.85398C1.23988 4.94787 1.36721 5.00061 1.49999 5.00061C1.63277 5.00061 1.7601 4.94787 1.85399 4.85398L2.99999 3.70698V7.08585Z" fill="#202020"/>
<path d="M5.69428 9.59868L11.293 3.99998H9.67199C9.53938 3.99998 9.4122 3.9473 9.31844 3.85353C9.22467 3.75976 9.17199 3.63259 9.17199 3.49998C9.17199 3.36737 9.22467 3.24019 9.31844 3.14643C9.4122 3.05266 9.53938 2.99998 9.67199 2.99998H12.5C12.6326 2.99998 12.7598 3.05266 12.8535 3.14643C12.9473 3.24019 13 3.36737 13 3.49998V6.32898C13 6.46159 12.9473 6.58876 12.8535 6.68253C12.7598 6.7763 12.6326 6.82898 12.5 6.82898C12.3674 6.82898 12.2402 6.7763 12.1464 6.68253C12.0527 6.58876 12 6.46159 12 6.32898V4.70698L5.98432 10.7226C5.9952 10.6491 6.00045 10.5747 5.99997 10.5C5.99945 10.2988 5.95825 10.0997 5.87886 9.91482C5.83042 9.80199 5.76837 9.69586 5.69428 9.59868Z" fill="#202020"/>
<path d="M2.14985 8.15L0.14985 10.15C0.102408 10.1951 0.0646336 10.2494 0.0388219 10.3096C0.0130102 10.3697 -0.000300208 10.4345 -0.000300211 10.5C-0.000300214 10.5655 0.0130101 10.6303 0.0388219 10.6904C0.0646336 10.7506 0.102408 10.8049 0.14985 10.85C0.194967 10.8974 0.249259 10.9352 0.309426 10.961C0.369593 10.9868 0.43438 11.0002 0.49985 11.0002C0.56532 11.0002 0.630107 10.9868 0.690274 10.961C0.750441 10.9352 0.804732 10.8974 0.84985 10.85L1.99985 9.71L1.99985 14.5C1.99985 14.6326 2.05253 14.7598 2.1463 14.8536C2.24006 14.9473 2.36724 15 2.49985 15C2.63246 15 2.75963 14.9473 2.8534 14.8536C2.94717 14.7598 2.99985 14.6326 2.99985 14.5L2.99985 9.71L4.14985 10.85C4.19497 10.8974 4.24926 10.9352 4.30943 10.961C4.36959 10.9868 4.43438 11.0002 4.49985 11.0002C4.56532 11.0002 4.63011 10.9868 4.69027 10.961C4.75044 10.9352 4.80473 10.8974 4.84985 10.85C4.89729 10.8049 4.93507 10.7506 4.96088 10.6904C4.98669 10.6303 5 10.5655 5 10.5C5 10.4345 4.98669 10.3697 4.96088 10.3096C4.93507 10.2494 4.89729 10.1951 4.84985 10.15L2.84985 8.15C2.80473 8.10256 2.75044 8.06478 2.69027 8.03897C2.63011 8.01316 2.56532 7.99985 2.49985 7.99985C2.43438 7.99985 2.36959 8.01316 2.30943 8.03897C2.24926 8.06478 2.19497 8.10256 2.14985 8.15V8.15Z" fill="#006CBF"/>
</g>
<defs>
<clipPath id="clip0_7201_60097">
<rect width="16" height="16" fill="white"/>
</clipPath>
</defs>
</svg>
