<svg width="16" height="16" viewBox="0 0 16 16" fill="none" xmlns="http://www.w3.org/2000/svg">
<path d="M14.854 7.64609L8.354 1.14609C8.243 1.03509 8.086 0.983085 7.934 1.00409C7.78 1.02509 7.644 1.11609 7.566 1.25209L5.566 4.75208C5.455 4.94809 5.488 5.19409 5.647 5.35409L7.086 6.79309L7.793 6.08609L6.624 4.91708L8.109 2.31709L13.683 7.89109L11.083 9.37708L9.913 8.20709L9.206 8.91408L10.645 10.3531C10.742 10.4491 10.87 10.4991 10.999 10.4991C11.084 10.4991 11.17 10.4781 11.247 10.4331L14.747 8.43308C14.883 8.35608 14.974 8.22009 14.994 8.06508C15.015 7.91109 14.963 7.75509 14.852 7.64509L14.854 7.64609Z" fill="#202020"/>
<path d="M9.85401 6.14601C9.65901 5.95101 9.34201 5.95101 9.14701 6.14601L3.00101 12.292V9.49901C3.00101 9.22301 2.77701 8.99901 2.50101 8.99901C2.22501 8.99901 2.00101 9.22301 2.00101 9.49901V13.499C2.00101 13.775 2.22501 13.999 2.50101 13.999H6.50101C6.77701 13.999 7.00101 13.775 7.00101 13.499C7.00101 13.223 6.77701 12.999 6.50101 12.999H3.70801L9.85401 6.85301C10.049 6.65801 10.049 6.34101 9.85401 6.14601Z" fill="#006CBF"/>
</svg>
