<svg width="16" height="16" viewBox="0 0 16 16" fill="none" xmlns="http://www.w3.org/2000/svg">
<path d="M14.9248 7.137L13.6748 2.137C13.5068 1.468 12.9078 1 12.2188 1H6.96883C6.52383 1 6.10383 1.196 5.81683 1.538L1.59383 6.606C1.17183 7.112 1.13283 7.849 1.49783 8.398L4.78683 13.332C5.06583 13.75 5.53183 14 6.03483 14H12.2188C12.5558 14 12.8698 13.885 13.1238 13.693L13.1278 13.692L13.1298 13.69C13.1608 13.667 13.1818 13.634 13.2108 13.609C13.2308 13.587 13.2548 13.568 13.2708 13.544C13.4558 13.357 13.6068 13.134 13.6738 12.865L14.9238 7.866C14.9838 7.628 14.9838 7.376 14.9238 7.138L14.9248 7.137ZM6.58383 2.181C6.67983 2.066 6.81983 2 6.96883 2H12.0658L8.73283 7H2.56683L6.58383 2.181ZM5.61883 12.778L2.43383 8.001H8.73183L12.0658 13.001H6.03483C5.86683 13.001 5.71183 12.918 5.61883 12.778ZM13.9538 7.622L12.7888 12.283L9.60083 7.501L12.7888 2.719L13.9538 7.381C13.9748 7.459 13.9748 7.543 13.9538 7.622Z" fill="#202020"/>
</svg>
