<svg width="16" height="16" viewBox="0 0 16 16" fill="none" xmlns="http://www.w3.org/2000/svg">
<path d="M12.5 3H6.5C6.224 3 6 2.776 6 2.5C6 2.224 6.224 2 6.5 2H12.5C12.776 2 13 2.224 13 2.5C13 2.776 12.776 3 12.5 3ZM14.5 2C14.224 2 14 2.224 14 2.5C14 2.776 14.224 3 14.5 3C14.776 3 15 2.776 15 2.5C15 2.224 14.776 2 14.5 2ZM13 6.5C13 6.224 12.776 6 12.5 6H6.5C6.224 6 6 6.224 6 6.5C6 6.776 6.224 7 6.5 7H12.5C12.776 7 13 6.776 13 6.5ZM14.5 6C14.224 6 14 6.224 14 6.5C14 6.776 14.224 7 14.5 7C14.776 7 15 6.776 15 6.5C15 6.224 14.776 6 14.5 6ZM13 10.5C13 10.224 12.776 10 12.5 10H9.5C9.224 10 9 10.224 9 10.5C9 10.776 9.224 11 9.5 11H12.5C12.776 11 13 10.776 13 10.5ZM14.5 10C14.224 10 14 10.224 14 10.5C14 10.776 14.224 11 14.5 11C14.776 11 15 10.776 15 10.5C15 10.224 14.776 10 14.5 10ZM13 14.5C13 14.224 12.776 14 12.5 14H9.5C9.224 14 9 14.224 9 14.5C9 14.776 9.224 15 9.5 15H12.5C12.776 15 13 14.776 13 14.5ZM14.5 14C14.224 14 14 14.224 14 14.5C14 14.776 14.224 15 14.5 15C14.776 15 15 14.776 15 14.5C15 14.224 14.776 14 14.5 14Z" fill="#202020"/>
<path d="M7.854 12.146L5.854 10.146C5.659 9.951 5.342 9.951 5.147 10.146C4.952 10.341 4.952 10.658 5.147 10.853L6.293 11.999H2.5C2.224 11.999 2 11.774 2 11.499V3.5C2 3.225 2.224 3 2.5 3H4.5C4.776 3 5 2.776 5 2.5C5 2.224 4.776 2 4.5 2H2.5C1.673 2 1 2.673 1 3.5V11.5C1 12.327 1.673 13 2.5 13H6.293L5.147 14.146C4.952 14.341 4.952 14.658 5.147 14.853C5.245 14.951 5.373 14.999 5.501 14.999C5.629 14.999 5.757 14.95 5.855 14.853L7.855 12.853C8.05 12.658 8.049 12.341 7.854 12.146Z" fill="#006CBF"/>
</svg>
