<svg width="16" height="16" viewBox="0 0 16 16" fill="none" xmlns="http://www.w3.org/2000/svg">
<path fill-rule="evenodd" clip-rule="evenodd" d="M1.85355 1.14645C1.65829 0.951184 1.34171 0.951184 1.14645 1.14645C0.951184 1.34171 0.951184 1.65829 1.14645 1.85355L2.14645 2.85355C2.05094 3.05354 2 3.27415 2 3.5V8.5C2 8.89782 2.15804 9.27936 2.43934 9.56066C2.72064 9.84196 3.10218 10 3.5 10H7.50367L7.511 11H6.5C6.36739 11 6.24021 11.0527 6.14645 11.1464C6.05268 11.2402 6 11.3674 6 11.5V12H5.5C5.36739 12 5.24021 12.0527 5.14645 12.1464C5.05268 12.2402 5 12.3674 5 12.5V13H1.5C1.36739 13 1.24021 13.0527 1.14645 13.1464C1.05268 13.2402 1 13.3674 1 13.5C1 13.6326 1.05268 13.7598 1.14645 13.8536C1.24021 13.9473 1.36739 14 1.5 14H5V14.5C5 14.6326 5.05268 14.7598 5.14645 14.8536C5.24021 14.9473 5.36739 15 5.5 15H10.5C10.6326 15 10.7598 14.9473 10.8536 14.8536C10.9473 14.7598 11 14.6326 11 14.5V14H13.2929L14.1464 14.8536C14.3417 15.0488 14.6583 15.0488 14.8536 14.8536C15.0488 14.6583 15.0488 14.3417 14.8536 14.1464L1.85355 1.14645ZM12.2929 13L9.29289 10H8.50367L8.511 11H9.5C9.63261 11 9.75979 11.0527 9.85355 11.1464C9.94732 11.2402 10 11.3674 10 11.5V12H10.5C10.6326 12 10.7598 12.0527 10.8536 12.1464C10.9473 12.2402 11 12.3674 11 12.5V13H12.2929ZM8.29289 9L3 3.70711V8.5C3 8.63261 3.05268 8.75979 3.14645 8.85355C3.24021 8.94732 3.36739 9 3.5 9H8.29289ZM9 12H7V12.5C7 12.6326 6.94732 12.7598 6.85355 12.8536C6.75979 12.9473 6.63261 13 6.5 13H6V14H10V13H9.5C9.36739 13 9.24021 12.9473 9.14645 12.8536C9.05268 12.7598 9 12.6326 9 12.5V12Z" fill="#202020"/>
<path d="M4.12158 2L5.12136 3H12.5C12.6326 3 12.7598 3.05268 12.8536 3.14645C12.9473 3.24021 13 3.36739 13 3.5V8.5C13 8.63261 12.9473 8.75979 12.8536 8.85355C12.7598 8.94732 12.6326 9 12.5 9H11.1201L12.1198 10H12.5C12.8978 10 13.2794 9.84196 13.5607 9.56066C13.842 9.27936 14 8.89782 14 8.5V3.5C14 3.10218 13.842 2.72064 13.5607 2.43934C13.2794 2.15804 12.8978 2 12.5 2H4.12158Z" fill="#202020"/>
</svg>
