<svg width="16" height="16" viewBox="0 0 16 16" fill="none" xmlns="http://www.w3.org/2000/svg">
<path d="M11.5 14H12.5C13.327 14 14 13.327 14 12.5V3.5C14 2.673 13.327 2 12.5 2H11.5C11.224 2 11 2.224 11 2.5C11 2.776 11.224 3 11.5 3H12.5C12.776 3 13 3.225 13 3.5V12.5C13 12.775 12.776 13 12.5 13H11.5C11.224 13 11 13.224 11 13.5C11 13.776 11.224 14 11.5 14Z" fill="#202020"/>
<path d="M3 10.3368V3.5C3 3.225 3.224 3 3.5 3H4.5C4.776 3 5 2.776 5 2.5C5 2.224 4.776 2 4.5 2H3.5C2.673 2 2 2.673 2 3.5V10.2565C2.08034 10.2522 2.16365 10.25 2.25002 10.25C2.51193 10.25 2.76319 10.28 3 10.3368Z" fill="#202020"/>
<path d="M2.25 11.25C1.362 11.25 0.989001 11.553 0.896001 11.646C0.701001 11.841 0.687001 12.17 0.882001 12.365C1.076 12.561 1.379 12.573 1.575 12.378C1.577 12.378 1.757 12.25 2.249 12.25C2.279 12.25 2.999 12.256 2.999 12.75V13.056C2.795 13.023 2.551 13 2.249 13C0.936001 13 0.249001 13.754 0.249001 14.5C0.249001 15.246 0.936001 16 2.249 16C2.621 16 2.91 15.937 3.144 15.851C3.235 15.943 3.36 16 3.499 16C3.775 16 3.999 15.776 3.999 15.5V12.75C3.999 11.765 3.12 11.25 2.25 11.25ZM3 14.811C2.907 14.885 2.697 15 2.25 15C1.601 15 1.25 14.742 1.25 14.5C1.25 14.258 1.601 14 2.25 14C2.622 14 2.856 14.038 3 14.074V14.811ZM7 11.5C6.634 11.5 6.295 11.619 6 11.813V10.5C6 10.224 5.776 10 5.5 10C5.224 10 5 10.224 5 10.5V15.5C5 15.776 5.224 16 5.5 16C5.717 16 5.897 15.86 5.966 15.666C6.269 15.873 6.62 16 7 16C8.103 16 9 14.991 9 13.75C9 12.509 8.103 11.5 7 11.5ZM7 15C6.448 15 6 14.439 6 13.75C6 13.061 6.448 12.5 7 12.5C7.552 12.5 8 13.061 8 13.75C8 14.439 7.552 15 7 15Z" fill="#202020"/>
</svg>
