<svg width="16" height="16" viewBox="0 0 16 16" fill="none" xmlns="http://www.w3.org/2000/svg">
<g clip-path="url(#clip0_7201_60159)">
<path d="M4 4C4 2.89543 4.89543 2 6 2H14C15.1046 2 16 2.89543 16 4V9.99729C16 11.1019 15.1046 11.9973 14 11.9973H12.0029V13.0079L13.5021 13.0079C13.7783 13.0079 14.0021 13.2318 14.0021 13.5079C14.0021 13.7841 13.7783 14.0079 13.5021 14.0079L10.9722 14.008C10.9373 13.8396 10.8848 13.6747 10.8149 13.514C10.7352 13.3311 10.6357 13.1607 10.5212 13.008L11.0029 13.008V11.9973H9.54312L8.54312 10.9973H14C14.5523 10.9973 15 10.5496 15 9.99729V4C15 3.44772 14.5523 3 14 3H6C5.44772 3 5 3.44772 5 4V5.25005C4.67514 5.13682 4.34082 5.06151 4 5.0249V4Z" fill="#202020"/>
<path d="M2.75809 6.334C2.76709 6.265 2.79409 6.2 2.83709 6.145C2.88009 6.09 2.93609 6.048 3.00009 6.023C3.03509 6.009 3.07109 6.001 3.10809 5.997C3.70209 5.927 4.30509 6.011 4.85809 6.239C5.41109 6.467 5.89709 6.832 6.27009 7.3C6.64309 7.768 6.89009 8.323 6.98809 8.914C7.08609 9.505 7.03309 10.11 6.83209 10.673L9.55809 13.399C9.70409 13.538 9.82009 13.704 9.90009 13.889C9.98009 14.073 10.0231 14.272 10.0251 14.473C10.0271 14.674 9.99009 14.874 9.91409 15.06C9.83809 15.246 9.72609 15.416 9.58409 15.558C9.44209 15.7 9.27309 15.813 9.08609 15.888C8.90009 15.964 8.70009 16.002 8.49909 15.999C8.29809 15.997 8.09909 15.954 7.91509 15.874C7.73109 15.794 7.56409 15.677 7.42509 15.532L4.69909 12.806C4.13509 13.007 3.53009 13.061 2.94009 12.962C2.35009 12.864 1.79409 12.616 1.32609 12.244C0.858086 11.871 0.493086 11.385 0.265086 10.832C0.037086 10.279 -0.045914 9.677 0.023086 9.082C0.035086 9.001 0.070086 8.926 0.124086 8.865C0.178086 8.804 0.248086 8.76 0.326086 8.737C0.404086 8.715 0.487086 8.716 0.565086 8.74C0.643086 8.764 0.712086 8.81 0.765086 8.872L1.74009 9.847C2.02509 10.118 2.40509 10.268 2.79809 10.263C3.19209 10.258 3.56809 10.1 3.84609 9.821C4.12409 9.543 4.28309 9.167 4.28809 8.773C4.29309 8.379 4.14409 8 3.87209 7.715L2.89709 6.74C2.82509 6.669 2.77709 6.579 2.75909 6.48C2.75109 6.432 2.75009 6.383 2.75709 6.335L2.75809 6.334Z" fill="#202020"/>
</g>
<defs>
<clipPath id="clip0_7201_60159">
<rect width="16" height="16" fill="white"/>
</clipPath>
</defs>
</svg>
