<svg width="16" height="16" viewBox="0 0 16 16" fill="none" xmlns="http://www.w3.org/2000/svg">
<path d="M13 14H3C1.897 14 1 13.103 1 12V4C1 2.897 1.897 2 3 2H13C14.103 2 15 2.897 15 4V12C15 13.103 14.103 14 13 14ZM3 3C2.449 3 2 3.448 2 4V12C2 12.552 2.449 13 3 13H13C13.551 13 14 12.552 14 12V4C14 3.448 13.551 3 13 3H3ZM8.707 8L10.353 6.354C10.548 6.159 10.548 5.842 10.353 5.647C10.158 5.452 9.841 5.452 9.646 5.647L8 7.293L6.354 5.647C6.159 5.452 5.842 5.452 5.647 5.647C5.452 5.842 5.452 6.159 5.647 6.354L7.293 8L5.647 9.646C5.452 9.841 5.452 10.158 5.647 10.353C5.745 10.451 5.873 10.499 6.001 10.499C6.129 10.499 6.257 10.45 6.355 10.353L8.001 8.707L9.647 10.353C9.745 10.451 9.873 10.499 10.001 10.499C10.129 10.499 10.257 10.45 10.355 10.353C10.55 10.158 10.55 9.841 10.355 9.646L8.709 8H8.707Z" fill="#202020"/>
</svg>
