<svg width="16" height="16" viewBox="0 0 16 16" fill="none" xmlns="http://www.w3.org/2000/svg">
<path fill-rule="evenodd" clip-rule="evenodd" d="M9.5 10C9.10218 10 8.72065 9.84196 8.43935 9.56065C8.15804 9.27935 8 8.89782 8 8.5C8 8.10218 8.15804 7.72065 8.43935 7.43935C8.72065 7.15804 9.10218 7 9.5 7C9.89783 7 10.2793 7.15804 10.5607 7.43935C10.842 7.72065 11 8.10218 11 8.5C11 8.89782 10.842 9.27935 10.5607 9.56065C10.2793 9.84196 9.89783 10 9.5 10ZM9.5 8C9.36739 8 9.24022 8.05269 9.14645 8.14645C9.05269 8.24022 9 8.36739 9 8.5C9 8.63261 9.05269 8.75978 9.14645 8.85355C9.24022 8.94731 9.36739 9 9.5 9C9.63261 9 9.75978 8.94731 9.85355 8.85355C9.94731 8.75978 10 8.63261 10 8.5C10 8.36739 9.94731 8.24022 9.85355 8.14645C9.75978 8.05269 9.63261 8 9.5 8Z" fill="#202020"/>
<path fill-rule="evenodd" clip-rule="evenodd" d="M10 15C8.67441 14.9984 7.40355 14.4711 6.46622 13.5338C5.52888 12.5964 5.00159 11.3256 5 10C5.00159 8.67441 5.52888 7.40355 6.46622 6.46622C7.40355 5.52888 8.67441 5.00159 10 5C11.3256 5.00159 12.5964 5.52888 13.5338 6.46622C14.4711 7.40355 14.9984 8.67441 15 10C14.9984 11.3256 14.4711 12.5964 13.5338 13.5338C12.5964 14.4711 11.3256 14.9984 10 15ZM10 6C8.93913 6 7.92172 6.42142 7.17157 7.17157C6.42142 7.92172 6 8.93913 6 10C6 11.0609 6.42142 12.0783 7.17157 12.8284C7.92172 13.5786 8.93913 14 10 14C11.0609 14 12.0783 13.5786 12.8284 12.8284C13.5786 12.0783 14 11.0609 14 10C14 8.93913 13.5786 7.92172 12.8284 7.17157C12.0783 6.42142 11.0609 6 10 6Z" fill="#202020"/>
<path d="M8.35355 2.35355C8.54882 2.15829 8.54882 1.84171 8.35355 1.64645C8.15829 1.45118 7.84171 1.45118 7.64645 1.64645L1.64645 7.64645C1.45118 7.84171 1.45118 8.15829 1.64645 8.35355C1.84171 8.54882 2.15829 8.54882 2.35355 8.35355L8.35355 2.35355Z" fill="#006CBF"/>
</svg>
