<svg width="16" height="16" viewBox="0 0 16 16" fill="none" xmlns="http://www.w3.org/2000/svg">
<path d="M13.25 3H2.75C1.785 3 1 3.785 1 4.75V10.25C1 11.215 1.785 12 2.75 12H13.25C14.215 12 15 11.215 15 10.25V4.75C15 3.785 14.215 3 13.25 3ZM14 10.25C14 10.664 13.663 11 13.25 11H2.75C2.337 11 2 10.664 2 10.25V4.75C2 4.336 2.337 4 2.75 4H13.25C13.663 4 14 4.336 14 4.75V10.25ZM5 9.5C5 9.776 4.776 10 4.5 10H4C3.448 10 3 9.551 3 9V8.5C3 8.224 3.224 8 3.5 8C3.776 8 4 8.224 4 8.5V9H4.5C4.776 9 5 9.224 5 9.5ZM10 9.5C10 9.776 9.776 10 9.5 10H6.5C6.224 10 6 9.776 6 9.5C6 9.224 6.224 9 6.5 9H9.5C9.776 9 10 9.224 10 9.5ZM13 8.5V9C13 9.551 12.552 10 12 10H11.5C11.224 10 11 9.776 11 9.5C11 9.224 11.224 9 11.5 9H12V8.5C12 8.224 12.224 8 12.5 8C12.776 8 13 8.224 13 8.5ZM13 6V6.5C13 6.776 12.776 7 12.5 7C12.224 7 12 6.776 12 6.5V6H11.5C11.224 6 11 5.776 11 5.5C11 5.224 11.224 5 11.5 5H12C12.552 5 13 5.449 13 6ZM10 5.5C10 5.776 9.776 6 9.5 6H6.5C6.224 6 6 5.776 6 5.5C6 5.224 6.224 5 6.5 5H9.5C9.776 5 10 5.224 10 5.5ZM5 5.5C5 5.776 4.776 6 4.5 6H4V6.5C4 6.776 3.776 7 3.5 7C3.224 7 3 6.776 3 6.5V6C3 5.449 3.448 5 4 5H4.5C4.776 5 5 5.224 5 5.5Z" fill="#202020"/>
</svg>
