<svg width="16" height="16" viewBox="0 0 16 16" fill="none" xmlns="http://www.w3.org/2000/svg">
<g clip-path="url(#clip0_7201_60245)">
<path d="M11.5163 6H13V11.5C13 12.3284 12.3284 13 11.5 13H4.5C3.67157 13 3 12.3284 3 11.5V6H11.4937C11.2988 5.99959 11.1058 5.96104 10.9256 5.8865C10.7435 5.81116 10.5782 5.70053 10.439 5.561C10.2996 5.4217 10.189 5.2563 10.1136 5.07425C10.1034 5.04973 10.0939 5.02497 10.0851 5H3V4.5C3 3.67157 3.67157 3 4.5 3H10.8783L11.854 2.02488C11.7384 2.00848 11.6202 2 11.5 2H4.5C3.11929 2 2 3.11929 2 4.5V11.5C2 12.8807 3.11929 14 4.5 14H11.5C12.8807 14 14 12.8807 14 11.5V4.5C14 4.38133 13.9917 4.2646 13.9757 4.15034L12.566 5.561C12.4262 5.70113 12.26 5.8121 12.077 5.88746C11.8991 5.96076 11.7087 5.99895 11.5163 6Z" fill="#202020"/>
<path d="M16 0.5V3.5C16 3.63261 15.9473 3.75979 15.8536 3.85355C15.7598 3.94732 15.6326 4 15.5 4C15.3674 4 15.2402 3.94732 15.1464 3.85355C15.0527 3.75979 15 3.63261 15 3.5V1.707L11.854 4.854C11.8075 4.9004 11.7523 4.93718 11.6915 4.96223C11.6308 4.98728 11.5657 5.00012 11.5 5C11.4343 5.00012 11.3692 4.98728 11.3085 4.96223C11.2477 4.93718 11.1925 4.9004 11.146 4.854C11.0994 4.80755 11.0625 4.75238 11.0373 4.69163C11.0121 4.63089 10.9991 4.56577 10.9991 4.5C10.9991 4.43423 11.0121 4.36911 11.0373 4.30837C11.0625 4.24762 11.0994 4.19245 11.146 4.146L14.293 1H12.5C12.3674 1 12.2402 0.947322 12.1464 0.853553C12.0527 0.759785 12 0.632608 12 0.5C12 0.367392 12.0527 0.240215 12.1464 0.146447C12.2402 0.0526784 12.3674 0 12.5 0H15.5C15.6326 0 15.7598 0.0526784 15.8536 0.146447C15.9473 0.240215 16 0.367392 16 0.5Z" fill="#006CBF"/>
</g>
<defs>
<clipPath id="clip0_7201_60245">
<rect width="16" height="16" fill="white"/>
</clipPath>
</defs>
</svg>
