<svg width="16" height="16" viewBox="0 0 16 16" fill="none" xmlns="http://www.w3.org/2000/svg">
<g clip-path="url(#clip0_7201_60289)">
<path fill-rule="evenodd" clip-rule="evenodd" d="M7.25716 15H4C2.895 15 2 14.105 2 13V5C2 3.895 2.895 3 4 3H7.586C7.984 3 8.366 3.158 8.647 3.439L10.561 5.353C10.749 5.54163 10.8819 5.77455 10.9493 6.02723C9.98769 6.12283 9.09895 6.4661 8.3478 6.99236C7.59119 6.91601 7 6.27662 7 5.5V4H4C3.448 4 3 4.448 3 5V13C3 13.552 3.448 14 4 14H6.59971C6.78261 14.3578 7.00353 14.6929 7.25716 15ZM9.793 6L8 4.207V5.5C8 5.776 8.224 6 8.5 6H9.793Z" fill="#202020"/>
<path d="M12.9952 6.20567C12.9464 5.35174 12.5917 4.55146 11.971 3.94L10.061 2.03C9.411 1.37 8.511 1 7.591 1H6.001C5.261 1 4.621 1.4 4.271 2H7.591C8.241 2 8.891 2.27 9.351 2.73L11.271 4.65C11.6473 5.02629 11.889 5.50514 11.9704 6.01983C12.3225 6.04966 12.6651 6.11265 12.9952 6.20567Z" fill="#202020"/>
<path fill-rule="evenodd" clip-rule="evenodd" d="M11.5 16C13.9853 16 16 13.9853 16 11.5C16 9.01472 13.9853 7 11.5 7C9.01472 7 7 9.01472 7 11.5C7 13.9853 9.01472 16 11.5 16ZM13.3536 10.3536C13.5488 10.1583 13.5488 9.84171 13.3536 9.64645C13.1583 9.45118 12.8417 9.45118 12.6464 9.64645L11.5 10.7929L10.3536 9.64645C10.1583 9.45118 9.84171 9.45118 9.64645 9.64645C9.45118 9.84171 9.45118 10.1583 9.64645 10.3536L10.7929 11.5L9.64645 12.6464C9.45118 12.8417 9.45118 13.1583 9.64645 13.3536C9.84171 13.5488 10.1583 13.5488 10.3536 13.3536L11.5 12.2071L12.6464 13.3536C12.8417 13.5488 13.1583 13.5488 13.3536 13.3536C13.5488 13.1583 13.5488 12.8417 13.3536 12.6464L12.2071 11.5L13.3536 10.3536Z" fill="#C50F1F"/>
</g>
<defs>
<clipPath id="clip0_7201_60289">
<rect width="16" height="16" fill="white"/>
</clipPath>
</defs>
</svg>
