<svg width="16" height="16" viewBox="0 0 16 16" fill="none" xmlns="http://www.w3.org/2000/svg">
<path fill-rule="evenodd" clip-rule="evenodd" d="M3 3C3 1.89543 3.89543 1 5 1H8.58579C8.98361 1 9.36514 1.15804 9.64645 1.43934L12.5607 4.35355C12.842 4.63486 13 5.01639 13 5.41421V13C13 14.1046 12.1046 15 11 15H10.95C10.9828 14.8384 11 14.6712 11 14.5V14C11.5523 14 12 13.5523 12 13V6H9.5C8.67157 6 8 5.32843 8 4.5V2H5C4.44772 2 4 2.44772 4 3V8H3V3ZM9.5 5H11.7929L9 2.20711V4.5C9 4.77614 9.22386 5 9.5 5Z" fill="#202020"/>
<path d="M8.5 16H1.5C0.673 16 0 15.327 0 14.5V10.5C0 9.673 0.673 9 1.5 9H8.5C9.327 9 10 9.673 10 10.5V14.5C10 15.327 9.327 16 8.5 16ZM1.5 10C1.225 10 1 10.225 1 10.5V14.5C1 14.775 1.225 15 1.5 15H8.5C8.775 15 9 14.775 9 14.5V10.5C9 10.225 8.775 10 8.5 10H1.5ZM3.854 13.854C4.049 13.659 4.049 13.342 3.854 13.147L3.208 12.501L3.854 11.855C4.049 11.66 4.049 11.343 3.854 11.148C3.659 10.953 3.342 10.953 3.147 11.148L2.147 12.148C1.952 12.343 1.952 12.66 2.147 12.855L3.147 13.855C3.245 13.953 3.373 14.001 3.501 14.001C3.629 14.001 3.757 13.952 3.855 13.855L3.854 13.854ZM6.854 13.854L7.854 12.854C8.049 12.659 8.049 12.342 7.854 12.147L6.854 11.147C6.659 10.952 6.342 10.952 6.147 11.147C5.952 11.342 5.952 11.659 6.147 11.854L6.793 12.5L6.147 13.146C5.952 13.341 5.952 13.658 6.147 13.853C6.245 13.951 6.373 13.999 6.501 13.999C6.629 13.999 6.757 13.95 6.855 13.853L6.854 13.854Z" fill="#202020"/>
</svg>
