<svg width="16" height="16" viewBox="0 0 16 16" fill="none" xmlns="http://www.w3.org/2000/svg">
<path d="M9.5 5H6.5C6.36739 5 6.24021 4.94732 6.14645 4.85355C6.05268 4.75979 6 4.63261 6 4.5C6 4.36739 6.05268 4.24021 6.14645 4.14645C6.24021 4.05268 6.36739 4 6.5 4H9.5C9.63261 4 9.75979 4.05268 9.85355 4.14645C9.94732 4.24021 10 4.36739 10 4.5C10 4.63261 9.94732 4.75979 9.85355 4.85355C9.75979 4.94732 9.63261 5 9.5 5Z" fill="#202020"/>
<path d="M6.5 11H9.5C9.63261 11 9.75979 10.9473 9.85355 10.8536C9.94732 10.7598 10 10.6326 10 10.5C10 10.3674 9.94732 10.2402 9.85355 10.1464C9.75979 10.0527 9.63261 10 9.5 10H6.5C6.36739 10 6.24021 10.0527 6.14645 10.1464C6.05268 10.2402 6 10.3674 6 10.5C6 10.6326 6.05268 10.7598 6.14645 10.8536C6.24021 10.9473 6.36739 11 6.5 11Z" fill="#202020"/>
<path d="M6.5 12C7.15177 12 7.70789 12.418 7.9143 13H9.5C9.63261 13 9.75979 12.9473 9.85355 12.8536C9.94732 12.7598 10 12.6326 10 12.5C10 12.3674 9.94732 12.2402 9.85355 12.1464C9.75979 12.0527 9.63261 12 9.5 12H6.5Z" fill="#202020"/>
<path d="M7.9143 14H10C10.2652 14 10.5196 13.8946 10.7071 13.7071C10.8946 13.5196 11 13.2652 11 13V3C11 2.73478 10.8946 2.48043 10.7071 2.29289C10.5196 2.10536 10.2652 2 10 2H6C5.73478 2 5.48043 2.10536 5.29289 2.29289C5.10536 2.48043 5 2.73478 5 3V10.5C5 9.84823 4.58198 9.29211 4 9.0857V3C4 2.46957 4.21071 1.96086 4.58579 1.58579C4.96086 1.21071 5.46957 1 6 1H10C10.5304 1 11.0391 1.21071 11.4142 1.58579C11.7893 1.96086 12 2.46957 12 3V13C12 13.5304 11.7893 14.0391 11.4142 14.4142C11.0391 14.7893 10.5304 15 10 15H6.5C7.15177 15 7.70789 14.582 7.9143 14Z" fill="#202020"/>
<path fill-rule="evenodd" clip-rule="evenodd" d="M5 13H6.5C6.776 13 7 13.224 7 13.5C7 13.776 6.776 14 6.5 14H5C5 14.552 4.551 15 4 15H3C2.449 15 2 14.552 2 14H0.5C0.224 14 0 13.776 0 13.5C0 13.224 0.224 13 0.5 13H2C2 12.448 2.449 12 3 12V10.5C3 10.224 3.224 10 3.5 10C3.776 10 4 10.224 4 10.5V12C4.551 12 5 12.448 5 13ZM3 14H4V13H3V14Z" fill="#202020"/>
</svg>
