<svg width="16" height="16" viewBox="0 0 16 16" fill="none" xmlns="http://www.w3.org/2000/svg">
<g clip-path="url(#clip0_7201_60391)">
<path fill-rule="evenodd" clip-rule="evenodd" d="M4.97025 2.295L8.97025 13.295L8.96925 13.296C8.99225 13.358 9.00225 13.423 8.99925 13.489C8.99625 13.554 8.98125 13.619 8.95325 13.678C8.92625 13.737 8.88625 13.791 8.83825 13.835C8.78925 13.879 8.73325 13.914 8.67125 13.936C8.61625 13.956 8.55825 13.966 8.50025 13.966C8.39725 13.966 8.29725 13.935 8.21325 13.876C8.12925 13.817 8.06525 13.733 8.03025 13.637L7.05925 10.966H1.94125L0.97125 13.636C0.94925 13.698 0.91425 13.754 0.87025 13.803C0.82625 13.852 0.77325 13.891 0.71325 13.919C0.65325 13.947 0.58925 13.963 0.52325 13.966C0.45725 13.968 0.39225 13.958 0.33025 13.936C0.26825 13.914 0.21225 13.879 0.16325 13.835C0.11425 13.791 0.07525 13.737 0.04725 13.678C0.01925 13.618 0.00325 13.554 0.00025 13.488C-0.00175 13.422 0.00825 13.357 0.03025 13.295L4.03025 2.295C4.07325 2.207 4.14025 2.132 4.22325 2.08C4.30625 2.028 4.40225 2 4.50025 2C4.59825 2 4.69425 2.028 4.77725 2.08C4.86125 2.132 4.92725 2.207 4.97025 2.295ZM4.50025 3.929L2.30525 9.966H6.70025L4.50025 3.929Z" fill="#202020"/>
<path d="M15.1467 4.85423C15.2447 4.95123 15.3727 5.00023 15.5007 5.00023C15.6287 5.00023 15.7567 4.95223 15.8547 4.85423C16.0497 4.65923 16.0497 4.34223 15.8547 4.14723L13.8547 2.14723C13.6597 1.95223 13.3427 1.95223 13.1477 2.14723L11.1477 4.14723C10.9527 4.34223 10.9527 4.65923 11.1477 4.85423C11.3427 5.04923 11.6597 5.04923 11.8547 4.85423L13.5007 3.20823L15.1467 4.85423Z" fill="#202020"/>
<path d="M15.8547 11.8542L13.8547 13.8542H13.8567C13.7587 13.9512 13.6307 14.0002 13.5027 14.0002C13.3747 14.0002 13.2467 13.9522 13.1487 13.8542L11.1487 11.8542C10.9537 11.6592 10.9537 11.3422 11.1487 11.1472C11.3437 10.9522 11.6607 10.9522 11.8557 11.1472L13.5017 12.7932L15.1477 11.1472C15.3427 10.9522 15.6597 10.9522 15.8547 11.1472C16.0497 11.3422 16.0497 11.6592 15.8547 11.8542Z" fill="#202020"/>
</g>
<defs>
<clipPath id="clip0_7201_60391">
<rect width="16" height="16" fill="white"/>
</clipPath>
</defs>
</svg>
