<svg width="16" height="16" viewBox="0 0 16 16" fill="none" xmlns="http://www.w3.org/2000/svg">
<g clip-path="url(#clip0_7201_60410)">
<path d="M4 2.75C4 1.7835 4.7835 1 5.75 1H10.25C11.2165 1 12 1.7835 12 2.75V6.02243C11.8353 6.00758 11.6685 6 11.4999 6C11.3314 6 11.1647 6.00758 11 6.02242V2.75C11 2.33579 10.6642 2 10.25 2H5.75C5.33579 2 5 2.33579 5 2.75V11.3555C4.98374 11.3678 4.96772 11.3803 4.95194 11.3931C4.70143 11.1897 4.38922 11.042 4 11.0077V2.75Z" fill="#202020"/>
<path fill-rule="evenodd" clip-rule="evenodd" d="M6.02254 12.0013C5.46156 12.0325 5.17357 12.6072 4.94895 13.285C4.71495 12.59 4.41695 12 3.82395 12H2.26995C1.51929 12 1.2392 12.9591 0.96832 13.8867L0.965752 13.8955C0.845559 14.3066 0.569745 15.25 0.373947 15.25C0.166947 15.25 -0.00105286 15.418 -0.00105286 15.625C-0.00105286 15.832 0.166947 16 0.373947 16H1.92795C2.51595 16 2.81595 15.41 3.05295 14.714C3.28695 15.412 3.58795 16 4.17495 16H5.72895C6.36766 16 6.66569 15.3056 6.90724 14.5271C6.71181 14.2312 6.54421 13.9153 6.40817 13.5831C6.37763 13.6844 6.34782 13.7867 6.31811 13.8887L6.31395 13.903L6.31195 13.902C6.20495 14.271 5.91795 15.25 5.72995 15.25C5.72995 15.25 5.72695 15.25 5.72195 15.248L5.71795 15.246C5.71295 15.244 5.70795 15.242 5.69995 15.236C5.69895 15.2355 5.69795 15.2345 5.69695 15.2335C5.69595 15.2325 5.69495 15.2315 5.69395 15.231C5.68495 15.225 5.67595 15.217 5.66395 15.205C5.66323 15.2043 5.66237 15.2032 5.66144 15.2019C5.65978 15.1998 5.65786 15.1973 5.65595 15.196C5.64395 15.183 5.63095 15.167 5.61595 15.147C5.61295 15.143 5.60895 15.136 5.60595 15.131C5.59095 15.109 5.57495 15.083 5.55695 15.052C5.55495 15.048 5.5527 15.0438 5.55045 15.0395C5.5482 15.0352 5.54595 15.031 5.54395 15.027C5.52595 14.994 5.50795 14.957 5.48795 14.914C5.4855 14.9087 5.48306 14.9029 5.48055 14.897C5.4769 14.8883 5.4731 14.8793 5.46895 14.871C5.44995 14.828 5.42995 14.78 5.40995 14.726C5.40095 14.702 5.39095 14.675 5.38195 14.648C5.37409 14.6266 5.36623 14.6026 5.35838 14.5786C5.35523 14.569 5.35209 14.5594 5.34895 14.55C5.38625 14.4319 5.42235 14.3107 5.45865 14.1889C5.46906 14.1539 5.47948 14.119 5.48995 14.084C5.60595 13.685 5.87995 12.751 6.07295 12.751H6.1429C6.08613 12.5069 6.04561 12.2567 6.02254 12.0013ZM1.92895 15.25C2.11595 15.25 2.40695 14.292 2.51495 13.932L2.51395 13.933C2.57495 13.731 2.63695 13.529 2.70195 13.338L2.70295 13.334C2.72395 13.266 2.74895 13.191 2.77595 13.111C2.78511 13.0835 2.79427 13.0585 2.8042 13.0315L2.80695 13.024C2.83095 12.958 2.85795 12.891 2.88695 12.823C2.89051 12.8141 2.89381 12.8055 2.89709 12.7969C2.90302 12.7814 2.90886 12.7661 2.91595 12.75H2.26995C2.08195 12.75 1.79495 13.729 1.68795 14.098L1.68378 14.1123C1.56714 14.5127 1.44906 14.918 1.29095 15.25H1.92895ZM3.59335 13.9274C3.7078 14.3095 3.98953 15.25 4.17595 15.25H4.80995C4.80356 15.2367 4.79853 15.2236 4.79347 15.2106C4.78981 15.2011 4.78614 15.1917 4.78195 15.182C4.75195 15.113 4.72395 15.046 4.69995 14.98C4.69441 14.9642 4.68905 14.9494 4.6838 14.9348C4.67672 14.9152 4.66984 14.8961 4.66295 14.876C4.63695 14.799 4.61295 14.727 4.59395 14.665C4.52995 14.477 4.46595 14.267 4.40395 14.058C4.28695 13.667 4.01195 12.75 3.82295 12.75C3.82295 12.75 3.81495 12.752 3.80295 12.759C3.8006 12.7598 3.79948 12.7606 3.79767 12.7618C3.79717 12.7622 3.7966 12.7626 3.79595 12.763C3.79329 12.7651 3.78979 12.7684 3.78604 12.7719C3.78273 12.7749 3.77923 12.7782 3.77595 12.781C3.77195 12.784 3.76895 12.787 3.76395 12.792C3.75875 12.7972 3.75314 12.8045 3.74738 12.812C3.74426 12.816 3.74111 12.8201 3.73795 12.824C3.73389 12.8287 3.73029 12.8335 3.72622 12.8388C3.72427 12.8414 3.72221 12.8441 3.71995 12.847C3.7134 12.8565 3.70579 12.8691 3.69789 12.8822C3.69493 12.8871 3.69194 12.8921 3.68895 12.897C3.68095 12.91 3.67395 12.922 3.66495 12.938C3.65671 12.953 3.64792 12.9707 3.63898 12.9888C3.63598 12.9949 3.63296 13.001 3.62995 13.007C3.62658 13.0141 3.6231 13.0211 3.61954 13.0284C3.61254 13.0426 3.60524 13.0574 3.59795 13.074C3.59026 13.0913 3.58217 13.111 3.57393 13.1311C3.5693 13.1424 3.56462 13.1539 3.55995 13.165C3.54695 13.196 3.53394 13.227 3.52095 13.263C3.51887 13.2688 3.51674 13.2746 3.51457 13.2806C3.50318 13.3121 3.49071 13.3466 3.47895 13.381C3.4722 13.3997 3.46545 13.4202 3.4587 13.4406C3.45645 13.4474 3.4542 13.4542 3.45195 13.461C3.49895 13.606 3.54295 13.756 3.58695 13.906L3.59335 13.9274Z" fill="#006CBF"/>
<path fill-rule="evenodd" clip-rule="evenodd" d="M11.5 16C13.9853 16 16 13.9853 16 11.5C16 9.01472 13.9853 7 11.5 7C9.01472 7 7 9.01472 7 11.5C7 13.9853 9.01472 16 11.5 16ZM13.3536 10.3536C13.5488 10.1583 13.5488 9.84171 13.3536 9.64645C13.1583 9.45118 12.8417 9.45118 12.6464 9.64645L11.5 10.7929L10.3536 9.64645C10.1583 9.45118 9.84171 9.45118 9.64645 9.64645C9.45118 9.84171 9.45118 10.1583 9.64645 10.3536L10.7929 11.5L9.64645 12.6464C9.45118 12.8417 9.45118 13.1583 9.64645 13.3536C9.84171 13.5488 10.1583 13.5488 10.3536 13.3536L11.5 12.2071L12.6464 13.3536C12.8417 13.5488 13.1583 13.5488 13.3536 13.3536C13.5488 13.1583 13.5488 12.8417 13.3536 12.6464L12.2071 11.5L13.3536 10.3536Z" fill="#C50F1F"/>
</g>
<defs>
<clipPath id="clip0_7201_60410">
<rect width="16" height="16" fill="white"/>
</clipPath>
</defs>
</svg>
