<svg width="16" height="16" viewBox="0 0 16 16" fill="none" xmlns="http://www.w3.org/2000/svg">
<g clip-path="url(#clip0_7201_60420)">
<path d="M15 7.99999C15.0011 9.27059 14.5984 10.5087 13.85 11.5355C13.1017 12.5623 12.0464 13.3248 10.8365 13.7128C9.62656 14.1008 8.32466 14.0943 7.11869 13.6942C5.91272 13.2942 4.86508 12.5212 4.127 11.487C4.85084 11.4609 5.54826 11.2084 6.121 10.765C6.67309 11.3421 7.38531 11.7408 8.16595 11.9096C8.94658 12.0784 9.75989 12.0097 10.5011 11.7123C11.2423 11.4148 11.8776 10.9023 12.325 10.2407C12.7724 9.57907 13.0115 8.79867 13.0115 7.99999C13.0115 7.20131 12.7724 6.42091 12.325 5.7593C11.8776 5.09769 11.2423 4.58516 10.5011 4.28772C9.75989 3.99028 8.94658 3.92155 8.16595 4.09037C7.38531 4.2592 6.67309 4.65785 6.121 5.23499C5.54826 4.7916 4.85084 4.53908 4.127 4.51299C4.86508 3.47875 5.91272 2.7058 7.11869 2.30573C8.32466 1.90567 9.62656 1.89917 10.8365 2.28719C12.0464 2.67521 13.1017 3.43766 13.85 4.46449C14.5984 5.49132 15.0011 6.72939 15 7.99999V7.99999Z" fill="#424242"/>
<path d="M6.5 8C6.5 8.49445 6.35338 8.9778 6.07867 9.38893C5.80397 9.80005 5.41352 10.1205 4.95671 10.3097C4.49989 10.4989 3.99723 10.5484 3.51228 10.452C3.02732 10.3555 2.58187 10.1174 2.23223 9.76777C1.8826 9.41814 1.6445 8.97268 1.54804 8.48773C1.45157 8.00277 1.50108 7.50011 1.6903 7.04329C1.87952 6.58648 2.19995 6.19603 2.61108 5.92133C3.0222 5.64662 3.50555 5.5 4 5.5C4.66304 5.5 5.29893 5.76339 5.76777 6.23223C6.23661 6.70107 6.5 7.33696 6.5 8Z" fill="#0095D7"/>
</g>
<defs>
<clipPath id="clip0_7201_60420">
<rect width="16" height="16" fill="white"/>
</clipPath>
</defs>
</svg>
