<svg width="16" height="16" viewBox="0 0 16 16" fill="none" xmlns="http://www.w3.org/2000/svg">
<path d="M1.5 9C1.20333 9 0.913319 8.91203 0.666645 8.74721C0.419972 8.58238 0.227713 8.34811 0.114181 8.07403C0.000649929 7.79994 -0.0290551 7.49834 0.0288228 7.20736C0.0867006 6.91639 0.229562 6.64912 0.439341 6.43934C0.649119 6.22956 0.916394 6.0867 1.20737 6.02882C1.49834 5.97094 1.79994 6.00065 2.07403 6.11418C2.34811 6.22771 2.58238 6.41997 2.74721 6.66665C2.91203 6.91332 3 7.20333 3 7.5C3 7.89783 2.84197 8.27936 2.56066 8.56066C2.27936 8.84197 1.89783 9 1.5 9ZM1.5 7C1.40111 7 1.30444 7.02932 1.22222 7.08427C1.13999 7.13921 1.0759 7.2173 1.03806 7.30866C1.00022 7.40002 0.990315 7.50056 1.00961 7.59755C1.0289 7.69454 1.07652 7.78363 1.14645 7.85355C1.21637 7.92348 1.30547 7.9711 1.40246 7.99039C1.49945 8.00969 1.59998 7.99978 1.69134 7.96194C1.78271 7.9241 1.86079 7.86001 1.91574 7.77779C1.97068 7.69556 2 7.59889 2 7.5C2 7.36739 1.94732 7.24022 1.85355 7.14645C1.75979 7.05268 1.63261 7 1.5 7ZM5.5 9C5.20333 9 4.91332 8.91203 4.66665 8.74721C4.41997 8.58238 4.22771 8.34811 4.11418 8.07403C4.00065 7.79994 3.97094 7.49834 4.02882 7.20736C4.0867 6.91639 4.22956 6.64912 4.43934 6.43934C4.64912 6.22956 4.91639 6.0867 5.20737 6.02882C5.49834 5.97094 5.79994 6.00065 6.07403 6.11418C6.34811 6.22771 6.58238 6.41997 6.7472 6.66665C6.91203 6.91332 7 7.20333 7 7.5C7 7.89783 6.84197 8.27936 6.56066 8.56066C6.27936 8.84197 5.89783 9 5.5 9ZM5.5 7C5.40111 7 5.30444 7.02932 5.22222 7.08427C5.13999 7.13921 5.0759 7.2173 5.03806 7.30866C5.00022 7.40002 4.99031 7.50056 5.00961 7.59755C5.0289 7.69454 5.07652 7.78363 5.14645 7.85355C5.21637 7.92348 5.30546 7.9711 5.40246 7.99039C5.49945 8.00969 5.59998 7.99978 5.69134 7.96194C5.78271 7.9241 5.86079 7.86001 5.91574 7.77779C5.97068 7.69556 6 7.59889 6 7.5C6 7.36739 5.94732 7.24022 5.85355 7.14645C5.75979 7.05268 5.63261 7 5.5 7ZM9.5 9C9.20333 9 8.91332 8.91203 8.66665 8.74721C8.41997 8.58238 8.22771 8.34811 8.11418 8.07403C8.00065 7.79994 7.97094 7.49834 8.02882 7.20736C8.0867 6.91639 8.22956 6.64912 8.43934 6.43934C8.64912 6.22956 8.91639 6.0867 9.20737 6.02882C9.49834 5.97094 9.79994 6.00065 10.074 6.11418C10.3481 6.22771 10.5824 6.41997 10.7472 6.66665C10.912 6.91332 11 7.20333 11 7.5C11 7.89783 10.842 8.27936 10.5607 8.56066C10.2794 8.84197 9.89783 9 9.5 9ZM9.5 7C9.40111 7 9.30444 7.02932 9.22222 7.08427C9.13999 7.13921 9.0759 7.2173 9.03806 7.30866C9.00022 7.40002 8.99032 7.50056 9.00961 7.59755C9.0289 7.69454 9.07652 7.78363 9.14645 7.85355C9.21637 7.92348 9.30546 7.9711 9.40246 7.99039C9.49945 8.00969 9.59998 7.99978 9.69134 7.96194C9.78271 7.9241 9.8608 7.86001 9.91574 7.77779C9.97068 7.69556 10 7.59889 10 7.5C10 7.36739 9.94732 7.24022 9.85355 7.14645C9.75979 7.05268 9.63261 7 9.5 7ZM13.5 9C13.2033 9 12.9133 8.91203 12.6666 8.74721C12.42 8.58238 12.2277 8.34811 12.1142 8.07403C12.0007 7.79994 11.9709 7.49834 12.0288 7.20736C12.0867 6.91639 12.2296 6.64912 12.4393 6.43934C12.6491 6.22956 12.9164 6.0867 13.2074 6.02882C13.4983 5.97094 13.7999 6.00065 14.074 6.11418C14.3481 6.22771 14.5824 6.41997 14.7472 6.66665C14.912 6.91332 15 7.20333 15 7.5C15 7.89783 14.842 8.27936 14.5607 8.56066C14.2794 8.84197 13.8978 9 13.5 9ZM13.5 7C13.4011 7 13.3044 7.02932 13.2222 7.08427C13.14 7.13921 13.0759 7.2173 13.0381 7.30866C13.0002 7.40002 12.9903 7.50056 13.0096 7.59755C13.0289 7.69454 13.0765 7.78363 13.1464 7.85355C13.2164 7.92348 13.3055 7.9711 13.4025 7.99039C13.4994 8.00969 13.6 7.99978 13.6913 7.96194C13.7827 7.9241 13.8608 7.86001 13.9157 7.77779C13.9707 7.69556 14 7.59889 14 7.5C14 7.36739 13.9473 7.24022 13.8536 7.14645C13.7598 7.05268 13.6326 7 13.5 7Z" fill="#202020"/>
</svg>
