<svg width="16" height="16" viewBox="0 0 16 16" fill="none" xmlns="http://www.w3.org/2000/svg">
<g clip-path="url(#clip0_7201_60516)">
<path d="M12.7842 6.15074C12.3722 6.05219 11.9422 6 11.5 6C8.79869 6 6.55222 7.94743 6.08797 10.5149H3.00094C2.72494 10.5149 2.49994 10.2879 2.49994 10.0099V5.98994C2.49994 5.71194 2.72494 5.48494 3.00094 5.48494H7.50594V3.00694C7.50594 2.68994 7.76294 2.49994 8.01194 2.49994C8.12194 2.49994 8.22494 2.53594 8.31694 2.60894L12.7842 6.15074Z" fill="white"/>
<path d="M11.7923 6.00763L8.00658 3.00682L8.00658 5.48783C8.00658 5.62111 7.95385 5.74892 7.85998 5.84316C7.76612 5.9374 7.63881 5.99034 7.50606 5.99034L3.00097 5.9903L3.00097 10.0103L6.20411 10.0104C6.11319 10.3343 6.05119 10.6703 6.02106 11.0154L3.00096 11.0154C2.44811 11.0153 1.99994 10.5654 1.99994 10.0103V5.9903C1.99994 5.43525 2.44812 4.98529 3.00097 4.98529L7.00555 4.98533L7.00555 3.00682C7.00555 2.16711 7.97045 1.69769 8.62689 2.21803L14.4289 6.81711C14.4699 6.84962 14.5087 6.88374 14.5453 6.9193C13.7493 6.38906 12.8072 6.06077 11.7923 6.00763Z" fill="#202020"/>
<path fill-rule="evenodd" clip-rule="evenodd" d="M14.0001 15.2416C13.26 15.7361 12.39 16 11.5 16C10.3065 16 9.16193 15.5259 8.31802 14.682C7.47411 13.8381 7 12.6935 7 11.5C7 10.61 7.26392 9.73996 7.75839 8.99994C8.25285 8.25991 8.95566 7.68314 9.77792 7.34254C10.6002 7.00195 11.505 6.91283 12.3779 7.08647C13.2508 7.2601 14.0526 7.68868 14.682 8.31802C15.3113 8.94736 15.7399 9.74918 15.9135 10.6221C16.0872 11.495 15.9981 12.3998 15.6575 13.2221C15.3169 14.0443 14.7401 14.7471 14.0001 15.2416ZM10.5 9.5V13.5C10.5 13.6326 10.4473 13.7598 10.3536 13.8536C10.2598 13.9473 10.1326 14 10 14C9.86739 14 9.74021 13.9473 9.64645 13.8536C9.55268 13.7598 9.5 13.6326 9.5 13.5V9.5C9.5 9.36739 9.55268 9.24021 9.64645 9.14645C9.74021 9.05268 9.86739 9 10 9C10.1326 9 10.2598 9.05268 10.3536 9.14645C10.4473 9.24021 10.5 9.36739 10.5 9.5ZM13.5 9.5V13.5C13.5 13.6326 13.4473 13.7598 13.3536 13.8536C13.2598 13.9473 13.1326 14 13 14C12.8674 14 12.7402 13.9473 12.6464 13.8536C12.5527 13.7598 12.5 13.6326 12.5 13.5V9.5C12.5 9.36739 12.5527 9.24021 12.6464 9.14645C12.7402 9.05268 12.8674 9 13 9C13.1326 9 13.2598 9.05268 13.3536 9.14645C13.4473 9.24021 13.5 9.36739 13.5 9.5Z" fill="#006CBF"/>
</g>
<defs>
<clipPath id="clip0_7201_60516">
<rect width="16" height="16" fill="white"/>
</clipPath>
</defs>
</svg>
