<svg width="16" height="16" viewBox="0 0 16 16" fill="none" xmlns="http://www.w3.org/2000/svg">
<path fill-rule="evenodd" clip-rule="evenodd" d="M4.5 2C5.70948 2 6.71836 2.85888 6.94999 4H9.5C10.163 4 10.7989 4.26339 11.2678 4.73223C11.7366 5.20107 12 5.83696 12 6.5V9.05001C13.1411 9.28164 14 10.2905 14 11.5C14 12.8807 12.8807 14 11.5 14C10.1193 14 9 12.8807 9 11.5C9 10.2905 9.85888 9.28164 11 9.05001V6.5C11 6.10218 10.842 5.72064 10.5607 5.43934C10.2794 5.15804 9.89782 5 9.5 5H6.94999C6.71836 6.14112 5.70948 7 4.5 7C3.11929 7 2 5.88071 2 4.5C2 3.11929 3.11929 2 4.5 2ZM3 4.5C3 3.67157 3.67157 3 4.5 3C5.32843 3 6 3.67157 6 4.5C6 5.32843 5.32843 6 4.5 6C3.67157 6 3 5.32843 3 4.5ZM10 11.5C10 10.6716 10.6716 10 11.5 10C12.3284 10 13 10.6716 13 11.5C13 12.3284 12.3284 13 11.5 13C10.6716 13 10 12.3284 10 11.5Z" fill="#202020"/>
<path d="M0.11 14.41C0.12 14.36 0.14 14.32 0.17 14.28L0.973 13H6.027L6.83 14.28C6.86 14.32 6.88 14.36 6.89 14.41C6.96 14.55 7 14.71 7 14.88C7 15.47 6.55 15.95 5.98 15.99C5.95 16 5.91 16 5.88 16H1.12C1.09 16 1.05 16 1.02 15.99C0.45 15.95 0 15.47 0 14.88C0 14.71 0.0399997 14.55 0.11 14.41Z" fill="#159195"/>
<path d="M5.5 9H5V11.2C5 11.3 5.03 11.4 5.08 11.49L5.4 12H1.6L1.92 11.49C1.97 11.4 2 11.3 2 11.2V9H1.5C1.224 9 1 8.776 1 8.5C1 8.224 1.224 8 1.5 8H5.5C5.776 8 6 8.224 6 8.5C6 8.776 5.776 9 5.5 9Z" fill="#202020"/>
</svg>
