<svg width="16" height="16" viewBox="0 0 16 16" fill="none" xmlns="http://www.w3.org/2000/svg">
<path fill-rule="evenodd" clip-rule="evenodd" d="M6.94999 4C6.71836 2.85888 5.70948 2 4.5 2C3.11929 2 2 3.11929 2 4.5C2 5.88071 3.11929 7 4.5 7C5.70948 7 6.71836 6.14112 6.94999 5H9.5C9.89782 5 10.2794 5.15804 10.5607 5.43934C10.842 5.72064 11 6.10218 11 6.5V9.05001C9.85888 9.28164 9 10.2905 9 11.5C9 12.8807 10.1193 14 11.5 14C12.8807 14 14 12.8807 14 11.5C14 10.2905 13.1411 9.28164 12 9.05001V6.5C12 5.83696 11.7366 5.20107 11.2678 4.73223C10.7989 4.26339 10.163 4 9.5 4H6.94999ZM4.5 3C3.67157 3 3 3.67157 3 4.5C3 5.32843 3.67157 6 4.5 6C5.32843 6 6 5.32843 6 4.5C6 3.67157 5.32843 3 4.5 3ZM11.5 10C10.6716 10 10 10.6716 10 11.5C10 12.3284 10.6716 13 11.5 13C12.3284 13 13 12.3284 13 11.5C13 10.6716 12.3284 10 11.5 10Z" fill="#202020"/>
</svg>
