<svg width="16" height="16" viewBox="0 0 16 16" fill="none" xmlns="http://www.w3.org/2000/svg">
<g clip-path="url(#clip0_7201_60561)">
<path fill-rule="evenodd" clip-rule="evenodd" d="M4.5 2C5.70948 2 6.71836 2.85888 6.94999 4H9.5C10.163 4 10.7989 4.26339 11.2678 4.73223C11.7366 5.20107 12 5.83696 12 6.5V9.05001C12.6163 9.17512 13.1503 9.52696 13.5111 10.0147L12.7906 10.7351C12.5292 10.295 12.049 10 11.5 10C10.6716 10 10 10.6716 10 11.5C10 12.0489 10.2948 12.5289 10.7347 12.7904L10.5 13.025L9.23699 11.763C9.16407 11.6901 9.08502 11.6239 9.00083 11.5652C9.00028 11.5436 9 11.5218 9 11.5C9 10.2905 9.85888 9.28164 11 9.05001V6.5C11 6.10218 10.842 5.72064 10.5607 5.43934C10.2794 5.15804 9.89782 5 9.5 5H6.94999C6.71836 6.14112 5.70948 7 4.5 7C3.11929 7 2 5.88071 2 4.5C2 3.11929 3.11929 2 4.5 2ZM3 4.5C3 3.67157 3.67157 3 4.5 3C5.32843 3 6 3.67157 6 4.5C6 5.32843 5.32843 6 4.5 6C3.67157 6 3 5.32843 3 4.5Z" fill="#202020"/>
<path d="M10.5 16C10.4343 16.0001 10.3692 15.9873 10.3085 15.9623C10.2477 15.9372 10.1925 15.9004 10.146 15.854L7.64602 13.354C7.55213 13.2601 7.49939 13.1328 7.49939 13C7.49939 12.8672 7.55213 12.7399 7.64602 12.646C7.73991 12.5521 7.86725 12.4994 8.00002 12.4994C8.1328 12.4994 8.26013 12.5521 8.35402 12.646L10.5 14.793L15.146 10.146C15.2399 10.0521 15.3672 9.99939 15.5 9.99939C15.6328 9.99939 15.7601 10.0521 15.854 10.146C15.9479 10.2399 16.0007 10.3672 16.0007 10.5C16.0007 10.6328 15.9479 10.7601 15.854 10.854L10.854 15.854C10.8075 15.9004 10.7523 15.9372 10.6916 15.9623C10.6308 15.9873 10.5657 16.0001 10.5 16Z" fill="#11910D"/>
</g>
<defs>
<clipPath id="clip0_7201_60561">
<rect width="16" height="16" fill="white"/>
</clipPath>
</defs>
</svg>
