<svg width="16" height="16" viewBox="0 0 16 16" fill="none" xmlns="http://www.w3.org/2000/svg">
<path fill-rule="evenodd" clip-rule="evenodd" d="M4.5 2C5.70948 2 6.71836 2.85888 6.94999 4H9.5C10.163 4 10.7989 4.26339 11.2678 4.73223C11.7366 5.20107 12 5.83696 12 6.5V9.05001C13.1411 9.28164 14 10.2905 14 11.5C14 12.8807 12.8807 14 11.5 14C10.1193 14 9 12.8807 9 11.5C9 10.2905 9.85888 9.28164 11 9.05001V6.5C11 6.10218 10.842 5.72064 10.5607 5.43934C10.2794 5.15804 9.89782 5 9.5 5H6.94999C6.81157 5.68193 6.39557 6.26307 5.82506 6.62035L4.844 6.20004C4.575 6.08504 4.292 6.02704 4 6.02704C3.708 6.02704 3.425 6.08504 3.156 6.20004L2.81455 6.34644C2.31401 5.88928 2 5.23131 2 4.5C2 3.11929 3.11929 2 4.5 2ZM3 4.5C3 3.67157 3.67157 3 4.5 3C5.32843 3 6 3.67157 6 4.5C6 5.32843 5.32843 6 4.5 6C3.67157 6 3 5.32843 3 4.5ZM10 11.5C10 10.6716 10.6716 10 11.5 10C12.3284 10 13 10.6716 13 11.5C13 12.3284 12.3284 13 11.5 13C10.6716 13 10 12.3284 10 11.5Z" fill="#202020"/>
<path d="M7.811 8.76605C7.688 8.57905 7.513 8.43305 7.307 8.34505L4.45 7.12105C4.308 7.06005 4.155 7.02905 4 7.02905C3.845 7.02905 3.692 7.06005 3.55 7.12105L0.693 8.34505C0.487 8.43305 0.312 8.58005 0.189 8.76605C0.066 8.95305 0 9.17105 0 9.39505V13.6031C0 13.8271 0.066 14.0451 0.189 14.2321C0.312 14.4191 0.487 14.5651 0.693 14.6531L3.55 15.8771C3.692 15.9381 3.845 15.9691 4 15.9691C4.155 15.9691 4.308 15.9381 4.45 15.8771L7.307 14.6531C7.513 14.5651 7.688 14.4181 7.811 14.2321C7.934 14.0451 8 13.8271 8 13.6031V9.39505C8 9.17105 7.934 8.95305 7.811 8.76605ZM2.447 11.9731C2.359 12.1481 2.182 12.2491 2 12.2491C1.925 12.2491 1.849 12.2321 1.776 12.1961L1.276 11.9461C1.029 11.8221 0.929 11.5221 1.052 11.2751C1.176 11.0281 1.477 10.9291 1.723 11.0511L2.223 11.3011C2.47 11.4251 2.57 11.7251 2.447 11.9721V11.9731ZM6.723 9.94705L4.499 11.0591V14.5001C4.499 14.7761 4.275 15.0001 3.999 15.0001C3.723 15.0001 3.499 14.7761 3.499 14.5001V11.0591L1.275 9.94705C1.028 9.82305 0.928 9.52305 1.051 9.27605C1.175 9.02905 1.476 8.93105 1.722 9.05205L3.998 10.1901L6.274 9.05205C6.522 8.93005 6.821 9.02905 6.945 9.27605C7.068 9.52305 6.968 9.82305 6.721 9.94705H6.723Z" fill="#202020"/>
</svg>
