<svg width="16" height="16" viewBox="0 0 16 16" fill="none" xmlns="http://www.w3.org/2000/svg">
<path d="M7.409 1.11C7.678 1.038 7.96 1 8.25 1H8.791C9.067 1 9.291 1.224 9.291 1.5C9.291 1.776 9.067 2 8.791 2H7.247C7.156 1.935 7.086 1.839 7.055 1.722C6.984 1.455 7.142 1.181 7.409 1.11Z" fill="#202020"/>
<path d="M11.5 2H10.958C10.682 2 10.459 1.776 10.459 1.5C10.459 1.224 10.683 1 10.959 1H11.501C11.7 1 11.896 1.013 12.088 1.038C12.362 1.074 12.555 1.325 12.519 1.599C12.483 1.873 12.232 2.066 11.958 2.03C11.808 2.01 11.655 2 11.5 2Z" fill="#202020"/>
<path d="M15 6.042C15 6.318 15.224 6.542 15.5 6.542C15.776 6.542 16 6.317 16 6.041V5.499C16 5.3 15.987 5.104 15.962 4.912C15.926 4.638 15.675 4.445 15.401 4.481C15.127 4.517 14.934 4.768 14.97 5.042C14.99 5.192 15 5.345 15 5.5V6.042Z" fill="#202020"/>
<path d="M15 9.753V8.209C15 7.933 15.224 7.708 15.5 7.708C15.776 7.708 16 7.932 16 8.208V8.75C16 9.04 15.962 9.322 15.89 9.591C15.819 9.858 15.545 10.016 15.278 9.945C15.161 9.914 15.065 9.844 15 9.753Z" fill="#202020"/>
<path d="M14.239 1.931C14.02 1.763 13.706 1.804 13.538 2.023L13.537 2.022C13.369 2.241 13.41 2.555 13.629 2.723C13.872 2.91 14.089 3.127 14.276 3.37C14.444 3.589 14.758 3.63 14.977 3.462C15.196 3.294 15.237 2.98 15.069 2.761C14.83 2.45 14.55 2.17 14.239 1.931Z" fill="#202020"/>
<path d="M4 5.501C4 4.12 5.119 3.001 6.5 3.001H11.5C12.881 3.001 14 4.12 14 5.501V8.96478L13 8.1467V5.501C13 4.673 12.328 4.001 11.5 4.001H6.5C5.672 4.001 5 4.673 5 5.501V10.501C5 11.329 5.672 12.001 6.5 12.001H8.00079L8.0005 13.001H6.5C5.119 13.001 4 11.882 4 10.501V5.501Z" fill="#202020"/>
<path d="M8.00007 14.4913C8.00002 14.4942 8 14.4971 8 14.5C8 14.5028 8.00002 14.5056 8.00007 14.5084L8.00007 14.4913Z" fill="#202020"/>
<path d="M0 7.5C0 7.776 0.224 8 0.5 8C0.776 8 1 7.776 1 7.5V7C1 6.448 1.448 6 2 6H2.5C2.776 6 3 5.776 3 5.5C3 5.224 2.776 5 2.5 5H2C0.897 5 0 5.897 0 7V7.5Z" fill="#202020"/>
<path d="M0 10.5C0 10.776 0.224 11 0.5 11C0.776 11 1 10.776 1 10.5V9.5C1 9.224 0.776 9 0.5 9C0.224 9 0 9.224 0 9.5V10.5Z" fill="#202020"/>
<path d="M2 15H2.5C2.776 15 3 14.776 3 14.5C3 14.224 2.776 14 2.5 14H2C1.448 14 1 13.552 1 13V12.5C1 12.224 0.776 12 0.5 12C0.224 12 0 12.224 0 12.5V13C0 14.103 0.897 15 2 15Z" fill="#202020"/>
<path d="M4.5 15H6.5C6.776 15 7 14.776 7 14.5C7 14.224 6.776 14 6.5 14H4.5C4.224 14 4 14.224 4 14.5C4 14.776 4.224 15 4.5 15Z" fill="#202020"/>
<path d="M15.723 11.668C16.268 12.114 15.953 12.999 15.248 12.999H12.262C12.105 12.999 11.958 13.072 11.863 13.198L10.348 15.203C9.914 15.777 8.999 15.47 9 14.751L9.002 7.75101C9.002 7.11801 9.737 6.77001 10.227 7.17101L15.723 11.668Z" fill="#006CBF"/>
</svg>
