<svg width="16" height="16" viewBox="0 0 16 16" fill="none" xmlns="http://www.w3.org/2000/svg">
<g clip-path="url(#clip0_7201_58708)">
<path fill-rule="evenodd" clip-rule="evenodd" d="M12 8V4.414C11.9999 4.01645 11.842 3.6352 11.561 3.354L9.646 1.439C9.50664 1.29973 9.34122 1.18928 9.15917 1.11396C8.97712 1.03863 8.78202 0.999911 8.585 1H5C4.46957 1 3.96086 1.21071 3.58579 1.58579C3.21071 1.96086 3 2.46957 3 3V7.00098H4V3C4 2.73478 4.10536 2.48043 4.29289 2.29289C4.48043 2.10536 4.73478 2 5 2H8V3.5C8 3.89783 8.15804 4.27936 8.43934 4.56066C8.72064 4.84197 9.10217 5 9.5 5H11V8H12ZM9 2.207L10.792 4H9.5C9.36739 4 9.24021 3.94732 9.14645 3.85355C9.05268 3.75979 9 3.63261 9 3.5V2.207Z" fill="#202020"/>
<path d="M6 6.25C6 6.11193 6.11193 6 6.25 6H6.75C6.88807 6 7 6.11193 7 6.25V6.75C7 6.88807 6.88807 7 6.75 7H6.25C6.11193 7 6 6.88807 6 6.75V6.25Z" fill="#202020"/>
<path d="M8.25 6C8.11193 6 8 6.11193 8 6.25V6.75C8 6.88807 8.11193 7 8.25 7H8.75C8.88807 7 9 6.88807 9 6.75V6.25C9 6.11193 8.88807 6 8.75 6H8.25Z" fill="#202020"/>
<path fill-rule="evenodd" clip-rule="evenodd" d="M7.707 8.29398C7.51951 8.10643 7.26519 8.00103 7 8.00098H1C0.734784 8.00098 0.48043 8.10633 0.292893 8.29387C0.105357 8.48141 0 8.73576 0 9.00098V15.001C0 15.2662 0.105357 15.5205 0.292893 15.7081C0.48043 15.8956 0.734784 16.001 1 16.001H7C7.26522 16.001 7.51957 15.8956 7.70711 15.7081C7.89464 15.5205 8 15.2662 8 15.001V9.00098C7.99994 8.73578 7.89455 8.48147 7.707 8.29398ZM1 14.2939L2.14645 13.1474C2.34171 12.9522 2.65829 12.9522 2.85355 13.1474C3.04882 13.3427 3.04882 13.6593 2.85355 13.8545L1.70711 15.001H6.29289L5.14645 13.8545C4.95118 13.6593 4.95118 13.3427 5.14645 13.1474C5.34171 12.9522 5.65829 12.9522 5.85355 13.1474L7 14.2939V9.70808L5.85355 10.8545C5.65829 11.0498 5.34171 11.0498 5.14645 10.8545C4.95118 10.6593 4.95118 10.3427 5.14645 10.1474L6.29289 9.00098H1.70711L2.85355 10.1474C3.04882 10.3427 3.04882 10.6593 2.85355 10.8545C2.65829 11.0498 2.34171 11.0498 2.14645 10.8545L1 9.70808V14.2939Z" fill="#202020"/>
<path d="M12 15V13H9L9 15C9 15.552 9.448 16 10 16H11C11.552 16 12 15.552 12 15ZM9 12L9 10C9 9.448 9.448 9 10 9L12 9V12H9ZM16 10V11C16 11.552 15.552 12 15 12H13L13 9L15 9C15.552 9 16 9.448 16 10Z" fill="#202020"/>
</g>
<defs>
<clipPath id="clip0_7201_58708">
<rect width="16" height="16" fill="white"/>
</clipPath>
</defs>
</svg>
