<svg width="16" height="16" viewBox="0 0 16 16" fill="none" xmlns="http://www.w3.org/2000/svg">
<g clip-path="url(#clip0_7201_60792)">
<path fill-rule="evenodd" clip-rule="evenodd" d="M2.55236 10.0002C2.51749 9.99903 2.48255 9.99902 2.44762 10.0002H2.3415C2.12034 9.37462 2 8.70136 2 8C2 4.68629 4.68629 2 8 2C11.3137 2 14 4.68629 14 8C14 10.9944 11.8065 13.4765 8.93862 13.927C8.9797 13.7887 9.00068 13.6449 9.00068 13.5C9.00068 13.3029 8.96185 13.1078 8.88641 12.9258C8.84146 12.8173 8.78404 12.7147 8.71548 12.6201C8.91609 12.4102 9.12057 12.1046 9.31258 11.6822C9.4073 11.4738 9.49448 11.2455 9.57265 11H7.12199L6.561 10.439C6.35122 10.2291 6.08388 10.0861 5.79282 10.0282C5.67862 10.0055 5.56279 9.99622 5.44761 10.0002H2.55236ZM8 3C8.37372 3 8.87543 3.35608 9.31258 4.31781C9.4073 4.52619 9.49448 4.75446 9.57265 5H6.42735C6.50552 4.75446 6.5927 4.52619 6.68742 4.31781C7.12457 3.35608 7.62628 3 8 3ZM5.77705 3.90401C5.62614 4.23601 5.49428 4.6038 5.38411 5H3.99963C4.52341 4.30269 5.22525 3.74677 6.03766 3.39978C5.94287 3.56117 5.85596 3.7304 5.77705 3.90401ZM5.16299 6C5.05694 6.6275 5 7.30146 5 8C5 8.69854 5.05694 9.3725 5.16299 10H3.41604C3.14845 9.38754 3 8.7111 3 8C3 7.2889 3.14845 6.61246 3.41604 6H5.16299ZM10 8C10 8.71396 9.93562 9.3892 9.82134 10H6.17866C6.06438 9.3892 6 8.71396 6 8C6 7.28604 6.06438 6.6108 6.17866 6H9.82134C9.93562 6.6108 10 7.28604 10 8ZM10.6159 11H12.0004C11.4766 11.6973 10.7747 12.2532 9.96234 12.6002C10.0571 12.4388 10.144 12.2696 10.2229 12.096C10.3739 11.764 10.5057 11.3962 10.6159 11ZM12.584 10H10.837C10.9431 9.3725 11 8.69854 11 8C11 7.30146 10.9431 6.6275 10.837 6H12.584C12.8516 6.61246 13 7.2889 13 8C13 8.7111 12.8516 9.38754 12.584 10ZM9.96234 3.39978C10.7747 3.74677 11.4766 4.30269 12.0004 5H10.6159C10.5057 4.6038 10.3739 4.23601 10.2229 3.90401C10.144 3.7304 10.0571 3.56117 9.96234 3.39978Z" fill="#202020"/>
<path d="M7.854 13.854L5.854 15.854C5.76011 15.9479 5.63278 16.0007 5.5 16.0007C5.36723 16.0007 5.23989 15.9479 5.146 15.854C5.05211 15.7601 4.99937 15.6328 4.99937 15.5C4.99937 15.3672 5.05211 15.2399 5.146 15.146L6.293 14H1.707L2.854 15.146C2.94789 15.2399 3.00063 15.3672 3.00063 15.5C3.00063 15.6328 2.94789 15.7601 2.854 15.854C2.76011 15.9479 2.63278 16.0007 2.5 16.0007C2.36723 16.0007 2.23989 15.9479 2.146 15.854L0.146001 13.854C0.0994379 13.8076 0.0624951 13.7524 0.0372886 13.6917C0.0120822 13.6309 -0.000892639 13.5658 -0.000892639 13.5C-0.000892639 13.4343 0.0120822 13.3691 0.0372886 13.3084C0.0624951 13.2476 0.0994379 13.1925 0.146001 13.146L2.146 11.146C2.23989 11.0521 2.36723 10.9994 2.5 10.9994C2.63278 10.9994 2.76011 11.0521 2.854 11.146C2.94789 11.2399 3.00063 11.3672 3.00063 11.5C3.00063 11.6328 2.94789 11.7601 2.854 11.854L1.707 13H6.293L5.146 11.854C5.05211 11.7601 4.99937 11.6328 4.99937 11.5C4.99937 11.3672 5.05211 11.2399 5.146 11.146C5.23989 11.0521 5.36723 10.9994 5.5 10.9994C5.63278 10.9994 5.76011 11.0521 5.854 11.146L7.854 13.146C7.90056 13.1925 7.93751 13.2476 7.96271 13.3084C7.98792 13.3691 8.00089 13.4343 8.00089 13.5C8.00089 13.5658 7.98792 13.6309 7.96271 13.6917C7.93751 13.7524 7.90056 13.8076 7.854 13.854Z" fill="#006CBF"/>
</g>
<defs>
<clipPath id="clip0_7201_60792">
<rect width="16" height="16" fill="white"/>
</clipPath>
</defs>
</svg>
