<svg width="16" height="16" viewBox="0 0 16 16" fill="none" xmlns="http://www.w3.org/2000/svg">
<g clip-path="url(#clip0_7201_60640)">
<path d="M10.498 6.504C11.051 6.504 11.5 6.055 11.5 5.502C11.5 4.949 11.051 4.5 10.498 4.5C9.945 4.5 9.496 4.949 9.496 5.502C9.496 6.055 9.945 6.504 10.498 6.504Z" fill="#B27C00"/>
<path d="M12.146 12.854C12.2439 12.9509 12.3717 12.9999 12.4995 13C12.6273 12.9999 12.7551 12.9519 12.853 12.854C13.048 12.659 13.048 12.342 12.853 12.147L9.207 8.50102C8.563 7.85602 7.438 7.85602 6.793 8.50102L5.2782 10.0158C5.44828 9.99039 5.62238 9.99426 5.79282 10.0282C6.01588 10.0726 6.225 10.1669 6.40496 10.3031L7.5 9.20802C7.768 8.94002 8.232 8.94002 8.5 9.20802L12.146 12.854Z" fill="#006CBF"/>
<path d="M3.98755 11.3065C3.99584 11.3704 4.00003 11.435 4 11.5C3.99997 11.4252 4.00552 11.3509 4.01649 11.2775L3.98755 11.3065Z" fill="#006CBF"/>
<path d="M8.9149 14H11.5C12.879 14 14 12.879 14 11.5V4.5C14 3.121 12.879 2 11.5 2H4.5C3.121 2 2 3.121 2 4.5V10.0851C2.06734 10.0613 2.13656 10.0422 2.20718 10.0282C2.47224 9.97543 2.74612 9.99535 3 10.0851V4.5C3 3.673 3.673 3 4.5 3H11.5C12.327 3 13 3.673 13 4.5V11.5C13 12.327 12.327 13 11.5 13H8.91489C8.9716 13.1604 9.00068 13.3295 9.00068 13.5C9.00068 13.6705 8.97161 13.8396 8.9149 14Z" fill="#202020"/>
<path d="M7.854 13.854L5.854 15.854C5.76011 15.9479 5.63278 16.0007 5.5 16.0007C5.36723 16.0007 5.23989 15.9479 5.146 15.854C5.05211 15.7601 4.99937 15.6328 4.99937 15.5C4.99937 15.3672 5.05211 15.2399 5.146 15.146L6.293 14H1.707L2.854 15.146C2.94789 15.2399 3.00063 15.3672 3.00063 15.5C3.00063 15.6328 2.94789 15.7601 2.854 15.854C2.76011 15.9479 2.63278 16.0007 2.5 16.0007C2.36723 16.0007 2.23989 15.9479 2.146 15.854L0.146001 13.854C0.0994379 13.8076 0.0624951 13.7524 0.0372886 13.6917C0.0120822 13.6309 -0.000892639 13.5658 -0.000892639 13.5C-0.000892639 13.4343 0.0120822 13.3691 0.0372886 13.3084C0.0624951 13.2476 0.0994379 13.1925 0.146001 13.146L2.146 11.146C2.23989 11.0521 2.36723 10.9994 2.5 10.9994C2.63278 10.9994 2.76011 11.0521 2.854 11.146C2.94789 11.2399 3.00063 11.3672 3.00063 11.5C3.00063 11.6328 2.94789 11.7601 2.854 11.854L1.707 13H6.293L5.146 11.854C5.05211 11.7601 4.99937 11.6328 4.99937 11.5C4.99937 11.3672 5.05211 11.2399 5.146 11.146C5.23989 11.0521 5.36723 10.9994 5.5 10.9994C5.63278 10.9994 5.76011 11.0521 5.854 11.146L7.854 13.146C7.90056 13.1925 7.93751 13.2476 7.96271 13.3084C7.98792 13.3691 8.00089 13.4343 8.00089 13.5C8.00089 13.5658 7.98792 13.6309 7.96271 13.6917C7.93751 13.7524 7.90056 13.8076 7.854 13.854Z" fill="#006CBF"/>
</g>
<defs>
<clipPath id="clip0_7201_60640">
<rect width="16" height="16" fill="white"/>
</clipPath>
</defs>
</svg>
