<svg width="16" height="16" viewBox="0 0 16 16" fill="none" xmlns="http://www.w3.org/2000/svg">
<g clip-path="url(#clip0_7201_60773)">
<path d="M14 12H8.12199L7.12199 11H14C14.552 11 15 10.552 15 10V6C15 5.448 14.552 5 14 5H5C4.448 5 4 5.448 4 6V10H3V6C3 4.897 3.897 4 5 4H14C15.103 4 16 4.897 16 6V10C16 11.103 15.103 12 14 12Z" fill="#202020"/>
<path d="M4 11.5C4 11.5 4 11.5 4 11.5Z" fill="#202020"/>
<path d="M7 2.5C7 2.224 7.224 2 7.5 2H9V1.5C9 1.224 9.224 1 9.5 1C9.776 1 10 1.224 10 1.5V2H11.5C11.776 2 12 2.224 12 2.5C12 2.776 11.776 3 11.5 3H7.5C7.224 3 7 2.776 7 2.5Z" fill="#006CBF"/>
<path d="M11.5 13H8.91489C8.9716 13.1604 9.00068 13.3295 9.00068 13.5C9.00068 13.6705 8.97161 13.8396 8.9149 14H9V14.5C9 14.776 9.224 15 9.5 15C9.776 15 10 14.776 10 14.5V14H11.5C11.776 14 12 13.776 12 13.5C12 13.224 11.776 13 11.5 13Z" fill="#006CBF"/>
<path d="M7.854 13.854L5.854 15.854C5.76011 15.9479 5.63278 16.0007 5.5 16.0007C5.36723 16.0007 5.23989 15.9479 5.146 15.854C5.05211 15.7601 4.99937 15.6328 4.99937 15.5C4.99937 15.3672 5.05211 15.2399 5.146 15.146L6.293 14H1.707L2.854 15.146C2.94789 15.2399 3.00063 15.3672 3.00063 15.5C3.00063 15.6328 2.94789 15.7601 2.854 15.854C2.76011 15.9479 2.63278 16.0007 2.5 16.0007C2.36723 16.0007 2.23989 15.9479 2.146 15.854L0.146001 13.854C0.0994379 13.8076 0.0624951 13.7524 0.0372886 13.6917C0.0120822 13.6309 -0.000892639 13.5658 -0.000892639 13.5C-0.000892639 13.4343 0.0120822 13.3691 0.0372886 13.3084C0.0624951 13.2476 0.0994379 13.1925 0.146001 13.146L2.146 11.146C2.23989 11.0521 2.36723 10.9994 2.5 10.9994C2.63278 10.9994 2.76011 11.0521 2.854 11.146C2.94789 11.2399 3.00063 11.3672 3.00063 11.5C3.00063 11.6328 2.94789 11.7601 2.854 11.854L1.707 13H6.293L5.146 11.854C5.05211 11.7601 4.99937 11.6328 4.99937 11.5C4.99937 11.3672 5.05211 11.2399 5.146 11.146C5.23989 11.0521 5.36723 10.9994 5.5 10.9994C5.63278 10.9994 5.76011 11.0521 5.854 11.146L7.854 13.146C7.90056 13.1925 7.93751 13.2476 7.96271 13.3084C7.98792 13.3691 8.00089 13.4343 8.00089 13.5C8.00089 13.5658 7.98792 13.6309 7.96271 13.6917C7.93751 13.7524 7.90056 13.8076 7.854 13.854Z" fill="#006CBF"/>
</g>
<defs>
<clipPath id="clip0_7201_60773">
<rect width="16" height="16" fill="white"/>
</clipPath>
</defs>
</svg>
