<svg width="16" height="16" viewBox="0 0 16 16" fill="none" xmlns="http://www.w3.org/2000/svg">
<g clip-path="url(#clip0_7201_60672)">
<path d="M9.49902 7H4.49902C4.22302 7 3.99902 6.776 3.99902 6.5C3.99902 6.224 4.22302 6 4.49902 6H9.49902C9.77502 6 9.99902 6.224 9.99902 6.5C9.99902 6.776 9.77502 7 9.49902 7Z" fill="#202020"/>
<path fill-rule="evenodd" clip-rule="evenodd" d="M8.99902 4H11.999C13.102 4 13.999 4.897 13.999 6V13C13.999 14.103 13.102 15 11.999 15H8.12201L8.561 14.561C8.70039 14.4217 8.81097 14.2563 8.88641 14.0743C8.89657 14.0497 8.90607 14.025 8.9149 14H11.999C12.55 14 12.999 13.551 12.999 13V6C12.999 5.449 12.55 5 11.999 5H2.99902V10.0848C2.74542 9.9953 2.4719 9.9755 2.20718 10.0282C2.13622 10.0423 2.06667 10.0615 1.99902 10.0855V2.5C1.99902 1.673 2.67202 1 3.49902 1H7.49902C8.32602 1 8.99902 1.673 8.99902 2.5V4ZM3.49902 2C3.22302 2 2.99902 2.224 2.99902 2.5V4H7.99902V2.5C7.99902 2.224 7.77502 2 7.49902 2H3.49902Z" fill="#202020"/>
<path d="M8.12199 12L8.561 12.439C8.70039 12.5783 8.81097 12.7437 8.88641 12.9258C8.89657 12.9503 8.90606 12.975 8.91489 13H9.49902C9.77502 13 9.99902 12.776 9.99902 12.5C9.99902 12.224 9.77502 12 9.49902 12H8.12199Z" fill="#202020"/>
<path d="M4.49902 9H11.499C11.775 9 11.999 9.224 11.999 9.5C11.999 9.776 11.775 10 11.499 10H5.54488C5.51495 9.9991 5.48502 9.99911 5.45514 10H4.49902C4.22302 10 3.99902 9.776 3.99902 9.5C3.99902 9.224 4.22302 9 4.49902 9Z" fill="#202020"/>
<path d="M7.854 13.854L5.854 15.854C5.76011 15.9479 5.63278 16.0007 5.5 16.0007C5.36723 16.0007 5.23989 15.9479 5.146 15.854C5.05211 15.7601 4.99937 15.6328 4.99937 15.5C4.99937 15.3672 5.05211 15.2399 5.146 15.146L6.293 14H1.707L2.854 15.146C2.94789 15.2399 3.00063 15.3672 3.00063 15.5C3.00063 15.6328 2.94789 15.7601 2.854 15.854C2.76011 15.9479 2.63278 16.0007 2.5 16.0007C2.36723 16.0007 2.23989 15.9479 2.146 15.854L0.146001 13.854C0.0994379 13.8076 0.0624951 13.7524 0.0372886 13.6917C0.0120822 13.6309 -0.000892639 13.5658 -0.000892639 13.5C-0.000892639 13.4343 0.0120822 13.3691 0.0372886 13.3084C0.0624951 13.2476 0.0994379 13.1925 0.146001 13.146L2.146 11.146C2.23989 11.0521 2.36723 10.9994 2.5 10.9994C2.63278 10.9994 2.76011 11.0521 2.854 11.146C2.94789 11.2399 3.00063 11.3672 3.00063 11.5C3.00063 11.6328 2.94789 11.7601 2.854 11.854L1.707 13H6.293L5.146 11.854C5.05211 11.7601 4.99937 11.6328 4.99937 11.5C4.99937 11.3672 5.05211 11.2399 5.146 11.146C5.23989 11.0521 5.36723 10.9994 5.5 10.9994C5.63278 10.9994 5.76011 11.0521 5.854 11.146L7.854 13.146C7.90056 13.1925 7.93751 13.2476 7.96271 13.3084C7.98792 13.3691 8.00089 13.4343 8.00089 13.5C8.00089 13.5658 7.98792 13.6309 7.96271 13.6917C7.93751 13.7524 7.90056 13.8076 7.854 13.854Z" fill="#006CBF"/>
</g>
<defs>
<clipPath id="clip0_7201_60672">
<rect width="16" height="16" fill="white"/>
</clipPath>
</defs>
</svg>
