<svg width="16" height="16" viewBox="0 0 16 16" fill="none" xmlns="http://www.w3.org/2000/svg">
<g clip-path="url(#clip0_7201_60736)">
<path fill-rule="evenodd" clip-rule="evenodd" d="M3 4.5C3 3.11929 4.11929 2 5.5 2H12.5C13.8807 2 15 3.11929 15 4.5V11.5C15 12.8807 13.8807 14 12.5 14H8.91491C8.97162 13.8396 9.00069 13.6705 9.00069 13.5C9.00069 13.3295 8.97161 13.1604 8.9149 13H11V11L7.122 11L6.56101 10.439C6.35123 10.2291 6.08389 10.0861 5.79283 10.0282C5.71074 10.0119 5.62781 10.0025 5.54489 10H6V6H4V10H3V4.5ZM7 10L11 10V6L7 6V10ZM7 5L11 5V3H7V5ZM6 3H5.5C4.67157 3 4 3.67157 4 4.5V5H6V3ZM14 6H12V10H14V6ZM14 11H12V13H12.5C13.3284 13 14 12.3284 14 11.5V11ZM14 5V4.5C14 3.67157 13.3284 3 12.5 3H12V5H14Z" fill="#202020"/>
<path d="M7.85401 13.854L5.85401 15.854C5.76012 15.9479 5.63278 16.0007 5.50001 16.0007C5.36723 16.0007 5.2399 15.9479 5.14601 15.854C5.05212 15.7601 4.99938 15.6328 4.99938 15.5C4.99938 15.3672 5.05212 15.2399 5.14601 15.146L6.29301 14H1.70701L2.85401 15.146C2.9479 15.2399 3.00064 15.3672 3.00064 15.5C3.00064 15.6328 2.9479 15.7601 2.85401 15.854C2.76012 15.9479 2.63278 16.0007 2.50001 16.0007C2.36723 16.0007 2.2399 15.9479 2.14601 15.854L0.146009 13.854C0.0994455 13.8076 0.0625027 13.7524 0.0372962 13.6917C0.0120898 13.6309 -0.00088501 13.5658 -0.00088501 13.5C-0.00088501 13.4343 0.0120898 13.3691 0.0372962 13.3084C0.0625027 13.2476 0.0994455 13.1925 0.146009 13.146L2.14601 11.146C2.2399 11.0521 2.36723 10.9994 2.50001 10.9994C2.63278 10.9994 2.76012 11.0521 2.85401 11.146C2.9479 11.2399 3.00064 11.3672 3.00064 11.5C3.00064 11.6328 2.9479 11.7601 2.85401 11.854L1.70701 13H6.29301L5.14601 11.854C5.05212 11.7601 4.99938 11.6328 4.99938 11.5C4.99938 11.3672 5.05212 11.2399 5.14601 11.146C5.2399 11.0521 5.36723 10.9994 5.50001 10.9994C5.63278 10.9994 5.76012 11.0521 5.85401 11.146L7.85401 13.146C7.90057 13.1925 7.93751 13.2476 7.96272 13.3084C7.98793 13.3691 8.0009 13.4343 8.0009 13.5C8.0009 13.5658 7.98793 13.6309 7.96272 13.6917C7.93751 13.7524 7.90057 13.8076 7.85401 13.854Z" fill="#006CBF"/>
</g>
<defs>
<clipPath id="clip0_7201_60736">
<rect width="16" height="16" fill="white"/>
</clipPath>
</defs>
</svg>
