<svg width="16" height="16" viewBox="0 0 16 16" fill="none" xmlns="http://www.w3.org/2000/svg">
<g clip-path="url(#clip0_7201_60726)">
<path fill-rule="evenodd" clip-rule="evenodd" d="M2.732 2.732C3.201 2.263 3.837 2 4.5 2H11.5C12.163 2 12.799 2.263 13.268 2.732C13.737 3.201 14 3.837 14 4.5V11.5C14 12.163 13.737 12.799 13.268 13.268C12.799 13.737 12.163 14 11.5 14H8.91491C8.97162 13.8396 9.00069 13.6705 9.00069 13.5C9.00069 13.3295 8.97161 13.1604 8.9149 13H11.5C11.898 13 12.279 12.842 12.561 12.561C12.842 12.28 13 11.898 13 11.5V6H3V10.0851C2.74612 9.99535 2.47224 9.97543 2.20719 10.0282C2.13657 10.0422 2.06734 10.0613 2 10.0851V4.5C2 3.837 2.263 3.201 2.732 2.732ZM3 5H13V4.5C13 4.102 12.842 3.721 12.561 3.439C12.28 3.158 11.898 3 11.5 3H4.5C4.102 3 3.721 3.158 3.439 3.439C3.158 3.72 3 4.102 3 4.5V5Z" fill="#202020"/>
<path d="M5.54489 10C5.51496 9.9991 5.48503 9.99911 5.45515 10H4.5C4.224 10 4 9.776 4 9.5C4 9.224 4.224 9 4.5 9H8.5C8.776 9 9 9.224 9 9.5C9 9.776 8.776 10 8.5 10H5.54489Z" fill="#202020"/>
<path d="M7.90923 11.7872L7.122 11H7.5C7.776 11 8 11.224 8 11.5C8 11.6069 7.96642 11.7059 7.90923 11.7872Z" fill="#202020"/>
<path d="M4 7.5C4 7.224 4.224 7 4.5 7H8.5C8.776 7 9 7.224 9 7.5C9 7.776 8.776 8 8.5 8H4.5C4.224 8 4 7.776 4 7.5Z" fill="#202020"/>
<path d="M9.5 11C9.224 11 9 11.224 9 11.5C9 11.776 9.224 12 9.5 12H11.5C11.776 12 12 11.776 12 11.5C12 11.224 11.776 11 11.5 11H9.5Z" fill="#202020"/>
<path d="M10.5 9C10.224 9 10 9.224 10 9.5C10 9.776 10.224 10 10.5 10H11.5C11.776 10 12 9.776 12 9.5C12 9.224 11.776 9 11.5 9H10.5Z" fill="#202020"/>
<path d="M7.85401 13.854L5.85401 15.854C5.76012 15.9479 5.63278 16.0007 5.50001 16.0007C5.36723 16.0007 5.2399 15.9479 5.14601 15.854C5.05212 15.7601 4.99938 15.6328 4.99938 15.5C4.99938 15.3672 5.05212 15.2399 5.14601 15.146L6.29301 14H1.70701L2.85401 15.146C2.9479 15.2399 3.00064 15.3672 3.00064 15.5C3.00064 15.6328 2.9479 15.7601 2.85401 15.854C2.76012 15.9479 2.63278 16.0007 2.50001 16.0007C2.36723 16.0007 2.2399 15.9479 2.14601 15.854L0.146009 13.854C0.0994455 13.8076 0.0625027 13.7524 0.0372962 13.6917C0.0120898 13.6309 -0.00088501 13.5658 -0.00088501 13.5C-0.00088501 13.4343 0.0120898 13.3691 0.0372962 13.3084C0.0625027 13.2476 0.0994455 13.1925 0.146009 13.146L2.14601 11.146C2.2399 11.0521 2.36723 10.9994 2.50001 10.9994C2.63278 10.9994 2.76012 11.0521 2.85401 11.146C2.9479 11.2399 3.00064 11.3672 3.00064 11.5C3.00064 11.6328 2.9479 11.7601 2.85401 11.854L1.70701 13H6.29301L5.14601 11.854C5.05212 11.7601 4.99938 11.6328 4.99938 11.5C4.99938 11.3672 5.05212 11.2399 5.14601 11.146C5.2399 11.0521 5.36723 10.9994 5.50001 10.9994C5.63278 10.9994 5.76012 11.0521 5.85401 11.146L7.85401 13.146C7.90057 13.1925 7.93751 13.2476 7.96272 13.3084C7.98793 13.3691 8.0009 13.4343 8.0009 13.5C8.0009 13.5658 7.98793 13.6309 7.96272 13.6917C7.93751 13.7524 7.90057 13.8076 7.85401 13.854Z" fill="#006CBF"/>
</g>
<defs>
<clipPath id="clip0_7201_60726">
<rect width="16" height="16" fill="white"/>
</clipPath>
</defs>
</svg>
