<svg width="16" height="16" viewBox="0 0 16 16" fill="none" xmlns="http://www.w3.org/2000/svg">
<path fill-rule="evenodd" clip-rule="evenodd" d="M3 3C3 1.89543 3.89543 1 5 1H8.58579C8.98361 1 9.36514 1.15804 9.64645 1.43934L12.5607 4.35355C12.842 4.63486 13 5.01639 13 5.41421V13C13 14.1046 12.1046 15 11 15H8.98616C8.9953 14.9176 9 14.8339 9 14.749V14H11C11.5523 14 12 13.5523 12 13V6H9.5C8.67157 6 8 5.32843 8 4.5V2H5C4.44772 2 4 2.44772 4 3V7.99902H3V3ZM9.5 5H11.7929L9 2.20711V4.5C9 4.77614 9.22386 5 9.5 5Z" fill="#202020"/>
<path d="M6.75 8.99902H1.25C0.918479 8.99902 0.600537 9.13072 0.366117 9.36514C0.131696 9.59956 0 9.9175 0 10.249V11.999H1.191L2.053 10.275C2.09583 10.1875 2.16359 10.1146 2.24775 10.0655C2.33192 10.0164 2.42873 9.99325 2.526 9.99902C2.6231 10.0041 2.71663 10.0373 2.79513 10.0947C2.87364 10.152 2.93371 10.231 2.968 10.322L4.068 13.249L5.056 11.274C5.10226 11.1968 5.16775 11.1328 5.2461 11.0884C5.32444 11.044 5.41295 11.0207 5.503 11.0207C5.59305 11.0207 5.68156 11.044 5.7599 11.0884C5.83825 11.1328 5.90374 11.1968 5.95 11.274L6.309 11.999H8V10.249C8 9.9175 7.8683 9.59956 7.63388 9.36514C7.39946 9.13072 7.08152 8.99902 6.75 8.99902ZM5.55 12.723L5.5 12.617L4.447 14.723C4.40544 14.806 4.34161 14.8757 4.26267 14.9245C4.18373 14.9732 4.09278 14.999 4 14.999H3.974C3.8769 14.994 3.78337 14.9608 3.70487 14.9034C3.62636 14.846 3.56629 14.767 3.532 14.676L2.432 11.749L1.944 12.724C1.90253 12.8063 1.83911 12.8756 1.76076 12.9241C1.68241 12.9726 1.59216 12.9986 1.5 12.999H0V14.749C0 15.0805 0.131696 15.3985 0.366117 15.6329C0.600537 15.8673 0.918479 15.999 1.25 15.999H6.75C7.08152 15.999 7.39946 15.8673 7.63388 15.6329C7.8683 15.3985 8 15.0805 8 14.749V12.999H6C5.90722 12.999 5.81627 12.9732 5.73733 12.9245C5.65839 12.8757 5.59456 12.806 5.553 12.723H5.55Z" fill="#202020"/>
</svg>
