<svg width="16" height="16" viewBox="0 0 16 16" fill="none" xmlns="http://www.w3.org/2000/svg">
<g clip-path="url(#clip0_7201_62517)">
<path d="M9.5 2C9.898 2 10.28 2.158 10.561 2.439C10.842 2.721 11 3.102 11 3.5V5.278C10.705 5.106 10.366 5 10 5V3.5C10 3.367 9.948 3.24 9.854 3.146C9.76 3.053 9.633 3 9.5 3H6.5C6.367 3 6.24 3.052 6.146 3.146C6.053 3.24 6 3.367 6 3.5V5C5.634 5 5.295 5.106 5 5.278V3.5C5 3.102 5.157 2.72 5.439 2.439C5.721 2.158 6.102 2 6.5 2H9.5Z" fill="#202020"/>
<path d="M7.61742 13H6.5C6.367 13 6.24 12.947 6.146 12.854C6.052 12.76 6 12.633 6 12.5V11C5.634 11 5.295 10.894 5 10.722V12.5C5 12.898 5.158 13.279 5.439 13.561C5.72 13.843 6.102 14 6.5 14H7.28014L7.34103 13.754C7.4064 13.4924 7.49927 13.2398 7.61742 13Z" fill="#202020"/>
<path fill-rule="evenodd" clip-rule="evenodd" d="M6 10H10C10.1548 10 10.3015 9.96467 10.4324 9.90168L10.9014 9.43276C10.9646 9.30171 11 9.15488 11 9V7C11 6.449 10.552 6 10 6H6C5.448 6 5 6.449 5 7V9C5 9.551 5.448 10 6 10ZM6 9V7H10V9H6Z" fill="#006CBF"/>
<path d="M15.5449 8.45394C15.2519 8.1616 14.8549 7.99741 14.4409 7.99741C14.027 7.99741 13.63 8.1616 13.3369 8.45394L9.04895 12.7414C8.69299 13.0975 8.44065 13.5437 8.31895 14.0322L8.01895 15.2431C7.99361 15.3451 7.99509 15.452 8.02324 15.5533C8.0514 15.6547 8.10528 15.747 8.17964 15.8213C8.25401 15.8957 8.34633 15.9495 8.44766 15.9777C8.54899 16.0059 8.65588 16.0073 8.75795 15.982L9.96895 15.682C10.4572 15.5598 10.9031 15.3071 11.2589 14.9511L15.5479 10.6637C15.6931 10.5185 15.8081 10.3461 15.8865 10.1564C15.9649 9.96673 16.0051 9.76344 16.0049 9.55818C16.0046 9.35293 15.9638 9.14974 15.8849 8.96026C15.806 8.77078 15.6905 8.59872 15.5449 8.45394V8.45394Z" fill="#006CBF"/>
</g>
<defs>
<clipPath id="clip0_7201_62517">
<rect width="16" height="16" fill="white"/>
</clipPath>
</defs>
</svg>
