<svg width="16" height="16" viewBox="0 0 16 16" fill="none" xmlns="http://www.w3.org/2000/svg">
<g clip-path="url(#clip0_7201_62663)">
<path fill-rule="evenodd" clip-rule="evenodd" d="M8.00098 4.46777C7.63498 4.46777 7.29598 4.58677 7.00098 4.78077V3.46777C7.00098 3.19177 6.77698 2.96777 6.50098 2.96777C6.22498 2.96777 6.00098 3.19177 6.00098 3.46777V8.46777C6.00098 8.74377 6.22498 8.96777 6.50098 8.96777C6.71798 8.96777 6.89798 8.82777 6.96698 8.63377C7.26998 8.84077 7.62098 8.96777 8.00098 8.96777C9.10398 8.96777 10.001 7.95877 10.001 6.71777C10.001 5.47677 9.10398 4.46777 8.00098 4.46777ZM8.00098 7.96777C7.44898 7.96777 7.00098 7.40677 7.00098 6.71777C7.00098 6.02877 7.44898 5.46777 8.00098 5.46777C8.55298 5.46777 9.00098 6.02877 9.00098 6.71777C9.00098 7.40677 8.55298 7.96777 8.00098 7.96777Z" fill="#202020"/>
<path d="M11.7009 8.63357C11.1301 8.23697 10.749 7.52665 10.749 6.71777C10.749 5.47677 11.646 4.46777 12.749 4.46777C12.892 4.46777 14.001 4.57277 14.001 5.20377C14.001 5.47877 13.777 5.70377 13.5 5.70377C13.3671 5.70377 13.2817 5.65382 13.1896 5.59987C13.0814 5.53657 12.9639 5.46777 12.749 5.46777C12.197 5.46777 11.749 6.02877 11.749 6.71777C11.749 7.26825 12.035 7.73702 12.4315 7.90326L11.7009 8.63357Z" fill="#202020"/>
<path fill-rule="evenodd" clip-rule="evenodd" d="M3.25198 4.21777C2.36398 4.21777 1.99098 4.52077 1.89798 4.61377C1.70298 4.80877 1.68898 5.13777 1.88398 5.33277C2.07798 5.52877 2.38098 5.54077 2.57698 5.34577L2.57928 5.34445C2.60167 5.33089 2.78847 5.21777 3.25098 5.21777C3.28098 5.21777 4.00098 5.22377 4.00098 5.71777V6.02377C3.79698 5.99077 3.55298 5.96777 3.25098 5.96777C1.93798 5.96777 1.25098 6.72177 1.25098 7.46777C1.25098 8.21377 1.93798 8.96777 3.25098 8.96777C3.62298 8.96777 3.91198 8.90477 4.14598 8.81877C4.23698 8.91077 4.36198 8.96777 4.50098 8.96777C4.77698 8.96777 5.00098 8.74377 5.00098 8.46777V5.71777C5.00098 4.73277 4.12198 4.21777 3.25198 4.21777ZM2.25198 7.46777C2.25198 7.22577 2.60298 6.96777 3.25198 6.96777C3.62398 6.96777 3.85798 7.00577 4.00198 7.04177V7.77877C3.90898 7.85277 3.69898 7.96777 3.25198 7.96777C2.60298 7.96777 2.25198 7.70977 2.25198 7.46777Z" fill="#202020"/>
<path d="M15.5449 8.45394C15.2519 8.1616 14.8549 7.99741 14.4409 7.99741C14.027 7.99741 13.63 8.1616 13.3369 8.45394L9.04895 12.7414C8.69299 13.0975 8.44065 13.5437 8.31895 14.0322L8.01895 15.2431C7.99361 15.3451 7.99509 15.452 8.02324 15.5533C8.0514 15.6547 8.10528 15.747 8.17964 15.8213C8.25401 15.8957 8.34633 15.9495 8.44766 15.9777C8.54899 16.0059 8.65588 16.0073 8.75795 15.982L9.96895 15.682C10.4572 15.5598 10.9031 15.3071 11.2589 14.9511L15.5479 10.6637C15.6931 10.5185 15.8081 10.3461 15.8865 10.1564C15.9649 9.96673 16.0051 9.76344 16.0049 9.55818C16.0046 9.35293 15.9638 9.14974 15.8849 8.96026C15.806 8.77078 15.6905 8.59872 15.5449 8.45394V8.45394Z" fill="#006CBF"/>
</g>
<defs>
<clipPath id="clip0_7201_62663">
<rect width="16" height="16" fill="white"/>
</clipPath>
</defs>
</svg>
