<svg width="16" height="16" viewBox="0 0 16 16" fill="none" xmlns="http://www.w3.org/2000/svg">
<path d="M12.561 4.35398L9.647 1.43998C9.368 1.16098 8.981 1.00098 8.586 1.00098H5C3.897 1.00098 3 1.89798 3 3.00098V13.001C3 14.104 3.897 15.001 5 15.001H11C12.103 15.001 13 14.104 13 13.001V5.41498C13 5.01498 12.844 4.63798 12.561 4.35398ZM12 13C12 13.551 11.552 14 11 14H5C4.448 14 4 13.551 4 13V2.99998C4 2.44898 4.448 1.99998 5 1.99998H8.586C8.718 1.99998 8.847 2.05298 8.94 2.14598L11.854 5.05998C11.947 5.15298 12 5.28198 12 5.41398V13ZM10.854 7.77698L9.775 8.82898L10.03 10.314C10.097 10.706 9.686 11.005 9.334 10.82L8 10.119L6.666 10.82C6.314 11.005 5.902 10.706 5.97 10.314L6.225 8.82898L5.146 7.77698C4.861 7.49898 5.018 7.01598 5.412 6.95798L6.903 6.74098L7.57 5.38998C7.746 5.03298 8.255 5.03298 8.431 5.38998L9.098 6.74098L10.589 6.95798C10.983 7.01498 11.139 7.49898 10.854 7.77698Z" fill="#5C2E91"/>
</svg>
