<svg width="16" height="16" viewBox="0 0 16 16" fill="none" xmlns="http://www.w3.org/2000/svg">
<g clip-path="url(#clip0_7201_62593)">
<path fill-rule="evenodd" clip-rule="evenodd" d="M13 3H5V2C5 1.449 4.552 1 4 1H3C1.897 1 1 1.897 1 3V11C1 12.103 1.897 13 3 13H7.61742C7.79899 12.6315 8.04023 12.2935 8.33303 12.0003L3 12C2.448 12 2 11.551 2 11C2 10.449 2.448 10 3 10H4C4.552 10 5 9.551 5 9V4H13C13.552 4 14 4.449 14 5V6.99891C14.1423 6.97447 14.2873 6.96196 14.4335 6.96196C14.6257 6.96196 14.8156 6.98355 15 7.02539V5C15 3.897 14.103 3 13 3ZM2 3C2 2.449 2.448 2 3 2H4V9H3C2.636 9 2.294 9.098 2 9.269V3Z" fill="#202020"/>
<path d="M12.9913 7.40672C12.9476 7.17525 12.7441 7 12.5 7H9.5C9.224 7 9 7.224 9 7.5C9 7.776 9.224 8 9.5 8H12.3347L12.623 7.7118C12.7368 7.59803 12.8602 7.49607 12.9913 7.40672Z" fill="#202020"/>
<path d="M11.3344 9H9.5C9.224 9 9 9.224 9 9.5C9 9.776 9.224 10 9.5 10H10.334L11.3344 9Z" fill="#202020"/>
<path d="M7.5 6C7.77614 6 8 5.77614 8 5.5C8 5.22386 7.77614 5 7.5 5C7.22386 5 7 5.22386 7 5.5C7 5.77614 7.22386 6 7.5 6Z" fill="#202020"/>
<path d="M9.5 5H12.5C12.776 5 13 5.224 13 5.5C13 5.776 12.776 6 12.5 6H9.5C9.224 6 9 5.776 9 5.5C9 5.224 9.224 5 9.5 5Z" fill="#202020"/>
<path d="M7.5 8C7.77614 8 8 7.77614 8 7.5C8 7.22386 7.77614 7 7.5 7C7.22386 7 7 7.22386 7 7.5C7 7.77614 7.22386 8 7.5 8Z" fill="#202020"/>
<path d="M7.5 10C7.77614 10 8 9.77614 8 9.5C8 9.22386 7.77614 9 7.5 9C7.22386 9 7 9.22386 7 9.5C7 9.77614 7.22386 10 7.5 10Z" fill="#202020"/>
<path d="M15.5449 8.45394C15.2519 8.1616 14.8549 7.99741 14.4409 7.99741C14.027 7.99741 13.63 8.1616 13.3369 8.45394L9.04895 12.7414C8.69299 13.0975 8.44065 13.5437 8.31895 14.0322L8.01895 15.2431C7.99361 15.3451 7.99509 15.452 8.02324 15.5533C8.0514 15.6547 8.10528 15.747 8.17964 15.8213C8.25401 15.8957 8.34633 15.9495 8.44766 15.9777C8.54899 16.0059 8.65588 16.0073 8.75795 15.982L9.96895 15.682C10.4572 15.5598 10.9031 15.3071 11.2589 14.9511L15.5479 10.6637C15.6931 10.5185 15.8081 10.3461 15.8865 10.1564C15.9649 9.96673 16.0051 9.76344 16.0049 9.55818C16.0046 9.35293 15.9638 9.14974 15.8849 8.96026C15.806 8.77078 15.6905 8.59872 15.5449 8.45394V8.45394Z" fill="#006CBF"/>
</g>
<defs>
<clipPath id="clip0_7201_62593">
<rect width="16" height="16" fill="white"/>
</clipPath>
</defs>
</svg>
