<svg width="16" height="16" viewBox="0 0 16 16" fill="none" xmlns="http://www.w3.org/2000/svg">
<g clip-path="url(#clip0_7201_62619)">
<path d="M11.5 2H6.5C5.83696 2 5.20107 2.26339 4.73223 2.73223C4.37275 3.09172 4.13405 3.54941 4.04225 4.04225C3.54941 4.13405 3.09172 4.37275 2.73223 4.73223C2.26339 5.20107 2 5.83696 2 6.5V11.5C2 12.163 2.26339 12.7989 2.73223 13.2678C3.20107 13.7366 3.83696 14 4.5 14H7.28812L7.34103 13.7863C7.40933 13.5129 7.50767 13.2493 7.6335 13H4.5C4.10218 13 3.72064 12.842 3.43934 12.5607C3.15804 12.2794 3 11.8978 3 11.5V6H11V9.36647L12 8.36683V6.5C12 6.1717 11.9353 5.84661 11.8097 5.54329C11.6841 5.23998 11.4999 4.96438 11.2678 4.73223C11.0356 4.50009 10.76 4.31594 10.4567 4.1903C10.1534 4.06466 9.8283 4 9.5 4H13V7.43304C13.3008 7.22979 13.6418 7.09267 14 7.03114V4.5C14 3.83696 13.7366 3.20107 13.2678 2.73223C12.7989 2.26339 12.163 2 11.5 2Z" fill="#202020"/>
<path d="M4 6C4 5.44771 4.44772 5 5 5H11C11.5523 5 12 5.44772 12 6V8.36683L11 9.36647V6L5 6V9.5C5 10.3284 5.67157 11 6.5 11H9.36589L8.36553 12H6.5C5.11929 12 4 10.8807 4 9.5V6Z" fill="#B27C00"/>
<path d="M6 8.5C6 8.22386 6.22386 8 6.5 8H9.5C9.77614 8 10 8.22386 10 8.5C10 8.77614 9.77614 9 9.5 9H6.5C6.22386 9 6 8.77614 6 8.5Z" fill="#B27C00"/>
<path d="M15.5449 8.45394C15.2519 8.1616 14.8549 7.99741 14.4409 7.99741C14.027 7.99741 13.63 8.1616 13.3369 8.45394L9.04895 12.7414C8.69299 13.0975 8.44065 13.5437 8.31895 14.0322L8.01895 15.2431C7.99361 15.3451 7.99509 15.452 8.02324 15.5533C8.0514 15.6547 8.10528 15.747 8.17964 15.8213C8.25401 15.8957 8.34633 15.9495 8.44766 15.9777C8.54899 16.0059 8.65588 16.0073 8.75795 15.982L9.96895 15.682C10.4572 15.5598 10.9031 15.3071 11.2589 14.9511L15.5479 10.6637C15.6931 10.5185 15.8081 10.3461 15.8865 10.1564C15.9649 9.96673 16.0051 9.76344 16.0049 9.55818C16.0046 9.35293 15.9638 9.14974 15.8849 8.96026C15.806 8.77078 15.6905 8.59872 15.5449 8.45394V8.45394Z" fill="#006CBF"/>
</g>
<defs>
<clipPath id="clip0_7201_62619">
<rect width="16" height="16" fill="white"/>
</clipPath>
</defs>
</svg>
