<svg width="16" height="16" viewBox="0 0 16 16" fill="none" xmlns="http://www.w3.org/2000/svg">
<path fill-rule="evenodd" clip-rule="evenodd" d="M7.21029 9.91729C7.33733 9.94915 7.4682 9.96549 7.60003 9.96564C7.73479 9.9666 7.86916 9.95081 8.00003 9.91864L8.49854 9.79154L9.707 11H12C12.552 11 13 11.449 13 12V14C13 14.551 12.552 15 12 15H10C9.448 15 9 14.551 9 14V11.707L7.21029 9.91729ZM12 14H10V12H12V14Z" fill="#202020"/>
<path fill-rule="evenodd" clip-rule="evenodd" d="M6.04111 8.74811C6.03624 8.7287 6.03173 8.70919 6.02759 8.68957C5.97703 8.45046 5.98163 8.20296 6.04103 7.96589L6.16641 7.45941L5 6.293V4C5 3.449 4.552 3 4 3H2C1.448 3 1 3.449 1 4V6C1 6.551 1.448 7 2 7H4.293L6.04111 8.74811ZM4 6H2V4H4V6Z" fill="#202020"/>
<path d="M14.5449 1.45394C14.2519 1.1616 13.8549 0.997413 13.4409 0.997413C13.027 0.997413 12.63 1.1616 12.3369 1.45394L8.04895 5.74141C7.69299 6.0975 7.44065 6.54371 7.31895 7.03224L7.01895 8.24309C6.99361 8.34515 6.99509 8.45202 7.02324 8.55334C7.0514 8.65465 7.10528 8.74697 7.17964 8.82133C7.25401 8.89568 7.34633 8.94955 7.44766 8.9777C7.54899 9.00585 7.65588 9.00734 7.75795 8.982L8.96895 8.68204C9.45723 8.55976 9.90312 8.30712 10.2589 7.95113L14.5479 3.66367C14.6931 3.51849 14.8081 3.34612 14.8865 3.15643C14.9649 2.96673 15.0051 2.76344 15.0049 2.55818C15.0046 2.35293 14.9638 2.14974 14.8849 1.96026C14.806 1.77078 14.6905 1.59872 14.5449 1.45394V1.45394Z" fill="#006CBF"/>
</svg>
