<svg width="16" height="16" viewBox="0 0 16 16" fill="none" xmlns="http://www.w3.org/2000/svg">
<g clip-path="url(#clip0_7201_62573)">
<path d="M2 3.75V4.5C2 4.776 2.224 5 2.5 5C2.776 5 3 4.776 3 4.5V3.75C3 3.551 3.079 3.361 3.22 3.22C3.36 3.079 3.551 3 3.75 3H4.5C4.776 3 5 2.776 5 2.5C5 2.224 4.776 2 4.5 2H3.75C3.286 2 2.841 2.185 2.513 2.513C2.184 2.841 2 3.286 2 3.75Z" fill="#202020"/>
<path d="M3 9.5C3 9.776 2.776 10 2.5 10C2.224 10 2 9.776 2 9.5V6.5C2 6.224 2.224 6 2.5 6C2.776 6 3 6.224 3 6.5V9.5Z" fill="#202020"/>
<path d="M3.75 13H4.5C4.776 13 5 13.224 5 13.5C5 13.776 4.776 14 4.5 14H3.75C3.286 14 2.841 13.815 2.513 13.487C2.184 13.159 2 12.714 2 12.25V11.5C2 11.224 2.224 11 2.5 11C2.776 11 3 11.224 3 11.5V12.25C3 12.449 3.079 12.639 3.22 12.78C3.36 12.921 3.551 13 3.75 13Z" fill="#202020"/>
<path d="M7.28014 14L7.34103 13.754C7.4064 13.4924 7.49927 13.2398 7.61742 13H6.5C6.224 13 6 13.224 6 13.5C6 13.776 6.224 14 6.5 14H7.28014Z" fill="#202020"/>
<path d="M13 6.5C13 6.224 13.224 6 13.5 6C13.776 6 14 6.224 14 6.5V6.99891C13.6418 7.06044 13.3008 7.19757 13 7.40081V6.5Z" fill="#202020"/>
<path d="M11.2912 9.04319C11.199 9.01511 11.1013 9 11 9H9.5C8.948 9 8.5 9.449 8.5 10V11C8.5 11.2333 8.5803 11.4483 8.71479 11.6186L9.501 10.8327V10H10.334L11.2912 9.04319Z" fill="#202020"/>
<path d="M12.25 2C12.714 2 13.159 2.185 13.487 2.513C13.816 2.841 14 3.286 14 3.75V4.5C14 4.776 13.776 5 13.5 5C13.224 5 13 4.776 13 4.5V3.75C13 3.551 12.921 3.361 12.78 3.22C12.64 3.079 12.449 3 12.25 3H11.5C11.224 3 11 2.776 11 2.5C11 2.224 11.224 2 11.5 2H12.25Z" fill="#202020"/>
<path d="M9.5 3H6.5C6.224 3 6 2.776 6 2.5C6 2.224 6.224 2 6.5 2H9.5C9.776 2 10 2.224 10 2.5C10 2.776 9.776 3 9.5 3Z" fill="#202020"/>
<path fill-rule="evenodd" clip-rule="evenodd" d="M11 8C11.552 8 12 7.551 12 7V5C12 4.449 11.552 4 11 4H5C4.448 4 4 4.449 4 5V7C4 7.551 4.448 8 5 8H11ZM11.001 5V7H5.001V5H11.001Z" fill="#202020"/>
<path fill-rule="evenodd" clip-rule="evenodd" d="M5 12H6.5C7.052 12 7.5 11.551 7.5 11V10C7.5 9.449 7.052 9 6.5 9H5C4.448 9 4 9.449 4 10V11C4 11.551 4.448 12 5 12ZM6.5 11H5V10H6.5V11Z" fill="#202020"/>
<path d="M15.5449 8.45394C15.2519 8.1616 14.8549 7.99741 14.4409 7.99741C14.027 7.99741 13.63 8.1616 13.3369 8.45394L9.04895 12.7414C8.69299 13.0975 8.44065 13.5437 8.31895 14.0322L8.01895 15.2431C7.99361 15.3451 7.99509 15.452 8.02324 15.5533C8.0514 15.6547 8.10528 15.747 8.17964 15.8213C8.25401 15.8957 8.34633 15.9495 8.44766 15.9777C8.54899 16.0059 8.65588 16.0073 8.75795 15.982L9.96895 15.682C10.4572 15.5598 10.9031 15.3071 11.2589 14.9511L15.5479 10.6637C15.6931 10.5185 15.8081 10.3461 15.8865 10.1564C15.9649 9.96673 16.0051 9.76344 16.0049 9.55818C16.0046 9.35293 15.9638 9.14974 15.8849 8.96026C15.806 8.77078 15.6905 8.59872 15.5449 8.45394V8.45394Z" fill="#006CBF"/>
</g>
<defs>
<clipPath id="clip0_7201_62573">
<rect width="16" height="16" fill="white"/>
</clipPath>
</defs>
</svg>
