<svg width="16" height="16" viewBox="0 0 16 16" fill="none" xmlns="http://www.w3.org/2000/svg">
<g clip-path="url(#clip0_7201_62635)">
<path fill-rule="evenodd" clip-rule="evenodd" d="M9.5 1H13.5C14.327 1 15 1.673 15 2.5V6.5C15 6.67784 14.9689 6.84856 14.9118 7.007C14.7552 6.97724 14.5952 6.96195 14.4335 6.96195C13.7545 6.96195 13.1032 7.23168 12.623 7.71179L12.3347 8H12V8.3346L11 9.33424V8H9.5C8.673 8 8 7.327 8 6.5V2.5C8 1.673 8.673 1 9.5 1ZM13.5 7C13.775 7 14 6.776 14 6.5V3H9V6.5C9 6.776 9.225 7 9.5 7H13.5Z" fill="#202020"/>
<path fill-rule="evenodd" clip-rule="evenodd" d="M9.33364 11H8V9.5C8 8.673 7.327 8 6.5 8H2.5C1.673 8 1 8.673 1 9.5V13.5C1 14.327 1.673 15 2.5 15H6.5C6.69761 15 6.88643 14.9616 7.05937 14.8918L7.34103 13.754C7.46574 13.255 7.69058 12.7884 8 12.3818V12H8.33329L9.33364 11ZM6.5 14C6.775 14 7 13.776 7 13.5V10H2V13.5C2 13.776 2.225 14 2.5 14H6.5Z" fill="#202020"/>
<path d="M15.5449 8.45394C15.2519 8.1616 14.8549 7.99741 14.4409 7.99741C14.027 7.99741 13.63 8.1616 13.3369 8.45394L9.04895 12.7414C8.69299 13.0975 8.44065 13.5437 8.31895 14.0322L8.01895 15.2431C7.99361 15.3451 7.99509 15.452 8.02324 15.5533C8.0514 15.6547 8.10528 15.747 8.17964 15.8213C8.25401 15.8957 8.34633 15.9495 8.44766 15.9777C8.54899 16.0059 8.65588 16.0073 8.75795 15.982L9.96895 15.682C10.4572 15.5598 10.9031 15.3071 11.2589 14.9511L15.5479 10.6637C15.6931 10.5185 15.8081 10.3461 15.8865 10.1564C15.9649 9.96673 16.0051 9.76344 16.0049 9.55818C16.0046 9.35293 15.9638 9.14974 15.8849 8.96026C15.806 8.77078 15.6905 8.59872 15.5449 8.45394V8.45394Z" fill="#006CBF"/>
</g>
<defs>
<clipPath id="clip0_7201_62635">
<rect width="16" height="16" fill="white"/>
</clipPath>
</defs>
</svg>
