<svg width="16" height="16" viewBox="0 0 16 16" fill="none" xmlns="http://www.w3.org/2000/svg">
<g clip-path="url(#clip0_7201_62467)">
<path d="M10 10.3339V3.5C10 2.673 9.327 2 8.5 2H6.5C5.673 2 5 2.673 5 3.5V12.5C5 13.327 5.673 14 6.5 14H7.28014L7.34103 13.754C7.4064 13.4924 7.49927 13.2398 7.61742 13H6.5C6.224 13 6 12.776 6 12.5V3.5C6 3.224 6.224 3 6.5 3H8.5C8.776 3 9 3.224 9 3.5V11.3335L10 10.3339Z" fill="#202020"/>
<path d="M12 8.3346L11 9.33424V3.5C11 2.673 11.673 2 12.5 2H13C13.276 2 13.5 2.224 13.5 2.5C13.5 2.776 13.276 3 13 3H12.5C12.224 3 12 3.224 12 3.5V8.3346Z" fill="#202020"/>
<path d="M4 3.5V12.5C4 13.327 3.327 14 2.5 14H2C1.724 14 1.5 13.776 1.5 13.5C1.5 13.224 1.724 13 2 13H2.5C2.776 13 3 12.776 3 12.5V3.5C3 3.224 2.776 3 2.5 3H2C1.724 3 1.5 2.776 1.5 2.5C1.5 2.224 1.724 2 2 2H2.5C3.327 2 4 2.673 4 3.5Z" fill="#202020"/>
<path d="M15.5449 8.45394C15.2519 8.1616 14.8549 7.99741 14.4409 7.99741C14.027 7.99741 13.63 8.1616 13.3369 8.45394L9.04895 12.7414C8.69299 13.0975 8.44065 13.5437 8.31895 14.0322L8.01895 15.2431C7.99361 15.3451 7.99509 15.452 8.02324 15.5533C8.0514 15.6547 8.10528 15.747 8.17964 15.8213C8.25401 15.8957 8.34633 15.9495 8.44766 15.9777C8.54899 16.0059 8.65588 16.0073 8.75795 15.982L9.96895 15.682C10.4572 15.5598 10.9031 15.3071 11.2589 14.9511L15.5479 10.6637C15.6931 10.5185 15.8081 10.3461 15.8865 10.1564C15.9649 9.96673 16.0051 9.76344 16.0049 9.55818C16.0046 9.35293 15.9638 9.14974 15.8849 8.96026C15.806 8.77078 15.6905 8.59872 15.5449 8.45394V8.45394Z" fill="#006CBF"/>
</g>
<defs>
<clipPath id="clip0_7201_62467">
<rect width="16" height="16" fill="white"/>
</clipPath>
</defs>
</svg>
