<svg width="16" height="16" viewBox="0 0 16 16" fill="none" xmlns="http://www.w3.org/2000/svg">
<g clip-path="url(#clip0_4285_60342)">
<mask id="mask0_4285_60342" style="mask-type:alpha" maskUnits="userSpaceOnUse" x="0" y="0" width="16" height="16">
<path fill-rule="evenodd" clip-rule="evenodd" d="M16 0H0V16H7.11333C7.07651 15.9103 7.04776 15.8172 7.02759 15.7218C6.97703 15.4827 6.98163 15.2352 7.04103 14.9981L7.34103 13.7863C7.50685 13.1227 7.8497 12.5165 8.33303 12.0325L12.623 7.74402C13.1032 7.26391 13.7545 6.99418 14.4335 6.99418C15.0035 6.99418 15.5539 7.18422 16 7.5292V0ZM16 11.6085L11.955 15.652C11.8296 15.7777 11.6958 15.894 11.555 16H16V11.6085Z" fill="#D9D9D9"/>
</mask>
<g mask="url(#mask0_4285_60342)">
<path d="M8.5 6.5C8.5 6.224 8.724 6 9 6H10.5C10.776 6 11 6.224 11 6.5C11 6.776 10.776 7 10.5 7H9C8.724 7 8.5 6.776 8.5 6.5ZM8.5 10.5C8.5 10.224 8.724 10 9 10H10.5C10.776 10 11 10.224 11 10.5C11 10.776 10.776 11 10.5 11H9C8.724 11 8.5 10.776 8.5 10.5ZM5.49901 8.00001C5.37134 7.99976 5.24375 7.95076 5.14601 7.85401L4.64601 7.35401C4.45101 7.15901 4.45101 6.84201 4.64601 6.64701C4.84101 6.45201 5.15801 6.45201 5.35301 6.64701L5.49901 6.79301L6.64501 5.64701C6.84001 5.45201 7.15701 5.45201 7.35201 5.64701C7.54701 5.84201 7.54701 6.15901 7.35201 6.35401L5.85201 7.85401C5.75426 7.95176 5.62668 7.99976 5.49901 8.00001ZM5.14601 11.854C5.24375 11.9508 5.37134 11.9998 5.49901 12C5.62668 11.9998 5.75426 11.9518 5.85201 11.854L7.35201 10.354C7.54701 10.159 7.54701 9.84201 7.35201 9.64701C7.15701 9.45201 6.84001 9.45201 6.64501 9.64701L5.49901 10.793L5.35301 10.647C5.15801 10.452 4.84101 10.452 4.64601 10.647C4.45101 10.842 4.45101 11.159 4.64601 11.354L5.14601 11.854ZM5.085 2C5.291 1.417 5.847 1 6.5 1H9.5C10.153 1 10.709 1.417 10.915 2H11.5C12.328 2 13 2.672 13 3.5V13.5C13 14.328 12.328 15 11.5 15H4.5C3.672 15 3 14.328 3 13.5V3.5C3 2.672 3.672 2 4.5 2H5.085ZM6.5 2C6.224 2 6 2.224 6 2.5C6 2.776 6.224 3 6.5 3H9.5C9.776 3 10 2.776 10 2.5C10 2.224 9.776 2 9.5 2H6.5ZM5.085 3H4.5C4.224 3 4 3.224 4 3.5V13.5C4 13.776 4.224 14 4.5 14H11.5C11.776 14 12 13.776 12 13.5V3.5C12 3.224 11.776 3 11.5 3H10.915C10.709 3.583 10.153 4 9.5 4H6.5C5.847 4 5.291 3.583 5.085 3Z" fill="#202020"/>
</g>
<g clip-path="url(#clip1_4285_60342)">
<path d="M15.5449 8.45396C15.2519 8.16162 14.8549 7.99744 14.4409 7.99744C14.027 7.99744 13.63 8.16162 13.3369 8.45396L9.04895 12.7414C8.69299 13.0975 8.44065 13.5437 8.31895 14.0323L8.01895 15.2431C7.99361 15.3452 7.99509 15.452 8.02324 15.5534C8.0514 15.6547 8.10528 15.747 8.17964 15.8213C8.25401 15.8957 8.34633 15.9496 8.44766 15.9777C8.54899 16.0059 8.65588 16.0074 8.75795 15.982L9.96895 15.6821C10.4572 15.5598 10.9031 15.3071 11.2589 14.9512L15.5479 10.6637C15.6931 10.5185 15.8081 10.3461 15.8865 10.1564C15.9649 9.96675 16.0051 9.76346 16.0049 9.5582C16.0046 9.35295 15.9638 9.14976 15.8849 8.96028C15.806 8.7708 15.6905 8.59875 15.5449 8.45396Z" fill="#006CBF"/>
</g>
</g>
<defs>
<clipPath id="clip0_4285_60342">
<rect width="16" height="16" fill="white"/>
</clipPath>
<clipPath id="clip1_4285_60342">
<rect width="16" height="16" fill="white"/>
</clipPath>
</defs>
</svg>
