<svg width="16" height="16" viewBox="0 0 16 16" fill="none" xmlns="http://www.w3.org/2000/svg">
<g clip-path="url(#clip0_7201_62507)">
<path d="M1 5.5C1 4.67157 1.67157 4 2.5 4H13.5C14.3284 4 15 4.67157 15 5.5V7.02539C14.8156 6.98355 14.6257 6.96196 14.4335 6.96196C14.2873 6.96196 14.1423 6.97447 14 6.99891V5.5C14 5.22386 13.7761 5 13.5 5H2.5C2.22386 5 2 5.22386 2 5.5V8.5C2 8.77614 2.22386 9 2.5 9H11.3344L10.334 10H2.5C1.67157 10 1 9.32843 1 8.5V5.5Z" fill="#202020"/>
<path d="M10.1464 6.14645C10.3417 5.95118 10.6583 5.95118 10.8536 6.14645L11.5 6.79289L12.1464 6.14645C12.3417 5.95118 12.6583 5.95118 12.8536 6.14645C13.0488 6.34171 13.0488 6.65829 12.8536 6.85355L11.8536 7.85355C11.6583 8.04882 11.3417 8.04882 11.1464 7.85355L10.1464 6.85355C9.95118 6.65829 9.95118 6.34171 10.1464 6.14645Z" fill="#202020"/>
<path d="M15.5449 8.45394C15.2519 8.1616 14.8549 7.99741 14.4409 7.99741C14.027 7.99741 13.63 8.1616 13.3369 8.45394L9.04895 12.7414C8.69299 13.0975 8.44065 13.5437 8.31895 14.0322L8.01895 15.2431C7.99361 15.3451 7.99509 15.452 8.02324 15.5533C8.0514 15.6547 8.10528 15.747 8.17964 15.8213C8.25401 15.8957 8.34633 15.9495 8.44766 15.9777C8.54899 16.0059 8.65588 16.0073 8.75795 15.982L9.96895 15.682C10.4572 15.5598 10.9031 15.3071 11.2589 14.9511L15.5479 10.6637C15.6931 10.5185 15.8081 10.3461 15.8865 10.1564C15.9649 9.96673 16.0051 9.76344 16.0049 9.55818C16.0046 9.35293 15.9638 9.14974 15.8849 8.96026C15.806 8.77078 15.6905 8.59872 15.5449 8.45394V8.45394Z" fill="#006CBF"/>
</g>
<defs>
<clipPath id="clip0_7201_62507">
<rect width="16" height="16" fill="white"/>
</clipPath>
</defs>
</svg>
