<svg width="16" height="16" viewBox="0 0 16 16" fill="none" xmlns="http://www.w3.org/2000/svg">
<g clip-path="url(#clip0_7201_62603)">
<path fill-rule="evenodd" clip-rule="evenodd" d="M5.5 3C5.22386 3 5 3.22386 5 3.5V5.5C5 5.77614 5.22386 6 5.5 6H10.5C10.7761 6 11 5.77614 11 5.5V3.5C11 3.22386 10.7761 3 10.5 3H5.5ZM6 5V4H10V5H6Z" fill="#159195"/>
<path d="M4 1C2.89543 1 2 1.89543 2 3H1.5C1.22386 3 1 3.22386 1 3.5C1 3.77614 1.22386 4 1.5 4H2V6H1.5C1.22386 6 1 6.22386 1 6.5C1 6.77614 1.22386 7 1.5 7H2V9H1.5C1.22386 9 1 9.22386 1 9.5C1 9.77614 1.22386 10 1.5 10H2V12H1.5C1.22386 12 1 12.2239 1 12.5C1 12.7761 1.22386 13 1.5 13H2C2 14.1046 2.89543 15 4 15H7.03288C7.03547 14.9886 7.03819 14.9772 7.04103 14.9659L7.28014 14H4C3.44772 14 3 13.5523 3 13H3.5C3.77614 13 4 12.7761 4 12.5C4 12.2239 3.77614 12 3.5 12H3V10H3.5C3.77614 10 4 9.77614 4 9.5C4 9.22386 3.77614 9 3.5 9H3V7H3.5C3.77614 7 4 6.77614 4 6.5C4 6.22386 3.77614 6 3.5 6H3V4H3.5C3.77614 4 4 3.77614 4 3.5C4 3.22386 3.77614 3 3.5 3H3C3 2.44772 3.44772 2 4 2H11C11.5523 2 12 2.44772 12 3V8.3346L12.623 7.7118C12.7393 7.59551 12.8657 7.49157 13 7.40081V3C13 1.89543 12.1046 1 11 1H4Z" fill="#202020"/>
<path d="M15.5449 8.45394C15.2519 8.1616 14.8549 7.99741 14.4409 7.99741C14.027 7.99741 13.63 8.1616 13.3369 8.45394L9.04895 12.7414C8.69299 13.0975 8.44065 13.5437 8.31895 14.0322L8.01895 15.2431C7.99361 15.3451 7.99509 15.452 8.02324 15.5533C8.0514 15.6547 8.10528 15.747 8.17964 15.8213C8.25401 15.8957 8.34633 15.9495 8.44766 15.9777C8.54899 16.0059 8.65588 16.0073 8.75795 15.982L9.96895 15.682C10.4572 15.5598 10.9031 15.3071 11.2589 14.9511L15.5479 10.6637C15.6931 10.5185 15.8081 10.3461 15.8865 10.1564C15.9649 9.96673 16.0051 9.76344 16.0049 9.55818C16.0046 9.35293 15.9638 9.14974 15.8849 8.96026C15.806 8.77078 15.6905 8.59872 15.5449 8.45394V8.45394Z" fill="#006CBF"/>
</g>
<defs>
<clipPath id="clip0_7201_62603">
<rect width="16" height="16" fill="white"/>
</clipPath>
</defs>
</svg>
