<svg width="16" height="16" viewBox="0 0 16 16" fill="none" xmlns="http://www.w3.org/2000/svg">
<g clip-path="url(#clip0_7201_62653)">
<path d="M10 5C10 5.55228 10.4477 6 11 6C11.5523 6 12 5.55228 12 5C12 4.44772 11.5523 4 11 4C10.4477 4 10 4.44772 10 5Z" fill="#202020"/>
<path d="M2.58722 7.31428C1.80426 8.0934 1.80426 9.3566 2.58722 10.1357L5.88331 13.4157C6.26949 13.8 6.77403 13.9947 7.28017 13.9999L7.34103 13.754C7.41174 13.4711 7.51465 13.1985 7.64691 12.9414C7.29162 13.0711 6.87734 12.9941 6.59214 12.7103L3.29606 9.43036C2.90458 9.0408 2.90458 8.4092 3.29605 8.01964L8.03571 3.30321C8.22268 3.11716 8.47595 3.01215 8.74036 3.01105L11.9909 2.99754C12.549 2.99522 13.0016 3.44692 12.9975 4.00227L12.9731 7.3653C12.973 7.38378 12.9723 7.40221 12.9712 7.42056C13.2729 7.21064 13.6165 7.0681 13.9782 7.00274L13.9999 4.00947C14.008 2.89877 13.1029 1.99538 11.9867 2.00002L8.73617 2.01353C8.20735 2.01572 7.70082 2.22574 7.32688 2.59785L2.58722 7.31428Z" fill="#202020"/>
<path d="M15.5449 8.45394C15.2519 8.1616 14.8549 7.99741 14.4409 7.99741C14.027 7.99741 13.63 8.1616 13.3369 8.45394L9.04895 12.7414C8.69299 13.0975 8.44065 13.5437 8.31895 14.0322L8.01895 15.2431C7.99361 15.3451 7.99509 15.452 8.02324 15.5533C8.0514 15.6547 8.10528 15.747 8.17964 15.8213C8.25401 15.8957 8.34633 15.9495 8.44766 15.9777C8.54899 16.0059 8.65588 16.0073 8.75795 15.982L9.96895 15.682C10.4572 15.5598 10.9031 15.3071 11.2589 14.9511L15.5479 10.6637C15.6931 10.5185 15.8081 10.3461 15.8865 10.1564C15.9649 9.96673 16.0051 9.76344 16.0049 9.55818C16.0046 9.35293 15.9638 9.14974 15.8849 8.96026C15.806 8.77078 15.6905 8.59872 15.5449 8.45394V8.45394Z" fill="#006CBF"/>
</g>
<defs>
<clipPath id="clip0_7201_62653">
<rect width="16" height="16" fill="white"/>
</clipPath>
</defs>
</svg>
