<svg width="16" height="16" viewBox="0 0 16 16" fill="none" xmlns="http://www.w3.org/2000/svg">
<path d="M6.246 7.415C6.854 6.956 7.25 6.273 7.25 5.5C7.25 4.121 6.017 3 4.5 3C2.983 3 1.75 4.121 1.75 5.5C1.75 6.273 2.146 6.957 2.754 7.415C1.711 7.935 1 8.893 1 10C1 11.654 2.57 13 4.5 13C6.43 13 8 11.654 8 10C8 8.893 7.289 7.935 6.246 7.415ZM2.75 5.5C2.75 4.673 3.535 4 4.5 4C5.465 4 6.25 4.673 6.25 5.5C6.25 6.327 5.465 7 4.5 7C3.535 7 2.75 6.327 2.75 5.5ZM4.5 12C3.122 12 2 11.103 2 10C2 8.897 3.122 8 4.5 8C5.878 8 7 8.897 7 10C7 11.103 5.878 12 4.5 12ZM13.854 12.146C14.049 12.341 14.049 12.658 13.854 12.853C13.756 12.951 13.628 12.999 13.5 12.999C13.372 12.999 13.244 12.95 13.146 12.853L11.5 11.207L9.854 12.853C9.756 12.951 9.628 12.999 9.5 12.999C9.372 12.999 9.244 12.95 9.146 12.853C8.951 12.658 8.951 12.341 9.146 12.146L10.792 10.5L9.146 8.854C8.951 8.659 8.951 8.342 9.146 8.147C9.341 7.952 9.658 7.952 9.853 8.147L11.499 9.793L13.145 8.147C13.34 7.952 13.657 7.952 13.852 8.147C14.047 8.342 14.047 8.659 13.852 8.854L12.206 10.5L13.852 12.146H13.854Z" fill="#202020"/>
</svg>
