<svg width="16" height="16" viewBox="0 0 16 16" fill="none" xmlns="http://www.w3.org/2000/svg">
<path fill-rule="evenodd" clip-rule="evenodd" d="M4 4.5C4 3.119 5.119 2 6.5 2H13.5C14.881 2 16 3.119 16 4.5V11.5C16 12.881 14.881 14 13.5 14H8V13H13.5C14.328 13 15 12.328 15 11.5V6H5V9H4V4.5ZM5 5H15V4.5C15 3.672 14.328 3 13.5 3H6.5C5.672 3 5 3.672 5 4.5V5Z" fill="#202020"/>
<path d="M7.90912 10.6149C7.70745 9.92818 7.18706 9.37781 6.51907 9.13487C6.47232 8.96672 6.51496 8.77878 6.64698 8.64676L8.14698 7.14676C8.34198 6.95176 8.65898 6.95176 8.85398 7.14676C9.04898 7.34176 9.04898 7.65876 8.85398 7.85376L7.70798 8.99976L8.85398 10.1458C9.04898 10.3408 9.04898 10.6578 8.85398 10.8528C8.65898 11.0478 8.34198 11.0478 8.14698 10.8528L7.90912 10.6149Z" fill="#202020"/>
<path d="M11.854 7.14576L13.354 8.64576C13.549 8.84076 13.549 9.15676 13.354 9.35176L11.854 10.8518C11.659 11.0468 11.342 11.0468 11.147 10.8518C10.952 10.6568 10.952 10.3398 11.147 10.1448L12.293 8.99876L11.147 7.85276C10.952 7.65776 10.952 7.34076 11.147 7.14576C11.342 6.95076 11.659 6.95076 11.854 7.14576Z" fill="#202020"/>
<path d="M5.75 16H1.25C0.561 16 0 15.439 0 14.75V11.25C0 10.561 0.561 10 1.25 10H5.75C6.439 10 7 10.561 7 11.25V14.75C7 15.439 6.439 16 5.75 16ZM1.25 11C1.112 11 1 11.112 1 11.25V14.75C1 14.888 1.112 15 1.25 15H5.75C5.888 15 6 14.888 6 14.75V11.25C6 11.112 5.888 11 5.75 11H1.25Z" fill="#202020"/>
</svg>
