<svg width="16" height="16" viewBox="0 0 16 16" fill="none" xmlns="http://www.w3.org/2000/svg">
<path d="M2 4.5C2 3.119 3.119 2 4.5 2H11.5C12.881 2 14 3.119 14 4.5V11.5C14 12.881 12.881 14 11.5 14H4.5C3.119 14 2 12.881 2 11.5V4.5ZM4.5 3C3.672 3 3 3.672 3 4.5V11.5C3 12.328 3.672 13 4.5 13H11.5C12.328 13 13 12.328 13 11.5V4.5C13 3.672 12.328 3 11.5 3H4.5Z" fill="#202020"/>
<path d="M11.279 5.79024L8.799 5.06624C8.59 5.00624 8.372 5.01524 8.168 5.09024L4.648 6.41024C4.26 6.55624 4 6.93224 4 7.34724V9.14024C4 9.57124 4.274 9.95224 4.684 10.0882L7.165 10.9152C7.268 10.9502 7.376 10.9672 7.483 10.9672C7.611 10.9672 7.739 10.9432 7.859 10.8942L11.376 9.46524C11.755 9.31224 12 8.94824 12 8.53924V6.75024C12 6.30824 11.703 5.91324 11.279 5.79024ZM11 8.53924L7.483 9.96824L5 9.14024V7.34724L8.521 6.02724L11 6.75124V8.54024V8.53924ZM7.48 7.46724L8.807 6.91424C9.06 6.80924 9.355 6.92824 9.461 7.18324C9.566 7.43824 9.446 7.73124 9.191 7.83724L7.999 8.33424V8.62624C7.999 8.90224 7.775 9.12624 7.499 9.12624C7.223 9.12624 6.999 8.90224 6.999 8.62624V8.36124L6.591 8.22524C6.329 8.13824 6.188 7.85524 6.275 7.59324C6.364 7.33124 6.647 7.19224 6.908 7.27724L7.48 7.46724Z" fill="#006CBF"/>
</svg>
