<svg width="16" height="16" viewBox="0 0 16 16" fill="none" xmlns="http://www.w3.org/2000/svg">
<g clip-path="url(#clip0_7201_62869)">
<path d="M11.866 5.50003L12.659 6.29303C12.928 6.56203 13.106 6.89403 13.189 7.25503C13.382 7.21703 13.566 7.14103 13.707 7.00003L15 5.70703C15.188 5.51903 15.293 5.26503 15.293 5.00003C15.293 4.73503 15.188 4.48103 15 4.29303L14.207 3.50003C14.019 3.31203 13.765 3.20703 13.5 3.20703C13.235 3.20703 12.981 3.31203 12.793 3.50003L12.293 4.00003H8.707L9.5 3.20703C9.688 3.01903 9.793 2.76503 9.793 2.50003C9.793 2.23503 9.688 1.98103 9.5 1.79303L8.207 0.500031C8.019 0.312031 7.765 0.207031 7.5 0.207031C7.235 0.207031 6.981 0.312031 6.793 0.500031L5.224 2.06903C5.461 2.16803 5.679 2.31303 5.866 2.50003L6.037 2.67103L7.501 1.20703L8.794 2.50003L7.314 3.98003C7.546 4.27603 7.687 4.62503 7.726 5.00003H9.001V5.53803L9.039 5.50003C9.417 5.12203 9.919 4.91403 10.453 4.91403C10.643 4.91403 10.826 4.94903 11.003 5.00003H11.364C11.342 5.03703 11.334 5.07903 11.316 5.11803C11.516 5.21503 11.704 5.33803 11.866 5.50003ZM13.5 4.20703L14.293 5.00003L13 6.29303L12.207 5.50003L13.5 4.20703ZM14.207 8.50003C14.019 8.31203 13.765 8.20703 13.5 8.20703C13.38 8.20703 13.264 8.23503 13.153 8.27603C13.059 8.59103 12.898 8.88203 12.659 9.12103L11.543 10.237C11.658 10.312 11.766 10.4 11.866 10.5L12.659 11.293C12.928 11.562 13.106 11.894 13.189 12.255C13.382 12.217 13.566 12.141 13.707 12L15 10.707C15.188 10.519 15.293 10.265 15.293 10C15.293 9.73503 15.188 9.48103 15 9.29303L14.207 8.50003ZM13 11.293L12.207 10.5L13.5 9.20703L14.293 10L13 11.293Z" fill="#B27C00"/>
<path d="M11.207 11.5C11.019 11.313 10.765 11.207 10.5 11.207C10.235 11.207 9.98103 11.312 9.79303 11.5L9.29303 12H7.00003V8.00003H8.36303C8.24803 8.18803 8.19903 8.40803 8.22403 8.62703C8.24903 8.84603 8.34603 9.05003 8.50003 9.20703L9.29303 10C9.48103 10.187 9.73503 10.293 10 10.293C10.265 10.293 10.519 10.188 10.707 10L12 8.70703C12.188 8.51903 12.293 8.26503 12.293 8.00003C12.293 7.73503 12.188 7.48103 12 7.29303L11.207 6.50003C11.019 6.31303 10.765 6.20703 10.5 6.20703C10.235 6.20703 9.98103 6.31203 9.79303 6.50003L9.29303 7.00003H5.70703L6.50003 6.20703C6.68703 6.01903 6.79303 5.76503 6.79303 5.50003C6.79303 5.23503 6.68803 4.98103 6.50003 4.79303L5.20703 3.50003C5.01903 3.31303 4.76503 3.20703 4.50003 3.20703C4.23503 3.20703 3.98103 3.31203 3.79303 3.50003L0.500031 6.79303C0.313031 6.98103 0.207031 7.23503 0.207031 7.50003C0.207031 7.76503 0.312031 8.01903 0.500031 8.20703L1.79303 9.50003C1.98103 9.68703 2.23503 9.79303 2.50003 9.79303C2.76503 9.79303 3.01903 9.68803 3.20703 9.50003L4.70703 8.00003H6.00003V12.5C6.00003 12.633 6.05303 12.76 6.14603 12.854C6.24003 12.948 6.36703 13 6.50003 13H8.36303C8.24803 13.188 8.19903 13.408 8.22403 13.627C8.24903 13.846 8.34603 14.05 8.50003 14.207L9.29303 15C9.48103 15.188 9.73503 15.293 10 15.293C10.265 15.293 10.519 15.188 10.707 15L12 13.707C12.188 13.519 12.293 13.265 12.293 13C12.293 12.735 12.188 12.481 12 12.293L11.207 11.5ZM2.50003 8.79303L1.20703 7.50003L4.50003 4.20703L5.79303 5.50003L2.50003 8.79303ZM11.293 8.00003L10 9.29303L9.20703 8.50003L10.5 7.20703L11.293 8.00003ZM10 14.293L9.20703 13.5L10.5 12.207L11.293 13L10 14.293Z" fill="#B27C00"/>
</g>
<defs>
<clipPath id="clip0_7201_62869">
<rect width="16" height="16" fill="white"/>
</clipPath>
</defs>
</svg>
