<svg width="16" height="16" viewBox="0 0 16 16" fill="none" xmlns="http://www.w3.org/2000/svg">
<path d="M1.98798 4.5C1.98798 3.11929 3.10726 2 4.48798 2H11.488C12.8687 2 13.988 3.11929 13.988 4.5V11.5C13.988 12.8807 12.8687 14 11.488 14H4.48798C3.10726 14 1.98798 12.8807 1.98798 11.5V4.5ZM4.48798 3C3.65955 3 2.98798 3.67157 2.98798 4.5V11.5C2.98798 12.3284 3.65955 13 4.48798 13H11.488C12.3164 13 12.988 12.3284 12.988 11.5V4.5C12.988 3.67157 12.3164 3 11.488 3H4.48798Z" fill="#202020"/>
<path d="M9.13596 7.432C9.05596 7.352 9.01096 7.243 9.01096 7.13V7H7.98796V10H9.96396L10.512 9.452C10.592 9.372 10.7 9.328 10.812 9.328C10.925 9.328 11.033 9.373 11.112 9.452L11.488 9.828C11.568 9.908 11.612 10.016 11.612 10.128V10.13C11.612 10.243 11.567 10.351 11.488 10.43L10.112 11.806C10.032 11.886 9.92396 11.93 9.81196 11.93C9.69896 11.93 9.59096 11.885 9.51196 11.806L9.13696 11.431C9.05696 11.351 9.01196 11.242 9.01196 11.129V10.999H7.84296C7.61696 10.999 7.39996 10.909 7.23896 10.749C7.07896 10.589 6.98896 10.372 6.98896 10.145V6.999H6.21796L5.72796 7.488C5.64796 7.568 5.53996 7.613 5.42696 7.613C5.31396 7.613 5.20596 7.568 5.12596 7.488L4.37596 6.738C4.29596 6.658 4.25096 6.55 4.25096 6.437H4.24896C4.24896 6.324 4.29396 6.216 4.37396 6.136L6.37396 4.136C6.45396 4.056 6.56196 4.011 6.67496 4.011C6.78796 4.011 6.89596 4.056 6.97596 4.136L7.72596 4.886C7.80596 4.966 7.85096 5.074 7.85096 5.187C7.85096 5.3 7.80596 5.408 7.72596 5.488L7.21596 5.999H9.96296L10.511 5.451C10.591 5.371 10.699 5.327 10.811 5.327C10.924 5.327 11.032 5.372 11.111 5.451L11.486 5.826C11.566 5.906 11.611 6.015 11.611 6.128C11.611 6.241 11.566 6.35 11.486 6.43L10.111 7.805C10.031 7.885 9.92296 7.929 9.81096 7.929C9.69796 7.929 9.58996 7.884 9.51096 7.805L9.13596 7.43V7.432Z" fill="#B27C00"/>
</svg>
