<svg width="16" height="16" viewBox="0 0 16 16" fill="none" xmlns="http://www.w3.org/2000/svg">
<path fill-rule="evenodd" clip-rule="evenodd" d="M4 3.5C4 2.075 6.149 1 9 1C11.851 1 14 2.075 14 3.5V12.5C14 13.925 11.851 15 9 15C8.54708 15 8.11188 14.9729 7.70019 14.9215L8.061 14.561C8.20039 14.4217 8.31096 14.2563 8.38641 14.0742C8.39888 14.0441 8.41036 14.0137 8.42082 13.9829C8.60776 13.9941 8.80094 14 9 14C11.441 14 13 13.111 13 12.5V5.021C11.7859 5.71872 10.3991 6.05816 9 6C7.60095 6.05816 6.21405 5.71872 5 5.021V7.41913C4.94516 7.33672 4.88193 7.25956 4.811 7.18899L4 6.37799V3.5ZM13 3.5C13 2.888 11.441 2 9 2C6.558 2 5 2.888 5 3.5C5 4.112 6.559 5 9 5C11.441 5 13 4.112 13 3.5Z" fill="#3487C7"/>
<path d="M0.396828 8.89657C0.201566 9.09183 0.201566 9.40842 0.396828 9.60368L1.39668 10.6035C1.59194 10.7988 1.90852 10.7988 2.10378 10.6035L2.7073 10H3V13C3 13.2652 3.10536 13.5196 3.29289 13.7071C3.48043 13.8947 3.73479 14 4 14H4.81686C4.70846 14.1876 4.73165 14.4309 4.88807 14.595L5.37607 15.107C5.46899 15.2045 5.59732 15.2604 5.732 15.262C5.86668 15.2636 5.99632 15.2108 6.09155 15.1156L7.35355 13.8536C7.54882 13.6583 7.54882 13.3417 7.35355 13.1465L6.85355 12.6465C6.65829 12.4512 6.34171 12.4512 6.14645 12.6465L5.79289 13H4V10H4.82217C4.72152 10.1859 4.74699 10.4223 4.90009 10.583L5.38809 11.095C5.48102 11.1925 5.60935 11.2484 5.74403 11.25C5.87871 11.2516 6.00834 11.1988 6.10358 11.1036L7.35358 9.85356C7.54884 9.6583 7.54884 9.34172 7.35358 9.14645L6.85358 8.64645C6.65832 8.45119 6.34173 8.45119 6.14647 8.64645L5.79292 9.00001H3.7073L4.10348 8.60383C4.29874 8.40857 4.29874 8.09198 4.10348 7.89672L3.10363 6.89687C2.90837 6.70161 2.59179 6.70161 2.39653 6.89687L0.396828 8.89657Z" fill="#B27C00"/>
</svg>
