<svg width="16" height="16" viewBox="0 0 16 16" fill="none" xmlns="http://www.w3.org/2000/svg">
<path d="M15 7.17071V3.5C15 3.1 14.84 2.72 14.56 2.44C14.28 2.16 13.9 2 13.5 2H7.5C7.1 2 6.72 2.16 6.44 2.44C6.16 2.72 6 3.1 6 3.5V6H7V3.5C7 3.37 7.05 3.24 7.15 3.15C7.24 3.05 7.37 3 7.5 3H13.5C13.63 3 13.76 3.05 13.85 3.15C13.95 3.24 14 3.37 14 3.5V7C14.3506 7 14.6872 7.06015 15 7.17071Z" fill="#B27C00"/>
<path d="M9.11594 7.13239C8.92792 7.04736 8.71938 7 8.5 7H2.5C1.673 7 1 7.673 1 8.5V12.5C1 13.327 1.673 14 2.5 14H7V13H2.5C2.225 13 2 12.775 2 12.5V8.5C2 8.225 2.225 8 2.5 8H7.76389C8.12297 7.59881 8.58844 7.29482 9.11594 7.13239Z" fill="#B27C00"/>
<path d="M10.5 7H12.5C12.78 7 13 6.78 13 6.5C13 6.22 12.78 6 12.5 6H8.5C9.32 6 10.04 6.39 10.5 7Z" fill="#B27C00"/>
<path d="M7.17071 9H3.5C3.224 9 3 9.224 3 9.5C3 9.776 3.224 10 3.5 10H7C7 9.64936 7.06015 9.31278 7.17071 9Z" fill="#B27C00"/>
<path d="M7 11H3.5C3.224 11 3 11.224 3 11.5C3 11.776 3.224 12 3.5 12H7V11Z" fill="#B27C00"/>
<path d="M13 4.5C13 4.776 12.776 5 12.5 5H8.5C8.224 5 8 4.776 8 4.5C8 4.224 8.224 4 8.5 4H12.5C12.776 4 13 4.224 13 4.5Z" fill="#B27C00"/>
<path fill-rule="evenodd" clip-rule="evenodd" d="M10 8C8.89543 8 8 8.89543 8 10V14C8 15.1046 8.89543 16 10 16H14C15.1046 16 16 15.1046 16 14V10C16 8.89543 15.1046 8 14 8H10ZM10 10.5C10 10.2239 10.2239 10 10.5 10H13.5C13.7761 10 14 10.2239 14 10.5V13.5C14 13.7761 13.7761 14 13.5 14C13.2239 14 13 13.7761 13 13.5V11.7071L10.8536 13.8536C10.6583 14.0488 10.3417 14.0488 10.1464 13.8536C9.95118 13.6583 9.95118 13.3417 10.1464 13.1465L12.2929 11H10.5C10.2239 11 10 10.7761 10 10.5Z" fill="#202020"/>
</svg>
