<svg width="16" height="16" viewBox="0 0 16 16" fill="none" xmlns="http://www.w3.org/2000/svg">
<path d="M13.1464 11.8536C13.2402 11.9473 13.3674 12 13.5 12C13.6326 12 13.7598 11.9473 13.8536 11.8536C13.9473 11.7598 14 11.6326 14 11.5V4C14 3.46957 13.7893 2.96086 13.4142 2.58579C13.0391 2.21071 12.5304 2 12 2H6C5.46957 2 4.96086 2.21071 4.58579 2.58579C4.21071 2.96086 4 3.46957 4 4V5.05028C4.16161 5.01731 4.32883 5 4.5 5H5V4C5 3.73478 5.10536 3.48043 5.29289 3.29289C5.48043 3.10536 5.73478 3 6 3H12C12.2652 3 12.5196 3.10536 12.7071 3.29289C12.8946 3.48043 13 3.73478 13 4V11.5C13 11.6326 13.0527 11.7598 13.1464 11.8536Z" fill="#202020"/>
<path d="M12 13H13.5C13.6326 13 13.7598 13.0527 13.8536 13.1464C13.9473 13.2402 14 13.3674 14 13.5C14 13.6326 13.9473 13.7598 13.8536 13.8536C13.7598 13.9473 13.6326 14 13.5 14H12C11.8674 14 11.7402 13.9473 11.6464 13.8536C11.5527 13.7598 11.5 13.6326 11.5 13.5C11.5 13.3674 11.5527 13.2402 11.6464 13.1464C11.7402 13.0527 11.8674 13 12 13Z" fill="#202020"/>
<path d="M4.5 6H8.5C9.33 6 10 6.67 10 7.5V11.5C10 12.33 9.33 13 8.5 13H8V12H8.5C8.78 12 9 11.77 9 11.5V7.5C9 7.22 8.78 7 8.5 7H4.5C4.22 7 4 7.22 4 7.5V8H3V7.5C3 6.67 3.67 6 4.5 6Z" fill="#B27C00"/>
<path d="M8 8.5C8 8.78 7.78 9 7.5 9C7.04 8.39 6.32 8 5.5 8H7.5C7.78 8 8 8.22 8 8.5Z" fill="#B27C00"/>
<path d="M4.5 11H2.5C2.224 11 2 11.224 2 11.5C2 11.776 2.224 12 2.5 12H4.5C4.776 12 5 11.776 5 11.5C5 11.224 4.776 11 4.5 11Z" fill="#B27C00"/>
<path d="M4.5 13H2.5C2.224 13 2 13.224 2 13.5C2 13.776 2.224 14 2.5 14H4.5C4.776 14 5 13.776 5 13.5C5 13.224 4.776 13 4.5 13Z" fill="#B27C00"/>
<path fill-rule="evenodd" clip-rule="evenodd" d="M1.5 9H5.5C6.327 9 7 9.673 7 10.5V14.5C7 15.327 6.327 16 5.5 16H1.5C0.673 16 0 15.327 0 14.5V10.5C0 9.673 0.673 9 1.5 9ZM5.5 15C5.775 15 6 14.775 6 14.5V10.5C6 10.225 5.775 10 5.5 10H1.5C1.225 10 1 10.225 1 10.5V14.5C1 14.775 1.225 15 1.5 15H5.5Z" fill="#B27C00"/>
</svg>
