<svg width="16" height="16" viewBox="0 0 16 16" fill="none" xmlns="http://www.w3.org/2000/svg">
<path d="M1.853 1.14601L14.854 14.145C15.049 14.34 15.049 14.657 14.854 14.852C14.756 14.95 14.628 14.998 14.5 14.999C14.372 14.999 14.244 14.95 14.146 14.853L13.703 14.41C13.418 14.673 13.028 14.999 12.33 14.999C11.593 14.999 11.195 14.634 10.906 14.366L10.9038 14.3639C10.6561 14.1362 10.5069 13.999 10.16 13.999C9.81519 13.999 9.66503 14.1371 9.41855 14.3637L9.416 14.366C9.127 14.634 8.731 14.999 7.994 14.999C7.257 14.999 6.861 14.634 6.572 14.366C6.324 14.137 6.174 13.999 5.828 13.999C5.48245 13.999 5.33338 14.1366 5.08596 14.3651L5.085 14.366C4.79601 14.633 4.39984 14.999 3.663 14.999C2.92615 14.999 2.53017 14.6332 2.24118 14.3662C1.99418 14.1372 1.845 13.999 1.5 13.999C1.224 13.999 0.999998 13.775 0.999998 13.499C0.999998 13.223 1.224 12.999 1.5 12.999C2.236 12.999 2.632 13.364 2.921 13.632C3.168 13.861 3.317 13.999 3.663 13.999C4.00781 13.999 4.15797 13.861 4.40445 13.6343L4.407 13.632C4.696 13.364 5.092 12.999 5.828 12.999C6.564 12.999 6.961 13.364 7.25 13.632C7.498 13.861 7.648 13.999 7.994 13.999C8.33881 13.999 8.48897 13.861 8.73545 13.6343L8.738 13.632C9.027 13.364 9.423 12.999 10.16 12.999C10.897 12.999 11.295 13.364 11.584 13.632L11.5862 13.6341C11.8339 13.8618 11.983 13.999 12.33 13.999C12.638 13.999 12.793 13.886 12.996 13.703L8.5 9.20701V10.499C8.5 10.775 8.276 10.999 8 10.999C7.724 10.999 7.5 10.775 7.5 10.499V8.20701L4.144 4.85101C3.44 5.71301 3 6.79901 3 7.99901C3 9.68601 3.836 11.178 5.116 12.084C4.689 12.19 4.361 12.382 4.112 12.569C2.82 11.469 2 9.83001 2 7.99901C2 6.52201 2.535 5.17201 3.42 4.12701L1.146 1.85301C0.950998 1.65801 0.950998 1.34101 1.146 1.14601C1.341 0.951006 1.658 0.951006 1.853 1.14601Z" fill="#202020"/>
<path d="M4.958 2.83501C5.851 2.30801 6.889 2.00001 8.001 2.00001C11.315 2.00001 14.001 4.68601 14.001 8.00001C14.001 9.11201 13.695 10.151 13.167 11.044L12.434 10.311C12.795 9.62001 13.001 8.83401 13.001 8.00001C13.001 5.23901 10.762 3.00001 8.001 3.00001C7.169 3.00001 6.396 3.22301 5.706 3.58301L4.958 2.83501Z" fill="#202020"/>
<path d="M7.318 5.19501L8.304 6.18101C8.565 6.06401 8.749 5.80401 8.749 5.49901C8.749 5.08501 8.414 4.75001 8 4.75001C7.695 4.75001 7.435 4.93401 7.318 5.19501Z" fill="#202020"/>
</svg>
