<svg width="16" height="16" viewBox="0 0 16 16" fill="none" xmlns="http://www.w3.org/2000/svg">
<path fill-rule="evenodd" clip-rule="evenodd" d="M1.85301 1.14698L14.854 14.146C15.049 14.341 15.049 14.658 14.854 14.853C14.756 14.951 14.628 14.999 14.5 15C14.372 15 14.244 14.951 14.146 14.854L11.26 11.968C10.713 11.893 10.383 11.592 10.144 11.354C9.89901 11.108 9.77801 11 9.49601 11C9.21401 11 9.09501 11.108 8.85001 11.354C8.57801 11.627 8.20401 12 7.49601 12C6.79134 12 6.41952 11.6295 6.14687 11.3578L6.14301 11.354C5.89801 11.109 5.77801 11 5.49701 11C5.21601 11 5.09701 11.108 4.85101 11.354C4.57901 11.627 4.20501 12 3.49801 12C2.792 12 2.41906 11.627 2.14616 11.3541L2.14501 11.353C1.90001 11.108 1.78101 11 1.50001 11C1.22401 11 1.00001 10.776 1.00001 10.5C1.00001 10.224 1.22401 9.99998 1.50001 9.99998C2.20365 9.99998 2.57651 10.3715 2.84927 10.6433L2.85201 10.646C3.09701 10.891 3.21701 11 3.49801 11C3.77901 11 3.89801 10.892 4.14401 10.646C4.41601 10.373 4.79001 9.99998 5.49701 9.99998C6.20264 9.99998 6.57656 10.3725 6.84942 10.6444L6.85101 10.646C7.09601 10.891 7.21601 11 7.49701 11C7.77801 11 7.89801 10.892 8.14301 10.646C8.38901 10.399 8.73201 10.085 9.31601 10.024L8.26001 8.96798C8.24502 8.97045 8.23004 8.97304 8.21504 8.97564C8.14492 8.98777 8.07432 8.99998 8.00101 8.99998C7.62101 8.99998 7.27001 8.87298 6.96701 8.66598C6.89801 8.85998 6.71801 8.99998 6.50101 8.99998C6.22501 8.99998 6.00101 8.77598 6.00101 8.49998V6.70898L4.99601 5.70398C4.99601 5.71198 4.99726 5.71948 4.99851 5.72698C4.99976 5.73448 5.00101 5.74198 5.00101 5.74998V8.49998C5.00101 8.77598 4.77701 8.99998 4.50101 8.99998C4.36201 8.99998 4.23701 8.94298 4.14601 8.85098C3.91201 8.93698 3.62301 8.99998 3.25101 8.99998C1.93801 8.99998 1.25101 8.24598 1.25101 7.49998C1.25101 6.75398 1.93801 5.99998 3.25101 5.99998C3.55301 5.99998 3.79701 6.02298 4.00101 6.05598V5.74998C4.00101 5.25598 3.28101 5.24998 3.25101 5.24998C2.78849 5.24998 2.6017 5.3631 2.57931 5.37666L2.57701 5.37798C2.38101 5.57298 2.07801 5.56098 1.88401 5.36498C1.68901 5.16998 1.70301 4.84098 1.89801 4.64598C1.99101 4.55298 2.36401 4.24998 3.25201 4.24998C3.35701 4.24998 3.46101 4.25798 3.56501 4.27298L1.14601 1.85398C0.951006 1.65898 0.951006 1.34198 1.14601 1.14698C1.34101 0.951982 1.65801 0.951982 1.85301 1.14698ZM3.25201 7.99998C3.69901 7.99998 3.90901 7.88498 4.00201 7.81098V7.07398C3.85801 7.03798 3.62401 6.99998 3.25201 6.99998C2.60301 6.99998 2.25201 7.25798 2.25201 7.49998C2.25201 7.74198 2.60301 7.99998 3.25201 7.99998Z" fill="#202020"/>
<path d="M9.00098 6.74998C9.00098 6.06098 8.55298 5.49998 8.00098 5.49998C7.89398 5.49998 7.79598 5.53798 7.69898 5.57698L6.00098 3.87898V3.49998C6.00098 3.22398 6.22498 2.99998 6.50098 2.99998C6.77698 2.99998 7.00098 3.22398 7.00098 3.49998V4.81298C7.29598 4.61899 7.63498 4.49998 8.00098 4.49998C9.10398 4.49998 10.001 5.50898 10.001 6.74998C10.001 7.08598 9.92998 7.40298 9.81198 7.68998L8.98298 6.86098C8.98431 6.8441 8.98801 6.828 8.99172 6.8119C8.99635 6.79177 9.00098 6.77165 9.00098 6.74998Z" fill="#202020"/>
<path d="M13.1941 11.072L12.4771 10.355C12.7211 10.166 13.0341 9.99998 13.5011 9.99998C13.7771 9.99998 14.0011 10.224 14.0011 10.5C14.0011 10.776 13.7771 11 13.5011 11C13.3741 11 13.2821 11.025 13.1941 11.072Z" fill="#202020"/>
<path d="M12.749 8.99998C12.887 8.99998 14.001 8.89699 14.001 8.26398C14.001 7.99198 13.779 7.76498 13.5 7.76498C13.3667 7.76498 13.2804 7.815 13.1874 7.86888C13.0789 7.9318 12.9613 7.99998 12.749 7.99998C12.197 7.99998 11.749 7.43898 11.749 6.74998C11.749 6.06098 12.197 5.49998 12.749 5.49998C12.9639 5.49998 13.0814 5.56878 13.1896 5.63209C13.2817 5.68603 13.3671 5.73598 13.5 5.73598C13.777 5.73598 14.001 5.51098 14.001 5.23598C14.001 4.60498 12.892 4.49998 12.749 4.49998C11.646 4.49998 10.749 5.50898 10.749 6.74998C10.749 7.99098 11.646 8.99998 12.749 8.99998Z" fill="#202020"/>
</svg>
