<svg width="16" height="16" viewBox="0 0 16 16" fill="none" xmlns="http://www.w3.org/2000/svg">
<path fill-rule="evenodd" clip-rule="evenodd" d="M10.5 15H12.5C13.327 15 14 14.327 14 13.5V5.5C14 4.673 13.327 4 12.5 4H10.5C9.673 4 9 4.673 9 5.5V13.5C9 14.327 9.673 15 10.5 15ZM10 5.5C10 5.224 10.224 5 10.5 5H12.5C12.776 5 13 5.224 13 5.5V13.5C13 13.775 12.776 14 12.5 14H10.5C10.224 14 10 13.775 10 13.5V5.5Z" fill="#3487C7"/>
<path fill-rule="evenodd" clip-rule="evenodd" d="M3.5 15H5.5C6.327 15 7 14.327 7 13.5V7.5C7 6.673 6.327 6 5.5 6H3.5C2.673 6 2 6.673 2 7.5V13.5C2 14.327 2.673 15 3.5 15ZM3 7.5C3 7.224 3.224 7 3.5 7H5.5C5.776 7 6 7.224 6 7.5V13.5C6 13.775 5.776 14 5.5 14H3.5C3.224 14 3 13.775 3 13.5V7.5Z" fill="#3487C7"/>
<path d="M12 2V7C12.276 7 12.5 7.224 12.5 7.5C12.5 7.776 12.276 8 12 8H11C10.724 8 10.5 7.776 10.5 7.5C10.5 7.224 10.724 7 11 7V2C10.724 2 10.5 1.776 10.5 1.5C10.5 1.224 10.724 1 11 1H12C12.276 1 12.5 1.224 12.5 1.5C12.5 1.776 12.276 2 12 2Z" fill="#202020"/>
<path d="M5 4V9C5.276 9 5.5 9.224 5.5 9.5C5.5 9.776 5.276 10 5 10H4C3.724 10 3.5 9.776 3.5 9.5C3.5 9.224 3.724 9 4 9V4C3.724 4 3.5 3.776 3.5 3.5C3.5 3.224 3.724 3 4 3H5C5.276 3 5.5 3.224 5.5 3.5C5.5 3.776 5.276 4 5 4Z" fill="#202020"/>
</svg>
