<svg width="16" height="16" viewBox="0 0 16 16" fill="none" xmlns="http://www.w3.org/2000/svg">
<path d="M12.33 15C11.593 15 11.195 14.635 10.906 14.367C10.657 14.138 10.508 14 10.16 14C9.814 14 9.664 14.139 9.416 14.367C9.127 14.635 8.731 15 7.994 15C7.257 15 6.861 14.635 6.572 14.367C6.324 14.138 6.174 14 5.828 14C5.482 14 5.333 14.138 5.085 14.367C4.796 14.634 4.4 15 3.663 15C2.926 15 2.53 14.634 2.241 14.367C1.994 14.138 1.845 14 1.5 14C1.224 14 1 13.776 1 13.5C1 13.224 1.224 13 1.5 13C2.236 13 2.632 13.365 2.921 13.633C3.168 13.862 3.317 14 3.663 14C4.009 14 4.159 13.861 4.407 13.633C4.696 13.365 5.092 13 5.828 13C6.564 13 6.961 13.365 7.25 13.633C7.498 13.862 7.648 14 7.994 14C8.34 14 8.49 13.861 8.738 13.633C9.027 13.365 9.423 13 10.16 13C10.897 13 11.295 13.365 11.584 13.633C11.833 13.862 11.982 14 12.33 14C12.678 14 12.827 13.861 13.076 13.633C13.365 13.365 13.763 13 14.5 13C14.776 13 15 13.224 15 13.5C15 13.776 14.776 14 14.5 14C14.152 14 14.003 14.139 13.754 14.367C13.465 14.635 13.067 15 12.33 15Z" fill="#C50F1F"/>
<path d="M8.5 7.5C8.5 7.22386 8.27614 7 8 7C7.72386 7 7.5 7.22386 7.5 7.5V10.5C7.5 10.7761 7.72386 11 8 11C8.27614 11 8.5 10.7761 8.5 10.5V7.5Z" fill="#C50F1F"/>
<path d="M8.74905 5.50003C8.74905 5.91371 8.41369 6.24907 8.00001 6.24907C7.58633 6.24907 7.25098 5.91371 7.25098 5.50003C7.25098 5.08635 7.58633 4.751 8.00001 4.751C8.41369 4.751 8.74905 5.08635 8.74905 5.50003Z" fill="#C50F1F"/>
<path d="M8 2C4.68629 2 2 4.68629 2 8C2 9.83051 2.81973 11.4696 4.11213 12.5701C4.36135 12.3828 4.68887 12.1912 5.11579 12.0848C3.83572 11.1793 3 9.68724 3 8C3 5.23858 5.23858 3 8 3C10.7614 3 13 5.23858 13 8C13 9.68899 12.1625 11.1824 10.8802 12.0876C11.3064 12.195 11.6335 12.3869 11.8827 12.5745C13.1781 11.4739 14 9.83295 14 8C14 4.68629 11.3137 2 8 2Z" fill="#C50F1F"/>
</svg>
