<svg width="16" height="16" viewBox="0 0 16 16" fill="none" xmlns="http://www.w3.org/2000/svg">
<g clip-path="url(#clip0_7201_63024)">
<path fill-rule="evenodd" clip-rule="evenodd" d="M3 1C1.89543 1 1 1.89543 1 3V13C1 14.1046 1.89543 15 3 15H8.87794L7.87794 14H3C2.44772 14 2 13.5523 2 13V3C2 2.44772 2.44772 2 3 2H6V4.5C6 5.32843 6.67157 6 7.5 6H10V6.87796L10.4389 6.43901C10.5782 6.29962 10.7436 6.18904 10.9257 6.1136C10.9502 6.10343 10.975 6.09393 11 6.0851V5.41421C11 5.01639 10.842 4.63486 10.5607 4.35355L7.64645 1.43934C7.36514 1.15804 6.98361 1 6.58579 1H3ZM9.79289 5H7.5C7.22386 5 7 4.77614 7 4.5V2.20711L9.79289 5Z" fill="#202020"/>
<path d="M8.78726 8.0907C8.70598 8.03355 8.60691 8 8.5 8H3.5C3.22386 8 3 8.22386 3 8.5C3 8.77614 3.22386 9 3.5 9H7.87796L8.78726 8.0907Z" fill="#202020"/>
<path d="M6.87796 10H3.5C3.22386 10 3 10.2239 3 10.5C3 10.7761 3.22386 11 3.5 11H6.08506C6.09388 10.975 6.10338 10.9503 6.11354 10.9258C6.18898 10.7437 6.29956 10.5783 6.43895 10.439L6.87796 10Z" fill="#202020"/>
<path d="M6.08505 12H3.5C3.22386 12 3 12.2239 3 12.5C3 12.7761 3.22386 13 3.5 13H6.87794L6.43895 12.561C6.29956 12.4217 6.18898 12.2563 6.11354 12.0743C6.10338 12.0497 6.09388 12.025 6.08505 12Z" fill="#202020"/>
<path fill-rule="evenodd" clip-rule="evenodd" d="M11.854 15.854L15.854 11.854C15.9006 11.8075 15.9375 11.7524 15.9628 11.6916C15.988 11.6309 16.0009 11.5657 16.0009 11.5C16.0009 11.4342 15.988 11.3691 15.9628 11.3083C15.9375 11.2476 15.9006 11.1924 15.854 11.146L11.854 7.14598C11.8076 7.09941 11.7524 7.06247 11.6917 7.03727C11.6309 7.01206 11.5658 6.99908 11.5 6.99908C11.4343 6.99908 11.3692 7.01206 11.3084 7.03727C11.2477 7.06247 11.1925 7.09941 11.146 7.14598L7.14604 11.146C7.09948 11.1924 7.06253 11.2476 7.03733 11.3083C7.01212 11.3691 6.99915 11.4342 6.99915 11.5C6.99915 11.5657 7.01212 11.6309 7.03733 11.6916C7.06253 11.7524 7.09948 11.8075 7.14604 11.854L11.146 15.854C11.1925 15.9005 11.2477 15.9375 11.3084 15.9627C11.3692 15.9879 11.4343 16.0009 11.5 16.0009C11.5658 16.0009 11.6309 15.9879 11.6917 15.9627C11.7524 15.9375 11.8076 15.9005 11.854 15.854ZM11.8536 11.8536C11.9473 11.7598 12 11.6326 12 11.5V9.5C12 9.36739 11.9473 9.24021 11.8536 9.14645C11.7598 9.05268 11.6326 9 11.5 9C11.3674 9 11.2402 9.05268 11.1464 9.14645C11.0527 9.24021 11 9.36739 11 9.5V11.5C11 11.6326 11.0527 11.7598 11.1464 11.8536C11.2402 11.9473 11.3674 12 11.5 12C11.6326 12 11.7598 11.9473 11.8536 11.8536ZM12.125 13.5C12.125 13.8452 11.8452 14.125 11.5 14.125C11.1548 14.125 10.875 13.8452 10.875 13.5C10.875 13.1548 11.1548 12.875 11.5 12.875C11.8452 12.875 12.125 13.1548 12.125 13.5Z" fill="#006CBF"/>
</g>
<defs>
<clipPath id="clip0_7201_63024">
<rect width="16" height="16" fill="white"/>
</clipPath>
</defs>
</svg>
