<svg width="16" height="16" viewBox="0 0 16 16" fill="none" xmlns="http://www.w3.org/2000/svg">
<g clip-path="url(#clip0_7201_63048)">
<path d="M6.0668 10.6403L2.85355 13.8536C2.65829 14.0488 2.34171 14.0488 2.14645 13.8536C1.95118 13.6583 1.95118 13.3417 2.14645 13.1464L5.98403 9.30885C5.36823 8.53901 5 7.56252 5 6.50002C5 4.01473 7.01472 2 9.5 2C11.9853 2 14 4.01473 14 6.50002C14 6.53315 13.9996 6.5662 13.9989 6.59916C13.6787 6.43556 13.3403 6.30241 12.9876 6.20355C12.8371 4.4093 11.3331 3 9.5 3C7.567 3 6 4.56701 6 6.50002C6 7.32932 6.28842 8.09126 6.77043 8.69099C6.42053 9.27886 6.17712 9.93749 6.0668 10.6403Z" fill="#5C2E91"/>
<path fill-rule="evenodd" clip-rule="evenodd" d="M8.99994 7.75839C9.73996 7.26392 10.61 7 11.5 7C12.6935 7 13.8381 7.47411 14.682 8.31802C15.5259 9.16193 16 10.3065 16 11.5C16 12.39 15.7361 13.26 15.2416 14.0001C14.7471 14.7401 14.0443 15.3169 13.2221 15.6575C12.3998 15.9981 11.495 16.0872 10.6221 15.9135C9.74918 15.7399 8.94736 15.3113 8.31802 14.682C7.68868 14.0526 7.2601 13.2508 7.08647 12.3779C6.91283 11.505 7.00195 10.6002 7.34254 9.77792C7.68314 8.95566 8.25991 8.25285 8.99994 7.75839ZM13.5 12.5C13.5 12.7652 13.3946 13.0196 13.2071 13.2071C13.0196 13.3946 12.7652 13.5 12.5 13.5H10.5C10.2348 13.5 9.98043 13.3946 9.79289 13.2071C9.60536 13.0196 9.5 12.7652 9.5 12.5V10.5C9.5 10.2348 9.60536 9.98043 9.79289 9.79289C9.98043 9.60536 10.2348 9.5 10.5 9.5H12.5C12.7652 9.5 13.0196 9.60536 13.2071 9.79289C13.3946 9.98043 13.5 10.2348 13.5 10.5V12.5Z" fill="#C50F1F"/>
</g>
<defs>
<clipPath id="clip0_7201_63048">
<rect width="16" height="16" fill="white"/>
</clipPath>
</defs>
</svg>
