<svg width="16" height="16" viewBox="0 0 16 16" fill="none" xmlns="http://www.w3.org/2000/svg">
<g clip-path="url(#clip0_7201_63044)">
<path d="M7.99939 10.7438C7.52099 10.5746 7.07973 10.3268 6.69113 10.016L2.85355 13.8536C2.65829 14.0488 2.34171 14.0488 2.14645 13.8536C1.95118 13.6583 1.95118 13.3417 2.14645 13.1464L5.98403 9.30885C5.36823 8.53901 5 7.56252 5 6.50002C5 4.01473 7.01472 2 9.5 2C11.9853 2 14 4.01473 14 6.50002C14 7.09447 13.8847 7.66201 13.6753 8.18149C13.3414 8.09374 12.9963 8.04401 12.6464 8.03487C12.8729 7.57144 13 7.05057 13 6.50002C13 4.56701 11.433 3 9.5 3C7.567 3 6 4.56701 6 6.50002C6 7.89598 6.81725 9.10107 7.99939 9.66292V10.7438Z" fill="#5C2E91"/>
<path d="M8.99933 9.49939V11.4994C8.99933 11.632 9.05201 11.7592 9.14578 11.8529C9.23954 11.9467 9.36672 11.9994 9.49933 11.9994H11.4993C11.6319 11.9994 11.7591 11.9467 11.8529 11.8529C11.9467 11.7592 11.9993 11.632 11.9993 11.4994C11.9993 11.3668 11.9467 11.2396 11.8529 11.1458C11.7591 11.0521 11.6319 10.9994 11.4993 10.9994H10.4993C10.5701 10.9049 10.6476 10.8157 10.7313 10.7324C11.2077 10.2778 11.8409 10.0242 12.4993 10.0242C13.1578 10.0242 13.791 10.2778 14.2673 10.7324C14.4995 10.9645 14.6838 11.2402 14.8094 11.5435C14.9351 11.8469 14.9998 12.172 14.9998 12.5004C14.9998 12.8287 14.9351 13.1539 14.8094 13.4573C14.6838 13.7606 14.4995 14.0362 14.2673 14.2684C13.7908 14.7227 13.1577 14.9762 12.4993 14.9762C11.8409 14.9762 11.2078 14.7227 10.7313 14.2684C10.637 14.1773 10.5107 14.1269 10.3796 14.1281C10.2485 14.1292 10.1231 14.1818 10.0304 14.2745C9.93772 14.3672 9.88513 14.4926 9.88399 14.6237C9.88285 14.7548 9.93325 14.8811 10.0243 14.9754C10.6807 15.6318 11.571 16.0006 12.4993 16.0006C13.4276 16.0006 14.3179 15.6318 14.9743 14.9754C15.6307 14.319 15.9995 13.4287 15.9995 12.5004C15.9995 11.5721 15.6307 10.6818 14.9743 10.0254C14.3075 9.38901 13.4211 9.03396 12.4993 9.03396C11.5775 9.03396 10.6912 9.38901 10.0243 10.0254L9.99933 10.0514V9.49939C9.99933 9.36678 9.94665 9.2396 9.85288 9.14584C9.75911 9.05207 9.63194 8.99939 9.49933 8.99939C9.36672 8.99939 9.23954 9.05207 9.14578 9.14584C9.05201 9.2396 8.99933 9.36678 8.99933 9.49939Z" fill="#006CBF"/>
</g>
<defs>
<clipPath id="clip0_7201_63044">
<rect width="16" height="16" fill="white"/>
</clipPath>
</defs>
</svg>
