<svg width="16" height="16" viewBox="0 0 16 16" fill="none" xmlns="http://www.w3.org/2000/svg">
<path fill-rule="evenodd" clip-rule="evenodd" d="M2.5 2H1.5C0.672 2 0 2.672 0 3.5V9.5C0 10.328 0.672 11 1.5 11H2.5C3.328 11 4 10.328 4 9.5V3.5C4 2.672 3.328 2 2.5 2ZM3 9.5C3 9.776 2.776 10 2.5 10H1.5C1.224 10 1 9.776 1 9.5V3.5C1 3.224 1.224 3 1.5 3H2.5C2.776 3 3 3.224 3 3.5V9.5Z" fill="#202020"/>
<path fill-rule="evenodd" clip-rule="evenodd" d="M8.5 2H7.5C6.672 2 6 2.672 6 3.5V9.5C6 10.328 6.672 11 7.5 11H8.5C9.328 11 10 10.328 10 9.5V3.5C10 2.672 9.328 2 8.5 2ZM9 9.5C9 9.776 8.776 10 8.5 10H7.5C7.224 10 7 9.776 7 9.5V3.5C7 3.224 7.224 3 7.5 3H8.5C8.776 3 9 3.224 9 3.5V9.5Z" fill="#202020"/>
<path fill-rule="evenodd" clip-rule="evenodd" d="M13.5 2H14.5C15.328 2 16 2.672 16 3.5V9.5C16 10.328 15.328 11 14.5 11H13.5C12.672 11 12 10.328 12 9.5V3.5C12 2.672 12.672 2 13.5 2ZM14.5 10C14.776 10 15 9.776 15 9.5V3.5C15 3.224 14.776 3 14.5 3H13.5C13.224 3 13 3.224 13 3.5V9.5C13 9.776 13.224 10 13.5 10H14.5Z" fill="#202020"/>
<path d="M6 12.5C6 12.224 6.224 12 6.5 12C6.776 12 7 12.224 7 12.5V14.5C7 14.776 6.776 15 6.5 15C6.224 15 6 14.776 6 14.5V14H4V14.5C4 14.776 3.776 15 3.5 15C3.224 15 3 14.776 3 14.5V12.5C3 12.224 3.224 12 3.5 12C3.776 12 4 12.224 4 12.5V13H6V12.5Z" fill="#006CBF"/>
<path d="M12 12.5C12 12.224 12.224 12 12.5 12C12.776 12 13 12.224 13 12.5V14.5C13 14.776 12.776 15 12.5 15C12.224 15 12 14.776 12 14.5V14H10V14.5C10 14.776 9.776 15 9.5 15C9.224 15 9 14.776 9 14.5V12.5C9 12.224 9.224 12 9.5 12C9.776 12 10 12.224 10 12.5V13H12V12.5Z" fill="#006CBF"/>
</svg>
