<svg width="16" height="16" viewBox="0 0 16 16" fill="none" xmlns="http://www.w3.org/2000/svg">
<path d="M5.87282 1C5.43053 1 5.04078 1.29055 4.91447 1.71442L3.03074 8.03581C2.88743 8.51673 3.24769 9 3.74951 9H5.33338L4.05299 13.3888C3.66907 14.7047 5.37726 15.5898 6.23096 14.5173L7 13.5512V11.9455L5.44856 13.8945C5.39618 13.9603 5.34467 13.9826 5.30213 13.9899C5.25354 13.9983 5.19467 13.9902 5.13794 13.9608C5.08121 13.9314 5.04067 13.888 5.0195 13.8434C5.00096 13.8045 4.98941 13.7496 5.01297 13.6688L6.48008 8.64003C6.52416 8.48895 6.49453 8.32593 6.4001 8.20001C6.30568 8.0741 6.15748 8 6.00009 8H4.08487L5.87282 2H10.2786L9.03193 5.32444C8.97435 5.47799 8.99572 5.65001 9.08913 5.7848C9.18254 5.91958 9.3361 6 9.50009 6H11.7326L10.9366 7H12.2147L12.8379 6.21709C13.229 5.72572 12.8791 5 12.2511 5H10.2216L11.2149 2.35112C11.4601 1.69737 10.9768 1 10.2786 1H5.87282Z" fill="#B27C00"/>
<path fill-rule="evenodd" clip-rule="evenodd" d="M10 8C8.89543 8 8 8.89543 8 10V14C8 15.1046 8.89543 16 10 16H14C15.1046 16 16 15.1046 16 14V10C16 8.89543 15.1046 8 14 8H10ZM10 10.5C10 10.2239 10.2239 10 10.5 10H13.5C13.7761 10 14 10.2239 14 10.5V13.5C14 13.7761 13.7761 14 13.5 14C13.2239 14 13 13.7761 13 13.5V11.7071L10.8536 13.8536C10.6583 14.0488 10.3417 14.0488 10.1464 13.8536C9.95118 13.6583 9.95118 13.3417 10.1464 13.1465L12.2929 11H10.5C10.2239 11 10 10.7761 10 10.5Z" fill="#202020"/>
</svg>
