<svg width="16" height="16" viewBox="0 0 16 16" fill="none" xmlns="http://www.w3.org/2000/svg">
<path d="M8 14C4.691 14 2 11.309 2 8C2 4.691 4.691 2 8 2C11.309 2 14 4.691 14 8C14 11.309 11.309 14 8 14ZM8 3C5.243 3 3 5.243 3 8C3 10.757 5.243 13 8 13C10.757 13 13 10.757 13 8C13 5.243 10.757 3 8 3Z" fill="#C50F1F"/>
<path d="M9.88398 7.82L7.38398 10.82C7.28598 10.937 7.14398 11 6.99998 11C6.92298 11 6.84598 10.982 6.77298 10.946C6.56498 10.84 6.45798 10.604 6.51498 10.379L7.10898 8H6.74998C6.58598 8 6.43298 7.92 6.33898 7.785C6.24598 7.65 6.22398 7.477 6.28198 7.324L7.03198 5.324C7.10498 5.129 7.29198 5 7.49998 5H9.24998C9.41398 5 9.56698 5.08 9.66098 5.215C9.75398 5.35 9.77598 5.523 9.71798 5.676L9.22098 7H9.49898C9.69298 7 9.86998 7.112 9.95198 7.288C10.035 7.464 10.008 7.671 9.88398 7.82Z" fill="#C50F1F"/>
</svg>
