<svg width="16" height="16" viewBox="0 0 16 16" fill="none" xmlns="http://www.w3.org/2000/svg">
<g clip-path="url(#clip0_7201_63190)">
<path d="M12.1405 11.8536C12.2342 11.9473 12.3614 12 12.494 12C12.6266 12 12.7538 11.9473 12.8476 11.8536C12.9413 11.7598 12.994 11.6326 12.994 11.5V4C12.994 3.46957 12.7833 2.96086 12.4082 2.58579C12.0332 2.21071 11.5245 2 10.994 2H4.99402C4.46359 2 3.95488 2.21071 3.5798 2.58579C3.20473 2.96086 2.99402 3.46957 2.99402 4V6H3.99402V4C3.99402 3.73478 4.09938 3.48043 4.28691 3.29289C4.47445 3.10536 4.7288 3 4.99402 3H10.994C11.2592 3 11.5136 3.10536 11.7011 3.29289C11.8887 3.48043 11.994 3.73478 11.994 4V11.5C11.994 11.6326 12.0467 11.7598 12.1405 11.8536Z" fill="#202020"/>
<path d="M4.98998 14L5.48091 13.3863C5.48956 13.4233 5.49402 13.4614 5.49402 13.5C5.49402 13.6326 5.44134 13.7598 5.34757 13.8536C5.2538 13.9473 5.12663 14 4.99402 14H4.98998Z" fill="#202020"/>
<path d="M6.99402 13H8.99402C9.12663 13 9.2538 13.0527 9.34757 13.1464C9.44134 13.2402 9.49402 13.3674 9.49402 13.5C9.49402 13.6326 9.44134 13.7598 9.34757 13.8536C9.2538 13.9473 9.12663 14 8.99402 14H6.99402C6.86141 14 6.73423 13.9473 6.64047 13.8536C6.5467 13.7598 6.49402 13.6326 6.49402 13.5C6.49402 13.3674 6.5467 13.2402 6.64047 13.1464C6.73423 13.0527 6.86141 13 6.99402 13Z" fill="#202020"/>
<path d="M10.994 13H12.494C12.6266 13 12.7538 13.0527 12.8476 13.1464C12.9413 13.2402 12.994 13.3674 12.994 13.5C12.994 13.6326 12.9413 13.7598 12.8476 13.8536C12.7538 13.9473 12.6266 14 12.494 14H10.994C10.8614 14 10.7342 13.9473 10.6405 13.8536C10.5467 13.7598 10.494 13.6326 10.494 13.5C10.494 13.3674 10.5467 13.2402 10.6405 13.1464C10.7342 13.0527 10.8614 13 10.994 13Z" fill="#202020"/>
<path d="M1.636 16C1.324 16 1.038 15.858 0.851003 15.61C0.663003 15.362 0.603003 15.048 0.687003 14.748L1.459 12H0.494003C0.335003 12 0.185003 11.924 0.0910027 11.796C-0.00299732 11.668 -0.0299973 11.502 0.0170027 11.351L1.267 7.351C1.332 7.142 1.526 7 1.745 7H4.87C5.034 7 5.187 7.081 5.281 7.215C5.374 7.35 5.395 7.522 5.338 7.675L4.467 9.999H5.87C6.062 9.999 6.237 10.109 6.32 10.282C6.404 10.455 6.381 10.661 6.26 10.811L2.406 15.629C2.218 15.863 1.938 15.999 1.636 15.999V16Z" fill="#B27C00"/>
</g>
<defs>
<clipPath id="clip0_7201_63190">
<rect width="16" height="16" fill="white"/>
</clipPath>
</defs>
</svg>
