<svg width="16" height="16" viewBox="0 0 16 16" fill="none" xmlns="http://www.w3.org/2000/svg">
<path d="M8 2C4.691 2 2 4.691 2 8C2 11.309 4.691 14 8 14C11.309 14 14 11.309 14 8C14 4.691 11.309 2 8 2ZM9.884 7.82L7.384 10.82C7.286 10.937 7.144 11 7 11C6.923 11 6.846 10.982 6.773 10.946C6.565 10.84 6.458 10.604 6.515 10.379L7.109 8H6.75C6.586 8 6.433 7.92 6.339 7.785C6.246 7.65 6.224 7.477 6.282 7.324L7.032 5.324C7.105 5.129 7.292 5 7.5 5H9.25C9.414 5 9.567 5.08 9.661 5.215C9.754 5.35 9.776 5.523 9.718 5.676L9.221 7H9.499C9.693 7 9.87 7.112 9.952 7.288C10.035 7.464 10.008 7.671 9.884 7.82Z" fill="#C50F1F"/>
</svg>
