<svg width="16" height="16" viewBox="0 0 16 16" fill="none" xmlns="http://www.w3.org/2000/svg">
<g clip-path="url(#clip0_7201_63089)">
<path fill-rule="evenodd" clip-rule="evenodd" d="M4.40438 6.78196L4.03074 8.03581C3.88743 8.51673 4.24769 9 4.74951 9H6.33338L5.05299 13.3888C4.66907 14.7047 6.37726 15.5898 7.23096 14.5173L13.8379 6.21709C14.229 5.72572 13.8791 5 13.2511 5H11.2216L12.2149 2.35112C12.4601 1.69737 11.9768 1 11.2786 1L6.96773 1C6.96728 1.00233 6.96682 1.00465 6.96636 1.00698C6.9007 1.33793 6.73843 1.64199 6.50006 1.88077L5.59502 2.78641L5.00006 4.78299V5.71777C4.99953 6.04913 4.86767 6.36677 4.63336 6.60107C4.56378 6.67066 4.48684 6.73121 4.40438 6.78196ZM6.87282 2H11.2786L10.0319 5.32444C9.97435 5.47799 9.99572 5.65001 10.0891 5.7848C10.1825 5.91958 10.3361 6 10.5001 6H12.7326L6.44856 13.8945C6.39618 13.9603 6.34467 13.9826 6.30213 13.9899C6.25354 13.9983 6.19467 13.9902 6.13794 13.9608C6.08121 13.9314 6.04067 13.888 6.0195 13.8434C6.00096 13.8045 5.98941 13.7496 6.01297 13.6688L7.48008 8.64003C7.52416 8.48895 7.49453 8.32593 7.4001 8.20001C7.30568 8.0741 7.15748 8 7.00009 8H5.08487L6.87282 2Z" fill="#B27C00"/>
<path d="M5.29303 -0.0322265H0.707029C0.567176 -0.0322564 0.430455 0.00919217 0.314162 0.0868763C0.197869 0.16456 0.107227 0.27499 0.0537039 0.404196C0.000180263 0.533402 -0.0138209 0.675579 0.0134713 0.812744C0.0407636 0.949908 0.108123 1.0759 0.207029 1.17477L2.00003 2.96777V4.96777C2.00001 5.0141 2.01291 5.05952 2.03729 5.09891C2.06167 5.13831 2.09656 5.17012 2.13803 5.19077L3.63803 5.94077C3.67266 5.95862 3.71107 5.96788 3.75003 5.96777C3.81633 5.96777 3.87992 5.94143 3.92681 5.89455C3.97369 5.84767 4.00003 5.78408 4.00003 5.71777V2.96777L5.79303 1.17477C5.89194 1.0759 5.95929 0.949908 5.98659 0.812744C6.01388 0.675579 5.99988 0.533402 5.94635 0.404196C5.89283 0.27499 5.80219 0.16456 5.6859 0.0868763C5.5696 0.00919217 5.43288 -0.0322564 5.29303 -0.0322265V-0.0322265Z" fill="#006CBF"/>
</g>
<defs>
<clipPath id="clip0_7201_63089">
<rect width="16" height="16" fill="white"/>
</clipPath>
</defs>
</svg>
