<svg width="16" height="16" viewBox="0 0 16 16" fill="none" xmlns="http://www.w3.org/2000/svg">
<g clip-path="url(#clip0_7201_63236)">
<path d="M5.87282 1C5.43053 1 5.04078 1.29055 4.91447 1.71442L3.03074 8.03581C2.88743 8.51673 3.24769 9 3.74951 9H5.33338L4.05299 13.3888C3.69875 14.603 5.1257 15.4504 6.01905 14.7316C6.04897 14.5164 6.11404 14.3055 6.21351 14.1079L7.79253 10.9498L5.44856 13.8945C5.39618 13.9603 5.34467 13.9826 5.30213 13.9899C5.25354 13.9983 5.19467 13.9902 5.13794 13.9608C5.08121 13.9314 5.04067 13.888 5.0195 13.8434C5.00096 13.8045 4.98941 13.7496 5.01297 13.6688L6.48008 8.64003C6.52416 8.48895 6.49453 8.32593 6.4001 8.20001C6.30568 8.0741 6.15748 8 6.00009 8H4.08487L5.87282 2H10.2786L9.03193 5.32444C8.97435 5.47799 8.99572 5.65001 9.08913 5.7848C9.18254 5.91958 9.3361 6 9.50009 6H11.7326L11.7229 6.01207C12.0176 6.0446 12.3024 6.14237 12.5561 6.29937C12.6043 6.32924 12.6512 6.36106 12.6965 6.39474L12.8379 6.21709C13.229 5.72572 12.8791 5 12.2511 5H10.2216L11.2149 2.35112C11.4601 1.69737 10.9768 1 10.2786 1H5.87282Z" fill="#B27C00"/>
<path fill-rule="evenodd" clip-rule="evenodd" d="M12.3931 7.55201L15.8931 14.552C15.9694 14.7044 16.0056 14.8738 15.9981 15.044C15.9906 15.2143 15.9397 15.3799 15.8502 15.5249C15.7607 15.67 15.6357 15.7898 15.4869 15.8729C15.3381 15.9561 15.1705 15.9998 15.0001 16H8.00006C7.8292 16.0007 7.66101 15.9576 7.51154 15.8748C7.36207 15.792 7.23631 15.6723 7.14625 15.5271C7.0562 15.3818 7.00486 15.216 6.99712 15.0453C6.98938 14.8746 7.02551 14.7048 7.10206 14.552L10.6021 7.55201C10.6849 7.38534 10.8126 7.24509 10.9708 7.14705C11.129 7.04901 11.3114 6.99707 11.4976 6.99707C11.6837 6.99707 11.8661 7.04901 12.0243 7.14705C12.1825 7.24509 12.3102 7.38534 12.3931 7.55201ZM12 12.495V9.495C12 9.36239 11.9473 9.23521 11.8536 9.14144C11.7598 9.04767 11.6326 8.995 11.5 8.995C11.3674 8.995 11.2402 9.04767 11.1464 9.14144C11.0527 9.23521 11 9.36239 11 9.495V12.495C11 12.6276 11.0527 12.7548 11.1464 12.8485C11.2402 12.9423 11.3674 12.995 11.5 12.995C11.6326 12.995 11.7598 12.9423 11.8536 12.8485C11.9473 12.7548 12 12.6276 12 12.495ZM11.2222 14.0843C11.3044 14.0293 11.4011 14 11.5 14C11.6326 14 11.7598 14.0527 11.8536 14.1464C11.9473 14.2402 12 14.3674 12 14.5C12 14.5989 11.9707 14.6956 11.9157 14.7778C11.8608 14.86 11.7827 14.9241 11.6913 14.9619C11.6 14.9998 11.4994 15.0097 11.4025 14.9904C11.3055 14.9711 11.2164 14.9235 11.1464 14.8535C11.0765 14.7836 11.0289 14.6945 11.0096 14.5975C10.9903 14.5006 11.0002 14.4 11.0381 14.3087C11.0759 14.2173 11.14 14.1392 11.2222 14.0843Z" fill="#B27C00"/>
</g>
<defs>
<clipPath id="clip0_7201_63236">
<rect width="16" height="16" fill="white"/>
</clipPath>
</defs>
</svg>
