<svg width="16" height="16" viewBox="0 0 16 16" fill="none" xmlns="http://www.w3.org/2000/svg">
<path d="M14.412 6.58601L9.412 1.58501C9.037 1.21101 8.529 1.00101 8 1.00101C7.471 1.00101 6.963 1.21101 6.588 1.58501L1.587 6.58601C1.212 6.96101 1.001 7.47001 1.001 8.00001C1.001 8.53001 1.212 9.03901 1.587 9.41401L6.588 14.414C6.963 14.788 7.471 14.998 8 14.998C8.529 14.998 9.038 14.788 9.413 14.414L14.413 9.41401C14.788 9.03901 14.999 8.53001 14.999 8.00001C14.999 7.47001 14.788 6.96101 14.413 6.58601H14.412ZM9.883 7.82001L7.383 10.82C7.285 10.937 7.143 11 6.999 11C6.922 11 6.845 10.982 6.772 10.946C6.564 10.84 6.457 10.604 6.514 10.379L7.108 8.00001H6.749C6.585 8.00001 6.432 7.92001 6.338 7.78501C6.245 7.65001 6.223 7.47701 6.281 7.32401L7.031 5.32401C7.104 5.12901 7.291 5.00001 7.499 5.00001H9.249C9.413 5.00001 9.566 5.08001 9.66 5.21501C9.753 5.35001 9.775 5.52301 9.717 5.67601L9.22 7.00001H9.498C9.692 7.00001 9.869 7.11201 9.951 7.28801C10.034 7.46401 10.007 7.67101 9.883 7.82001Z" fill="#C50F1F"/>
</svg>
