<svg width="16" height="16" viewBox="0 0 16 16" fill="none" xmlns="http://www.w3.org/2000/svg">
<path fill-rule="evenodd" clip-rule="evenodd" d="M13.5 0H7.5C6.672 0 6 0.672 6 1.5V2.5C6 3.328 6.672 4 7.5 4H13.5C14.328 4 15 3.328 15 2.5V1.5C15 0.672 14.328 0 13.5 0ZM14 2.5C14 2.776 13.776 3 13.5 3H7.5C7.224 3 7 2.776 7 2.5V1.5C7 1.224 7.224 1 7.5 1H13.5C13.776 1 14 1.224 14 1.5V2.5Z" fill="#202020"/>
<path fill-rule="evenodd" clip-rule="evenodd" d="M13.5 6H7.5C6.672 6 6 6.672 6 7.5V8.5C6 9.328 6.672 10 7.5 10H13.5C14.328 10 15 9.328 15 8.5V7.5C15 6.672 14.328 6 13.5 6ZM14 8.5C14 8.776 13.776 9 13.5 9H7.5C7.224 9 7 8.776 7 8.5V7.5C7 7.224 7.224 7 7.5 7H13.5C13.776 7 14 7.224 14 7.5V8.5Z" fill="#202020"/>
<path fill-rule="evenodd" clip-rule="evenodd" d="M7.5 12H13.5C14.328 12 15 12.672 15 13.5V14.5C15 15.328 14.328 16 13.5 16H7.5C6.672 16 6 15.328 6 14.5V13.5C6 12.672 6.672 12 7.5 12ZM13.5 15C13.776 15 14 14.776 14 14.5V13.5C14 13.224 13.776 13 13.5 13H7.5C7.224 13 7 13.224 7 13.5V14.5C7 14.776 7.224 15 7.5 15H13.5Z" fill="#202020"/>
<path d="M1.5 4H2V6H1.5C1.224 6 1 6.224 1 6.5C1 6.776 1.224 7 1.5 7H3.5C3.776 7 4 6.776 4 6.5C4 6.224 3.776 6 3.5 6H3V4H3.5C3.776 4 4 3.776 4 3.5C4 3.224 3.776 3 3.5 3H1.5C1.224 3 1 3.224 1 3.5C1 3.776 1.224 4 1.5 4Z" fill="#006CBF"/>
<path d="M1 9.5C1 9.776 1.224 10 1.5 10H2V12H1.5C1.224 12 1 12.224 1 12.5C1 12.776 1.224 13 1.5 13H3.5C3.776 13 4 12.776 4 12.5C4 12.224 3.776 12 3.5 12H3V10H3.5C3.776 10 4 9.776 4 9.5C4 9.224 3.776 9 3.5 9H1.5C1.224 9 1 9.224 1 9.5Z" fill="#006CBF"/>
</svg>
