<svg width="16" height="16" viewBox="0 0 16 16" fill="none" xmlns="http://www.w3.org/2000/svg">
<path d="M8 8.75097C8.27614 8.75097 8.5 8.52711 8.5 8.25097V5.25097C8.5 4.97482 8.27614 4.75097 8 4.75097C7.72386 4.75097 7.5 4.97482 7.5 5.25097V8.25097C7.5 8.52711 7.72386 8.75097 8 8.75097Z" fill="#202020"/>
<path d="M8.74905 10.2509C8.74905 9.83725 8.41369 9.5019 8.00001 9.5019C7.58633 9.5019 7.25098 9.83725 7.25098 10.2509C7.25098 10.6646 7.58633 11 8.00001 11C8.41369 11 8.74905 10.6646 8.74905 10.2509Z" fill="#202020"/>
<path fill-rule="evenodd" clip-rule="evenodd" d="M4.5 2C3.11929 2 2 3.11929 2 4.5V11.5C2 12.8807 3.11929 14 4.5 14H11.5C12.8807 14 14 12.8807 14 11.5V4.5C14 3.11929 12.8807 2 11.5 2H4.5ZM3 4.5C3 3.67157 3.67157 3 4.5 3H11.5C12.3284 3 13 3.67157 13 4.5V11.5C13 12.3284 12.3284 13 11.5 13H4.5C3.67157 13 3 12.3284 3 11.5V4.5Z" fill="#202020"/>
</svg>
