<svg width="16" height="16" viewBox="0 0 16 16" fill="none" xmlns="http://www.w3.org/2000/svg">
<g clip-path="url(#clip0_7201_63260)">
<path d="M2 4.5C2 3.11929 3.11929 2 4.5 2H11.5C12.8807 2 14 3.11929 14 4.5V9.00025C13.9094 9.00126 13.8187 9.00637 13.7281 9.0156C13.4787 9.04103 13.2342 9.09741 13 9.18294V4.5C13 3.67157 12.3284 3 11.5 3H4.5C3.67157 3 3 3.67157 3 4.5V11.5C3 12.3284 3.67157 13 4.5 13H8.20201C8.20332 13.0033 8.20465 13.0067 8.20597 13.01C8.35371 13.3816 8.57671 13.7187 8.86096 14H4.5C3.11929 14 2 12.8807 2 11.5V4.5Z" fill="#202020"/>
<path d="M8.71647 10.0317C8.54239 10.2309 8.39574 10.4533 8.28097 10.693C8.23611 10.7875 8.19647 10.8841 8.16218 10.9824C8.10996 10.9939 8.0557 11 8.00001 11C7.58633 11 7.25098 10.6646 7.25098 10.2509C7.25098 9.83725 7.58633 9.5019 8.00001 9.5019C8.33743 9.5019 8.62274 9.72501 8.71647 10.0317Z" fill="#202020"/>
<path d="M8 8.75097C8.27614 8.75097 8.5 8.52711 8.5 8.25097V5.25097C8.5 4.97482 8.27614 4.75097 8 4.75097C7.72386 4.75097 7.5 4.97482 7.5 5.25097V8.25097C7.5 8.52711 7.72386 8.75097 8 8.75097Z" fill="#202020"/>
<path d="M15.9999 11.93C15.9998 12.1828 15.9492 12.4331 15.8512 12.6661C15.7531 12.8991 15.6096 13.1102 15.4289 13.287L12.8069 15.873C12.7661 15.9133 12.7179 15.9452 12.6649 15.967C12.6125 15.9884 12.5565 15.9996 12.4999 16C12.4423 16.0002 12.3852 15.989 12.3319 15.967C12.2786 15.9452 12.23 15.9133 12.1889 15.873L9.56389 13.287C9.37754 13.1023 9.23147 12.881 9.13489 12.637C9.03742 12.3952 8.99144 12.1356 8.99989 11.875C9.00882 11.614 9.07146 11.3577 9.18389 11.122C9.29686 10.8845 9.45753 10.6727 9.65589 10.5C9.85489 10.3258 10.0868 10.1932 10.3379 10.11C10.5904 10.0265 10.8569 9.99391 11.1221 10.014C11.3873 10.0341 11.6458 10.1065 11.8829 10.227C12.1181 10.3466 12.3266 10.5126 12.4959 10.715C12.7552 10.403 13.1044 10.1784 13.4959 10.072C13.8881 9.96308 14.3042 9.97598 14.6889 10.109C15.0712 10.2405 15.4036 10.4867 15.6409 10.814C15.8752 11.1381 16.0009 11.5281 15.9999 11.928V11.93Z" fill="#202020"/>
</g>
<defs>
<clipPath id="clip0_7201_63260">
<rect width="16" height="16" fill="white"/>
</clipPath>
</defs>
</svg>
