<svg width="16" height="16" viewBox="0 0 16 16" fill="none" xmlns="http://www.w3.org/2000/svg">
<g clip-path="url(#clip0_7201_63293)">
<path d="M2 4.5C2 3.11929 3.11929 2 4.5 2H11.5C12.8807 2 14 3.11929 14 4.5V8.25606C13.6816 8.14352 13.3467 8.06579 13 8.02746V4.5C13 3.67157 12.3284 3 11.5 3H4.5C3.67157 3 3 3.67157 3 4.5V11.5C3 12.3284 3.67157 13 4.5 13H8.02746C8.06579 13.3467 8.14352 13.6816 8.25606 14H4.5C3.11929 14 2 12.8807 2 11.5V4.5Z" fill="#202020"/>
<path d="M8.72268 10.0532C8.54191 10.3317 8.39109 10.6315 8.27482 10.948C8.18973 10.9815 8.09703 11 8.00001 11C7.58633 11 7.25098 10.6646 7.25098 10.2509C7.25098 9.83725 7.58633 9.5019 8.00001 9.5019C8.34526 9.5019 8.63596 9.73548 8.72268 10.0532Z" fill="#202020"/>
<path d="M8 8.75097C8.27614 8.75097 8.5 8.52711 8.5 8.25097V5.25097C8.5 4.97482 8.27614 4.75097 8 4.75097C7.72386 4.75097 7.5 4.97482 7.5 5.25097V8.25097C7.5 8.52711 7.72386 8.75097 8 8.75097Z" fill="#202020"/>
<path fill-rule="evenodd" clip-rule="evenodd" d="M12.5 16C14.433 16 16 14.433 16 12.5C16 10.567 14.433 9 12.5 9C10.567 9 9 10.567 9 12.5C9 14.433 10.567 16 12.5 16ZM15 12.5C15 13.8807 13.8807 15 12.5 15C11.9905 15 11.5165 14.8476 11.1213 14.5858L14.5858 11.1213C14.8476 11.5165 15 11.9905 15 12.5ZM10.4142 13.8787L13.8787 10.4142C13.4835 10.1524 13.0095 10 12.5 10C11.1193 10 10 11.1193 10 12.5C10 13.0095 10.1524 13.4835 10.4142 13.8787Z" fill="#202020"/>
</g>
<defs>
<clipPath id="clip0_7201_63293">
<rect width="16" height="16" fill="white"/>
</clipPath>
</defs>
</svg>
