<svg width="16" height="16" viewBox="0 0 16 16" fill="none" xmlns="http://www.w3.org/2000/svg">
<g clip-path="url(#clip0_7201_63280)">
<path d="M2 4.5C2 3.11929 3.11929 2 4.5 2H11.5C12.8807 2 14 3.11929 14 4.5V9.39248C13.9356 9.33277 13.8658 9.27869 13.7912 9.23103C13.5549 9.08013 13.2804 8.99992 13 8.99982V4.5C13 3.67157 12.3284 3 11.5 3H4.5C3.67157 3 3 3.67157 3 4.5V11.5C3 12.3284 3.67157 13 4.5 13H9.12099C9.19469 13.1724 9.30028 13.3303 9.43298 13.465L9.95926 14H4.5C3.11929 14 2 12.8807 2 11.5V4.5Z" fill="#202020"/>
<path d="M8 8.75097C8.27614 8.75097 8.5 8.52711 8.5 8.25097V5.25097C8.5 4.97482 8.27614 4.75097 8 4.75097C7.72386 4.75097 7.5 4.97482 7.5 5.25097V8.25097C7.5 8.52711 7.72386 8.75097 8 8.75097Z" fill="#202020"/>
<path d="M8.74905 10.2509C8.74905 9.83725 8.41369 9.5019 8.00001 9.5019C7.58633 9.5019 7.25098 9.83725 7.25098 10.2509C7.25098 10.6646 7.58633 11 8.00001 11C8.41369 11 8.74905 10.6646 8.74905 10.2509Z" fill="#202020"/>
<path d="M12.5701 10.279C12.6072 10.196 12.6676 10.1255 12.7439 10.076C12.8202 10.0266 12.9092 10.0002 13.0001 10.0002C13.091 10.0002 13.18 10.0266 13.2563 10.076C13.3327 10.1255 13.393 10.196 13.4301 10.279L14.0971 11.688L15.5891 11.914C15.6793 11.9313 15.7632 11.9727 15.8317 12.0338C15.9002 12.095 15.9509 12.1736 15.9782 12.2613C16.0055 12.349 16.0085 12.4424 15.9868 12.5317C15.9651 12.621 15.9196 12.7026 15.8551 12.768L14.7751 13.868L15.0301 15.417C15.0489 15.507 15.0418 15.6005 15.0094 15.6865C14.9771 15.7725 14.9209 15.8476 14.8475 15.9029C14.7741 15.9581 14.6864 15.9914 14.5948 15.9987C14.5032 16.006 14.4114 15.987 14.3301 15.944L13.0001 15.21L11.6661 15.941C11.5849 15.984 11.4931 16.003 11.4014 15.9957C11.3098 15.9884 11.2222 15.9551 11.1487 15.8999C11.0753 15.8446 11.0191 15.7695 10.9868 15.6835C10.9545 15.5975 10.9473 15.504 10.9661 15.414L11.2211 13.865L10.1411 12.765C10.0766 12.6996 10.0311 12.618 10.0094 12.5287C9.98776 12.4394 9.99074 12.346 10.0181 12.2583C10.0454 12.1706 10.096 12.092 10.1645 12.0308C10.233 11.9697 10.3169 11.9283 10.4071 11.911L11.8991 11.685L12.5701 10.279Z" fill="#202020"/>
</g>
<defs>
<clipPath id="clip0_7201_63280">
<rect width="16" height="16" fill="white"/>
</clipPath>
</defs>
</svg>
