<svg width="16" height="16" viewBox="0 0 16 16" fill="none" xmlns="http://www.w3.org/2000/svg">
<g clip-path="url(#clip0_7201_63347)">
<path d="M2 3.49968C2 2.35243 3.2355 1.62986 4.23541 2.19233L11.0383 6.0191C8.21681 6.25358 6 8.61791 6 11.5C6 11.9251 6.04822 12.3389 6.1395 12.7363L4.23537 13.8073C3.23546 14.3698 2 13.6472 2 12.5V3.49968Z" fill="#11910D"/>
<path fill-rule="evenodd" clip-rule="evenodd" d="M8.99994 7.75839C9.73996 7.26392 10.61 7 11.5 7C12.6935 7 13.8381 7.47411 14.682 8.31802C15.5259 9.16193 16 10.3065 16 11.5C16 12.39 15.7361 13.26 15.2416 14.0001C14.7471 14.7401 14.0443 15.3169 13.2221 15.6575C12.3998 15.9981 11.495 16.0872 10.6221 15.9135C9.74918 15.7399 8.94736 15.3113 8.31802 14.682C7.68868 14.0526 7.2601 13.2508 7.08647 12.3779C6.91283 11.505 7.00195 10.6002 7.34254 9.77792C7.68314 8.95566 8.25991 8.25285 8.99994 7.75839ZM9.5 12H13.5C13.6326 12 13.7598 11.9473 13.8536 11.8536C13.9473 11.7598 14 11.6326 14 11.5C14 11.3674 13.9473 11.2402 13.8536 11.1464C13.7598 11.0527 13.6326 11 13.5 11H9.5C9.36739 11 9.24021 11.0527 9.14645 11.1464C9.05268 11.2402 9 11.3674 9 11.5C9 11.6326 9.05268 11.7598 9.14645 11.8536C9.24021 11.9473 9.36739 12 9.5 12Z" fill="#C50F1F"/>
</g>
<defs>
<clipPath id="clip0_7201_63347">
<rect width="16" height="16" fill="white"/>
</clipPath>
</defs>
</svg>
