<svg width="16" height="16" viewBox="0 0 16 16" fill="none" xmlns="http://www.w3.org/2000/svg">
<g clip-path="url(#clip0_7201_63351)">
<path d="M13.25 1H6.75C5.784 1 5 1.784 5 2.75V6H6V2.75C6 2.336 6.336 2 6.75 2H13.25C13.664 2 14 2.336 14 2.75V12.25C14 12.664 13.664 13 13.25 13H10V13.5C10 13.6683 9.9881 13.8353 9.96458 14H13.25C14.216 14 15 13.216 15 12.25V2.75C15 1.784 14.216 1 13.25 1Z" fill="#202020"/>
<path d="M10 11H12.5C12.776 11 13 10.776 13 10.5C13 10.224 12.776 10 12.5 10H10V11Z" fill="#202020"/>
<path d="M9.66206 8H12.5C12.776 8 13 7.776 13 7.5C13 7.224 12.776 7 12.5 7H8.94722C9.2405 7.28714 9.48362 7.62532 9.66206 8Z" fill="#202020"/>
<path d="M12.5 4H7.5C7.224 4 7 4.224 7 4.5C7 4.776 7.224 5 7.5 5H12.5C12.776 5 13 4.776 13 4.5C13 4.224 12.776 4 12.5 4Z" fill="#202020"/>
<path fill-rule="evenodd" clip-rule="evenodd" d="M2.5 7H6.5C7.881 7 8.999 8.119 8.999 9.5V13.5C8.999 14.01 8.847 14.484 8.585 14.879L5.56 11.854C4.975 11.268 4.025 11.268 3.439 11.854L0.414 14.879C0.152 14.484 0 14.01 0 13.5V9.5C0 8.119 1.119 7 2.5 7ZM5.5 9.75C5.5 10.164 5.836 10.5 6.25 10.5C6.664 10.5 7 10.164 7 9.75C7 9.336 6.664 9 6.25 9C5.836 9 5.5 9.336 5.5 9.75Z" fill="#202020"/>
<path d="M2.50009 16C1.99009 16 1.51609 15.848 1.12109 15.586L4.14709 12.561C4.34209 12.366 4.65909 12.366 4.85409 12.561L7.87909 15.586C7.48309 15.848 7.01009 16 6.50009 16H2.50009Z" fill="#202020"/>
</g>
<defs>
<clipPath id="clip0_7201_63351">
<rect width="16" height="16" fill="white"/>
</clipPath>
</defs>
</svg>
