<svg width="16" height="16" viewBox="0 0 16 16" fill="none" xmlns="http://www.w3.org/2000/svg">
<g clip-path="url(#clip0_7201_63361)">
<path d="M2 9.40029C2.31679 9.56223 2.65136 9.69436 3 9.79297V12.5C3 13.327 3.673 14 4.5 14H13.5C14.327 14 15 13.327 15 12.5V6.5C15 6.224 15.224 6 15.5 6C15.776 6 16 6.224 16 6.5V12.5C16 13.879 14.879 15 13.5 15H4.5C3.121 15 2 13.879 2 12.5L2 9.40029Z" fill="#202020"/>
<path d="M5.36037 9.9331C5.19297 9.9594 5.02307 9.97814 4.85103 9.98898C4.89963 9.99624 4.94938 10 5 10C5.12705 10 5.24856 9.97631 5.36037 9.9331Z" fill="#202020"/>
<path d="M8.04384 8.70625C8.01534 8.79913 8 8.89778 8 9C8 9.55228 8.44772 10 9 10C9.55228 10 10 9.55228 10 9C10 8.44771 9.55228 8 9 8C8.89778 8 8.79913 8.01534 8.70625 8.04384C8.5046 8.28294 8.28294 8.5046 8.04384 8.70625Z" fill="#202020"/>
<path d="M7 13C7.55228 13 8 12.5523 8 12C8 11.4477 7.55228 11 7 11C6.44772 11 6 11.4477 6 12C6 12.5523 6.44772 13 7 13Z" fill="#202020"/>
<path d="M11 13C11.5523 13 12 12.5523 12 12C12 11.4477 11.5523 11 11 11C10.4477 11 10 11.4477 10 12C10 12.5523 10.4477 13 11 13Z" fill="#202020"/>
<path d="M13 10C13.5523 10 14 9.55228 14 9C14 8.44771 13.5523 8 13 8C12.4477 8 12 8.44771 12 9C12 9.55228 12.4477 10 13 10Z" fill="#202020"/>
<path d="M9.89049 5.5975L10.147 5.854C10.342 6.049 10.659 6.049 10.854 5.854L12.854 3.854C13.049 3.659 13.049 3.342 12.854 3.147C12.756 3.05 12.628 3.001 12.5 3.001C12.372 3.001 12.244 3.049 12.146 3.147L11 4.293V0.5C11 0.224 10.776 0 10.5 0C10.224 0 9.99998 0.224 9.99998 0.5V4.293L9.99603 4.28905C9.99867 4.35904 10 4.42936 10 4.5C10 4.87583 9.9623 5.24286 9.89049 5.5975Z" fill="#006CBF"/>
<path fill-rule="evenodd" clip-rule="evenodd" d="M1.99994 0.758387C2.73996 0.26392 3.60999 0 4.5 0C5.69348 0 6.83807 0.474106 7.68198 1.31802C8.5259 2.16193 9 3.30653 9 4.5C9 5.39002 8.73608 6.26004 8.24162 7.00007C7.74715 7.74009 7.04434 8.31686 6.22208 8.65746C5.39981 8.99805 4.49501 9.08717 3.6221 8.91353C2.74918 8.7399 1.94736 8.31132 1.31802 7.68198C0.688685 7.05264 0.260102 6.25082 0.0864683 5.37791C-0.0871652 4.50499 0.00194976 3.60019 0.342544 2.77792C0.683138 1.95566 1.25991 1.25285 1.99994 0.758387ZM6.713 4.937L3.743 6.587C3.66689 6.62932 3.58104 6.65103 3.49396 6.64998C3.40688 6.64893 3.32158 6.62515 3.24652 6.581C3.17145 6.53685 3.10922 6.47386 3.06598 6.39826C3.02274 6.32266 3 6.23708 3 6.15V2.85C3 2.76291 3.02274 2.67733 3.06598 2.60173C3.10922 2.52614 3.17145 2.46315 3.24652 2.41899C3.32158 2.37484 3.40688 2.35106 3.49396 2.35001C3.58104 2.34896 3.66689 2.37067 3.743 2.413L6.713 4.063C6.79091 4.10631 6.85582 4.16967 6.90101 4.2465C6.94621 4.32334 6.97004 4.41086 6.97004 4.5C6.97004 4.58914 6.94621 4.67666 6.90101 4.75349C6.85582 4.83033 6.79091 4.89368 6.713 4.937Z" fill="#11910D"/>
</g>
<defs>
<clipPath id="clip0_7201_63361">
<rect width="16" height="16" fill="white"/>
</clipPath>
</defs>
</svg>
