<svg width="16" height="16" viewBox="0 0 16 16" fill="none" xmlns="http://www.w3.org/2000/svg">
<g clip-path="url(#clip0_7201_63377)">
<path d="M3.00386 4.62475C3.00077 4.58339 2.99947 4.54176 3 4.49997C3.00001 4.32954 3.02945 4.16039 3.087 3.99997H2.16649C2.05926 4.20802 2 4.44247 2 4.68685V11.3133C2 11.9339 2.38224 12.4905 2.96153 12.7133L7.92306 14.6216C8.61627 14.8882 9.38373 14.8882 10.0769 14.6216L15.0385 12.7133C15.6178 12.4905 16 11.9339 16 11.3133V4.68685C16 4.06619 15.6178 3.50964 15.0385 3.28683L10.0769 1.37855C9.38373 1.11193 8.61627 1.11193 7.92306 1.37855L7.61099 1.49858C7.72657 1.62406 7.81958 1.76885 7.88567 1.92655C7.95159 2.08383 7.98958 2.25118 7.99814 2.42109L8.28204 2.3119C8.74418 2.13415 9.25582 2.13415 9.71796 2.3119L14.6795 4.22018C14.8726 4.29445 15 4.47997 15 4.68685V11.3133C15 11.5201 14.8726 11.7057 14.6795 11.7799L9.71796 13.6882C9.25582 13.866 8.74418 13.866 8.28204 13.6882L3.32051 11.7799C3.12741 11.7057 3 11.5201 3 11.3133V4.68685C3 4.6659 3.00131 4.64517 3.00386 4.62475Z" fill="#202020"/>
<path d="M5.557 5.55697L5.96053 5.15344L8.99988 6.45602L12.3029 5.04043C12.5567 4.93166 12.8507 5.04923 12.9595 5.30305C13.0682 5.55686 12.9507 5.8508 12.6968 5.95958L9.49988 7.3297V10.5C9.49988 10.7761 9.27603 11 8.99988 11C8.72374 11 8.49988 10.7761 8.49988 10.5V7.3297L5.30292 5.95958C5.24324 5.934 5.19109 5.89818 5.14765 5.85506C5.30044 5.78075 5.43908 5.67988 5.557 5.55697Z" fill="#202020"/>
<path d="M6.85 2.85003L4.85 4.85003C4.80488 4.89747 4.75059 4.93524 4.69042 4.96106C4.63026 4.98687 4.56547 5.00018 4.5 5.00018C4.43453 5.00018 4.36974 4.98687 4.30958 4.96106C4.24941 4.93524 4.19512 4.89747 4.15 4.85003C4.10256 4.80491 4.06478 4.75062 4.03897 4.69045C4.01316 4.63028 3.99985 4.5655 3.99985 4.50003C3.99985 4.43456 4.01316 4.36977 4.03897 4.3096C4.06478 4.24944 4.10256 4.19515 4.15 4.15003L5.29 3.00003H0.5C0.367392 3.00003 0.240215 2.94735 0.146447 2.85358C0.0526784 2.75981 0 2.63264 0 2.50003C0 2.36742 0.0526784 2.24024 0.146447 2.14647C0.240215 2.05271 0.367392 2.00003 0.5 2.00003H5.29L4.15 0.850028C4.10256 0.804911 4.06478 0.750619 4.03897 0.690452C4.01316 0.630285 3.99985 0.565498 3.99985 0.500028C3.99985 0.434558 4.01316 0.369771 4.03897 0.309604C4.06478 0.249437 4.10256 0.195146 4.15 0.150028C4.19512 0.102586 4.24941 0.0648117 4.30958 0.0389999C4.36974 0.0131882 4.43453 -0.00012207 4.5 -0.00012207C4.56547 -0.00012207 4.63026 0.0131882 4.69042 0.0389999C4.75059 0.0648117 4.80488 0.102586 4.85 0.150028L6.85 2.15003C6.89744 2.19515 6.93522 2.24944 6.96103 2.3096C6.98684 2.36977 7.00015 2.43456 7.00015 2.50003C7.00015 2.5655 6.98684 2.63028 6.96103 2.69045C6.93522 2.75062 6.89744 2.80491 6.85 2.85003V2.85003Z" fill="#006CBF"/>
</g>
<defs>
<clipPath id="clip0_7201_63377">
<rect width="16" height="16" fill="white"/>
</clipPath>
</defs>
</svg>
