<svg width="16" height="16" viewBox="0 0 16 16" fill="none" xmlns="http://www.w3.org/2000/svg">
<path d="M10 9.50023C9.87201 9.50023 9.74401 9.45123 9.64601 9.35423L7.64601 7.35423C7.45101 7.15923 7.45101 6.84223 7.64601 6.64723C7.84101 6.45223 8.15801 6.45223 8.35301 6.64723L9.99901 8.29323L11.645 6.64723C11.84 6.45223 12.157 6.45223 12.352 6.64723C12.547 6.84223 12.547 7.15923 12.352 7.35423L10.352 9.35423C10.254 9.45223 10.126 9.50023 9.99801 9.50023H10Z" fill="#006CBF"/>
<path d="M10 3C9.658 3 9.323 3.035 9 3.101V2.25C9 1.561 8.439 1 7.75 1H2.5C2.224 1 2 1.224 2 1.5C2 1.776 2.224 2 2.5 2H7.75C7.888 2 8 2.112 8 2.25V3.424C6.237 4.198 5 5.955 5 8C5 10.045 6.237 11.802 8 12.576V13.75C8 13.888 7.888 14 7.75 14H2.5C2.224 14 2 14.224 2 14.5C2 14.776 2.224 15 2.5 15H7.75C8.439 15 9 14.439 9 13.75V12.899C9.323 12.965 9.658 13 10 13C12.757 13 15 10.757 15 8C15 5.243 12.757 3 10 3ZM10 12C7.794 12 6 10.206 6 8C6 5.794 7.794 4 10 4C12.206 4 14 5.794 14 8C14 10.206 12.206 12 10 12Z" fill="#202020"/>
</svg>
