<svg width="16" height="16" viewBox="0 0 16 16" fill="none" xmlns="http://www.w3.org/2000/svg">
<path d="M14.417 7.00002H11.33C11.118 7.00002 10.929 6.86602 10.858 6.66602C10.606 5.95002 10.051 5.39502 9.33498 5.14302C9.13398 5.07302 9.00098 4.88402 9.00098 4.67102V1.58302C9.00098 1.43602 9.06598 1.29602 9.17798 1.20102C9.28998 1.10502 9.43998 1.06702 9.58398 1.09002C12.308 1.55202 14.448 3.69302 14.91 6.41602C14.934 6.56102 14.894 6.70902 14.799 6.82202C14.704 6.93402 14.565 7.00002 14.417 7.00002ZM11.665 6.00002H13.791C13.269 4.19302 11.808 2.73202 10.001 2.21002V4.33602C10.734 4.68102 11.32 5.26702 11.665 6.00002Z" fill="#3487C7"/>
<path d="M6.82295 2.202C6.70995 2.106 6.56295 2.068 6.41695 2.091C3.69295 2.553 1.55295 4.694 1.09095 7.417C1.06695 7.562 1.10695 7.71 1.20195 7.823C1.29695 7.935 1.43595 8 1.58395 8H4.67095C4.88295 8 5.07195 7.866 5.14295 7.666C5.39495 6.95 5.94995 6.395 6.66595 6.143C6.86695 6.073 6.99995 5.884 6.99995 5.671V2.584C6.99995 2.437 6.93495 2.297 6.82295 2.202ZM5.99995 5.336C5.26695 5.681 4.68095 6.267 4.33595 7H2.20995C2.73195 5.193 4.19295 3.732 5.99995 3.21V5.336ZM6.66595 10.858C5.94995 10.605 5.39495 10.05 5.14295 9.334C5.07295 9.134 4.88395 9 4.67095 9H1.58295C1.43595 9 1.29595 9.064 1.20095 9.178C1.10595 9.29 1.06495 9.439 1.08995 9.584C1.55195 12.307 3.69295 14.447 6.41595 14.91C6.44395 14.915 6.47195 14.917 6.49895 14.917C6.61595 14.917 6.73095 14.876 6.82195 14.799C6.93395 14.704 6.99895 14.565 6.99895 14.417V11.33C6.99895 11.118 6.86595 10.929 6.66595 10.858ZM5.99995 13.79C4.19295 13.268 2.73195 11.807 2.20995 10H4.33595C4.68195 10.733 5.26695 11.318 5.99995 11.665V13.79ZM13.798 9.178C13.703 9.065 13.564 9 13.416 9H10.329C10.117 9 9.92795 9.134 9.85695 9.334C9.60495 10.051 9.04995 10.605 8.33395 10.858C8.13395 10.928 7.99995 11.118 7.99995 11.33V14.417C7.99995 14.564 8.06495 14.704 8.17695 14.799C8.26795 14.876 8.38295 14.917 8.49995 14.917C8.52795 14.917 8.55595 14.915 8.58295 14.91C11.307 14.447 13.447 12.306 13.909 9.584C13.933 9.438 13.893 9.29 13.798 9.178ZM8.99995 13.79V11.665C9.73295 11.318 10.318 10.733 10.6639 10H12.79C12.268 11.807 10.807 13.268 8.99995 13.79Z" fill="#202020"/>
</svg>
