<svg width="16" height="16" viewBox="0 0 16 16" fill="none" xmlns="http://www.w3.org/2000/svg">
<path d="M14.475 8.00001H9C8.449 8.00001 8 7.55201 8 7.00001V1.52501C8 1.38401 8.059 1.25101 8.163 1.15601C8.267 1.06101 8.406 1.02001 8.545 1.02701C11.962 1.33601 14.665 4.03901 14.973 7.45501C14.986 7.59501 14.939 7.73301 14.844 7.83701C14.749 7.94101 14.615 8.00001 14.475 8.00001ZM9 2.09801V7.00001H13.903C13.451 4.50601 11.494 2.55001 9 2.09801Z" fill="#3487C7"/>
<path d="M12.52 9.00202C12.51 9.00202 12.502 9.00602 12.492 9.00602C12.484 9.00602 12.485 9.00002 12.475 9.00002H7V3.52502C7 3.51602 6.995 3.51702 6.995 3.50902C6.995 3.49902 6.999 3.49002 6.998 3.48002C6.974 3.20502 6.732 3.00702 6.455 3.02702C3.345 3.30702 1 5.87602 1 9.00002C1 12.309 3.691 15 7 15C10.125 15 12.692 12.655 12.973 9.54502C12.998 9.27002 12.795 9.02602 12.52 9.00202ZM7 14C4.243 14 2 11.757 2 9.00002C2 6.58502 3.689 4.59002 6 4.12402V9.00002C6 9.55202 6.449 10 7 10H11.875C11.409 12.311 9.414 14 7 14Z" fill="#202020"/>
</svg>
