<svg width="16" height="16" viewBox="0 0 16 16" fill="none" xmlns="http://www.w3.org/2000/svg">
<g clip-path="url(#clip0_7201_63493)">
<path d="M11.987 2C13.091 2 13.985 2.895 13.985 3.999H13.986V6.498H12.987V3.999C12.987 3.447 12.54 3 11.988 3H3.998C3.446 3 2.999 3.447 2.999 3.999V6.498H2V3.999C2 2.895 2.894 2 3.998 2H11.987Z" fill="#202020"/>
<path d="M8.08259 13.991H6.99V14H5.991V13.991H3.998C2.895 13.991 2 13.096 2 11.992V10.245H2.999V11.992C2.999 12.544 3.446 12.991 3.998 12.991H8.08897C8.03065 13.1527 8 13.3247 8 13.5C8 13.6688 8.02842 13.8346 8.08259 13.991Z" fill="#202020"/>
<path d="M9.526 5.313C9.599 5.13 9.773 5.007 9.969 4.999L9.97 4.997C10.166 4.989 10.349 5.097 10.437 5.273L11.797 7.995H13.501C13.776 7.995 14 8.219 14 8.495C14 8.771 13.777 8.995 13.501 8.995H11.489C11.3 8.995 11.127 8.888 11.042 8.719L10.041 6.716L8.456 10.68C8.383 10.863 8.209 10.986 8.013 10.994C7.817 11.002 7.634 10.894 7.546 10.718L5.995 7.615L5.443 8.72C5.358 8.889 5.185 8.996 4.996 8.996H2.499C2.224 8.996 2 8.772 2 8.496C2 8.22 2.224 7.997 2.499 7.997H4.686L5.547 6.275C5.632 6.106 5.805 5.999 5.994 5.999C6.183 5.999 6.356 6.106 6.441 6.275L7.941 9.277L9.526 5.313Z" fill="#11910D"/>
<path d="M13.85 15.85C13.805 15.897 13.751 15.935 13.69 15.961C13.63 15.987 13.565 16 13.5 16C13.435 16 13.37 15.987 13.31 15.961C13.25 15.935 13.196 15.897 13.15 15.85C13.103 15.805 13.065 15.751 13.039 15.69C13.013 15.63 13 15.565 13 15.5C13 15.435 13.013 15.37 13.039 15.31C13.065 15.25 13.103 15.196 13.15 15.15L14.29 14H9.5C9.367 14 9.24 13.947 9.146 13.854C9.052 13.761 9 13.633 9 13.5C9 13.367 9.053 13.24 9.146 13.146C9.24 13.052 9.367 13 9.5 13H14.29L13.15 11.85C13.059 11.757 13.008 11.631 13.009 11.501C13.009 11.371 13.062 11.246 13.154 11.153C13.246 11.061 13.371 11.009 13.502 11.008C13.632 11.008 13.758 11.058 13.851 11.149L15.851 13.149C15.898 13.194 15.936 13.248 15.962 13.309C15.988 13.369 16.001 13.434 16.001 13.499C16.001 13.564 15.988 13.629 15.962 13.689C15.936 13.749 15.898 13.803 15.851 13.849L13.85 15.85Z" fill="#006CBF"/>
</g>
<defs>
<clipPath id="clip0_7201_63493">
<rect width="16" height="16" fill="white"/>
</clipPath>
</defs>
</svg>
