<svg width="16" height="16" viewBox="0 0 16 16" fill="none" xmlns="http://www.w3.org/2000/svg">
<g clip-path="url(#clip0_7201_63483)">
<path d="M2.5 3C2.22386 3 2 3.22386 2 3.5C2 3.77614 2.22386 4 2.5 4H13.5C13.7761 4 14 3.77614 14 3.5C14 3.22386 13.7761 3 13.5 3H2.5Z" fill="#202020"/>
<path d="M4.5 7C4.22386 7 4 7.22386 4 7.5C4 7.77614 4.22386 8 4.5 8H11.5C11.7761 8 12 7.77614 12 7.5C12 7.22386 11.7761 7 11.5 7H4.5Z" fill="#202020"/>
<path d="M6.5 11C6.22386 11 6 11.2239 6 11.5C6 11.7761 6.22386 12 6.5 12H9.19057C9.29157 11.9787 9.39523 11.9678 9.5 11.9678H9.67693C9.86575 11.8963 10 11.7138 10 11.5C10 11.2239 9.77614 11 9.5 11H6.5Z" fill="#202020"/>
<path d="M13.85 15.85C13.805 15.897 13.751 15.935 13.69 15.961C13.63 15.987 13.565 16 13.5 16C13.435 16 13.37 15.987 13.31 15.961C13.25 15.935 13.196 15.897 13.15 15.85C13.103 15.805 13.065 15.751 13.039 15.69C13.013 15.63 13 15.565 13 15.5C13 15.435 13.013 15.37 13.039 15.31C13.065 15.25 13.103 15.196 13.15 15.15L14.29 14H9.5C9.367 14 9.24 13.947 9.146 13.854C9.052 13.761 9 13.633 9 13.5C9 13.367 9.053 13.24 9.146 13.146C9.24 13.052 9.367 13 9.5 13H14.29L13.15 11.85C13.059 11.757 13.008 11.631 13.009 11.501C13.009 11.371 13.062 11.246 13.154 11.153C13.246 11.061 13.371 11.009 13.502 11.008C13.632 11.008 13.758 11.058 13.851 11.149L15.851 13.149C15.898 13.194 15.936 13.248 15.962 13.309C15.988 13.369 16.001 13.434 16.001 13.499C16.001 13.564 15.988 13.629 15.962 13.689C15.936 13.749 15.898 13.803 15.851 13.849L13.85 15.85Z" fill="#006CBF"/>
</g>
<defs>
<clipPath id="clip0_7201_63483">
<rect width="16" height="16" fill="white"/>
</clipPath>
</defs>
</svg>
