<svg width="16" height="16" viewBox="0 0 16 16" fill="none" xmlns="http://www.w3.org/2000/svg">
<g clip-path="url(#clip0_7201_63553)">
<path d="M10.9999 1C8.79074 1 6.99988 2.79086 6.99988 5C6.99988 5.31279 7.03588 5.61771 7.10411 5.91061L2.05327 11.1453C1.24088 11.9872 1.32876 13.3455 2.24288 14.0757C3.03692 14.7101 4.18171 14.6425 4.89566 13.9192L6.12544 12.6734C6.04328 12.2953 6 11.9027 6 11.5C6 11.4584 6.00046 11.417 6.00138 11.3756L4.18398 13.2167C3.82954 13.5758 3.26122 13.6093 2.86703 13.2944C2.41322 12.9319 2.36959 12.2576 2.7729 11.8396L8.02099 6.40054C8.14821 6.26869 8.19313 6.07781 8.13804 5.90305C8.04841 5.61868 7.99988 5.31548 7.99988 5C7.99988 3.34315 9.34303 2 10.9999 2C11.0945 2 11.188 2.00436 11.2802 2.01289L9.64654 3.64658C9.45129 3.84185 9.45129 4.15842 9.64655 4.35368L11.2966 6.00369C11.3641 6.00124 11.4319 6 11.5 6C11.8759 6 12.243 6.03771 12.5978 6.10957L13.987 4.72023C13.9955 4.81228 13.9999 4.9056 13.9999 5C13.9999 5.51808 13.8686 6.00549 13.6374 6.43075C13.9469 6.56142 14.242 6.7196 14.5195 6.90223C14.8259 6.3365 14.9999 5.68857 14.9999 5C14.9999 4.49138 14.9047 4.0038 14.7307 3.55493C14.6697 3.39732 14.5331 3.28125 14.3677 3.24637C14.2023 3.2115 14.0305 3.26254 13.911 3.38207L12.0001 5.29302L10.7072 4.00012L12.6182 2.08904C12.7377 1.96953 12.7888 1.79773 12.7539 1.63235C12.719 1.46698 12.603 1.3304 12.4454 1.26931C11.9964 1.09524 11.5087 1 10.9999 1Z" fill="#202020"/>
<path fill-rule="evenodd" clip-rule="evenodd" d="M11.5 16C13.9853 16 16 13.9853 16 11.5C16 9.01472 13.9853 7 11.5 7C9.01472 7 7 9.01472 7 11.5C7 13.9853 9.01472 16 11.5 16ZM13.3536 10.3536C13.5488 10.1583 13.5488 9.84171 13.3536 9.64645C13.1583 9.45118 12.8417 9.45118 12.6464 9.64645L11.5 10.7929L10.3536 9.64645C10.1583 9.45118 9.84171 9.45118 9.64645 9.64645C9.45118 9.84171 9.45118 10.1583 9.64645 10.3536L10.7929 11.5L9.64645 12.6464C9.45118 12.8417 9.45118 13.1583 9.64645 13.3536C9.84171 13.5488 10.1583 13.5488 10.3536 13.3536L11.5 12.2071L12.6464 13.3536C12.8417 13.5488 13.1583 13.5488 13.3536 13.3536C13.5488 13.1583 13.5488 12.8417 13.3536 12.6464L12.2071 11.5L13.3536 10.3536Z" fill="#C50F1F"/>
<path d="M2.15 6.85L0.149998 4.85C0.102555 4.80488 0.0647811 4.75059 0.0389694 4.69042C0.0131577 4.63026 -0.000152588 4.56547 -0.000152588 4.5C-0.000152588 4.43453 0.0131577 4.36974 0.0389694 4.30958C0.0647811 4.24941 0.102555 4.19512 0.149998 4.15C0.195115 4.10256 0.249406 4.06478 0.309574 4.03897C0.369741 4.01316 0.434528 3.99985 0.499998 3.99985C0.565468 3.99985 0.630254 4.01316 0.690422 4.03897C0.750589 4.06478 0.80488 4.10256 0.849998 4.15L2 5.29V0.5C2 0.367392 2.05268 0.240215 2.14644 0.146447C2.24021 0.0526784 2.36739 0 2.5 0C2.63261 0 2.75978 0.0526784 2.85355 0.146447C2.94732 0.240215 3 0.367392 3 0.5V5.29L4.15 4.15C4.24314 4.05872 4.36855 4.00788 4.49896 4.00854C4.62938 4.0092 4.75426 4.0613 4.84648 4.15352C4.9387 4.24574 4.9908 4.37062 4.99146 4.50104C4.99211 4.63145 4.94128 4.75686 4.85 4.85L2.85 6.85C2.80488 6.89744 2.75059 6.93522 2.69042 6.96103C2.63025 6.98684 2.56547 7.00015 2.5 7.00015C2.43453 7.00015 2.36974 6.98684 2.30957 6.96103C2.24941 6.93522 2.19512 6.89744 2.15 6.85V6.85Z" fill="#006CBF"/>
</g>
<defs>
<clipPath id="clip0_7201_63553">
<rect width="16" height="16" fill="white"/>
</clipPath>
</defs>
</svg>
