<svg width="16" height="16" viewBox="0 0 16 16" fill="none" xmlns="http://www.w3.org/2000/svg">
<g clip-path="url(#clip0_7201_63564)">
<path d="M10.9999 1C8.79074 1 6.99988 2.79086 6.99988 5C6.99988 5.31279 7.03588 5.61771 7.1041 5.91061L2.05327 11.1453C1.24087 11.9872 1.32876 13.3455 2.24288 14.0757C3.03691 14.7101 4.18171 14.6425 4.89565 13.9192L7.75737 11.0201L9.1997 8.13549L4.18397 13.2167C3.82954 13.5758 3.26122 13.6093 2.86703 13.2944C2.41322 12.9319 2.36959 12.2576 2.77289 11.8396L8.02098 6.40054C8.14821 6.26869 8.19312 6.07781 8.13804 5.90305C8.0484 5.61868 7.99988 5.31548 7.99988 5C7.99988 3.34315 9.34302 2 10.9999 2C11.0945 2 11.1879 2.00436 11.2802 2.01289L9.64654 3.64658C9.45128 3.84185 9.45129 4.15842 9.64655 4.35368L11.3029 6.01008C11.3694 6.00338 11.4363 6 11.5035 6C11.8392 6 12.1689 6.08448 12.4625 6.24488L13.987 4.72023C13.9955 4.81228 13.9999 4.9056 13.9999 5C13.9999 5.76849 13.7109 6.4695 13.2357 7.00029C13.256 7.03549 13.2753 7.07136 13.2935 7.10787L13.7104 7.94164C14.5032 7.21073 14.9999 6.16336 14.9999 5C14.9999 4.49138 14.9047 4.0038 14.7307 3.55493C14.6697 3.39732 14.5331 3.28125 14.3677 3.24637C14.2023 3.2115 14.0305 3.26254 13.911 3.38207L12.0001 5.29302L10.7072 4.00012L12.6182 2.08904C12.7377 1.96953 12.7888 1.79773 12.7539 1.63235C12.719 1.46698 12.603 1.3304 12.4454 1.26931C11.9964 1.09524 11.5087 1 10.9999 1Z" fill="#202020"/>
<path fill-rule="evenodd" clip-rule="evenodd" d="M12.3931 7.55201L15.8931 14.552C15.9694 14.7044 16.0056 14.8738 15.9981 15.044C15.9906 15.2143 15.9397 15.3799 15.8502 15.5249C15.7607 15.67 15.6357 15.7898 15.4869 15.8729C15.3381 15.9561 15.1705 15.9998 15.0001 16H8.00006C7.8292 16.0007 7.66101 15.9576 7.51154 15.8748C7.36207 15.792 7.23631 15.6723 7.14625 15.5271C7.0562 15.3818 7.00486 15.216 6.99712 15.0453C6.98938 14.8746 7.02551 14.7048 7.10206 14.552L10.6021 7.55201C10.6849 7.38534 10.8126 7.24509 10.9708 7.14705C11.129 7.04901 11.3114 6.99707 11.4976 6.99707C11.6837 6.99707 11.8661 7.04901 12.0243 7.14705C12.1825 7.24509 12.3102 7.38534 12.3931 7.55201ZM12 12.495V9.495C12 9.36239 11.9473 9.23521 11.8536 9.14144C11.7598 9.04767 11.6326 8.995 11.5 8.995C11.3674 8.995 11.2402 9.04767 11.1464 9.14144C11.0527 9.23521 11 9.36239 11 9.495V12.495C11 12.6276 11.0527 12.7548 11.1464 12.8485C11.2402 12.9423 11.3674 12.995 11.5 12.995C11.6326 12.995 11.7598 12.9423 11.8536 12.8485C11.9473 12.7548 12 12.6276 12 12.495ZM11.2222 14.0843C11.3044 14.0293 11.4011 14 11.5 14C11.6326 14 11.7598 14.0527 11.8536 14.1464C11.9473 14.2402 12 14.3674 12 14.5C12 14.5989 11.9707 14.6956 11.9157 14.7778C11.8608 14.86 11.7827 14.9241 11.6913 14.9619C11.6 14.9998 11.4994 15.0097 11.4025 14.9904C11.3055 14.9711 11.2164 14.9235 11.1464 14.8535C11.0765 14.7836 11.0289 14.6945 11.0096 14.5975C10.9903 14.5006 11.0002 14.4 11.0381 14.3087C11.0759 14.2173 11.14 14.1392 11.2222 14.0843Z" fill="#B27C00"/>
<path d="M2.15 6.85L0.149998 4.85C0.102555 4.80488 0.0647811 4.75059 0.0389694 4.69042C0.0131577 4.63026 -0.000152588 4.56547 -0.000152588 4.5C-0.000152588 4.43453 0.0131577 4.36974 0.0389694 4.30958C0.0647811 4.24941 0.102555 4.19512 0.149998 4.15C0.195115 4.10256 0.249406 4.06478 0.309574 4.03897C0.369741 4.01316 0.434528 3.99985 0.499998 3.99985C0.565468 3.99985 0.630254 4.01316 0.690422 4.03897C0.750589 4.06478 0.80488 4.10256 0.849998 4.15L2 5.29V0.5C2 0.367392 2.05268 0.240215 2.14644 0.146447C2.24021 0.0526784 2.36739 0 2.5 0C2.63261 0 2.75978 0.0526784 2.85355 0.146447C2.94732 0.240215 3 0.367392 3 0.5V5.29L4.15 4.15C4.24314 4.05872 4.36855 4.00788 4.49896 4.00854C4.62938 4.0092 4.75426 4.0613 4.84648 4.15352C4.9387 4.24574 4.9908 4.37062 4.99146 4.50104C4.99211 4.63145 4.94128 4.75686 4.85 4.85L2.85 6.85C2.80488 6.89744 2.75059 6.93522 2.69042 6.96103C2.63025 6.98684 2.56547 7.00015 2.5 7.00015C2.43453 7.00015 2.36974 6.98684 2.30957 6.96103C2.24941 6.93522 2.19512 6.89744 2.15 6.85V6.85Z" fill="#006CBF"/>
</g>
<defs>
<clipPath id="clip0_7201_63564">
<rect width="16" height="16" fill="white"/>
</clipPath>
</defs>
</svg>
