<svg width="16" height="16" viewBox="0 0 16 16" fill="none" xmlns="http://www.w3.org/2000/svg">
<path d="M13 3H5V2C5 1.449 4.552 1 4 1H3C1.897 1 1 1.897 1 3V8H2V3C2 2.449 2.448 2 3 2H4V9H3.73169C3.90228 9.29433 4 9.63594 4 10C4.552 10 5 9.551 5 9V4H13C13.552 4 14 4.449 14 5V11C14 11.551 13.552 12 13 12H6C6.73894 12 7.38543 12.4026 7.73169 13H13C14.103 13 15 12.103 15 11V5C15 3.897 14.103 3 13 3Z" fill="#202020"/>
<path d="M7.5 6C7.77614 6 8 5.77614 8 5.5C8 5.22386 7.77614 5 7.5 5C7.22386 5 7 5.22386 7 5.5C7 5.77614 7.22386 6 7.5 6Z" fill="#202020"/>
<path d="M9.5 5H12.5C12.776 5 13 5.224 13 5.5C13 5.776 12.776 6 12.5 6H9.5C9.224 6 9 5.776 9 5.5C9 5.224 9.224 5 9.5 5Z" fill="#202020"/>
<path d="M7.5 8C7.77614 8 8 7.77614 8 7.5C8 7.22386 7.77614 7 7.5 7C7.22386 7 7 7.22386 7 7.5C7 7.77614 7.22386 8 7.5 8Z" fill="#202020"/>
<path d="M9.5 7H12.5C12.776 7 13 7.224 13 7.5C13 7.776 12.776 8 12.5 8H9.5C9.224 8 9 7.776 9 7.5C9 7.224 9.224 7 9.5 7Z" fill="#202020"/>
<path d="M7.5 10C7.77614 10 8 9.77614 8 9.5C8 9.22386 7.77614 9 7.5 9C7.22386 9 7 9.22386 7 9.5C7 9.77614 7.22386 10 7.5 10Z" fill="#202020"/>
<path d="M9.5 9H12.5C12.776 9 13 9.224 13 9.5C13 9.776 12.776 10 12.5 10H9.5C9.224 10 9 9.776 9 9.5C9 9.224 9.224 9 9.5 9Z" fill="#202020"/>
<path d="M6 13H4V16H6C6.552 16 7 15.552 7 15V14C7 13.448 6.552 13 6 13ZM3 16H1C0.448 16 0 15.552 0 15V13H3V16ZM1 9H2C2.552 9 3 9.448 3 10V12H0V10C0 9.448 0.448 9 1 9Z" fill="#202020"/>
</svg>
