<svg width="16" height="16" viewBox="0 0 16 16" fill="none" xmlns="http://www.w3.org/2000/svg">
<path d="M4.00001 14.0002C3.87201 14.0002 3.74401 13.9512 3.64601 13.8542L2.14601 12.3542C1.95101 12.1592 1.95101 11.8422 2.14601 11.6472L3.64601 10.1472C3.84101 9.95223 4.15801 9.95223 4.35301 10.1472C4.54801 10.3422 4.54801 10.6592 4.35301 10.8542L3.20701 12.0002L4.35301 13.1462C4.54801 13.3412 4.54801 13.6582 4.35301 13.8532C4.25501 13.9512 4.12701 13.9992 3.99901 13.9992L4.00001 14.0002ZM13.354 13.8542L14.854 12.3542C15.049 12.1592 15.049 11.8422 14.854 11.6472L13.354 10.1472C13.159 9.95223 12.842 9.95223 12.647 10.1472C12.452 10.3422 12.452 10.6592 12.647 10.8542L13.793 12.0002L12.647 13.1462C12.452 13.3412 12.452 13.6582 12.647 13.8532C12.745 13.9512 12.873 13.9992 13.001 13.9992C13.129 13.9992 13.257 13.9502 13.355 13.8532L13.354 13.8542ZM6.50001 13.0002C6.22401 13.0002 6.00001 13.2242 6.00001 13.5002C6.00001 13.7762 6.22401 14.0002 6.50001 14.0002C6.77601 14.0002 7.00001 13.7762 7.00001 13.5002C7.00001 13.2242 6.77601 13.0002 6.50001 13.0002ZM8.50001 13.0002C8.22401 13.0002 8.00001 13.2242 8.00001 13.5002C8.00001 13.7762 8.22401 14.0002 8.50001 14.0002C8.77601 14.0002 9.00001 13.7762 9.00001 13.5002C9.00001 13.2242 8.77601 13.0002 8.50001 13.0002ZM10.5 13.0002C10.224 13.0002 10 13.2242 10 13.5002C10 13.7762 10.224 14.0002 10.5 14.0002C10.776 14.0002 11 13.7762 11 13.5002C11 13.2242 10.776 13.0002 10.5 13.0002Z" fill="#202020"/>
<path d="M3.85401 7.146C4.04901 7.341 4.04901 7.658 3.85401 7.853L2.35401 9.353C2.25601 9.451 2.12801 9.499 2.00001 9.499C1.87201 9.499 1.74401 9.45 1.64601 9.353C1.45101 9.158 1.45101 8.841 1.64601 8.646L3.14601 7.146C3.34101 6.951 3.65801 6.951 3.85301 7.146H3.85401ZM6.14701 4.146L4.64701 5.646C4.45201 5.841 4.45201 6.158 4.64701 6.353C4.74501 6.451 4.87301 6.499 5.00101 6.499C5.12901 6.499 5.25701 6.45 5.35501 6.353L6.85501 4.853C7.05001 4.658 7.05001 4.341 6.85501 4.146C6.66001 3.951 6.34201 3.951 6.14701 4.146ZM9.50101 1H5.50101C5.22501 1 5.00101 1.224 5.00101 1.5C5.00101 1.776 5.22501 2 5.50101 2H8.29401L7.64801 2.646C7.45301 2.841 7.45301 3.158 7.64801 3.353C7.74601 3.451 7.87401 3.499 8.00201 3.499C8.13001 3.499 8.25801 3.45 8.35601 3.353L9.00201 2.707V5.5C9.00201 5.776 9.22601 6 9.50201 6C9.77801 6 10.002 5.776 10.002 5.5V1.5C10.002 1.224 9.77701 1 9.50101 1Z" fill="#202020"/>
</svg>
