<svg width="16" height="16" viewBox="0 0 16 16" fill="none" xmlns="http://www.w3.org/2000/svg">
<path fill-rule="evenodd" clip-rule="evenodd" d="M2 4.5C2 3.11929 3.11929 2 4.5 2H11.5C12.8807 2 14 3.11929 14 4.5V11.5C14 12.8807 12.8807 14 11.5 14H8C8 13.6359 7.90228 13.2943 7.73169 13H11.5C12.3284 13 13 12.3284 13 11.5V6H3V8.26831C2.70567 8.09772 2.36406 8 2 8V4.5ZM3 5H13V4.5C13 3.67157 12.3284 3 11.5 3H4.5C3.67157 3 3 3.67157 3 4.5V5Z" fill="#202020"/>
<path d="M6 13H4V16H6C6.552 16 7 15.552 7 15V14C7 13.448 6.552 13 6 13ZM3 16H1C0.448 16 0 15.552 0 15V13H3V16ZM1 9H2C2.552 9 3 9.448 3 10V12H0V10C0 9.448 0.448 9 1 9Z" fill="#202020"/>
</svg>
