<svg width="16" height="16" viewBox="0 0 16 16" fill="none" xmlns="http://www.w3.org/2000/svg">
<g clip-path="url(#clip0_7201_63647)">
<path d="M1 7.66333L1 11.3133C1 11.9339 1.38224 12.4905 1.96153 12.7133L6.92306 14.6216C7.61627 14.8882 8.38373 14.8882 9.07694 14.6216L14.0385 12.7133C14.6178 12.4905 15 11.9339 15 11.3133V4.68685C15 4.06619 14.6178 3.50964 14.0385 3.28683L9.07694 1.37855C8.52883 1.16774 7.9343 1.12362 7.36676 1.24617L7.56032 1.43973C7.69971 1.57903 7.81028 1.74443 7.88573 1.92649C7.91964 2.00832 7.94615 2.09279 7.96507 2.17889C8.22013 2.17444 8.47584 2.21877 8.71796 2.3119L13.6795 4.22018C13.8726 4.29445 14 4.47997 14 4.68685V11.3133C14 11.5201 13.8726 11.7057 13.6795 11.7799L8.71796 13.6882C8.25582 13.866 7.74418 13.866 7.28204 13.6882L2.32051 11.7799C2.12741 11.7057 2 11.5201 2 11.3133V7.96495C1.65222 7.91482 1.31522 7.81277 1 7.66333Z" fill="#5C2E91"/>
<path d="M4.39057 5.99714L7.49988 7.3297V10.5C7.49988 10.7761 7.72374 11 7.99988 11C8.27603 11 8.49988 10.7761 8.49988 10.5V7.3297L11.6968 5.95958C11.9507 5.8508 12.0682 5.55686 11.9595 5.30305C11.8507 5.04923 11.5567 4.93166 11.3029 5.04043L7.99988 6.45602L5.66619 5.45587L5.56032 5.56173C5.341 5.78107 5.05908 5.92702 4.75338 5.97949C4.63292 6.00017 4.5111 6.00593 4.39057 5.99714Z" fill="#5C2E91"/>
<path d="M-0.000771741 4.50073C-0.00077177 4.17243 0.0638924 3.84734 0.189529 3.54402C0.315166 3.24071 0.499315 2.96511 0.731461 2.73297C0.963608 2.50082 1.23921 2.31667 1.54252 2.19103C1.84583 2.0654 2.17092 2.00073 2.49923 2.00073L5.29223 2.00073L4.14523 0.854733C4.09874 0.808245 4.06186 0.753056 4.0367 0.692316C4.01155 0.631577 3.9986 0.566477 3.9986 0.500733C3.9986 0.434989 4.01155 0.369888 4.0367 0.309149C4.06186 0.24841 4.09874 0.193221 4.14523 0.146733C4.19172 0.100245 4.2469 0.0633683 4.30764 0.0382092C4.36838 0.0130501 4.43348 0.000101314 4.49923 0.000101308C4.56497 0.000101302 4.63007 0.0130501 4.69081 0.0382092C4.75155 0.0633683 4.80674 0.100245 4.85323 0.146733L6.85323 2.14673C6.89979 2.19318 6.93673 2.24835 6.96194 2.3091C6.98715 2.36984 7.00012 2.43497 7.00012 2.50073C7.00012 2.5665 6.98715 2.63162 6.96194 2.69237C6.93673 2.75311 6.89979 2.80829 6.85323 2.85473L4.85323 4.85473C4.75934 4.94862 4.632 5.00136 4.49923 5.00136C4.36645 5.00136 4.23911 4.94862 4.14523 4.85473C4.05134 4.76085 3.9986 4.63351 3.9986 4.50073C3.9986 4.36796 4.05134 4.24062 4.14523 4.14673L5.29223 3.00073L2.49923 3.00073C2.1014 3.00073 1.71987 3.15877 1.43857 3.44007C1.15726 3.72138 0.999228 4.10291 0.999228 4.50073C0.999228 4.89856 1.15726 5.28009 1.43857 5.56139C1.71987 5.8427 2.1014 6.00073 2.49923 6.00073C2.63184 6.00073 2.75901 6.05341 2.85278 6.14718C2.94655 6.24095 2.99923 6.36812 2.99923 6.50073C2.99923 6.63334 2.94655 6.76052 2.85278 6.85429C2.75901 6.94805 2.63184 7.00073 2.49923 7.00073C1.83619 7.00073 1.2003 6.73734 0.731461 6.2685C0.26262 5.79966 -0.000771683 5.16377 -0.000771741 4.50073V4.50073Z" fill="#006CBF"/>
</g>
<defs>
<clipPath id="clip0_7201_63647">
<rect width="16" height="16" fill="white"/>
</clipPath>
</defs>
</svg>
