<svg width="16" height="16" viewBox="0 0 16 16" fill="none" xmlns="http://www.w3.org/2000/svg">
<path d="M6.605 14C6.788 14.357 7.004 14.694 7.257 15H1.5C1.224 15 1 14.776 1 14.5V1.5C1 1.224 1.224 1 1.5 1C1.776 1 2 1.224 2 1.5V14H6.605ZM16 11.5C16 13.985 13.985 16 11.5 16C9.015 16 7 13.985 7 11.5C7 9.015 9.015 7 11.5 7C13.985 7 16 9.015 16 11.5ZM13.5 11.5C13.5 11.224 13.276 11 13 11H12V9.5C12 9.224 11.776 9 11.5 9C11.224 9 11 9.224 11 9.5V11.5C11 11.776 11.224 12 11.5 12H13C13.276 12 13.5 11.776 13.5 11.5Z" fill="#202020"/>
<path d="M5 7C5 7.552 4.552 8 4 8C3.448 8 3 7.552 3 7C3 6.448 3.448 6 4 6C4.552 6 5 6.448 5 7ZM7 2C6.448 2 6 2.448 6 3C6 3.552 6.448 4 7 4C7.552 4 8 3.552 8 3C8 2.448 7.552 2 7 2ZM10 4C9.448 4 9 4.448 9 5C9 5.552 9.448 6 10 6C10.552 6 11 5.552 11 5C11 4.448 10.552 4 10 4ZM13 2C12.448 2 12 2.448 12 3C12 3.552 12.448 4 13 4C13.552 4 14 3.552 14 3C14 2.448 13.552 2 13 2Z" fill="#3487C7"/>
</svg>
