<svg width="16" height="16" viewBox="0 0 16 16" fill="none" xmlns="http://www.w3.org/2000/svg">
<path fill-rule="evenodd" clip-rule="evenodd" d="M2 4.5C2 3.11929 3.11929 2 4.5 2H11.5C12.8807 2 14 3.11929 14 4.5V11.5C14 12.8807 12.8807 14 11.5 14H10V13H11.5C12.3284 13 13 12.3284 13 11.5V6H3V8C2.64336 8 2.29983 8.09463 2 8.26792V4.5ZM3 5H13V4.5C13 3.67157 12.3284 3 11.5 3H4.5C3.67157 3 3 3.67157 3 4.5V5Z" fill="#202020"/>
<path d="M8.868 12.533C8.856 12.504 8.85 12.473 8.832 12.446L6.831 9.44501C6.644 9.16701 6.333 9.00101 5.999 9.00101H5.499C5.223 9.00101 4.999 9.22501 4.999 9.50101C4.999 9.77701 5.223 10.001 5.499 10.001H5.999L7.332 12.001H5.998C5.447 12.001 4.998 12.449 4.998 13.001H3.998C3.998 12.449 3.549 12.001 2.998 12.001H1.664L2.998 10.001H3.498C3.774 10.001 3.998 9.77701 3.998 9.50101C3.998 9.22501 3.774 9.00101 3.498 9.00101H2.998C2.664 9.00101 2.353 9.16701 2.165 9.44601L0.167 12.445L0.166 12.446C0.057 12.611 0 12.802 0 12.999V14.249C0 15.214 0.785 15.999 1.75 15.999H2.25C3.215 15.999 4 15.214 4 14.249V13.999H5V14.249C5 15.214 5.785 15.999 6.75 15.999H7.25C8.215 15.999 9 15.214 9 14.249V12.999C9 12.827 8.945 12.673 8.868 12.532V12.533ZM3 14.25C3 14.663 2.664 15 2.25 15H1.75C1.336 15 1 14.663 1 14.25V13H3V14.25ZM8 14.25C8 14.663 7.664 15 7.25 15H6.75C6.336 15 6 14.663 6 14.25V13H8V14.25Z" fill="#202020"/>
</svg>
