<svg width="16" height="16" viewBox="0 0 16 16" fill="none" xmlns="http://www.w3.org/2000/svg">
<g clip-path="url(#clip0_7202_65410)">
<path fill-rule="evenodd" clip-rule="evenodd" d="M6 8C6 6.89543 6.89543 6 8 6C9.10457 6 10 6.89543 10 8C10 8.87334 9.44023 9.61593 8.65991 9.88857C8.30042 9.35492 7.69058 9.0033 7 9.0033H6.26947C6.09812 8.70838 6 8.36565 6 8ZM8 7C7.44772 7 7 7.44772 7 8C7 8.55228 7.44772 9 8 9C8.55228 9 9 8.55228 9 8C9 7.44772 8.55228 7 8 7Z" fill="#006CBF"/>
<path d="M3.00078 8.08924C3.00026 8.05955 3 8.02981 3 8C3 5.23858 5.23858 3 8 3C10.7614 3 13 5.23858 13 8C13 10.419 11.2822 12.4367 9 12.9V13.917C11.8377 13.441 14 10.973 14 8C14 4.68629 11.3137 2 8 2C4.68629 2 2 4.68629 2 8L2 8.0033H2.5C2.67554 8.0033 2.84412 8.0336 3.00078 8.08924Z" fill="#006CBF"/>
<path d="M7 10.0033H3V9.5033C3 9.2273 2.776 9.0033 2.5 9.0033H1.5C0.673 9.0033 0 9.6763 0 10.5033V14.5033C0 15.3303 0.673 16.0033 1.5 16.0033H7C7.552 16.0033 8 15.5553 8 15.0033V11.0033C8 10.4513 7.552 10.0033 7 10.0033ZM1 10.5033C1 10.2283 1.225 10.0033 1.5 10.0033H2V13.0033H1.5C1.325 13.0033 1.156 13.0333 1 13.0893V10.5033ZM7 15.0033H1.5C1.225 15.0033 1 14.7783 1 14.5033C1 14.2283 1.225 14.0033 1.5 14.0033H2.5C2.776 14.0033 3 13.7793 3 13.5033V11.0033H7V15.0033Z" fill="#202020"/>
</g>
<defs>
<clipPath id="clip0_7202_65410">
<rect width="16" height="16" fill="white"/>
</clipPath>
</defs>
</svg>
