<svg width="16" height="16" viewBox="0 0 16 16" fill="none" xmlns="http://www.w3.org/2000/svg">
<path d="M8.03918 13.1109C8.19818 12.1019 8.95718 11.2929 9.94318 11.0669L6.96518 4.51489C6.55218 4.81589 6.04818 4.99889 5.50018 4.99889C5.01218 4.99889 4.56018 4.85289 4.17418 4.60989L2.88818 8.03789C4.08118 8.22589 4.99918 9.25289 4.99918 10.4989C4.99918 10.9869 4.85318 11.4389 4.61018 11.8249L8.03918 13.1109Z" fill="#3487C7"/>
<path d="M5.5 4C6.328 4 7 3.328 7 2.5C7 1.672 6.328 1 5.5 1C4.672 1 4 1.672 4 2.5C4 3.328 4.672 4 5.5 4Z" fill="#202020"/>
<path d="M12 5.5C12 4.672 12.672 4 13.5 4C14.328 4 15 4.672 15 5.5C15 6.328 14.328 7 13.5 7C12.672 7 12 6.328 12 5.5Z" fill="#202020"/>
<path d="M9 13.5C9 12.672 9.672 12 10.5 12C11.328 12 12 12.672 12 13.5C12 14.328 11.328 15 10.5 15C9.672 15 9 14.328 9 13.5Z" fill="#202020"/>
<path d="M1 10.5C1 9.672 1.672 9 2.5 9C3.328 9 4 9.672 4 10.5C4 11.328 3.328 12 2.5 12C1.672 12 1 11.328 1 10.5Z" fill="#202020"/>
<path d="M11.3289 4.28507L7.95989 2.89307C7.90589 3.23307 7.78589 3.55007 7.60889 3.83007L11.0259 5.24207C11.0619 4.89707 11.1659 4.57407 11.3289 4.28507Z" fill="#202020"/>
<path d="M12.1602 7.604L10.7402 11.025C11.0862 11.059 11.4102 11.161 11.7002 11.322L13.0952 7.96C12.7552 7.904 12.4402 7.783 12.1602 7.604Z" fill="#202020"/>
</svg>
