<svg width="16" height="16" viewBox="0 0 16 16" fill="none" xmlns="http://www.w3.org/2000/svg">
<path d="M12.1621 6.44001L8.45009 2.73101C8.32109 2.60201 8.17309 2.50101 8.01609 2.42901V2.00101C8.01609 0.898007 7.11909 0.00100708 6.01609 0.00100708C4.91309 0.00100708 4.01609 0.898007 4.01609 2.00101V5.00101C4.01609 5.01401 4.02209 5.02401 4.02309 5.03701L1.35209 7.70701C0.776086 8.28301 0.765086 9.21301 1.32609 9.80201L4.94609 13.603C5.52709 14.213 6.49709 14.225 7.09309 13.629L12.1611 8.56101C12.7471 7.97501 12.7471 7.02501 12.1611 6.43901L12.1621 6.44001ZM5.01609 2.00101C5.01609 1.44901 5.46409 1.00101 6.01609 1.00101C6.56809 1.00101 7.01609 1.44901 7.01609 2.00101V2.33901C6.76409 2.40301 6.52609 2.53401 6.32909 2.73101L5.01609 4.04401V2.00101ZM6.38709 12.923C6.18809 13.122 5.86509 13.118 5.67109 12.914L2.05109 9.11301C2.01809 9.07901 1.99209 9.04101 1.97109 9.00101H10.3091L6.38709 12.923ZM11.4551 7.85501L11.3091 8.00101H2.47309L7.01609 3.45801V5.50101C7.01609 5.77701 7.24009 6.00101 7.51609 6.00101C7.79209 6.00101 8.01609 5.77701 8.01609 5.50101V3.71101L11.4551 7.14701C11.6501 7.34201 11.6501 7.66001 11.4551 7.85501Z" fill="#202020"/>
<path d="M14.072 11.537L12.921 10.222C12.698 9.967 12.302 9.967 12.079 10.222L10.928 11.537C9.74701 12.887 10.705 15 12.499 15C14.293 15 15.253 12.887 14.072 11.537ZM12.5 14C11.565 14 11.065 12.899 11.681 12.195L12.5 11.259L13.319 12.195C13.935 12.899 13.435 14 12.5 14Z" fill="#3487C7"/>
<path d="M12.488 8H1.14001C0.796006 8.566 0.834006 9.301 1.31101 9.802L4.93101 13.603C5.51201 14.213 6.48201 14.225 7.07801 13.629L12.146 8.561C12.309 8.398 12.416 8.204 12.488 8ZM6.37101 12.922C6.17201 13.121 5.84901 13.117 5.65501 12.913L2.03501 9.112C2.00201 9.078 1.97601 9.04 1.95401 9H10.293L6.37101 12.922Z" fill="#3487C7"/>
</svg>
