<svg width="16" height="16" viewBox="0 0 16 16" fill="none" xmlns="http://www.w3.org/2000/svg">
<g clip-path="url(#clip0_7202_65481)">
<path fill-rule="evenodd" clip-rule="evenodd" d="M3.20606 6.84277C3.37572 6.92472 3.56165 6.96744 3.75006 6.96777C4.08142 6.96724 4.39905 6.83538 4.63336 6.60107C4.79994 6.4345 4.91474 6.2258 4.96738 6H5.58579C5.71839 6 5.84557 5.94732 5.93934 5.85355L7.29289 4.5L5.93934 3.14645C5.84557 3.05268 5.71839 3 5.58579 3H5.38158L6.23381 2.1472C6.38548 2.21985 6.52526 2.31816 6.64645 2.43934L8.20711 4H12.5C13.8807 4 15 5.11929 15 6.5V11.5C15 12.8807 13.8807 14 12.5 14H3.5C2.11929 14 1 12.8807 1 11.5V4.5C1 4.49414 1.00002 4.48829 1.00006 4.48245V4.96777C0.999723 5.19998 1.06423 5.42767 1.18631 5.6252C1.3084 5.82272 1.48321 5.98224 1.69106 6.08577L3.20606 6.84277ZM2 11.5V7H5.58579C5.98361 7 6.36514 6.84196 6.64645 6.56066L8.20711 5H12.5C13.3284 5 14 5.67157 14 6.5V11.5C14 12.3284 13.3284 13 12.5 13H3.5C2.67157 13 2 12.3284 2 11.5Z" fill="#B27C00"/>
<path d="M5.29303 -0.0322265H0.707029C0.567176 -0.0322564 0.430455 0.00919217 0.314162 0.0868763C0.197869 0.16456 0.107227 0.27499 0.0537039 0.404196C0.000180263 0.533402 -0.0138209 0.675579 0.0134713 0.812744C0.0407636 0.949908 0.108123 1.0759 0.207029 1.17477L2.00003 2.96777V4.96777C2.00001 5.0141 2.01291 5.05952 2.03729 5.09891C2.06167 5.13831 2.09656 5.17012 2.13803 5.19077L3.63803 5.94077C3.67266 5.95862 3.71107 5.96788 3.75003 5.96777C3.81633 5.96777 3.87992 5.94143 3.92681 5.89455C3.97369 5.84767 4.00003 5.78408 4.00003 5.71777V2.96777L5.79303 1.17477C5.89194 1.0759 5.95929 0.949908 5.98659 0.812744C6.01388 0.675579 5.99988 0.533402 5.94635 0.404196C5.89283 0.27499 5.80219 0.16456 5.6859 0.0868763C5.5696 0.00919217 5.43288 -0.0322564 5.29303 -0.0322265V-0.0322265Z" fill="#006CBF"/>
</g>
<defs>
<clipPath id="clip0_7202_65481">
<rect width="16" height="16" fill="white"/>
</clipPath>
</defs>
</svg>
