<svg width="16" height="16" viewBox="0 0 16 16" fill="none" xmlns="http://www.w3.org/2000/svg">
<g clip-path="url(#clip0_7202_65531)">
<path d="M1.23346 5.69597C1.21698 5.67297 1.20125 5.64937 1.18631 5.6252C1.06423 5.42767 0.999723 5.19998 1.00006 4.96777V4.49977C0.392803 4.95587 0 5.68207 0 6.5V11.5C0 12.8807 1.11929 14 2.5 14H11V13H2.5C1.67157 13 1 12.3284 1 11.5V6.5C1 6.20418 1.08563 5.92836 1.23346 5.69597Z" fill="#202020"/>
<path d="M5.00006 5H11V4H5.00006V5Z" fill="#202020"/>
<path d="M10.5 2.5C10.5 2.22386 10.7239 2 11 2H14C14.2761 2 14.5 2.22386 14.5 2.5C14.5 2.77614 14.2761 3 14 3H13V15H14C14.2761 15 14.5 15.2239 14.5 15.5C14.5 15.7761 14.2761 16 14 16H11C10.7239 16 10.5 15.7761 10.5 15.5C10.5 15.2239 10.7239 15 11 15H12V3H11C10.7239 3 10.5 2.77614 10.5 2.5Z" fill="#202020"/>
<path fill-rule="evenodd" clip-rule="evenodd" d="M9 7.5C8.634 7.5 8.295 7.619 8 7.813V6.5C8 6.224 7.776 6 7.5 6C7.224 6 7 6.224 7 6.5V11.5C7 11.776 7.224 12 7.5 12C7.717 12 7.897 11.86 7.966 11.666C8.269 11.873 8.62 12 9 12C10.103 12 11 10.991 11 9.75C11 8.509 10.103 7.5 9 7.5ZM9 11C8.448 11 8 10.439 8 9.75C8 9.061 8.448 8.5 9 8.5C9.552 8.5 10 9.061 10 9.75C10 10.439 9.552 11 9 11Z" fill="#202020"/>
<path fill-rule="evenodd" clip-rule="evenodd" d="M4.25002 7.25C3.36202 7.25 2.98902 7.553 2.89602 7.646C2.70102 7.841 2.68702 8.17 2.88202 8.365C3.07602 8.561 3.37902 8.573 3.57502 8.378C3.58737 8.36996 3.77168 8.25 4.24902 8.25C4.27902 8.25 4.99902 8.256 4.99902 8.75V9.056C4.79502 9.023 4.55102 9 4.24902 9C2.93602 9 2.24902 9.754 2.24902 10.5C2.24902 11.246 2.93602 12 4.24902 12C4.62102 12 4.91002 11.937 5.14402 11.851C5.23502 11.943 5.36002 12 5.49902 12C5.77502 12 5.99902 11.776 5.99902 11.5V8.75C5.99902 7.765 5.12002 7.25 4.25002 7.25ZM3.25002 10.5C3.25002 10.258 3.60102 10 4.25002 10C4.62202 10 4.85602 10.038 5.00002 10.074V10.811C4.90702 10.885 4.69702 11 4.25002 11C3.60102 11 3.25002 10.742 3.25002 10.5Z" fill="#202020"/>
<path d="M14 5.08536V4.05001C15.1411 4.28165 16 5.29052 16 6.5V11.5C16 12.7095 15.1411 13.7184 14 13.95V12.9146C14.5826 12.7087 15 12.1531 15 11.5V6.5C15 5.84689 14.5826 5.29128 14 5.08536Z" fill="#202020"/>
<path d="M5.29303 1.6141e-08H0.707029C0.567176 -2.98612e-05 0.430455 0.0414187 0.314162 0.119103C0.197869 0.196787 0.107227 0.307216 0.0537039 0.436422C0.000180263 0.565628 -0.0138209 0.707806 0.0134713 0.84497C0.0407636 0.982135 0.108123 1.10812 0.207029 1.207L2.00003 3V5C2.00001 5.04633 2.01291 5.09174 2.03729 5.13114C2.06167 5.17053 2.09656 5.20235 2.13803 5.223L3.63803 5.973C3.67266 5.99085 3.71107 6.00011 3.75003 6C3.81633 6 3.87992 5.97366 3.92681 5.92678C3.97369 5.87989 4.00003 5.8163 4.00003 5.75V3L5.79303 1.207C5.89194 1.10812 5.95929 0.982135 5.98659 0.84497C6.01388 0.707806 5.99988 0.565628 5.94635 0.436422C5.89283 0.307216 5.80219 0.196787 5.6859 0.119103C5.5696 0.0414187 5.43288 -2.98612e-05 5.29303 1.6141e-08V1.6141e-08Z" fill="#006CBF"/>
</g>
<defs>
<clipPath id="clip0_7202_65531">
<rect width="16" height="16" fill="white"/>
</clipPath>
</defs>
</svg>
