<svg width="16" height="16" viewBox="0 0 16 16" fill="none" xmlns="http://www.w3.org/2000/svg">
<g clip-path="url(#clip0_7202_65451)">
<path fill-rule="evenodd" clip-rule="evenodd" d="M8.47 2.329L12.47 13.329C12.4925 13.3907 12.5026 13.4563 12.4997 13.5219C12.4968 13.5875 12.4811 13.6519 12.4533 13.7114C12.4255 13.771 12.3863 13.8244 12.3379 13.8688C12.2894 13.9132 12.2327 13.9476 12.171 13.97C12.1161 13.9896 12.0583 13.9998 12 14C11.8974 14 11.7972 13.9685 11.7131 13.9096C11.629 13.8508 11.5651 13.7674 11.53 13.671L10.559 11H5.441L4.47101 13.67C4.44866 13.7318 4.41435 13.7886 4.37003 13.8372C4.32571 13.8857 4.27225 13.9251 4.21271 13.9529C4.15318 13.9808 4.08873 13.9966 4.02306 13.9996C3.95739 14.0025 3.89179 13.9924 3.83001 13.97C3.76818 13.9477 3.71137 13.9133 3.66283 13.869C3.61428 13.8247 3.57495 13.7712 3.54709 13.7117C3.51922 13.6522 3.50337 13.5877 3.50044 13.5221C3.49751 13.4564 3.50755 13.3908 3.53 13.329L7.53001 2.329C7.57271 2.24063 7.63945 2.1661 7.72258 2.11394C7.80572 2.06178 7.90187 2.03412 8.00001 2.03412C8.09814 2.03412 8.19429 2.06178 8.27743 2.11394C8.36056 2.1661 8.4273 2.24063 8.47 2.329ZM8.00001 3.963L5.80501 10H10.2L8.00001 3.963Z" fill="#202020"/>
<path d="M5.29303 1.6141e-08H0.707029C0.567176 -2.98612e-05 0.430455 0.0414187 0.314162 0.119103C0.197869 0.196787 0.107227 0.307216 0.0537039 0.436422C0.000180263 0.565628 -0.0138209 0.707806 0.0134713 0.84497C0.0407636 0.982135 0.108123 1.10812 0.207029 1.207L2.00003 3V5C2.00001 5.04633 2.01291 5.09174 2.03729 5.13114C2.06167 5.17053 2.09656 5.20235 2.13803 5.223L3.63803 5.973C3.67266 5.99085 3.71107 6.00011 3.75003 6C3.81633 6 3.87992 5.97366 3.92681 5.92678C3.97369 5.87989 4.00003 5.8163 4.00003 5.75V3L5.79303 1.207C5.89194 1.10812 5.95929 0.982135 5.98659 0.84497C6.01388 0.707806 5.99988 0.565628 5.94635 0.436422C5.89283 0.307216 5.80219 0.196787 5.6859 0.119103C5.5696 0.0414187 5.43288 -2.98612e-05 5.29303 1.6141e-08V1.6141e-08Z" fill="#006CBF"/>
</g>
<defs>
<clipPath id="clip0_7202_65451">
<rect width="16" height="16" fill="white"/>
</clipPath>
</defs>
</svg>
