<svg width="16" height="16" viewBox="0 0 16 16" fill="none" xmlns="http://www.w3.org/2000/svg">
<g clip-path="url(#clip0_7202_65521)">
<path fill-rule="evenodd" clip-rule="evenodd" d="M5.86639 2.51486C5.48103 2.98815 5.25 3.59209 5.25 4.25C5.25 5.76878 6.48122 7 8 7C9.51878 7 10.75 5.76878 10.75 4.25C10.75 2.73122 9.51878 1.5 8 1.5C7.34143 1.5 6.73693 1.7315 6.26343 2.11756L5.86639 2.51486ZM6.25 4.25C6.25 3.2835 7.0335 2.5 8 2.5C8.9665 2.5 9.75 3.2835 9.75 4.25C9.75 5.2165 8.9665 6 8 6C7.0335 6 6.25 5.2165 6.25 4.25Z" fill="#202020"/>
<path fill-rule="evenodd" clip-rule="evenodd" d="M13 9.5C13 8.67157 12.3284 8 11.5 8H4.5C3.67157 8 3 8.67157 3 9.5V10C3 11.9714 4.85951 14 8 14C11.1405 14 13 11.9714 13 10V9.5ZM4 9.5C4 9.22386 4.22386 9 4.5 9H11.5C11.7761 9 12 9.22386 12 9.5V10C12 11.4376 10.5678 13 8 13C5.43216 13 4 11.4376 4 10V9.5Z" fill="#202020"/>
<path d="M5.29303 -0.0322265H0.707029C0.567176 -0.0322564 0.430455 0.00919217 0.314162 0.0868763C0.197869 0.16456 0.107227 0.27499 0.0537039 0.404196C0.000180263 0.533402 -0.0138209 0.675579 0.0134713 0.812744C0.0407636 0.949908 0.108123 1.0759 0.207029 1.17477L2.00003 2.96777V4.96777C2.00001 5.0141 2.01291 5.05952 2.03729 5.09891C2.06167 5.13831 2.09656 5.17012 2.13803 5.19077L3.63803 5.94077C3.67266 5.95862 3.71107 5.96788 3.75003 5.96777C3.81633 5.96777 3.87992 5.94143 3.92681 5.89455C3.97369 5.84767 4.00003 5.78408 4.00003 5.71777V2.96777L5.79303 1.17477C5.89194 1.0759 5.95929 0.949908 5.98659 0.812744C6.01388 0.675579 5.99988 0.533402 5.94635 0.404196C5.89283 0.27499 5.80219 0.16456 5.6859 0.0868763C5.5696 0.00919217 5.43288 -0.0322564 5.29303 -0.0322265V-0.0322265Z" fill="#006CBF"/>
</g>
<defs>
<clipPath id="clip0_7202_65521">
<rect width="16" height="16" fill="white"/>
</clipPath>
</defs>
</svg>
