<svg width="16" height="16" viewBox="0 0 16 16" fill="none" xmlns="http://www.w3.org/2000/svg">
<path fill-rule="evenodd" clip-rule="evenodd" d="M9.5 11C8.43748 11 7.46097 10.6318 6.69113 10.016L2.85355 13.8536C2.65829 14.0488 2.34171 14.0488 2.14645 13.8536C1.95118 13.6583 1.95118 13.3417 2.14645 13.1464L5.98403 9.30885C5.36823 8.53901 5 7.56252 5 6.50002C5 4.01473 7.01472 2 9.5 2C11.9853 2 14 4.01473 14 6.50002C14 7.99867 13.2674 9.32621 12.1408 10.1441C12.1149 10.1316 12.0886 10.1199 12.062 10.109C11.883 10.036 11.693 9.99902 11.5 10C11.299 10 11.1 10.042 10.915 10.121C10.73 10.2 10.563 10.316 10.424 10.462L9.90386 10.9822C9.77082 10.994 9.63612 11 9.5 11ZM9.5 3C7.567 3 6 4.56701 6 6.50002C6 8.43302 7.567 10 9.5 10C11.433 10 13 8.43302 13 6.50002C13 4.56701 11.433 3 9.5 3Z" fill="#202020"/>
<path d="M9.15 13.85L11.15 15.85C11.195 15.897 11.249 15.935 11.31 15.961C11.37 15.987 11.435 16 11.5 16C11.565 16 11.63 15.987 11.69 15.961C11.75 15.935 11.804 15.897 11.85 15.85C11.897 15.805 11.935 15.751 11.961 15.69C11.987 15.63 12 15.565 12 15.5C12 15.435 11.987 15.37 11.961 15.31C11.935 15.25 11.897 15.196 11.85 15.15L10.71 14H15.5C15.633 14 15.76 13.947 15.854 13.854C15.948 13.761 16 13.633 16 13.5C16 13.367 15.947 13.24 15.854 13.146C15.76 13.052 15.633 13 15.5 13H10.71L11.85 11.85C11.941 11.757 11.992 11.631 11.991 11.501C11.991 11.371 11.938 11.246 11.846 11.153C11.754 11.061 11.629 11.009 11.498 11.008C11.368 11.008 11.242 11.058 11.149 11.149L9.15 13.15C9.103 13.195 9.065 13.249 9.039 13.31C9.013 13.37 9 13.435 9 13.5C9 13.565 9.013 13.63 9.039 13.69C9.065 13.75 9.103 13.804 9.15 13.85Z" fill="#006CBF"/>
</svg>
