<svg width="16" height="16" viewBox="0 0 16 16" fill="none" xmlns="http://www.w3.org/2000/svg">
<g clip-path="url(#clip0_7202_65551)">
<path d="M9.5 11C8.43748 11 7.46097 10.6318 6.69113 10.016L2.85355 13.8536C2.65829 14.0488 2.34171 14.0488 2.14645 13.8536C1.95118 13.6583 1.95118 13.3417 2.14645 13.1464L5.98403 9.30885C5.36823 8.53901 5 7.56252 5 6.50002C5 4.01473 7.01472 2 9.5 2C11.9853 2 14 4.01473 14 6.50002C14 7.03303 13.9073 7.5444 13.7372 8.01889C13.6592 8.0064 13.5799 8 13.4999 8C13.1021 8 12.7206 8.15804 12.4392 8.43934C12.3949 8.48365 12.3537 8.53044 12.3156 8.57939C12.7457 7.998 13 7.27871 13 6.50002C13 4.56701 11.433 3 9.5 3C7.567 3 6 4.56701 6 6.50002C6 8.43302 7.567 10 9.5 10C10.6363 10 11.6461 9.45856 12.2855 8.61957C12.101 8.87399 11.9999 9.18178 11.9999 9.5V10.2423C11.2849 10.7209 10.425 11 9.5 11Z" fill="#202020"/>
<path d="M13.85 15.85L15.85 13.85C15.8975 13.8049 15.9352 13.7506 15.9611 13.6904C15.9869 13.6303 16.0002 13.5655 16.0002 13.5C16.0002 13.4345 15.9869 13.3697 15.9611 13.3096C15.9352 13.2494 15.8975 13.1951 15.85 13.15C15.8049 13.1026 15.7506 13.0648 15.6905 13.039C15.6303 13.0132 15.5655 12.9998 15.5 12.9998C15.4346 12.9998 15.3698 13.0132 15.3096 13.039C15.2494 13.0648 15.1951 13.1026 15.15 13.15L14 14.29L14 9.5C14 9.36739 13.9473 9.24021 13.8536 9.14645C13.7598 9.05268 13.6326 9 13.5 9C13.3674 9 13.2402 9.05268 13.1465 9.14645C13.0527 9.24021 13 9.36739 13 9.5L13 14.29L11.85 13.15C11.8049 13.1026 11.7506 13.0648 11.6905 13.039C11.6303 13.0132 11.5655 12.9998 11.5 12.9998C11.4346 12.9998 11.3698 13.0132 11.3096 13.039C11.2494 13.0648 11.1951 13.1026 11.15 13.15C11.1026 13.1951 11.0648 13.2494 11.039 13.3096C11.0132 13.3697 10.9999 13.4345 10.9999 13.5C10.9999 13.5655 11.0132 13.6303 11.039 13.6904C11.0648 13.7506 11.1026 13.8049 11.15 13.85L13.15 15.85C13.1951 15.8974 13.2494 15.9352 13.3096 15.961C13.3698 15.9868 13.4346 16.0001 13.5 16.0001C13.5655 16.0001 13.6303 15.9868 13.6905 15.961C13.7506 15.9352 13.8049 15.8974 13.85 15.85Z" fill="#006CBF"/>
</g>
<defs>
<clipPath id="clip0_7202_65551">
<rect width="16" height="16" fill="white"/>
</clipPath>
</defs>
</svg>
