<svg width="16" height="16" viewBox="0 0 16 16" fill="none" xmlns="http://www.w3.org/2000/svg">
<path d="M3.22 3.22C3.361 3.079 3.551 3 3.75 3H4.5C4.776 3 5 2.776 5 2.5C5 2.224 4.776 2 4.5 2H3.75C3.286 2 2.841 2.184 2.513 2.513C2.185 2.841 2 3.286 2 3.75V4.5C2 4.776 2.224 5 2.5 5C2.776 5 3 4.776 3 4.5V3.75C3 3.551 3.079 3.36 3.22 3.22ZM3 6.5C3 6.224 2.776 6 2.5 6C2.224 6 2 6.224 2 6.5V9.5C2 9.776 2.224 10 2.5 10C2.776 10 3 9.776 3 9.5V6.5ZM2.5 11C2.776 11 3 11.224 3 11.5V12.25C3 12.449 3.079 12.64 3.22 12.78C3.361 12.921 3.551 13 3.75 13H4.5C4.776 13 5 13.224 5 13.5C5 13.776 4.776 14 4.5 14H3.75C3.286 14 2.841 13.816 2.513 13.487C2.185 13.159 2 12.714 2 12.25V11.5C2 11.224 2.224 11 2.5 11ZM6.5 13C6.224 13 6 13.224 6 13.5C6 13.776 6.224 14 6.5 14H9.5C9.776 14 10 13.776 10 13.5C10 13.224 9.776 13 9.5 13H6.5ZM13.5 11C13.776 11 14 11.224 14 11.5V12.25C14 12.714 13.816 13.159 13.487 13.487C13.158 13.815 12.714 14 12.25 14H11.5C11.224 14 11 13.776 11 13.5C11 13.224 11.224 13 11.5 13H12.25C12.449 13 12.64 12.921 12.78 12.78C12.921 12.639 13 12.449 13 12.25V11.5C13 11.224 13.224 11 13.5 11ZM14 6.5C14 6.224 13.776 6 13.5 6C13.224 6 13 6.224 13 6.5V9.5C13 9.776 13.224 10 13.5 10C13.776 10 14 9.776 14 9.5V6.5ZM11 2.5C11 2.224 11.224 2 11.5 2H12.25C12.714 2 13.159 2.184 13.487 2.513C13.815 2.841 14 3.286 14 3.75V4.5C14 4.776 13.776 5 13.5 5C13.224 5 13 4.776 13 4.5V3.75C13 3.551 12.921 3.36 12.78 3.22C12.639 3.079 12.449 3 12.25 3H11.5C11.224 3 11 2.776 11 2.5ZM6.5 2C6.224 2 6 2.224 6 2.5C6 2.776 6.224 3 6.5 3H9.5C9.776 3 10 2.776 10 2.5C10 2.224 9.776 2 9.5 2H6.5Z" fill="#202020"/>
<path d="M6.50002 5H5.70702L6.85302 6.146C7.04802 6.341 7.04802 6.658 6.85302 6.853C6.75502 6.951 6.62702 6.999 6.49902 6.999C6.37102 6.999 6.24302 6.95 6.14502 6.853L4.99902 5.707V6.5C4.99902 6.776 4.77502 7 4.49902 7C4.22302 7 3.99902 6.776 3.99902 6.5V4.5C3.99902 4.224 4.22302 4 4.49902 4H6.49902C6.77502 4 6.99902 4.224 6.99902 4.5C6.99902 4.776 6.77602 5 6.50002 5ZM6.85402 9.146C6.65902 8.951 6.34202 8.951 6.14702 9.146L5.00102 10.292V9.499C5.00102 9.223 4.77702 8.999 4.50102 8.999C4.22502 8.999 4.00102 9.223 4.00102 9.499V11.499C4.00102 11.775 4.22502 11.999 4.50102 11.999H6.50102C6.77702 11.999 7.00102 11.775 7.00102 11.499C7.00102 11.223 6.77702 10.999 6.50102 10.999H5.70802L6.85402 9.853C7.04902 9.658 7.04902 9.341 6.85402 9.146ZM11.5 9C11.224 9 11 9.224 11 9.5V10.293L9.85402 9.147C9.65902 8.952 9.34202 8.952 9.14702 9.147C8.95202 9.342 8.95202 9.659 9.14702 9.854L10.293 11H9.50002C9.22402 11 9.00002 11.224 9.00002 11.5C9.00002 11.776 9.22402 12 9.50002 12H11.5C11.776 12 12 11.776 12 11.5V9.5C12 9.224 11.776 9 11.5 9ZM11.5 4H9.50002C9.22402 4 9.00002 4.224 9.00002 4.5C9.00002 4.776 9.22402 5 9.50002 5H10.293L9.14702 6.146C8.95202 6.341 8.95202 6.658 9.14702 6.853C9.24502 6.951 9.37302 6.999 9.50102 6.999C9.62902 6.999 9.75702 6.95 9.85502 6.853L11.001 5.707V6.5C11.001 6.776 11.225 7 11.501 7C11.777 7 12.001 6.776 12.001 6.5V4.5C12.001 4.224 11.777 4 11.501 4H11.5Z" fill="#006CBF"/>
</svg>
