<svg width="16" height="16" viewBox="0 0 16 16" fill="none" xmlns="http://www.w3.org/2000/svg">
<path d="M5.5 14C5.224 14 5 13.776 5 13.5V4.5C5 4.224 5.224 4 5.5 4H13.5C13.685 4 13.854 4.102 13.94 4.264C14.028 4.427 14.018 4.624 13.916 4.777L12.101 7.5L13.916 10.223C14.019 10.376 14.028 10.574 13.94 10.736C13.853 10.899 13.684 11 13.5 11H6V13.5C6 13.776 5.776 14 5.5 14Z" fill="#202020"/>
<path d="M3.5 12C3.224 12 3 11.776 3 11.5V2.5C3 2.224 3.224 2 3.5 2H11.5C11.776 2 12 2.224 12 2.5C12 2.776 11.776 3 11.5 3H4V11.5C4 11.776 3.776 12 3.5 12Z" fill="#202020"/>
</svg>
