<svg width="16" height="16" viewBox="0 0 16 16" fill="none" xmlns="http://www.w3.org/2000/svg">
<path d="M12.5 15H2.5C1.121 15 0 13.878 0 12.5V3.5C0 2.122 1.121 1 2.5 1H12.5C13.879 1 15 2.122 15 3.5V12.5C15 13.878 13.879 15 12.5 15ZM2.5 2C1.673 2 1 2.673 1 3.5V12.5C1 13.327 1.673 14 2.5 14H12.5C13.327 14 14 13.327 14 12.5V3.5C14 2.673 13.327 2 12.5 2H2.5ZM3 3H4C4.552 3 5 3.448 5 4V5C5 5.552 4.552 6 4 6H3C2.448 6 2 5.552 2 5V4C2 3.448 2.448 3 3 3Z" fill="#202020"/>
<path d="M6 4C6 3.448 6.448 3 7 3H12C12.552 3 13 3.448 13 4V5C13 5.552 12.552 6 12 6H7C6.448 6 6 5.552 6 5V4ZM2 8C2 7.448 2.448 7 3 7H4C4.552 7 5 7.448 5 8V12C5 12.552 4.552 13 4 13H3C2.448 13 2 12.552 2 12V8ZM6 8C6 7.448 6.448 7 7 7H8C8.552 7 9 7.448 9 8V12C9 12.552 8.552 13 8 13H7C6.448 13 6 12.552 6 12V8ZM10 8C10 7.448 10.448 7 11 7H12C12.552 7 13 7.448 13 8V12C13 12.552 12.552 13 12 13H11C10.448 13 10 12.552 10 12V8Z" fill="#3487C7"/>
</svg>
