<svg width="16" height="16" viewBox="0 0 16 16" fill="none" xmlns="http://www.w3.org/2000/svg">
<path d="M12.7629 1.07468C12.9103 1.16578 13 1.32671 13 1.5V6.5C13 6.77614 12.7762 7 12.5 7H2.50005C2.26816 7 2.0667 6.84056 2.01342 6.61488C1.96015 6.38919 2.06903 6.15649 2.27644 6.05279L12.2764 1.05279C12.4314 0.975289 12.6155 0.983571 12.7629 1.07468ZM4.61808 6H12V2.30902L4.61808 6ZM13 9.49998C13 9.32668 12.9103 9.16578 12.7629 9.07468C12.6155 8.98358 12.4314 8.97528 12.2764 9.05278L2.27644 14.0528C2.06903 14.1565 1.96015 14.3892 2.01342 14.6149C2.0667 14.8405 2.26816 15 2.50005 15H12.5C12.7762 15 13 14.7761 13 14.5V9.49998Z" fill="#202020"/>
</svg>
