<svg width="16" height="16" viewBox="0 0 16 16" fill="none" xmlns="http://www.w3.org/2000/svg">
<path fill-rule="evenodd" clip-rule="evenodd" d="M3.0002 3.99994C3.0002 3.44765 3.44791 2.99994 4.0002 2.99994H5.0002V4.49994C5.0002 5.32837 5.67177 5.99994 6.5002 5.99994H8.5002C9.32863 5.99994 10.0002 5.32837 10.0002 4.49994V2.99994H10.3789C10.6441 2.99994 10.8984 3.1053 11.086 3.29283L12.7073 4.91415C12.8948 5.10169 13.0002 5.35604 13.0002 5.62126V11.9999C13.0002 12.5522 12.5525 12.9999 12.0002 12.9999V9.49994C12.0002 8.67151 11.3286 7.99994 10.5002 7.99994H5.5002C4.67177 7.99994 4.0002 8.67151 4.0002 9.49994V9.99902H5.0002V9.49994C5.0002 9.2238 5.22406 8.99994 5.5002 8.99994H10.5002C10.7763 8.99994 11.0002 9.2238 11.0002 9.49994V12.9999H10V13.9999H12.0002C13.1048 13.9999 14.0002 13.1045 14.0002 11.9999V5.62126C14.0002 5.09083 13.7895 4.58212 13.4144 4.20705L11.7931 2.58573C11.418 2.21065 10.9093 1.99994 10.3789 1.99994H4.0002C2.89563 1.99994 2.0002 2.89537 2.0002 3.99994V9.99902H3.0002V3.99994ZM6.0002 4.49994V2.99994H9.0002V4.49994C9.0002 4.77608 8.77634 4.99994 8.5002 4.99994H6.5002C6.22406 4.99994 6.0002 4.77608 6.0002 4.49994Z" fill="#006CBF"/>
<path fill-rule="evenodd" clip-rule="evenodd" d="M1.5 10.999H7.5C7.89782 10.999 8.27936 11.1571 8.56066 11.4384C8.84196 11.7197 9 12.1012 9 12.499V14.499C9 14.6316 8.94732 14.7588 8.85355 14.8526C8.75979 14.9463 8.63261 14.999 8.5 14.999H8V15.499C8 15.7752 7.77614 15.999 7.5 15.999C7.22386 15.999 7 15.7752 7 15.499V14.999H2V15.499C2 15.7752 1.77614 15.999 1.5 15.999C1.22386 15.999 1 15.7752 1 15.499V14.999H0.5C0.367392 14.999 0.240215 14.9463 0.146447 14.8526C0.0526784 14.7588 0 14.6316 0 14.499V12.499C0 12.1012 0.158035 11.7197 0.43934 11.4384C0.720644 11.1571 1.10218 10.999 1.5 10.999ZM7.5 13.999C7.63261 13.999 7.75979 13.9463 7.85355 13.8526C7.94732 13.7588 8 13.6316 8 13.499C8 13.4001 7.97068 13.3035 7.91574 13.2212C7.86079 13.139 7.7827 13.0749 7.69134 13.0371C7.59998 12.9992 7.49944 12.9893 7.40245 13.0086C7.30546 13.0279 7.21637 13.0755 7.14645 13.1455C7.07652 13.2154 7.0289 13.3045 7.00961 13.4015C6.99031 13.4985 7.00022 13.599 7.03806 13.6904C7.0759 13.7817 7.13999 13.8598 7.22221 13.9148C7.30444 13.9697 7.40111 13.999 7.5 13.999Z" fill="#202020"/>
</svg>
