<svg width="16" height="16" viewBox="0 0 16 16" fill="none" xmlns="http://www.w3.org/2000/svg">
<path d="M7.50001 7.5V9.975C6.72101 9.242 5.71901 9 5.06501 9C4.43001 9 3.80101 9.173 3.24601 9.499C3.05401 9.612 2.96001 9.839 3.01601 10.056C3.56401 12.161 5.42301 12.723 6.43501 12.723C6.79701 12.723 7.15501 12.661 7.50001 12.553V14.501C7.50001 14.777 7.72401 15.001 8.00001 15.001C8.27601 15.001 8.50001 14.777 8.50001 14.501V13.553C8.84601 13.661 9.204 13.723 9.565 13.723C10.577 13.723 12.436 13.161 12.984 11.056C13.04 10.839 12.946 10.613 12.754 10.499C12.198 10.173 11.569 10 10.935 10C10.282 10 9.27901 10.242 8.50001 10.975V7.5H7.50001ZM6.43501 11.723C6.36101 11.723 4.73901 11.704 4.11201 10.186C4.41601 10.064 4.74001 10 5.06601 10C5.14001 10 6.76201 10.019 7.38901 11.538C7.08401 11.659 6.76001 11.723 6.43501 11.723ZM9.56601 12.723C9.24101 12.723 8.91701 12.66 8.61201 12.538C9.23901 11.018 10.861 11 10.935 11C11.261 11 11.585 11.063 11.889 11.186C11.262 12.705 9.64001 12.723 9.56601 12.723Z" fill="#11910D"/>
<path d="M11.5 2C10.913 2 10.36 2.101 9.857 2.272C9.566 1.525 8.85 1 8 1C7.15 1 6.434 1.525 6.143 2.272C5.64 2.101 5.087 2 4.5 2C4.224 2 4 2.224 4 2.5V4C4 6.206 5.794 8 8 8C10.206 8 12 6.206 12 4V2.5C12 2.224 11.776 2 11.5 2ZM8 2C8.452 2 8.817 2.302 8.941 2.714C8.558 2.955 8.241 3.246 8 3.578C7.759 3.246 7.442 2.955 7.059 2.714C7.183 2.302 7.548 2 8 2ZM8 7C6.346 7 5 5.654 5 4V3.035C6.397 3.2 7.5 4.03 7.5 5C7.5 5.276 7.724 5.5 8 5.5C8.276 5.5 8.5 5.276 8.5 5C8.5 4.03 9.603 3.2 11 3.035V4C11 5.654 9.654 7 8 7Z" fill="#C50F1F"/>
</svg>
