<svg width="16" height="16" viewBox="0 0 16 16" fill="none" xmlns="http://www.w3.org/2000/svg">
<path d="M2.22 2.22C2.361 2.079 2.551 2 2.75 2H3.5C3.776 2 4 1.776 4 1.5C4 1.224 3.776 1 3.5 1H2.75C2.286 1 1.841 1.184 1.513 1.513C1.185 1.841 1 2.286 1 2.75V3.5C1 3.776 1.224 4 1.5 4C1.776 4 2 3.776 2 3.5V2.75C2 2.551 2.079 2.36 2.22 2.22ZM2 8.5C2 8.224 1.776 8 1.5 8C1.224 8 1 8.224 1 8.5V9.5C1 9.776 1.224 10 1.5 10C1.776 10 2 9.776 2 9.5V8.5ZM2 5.5C2 5.224 1.776 5 1.5 5C1.224 5 1 5.224 1 5.5V6.5C1 6.776 1.224 7 1.5 7C1.776 7 2 6.776 2 6.5V5.5ZM1.5 11C1.776 11 2 11.224 2 11.5V12.25C2 12.449 2.079 12.64 2.22 12.78C2.361 12.921 2.551 13 2.75 13H3.5C3.776 13 4 13.224 4 13.5C4 13.776 3.776 14 3.5 14H2.75C2.286 14 1.841 13.816 1.513 13.487C1.185 13.159 1 12.714 1 12.25V11.5C1 11.224 1.224 11 1.5 11ZM5.5 13C5.224 13 5 13.224 5 13.5C5 13.776 5.224 14 5.5 14H6.5C6.776 14 7 13.776 7 13.5C7 13.224 6.776 13 6.5 13H5.5ZM8.5 13C8.224 13 8 13.224 8 13.5C8 13.776 8.224 14 8.5 14H9.5C9.776 14 10 13.776 10 13.5C10 13.224 9.776 13 9.5 13H8.5ZM13.5 11C13.776 11 14 11.224 14 11.5V12.25C14 12.714 13.816 13.159 13.487 13.487C13.158 13.815 12.714 14 12.25 14H11.5C11.224 14 11 13.776 11 13.5C11 13.224 11.224 13 11.5 13H12.25C12.449 13 12.64 12.921 12.78 12.78C12.921 12.639 13 12.449 13 12.25V11.5C13 11.224 13.224 11 13.5 11ZM14 8.5C14 8.224 13.776 8 13.5 8C13.224 8 13 8.224 13 8.5V9.5C13 9.776 13.224 10 13.5 10C13.776 10 14 9.776 14 9.5V8.5ZM14 5.5C14 5.224 13.776 5 13.5 5C13.224 5 13 5.224 13 5.5V6.5C13 6.776 13.224 7 13.5 7C13.776 7 14 6.776 14 6.5V5.5ZM11 1.5C11 1.224 11.224 1 11.5 1H12.25C12.714 1 13.159 1.184 13.487 1.513C13.815 1.841 14 2.286 14 2.75V3.5C14 3.776 13.776 4 13.5 4C13.224 4 13 3.776 13 3.5V2.75C13 2.551 12.921 2.36 12.78 2.22C12.639 2.079 12.449 2 12.25 2H11.5C11.224 2 11 1.776 11 1.5ZM5.5 1C5.224 1 5 1.224 5 1.5C5 1.776 5.224 2 5.5 2H6.5C6.776 2 7 1.776 7 1.5C7 1.224 6.776 1 6.5 1H5.5ZM8.5 1C8.224 1 8 1.224 8 1.5C8 1.776 8.224 2 8.5 2H9.5C9.776 2 10 1.776 10 1.5C10 1.224 9.776 1 9.5 1H8.5Z" fill="#202020"/>
<path d="M6 6H4C3.448 6 3 5.551 3 5V4C3 3.449 3.448 3 4 3H6C6.552 3 7 3.449 7 4V5C7 5.551 6.552 6 6 6ZM4 4V5H6V4H4ZM6 10H4C3.448 10 3 9.551 3 9V8C3 7.449 3.448 7 4 7H6C6.552 7 7 7.449 7 8V9C7 9.551 6.552 10 6 10ZM4 8V9H6V8H4ZM11 6H9C8.448 6 8 5.551 8 5V4C8 3.449 8.448 3 9 3H11C11.552 3 12 3.449 12 4V5C12 5.551 11.552 6 11 6ZM9 4V5H11V4H9Z" fill="#202020"/>
</svg>
