<svg width="16" height="16" viewBox="0 0 16 16" fill="none" xmlns="http://www.w3.org/2000/svg">
<path d="M5.24899 7C3.71299 7 2.91299 6.418 2.20699 5.905C1.98399 5.743 1.93499 5.43 2.09699 5.207C2.26099 4.983 2.57299 4.935 2.79599 5.097C3.46199 5.582 4.03699 6 5.24899 6C6.46099 6 7.03799 5.581 7.70499 5.096C8.41099 4.582 9.21199 4 10.75 4C12.288 4 13.088 4.582 13.794 5.096C14.018 5.258 14.066 5.571 13.904 5.794C13.742 6.019 13.428 6.065 13.206 5.904C12.539 5.419 11.963 5 10.75 5C9.53699 5 8.95999 5.419 8.29299 5.904C7.58699 6.418 6.78599 7 5.24899 7ZM8.29299 10.904C8.95999 10.419 9.53599 10 10.75 10C11.964 10 12.539 10.419 13.206 10.904C13.429 11.066 13.742 11.017 13.904 10.794C14.066 10.571 14.017 10.258 13.794 10.096C13.088 9.582 12.287 9 10.75 9C9.21299 9 8.41099 9.582 7.70499 10.096C7.03799 10.581 6.46199 11 5.24899 11C4.03599 11 3.46199 10.582 2.79599 10.097C2.57199 9.934 2.26099 9.984 2.09699 10.207C1.93499 10.43 1.98499 10.743 2.20699 10.905C2.91299 11.418 3.71299 12 5.24899 12C6.78499 12 7.58699 11.418 8.29299 10.904Z" fill="#202020"/>
</svg>
