<svg width="16" height="16" viewBox="0 0 16 16" fill="none" xmlns="http://www.w3.org/2000/svg">
<path d="M4.5 3C3.672 3 3 3.672 3 4.5V5.5C3 5.776 2.776 6 2.5 6C2.224 6 2 5.776 2 5.5V4.5C2 3.119 3.119 2 4.5 2H5.5C5.776 2 6 2.224 6 2.5C6 2.776 5.776 3 5.5 3H4.5ZM11.5 3C12.328 3 13 3.672 13 4.5V5.5C13 5.776 13.224 6 13.5 6C13.776 6 14 5.776 14 5.5V4.5C14 3.119 12.881 2 11.5 2H10.5C10.224 2 10 2.224 10 2.5C10 2.776 10.224 3 10.5 3H11.5ZM11.5 13C12.328 13 13 12.328 13 11.5V10.5C13 10.224 13.224 10 13.5 10C13.776 10 14 10.224 14 10.5V11.5C14 12.881 12.881 14 11.5 14H10.5C10.224 14 10 13.776 10 13.5C10 13.224 10.224 13 10.5 13H11.5ZM4.5 13C3.672 13 3 12.328 3 11.5V10.25C3 9.974 2.776 9.75 2.5 9.75C2.224 9.75 2 9.974 2 10.25V11.5C2 12.881 3.119 14 4.5 14H5.75C6.026 14 6.25 13.776 6.25 13.5C6.25 13.224 6.026 13 5.75 13H4.5Z" fill="#006CBF"/>
<path d="M9.478 6.766C9.674 6.473 9.778 6.13 9.778 5.778C9.778 5.307 9.59 4.854 9.257 4.521C8.924 4.187 8.471 4 8 4C7.648 4 7.304 4.105 7.012 4.3C6.719 4.496 6.492 4.773 6.357 5.098C6.223 5.423 6.187 5.78 6.256 6.125C6.325 6.47 6.495 6.786 6.743 7.035C6.991 7.284 7.308 7.453 7.653 7.522C7.998 7.591 8.355 7.555 8.68 7.421C9.005 7.286 9.283 7.058 9.478 6.766Z" fill="#202020"/>
<path d="M7.99999 12C10.187 12 11.062 10.901 11.062 9.812C11.062 9.464 10.924 9.13 10.678 8.884C10.432 8.638 10.098 8.5 9.74999 8.5H6.24999C5.90199 8.5 5.56799 8.638 5.32199 8.884C5.07599 9.13 4.93799 9.464 4.93799 9.812C4.93799 10.906 5.81299 12 7.99999 12Z" fill="#202020"/>
</svg>
