<svg width="16" height="16" viewBox="0 0 16 16" fill="none" xmlns="http://www.w3.org/2000/svg">
<path fill-rule="evenodd" clip-rule="evenodd" d="M3.5 2C2.11929 2 1 3.11929 1 4.5V11.5C1 12.8807 2.11929 14 3.5 14H6.59971C6.43777 13.6832 6.30564 13.3486 6.20703 13H3.5C2.67157 13 2 12.3284 2 11.5V7H5.58579C5.98361 7 6.36514 6.84197 6.64645 6.56066L8.20711 5H12.5C13.3284 5 14 5.67157 14 6.5V6.59971C14.3578 6.78261 14.6929 7.00353 15 7.25716V6.5C15 5.11929 13.8807 4 12.5 4H8.20711L6.64645 2.43934C6.36514 2.15804 5.98361 2 5.58579 2H3.5ZM2 6V4.5C2 3.67157 2.67157 3 3.5 3H5.58579C5.71839 3 5.84557 3.05268 5.93934 3.14645L7.29289 4.5L5.93934 5.85355C5.84557 5.94732 5.71839 6 5.58579 6H2Z" fill="#B27C00"/>
<path fill-rule="evenodd" clip-rule="evenodd" d="M11.5 16C13.9853 16 16 13.9853 16 11.5C16 9.01472 13.9853 7 11.5 7C9.01472 7 7 9.01472 7 11.5C7 13.9853 9.01472 16 11.5 16ZM13.3536 10.3536C13.5488 10.1583 13.5488 9.84171 13.3536 9.64645C13.1583 9.45118 12.8417 9.45118 12.6464 9.64645L11.5 10.7929L10.3536 9.64645C10.1583 9.45118 9.84171 9.45118 9.64645 9.64645C9.45118 9.84171 9.45118 10.1583 9.64645 10.3536L10.7929 11.5L9.64645 12.6464C9.45118 12.8417 9.45118 13.1583 9.64645 13.3536C9.84171 13.5488 10.1583 13.5488 10.3536 13.3536L11.5 12.2071L12.6464 13.3536C12.8417 13.5488 13.1583 13.5488 13.3536 13.3536C13.5488 13.1583 13.5488 12.8417 13.3536 12.6464L12.2071 11.5L13.3536 10.3536Z" fill="#C50F1F"/>
</svg>
