<svg width="16" height="16" viewBox="0 0 16 16" fill="none" xmlns="http://www.w3.org/2000/svg">
<g clip-path="url(#clip0_7202_65814)">
<path fill-rule="evenodd" clip-rule="evenodd" d="M3.5 2C2.11929 2 1 3.11929 1 4.5V11.5C1 12.8807 2.11929 14 3.5 14H9.87927L10.8795 13.0005L3.5 13C2.67157 13 2 12.3284 2 11.5V7H5.58579C5.98361 7 6.36514 6.84197 6.64645 6.56066L8.20711 5H12.5C13.3284 5 14 5.67157 14 6.5V9.87927L14.4395 9.43948C14.5992 9.27981 14.7911 9.15984 15 9.08593V6.5C15 5.11929 13.8807 4 12.5 4H8.20711L6.64645 2.43934C6.36514 2.15804 5.98361 2 5.58579 2H3.5ZM2 6V4.5C2 3.67157 2.67157 3 3.5 3H5.58579C5.71839 3 5.84557 3.05268 5.93934 3.14645L7.29289 4.5L5.93934 5.85355C5.84557 5.94732 5.71839 6 5.58579 6H2Z" fill="#B27C00"/>
<path d="M15.8544 15.1465C15.9483 15.2404 16.001 15.3677 16.001 15.5005C16.001 15.6333 15.9483 15.7606 15.8544 15.8545C15.7605 15.9484 15.6332 16.0011 15.5004 16.0011C15.3676 16.0011 15.2403 15.9484 15.1464 15.8545L13.0004 13.7075L10.8544 15.8545C10.7605 15.9484 10.6332 16.0011 10.5004 16.0011C10.3676 16.0011 10.2403 15.9484 10.1464 15.8545C10.0525 15.7606 9.99976 15.6333 9.99976 15.5005C9.99976 15.3677 10.0525 15.2404 10.1464 15.1465L12.2934 13.0005L10.1464 10.8545C10.0525 10.7606 9.99976 10.6333 9.99976 10.5005C9.99976 10.3677 10.0525 10.2404 10.1464 10.1465C10.2403 10.0526 10.3676 9.99988 10.5004 9.99988C10.6332 9.99988 10.7605 10.0526 10.8544 10.1465L13.0004 12.2935L15.1464 10.1465C15.2403 10.0526 15.3676 9.99988 15.5004 9.99988C15.6332 9.99988 15.7605 10.0526 15.8544 10.1465C15.9483 10.2404 16.001 10.3677 16.001 10.5005C16.001 10.6333 15.9483 10.7606 15.8544 10.8545L13.7074 13.0005L15.8544 15.1465Z" fill="#202020"/>
</g>
<defs>
<clipPath id="clip0_7202_65814">
<rect width="16" height="16" fill="white"/>
</clipPath>
</defs>
</svg>
