<svg width="16" height="16" viewBox="0 0 16 16" fill="none" xmlns="http://www.w3.org/2000/svg">
<path fill-rule="evenodd" clip-rule="evenodd" d="M3.5 2C2.11929 2 1 3.11929 1 4.5V8.00001H2V7H5.58579C5.98361 7 6.36514 6.84197 6.64645 6.56066L8.20711 5H12.5C13.3284 5 14 5.67157 14 6.5V6.59971C14.3578 6.78261 14.6929 7.00353 15 7.25716V6.5C15 5.11929 13.8807 4 12.5 4H8.20711L6.64645 2.43934C6.36514 2.15804 5.98361 2 5.58579 2H3.5ZM2 6V4.5C2 3.67157 2.67157 3 3.5 3H5.58579C5.71839 3 5.84557 3.05268 5.93934 3.14645L7.29289 4.5L5.93934 5.85355C5.84557 5.94732 5.71839 6 5.58579 6H2Z" fill="#B27C00"/>
<path d="M6.20703 13C6.3047 13.3453 6.43526 13.6768 6.5951 13.991C6.56431 13.9969 6.53252 14 6.5 14H2.5C2.22386 14 2 13.7761 2 13.5C2 13.2239 2.22386 13 2.5 13H6.20703Z" fill="#202020"/>
<path d="M6.20703 10C6.30564 9.65136 6.43777 9.31679 6.59971 9H4.5C4.22386 9 4 9.22386 4 9.5C4 9.77614 4.22386 10 4.5 10H6.20703Z" fill="#202020"/>
<path d="M0.5 9C0.223858 9 0 9.22386 0 9.5C0 9.77614 0.223858 10 0.5 10H2.5C2.77614 10 3 9.77614 3 9.5C3 9.22386 2.77614 9 2.5 9H0.5Z" fill="#202020"/>
<path d="M2 11.5C2 11.2239 2.22386 11 2.5 11H4.5C4.77614 11 5 11.2239 5 11.5C5 11.7761 4.77614 12 4.5 12H2.5C2.22386 12 2 11.7761 2 11.5Z" fill="#202020"/>
<path d="M0.5 15C0.223858 15 0 15.2239 0 15.5C0 15.7761 0.223858 16 0.5 16H4.5C4.77614 16 5 15.7761 5 15.5C5 15.2239 4.77614 15 4.5 15H0.5Z" fill="#202020"/>
<path fill-rule="evenodd" clip-rule="evenodd" d="M16 11.5C16 13.9853 13.9853 16 11.5 16C9.01472 16 7 13.9853 7 11.5C7 9.01472 9.01472 7 11.5 7C13.9853 7 16 9.01472 16 11.5ZM13.8536 9.64645C14.0488 9.84171 14.0488 10.1583 13.8536 10.3536L10.8536 13.3536C10.6583 13.5488 10.3417 13.5488 10.1464 13.3536L9.14645 12.3536C8.95118 12.1583 8.95118 11.8417 9.14645 11.6464C9.34171 11.4512 9.65829 11.4512 9.85355 11.6464L10.5 12.2929L13.1464 9.64645C13.3417 9.45118 13.6583 9.45118 13.8536 9.64645Z" fill="#11910D"/>
</svg>
