<svg width="16" height="16" viewBox="0 0 16 16" fill="none" xmlns="http://www.w3.org/2000/svg">
<path d="M2.5 11C2.5 11.828 3.172 12.5 4 12.5H12C12.828 12.5 13.5 11.828 13.5 11V8.5H2.5V11Z" fill="#B27C00"/>
<path d="M12 4H7.17598L6.06298 3.109C5.97398 3.038 5.86398 3 5.75098 3H4.00098C2.89798 3 2.00098 3.897 2.00098 5V11C2.00098 12.103 2.89798 13 4.00098 13H12.001C13.104 13 14.001 12.103 14.001 11V6C14.001 4.897 13.103 4 12 4ZM3.99998 4H5.57398L6.68698 4.891C6.77598 4.962 6.88598 5 6.99898 5H11.999C12.551 5 12.999 5.449 12.999 6V8H2.99998V5C2.99998 4.449 3.44798 4 3.99998 4ZM12 12H3.99998C3.44798 12 2.99998 11.551 2.99998 11V9H13V11C13 11.551 12.552 12 12 12Z" fill="#B27C00"/>
</svg>
