<svg width="16" height="16" viewBox="0 0 16 16" fill="none" xmlns="http://www.w3.org/2000/svg">
<path d="M11 1C8.734 1 7 2.845 7 5V5.03C7.34 5.05 7.66 5.11 7.98 5.21C7.983 5.207 7.986 5.206 7.989 5.206C7.996 5.206 8.003 5.213 8.01 5.22C7.995 5.114 7.987 5.006 7.987 4.899C7.987 3.489 9.256 2 11 2C12.65 2 14 3.35 14 5C14 6.52 12.86 7.78 11.38 7.97C11.54 8.27 11.67 8.6 11.77 8.93C13.61 8.56 15 6.94 15 5C15 2.79 13.21 1 11 1Z" fill="#202020"/>
<path d="M2 5.5C2 4.001 3.233 3 4.52 3C5.098 3 5.686 3.202 6.18 3.65C6.28 3.31 6.41 2.99 6.57 2.69C5.945 2.216 5.229 2 4.524 2C2.728 2 1 3.4 1 5.5C1 6.33 1.29 7.09 1.78 7.69C1.95 7.39 2.16 7.11 2.4 6.85C2.15 6.46 2 6 2 5.5Z" fill="#202020"/>
<path fill-rule="evenodd" clip-rule="evenodd" d="M6.555 6.00488C7.901 6.00488 9.251 6.58888 10.14 7.86988C10.697 8.62788 11 9.58188 11 10.4999C11 12.9799 8.98 14.9999 6.5 14.9999C4.02 14.9999 2 12.9799 2 10.4999C2 7.68388 4.273 6.00488 6.555 6.00488ZM6.5 13.9999C8.622 13.9999 10 12.2459 10 10.4669C10 9.85788 9.839 9.24588 9.49 8.69988C9.071 7.97888 8.325 7.41288 7.67 7.20988C7.583 7.15188 7.033 6.99988 6.5 6.99988C4.62 6.99988 3 8.52988 3 10.4999C3 12.4299 4.57 13.9999 6.5 13.9999Z" fill="#202020"/>
</svg>
