<svg width="16" height="16" viewBox="0 0 16 16" fill="none" xmlns="http://www.w3.org/2000/svg">
<path d="M4.50099 9.00011C3.86033 9.00126 3.23168 8.82628 2.68374 8.49431C2.1358 8.16234 1.68965 7.68614 1.39404 7.11776C1.09843 6.54938 0.964737 5.91067 1.00757 5.27145C1.0504 4.63222 1.26812 4.01707 1.63692 3.49321C2.00571 2.96934 2.51141 2.55693 3.09874 2.30103C3.68608 2.04513 4.33245 1.9556 4.96723 2.0422C5.60201 2.12881 6.20077 2.38824 6.69808 2.79212C7.03322 3.0643 7.3136 3.39503 7.52661 3.76649L8.14654 3.14656C8.3418 2.9513 8.65839 2.9513 8.85365 3.14656L9.5001 3.79301L10.1465 3.14656C10.3418 2.9513 10.6584 2.9513 10.8536 3.14656L11.5001 3.79301L12.1465 3.14656C12.3418 2.9513 12.6584 2.9513 12.8536 3.14656L14.8536 5.14656C15.0489 5.34183 15.0489 5.65841 14.8536 5.85367L14.0708 6.63654C13.3135 6.23544 12.4514 6.00602 11.5362 6.00012L13.293 6.00012L13.793 5.50012L12.5001 4.20722L11.8536 4.85367C11.6584 5.04893 11.3418 5.04893 11.1465 4.85367L10.5001 4.20722L9.85365 4.85367C9.65839 5.04893 9.3418 5.04893 9.14654 4.85367L8.5001 4.20722L7.85365 4.85367C7.75988 4.94744 7.6327 5.00012 7.5001 5.00012H7.3161C7.10464 5.00012 6.91604 4.86709 6.84509 4.6679C6.69162 4.23706 6.42268 3.8567 6.06766 3.56837C5.71264 3.28005 5.2852 3.09485 4.83204 3.03302C4.37889 2.9712 3.91746 3.03511 3.49817 3.21779C3.07889 3.40047 2.71789 3.69489 2.45461 4.06886C2.19133 4.44283 2.03591 4.88198 2.00533 5.33831C1.97475 5.79464 2.07019 6.25059 2.28122 6.65635C2.49225 7.0621 2.81075 7.40205 3.20191 7.63904C3.59307 7.87602 4.04185 8.00093 4.4992 8.00012C5.01436 7.9992 5.51656 7.83851 5.93657 7.54021C6.35658 7.2419 6.67373 6.82067 6.8443 6.33457C6.9146 6.13422 7.10377 6.00012 7.3161 6.00012L11.4638 6.00012C10.3002 6.00762 9.22228 6.37648 8.33676 7.00012H7.6507C7.39581 7.54001 7.00566 8.00746 6.51561 8.3555C5.92692 8.77361 5.22305 8.99882 4.50099 9.00011Z" fill="#202020"/>
<path d="M3.5001 4.75012C3.08588 4.75012 2.7501 5.08591 2.7501 5.50012C2.7501 5.91433 3.08588 6.25012 3.5001 6.25012C3.91431 6.25012 4.2501 5.91433 4.2501 5.50012C4.2501 5.08591 3.91431 4.75012 3.5001 4.75012Z" fill="#202020"/>
<path fill-rule="evenodd" clip-rule="evenodd" d="M11.5 16C13.9853 16 16 13.9853 16 11.5C16 9.01472 13.9853 7 11.5 7C9.01472 7 7 9.01472 7 11.5C7 13.9853 9.01472 16 11.5 16ZM13.3536 10.3536C13.5488 10.1583 13.5488 9.84171 13.3536 9.64645C13.1583 9.45118 12.8417 9.45118 12.6464 9.64645L11.5 10.7929L10.3536 9.64645C10.1583 9.45118 9.84171 9.45118 9.64645 9.64645C9.45118 9.84171 9.45118 10.1583 9.64645 10.3536L10.7929 11.5L9.64645 12.6464C9.45118 12.8417 9.45118 13.1583 9.64645 13.3536C9.84171 13.5488 10.1583 13.5488 10.3536 13.3536L11.5 12.2071L12.6464 13.3536C12.8417 13.5488 13.1583 13.5488 13.3536 13.3536C13.5488 13.1583 13.5488 12.8417 13.3536 12.6464L12.2071 11.5L13.3536 10.3536Z" fill="#C50F1F"/>
</svg>
