<svg width="16" height="16" viewBox="0 0 16 16" fill="none" xmlns="http://www.w3.org/2000/svg">
<path d="M3.5 2C3.224 2 3 2.224 3 2.5C3 2.776 3.224 3 3.5 3H12.5C12.776 3 13 3.225 13 3.5V12.501C13 12.776 12.776 13.001 12.5 13.001H4.5C4.224 13.001 4 12.776 4 12.501V6.708L5.146 7.854C5.243 7.952 5.371 8 5.499 8C5.779 8 5.999 7.773 5.999 7.5C5.999 7.372 5.951 7.244 5.853 7.146L3.853 5.146C3.756 5.049 3.627 5 3.499 5C3.371 5 3.243 5.049 3.146 5.146L1.146 7.146C1.049 7.244 1 7.372 1 7.5C1 7.776 1.223 8 1.5 8C1.628 8 1.756 7.951 1.854 7.854L3 6.708V12.501C3 13.328 3.674 14.001 4.501 14.001H12.501C13.328 14.001 14.001 13.328 14.001 12.501V3.5C14.001 2.673 13.328 2 12.501 2H3.5Z" fill="#202020"/>
</svg>
