<svg width="16" height="16" viewBox="0 0 16 16" fill="none" xmlns="http://www.w3.org/2000/svg">
<path fill-rule="evenodd" clip-rule="evenodd" d="M3 3C3 1.89543 3.89543 1 5 1H8.58579C8.98361 1 9.36514 1.15804 9.64645 1.43934L12.5607 4.35355C12.842 4.63486 13 5.01639 13 5.41421V8.00011H12V7.50011C12.0002 7.48802 12.0002 7.47594 12 7.46387V6H9.5C8.67157 6 8 5.32843 8 4.5V2H5C4.44772 2 4 2.44772 4 3V13C4 13.5523 4.44772 14 5 14H11C11.5523 14 12 13.5523 12 13V11.0001H13V13C13 14.1046 12.1046 15 11 15H5C3.89543 15 3 14.1046 3 13V3ZM9.5 5H11.7929L9 2.20711V4.5C9 4.77614 9.22386 5 9.5 5Z" fill="#202020"/>
<path d="M8.15 9.15015L10.15 7.15015C10.1951 7.10271 10.2494 7.06493 10.3096 7.03912C10.3697 7.01331 10.4345 7 10.5 7C10.5655 7 10.6303 7.01331 10.6904 7.03912C10.7506 7.06493 10.8049 7.10271 10.85 7.15015C10.8974 7.19527 10.9352 7.24956 10.961 7.30973C10.9868 7.36989 11.0002 7.43468 11.0002 7.50015C11.0002 7.56562 10.9868 7.63041 10.961 7.69057C10.9352 7.75074 10.8974 7.80503 10.85 7.85015L9.71 9.00015L14.5 9.00015C14.6326 9.00015 14.7598 9.05283 14.8536 9.1466C14.9473 9.24037 15 9.36754 15 9.50015C15 9.63276 14.9473 9.75994 14.8536 9.8537C14.7598 9.94747 14.6326 10.0002 14.5 10.0002L9.71 10.0001L10.85 11.1502C10.9413 11.2433 10.9921 11.3687 10.9915 11.4991C10.9908 11.6295 10.9387 11.7544 10.8465 11.8466C10.7543 11.9389 10.6294 11.9909 10.499 11.9916C10.3685 11.9923 10.2431 11.9414 10.15 11.8501L8.15 9.85015C8.10256 9.80503 8.06478 9.75074 8.03897 9.69057C8.01316 9.63041 7.99985 9.56562 7.99985 9.50015C7.99985 9.43468 8.01316 9.36989 8.03897 9.30973C8.06478 9.24956 8.10256 9.19527 8.15 9.15015V9.15015Z" fill="#006CBF"/>
</svg>
