<svg width="16" height="16" viewBox="0 0 16 16" fill="none" xmlns="http://www.w3.org/2000/svg">
<path d="M9.5 4H4.5C3.119 4 2 5.119 2 6.5V11.5C2 12.881 3.119 14 4.5 14H9.5C10.881 14 12 12.881 12 11.5V6.5C12 5.119 10.881 4 9.5 4ZM4.5 5H9.5C10.153 5 10.709 5.417 10.915 6H3.085C3.291 5.417 3.847 5 4.5 5ZM11 11.5C11 12.328 10.328 13 9.5 13H4.5C3.672 13 3 12.328 3 11.5V7H11V11.5ZM14 6V9.5C14 10.318 13.607 11.044 13 11.5V6C13 4.343 11.657 3 10 3H4.5C4.956 2.393 5.682 2 6.5 2H10C12.209 2 14 3.791 14 6ZM6 10.5C6 10.224 6.224 10 6.5 10H9.5C9.776 10 10 10.224 10 10.5C10 10.776 9.776 11 9.5 11H6.5C6.224 11 6 10.776 6 10.5ZM6 8.5C6 8.224 6.224 8 6.5 8H9.5C9.776 8 10 8.224 10 8.5C10 8.776 9.776 9 9.5 9H6.5C6.224 9 6 8.776 6 8.5ZM4 10.5C4 10.224 4.224 10 4.5 10C4.776 10 5 10.224 5 10.5C5 10.776 4.776 11 4.5 11C4.224 11 4 10.776 4 10.5ZM4 8.5C4 8.224 4.224 8 4.5 8C4.776 8 5 8.224 5 8.5C5 8.776 4.776 9 4.5 9C4.224 9 4 8.776 4 8.5Z" fill="#202020"/>
</svg>
