<svg width="16" height="16" viewBox="0 0 16 16" fill="none" xmlns="http://www.w3.org/2000/svg">
<path d="M7 8V8.5C7 8.776 7.224 9 7.5 9H12.5C12.776 9 13 8.776 13 8.5V6.5C13 6.224 12.776 6 12.5 6H12C12 6.36429 11.9026 6.70583 11.7324 7H12V8H7Z" fill="#202020"/>
<path d="M6 8H5V13.25C5 14.216 5.784 15 6.75 15H13.25C14.216 15 15 14.216 15 13.25V3.75C15 2.784 14.216 2 13.25 2H12V3H13.25C13.664 3 14 3.336 14 3.75V13.25C14 13.664 13.664 14 13.25 14H6.75C6.336 14 6 13.664 6 13.25V8Z" fill="#202020"/>
<path fill-rule="evenodd" clip-rule="evenodd" d="M7 10.5C7 10.224 7.224 10 7.5 10H12.5C12.776 10 13 10.224 13 10.5V12.5C13 12.776 12.776 13 12.5 13H7.5C7.224 13 7 12.776 7 12.5V10.5ZM12 12V11H8V12H12Z" fill="#202020"/>
<path d="M5.492 7C7.424 7 8.992 5.432 8.992 3.5C8.995 3.458 8.997 3.415 8.997 3.373C8.997 2.234 7.987 1.679 7.406 1.679C7.205 1.679 6.804 1.747 6.532 2.13C6.176 1.742 5.734 1.68 5.508 1.68C5.448 1.68 3.944 1.832 3.944 3.332C3.944 3.388 3.947 3.444 3.953 3.5C3.947 3.556 3.944 3.612 3.944 3.668C3.944 4.93 5.098 5.32 5.505 5.32C5.767 5.32 6.025 5.246 6.247 5.107C6.296 5.193 6.416 5.319 6.612 5.319C6.936 5.319 7.019 5.021 7.028 4.957V3.5C7.028 2.8 7.185 2.52 7.448 2.52C8.783 2.52 8.257 6.156 5.49 6.156C3.911 6.156 2.832 4.864 2.832 3.498C2.832 1.892 4.179 0.84 5.49 0.84C5.707 0.84 5.924 0.867 6.137 0.92L6.293 0.964L6.407 1C6.453 1.016 6.501 1.024 6.548 1.024C6.771 1.024 6.968 0.848 6.968 0.604C6.968 0.448 6.881 0.307 6.748 0.235L6.695 0.211L6.552 0.162C6.211 0.0539997 5.856 0 5.5 0C3.176 0 2 1.957 2 3.5C2 5.854 3.998 6.997 5.492 7ZM5.492 4.48C5.087 4.48 4.792 4.058 4.792 3.5C4.792 2.942 5.087 2.52 5.492 2.52C5.897 2.52 6.192 2.942 6.192 3.5C6.192 4.058 5.897 4.48 5.492 4.48ZM2 0.5C2 0.776 1.776 1 1.5 1H1V6H1.5C1.776 6 2 6.224 2 6.5C2 6.776 1.776 7 1.5 7H1C0.448 7 0 6.551 0 6V1C0 0.449 0.448 0 1 0H1.5C1.776 0 2 0.224 2 0.5ZM11 1V6C11 6.551 10.552 7 10 7H9.5C9.224 7 9 6.776 9 6.5C9 6.224 9.224 6 9.5 6H10V1H9.5C9.224 1 9 0.776 9 0.5C9 0.224 9.224 0 9.5 0H10C10.552 0 11 0.449 11 1Z" fill="#202020"/>
</svg>
