<svg width="16" height="16" viewBox="0 0 16 16" fill="none" xmlns="http://www.w3.org/2000/svg">
<path d="M3.75 3C3.551 3 3.361 3.079 3.22 3.22C3.079 3.36 3 3.551 3 3.75V4.5C3 4.776 2.776 5 2.5 5C2.224 5 2 4.776 2 4.5V3.75C2 3.286 2.185 2.841 2.513 2.513C2.841 2.184 3.286 2 3.75 2H4.5C4.776 2 5 2.224 5 2.5C5 2.776 4.776 3 4.5 3H3.75Z" fill="#202020"/>
<path d="M2.5 6C2.776 6 3 6.224 3 6.5V9.5C3 9.776 2.776 10 2.5 10C2.224 10 2 9.776 2 9.5V6.5C2 6.224 2.224 6 2.5 6Z" fill="#202020"/>
<path d="M3 11.5C3 11.224 2.776 11 2.5 11C2.224 11 2 11.224 2 11.5V12.25C2 12.714 2.185 13.159 2.513 13.487C2.841 13.816 3.286 14 3.75 14H4.5C4.776 14 5 13.776 5 13.5C5 13.224 4.776 13 4.5 13H3.75C3.551 13 3.361 12.921 3.22 12.78C3.079 12.64 3 12.449 3 12.25V11.5Z" fill="#202020"/>
<path d="M6 13.5C6 13.224 6.224 13 6.5 13H9.5C9.776 13 10 13.224 10 13.5C10 13.776 9.776 14 9.5 14H6.5C6.224 14 6 13.776 6 13.5Z" fill="#202020"/>
<path d="M14 11.5C14 11.224 13.776 11 13.5 11C13.224 11 13 11.224 13 11.5V12.25C13 12.449 12.921 12.639 12.78 12.78C12.64 12.921 12.449 13 12.25 13H11.5C11.224 13 11 13.224 11 13.5C11 13.776 11.224 14 11.5 14H12.25C12.714 14 13.158 13.815 13.487 13.487C13.816 13.159 14 12.714 14 12.25V11.5Z" fill="#202020"/>
<path d="M13.5 6C13.776 6 14 6.224 14 6.5V9.5C14 9.776 13.776 10 13.5 10C13.224 10 13 9.776 13 9.5V6.5C13 6.224 13.224 6 13.5 6Z" fill="#202020"/>
<path d="M11.5 2C11.224 2 11 2.224 11 2.5C11 2.776 11.224 3 11.5 3H12.25C12.449 3 12.639 3.079 12.78 3.22C12.921 3.36 13 3.551 13 3.75V4.5C13 4.776 13.224 5 13.5 5C13.776 5 14 4.776 14 4.5V3.75C14 3.286 13.815 2.841 13.487 2.513C13.159 2.184 12.714 2 12.25 2H11.5Z" fill="#202020"/>
<path d="M6 2.5C6 2.224 6.224 2 6.5 2H9.5C9.776 2 10 2.224 10 2.5C10 2.776 9.776 3 9.5 3H6.5C6.224 3 6 2.776 6 2.5Z" fill="#202020"/>
<path fill-rule="evenodd" clip-rule="evenodd" d="M7 7H11C11.551 7 12 6.551 12 6V5C12 4.449 11.551 4 11 4H7C6.449 4 6 4.449 6 5V6C6 6.551 6.449 7 7 7ZM11 6H7V5H11V6Z" fill="#202020"/>
<path d="M11.5 8C11.776 8 12 8.224 12 8.5C12 8.776 11.776 9 11.5 9H6.5C6.224 9 6 8.776 6 8.5C6 8.224 6.224 8 6.5 8H11.5Z" fill="#202020"/>
<path d="M11.5 10C11.776 10 12 10.224 12 10.5C12 10.776 11.776 11 11.5 11H6.5C6.224 11 6 10.776 6 10.5C6 10.224 6.224 10 6.5 10H11.5Z" fill="#202020"/>
<path d="M4 5.5C4 5.224 4.224 5 4.5 5C4.776 5 5 5.224 5 5.5C5 5.776 4.776 6 4.5 6C4.224 6 4 5.776 4 5.5Z" fill="#202020"/>
<path d="M4 8.5C4 8.224 4.224 8 4.5 8C4.776 8 5 8.224 5 8.5C5 8.776 4.776 9 4.5 9C4.224 9 4 8.776 4 8.5Z" fill="#202020"/>
<path d="M4 10.5C4 10.224 4.224 10 4.5 10C4.776 10 5 10.224 5 10.5C5 10.776 4.776 11 4.5 11C4.224 11 4 10.776 4 10.5Z" fill="#202020"/>
</svg>
