<svg width="16" height="16" viewBox="0 0 16 16" fill="none" xmlns="http://www.w3.org/2000/svg">
<g clip-path="url(#clip0_7202_66033)">
<path fill-rule="evenodd" clip-rule="evenodd" d="M4 12H15.5C15.776 12 16 12.224 16 12.5C16 12.776 15.776 13 15.5 13H2C0.897 13 0 12.103 0 11V5C0 3.897 0.897 3 2 3H15.5C15.776 3 16 3.224 16 3.5C16 3.776 15.776 4 15.5 4H4V12ZM2 12H3V10H1V11C1 11.552 1.449 12 2 12ZM1 9H3V7H1V9ZM1 6H3V4H2C1.449 4 1 4.448 1 5V6Z" fill="#202020"/>
<path fill-rule="evenodd" clip-rule="evenodd" d="M8 7.5C8 7.821 7.899 8.118 7.727 8.362C8.047 8.637 8.25 9.045 8.25 9.5C8.25 10.328 7.578 11 6.75 11H5.5C5.224 11 5 10.776 5 10.5V6.5C5 6.224 5.224 6 5.5 6H6.5C7.328 6 8 6.672 8 7.5ZM6.5 7H6V8H6.5C6.776 8 7 7.776 7 7.5C7 7.224 6.776 7 6.5 7ZM6 10H6.75C7.026 10 7.25 9.776 7.25 9.5C7.25 9.224 7.026 9 6.75 9C6.719 9 6.689 8.997 6.659 8.992C6.607 8.997 6.554 9 6.5 9H6V10Z" fill="#202020"/>
<path d="M14.5 10.9998C14.271 10.9998 14.071 10.8438 14.015 10.6208L13.5 8.56078L12.985 10.6208C12.874 11.0658 12.127 11.0658 12.015 10.6208L11.015 6.62078C10.948 6.35278 11.111 6.08178 11.379 6.01478C11.647 5.95078 11.918 6.11078 11.985 6.37878L12.5 8.43878L13.015 6.37878C13.126 5.93378 13.873 5.93378 13.985 6.37878L14.5 8.43878L15.015 6.37878C15.081 6.10978 15.351 5.94878 15.621 6.01478C15.889 6.08178 16.052 6.35378 15.985 6.62078L14.985 10.6208C14.929 10.8438 14.73 10.9998 14.5 10.9998Z" fill="#202020"/>
<path d="M8.87807 10.9848C8.91907 10.9948 8.96007 10.9998 9.00007 10.9998C9.22407 10.9998 9.42707 10.8488 9.48407 10.6208L10.4841 6.62078C10.5511 6.35378 10.3881 6.08178 10.1201 6.01478C9.85107 5.94878 9.58107 6.10978 9.51407 6.37878L8.51407 10.3788C8.44707 10.6458 8.61007 10.9178 8.87807 10.9848Z" fill="#202020"/>
</g>
<defs>
<clipPath id="clip0_7202_66033">
<rect width="16" height="16" fill="white"/>
</clipPath>
</defs>
</svg>
