<svg width="16" height="16" viewBox="0 0 16 16" fill="none" xmlns="http://www.w3.org/2000/svg">
<path d="M14 4.5C14 3.119 12.881 2 11.5 2H4.5C3.119 2 2 3.119 2 4.5V11.5C2 12.881 3.119 14 4.5 14H11.5C12.881 14 14 12.881 14 11.5V4.5ZM11.5 3C12.328 3 13 3.672 13 4.5V11.5C13 12.328 12.328 13 11.5 13H4.5C3.672 13 3 12.328 3 11.5V4.5C3 3.672 3.672 3 4.5 3H11.5ZM6.303 11.96C6.049 11.851 5.932 11.557 6.04 11.303L9.04 4.303C9.15 4.049 9.445 3.934 9.697 4.04C9.951 4.149 10.068 4.443 9.96 4.697L6.96 11.697C6.878 11.886 6.693 12 6.5 12C6.434 12 6.367 11.987 6.303 11.96Z" fill="#202020"/>
</svg>
