<svg width="16" height="16" viewBox="0 0 16 16" fill="none" xmlns="http://www.w3.org/2000/svg">
<path d="M12 4.99976H11.707L8.35302 1.64576C8.15802 1.45076 7.84102 1.45076 7.64602 1.64576L4.29202 4.99976H3.99902C2.89602 4.99976 1.99902 5.89676 1.99902 6.99976V11.9998C1.99902 13.1028 2.89602 13.9998 3.99902 13.9998H11.999C13.102 13.9998 13.999 13.1028 13.999 11.9998V6.99976C13.999 5.89676 13.102 4.99976 11.999 4.99976H12ZM8.00002 2.70676L10.293 4.99976H5.70702L8.00002 2.70676ZM13 11.9998C13 12.5508 12.551 12.9998 12 12.9998H4.00002C3.44902 12.9998 3.00002 12.5508 3.00002 11.9998V6.99976C3.00002 6.44876 3.44902 5.99976 4.00002 5.99976H12C12.551 5.99976 13 6.44876 13 6.99976V11.9998Z" fill="#202020"/>
</svg>
