<svg width="16" height="16" viewBox="0 0 16 16" fill="none" xmlns="http://www.w3.org/2000/svg">
<path fill-rule="evenodd" clip-rule="evenodd" d="M6.5 3H13.5C14.327 3 15 3.673 15 4.5V7.25716C14.6929 7.00353 14.3578 6.78261 14 6.59971V4.5C14 4.224 13.775 4 13.5 4H6.5C6.225 4 6 4.224 6 4.5V10.5C6 10.5813 6.01951 10.658 6.05405 10.7259C6.01842 10.9788 6 11.2373 6 11.5C6 11.6412 6.00532 11.7812 6.01578 11.9198C5.42559 11.7179 5 11.1576 5 10.5V8H4C4 8.551 3.552 9 3 9H2C1.448 9 1 8.551 1 8V7C1 6.449 1.448 6 2 6H3C3.552 6 4 6.449 4 7H5V4.5C5 3.673 5.673 3 6.5 3ZM2 7V8H3V7H2Z" fill="#202020"/>
<path d="M9.71108 6.29748C9.52976 6.11395 9.27808 6 9 6H8C7.448 6 7 6.449 7 7V8C7 8.0974 7.014 8.19162 7.0401 8.28073C7.31541 7.89998 7.63828 7.55589 8 7.25716V7H8.33692C8.75571 6.70509 9.21752 6.46716 9.71108 6.29748Z" fill="#202020"/>
<path d="M12.999 6.20674C12.5224 6.07206 12.0196 6 11.5 6C11.3315 6 11.1647 6.00758 11 6.02242V5.835C11 5.375 11.375 5 11.835 5H12.165C12.625 5 13 5.375 13 5.835V6.165C13 6.179 12.9997 6.19291 12.999 6.20674Z" fill="#202020"/>
<path fill-rule="evenodd" clip-rule="evenodd" d="M11.5 16C13.9853 16 16 13.9853 16 11.5C16 9.01472 13.9853 7 11.5 7C9.01472 7 7 9.01472 7 11.5C7 13.9853 9.01472 16 11.5 16ZM13.3536 10.3536C13.5488 10.1583 13.5488 9.84171 13.3536 9.64645C13.1583 9.45118 12.8417 9.45118 12.6464 9.64645L11.5 10.7929L10.3536 9.64645C10.1583 9.45118 9.84171 9.45118 9.64645 9.64645C9.45118 9.84171 9.45118 10.1583 9.64645 10.3536L10.7929 11.5L9.64645 12.6464C9.45118 12.8417 9.45118 13.1583 9.64645 13.3536C9.84171 13.5488 10.1583 13.5488 10.3536 13.3536L11.5 12.2071L12.6464 13.3536C12.8417 13.5488 13.1583 13.5488 13.3536 13.3536C13.5488 13.1583 13.5488 12.8417 13.3536 12.6464L12.2071 11.5L13.3536 10.3536Z" fill="#C50F1F"/>
</svg>
