<svg width="16" height="16" viewBox="0 0 16 16" fill="none" xmlns="http://www.w3.org/2000/svg">
<path fill-rule="evenodd" clip-rule="evenodd" d="M6.5 3H13.5C14.327 3 15 3.673 15 4.5V7.34347C14.7439 6.95828 14.4012 6.63535 14 6.40271V4.5C14 4.224 13.775 4 13.5 4H6.5C6.225 4 6 4.224 6 4.5V10.5C6 10.776 6.225 11 6.5 11H8V12H6.5C5.673 12 5 11.327 5 10.5V8H4C4 8.551 3.552 9 3 9H2C1.448 9 1 8.551 1 8V7C1 6.449 1.448 6 2 6H3C3.552 6 4 6.449 4 7H5V4.5C5 3.673 5.673 3 6.5 3ZM2 7V8H3V7H2Z" fill="#202020"/>
<path fill-rule="evenodd" clip-rule="evenodd" d="M10 7.34372C9.70785 7.78326 9.52835 8.30389 9.50309 8.86407C9.35528 8.95045 9.18338 9 9 9H8C7.448 9 7 8.551 7 8V7C7 6.449 7.448 6 8 6H9C9.552 6 10 6.449 10 7V7.34372ZM8 7V8H9V7H8Z" fill="#202020"/>
<path d="M13 6.04168C12.8374 6.01427 12.6703 6 12.5 6C11.9662 6 11.4644 6.14021 11.0297 6.38576C11.0103 6.3154 11 6.24137 11 6.165V5.835C11 5.375 11.375 5 11.835 5H12.165C12.625 5 13 5.375 13 5.835V6.04168Z" fill="#202020"/>
<path d="M10.5 9V10H9.875C9.392 10 9 10.403 9 10.9V15.1C9 15.597 9.392 16 9.875 16H15.125C15.608 16 16 15.597 16 15.1V10.9C16 10.403 15.608 10 15.125 10H14.5V9C14.5 7.895 13.605 7 12.5 7C11.395 7 10.5 7.895 10.5 9ZM12.5 8C13.052 8 13.5 8.448 13.5 9V10H11.5V9C11.5 8.448 11.948 8 12.5 8ZM12.5 13.75C12.086 13.75 11.75 13.414 11.75 13C11.75 12.586 12.086 12.25 12.5 12.25C12.914 12.25 13.25 12.586 13.25 13C13.25 13.414 12.914 13.75 12.5 13.75Z" fill="#202020"/>
</svg>
