<svg width="16" height="16" viewBox="0 0 16 16" fill="none" xmlns="http://www.w3.org/2000/svg">
<path fill-rule="evenodd" clip-rule="evenodd" d="M2.3606 5.94653C3.19918 3.64412 5.40759 2 8 2C11.3137 2 14 4.68629 14 8C14 10.5924 12.3559 12.8008 10.0535 13.6394L8.86293 12.4489C9.01523 12.254 9.16747 12.0014 9.31258 11.6822C9.4073 11.4738 9.49448 11.2455 9.57265 11H7.41406L6.41406 10H9.82134C9.93562 9.3892 10 8.71396 10 8C10 7.28604 9.93562 6.6108 9.82134 6H6.17866C6.06438 6.6108 6 7.28604 6 8C6 8.60494 6.04622 9.18209 6.12985 9.71579L5.01413 8.60007C5.00477 8.40246 5 8.20226 5 8C5 7.30146 5.05694 6.6275 5.16299 6H3.41604C3.31158 6.2391 3.22527 6.48795 3.15886 6.7448L2.3606 5.94653ZM9.31258 4.31781C8.87543 3.35608 8.37372 3 8 3C7.62628 3 7.12457 3.35608 6.68742 4.31781C6.5927 4.52619 6.50552 4.75446 6.42735 5H9.57265C9.49448 4.75446 9.4073 4.52619 9.31258 4.31781ZM5.38411 5C5.49428 4.6038 5.62614 4.23601 5.77705 3.90401C5.85596 3.7304 5.94287 3.56117 6.03766 3.39978C5.22525 3.74677 4.52341 4.30269 3.99963 5H5.38411ZM12.0004 11H10.6159C10.5057 11.3962 10.3739 11.764 10.2229 12.096C10.144 12.2696 10.0571 12.4388 9.96234 12.6002C10.7747 12.2532 11.4766 11.6973 12.0004 11ZM10.837 10H12.584C12.8516 9.38754 13 8.7111 13 8C13 7.2889 12.8516 6.61246 12.584 6H10.837C10.9431 6.6275 11 7.30146 11 8C11 8.69854 10.9431 9.3725 10.837 10ZM12.0004 5C11.4766 4.30269 10.7747 3.74677 9.96234 3.39978C10.0571 3.56117 10.144 3.7304 10.2229 3.90401C10.3739 4.23601 10.5057 4.6038 10.6159 5H12.0004Z" fill="#202020"/>
<path d="M2 7L9 14H6.164C5.89881 13.9999 5.64449 13.8945 5.457 13.707L2.293 10.543C2.10545 10.3555 2.00006 10.1012 2 9.836V7Z" fill="#202020"/>
</svg>
