<svg width="16" height="16" viewBox="0 0 16 16" fill="none" xmlns="http://www.w3.org/2000/svg">
<path d="M1 2.24941C1 1.55938 1.55917 1 2.24895 1H2.74852C3.4383 1 3.99747 1.55938 3.99747 2.24941V6.37547L3.811 6.189C3.6717 6.04961 3.5063 5.93904 3.32425 5.86359C3.21924 5.82008 3.10988 5.78874 2.99831 5.77002V2.24941C2.99831 2.11141 2.88648 1.99953 2.74852 1.99953H2.24895C2.11099 1.99953 1.99916 2.11141 1.99916 2.24941V5.95077C1.88606 6.01616 1.78175 6.0962 1.689 6.189L1 6.87841V2.24941Z" fill="#202020"/>
<path d="M7.9941 2.24941V8.3721L7.561 7.939C7.4217 7.79961 7.2563 7.68904 7.07425 7.61359C7.04807 7.60275 7.02162 7.59265 6.99494 7.58333V2.24941C6.99494 2.11141 6.88311 1.99953 6.74515 1.99953H6.24557C6.10762 1.99953 5.99578 2.11141 5.99578 2.24941V7.5866C5.97224 7.59501 5.94889 7.604 5.92575 7.61359C5.7437 7.68904 5.5783 7.79961 5.439 7.939L5.379 8H5.229C5.19415 7.78922 5.11447 7.5896 4.99663 7.41409V2.24941C4.99663 1.55938 5.5558 1 6.24557 1H6.74515C7.43492 1 7.9941 1.55938 7.9941 2.24941Z" fill="#202020"/>
<path fill-rule="evenodd" clip-rule="evenodd" d="M11.9723 3.77682C11.7231 3.15733 11.0311 2.84331 10.4011 3.06385L9.81888 3.26764C9.14658 3.50297 8.80684 4.25222 9.07268 4.91326L12.0098 12.2166C12.2589 12.8361 12.9509 13.1502 13.581 12.9296L14.1632 12.7258C14.8355 12.4904 15.1752 11.7412 14.9093 11.0802L11.9723 3.77682ZM10.7311 4.00729C10.8571 3.96318 10.9955 4.02598 11.0453 4.14988L13.9824 11.4532C14.0356 11.5854 13.9676 11.7353 13.8332 11.7823L13.251 11.9862C13.1249 12.0303 12.9865 11.9675 12.9367 11.8436L9.99964 4.5402C9.94647 4.40799 10.0144 4.25815 10.1489 4.21108L10.7311 4.00729Z" fill="#202020"/>
<path d="M0.396828 8.89657C0.201566 9.09183 0.201566 9.40841 0.396828 9.60367L1.39668 10.6035C1.59194 10.7988 1.90852 10.7988 2.10378 10.6035L2.7073 10H3V13C3 13.2652 3.10536 13.5196 3.29289 13.7071C3.48043 13.8946 3.73479 14 4 14H4.81686C4.70846 14.1876 4.73165 14.4309 4.88807 14.595L5.37607 15.107C5.46899 15.2045 5.59732 15.2603 5.732 15.262C5.86668 15.2636 5.99632 15.2108 6.09155 15.1156L7.35355 13.8536C7.54882 13.6583 7.54882 13.3417 7.35355 13.1464L6.85355 12.6464C6.65829 12.4512 6.34171 12.4512 6.14645 12.6464L5.79289 13H4V10H4.82217C4.72152 10.1858 4.74699 10.4223 4.90009 10.583L5.38809 11.095C5.48102 11.1925 5.60935 11.2483 5.74403 11.25C5.87871 11.2516 6.00834 11.1988 6.10358 11.1036L7.35358 9.85355C7.54884 9.65829 7.54884 9.34171 7.35358 9.14645L6.85358 8.64645C6.65832 8.45118 6.34173 8.45118 6.14647 8.64645L5.79292 9H3.7073L4.10348 8.60382C4.29874 8.40856 4.29874 8.09198 4.10348 7.89672L3.10363 6.89687C2.90837 6.70161 2.59179 6.70161 2.39653 6.89687L0.396828 8.89657Z" fill="#5C2E91"/>
</svg>
