<svg width="16" height="16" viewBox="0 0 16 16" fill="none" xmlns="http://www.w3.org/2000/svg">
<path d="M12.561 4.354L9.647 1.44C9.366 1.159 8.984 1.001 8.586 1.001H5C3.895 1.001 3 1.896 3 3.001V6.213C3.323 6.122 3.656 6.057 4 6.026V3.001C4 2.449 4.448 2.001 5 2.001H8V4.501C8 5.329 8.672 6.001 9.5 6.001H12V13.001C12 13.553 11.552 14.001 11 14.001H9.395C9.212 14.358 8.996 14.695 8.743 15.001H11C12.105 15.001 13 14.106 13 13.001V5.415C13 5.017 12.842 4.636 12.561 4.354ZM9.5 5C9.224 5 9 4.776 9 4.5V2.207L11.793 5H9.5Z" fill="#202020"/>
<path fill-rule="evenodd" clip-rule="evenodd" d="M0.634994 10.92C1.72299 10.642 2.36899 9.523 2.06599 8.442L1.90999 7.885C2.16399 7.69 2.43899 7.522 2.73199 7.388L3.06899 7.746C3.85799 8.583 5.18899 8.584 5.97899 7.748L6.30399 7.404C6.60199 7.545 6.88199 7.719 7.13899 7.922L7.01299 8.344C6.68399 9.446 7.34999 10.598 8.46899 10.863L8.81799 10.946C8.83999 11.128 8.85099 11.313 8.85099 11.501C8.85099 11.657 8.84299 11.811 8.82799 11.963L8.36699 12.081C7.27899 12.359 6.63299 13.478 6.93599 14.559L7.09199 15.116C6.83799 15.311 6.56299 15.479 6.26999 15.614L5.93299 15.256C5.14399 14.419 3.81299 14.418 3.02299 15.255L2.69799 15.599C2.39999 15.459 2.12099 15.284 1.86299 15.081L1.98899 14.658C2.31799 13.556 1.65199 12.404 0.532994 12.139L0.182994 12.056C0.160994 11.874 0.149994 11.689 0.149994 11.502C0.149994 11.346 0.157994 11.192 0.172994 11.04L0.633994 10.922L0.634994 10.92ZM5.49999 11.5C5.49999 12.052 5.05199 12.5 4.49999 12.5C3.94799 12.5 3.49999 12.052 3.49999 11.5C3.49999 10.948 3.94799 10.5 4.49999 10.5C5.05199 10.5 5.49999 10.948 5.49999 11.5Z" fill="#5C2E91"/>
</svg>
