<svg width="16" height="16" viewBox="0 0 16 16" fill="none" xmlns="http://www.w3.org/2000/svg">
<g clip-path="url(#clip0_7202_65210)">
<path fill-rule="evenodd" clip-rule="evenodd" d="M2.3381 6.00941C3.15911 3.67411 5.38405 2 8 2C11.3137 2 14 4.68629 14 8C14 10.9946 11.8061 13.4769 8.93789 13.9271C8.97899 13.7888 8.99999 13.6449 8.99999 13.5C9.00063 13.3005 8.96119 13.1029 8.88399 12.919C8.83924 12.813 8.78284 12.7126 8.71599 12.6196C8.91644 12.4097 9.12073 12.1043 9.31258 11.6822C9.4073 11.4738 9.49448 11.2455 9.57265 11H7.12406L7.02399 10.9C7.34984 10.7747 7.62177 10.5397 7.79295 10.2354C7.83553 10.1598 7.87122 10.081 7.89984 10H9.82134C9.93562 9.3892 10 8.71396 10 8C10 7.28604 9.93562 6.6108 9.82134 6H6.17866C6.06438 6.6108 6 7.28604 6 8H5C5 7.30146 5.05694 6.6275 5.16299 6H3.41604C3.38126 6.07962 3.34848 6.16032 3.31779 6.24203C3.27647 6.2152 3.23377 6.19035 3.1898 6.16762C2.97659 6.05736 2.74003 5.99987 2.49999 6C2.44564 6.00024 2.39161 6.00341 2.3381 6.00941ZM9.31258 4.31781C8.87543 3.35608 8.37372 3 8 3C7.62628 3 7.12457 3.35608 6.68742 4.31781C6.5927 4.52619 6.50552 4.75446 6.42735 5H9.57265C9.49448 4.75446 9.4073 4.52619 9.31258 4.31781ZM5.38411 5C5.49428 4.6038 5.62614 4.23601 5.77705 3.90401C5.85596 3.7304 5.94287 3.56117 6.03766 3.39978C5.22525 3.74677 4.52341 4.30269 3.99963 5H5.38411ZM12.0004 11H10.6159C10.5057 11.3962 10.3739 11.764 10.2229 12.096C10.144 12.2696 10.0571 12.4388 9.96234 12.6002C10.7747 12.2532 11.4766 11.6973 12.0004 11ZM10.837 10H12.584C12.8516 9.38754 13 8.7111 13 8C13 7.2889 12.8516 6.61246 12.584 6H10.837C10.9431 6.6275 11 7.30146 11 8C11 8.69854 10.9431 9.3725 10.837 10ZM12.0004 5C11.4766 4.30269 10.7747 3.74677 9.96234 3.39978C10.0571 3.56117 10.144 3.7304 10.2229 3.90401C10.3739 4.23601 10.5057 4.6038 10.6159 5H12.0004Z" fill="#006CBF"/>
<path d="M2.5 12C2.59902 12.0002 2.69586 11.971 2.77825 11.916C2.86064 11.8611 2.92487 11.7829 2.96278 11.6915C3.0007 11.6 3.01061 11.4993 2.99124 11.4022C2.97187 11.3051 2.92411 11.2159 2.854 11.146L1.708 10H6.5C6.63261 10 6.75979 9.94733 6.85355 9.85356C6.94732 9.75979 7 9.63262 7 9.50001C7 9.3674 6.94732 9.24022 6.85355 9.14645C6.75979 9.05269 6.63261 9.00001 6.5 9.00001H1.708L2.855 7.85501C2.92551 7.78507 2.97361 7.69572 2.99314 7.59835C3.01268 7.50098 3.00277 7.39999 2.96469 7.30827C2.9266 7.21655 2.86207 7.13824 2.77931 7.08334C2.69655 7.02844 2.59931 6.99943 2.5 7.00001C2.43423 7.00002 2.3691 7.01301 2.30835 7.03824C2.24761 7.06346 2.19244 7.10043 2.146 7.14701L0.146 9.14701C0.052531 9.24071 2.8119e-05 9.36766 0 9.50001C5.01638e-05 9.56587 0.0129584 9.63109 0.0380001 9.69201C0.0629008 9.75288 0.0999949 9.80801 0.147 9.85401L2.147 11.854C2.1934 11.9003 2.24844 11.937 2.309 11.962C2.36961 11.9869 2.43447 11.9998 2.5 12Z" fill="#006CBF"/>
<path d="M5.5 11C5.40098 10.9998 5.30414 11.0291 5.22175 11.084C5.13936 11.1389 5.07513 11.2171 5.03722 11.3085C4.9993 11.4 4.98939 11.5007 5.00876 11.5978C5.02813 11.6949 5.07589 11.7841 5.146 11.854L6.292 13H1.5C1.36739 13 1.24021 13.0527 1.14645 13.1464C1.05268 13.2402 1 13.3674 1 13.5C1 13.6326 1.05268 13.7598 1.14645 13.8536C1.24021 13.9473 1.36739 14 1.5 14H6.292L5.145 15.145C5.07449 15.2149 5.02639 15.3043 5.00686 15.4017C4.98732 15.499 4.99723 15.6 5.03531 15.6917C5.0734 15.7835 5.13793 15.8618 5.22069 15.9167C5.30345 15.9716 5.40069 16.0006 5.5 16C5.56577 16 5.6309 15.987 5.69165 15.9618C5.75239 15.9365 5.80756 15.8996 5.854 15.853L7.854 13.853C7.94747 13.7593 7.99997 13.6324 8 13.5C7.99995 13.4341 7.98704 13.3689 7.962 13.308C7.9371 13.2471 7.9 13.192 7.853 13.146L5.853 11.146C5.8066 11.0997 5.75155 11.063 5.691 11.038C5.63039 11.0131 5.56553 11.0002 5.5 11Z" fill="#006CBF"/>
</g>
<defs>
<clipPath id="clip0_7202_65210">
<rect width="16" height="16" fill="white"/>
</clipPath>
</defs>
</svg>
