<svg width="16" height="16" viewBox="0 0 16 16" fill="none" xmlns="http://www.w3.org/2000/svg">
<path fill-rule="evenodd" clip-rule="evenodd" d="M2.25 5H13.75C14.439 5 15 4.439 15 3.75V2.25C15 1.561 14.439 1 13.75 1H2.25C1.561 1 1 1.561 1 2.25V3.75C1 4.439 1.561 5 2.25 5ZM2 2.25C2 2.112 2.112 2 2.25 2H13.75C13.888 2 14 2.112 14 2.25V3.75C14 3.888 13.888 4 13.75 4H2.25C2.112 4 2 3.888 2 3.75V2.25Z" fill="#3487C7"/>
<path fill-rule="evenodd" clip-rule="evenodd" d="M4.25 10H11.75C12.439 10 13 9.439 13 8.75V7.25C13 6.561 12.439 6 11.75 6H4.25C3.561 6 3 6.561 3 7.25V8.75C3 9.439 3.561 10 4.25 10ZM4 7.25C4 7.112 4.112 7 4.25 7H11.75C11.888 7 12 7.112 12 7.25V8.75C12 8.888 11.888 9 11.75 9H4.25C4.112 9 4 8.888 4 8.75V7.25Z" fill="#3487C7"/>
<path d="M9.75 15H6.25C5.561 15 5 14.439 5 13.75V12.25C5 11.561 5.561 11 6.25 11H9.75C10.439 11 11 11.561 11 12.25V13.75C11 14.439 10.439 15 9.75 15ZM6.25 12C6.112 12 6 12.112 6 12.25V13.75C6 13.888 6.112 14 6.25 14H9.75C9.888 14 10 13.888 10 13.75V12.25C10 12.112 9.888 12 9.75 12H6.25Z" fill="#202020"/>
</svg>
