<svg width="16" height="16" viewBox="0 0 16 16" fill="none" xmlns="http://www.w3.org/2000/svg">
<path d="M5.5 2.5C5.5 2.776 5.276 3 5 3C4.448 3 4 3.449 4 4V4.5C4 4.776 3.776 5 3.5 5C3.224 5 3 4.776 3 4.5V4C3 2.897 3.897 2 5 2C5.276 2 5.5 2.224 5.5 2.5ZM3 9.5C3 9.776 3.224 10 3.5 10C3.776 10 4 9.776 4 9.5V9C4 8.614 3.85 8.266 3.61 8C3.85 7.734 4 7.386 4 7V6.5C4 6.224 3.776 6 3.5 6C3.224 6 3 6.224 3 6.5V7C3 7.276 2.775 7.5 2.5 7.5C2.225 7.5 2 7.724 2 8C2 8.276 2.224 8.5 2.5 8.5C2.776 8.5 3 8.724 3 9V9.5ZM5 13C4.448 13 4 12.551 4 12V11.5C4 11.224 3.776 11 3.5 11C3.224 11 3 11.224 3 11.5V12C3 13.103 3.897 14 5 14C5.276 14 5.5 13.776 5.5 13.5C5.5 13.224 5.276 13 5 13ZM11 3C11.552 3 12 3.449 12 4V4.5C12 4.776 12.224 5 12.5 5C12.776 5 13 4.776 13 4.5V4C13 2.897 12.103 2 11 2C10.724 2 10.5 2.224 10.5 2.5C10.5 2.776 10.724 3 11 3ZM13.5 7.5C13.225 7.5 13 7.276 13 7V6.5C13 6.224 12.776 6 12.5 6C12.224 6 12 6.224 12 6.5V7C12 7.386 12.15 7.734 12.39 8C12.15 8.266 12 8.614 12 9V9.5C12 9.776 12.224 10 12.5 10C12.776 10 13 9.776 13 9.5V9C13 8.724 13.225 8.5 13.5 8.5C13.775 8.5 14 8.276 14 8C14 7.724 13.776 7.5 13.5 7.5ZM12.5 11C12.224 11 12 11.224 12 11.5V12C12 12.551 11.552 13 11 13C10.724 13 10.5 13.224 10.5 13.5C10.5 13.776 10.724 14 11 14C12.103 14 13 13.103 13 12V11.5C13 11.224 12.776 11 12.5 11Z" fill="#202020"/>
</svg>
