<svg width="16" height="16" viewBox="0 0 16 16" fill="none" xmlns="http://www.w3.org/2000/svg">
<path d="M8.5 8C8.22386 8 8 8.22386 8 8.5C8 8.77614 8.22386 9 8.5 9H10.5C10.7761 9 11 8.77614 11 8.5C11 8.22386 10.7761 8 10.5 8H8.5Z" fill="#202020"/>
<path d="M12.5 8C12.2239 8 12 8.22386 12 8.5C12 8.77614 12.2239 9 12.5 9H15.5C15.7761 9 16 8.77614 16 8.5C16 8.22386 15.7761 8 15.5 8H12.5Z" fill="#202020"/>
<path d="M10 10.5C10 10.2239 10.2239 10 10.5 10H12.5C12.7761 10 13 10.2239 13 10.5C13 10.7761 12.7761 11 12.5 11H10.5C10.2239 11 10 10.7761 10 10.5Z" fill="#202020"/>
<path d="M14.5 10C14.2239 10 14 10.2239 14 10.5C14 10.7761 14.2239 11 14.5 11H15.5C15.7761 11 16 10.7761 16 10.5C16 10.2239 15.7761 10 15.5 10H14.5Z" fill="#202020"/>
<path d="M10 12.5C10 12.2239 10.2239 12 10.5 12H14.5C14.7761 12 15 12.2239 15 12.5C15 12.7761 14.7761 13 14.5 13H10.5C10.2239 13 10 12.7761 10 12.5Z" fill="#202020"/>
<path d="M8.5 14C8.22386 14 8 14.2239 8 14.5C8 14.7761 8.22386 15 8.5 15H12.5C12.7761 15 13 14.7761 13 14.5C13 14.2239 12.7761 14 12.5 14H8.5Z" fill="#202020"/>
<path d="M3.5 2C2.673 2 2 2.673 2 3.5C2 4.327 2.673 5 3.5 5C4.327 5 5 4.327 5 3.5C5 2.673 4.327 2 3.5 2ZM5.75 0H1.25C0.561 0 0 0.561 0 1.25V5.75C0 6.439 0.561 7 1.25 7H5.75C6.439 7 7 6.439 7 5.75V1.25C7 0.561 6.439 0 5.75 0ZM3.5 6C2.121 6 1 4.878 1 3.5C1 2.122 2.121 1 3.5 1C4.879 1 6 2.122 6 3.5C6 4.878 4.879 6 3.5 6Z" fill="#C50F1F"/>
<path d="M6.85 11.85L4.85 13.85C4.80488 13.8975 4.75059 13.9352 4.69042 13.9611C4.63026 13.9869 4.56547 14.0002 4.5 14.0002C4.43453 14.0002 4.36974 13.9869 4.30958 13.9611C4.24941 13.9352 4.19512 13.8975 4.15 13.85C4.10256 13.8049 4.06478 13.7506 4.03897 13.6905C4.01316 13.6303 3.99985 13.5655 3.99985 13.5C3.99985 13.4346 4.01316 13.3698 4.03897 13.3096C4.06478 13.2494 4.10256 13.1951 4.15 13.15L5.29 12H0.5C0.367392 12 0.240215 11.9473 0.146447 11.8536C0.0526784 11.7598 0 11.6326 0 11.5C0 11.3674 0.0526784 11.2402 0.146447 11.1465C0.240215 11.0527 0.367392 11 0.5 11H5.29L4.15 9.85003C4.10256 9.80491 4.06478 9.75062 4.03897 9.69045C4.01316 9.63028 3.99985 9.5655 3.99985 9.50003C3.99985 9.43456 4.01316 9.36977 4.03897 9.3096C4.06478 9.24944 4.10256 9.19515 4.15 9.15003C4.19512 9.10259 4.24941 9.06481 4.30958 9.039C4.36974 9.01319 4.43453 8.99988 4.5 8.99988C4.56547 8.99988 4.63026 9.01319 4.69042 9.039C4.75059 9.06481 4.80488 9.10259 4.85 9.15003L6.85 11.15C6.89744 11.1951 6.93522 11.2494 6.96103 11.3096C6.98684 11.3698 7.00015 11.4346 7.00015 11.5C7.00015 11.5655 6.98684 11.6303 6.96103 11.6905C6.93522 11.7506 6.89744 11.8049 6.85 11.85V11.85Z" fill="#006CBF"/>
</svg>
