<svg width="16" height="16" viewBox="0 0 16 16" fill="none" xmlns="http://www.w3.org/2000/svg">
<path fill-rule="evenodd" clip-rule="evenodd" d="M4 9.00001V11H3C2.448 11 2 11.449 2 12V13C2 14.103 2.897 15 4 15H11C12.103 15 13 14.103 13 13V5H15C15.552 5 16 4.551 16 4V3C16 1.897 15.103 1 14 1H8.12099L8.414 1.29301C8.60035 1.47822 8.7481 1.69857 8.84869 1.94129C8.85676 1.96075 8.86451 1.98032 8.87194 2H12.269C12.098 2.294 12 2.636 12 3V13C12 13.551 11.552 14 11 14C10.448 14 10 13.551 10 13V12C10 11.449 9.552 11 9 11H5V9.00001H4ZM3 13C3 13.551 3.448 14 4 14H9.269C9.098 13.706 9 13.364 9 13V12H3V13ZM14 2C13.448 2 13 2.449 13 3V4H15V3C15 2.449 14.552 2 14 2Z" fill="#202020"/>
<path d="M5 0H3V2H5V0ZM7.707 2L6 0.293V2.5C6 2.63261 5.94732 2.75979 5.85355 2.85355C5.75979 2.94732 5.63261 3 5.5 3H2.5C2.36739 3 2.24021 2.94732 2.14645 2.85355C2.05268 2.75979 2 2.63261 2 2.5V0H1C0.734784 0 0.48043 0.105357 0.292893 0.292893C0.105357 0.48043 0 0.734784 0 1V7C0 7.26522 0.105357 7.51957 0.292893 7.70711C0.48043 7.89464 0.734784 8 1 8V4.5C1 4.36739 1.05268 4.24021 1.14645 4.14645C1.24021 4.05268 1.36739 4 1.5 4H6.5C6.63261 4 6.75979 4.05268 6.85355 4.14645C6.94732 4.24021 7 4.36739 7 4.5V8C7.26522 8 7.51957 7.89464 7.70711 7.70711C7.89464 7.51957 8 7.26522 8 7V2.707C8.00047 2.57562 7.9748 2.44545 7.9245 2.32407C7.8742 2.2027 7.80027 2.09254 7.707 2V2ZM2 8H6V5H2V8Z" fill="#006CBF"/>
</svg>
