<svg width="16" height="16" viewBox="0 0 16 16" fill="none" xmlns="http://www.w3.org/2000/svg">
<path fill-rule="evenodd" clip-rule="evenodd" d="M8 8.5C8 8.22386 8.22386 8 8.5 8H10.5C10.7761 8 11 8.22386 11 8.5C11 8.77614 10.7761 9 10.5 9H8.5C8.22386 9 8 8.77614 8 8.5Z" fill="#202020"/>
<path fill-rule="evenodd" clip-rule="evenodd" d="M12 8.5C12 8.22386 12.2239 8 12.5 8H15.5C15.7761 8 16 8.22386 16 8.5C16 8.77614 15.7761 9 15.5 9H12.5C12.2239 9 12 8.77614 12 8.5Z" fill="#202020"/>
<path fill-rule="evenodd" clip-rule="evenodd" d="M10 10.5C10 10.2239 10.2239 10 10.5 10H12.5C12.7761 10 13 10.2239 13 10.5C13 10.7761 12.7761 11 12.5 11H10.5C10.2239 11 10 10.7761 10 10.5Z" fill="#202020"/>
<path fill-rule="evenodd" clip-rule="evenodd" d="M14 10.5C14 10.2239 14.2239 10 14.5 10H15.5C15.7761 10 16 10.2239 16 10.5C16 10.7761 15.7761 11 15.5 11H14.5C14.2239 11 14 10.7761 14 10.5Z" fill="#202020"/>
<path fill-rule="evenodd" clip-rule="evenodd" d="M10 12.5C10 12.2239 10.2239 12 10.5 12H14.5C14.7761 12 15 12.2239 15 12.5C15 12.7761 14.7761 13 14.5 13H10.5C10.2239 13 10 12.7761 10 12.5Z" fill="#202020"/>
<path fill-rule="evenodd" clip-rule="evenodd" d="M8 14.5C8 14.2239 8.22386 14 8.5 14H12.5C12.7761 14 13 14.2239 13 14.5C13 14.7761 12.7761 15 12.5 15H8.5C8.22386 15 8 14.7761 8 14.5Z" fill="#202020"/>
<path d="M6.75 0H1.25C0.561 0 0 0.561 0 1.25V5.75C0 6.439 0.561 7 1.25 7H6.75C7.439 7 8 6.439 8 5.75V1.25C8 0.561 7.439 0 6.75 0ZM1 3H2V4H1V3ZM3 1H5V6H3V1ZM6 3H7V4H6V3ZM7 1.25V2H6V1H6.75C6.888 1 7 1.112 7 1.25ZM1.25 1H2V2H1V1.25C1 1.112 1.112 1 1.25 1ZM1 5.75V5H2V6H1.25C1.112 6 1 5.888 1 5.75ZM6.75 6H6V5H7V5.75C7 5.888 6.888 6 6.75 6Z" fill="#202020"/>
<path d="M6.85 11.85L4.85 13.85C4.80488 13.8975 4.75059 13.9352 4.69042 13.9611C4.63026 13.9869 4.56547 14.0002 4.5 14.0002C4.43453 14.0002 4.36974 13.9869 4.30958 13.9611C4.24941 13.9352 4.19512 13.8975 4.15 13.85C4.10256 13.8049 4.06478 13.7506 4.03897 13.6905C4.01316 13.6303 3.99985 13.5655 3.99985 13.5C3.99985 13.4346 4.01316 13.3698 4.03897 13.3096C4.06478 13.2494 4.10256 13.1951 4.15 13.15L5.29 12H0.5C0.367392 12 0.240215 11.9473 0.146447 11.8536C0.0526784 11.7598 0 11.6326 0 11.5C0 11.3674 0.0526784 11.2402 0.146447 11.1465C0.240215 11.0527 0.367392 11 0.5 11H5.29L4.15 9.85003C4.10256 9.80491 4.06478 9.75062 4.03897 9.69045C4.01316 9.63028 3.99985 9.5655 3.99985 9.50003C3.99985 9.43456 4.01316 9.36977 4.03897 9.3096C4.06478 9.24944 4.10256 9.19515 4.15 9.15003C4.19512 9.10259 4.24941 9.06481 4.30958 9.039C4.36974 9.01319 4.43453 8.99988 4.5 8.99988C4.56547 8.99988 4.63026 9.01319 4.69042 9.039C4.75059 9.06481 4.80488 9.10259 4.85 9.15003L6.85 11.15C6.89744 11.1951 6.93522 11.2494 6.96103 11.3096C6.98684 11.3698 7.00015 11.4346 7.00015 11.5C7.00015 11.5655 6.98684 11.6303 6.96103 11.6905C6.93522 11.7506 6.89744 11.8049 6.85 11.85V11.85Z" fill="#006CBF"/>
</svg>
