<svg width="16" height="16" viewBox="0 0 16 16" fill="none" xmlns="http://www.w3.org/2000/svg">
<g clip-path="url(#clip0_7202_68323)">
<path d="M10.498 6.504C11.051 6.504 11.5 6.055 11.5 5.502C11.5 4.949 11.051 4.5 10.498 4.5C9.945 4.5 9.496 4.949 9.496 5.502C9.496 6.055 9.945 6.504 10.498 6.504Z" fill="#B27C00"/>
<path d="M12.146 12.854C12.2439 12.9509 12.3717 12.9999 12.4995 13C12.6273 12.9999 12.7551 12.9519 12.853 12.854C13.048 12.659 13.048 12.342 12.853 12.147L9.207 8.501C8.563 7.856 7.438 7.856 6.793 8.501L3.147 12.147C2.952 12.342 2.952 12.659 3.147 12.854C3.342 13.049 3.659 13.049 3.854 12.854L7.5 9.208C7.768 8.94 8.232 8.94 8.5 9.208L12.146 12.854Z" fill="#006CBF"/>
<path d="M7.91284 3C7.97024 2.83976 7.9998 2.67063 8 2.49997C8.00056 2.3294 7.97145 2.16024 7.91417 2H11.5C12.879 2 14 3.121 14 4.5V11.5C14 12.879 12.879 14 11.5 14H4.5C3.121 14 2 12.879 2 11.5V4.5C2 4.3288 2.01728 4.16157 2.05018 3.99997H3.08571C3.03064 4.15524 3.00046 4.32219 3.00001 4.49598L3 4.49997C2.99985 4.51206 2.99985 4.52414 3 4.53621V11.5C3 12.327 3.673 13 4.5 13H11.5C12.327 13 13 12.327 13 11.5V4.5C13 3.673 12.327 3 11.5 3H7.91284Z" fill="#202020"/>
<path d="M6.85 2.85003L4.85 4.85003C4.80488 4.89747 4.75059 4.93524 4.69042 4.96106C4.63026 4.98687 4.56547 5.00018 4.5 5.00018C4.43453 5.00018 4.36974 4.98687 4.30958 4.96106C4.24941 4.93524 4.19512 4.89747 4.15 4.85003C4.10256 4.80491 4.06478 4.75062 4.03897 4.69045C4.01316 4.63028 3.99985 4.5655 3.99985 4.50003C3.99985 4.43456 4.01316 4.36977 4.03897 4.3096C4.06478 4.24944 4.10256 4.19515 4.15 4.15003L5.29 3.00003H0.5C0.367392 3.00003 0.240215 2.94735 0.146447 2.85358C0.0526784 2.75981 0 2.63264 0 2.50003C0 2.36742 0.0526784 2.24024 0.146447 2.14647C0.240215 2.05271 0.367392 2.00003 0.5 2.00003H5.29L4.15 0.850028C4.10256 0.804911 4.06478 0.750619 4.03897 0.690452C4.01316 0.630285 3.99985 0.565498 3.99985 0.500028C3.99985 0.434558 4.01316 0.369771 4.03897 0.309604C4.06478 0.249437 4.10256 0.195146 4.15 0.150028C4.19512 0.102586 4.24941 0.0648117 4.30958 0.0389999C4.36974 0.0131882 4.43453 -0.00012207 4.5 -0.00012207C4.56547 -0.00012207 4.63026 0.0131882 4.69042 0.0389999C4.75059 0.0648117 4.80488 0.102586 4.85 0.150028L6.85 2.15003C6.89744 2.19515 6.93522 2.24944 6.96103 2.3096C6.98684 2.36977 7.00015 2.43456 7.00015 2.50003C7.00015 2.5655 6.98684 2.63028 6.96103 2.69045C6.93522 2.75062 6.89744 2.80491 6.85 2.85003V2.85003Z" fill="#006CBF"/>
</g>
<defs>
<clipPath id="clip0_7202_68323">
<rect width="16" height="16" fill="white"/>
</clipPath>
</defs>
</svg>
