<svg width="16" height="16" viewBox="0 0 16 16" fill="none" xmlns="http://www.w3.org/2000/svg">
<g clip-path="url(#clip0_7202_68357)">
<path d="M6.9165 1H13.5C14.327 1 15 1.673 15 2.5V9.5C15 9.73157 14.9472 9.95107 14.8531 10.1471L11.207 6.501C10.563 5.856 9.43797 5.856 8.79297 6.501L8.59563 6.69834C8.8635 6.89921 9.10173 7.13753 9.30249 7.40548L9.49997 7.208C9.76797 6.94 10.232 6.94 10.5 7.208L14.1457 10.8537C13.95 10.9475 13.731 11 13.5 11H9.99997V12H13.5C14.879 12 16 10.879 16 9.5V2.5C16 1.121 14.879 0 13.5 0H6.9165C6.97276 0.159102 7.00229 0.328029 7.00229 0.5C7.00229 0.671971 6.97276 0.840898 6.9165 1Z" fill="#202020"/>
<path d="M13.5 3.502C13.5 4.055 13.051 4.504 12.498 4.504C11.945 4.504 11.496 4.055 11.496 3.502C11.496 2.949 11.945 2.5 12.498 2.5C13.051 2.5 13.5 2.949 13.5 3.502Z" fill="#202020"/>
<path fill-rule="evenodd" clip-rule="evenodd" d="M3.07668 7.8865C2.89458 7.96184 2.69938 8.00042 2.50232 8C2.30525 8.00042 2.11005 7.96184 1.92796 7.8865C1.74587 7.81116 1.58048 7.70053 1.44132 7.561L1.22769 7.34737C0.49269 7.78264 0 8.58364 0 9.5V13.5C0 14.01 0.152 14.484 0.414 14.879L3.439 11.854C4.025 11.268 4.975 11.268 5.56 11.854L8.585 14.879C8.847 14.484 8.999 14.01 8.999 13.5V9.5C8.999 8.119 7.881 7 6.5 7H4.12432L3.56332 7.561C3.42416 7.70053 3.25877 7.81116 3.07668 7.8865ZM6.25 10.5C5.836 10.5 5.5 10.164 5.5 9.75C5.5 9.336 5.836 9 6.25 9C6.664 9 7 9.336 7 9.75C7 10.164 6.664 10.5 6.25 10.5Z" fill="#202020"/>
<path d="M1.12109 15.586C1.51609 15.848 1.99009 16 2.50009 16H6.50009C7.01009 16 7.48309 15.848 7.87909 15.586L4.85409 12.561C4.65909 12.366 4.34209 12.366 4.14709 12.561L1.12109 15.586Z" fill="#202020"/>
<path d="M0.148325 4.854L2.14833 6.854C2.19477 6.90056 2.24995 6.93751 2.31069 6.96271C2.37144 6.98792 2.43656 7.00089 2.50233 7.00089C2.56809 7.00089 2.63321 6.98792 2.69396 6.96271C2.7547 6.93751 2.80988 6.90056 2.85633 6.854L4.85633 4.854C4.95021 4.76011 5.00296 4.63278 5.00296 4.5C5.00296 4.36722 4.95021 4.23989 4.85633 4.146C4.76244 4.05211 4.6351 3.99937 4.50233 3.99937C4.36955 3.99937 4.24221 4.05211 4.14833 4.146L3.00233 5.293V2.5C3.00233 2.10218 3.16036 1.72064 3.44167 1.43934C3.72297 1.15804 4.1045 1 4.50233 1H5.50233C5.63493 1 5.76211 0.947322 5.85588 0.853554C5.94965 0.759786 6.00233 0.632608 6.00233 0.5C6.00233 0.367392 5.94965 0.240214 5.85588 0.146446C5.76211 0.052678 5.63493 0 5.50233 0H4.50233C3.83928 0 3.2034 0.263392 2.73456 0.732233C2.26572 1.20107 2.00233 1.83696 2.00233 2.5V5.293L0.856326 4.146C0.762439 4.05211 0.635101 3.99937 0.502326 3.99937C0.36955 3.99937 0.242212 4.05211 0.148325 4.146C0.0544388 4.23989 0.00169373 4.36722 0.00169373 4.5C0.00169372 4.63278 0.0544388 4.76011 0.148325 4.854Z" fill="#006CBF"/>
</g>
<defs>
<clipPath id="clip0_7202_68357">
<rect width="16" height="16" fill="white"/>
</clipPath>
</defs>
</svg>
