<svg width="16" height="16" viewBox="0 0 16 16" fill="none" xmlns="http://www.w3.org/2000/svg">
<g clip-path="url(#clip0_7202_68408)">
<path d="M2 7.91285C2.16023 7.97024 2.32935 7.9998 2.5 8C2.67058 8.00056 2.83975 7.97145 3 7.91416V10C3 10.552 3.448 11 4 11H13C13.552 11 14 10.552 14 10V6C14 5.448 13.552 5 13 5H5.91241C5.96986 4.83977 5.99955 4.67067 6 4.5C6.0011 4.32948 5.97227 4.16025 5.91497 4L13 4C14.103 4 15 4.897 15 6V10C15 11.103 14.103 12 13 12H4C2.897 12 2 11.103 2 10L2 7.91285Z" fill="#202020"/>
<path d="M6.5 2C6.224 2 6 2.224 6 2.5C6 2.776 6.224 3 6.5 3H10.5C10.776 3 11 2.776 11 2.5C11 2.224 10.776 2 10.5 2H9V1.5C9 1.224 8.776 1 8.5 1C8.224 1 8 1.224 8 1.5V2H6.5Z" fill="#006CBF"/>
<path d="M6 13.5C6 13.224 6.224 13 6.5 13H10.5C10.776 13 11 13.224 11 13.5C11 13.776 10.776 14 10.5 14H9V14.5C9 14.776 8.776 15 8.5 15C8.224 15 8 14.776 8 14.5V14H6.5C6.224 14 6 13.776 6 13.5Z" fill="#006CBF"/>
<path d="M2.15 6.85L0.149998 4.85C0.102555 4.80488 0.0647811 4.75059 0.0389694 4.69042C0.0131577 4.63026 -0.000152588 4.56547 -0.000152588 4.5C-0.000152588 4.43453 0.0131577 4.36974 0.0389694 4.30958C0.0647811 4.24941 0.102555 4.19512 0.149998 4.15C0.195115 4.10256 0.249406 4.06478 0.309574 4.03897C0.369741 4.01316 0.434528 3.99985 0.499998 3.99985C0.565468 3.99985 0.630254 4.01316 0.690422 4.03897C0.750589 4.06478 0.80488 4.10256 0.849998 4.15L2 5.29V0.5C2 0.367392 2.05268 0.240215 2.14644 0.146447C2.24021 0.0526784 2.36739 0 2.5 0C2.63261 0 2.75978 0.0526784 2.85355 0.146447C2.94732 0.240215 3 0.367392 3 0.5V5.29L4.15 4.15C4.24314 4.05872 4.36855 4.00788 4.49896 4.00854C4.62938 4.0092 4.75426 4.0613 4.84648 4.15352C4.9387 4.24574 4.9908 4.37062 4.99146 4.50104C4.99211 4.63145 4.94128 4.75686 4.85 4.85L2.85 6.85C2.80488 6.89744 2.75059 6.93522 2.69042 6.96103C2.63025 6.98684 2.56547 7.00015 2.5 7.00015C2.43453 7.00015 2.36974 6.98684 2.30957 6.96103C2.24941 6.93522 2.19512 6.89744 2.15 6.85V6.85Z" fill="#006CBF"/>
</g>
<defs>
<clipPath id="clip0_7202_68408">
<rect width="16" height="16" fill="white"/>
</clipPath>
</defs>
</svg>
