<svg width="16" height="16" viewBox="0 0 16 16" fill="none" xmlns="http://www.w3.org/2000/svg">
<path fill-rule="evenodd" clip-rule="evenodd" d="M1 8.5C1 7.469 2.555 7 4 7C5.445 7 7 7.469 7 8.5V13.5C7 14.531 5.445 15 4 15C2.555 15 1 14.531 1 13.5V8.5ZM5.987 8.5C5.402 8.11 4.7 7.934 4 8C3.292 7.92 2.579 8.106 2 8.522V8.533C2.603 8.89 3.301 9.053 4 9C4.7 9.066 5.402 8.89 5.987 8.5ZM2 13.5C2.588 13.895 3.295 14.071 4 14C4.709 14.082 5.424 13.893 6 13.472V9.651C5.361 9.892 4.683 10.011 4 10C3.317 10.011 2.639 9.892 2 9.651V13.5Z" fill="#3487C7"/>
<path d="M9 14.5002C9 14.7762 9.224 15.0002 9.5 15.0002H10.751C11.083 15.0002 11.401 14.8682 11.635 14.6342C11.869 14.3993 12.001 14.0822 12.001 13.7502L12.001 11.7072L12.647 12.3532C12.842 12.5483 13.159 12.5483 13.354 12.3532C13.549 12.1582 13.549 11.8413 13.354 11.6462L11.854 10.1462C11.659 9.95125 11.342 9.95125 11.147 10.1462L9.647 11.6462C9.452 11.8413 9.452 12.1582 9.647 12.3532C9.842 12.5483 10.159 12.5483 10.354 12.3532L11 11.7072L11 13.7502C11 13.8173 10.974 13.8802 10.927 13.9272C10.88 13.9742 10.816 14.0002 10.75 14.0002H9.5C9.224 14.0002 9 14.2242 9 14.5002Z" fill="#006CBF"/>
<path d="M14 0H9C8.449 0 8 0.449 8 1V6C8 6.551 8.449 7 9 7H14C14.551 7 15 6.551 15 6V1C15 0.449 14.551 0 14 0ZM14 3H12V1H14V3ZM11 1V3H9V1H11ZM9 6V4H11V6H9ZM14 6H12V4H14V6Z" fill="#202020"/>
</svg>
