<svg width="16" height="16" viewBox="0 0 16 16" fill="none" xmlns="http://www.w3.org/2000/svg">
<g clip-path="url(#clip0_7202_68424)">
<path d="M5.91241 5H8.5C8.776 5 9 4.776 9 4.5C9 4.224 8.776 4 8.5 4H7V3.5C7 3.224 6.776 3 6.5 3C6.224 3 6 3.224 6 3.5V4H5.91497C5.97227 4.16025 6.0011 4.32948 6 4.5C5.99955 4.67067 5.96986 4.83977 5.91241 5Z" fill="#006CBF"/>
<path d="M9 14.5C9 14.224 8.776 14 8.5 14H4.5C4.224 14 4 14.224 4 14.5C4 14.776 4.224 15 4.5 15H6V15.5C6 15.776 6.224 16 6.5 16C6.776 16 7 15.776 7 15.5V15H8.5C8.776 15 9 14.776 9 14.5Z" fill="#006CBF"/>
<path d="M8.5 1C8.224 1 8 1.224 8 1.5C8 1.776 8.224 2 8.5 2H12.5C12.776 2 13 1.776 13 1.5C13 1.224 12.776 1 12.5 1H11V0.5C11 0.224 10.776 0 10.5 0C10.224 0 10 0.224 10 0.5V1H8.5Z" fill="#006CBF"/>
<path d="M2.00364 7.91415C1.97387 7.90358 1.94441 7.89204 1.9153 7.87956C1.73054 7.80032 1.56375 7.68447 1.425 7.539L1.14302 7.25702C1.05077 7.48682 1 7.73758 1 8V11C1 12.103 1.897 13 3 13H10C11.103 13 12 12.103 12 11V8C12 6.897 11.103 6 10 6H5.114L4.114 7H10C10.552 7 11 7.448 11 8V11C11 11.552 10.552 12 10 12H3C2.448 12 2 11.552 2 11V8C2 7.97108 2.00123 7.94245 2.00364 7.91415Z" fill="#202020"/>
<path d="M8.5 3H14C15.103 3 16 3.897 16 5V8C16 9.103 15.103 10 14 10H13V9H14C14.552 9 15 8.552 15 8V5C15 4.448 14.552 4 14 4H9.908C9.701 3.419 9.151 3 8.5 3Z" fill="#202020"/>
<path d="M2.15 6.85L0.149998 4.85C0.102555 4.80488 0.0647811 4.75059 0.0389694 4.69042C0.0131577 4.63026 -0.000152588 4.56547 -0.000152588 4.5C-0.000152588 4.43453 0.0131577 4.36974 0.0389694 4.30958C0.0647811 4.24941 0.102555 4.19512 0.149998 4.15C0.195115 4.10256 0.249406 4.06478 0.309574 4.03897C0.369741 4.01316 0.434528 3.99985 0.499998 3.99985C0.565468 3.99985 0.630254 4.01316 0.690422 4.03897C0.750589 4.06478 0.80488 4.10256 0.849998 4.15L2 5.29V0.5C2 0.367392 2.05268 0.240215 2.14644 0.146447C2.24021 0.0526784 2.36739 0 2.5 0C2.63261 0 2.75978 0.0526784 2.85355 0.146447C2.94732 0.240215 3 0.367392 3 0.5V5.29L4.15 4.15C4.24314 4.05872 4.36855 4.00788 4.49896 4.00854C4.62938 4.0092 4.75426 4.0613 4.84648 4.15352C4.9387 4.24574 4.9908 4.37062 4.99146 4.50104C4.99211 4.63145 4.94128 4.75686 4.85 4.85L2.85 6.85C2.80488 6.89744 2.75059 6.93522 2.69042 6.96103C2.63025 6.98684 2.56547 7.00015 2.5 7.00015C2.43453 7.00015 2.36974 6.98684 2.30957 6.96103C2.24941 6.93522 2.19512 6.89744 2.15 6.85V6.85Z" fill="#006CBF"/>
</g>
<defs>
<clipPath id="clip0_7202_68424">
<rect width="16" height="16" fill="white"/>
</clipPath>
</defs>
</svg>
