<svg width="16" height="16" viewBox="0 0 16 16" fill="none" xmlns="http://www.w3.org/2000/svg">
<path d="M9.01497 9.99995H8.01497V8.49995C8.01497 8.22395 7.79097 7.99995 7.51497 7.99995C7.23897 7.99995 7.01497 8.22395 7.01497 8.49995V10.5C7.01497 10.776 7.23897 11 7.51497 11H9.01497C9.29097 11 9.51497 10.776 9.51497 10.5C9.51497 10.224 9.29097 9.99995 9.01497 9.99995ZM11.242 7.99995C10.747 7.25995 10.045 6.68295 9.22197 6.34295C9.11697 6.29895 9.00697 6.27195 8.89997 6.23695L8.57597 6.56095C8.29297 6.84395 7.91597 6.99995 7.51497 6.99995C7.11397 6.99995 6.73797 6.84395 6.45397 6.56095L6.11897 6.22595C5.44297 6.44395 4.82297 6.81295 4.31697 7.31795C3.68797 7.94695 3.25897 8.74895 3.08497 9.62195C2.91097 10.495 2.99997 11.4 3.34097 12.222C3.68197 13.044 4.25797 13.747 4.99797 14.241C5.73797 14.736 6.60797 14.999 7.49797 14.999C8.69097 14.998 9.83497 14.523 10.679 13.679C11.523 12.835 11.997 11.692 11.998 10.499C11.998 9.60895 11.734 8.73895 11.24 7.99895L11.242 7.99995ZM10.41 12.445C10.026 13.021 9.47897 13.469 8.83897 13.734C8.19897 13.999 7.49597 14.068 6.81697 13.933C6.13797 13.798 5.51397 13.465 5.02497 12.975C4.53497 12.485 4.20197 11.862 4.06697 11.183C3.93197 10.504 4.00097 9.79995 4.26597 9.16095C4.53097 8.52095 4.97997 7.97495 5.55497 7.58995C6.13097 7.20495 6.80697 6.99995 7.49897 6.99995C8.42697 6.99995 9.31797 7.36895 9.97397 8.02495C10.63 8.68095 10.999 9.57195 10.999 10.5C10.999 11.192 10.794 11.869 10.409 12.444L10.41 12.445Z" fill="#202020"/>
<path d="M9.86897 3.146C9.67397 2.951 9.35697 2.951 9.16197 3.146L8.01597 4.292V0.5C8.01597 0.224 7.79197 0 7.51597 0C7.23997 0 7.01597 0.224 7.01597 0.5V4.293L5.86997 3.147C5.67497 2.952 5.35797 2.952 5.16297 3.147C4.96797 3.342 4.96797 3.659 5.16297 3.854L7.16297 5.854C7.26097 5.952 7.38897 6 7.51697 6C7.64497 6 7.77297 5.951 7.87097 5.854L9.87097 3.854C10.066 3.659 10.066 3.342 9.87097 3.147L9.86897 3.146Z" fill="#006CBF"/>
</svg>
