<svg width="16" height="16" viewBox="0 0 16 16" fill="none" xmlns="http://www.w3.org/2000/svg">
<g clip-path="url(#clip0_7202_68461)">
<path d="M11.988 3C12.54 3 12.987 3.447 12.987 3.999V6.498H13.986V3.999H13.985C13.985 2.895 13.091 2 11.987 2H3.99999V3H11.988Z" fill="#202020"/>
<path d="M13.985 11.992V10.245H12.987V11.992C12.987 12.544 12.54 12.991 11.988 12.991H3.998C3.446 12.991 2.999 12.544 2.999 11.992V10.245H2V11.992C2 13.096 2.895 13.991 3.998 13.991H5.991V14H6.99V13.991H8.985V14H9.984V13.991H11.987C13.091 13.991 13.985 13.096 13.985 11.992Z" fill="#202020"/>
<path d="M2.45214 7.99917C2.46807 7.99971 2.48402 7.99998 2.49999 8C2.53302 8.00011 2.566 7.9991 2.59887 7.997H4.686L5.547 6.275C5.632 6.106 5.805 5.999 5.994 5.999C6.183 5.999 6.356 6.106 6.441 6.275L7.941 9.277L9.526 5.313C9.599 5.13 9.773 5.007 9.969 4.999L9.97 4.997C10.166 4.989 10.349 5.097 10.437 5.273L11.797 7.995H13.501C13.776 7.995 14 8.219 14 8.495C14 8.771 13.777 8.995 13.501 8.995H11.489C11.3 8.995 11.127 8.888 11.042 8.719L10.041 6.716L8.456 10.68C8.383 10.863 8.209 10.986 8.013 10.994C7.817 11.002 7.634 10.894 7.546 10.718L5.995 7.615L5.443 8.72C5.358 8.889 5.185 8.996 4.996 8.996H2.499C2.224 8.996 2 8.772 2 8.496C2 8.23585 2.199 8.0228 2.45214 7.99917Z" fill="#11910D"/>
<path d="M2.15 6.85L0.149998 4.85C0.102555 4.80488 0.0647811 4.75059 0.0389694 4.69042C0.0131577 4.63026 -0.000152588 4.56547 -0.000152588 4.5C-0.000152588 4.43453 0.0131577 4.36974 0.0389694 4.30958C0.0647811 4.24941 0.102555 4.19512 0.149998 4.15C0.195115 4.10256 0.249406 4.06478 0.309574 4.03897C0.369741 4.01316 0.434528 3.99985 0.499998 3.99985C0.565468 3.99985 0.630254 4.01316 0.690422 4.03897C0.750589 4.06478 0.80488 4.10256 0.849998 4.15L2 5.29V0.5C2 0.367392 2.05268 0.240215 2.14644 0.146447C2.24021 0.0526784 2.36739 0 2.5 0C2.63261 0 2.75978 0.0526784 2.85355 0.146447C2.94732 0.240215 3 0.367392 3 0.5V5.29L4.15 4.15C4.24314 4.05872 4.36855 4.00788 4.49896 4.00854C4.62938 4.0092 4.75426 4.0613 4.84648 4.15352C4.9387 4.24574 4.9908 4.37062 4.99146 4.50104C4.99211 4.63145 4.94128 4.75686 4.85 4.85L2.85 6.85C2.80488 6.89744 2.75059 6.93522 2.69042 6.96103C2.63025 6.98684 2.56547 7.00015 2.5 7.00015C2.43453 7.00015 2.36974 6.98684 2.30957 6.96103C2.24941 6.93522 2.19512 6.89744 2.15 6.85V6.85Z" fill="#006CBF"/>
</g>
<defs>
<clipPath id="clip0_7202_68461">
<rect width="16" height="16" fill="white"/>
</clipPath>
</defs>
</svg>
