<svg width="16" height="16" viewBox="0 0 16 16" fill="none" xmlns="http://www.w3.org/2000/svg">
<path d="M10.5 13.0002H11.75C11.816 13.0002 11.88 12.9743 11.927 12.9273C11.974 12.8803 12 12.8173 12 12.7503V10.7072L11.354 11.3532C11.159 11.5482 10.842 11.5482 10.647 11.3532C10.452 11.1582 10.452 10.8413 10.647 10.6463L12.147 9.14625C12.342 8.95125 12.659 8.95125 12.854 9.14625L14.354 10.6463C14.549 10.8413 14.549 11.1582 14.354 11.3532C14.159 11.5482 13.842 11.5482 13.647 11.3532L13.001 10.7072V12.7503C13.001 13.0823 12.869 13.3992 12.635 13.6342C12.401 13.8682 12.083 14.0002 11.751 14.0002H10.5C10.224 14.0002 10 13.7762 10 13.5002C10 13.2242 10.224 13.0002 10.5 13.0002Z" fill="#006CBF"/>
<path fill-rule="evenodd" clip-rule="evenodd" d="M9 2V5C9 6.105 9.895 7 11 7H14C15.105 7 16 6.105 16 5V2C16 0.895 15.105 0 14 0H11C9.895 0 9 0.895 9 2ZM11 1C10.448 1 10 1.448 10 2H11V1ZM15 4V3H14V4H15ZM14 5H15C15 5.552 14.552 6 14 6V5ZM13 4V3H12V4H13ZM12 5H13V6H12V5ZM11 4V3H10V4H11ZM10 5H11V6C10.448 6 10 5.552 10 5ZM14 1C14.552 1 15 1.448 15 2H14V1ZM13 1V2H12V1H13Z" fill="#202020"/>
<path d="M7.707 9L6 7.293C5.814 7.106 5.556 7 5.293 7H2.25C1.561 7 1 7.561 1 8.25V14.75C1 15.439 1.561 16 2.25 16H6.75C7.439 16 8 15.439 8 14.75V9.707C8 9.44 7.896 9.188 7.707 9ZM7 14.75C7 14.888 6.888 15 6.75 15H2.25C2.112 15 2 14.888 2 14.75V8.25C2 8.112 2.112 8 2.25 8H5V9.5C5 9.776 5.224 10 5.5 10H7V14.75ZM3.5 14C3.224 14 3 13.776 3 13.5V10.5C3 10.224 3.224 10 3.5 10C3.776 10 4 10.224 4 10.5V13.5C4 13.776 3.776 14 3.5 14ZM6 13.5V11.5C6 11.224 5.776 11 5.5 11C5.224 11 5 11.224 5 11.5V13.5C5 13.776 5.224 14 5.5 14C5.776 14 6 13.776 6 13.5Z" fill="#202020"/>
</svg>
