<svg width="16" height="16" viewBox="0 0 16 16" fill="none" xmlns="http://www.w3.org/2000/svg">
<g clip-path="url(#clip0_7202_68487)">
<path fill-rule="evenodd" clip-rule="evenodd" d="M2.00062 7.91307C2.16067 7.97032 2.32957 7.9998 2.5 8C2.67083 8.00056 2.84026 7.97136 3.00073 7.9139C3.00024 7.94254 3 7.97124 3 8C3 8.7111 3.14845 9.38754 3.41604 10H5.16299C5.05694 9.3725 5 8.69854 5 8C5 7.30146 5.05694 6.6275 5.16299 6H5.114L5.538 5.576C5.68354 5.43704 5.7995 5.27009 5.87889 5.08518C5.95828 4.90028 5.99948 4.70123 6 4.5C6.00125 4.30748 5.96433 4.11663 5.89138 3.93846C5.87193 3.89095 5.85001 3.84459 5.82576 3.79956C5.89133 3.66247 5.96198 3.52863 6.03766 3.39978C5.91396 3.45261 5.79282 3.51029 5.67448 3.57257C5.64328 3.53412 5.61009 3.49721 5.575 3.462C5.43644 3.31621 5.26971 3.20008 5.08492 3.12066C4.95172 3.06342 4.81115 3.02611 4.66772 3.00966C5.62091 2.37191 6.76702 2 8 2C11.3137 2 14 4.68629 14 8C14 11.3137 11.3137 14 8 14C4.68629 14 2 11.3137 2 8C2 7.97098 2.00021 7.942 2.00062 7.91307ZM9.31258 4.31781C8.87543 3.35608 8.37372 3 8 3C7.62628 3 7.12457 3.35608 6.68742 4.31781C6.5927 4.52619 6.50552 4.75446 6.42735 5H9.57265C9.49448 4.75446 9.4073 4.52619 9.31258 4.31781ZM5.77705 12.096C5.62614 11.764 5.49428 11.3962 5.38411 11H3.99963C4.52341 11.6973 5.22525 12.2532 6.03766 12.6002C5.94287 12.4388 5.85596 12.2696 5.77705 12.096ZM9.31258 11.6822C9.4073 11.4738 9.49448 11.2455 9.57265 11H6.42735C6.50552 11.2455 6.5927 11.4738 6.68742 11.6822C7.12457 12.6439 7.62628 13 8 13C8.37372 13 8.87543 12.6439 9.31258 11.6822ZM6 8C6 8.71396 6.06438 9.3892 6.17866 10H9.82134C9.93562 9.3892 10 8.71396 10 8C10 7.28604 9.93562 6.6108 9.82134 6H6.17866C6.06438 6.6108 6 7.28604 6 8ZM12.0004 11H10.6159C10.5057 11.3962 10.3739 11.764 10.2229 12.096C10.144 12.2696 10.0571 12.4388 9.96234 12.6002C10.7747 12.2532 11.4766 11.6973 12.0004 11ZM10.837 10H12.584C12.8516 9.38754 13 8.7111 13 8C13 7.2889 12.8516 6.61246 12.584 6H10.837C10.9431 6.6275 11 7.30146 11 8C11 8.69854 10.9431 9.3725 10.837 10ZM12.0004 5C11.4766 4.30269 10.7747 3.74677 9.96234 3.39978C10.0571 3.56117 10.144 3.7304 10.2229 3.90401C10.3739 4.23601 10.5057 4.6038 10.6159 5H12.0004Z" fill="#006CBF"/>
<path d="M2.15 6.85L0.149998 4.85C0.102555 4.80488 0.0647811 4.75059 0.0389694 4.69042C0.0131577 4.63026 -0.000152588 4.56547 -0.000152588 4.5C-0.000152588 4.43453 0.0131577 4.36974 0.0389694 4.30958C0.0647811 4.24941 0.102555 4.19512 0.149998 4.15C0.195115 4.10256 0.249406 4.06478 0.309574 4.03897C0.369741 4.01316 0.434528 3.99985 0.499998 3.99985C0.565468 3.99985 0.630254 4.01316 0.690422 4.03897C0.750589 4.06478 0.80488 4.10256 0.849998 4.15L2 5.29V0.5C2 0.367392 2.05268 0.240215 2.14644 0.146447C2.24021 0.0526784 2.36739 0 2.5 0C2.63261 0 2.75978 0.0526784 2.85355 0.146447C2.94732 0.240215 3 0.367392 3 0.5V5.29L4.15 4.15C4.24314 4.05872 4.36855 4.00788 4.49896 4.00854C4.62938 4.0092 4.75426 4.0613 4.84648 4.15352C4.9387 4.24574 4.9908 4.37062 4.99146 4.50104C4.99211 4.63145 4.94128 4.75686 4.85 4.85L2.85 6.85C2.80488 6.89744 2.75059 6.93522 2.69042 6.96103C2.63025 6.98684 2.56547 7.00015 2.5 7.00015C2.43453 7.00015 2.36974 6.98684 2.30957 6.96103C2.24941 6.93522 2.19512 6.89744 2.15 6.85V6.85Z" fill="#006CBF"/>
</g>
<defs>
<clipPath id="clip0_7202_68487">
<rect width="16" height="16" fill="white"/>
</clipPath>
</defs>
</svg>
