<svg width="16" height="16" viewBox="0 0 16 16" fill="none" xmlns="http://www.w3.org/2000/svg">
<g clip-path="url(#clip0_7202_68505)">
<path d="M11.98 6.1C11.33 5.96733 10.66 5.96733 10.01 6.1C9.995 5.5927 9.79841 5.10762 9.456 4.733C9.62416 4.25802 9.60412 3.73668 9.4 3.276C9.4 3.276 8.94 3.124 7.888 3.839C6.98794 3.59222 6.03805 3.59222 5.138 3.839C4.086 3.131 3.625 3.276 3.625 3.276C3.4218 3.73695 3.40213 4.25805 3.57 4.733C3.20074 5.13586 2.99935 5.66457 3.007 6.211C2.96618 6.55913 3.00104 6.91197 3.10919 7.24539C3.21734 7.5788 3.39622 7.88492 3.63361 8.14282C3.87099 8.40071 4.16127 8.60429 4.4846 8.73963C4.80794 8.87498 5.15668 8.93889 5.507 8.927C5.305 9.12152 5.18031 9.38263 5.156 9.662C5.02122 9.73743 4.8729 9.78554 4.71951 9.80359C4.56613 9.82165 4.41069 9.80928 4.26208 9.76721C4.11348 9.72514 3.97463 9.65418 3.85347 9.5584C3.73231 9.46261 3.63123 9.34389 3.556 9.209C3.47086 9.05399 3.34961 8.92179 3.20251 8.82361C3.05541 8.72543 2.88681 8.66416 2.711 8.645C2.25 8.652 2.525 8.906 2.718 9.009C2.96623 9.2182 3.15952 9.48496 3.281 9.786C3.392 10.096 3.749 10.686 5.131 10.432C5.131 10.893 5.138 11.326 5.138 11.457C5.138 11.588 5.038 11.766 4.76 11.718C3.81498 11.404 2.97296 10.8392 2.32378 10.0841C1.6746 9.32896 1.24263 8.41173 1.07394 7.4303C0.90526 6.44886 1.0062 5.44004 1.366 4.51148C1.72579 3.58292 2.33094 2.76947 3.11687 2.15793C3.9028 1.54638 4.84002 1.15969 5.82852 1.03912C6.81702 0.918542 7.81971 1.06861 8.7296 1.4733C9.63949 1.87799 10.4224 2.52213 10.9949 3.33697C11.5673 4.15182 11.9078 5.1068 11.98 6.1V6.1Z" fill="#202020"/>
<path opacity="0.25" fill-rule="evenodd" clip-rule="evenodd" d="M11.98 6.1C11.33 5.96733 10.66 5.96733 10.01 6.1C9.995 5.5927 9.79841 5.10762 9.456 4.733C9.62416 4.25802 9.60412 3.73668 9.4 3.276C9.4 3.276 8.94 3.124 7.888 3.839C6.98794 3.59222 6.03805 3.59222 5.138 3.839C4.086 3.131 3.625 3.276 3.625 3.276C3.4218 3.73695 3.40213 4.25805 3.57 4.733C3.20074 5.13586 2.99935 5.66457 3.007 6.211C2.96618 6.55913 3.00104 6.91197 3.10919 7.24539C3.21734 7.5788 3.39622 7.88492 3.63361 8.14282C3.87099 8.40071 4.16127 8.60429 4.4846 8.73963C4.80794 8.87498 5.15668 8.93889 5.507 8.927C5.305 9.12152 5.18031 9.38263 5.156 9.662C5.02122 9.73743 4.8729 9.78554 4.71951 9.80359C4.56613 9.82165 4.41069 9.80928 4.26208 9.76721C4.11348 9.72514 3.97463 9.65418 3.85347 9.5584C3.73231 9.46261 3.63123 9.34389 3.556 9.209C3.47086 9.05399 3.34961 8.92179 3.20251 8.82361C3.05541 8.72543 2.88681 8.66416 2.711 8.645C2.25 8.652 2.525 8.906 2.718 9.009C2.96623 9.2182 3.15952 9.48496 3.281 9.786C3.392 10.096 3.749 10.686 5.131 10.432C5.131 10.893 5.138 11.326 5.138 11.457C5.138 11.588 5.038 11.766 4.76 11.718C3.81498 11.404 2.97296 10.8392 2.32378 10.0841C1.6746 9.32896 1.24263 8.41173 1.07394 7.4303C0.90526 6.44886 1.0062 5.44004 1.366 4.51148C1.72579 3.58292 2.33094 2.76947 3.11687 2.15793C3.9028 1.54638 4.84002 1.15969 5.82852 1.03912C6.81702 0.918542 7.81971 1.06861 8.7296 1.4733C9.63949 1.87799 10.4224 2.52213 10.9949 3.33697C11.5673 4.15182 11.9078 5.1068 11.98 6.1V6.1Z" fill="#202020"/>
<path d="M9.436 9.851L11.046 11.462L9.425 13.084L8.887 12.544L9.937 11.492L9.969 11.461L9.937 11.43L8.9 10.39L9.436 9.851ZM12.036 10.526L12.068 10.495L13.1 9.455L12.562 8.916L10.952 10.526L12.574 12.148L13.112 11.608L12.062 10.558L12.036 10.526ZM15 11C15 11.7911 14.7654 12.5645 14.3259 13.2223C13.8864 13.8801 13.2616 14.3928 12.5307 14.6955C11.7998 14.9983 10.9956 15.0775 10.2196 14.9231C9.44372 14.7688 8.73098 14.3878 8.17157 13.8284C7.61216 13.269 7.2312 12.5563 7.07686 11.7804C6.92252 11.0044 7.00173 10.2002 7.30448 9.46927C7.60723 8.73836 8.11992 8.11365 8.77772 7.67412C9.43552 7.2346 10.2089 7 11 7C12.0605 7.00132 13.0771 7.42318 13.827 8.17303C14.5768 8.92289 14.9987 9.93954 15 11V11ZM14 11C14.0002 10.3059 13.7596 9.63327 13.3194 9.09666C12.8792 8.56004 12.2666 8.19266 11.5859 8.05712C10.9051 7.92158 10.1985 8.02626 9.58631 8.35333C8.97413 8.68039 8.4943 9.20961 8.22857 9.8508C7.96285 10.492 7.92767 11.2055 8.12903 11.8697C8.33039 12.5339 8.75584 13.1078 9.33288 13.4935C9.90991 13.8792 10.6028 14.0529 11.2936 13.985C11.9843 13.917 12.6301 13.6117 13.121 13.121C13.6837 12.5585 13.9998 11.7956 14 11V11Z" fill="#5C2E91"/>
</g>
<defs>
<clipPath id="clip0_7202_68505">
<rect width="16" height="16" fill="white"/>
</clipPath>
</defs>
</svg>
