<svg width="16" height="16" viewBox="0 0 16 16" fill="none" xmlns="http://www.w3.org/2000/svg">
<g clip-path="url(#clip0_7202_68552)">
<path fill-rule="evenodd" clip-rule="evenodd" d="M3.06728 7.0985C3.50215 4.21247 5.9927 2 9 2C12.3137 2 15 4.68629 15 8C15 11.1543 12.566 13.74 9.47374 13.9816C9.47092 13.9663 9.46787 13.9511 9.46458 13.936C9.41133 13.6905 9.29731 13.4624 9.13298 13.2725C9.01563 13.1369 8.87532 13.0239 8.71902 12.9383C8.81805 12.9805 8.91253 13 9 13C9.37372 13 9.87543 12.6439 10.3126 11.6822C10.4073 11.4738 10.4945 11.2455 10.5727 11H9.16131C9.0873 10.7925 8.96778 10.6018 8.80901 10.443C8.52761 10.1616 8.14596 10.0035 7.74801 10.0035C7.35005 10.0035 6.9684 10.1616 6.68701 10.443L6.43401 10.696C6.10449 10.3079 5.63522 10.0653 5.12801 10.021L4.91401 10.01L4.91055 10H6.16299C6.05694 9.3725 6 8.69854 6 8C6 7.30146 6.05694 6.6275 6.16299 6H4.41604C4.27384 6.32546 4.16529 6.66898 4.09478 7.02617C4.01652 7.01537 3.93761 7.00825 3.85831 7.0049C3.59046 6.99358 3.32344 7.02546 3.06728 7.0985ZM10.3126 4.31781C9.87543 3.35608 9.37372 3 9 3C8.62628 3 8.12457 3.35608 7.68742 4.31781C7.5927 4.52619 7.50552 4.75446 7.42735 5H10.5727C10.4945 4.75446 10.4073 4.52619 10.3126 4.31781ZM6.38411 5C6.49428 4.6038 6.62614 4.23601 6.77705 3.90401C6.85596 3.7304 6.94287 3.56117 7.03766 3.39978C6.22525 3.74677 5.52341 4.30269 4.99963 5H6.38411ZM7.17866 10H10.8213C10.9356 9.3892 11 8.71396 11 8C11 7.28604 10.9356 6.6108 10.8213 6H7.17866C7.06438 6.6108 7 7.28604 7 8C7 8.71396 7.06438 9.3892 7.17866 10ZM13.0004 11H11.6159C11.5057 11.3962 11.3739 11.764 11.2229 12.096C11.144 12.2696 11.0571 12.4388 10.9623 12.6002C11.7747 12.2532 12.4766 11.6973 13.0004 11ZM11.837 10H13.584C13.8516 9.38754 14 8.7111 14 8C14 7.2889 13.8516 6.61246 13.584 6H11.837C11.9431 6.6275 12 7.30146 12 8C12 8.69854 11.9431 9.3725 11.837 10ZM13.0004 5C12.4766 4.30269 11.7747 3.74677 10.9623 3.39978C11.0571 3.56117 11.144 3.7304 11.2229 3.90401C11.3739 4.23601 11.5057 4.6038 11.6159 5H13.0004Z" fill="#006CBF"/>
<path d="M8.53614 12.8369L8.52401 12.849C8.55513 12.8606 8.58581 12.8733 8.61598 12.8869C8.5896 12.8719 8.56297 12.8552 8.53614 12.8369Z" fill="#006CBF"/>
<path d="M8.35404 14.6L8.24004 14.713C8.1516 14.8033 8.04615 14.8751 7.92977 14.9244C7.8134 14.9736 7.68841 14.9993 7.56204 15C7.53406 15.0015 7.50602 15.0015 7.47804 15C7.3393 14.9882 7.2048 14.9463 7.08391 14.8772C6.96302 14.8081 6.85864 14.7135 6.77804 14.6L6.19004 13.776L5.10004 14.854C5.00615 14.9479 4.87881 15.0006 4.74604 15.0006C4.61326 15.0006 4.48592 14.9479 4.39204 14.854C4.29815 14.7601 4.24541 14.6328 4.24541 14.5C4.24541 14.3672 4.29815 14.2399 4.39204 14.146L5.59204 12.946L4.91804 12L4.85404 12.107C4.75987 12.1982 4.63363 12.2488 4.50253 12.2478C4.37142 12.2469 4.24594 12.1945 4.1531 12.1019C4.06026 12.0093 4.0075 11.884 4.00618 11.7529C4.00486 11.6218 4.05508 11.4954 4.14604 11.401L4.24604 11.301C4.34515 11.1991 4.46592 11.1209 4.59939 11.0721C4.73286 11.0233 4.8756 11.0051 5.01704 11.019C5.15754 11.0298 5.29397 11.0713 5.41678 11.1403C5.5396 11.2094 5.64583 11.3045 5.72804 11.419L6.31004 12.234L7.40004 11.146C7.49392 11.0521 7.62126 10.9994 7.75404 10.9994C7.88681 10.9994 8.01415 11.0521 8.10804 11.146C8.20192 11.2399 8.25467 11.3672 8.25467 11.5C8.25467 11.6328 8.20192 11.7601 8.10804 11.854L6.90804 13.054L7.59404 14.014L7.65104 13.896C7.69753 13.8495 7.75271 13.8126 7.81345 13.7875C7.87419 13.7623 7.93929 13.7494 8.00504 13.7494C8.07078 13.7494 8.13588 13.7623 8.19662 13.7875C8.25736 13.8126 8.31255 13.8495 8.35904 13.896C8.40553 13.9425 8.4424 13.9977 8.46756 14.0584C8.49272 14.1191 8.50567 14.1842 8.50567 14.25C8.50567 14.3157 8.49272 14.3808 8.46756 14.4416C8.4424 14.5023 8.40553 14.5575 8.35904 14.604L8.35404 14.6ZM3.50004 9.99999H3.20004L3.25404 9.44999C3.26619 9.36895 3.29743 9.29196 3.34518 9.22536C3.39294 9.15876 3.45584 9.10447 3.52871 9.06697C3.60157 9.02946 3.68231 9.00981 3.76425 9.00964C3.8462 9.00948 3.92702 9.02879 4.00004 9.06599C4.05692 9.09934 4.11984 9.12111 4.18517 9.13004C4.25051 9.13898 4.31696 9.1349 4.38071 9.11804C4.44446 9.10119 4.50425 9.07189 4.55663 9.03184C4.60901 8.99178 4.65295 8.94176 4.68592 8.88466C4.71889 8.82755 4.74024 8.76449 4.74874 8.6991C4.75724 8.63371 4.75272 8.56728 4.73544 8.50365C4.71817 8.44001 4.68847 8.38042 4.64807 8.32831C4.60767 8.27619 4.55736 8.23258 4.50004 8.19999C4.28274 8.07451 4.03742 8.00554 3.78657 7.99941C3.53571 7.99328 3.28732 8.05018 3.06415 8.1649C2.84098 8.27962 2.65015 8.4485 2.50914 8.65606C2.36814 8.86363 2.28146 9.10325 2.25704 9.35299L2.19404 9.99999H1.75004C1.61743 9.99999 1.49025 10.0527 1.39648 10.1464C1.30272 10.2402 1.25004 10.3674 1.25004 10.5C1.25004 10.6326 1.30272 10.7598 1.39648 10.8535C1.49025 10.9473 1.61743 11 1.75004 11H2.10004L1.75204 14.55C1.73775 14.6388 1.70055 14.7223 1.64413 14.7923C1.58771 14.8623 1.51401 14.9163 1.43031 14.9491C1.34661 14.982 1.2558 14.9924 1.16684 14.9794C1.07788 14.9664 0.993846 14.9304 0.923037 14.875C0.823067 14.7911 0.694243 14.7496 0.564086 14.7594C0.433928 14.7691 0.312756 14.8294 0.226454 14.9274C0.140153 15.0253 0.0955635 15.1531 0.102212 15.2834C0.108861 15.4138 0.16622 15.5364 0.262037 15.625C0.469153 15.8077 0.722682 15.9296 0.994684 15.9774C1.26669 16.0252 1.5466 15.997 1.80358 15.8958C2.06056 15.7947 2.28464 15.6246 2.45111 15.4042C2.61758 15.1839 2.71998 14.9218 2.74704 14.647L3.10004 11H3.50004C3.63265 11 3.75982 10.9473 3.85359 10.8535C3.94736 10.7598 4.00004 10.6326 4.00004 10.5C4.00004 10.3674 3.94736 10.2402 3.85359 10.1464C3.75982 10.0527 3.63265 9.99999 3.50004 9.99999Z" fill="#202020"/>
</g>
<defs>
<clipPath id="clip0_7202_68552">
<rect width="16" height="16" fill="white"/>
</clipPath>
</defs>
</svg>
