<svg width="16" height="16" viewBox="0 0 16 16" fill="none" xmlns="http://www.w3.org/2000/svg">
<path d="M7 3V2L11.987 2C13.091 2 13.985 2.895 13.985 3.999H13.986V6.498H12.987V3.999C12.987 3.447 12.54 3 11.988 3H7Z" fill="#202020"/>
<path d="M13.985 11.992V10.245H12.987V11.992C12.987 12.544 12.54 12.991 11.988 12.991H3.998C3.446 12.991 2.999 12.544 2.999 11.992V10.245H2V11.992C2 13.096 2.895 13.991 3.998 13.991H5.991V14H6.99V13.991H8.985V14H9.984V13.991H11.987C13.091 13.991 13.985 13.096 13.985 11.992Z" fill="#202020"/>
<path d="M5.1845 7H5.5C5.92142 7 6.30285 6.82524 6.57561 6.54441L7.941 9.277L9.526 5.313C9.599 5.13 9.773 5.007 9.969 4.999L9.97 4.997C10.166 4.989 10.349 5.097 10.437 5.273L11.797 7.995H13.501C13.776 7.995 14 8.219 14 8.495C14 8.771 13.777 8.995 13.501 8.995H11.489C11.3 8.995 11.127 8.888 11.042 8.719L10.041 6.716L8.456 10.68C8.383 10.863 8.209 10.986 8.013 10.994C7.817 11.002 7.634 10.894 7.546 10.718L5.995 7.615L5.443 8.72C5.358 8.889 5.185 8.996 4.996 8.996H2.499C2.224 8.996 2 8.772 2 8.496C2 8.22 2.224 7.997 2.499 7.997H4.686L5.1845 7Z" fill="#11910D"/>
<path d="M6 5.5C6 5.776 5.776 6 5.5 6H1C0.448 6 0 5.552 0 5V0.5C0 0.224 0.224 0 0.5 0C0.776 0 1 0.224 1 0.5V5H5.5C5.776 5 6 5.224 6 5.5ZM5.5 0H2.5C2.224 0 2 0.224 2 0.5C2 0.776 2.224 1 2.5 1H4.293L2.147 3.146C1.952 3.341 1.952 3.658 2.147 3.853C2.245 3.951 2.373 3.999 2.501 3.999C2.629 3.999 2.757 3.95 2.855 3.853L5.001 1.707V3.5C5.001 3.776 5.225 4 5.501 4C5.777 4 6.001 3.776 6.001 3.5V0.5C6.001 0.224 5.776 0 5.5 0Z" fill="#006CBF"/>
</svg>
