<svg width="16" height="16" viewBox="0 0 16 16" fill="none" xmlns="http://www.w3.org/2000/svg">
<path fill-rule="evenodd" clip-rule="evenodd" d="M6 6.9143C6.58198 6.70789 7 6.15177 7 5.5V5.02514C7.08081 5.00866 7.16442 5 7.25 5H8.75C9.439 5 10 5.561 10 6.25V13.75C10 14.439 9.439 15 8.75 15H7.25C6.561 15 6 14.439 6 13.75L6 6.9143ZM7.25 6C7.112 6 7 6.112 7 6.25L7 13.75C7 13.888 7.112 14 7.25 14H8.75C8.888 14 9 13.888 9 13.75L9 6.25C9 6.112 8.888 6 8.75 6H7.25Z" fill="#202020"/>
<path fill-rule="evenodd" clip-rule="evenodd" d="M3.7511 7H2.2489C1.5604 7.0006 1 7.56137 1 8.25V13.75C1 14.439 1.561 15 2.25 15H3.75C4.439 15 5 14.439 5 13.75L5 8.25C5 7.56137 4.4396 7.0006 3.7511 7ZM2 8.25C2 8.112 2.112 8 2.25 8H3.75C3.888 8 4 8.112 4 8.25L4 13.75C4 13.888 3.888 14 3.75 14L2.25 14C2.112 14 2 13.888 2 13.75L2 8.25Z" fill="#202020"/>
<path fill-rule="evenodd" clip-rule="evenodd" d="M12.25 15H13.75C14.439 15 15 14.439 15 13.75L15 2.25C15 1.561 14.439 1 13.75 1H12.25C11.561 1 11 1.561 11 2.25L11 13.75C11 14.439 11.561 15 12.25 15ZM12 2.25C12 2.112 12.112 2 12.25 2L13.75 2C13.888 2 14 2.112 14 2.25L14 13.75C14 13.888 13.888 14 13.75 14H12.25C12.112 14 12 13.888 12 13.75L12 2.25Z" fill="#202020"/>
<path d="M6 5.5C6 5.776 5.776 6 5.5 6H1C0.448 6 0 5.552 0 5V0.5C0 0.224 0.224 0 0.5 0C0.776 0 1 0.224 1 0.5V5H5.5C5.776 5 6 5.224 6 5.5ZM5.5 0H2.5C2.224 0 2 0.224 2 0.5C2 0.776 2.224 1 2.5 1H4.293L2.147 3.146C1.952 3.341 1.952 3.658 2.147 3.853C2.245 3.951 2.373 3.999 2.501 3.999C2.629 3.999 2.757 3.95 2.855 3.853L5.001 1.707V3.5C5.001 3.776 5.225 4 5.501 4C5.777 4 6.001 3.776 6.001 3.5V0.5C6.001 0.224 5.776 0 5.5 0Z" fill="#006CBF"/>
</svg>
