<svg width="16" height="16" viewBox="0 0 16 16" fill="none" xmlns="http://www.w3.org/2000/svg">
<path d="M4.53707 7C4.44966 7.15112 4.37209 7.30811 4.305 7.47001C4.104 7.95501 4 8.47501 4 9.00001C4 9.52501 4.104 10.045 4.305 10.53C4.506 11.015 4.801 11.456 5.173 11.827C5.267 11.921 5.394 11.974 5.526 11.974C5.625 11.974 5.721 11.945 5.803 11.89C5.886 11.835 5.95 11.756 5.988 11.665C6.025 11.574 6.035 11.473 6.016 11.376C5.997 11.279 5.949 11.19 5.879 11.12C5.6 10.842 5.379 10.512 5.228 10.148C5.077 9.78401 4.999 9.39401 4.999 9.00001C4.999 8.60601 5.077 8.21601 5.228 7.85201C5.36273 7.52812 5.55319 7.22971 5.79085 6.97169C5.69673 6.99026 5.59948 7 5.5 7H4.53707Z" fill="#C50F1F"/>
<path d="M6.79488 6.25646C6.92522 6.03423 7 5.77567 7 5.5V5.13008C7.41914 5.02103 7.85414 4.98043 8.288 5.01001C8.388 5.01701 8.479 5.02701 8.571 5.04001C8.636 5.04901 8.699 5.07101 8.755 5.10501C8.811 5.13801 8.861 5.18301 8.9 5.23501C8.939 5.28801 8.968 5.34701 8.984 5.41101C9 5.47501 9.004 5.54101 8.994 5.60601C8.973 5.73601 8.902 5.85301 8.797 5.93201C8.691 6.01101 8.559 6.04601 8.428 6.03001C8.358 6.02001 8.287 6.01301 8.217 6.00801C7.788 5.97901 7.357 6.04201 6.954 6.19201C6.9003 6.21199 6.84724 6.23349 6.79488 6.25646Z" fill="#C50F1F"/>
<path d="M10.474 11.974C10.375 11.974 10.278 11.945 10.196 11.89C10.113 11.835 10.049 11.756 10.011 11.665C9.97399 11.574 9.96399 11.473 9.98299 11.376C10.002 11.279 10.05 11.19 10.12 11.12C10.4 10.842 10.622 10.512 10.773 10.148C10.924 9.784 11 9.394 11 9C11 8.927 11 8.854 10.992 8.782C10.989 8.755 10.986 8.727 10.984 8.7C10.98 8.656 10.976 8.614 10.97 8.571C10.951 8.44 10.985 8.306 11.065 8.2C11.144 8.094 11.263 8.024 11.394 8.005C11.525 7.986 11.659 8.02 11.765 8.1C11.871 8.179 11.941 8.298 11.96 8.429C11.973 8.521 11.983 8.616 11.99 8.712C11.997 8.808 12 8.9 12 9C12.001 9.525 11.898 10.046 11.697 10.531C11.495 11.016 11.2 11.457 10.827 11.827C10.733 11.921 10.606 11.974 10.474 11.974Z" fill="#11910D"/>
<path d="M2.34282 7C2.24744 7.26976 2.17115 7.54708 2.115 7.83C1.883 8.994 2.002 10.2 2.456 11.297C2.91 12.393 3.679 13.33 4.666 13.99L4.667 13.989C5.654 14.648 6.814 15 8 15C9.591 14.998 11.116 14.366 12.241 13.241C13.366 12.116 13.998 10.591 14 9C14 7.813 13.648 6.653 12.989 5.667C12.33 4.68 11.393 3.911 10.296 3.457C9.25358 3.0252 8.11074 2.89644 7 3.08449V4.10139C7.32783 4.03432 7.66313 4 8.001 4C9.327 4.002 10.597 4.529 11.535 5.466C12.472 6.403 13 7.674 13.001 9C13.001 9.989 12.708 10.956 12.158 11.778C11.609 12.6 10.828 13.241 9.914 13.62C9 13.999 7.995 14.097 7.025 13.905C6.055 13.712 5.164 13.236 4.465 12.537C3.766 11.838 3.29 10.947 3.097 9.97701C2.904 9.007 3.003 8.002 3.382 7.088C3.39419 7.05853 3.40665 7.02919 3.41938 7H2.34282Z" fill="#202020"/>
<path d="M11.25 6.25C11.25 6.358 11.215 6.463 11.15 6.55L8.793 9.611C8.707 9.726 8.598 9.82 8.472 9.889C8.346 9.957 8.207 9.998 8.064 10.008C7.921 10.018 7.777 9.997 7.643 9.947C7.509 9.897 7.387 9.818 7.286 9.717C7.184 9.616 7.106 9.494 7.056 9.36C7.006 9.225 6.985 9.082 6.995 8.939C7.005 8.796 7.045 8.657 7.114 8.531C7.183 8.406 7.277 8.296 7.392 8.21L10.447 5.857C10.521 5.801 10.61 5.767 10.702 5.759C10.795 5.751 10.888 5.768 10.971 5.81C11.054 5.851 11.124 5.915 11.173 5.994C11.222 6.073 11.248 6.164 11.248 6.257L11.25 6.25Z" fill="#202020"/>
<path d="M6 5.5C6 5.776 5.776 6 5.5 6H1C0.448 6 0 5.552 0 5V0.5C0 0.224 0.224 0 0.5 0C0.776 0 1 0.224 1 0.5V5H5.5C5.776 5 6 5.224 6 5.5ZM5.5 0H2.5C2.224 0 2 0.224 2 0.5C2 0.776 2.224 1 2.5 1H4.293L2.147 3.146C1.952 3.341 1.952 3.658 2.147 3.853C2.245 3.951 2.373 3.999 2.501 3.999C2.629 3.999 2.757 3.95 2.855 3.853L5.001 1.707V3.5C5.001 3.776 5.225 4 5.501 4C5.777 4 6.001 3.776 6.001 3.5V0.5C6.001 0.224 5.776 0 5.5 0Z" fill="#006CBF"/>
</svg>
