<svg width="16" height="16" viewBox="0 0 16 16" fill="none" xmlns="http://www.w3.org/2000/svg">
<g clip-path="url(#clip0_7202_68775)">
<path fill-rule="evenodd" clip-rule="evenodd" d="M7.87956 3.08467C7.95879 2.8999 7.99976 2.701 8 2.49997C8.00015 2.45349 7.9981 2.40712 7.99388 2.361C8.72696 1.52662 9.80193 1 10.9999 1C11.5087 1 11.9964 1.09524 12.4454 1.26931C12.603 1.3304 12.719 1.46698 12.7539 1.63235C12.7888 1.79773 12.7377 1.96953 12.6182 2.08904L10.7072 4.00012L12.0001 5.29302L13.911 3.38207C14.0305 3.26254 14.2023 3.2115 14.3677 3.24637C14.5331 3.28125 14.6697 3.39732 14.7307 3.55493C14.9047 4.0038 14.9999 4.49138 14.9999 5C14.9999 7.20914 13.209 9 10.9999 9C10.6198 9 10.2514 8.94684 9.90215 8.84736L4.89566 13.9192C4.18171 14.6425 3.03692 14.7101 2.24289 14.0757C1.32876 13.3455 1.24088 11.9872 2.05327 11.1453L7.10411 5.91061C7.03588 5.61771 6.99989 5.31279 6.99989 5C6.99989 4.64889 7.04512 4.30835 7.13009 3.98388L7.539 3.57497C7.68447 3.43622 7.80032 3.26943 7.87956 3.08467ZM7.99989 5C7.99989 3.34315 9.34303 2 10.9999 2C11.0945 2 11.188 2.00436 11.2802 2.01289L9.64655 3.64658C9.45129 3.84185 9.45129 4.15842 9.64655 4.35368L11.6466 6.35368C11.7403 6.44745 11.8675 6.50013 12.0001 6.50013C12.1327 6.50013 12.2599 6.44745 12.3537 6.35368L13.987 4.72023C13.9955 4.81228 13.9999 4.9056 13.9999 5C13.9999 6.65685 12.6567 8 10.9999 8C10.6261 8 10.2693 7.93186 9.9406 7.80777C9.75569 7.73797 9.54702 7.78364 9.40817 7.9243L4.18398 13.2167C3.82955 13.5758 3.26123 13.6093 2.86703 13.2944C2.41323 12.9319 2.3696 12.2576 2.7729 11.8396L8.02099 6.40054C8.14821 6.26869 8.19313 6.07781 8.13805 5.90305C8.04841 5.61868 7.99989 5.31548 7.99989 5Z" fill="#202020"/>
<path d="M6.85 2.85003L4.85 4.85003C4.80488 4.89747 4.75059 4.93524 4.69042 4.96106C4.63026 4.98687 4.56547 5.00018 4.5 5.00018C4.43453 5.00018 4.36974 4.98687 4.30958 4.96106C4.24941 4.93524 4.19512 4.89747 4.15 4.85003C4.10256 4.80491 4.06478 4.75062 4.03897 4.69045C4.01316 4.63028 3.99985 4.5655 3.99985 4.50003C3.99985 4.43456 4.01316 4.36977 4.03897 4.3096C4.06478 4.24944 4.10256 4.19515 4.15 4.15003L5.29 3.00003H0.5C0.367392 3.00003 0.240215 2.94735 0.146447 2.85358C0.0526784 2.75981 0 2.63264 0 2.50003C0 2.36742 0.0526784 2.24024 0.146447 2.14647C0.240215 2.05271 0.367392 2.00003 0.5 2.00003H5.29L4.15 0.850028C4.10256 0.804911 4.06478 0.750619 4.03897 0.690452C4.01316 0.630285 3.99985 0.565498 3.99985 0.500028C3.99985 0.434558 4.01316 0.369771 4.03897 0.309604C4.06478 0.249437 4.10256 0.195146 4.15 0.150028C4.19512 0.102586 4.24941 0.0648117 4.30958 0.0389999C4.36974 0.0131882 4.43453 -0.00012207 4.5 -0.00012207C4.56547 -0.00012207 4.63026 0.0131882 4.69042 0.0389999C4.75059 0.0648117 4.80488 0.102586 4.85 0.150028L6.85 2.15003C6.89744 2.19515 6.93522 2.24944 6.96103 2.3096C6.98684 2.36977 7.00015 2.43456 7.00015 2.50003C7.00015 2.5655 6.98684 2.63028 6.96103 2.69045C6.93522 2.75062 6.89744 2.80491 6.85 2.85003V2.85003Z" fill="#006CBF"/>
</g>
<defs>
<clipPath id="clip0_7202_68775">
<rect width="16" height="16" fill="white"/>
</clipPath>
</defs>
</svg>
