<svg width="16" height="16" viewBox="0 0 16 16" fill="none" xmlns="http://www.w3.org/2000/svg">
<g clip-path="url(#clip0_7202_68765)">
<path fill-rule="evenodd" clip-rule="evenodd" d="M10.5289 1.76386C11.5525 0.740171 13.2123 0.740172 14.236 1.76386C15.2596 2.78755 15.2596 4.44728 14.236 5.47097L6.36433 13.3426C5.99015 13.7168 5.52234 13.9836 5.00978 14.1151L1.62432 14.9841C1.45312 15.028 1.27144 14.9783 1.14646 14.8534C1.02148 14.7284 0.971767 14.5467 1.01571 14.3755L1.88467 10.99C2.01623 10.4775 2.28304 10.0097 2.65722 9.63549L10.5289 1.76386ZM13.5288 2.47097C12.8957 1.8378 11.8691 1.8378 11.236 2.47097L10.4571 3.24979L12.75 5.54269L13.5288 4.76386C14.162 4.1307 14.162 3.10413 13.5288 2.47097ZM12.0429 6.24979L9.75002 3.9569L3.36433 10.3426C3.1168 10.5901 2.9403 10.8996 2.85327 11.2386L2.19447 13.8053L4.76117 13.1465C5.10023 13.0595 5.40969 12.883 5.65722 12.6355L12.0429 6.24979Z" fill="#202020"/>
<path d="M0.15 2.85003L2.15 4.85003C2.19512 4.89747 2.24941 4.93524 2.30958 4.96106C2.36974 4.98687 2.43453 5.00018 2.5 5.00018C2.56547 5.00018 2.63026 4.98687 2.69042 4.96106C2.75059 4.93524 2.80488 4.89747 2.85 4.85003C2.89744 4.80491 2.93522 4.75062 2.96103 4.69045C2.98684 4.63028 3.00015 4.5655 3.00015 4.50003C3.00015 4.43456 2.98684 4.36977 2.96103 4.3096C2.93522 4.24944 2.89744 4.19515 2.85 4.15003L1.71 3.00003H6.5C6.63261 3.00003 6.75979 2.94735 6.85355 2.85358C6.94732 2.75981 7 2.63264 7 2.50003C7 2.36742 6.94732 2.24024 6.85355 2.14647C6.75979 2.05271 6.63261 2.00003 6.5 2.00003H1.71L2.85 0.850028C2.89744 0.804911 2.93522 0.750619 2.96103 0.690452C2.98684 0.630285 3.00015 0.565498 3.00015 0.500028C3.00015 0.434558 2.98684 0.369771 2.96103 0.309604C2.93522 0.249437 2.89744 0.195146 2.85 0.150028C2.80488 0.102586 2.75059 0.0648117 2.69042 0.0389999C2.63026 0.0131882 2.56547 -0.00012207 2.5 -0.00012207C2.43453 -0.00012207 2.36974 0.0131882 2.30958 0.0389999C2.24941 0.0648117 2.19512 0.102586 2.15 0.150028L0.15 2.15003C0.102558 2.19515 0.0647836 2.24944 0.0389719 2.3096C0.0131602 2.36977 -0.000149727 2.43456 -0.000149727 2.50003C-0.000149727 2.5655 0.0131602 2.63028 0.0389719 2.69045C0.0647836 2.75062 0.102558 2.80491 0.15 2.85003V2.85003Z" fill="#006CBF"/>
</g>
<defs>
<clipPath id="clip0_7202_68765">
<rect width="16" height="16" fill="white"/>
</clipPath>
</defs>
</svg>
