<svg width="16" height="16" viewBox="0 0 16 16" fill="none" xmlns="http://www.w3.org/2000/svg">
<path d="M6.854 10.8542L4.854 12.8542C4.756 12.9522 4.628 13.0002 4.5 13.0002C4.372 13.0002 4.244 12.9512 4.146 12.8542C3.951 12.6592 3.951 12.3422 4.146 12.1472L5.292 11.0012H1.5C1.224 11.0012 1 10.7772 1 10.5012C1 10.2252 1.224 10.0012 1.5 10.0012H5.293L4.147 8.8552C3.952 8.6602 3.952 8.3432 4.147 8.1482C4.342 7.9532 4.659 7.9532 4.854 8.1482L6.854 10.1482C7.049 10.3432 7.049 10.6592 6.854 10.8542Z" fill="#006CBF"/>
<path d="M8.5 3H12.5C12.776 3 13 2.776 13 2.5C13 2.224 12.776 2 12.5 2H8.5C8.224 2 8 2.224 8 2.5C8 2.776 8.224 3 8.5 3Z" fill="#202020"/>
<path d="M14.5 5C14.776 5 15 5.224 15 5.5C15 5.776 14.776 6 14.5 6H8.5C8.224 6 8 5.776 8 5.5C8 5.224 8.224 5 8.5 5H14.5Z" fill="#202020"/>
<path d="M13 10.5C13 10.224 12.776 10 12.5 10H8.5C8.224 10 8 10.224 8 10.5C8 10.776 8.224 11 8.5 11H12.5C12.776 11 13 10.776 13 10.5Z" fill="#202020"/>
<path d="M14.5 13C14.776 13 15 13.224 15 13.5C15 13.776 14.776 14 14.5 14H8.5C8.224 14 8 13.776 8 13.5C8 13.224 8.224 13 8.5 13H14.5Z" fill="#202020"/>
</svg>
