<svg width="16" height="16" viewBox="0 0 16 16" fill="none" xmlns="http://www.w3.org/2000/svg">
<g clip-path="url(#clip0_7202_68857)">
<path d="M7.91284 3C7.90262 3.02852 7.89153 3.05675 7.87956 3.08467C7.80032 3.26943 7.68447 3.43622 7.539 3.57497L7.11397 4H9.5C10.153 4 10.709 3.583 10.915 3H11.5C11.776 3 12 3.224 12 3.5V13.5C12 13.776 11.776 14 11.5 14H4.5C4.224 14 4 13.776 4 13.5V5.91422C3.96687 5.90239 3.93412 5.88935 3.90183 5.87512C3.71337 5.79209 3.54445 5.67041 3.406 5.51797C3.14965 5.25445 3.00463 4.9029 3 4.53621V13.5C3 14.328 3.672 15 4.5 15H11.5C12.328 15 13 14.328 13 13.5V3.5C13 2.672 12.328 2 11.5 2H10.915C10.709 1.417 10.153 1 9.5 1H7.11403L7.557 1.44297C7.69781 1.58055 7.80958 1.74499 7.88567 1.92655C7.89584 1.9508 7.90534 1.9753 7.91417 2H9.5C9.776 2 10 2.224 10 2.5C10 2.776 9.776 3 9.5 3H7.91284Z" fill="#202020"/>
<path d="M3 4.49997C3.00001 4.32954 3.02945 4.16039 3.087 3.99997H3V4.49997Z" fill="#202020"/>
<path d="M7.50001 10.9993C7.50034 10.9993 7.49967 10.9993 7.50001 10.9993Z" fill="#11910D"/>
<path d="M7.14601 10.8533C7.24375 10.95 7.37234 10.999 7.50001 10.9993C7.62767 10.999 7.75426 10.951 7.85201 10.8533L10.852 7.85325C11.047 7.65825 11.047 7.34125 10.852 7.14625C10.657 6.95125 10.34 6.95125 10.145 7.14625L7.49901 9.79225L6.35301 8.64625C6.15801 8.45125 5.84101 8.45125 5.64601 8.64625C5.45101 8.84125 5.45101 9.15825 5.64601 9.35325L7.14601 10.8533Z" fill="#11910D"/>
<path d="M6.85 2.85003L4.85 4.85003C4.80488 4.89747 4.75059 4.93524 4.69042 4.96106C4.63026 4.98687 4.56547 5.00018 4.5 5.00018C4.43453 5.00018 4.36974 4.98687 4.30958 4.96106C4.24941 4.93524 4.19512 4.89747 4.15 4.85003C4.10256 4.80491 4.06478 4.75062 4.03897 4.69045C4.01316 4.63028 3.99985 4.5655 3.99985 4.50003C3.99985 4.43456 4.01316 4.36977 4.03897 4.3096C4.06478 4.24944 4.10256 4.19515 4.15 4.15003L5.29 3.00003H0.5C0.367392 3.00003 0.240215 2.94735 0.146447 2.85358C0.0526784 2.75981 0 2.63264 0 2.50003C0 2.36742 0.0526784 2.24024 0.146447 2.14647C0.240215 2.05271 0.367392 2.00003 0.5 2.00003H5.29L4.15 0.850028C4.10256 0.804911 4.06478 0.750619 4.03897 0.690452C4.01316 0.630285 3.99985 0.565498 3.99985 0.500028C3.99985 0.434558 4.01316 0.369771 4.03897 0.309604C4.06478 0.249437 4.10256 0.195146 4.15 0.150028C4.19512 0.102586 4.24941 0.0648117 4.30958 0.0389999C4.36974 0.0131882 4.43453 -0.00012207 4.5 -0.00012207C4.56547 -0.00012207 4.63026 0.0131882 4.69042 0.0389999C4.75059 0.0648117 4.80488 0.102586 4.85 0.150028L6.85 2.15003C6.89744 2.19515 6.93522 2.24944 6.96103 2.3096C6.98684 2.36977 7.00015 2.43456 7.00015 2.50003C7.00015 2.5655 6.98684 2.63028 6.96103 2.69045C6.93522 2.75062 6.89744 2.80491 6.85 2.85003V2.85003Z" fill="#006CBF"/>
</g>
<defs>
<clipPath id="clip0_7202_68857">
<rect width="16" height="16" fill="white"/>
</clipPath>
</defs>
</svg>
