<svg width="16" height="16" viewBox="0 0 16 16" fill="none" xmlns="http://www.w3.org/2000/svg">
<path d="M2 3C2 4.103 2.897 5 4 5C4.533 5 5.019 4.79 5.378 4.448L10.092 7.4C10.081 7.434 10.071 7.469 10.062 7.504C10.042 7.501 10.021 7.5 10 7.5L6 7.5C5.979 7.5 5.958 7.502 5.938 7.504C5.717 6.64 4.932 6 4 6C2.897 6 2 6.897 2 8C2 9.103 2.897 10 4 10C4.932 10 5.717 9.36 5.938 8.496C5.958 8.499 5.979 8.5 6 8.5L10 8.5C10.021 8.5 10.042 8.498 10.062 8.496C10.071 8.531 10.081 8.566 10.092 8.6L5.378 11.552C5.019 11.21 4.534 11 4 11C2.897 11 2 11.897 2 13C2 14.103 2.897 15 4 15C5.103 15 6 14.103 6 13C6 12.791 5.968 12.59 5.908 12.4L10.622 9.448C10.981 9.79 11.466 10 12 10C13.103 10 14 9.103 14 8C14 6.897 13.103 6 12 6C11.467 6 10.981 6.21 10.622 6.552L5.908 3.6C5.968 3.411 6 3.209 6 3C6 1.897 5.103 1 4 1C2.897 1 2 1.897 2 3ZM4 9C3.448 9 3 8.551 3 8C3 7.449 3.448 7 4 7C4.552 7 5 7.449 5 8C5 8.551 4.552 9 4 9ZM4 14C3.448 14 3 13.551 3 13C3 12.449 3.448 12 4 12C4.339 12 4.638 12.169 4.819 12.427C4.827 12.443 4.836 12.459 4.845 12.475C4.854 12.49 4.865 12.504 4.875 12.518C4.954 12.661 4.999 12.825 4.999 13C4.999 13.551 4.552 14 4 14ZM13 8C13 8.551 12.552 9 12 9C11.661 9 11.361 8.83 11.18 8.571C11.172 8.555 11.164 8.54 11.154 8.525C11.145 8.51 11.134 8.496 11.124 8.482C11.045 8.339 11 8.175 11 8C11 7.825 11.045 7.661 11.124 7.518C11.135 7.504 11.145 7.49 11.154 7.475C11.164 7.46 11.172 7.444 11.18 7.429C11.361 7.17 11.661 7 12 7C12.552 7 13 7.449 13 8ZM5 3C5 3.175 4.955 3.339 4.876 3.482C4.865 3.496 4.855 3.51 4.846 3.525C4.836 3.54 4.828 3.556 4.82 3.572C4.639 3.83 4.339 4 4 4C3.448 4 3 3.551 3 3C3 2.449 3.448 2 4 2C4.552 2 5 2.449 5 3Z" fill="#202020"/>
</svg>
