<svg width="16" height="16" viewBox="0 0 16 16" fill="none" xmlns="http://www.w3.org/2000/svg">
<path d="M14 13C14 11.897 13.103 11 12 11C11.467 11 10.981 11.21 10.622 11.552L5.908 8.6C5.919 8.566 5.929 8.531 5.938 8.496C5.958 8.499 5.979 8.5 6 8.5L10 8.5C10.021 8.5 10.042 8.498 10.062 8.496C10.283 9.36 11.068 10 12 10C13.103 10 14 9.103 14 8C14 6.897 13.103 6 12 6C11.068 6 10.283 6.64 10.062 7.504C10.042 7.501 10.021 7.5 10 7.5L6 7.5C5.979 7.5 5.958 7.502 5.938 7.504C5.929 7.469 5.919 7.434 5.908 7.4L10.622 4.448C10.981 4.79 11.466 5 12 5C13.103 5 14 4.103 14 3C14 1.897 13.103 1 12 1C10.897 1 10 1.897 10 3C10 3.209 10.032 3.41 10.092 3.6L5.378 6.552C5.019 6.21 4.534 6 4 6C2.897 6 2 6.897 2 8C2 9.103 2.897 10 4 10C4.533 10 5.019 9.79 5.378 9.448L10.092 12.4C10.032 12.589 10 12.791 10 13C10 14.103 10.897 15 12 15C13.103 15 14 14.103 14 13ZM12 7C12.552 7 13 7.449 13 8C13 8.551 12.552 9 12 9C11.448 9 11 8.551 11 8C11 7.449 11.448 7 12 7ZM12 2C12.552 2 13 2.449 13 3C13 3.551 12.552 4 12 4C11.661 4 11.362 3.831 11.181 3.573C11.173 3.557 11.164 3.541 11.155 3.525C11.146 3.51 11.135 3.496 11.125 3.482C11.046 3.339 11.001 3.175 11.001 3C11.001 2.449 11.448 2 12 2ZM3 8C3 7.449 3.448 7 4 7C4.339 7 4.639 7.17 4.82 7.429C4.828 7.445 4.836 7.46 4.846 7.475C4.855 7.49 4.866 7.504 4.876 7.518C4.955 7.661 5 7.825 5 8C5 8.175 4.955 8.339 4.876 8.482C4.865 8.496 4.855 8.51 4.846 8.525C4.836 8.54 4.828 8.556 4.82 8.571C4.639 8.83 4.339 9 4 9C3.448 9 3 8.551 3 8ZM11 13C11 12.825 11.045 12.661 11.124 12.518C11.135 12.504 11.145 12.49 11.154 12.475C11.164 12.46 11.172 12.444 11.18 12.428C11.361 12.17 11.661 12 12 12C12.552 12 13 12.449 13 13C13 13.551 12.552 14 12 14C11.448 14 11 13.551 11 13Z" fill="#202020"/>
</svg>
