<svg width="16" height="16" viewBox="0 0 16 16" fill="none" xmlns="http://www.w3.org/2000/svg">
<path fill-rule="evenodd" clip-rule="evenodd" d="M12.5 3H10.5C9.672 3 9 3.672 9 4.5V6.5C9 7.328 9.672 8 10.5 8H12.5C13.328 8 14 7.328 14 6.5V4.5C14 3.672 13.328 3 12.5 3ZM13 6.5C13 6.776 12.776 7 12.5 7H10.5C10.224 7 10 6.776 10 6.5V4.5C10 4.224 10.224 4 10.5 4H12.5C12.776 4 13 4.224 13 4.5V6.5Z" fill="#202020"/>
<path fill-rule="evenodd" clip-rule="evenodd" d="M5.5 10H3.5C2.672 10 2 10.672 2 11.5V13.5C2 14.328 2.672 15 3.5 15H5.5C6.328 15 7 14.328 7 13.5V11.5C7 10.672 6.328 10 5.5 10ZM6 13.5C6 13.776 5.776 14 5.5 14H3.5C3.224 14 3 13.776 3 13.5V11.5C3 11.224 3.224 11 3.5 11H5.5C5.776 11 6 11.224 6 11.5V13.5Z" fill="#202020"/>
<path fill-rule="evenodd" clip-rule="evenodd" d="M10.5 10H12.5C13.328 10 14 10.672 14 11.5V13.5C14 14.328 13.328 15 12.5 15H10.5C9.672 15 9 14.328 9 13.5V11.5C9 10.672 9.672 10 10.5 10ZM12.5 14C12.776 14 13 13.776 13 13.5V11.5C13 11.224 12.776 11 12.5 11H10.5C10.224 11 10 11.224 10 11.5V13.5C10 13.776 10.224 14 10.5 14H12.5Z" fill="#202020"/>
<path d="M4 8C1.794 8 0 6.206 0 4C0 1.794 1.794 0 4 0C6.206 0 8 1.794 8 4C8 6.206 6.206 8 4 8ZM4 1C2.346 1 1 2.346 1 4C1 5.654 2.346 7 4 7C5.654 7 7 5.654 7 4C7 2.346 5.654 1 4 1Z" fill="#202020"/>
<path d="M3.00002 7.337V3.5C3.00002 3.225 3.22402 3 3.50002 3H7.33702C7.22902 2.64 7.07702 2.301 6.86602 2H3.49902C2.67202 2 1.99902 2.673 1.99902 3.5V6.867C2.30002 7.077 2.63902 7.23 2.99902 7.338L3.00002 7.337Z" fill="#202020"/>
</svg>
