<svg width="16" height="16" viewBox="0 0 16 16" fill="none" xmlns="http://www.w3.org/2000/svg">
<path d="M13.5 15H2.5C1.673 15 1 14.327 1 13.5V2.5C1 1.673 1.673 1 2.5 1H13.5C14.327 1 15 1.673 15 2.5V13.5C15 14.327 14.327 15 13.5 15ZM2.5 2C2.225 2 2 2.225 2 2.5V13.5C2 13.775 2.225 14 2.5 14H13.5C13.775 14 14 13.775 14 13.5V2.5C14 2.225 13.775 2 13.5 2H2.5Z" fill="#202020"/>
<path d="M8 6V8H6V6H8ZM4 4V6H6V4H4ZM8 2H6V4H8V2ZM2 8H4V6H2V8ZM2 2V4H4V2H2ZM14 14V12H12V14H14ZM10 10V12H12V10H10ZM14 8H12V10H14V8ZM8 14H10V12H8V14ZM8 8V10H10V8H8Z" fill="#202020"/>
</svg>
