<svg width="16" height="16" viewBox="0 0 16 16" fill="none" xmlns="http://www.w3.org/2000/svg">
<path d="M10.5 7H12.5C13.328 7 14 6.328 14 5.5V3.5C14 2.672 13.328 2 12.5 2H10.5C9.672 2 9 2.672 9 3.5V5.5C9 6.328 9.672 7 10.5 7ZM10 3.5C10 3.224 10.224 3 10.5 3H12.5C12.776 3 13 3.224 13 3.5V5.5C13 5.776 12.776 6 12.5 6H10.5C10.224 6 10 5.776 10 5.5V3.5ZM3.5 7H5.5C6.328 7 7 6.328 7 5.5V3.5C7 2.672 6.328 2 5.5 2H3.5C2.672 2 2 2.672 2 3.5V5.5C2 6.328 2.672 7 3.5 7ZM3 3.5C3 3.224 3.224 3 3.5 3H5.5C5.776 3 6 3.224 6 3.5V5.5C6 5.776 5.776 6 5.5 6H3.5C3.224 6 3 5.776 3 5.5V3.5ZM6.119 13.866C5.93 13.952 5.721 14 5.5 14H3.5C2.672 14 2 13.328 2 12.5V10.5C2 9.672 2.672 9 3.5 9H5.05C5.017 9.162 5 9.329 5 9.5C5 9.669 5.018 9.836 5.052 10H3.5C3.224 10 3 10.224 3 10.5V12.5C3 12.776 3.224 13 3.5 13H5.5C5.776 13 6 12.776 6 12.5V11.534L6.981 12.516C6.569 12.87 6.269 13.338 6.118 13.867L6.119 13.866ZM15.59 11.41L14.42 9.45C13.94 8.66 13.11 8.24 12.27 8.24C11.8 8.24 11.31 8.37 10.89 8.66C10.85 8.67 10.82 8.7 10.79 8.72L9.99 9.31L9.67 9.55L8.56 8.44C8.27 8.15 7.88 8 7.5 8C6.67 8 6 8.67 6 9.5C6 9.88 6.15 10.27 6.44 10.56L8.68 12.8L8.54 12.84L8.3 12.91C7.5 13.15 7.01 13.88 7.01 14.65C7.01 15.22 7.3 16 7.99 16C8.04 16 8.09 16 8.14 15.98L11.06 15.42C11.16 15.4 11.6 15.24 12.37 15.24C12.74 15.24 12.85 15.27 13.03 15.27C13.53 15.27 14.05 15.06 14.38 14.62L15.52 13.07C15.71 12.81 15.81 12.5 15.81 12.18C15.81 11.92 15.74 11.65 15.59 11.41ZM14.71 12.48L13.57 14.03C13.47 14.17 13.27 14.27 13.04 14.27C12.94 14.27 12.75 14.24 12.37 14.24C11.92 14.24 11.39 14.29 10.84 14.44L8.08 14.98C8.03 14.87 8.01 14.76 8.01 14.65C8.01 14.3 8.23 13.97 8.59 13.86L9.76 13.51C10 13.44 10.12 13.23 10.12 13.03C10.12 12.9 10.07 12.78 9.98 12.68L9.59 12.29L7.15 9.85C7.05 9.75 7 9.63 7 9.5C7 9.22 7.22 9 7.5 9C7.63 9 7.76 9.05 7.85 9.15L9.27 10.56C9.36 10.66 9.49 10.71 9.62 10.71C9.65 10.71 9.67 10.71 9.7 10.7V10.69C9.78 10.69 9.85 10.66 9.92 10.61L10.98 9.82L11.38 9.53C11.65 9.33 11.96 9.24 12.27 9.24C12.78 9.24 13.28 9.49 13.56 9.96L14.74 11.92C14.78 12 14.81 12.09 14.81 12.18C14.81 12.29 14.77 12.39 14.71 12.48Z" fill="#202020"/>
</svg>
