<svg width="16" height="16" viewBox="0 0 16 16" fill="none" xmlns="http://www.w3.org/2000/svg">
<path d="M2 3.5C2.552 3.5 3 3.052 3 2.5C3 1.948 2.552 1.5 2 1.5C1.448 1.5 1 1.948 1 2.5C1 3.052 1.448 3.5 2 3.5ZM5.5 2C5.224 2 5 2.224 5 2.5C5 2.776 5.224 3 5.5 3H14.5C14.776 3 15 2.776 15 2.5C15 2.224 14.776 2 14.5 2H5.5ZM5.5 5C5.224 5 5 5.224 5 5.5C5 5.776 5.224 6 5.5 6H14.5C14.776 6 15 5.776 15 5.5C15 5.224 14.776 5 14.5 5H5.5Z" fill="#006CBF"/>
<path d="M2 11.5C2.552 11.5 3 11.052 3 10.5C3 9.948 2.552 9.5 2 9.5C1.448 9.5 1 9.948 1 10.5C1 11.052 1.448 11.5 2 11.5ZM5 10.5C5 10.224 5.224 10 5.5 10H14.5C14.776 10 15 10.224 15 10.5C15 10.776 14.776 11 14.5 11H5.5C5.224 11 5 10.776 5 10.5ZM5 13.5C5 13.224 5.224 13 5.5 13H14.5C14.776 13 15 13.224 15 13.5C15 13.776 14.776 14 14.5 14H5.5C5.224 14 5 13.776 5 13.5Z" fill="#202020"/>
</svg>
