<svg width="16" height="16" viewBox="0 0 16 16" fill="none" xmlns="http://www.w3.org/2000/svg">
<path d="M1.99998 4.00002C1.99998 2.89502 2.89498 2.00002 3.99998 2.00002L3.99898 1.99902C4.27498 1.99902 4.49898 2.22302 4.49898 2.49902C4.49898 2.77502 4.27498 2.99902 3.99898 2.99902C3.44698 2.99902 2.99898 3.44702 2.99898 3.99902V6.0702C2.99898 6.51464 2.99899 6.97248 2.83798 7.37302C2.74098 7.61502 2.59598 7.82002 2.39998 7.99902C2.59598 8.17902 2.74198 8.38302 2.83898 8.62602C2.99998 9.03002 2.99998 9.49202 2.99998 9.94102V12C2.99998 12.552 3.44798 13 3.99998 13C4.27598 13 4.49998 13.224 4.49998 13.5C4.49998 13.776 4.27598 14 3.99998 14C2.89498 14 1.99998 13.105 1.99998 12V10C1.99998 9.46702 1.99298 9.20202 1.91098 8.99802C1.84898 8.84102 1.71598 8.66702 1.27698 8.44702C1.10798 8.36302 1.00098 8.18902 1.00098 8.00002C1.00098 7.81102 1.10798 7.63802 1.27698 7.55302C1.71598 7.33302 1.84798 7.15802 1.91098 7.00202C1.99198 6.79902 1.99998 6.53502 1.99998 6.00502V4.00002Z" fill="#202020"/>
<path d="M12.598 7.98998C12.695 7.97098 12.784 7.92298 12.854 7.85298C12.948 7.75898 13 7.63198 13 7.49998C13 7.36798 12.948 7.24098 12.854 7.14698C12.784 7.07698 12.695 7.02898 12.598 7.00998C12.501 6.98998 12.4 6.99998 12.309 7.03798C12.218 7.07598 12.14 7.13998 12.085 7.22198C12.03 7.30398 12.001 7.40098 12.001 7.49998C12.001 7.59898 12.03 7.69598 12.085 7.77798C12.14 7.85998 12.217 7.92498 12.309 7.96198C12.401 7.99898 12.501 8.00898 12.598 7.98998Z" fill="#202020"/>
<path fill-rule="evenodd" clip-rule="evenodd" d="M9.40201 8.99998C9.93401 9.92098 10.921 10.5 12 10.5C13.654 10.5 15 9.15498 15 7.50098C15 5.84698 13.654 4.50098 12 4.50098C10.921 4.50098 9.93401 5.07998 9.40201 6.00098H6.50001C6.36701 6.00098 6.24001 6.05298 6.14601 6.14698L5.14601 7.14698C4.95101 7.34198 4.95101 7.65898 5.14601 7.85398L6.14601 8.85398C6.24001 8.94698 6.36701 8.99998 6.50001 8.99998H9.40201ZM9.70801 7.99998H6.70701L6.20701 7.49998L6.70701 6.99998H9.70801C9.90701 6.99998 10.086 6.88298 10.166 6.69998C10.485 5.97098 11.204 5.49998 11.999 5.49998C13.102 5.49998 13.999 6.39698 13.999 7.49998C13.999 8.60298 13.102 9.49998 11.999 9.49998C11.205 9.49998 10.485 9.02898 10.166 8.29998C10.086 8.11698 9.90701 7.99998 9.70801 7.99998Z" fill="#202020"/>
</svg>
