<svg width="16" height="16" viewBox="0 0 16 16" fill="none" xmlns="http://www.w3.org/2000/svg">
<path d="M12 6H10V4C10 2.895 9.105 2 8 2H4.95C4.983 2.162 5 2.329 5 2.5C5 2.671 4.983 2.838 4.95 3H8C8.552 3 9 3.448 9 4V6H8C6.895 6 6 6.895 6 8V9H4C3.448 9 3 8.552 3 8V4.95C2.838 4.983 2.671 5 2.5 5C2.329 5 2.162 4.983 2 4.95V8C2 9.105 2.895 10 4 10H6V12C6 13.105 6.895 14 8 14H11.05C11.017 13.838 11 13.671 11 13.5C11 13.329 11.017 13.162 11.05 13H8C7.448 13 7 12.552 7 12V10H8C9.105 10 10 9.105 10 8V7H12C12.552 7 13 7.448 13 8V11.05C13.162 11.017 13.329 11 13.5 11C13.671 11 13.838 11.017 14 11.05V8C14 6.895 13.105 6 12 6ZM9 8C9 8.552 8.552 9 8 9H7V8C7 7.448 7.448 7 8 7H9V8Z" fill="#202020"/>
<path d="M4 2.5C4 3.32843 3.32843 4 2.5 4C1.67157 4 1 3.32843 1 2.5C1 1.67157 1.67157 1 2.5 1C3.32843 1 4 1.67157 4 2.5Z" fill="#006CBF"/>
<path d="M15 13.5C15 14.3284 14.3284 15 13.5 15C12.6716 15 12 14.3284 12 13.5C12 12.6716 12.6716 12 13.5 12C14.3284 12 15 12.6716 15 13.5Z" fill="#006CBF"/>
<path d="M13.5 4C14.3284 4 15 3.32843 15 2.5C15 1.67157 14.3284 1 13.5 1C12.6716 1 12 1.67157 12 2.5C12 3.32843 12.6716 4 13.5 4Z" fill="#006CBF"/>
<path d="M4 13.5C4 14.3284 3.32843 15 2.5 15C1.67157 15 1 14.3284 1 13.5C1 12.6716 1.67157 12 2.5 12C3.32843 12 4 12.6716 4 13.5Z" fill="#006CBF"/>
</svg>
