<svg width="16" height="16" viewBox="0 0 16 16" fill="none" xmlns="http://www.w3.org/2000/svg">
<path d="M1.99998 4.00002C1.99998 2.89502 2.89498 2.00002 3.99998 2.00002L3.99898 1.99902C4.27498 1.99902 4.49898 2.22302 4.49898 2.49902C4.49898 2.77502 4.27498 2.99902 3.99898 2.99902C3.44698 2.99902 2.99898 3.44702 2.99898 3.99902V6.0702C2.99898 6.51464 2.99899 6.97248 2.83798 7.37302C2.74098 7.61502 2.59598 7.82002 2.39998 7.99902C2.59598 8.17902 2.74198 8.38302 2.83898 8.62602C2.99998 9.03002 2.99998 9.49202 2.99998 9.94102V12C2.99998 12.552 3.44798 13 3.99998 13C4.27598 13 4.49998 13.224 4.49998 13.5C4.49998 13.776 4.27598 14 3.99998 14C2.89498 14 1.99998 13.105 1.99998 12V10C1.99998 9.46702 1.99298 9.20202 1.91098 8.99802C1.84898 8.84102 1.71598 8.66702 1.27698 8.44702C1.10798 8.36302 1.00098 8.18902 1.00098 8.00002C1.00098 7.81102 1.10798 7.63802 1.27698 7.55302C1.71598 7.33302 1.84798 7.15802 1.91098 7.00202C1.99198 6.79902 1.99998 6.53502 1.99998 6.00502V4.00002Z" fill="#202020"/>
<path fill-rule="evenodd" clip-rule="evenodd" d="M6.25 11H9.75C10.439 11 11 10.439 11 9.75V6.25C11 5.561 10.439 5 9.75 5H6.25C5.561 5 5 5.561 5 6.25V9.75C5 10.439 5.561 11 6.25 11ZM6 6.25C6 6.112 6.112 6 6.25 6H9.75C9.888 6 10 6.112 10 6.25V9.75C10 9.888 9.888 10 9.75 10H6.25C6.112 10 6 9.888 6 9.75V6.25Z" fill="#202020"/>
<path d="M8.25 3H9.75C11.54 3 13 4.46 13 6.25V7.75C13 8.35 12.57 8.86 12 8.97V6.25C12 5.01 10.99 4 9.75 4H7.03C7.14 3.43 7.65 3 8.25 3Z" fill="#202020"/>
</svg>
