<svg width="16" height="16" viewBox="0 0 16 16" fill="none" xmlns="http://www.w3.org/2000/svg">
<g clip-path="url(#clip0_7202_68967)">
<path d="M16 7.07399V7.89999L12.706 11.221L10.468 8.99998H8.383L4.758 12.653L0 7.92999V7.09999L4.719 2.34698L8.4 5.99998H10.469L12.676 3.77799L16 7.07399Z" fill="white"/>
<path d="M15 7.491L12.7 9.809L10.381 7.509L12.681 5.194L15 7.491Z" fill="#5AC5C5"/>
<path d="M1 7.51399L4.753 11.239L8.477 7.48599L4.724 3.76099L1 7.51399Z" fill="#5AC5C5"/>
<path d="M13.846 7.45701L12.718 8.59201H11.755L12.344 8.00001H4.43L6.2 9.76601H4.519L2.235 7.50001L4.491 5.23001H6.168L4.423 7.00001H12.405L11.748 6.33301H12.7L13.846 7.45701Z" fill="#244B5A"/>
</g>
<defs>
<clipPath id="clip0_7202_68967">
<rect width="16" height="16" fill="white"/>
</clipPath>
</defs>
</svg>
