<svg width="16" height="16" viewBox="0 0 16 16" fill="none" xmlns="http://www.w3.org/2000/svg">
<path d="M8 3.49993V12.4999C8 12.7759 7.776 12.9999 7.5 12.9999C7.224 12.9999 7 12.7759 7 12.4999V8.49993H3V12.4999C3 12.7759 2.776 12.9999 2.5 12.9999C2.224 12.9999 2 12.7759 2 12.4999V3.49993C2 3.22393 2.224 2.99993 2.5 2.99993C2.776 2.99993 3 3.22393 3 3.49993V7.49993H7V3.49993C7 3.22393 7.224 2.99993 7.5 2.99993C7.776 2.99993 8 3.22393 8 3.49993ZM12.58 3.00593C12.341 2.96693 12.103 3.10893 12.026 3.34093C12.022 3.35393 11.59 4.60893 10.342 5.02493C10.08 5.11193 9.939 5.39493 10.026 5.65693C10.113 5.91793 10.393 6.06193 10.658 5.97293C11.221 5.78493 11.661 5.47893 12 5.14993V12.4989C12 12.7749 12.224 12.9989 12.5 12.9989C12.776 12.9989 13 12.7749 13 12.4989V3.49993C13 3.25493 12.822 3.04593 12.58 3.00593Z" fill="#202020"/>
</svg>
