<svg width="16" height="16" viewBox="0 0 16 16" fill="none" xmlns="http://www.w3.org/2000/svg">
<path d="M8 3.5V12.5C8 12.776 7.776 13 7.5 13C7.224 13 7 12.776 7 12.5V8.5H3V12.5C3 12.776 2.776 13 2.5 13C2.224 13 2 12.776 2 12.5V3.5C2 3.224 2.224 3 2.5 3C2.776 3 3 3.224 3 3.5V7.5H7V3.5C7 3.224 7.224 3 7.5 3C7.776 3 8 3.224 8 3.5ZM13.716 8C14.49 7.502 15 6.681 15 5.75C15 4.233 13.654 3 12 3C10.85 3 9.819 3.587 9.311 4.53C9.261 4.623 9.216 4.718 9.177 4.817C9.076 5.074 9.202 5.364 9.46 5.465C9.715 5.564 10.007 5.44 10.108 5.182C10.132 5.121 10.159 5.063 10.191 5.005C10.521 4.394 11.231 3.999 12.001 3.999C13.104 3.999 14.001 4.784 14.001 5.749C14.001 6.714 13.104 7.499 12.001 7.499H11.501C11.225 7.499 11.001 7.723 11.001 7.999C11.001 8.275 11.225 8.499 11.501 8.499H12.001C13.104 8.499 14.001 9.284 14.001 10.249C14.001 11.214 13.104 11.999 12.001 11.999C11.231 11.999 10.521 11.604 10.19 10.992C10.159 10.935 10.132 10.877 10.108 10.816C10.007 10.559 9.716 10.434 9.46 10.533C9.203 10.634 9.076 10.924 9.177 11.181C9.216 11.28 9.26 11.375 9.31 11.467C9.819 12.411 10.85 12.998 12 12.998C13.654 12.998 15 11.765 15 10.248C15 9.317 14.49 8.496 13.716 7.998V8Z" fill="#202020"/>
</svg>
