<svg width="16" height="16" viewBox="0 0 16 16" fill="none" xmlns="http://www.w3.org/2000/svg">
<g clip-path="url(#clip0_7202_69046)">
<path d="M4.5 7.00001H5.142C4.855 6.20501 5.021 5.28601 5.654 4.65301C6.529 3.77801 7.953 3.78301 8.835 4.66501L9.644 5.47401C9.843 5.67301 10.166 5.66901 10.36 5.46501L11.15 4.67001C12.027 3.79301 13.452 3.79701 14.336 4.68201C14.966 5.31201 15.139 6.21501 14.873 7.00001H15.5C15.637 7.00001 15.767 7.02401 15.893 7.05901C16.157 5.98901 15.882 4.81401 15.043 3.97501C13.769 2.70101 11.711 2.69501 10.442 3.96301L9.995 4.41101L9.542 3.95801C8.27 2.68601 6.213 2.68001 4.947 3.94601C4.105 4.78801 3.839 5.97701 4.12 7.05501C4.242 7.02301 4.367 7.00001 4.5 7.00001Z" fill="#C50F1F"/>
<path d="M12.367 9.84201L10.019 12.188L7.66899 9.83801C7.46499 9.94001 7.23999 10 6.99999 10H6.41699L9.66599 13.249C9.86099 13.444 10.178 13.444 10.373 13.249L13.624 10H13.001C12.776 10 12.565 9.93501 12.368 9.84201H12.367Z" fill="#C50F1F"/>
<path d="M13.207 7.99999H15.5L15.501 7.99899C15.777 7.99899 16.001 8.22299 16.001 8.49899C16.001 8.77499 15.777 8.99899 15.501 8.99899H13.001C12.868 8.99899 12.741 8.94699 12.647 8.85299L12.042 8.24899L10.391 10.312C10.295 10.432 10.151 10.5 10 10.5C9.982 10.5 9.965 10.499 9.947 10.497C9.777 10.48 9.628 10.376 9.552 10.224L8.05 7.21999L7.464 8.68599C7.388 8.87599 7.205 8.99999 7 8.99999H4.5C4.224 8.99999 4 8.77599 4 8.49999C4 8.22399 4.224 7.99999 4.5 7.99999H6.662L7.536 5.81399C7.609 5.63199 7.783 5.50899 7.979 5.49999C8.188 5.49299 8.359 5.59999 8.447 5.77599L10.097 9.07699L11.609 7.18699C11.698 7.07499 11.83 7.00799 11.972 6.99999C12.117 6.98499 12.252 7.04499 12.353 7.14599L13.207 7.99999Z" fill="#C50F1F"/>
</g>
<defs>
<clipPath id="clip0_7202_69046">
<rect width="16" height="16" fill="white"/>
</clipPath>
</defs>
</svg>
