<svg width="16" height="16" viewBox="0 0 16 16" fill="none" xmlns="http://www.w3.org/2000/svg">
<g clip-path="url(#clip0_7202_69069)">
<path fill-rule="evenodd" clip-rule="evenodd" d="M9 0.720215V2.22021C9 2.63421 9.336 2.97021 9.75 2.97021H11.25C11.664 2.97021 12 2.63421 12 2.22021V0.720215C12 0.306215 11.664 -0.0297852 11.25 -0.0297852H9.75C9.336 -0.0297852 9 0.306215 9 0.720215ZM10 0.970215H11V1.97021H10V0.970215Z" fill="#202020"/>
<path fill-rule="evenodd" clip-rule="evenodd" d="M1.53097 12.0001C1.94697 12.0001 2.33897 11.8381 2.63397 11.5431L6.29697 7.87814C6.63507 7.96509 6.96909 7.98961 7.28996 7.96065C7.91836 7.21396 8.74176 6.63681 9.68169 6.30767C9.88485 5.90314 9.99997 5.44772 9.99997 4.96814C9.99997 4.63614 9.93797 4.29614 9.81297 3.95414C9.75497 3.79314 9.61897 3.67314 9.45197 3.63614C9.28497 3.60014 9.10997 3.65014 8.98997 3.77114L7.74997 5.01114L6.95697 4.21814L8.19697 2.97814C8.31797 2.85714 8.36897 2.68314 8.33197 2.51614C8.29397 2.34914 8.17397 2.21214 8.01297 2.15414C5.94797 1.41114 3.99997 2.98014 3.99997 4.96814C3.99997 5.19814 4.02997 5.43414 4.08997 5.67114L0.426971 9.33414C0.131971 9.62814 -0.0300293 10.0201 -0.0300293 10.4381C-0.0300293 11.2981 0.669971 12.0001 1.53097 12.0001ZM0.968971 10.4401C0.968971 10.2901 1.02797 10.1491 1.13297 10.0441L5.00897 6.16814C5.14597 6.03114 5.19197 5.82714 5.12497 5.64514C5.03997 5.41014 4.99897 5.18914 4.99897 4.97114C4.99897 3.94214 5.77997 3.09214 6.77997 2.98314L5.89497 3.86814C5.69997 4.06314 5.69997 4.38014 5.89497 4.57514L7.39497 6.07514C7.58997 6.27014 7.90697 6.27014 8.10197 6.07514L8.98697 5.19114C8.85497 6.40114 7.68597 7.33714 6.32397 6.84514C6.26897 6.82514 6.21197 6.81614 6.15497 6.81614V6.81414C6.02597 6.81414 5.89797 6.86514 5.80197 6.96014L1.92597 10.8361C1.59997 11.1591 0.968971 10.8971 0.968971 10.4401Z" fill="#202020"/>
<path fill-rule="evenodd" clip-rule="evenodd" d="M11.5 16C13.9853 16 16 13.9853 16 11.5C16 9.01472 13.9853 7 11.5 7C9.01472 7 7 9.01472 7 11.5C7 13.9853 9.01472 16 11.5 16ZM11.5 8.50342C10.452 8.50342 9.63568 9.32081 9.64659 10.4577C9.64924 10.7338 9.87524 10.9555 10.1514 10.9529C10.4275 10.9502 10.6492 10.7242 10.6465 10.4481C10.641 9.8691 11.0062 9.50342 11.5 9.50342C11.9723 9.50342 12.3534 9.89531 12.3534 10.4529C12.3534 10.6547 12.2822 10.7679 11.9937 10.9968L11.7157 11.2118C11.2099 11.6161 11 11.9293 10.9999 12.5003C10.9999 12.7764 11.2238 13.0003 11.4999 13.0003C11.7454 13.0003 11.9495 12.8234 11.9919 12.5902L12.0034 12.434C12.0202 12.2863 12.103 12.1804 12.3487 11.9858L12.6257 11.7715C13.1391 11.3606 13.3534 11.0387 13.3534 10.4529C13.3534 9.34921 12.531 8.50342 11.5 8.50342ZM11.4999 13.3803C11.155 13.3803 10.8754 13.6599 10.8754 14.0048C10.8754 14.3497 11.155 14.6293 11.4999 14.6293C11.8448 14.6293 12.1244 14.3497 12.1244 14.0048C12.1244 13.6599 11.8448 13.3803 11.4999 13.3803Z" fill="#006CBF"/>
</g>
<defs>
<clipPath id="clip0_7202_69069">
<rect width="16" height="16" fill="white"/>
</clipPath>
</defs>
</svg>
