<svg width="16" height="16" viewBox="0 0 16 16" fill="none" xmlns="http://www.w3.org/2000/svg">
<path d="M5 1C3.896 1 3 1.896 3 3V3.5C3 3.776 3.224 4 3.5 4C3.776 4 4 3.776 4 3.5V3C4 2.448 4.448 2 5 2H5.5C5.776 2 6 1.776 6 1.5C6 1.224 5.776 1 5.5 1H5ZM7.5 1C7.224 1 7 1.224 7 1.5C7 1.776 7.224 2 7.5 2H8.586C8.718 2 8.845 2.052 8.939 2.147L9.667 2.876C9.862 3.071 10.179 3.071 10.374 2.876C10.569 2.681 10.569 2.364 10.374 2.169L9.645 1.441C9.363 1.159 8.982 1.002 8.584 1.002H7.498L7.5 1ZM11.832 3.625C11.637 3.43 11.32 3.43 11.125 3.625C10.93 3.82 10.93 4.137 11.125 4.332L11.854 5.061C11.947 5.154 12 5.281 12 5.414V6.5C12 6.776 12.224 7 12.5 7C12.776 7 13 6.776 13 6.5V5.414C13 5.017 12.843 4.635 12.56 4.353L11.832 3.625ZM4 5.5C4 5.224 3.776 5 3.5 5C3.224 5 3 5.224 3 5.5V6.5C3 6.776 3.224 7 3.5 7C3.776 7 4 6.776 4 6.5V5.5ZM4 8.5C4 8.224 3.776 8 3.5 8C3.224 8 3 8.224 3 8.5V10.5C3 10.776 3.224 11 3.5 11C3.776 11 4 10.776 4 10.5V8.5ZM13 8.5C13 8.224 12.776 8 12.5 8C12.224 8 12 8.224 12 8.5V10.5C12 10.776 12.224 11 12.5 11C12.776 11 13 10.776 13 10.5V8.5ZM13 12.5C13 12.224 12.776 12 12.5 12C12.224 12 12 12.224 12 12.5V13C12 13.552 11.552 14 11 14H10.5C10.224 14 10 14.224 10 14.5C10 14.776 10.224 15 10.5 15H11C12.104 15 13 14.104 13 13V12.5ZM4 12.5C4 12.224 3.776 12 3.5 12C3.224 12 3 12.224 3 12.5V13C3 14.104 3.896 15 5 15H5.5C5.776 15 6 14.776 6 14.5C6 14.224 5.776 14 5.5 14H5C4.448 14 4 13.552 4 13V12.5ZM9 3.812C9 3.536 8.776 3.312 8.5 3.312C8.224 3.312 8 3.536 8 3.812V4.5C8 5.328 8.672 6 9.5 6H10.188C10.464 6 10.688 5.776 10.688 5.5C10.688 5.224 10.464 5 10.188 5H9.5C9.224 5 9 4.776 9 4.5V3.812ZM8.5 15H7.5C7.224 15 7 14.776 7 14.5C7 14.224 7.224 14 7.5 14H8.5C8.776 14 9 14.224 9 14.5C9 14.776 8.776 15 8.5 15Z" fill="#202020"/>
</svg>
