<svg width="16" height="16" viewBox="0 0 16 16" fill="none" xmlns="http://www.w3.org/2000/svg">
<path d="M14 1H2C1.448 1 1 1.449 1 2V4C1 4.551 1.448 5 2 5H7.5V7.793L6.707 7C6.512 6.805 6.195 6.805 6 7C5.805 7.195 5.805 7.512 6 7.707L7.646 9.353C7.744 9.451 7.872 9.499 8 9.499C8.128 9.499 8.256 9.45 8.354 9.353L10 7.707C10.195 7.512 10.195 7.195 10 7C9.805 6.805 9.488 6.805 9.293 7L8.5 7.793V5H14C14.552 5 15 4.551 15 4V2C15 1.449 14.552 1 14 1ZM14 4H2V2H14V4Z" fill="#006CBF"/>
<path d="M12 11.5C12 11.776 11.776 12 11.5 12H10.5C10.224 12 10 11.776 10 11.5C10 11.224 10.224 11 10.5 11H11.5C11.776 11 12 11.224 12 11.5ZM8.5 11H7.5C7.224 11 7 11.224 7 11.5C7 11.776 7.224 12 7.5 12H8.5C8.776 12 9 11.776 9 11.5C9 11.224 8.776 11 8.5 11ZM5.5 11H4.5C4.224 11 4 11.224 4 11.5C4 11.776 4.224 12 4.5 12H5.5C5.776 12 6 11.776 6 11.5C6 11.224 5.776 11 5.5 11ZM5.5 14H4.5C4.224 14 4 14.224 4 14.5C4 14.776 4.224 15 4.5 15H5.5C5.776 15 6 14.776 6 14.5C6 14.224 5.776 14 5.5 14ZM8.5 14H7.5C7.224 14 7 14.224 7 14.5C7 14.776 7.224 15 7.5 15H8.5C8.776 15 9 14.776 9 14.5C9 14.224 8.776 14 8.5 14ZM11.5 14H10.5C10.224 14 10 14.224 10 14.5C10 14.776 10.224 15 10.5 15H11.5C11.776 15 12 14.776 12 14.5C12 14.224 11.776 14 11.5 14ZM2.5 14H2C2 13.724 1.776 13.5 1.5 13.5C1.224 13.5 1 13.724 1 14C1 14.069 1.014 14.135 1.039 14.195C1.133 14.65 1.517 15 2 15H2.5C2.776 15 3 14.776 3 14.5C3 14.224 2.776 14 2.5 14ZM13.5 12H14C14 12.276 14.224 12.5 14.5 12.5C14.776 12.5 15 12.276 15 12C15 11.931 14.986 11.865 14.961 11.805C14.867 11.35 14.483 11 14 11H13.5C13.224 11 13 11.224 13 11.5C13 11.776 13.224 12 13.5 12ZM2.5 11H2C1.518 11 1.133 11.35 1.039 11.805C1.014 11.865 1 11.931 1 12C1 12.276 1.224 12.5 1.5 12.5C1.776 12.5 2 12.276 2 12H2.5C2.776 12 3 11.776 3 11.5C3 11.224 2.776 11 2.5 11ZM14.5 13.5C14.224 13.5 14 13.724 14 14H13.5C13.224 14 13 14.224 13 14.5C13 14.776 13.224 15 13.5 15H14C14.482 15 14.867 14.65 14.961 14.195C14.986 14.135 15 14.069 15 14C15 13.724 14.776 13.5 14.5 13.5Z" fill="#202020"/>
</svg>
