<svg width="16" height="16" viewBox="0 0 16 16" fill="none" xmlns="http://www.w3.org/2000/svg">
<path d="M6.82401 1H8.82401C9.10001 1 9.32401 1.224 9.32401 1.5C9.32401 1.776 9.10001 2 8.82401 2H6.82401C6.54801 2 6.32401 1.776 6.32401 1.5C6.32401 1.224 6.54801 1 6.82401 1Z" fill="#202020"/>
<path d="M3.27301 2C3.62301 1.394 4.27001 1 5.00001 1C5.27601 1 5.50001 1.224 5.50001 1.5C5.50001 1.776 5.27601 2 5.00001 2H3.27301Z" fill="#202020"/>
<path d="M10.824 1H12.824C13.1 1 13.324 1.224 13.324 1.5C13.324 1.776 13.1 2 12.824 2H10.824C10.548 2 10.324 1.776 10.324 1.5C10.324 1.224 10.548 1 10.824 1Z" fill="#202020"/>
<path d="M14 6.467C14 6.191 14.224 5.967 14.5 5.967C14.776 5.967 15 6.191 15 6.467V8.467C15 8.743 14.776 8.967 14.5 8.967C14.224 8.967 14 8.743 14 8.467V6.467Z" fill="#202020"/>
<path d="M14.235 2.008C14.496 1.913 14.782 2.047 14.877 2.306C14.959 2.53 14.999 2.763 14.999 3V4.467C14.999 4.743 14.775 4.967 14.499 4.967C14.223 4.967 13.999 4.743 13.999 4.467V3C13.999 2.88 13.978 2.763 13.937 2.649C13.842 2.39 13.976 2.103 14.235 2.008Z" fill="#202020"/>
<path d="M3.00002 13.934C3.00002 14.522 3.47802 15 4.06602 15V15.001C4.29202 15.001 4.50802 14.931 4.69402 14.796L4.78002 14.733C5.00202 14.57 5.05002 14.257 4.88702 14.034C4.72402 13.81 4.41202 13.762 4.18802 13.926L4.10202 13.989L4.39802 14.392L4.00002 13.934V13.286C4.00002 13.01 3.77602 12.786 3.50002 12.786C3.22402 12.786 3.00002 13.01 3.00002 13.286V13.934Z" fill="#202020"/>
<path d="M5.69802 13.447C5.79492 13.5819 5.94769 13.6529 6.10152 13.653C6.20435 13.6529 6.30617 13.6209 6.39502 13.557L7.16202 13H7.89002C8.16602 13 8.39002 12.776 8.39002 12.5C8.39002 12.224 8.16602 12 7.89002 12H6.83602L5.80802 12.749C5.58502 12.911 5.53602 13.224 5.69802 13.447Z" fill="#202020"/>
<path d="M9.89002 13H10.999C11.4 13 11.788 12.882 12.117 12.658C12.346 12.504 12.405 12.193 12.251 11.964C12.096 11.735 11.786 11.675 11.557 11.831C11.393 11.941 11.2 12 10.999 12H9.89002C9.61402 12 9.39002 12.224 9.39002 12.5C9.39002 12.776 9.61402 13 9.89002 13Z" fill="#202020"/>
<path d="M2.08202 12.777C2.15502 12.815 2.23302 12.833 2.31102 12.833L2.31202 12.834C2.49202 12.834 2.66702 12.735 2.75602 12.563C2.88302 12.317 2.78602 12.015 2.54102 11.889C2.20702 11.716 1.99902 11.375 1.99902 11V10.643C1.99902 10.367 1.77502 10.143 1.49902 10.143C1.22302 10.143 0.999023 10.367 0.999023 10.643V11C0.999023 11.751 1.41402 12.432 2.08202 12.777Z" fill="#202020"/>
<path d="M11.999 10.467C11.999 10.743 12.223 10.967 12.499 10.967C12.775 10.967 12.999 10.743 12.999 10.467V8.46702C12.999 8.19102 12.775 7.96702 12.499 7.96702C12.223 7.96702 11.999 8.19102 11.999 8.46702V10.467Z" fill="#202020"/>
<path d="M1.00002 8.64302C1.00002 8.91902 1.22402 9.14302 1.50002 9.14302C1.77602 9.14302 2.00002 8.91902 2.00002 8.64302V6.64302C2.00002 6.36702 1.77602 6.14302 1.50002 6.14302C1.22402 6.14302 1.00002 6.36702 1.00002 6.64302V8.64302Z" fill="#202020"/>
<path d="M12 6.46702C12 6.74302 12.224 6.96702 12.5 6.96702H12.501C12.777 6.96702 13.001 6.74302 13.001 6.46702V5.00002C13.001 4.76302 12.96 4.53002 12.878 4.30602C12.783 4.04702 12.497 3.91302 12.236 4.00802C11.977 4.10302 11.843 4.39002 11.938 4.64902C11.979 4.76302 12 4.88002 12 5.00002V6.46702Z" fill="#202020"/>
<path d="M1.42502 5.13202C1.46402 5.14202 1.50402 5.14602 1.54202 5.14602C1.76702 5.14602 1.97202 4.99202 2.02802 4.76302C2.13702 4.31302 2.53602 3.99902 3.00002 3.99902C3.27602 3.99902 3.50002 3.77502 3.50002 3.49902C3.50002 3.22302 3.27602 2.99902 3.00002 2.99902C2.07402 2.99902 1.27402 3.62802 1.05602 4.52802C0.991023 4.79702 1.15602 5.06702 1.42502 5.13202Z" fill="#202020"/>
<path d="M8.82402 4.00002H10.824C11.1 4.00002 11.324 3.77602 11.324 3.50002C11.324 3.22402 11.1 3.00002 10.824 3.00002H8.82402C8.54802 3.00002 8.32402 3.22402 8.32402 3.50002C8.32402 3.77602 8.54802 4.00002 8.82402 4.00002Z" fill="#202020"/>
<path d="M4.82402 4.00002H6.82402C7.10002 4.00002 7.32402 3.77602 7.32402 3.50002C7.32402 3.22402 7.10002 3.00002 6.82402 3.00002H4.82402C4.54802 3.00002 4.32402 3.22402 4.32402 3.50002C4.32402 3.77602 4.54802 4.00002 4.82402 4.00002Z" fill="#202020"/>
</svg>
