<svg width="16" height="16" viewBox="0 0 16 16" fill="none" xmlns="http://www.w3.org/2000/svg">
<path d="M14.5 9H5.5C4.673 9 4 8.327 4 7.5V1.5C4 0.673 4.673 0 5.5 0H14.5C15.327 0 16 0.673 16 1.5V7.5C16 8.327 15.327 9 14.5 9ZM5.5 1C5.225 1 5 1.225 5 1.5V7.5C5 7.775 5.225 8 5.5 8H14.5C14.775 8 15 7.775 15 7.5V1.5C15 1.225 14.775 1 14.5 1H5.5Z" fill="#202020"/>
<path d="M12.353 3.79799C12.143 4.07799 11.893 4.31799 11.603 4.49799C11.133 4.17799 10.563 3.99799 9.96299 3.99799C9.37299 3.99799 8.80299 4.17799 8.33299 4.49799C8.04299 4.67799 7.78299 4.91799 7.58299 5.19799C7.37299 5.45799 7.21299 5.75799 7.11299 6.08799C7.06299 6.23799 7.02299 6.40799 7.00299 6.56799C6.96299 6.83799 6.70299 7.01799 6.43299 6.99799C6.16299 6.95799 5.97299 6.69799 6.00299 6.42799C6.05299 6.06799 6.15299 5.71799 6.30299 5.38799V5.37799C6.44299 5.06799 6.63299 4.76799 6.85299 4.49799C7.05299 4.23799 7.30299 3.99799 7.58299 3.79799C7.84299 3.59799 8.14299 3.42799 8.45299 3.29799C8.92299 3.10799 9.43299 2.99799 9.96299 2.99799C10.493 2.99799 11.003 3.10799 11.473 3.29799C11.783 3.42799 12.083 3.59799 12.353 3.79799ZM13.623 5.38799C13.383 5.65799 13.113 5.88799 12.823 6.08799C12.873 6.23799 12.913 6.40799 12.933 6.56799C12.973 6.81799 13.183 6.99799 13.433 6.99799H13.503C13.773 6.95799 13.963 6.69799 13.923 6.42799C13.873 6.06799 13.773 5.71799 13.623 5.38799ZM11.473 11.299C11.003 11.109 10.493 10.999 9.96299 10.999C9.43299 10.999 8.92299 11.109 8.45299 11.299C8.14299 11.429 7.84299 11.599 7.58299 11.799C7.30299 11.999 7.05299 12.239 6.85299 12.499C6.63299 12.769 6.44299 13.069 6.30299 13.379V13.389C6.15299 13.719 6.05299 14.069 6.00299 14.429C5.97299 14.699 6.16299 14.959 6.43299 14.999C6.70299 15.019 6.96299 14.839 7.00299 14.569C7.02299 14.409 7.06299 14.239 7.11299 14.089C7.21299 13.759 7.37299 13.459 7.58299 13.199C7.78299 12.919 8.04299 12.679 8.33299 12.499C8.80299 12.179 9.37299 11.999 9.96299 11.999C10.563 11.999 11.133 12.179 11.603 12.499C11.893 12.319 12.143 12.079 12.353 11.799C12.083 11.599 11.783 11.429 11.473 11.299ZM13.623 13.389C13.383 13.659 13.113 13.889 12.823 14.089C12.873 14.239 12.913 14.409 12.933 14.569C12.973 14.819 13.183 14.999 13.433 14.999H13.503C13.773 14.959 13.963 14.699 13.923 14.429C13.873 14.069 13.773 13.719 13.623 13.389Z" fill="#5C2E91"/>
<path d="M13.923 2.56799C13.873 2.92799 13.773 3.27799 13.623 3.60799C13.6297 3.60799 13.6297 3.61132 13.623 3.61799C13.483 3.92799 13.303 4.22799 13.083 4.49799C12.873 4.75799 12.623 4.99799 12.353 5.19799C12.083 5.39799 11.783 5.56799 11.473 5.69799C11.003 5.88799 10.493 5.99799 9.963 5.99799C9.433 5.99799 8.923 5.88799 8.453 5.69799C8.823 5.26799 9.373 4.99799 9.963 4.99799C10.563 4.99799 11.133 4.81799 11.603 4.49799C11.893 4.31799 12.143 4.07799 12.353 3.79799C12.563 3.53799 12.713 3.23799 12.823 2.90799C12.873 2.75799 12.913 2.58799 12.933 2.42799C12.973 2.15799 13.233 1.96799 13.503 1.99799C13.773 2.03799 13.963 2.29799 13.923 2.56799ZM7.113 2.90799C7.063 2.75799 7.023 2.58799 7.003 2.42799C6.963 2.15799 6.703 1.96799 6.433 1.99799C6.163 2.03799 5.973 2.29799 6.003 2.56799C6.053 2.92799 6.153 3.27799 6.303 3.60799C6.29633 3.60799 6.29633 3.61132 6.303 3.61799C6.443 3.92799 6.633 4.22799 6.853 4.49799C7.053 4.23799 7.303 3.99799 7.583 3.79799C7.373 3.53799 7.213 3.23799 7.113 2.90799ZM13.503 9.99999C13.233 9.96999 12.973 10.16 12.933 10.43C12.913 10.59 12.873 10.76 12.823 10.91C12.713 11.24 12.563 11.54 12.353 11.8C12.143 12.08 11.893 12.32 11.603 12.5C11.133 12.82 10.563 13 9.963 13C9.373 13 8.823 13.27 8.453 13.7C8.923 13.89 9.433 14 9.963 14C10.493 14 11.003 13.89 11.473 13.7C11.783 13.57 12.083 13.4 12.353 13.2C12.623 13 12.873 12.76 13.083 12.5C13.303 12.23 13.483 11.93 13.623 11.62C13.6297 11.6133 13.6297 11.61 13.623 11.61C13.773 11.28 13.873 10.93 13.923 10.57C13.963 10.3 13.773 10.04 13.503 9.99999ZM7.113 10.91C7.063 10.76 7.023 10.59 7.003 10.43C6.963 10.16 6.703 9.96999 6.433 9.99999C6.163 10.04 5.973 10.3 6.003 10.57C6.053 10.93 6.153 11.28 6.303 11.61C6.29633 11.61 6.29633 11.6133 6.303 11.62C6.443 11.93 6.633 12.23 6.853 12.5C7.053 12.24 7.303 12 7.583 11.8C7.373 11.54 7.213 11.24 7.113 10.91ZM4.853 12.147L2.853 10.147C2.658 9.95199 2.341 9.95199 2.146 10.147C1.951 10.342 1.951 10.659 2.146 10.854L3.292 12H0.5C0.224 12 0 12.224 0 12.5C0 12.776 0.224 13 0.5 13H3.293L2.147 14.146C1.952 14.341 1.952 14.658 2.147 14.853C2.245 14.951 2.373 14.999 2.501 14.999C2.629 14.999 2.757 14.95 2.855 14.853L4.855 12.853C5.05 12.658 5.05 12.341 4.855 12.146L4.853 12.147Z" fill="#006CBF"/>
</svg>
