<svg width="16" height="16" viewBox="0 0 16 16" fill="none" xmlns="http://www.w3.org/2000/svg">
<path d="M13 12H3C2.44772 12 2 12.4477 2 13V14C2 14.5523 2.44772 15 3 15H13C13.5523 15 14 14.5523 14 14V13C14 12.4477 13.5523 12 13 12Z" fill="#B27C00"/>
<path d="M11.379 1C10.689 1 10.013 1.28 9.52499 1.768L5.49999 5.793C5.10999 6.183 5.10999 6.817 5.49999 7.207L5.54299 7.25L2.64699 10.146C2.50399 10.289 2.46099 10.504 2.53899 10.691C2.61699 10.878 2.79899 11 3.00099 11H6.00099C6.13399 11 6.26099 10.947 6.35499 10.854L7.75099 9.458L7.79399 9.501C7.98899 9.696 8.24499 9.793 8.50099 9.793C8.75699 9.793 9.01299 9.695 9.20799 9.501L13.233 5.476C13.728 4.981 14.001 4.323 14.001 3.622C14.001 2.177 12.825 1.001 11.38 1.001L11.379 1ZM5.79299 10H4.20699L6.24999 7.957L7.04299 8.75L5.79299 10ZM12.525 4.768L8.49999 8.793L6.20699 6.5L10.232 2.475C10.534 2.173 10.952 2 11.378 2C12.272 2 12.999 2.727 12.999 3.621C12.999 4.054 12.83 4.461 12.524 4.767L12.525 4.768Z" fill="#202020"/>
</svg>
