<svg width="16" height="16" viewBox="0 0 16 16" fill="none" xmlns="http://www.w3.org/2000/svg">
<path d="M1 1H14C14.552 1 15 1.449 15 2V12.5C15 13.327 14.327 14 13.5 14H7.5C6.673 14 6 13.327 6 12.5V10.998H6.249C6.51684 10.998 6.77164 10.9397 7 10.8325V12.5C7 12.776 7.225 13 7.5 13H13.5C13.775 13 14 12.776 14 12.5V2H7V7.60094L6 6.78286V5H3.82068L2.59831 4H6V2H1V3.01689C0.919855 3.00567 0.838403 3 0.756 3C0.485526 3 0.229084 3.06154 0 3.17137V2C0 1.449 0.448 1 1 1Z" fill="#202020"/>
<path d="M8.5 4H11.5C11.776 4 12 3.776 12 3.5C12 3.224 11.776 3 11.5 3H8.5C8.224 3 8 3.224 8 3.5C8 3.776 8.224 4 8.5 4Z" fill="#202020"/>
<path d="M12.5 6H8.5C8.224 6 8 5.776 8 5.5C8 5.224 8.224 5 8.5 5H12.5C12.776 5 13 5.224 13 5.5C13 5.776 12.776 6 12.5 6Z" fill="#202020"/>
<path d="M11.5 8H8.5C8.224 8 8 7.776 8 7.5C8 7.224 8.224 7 8.5 7H11.5C11.776 7 12 7.224 12 7.5C12 7.776 11.776 8 11.5 8Z" fill="#202020"/>
<path d="M12.5 10H8.5C8.224 10 8 9.776 8 9.5C8 9.224 8.224 9 8.5 9H12.5C12.776 9 13 9.224 13 9.5C13 9.776 12.776 10 12.5 10Z" fill="#202020"/>
<path d="M6.723 8.66801C7.268 9.11401 6.953 9.99901 6.248 9.99901H3.262C3.105 9.99901 2.958 10.072 2.863 10.198L1.348 12.203C0.914 12.777 -0.000999181 12.47 8.19005e-07 11.751L0.00200067 4.75101C0.00200067 4.11801 0.737001 3.77001 1.227 4.17101L6.723 8.66801Z" fill="#006CBF"/>
</svg>
