<svg width="16" height="16" viewBox="0 0 16 16" fill="none" xmlns="http://www.w3.org/2000/svg">
<g clip-path="url(#clip0_7202_69215)">
<path fill-rule="evenodd" clip-rule="evenodd" d="M2 8C2 7.97143 2.0002 7.9429 2.0006 7.91443C2.15953 7.97054 2.32824 8 2.5 8C2.67223 8 2.84141 7.97038 3.00073 7.91396C3.00024 7.94258 3 7.97126 3 8C3 8.7111 3.14845 9.38754 3.41604 10H5.16299C5.05694 9.3725 5 8.69854 5 8C5 7.30146 5.05694 6.6275 5.16299 6H4V5H5.38411C5.49428 4.6038 5.62614 4.23601 5.77705 3.90401C5.8161 3.8181 5.85711 3.73326 5.90006 3.64991L6 3.5V3.46503C6.01241 3.44314 6.02496 3.42139 6.03766 3.39978C6.02508 3.40515 6.01253 3.41057 6 3.41604V2.51893C6.00004 2.51262 6.00004 2.50631 6 2.5V2.34141C6.62556 2.12031 7.29873 2 8 2C11.3137 2 14 4.68629 14 8C14 11.3137 11.3137 14 8 14C4.68629 14 2 11.3137 2 8ZM8 3C8.37372 3 8.87543 3.35608 9.31258 4.31781C9.4073 4.52619 9.49448 4.75446 9.57265 5H6.42735C6.50552 4.75446 6.5927 4.52619 6.68742 4.31781C7.12457 3.35608 7.62628 3 8 3ZM5.38411 11C5.49428 11.3962 5.62614 11.764 5.77705 12.096C5.85596 12.2696 5.94287 12.4388 6.03766 12.6002C5.22525 12.2532 4.52341 11.6973 3.99963 11H5.38411ZM9.57265 11C9.49448 11.2455 9.4073 11.4738 9.31258 11.6822C8.87543 12.6439 8.37372 13 8 13C7.62628 13 7.12457 12.6439 6.68742 11.6822C6.5927 11.4738 6.50552 11.2455 6.42735 11H9.57265ZM6.17866 10C6.06438 9.3892 6 8.71396 6 8C6 7.28604 6.06438 6.6108 6.17866 6H9.82134C9.93562 6.6108 10 7.28604 10 8C10 8.71396 9.93562 9.3892 9.82134 10H6.17866ZM10.6159 11H12.0004C11.4766 11.6973 10.7747 12.2532 9.96234 12.6002C10.0571 12.4388 10.144 12.2696 10.2229 12.096C10.3739 11.764 10.5057 11.3962 10.6159 11ZM12.584 10H10.837C10.9431 9.3725 11 8.69854 11 8C11 7.30146 10.9431 6.6275 10.837 6H12.584C12.8516 6.61246 13 7.2889 13 8C13 8.7111 12.8516 9.38754 12.584 10ZM9.96234 3.39978C10.7747 3.74677 11.4766 4.30269 12.0004 5H10.6159C10.5057 4.6038 10.3739 4.23601 10.2229 3.90401C10.144 3.7304 10.0571 3.56117 9.96234 3.39978Z" fill="#006CBF"/>
<path d="M2.15 0.15L0.149999 2.15C0.102557 2.19512 0.064783 2.24941 0.0389713 2.30958C0.0131596 2.36974 -0.000150681 2.43453 -0.000150681 2.5C-0.000150681 2.56547 0.0131596 2.63026 0.0389713 2.69042C0.064783 2.75059 0.102557 2.80488 0.149999 2.85C0.195117 2.89744 0.249408 2.93522 0.309576 2.96103C0.369743 2.98684 0.434529 3.00015 0.5 3.00015C0.56547 3.00015 0.630256 2.98684 0.690423 2.96103C0.750591 2.93522 0.804882 2.89744 0.85 2.85L2 1.71V6.5C2 6.63261 2.05268 6.75979 2.14645 6.85355C2.24021 6.94732 2.36739 7 2.5 7C2.63261 7 2.75978 6.94732 2.85355 6.85355C2.94732 6.75979 3 6.63261 3 6.5V1.71L4.15 2.85C4.24314 2.94128 4.36855 2.99212 4.49896 2.99146C4.62938 2.9908 4.75426 2.9387 4.84648 2.84648C4.9387 2.75426 4.9908 2.62938 4.99146 2.49896C4.99212 2.36855 4.94128 2.24314 4.85 2.15L2.85 0.15C2.80488 0.102558 2.75059 0.0647836 2.69042 0.0389719C2.63026 0.0131602 2.56547 -0.000149727 2.5 -0.000149727C2.43453 -0.000149727 2.36974 0.0131602 2.30958 0.0389719C2.24941 0.0647836 2.19512 0.102558 2.15 0.15V0.15Z" fill="#006CBF"/>
</g>
<defs>
<clipPath id="clip0_7202_69215">
<rect width="16" height="16" fill="white"/>
</clipPath>
</defs>
</svg>
