<svg width="16" height="16" viewBox="0 0 16 16" fill="none" xmlns="http://www.w3.org/2000/svg">
<path d="M7.41323 10.1203L5.64645 8.35355C5.45118 8.15829 5.45118 7.84171 5.64645 7.64645L8.14645 5.14645C8.34171 4.95118 8.65829 4.95118 8.85355 5.14645C9.04882 5.34171 9.04882 5.65829 8.85355 5.85355L7.20711 7.5H12C12.2761 7.5 12.5 7.72386 12.5 8C12.5 8.27614 12.2761 8.5 12 8.5H7.20711L8.85355 10.1464C9.04882 10.3417 9.04882 10.6583 8.85355 10.8536C8.84362 10.8635 8.83336 10.8729 8.82283 10.8818C8.42391 10.5277 7.94349 10.2633 7.41323 10.1203Z" fill="#006CBF"/>
<path d="M3.34141 10H2.5C2.43007 10 2.36061 10.0021 2.2917 10.0061C2.10193 9.3706 2 8.6972 2 8C2 4.13401 5.13401 1 9 1C12.866 1 16 4.13401 16 8C16 11.6371 13.2261 14.6264 9.67839 14.9675C9.82867 14.6426 9.93059 14.2908 9.97491 13.9212C12.825 13.4555 15 10.9818 15 8C15 4.68629 12.3137 2 9 2C5.68629 2 3 4.68629 3 8C3 8.70127 3.12031 9.37444 3.34141 10Z" fill="#006CBF"/>
<path d="M2.5 11C1.11929 11 0 12.1193 0 13.5C0 14.8807 1.11929 16 2.5 16H3C3.27614 16 3.5 15.7761 3.5 15.5C3.5 15.2239 3.27614 15 3 15H2.5C1.67157 15 1 14.3284 1 13.5C1 12.6716 1.67157 12 2.5 12H3C3.27614 12 3.5 11.7761 3.5 11.5C3.5 11.2239 3.27614 11 3 11H2.5Z" fill="#006CBF"/>
<path d="M6 11C5.72386 11 5.5 11.2239 5.5 11.5C5.5 11.7761 5.72386 12 6 12H6.5C7.32843 12 8 12.6716 8 13.5C8 14.3284 7.32843 15 6.5 15H6C5.72386 15 5.5 15.2239 5.5 15.5C5.5 15.7761 5.72386 16 6 16H6.5C7.88071 16 9 14.8807 9 13.5C9 12.1193 7.88071 11 6.5 11H6Z" fill="#006CBF"/>
<path d="M2.5 13C2.22386 13 2 13.2239 2 13.5C2 13.7761 2.22386 14 2.5 14H6.5C6.77614 14 7 13.7761 7 13.5C7 13.2239 6.77614 13 6.5 13H2.5Z" fill="#006CBF"/>
</svg>
