<svg width="16" height="16" viewBox="0 0 16 16" fill="none" xmlns="http://www.w3.org/2000/svg">
<path d="M12.3536 8.35355L9.85355 10.8536C9.65829 11.0488 9.34171 11.0488 9.14645 10.8536C8.95118 10.6583 8.95118 10.3417 9.14645 10.1464L10.7929 8.5H6C5.72386 8.5 5.5 8.27614 5.5 8C5.5 7.72386 5.72386 7.5 6 7.5H10.7929L9.14645 5.85355C8.95118 5.65829 8.95118 5.34171 9.14645 5.14645C9.34171 4.95118 9.65829 4.95118 9.85355 5.14645L12.3536 7.64645C12.5488 7.84171 12.5488 8.15829 12.3536 8.35355Z" fill="#006CBF"/>
<path d="M9.67839 14.9675C13.2261 14.6264 16 11.6371 16 8C16 4.13401 12.866 1 9 1C5.13401 1 2 4.13401 2 8C2 8.6972 2.10193 9.3706 2.2917 10.0061C2.36061 10.0021 2.43007 10 2.5 10H3.34141C3.12031 9.37444 3 8.70127 3 8C3 4.68629 5.68629 2 9 2C12.3137 2 15 4.68629 15 8C15 10.9818 12.825 13.4555 9.97491 13.9212C9.93059 14.2908 9.82867 14.6426 9.67839 14.9675Z" fill="#006CBF"/>
<path d="M2.5 11C1.11929 11 0 12.1193 0 13.5C0 14.8807 1.11929 16 2.5 16H3C3.27614 16 3.5 15.7761 3.5 15.5C3.5 15.2239 3.27614 15 3 15H2.5C1.67157 15 1 14.3284 1 13.5C1 12.6716 1.67157 12 2.5 12H3C3.27614 12 3.5 11.7761 3.5 11.5C3.5 11.2239 3.27614 11 3 11H2.5Z" fill="#006CBF"/>
<path d="M6 11C5.72386 11 5.5 11.2239 5.5 11.5C5.5 11.7761 5.72386 12 6 12H6.5C7.32843 12 8 12.6716 8 13.5C8 14.3284 7.32843 15 6.5 15H6C5.72386 15 5.5 15.2239 5.5 15.5C5.5 15.7761 5.72386 16 6 16H6.5C7.88071 16 9 14.8807 9 13.5C9 12.1193 7.88071 11 6.5 11H6Z" fill="#006CBF"/>
<path d="M2.5 13C2.22386 13 2 13.2239 2 13.5C2 13.7761 2.22386 14 2.5 14H6.5C6.77614 14 7 13.7761 7 13.5C7 13.2239 6.77614 13 6.5 13H2.5Z" fill="#006CBF"/>
</svg>
