<svg width="16" height="16" viewBox="0 0 16 16" fill="none" xmlns="http://www.w3.org/2000/svg">
<path d="M11.687 7.99881C11.605 7.99881 11.521 7.98881 11.438 7.96881L8.275 7.17781C7.727 7.03981 7.394 6.48381 7.531 5.93681L8.322 2.77381C8.461 2.22581 9.019 1.89581 9.563 2.02981L12.726 2.82081C13.274 2.95881 13.607 3.51481 13.47 4.06081L12.679 7.22481C12.562 7.68981 12.144 7.99881 11.687 7.99881ZM9.32 2.99981L8.502 6.17981L11.682 6.99781L12.5 3.81781C12.503 3.80481 12.496 3.79381 12.483 3.79081L9.32 2.99981ZM4.501 12.2488C4.247 12.2488 3.994 12.1518 3.801 11.9588L2.041 10.1988C1.655 9.81281 1.655 9.18381 2.041 8.79881L3.801 7.03881C4.188 6.65181 4.815 6.65181 5.201 7.03881L6.961 8.79881C7.347 9.18481 7.347 9.81381 6.961 10.1988L5.201 11.9588C5.008 12.1518 4.755 12.2488 4.501 12.2488ZM4.494 7.74581L2.748 9.50581L4.508 11.2518L6.247 9.49881L4.494 7.74581ZM10.316 14.8668C10.164 14.8668 10.011 14.8318 9.871 14.7608C9.633 14.6418 9.454 14.4368 9.369 14.1828L8.685 12.1318C8.6 11.8778 8.62 11.6068 8.74 11.3678C8.859 11.1298 9.064 10.9508 9.318 10.8658L11.369 10.1818C11.621 10.0988 11.893 10.1148 12.133 10.2368C12.371 10.3558 12.55 10.5608 12.635 10.8148L13.319 12.8658C13.404 13.1198 13.384 13.3908 13.264 13.6298C13.145 13.8678 12.94 14.0468 12.686 14.1318L10.635 14.8158C10.531 14.8498 10.424 14.8678 10.317 14.8678L10.316 14.8668ZM11.685 11.1318L9.634 11.8158L10.318 13.8668L12.369 13.1828L11.684 11.1318H11.685Z" fill="#006CBF"/>
</svg>
