<svg width="16" height="16" viewBox="0 0 16 16" fill="none" xmlns="http://www.w3.org/2000/svg">
<path d="M12.561 4.35398L9.647 1.43998C9.368 1.16098 8.981 1.00098 8.586 1.00098H5C3.897 1.00098 3 1.89798 3 3.00098V13.001C3 14.104 3.897 15.001 5 15.001H11C12.103 15.001 13 14.104 13 13.001V5.41498C13 5.01498 12.844 4.63798 12.561 4.35398ZM12 13C12 13.551 11.552 14 11 14H5C4.448 14 4 13.551 4 13V2.99998C4 2.44898 4.448 1.99998 5 1.99998H8.586C8.718 1.99998 8.847 2.05298 8.94 2.14598L11.854 5.05998C11.947 5.15298 12 5.28198 12 5.41398V13Z" fill="#202020"/>
<path d="M5.5 7C5.77614 7 6 6.77614 6 6.5C6 6.22386 5.77614 6 5.5 6C5.22386 6 5 6.22386 5 6.5C5 6.77614 5.22386 7 5.5 7Z" fill="#202020"/>
<path d="M7.5 7C7.77614 7 8 6.77614 8 6.5C8 6.22386 7.77614 6 7.5 6C7.22386 6 7 6.22386 7 6.5C7 6.77614 7.22386 7 7.5 7Z" fill="#202020"/>
<path d="M9.5 7C9.77614 7 10 6.77614 10 6.5C10 6.22386 9.77614 6 9.5 6C9.22386 6 9 6.22386 9 6.5C9 6.77614 9.22386 7 9.5 7Z" fill="#202020"/>
<path d="M10.5 13C10.7761 13 11 12.7761 11 12.5C11 12.2239 10.7761 12 10.5 12C10.2239 12 10 12.2239 10 12.5C10 12.7761 10.2239 13 10.5 13Z" fill="#202020"/>
<path d="M10.5 11C10.7761 11 11 10.7761 11 10.5C11 10.2239 10.7761 10 10.5 10C10.2239 10 10 10.2239 10 10.5C10 10.7761 10.2239 11 10.5 11Z" fill="#202020"/>
<path d="M10.5 9C10.7761 9 11 8.77614 11 8.5C11 8.22386 10.7761 8 10.5 8C10.2239 8 10 8.22386 10 8.5C10 8.77614 10.2239 9 10.5 9Z" fill="#202020"/>
<path d="M9.1408 9.991L8.3318 10.78L8.5228 11.894C8.5728 12.188 8.26481 12.412 8.00081 12.274L6.9998 11.748L5.9988 12.274C5.7348 12.413 5.42581 12.188 5.47681 11.894L5.66781 10.78L4.85881 9.991C4.64481 9.782 4.7628 9.42 5.0588 9.377L6.1768 9.214L6.6768 8.201C6.8088 7.933 7.1908 7.933 7.3228 8.201L7.8228 9.214L8.9408 9.377C9.2368 9.42 9.3548 9.783 9.1408 9.991Z" fill="#202020"/>
</svg>
