<svg width="16" height="16" viewBox="0 0 16 16" fill="none" xmlns="http://www.w3.org/2000/svg">
<g clip-path="url(#clip0_7202_69266)">
<path d="M2.24895 2C1.55917 2 1 2.55938 1 3.24941V6.26918C1.30371 6.09373 1.64829 6.0012 1.99916 6.00098V3.24941C1.99916 3.11141 2.11099 2.99953 2.24895 2.99953H2.74852C2.88648 2.99953 2.99831 3.11141 2.99831 3.24941V6.00098H3.99747V3.24941C3.99747 2.55938 3.4383 2 2.74852 2H2.24895Z" fill="#202020"/>
<path d="M7.9941 6.26553V3.24941C7.9941 2.55938 7.43492 2 6.74515 2H6.24557C5.5558 2 4.99663 2.55938 4.99663 3.24941V6.00098H5.99578V3.24941C5.99578 3.11141 6.10762 2.99953 6.24557 2.99953H6.74515C6.88311 2.99953 6.99494 3.11141 6.99494 3.24941V6.00098H7C7.35181 6.00098 7.69405 6.09367 7.9941 6.26553Z" fill="#202020"/>
<path fill-rule="evenodd" clip-rule="evenodd" d="M10.4011 4.06385C11.0311 3.84331 11.7231 4.15733 11.9723 4.77682L14.9093 12.0802C15.1752 12.7412 14.8355 13.4904 14.1632 13.7258L13.581 13.9296C12.9509 14.1502 12.2589 13.8361 12.0098 13.2166L9.07268 5.91326C8.80684 5.25222 9.14658 4.50297 9.81888 4.26764L10.4011 4.06385ZM11.0453 5.14988C10.9955 5.02598 10.8571 4.96318 10.7311 5.00729L10.1489 5.21108C10.0144 5.25815 9.94647 5.40799 9.99964 5.5402L12.9367 12.8436C12.9865 12.9675 13.1249 13.0303 13.251 12.9862L13.8332 12.7823C13.9676 12.7353 14.0356 12.5854 13.9824 12.4532L11.0453 5.14988Z" fill="#202020"/>
<path d="M7 7.00098H2C1.73478 7.00098 1.48043 7.10633 1.29289 7.29387C1.10536 7.48141 1 7.73576 1 8.00098H0.5C0.367392 8.00098 0.240215 8.05366 0.146447 8.14742C0.0526784 8.24119 0 8.36837 0 8.50098C0 8.63358 0.0526784 8.76076 0.146447 8.85453C0.240215 8.9483 0.367392 9.00098 0.5 9.00098H1V10.001H0.5C0.367392 10.001 0.240215 10.0537 0.146447 10.1474C0.0526784 10.2412 0 10.3684 0 10.501C0 10.6336 0.0526784 10.7608 0.146447 10.8545C0.240215 10.9483 0.367392 11.001 0.5 11.001H1V12.001H0.5C0.367392 12.001 0.240215 12.0537 0.146447 12.1474C0.0526784 12.2412 0 12.3684 0 12.501C0 12.6336 0.0526784 12.7608 0.146447 12.8545C0.240215 12.9483 0.367392 13.001 0.5 13.001H1V14.001H0.5C0.367392 14.001 0.240215 14.0537 0.146447 14.1474C0.0526784 14.2412 0 14.3684 0 14.501C0 14.6336 0.0526784 14.7608 0.146447 14.8545C0.240215 14.9483 0.367392 15.001 0.5 15.001H1C1 15.2662 1.10536 15.5205 1.29289 15.7081C1.48043 15.8956 1.73478 16.001 2 16.001H7C7.26522 16.001 7.51957 15.8956 7.70711 15.7081C7.89464 15.5205 8 15.2662 8 15.001V8.00098C8 7.73576 7.89464 7.48141 7.70711 7.29387C7.51957 7.10633 7.26522 7.00098 7 7.00098ZM6 10.001H3C2.86739 10.001 2.74021 9.9483 2.64645 9.85453C2.55268 9.76076 2.5 9.63358 2.5 9.50098C2.5 9.36837 2.55268 9.24119 2.64645 9.14742C2.74021 9.05365 2.86739 9.00098 3 9.00098H6C6.13261 9.00098 6.25979 9.05365 6.35355 9.14742C6.44732 9.24119 6.5 9.36837 6.5 9.50098C6.5 9.63358 6.44732 9.76076 6.35355 9.85453C6.25979 9.9483 6.13261 10.001 6 10.001Z" fill="#202020"/>
</g>
<defs>
<clipPath id="clip0_7202_69266">
<rect width="16" height="16" fill="white"/>
</clipPath>
</defs>
</svg>
