<svg width="16" height="16" viewBox="0 0 16 16" fill="none" xmlns="http://www.w3.org/2000/svg">
<g clip-path="url(#clip0_7202_69276)">
<path d="M15 8.448C15.0017 7.38077 14.7304 6.33084 14.212 5.398C16.351 0.556999 11.92 1.266 11.673 1.315C10.7721 1.49139 9.89626 1.77752 9.06499 2.167C8.94699 2.16 8.82799 2.157 8.70899 2.157C7.28552 2.15702 5.90409 2.63958 4.79021 3.52589C3.67633 4.4122 2.89579 5.64991 2.57599 7.037C3.48323 5.89155 4.62074 4.94925 5.91499 4.271C5.80999 4.365 5.70599 4.46 5.60499 4.556L5.50499 4.656L5.30499 4.85L5.19099 4.967C5.13299 5.026 5.07499 5.085 5.01899 5.144C4.97799 5.186 4.93899 5.228 4.89999 5.27L4.74299 5.44L4.62499 5.572L4.47999 5.737L4.36199 5.874L4.22799 6.034L4.11199 6.176L3.98999 6.329L3.87399 6.476C3.83699 6.523 3.80199 6.57 3.76599 6.617L3.64599 6.775C3.61799 6.813 3.59199 6.85 3.56399 6.887C3.31499 7.227 3.08799 7.559 2.88299 7.879C2.82899 7.963 2.77699 8.046 2.72599 8.128L2.71699 8.142C2.66599 8.224 2.61699 8.305 2.56899 8.386L2.56299 8.394C2.43399 8.61 2.31399 8.818 2.20599 9.014C1.87906 9.58818 1.59366 10.185 1.35199 10.8C-0.438006 17.2 5.15199 14.5 5.92599 14.092C6.72263 14.4845 7.59332 14.704 8.48083 14.736C9.36834 14.7681 10.2526 14.6119 11.0754 14.2778C11.8983 13.9438 12.6411 13.4393 13.2551 12.7977C13.8692 12.1561 14.3404 11.3918 14.638 10.555H11.332C11.0693 10.9839 10.6996 11.337 10.2592 11.5798C9.81883 11.8227 9.32285 11.9468 8.81999 11.94C8.08393 11.9643 7.3683 11.6955 6.83021 11.1927C6.29213 10.6898 5.97556 9.99402 5.94999 9.258H14.95C14.9839 8.98934 15.0006 8.71879 15 8.448V8.448ZM2.31099 14.078C1.86999 13.626 1.79199 12.524 2.76599 10.515C3.25524 11.9193 4.22547 13.1052 5.50499 13.863C4.87499 14.21 3.19999 14.991 2.31099 14.078ZM5.93599 7.538C5.9823 6.82193 6.30439 6.15169 6.83456 5.66815C7.36473 5.1846 8.0617 4.92539 8.77899 4.945C9.49616 4.92589 10.1928 5.18527 10.7229 5.66872C11.253 6.15217 11.5752 6.82211 11.622 7.538H5.93599ZM10.982 2.581C11.564 2.299 13.006 1.705 13.825 2.257C14.366 2.623 14.801 3.197 14.055 5.131C13.3336 3.97084 12.2553 3.07605 10.982 2.581V2.581Z" fill="#1EBBEE"/>
</g>
<defs>
<clipPath id="clip0_7202_69276">
<rect width="16" height="16" fill="white"/>
</clipPath>
</defs>
</svg>
