<svg width="16" height="16" viewBox="0 0 16 16" fill="none" xmlns="http://www.w3.org/2000/svg">
<g clip-path="url(#clip0_7202_69284)">
<path d="M6.022 1V5.7C6.3471 5.55908 6.68116 5.43982 7.022 5.343V2H14.022V12H10.917L10.766 12.461C10.6952 12.6451 10.6141 12.825 10.523 13H11.023V14H10.023V13.828C9.69874 14.2574 9.30458 14.6293 8.857 14.928C8.819 14.954 8.776 14.972 8.737 14.996H15.023V1H6.022ZM14.022 14H13.022V13H14.022V14Z" fill="#424242"/>
<path fill-rule="evenodd" clip-rule="evenodd" d="M9.55701 8.826C10 7.812 10.032 6.957 9.52401 6.449C8.96501 5.883 7.59401 6.049 6.17201 6.724C5.21803 6.67367 4.27684 6.96117 3.51383 7.53599C2.75082 8.11081 2.21481 8.93616 2.00001 9.867C2.51926 9.23289 3.13878 8.68802 3.83401 8.254C3.85301 8.244 4.07901 8.126 4.09801 8.121C4.08201 8.135 3.63701 8.545 3.55801 8.621C1.56601 10.637 0.40001 13.715 1.30001 14.633C1.89001 15.221 2.96801 15.074 4.21601 14.402C4.77436 14.6561 5.38159 14.7848 5.99501 14.779C6.8136 14.7857 7.61578 14.5494 8.30001 14.1C9.00824 13.6198 9.54325 12.9246 9.82601 12.117H7.62601C7.46004 12.3974 7.2233 12.6292 6.9395 12.7893C6.6557 12.9494 6.33482 13.032 6.00901 13.029C5.55167 13.0306 5.11171 12.8539 4.78241 12.5366C4.4531 12.2192 4.26035 11.7861 4.24501 11.329V11.292V11.249H9.98601C9.98601 11.221 9.98601 11.19 9.99401 11.159C10.008 11.019 10.022 10.859 10.022 10.735C10.0273 10.07 9.86749 9.41409 9.55701 8.826V8.826ZM1.92401 14.463C1.48101 14.022 1.60401 13.143 2.15801 12.086C2.39991 12.7786 2.82042 13.3951 3.37701 13.873C3.5512 14.0203 3.73867 14.1512 3.93701 14.264C3.03001 14.732 2.30001 14.838 1.92401 14.463ZM4.24301 10.174V10.133C4.2907 9.68327 4.50412 9.26741 4.84169 8.96645C5.17925 8.66549 5.61678 8.50099 6.06901 8.505C6.50577 8.50744 6.92484 8.67788 7.23931 8.98099C7.55378 9.2841 7.73952 9.69662 7.75801 10.133V10.174H4.24301ZM9.43001 8.605C9.25022 8.3151 9.03301 8.05016 8.78401 7.817C8.39143 7.4533 7.93145 7.16997 7.43001 6.983C8.33801 6.57 9.08301 6.514 9.47701 6.909C9.80701 7.238 9.76601 7.845 9.43001 8.604V8.605Z" fill="#00BCF2"/>
<path d="M13.022 13H14.022V14H13.022V13ZM10.022 13.828V14H11.022V13H10.522C10.3824 13.2914 10.2149 13.5687 10.022 13.828V13.828ZM7.022 2V5.338C7.36095 5.24028 7.70802 5.17334 8.059 5.138C8.19409 5.10457 8.33147 5.08117 8.47 5.068C8.79321 5.05183 9.11629 5.10205 9.41934 5.21557C9.72238 5.32908 9.99896 5.50348 10.232 5.728C10.4746 5.98205 10.6586 6.28609 10.7713 6.6188C10.8839 6.95152 10.9224 7.30484 10.884 7.654C10.8554 8.04094 10.774 8.42215 10.642 8.787C10.8934 9.38418 11.0213 10.0261 11.018 10.674V10.76C11.018 10.812 11.013 10.86 11.01 10.904C11.01 10.977 11.005 11.045 10.999 11.121L10.917 12H14.022V2H7.022Z" fill="#F0EFF1"/>
</g>
<defs>
<clipPath id="clip0_7202_69284">
<rect width="16" height="16" fill="white"/>
</clipPath>
</defs>
</svg>
