<svg width="16" height="16" viewBox="0 0 16 16" fill="none" xmlns="http://www.w3.org/2000/svg">
<g clip-path="url(#clip0_7202_69325)">
<path d="M6.5 2.5C6.5 2.776 6.276 3 6 3H3.5C3.225 3 3 3.225 3 3.5V6.293L3.646 5.647C3.841 5.452 4.158 5.452 4.353 5.647C4.548 5.842 4.548 6.159 4.353 6.354L2.853 7.854C2.755 7.952 2.627 8 2.499 8C2.371 8 2.243 7.951 2.145 7.854L0.644999 6.354C0.449999 6.159 0.449999 5.842 0.644999 5.647C0.839999 5.452 1.157 5.452 1.352 5.647L1.998 6.293V3.5C1.998 2.673 2.671 2 3.498 2H5.998C6.274 2 6.498 2.224 6.498 2.5H6.5ZM3.646 13.646L3 14.292V11.499C3 11.223 2.776 10.999 2.5 10.999C2.224 10.999 2 11.223 2 11.499V14.292L1.354 13.646C1.159 13.451 0.841999 13.451 0.646999 13.646C0.451999 13.841 0.451999 14.158 0.646999 14.353L2.147 15.853C2.245 15.951 2.373 15.999 2.501 15.999C2.629 15.999 2.757 15.95 2.855 15.853L4.355 14.353C4.55 14.158 4.55 13.841 4.355 13.646C4.16 13.451 3.843 13.451 3.648 13.646H3.646ZM13 3.5V6.293L12.354 5.647C12.159 5.452 11.842 5.452 11.647 5.647C11.452 5.842 11.452 6.159 11.647 6.354L13.147 7.854C13.245 7.952 13.373 8 13.501 8C13.629 8 13.757 7.951 13.855 7.854L15.355 6.354C15.55 6.159 15.55 5.842 15.355 5.647C15.16 5.452 14.843 5.452 14.648 5.647L14.002 6.293V3.5C14.002 2.673 13.329 2 12.502 2H10.002C9.726 2 9.502 2.224 9.502 2.5C9.502 2.776 9.726 3 10.002 3H12.502C12.777 3 13.002 3.225 13.002 3.5H13ZM14.646 13.646L14 14.292V11.499C14 11.223 13.776 10.999 13.5 10.999C13.224 10.999 13 11.223 13 11.499V14.292L12.354 13.646C12.159 13.451 11.842 13.451 11.647 13.646C11.452 13.841 11.452 14.158 11.647 14.353L13.147 15.853C13.245 15.951 13.373 15.999 13.501 15.999C13.629 15.999 13.757 15.95 13.855 15.853L15.355 14.353C15.55 14.158 15.55 13.841 15.355 13.646C15.16 13.451 14.843 13.451 14.648 13.646H14.646Z" fill="#006CBF"/>
<path d="M3.75 12.0002H1.25C0.561 12.0002 0 11.4392 0 10.7502V8.50025C0 8.22425 0.224 8.00025 0.5 8.00025C0.776 8.00025 1 8.22425 1 8.50025V10.7502C1 10.8882 1.112 11.0002 1.25 11.0002H3.75C3.888 11.0002 4 10.8882 4 10.7502V8.50025C4 8.22425 4.224 8.00025 4.5 8.00025C4.776 8.00025 5 8.22425 5 8.50025V10.7502C5 11.4392 4.439 12.0002 3.75 12.0002ZM16 10.7502V8.50025C16 8.22425 15.776 8.00025 15.5 8.00025C15.224 8.00025 15 8.22425 15 8.50025V10.7502C15 10.8882 14.888 11.0002 14.75 11.0002H12.25C12.112 11.0002 12 10.8882 12 10.7502V8.50025C12 8.22425 11.776 8.00025 11.5 8.00025C11.224 8.00025 11 8.22425 11 8.50025V10.7502C11 11.4392 11.561 12.0002 12.25 12.0002H14.75C15.439 12.0002 16 11.4392 16 10.7502ZM8.354 4.85425L10.354 2.85425C10.549 2.65925 10.549 2.34225 10.354 2.14725L8.354 0.14625C8.159 -0.04875 7.842 -0.04875 7.647 0.14625L5.647 2.14625C5.452 2.34125 5.452 2.65825 5.647 2.85325L7.647 4.85325C7.745 4.95125 7.873 4.99925 8.001 4.99925C8.129 4.99925 8.257 4.95025 8.355 4.85325L8.354 4.85425ZM8 1.20825L9.293 2.50125L8 3.79425L6.707 2.50125L8 1.20825Z" fill="#202020"/>
</g>
<defs>
<clipPath id="clip0_7202_69325">
<rect width="16" height="16" fill="white"/>
</clipPath>
</defs>
</svg>
