<svg width="16" height="16" viewBox="0 0 16 16" fill="none" xmlns="http://www.w3.org/2000/svg">
<path fill-rule="evenodd" clip-rule="evenodd" d="M7.5 7C7.77614 7 8 7.22386 8 7.5V11.5C8 11.7761 7.77614 12 7.5 12H4.5C4.22386 12 4 11.7761 4 11.5V7.5C4 7.22386 4.22386 7 4.5 7H7.5ZM7 11V8H5V11H7Z" fill="#202020"/>
<path d="M12 7.5C12 7.22386 11.7761 7 11.5 7H9.5C9.22386 7 9 7.22386 9 7.5C9 7.77614 9.22386 8 9.5 8H11.5C11.7761 8 12 7.77614 12 7.5Z" fill="#202020"/>
<path d="M11.5 9C11.7761 9 12 9.22386 12 9.5C12 9.77614 11.7761 10 11.5 10H9.5C9.22386 10 9 9.77614 9 9.5C9 9.22386 9.22386 9 9.5 9H11.5Z" fill="#202020"/>
<path fill-rule="evenodd" clip-rule="evenodd" d="M13.2678 2.73223C12.7989 2.26339 12.163 2 11.5 2H4.5C3.83696 2 3.20107 2.26339 2.73223 2.73223C2.26339 3.20107 2 3.83696 2 4.5V11.5C2 12.163 2.26339 12.7989 2.73223 13.2678C3.20107 13.7366 3.83696 14 4.5 14H11.5C12.163 14 12.7989 13.7366 13.2678 13.2678C13.7366 12.7989 14 12.163 14 11.5V4.5C14 3.83696 13.7366 3.20107 13.2678 2.73223ZM13 5H3V4.5C3 4.10218 3.15804 3.72064 3.43934 3.43934C3.72064 3.15804 4.10218 3 4.5 3H11.5C11.8978 3 12.2794 3.15804 12.5607 3.43934C12.842 3.72064 13 4.10218 13 4.5V5ZM3 6H13V11.5C13 11.8978 12.842 12.2794 12.5607 12.5607C12.2794 12.842 11.8978 13 11.5 13H4.5C4.10218 13 3.72064 12.842 3.43934 12.5607C3.15804 12.2794 3 11.8978 3 11.5V6Z" fill="#202020"/>
<path d="M11.5 11C11.7761 11 12 11.2239 12 11.5C12 11.7761 11.7761 12 11.5 12H9.5C9.22386 12 9 11.7761 9 11.5C9 11.2239 9.22386 11 9.5 11H11.5Z" fill="#202020"/>
</svg>
