<svg width="16" height="16" viewBox="0 0 16 16" fill="none" xmlns="http://www.w3.org/2000/svg">
<path d="M14.5 8H1.5C1.224 8 1 7.776 1 7.5C1 7.224 1.224 7 1.5 7H14.5C14.776 7 15 7.224 15 7.5C15 7.776 14.776 8 14.5 8ZM8.354 5.854L11.354 2.854C11.497 2.711 11.54 2.496 11.462 2.309C11.384 2.122 11.202 2 11 2H5C4.798 2 4.615 2.122 4.538 2.309C4.461 2.496 4.504 2.711 4.646 2.854L7.646 5.854C7.744 5.952 7.872 6 8 6C8.128 6 8.256 5.951 8.354 5.854ZM9.793 3L8 4.793L6.207 3H9.793ZM11.462 12.691C11.539 12.504 11.496 12.289 11.354 12.146L8.354 9.146C8.159 8.951 7.842 8.951 7.647 9.146L4.647 12.146C4.504 12.289 4.461 12.504 4.539 12.691C4.617 12.878 4.799 13 5.001 13H11.001C11.203 13 11.386 12.878 11.463 12.691H11.462ZM8 10.207L9.793 12H6.207L8 10.207Z" fill="#202020"/>
</svg>
