<svg width="16" height="16" viewBox="0 0 16 16" fill="none" xmlns="http://www.w3.org/2000/svg">
<path d="M10 7C10.5523 7 11 6.55228 11 6C11 5.44772 10.5523 5 10 5C9.44772 5 9 5.44772 9 6C9 6.55228 9.44772 7 10 7Z" fill="#B27C00"/>
<path d="M12.5 13C12.372 13 12.244 12.951 12.146 12.854L8.50001 9.208C8.23201 8.94 7.76801 8.94 7.50001 9.208L3.85401 12.854C3.65901 13.049 3.34201 13.049 3.14701 12.854C2.95201 12.659 2.95201 12.342 3.14701 12.147L6.79301 8.501C7.43801 7.856 8.56301 7.856 9.20701 8.501L12.853 12.147C13.048 12.342 13.048 12.659 12.853 12.854C12.755 12.952 12.627 13 12.499 13H12.5Z" fill="#006CBF"/>
<path d="M14 1H2C1.449 1 1 1.448 1 2V14C1 14.552 1.449 15 2 15H14C14.551 15 15 14.552 15 14V2C15 1.448 14.551 1 14 1ZM2 2.707L3 3.707V12.293L2 13.293V2.707ZM4 4H12V12H4V4ZM12.293 3H3.707L2.707 2H13.293L12.293 3ZM3.707 13H12.293L13.293 14H2.707L3.707 13ZM13 12.293V3.707L14 2.707V13.293L13 12.293Z" fill="#202020"/>
</svg>
