<svg width="16" height="16" viewBox="0 0 16 16" fill="none" xmlns="http://www.w3.org/2000/svg">
<path d="M11.5 5.502C11.5 6.055 11.051 6.504 10.498 6.504C9.945 6.504 9.496 6.055 9.496 5.502C9.496 4.949 9.945 4.5 10.498 4.5C11.051 4.5 11.5 4.949 11.5 5.502Z" fill="#B27C00"/>
<path d="M12.5 13C12.372 13 12.244 12.951 12.146 12.854L8.50001 9.208C8.23201 8.94 7.76801 8.94 7.50001 9.208L3.85401 12.854C3.65901 13.049 3.34201 13.049 3.14701 12.854C2.95201 12.659 2.95201 12.342 3.14701 12.147L6.79301 8.501C7.43801 7.856 8.56301 7.856 9.20701 8.501L12.853 12.147C13.048 12.342 13.048 12.659 12.853 12.854C12.755 12.952 12.627 13 12.499 13H12.5Z" fill="#006CBF"/>
<path d="M11.5 14H4.5C3.121 14 2 12.879 2 11.5V4.5C2 3.121 3.121 2 4.5 2H11.5C12.879 2 14 3.121 14 4.5V11.5C14 12.879 12.879 14 11.5 14ZM4.5 3C3.673 3 3 3.673 3 4.5V11.5C3 12.327 3.673 13 4.5 13H11.5C12.327 13 13 12.327 13 11.5V4.5C13 3.673 12.327 3 11.5 3H4.5Z" fill="#202020"/>
</svg>
