<svg width="16" height="16" viewBox="0 0 16 16" fill="none" xmlns="http://www.w3.org/2000/svg">
<path d="M11 4H9V6H11V4Z" fill="#B27C00"/>
<path d="M7 7H9V9H7V7Z" fill="#006CBF"/>
<path d="M5 11V9H7V11H5Z" fill="#006CBF"/>
<path d="M5 11V13H3V11H5Z" fill="#006CBF"/>
<path d="M11 11V9H9V11H11Z" fill="#006CBF"/>
<path d="M11 11V13H13V11H11Z" fill="#006CBF"/>
<path d="M11.5 14H4.5C3.121 14 2 12.879 2 11.5V4.5C2 3.121 3.121 2 4.5 2H11.5C12.879 2 14 3.121 14 4.5V11.5C14 12.879 12.879 14 11.5 14ZM4.5 3C3.673 3 3 3.673 3 4.5V11.5C3 12.327 3.673 13 4.5 13H11.5C12.327 13 13 12.327 13 11.5V4.5C13 3.673 12.327 3 11.5 3H4.5Z" fill="#202020"/>
</svg>
