<svg width="16" height="16" viewBox="0 0 16 16" fill="none" xmlns="http://www.w3.org/2000/svg">
<path d="M11 7C11.5523 7 12 6.55228 12 6C12 5.44772 11.5523 5 11 5C10.4477 5 10 5.44772 10 6C10 6.55228 10.4477 7 11 7Z" fill="#B27C00"/>
<path d="M12.5 12.983C12.372 12.983 12.244 12.934 12.146 12.837L8.50001 9.191C8.23201 8.923 7.76801 8.923 7.50001 9.191L3.85401 12.837C3.65901 13.032 3.34201 13.032 3.14701 12.837C2.95201 12.642 2.95201 12.325 3.14701 12.13L6.79301 8.484C7.43801 7.839 8.56301 7.839 9.20701 8.484L12.853 12.13C13.048 12.325 13.048 12.642 12.853 12.837C12.755 12.935 12.627 12.983 12.499 12.983H12.5Z" fill="#006CBF"/>
<path d="M1 5.5C1 4.119 2.119 3 3.5 3H12.5C13.881 3 15 4.119 15 5.5V10.5C15 11.881 13.881 13 12.5 13H3.5C2.119 13 1 11.881 1 10.5V5.5ZM3.5 4C2.672 4 2 4.672 2 5.5V10.5C2 11.328 2.672 12 3.5 12H12.5C13.328 12 14 11.328 14 10.5V5.5C14 4.672 13.328 4 12.5 4H3.5Z" fill="#202020"/>
</svg>
