<svg width="16" height="16" viewBox="0 0 16 16" fill="none" xmlns="http://www.w3.org/2000/svg">
<path d="M9 8C9.55228 8 10 7.55228 10 7C10 6.44772 9.55228 6 9 6C8.44772 6 8 6.44772 8 7C8 7.55228 8.44772 8 9 8Z" fill="#B27C00"/>
<path d="M10.655 13.138C10.527 13.138 10.399 13.089 10.301 12.992L7.5 10.191C7.232 9.923 6.768 9.923 6.5 10.191L3.699 12.992C3.504 13.187 3.187 13.187 2.992 12.992C2.797 12.797 2.797 12.48 2.992 12.285L5.793 9.484C6.438 8.839 7.563 8.839 8.207 9.484L11.008 12.285C11.203 12.48 11.203 12.797 11.008 12.992C10.91 13.09 10.783 13.138 10.655 13.138Z" fill="#006CBF"/>
<path d="M9.5 14H4.5C3.121 14 2 12.879 2 11.5V6.5C2 5.121 3.121 4 4.5 4H9.5C10.879 4 12 5.121 12 6.5V11.5C12 12.879 10.879 14 9.5 14ZM4.5 5C3.673 5 3 5.673 3 6.5V11.5C3 12.327 3.673 13 4.5 13H9.5C10.327 13 11 12.327 11 11.5V6.5C11 5.673 10.327 5 9.5 5H4.5ZM9.5 2H6C5.182 2 4.456 2.393 4 3H9.5C11.433 3 13 4.567 13 6.5V11C13.607 10.544 14 9.818 14 9V6.5C14 4.015 11.985 2 9.5 2Z" fill="#202020"/>
</svg>
