<svg width="16" height="16" viewBox="0 0 16 16" fill="none" xmlns="http://www.w3.org/2000/svg">
<g clip-path="url(#clip0_7202_69376)">
<path d="M10.498 6.504C11.051 6.504 11.5 6.055 11.5 5.502C11.5 4.949 11.051 4.5 10.498 4.5C9.945 4.5 9.496 4.949 9.496 5.502C9.496 6.055 9.945 6.504 10.498 6.504Z" fill="#B27C00"/>
<path d="M12.146 12.854C12.2439 12.9509 12.3717 12.9999 12.4995 13C12.6273 12.9999 12.7551 12.9519 12.853 12.854C13.048 12.659 13.048 12.342 12.853 12.147L9.20701 8.501C8.56301 7.856 7.43801 7.856 6.79301 8.501L3.14701 12.147C2.95201 12.342 2.95201 12.659 3.14701 12.854C3.34201 13.049 3.65901 13.049 3.85401 12.854L7.50001 9.208C7.76801 8.94 8.23201 8.94 8.50001 9.208L12.146 12.854Z" fill="#006CBF"/>
<path d="M2 7.91422V11.5C2 12.879 3.121 14 4.5 14H11.5C12.879 14 14 12.879 14 11.5V4.5C14 3.121 12.879 2 11.5 2L5.9124 2C5.96985 2.16023 5.99955 2.32933 5.99999 2.5C6.0011 2.67052 5.97226 2.83975 5.91496 3H11.5C12.327 3 13 3.673 13 4.5V11.5C13 12.327 12.327 13 11.5 13H4.5C3.673 13 3 12.327 3 11.5V7.91421C2.84089 7.97047 2.67196 8 2.49999 8C2.32802 8 2.1591 7.97047 2 7.91422Z" fill="#202020"/>
<path d="M2.15 0.15L0.149998 2.15C0.102555 2.19512 0.0647811 2.24941 0.0389694 2.30958C0.0131577 2.36974 -0.000152588 2.43453 -0.000152588 2.5C-0.000152588 2.56547 0.0131577 2.63026 0.0389694 2.69042C0.0647811 2.75059 0.102555 2.80488 0.149998 2.85C0.195115 2.89744 0.249406 2.93522 0.309574 2.96103C0.369741 2.98684 0.434528 3.00015 0.499998 3.00015C0.565468 3.00015 0.630254 2.98684 0.690422 2.96103C0.750589 2.93522 0.80488 2.89744 0.849998 2.85L2 1.71V6.5C2 6.63261 2.05268 6.75979 2.14644 6.85355C2.24021 6.94732 2.36739 7 2.5 7C2.63261 7 2.75978 6.94732 2.85355 6.85355C2.94732 6.75979 3 6.63261 3 6.5V1.71L4.15 2.85C4.24314 2.94128 4.36855 2.99212 4.49896 2.99146C4.62938 2.9908 4.75426 2.9387 4.84648 2.84648C4.9387 2.75426 4.9908 2.62938 4.99146 2.49896C4.99211 2.36855 4.94128 2.24314 4.85 2.15L2.85 0.15C2.80488 0.102558 2.75059 0.0647836 2.69042 0.0389719C2.63025 0.0131602 2.56547 -0.000149727 2.5 -0.000149727C2.43453 -0.000149727 2.36974 0.0131602 2.30957 0.0389719C2.24941 0.0647836 2.19512 0.102558 2.15 0.15V0.15Z" fill="#006CBF"/>
</g>
<defs>
<clipPath id="clip0_7202_69376">
<rect width="16" height="16" fill="white"/>
</clipPath>
</defs>
</svg>
