<svg width="16" height="16" viewBox="0 0 16 16" fill="none" xmlns="http://www.w3.org/2000/svg">
<path d="M7.62072 6.62105C7.52272 6.71905 7.39472 6.76705 7.26672 6.76705C7.13872 6.76705 7.01072 6.71805 6.91272 6.62105L5.99872 5.70705V7.00005C5.99872 7.27605 5.77472 7.50005 5.49872 7.50005C5.22272 7.50005 4.99872 7.27605 4.99872 7.00005V5.70705L4.08472 6.62105C3.98672 6.71905 3.85872 6.76705 3.73072 6.76705C3.60272 6.76705 3.47472 6.71805 3.37672 6.62105C3.18172 6.42605 3.18172 6.10905 3.37672 5.91405L4.29072 5.00005H2.99772C2.72172 5.00005 2.49772 4.77605 2.49772 4.50005C2.49772 4.22405 2.72172 4.00005 2.99772 4.00005H4.29072L3.37672 3.08605C3.18172 2.89105 3.18172 2.57405 3.37672 2.37905C3.57172 2.18405 3.88872 2.18405 4.08372 2.37905L4.99772 3.29305V2.00005C4.99772 1.72405 5.22172 1.50005 5.49772 1.50005C5.77372 1.50005 5.99772 1.72405 5.99772 2.00005V3.29305L6.91172 2.37905C7.10672 2.18405 7.42372 2.18405 7.61872 2.37905C7.81372 2.57405 7.81372 2.89105 7.61872 3.08605L6.70472 4.00005H7.99772C8.27372 4.00005 8.49772 4.22405 8.49772 4.50005C8.49772 4.77605 8.27372 5.00005 7.99772 5.00005H6.70472L7.61872 5.91405C7.81372 6.10905 7.81372 6.42605 7.61872 6.62105H7.62072ZM12.9997 10H11.7067L12.6207 9.08605C12.8157 8.89105 12.8157 8.57405 12.6207 8.37905C12.4257 8.18405 12.1087 8.18405 11.9137 8.37905L10.9997 9.29305V8.00005C10.9997 7.72405 10.7757 7.50005 10.4997 7.50005C10.2237 7.50005 9.99972 7.72405 9.99972 8.00005V9.29305L9.08572 8.37905C8.89072 8.18405 8.57372 8.18405 8.37872 8.37905C8.18372 8.57405 8.18372 8.89105 8.37872 9.08605L9.29272 10H7.99972C7.72372 10 7.49972 10.224 7.49972 10.5C7.49972 10.776 7.72372 11 7.99972 11H9.29272L8.37872 11.914C8.18372 12.109 8.18372 12.426 8.37872 12.621C8.47672 12.719 8.60472 12.767 8.73272 12.767C8.86072 12.767 8.98872 12.718 9.08672 12.621L10.0007 11.707V13C10.0007 13.276 10.2247 13.5 10.5007 13.5C10.7767 13.5 11.0007 13.276 11.0007 13V11.707L11.9147 12.621C12.0127 12.719 12.1407 12.767 12.2687 12.767C12.3967 12.767 12.5247 12.718 12.6227 12.621C12.8177 12.426 12.8177 12.109 12.6227 11.914L11.7087 11H13.0017C13.2777 11 13.5017 10.776 13.5017 10.5C13.5017 10.224 13.2777 10 13.0017 10H12.9997ZM2.12072 1.01505C1.84772 0.951049 1.58072 1.11105 1.51472 1.37905L0.0147222 7.37905C-0.0512778 7.64705 0.110722 7.91805 0.378722 7.98505C0.419722 7.99505 0.459722 8.00005 0.499722 8.00005C0.724722 8.00005 0.928722 7.84905 0.984722 7.62105L2.48572 1.62105C2.55172 1.35305 2.38872 1.08205 2.12072 1.01505ZM15.6207 7.01505C15.3477 6.95105 15.0807 7.11105 15.0147 7.37905L13.5147 13.379C13.4487 13.647 13.6107 13.918 13.8787 13.985C13.9197 13.995 13.9597 14 13.9997 14C14.2247 14 14.4287 13.849 14.4847 13.621L15.9847 7.62105C16.0507 7.35305 15.8887 7.08205 15.6207 7.01505ZM9.49972 6.00005H11.4997C11.7757 6.00005 11.9997 5.77605 11.9997 5.50005C11.9997 5.22405 11.7757 5.00005 11.4997 5.00005H9.49972C9.22372 5.00005 8.99972 5.22405 8.99972 5.50005C8.99972 5.77605 9.22372 6.00005 9.49972 6.00005ZM6.49972 11H4.49972C4.22372 11 3.99972 11.224 3.99972 11.5C3.99972 11.776 4.22372 12 4.49972 12H6.49972C6.77572 12 6.99972 11.776 6.99972 11.5C6.99972 11.224 6.77572 11 6.49972 11Z" fill="#202020"/>
</svg>
