<svg width="16" height="16" viewBox="0 0 16 16" fill="none" xmlns="http://www.w3.org/2000/svg">
<path d="M13 4H3C1.897 4 1 4.897 1 6V10C1 11.103 1.897 12 3 12H13C14.103 12 15 11.103 15 10V6C15 4.897 14.103 4 13 4ZM14 10C14 10.552 13.551 11 13 11H3C2.449 11 2 10.552 2 10V6C2 5.448 2.449 5 3 5H13C13.551 5 14 5.448 14 6V10ZM4.5 10C4.224 10 4 9.776 4 9.5C4 9.372 4.049 9.244 4.146 9.146L5.292 8L4.146 6.854C4.048 6.756 4 6.628 4 6.5C4 6.224 4.224 6 4.5 6C4.628 6 4.756 6.049 4.854 6.146L6.354 7.646C6.452 7.744 6.5 7.872 6.5 8C6.5 8.128 6.451 8.256 6.354 8.354L4.854 9.854C4.756 9.952 4.628 10 4.5 10Z" fill="#202020"/>
</svg>
