<svg width="16" height="16" viewBox="0 0 16 16" fill="none" xmlns="http://www.w3.org/2000/svg">
<path d="M8.5 3H2.5C1.672 3 1 3.672 1 4.5V10.5C1 11.328 1.672 12 2.5 12H8.5C9.328 12 10 11.328 10 10.5V4.5C10 3.672 9.328 3 8.5 3ZM6.5 10C6.776 10 7 10.224 7 10.5C7 10.776 6.776 11 6.5 11H4.5C4.224 11 4 10.776 4 10.5C4 10.224 4.224 10 4.5 10H5V5H4.5C4.224 5 4 4.776 4 4.5C4 4.224 4.224 4 4.5 4H6.5C6.776 4 7 4.224 7 4.5C7 4.776 6.776 5 6.5 5H6V10H6.5Z" fill="#3487C7"/>
<path d="M15.146 9.14601L14 10.293V4.70701L15.146 5.85301C15.341 6.04801 15.658 6.04801 15.853 5.85301C16.048 5.65801 16.048 5.34101 15.853 5.14601L13.853 3.14601C13.658 2.95101 13.341 2.95101 13.146 3.14601L11.146 5.14601C10.951 5.34101 10.951 5.65801 11.146 5.85301C11.341 6.04801 11.658 6.04801 11.853 5.85301L12.999 4.70701V10.293L11.853 9.14601C11.658 8.95101 11.341 8.95101 11.146 9.14601C10.951 9.34101 10.951 9.65801 11.146 9.85301L13.146 11.853C13.341 12.048 13.658 12.048 13.853 11.853L15.853 9.85301C16.048 9.65801 16.048 9.34101 15.853 9.14601C15.658 8.95101 15.341 8.95101 15.146 9.14601Z" fill="#202020"/>
</svg>
