<svg width="16" height="16" viewBox="0 0 16 16" fill="none" xmlns="http://www.w3.org/2000/svg">
<path d="M12.5 1C12.776 1 13 1.224 13 1.5V12.293L14.146 11.147C14.341 10.952 14.658 10.952 14.853 11.147C15.048 11.342 15.048 11.659 14.853 11.854L12.853 13.854C12.658 14.049 12.341 14.049 12.146 13.854L10.146 11.854C9.95101 11.659 9.95101 11.342 10.146 11.147C10.341 10.952 10.658 10.952 10.853 11.147L11.999 12.293V1.5C11.999 1.224 12.223 1 12.499 1H12.5Z" fill="#202020"/>
<path d="M5.883 10.076C5.7 10 5.499 9.98 5.305 10.019C5.111 10.058 4.933 10.153 4.793 10.293C4.653 10.433 4.558 10.611 4.519 10.805C4.48 10.999 4.5 11.2 4.576 11.383C4.652 11.566 4.78 11.722 4.944 11.832C5.108 11.942 5.302 12.001 5.5 12.001C5.765 12.001 6.02 11.896 6.207 11.708C6.394 11.52 6.5 11.266 6.5 11.001C6.5 10.803 6.441 10.61 6.331 10.445C6.221 10.281 6.065 10.152 5.882 10.077L5.883 10.076ZM8 8H3C2.448 8 2 8.448 2 9V13C2 13.552 2.448 14 3 14H8C8.552 14 9 13.552 9 13V9C9 8.448 8.552 8 8 8ZM7.163 12.111C6.943 12.44 6.631 12.696 6.265 12.848C5.9 12.999 5.497 13.039 5.109 12.962C4.721 12.885 4.365 12.694 4.085 12.415C3.805 12.135 3.615 11.779 3.538 11.391C3.461 11.003 3.501 10.601 3.652 10.235C3.803 9.87 4.06 9.557 4.389 9.338C4.718 9.118 5.105 9.001 5.5 9.001C6.03 9.001 6.539 9.212 6.914 9.587C7.289 9.962 7.5 10.471 7.5 11.001C7.5 11.397 7.383 11.783 7.163 12.112V12.111ZM8 1H3C2.448 1 2 1.448 2 2V6C2 6.552 2.448 7 3 7H8C8.552 7 9 6.552 9 6V2C9 1.448 8.552 1 8 1ZM6.5 5C6.776 5 7 5.224 7 5.5C7 5.776 6.776 6 6.5 6H4.5C4.224 6 4 5.776 4 5.5C4 5.224 4.224 5 4.5 5H5V3H4.5C4.224 3 4 2.776 4 2.5C4 2.224 4.224 2 4.5 2H6.5C6.776 2 7 2.224 7 2.5C7 2.776 6.776 3 6.5 3H6V5H6.5Z" fill="#3487C7"/>
</svg>
