<svg width="16" height="16" viewBox="0 0 16 16" fill="none" xmlns="http://www.w3.org/2000/svg">
<path d="M13 12.5V3.5C12.9998 3.37505 13.0463 3.25455 13.1305 3.16222C13.2147 3.06988 13.3304 3.01241 13.4548 3.00112C13.5793 2.98983 13.7034 3.02554 13.8028 3.10122C13.9023 3.17689 13.9697 3.28705 13.992 3.41L14 3.5V12.5C14.0002 12.6249 13.9537 12.7454 13.8695 12.8378C13.7853 12.9301 13.6696 12.9876 13.5452 12.9989C13.4207 13.0102 13.2966 12.9745 13.1972 12.8988C13.0977 12.8231 13.0303 12.7129 13.008 12.59L13 12.5ZM1.008 8.09L1 8C0.999961 7.88297 1.04097 7.76964 1.11589 7.67974C1.19081 7.58984 1.29489 7.52906 1.41 7.508L1.5 7.5H10.292L7.611 4.818C7.52817 4.73527 7.477 4.62609 7.4664 4.50951C7.4558 4.39292 7.48645 4.27631 7.553 4.18L7.611 4.111C7.69373 4.02817 7.8029 3.977 7.91949 3.9664C8.03608 3.9558 8.15269 3.98645 8.249 4.053L8.318 4.111L11.854 7.646C11.9367 7.72885 11.9877 7.83809 11.9981 7.95467C12.0085 8.07126 11.9777 8.1878 11.911 8.284L11.854 8.354L8.318 11.889C8.22981 11.9776 8.11164 12.0299 7.98678 12.0357C7.86191 12.0415 7.73941 12.0003 7.64342 11.9202C7.54742 11.8402 7.4849 11.7271 7.46816 11.6032C7.45142 11.4793 7.48169 11.3537 7.553 11.251L7.611 11.182L10.292 8.5H1.5C1.38297 8.50004 1.26964 8.45903 1.17974 8.38411C1.08984 8.30919 1.02906 8.20511 1.008 8.09Z" fill="#202020"/>
</svg>
