<svg width="16" height="16" viewBox="0 0 16 16" fill="none" xmlns="http://www.w3.org/2000/svg">
<g clip-path="url(#clip0_7202_69503)">
<path d="M5.5 1C5.22386 1 5 1.22386 5 1.5C5 1.77614 5.22386 2 5.5 2H10.2929L8.14645 4.14645C7.95118 4.34171 7.95118 4.65829 8.14645 4.85355C8.34171 5.04882 8.65829 5.04882 8.85355 4.85355L11 2.70711V7.5C11 7.77614 11.2239 8 11.5 8C11.7761 8 12 7.77614 12 7.5V1.5C12 1.22386 11.7761 1 11.5 1H5.5ZM6.85355 6.85355C7.04882 6.65829 7.04882 6.34171 6.85355 6.14645C6.65829 5.95118 6.34171 5.95118 6.14645 6.14645L4.14645 8.14645C3.95118 8.34171 3.95118 8.65829 4.14645 8.85355C4.34171 9.04882 4.65829 9.04882 4.85355 8.85355L6.85355 6.85355ZM2.85355 10.8536C3.04882 10.6583 3.04882 10.3417 2.85355 10.1464C2.65829 9.95118 2.34171 9.95118 2.14645 10.1464L0.146447 12.1464C-0.0488155 12.3417 -0.0488155 12.6583 0.146447 12.8536C0.341709 13.0488 0.658291 13.0488 0.853553 12.8536L2.85355 10.8536Z" fill="#202020"/>
<path d="M12.5 12H11V10.5C11 10.224 10.776 10 10.5 10C10.224 10 10 10.224 10 10.5V12H8.5C8.224 12 8 12.224 8 12.5C8 12.776 8.224 13 8.5 13H10V14.5C10 14.776 10.224 15 10.5 15C10.776 15 11 14.776 11 14.5V13H12.5C12.776 13 13 12.776 13 12.5C13 12.224 12.776 12 12.5 12Z" fill="#202020"/>
<path d="M6.20701 12.5002L7.85301 10.8542C8.04801 10.6592 8.04801 10.3422 7.85301 10.1472C7.65801 9.95223 7.34101 9.95223 7.14601 10.1472L5.14601 12.1472C4.95101 12.3422 4.95101 12.6592 5.14601 12.8542L7.14601 14.8542C7.24401 14.9522 7.37201 15.0002 7.50001 15.0002C7.62801 15.0002 7.75601 14.9512 7.85401 14.8542C8.04901 14.6592 8.04901 14.3422 7.85401 14.1472L6.20701 12.5002Z" fill="#202020"/>
<path d="M13.854 10.1462L15.854 12.1463L15.855 12.1453C16.05 12.3403 16.05 12.6573 15.855 12.8523L13.855 14.8523C13.757 14.9493 13.629 14.9983 13.501 14.9983C13.373 14.9983 13.245 14.9503 13.147 14.8523C12.952 14.6572 12.952 14.3403 13.147 14.1453L14.793 12.4992L13.147 10.8532C12.952 10.6582 12.952 10.3413 13.147 10.1462C13.342 9.95125 13.659 9.95125 13.854 10.1462Z" fill="#202020"/>
</g>
<defs>
<clipPath id="clip0_7202_69503">
<rect width="16" height="16" fill="white"/>
</clipPath>
</defs>
</svg>
