<svg width="16" height="16" viewBox="0 0 16 16" fill="none" xmlns="http://www.w3.org/2000/svg">
<g clip-path="url(#clip0_7202_69519)">
<path fill-rule="evenodd" clip-rule="evenodd" d="M2.00066 7.91445C2.15957 7.97055 2.32826 8 2.49999 8C2.89781 8 3.27934 7.84196 3.56065 7.56066C3.84195 7.27936 3.99999 6.89782 3.99999 6.5V3.914C4.16069 3.97035 4.32969 3.99941 4.49999 4C4.70112 3.99981 4.90012 3.95876 5.08491 3.87934C5.2697 3.79992 5.43643 3.68379 5.57499 3.538C5.71089 3.40164 5.81843 3.2397 5.89138 3.06154C5.96432 2.88337 6.00124 2.69252 5.99999 2.5C5.99985 2.44795 5.997 2.39605 5.99146 2.3445C6.61945 2.12146 7.29558 2.00005 8.00006 2.00005C11.3138 2.00005 14.0001 4.68634 14.0001 8.00005C14.0001 11.3138 11.3138 14 8.00006 14C4.68635 14 2.00006 11.3138 2.00006 8.00005C2.00006 7.97147 2.00026 7.94293 2.00066 7.91445ZM13.0001 8.00005C13.0001 10.7615 10.7615 13 8.00006 13L8.00006 3.00005C10.7615 3.00005 13.0001 5.23862 13.0001 8.00005Z" fill="#202020"/>
<path d="M2.15 0.15L0.149998 2.15C0.102555 2.19512 0.0647811 2.24941 0.0389694 2.30958C0.0131577 2.36974 -0.000152588 2.43453 -0.000152588 2.5C-0.000152588 2.56547 0.0131577 2.63026 0.0389694 2.69042C0.0647811 2.75059 0.102555 2.80488 0.149998 2.85C0.195115 2.89744 0.249406 2.93522 0.309574 2.96103C0.369741 2.98684 0.434528 3.00015 0.499998 3.00015C0.565468 3.00015 0.630254 2.98684 0.690422 2.96103C0.750589 2.93522 0.80488 2.89744 0.849998 2.85L2 1.71V6.5C2 6.63261 2.05268 6.75979 2.14644 6.85355C2.24021 6.94732 2.36739 7 2.5 7C2.63261 7 2.75978 6.94732 2.85355 6.85355C2.94732 6.75979 3 6.63261 3 6.5V1.71L4.15 2.85C4.24314 2.94128 4.36855 2.99212 4.49896 2.99146C4.62938 2.9908 4.75426 2.9387 4.84648 2.84648C4.9387 2.75426 4.9908 2.62938 4.99146 2.49896C4.99211 2.36855 4.94128 2.24314 4.85 2.15L2.85 0.15C2.80488 0.102558 2.75059 0.0647836 2.69042 0.0389719C2.63025 0.0131602 2.56547 -0.000149727 2.5 -0.000149727C2.43453 -0.000149727 2.36974 0.0131602 2.30957 0.0389719C2.24941 0.0647836 2.19512 0.102558 2.15 0.15V0.15Z" fill="#006CBF"/>
</g>
<defs>
<clipPath id="clip0_7202_69519">
<rect width="16" height="16" fill="white"/>
</clipPath>
</defs>
</svg>
