<svg width="16" height="16" viewBox="0 0 16 16" fill="none" xmlns="http://www.w3.org/2000/svg">
<g clip-path="url(#clip0_7202_69529)">
<path d="M8 7C6.897 7 6 6.103 6 5V3C6 1.897 6.897 1 8 1C9.103 1 10 1.897 10 3V5C10 6.103 9.103 7 8 7ZM8 2C7.448 2 7 2.449 7 3V5C7 5.551 7.448 6 8 6C8.552 6 9 5.551 9 5V3C9 2.449 8.552 2 8 2ZM13 7C11.897 7 11 6.103 11 5V3C11 1.897 11.897 1 13 1C14.103 1 15 1.897 15 3V5C15 6.103 14.103 7 13 7ZM13 2C12.448 2 12 2.449 12 3V5C12 5.551 12.448 6 13 6C13.552 6 14 5.551 14 5V3C14 2.449 13.552 2 13 2ZM13 14C11.897 14 11 13.103 11 12V10C11 8.897 11.897 8 13 8C14.103 8 15 8.897 15 10V12C15 13.103 14.103 14 13 14ZM13 9C12.448 9 12 9.449 12 10V12C12 12.551 12.448 13 13 13C13.552 13 14 12.551 14 12V10C14 9.449 13.552 9 13 9ZM4 5C3.448 5 3 5.448 3 6C3 6.552 3.448 7 4 7C4.552 7 5 6.552 5 6C5 5.448 4.552 5 4 5ZM9 12C8.448 12 8 12.448 8 13C8 13.552 8.448 14 9 14C9.552 14 10 13.552 10 13C10 12.448 9.552 12 9 12Z" fill="#202020"/>
<path d="M0.15 11.85L2.15 13.85C2.19512 13.8975 2.24941 13.9352 2.30958 13.9611C2.36974 13.9869 2.43453 14.0002 2.5 14.0002C2.56547 14.0002 2.63026 13.9869 2.69042 13.9611C2.75059 13.9352 2.80488 13.8975 2.85 13.85C2.89744 13.8049 2.93522 13.7506 2.96103 13.6905C2.98684 13.6303 3.00015 13.5655 3.00015 13.5C3.00015 13.4346 2.98684 13.3698 2.96103 13.3096C2.93522 13.2494 2.89744 13.1951 2.85 13.15L1.71 12H6.5C6.63261 12 6.75979 11.9473 6.85355 11.8536C6.94732 11.7598 7 11.6326 7 11.5C7 11.3674 6.94732 11.2402 6.85355 11.1465C6.75979 11.0527 6.63261 11 6.5 11H1.71L2.85 9.85003C2.89744 9.80491 2.93522 9.75062 2.96103 9.69045C2.98684 9.63028 3.00015 9.5655 3.00015 9.50003C3.00015 9.43456 2.98684 9.36977 2.96103 9.3096C2.93522 9.24944 2.89744 9.19515 2.85 9.15003C2.80488 9.10259 2.75059 9.06481 2.69042 9.039C2.63026 9.01319 2.56547 8.99988 2.5 8.99988C2.43453 8.99988 2.36974 9.01319 2.30958 9.039C2.24941 9.06481 2.19512 9.10259 2.15 9.15003L0.15 11.15C0.102558 11.1951 0.0647836 11.2494 0.0389719 11.3096C0.0131602 11.3698 -0.000149727 11.4346 -0.000149727 11.5C-0.000149727 11.5655 0.0131602 11.6303 0.0389719 11.6905C0.0647836 11.7506 0.102558 11.8049 0.15 11.85V11.85Z" fill="#006CBF"/>
</g>
<defs>
<clipPath id="clip0_7202_69529">
<rect width="16" height="16" fill="white"/>
</clipPath>
</defs>
</svg>
