<svg width="16" height="16" viewBox="0 0 16 16" fill="none" xmlns="http://www.w3.org/2000/svg">
<path d="M11.47 13.329L7.47 2.329C7.4273 2.24063 7.36056 2.1661 7.27743 2.11394C7.1943 2.06178 7.09814 2.03412 7.00001 2.03412C6.90187 2.03412 6.80572 2.06178 6.72258 2.11394C6.63945 2.1661 6.57271 2.24063 6.53001 2.329L2.53 13.329C2.50755 13.3908 2.49751 13.4564 2.50044 13.5221C2.50337 13.5877 2.51922 13.6522 2.54709 13.7117C2.57495 13.7712 2.61428 13.8247 2.66283 13.869C2.71137 13.9133 2.76818 13.9477 2.83001 13.97C2.89179 13.9924 2.95739 14.0025 3.02306 13.9996C3.08873 13.9966 3.15318 13.9808 3.21271 13.9529C3.27225 13.9251 3.32571 13.8857 3.37003 13.8372C3.41435 13.7886 3.44866 13.7318 3.47101 13.67L4.441 11H9.55901L10.53 13.671C10.5651 13.7674 10.629 13.8508 10.7131 13.9096C10.7972 13.9685 10.8974 14 11 14C11.0583 13.9998 11.1161 13.9896 11.171 13.97C11.2327 13.9476 11.2894 13.9132 11.3379 13.8688C11.3863 13.8244 11.4255 13.771 11.4533 13.7114C11.4811 13.6519 11.4968 13.5875 11.4997 13.5219C11.5026 13.4563 11.4925 13.3907 11.47 13.329V13.329ZM4.80501 10L7.00001 3.963L9.20001 10H4.80501Z" fill="#202020"/>
<path d="M12.5 1C12.372 1 12.244 1.049 12.146 1.146L10.146 3.146C9.95101 3.342 9.95101 3.658 10.146 3.854C10.341 4.05 10.658 4.049 10.854 3.854L12.5 2.208L14.146 3.854C14.341 4.049 14.658 4.049 14.853 3.854C15.048 3.659 15.048 3.342 14.853 3.147L12.853 1.147C12.755 1.049 12.627 1.001 12.499 1.001L12.5 1Z" fill="#006CBF"/>
</svg>
