<svg width="16" height="16" viewBox="0 0 16 16" fill="none" xmlns="http://www.w3.org/2000/svg">
<g clip-path="url(#clip0_7202_69549)">
<path fill-rule="evenodd" clip-rule="evenodd" d="M6.35501 1.147C7.59501 2.389 8.96901 3 10.5 3L10.501 3.001C10.777 3.001 11.001 3.225 11.001 3.501V5.97907C10.7115 5.94696 10.4178 5.94289 10.1239 5.96795C9.73759 6.0009 9.36011 6.08341 9.00001 6.2115V5.25C9.00001 4.561 8.43901 4 7.75001 4H7.50001C7.22401 4 7.00001 4.224 7.00001 4.5C7.00001 4.776 7.22401 5 7.50001 5H7.75001C7.88801 5 8.00001 5.112 8.00001 5.25V6.25C8.00001 6.39694 8.02963 6.53471 8.08041 6.66249C7.81058 6.83551 7.55832 7.03802 7.32867 7.26767C6.57936 8.01698 6.11901 9.00702 6.02895 10.0629C5.94737 11.0195 6.17448 11.9743 6.67271 12.7889C6.5062 12.8543 6.33496 12.9163 6.15901 12.975C6.05701 13.009 5.94601 13.009 5.84301 12.975C2.64201 11.908 1.00101 9.72 1.00101 6.502V3.501C1.00101 3.225 1.22501 3.001 1.50101 3.001C3.03001 3.001 4.40501 2.39 5.64801 1.147C5.84301 0.951 6.16001 0.951 6.35501 1.147ZM4.00001 8.75V7.75C4.00001 7.463 3.88701 7.211 3.72401 7C3.88701 6.789 4.00001 6.537 4.00001 6.25V5.25C4.00001 5.112 4.11201 5 4.25001 5H4.50001C4.77601 5 5.00001 4.776 5.00001 4.5C5.00001 4.224 4.77601 4 4.50001 4H4.25001C3.56101 4 3.00001 4.561 3.00001 5.25V6.25C3.00001 6.388 2.88801 6.5 2.75001 6.5H2.50001C2.22401 6.5 2.00001 6.724 2.00001 7C2.00001 7.276 2.22401 7.5 2.50001 7.5H2.75001C2.88801 7.5 3.00001 7.612 3.00001 7.75V8.75C3.00001 9.439 3.56101 10 4.25001 10H4.50001C4.77601 10 5.00001 9.776 5.00001 9.5C5.00001 9.224 4.77601 9 4.50001 9H4.25001C4.11201 9 4.00001 8.888 4.00001 8.75Z" fill="#5C2E91"/>
<path d="M15.854 15.086L13.293 12.526C13.7493 11.9257 13.9975 11.193 14 10.439C14 9.74676 13.7947 9.07007 13.4101 8.4945C13.0256 7.91893 12.4789 7.47033 11.8394 7.20542C11.1999 6.94051 10.4961 6.8712 9.81719 7.00625C9.13825 7.1413 8.51461 7.47464 8.02513 7.96412C7.53564 8.45361 7.2023 9.07725 7.06725 9.75618C6.9322 10.4351 7.00152 11.1388 7.26642 11.7784C7.53133 12.4179 7.97993 12.9646 8.55551 13.3491C9.13108 13.7337 9.80777 13.939 10.5 13.939C11.2536 13.9366 11.9858 13.6887 12.586 13.233L15.146 15.793C15.2398 15.8869 15.367 15.9397 15.4996 15.9398C15.6323 15.9399 15.7596 15.8873 15.8535 15.7935C15.9474 15.6997 16.0002 15.5725 16.0003 15.4399C16.0004 15.3072 15.9478 15.1799 15.854 15.086V15.086ZM8 10.439C8 9.94454 8.14662 9.46119 8.42133 9.05007C8.69603 8.63895 9.08648 8.31852 9.54329 8.1293C10.0001 7.94008 10.5028 7.89057 10.9877 7.98703C11.4727 8.0835 11.9181 8.3216 12.2678 8.67123C12.6174 9.02086 12.8555 9.46632 12.952 9.95127C13.0484 10.4362 12.9989 10.9389 12.8097 11.3957C12.6205 11.8525 12.3 12.243 11.8889 12.5177C11.4778 12.7924 10.9945 12.939 10.5 12.939C9.83696 12.939 9.20108 12.6756 8.73223 12.2068C8.26339 11.7379 8 11.102 8 10.439V10.439Z" fill="#006CBF"/>
</g>
<defs>
<clipPath id="clip0_7202_69549">
<rect width="16" height="16" fill="white"/>
</clipPath>
</defs>
</svg>
