<svg width="16" height="16" viewBox="0 0 16 16" fill="none" xmlns="http://www.w3.org/2000/svg">
<g clip-path="url(#clip0_7202_69559)">
<path d="M15 7.5C15.0001 8.21163 14.7833 8.90639 14.3785 9.49165C13.9737 10.0769 13.4001 10.5249 12.7342 10.7758C12.0683 11.0268 11.3417 11.0688 10.6513 10.8962C9.96093 10.7236 9.33954 10.3447 8.87 9.81L8.79 9.72C8.70984 9.62876 8.66564 9.51146 8.66564 9.39C8.66564 9.26855 8.70984 9.15125 8.79 9.06V9.06C8.83689 9.00779 8.89425 8.96603 8.95834 8.93745C9.02243 8.90886 9.09182 8.89409 9.162 8.89409C9.23218 8.89409 9.30157 8.90886 9.36566 8.93745C9.42975 8.96603 9.48711 9.00779 9.534 9.06L9.619 9.154C9.9263 9.50399 10.3252 9.76117 10.7709 9.89657C11.2165 10.032 11.6911 10.0402 12.1412 9.92029C12.5912 9.8004 12.9988 9.55718 13.318 9.21804C13.6373 8.8789 13.8554 8.45734 13.9479 8.00086C14.0403 7.54439 14.0034 7.07116 13.8414 6.63453C13.6793 6.19789 13.3985 5.81522 13.0305 5.52964C12.6626 5.24406 12.2222 5.06694 11.7591 5.01824C11.2959 4.96954 10.8283 5.05119 10.409 5.254C10.1096 5.40145 9.84139 5.60515 9.619 5.854L6.129 9.81C5.65941 10.3445 5.03807 10.7232 4.34779 10.8957C3.6575 11.0681 2.93106 11.026 2.26527 10.7751C1.59949 10.5242 1.02599 10.0764 0.621201 9.49123C0.216415 8.9061 -0.000427246 8.2115 -0.000427246 7.5C-0.000427246 6.78851 0.216415 6.09391 0.621201 5.50878C1.02599 4.92365 1.59949 4.47578 2.26527 4.22487C2.93106 3.97395 3.6575 3.93191 4.34779 4.10434C5.03807 4.27677 5.65941 4.65548 6.129 5.19L6.209 5.28C6.28916 5.37125 6.33337 5.48855 6.33337 5.61C6.33337 5.73146 6.28916 5.84876 6.209 5.94V5.94C6.16211 5.99238 6.10469 6.03428 6.0405 6.06296C5.97632 6.09164 5.90681 6.10647 5.8365 6.10647C5.7662 6.10647 5.69669 6.09164 5.6325 6.06296C5.56831 6.03428 5.5109 5.99238 5.464 5.94L5.379 5.85C5.10324 5.53604 4.75318 5.29622 4.36082 5.15245C3.96846 5.00867 3.54633 4.96555 3.133 5.027C2.50853 5.11953 1.94219 5.44488 1.54769 5.93773C1.15319 6.43058 0.95975 7.05442 1.00621 7.684C1.05267 8.31357 1.3356 8.90226 1.79817 9.33186C2.26074 9.76146 2.86871 10.0001 3.5 10C3.84125 10.0019 4.17891 9.93028 4.49 9.79C4.83151 9.64718 5.13591 9.42829 5.38 9.15L8.87 5.19C9.12542 4.90707 9.4221 4.66433 9.75 4.47C10.2811 4.16034 10.8852 3.99809 11.5 4C12.4283 4 13.3185 4.36875 13.9749 5.02513C14.6313 5.68151 15 6.57174 15 7.5V7.5Z" fill="#202020"/>
</g>
<defs>
<clipPath id="clip0_7202_69559">
<rect width="16" height="16" fill="white"/>
</clipPath>
</defs>
</svg>
