<svg width="11" height="11" viewBox="0 0 11 11" fill="none" xmlns="http://www.w3.org/2000/svg">
<g clip-path="url(#clip0_7202_69562)">
<path d="M5.5 4.25C5.91421 4.25 6.25 3.91421 6.25 3.5C6.25 3.08579 5.91421 2.75 5.5 2.75C5.08579 2.75 4.75 3.08579 4.75 3.5C4.75 3.91421 5.08579 4.25 5.5 4.25Z" fill="#006CBF"/>
<path d="M5.5 5C5.224 5 5 5.224 5 5.5V7.5C5 7.776 5.224 8 5.5 8C5.776 8 6 7.776 6 7.5V5.5C6 5.224 5.776 5 5.5 5Z" fill="#006CBF"/>
<path fill-rule="evenodd" clip-rule="evenodd" d="M0.5 5.5C0.5 2.739 2.739 0.5 5.5 0.5C8.261 0.5 10.5 2.739 10.5 5.5C10.5 8.261 8.261 10.5 5.5 10.5C2.739 10.5 0.5 8.261 0.5 5.5ZM1.5 5.5C1.5 7.706 3.294 9.5 5.5 9.5C7.706 9.5 9.5 7.706 9.5 5.5C9.5 3.294 7.706 1.5 5.5 1.5C3.294 1.5 1.5 3.294 1.5 5.5Z" fill="#006CBF"/>
</g>
<defs>
<clipPath id="clip0_7202_69562">
<rect width="11" height="11" fill="white"/>
</clipPath>
</defs>
</svg>
