<svg width="16" height="16" viewBox="0 0 16 16" fill="none" xmlns="http://www.w3.org/2000/svg">
<path d="M6.40884 2.11016C6.6777 2.03822 6.9598 2 7.25002 2H7.79169C8.06783 2 8.29169 2.22386 8.29169 2.5C8.29169 2.77614 8.06783 3 7.79169 3H6.24739C6.15624 2.93495 6.08629 2.83904 6.05508 2.72242C5.9837 2.45566 6.14209 2.18154 6.40884 2.11016Z" fill="#202020"/>
<path d="M10.5 3H9.95836C9.68222 3 9.45836 2.77614 9.45836 2.5C9.45836 2.22386 9.68222 2 9.95836 2H10.5C10.6988 2 10.8948 2.01294 11.0872 2.03806C11.361 2.07383 11.554 2.32479 11.5182 2.59861C11.4824 2.87243 11.2315 3.06541 10.9577 3.02964C10.8081 3.01011 10.6554 3 10.5 3Z" fill="#202020"/>
<path d="M14.5 7.54167C14.2239 7.54167 14 7.31781 14 7.04167V6.5C14 6.34467 13.9899 6.19194 13.9704 6.04237C13.9346 5.76855 14.1276 5.51758 14.4014 5.48182C14.6752 5.44606 14.9262 5.63904 14.962 5.91285C14.9871 6.10525 15 6.30124 15 6.5V7.04167C15 7.31781 14.7762 7.54167 14.5 7.54167Z" fill="#202020"/>
<path d="M14 10.7526V9.20833C14 8.93219 14.2239 8.70833 14.5 8.70833C14.7762 8.70833 15 8.93219 15 9.20833V9.75C15 10.0402 14.9618 10.3223 14.8899 10.5912C14.8185 10.8579 14.5444 11.0163 14.2776 10.9449C14.161 10.9137 14.0651 10.8438 14 10.7526Z" fill="#202020"/>
<path d="M12.5384 3.02212C12.7067 2.80318 13.0206 2.76212 13.2395 2.93041C13.551 3.16982 13.8302 3.44906 14.0696 3.76053C14.2379 3.97946 14.1968 4.29337 13.9779 4.46166C13.759 4.62995 13.4451 4.58889 13.2768 4.36995C13.0903 4.12732 12.8727 3.90975 12.6301 3.72325C12.4111 3.55496 12.3701 3.24106 12.5384 3.02212Z" fill="#202020"/>
<path d="M3.0434 6.03376C3.26181 4.87586 4.27862 4 5.5 4H10.5C11.8807 4 13 5.11929 13 6.5V11.5C13 12.8807 11.8807 14 10.5 14H7.96132C7.9872 13.8342 8 13.667 8 13.5C8.00002 13.3309 7.98289 13.1634 7.94954 13H10.5C11.3284 13 12 12.3284 12 11.5V6.5C12 5.67157 11.3284 5 10.5 5H5.5C4.82724 5 4.25793 5.44289 4.06773 6.05302C3.88148 6.01712 3.69142 5.99881 3.5 5.99881C3.3465 5.99881 3.19388 6.01059 3.0434 6.03376Z" fill="#202020"/>
<path d="M1.5 9C1.5 9.39556 1.6173 9.78224 1.83706 10.1111C2.05682 10.44 2.36918 10.6964 2.73463 10.8478C3.10009 10.9991 3.50222 11.0387 3.89018 10.9616C4.27814 10.8844 4.63451 10.6939 4.91421 10.4142C5.19392 10.1345 5.3844 9.77814 5.46157 9.39018C5.53874 9.00222 5.49913 8.60009 5.34776 8.23463C5.19638 7.86918 4.94004 7.55682 4.61114 7.33706C4.28224 7.1173 3.89556 7 3.5 7C2.96957 7 2.46086 7.21071 2.08579 7.58579C1.71071 7.96086 1.5 8.46957 1.5 9ZM0 13.5C0 14.745 1 16 3.5 16C6 16 7 14.75 7 13.5C7 13.1022 6.84196 12.7206 6.56066 12.4393C6.27936 12.158 5.89782 12 5.5 12H1.5C1.10218 12 0.720644 12.158 0.43934 12.4393C0.158035 12.7206 0 13.1022 0 13.5Z" fill="#202020"/>
</svg>
