<svg width="16" height="16" viewBox="0 0 16 16" fill="none" xmlns="http://www.w3.org/2000/svg">
<path d="M6.79097 3H5.24597C5.15497 2.935 5.08497 2.839 5.05397 2.722C4.98297 2.455 5.14097 2.181 5.40797 2.11C5.67697 2.038 5.95897 2 6.24897 2H6.79097C7.06697 2 7.29097 2.224 7.29097 2.5C7.29097 2.776 7.06697 3 6.79097 3Z" fill="#202020"/>
<path d="M9.49998 3H8.95798C8.68198 3 8.45898 2.776 8.45898 2.5C8.45898 2.224 8.68298 2 8.95898 2H9.50099C9.69999 2 9.89598 2.013 10.088 2.038C10.362 2.074 10.555 2.325 10.519 2.599C10.483 2.873 10.232 3.066 9.95798 3.03C9.80799 3.01 9.65498 3 9.49998 3Z" fill="#202020"/>
<path d="M13.962 5.91298C13.926 5.63898 13.675 5.44598 13.401 5.48198C13.127 5.51798 12.934 5.76898 12.97 6.04298C12.99 6.19298 13 6.34498 13 6.50098V7.04298C13 7.31898 13.224 7.54298 13.5 7.54298C13.776 7.54298 14 7.31898 14 7.04298V6.50098C14 6.30198 13.987 6.10498 13.962 5.91298Z" fill="#202020"/>
<path d="M13 9.20797C13 8.93197 13.224 8.70797 13.5 8.70797V8.70697C13.776 8.70697 14 8.93097 14 9.20697V9.74897C14 10.039 13.962 10.321 13.89 10.59C13.819 10.857 13.545 11.015 13.278 10.944C13.161 10.913 13.065 10.843 13 10.752V9.20797Z" fill="#202020"/>
<path d="M13.07 3.75999C12.831 3.44899 12.551 3.16899 12.24 2.92999C12.021 2.76199 11.707 2.80299 11.539 3.02199C11.371 3.24099 11.412 3.55499 11.631 3.72299C11.874 3.90999 12.091 4.12699 12.278 4.36999C12.446 4.58899 12.76 4.62999 12.979 4.46199C13.198 4.29399 13.239 3.97999 13.071 3.76099L13.07 3.75999Z" fill="#202020"/>
<path fill-rule="evenodd" clip-rule="evenodd" d="M4.5 4H9.5C10.881 4 12 5.119 12 6.5V11.5C12 12.881 10.881 14 9.5 14H4.5C3.119 14 2 12.881 2 11.5V6.5C2 5.119 3.119 4 4.5 4ZM9.5 5H4.5C3.848 5 3.299 5.419 3.092 6H10.908C10.702 5.419 10.152 5 9.5 5ZM4.5 13H9.5C10.328 13 11 12.328 11 11.5V7H3V11.5C3 12.328 3.672 13 4.5 13Z" fill="#202020"/>
</svg>
