<svg width="16" height="16" viewBox="0 0 16 16" fill="none" xmlns="http://www.w3.org/2000/svg">
<path d="M9.87723 5.66101C9.95766 5.28674 10 4.89831 10 4.5C10 3.98763 9.92994 3.49162 9.79887 3.02104C9.85966 3.00585 9.92249 2.998 9.986 2.998C10.19 2.998 10.387 3.079 10.533 3.224L15.773 8.464C15.918 8.609 15.999 8.806 15.999 9.01C15.999 9.214 15.918 9.411 15.773 9.557L15.774 9.559L10.559 14.774C10.414 14.919 10.217 15 10.012 15C9.807 15 9.611 14.919 9.466 14.774L4.68882 9.99682C6.68537 9.92946 8.4121 8.79797 9.31979 7.15158C9.33848 7.17398 9.35824 7.19549 9.379 7.216C9.465 7.302 9.567 7.369 9.679 7.416V10.71C9.496 10.785 9.343 10.917 9.241 11.086C9.139 11.255 9.094 11.453 9.113 11.649C9.132 11.846 9.214 12.031 9.346 12.177C9.478 12.324 9.654 12.424 9.848 12.462C10.042 12.501 10.243 12.476 10.421 12.392C10.6 12.308 10.746 12.168 10.839 11.994C10.932 11.82 10.967 11.62 10.938 11.425C10.909 11.23 10.818 11.049 10.678 10.909C10.607 10.838 10.524 10.779 10.434 10.735V7.472L11.675 8.712C11.594 8.907 11.583 9.123 11.642 9.325C11.702 9.527 11.829 9.703 12.002 9.822C12.175 9.942 12.384 9.999 12.595 9.983C12.805 9.967 13.003 9.88 13.157 9.736C13.31 9.592 13.41 9.399 13.439 9.19C13.468 8.981 13.424 8.769 13.315 8.589C13.206 8.409 13.039 8.271 12.841 8.199C12.643 8.127 12.426 8.125 12.227 8.194L10.9 6.864C10.956 6.701 10.964 6.527 10.925 6.359C10.886 6.192 10.801 6.039 10.679 5.917C10.557 5.796 10.404 5.711 10.237 5.672C10.1187 5.64438 9.99643 5.64084 9.87723 5.66101Z" fill="#F05133"/>
<path fill-rule="evenodd" clip-rule="evenodd" d="M9 4.5C9 6.98528 6.98528 9 4.5 9C2.01472 9 0 6.98528 0 4.5C0 2.01472 2.01472 0 4.5 0C6.98528 0 9 2.01472 9 4.5ZM4.5 2C4.77614 2 5 2.22386 5 2.5V4H6.5C6.77614 4 7 4.22386 7 4.5C7 4.77614 6.77614 5 6.5 5H5V6.5C5 6.77614 4.77614 7 4.5 7C4.22386 7 4 6.77614 4 6.5V5H2.5C2.22386 5 2 4.77614 2 4.5C2 4.22386 2.22386 4 2.5 4H4V2.5C4 2.22386 4.22386 2 4.5 2Z" fill="#11910D"/>
</svg>
