<svg width="16" height="16" viewBox="0 0 16 16" fill="none" xmlns="http://www.w3.org/2000/svg">
<g clip-path="url(#clip0_7202_69620)">
<path d="M12 14H4C2.897 14 2 13.103 2 12V7.5C2 7.224 2.224 7 2.5 7C2.776 7 3 7.224 3 7.5V12C3 12.551 3.448 13 4 13H12C12.552 13 13 12.551 13 12V7.5C13 7.224 13.224 7 13.5 7C13.776 7 14 7.224 14 7.5V12C14 13.103 13.103 14 12 14Z" fill="#202020"/>
<path d="M11.354 6.854L8.354 9.854C8.159 10.049 7.842 10.049 7.647 9.854L4.647 6.854C4.452 6.659 4.452 6.342 4.647 6.147C4.842 5.952 5.159 5.952 5.354 6.147L7.5 8.293V2.5C7.5 2.224 7.724 2 8 2C8.276 2 8.5 2.224 8.5 2.5V8.293L10.646 6.147C10.744 6.049 10.872 6.001 11 6.001C11.128 6.001 11.256 6.05 11.354 6.147C11.549 6.342 11.549 6.659 11.354 6.854Z" fill="#006CBF"/>
</g>
<defs>
<clipPath id="clip0_7202_69620">
<rect width="16" height="16" fill="white"/>
</clipPath>
</defs>
</svg>
