<svg width="16" height="16" viewBox="0 0 16 16" fill="none" xmlns="http://www.w3.org/2000/svg">
<g clip-path="url(#clip0_7202_69690)">
<path d="M5.00352 5.91571C5.00119 5.94351 5 5.97162 5 6V8H2C1.448 8 1 8.449 1 9V12C1 12.551 1.448 13 2 13H5V12H2V9H5C5.552 9 6 8.551 6 8V6H9C9.552 6 10 5.551 10 5V2H13V6H14V2C14 1.449 13.552 1 13 1H10C9.448 1 9 1.449 9 2V5H6.11397L5.557 5.55697C5.42052 5.69923 5.25629 5.81195 5.07447 5.88816C5.05104 5.89798 5.02738 5.90716 5.00352 5.91571Z" fill="#202020"/>
<path fill-rule="evenodd" clip-rule="evenodd" d="M15 8V12.5C15 13.878 13.879 15 12.5 15H7C6.448 15 6 14.551 6 14V11C6 10.449 6.448 10 7 10H10V8C10 7.449 10.448 7 11 7H14C14.552 7 15 7.449 15 8ZM11 10C11 10.551 10.552 11 10 11H7V14H12.5C13.327 14 14 13.327 14 12.5V8H11V10Z" fill="#202020"/>
<path d="M6.85 2.85003L4.85 4.85003C4.80488 4.89747 4.75059 4.93524 4.69042 4.96106C4.63026 4.98687 4.56547 5.00018 4.5 5.00018C4.43453 5.00018 4.36974 4.98687 4.30958 4.96106C4.24941 4.93524 4.19512 4.89747 4.15 4.85003C4.10256 4.80491 4.06478 4.75062 4.03897 4.69045C4.01316 4.63028 3.99985 4.5655 3.99985 4.50003C3.99985 4.43456 4.01316 4.36977 4.03897 4.3096C4.06478 4.24944 4.10256 4.19515 4.15 4.15003L5.29 3.00003H0.5C0.367392 3.00003 0.240215 2.94735 0.146447 2.85358C0.0526784 2.75981 0 2.63264 0 2.50003C0 2.36742 0.0526784 2.24024 0.146447 2.14647C0.240215 2.05271 0.367392 2.00003 0.5 2.00003H5.29L4.15 0.850028C4.10256 0.804911 4.06478 0.750619 4.03897 0.690452C4.01316 0.630285 3.99985 0.565498 3.99985 0.500028C3.99985 0.434558 4.01316 0.369771 4.03897 0.309604C4.06478 0.249437 4.10256 0.195146 4.15 0.150028C4.19512 0.102586 4.24941 0.0648117 4.30958 0.0389999C4.36974 0.0131882 4.43453 -0.00012207 4.5 -0.00012207C4.56547 -0.00012207 4.63026 0.0131882 4.69042 0.0389999C4.75059 0.0648117 4.80488 0.102586 4.85 0.150028L6.85 2.15003C6.89744 2.19515 6.93522 2.24944 6.96103 2.3096C6.98684 2.36977 7.00015 2.43456 7.00015 2.50003C7.00015 2.5655 6.98684 2.63028 6.96103 2.69045C6.93522 2.75062 6.89744 2.80491 6.85 2.85003V2.85003Z" fill="#006CBF"/>
</g>
<defs>
<clipPath id="clip0_7202_69690">
<rect width="16" height="16" fill="white"/>
</clipPath>
</defs>
</svg>
