<svg width="16" height="16" viewBox="0 0 16 16" fill="none" xmlns="http://www.w3.org/2000/svg">
<path d="M11.5001 3.00006C12.3289 3.00006 13.0001 3.6712 13.0001 4.50006V5.50006C13.0001 5.7762 13.2239 6.00006 13.5001 6.00006C13.7762 6.00006 14.0001 5.7762 14.0001 5.50006V4.50006C14.0001 3.11892 12.8812 2.00006 11.5001 2.00006C11.2239 2.00006 11.0001 2.22392 11.0001 2.50006C11.0001 2.7762 11.2239 3.00006 11.5001 3.00006Z" fill="#202020"/>
<path d="M10.0001 13.5001C10.0001 13.7762 9.7762 14.0001 9.50006 14.0001H6.50006C6.22392 14.0001 6.00006 13.7762 6.00006 13.5001C6.00006 13.2239 6.22392 13.0001 6.50006 13.0001H9.50006C9.7762 13.0001 10.0001 13.2239 10.0001 13.5001Z" fill="#202020"/>
<path d="M10.0001 2.50006C10.0001 2.7762 9.7762 3.00006 9.50006 3.00006L6.50006 3.00006C6.22392 3.00006 6.00006 2.7762 6.00006 2.50006C6.00006 2.22392 6.22392 2.00006 6.50006 2.00006L9.50006 2.00006C9.7762 2.00006 10.0001 2.22392 10.0001 2.50006Z" fill="#202020"/>
<path d="M5.00006 2.50006C5.00006 2.7762 4.7762 3.00006 4.50006 3.00006C3.6712 3.00006 3.00006 3.6712 3.00006 4.50006L3.00006 5.50006C3.00006 5.7762 2.7762 6.00006 2.50006 6.00006C2.22392 6.00006 2.00006 5.7762 2.00006 5.50006L2.00006 4.50006C2.00006 3.11892 3.11892 2.00006 4.50006 2.00006C4.7762 2.00006 5.00006 2.22392 5.00006 2.50006Z" fill="#202020"/>
<path d="M4.50006 14.0001C4.7762 14.0001 5.00006 13.7762 5.00006 13.5001C5.00006 13.2239 4.7762 13.0001 4.50006 13.0001C3.6712 13.0001 3.00006 12.3289 3.00006 11.5001V10.5001C3.00006 10.2239 2.7762 10.0001 2.50006 10.0001C2.22392 10.0001 2.00006 10.2239 2.00006 10.5001L2.00006 11.5001C2.00006 12.8812 3.11892 14.0001 4.50006 14.0001Z" fill="#202020"/>
<path d="M13.5001 10.0001C13.7762 10.0001 14.0001 10.2239 14.0001 10.5001V11.5001C14.0001 12.8812 12.8812 14.0001 11.5001 14.0001C11.2239 14.0001 11.0001 13.7762 11.0001 13.5001C11.0001 13.2239 11.2239 13.0001 11.5001 13.0001C12.3289 13.0001 13.0001 12.3289 13.0001 11.5001V10.5001C13.0001 10.2239 13.2239 10.0001 13.5001 10.0001Z" fill="#202020"/>
<path d="M13.5001 8.50006C13.7762 8.50006 14.0001 8.2762 14.0001 8.00006C14.0001 7.72392 13.7762 7.50006 13.5001 7.50006L2.50006 7.50006C2.22392 7.50006 2.00006 7.72392 2.00006 8.00006C2.00006 8.2762 2.22392 8.50006 2.50006 8.50006L13.5001 8.50006Z" fill="#202020"/>
</svg>
