<svg width="16" height="16" viewBox="0 0 16 16" fill="none" xmlns="http://www.w3.org/2000/svg">
<path d="M6.5 1C6.22386 1 6 1.22386 6 1.5C6 1.77614 6.22386 2 6.5 2H8C8.27614 2 8.5 1.77614 8.5 1.5C8.5 1.22386 8.27614 1 8 1H6.5Z" fill="#202020"/>
<path d="M9.68945 1C9.41331 1 9.18945 1.22386 9.18945 1.5C9.18945 1.77614 9.41331 2 9.68945 2H10.586C10.7184 2 10.8452 2.05235 10.9394 2.14655L11.4179 2.62505C11.6132 2.82032 11.9297 2.82032 12.125 2.62505C12.3203 2.42979 12.3203 2.11321 12.125 1.91795L11.6465 1.43945C11.3647 1.15765 10.9835 1 10.586 1H9.68945Z" fill="#202020"/>
<path d="M12.3824 11.9243C12.2652 11.9729 12.1363 12 12 12V13C12.2702 13 12.5292 12.946 12.7657 12.8479C13.0208 12.742 13.1417 12.4495 13.0359 12.1944C12.93 11.9394 12.6375 11.8184 12.3824 11.9243Z" fill="#202020"/>
<path d="M12.3749 2.87495C12.5702 2.67968 12.8867 2.67968 13.082 2.87495L13.5601 3.35302C13.843 3.63471 14 4.01744 14 4.414V5.23725C14 5.51339 13.7761 5.73725 13.5 5.73725C13.2238 5.73725 13 5.51339 13 5.23725V4.414C13 4.2808 12.9471 4.15376 12.8543 4.06149L12.8534 4.06055L12.3749 3.58205C12.1796 3.38679 12.1796 3.07021 12.3749 2.87495Z" fill="#202020"/>
<path d="M13.5 6.38375C13.7761 6.38375 14 6.60761 14 6.88375V8.53025C14 8.80639 13.7761 9.03025 13.5 9.03025C13.2238 9.03025 13 8.80639 13 8.53025V6.88375C13 6.60761 13.2238 6.38375 13.5 6.38375Z" fill="#202020"/>
<path d="M13.5 9.67675C13.7761 9.67675 14 9.90061 14 10.1768V11C14 11.2703 13.946 11.5293 13.8478 11.7658C13.742 12.0208 13.4494 12.1418 13.1944 12.0359C12.9393 11.9301 12.8184 11.6375 12.9242 11.3825C12.9729 11.2652 13 11.1364 13 11V10.1768C13 9.90061 13.2238 9.67675 13.5 9.67675Z" fill="#202020"/>
<path d="M4.5 8C4.22386 8 4 8.22386 4 8.5C4 8.77614 4.22386 9 4.5 9H8.5C8.77614 9 9 8.77614 9 8.5C9 8.22386 8.77614 8 8.5 8H4.5Z" fill="#202020"/>
<path d="M4 10.5C4 10.2239 4.22386 10 4.5 10H8.5C8.77614 10 9 10.2239 9 10.5C9 10.7761 8.77614 11 8.5 11H4.5C4.22386 11 4 10.7761 4 10.5Z" fill="#202020"/>
<path d="M4.5 12C4.22386 12 4 12.2239 4 12.5C4 12.7761 4.22386 13 4.5 13H8.5C8.77614 13 9 12.7761 9 12.5C9 12.2239 8.77614 12 8.5 12H4.5Z" fill="#202020"/>
<path fill-rule="evenodd" clip-rule="evenodd" d="M4.00098 3C2.89598 3 2.00098 3.895 2.00098 5V13C2.00098 14.105 2.89598 15 4.00098 15H9.00198C10.107 15 11.002 14.105 11.002 13V7.5H11V6.414C11 6.016 10.842 5.635 10.561 5.353L8.64698 3.439C8.36598 3.158 7.98398 3 7.58598 3H4.00098ZM4.00098 14C3.44898 14 3.00098 13.552 3.00098 13V5C3.00098 4.448 3.44898 4 4.00098 4H7.00098V5.5C7.00098 6.328 7.67298 7 8.50098 7H10.001V8.061H10.003V13C10.003 13.552 9.55498 14 9.00298 14H4.00098ZM9.79298 6H8.49998C8.22398 6 7.99998 5.776 7.99998 5.5V4.207L9.79298 6Z" fill="#202020"/>
</svg>
