<svg width="16" height="16" viewBox="0 0 16 16" fill="none" xmlns="http://www.w3.org/2000/svg">
<path d="M12 5H11V4C11 2.897 10.103 2 9 2H4C2.897 2 2 2.897 2 4V9C2 10.103 2.897 11 4 11H5V12C5 13.103 5.897 14 7 14H12C13.103 14 14 13.103 14 12V7C14 5.897 13.103 5 12 5ZM4 10C3.448 10 3 9.552 3 9V4C3 3.448 3.448 3 4 3H9C9.552 3 10 3.448 10 4V5H7C5.897 5 5 5.897 5 7V10H4ZM13 12C13 12.552 12.552 13 12 13H7C6.448 13 6 12.552 6 12V11H9C10.103 11 11 10.103 11 9V6H12C12.552 6 13 6.448 13 7V12Z" fill="#202020"/>
</svg>
