<svg width="12" height="12" viewBox="0 0 12 12" fill="none" xmlns="http://www.w3.org/2000/svg">
<g clip-path="url(#clip0_7202_69807)">
<path d="M7.54306 9H6.50006H5.50006H4.49406H3.46606L3.93706 10.978L3.94506 11C4.04306 11.289 4.23006 11.54 4.47906 11.717C4.73606 11.901 5.04506 12 5.36206 12H6.76606C7.07506 11.974 7.36806 11.854 7.60606 11.655C7.84506 11.456 8.01406 11.185 8.08706 10.882L8.58106 9H7.54306V9ZM7.11806 10.628V10.641C7.09606 10.735 7.04306 10.82 6.96806 10.881C6.89306 10.947 6.79906 10.988 6.70006 11H5.36106C5.25306 10.999 5.14806 10.964 5.06106 10.9C4.98906 10.85 4.93306 10.781 4.90006 10.7L4.73306 10H7.28206L7.11806 10.628V10.628Z" fill="#202020"/>
<path d="M10.055 6.27898C10.333 5.68598 10.484 5.04198 10.5 4.38698C10.5 3.80798 10.383 3.23498 10.156 2.70198C9.93 2.16898 9.598 1.68698 9.182 1.28498C8.33 0.45798 7.188 -0.00302034 6 -2.03413e-05C5.411 -0.00402034 4.828 0.10998 4.284 0.33498C3.74 0.55998 3.247 0.89198 2.833 1.30998C1.995 2.17998 1.518 3.33598 1.5 4.54398V4.58198C1.625 5.91098 2.245 7.14398 3.237 8.03698L3.466 8.99998H4.494L4.145 7.53598L4.045 7.43598C3.185 6.70598 2.633 5.67698 2.5 4.55598C2.514 3.60698 2.887 2.69898 3.543 2.01298C3.864 1.68798 4.247 1.43198 4.669 1.25798C5.091 1.08398 5.544 0.99598 6 0.99998C6.927 0.99598 7.82 1.35398 8.486 1.99998C8.807 2.30898 9.062 2.67998 9.236 3.08998C9.41 3.49998 9.5 3.94098 9.5 4.38698C9.48 4.92698 9.345 5.45698 9.104 5.94098C8.862 6.42498 8.52 6.85098 8.1 7.19198L7.992 7.29198L7.543 8.99998H8.581L8.887 7.83198C9.38 7.40098 9.778 6.87198 10.055 6.27898Z" fill="#B27C00"/>
<path d="M7.655 5.61498C7.928 5.21198 8.045 4.72298 7.984 4.23998C7.923 3.75698 7.687 3.31298 7.322 2.99098C6.957 2.66898 6.487 2.49198 6 2.49198C5.513 2.49198 5.043 2.66998 4.678 2.99098C4.313 3.31298 4.077 3.75698 4.016 4.23998C3.955 4.72298 4.072 5.21198 4.345 5.61498C4.618 6.01798 5.029 6.30698 5.5 6.42898V8.99998H6.5V6.42898C6.971 6.30698 7.382 6.01798 7.655 5.61498ZM5.444 5.33098C5.28 5.22098 5.151 5.06498 5.076 4.88198C5 4.69898 4.981 4.49798 5.019 4.30398C5.057 4.10998 5.153 3.93198 5.293 3.79198C5.433 3.65198 5.611 3.55698 5.805 3.51798C5.999 3.47898 6.2 3.49898 6.383 3.57498C6.566 3.65098 6.722 3.77898 6.832 3.94298C6.942 4.10698 7.001 4.30098 7.001 4.49898C7.001 4.76398 6.896 5.01898 6.708 5.20598C6.52 5.39398 6.266 5.49898 6.001 5.49898C5.803 5.49898 5.61 5.43998 5.445 5.32998L5.444 5.33098Z" fill="#B27C00"/>
</g>
<defs>
<clipPath id="clip0_7202_69807">
<rect width="12" height="12" fill="white"/>
</clipPath>
</defs>
</svg>
