<svg width="16" height="16" viewBox="0 0 16 16" fill="none" xmlns="http://www.w3.org/2000/svg">
<path d="M11.5 2H4.5C3.119 2 2 3.119 2 4.5V11.5C2 12.881 3.119 14 4.5 14H11.5C12.881 14 14 12.881 14 11.5V4.5C14 3.119 12.881 2 11.5 2ZM13 11.5C13 12.328 12.328 13 11.5 13H4.5C3.672 13 3 12.328 3 11.5V4.5C3 3.672 3.672 3 4.5 3H11.5C12.328 3 13 3.672 13 4.5V11.5ZM8.5 5V11H9.5C9.776 11 10 11.224 10 11.5C10 11.776 9.776 12 9.5 12H6.5C6.224 12 6 11.776 6 11.5C6 11.224 6.224 11 6.5 11H7.5V5H6.5C6.224 5 6 4.776 6 4.5C6 4.224 6.224 4 6.5 4H9.5C9.776 4 10 4.224 10 4.5C10 4.776 9.776 5 9.5 5H8.5Z" fill="#202020"/>
</svg>
