<svg width="16" height="16" viewBox="0 0 16 16" fill="none" xmlns="http://www.w3.org/2000/svg">
<path d="M13.8086 8.39478C14.0624 8.1936 14.0624 7.80716 13.8086 7.60596L8.00664 3.00688L8.00664 5.4879C8.00664 5.62117 7.95391 5.74898 7.86004 5.84322C7.76618 5.93746 7.63887 5.9904 7.50612 5.9904L3.00103 5.99036L3.00103 10.0104L7.50613 10.0104C7.78256 10.0104 8.00664 10.2354 8.00664 10.5129V12.9931L13.8086 8.39478ZM14.4289 6.81717C15.1904 7.42077 15.1904 8.58008 14.4288 9.18362L8.62689 13.782C7.97044 14.3022 7.00561 13.8328 7.00561 12.9931V11.0154L3.00102 11.0154C2.44817 11.0154 2 10.5655 2 10.0104L2 5.99036C2 5.43531 2.44818 4.98535 3.00104 4.98535L7.00561 4.98539L7.00561 3.00688C7.00561 2.16717 7.97051 1.69775 8.62695 2.21809L14.4289 6.81717Z" fill="#202020"/>
</svg>
