<svg width="16" height="16" viewBox="0 0 16 16" fill="none" xmlns="http://www.w3.org/2000/svg">
<g clip-path="url(#clip0_7202_69793)">
<path d="M8.99994 3.99878C8.7238 3.99878 8.49994 4.22264 8.49994 4.49878V5.49877C8.49994 5.77491 8.7238 5.99877 8.99994 5.99877C9.27608 5.99877 9.49994 5.77491 9.49994 5.49877V4.49878C9.49994 4.22264 9.27608 3.99878 8.99994 3.99878Z" fill="#5C2E91"/>
<path d="M10.8706 5.29418C11.0658 5.09892 11.3824 5.09892 11.5777 5.29418C11.7729 5.48944 11.7729 5.80603 11.5777 6.00129L10.8706 6.70839C10.6753 6.90365 10.3587 6.90365 10.1635 6.70839C9.96819 6.51313 9.96819 6.19654 10.1635 6.00128L10.8706 5.29418Z" fill="#5C2E91"/>
<path d="M6.39365 5.29418C6.58892 5.09892 6.9055 5.09892 7.10076 5.29418L7.80786 6.00128C8.00312 6.19654 8.00312 6.51313 7.80786 6.70839C7.6126 6.90365 7.29601 6.90365 7.10075 6.70839L6.39365 6.00129C6.19839 5.80603 6.19839 5.48944 6.39365 5.29418Z" fill="#5C2E91"/>
<path d="M5.83038 3.31089C6.64707 2.48214 7.76908 2.00107 8.998 2.00107C10.2382 2.00107 11.3651 2.49008 12.1819 3.28545C12.9938 4.07612 13.5011 5.17278 13.5011 6.38728C13.5011 7.6803 12.9173 8.83034 11.8833 9.82476L11.0874 12.8745C11.0343 13.0974 10.9304 13.2968 10.7915 13.463C10.6581 13.1743 10.4752 12.919 10.2629 12.718L10.1294 12.5845L10.282 12H9.54486L8.50122 10.9564V7.50021C8.50122 7.22407 8.72508 7.00021 9.00122 7.00021C9.27736 7.00021 9.50122 7.22407 9.50122 7.50021V11H10.543L10.989 9.2916L11.0965 9.19226C12.0482 8.31298 12.5011 7.37856 12.5011 6.38728C12.5011 5.45824 12.1143 4.6155 11.4842 4.00187C10.8498 3.38411 9.97157 3.00107 8.998 3.00107C8.0356 3.00107 7.17053 3.37565 6.54265 4.0128C6.14237 4.41899 5.83394 4.93673 5.65877 5.54098C5.52191 5.4672 5.38108 5.4004 5.23686 5.341C5.06973 5.2722 4.89983 5.21369 4.72756 5.16558C4.95183 4.44778 5.33123 3.81741 5.83038 3.31089Z" fill="#5C2E91"/>
<path d="M2.75809 6.33501C2.76709 6.26601 2.79409 6.20101 2.83709 6.14601C2.88009 6.09101 2.93609 6.04901 3.00009 6.02401C3.03509 6.01001 3.07109 6.00201 3.10809 5.99801C3.70209 5.92801 4.30509 6.01201 4.85809 6.24001C5.41109 6.46801 5.89709 6.83301 6.27009 7.30101C6.64309 7.76901 6.89009 8.32401 6.98809 8.91501C7.08609 9.50601 7.03309 10.111 6.83209 10.674L9.55809 13.4C9.70409 13.539 9.82009 13.705 9.90009 13.89C9.98009 14.074 10.0231 14.273 10.0251 14.474C10.0271 14.675 9.99009 14.875 9.91409 15.061C9.83809 15.247 9.72609 15.417 9.58409 15.559C9.44209 15.701 9.27309 15.814 9.08609 15.889C8.90009 15.965 8.70009 16.003 8.49909 16C8.29809 15.998 8.09909 15.955 7.91509 15.875C7.73109 15.795 7.56409 15.678 7.42509 15.533L4.69909 12.807C4.13509 13.008 3.53009 13.062 2.94009 12.963C2.35009 12.865 1.79409 12.617 1.32609 12.245C0.858086 11.872 0.493086 11.386 0.265086 10.833C0.037086 10.28 -0.045914 9.67801 0.023086 9.08301C0.035086 9.00201 0.070086 8.92701 0.124086 8.86601C0.178086 8.80501 0.248086 8.76101 0.326086 8.73801C0.404086 8.71601 0.487086 8.71701 0.565086 8.74101C0.643086 8.76501 0.712086 8.81101 0.765086 8.87301L1.74009 9.84801C2.02509 10.119 2.40509 10.269 2.79809 10.264C3.19209 10.259 3.56809 10.101 3.84609 9.82201C4.12409 9.54401 4.28309 9.16801 4.28809 8.77401C4.29309 8.38001 4.14409 8.00101 3.87209 7.71601L2.89709 6.74101C2.82509 6.67001 2.77709 6.58001 2.75909 6.48101C2.75109 6.43301 2.75009 6.38401 2.75709 6.33601L2.75809 6.33501Z" fill="#202020"/>
</g>
<defs>
<clipPath id="clip0_7202_69793">
<rect width="16" height="16" fill="white"/>
</clipPath>
</defs>
</svg>
