<svg width="16" height="16" viewBox="0 0 16 16" fill="none" xmlns="http://www.w3.org/2000/svg">
<path fill-rule="evenodd" clip-rule="evenodd" d="M6.5 3C6.22386 3 6 3.22386 6 3.5V5.5C6 5.77614 6.22386 6 6.5 6H11.5C11.7761 6 12 5.77614 12 5.5V3.5C12 3.22386 11.7761 3 11.5 3H6.5ZM7 5V4H11V5H7Z" fill="#159195"/>
<path d="M5 1C3.89543 1 3 1.89543 3 3H2.5C2.22386 3 2 3.22386 2 3.5C2 3.77614 2.22386 4 2.5 4H3V6H2.5C2.22386 6 2 6.22386 2 6.5C2 6.53349 2.00329 6.56621 2.00957 6.59785C2.77103 6.20878 3.62066 6 4.5 6H4V4H4.5C4.77614 4 5 3.77614 5 3.5C5 3.22386 4.77614 3 4.5 3H4C4 2.44772 4.44772 2 5 2H12C12.5523 2 13 2.44772 13 3V13C13 13.5523 12.5523 14 12 14H9.39841C9.21513 14.3577 8.9938 14.6928 8.7398 15H12C13.1046 15 14 14.1046 14 13V3C14 1.89543 13.1046 1 12 1H5Z" fill="#202020"/>
<path d="M9 11.5C9 13.981 6.981 16 4.5 16C3.195 16 1.956 15.435 1.101 14.448C0.92 14.24 0.942 13.924 1.151 13.743C1.359 13.561 1.675 13.584 1.856 13.793C2.522 14.56 3.486 15 4.501 15C6.431 15 8.001 13.43 8.001 11.5C8.001 9.57 6.431 8 4.501 8C3.578 8 2.702 8.37 2.056 9H2.501C2.777 9 3.001 9.224 3.001 9.5C3.001 9.776 2.777 10 2.501 10H0.5C0.224 10 0 9.776 0 9.5V7.5C0 7.224 0.224 7 0.5 7C0.776 7 1 7.224 1 7.5V8.681C1.847 7.633 3.133 7 4.5 7C6.981 7 9 9.019 9 11.5ZM4.5 9C4.224 9 4 9.224 4 9.5V11.5C4 11.776 4.224 12 4.5 12H6C6.276 12 6.5 11.776 6.5 11.5C6.5 11.224 6.276 11 6 11H5V9.5C5 9.224 4.776 9 4.5 9Z" fill="#202020"/>
</svg>
