<svg  viewBox="0 0 16 16" fill="none" xmlns="http://www.w3.org/2000/svg">
<path opacity="0.1" d="M5.5 11.531V11.195C5.5 10.554 5.153 9.987 4.629 9.618C3.122 8.559 2.225 6.693 2.577 4.645C2.915 2.676 4.467 1.052 6.423 0.643999C9.654 -0.0310007 12.5 2.418 12.5 5.531C12.5 6.054 12.411 6.553 12.262 7.026C12.173 7.021 12.089 6.999 12 6.999C9.404 6.999 7.288 8.996 7.047 11.53H5.5V11.531Z" fill="#B27D00"/>
<path d="M7.003 12.03H5.501L5 11.531C5 10.758 4.744 10.405 4.171 9.908C2.772 8.692 2 7.138 2 5.531C2 2.498 4.468 0.0310001 7.5 0.0310001C10.532 0.0310001 13 2.498 13 5.531C13 6.055 12.91 6.573 12.75 7.076C12.503 7.038 12.257 7 12 7C11.902 7 11.81 7.023 11.713 7.029C11.886 6.579 12 6.083 12 5.531C12 3.05 9.981 1.031 7.5 1.031C5.019 1.031 3 3.05 3 5.531C3 7.214 3.993 8.429 4.827 9.152C5.436 9.682 5.851 10.203 5.967 11.03H7.098C7.036 11.344 7 11.668 7 12C7 12.01 7.003 12.02 7.003 12.03Z" fill="#B27D00"/>
<path d="M7.5 3.031C6.121 3.031 5 4.152 5 5.531C5 6.739 5.86 7.748 7 7.98V11.031H7.098C7.244 10.29 7.564 9.616 8 9.031V7.981C9.14 7.749 10 6.739 10 5.532C10 4.153 8.879 3.032 7.5 3.032V3.031ZM7.5 7.031C6.673 7.031 6 6.358 6 5.531C6 4.704 6.673 4.031 7.5 4.031C8.327 4.031 9 4.704 9 5.531C9 6.358 8.327 7.031 7.5 7.031Z" fill="#B27D00"/>
<path opacity="0.1" d="M7.713 14.531H5.5V11.531H7.047C7.032 11.688 7 11.839 7 12C7 12.927 7.271 13.786 7.713 14.531Z" fill="#1F1F1F"/>
<path d="M8.051 15.031H5.5L5 14.531V11.531L5.5 11.031H7.098C7.036 11.345 7 11.668 7 12C7 12.011 7.003 12.021 7.003 12.031H6V14.031H7.441C7.602 14.392 7.813 14.721 8.052 15.031H8.051Z" fill="#1F1F1F"/>
<path d="M12 8C9.794 8 8 9.794 8 12C8 14.206 9.794 16 12 16C14.206 16 16 14.206 16 12C16 9.794 14.206 8 12 8Z" fill="#C50F1F"/>
<path d="M12.707 12L13.853 13.146L13.146 13.853L12 12.707L10.854 13.853L10.147 13.146L11.293 12L10.147 10.854L10.854 10.147L12 11.293L13.146 10.147L13.853 10.854L12.707 12Z" fill="white"/>
</svg>
