<svg width="16" height="16" viewBox="0 0 16 16" fill="none" xmlns="http://www.w3.org/2000/svg">
<path d="M8.5 11V5H9.5C9.776 5 10 4.776 10 4.5C10 4.224 9.776 4 9.5 4H6.5C6.224 4 6 4.224 6 4.5C6 4.776 6.224 5 6.5 5H7.5V11H7.28877C7.23393 11.1558 7.15306 11.3036 7.04695 11.436L6.5958 12H9.5C9.776 12 10 11.776 10 11.5C10 11.224 9.776 11 9.5 11H8.5Z" fill="#202020"/>
<path d="M1.64198 16C1.32998 16 1.04398 15.858 0.856984 15.61C0.668984 15.362 0.608984 15.048 0.692984 14.748L1.46498 12H0.499984C0.340984 12 0.190984 11.924 0.0969841 11.796C0.00298412 11.668 -0.0240159 11.502 0.0229841 11.351L1.27298 7.351C1.33798 7.142 1.53198 7 1.75098 7H4.87598C5.03998 7 5.19298 7.081 5.28698 7.215C5.37998 7.35 5.40098 7.522 5.34398 7.675L4.47298 9.999H5.87598C6.06798 9.999 6.24298 10.109 6.32598 10.282C6.40998 10.455 6.38698 10.661 6.26598 10.811L2.41198 15.629C2.22398 15.863 1.94398 15.999 1.64198 15.999V16Z" fill="#B27C00"/>
</svg>
