<svg width="16" height="16" viewBox="0 0 16 16" fill="none" xmlns="http://www.w3.org/2000/svg">
<path d="M14 5H7C6.449 5 6 4.551 6 4V2C6 1.449 6.449 1 7 1H14C14.551 1 15 1.449 15 2V4C15 4.551 14.551 5 14 5ZM7 2V4H14V2H7ZM14 15H7C6.449 15 6 14.551 6 14V12C6 11.449 6.449 11 7 11H14C14.551 11 15 11.449 15 12V14C15 14.551 14.551 15 14 15ZM7 12V14H14V12H7Z" fill="#202020"/>
<path d="M2.49996 5C2.37196 5 2.24396 4.952 2.14596 4.854H2.14796L0.647959 3.354C0.452959 3.159 0.452959 2.842 0.647959 2.647C0.842959 2.452 1.15996 2.452 1.35496 2.647L2.00096 3.293V0.5C2.00096 0.224 2.22496 0 2.50096 0C2.77696 0 3.00096 0.224 3.00096 0.5V3.293L3.64696 2.647C3.84196 2.452 4.15896 2.452 4.35396 2.647C4.54896 2.842 4.54896 3.159 4.35396 3.354L2.85396 4.854C2.75596 4.951 2.62796 5 2.49996 5Z" fill="#006CBF"/>
<path fill-rule="evenodd" clip-rule="evenodd" d="M2 6H9C9.551 6 10 6.449 10 7V9C10 9.551 9.551 10 9 10H2C1.449 10 1 9.551 1 9V7C1 6.449 1.449 6 2 6ZM2 9H9V7H2V9Z" fill="#006CBF"/>
</svg>
