<svg width="12" height="12" viewBox="0 0 12 12" fill="none" xmlns="http://www.w3.org/2000/svg">
<g clip-path="url(#clip0_862_4501)">
<path opacity="0.1" d="M10 4.5C10 5.887 9.293 7.105 8.221 7.821C7.782 8.114 7.5 8.588 7.5 9.116V9.499H4.5V9.117C4.5 8.587 4.214 8.112 3.774 7.817C2.544 6.992 1.797 5.507 2.049 3.865C2.316 2.131 3.768 0.735 5.51 0.528C7.938 0.24 10 2.128 10 4.499V4.5Z" fill="#B27D00"/>
<path d="M10.5 4.5C10.5 6.003 9.752 7.4 8.498 8.237C8.186 8.446 8 8.775 8 9.117V9.5H7V9.117C7 8.441 7.353 7.801 7.942 7.406C8.918 6.755 9.5 5.668 9.5 4.5C9.5 3.5 9.071 2.546 8.323 1.882C7.565 1.209 6.585 0.905 5.568 1.026C4.047 1.207 2.775 2.433 2.543 3.942C2.333 5.311 2.911 6.637 4.052 7.403C4.646 7.801 5 8.442 5 9.118V9.5H4V9.118C4 8.771 3.815 8.449 3.495 8.233C2.028 7.25 1.285 5.547 1.555 3.79C1.854 1.846 3.492 0.266 5.451 0.0329999C6.74 -0.119 8.027 0.282 8.987 1.135C9.948 1.989 10.5 3.216 10.5 4.501V4.5ZM6.5 6.429V9.5H5.5V6.429C4.64 6.205 4 5.429 4 4.5C4 3.397 4.897 2.5 6 2.5C7.103 2.5 8 3.397 8 4.5C8 5.429 7.36 6.205 6.5 6.429ZM7 4.5C7 3.949 6.552 3.5 6 3.5C5.448 3.5 5 3.949 5 4.5C5 5.051 5.448 5.5 6 5.5C6.552 5.5 7 5.051 7 4.5Z" fill="#B27D00"/>
<path opacity="0.1" d="M7.5 9.5V11.5H4.5V9.5H7.5Z" fill="#1F1F1F"/>
<path d="M7.5 9H4.5L4 9.5V11.5L4.5 12H7.5L8 11.5V9.5L7.5 9ZM7 11H5V10H7V11Z" fill="#1F1F1F"/>
</g>
<defs>
<clipPath id="clip0_862_4501">
<rect width="12" height="12" fill="white"/>
</clipPath>
</defs>
</svg>
