<svg width="16" height="16" viewBox="0 0 16 16" fill="none" xmlns="http://www.w3.org/2000/svg">
<g clip-path="url(#clip0_7202_69493)">
<path d="M6.51546 13.8278C6.37425 13.526 6.25965 13.2092 6.17469 12.8805C5.81479 12.9576 5.42279 13 5 13C2.43216 13 1 11.4376 1 10V9.5C1 9.22386 1.22386 9 1.5 9H6.59971C6.78261 8.64222 7.00353 8.30711 7.25716 8H1.5C0.671573 8 0 8.67157 0 9.5V10C0 11.9714 1.85951 14 5 14C5.54469 14 6.05085 13.939 6.51546 13.8278Z" fill="#202020"/>
<path fill-rule="evenodd" clip-rule="evenodd" d="M7.75 4.25C7.75 2.73122 6.51878 1.5 5 1.5C3.48122 1.5 2.25 2.73122 2.25 4.25C2.25 5.76878 3.48122 7 5 7C6.51878 7 7.75 5.76878 7.75 4.25ZM3.25 4.25C3.25 3.2835 4.0335 2.5 5 2.5C5.9665 2.5 6.75 3.2835 6.75 4.25C6.75 5.2165 5.9665 6 5 6C4.0335 6 3.25 5.2165 3.25 4.25Z" fill="#202020"/>
<path fill-rule="evenodd" clip-rule="evenodd" d="M8.99994 7.75839C9.73996 7.26392 10.61 7 11.5 7C12.6935 7 13.8381 7.47411 14.682 8.31802C15.5259 9.16193 16 10.3065 16 11.5C16 12.39 15.7361 13.26 15.2416 14.0001C14.7471 14.7401 14.0443 15.3169 13.2221 15.6575C12.3998 15.9981 11.495 16.0872 10.6221 15.9135C9.74918 15.7399 8.94736 15.3113 8.31802 14.682C7.68868 14.0526 7.2601 13.2508 7.08647 12.3779C6.91283 11.505 7.00195 10.6002 7.34254 9.77792C7.68314 8.95566 8.25991 8.25285 8.99994 7.75839ZM9.5 12H13.5C13.6326 12 13.7598 11.9473 13.8536 11.8536C13.9473 11.7598 14 11.6326 14 11.5C14 11.3674 13.9473 11.2402 13.8536 11.1464C13.7598 11.0527 13.6326 11 13.5 11H9.5C9.36739 11 9.24021 11.0527 9.14645 11.1464C9.05268 11.2402 9 11.3674 9 11.5C9 11.6326 9.05268 11.7598 9.14645 11.8536C9.24021 11.9473 9.36739 12 9.5 12Z" fill="#C50F1F"/>
</g>
<defs>
<clipPath id="clip0_7202_69493">
<rect width="16" height="16" fill="white"/>
</clipPath>
</defs>
</svg>
