<svg width="16" height="16" viewBox="0 0 16 16" fill="none" xmlns="http://www.w3.org/2000/svg">
<path d="M8.49988 8.27506V10.5C8.49988 10.7761 8.72374 11 8.99988 11C9.27603 11 9.49988 10.7761 9.49988 10.5V7.3297L12.6968 5.95958C12.9507 5.8508 13.0682 5.55686 12.9595 5.30305C12.8507 5.04923 12.5567 4.93166 12.3029 5.04043L9.7535 6.13304C9.50192 6.94327 9.06807 7.67326 8.49988 8.27506Z" fill="#5C2E91"/>
<path d="M9.51889 2.24707C9.34789 1.86672 9.13492 1.50931 8.88588 1.18076C9.28887 1.16542 9.69422 1.23135 10.0769 1.37855L15.0385 3.28683C15.6178 3.50964 16 4.06619 16 4.68685V11.3133C16 11.9339 15.6178 12.4905 15.0385 12.7133L10.0769 14.6216C9.38373 14.8882 8.61627 14.8882 7.92306 14.6216L2.96153 12.7133C2.38224 12.4905 2 11.9339 2 11.3133L2 9.40029C2.31679 9.56223 2.65136 9.69436 3 9.79297V11.3133C3 11.5201 3.12741 11.7057 3.32051 11.7799L8.28204 13.6882C8.74418 13.866 9.25582 13.866 9.71796 13.6882L14.6795 11.7799C14.8726 11.7057 15 11.5201 15 11.3133V4.68685C15 4.47997 14.8726 4.29445 14.6795 4.22018L9.71796 2.3119C9.6525 2.28672 9.58605 2.26511 9.51889 2.24707Z" fill="#5C2E91"/>
<path fill-rule="evenodd" clip-rule="evenodd" d="M1.99994 0.758387C2.73996 0.26392 3.60999 0 4.5 0C5.69348 0 6.83807 0.474106 7.68198 1.31802C8.5259 2.16193 9 3.30653 9 4.5C9 5.39002 8.73608 6.26004 8.24162 7.00007C7.74715 7.74009 7.04434 8.31686 6.22208 8.65746C5.39981 8.99805 4.49501 9.08717 3.6221 8.91353C2.74918 8.7399 1.94736 8.31132 1.31802 7.68198C0.688685 7.05264 0.260102 6.25082 0.0864683 5.37791C-0.0871652 4.50499 0.00194976 3.60019 0.342544 2.77792C0.683138 1.95566 1.25991 1.25285 1.99994 0.758387ZM6.713 4.937L3.743 6.587C3.66689 6.62932 3.58104 6.65103 3.49396 6.64998C3.40688 6.64893 3.32158 6.62515 3.24652 6.581C3.17145 6.53685 3.10922 6.47386 3.06598 6.39826C3.02274 6.32266 3 6.23708 3 6.15V2.85C3 2.76291 3.02274 2.67733 3.06598 2.60173C3.10922 2.52614 3.17145 2.46315 3.24652 2.41899C3.32158 2.37484 3.40688 2.35106 3.49396 2.35001C3.58104 2.34896 3.66689 2.37067 3.743 2.413L6.713 4.063C6.79091 4.10631 6.85582 4.16967 6.90101 4.2465C6.94621 4.32334 6.97004 4.41086 6.97004 4.5C6.97004 4.58914 6.94621 4.67666 6.90101 4.75349C6.85582 4.83033 6.79091 4.89368 6.713 4.937Z" fill="#11910D"/>
</svg>
