<svg width="16" height="16" viewBox="0 0 16 16" fill="none" xmlns="http://www.w3.org/2000/svg">
<path d="M3.5 9C3.224 9 3 9.224 3 9.5C3 9.776 3.224 10 3.5 10C3.776 10 4 9.776 4 9.5C4 9.224 3.776 9 3.5 9ZM7.5 9C7.224 9 7 9.224 7 9.5C7 9.776 7.224 10 7.5 10C7.776 10 8 9.776 8 9.5C8 9.224 7.776 9 7.5 9ZM11.5 9C11.224 9 11 9.224 11 9.5C11 9.776 11.224 10 11.5 10C11.776 10 12 9.776 12 9.5C12 9.224 11.776 9 11.5 9ZM13 5H2C0.897 5 0 5.897 0 7V10C0 11.103 0.897 12 2 12H13C14.103 12 15 11.103 15 10V7C15 5.897 14.103 5 13 5ZM14 10C14 10.551 13.552 11 13 11H2C1.448 11 1 10.551 1 10V7C1 6.449 1.448 6 2 6H13C13.552 6 14 6.449 14 7V10Z" fill="#202020"/>
</svg>
