<svg width="16" height="16" viewBox="0 0 16 16" fill="none" xmlns="http://www.w3.org/2000/svg">
<path d="M5.38796 12.4952C5.45296 12.5232 5.51896 12.5362 5.58496 12.5362C5.74839 12.5362 5.90681 12.4544 6.0007 12.3146L6.00086 11.7581C5.94883 11.6804 5.8744 11.6165 5.78196 11.5772C5.22696 11.3392 4.73796 11.0042 4.33096 10.5802C4.13896 10.3802 3.82396 10.3752 3.62396 10.5662C3.42496 10.7572 3.41896 11.0742 3.60996 11.2732C4.11096 11.7932 4.70896 12.2042 5.38796 12.4952Z" fill="#202020"/>
<path d="M2.45196 9.45819C2.52996 9.65419 2.71796 9.77318 2.91696 9.77318C2.97896 9.77318 3.04096 9.76219 3.10196 9.73818C3.35896 9.63618 3.48396 9.34518 3.38196 9.08918C3.16596 8.54618 3.03996 7.95318 3.00796 7.32718C2.99396 7.05018 2.74796 6.83419 2.48296 6.85319C2.20696 6.86719 1.99496 7.10219 2.00896 7.37819C2.04696 8.11419 2.19596 8.81419 2.45196 9.45819Z" fill="#202020"/>
<path d="M13.346 9.46618C13.366 9.46918 13.385 9.46918 13.405 9.46918C13.655 9.46918 13.871 9.28218 13.901 9.02818C13.967 8.46818 13.999 7.80519 13.999 7.01019C13.999 6.99119 13.995 6.89518 13.993 6.87618C13.968 6.61019 13.753 6.44418 13.473 6.46318C13.207 6.47618 12.999 6.73419 12.999 7.00119C12.999 7.76519 12.97 8.39019 12.908 8.91119C12.876 9.18519 13.072 9.43419 13.346 9.46618Z" fill="#202020"/>
<path d="M11.963 5.99018C12.035 6.02718 12.112 6.04419 12.188 6.04419C12.371 6.04419 12.547 5.94418 12.635 5.77018C12.759 5.52318 12.661 5.22319 12.414 5.09819C11.771 4.77319 11.033 4.56618 10.337 4.51319C10.058 4.49219 9.82196 4.69818 9.80096 4.97418C9.77996 5.24919 9.98696 5.48919 10.262 5.51019C10.822 5.55219 11.442 5.72718 11.963 5.99018Z" fill="#202020"/>
<path d="M2.51796 5.87919C2.53096 5.88019 2.54496 5.88019 2.55796 5.88019C2.81596 5.88019 3.03496 5.68219 3.05596 5.42019C3.11396 4.69519 3.21896 4.07719 3.36796 3.58319C3.44796 3.31819 3.29796 3.04018 3.03396 2.96019C2.76796 2.87919 2.49096 3.02919 2.41096 3.29419C2.23896 3.86419 2.12296 4.53319 2.05896 5.34119C2.03696 5.61619 2.24296 5.85719 2.51796 5.87919Z" fill="#202020"/>
<path d="M8.14996 4.72719C8.24796 4.82619 8.37696 4.87618 8.50596 4.87618C8.63296 4.87618 8.75996 4.82918 8.85696 4.73318C9.05396 4.53918 9.05596 4.22319 8.86296 4.02619C8.61696 3.77718 8.40696 3.44918 8.18496 3.10118C8.05096 2.89118 7.91496 2.68018 7.76796 2.47719C7.60596 2.25418 7.29296 2.20318 7.06996 2.36618C6.84696 2.52818 6.79696 2.84119 6.95896 3.06419C7.09396 3.25119 7.21896 3.44618 7.34196 3.63918L7.3464 3.64612C7.58601 4.01995 7.83292 4.40518 8.14996 4.72719Z" fill="#202020"/>
<path d="M3.51396 2.08718C3.61096 2.23018 3.76896 2.30819 3.92996 2.30819C4.02596 2.30819 4.12296 2.28119 4.20896 2.22319C4.61296 1.95119 5.23096 1.95918 5.69396 2.08718C5.95796 2.15918 6.23496 2.00518 6.30896 1.73818C6.38196 1.47218 6.22596 1.19718 5.95996 1.12318C5.22996 0.921185 4.29996 0.957185 3.64996 1.39318C3.42096 1.54718 3.35996 1.85818 3.51396 2.08718Z" fill="#202020"/>
<path d="M13.723 11.668C14.268 12.114 13.953 12.999 13.248 12.999H10.262C10.105 12.999 9.958 13.072 9.863 13.198L8.348 15.203C7.914 15.777 6.999 15.47 7 14.751L7.002 7.75101C7.002 7.11801 7.737 6.77001 8.227 7.17101L13.723 11.668Z" fill="#006CBF"/>
</svg>
