<svg width="16" height="16" viewBox="0 0 16 16" fill="none" xmlns="http://www.w3.org/2000/svg">
<path d="M3 5H2C1.449 5 1 4.551 1 4V3C1 2.449 1.449 2 2 2H3C3.551 2 4 2.449 4 3V4C4 4.551 3.551 5 3 5ZM2 3V4H3V3H2ZM8 5H7C6.449 5 6 4.551 6 4V3C6 2.449 6.449 2 7 2H8C8.551 2 9 2.449 9 3V4C9 4.551 8.551 5 8 5ZM7 3V4H8V3H7ZM13 5H12C11.449 5 11 4.551 11 4V3C11 2.449 11.449 2 12 2H13C13.551 2 14 2.449 14 3V4C14 4.551 13.551 5 13 5ZM12 3V4H13V3H12ZM4 6.5C4 6.224 3.776 6 3.5 6H1.5C1.224 6 1 6.224 1 6.5C1 6.776 1.224 7 1.5 7H3.5C3.776 7 4 6.776 4 6.5ZM9 6.5C9 6.224 8.776 6 8.5 6H6.5C6.224 6 6 6.224 6 6.5C6 6.776 6.224 7 6.5 7H8.5C8.776 7 9 6.776 9 6.5ZM3 12H2C1.449 12 1 11.551 1 11V10C1 9.449 1.449 9 2 9H3C3.551 9 4 9.449 4 10V11C4 11.551 3.551 12 3 12ZM2 10V11H3V10H2ZM8 12H7C6.449 12 6 11.551 6 11V10C6 9.449 6.449 9 7 9H8C8.551 9 9 9.449 9 10V11C9 11.551 8.551 12 8 12ZM7 10V11H8V10H7ZM4 13.5C4 13.224 3.776 13 3.5 13H1.5C1.224 13 1 13.224 1 13.5C1 13.776 1.224 14 1.5 14H3.5C3.776 14 4 13.776 4 13.5ZM9 13.5C9 13.224 8.776 13 8.5 13H6.5C6.224 13 6 13.224 6 13.5C6 13.776 6.224 14 6.5 14H8.5C8.776 14 9 13.776 9 13.5ZM14 6.5C14 6.224 13.776 6 13.5 6H11.5C11.224 6 11 6.224 11 6.5C11 6.776 11.224 7 11.5 7H13.5C13.776 7 14 6.776 14 6.5Z" fill="#202020"/>
</svg>
