<svg width="16" height="16" viewBox="0 0 16 16" fill="none" xmlns="http://www.w3.org/2000/svg">
<path d="M15 8C15 8.276 14.776 8.5 14.5 8.5H1.5C1.224 8.5 1 8.276 1 8C1 7.724 1.224 7.5 1.5 7.5H14.5C14.776 7.5 15 7.724 15 8ZM4.146 5.854C4.244 5.952 4.372 6 4.5 6C4.628 6 4.756 5.951 4.854 5.854L6.354 4.354C6.549 4.159 6.549 3.842 6.354 3.647C6.159 3.452 5.842 3.452 5.647 3.647L5.001 4.293V1.5C5.001 1.224 4.777 1 4.501 1C4.225 1 4.001 1.224 4.001 1.5V4.293L3.355 3.647C3.16 3.452 2.843 3.452 2.648 3.647C2.453 3.842 2.453 4.159 2.648 4.354L4.148 5.854H4.146ZM11.146 5.854C11.244 5.952 11.372 6 11.5 6C11.628 6 11.756 5.951 11.854 5.854L13.354 4.354C13.549 4.159 13.549 3.842 13.354 3.647C13.159 3.452 12.842 3.452 12.647 3.647L12.001 4.293V1.5C12.001 1.224 11.777 1 11.501 1C11.225 1 11.001 1.224 11.001 1.5V4.293L10.355 3.647C10.16 3.452 9.843 3.452 9.648 3.647C9.453 3.842 9.453 4.159 9.648 4.354L11.148 5.854H11.146ZM12.646 12.647L12 13.293V10.5C12 10.224 11.776 10 11.5 10C11.224 10 11 10.224 11 10.5V13.293L10.354 12.647C10.159 12.452 9.842 12.452 9.647 12.647C9.452 12.842 9.452 13.159 9.647 13.354L11.147 14.854C11.245 14.952 11.373 15 11.501 15C11.629 15 11.757 14.951 11.855 14.854L13.355 13.354C13.55 13.159 13.55 12.842 13.355 12.647C13.16 12.452 12.843 12.452 12.648 12.647H12.646Z" fill="#202020"/>
</svg>
