<svg width="16" height="16" viewBox="0 0 16 16" fill="none" xmlns="http://www.w3.org/2000/svg">
<g clip-path="url(#clip0_7202_73348)">
<path fill-rule="evenodd" clip-rule="evenodd" d="M2.5 2C1.67157 2 1 2.67157 1 3.5V12.5C1 13.3284 1.67157 14 2.5 14H6C6.51954 14 7.00207 13.8415 7.40187 13.5703C7.58367 12.9913 7.90267 12.4635 8.33303 12.0325L8.53626 11.8293C8.51253 11.7233 8.5 11.6131 8.5 11.5V4.5C8.5 3.67157 9.17157 3 10 3H13.5C13.7761 3 14 3.22386 14 3.5V7.03113C14.1423 7.00669 14.2873 6.99418 14.4335 6.99418C14.6257 6.99418 14.8156 7.01577 15 7.05761V3.5C15 2.67157 14.3284 2 13.5 2H10C9.1822 2 8.45612 2.39267 8 2.99976C7.54389 2.39267 6.8178 2 6 2H2.5ZM7.5 4.5V11.5C7.5 12.3284 6.82843 13 6 13H2.5C2.22386 13 2 12.7761 2 12.5V3.5C2 3.22386 2.22386 3 2.5 3H6C6.82843 3 7.5 3.67157 7.5 4.5Z" fill="#202020"/>
<path d="M15.5449 8.45394C15.2519 8.1616 14.8549 7.99741 14.4409 7.99741C14.027 7.99741 13.63 8.1616 13.3369 8.45394L9.04895 12.7414C8.69299 13.0975 8.44065 13.5437 8.31895 14.0322L8.01895 15.2431C7.99361 15.3451 7.99509 15.452 8.02324 15.5533C8.0514 15.6547 8.10528 15.747 8.17964 15.8213C8.25401 15.8957 8.34633 15.9495 8.44766 15.9777C8.54899 16.0059 8.65588 16.0073 8.75795 15.982L9.96895 15.682C10.4572 15.5598 10.9031 15.3071 11.2589 14.9511L15.5479 10.6637C15.6931 10.5185 15.8081 10.3461 15.8865 10.1564C15.9649 9.96673 16.0051 9.76344 16.0049 9.55818C16.0046 9.35293 15.9638 9.14974 15.8849 8.96026C15.806 8.77078 15.6905 8.59872 15.5449 8.45394V8.45394Z" fill="#006CBF"/>
</g>
<defs>
<clipPath id="clip0_7202_73348">
<rect width="16" height="16" fill="white"/>
</clipPath>
</defs>
</svg>
