<svg width="16" height="16" viewBox="0 0 16 16" fill="none" xmlns="http://www.w3.org/2000/svg">
<path fill-rule="evenodd" clip-rule="evenodd" d="M2 4.5C2 3.11929 3.11929 2 4.5 2H11.5C12.8807 2 14 3.11929 14 4.5V11.5C14 12.8807 12.8807 14 11.5 14H10.4141L9.41406 13H11.5C12.3284 13 13 12.3284 13 11.5V6H3V6.58594L2 5.58594V4.5ZM3 5H13V4.5C13 3.67157 12.3284 3 11.5 3H4.5C3.67157 3 3 3.67157 3 4.5V5Z" fill="#202020"/>
<path d="M2.00566 11.6696C2.0891 12.9152 3.08483 13.9109 4.3304 13.9943L2.00566 11.6696Z" fill="#202020"/>
<path d="M2 7L9 14H6.164C5.89881 13.9999 5.64449 13.8945 5.457 13.707L2.293 10.543C2.10545 10.3555 2.00006 10.1012 2 9.836V7Z" fill="#202020"/>
</svg>
