<svg width="16" height="16" viewBox="0 0 16 16" fill="none" xmlns="http://www.w3.org/2000/svg">
<path d="M14.039 3.287L8.898 1.309C8.319 1.086 7.682 1.086 7.103 1.309L1.961 3.287C1.386 3.509 1 4.07 1 4.686V11.313C1 11.929 1.387 12.492 1.961 12.712L7.102 14.69C7.392 14.801 7.695 14.857 7.999 14.857C8.303 14.857 8.607 14.801 8.896 14.69L14.037 12.712C14.612 12.491 14.999 11.929 14.999 11.313V4.686C14.999 4.07 14.613 3.507 14.039 3.287ZM7.462 2.243C7.635 2.176 7.818 2.142 8 2.142C8.182 2.142 8.365 2.175 8.538 2.243L13.473 4.141L11.087 5.151L8.566 4.182C8.202 4.041 7.799 4.041 7.434 4.182L4.913 5.151L2.527 4.141L7.462 2.243ZM5 6.274L7.5 7.332V10.77L5 9.785V6.274ZM8.5 7.332L10.997 6.275L10.975 9.819L8.5 10.772V7.332ZM8 6.458L6.24 5.713L7.792 5.116C7.926 5.065 8.074 5.065 8.207 5.116L9.76 5.713L8 6.458ZM2.32 11.78C2.129 11.707 2 11.519 2 11.314V5.005L4 5.851V9.784C4 10.212 4.268 10.601 4.666 10.753L7.435 11.818C7.456 11.826 7.479 11.823 7.501 11.83V13.763C7.489 13.759 7.475 13.761 7.463 13.756L2.321 11.778L2.32 11.78ZM13.679 11.78L8.538 13.758C8.526 13.763 8.512 13.761 8.5 13.765V11.832C8.522 11.825 8.545 11.828 8.566 11.82L11.332 10.756C11.731 10.604 11.999 10.214 11.999 9.786V5.853L13.999 5.007V11.316C13.999 11.521 13.87 11.709 13.678 11.782L13.679 11.78Z" fill="#DE590B"/>
</svg>
