<svg width="16" height="16" viewBox="0 0 16 16" fill="none" xmlns="http://www.w3.org/2000/svg">
<path fill-rule="evenodd" clip-rule="evenodd" d="M2 4.5C2 3.11929 3.11929 2 4.5 2H11.5C12.8807 2 14 3.11929 14 4.5V11.5C14 12.8807 12.8807 14 11.5 14H8.91218C8.96883 13.844 9 13.676 9 13.5C9 13.324 8.96883 13.156 8.91218 13H11.5C12.3284 13 13 12.3284 13 11.5V6H3V10H2V4.5ZM3 5H13V4.5C13 3.67157 12.3284 3 11.5 3H4.5C3.67157 3 3 3.67157 3 4.5V5Z" fill="#202020"/>
<path d="M4.5 12H0.5C0.224 12 0 11.776 0 11.5C0 11.224 0.224 11 0.5 11H4.5C4.776 11 5 11.224 5 11.5C5 11.776 4.776 12 4.5 12ZM8 11.5C8 11.224 7.776 11 7.5 11H6.5C6.224 11 6 11.224 6 11.5C6 11.776 6.224 12 6.5 12H7.5C7.776 12 8 11.776 8 11.5ZM5 13.5C5 13.224 4.776 13 4.5 13H0.5C0.224 13 0 13.224 0 13.5C0 13.776 0.224 14 0.5 14H4.5C4.776 14 5 13.776 5 13.5ZM8 13.5C8 13.224 7.776 13 7.5 13H6.5C6.224 13 6 13.224 6 13.5C6 13.776 6.224 14 6.5 14H7.5C7.776 14 8 13.776 8 13.5ZM5 15.5C5 15.224 4.776 15 4.5 15H0.5C0.224 15 0 15.224 0 15.5C0 15.776 0.224 16 0.5 16H4.5C4.776 16 5 15.776 5 15.5ZM8 15.5C8 15.224 7.776 15 7.5 15H6.5C6.224 15 6 15.224 6 15.5C6 15.776 6.224 16 6.5 16H7.5C7.776 16 8 15.776 8 15.5Z" fill="#DE590B"/>
</svg>
