<svg width="16" height="16" viewBox="0 0 16 16" fill="none" xmlns="http://www.w3.org/2000/svg">
<g clip-path="url(#clip0_7202_73324)">
<path fill-rule="evenodd" clip-rule="evenodd" d="M5.5 1H13C14.103 1 15 1.897 15 3V4C15 4.551 14.552 5 14 5H12V13C12 14.103 11.103 15 10 15H8.74364C9.03218 14.6505 9.27836 14.2647 9.47434 13.8505C9.6271 13.9452 9.80721 14 10 14C10.552 14 11 13.551 11 13V3C11 2.636 11.098 2.294 11.269 2H5.5C4.673 2 4 2.673 4 3.5V6.0234C3.65659 6.05434 3.32228 6.11686 3 6.20801V3.5C3 2.122 4.121 1 5.5 1ZM13 2C12.448 2 12 2.449 12 3V4H14V3C14 2.449 13.552 2 13 2Z" fill="#202020"/>
<path d="M3.01115 11.001H5.98915C5.96386 9.97881 5.74959 8.97015 5.35715 8.02598C4.93515 7.10098 4.55715 7.00098 4.50015 7.00098C4.44315 7.00098 4.06515 7.10098 3.64315 8.02598C3.25071 8.97015 3.03643 9.97881 3.01115 11.001V11.001ZM0.0271454 11.001C0.119033 10.1814 0.43439 9.4028 0.938769 8.75029C1.44315 8.09777 2.11715 7.59641 2.88715 7.30098C2.32984 8.45608 2.03059 9.71862 2.01015 11.001H0.0271454ZM0.0271454 12.001H2.01015C2.03059 13.2833 2.32984 14.5459 2.88715 15.701C2.11715 15.4055 1.44315 14.9042 0.938769 14.2517C0.43439 13.5991 0.119033 12.8206 0.0271454 12.001ZM4.50015 16.001C4.44315 16.001 4.06515 15.901 3.64315 14.976C3.25071 14.0318 3.03643 13.0231 3.01115 12.001H5.98915C5.96386 13.0231 5.74959 14.0318 5.35715 14.976C4.93515 15.901 4.55715 16.001 4.50015 16.001ZM8.97314 12.001C8.88126 12.8206 8.5659 13.5991 8.06152 14.2517C7.55714 14.9042 6.88314 15.4055 6.11315 15.701C6.67045 14.5459 6.9697 13.2833 6.99015 12.001H8.97314ZM6.11315 7.30098C6.88314 7.59641 7.55714 8.09777 8.06152 8.75029C8.5659 9.4028 8.88126 10.1814 8.97314 11.001H6.99015C6.9697 9.71862 6.67045 8.45608 6.11315 7.30098V7.30098Z" fill="#DE590B"/>
</g>
<defs>
<clipPath id="clip0_7202_73324">
<rect width="16" height="16" fill="white"/>
</clipPath>
</defs>
</svg>
