<svg width="16" height="16" viewBox="0 0 16 16" fill="none" xmlns="http://www.w3.org/2000/svg">
<path d="M5 4.51196V9.51196C5 9.83996 4.935 10.165 4.81 10.469C4.685 10.773 4.5 11.048 4.268 11.28C4.036 11.512 3.76 11.696 3.457 11.822C3.154 11.948 2.829 12.012 2.5 12.012C1.837 12.012 1.201 11.749 0.732 11.28C0.263 10.811 0 10.175 0 9.51196V9.01196C0 8.87896 0.053 8.75196 0.146 8.65796C0.24 8.56396 0.367 8.51196 0.5 8.51196C0.633 8.51196 0.76 8.56496 0.854 8.65796C0.948 8.75196 1 8.87896 1 9.01196V9.51196C1 9.90996 1.158 10.291 1.439 10.573C1.72 10.854 2.102 11.012 2.5 11.012C2.898 11.012 3.279 10.854 3.561 10.573C3.842 10.292 4 9.90996 4 9.51196V4.51196C4 4.37896 4.053 4.25196 4.146 4.15796C4.24 4.06396 4.367 4.01196 4.5 4.01196C4.633 4.01196 4.76 4.06496 4.854 4.15796C4.948 4.25196 5 4.37896 5 4.51196Z" fill="#DE590B"/>
<path d="M8.426 7.54403C7.383 7.15303 6.75 6.87103 6.75 6.26203C6.75 5.33903 7.558 5.01203 8.25 5.01203C8.942 5.01203 9.75 5.33903 9.75 6.26203C9.75 6.39503 9.803 6.52203 9.896 6.61603C9.99 6.71003 10.117 6.76203 10.25 6.76203C10.383 6.76203 10.51 6.70903 10.604 6.61603C10.698 6.52203 10.75 6.39503 10.75 6.26203C10.747 5.94603 10.679 5.63303 10.549 5.34503C10.419 5.05703 10.23 4.79803 9.995 4.58703C9.76 4.37503 9.483 4.21503 9.183 4.11603C8.625 3.93203 7.875 3.93203 7.317 4.11603C7.017 4.21503 6.74 4.37503 6.505 4.58703C6.27 4.79903 6.081 5.05703 5.951 5.34503C5.821 5.63303 5.752 5.94603 5.75 6.26203C5.75 7.60903 7.039 8.09203 8.074 8.48003C9.109 8.86803 9.75 9.15303 9.75 9.76203C9.75 10.685 8.942 11.012 8.25 11.012C7.558 11.012 6.75 10.685 6.75 9.76203C6.75 9.62903 6.697 9.50203 6.604 9.40803C6.51 9.31403 6.383 9.26203 6.25 9.26203C6.117 9.26203 5.99 9.31503 5.896 9.40803C5.802 9.50203 5.75 9.62903 5.75 9.76203C5.753 10.078 5.821 10.39 5.951 10.679C6.081 10.967 6.27 11.226 6.505 11.437C6.74 11.649 7.017 11.809 7.317 11.908C7.617 12.007 7.935 12.042 8.25 12.012C8.565 12.042 8.882 12.007 9.183 11.908C9.483 11.809 9.76 11.649 9.995 11.437C10.23 11.225 10.419 10.967 10.549 10.679C10.679 10.391 10.748 10.078 10.75 9.76203C10.75 8.41203 9.461 7.93203 8.426 7.54403Z" fill="#DE590B"/>
<path d="M15.934 11.2519C16.071 11.4919 15.988 11.7969 15.748 11.9339C15.67 11.9789 15.584 11.9999 15.5 11.9999C15.326 11.9999 15.158 11.9099 15.065 11.7479L13.499 9.00794L11.933 11.7479C11.841 11.9099 11.672 11.9999 11.498 11.9999C11.414 11.9999 11.329 11.9789 11.25 11.9339C11.01 11.7969 10.927 11.4919 11.064 11.2519L12.922 7.99994L11.064 4.74794C10.927 4.50794 11.01 4.20294 11.25 4.06594C11.49 3.92694 11.795 4.01194 11.932 4.25194L13.498 6.99194L15.064 4.25194C15.2 4.01194 15.505 3.92694 15.746 4.06594C15.986 4.20294 16.069 4.50794 15.932 4.74794L14.074 7.99994L15.932 11.2519H15.934Z" fill="#DE590B"/>
</svg>
