<svg width="16" height="16" viewBox="0 0 16 16" fill="none" xmlns="http://www.w3.org/2000/svg">
<path d="M2 2.5C2 2.776 1.776 3 1.5 3C1.224 3 1 2.776 1 2.5V2C1 1.448 1.448 1 2 1H2.5C2.776 1 3 1.224 3 1.5C3 1.776 2.776 2 2.5 2H2V2.5Z" fill="#202020"/>
<path d="M6.98699 3.43453C6.98399 3.41253 6.97999 3.39353 6.97399 3.37253C6.95099 3.28653 6.91399 3.20653 6.85199 3.14553L4.85299 1.14653C4.70899 1.00353 4.49499 0.962533 4.30799 1.03853C4.12099 1.11553 3.99899 1.29853 3.99899 1.50053V3.50053C3.99899 3.77653 4.22299 4.00053 4.49899 4.00053H5.99899V5.50053C5.99899 5.77653 6.22299 6.00053 6.49899 6.00053C6.77499 6.00053 6.99899 5.77653 6.99899 5.50053V3.50053C6.99899 3.48698 6.99552 3.47447 6.99206 3.46199C6.98964 3.45327 6.98723 3.44457 6.98599 3.43553L6.98699 3.43453Z" fill="#202020"/>
<path d="M2 5.5C2 5.776 1.776 6 1.5 6C1.224 6 1 5.776 1 5.5V4.5C1 4.224 1.224 4 1.5 4C1.776 4 2 4.224 2 4.5V5.5Z" fill="#202020"/>
<path d="M3.5 8.5C3.5 8.224 3.276 8 3 8H2V7.5C2 7.224 1.776 7 1.5 7C1.224 7 1 7.224 1 7.5V8C1 8.552 1.448 9 2 9H3C3.276 9 3.5 8.776 3.5 8.5Z" fill="#202020"/>
<path d="M6.5 7C6.224 7 6 7.224 6 7.5V8H5C4.724 8 4.5 8.224 4.5 8.5C4.5 8.776 4.724 9 5 9H6C6.552 9 7 8.552 7 8V7.5C7 7.224 6.776 7 6.5 7Z" fill="#202020"/>
<path fill-rule="evenodd" clip-rule="evenodd" d="M14.974 9.374C14.979 9.396 14.983 9.415 14.986 9.437L14.987 9.436C14.9883 9.44518 14.9907 9.45401 14.9932 9.46278C14.9966 9.47504 15 9.48718 15 9.5V14C15 14.551 14.551 15 14 15H10C9.449 15 9 14.551 9 14V8C9 7.449 9.449 7 10 7H12.5C12.5128 7 12.525 7.0034 12.5372 7.00682C12.546 7.00928 12.5548 7.01175 12.564 7.013C12.586 7.016 12.605 7.02 12.627 7.026C12.711 7.048 12.79 7.084 12.853 7.147L14.853 9.147C14.915 9.21 14.951 9.29 14.974 9.374ZM9.999 8.001V14.001H13.999V10.001H12.499C12.223 10.001 11.999 9.777 11.999 9.501V8.001H9.999Z" fill="#202020"/>
<path d="M3.99999 10.5L3.99999 11.75C3.99999 11.816 4.02599 11.88 4.07299 11.927C4.11999 11.974 4.18299 12 4.24999 12L6.29299 12L5.64699 11.354C5.45199 11.159 5.45199 10.842 5.64699 10.647C5.84199 10.452 6.15899 10.452 6.35399 10.647L7.85399 12.147C8.04899 12.342 8.04899 12.659 7.85399 12.854L6.35399 14.354C6.15899 14.549 5.84199 14.549 5.64699 14.354C5.45199 14.159 5.45199 13.842 5.64699 13.647L6.29299 13.001L4.24999 13.001C3.91799 13.001 3.60099 12.869 3.36599 12.635C3.13199 12.401 2.99999 12.083 2.99999 11.751L2.99999 10.5C2.99999 10.224 3.22399 10 3.49999 10C3.77599 10 3.99999 10.224 3.99999 10.5Z" fill="#006CBF"/>
</svg>
