<svg width="16" height="16" viewBox="0 0 16 16" fill="none" xmlns="http://www.w3.org/2000/svg">
<path d="M8.50003 2.75001C8.91424 2.75001 9.25003 3.0858 9.25003 3.50001C9.25003 3.91422 8.91424 4.25001 8.50003 4.25001C8.08582 4.25001 7.75003 3.91422 7.75003 3.50001C7.75003 3.0858 8.08582 2.75001 8.50003 2.75001Z" fill="#202020"/>
<path fill-rule="evenodd" clip-rule="evenodd" d="M5.50584 2.68365C5.17387 3.2316 4.99889 3.86024 5.00004 4.5009C5.00133 5.22296 5.22655 5.92684 5.64465 6.51553C5.9927 7.00558 6.46014 7.39572 7.00004 7.65061L7.00004 13.5C7.00004 13.6326 7.05271 13.7598 7.14648 13.8536L8.14648 14.8536C8.34174 15.0488 8.65833 15.0488 8.85359 14.8536L10.8536 12.8536C11.0489 12.6583 11.0489 12.3417 10.8536 12.1465L10.2071 11.5L10.8536 10.8536C11.0489 10.6583 11.0489 10.3417 10.8536 10.1465L10.2071 9.50001L10.8536 8.85356C11.0489 8.6583 11.0489 8.34172 10.8536 8.14646L10.2337 7.52653C10.6051 7.31351 10.9358 7.03313 11.208 6.698C11.6119 6.20068 11.8713 5.60192 11.9579 4.96714C12.0446 4.33236 11.955 3.68599 11.6991 3.09866C11.4432 2.51133 11.0308 2.00563 10.5069 1.63683C9.98308 1.26803 9.36793 1.05032 8.7287 1.00749C8.08948 0.964652 7.45077 1.09834 6.88239 1.39395C6.31401 1.68956 5.83781 2.13571 5.50584 2.68365ZM6.00003 4.49912C5.99922 4.04177 6.12413 3.59299 6.36112 3.20183C6.5981 2.81066 6.93805 2.49217 7.3438 2.28114C7.74956 2.07011 8.20551 1.97467 8.66184 2.00525C9.11817 2.03583 9.55732 2.19124 9.93129 2.45452C10.3053 2.7178 10.5997 3.0788 10.7824 3.49809C10.965 3.91737 11.029 4.3788 10.9671 4.83196C10.9053 5.28511 10.7201 5.71255 10.4318 6.06757C10.1435 6.42259 9.76309 6.69153 9.33226 6.845C9.13306 6.91596 9.00004 7.10455 9.00004 7.31601V7.50001C9.00004 7.63262 9.05271 7.7598 9.14648 7.85356L9.79293 8.50001L9.14648 9.14646C8.95122 9.34172 8.95122 9.6583 9.14648 9.85356L9.79293 10.5L9.14648 11.1465C8.95122 11.3417 8.95122 11.6583 9.14648 11.8536L9.79293 12.5L8.50004 13.7929L8.00004 13.2929L8.00004 7.31601C8.00004 7.10369 7.86594 6.91451 7.66559 6.84421C7.17948 6.67364 6.75825 6.35649 6.45994 5.93648C6.16164 5.51647 6.00096 5.01428 6.00003 4.49912Z" fill="#202020"/>
</svg>
