<svg width="16" height="16" viewBox="0 0 16 16" fill="none" xmlns="http://www.w3.org/2000/svg">
<path d="M13.1464 11.8536C13.2402 11.9473 13.3674 12 13.5 12C13.6326 12 13.7598 11.9473 13.8536 11.8536C13.9473 11.7598 14 11.6326 14 11.5V4C14 3.46957 13.7893 2.96086 13.4142 2.58579C13.0391 2.21071 12.5304 2 12 2H6C5.46957 2 4.96086 2.21071 4.58579 2.58579C4.21071 2.96086 4 3.46957 4 4V8H5V4C5 3.73478 5.10536 3.48043 5.29289 3.29289C5.48043 3.10536 5.73478 3 6 3H12C12.2652 3 12.5196 3.10536 12.7071 3.29289C12.8946 3.48043 13 3.73478 13 4V11.5C13 11.6326 13.0527 11.7598 13.1464 11.8536Z" fill="#202020"/>
<path d="M12 13H13.5C13.6326 13 13.7598 13.0527 13.8536 13.1464C13.9473 13.2402 14 13.3674 14 13.5C14 13.6326 13.9473 13.7598 13.8536 13.8536C13.7598 13.9473 13.6326 14 13.5 14H12C11.8674 14 11.7402 13.9473 11.6464 13.8536C11.5527 13.7598 11.5 13.6326 11.5 13.5C11.5 13.3674 11.5527 13.2402 11.6464 13.1464C11.7402 13.0527 11.8674 13 12 13Z" fill="#202020"/>
<path d="M9.5 11H7.5C7.224 11 7 11.224 7 11.5C7 11.776 7.224 12 7.5 12H9.5C9.776 12 10 11.776 10 11.5C10 11.224 9.776 11 9.5 11Z" fill="#202020"/>
<path d="M9.5 13H6.5C6.224 13 6 13.224 6 13.5C6 13.776 6.224 14 6.5 14H9.5C9.776 14 10 13.776 10 13.5C10 13.224 9.776 13 9.5 13Z" fill="#202020"/>
<path d="M8.5 15H5.5C5.224 15 5 15.224 5 15.5C5 15.776 5.224 16 5.5 16H8.5C8.776 16 9 15.776 9 15.5C9 15.224 8.776 15 8.5 15Z" fill="#202020"/>
<path d="M4.5 13H0.5C0.224 13 0 13.224 0 13.5C0 13.776 0.224 14 0.5 14H4.5C4.776 14 5 13.776 5 13.5C5 13.224 4.776 13 4.5 13Z" fill="#202020"/>
<path d="M3.5 15H0.5C0.224 15 0 15.224 0 15.5C0 15.776 0.224 16 0.5 16H3.5C3.776 16 4 15.776 4 15.5C4 15.224 3.776 15 3.5 15Z" fill="#202020"/>
<path fill-rule="evenodd" clip-rule="evenodd" d="M0 10C0 9.448 0.448 9 1 9H5C5.552 9 6 9.448 6 10V11C6 11.552 5.552 12 5 12H1C0.448 12 0 11.552 0 11V10ZM5 10H1V11H5V10Z" fill="#006CBF"/>
</svg>
