<svg width="16" height="16" viewBox="0 0 16 16" fill="none" xmlns="http://www.w3.org/2000/svg">
<path fill-rule="evenodd" clip-rule="evenodd" d="M1 3.75V2.25C1 1.561 1.561 1 2.25 1H13.75C14.439 1 15 1.561 15 2.25V3.75C15 4.439 14.439 5 13.75 5L2.25 5C1.561 5 1 4.439 1 3.75ZM13.75 4C13.888 4 14 3.888 14 3.75V2.25C14 2.112 13.888 2 13.75 2L2.25 2C2.112 2 2 2.112 2 2.25L2 3.75C2 3.888 2.112 4 2.25 4L13.75 4Z" fill="#202020"/>
<path fill-rule="evenodd" clip-rule="evenodd" d="M1 7.25V8.75C1 9.439 1.561 10 2.25 10H9.75C10.439 10 11 9.439 11 8.75V7.25C11 6.561 10.439 6 9.75 6L2.25 6C1.561 6 1 6.561 1 7.25ZM10 8.75C10 8.888 9.888 9 9.75 9H2.25C2.112 9 2 8.888 2 8.75L2 7.25C2 7.112 2.112 7 2.25 7L9.75 7C9.888 7 10 7.112 10 7.25V8.75Z" fill="#202020"/>
<path fill-rule="evenodd" clip-rule="evenodd" d="M1 12.25V13.75C1 14.439 1.561 15 2.25 15H7.75C8.439 15 9 14.439 9 13.75V12.25C9 11.561 8.439 11 7.75 11H2.25C1.561 11 1 11.561 1 12.25ZM8 13.75C8 13.888 7.888 14 7.75 14H2.25C2.112 14 2 13.888 2 13.75L2 12.25C2 12.112 2.112 12 2.25 12H7.75C7.888 12 8 12.112 8 12.25V13.75Z" fill="#202020"/>
</svg>
