<svg width="16" height="16" viewBox="0 0 16 16" fill="none" xmlns="http://www.w3.org/2000/svg">
<path d="M5 9.97758C4.83532 9.99242 4.66854 10 4.5 10C4.33146 10 4.16468 9.99242 4 9.97758V12H2.5C2.36739 12 2.24021 11.9473 2.14645 11.8536C2.05268 11.7598 2 11.6326 2 11.5V9.40029C1.64222 9.21739 1.30711 8.99647 1 8.74284L1 11.5C1 11.8978 1.15804 12.2794 1.43934 12.5607C1.72064 12.842 2.10218 13 2.5 13H4V13.5C4 13.8978 4.15804 14.2794 4.43934 14.5607C4.72064 14.842 5.10218 15 5.5 15H10.5C10.8978 15 11.2794 14.842 11.5607 14.5607C11.842 14.2794 12 13.8978 12 13.5V11H13.5C13.8978 11 14.2794 10.842 14.5607 10.5607C14.842 10.2794 15 9.89782 15 9.5V2.5C15 2.10218 14.842 1.72064 14.5607 1.43934C14.2794 1.15804 13.8978 1 13.5 1L8.74284 1C8.99647 1.30711 9.21739 1.64222 9.40029 2H13.5C13.6326 2 13.7598 2.05268 13.8536 2.14645C13.9473 2.24021 14 2.36739 14 2.5V9.5C14 9.63261 13.9473 9.75979 13.8536 9.85355C13.7598 9.94732 13.6326 10 13.5 10H12V6.5C12 6.10218 11.842 5.72064 11.5607 5.43934C11.2794 5.15804 10.8978 5 10.5 5H9.97758C9.94663 5.34341 9.88412 5.67772 9.79297 6H10.5C10.6326 6 10.7598 6.05268 10.8536 6.14645C10.9473 6.24021 11 6.36739 11 6.5V13.5C11 13.6326 10.9473 13.7598 10.8536 13.8536C10.7598 13.9473 10.6326 14 10.5 14H5.5C5.36739 14 5.24021 13.9473 5.14645 13.8536C5.05268 13.7598 5 13.6326 5 13.5V9.97758Z" fill="#202020"/>
<path fill-rule="evenodd" clip-rule="evenodd" d="M1.99994 0.758387C2.73996 0.26392 3.60999 0 4.5 0C5.69348 0 6.83807 0.474106 7.68198 1.31802C8.5259 2.16193 9 3.30653 9 4.5C9 5.39002 8.73608 6.26004 8.24162 7.00007C7.74715 7.74009 7.04434 8.31686 6.22208 8.65746C5.39981 8.99805 4.49501 9.08717 3.6221 8.91353C2.74918 8.7399 1.94736 8.31132 1.31802 7.68198C0.688685 7.05264 0.260102 6.25082 0.0864683 5.37791C-0.0871652 4.50499 0.00194976 3.60019 0.342544 2.77792C0.683138 1.95566 1.25991 1.25285 1.99994 0.758387ZM6.713 4.937L3.743 6.587C3.66689 6.62932 3.58104 6.65103 3.49396 6.64998C3.40688 6.64893 3.32158 6.62515 3.24652 6.581C3.17145 6.53685 3.10922 6.47386 3.06598 6.39826C3.02274 6.32266 3 6.23708 3 6.15V2.85C3 2.76291 3.02274 2.67733 3.06598 2.60173C3.10922 2.52614 3.17145 2.46315 3.24652 2.41899C3.32158 2.37484 3.40688 2.35106 3.49396 2.35001C3.58104 2.34896 3.66689 2.37067 3.743 2.413L6.713 4.063C6.79091 4.10631 6.85582 4.16967 6.90101 4.2465C6.94621 4.32334 6.97004 4.41086 6.97004 4.5C6.97004 4.58914 6.94621 4.67666 6.90101 4.75349C6.85582 4.83033 6.79091 4.89368 6.713 4.937Z" fill="#11910D"/>
</svg>
