<svg width="16" height="16" viewBox="0 0 16 16" fill="none" xmlns="http://www.w3.org/2000/svg">
<g clip-path="url(#clip0_7202_73483)">
<path d="M5 9.97758V11.001C5 11.266 4.895 11.52 4.707 11.708C4.52 11.896 4.265 12.001 4 12.001C3.735 12.001 3.481 11.896 3.293 11.708C3.105 11.521 3 11.266 3 11.001V9.79297C2.65136 9.69436 2.31679 9.56223 2 9.40029V11.001C2 11.531 2.211 12.04 2.586 12.415C2.961 12.79 3.47 13.001 4 13.001C4.53 13.001 5.039 12.79 5.414 12.415C5.789 12.04 6 11.531 6 11.001V9.79297C5.67772 9.88412 5.34341 9.94663 5 9.97758Z" fill="#202020"/>
<path d="M7.989 8.7519V12.501C7.989 12.634 8.041 12.761 8.135 12.855C8.229 12.948 8.356 13.001 8.489 13.001V13C8.622 13 8.749 12.948 8.843 12.854C8.936 12.76 8.989 12.633 8.989 12.5V7.67864C8.70468 8.07944 8.36803 8.44052 7.989 8.7519Z" fill="#202020"/>
<path d="M1 8.74284C0.62057 8.42948 0.283885 8.06621 0 7.66308L0 13C0 14.103 0.897 15 2 15H14C15.103 15 16 14.103 16 13V7C16 5.897 15.103 5 14 5L9.97758 5C9.94663 5.34341 9.88412 5.67772 9.79297 6H14C14.551 6 15 6.448 15 7V13C15 13.552 14.551 14 14 14H2C1.449 14 1 13.552 1 13V8.74284Z" fill="#202020"/>
<path fill-rule="evenodd" clip-rule="evenodd" d="M10.586 12.415C10.961 12.79 11.47 13.001 12 13.001C12.53 13.001 13.039 12.79 13.414 12.415C13.789 12.04 14 11.531 14 11.001V9.001C14 8.471 13.789 7.962 13.414 7.587C13.039 7.212 12.53 7.001 12 7.001C11.47 7.001 10.961 7.212 10.586 7.587C10.211 7.962 10 8.471 10 9.001V11.001C10 11.531 10.211 12.04 10.586 12.415ZM11.293 8.294C11.48 8.106 11.735 8.001 12 8.001C12.265 8.001 12.519 8.106 12.707 8.294C12.895 8.481 13 8.736 13 9.001V11.001C13 11.266 12.895 11.52 12.707 11.708C12.52 11.896 12.265 12.001 12 12.001C11.735 12.001 11.481 11.896 11.293 11.708C11.105 11.521 11 11.266 11 11.001V9.001C11 8.736 11.105 8.482 11.293 8.294Z" fill="#202020"/>
<path fill-rule="evenodd" clip-rule="evenodd" d="M1.99994 0.758387C2.73996 0.26392 3.60999 0 4.5 0C5.69348 0 6.83807 0.474106 7.68198 1.31802C8.5259 2.16193 9 3.30653 9 4.5C9 5.39002 8.73608 6.26004 8.24162 7.00007C7.74715 7.74009 7.04434 8.31686 6.22208 8.65746C5.39981 8.99805 4.49501 9.08717 3.6221 8.91353C2.74918 8.7399 1.94736 8.31132 1.31802 7.68198C0.688685 7.05264 0.260102 6.25082 0.0864683 5.37791C-0.0871652 4.50499 0.00194976 3.60019 0.342544 2.77792C0.683138 1.95566 1.25991 1.25285 1.99994 0.758387ZM6.713 4.937L3.743 6.587C3.66689 6.62932 3.58104 6.65103 3.49396 6.64998C3.40688 6.64893 3.32158 6.62515 3.24652 6.581C3.17145 6.53685 3.10922 6.47386 3.06598 6.39826C3.02274 6.32266 3 6.23708 3 6.15V2.85C3 2.76291 3.02274 2.67733 3.06598 2.60173C3.10922 2.52614 3.17145 2.46315 3.24652 2.41899C3.32158 2.37484 3.40688 2.35106 3.49396 2.35001C3.58104 2.34896 3.66689 2.37067 3.743 2.413L6.713 4.063C6.79091 4.10631 6.85582 4.16967 6.90101 4.2465C6.94621 4.32334 6.97004 4.41086 6.97004 4.5C6.97004 4.58914 6.94621 4.67666 6.90101 4.75349C6.85582 4.83033 6.79091 4.89368 6.713 4.937Z" fill="#11910D"/>
</g>
<defs>
<clipPath id="clip0_7202_73483">
<rect width="16" height="16" fill="white"/>
</clipPath>
</defs>
</svg>
