<svg width="16" height="16" viewBox="0 0 16 16" fill="none" xmlns="http://www.w3.org/2000/svg">
<path d="M9.898 11H11.5C11.776 11 12 11.224 12 11.5C12 11.776 11.776 12 11.5 12H9.904C10.022 11.668 10.012 11.319 9.898 11ZM3.5 12H5.095C4.977 11.669 4.986 11.32 5.101 11H3.499C3.223 11 2.999 11.224 2.999 11.5C2.999 11.776 3.224 12 3.5 12ZM6.5 12H8.5C8.702 12 8.885 11.878 8.962 11.691C9.04 11.504 8.997 11.289 8.854 11.146L7.854 10.146C7.659 9.951 7.342 9.951 7.147 10.146L6.147 11.146C6.004 11.289 5.961 11.504 6.039 11.691C6.116 11.878 6.298 12 6.5 12ZM14 3V12C14 13.103 13.103 14 12 14H3C1.897 14 1 13.103 1 12V3C1 1.897 1.897 1 3 1H12C13.103 1 14 1.897 14 3ZM2 8H13V3C13 2.448 12.551 2 12 2H3C2.449 2 2 2.448 2 3V8ZM13 9H2V12C2 12.552 2.449 13 3 13H12C12.551 13 13 12.552 13 12V9Z" fill="#202020"/>
</svg>
