<svg width="16" height="16" viewBox="0 0 16 16" fill="none" xmlns="http://www.w3.org/2000/svg">
<path fill-rule="evenodd" clip-rule="evenodd" d="M13.769 3.02889C14.263 3.23189 14.648 3.61389 14.851 4.10389C15.052 4.59089 15.051 5.12589 14.847 5.61189L11.423 13.7829C11.105 14.5409 10.362 14.9989 9.58103 14.9989C9.32803 14.9989 9.07103 14.9509 8.82403 14.8499L4.23103 12.9699C3.73703 12.7669 3.35203 12.3849 3.14903 11.8949C2.94803 11.4079 2.94903 10.8729 3.15303 10.3869L5.83003 3.99889H5.00003C4.72403 3.99889 4.50003 3.77489 4.50003 3.49889C4.50003 3.22289 4.72403 2.99889 5.00003 2.99889H6.24903L6.57703 2.21589C6.99703 1.21289 8.16703 0.735887 9.17603 1.14889L13.769 3.02889ZM10.501 13.3959L13.925 5.22489C14.025 4.98689 14.026 4.72589 13.927 4.48789C13.827 4.24589 13.636 4.05689 13.39 3.95589L8.79703 2.07589C8.67303 2.02489 8.54303 2.00089 8.41603 2.00089C8.02603 2.00089 7.65703 2.22789 7.49903 2.60389L4.07503 10.7739C3.97503 11.0119 3.97403 11.2739 4.07303 11.5119C4.17303 11.7539 4.36403 11.9429 4.61003 12.0439L9.20303 13.9239C9.70803 14.1309 10.291 13.8939 10.501 13.3959Z" fill="#202020"/>
<path d="M1.5 5.5C1.776 5.5 2 5.276 2 5C2 4.449 2.448 4 3 4C3.276 4 3.5 3.776 3.5 3.5C3.5 3.224 3.276 3 3 3C1.897 3 1 3.897 1 5C1 5.276 1.224 5.5 1.5 5.5Z" fill="#202020"/>
<path d="M2 8C2 8.276 1.776 8.5 1.5 8.5C1.224 8.5 1 8.276 1 8V7C1 6.724 1.224 6.5 1.5 6.5C1.776 6.5 2 6.724 2 7V8Z" fill="#202020"/>
<path d="M1.5 11.5C1.776 11.5 2 11.276 2 11V10C2 9.724 1.776 9.5 1.5 9.5C1.224 9.5 1 9.724 1 10V11C1 11.276 1.224 11.5 1.5 11.5Z" fill="#202020"/>
<path d="M2 13C2 13.551 2.448 14 3 14C3.276 14 3.5 14.224 3.5 14.5C3.5 14.776 3.276 15 3 15C1.897 15 1 14.103 1 13C1 12.724 1.224 12.5 1.5 12.5C1.776 12.5 2 12.724 2 13Z" fill="#202020"/>
<path d="M5 14H6.5C6.776 14 7 14.224 7 14.5C7 14.776 6.776 15 6.5 15H5C4.724 15 4.5 14.776 4.5 14.5C4.5 14.224 4.724 14 5 14Z" fill="#202020"/>
</svg>
