<svg width="16" height="16" viewBox="0 0 16 16" fill="none" xmlns="http://www.w3.org/2000/svg">
<path d="M7.5 7H5.707L6.975 5.732C7.17 5.537 7.17 5.22 6.975 5.025C6.78 4.83 6.463 4.83 6.268 5.025L5 6.293V4.5C5 4.224 4.776 4 4.5 4C4.224 4 4 4.224 4 4.5V6.293L2.732 5.025C2.537 4.83 2.22 4.83 2.025 5.025C1.83 5.22 1.83 5.537 2.025 5.732L3.293 7H1.5C1.224 7 1 7.224 1 7.5C1 7.776 1.224 8 1.5 8H3.293L2.025 9.268C1.83 9.463 1.83 9.78 2.025 9.975C2.123 10.073 2.251 10.121 2.379 10.121C2.507 10.121 2.635 10.072 2.733 9.975L4.001 8.707V10.5C4.001 10.776 4.225 11 4.501 11C4.777 11 5.001 10.776 5.001 10.5V8.707L6.269 9.975C6.367 10.073 6.495 10.121 6.623 10.121C6.751 10.121 6.879 10.072 6.977 9.975C7.172 9.78 7.172 9.463 6.977 9.268L5.709 8H7.502C7.778 8 8.002 7.776 8.002 7.5C8.002 7.224 7.778 7 7.502 7H7.5Z" fill="#202020"/>
<path fill-rule="evenodd" clip-rule="evenodd" d="M13.8536 4.14645C14.0488 4.34171 14.0488 4.65829 13.8536 4.85355L11.2071 7.5L13.8536 10.1464C14.0488 10.3417 14.0488 10.6583 13.8536 10.8536C13.6583 11.0488 13.3417 11.0488 13.1464 10.8536L10.1464 7.85355C9.95118 7.65829 9.95118 7.34171 10.1464 7.14645L13.1464 4.14645C13.3417 3.95118 13.6583 3.95118 13.8536 4.14645Z" fill="black"/>
</svg>
