<svg width="16" height="16" viewBox="0 0 16 16" fill="none" xmlns="http://www.w3.org/2000/svg">
<path fill-rule="evenodd" clip-rule="evenodd" d="M4 7H5C5.551 7 6 6.552 6 6V5C6 4.448 5.551 4 5 4H4C3.449 4 3 4.448 3 5V6C3 6.552 3.449 7 4 7ZM4 6V5H5V6H4Z" fill="#202020"/>
<path fill-rule="evenodd" clip-rule="evenodd" d="M8 7H9C9.551 7 10 6.552 10 6V5C10 4.448 9.551 4 9 4H8C7.449 4 7 4.448 7 5V6C7 6.552 7.449 7 8 7ZM8 6V5H9V6H8Z" fill="#202020"/>
<path fill-rule="evenodd" clip-rule="evenodd" d="M13 7H12C11.449 7 11 6.552 11 6V5C11 4.448 11.449 4 12 4H13C13.551 4 14 4.448 14 5V6C14 6.552 13.551 7 13 7ZM12 5V6H13V5H12Z" fill="#202020"/>
<path fill-rule="evenodd" clip-rule="evenodd" d="M4 11H5C5.551 11 6 10.552 6 10V9C6 8.448 5.551 8 5 8H4C3.449 8 3 8.448 3 9V10C3 10.552 3.449 11 4 11ZM4 10V9H5V10H4Z" fill="#202020"/>
<path fill-rule="evenodd" clip-rule="evenodd" d="M9 11H8C7.449 11 7 10.552 7 10V9C7 8.448 7.449 8 8 8H9C9.551 8 10 8.448 10 9V10C10 10.552 9.551 11 9 11ZM8 9V10H9V9H8Z" fill="#202020"/>
<path fill-rule="evenodd" clip-rule="evenodd" d="M12 11H13C13.551 11 14 10.552 14 10V9C14 8.448 13.551 8 13 8H12C11.449 8 11 8.448 11 9V10C11 10.552 11.449 11 12 11ZM12 10V9H13V10H12Z" fill="#202020"/>
</svg>
