<svg width="16" height="16" viewBox="0 0 16 16" fill="none" xmlns="http://www.w3.org/2000/svg">
<path fill-rule="evenodd" clip-rule="evenodd" d="M9 7H8C7.449 7 7 6.552 7 6V5C7 4.448 7.449 4 8 4H9C9.551 4 10 4.448 10 5V6C10 6.552 9.551 7 9 7ZM8 5V6H9V5H8Z" fill="#202020"/>
<path fill-rule="evenodd" clip-rule="evenodd" d="M7 11H6C5.449 11 5 10.552 5 10V9C5 8.448 5.449 8 6 8H7C7.551 8 8 8.448 8 9V10C8 10.552 7.551 11 7 11ZM6 9V10H7V9H6Z" fill="#202020"/>
<path fill-rule="evenodd" clip-rule="evenodd" d="M10 11H11C11.551 11 12 10.552 12 10V9C12 8.448 11.551 8 11 8H10C9.449 8 9 8.448 9 9V10C9 10.552 9.449 11 10 11ZM10 10V9H11V10H10Z" fill="#202020"/>
</svg>
