<svg width="16" height="16" viewBox="0 0 16 16" fill="none" xmlns="http://www.w3.org/2000/svg">
<path fill-rule="evenodd" clip-rule="evenodd" d="M6 7H7C7.551 7 8 6.552 8 6V5C8 4.448 7.551 4 7 4H6C5.449 4 5 4.448 5 5V6C5 6.552 5.449 7 6 7ZM6 6V5H7V6H6Z" fill="#202020"/>
<path fill-rule="evenodd" clip-rule="evenodd" d="M10 7H11C11.551 7 12 6.552 12 6V5C12 4.448 11.551 4 11 4H10C9.449 4 9 4.448 9 5V6C9 6.552 9.449 7 10 7ZM10 6V5H11V6H10Z" fill="#202020"/>
<path fill-rule="evenodd" clip-rule="evenodd" d="M7 11H6C5.449 11 5 10.552 5 10V9C5 8.448 5.449 8 6 8H7C7.551 8 8 8.448 8 9V10C8 10.552 7.551 11 7 11ZM6 9V10H7V9H6Z" fill="#202020"/>
<path fill-rule="evenodd" clip-rule="evenodd" d="M10 11H11C11.551 11 12 10.552 12 10V9C12 8.448 11.551 8 11 8H10C9.449 8 9 8.448 9 9V10C9 10.552 9.449 11 10 11ZM10 10V9H11V10H10Z" fill="#202020"/>
</svg>
