<svg width="16" height="16" viewBox="0 0 16 16" fill="none" xmlns="http://www.w3.org/2000/svg">
<path d="M2.24895 2C1.55917 2 1 2.55938 1 3.24941V7.25716C1.30687 7.00373 1.64169 6.78295 1.99916 6.60014V3.24941C1.99916 3.11141 2.11099 2.99953 2.24895 2.99953H2.74852C2.88648 2.99953 2.99831 3.11141 2.99831 3.24941V6.20751C3.32032 6.11632 3.65435 6.05373 3.99747 6.02265V3.24941C3.99747 2.55938 3.4383 2 2.74852 2H2.24895Z" fill="#202020"/>
<path d="M7.9941 7.25229V3.24941C7.9941 2.55938 7.43492 2 6.74515 2H6.24557C5.5558 2 4.99663 2.55938 4.99663 3.24941V6.02212C5.33972 6.05282 5.67375 6.11504 5.99578 6.20584V3.24941C5.99578 3.11141 6.10762 2.99953 6.24557 2.99953H6.74515C6.88311 2.99953 6.99494 3.11141 6.99494 3.24941V6.59713C7.35233 6.77936 7.68715 6.99951 7.9941 7.25229Z" fill="#202020"/>
<path fill-rule="evenodd" clip-rule="evenodd" d="M10.4011 4.06385C11.0311 3.84331 11.7231 4.15733 11.9723 4.77682L14.9093 12.0802C15.1752 12.7412 14.8355 13.4904 14.1632 13.7258L13.581 13.9296C12.9509 14.1502 12.2589 13.8361 12.0098 13.2166L9.07268 5.91326C8.80684 5.25222 9.14658 4.50297 9.81888 4.26764L10.4011 4.06385ZM11.0453 5.14988C10.9955 5.02598 10.8571 4.96318 10.7311 5.00729L10.1489 5.21108C10.0144 5.25815 9.94647 5.40799 9.99964 5.5402L12.9367 12.8436C12.9865 12.9675 13.1249 13.0303 13.251 12.9862L13.8332 12.7823C13.9676 12.7353 14.0356 12.5854 13.9824 12.4532L11.0453 5.14988Z" fill="#202020"/>
<path fill-rule="evenodd" clip-rule="evenodd" d="M0.634576 10.9201C1.72253 10.6421 2.36853 9.52323 2.06523 8.44208L1.90905 7.8853C2.16313 7.69 2.43852 7.5227 2.73095 7.38782L3.0683 7.74578C3.85724 8.5829 5.188 8.5836 5.97782 7.74731L6.3025 7.40352C6.60029 7.54404 6.88008 7.71831 7.13731 7.9216L7.01112 8.34389C6.68178 9.44603 7.34777 10.5982 8.46721 10.8628L8.81621 10.9454C8.83779 11.1271 8.84891 11.3122 8.84891 11.5C8.84891 11.656 8.84124 11.8101 8.82627 11.962L8.36573 12.0797C7.27778 12.3576 6.63178 13.4765 6.93507 14.5576L7.09122 15.1143C6.83715 15.3096 6.56178 15.477 6.26936 15.6119L5.932 15.2539C5.14306 14.4168 3.8123 14.4161 3.02248 15.2524L2.69749 15.5965C2.39976 15.4561 2.12002 15.2819 1.86284 15.0786L1.98918 14.6558C2.31852 13.5537 1.65253 12.4016 0.533096 12.1369L0.18354 12.0542C0.16198 11.8726 0.150879 11.6876 0.150879 11.5C0.150879 11.3439 0.158554 11.1898 0.173535 11.0378L0.634576 10.9201ZM5.4999 11.5C5.4999 12.0523 5.05218 12.5 4.4999 12.5C3.94761 12.5 3.4999 12.0523 3.4999 11.5C3.4999 10.9477 3.94761 10.5 4.4999 10.5C5.05218 10.5 5.4999 10.9477 5.4999 11.5Z" fill="#202020"/>
</svg>
