<svg width="16" height="16" viewBox="0 0 16 16" fill="none" xmlns="http://www.w3.org/2000/svg">
<path fill-rule="evenodd" clip-rule="evenodd" d="M2.24895 2C1.55917 2 1 2.55938 1 3.24941V12.745C1 13.435 1.55917 13.9944 2.24895 13.9944H2.74852C3.4383 13.9944 3.99747 13.435 3.99747 12.745V3.24941C3.99747 2.55938 3.4383 2 2.74852 2H2.24895ZM1.99916 3.24941C1.99916 3.11141 2.11099 2.99953 2.24895 2.99953H2.74852C2.88648 2.99953 2.99831 3.11141 2.99831 3.24941V12.745C2.99831 12.883 2.88648 12.9948 2.74852 12.9948H2.24895C2.11099 12.9948 1.99916 12.883 1.99916 12.745V3.24941Z" fill="#202020"/>
<path d="M6.24557 2C5.5558 2 4.99663 2.55938 4.99663 3.24941V12.745C4.99663 13.435 5.5558 13.9944 6.24557 13.9944H6.59683C6.43489 13.6767 6.30291 13.3411 6.20464 12.9915C6.08616 12.972 5.99578 12.869 5.99578 12.745V3.24941C5.99578 3.11141 6.10762 2.99953 6.24557 2.99953H6.74515C6.88311 2.99953 6.99494 3.11141 6.99494 3.24941V8.34412C7.27841 7.94021 7.61482 7.57616 7.9941 7.26204V3.24941C7.9941 2.55938 7.43492 2 6.74515 2H6.24557Z" fill="#202020"/>
<path d="M12.5007 6.09082L11.9723 4.77682C11.7231 4.15733 11.0311 3.84331 10.4011 4.06385L9.81888 4.26764C9.14658 4.50297 8.80684 5.25222 9.07268 5.91326L9.29287 6.46077C9.59613 6.32775 9.91369 6.22131 10.2426 6.14439L9.99964 5.5402C9.94647 5.40799 10.0144 5.25815 10.1489 5.21108L10.7311 5.00729C10.8571 4.96318 10.9955 5.02598 11.0453 5.14988L11.3876 6.00112C11.425 6.00038 11.4625 6 11.5 6C11.8417 6 12.1762 6.03117 12.5007 6.09082Z" fill="#202020"/>
<path fill-rule="evenodd" clip-rule="evenodd" d="M11.5 16C13.9853 16 16 13.9853 16 11.5C16 9.01472 13.9853 7 11.5 7C9.01472 7 7 9.01472 7 11.5C7 13.9853 9.01472 16 11.5 16ZM13.3536 10.3536C13.5488 10.1583 13.5488 9.84171 13.3536 9.64645C13.1583 9.45118 12.8417 9.45118 12.6464 9.64645L11.5 10.7929L10.3536 9.64645C10.1583 9.45118 9.84171 9.45118 9.64645 9.64645C9.45118 9.84171 9.45118 10.1583 9.64645 10.3536L10.7929 11.5L9.64645 12.6464C9.45118 12.8417 9.45118 13.1583 9.64645 13.3536C9.84171 13.5488 10.1583 13.5488 10.3536 13.3536L11.5 12.2071L12.6464 13.3536C12.8417 13.5488 13.1583 13.5488 13.3536 13.3536C13.5488 13.1583 13.5488 12.8417 13.3536 12.6464L12.2071 11.5L13.3536 10.3536Z" fill="#C50F1F"/>
</svg>
