<svg width="16" height="16" viewBox="0 0 16 16" fill="none" xmlns="http://www.w3.org/2000/svg">
<path fill-rule="evenodd" clip-rule="evenodd" d="M10 5V7.382L10.947 9.276C11.017 9.416 11.017 9.582 10.947 9.723L10.086 11.447C9.914 11.789 9.571 12 9.191 12H7C6.702 12 6.441 11.863 6.258 11.655C6.2 11.599 6.152 11.535 6.127 11.461C6.053 11.321 6 11.169 6 11V5C6 4.448 6.448 4 7 4H9C9.552 4 10 4.448 10 5ZM7.309 8L7.809 9H9.691L9.191 8H7.309ZM9 5H7V7H9V5ZM7.809 10L7.309 11H9.191L9.691 10H7.809Z" fill="#202020"/>
<path fill-rule="evenodd" clip-rule="evenodd" d="M4.5 1H11.5C12.327 1 13 1.673 13 2.5V13.5C13 14.327 12.327 15 11.5 15H4.5C3.673 15 3 14.327 3 13.5V2.5C3 1.673 3.673 1 4.5 1ZM11.5 14C11.775 14 12 13.775 12 13.5V2.5C12 2.225 11.775 2 11.5 2H4.5C4.225 2 4 2.225 4 2.5V13.5C4 13.775 4.225 14 4.5 14H11.5Z" fill="#202020"/>
</svg>
