<svg width="16" height="16" viewBox="0 0 16 16" fill="none" xmlns="http://www.w3.org/2000/svg">
<path d="M1 3.24941C1 2.55938 1.55917 2 2.24895 2H2.74852C3.4383 2 3.99747 2.55938 3.99747 3.24941V5C3.65483 5.00018 3.32055 5.03683 2.99831 5.10628V3.24941C2.99831 3.11141 2.88648 2.99953 2.74852 2.99953H2.24895C2.11099 2.99953 1.99916 3.11141 1.99916 3.24941V5.44228C1.63945 5.61003 1.3041 5.82154 1 6.06992V3.24941Z" fill="#202020"/>
<path d="M7.9941 3.24941V7.18166C7.72144 6.75912 7.38361 6.38241 6.99494 6.06584V3.24941C6.99494 3.11141 6.88311 2.99953 6.74515 2.99953H6.24557C6.10762 2.99953 5.99578 3.11141 5.99578 3.24941V5.43995C5.6799 5.29308 5.3453 5.17995 4.99663 5.1052V3.24941C4.99663 2.55938 5.5558 2 6.24557 2H6.74515C7.43492 2 7.9941 2.55938 7.9941 3.24941Z" fill="#202020"/>
<path fill-rule="evenodd" clip-rule="evenodd" d="M11.9723 4.77682C11.7231 4.15733 11.0311 3.84331 10.4011 4.06385L9.81888 4.26764C9.14658 4.50297 8.80684 5.25222 9.07268 5.91326L12.0098 13.2166C12.2589 13.8361 12.9509 14.1502 13.581 13.9296L14.1632 13.7258C14.8355 13.4904 15.1752 12.7412 14.9093 12.0802L11.9723 4.77682ZM10.7311 5.00729C10.8571 4.96318 10.9955 5.02598 11.0453 5.14988L13.9824 12.4532C14.0356 12.5854 13.9676 12.7353 13.8332 12.7823L13.251 12.9862C13.1249 13.0303 12.9865 12.9675 12.9367 12.8436L9.99964 5.5402C9.94647 5.40799 10.0144 5.25815 10.1489 5.21108L10.7311 5.00729Z" fill="#202020"/>
<path d="M2.131 15.021C2.259 15.597 2.761 16 3.352 16H4.649C5.24 16 5.742 15.598 5.87 15.021L6.097 14H1.904L2.131 15.021ZM4 6C1.933 6 0.25 7.682 0.25 9.75C0.25 10.861 0.738 11.895 1.596 12.612L1.682 13H3.5V11.418C2.78 11.201 2.25 10.54 2.25 9.75C2.25 8.785 3.035 8 4 8C4.965 8 5.75 8.785 5.75 9.75C5.75 10.54 5.22 11.202 4.5 11.418V13H6.318L6.404 12.612C7.261 11.894 7.75 10.861 7.75 9.75C7.75 7.682 6.067 6 4 6ZM4.75 9.75C4.75 9.337 4.413 9 4 9C3.587 9 3.25 9.337 3.25 9.75C3.25 10.163 3.587 10.5 4 10.5C4.413 10.5 4.75 10.163 4.75 9.75Z" fill="#202020"/>
</svg>
