<svg width="16" height="16" viewBox="0 0 16 16" fill="none" xmlns="http://www.w3.org/2000/svg">
<path d="M12.347 14C12.168 14 11.99 13.974 11.816 13.921L8.367 12.885C7.933 12.755 7.592 12.445 7.431 12.032L7.097 11.179C7.033 11.017 7 10.846 7 10.672C7 10.166 7.279 9.694 7.729 9.441L9.006 8.704C9.584 8.235 10.009 7.333 10.351 6.608C10.775 5.71 11.11 5 11.771 5C11.906 5 13.094 5.05 13.094 6.775C13.094 7.087 13.025 7.489 12.883 8H13.533C14.439 8 14.999 8.737 14.999 9.421C14.999 9.56 14.978 9.697 14.937 9.831L14.06 12.758C13.835 13.49 13.131 14 12.346 14H12.347ZM11.773 6C11.711 6.073 11.449 6.629 11.257 7.035C10.872 7.851 10.392 8.868 9.617 9.497L9.476 9.601L8.222 10.313C8.086 10.39 8.001 10.528 8.001 10.673C8.001 10.721 8.01 10.768 8.028 10.814L8.362 11.668C8.41 11.79 8.52 11.888 8.655 11.929L12.104 12.965C12.531 13.09 12.985 12.855 13.104 12.469L13.981 9.541C13.994 9.499 14 9.46 14 9.422C14 9.29 13.883 9.001 13.534 9.001H12.213C12.055 9.001 11.906 8.926 11.812 8.799C11.718 8.672 11.689 8.508 11.735 8.357L11.854 7.963C12.012 7.441 12.096 7.03 12.096 6.776C12.096 6.204 11.922 6 11.773 6ZM4.228 11C4.093 11 2.905 10.95 2.905 9.225C2.905 8.913 2.974 8.511 3.116 8H2.466C1.56 8 1 7.263 1 6.579C1 6.44 1.021 6.303 1.062 6.169L1.939 3.242C2.215 2.343 3.247 1.794 4.184 2.079L7.633 3.115C8.067 3.245 8.408 3.555 8.569 3.968L8.903 4.821C8.967 4.983 9 5.154 9 5.328C9 5.834 8.721 6.306 8.271 6.559L6.994 7.296C6.416 7.765 5.991 8.667 5.649 9.392C5.225 10.29 4.889 11 4.228 11ZM3.654 3C3.305 3 2.993 3.219 2.897 3.532L2.02 6.46C2.007 6.502 2.001 6.541 2.001 6.579C2.001 6.711 2.118 7 2.467 7H3.788C3.946 7 4.095 7.075 4.189 7.202C4.283 7.329 4.312 7.493 4.266 7.644L4.147 8.038C3.989 8.56 3.905 8.971 3.905 9.225C3.905 9.797 4.079 10 4.228 10C4.29 9.927 4.552 9.371 4.744 8.965C5.129 8.149 5.609 7.132 6.384 6.503L6.525 6.399L7.779 5.687C7.915 5.61 8 5.472 8 5.327C8 5.279 7.991 5.232 7.973 5.186L7.639 4.332C7.591 4.21 7.481 4.112 7.346 4.071L3.897 3.035C3.817 3.012 3.735 3 3.654 3Z" fill="#202020"/>
</svg>
