<svg width="16" height="16" viewBox="0 0 16 16" fill="none" xmlns="http://www.w3.org/2000/svg">
<path d="M5 8.5C5 8.776 5.224 9 5.5 9V9.001C5.776 9.001 6 8.777 6 8.501V5.501C6 5.281 5.856 5.087 5.646 5.023C5.434 4.958 5.207 5.039 5.084 5.221C5.08 5.228 4.663 5.836 4.091 6.026C3.83 6.114 3.688 6.397 3.775 6.659C3.863 6.92 4.146 7.063 4.408 6.975C4.626 6.902 4.824 6.798 5 6.682V8.5Z" fill="#202020"/>
<path d="M9.5 8C9.776 8 10 8.224 10 8.5C10 8.776 9.776 9 9.5 9H7.5C7.224 9 7 8.776 7 8.5C7 7.47855 7.79615 7.1054 8.32316 6.8584C8.85416 6.6094 9 6.506 9 6.25C9 6.16 8.833 6 8.5 6C8.049 6 7.782 6.163 7.771 6.17C7.54 6.314 7.232 6.248 7.083 6.019C6.936 5.789 6.995 5.485 7.223 5.334C7.274 5.3 7.745 5 8.5 5C9.438 5 10 5.636 10 6.25C10 7.17694 9.27765 7.51623 8.74981 7.76415L8.748 7.765C8.558 7.854 8.409 7.927 8.296 8H9.5Z" fill="#202020"/>
<path d="M12.292 5C13.167 5 13.854 5.549 13.854 6.25C13.854 6.537 13.746 6.792 13.565 6.999C13.746 7.206 13.854 7.462 13.854 7.749C13.854 8.45 13.168 8.999 12.292 8.999C11.979 8.999 11 8.839 11 8.249C11 7.984 11.213 7.75 11.501 7.75C11.6468 7.75 11.725 7.80095 11.8107 7.85684C11.9149 7.92477 12.0303 8 12.292 8C12.641 8 12.854 7.826 12.854 7.75C12.854 7.647 12.676 7.5 12.354 7.5C12.078 7.5 11.854 7.276 11.854 7C11.854 6.724 12.078 6.5 12.354 6.5C12.676 6.5 12.854 6.353 12.854 6.25C12.854 6.174 12.642 6 12.292 6C12.0277 6 11.9137 6.07487 11.8108 6.1425C11.726 6.19821 11.6487 6.249 11.501 6.249C11.224 6.249 11 6.027 11 5.75C11 5.16 11.982 5 12.292 5Z" fill="#202020"/>
<path fill-rule="evenodd" clip-rule="evenodd" d="M16 4.5V9.5C16 10.327 15.327 11 14.5 11H3.5C2.673 11 2 10.327 2 9.5V4.5C2 3.673 2.673 3 3.5 3H14.5C15.327 3 16 3.673 16 4.5ZM15 4.5C15 4.225 14.775 4 14.5 4H3.5C3.225 4 3 4.225 3 4.5V9.5C3 9.775 3.225 10 3.5 10H14.5C14.775 10 15 9.775 15 9.5V4.5Z" fill="#202020"/>
<path d="M15.5 12C15.776 12 16 12.224 16 12.5C16 12.776 15.776 13 15.5 13H0.5C0.224 13 0 12.776 0 12.5V1.5C0 1.224 0.224 1 0.5 1C0.776 1 1 1.224 1 1.5V12H15.5Z" fill="#202020"/>
<path d="M5 14.5C5 14.776 5.224 15 5.5 15H6.5C6.776 15 7 14.776 7 14.5C7 14.224 6.776 14 6.5 14H5.5C5.224 14 5 14.224 5 14.5Z" fill="#202020"/>
<path d="M8.5 15C8.224 15 8 14.776 8 14.5C8 14.224 8.224 14 8.5 14H9.5C9.776 14 10 14.224 10 14.5C10 14.776 9.776 15 9.5 15H8.5Z" fill="#202020"/>
<path d="M11.5 15H12.5C12.776 15 13 14.776 13 14.5C13 14.224 12.776 14 12.5 14H11.5C11.224 14 11 14.224 11 14.5C11 14.776 11.224 15 11.5 15Z" fill="#202020"/>
<path d="M14.5 15C14.224 15 14 14.776 14 14.5C14 14.224 14.224 14 14.5 14H15.5C15.776 14 16 14.224 16 14.5C16 14.776 15.776 15 15.5 15H14.5Z" fill="#202020"/>
<path d="M2 14.5C2 14.776 2.224 15 2.5 15H3.5C3.776 15 4 14.776 4 14.5C4 14.224 3.776 14 3.5 14H2.5C2.224 14 2 14.224 2 14.5Z" fill="#202020"/>
</svg>
