<svg width="16" height="16" viewBox="0 0 16 16" fill="none" xmlns="http://www.w3.org/2000/svg">
<path d="M1.50001 9.99998C1.37201 9.99998 1.24401 9.95098 1.14601 9.85398C0.951006 9.65898 0.951006 9.34198 1.14601 9.14698L4.64601 5.64698C4.84101 5.45198 5.15801 5.45198 5.35301 5.64698L6.99901 7.29298L11.145 3.14698C11.34 2.95198 11.657 2.95198 11.852 3.14698L13.852 5.14698C14.047 5.34198 14.047 5.65898 13.852 5.85398C13.657 6.04898 13.34 6.04898 13.145 5.85398L11.499 4.20798L7.35301 8.35398C7.15801 8.54898 6.84101 8.54898 6.64601 8.35398L5.00001 6.70798L1.85401 9.85398C1.75601 9.95198 1.62801 9.99998 1.50001 9.99998Z" fill="#3487C7"/>
<path d="M14.5 15H1.5C1.224 15 1 14.776 1 14.5V1.5C1 1.224 1.224 1 1.5 1C1.776 1 2 1.224 2 1.5V14H14.5C14.776 14 15 14.224 15 14.5C15 14.776 14.776 15 14.5 15Z" fill="#202020"/>
</svg>
