<svg width="16" height="16" viewBox="0 0 16 16" fill="none" xmlns="http://www.w3.org/2000/svg">
<path d="M10.88 12H4C2.897 12 2 11.103 2 10V6C2 4.897 2.897 4 4 4H10.88C11.407 4 11.922 4.214 12.295 4.586L14.498 6.789C14.822 7.112 15 7.543 15 8C15 8.457 14.822 8.888 14.498 9.211L12.295 11.414C11.923 11.786 11.407 12 10.88 12ZM4 5C3.448 5 3 5.448 3 6V10C3 10.552 3.449 11 4 11H10.88C11.143 11 11.401 10.894 11.588 10.707L13.791 8.504C13.926 8.369 14 8.191 14 8C14 7.809 13.926 7.631 13.791 7.496L11.588 5.293C11.402 5.106 11.144 5 10.88 5H4Z" fill="#202020"/>
</svg>
