<svg width="16" height="16" viewBox="0 0 16 16" fill="none" xmlns="http://www.w3.org/2000/svg">
<path fill-rule="evenodd" clip-rule="evenodd" d="M3 3.5C3 2.075 5.149 1 8 1C10.851 1 13 2.075 13 3.5V12.5C13 13.6187 11.6755 14.5217 9.7267 14.8582C9.86825 14.5223 9.9589 14.1597 9.98896 13.7801C11.2551 13.4775 12 12.9223 12 12.5V5.021C10.7859 5.71872 9.39905 6.05816 8 6C6.60095 6.05816 5.21405 5.71872 4 5.021V10H3V3.5ZM12 3.5C12 2.888 10.441 2 8 2C5.558 2 4 2.888 4 3.5C4 4.112 5.559 5 8 5C10.441 5 12 4.112 12 3.5Z" fill="#3487C7"/>
<path d="M2.5 11C1.11929 11 0 12.1193 0 13.5C0 14.8807 1.11929 16 2.5 16H3C3.27614 16 3.5 15.7761 3.5 15.5C3.5 15.2239 3.27614 15 3 15H2.5C1.67157 15 1 14.3284 1 13.5C1 12.6716 1.67157 12 2.5 12H3C3.27614 12 3.5 11.7761 3.5 11.5C3.5 11.2239 3.27614 11 3 11H2.5Z" fill="#006CBF"/>
<path d="M6 11C5.72386 11 5.5 11.2239 5.5 11.5C5.5 11.7761 5.72386 12 6 12H6.5C7.32843 12 8 12.6716 8 13.5C8 14.3284 7.32843 15 6.5 15H6C5.72386 15 5.5 15.2239 5.5 15.5C5.5 15.7761 5.72386 16 6 16H6.5C7.88071 16 9 14.8807 9 13.5C9 12.1193 7.88071 11 6.5 11H6Z" fill="#006CBF"/>
<path d="M2.5 13C2.22386 13 2 13.2239 2 13.5C2 13.7761 2.22386 14 2.5 14H6.5C6.77614 14 7 13.7761 7 13.5C7 13.2239 6.77614 13 6.5 13H2.5Z" fill="#006CBF"/>
</svg>
