<svg width="16" height="16" viewBox="0 0 16 16" fill="none" xmlns="http://www.w3.org/2000/svg">
<path d="M4 6.50001L4 5.50001C4 3.567 5.567 2.00001 7.5 2.00001C9.36856 2.00001 10.8951 3.46428 10.9948 5.30589L11 5.4977L11.0046 6.4977C11.0059 6.77384 10.783 6.99873 10.5069 7.00001C10.2614 7.00112 10.0565 6.82519 10.0131 6.59213L10.0046 6.5023L10 5.50001C10 4.11929 8.88071 3.00001 7.5 3.00001C6.17452 3.00001 5.08996 4.03154 5.00532 5.33562L5 5.50001L5 6.50001C5 6.77614 4.77614 7.00001 4.5 7.00001C4.25454 7.00001 4.05039 6.82313 4.00806 6.58988L4 6.50001L4 5.50001L4 6.50001ZM4 10.5L4 9.5C4 9.22386 4.22386 9 4.5 9C4.74546 9 4.94961 9.17688 4.99194 9.41012L5 9.5L5 10.5C5 11.8807 6.11929 13 7.5 13C8.82548 13 9.91004 11.9685 9.99468 10.6644L10 10.5L10 9.5C10 9.22386 10.2239 9 10.5 9C10.7455 9 10.9496 9.17687 10.9919 9.41012L11 9.5L11 10.5C11 12.433 9.433 14 7.5 14C5.63144 14 4.10487 12.5357 4.00518 10.692L4 10.5L4 9.5L4 10.5ZM7 10.4998L7.0023 5.49977C7.00242 5.22363 7.22638 4.99987 7.50252 5C7.74798 5.00011 7.95205 5.17708 7.99428 5.41035L8.0023 5.50023L8 10.5002C7.99987 10.7764 7.77591 11.0001 7.49977 11C7.25431 10.9999 7.05024 10.8229 7.00801 10.5896L7 10.4998Z" fill="#202020"/>
</svg>
