<svg width="16" height="16" viewBox="0 0 16 16" fill="none" xmlns="http://www.w3.org/2000/svg">
<path d="M14 14H14.75C15.439 14 16 13.439 16 12.75V2.25C16 1.561 15.439 1 14.75 1H14C13.724 1 13.5 1.224 13.5 1.5C13.5 1.776 13.724 2 14 2H14.75C14.888 2 15 2.112 15 2.25V12.75C15 12.888 14.888 13 14.75 13H14C13.724 13 13.5 13.224 13.5 13.5C13.5 13.776 13.724 14 14 14Z" fill="#202020"/>
<path d="M1 10.3368V2.25C1 1.561 1.561 1 2.25 1H3C3.276 1 3.5 1.224 3.5 1.5C3.5 1.776 3.276 2 3 2H2.25C2.112 2 2 2.112 2 2.25V10.0354C1.64693 10.0859 1.31085 10.1891 1 10.3368Z" fill="#202020"/>
<path d="M9.57137 11.8203C9.83023 11.6395 10 11.3394 10 11V7C10 6.448 9.551 6 9 6H8C7.449 6 7 6.448 7 7V10.0354C7.35307 10.0859 7.68915 10.1891 8 10.3368V7H9V11H8.94949C9.19485 11.2404 9.40497 11.5167 9.57137 11.8203Z" fill="#202020"/>
<path d="M6 10V9C6 8.448 5.551 8 5 8H4C3.449 8 3 8.448 3 9V10H4V9H5V10H6Z" fill="#202020"/>
<path fill-rule="evenodd" clip-rule="evenodd" d="M14 4V11C14 11.552 13.551 12 13 12H12C11.449 12 11 11.552 11 11V4C11 3.448 11.449 3 12 3H13C13.551 3 14 3.448 14 4ZM13.001 11V4H12.001V11H13.001Z" fill="#202020"/>
<path d="M2.5 11C1.11929 11 0 12.1193 0 13.5C0 14.8807 1.11929 16 2.5 16H3C3.27614 16 3.5 15.7761 3.5 15.5C3.5 15.2239 3.27614 15 3 15H2.5C1.67157 15 1 14.3284 1 13.5C1 12.6716 1.67157 12 2.5 12H3C3.27614 12 3.5 11.7761 3.5 11.5C3.5 11.2239 3.27614 11 3 11H2.5Z" fill="#006CBF"/>
<path d="M6 11C5.72386 11 5.5 11.2239 5.5 11.5C5.5 11.7761 5.72386 12 6 12H6.5C7.32843 12 8 12.6716 8 13.5C8 14.3284 7.32843 15 6.5 15H6C5.72386 15 5.5 15.2239 5.5 15.5C5.5 15.7761 5.72386 16 6 16H6.5C7.88071 16 9 14.8807 9 13.5C9 12.1193 7.88071 11 6.5 11H6Z" fill="#006CBF"/>
<path d="M2.5 13C2.22386 13 2 13.2239 2 13.5C2 13.7761 2.22386 14 2.5 14H6.5C6.77614 14 7 13.7761 7 13.5C7 13.2239 6.77614 13 6.5 13H2.5Z" fill="#006CBF"/>
</svg>
