<svg width="16" height="16" viewBox="0 0 16 16" fill="none" xmlns="http://www.w3.org/2000/svg">
<path d="M11.5 5H8.5C8.36739 5 8.24021 4.94732 8.14645 4.85355C8.05268 4.75979 8 4.63261 8 4.5C8 4.36739 8.05268 4.24021 8.14645 4.14645C8.24021 4.05268 8.36739 4 8.5 4H11.5C11.6326 4 11.7598 4.05268 11.8536 4.14645C11.9473 4.24021 12 4.36739 12 4.5C12 4.63261 11.9473 4.75979 11.8536 4.85355C11.7598 4.94732 11.6326 5 11.5 5Z" fill="#202020"/>
<path d="M8.94949 11H11.5C11.6326 11 11.7598 10.9473 11.8536 10.8536C11.9473 10.7598 12 10.6326 12 10.5C12 10.3674 11.9473 10.2402 11.8536 10.1464C11.7598 10.0527 11.6326 10 11.5 10H8.5C8.36739 10 8.24021 10.0527 8.14645 10.1464C8.08946 10.2034 8.04765 10.2728 8.02362 10.3481C8.36734 10.5146 8.67972 10.7356 8.94949 11Z" fill="#202020"/>
<path d="M9.96456 13C9.91405 12.6469 9.81085 12.3109 9.66318 12H11.5C11.6326 12 11.7598 12.0527 11.8536 12.1464C11.9473 12.2402 12 12.3674 12 12.5C12 12.6326 11.9473 12.7598 11.8536 12.8536C11.7598 12.9473 11.6326 13 11.5 13H9.96456Z" fill="#202020"/>
<path d="M9.96456 14H12C12.2652 14 12.5196 13.8946 12.7071 13.7071C12.8946 13.5196 13 13.2652 13 13V3C13 2.73478 12.8946 2.48043 12.7071 2.29289C12.5196 2.10536 12.2652 2 12 2H8C7.73478 2 7.48043 2.10536 7.29289 2.29289C7.10536 2.48043 7 2.73478 7 3V10.0354C6.8367 10.0121 6.66976 10 6.5 10H6V3C6 2.46957 6.21071 1.96086 6.58579 1.58579C6.96086 1.21071 7.46957 1 8 1H12C12.5304 1 13.0391 1.21071 13.4142 1.58579C13.7893 1.96086 14 2.46957 14 3V13C14 13.5304 13.7893 14.0391 13.4142 14.4142C13.0391 14.7893 12.5304 15 12 15H9.66318C9.81085 14.6891 9.91405 14.3531 9.96456 14Z" fill="#202020"/>
<path d="M2.5 11C1.11929 11 0 12.1193 0 13.5C0 14.8807 1.11929 16 2.5 16H3C3.27614 16 3.5 15.7761 3.5 15.5C3.5 15.2239 3.27614 15 3 15H2.5C1.67157 15 1 14.3284 1 13.5C1 12.6716 1.67157 12 2.5 12H3C3.27614 12 3.5 11.7761 3.5 11.5C3.5 11.2239 3.27614 11 3 11H2.5Z" fill="#006CBF"/>
<path d="M6 11C5.72386 11 5.5 11.2239 5.5 11.5C5.5 11.7761 5.72386 12 6 12H6.5C7.32843 12 8 12.6716 8 13.5C8 14.3284 7.32843 15 6.5 15H6C5.72386 15 5.5 15.2239 5.5 15.5C5.5 15.7761 5.72386 16 6 16H6.5C7.88071 16 9 14.8807 9 13.5C9 12.1193 7.88071 11 6.5 11H6Z" fill="#006CBF"/>
<path d="M2.5 13C2.22386 13 2 13.2239 2 13.5C2 13.7761 2.22386 14 2.5 14H6.5C6.77614 14 7 13.7761 7 13.5C7 13.2239 6.77614 13 6.5 13H2.5Z" fill="#006CBF"/>
</svg>
