<svg width="16" height="16" viewBox="0 0 16 16" fill="none" xmlns="http://www.w3.org/2000/svg">
<g clip-path="url(#clip0_7202_73717)">
<path d="M10.5 3H9.49999L9.41012 3.00806C9.17687 3.05039 8.99999 3.25454 8.99999 3.5C8.99999 3.77614 9.22386 4 9.49999 4H10.5L10.6644 4.00532C11.9685 4.08996 13 5.17452 13 6.5C13 7.88071 11.8807 9 10.5 9L9.4977 9.0046L9.40787 9.01306C9.17481 9.05647 8.99888 9.26143 8.99999 9.50689C9.00127 9.78303 9.22616 10.0059 9.5023 10.0046L10.5023 10L10.6941 9.99482C12.5357 9.89513 14 8.36856 14 6.5C14 4.567 12.433 3 10.5 3Z" fill="#202020"/>
<path d="M6.5 3H5.5L5.30796 3.00518C3.46428 3.10487 2 4.63144 2 6.5C2 8.433 3.567 10 5.5 10H6.5L6.58988 9.99194C6.82312 9.94961 7 9.74546 7 9.5C7 9.22386 6.77614 9 6.5 9H5.5L5.33562 8.99468C4.03154 8.91004 3 7.82548 3 6.5C3 5.11929 4.11929 4 5.5 4H6.5L6.58988 3.99194C6.82312 3.94961 7 3.74546 7 3.5C7 3.22386 6.77614 3 6.5 3Z" fill="#202020"/>
<path d="M10.5002 6.0023L5.50023 6L5.41035 6.00801C5.17708 6.05024 5.00011 6.25431 5 6.49977C4.99987 6.77591 5.22363 6.99987 5.49977 7L10.4998 7.0023L10.5897 6.99428C10.8229 6.95205 10.9999 6.74798 11 6.50252C11.0001 6.22638 10.7764 6.00242 10.5002 6.0023Z" fill="#202020"/>
<path d="M10.5 16C10.4343 16.0001 10.3692 15.9873 10.3085 15.9623C10.2477 15.9372 10.1925 15.9004 10.146 15.854L7.64602 13.354C7.55213 13.2601 7.49939 13.1328 7.49939 13C7.49939 12.8672 7.55213 12.7399 7.64602 12.646C7.73991 12.5521 7.86725 12.4994 8.00002 12.4994C8.1328 12.4994 8.26013 12.5521 8.35402 12.646L10.5 14.793L15.146 10.146C15.2399 10.0521 15.3672 9.99939 15.5 9.99939C15.6328 9.99939 15.7601 10.0521 15.854 10.146C15.9479 10.2399 16.0007 10.3672 16.0007 10.5C16.0007 10.6328 15.9479 10.7601 15.854 10.854L10.854 15.854C10.8075 15.9004 10.7523 15.9372 10.6916 15.9623C10.6308 15.9873 10.5657 16.0001 10.5 16Z" fill="#11910D"/>
</g>
<defs>
<clipPath id="clip0_7202_73717">
<rect width="16" height="16" fill="white"/>
</clipPath>
</defs>
</svg>
