<svg width="16" height="16" viewBox="0 0 16 16" fill="none" xmlns="http://www.w3.org/2000/svg">
<g clip-path="url(#clip0_7202_73844)">
<path d="M2.5 3C2.22386 3 2 3.22386 2 3.5C2 3.77614 2.22386 4 2.5 4H10.5C10.7761 4 11 3.77614 11 3.5C11 3.22386 10.7761 3 10.5 3H2.5Z" fill="#202020"/>
<path d="M3.99999 8V7H13.5C13.7761 7 14 7.22386 14 7.5C14 7.77614 13.7761 8 13.5 8H3.99999Z" fill="#202020"/>
<path d="M5.9124 11C5.90212 11.0287 5.89094 11.0571 5.87888 11.0852C5.79949 11.2701 5.68354 11.437 5.53799 11.576L5.11399 12H9.5C9.77614 12 10 11.7761 10 11.5C10 11.2239 9.77614 11 9.5 11H5.9124Z" fill="#202020"/>
<path d="M2.15003 12.85L0.150028 10.85C0.102586 10.8049 0.0648117 10.7506 0.0389999 10.6904C0.0131882 10.6303 -0.00012207 10.5655 -0.00012207 10.5C-0.00012207 10.4345 0.0131882 10.3697 0.0389999 10.3096C0.0648117 10.2494 0.102586 10.1951 0.150028 10.15C0.195146 10.1026 0.249437 10.0648 0.309604 10.039C0.369771 10.0132 0.434558 9.99985 0.500028 9.99985C0.565498 9.99985 0.630285 10.0132 0.690452 10.039C0.750619 10.0648 0.804911 10.1026 0.850028 10.15L2.00003 11.29V6.5C2.00003 6.36739 2.05271 6.24021 2.14647 6.14645C2.24024 6.05268 2.36742 6 2.50003 6C2.63264 6 2.75981 6.05268 2.85358 6.14645C2.94735 6.24021 3.00003 6.36739 3.00003 6.5V11.29L4.15003 10.15C4.24317 10.0587 4.36858 10.0079 4.49899 10.0085C4.62941 10.0092 4.75429 10.0613 4.84651 10.1535C4.93873 10.2457 4.99083 10.3706 4.99149 10.501C4.99214 10.6315 4.94131 10.7569 4.85003 10.85L2.85003 12.85C2.80491 12.8974 2.75062 12.9352 2.69045 12.961C2.63028 12.9868 2.5655 13.0001 2.50003 13.0001C2.43456 13.0001 2.36977 12.9868 2.3096 12.961C2.24944 12.9352 2.19515 12.8974 2.15003 12.85V12.85Z" fill="#006CBF"/>
</g>
<defs>
<clipPath id="clip0_7202_73844">
<rect width="16" height="16" fill="white"/>
</clipPath>
</defs>
</svg>
