<svg width="16" height="16" viewBox="0 0 16 16" fill="none" xmlns="http://www.w3.org/2000/svg">
<g clip-path="url(#clip0_7202_73854)">
<path fill-rule="evenodd" clip-rule="evenodd" d="M11.5 2H4.5C3.119 2 2 3.119 2 4.5V5.62068C2.01468 5.5994 2.02997 5.57849 2.04586 5.558C2.19786 5.361 2.40086 5.209 2.63186 5.119C2.74886 5.073 2.87386 5.042 3.00186 5.029C3.16486 5.01 3.33986 5 3.51486 5C4.10886 5 4.68786 5.115 5.23686 5.341C5.63835 5.50635 6.01355 5.72911 6.3501 6H10V12.4551L10.2629 12.718C10.4879 12.931 10.6799 13.205 10.8149 13.515C10.8836 13.6728 10.9354 13.8347 10.9703 14H11.5C12.881 14 14 12.881 14 11.5V4.5C14 3.119 12.881 2 11.5 2ZM3.51486 5H3V4.5C3 3.672 3.672 3 4.5 3H11.5C12.328 3 13 3.672 13 4.5V5H3.51486ZM13 11.5C13 12.328 12.328 13 11.5 13H11V6H13V11.5Z" fill="#202020"/>
<path d="M2.75809 6.33501C2.76709 6.26601 2.79409 6.20101 2.83709 6.14601C2.88009 6.09101 2.93609 6.04901 3.00009 6.02401C3.03509 6.01001 3.07109 6.00201 3.10809 5.99801C3.70209 5.92801 4.30509 6.01201 4.85809 6.24001C5.41109 6.46801 5.89709 6.83301 6.27009 7.30101C6.64309 7.76901 6.89009 8.32401 6.98809 8.91501C7.08609 9.50601 7.03309 10.111 6.83209 10.674L9.55809 13.4C9.70409 13.539 9.82009 13.705 9.90009 13.89C9.98009 14.074 10.0231 14.273 10.0251 14.474C10.0271 14.675 9.99009 14.875 9.91409 15.061C9.83809 15.247 9.72609 15.417 9.58409 15.559C9.44209 15.701 9.27309 15.814 9.08609 15.889C8.90009 15.965 8.70009 16.003 8.49909 16C8.29809 15.998 8.09909 15.955 7.91509 15.875C7.73109 15.795 7.56409 15.678 7.42509 15.533L4.69909 12.807C4.13509 13.008 3.53009 13.062 2.94009 12.963C2.35009 12.865 1.79409 12.617 1.32609 12.245C0.858086 11.872 0.493086 11.386 0.265086 10.833C0.037086 10.28 -0.045914 9.67801 0.023086 9.08301C0.035086 9.00201 0.070086 8.92701 0.124086 8.86601C0.178086 8.80501 0.248086 8.76101 0.326086 8.73801C0.404086 8.71601 0.487086 8.71701 0.565086 8.74101C0.643086 8.76501 0.712086 8.81101 0.765086 8.87301L1.74009 9.84801C2.02509 10.119 2.40509 10.269 2.79809 10.264C3.19209 10.259 3.56809 10.101 3.84609 9.82201C4.12409 9.54401 4.28309 9.16801 4.28809 8.77401C4.29309 8.38001 4.14409 8.00101 3.87209 7.71601L2.89709 6.74101C2.82509 6.67001 2.77709 6.58001 2.75909 6.48101C2.75109 6.43301 2.75009 6.38401 2.75709 6.33601L2.75809 6.33501Z" fill="#202020"/>
</g>
<defs>
<clipPath id="clip0_7202_73854">
<rect width="16" height="16" fill="white"/>
</clipPath>
</defs>
</svg>
