<svg width="16" height="16" viewBox="0 0 16 16" fill="none" xmlns="http://www.w3.org/2000/svg">
<path d="M7.5 10.5L7.511 12H6.5C6.367 12 6.24 12.053 6.146 12.146C6.052 12.24 6 12.367 6 12.5V13H5.5C5.367 13 5.24 13.053 5.146 13.146C5.052 13.24 5 13.367 5 13.5V14H1.5C1.367 14 1.24 14.053 1.146 14.146C1.052 14.24 1 14.367 1 14.5C1 14.633 1.053 14.76 1.146 14.854C1.24 14.948 1.367 15 1.5 15H5V15.5C5 15.633 5.053 15.76 5.146 15.854C5.24 15.948 5.367 16 5.5 16H10.5C10.633 16 10.76 15.947 10.854 15.854C10.948 15.76 11 15.633 11 15.5V15H14.5C14.633 15 14.76 14.947 14.854 14.854C14.948 14.76 15 14.633 15 14.5C15 14.367 14.947 14.24 14.854 14.146C14.76 14.052 14.633 14 14.5 14H11V13.5C11 13.367 10.947 13.24 10.854 13.146C10.76 13.052 10.633 13 10.5 13H10V12.5C10 12.367 9.947 12.24 9.854 12.146C9.76 12.052 9.633 12 9.5 12H8.511L8.5 10.5H7.5ZM7 13H9V13.5C9 13.633 9.053 13.76 9.146 13.854C9.24 13.948 9.367 14 9.5 14H10V15H6V14H6.5C6.633 14 6.76 13.947 6.854 13.854C6.948 13.76 7 13.633 7 13.5V13Z" fill="#202020"/>
<path d="M4 2V9C4 10.313 6.012 11 8 11C9.988 11 12 10.313 12 9V2C12 -0.625998 4 -0.625998 4 2ZM8 1C9.861 1 11 1.647 11 2C11 2.353 9.861 3 8 3C6.139 3 5 2.353 5 2C5 1.647 6.139 1 8 1ZM8 10C6.139 10 5 9.353 5 9V3.352C5.934 3.804 6.963 4.026 8 4C9.037 4.026 10.066 3.804 11 3.352V9C11 9.353 9.861 10 8 10Z" fill="#3487C7"/>
</svg>
