<svg width="16" height="16" viewBox="0 0 16 16" fill="none" xmlns="http://www.w3.org/2000/svg">
<g clip-path="url(#clip0_7202_73936)">
<path d="M8.74697 7.995C8.38306 8.4367 7.95158 8.82064 7.46835 9.13102L8.02701 9.303L8.52301 8.453C8.60894 8.30538 8.68372 8.15229 8.74697 7.995Z" fill="#202020"/>
<path d="M9.79298 3H11V6.689C11 7.309 11.165 7.918 11.477 8.453L12.033 9.406L12.954 9L12.341 7.949C12.118 7.566 12 7.132 12 6.689V3H12.5C12.776 3 13 2.776 13 2.5C13 2.224 12.776 2 12.5 2H9.4003C9.56224 2.31679 9.69437 2.65136 9.79298 3Z" fill="#202020"/>
<path d="M5.50998 13.3574C5.77391 13.7377 6.21183 14 6.74101 14H13.259C14.417 14 15.138 12.744 14.555 11.744L12.954 9H7.66309C7.43151 9.16308 7.18678 9.30873 6.9308 9.43505C7.05101 9.55378 7.15195 9.69348 7.22696 9.85C7.31501 10.0318 7.36318 10.2273 7.37277 10.424L7.62001 10H12.379L13.69 12.248C13.884 12.581 13.645 13 13.259 13H6.74101C6.42697 13 6.20957 12.7227 6.2439 12.4399L5.50998 13.3574Z" fill="#159195"/>
<path d="M4.60747 9.99916C4.57173 9.99984 4.5359 10.0002 4.5 10.0002C3.10997 10.0002 1.84037 9.48452 0.872076 8.63406L0.0229841 11.3512C-0.0240159 11.5022 0.00298412 11.6682 0.0969841 11.7962C0.190984 11.9242 0.340984 12.0002 0.499984 12.0002H1.46498L0.692984 14.7482C0.608984 15.0482 0.668984 15.3622 0.856984 15.6102C1.04398 15.8582 1.32998 16.0002 1.64198 16.0002V15.9992C1.94398 15.9992 2.22398 15.8632 2.41198 15.6292L6.26598 10.8112C6.38698 10.6612 6.40998 10.4552 6.32598 10.2822C6.24298 10.1092 6.06798 9.99916 5.87598 9.99916H4.60747Z" fill="#B27C00"/>
<path fill-rule="evenodd" clip-rule="evenodd" d="M1.99994 0.758387C2.73996 0.26392 3.60999 0 4.5 0C5.69348 0 6.83807 0.474106 7.68198 1.31802C8.5259 2.16193 9 3.30653 9 4.5C9 5.39002 8.73608 6.26004 8.24162 7.00007C7.74715 7.74009 7.04434 8.31686 6.22208 8.65746C5.39981 8.99805 4.49501 9.08717 3.6221 8.91353C2.74918 8.7399 1.94736 8.31132 1.31802 7.68198C0.688685 7.05264 0.260102 6.25082 0.0864683 5.37791C-0.0871652 4.50499 0.00194976 3.60019 0.342544 2.77792C0.683138 1.95566 1.25991 1.25285 1.99994 0.758387ZM6.713 4.937L3.743 6.587C3.66689 6.62932 3.58104 6.65103 3.49396 6.64998C3.40688 6.64893 3.32158 6.62515 3.24652 6.581C3.17145 6.53685 3.10922 6.47386 3.06598 6.39826C3.02274 6.32266 3 6.23708 3 6.15V2.85C3 2.76291 3.02274 2.67733 3.06598 2.60173C3.10922 2.52614 3.17145 2.46315 3.24652 2.41899C3.32158 2.37484 3.40688 2.35106 3.49396 2.35001C3.58104 2.34896 3.66689 2.37067 3.743 2.413L6.713 4.063C6.79091 4.10631 6.85582 4.16967 6.90101 4.2465C6.94621 4.32334 6.97004 4.41086 6.97004 4.5C6.97004 4.58914 6.94621 4.67666 6.90101 4.75349C6.85582 4.83033 6.79091 4.89368 6.713 4.937Z" fill="#11910D"/>
</g>
<defs>
<clipPath id="clip0_7202_73936">
<rect width="16" height="16" fill="white"/>
</clipPath>
</defs>
</svg>
