<svg width="16" height="16" viewBox="0 0 16 16" fill="none" xmlns="http://www.w3.org/2000/svg">
<g clip-path="url(#clip0_7202_73942)">
<path d="M9.477 8.453L10.033 9.406L10.954 9L10.341 7.949C10.118 7.566 10 7.132 10 6.689V3H10.5C10.776 3 11 2.776 11 2.5C11 2.224 10.776 2 10.5 2H5.5C5.224 2 5 2.224 5 2.5C5 2.776 5.224 3 5.5 3H6V6.69C6 7.133 5.882 7.568 5.659 7.95L5.046 9.001L6.027 9.303L6.523 8.453C6.835 7.917 7 7.309 7 6.689V3H9V6.689C9 7.309 9.165 7.918 9.477 8.453Z" fill="#202020"/>
<path d="M5.91251 14H11.259C12.417 14 13.138 12.744 12.555 11.744L10.954 9H5.046L4.00009 10.7926L4.00009 12.086C4.14601 12.0348 4.29876 12.0062 4.45312 12.0009L5.62 10H10.379L11.69 12.248C11.884 12.581 11.644 13 11.258 13H5.91506C5.97236 13.1603 6.0012 13.3295 6.00009 13.5C5.99965 13.6707 5.96995 13.8398 5.91251 14Z" fill="#159195"/>
<path d="M2.14997 15.85L0.149972 13.85C0.10253 13.8049 0.0647554 13.7506 0.0389438 13.6904C0.0131321 13.6303 -0.00017834 13.5655 -0.000178337 13.5C-0.000178334 13.4345 0.0131321 13.3697 0.0389438 13.3096C0.0647554 13.2494 0.10253 13.1951 0.149972 13.15C0.195089 13.1026 0.249381 13.0648 0.309548 13.039C0.369715 13.0132 0.434502 12.9998 0.499972 12.9998C0.565442 12.9998 0.630229 13.0132 0.690396 13.039C0.750563 13.0648 0.804854 13.1026 0.849972 13.15L1.99997 14.29L1.99997 9.5C1.99997 9.36739 2.05265 9.24021 2.14642 9.14645C2.24019 9.05268 2.36736 9 2.49997 9C2.63258 9 2.75976 9.05268 2.85353 9.14645C2.94729 9.24021 2.99997 9.36739 2.99997 9.5L2.99997 14.29L4.14997 13.15C4.19509 13.1026 4.24938 13.0648 4.30955 13.039C4.36972 13.0132 4.4345 12.9998 4.49997 12.9998C4.56544 12.9998 4.63023 13.0132 4.6904 13.039C4.75056 13.0648 4.80485 13.1026 4.84997 13.15C4.89741 13.1951 4.93519 13.2494 4.961 13.3096C4.98681 13.3697 5.00012 13.4345 5.00012 13.5C5.00012 13.5655 4.98681 13.6303 4.961 13.6904C4.93519 13.7506 4.89741 13.8049 4.84997 13.85L2.84997 15.85C2.80485 15.8974 2.75056 15.9352 2.6904 15.961C2.63023 15.9868 2.56544 16.0001 2.49997 16.0001C2.4345 16.0001 2.36971 15.9868 2.30955 15.961C2.24938 15.9352 2.19509 15.8974 2.14997 15.85Z" fill="#006CBF"/>
</g>
<defs>
<clipPath id="clip0_7202_73942">
<rect width="16" height="16" fill="white"/>
</clipPath>
</defs>
</svg>
