<svg width="16" height="16" viewBox="0 0 16 16" fill="none" xmlns="http://www.w3.org/2000/svg">
<path d="M9 3.5C9 3.77614 8.77614 4 8.5 4C8.22386 4 8 3.77614 8 3.5C8 3.22386 8.22386 3 8.5 3C8.77614 3 9 3.22386 9 3.5Z" fill="#006CBF"/>
<path d="M8.98059 5.86156L8.63844 5.51941C8.80328 5.56681 8.93319 5.69672 8.98059 5.86156Z" fill="#006CBF"/>
<path fill-rule="evenodd" clip-rule="evenodd" d="M10 10H12.5C12.7761 10 13 10.2239 13 10.5V12H14V7.5C14 7.22386 13.7761 7 13.5 7H12.5C12.2239 7 12 6.77614 12 6.5V2.5C12 2.22386 11.7761 2 11.5 2H7.5C7.22386 2 7 2.22386 7 2.5V4.09388C6.97459 4.08565 6.94923 4.07834 6.924 4.07198C6.864 4.05298 6.811 4.04098 6.754 4.03098L6.634 4.00098H6V2.5C6 1.67157 6.67157 1 7.5 1H11.5C12.3284 1 13 1.67157 13 2.5V6H13.5C14.3284 6 15 6.67157 15 7.5V12.5C15 12.7761 14.7761 13 14.5 13H9.73186C9.90234 12.7057 10 12.3644 10 12.001L10.0025 12V11H10V10ZM12 12V11H11.0025V12H12Z" fill="#006CBF"/>
<path d="M10 8.5C10 8.77614 10.2239 9 10.5 9C10.7761 9 11 8.77614 11 8.5C11 8.22386 10.7761 8 10.5 8C10.2239 8 10 8.22386 10 8.5Z" fill="#006CBF"/>
<path d="M10.5 4C10.7761 4 11 3.77614 11 3.5C11 3.22386 10.7761 3 10.5 3C10.2239 3 10 3.22386 10 3.5C10 3.77614 10.2239 4 10.5 4Z" fill="#006CBF"/>
<path d="M11 6C11 6.27614 10.7761 6.5 10.5 6.5C10.2239 6.5 10 6.27614 10 6C10 5.72386 10.2239 5.5 10.5 5.5C10.7761 5.5 11 5.72386 11 6Z" fill="#006CBF"/>
<path d="M13 8.5C13 8.77614 12.7761 9 12.5 9C12.2239 9 12 8.77614 12 8.5C12 8.22386 12.2239 8 12.5 8C12.7761 8 13 8.22386 13 8.5Z" fill="#006CBF"/>
<path d="M8.986 7.437C8.983 7.415 8.979 7.396 8.974 7.374C8.951 7.29 8.915 7.21 8.853 7.147L6.853 5.147C6.79 5.084 6.711 5.048 6.627 5.026C6.605 5.02 6.586 5.016 6.564 5.013C6.542 5.01 6.522 5 6.5 5H4C3.449 5 3 5.449 3 6V12C3 12.551 3.449 13 4 13H8C8.551 13 9 12.551 9 12V7.5C9 7.478 8.99 7.458 8.987 7.436L8.986 7.437ZM3.999 12.001V6.001H5.999V7.501C5.999 7.777 6.223 8.001 6.499 8.001H7.999V12.001H3.999ZM2 6.5C2 6.776 1.776 7 1.5 7C1.224 7 1 6.776 1 6.5C1 6.224 1.224 6 1.5 6C1.776 6 2 6.224 2 6.5ZM2 8.5C2 8.776 1.776 9 1.5 9C1.224 9 1 8.776 1 8.5C1 8.224 1.224 8 1.5 8C1.776 8 2 8.224 2 8.5ZM2 10.5C2 10.776 1.776 11 1.5 11C1.224 11 1 10.776 1 10.5C1 10.224 1.224 10 1.5 10C1.776 10 2 10.224 2 10.5ZM2 12.5C2 12.776 1.776 13 1.5 13C1.224 13 1 12.776 1 12.5C1 12.224 1.224 12 1.5 12C1.776 12 2 12.224 2 12.5ZM2 14.5C2 14.776 1.776 15 1.5 15C1.224 15 1 14.776 1 14.5C1 14.224 1.224 14 1.5 14C1.776 14 2 14.224 2 14.5ZM4 14.5C4 14.776 3.776 15 3.5 15C3.224 15 3 14.776 3 14.5C3 14.224 3.224 14 3.5 14C3.776 14 4 14.224 4 14.5ZM6 14.5C6 14.776 5.776 15 5.5 15C5.224 15 5 14.776 5 14.5C5 14.224 5.224 14 5.5 14C5.776 14 6 14.224 6 14.5ZM8 14.5C8 14.776 7.776 15 7.5 15C7.224 15 7 14.776 7 14.5C7 14.224 7.224 14 7.5 14C7.776 14 8 14.224 8 14.5Z" fill="#202020"/>
</svg>
