<svg width="16" height="16" viewBox="0 0 16 16" fill="none" xmlns="http://www.w3.org/2000/svg">
<path d="M11.5 5H8.5C8.36739 5 8.24021 4.94732 8.14645 4.85355C8.05268 4.75979 8 4.63261 8 4.5C8 4.36739 8.05268 4.24021 8.14645 4.14645C8.24021 4.05268 8.36739 4 8.5 4H11.5C11.6326 4 11.7598 4.05268 11.8536 4.14645C11.9473 4.24021 12 4.36739 12 4.5C12 4.63261 11.9473 4.75979 11.8536 4.85355C11.7598 4.94732 11.6326 5 11.5 5Z" fill="#202020"/>
<path d="M8.5 11H11.5C11.6326 11 11.7598 10.9473 11.8536 10.8536C11.9473 10.7598 12 10.6326 12 10.5C12 10.3674 11.9473 10.2402 11.8536 10.1464C11.7598 10.0527 11.6326 10 11.5 10H8.5C8.36739 10 8.24021 10.0527 8.14645 10.1464C8.05268 10.2402 8 10.3674 8 10.5C8 10.6326 8.05268 10.7598 8.14645 10.8536C8.24021 10.9473 8.36739 11 8.5 11Z" fill="#202020"/>
<path d="M11.5 13H8.5C8.36739 13 8.24021 12.9473 8.14645 12.8536C8.05268 12.7598 8 12.6326 8 12.5C8 12.3674 8.05268 12.2402 8.14645 12.1464C8.24021 12.0527 8.36739 12 8.5 12H11.5C11.6326 12 11.7598 12.0527 11.8536 12.1464C11.9473 12.2402 12 12.3674 12 12.5C12 12.6326 11.9473 12.7598 11.8536 12.8536C11.7598 12.9473 11.6326 13 11.5 13Z" fill="#202020"/>
<path d="M6 6.70862V3C6 2.46957 6.21071 1.96086 6.58579 1.58579C6.96086 1.21071 7.46957 1 8 1H12C12.5304 1 13.0391 1.21071 13.4142 1.58579C13.7893 1.96086 14 2.46957 14 3V13C14 13.5304 13.7893 14.0391 13.4142 14.4142C13.0391 14.7893 12.5304 15 12 15H9.93501C9.86377 14.7681 9.73666 14.5547 9.56201 14.38L9.18184 14H12C12.2652 14 12.5196 13.8946 12.7071 13.7071C12.8946 13.5196 13 13.2652 13 13V3C13 2.73478 12.8946 2.48043 12.7071 2.29289C12.5196 2.10536 12.2652 2 12 2H8C7.73478 2 7.48043 2.10536 7.29289 2.29289C7.10536 2.48043 7 2.73478 7 3V7.62132C6.74181 7.30188 6.43919 7.01706 6.09882 6.77651C6.06615 6.75342 6.0332 6.73079 6 6.70862Z" fill="#202020"/>
<path d="M8.854 15.087L6.293 12.527C6.74929 11.9267 6.99749 11.194 7 10.44C7 9.74774 6.79473 9.07105 6.41015 8.49548C6.02556 7.91991 5.47894 7.4713 4.83939 7.2064C4.19985 6.94149 3.49612 6.87218 2.81719 7.00723C2.13825 7.14227 1.51461 7.47562 1.02513 7.9651C0.535644 8.45458 0.202301 9.07822 0.0672531 9.75716C-0.0677952 10.4361 0.00151649 11.1398 0.266423 11.7794C0.53133 12.4189 0.979934 12.9655 1.55551 13.3501C2.13108 13.7347 2.80777 13.94 3.5 13.94C4.25357 13.9375 4.98584 13.6897 5.586 13.234L8.146 15.794C8.23976 15.8879 8.36697 15.9407 8.49965 15.9408C8.63233 15.9408 8.75962 15.8882 8.8535 15.7945C8.94739 15.7007 9.00019 15.5735 9.00028 15.4408C9.00037 15.3081 8.94776 15.1809 8.854 15.087V15.087ZM1 10.44C1 9.94552 1.14662 9.46217 1.42133 9.05105C1.69603 8.63993 2.08648 8.31949 2.54329 8.13027C3.00011 7.94106 3.50277 7.89155 3.98773 7.98801C4.47268 8.08447 4.91814 8.32258 5.26777 8.67221C5.6174 9.02184 5.8555 9.4673 5.95196 9.95225C6.04843 10.4372 5.99892 10.9399 5.8097 11.3967C5.62048 11.8535 5.30005 12.2439 4.88893 12.5186C4.4778 12.7934 3.99445 12.94 3.5 12.94C2.83696 12.94 2.20108 12.6766 1.73223 12.2077C1.26339 11.7389 1 11.103 1 10.44V10.44Z" fill="#006CBF"/>
</svg>
