<svg width="16" height="16" viewBox="0 0 16 16" fill="none" xmlns="http://www.w3.org/2000/svg">
<path d="M9.5 5H6.5C6.36739 5 6.24021 4.94732 6.14645 4.85355C6.05268 4.75979 6 4.63261 6 4.5C6 4.36739 6.05268 4.24021 6.14645 4.14645C6.24021 4.05268 6.36739 4 6.5 4H9.5C9.63261 4 9.75979 4.05268 9.85355 4.14645C9.94732 4.24021 10 4.36739 10 4.5C10 4.63261 9.94732 4.75979 9.85355 4.85355C9.75979 4.94732 9.63261 5 9.5 5Z" fill="#202020"/>
<path d="M6.5 11H9.5C9.63261 11 9.75979 10.9473 9.85355 10.8536C9.94732 10.7598 10 10.6326 10 10.5C10 10.3674 9.94732 10.2402 9.85355 10.1464C9.75979 10.0527 9.63261 10 9.5 10H6.5C6.36739 10 6.24021 10.0527 6.14645 10.1464C6.05382 10.2391 6.00129 10.3643 6.00002 10.4952V10.5048C6.00129 10.6357 6.05382 10.7609 6.14645 10.8536C6.24021 10.9473 6.36739 11 6.5 11Z" fill="#202020"/>
<path d="M7.20694 13L6.57932 12H9.5C9.63261 12 9.75979 12.0527 9.85355 12.1464C9.94732 12.2402 10 12.3674 10 12.5C10 12.6326 9.94732 12.7598 9.85355 12.8536C9.75979 12.9473 9.63261 13 9.5 13H7.20694Z" fill="#202020"/>
<path d="M7.80901 14H10C10.2652 14 10.5196 13.8946 10.7071 13.7071C10.8946 13.5196 11 13.2652 11 13V3C11 2.73478 10.8946 2.48043 10.7071 2.29289C10.5196 2.10536 10.2652 2 10 2H6C5.73478 2 5.48043 2.10536 5.29289 2.29289C5.10536 2.48043 5 2.73478 5 3V7H4V3C4 2.46957 4.21071 1.96086 4.58579 1.58579C4.96086 1.21071 5.46957 1 6 1H10C10.5304 1 11.0391 1.21071 11.4142 1.58579C11.7893 1.96086 12 2.46957 12 3V13C12 13.5304 11.7893 14.0391 11.4142 14.4142C11.0391 14.7893 10.5304 15 10 15H7.99559C7.99787 14.9599 7.99902 14.9196 7.99902 14.879C7.99902 14.598 7.94102 14.319 7.83102 14.063C7.82409 14.0415 7.81673 14.0205 7.80901 14Z" fill="#202020"/>
<path d="M0.11 14.41C0.12 14.36 0.14 14.32 0.17 14.28L0.973 13H6.027L6.83 14.28C6.86 14.32 6.88 14.36 6.89 14.41C6.96 14.55 7 14.71 7 14.88C7 15.47 6.55 15.95 5.98 15.99C5.95 16 5.91 16 5.88 16H1.12C1.09 16 1.05 16 1.02 15.99C0.45 15.95 0 15.47 0 14.88C0 14.71 0.0399997 14.55 0.11 14.41Z" fill="#159195"/>
<path d="M5.5 9H5V11.2C5 11.3 5.03 11.4 5.08 11.49L5.4 12H1.6L1.92 11.49C1.97 11.4 2 11.3 2 11.2V9H1.5C1.224 9 1 8.776 1 8.5C1 8.224 1.224 8 1.5 8H5.5C5.776 8 6 8.224 6 8.5C6 8.776 5.776 9 5.5 9Z" fill="#202020"/>
</svg>
