<svg width="16" height="16" viewBox="0 0 16 16" fill="none" xmlns="http://www.w3.org/2000/svg">
<path d="M3.74657 3.06911C3.98459 2.9291 4.29104 3.00855 4.43105 3.24657L6.50004 6.76386L8.56903 3.24657C8.70904 3.00855 9.01549 2.9291 9.25351 3.06911C9.49153 3.20912 9.57098 3.51557 9.43097 3.75359L7 7.88623V10.5001C7 10.7762 6.77614 11.0001 6.5 11.0001C6.22386 11.0001 6 10.7762 6 10.5001V7.8861L3.56911 3.75359C3.4291 3.51557 3.50855 3.20912 3.74657 3.06911Z" fill="#202020"/>
<path d="M10.5 9V10H9.875C9.392 10 9 10.403 9 10.9V15.1C9 15.597 9.392 16 9.875 16H15.125C15.608 16 16 15.597 16 15.1V10.9C16 10.403 15.608 10 15.125 10H14.5V9C14.5 7.895 13.605 7 12.5 7C11.395 7 10.5 7.895 10.5 9ZM12.5 8C13.052 8 13.5 8.448 13.5 9V10H11.5V9C11.5 8.448 11.948 8 12.5 8ZM12.5 13.75C12.086 13.75 11.75 13.414 11.75 13C11.75 12.586 12.086 12.25 12.5 12.25C12.914 12.25 13.25 12.586 13.25 13C13.25 13.414 12.914 13.75 12.5 13.75Z" fill="#202020"/>
</svg>
