<svg width="16" height="16" viewBox="0 0 16 16" fill="none" xmlns="http://www.w3.org/2000/svg">
<path d="M3.20942 3.09317C3.43413 2.93267 3.7464 2.98471 3.90691 3.20942L6.00004 6.13981L8.09317 3.20942C8.25368 2.98471 8.56595 2.93267 8.79066 3.09317C9.01536 3.25368 9.06741 3.56595 8.90691 3.79066L6.61449 7.00004L8.48811 9.62311C8.23145 9.90903 8.0595 10.2744 8.01281 10.6781L6.00004 7.86027L3.90691 10.7907C3.7464 11.0154 3.43413 11.0674 3.20942 10.9069C2.98471 10.7464 2.93267 10.4341 3.09317 10.2094L5.38559 7.00004L3.09317 3.79066C2.93267 3.56595 2.98471 3.25368 3.20942 3.09317Z" fill="#202020"/>
<path d="M10.5 9V10H9.875C9.392 10 9 10.403 9 10.9V15.1C9 15.597 9.392 16 9.875 16H15.125C15.608 16 16 15.597 16 15.1V10.9C16 10.403 15.608 10 15.125 10H14.5V9C14.5 7.895 13.605 7 12.5 7C11.395 7 10.5 7.895 10.5 9ZM12.5 8C13.052 8 13.5 8.448 13.5 9V10H11.5V9C11.5 8.448 11.948 8 12.5 8ZM12.5 13.75C12.086 13.75 11.75 13.414 11.75 13C11.75 12.586 12.086 12.25 12.5 12.25C12.914 12.25 13.25 12.586 13.25 13C13.25 13.414 12.914 13.75 12.5 13.75Z" fill="#202020"/>
</svg>
