<svg width="16" height="16" viewBox="0 0 16 16" fill="none" xmlns="http://www.w3.org/2000/svg">
<path d="M11.5 5H8.5C8.36739 5 8.24021 4.94732 8.14645 4.85355C8.05268 4.75979 8 4.63261 8 4.5C8 4.36739 8.05268 4.24021 8.14645 4.14645C8.24021 4.05268 8.36739 4 8.5 4H11.5C11.6326 4 11.7598 4.05268 11.8536 4.14645C11.9473 4.24021 12 4.36739 12 4.5C12 4.63261 11.9473 4.75979 11.8536 4.85355C11.7598 4.94732 11.6326 5 11.5 5Z" fill="#202020"/>
<path d="M9.49892 11H11.5C11.6326 11 11.7598 10.9473 11.8536 10.8536C11.9473 10.7598 12 10.6326 12 10.5C12 10.3674 11.9473 10.2402 11.8536 10.1464C11.7598 10.0527 11.6326 10 11.5 10H9.94976C9.8745 10.3693 9.7176 10.7092 9.49892 11Z" fill="#202020"/>
<path d="M10.9852 13C10.9445 12.633 10.8151 12.2923 10.619 12H11.5C11.6326 12 11.7598 12.0527 11.8536 12.1464C11.9473 12.2402 12 12.3674 12 12.5C12 12.6326 11.9473 12.7598 11.8536 12.8536C11.7598 12.9473 11.6326 13 11.5 13H10.9852Z" fill="#202020"/>
<path d="M10.8567 14H12C12.2652 14 12.5196 13.8946 12.7071 13.7071C12.8946 13.5196 13 13.2652 13 13V3C13 2.73478 12.8946 2.48043 12.7071 2.29289C12.5196 2.10536 12.2652 2 12 2H8C7.73478 2 7.48043 2.10536 7.29289 2.29289C7.10536 2.48043 7 2.73478 7 3V7.0502C6.63069 7.12543 6.29073 7.28236 6 7.50145V3C6 2.46957 6.21071 1.96086 6.58579 1.58579C6.96086 1.21071 7.46957 1 8 1H12C12.5304 1 13.0391 1.21071 13.4142 1.58579C13.7893 1.96086 14 2.46957 14 3V13C14 13.5304 13.7893 14.0391 13.4142 14.4142C13.0391 14.7893 12.5304 15 12 15H10.2454C10.5501 14.6795 10.7426 14.3237 10.8567 14Z" fill="#202020"/>
<path d="M3 11C4.105 11 5 10.105 5 9C5 7.895 4.105 7 3 7C1.895 7 1 7.895 1 9C1 10.105 1.895 11 3 11ZM7.5 11C8.328 11 9 10.328 9 9.5C9 8.672 8.328 8 7.5 8C6.672 8 6 8.672 6 9.5C6 10.328 6.672 11 7.5 11ZM1.25 12C0.56 12 0 12.56 0 13.25C0 13.25 0 15.5 3 15.5C5.378 15.5 5.871 14.086 5.973 13.5C6 13.347 6 13.25 6 13.25C6 12.56 5.44 12 4.75 12H1.25ZM6.996 13.6C6.994 13.64 6.99 13.688 6.984 13.742C6.971 13.849 6.948 13.983 6.906 14.136C6.844 14.359 6.74 14.626 6.565 14.901C6.829 14.963 7.138 15 7.5 15C10 15 10 13.25 10 13.25C10 12.56 9.44 12 8.75 12H6.621C6.86 12.358 7 12.787 7 13.25V13.5L6.997 13.6H6.996Z" fill="#202020"/>
</svg>
