<svg width="16" height="16" viewBox="0 0 16 16" fill="none" xmlns="http://www.w3.org/2000/svg">
<g clip-path="url(#clip0_7202_74160)">
<path fill-rule="evenodd" clip-rule="evenodd" d="M6 3.49976C6 3.22361 6.22386 2.99976 6.5 2.99976H11.5C11.7761 2.99976 12 3.22361 12 3.49976V5.49976C12 5.7759 11.7761 5.99976 11.5 5.99976H6.5C6.42646 5.99976 6.35662 5.98388 6.29374 5.95536C6.23816 5.91206 6.18157 5.87006 6.12403 5.82938C6.04681 5.74138 6 5.62603 6 5.49976V3.49976ZM7 3.99976V4.99976H11V3.99976H7Z" fill="#159195"/>
<path d="M3 2.99976C3 1.89519 3.89543 0.999756 5 0.999756H12C13.1046 0.999756 14 1.89519 14 2.99976V12.9998C14 14.1043 13.1046 14.9998 12 14.9998H10.9774C11.0104 14.8317 11.0259 14.6604 11.0239 14.487C11.0219 14.3219 11.004 14.1593 10.9703 13.9998H12C12.5523 13.9998 13 13.552 13 12.9998V2.99976C13 2.44747 12.5523 1.99976 12 1.99976H5C4.44772 1.99976 4 2.44747 4 2.99976H4.5C4.77614 2.99976 5 3.22361 5 3.49976C5 3.7759 4.77614 3.99976 4.5 3.99976H4V5.02588C3.83962 5.00865 3.67781 5 3.51486 5C3.33986 5 3.16486 5.01 3.00186 5.029L3 5.02919V3.99976H2.5C2.22386 3.99976 2 3.7759 2 3.49976C2 3.22361 2.22386 2.99976 2.5 2.99976H3Z" fill="#202020"/>
<path d="M2.75809 6.33501C2.76709 6.26601 2.79409 6.20101 2.83709 6.14601C2.88009 6.09101 2.93609 6.04901 3.00009 6.02401C3.03509 6.01001 3.07109 6.00201 3.10809 5.99801C3.70209 5.92801 4.30509 6.01201 4.85809 6.24001C5.41109 6.46801 5.89709 6.83301 6.27009 7.30101C6.64309 7.76901 6.89009 8.32401 6.98809 8.91501C7.08609 9.50601 7.03309 10.111 6.83209 10.674L9.55809 13.4C9.70409 13.539 9.82009 13.705 9.90009 13.89C9.98009 14.074 10.0231 14.273 10.0251 14.474C10.0271 14.675 9.99009 14.875 9.91409 15.061C9.83809 15.247 9.72609 15.417 9.58409 15.559C9.44209 15.701 9.27309 15.814 9.08609 15.889C8.90009 15.965 8.70009 16.003 8.49909 16C8.29809 15.998 8.09909 15.955 7.91509 15.875C7.73109 15.795 7.56409 15.678 7.42509 15.533L4.69909 12.807C4.13509 13.008 3.53009 13.062 2.94009 12.963C2.35009 12.865 1.79409 12.617 1.32609 12.245C0.858086 11.872 0.493086 11.386 0.265086 10.833C0.037086 10.28 -0.045914 9.67801 0.023086 9.08301C0.035086 9.00201 0.070086 8.92701 0.124086 8.86601C0.178086 8.80501 0.248086 8.76101 0.326086 8.73801C0.404086 8.71601 0.487086 8.71701 0.565086 8.74101C0.643086 8.76501 0.712086 8.81101 0.765086 8.87301L1.74009 9.84801C2.02509 10.119 2.40509 10.269 2.79809 10.264C3.19209 10.259 3.56809 10.101 3.84609 9.82201C4.12409 9.54401 4.28309 9.16801 4.28809 8.77401C4.29309 8.38001 4.14409 8.00101 3.87209 7.71601L2.89709 6.74101C2.82509 6.67001 2.77709 6.58001 2.75909 6.48101C2.75109 6.43301 2.75009 6.38401 2.75709 6.33601L2.75809 6.33501Z" fill="#202020"/>
</g>
<defs>
<clipPath id="clip0_7202_74160">
<rect width="16" height="16" fill="white"/>
</clipPath>
</defs>
</svg>
