<svg width="16" height="16" viewBox="0 0 16 16" fill="none" xmlns="http://www.w3.org/2000/svg">
<path fill-rule="evenodd" clip-rule="evenodd" d="M6.5 2.99976C6.22386 2.99976 6 3.22361 6 3.49976V5.49976C6 5.7759 6.22386 5.99976 6.5 5.99976H11.5C11.7761 5.99976 12 5.7759 12 5.49976V3.49976C12 3.22361 11.7761 2.99976 11.5 2.99976H6.5ZM7 4.99976V3.99976H11V4.99976H7Z" fill="#159195"/>
<path d="M5 0.999756C3.89543 0.999756 3 1.89519 3 2.99976H2.5C2.22386 2.99976 2 3.22361 2 3.49976C2 3.7759 2.22386 3.99976 2.5 3.99976H3V5.99976H2.5C2.22386 5.99976 2 6.22361 2 6.49976C2 6.7759 2.22386 6.99976 2.5 6.99976H3V8.99976H2.5C2.22386 8.99976 2 9.22361 2 9.49976C2 9.7759 2.22386 9.99976 2.5 9.99976H3V11.9998H2.5C2.22386 11.9998 2 12.2236 2 12.4998C2 12.7759 2.22386 12.9998 2.5 12.9998H3C3 14.1043 3.89543 14.9998 5 14.9998H8.88574L8.461 14.575C8.315 14.437 8.199 14.27 8.12 14.085C8.108 14.0569 8.09687 14.0285 8.08663 13.9998H5C4.44772 13.9998 4 13.552 4 12.9998H4.5C4.77614 12.9998 5 12.7759 5 12.4998C5 12.2236 4.77614 11.9998 4.5 11.9998H4V9.99976H4.5C4.77614 9.99976 5 9.7759 5 9.49976C5 9.22361 4.77614 8.99976 4.5 8.99976H4V6.99976H4.5C4.77614 6.99976 5 6.7759 5 6.49976C5 6.22361 4.77614 5.99976 4.5 5.99976H4V3.99976H4.5C4.77614 3.99976 5 3.7759 5 3.49976C5 3.22361 4.77614 2.99976 4.5 2.99976H4C4 2.44747 4.44772 1.99976 5 1.99976H12C12.5523 1.99976 13 2.44747 13 2.99976V12H14V2.99976C14 1.89519 13.1046 0.999756 12 0.999756H5Z" fill="#202020"/>
<path d="M9.15 13.85L11.15 15.85C11.195 15.897 11.249 15.935 11.31 15.961C11.37 15.987 11.435 16 11.5 16C11.565 16 11.63 15.987 11.69 15.961C11.75 15.935 11.804 15.897 11.85 15.85C11.897 15.805 11.935 15.751 11.961 15.69C11.987 15.63 12 15.565 12 15.5C12 15.435 11.987 15.37 11.961 15.31C11.935 15.25 11.897 15.196 11.85 15.15L10.71 14H15.5C15.633 14 15.76 13.947 15.854 13.854C15.948 13.761 16 13.633 16 13.5C16 13.367 15.947 13.24 15.854 13.146C15.76 13.052 15.633 13 15.5 13H10.71L11.85 11.85C11.941 11.757 11.992 11.631 11.991 11.501C11.991 11.371 11.938 11.246 11.846 11.153C11.754 11.061 11.629 11.009 11.498 11.008C11.368 11.008 11.242 11.058 11.149 11.149L9.15 13.15C9.103 13.195 9.065 13.249 9.039 13.31C9.013 13.37 9 13.435 9 13.5C9 13.565 9.013 13.63 9.039 13.69C9.065 13.75 9.103 13.804 9.15 13.85Z" fill="#006CBF"/>
</svg>
