<svg width="16" height="16" viewBox="0 0 16 16" fill="none" xmlns="http://www.w3.org/2000/svg">
<g clip-path="url(#clip0_7202_74148)">
<path d="M3 3C3 1.89543 3.89543 1 5 1H12C13.1046 1 14 1.89543 14 3V6.59971C13.6832 6.43777 13.3486 6.30564 13 6.20703V3C13 2.44772 12.5523 2 12 2H5C4.44772 2 4 2.44772 4 3H4.5C4.77614 3 5 3.22386 5 3.5C5 3.77614 4.77614 4 4.5 4H4V6H4.5C4.77614 6 5 6.22386 5 6.5C5 6.77614 4.77614 7 4.5 7H3.91499C3.86909 6.87018 3.80538 6.74684 3.7253 6.63365C3.58666 6.4377 3.40302 6.27788 3.18981 6.16762C3.12832 6.13582 3.06489 6.10841 3 6.08551V4H2.5C2.22386 4 2 3.77614 2 3.5C2 3.22386 2.22386 3 2.5 3H3Z" fill="#202020"/>
<path fill-rule="evenodd" clip-rule="evenodd" d="M6 3.5C6 3.22386 6.22386 3 6.5 3H11.5C11.7761 3 12 3.22386 12 3.5V5.5C12 5.77614 11.7761 6 11.5 6H6.5C6.22386 6 6 5.77614 6 5.5V3.5ZM7 4V5H11V4H7Z" fill="#159195"/>
<path d="M6.20703 10C6.30469 9.65471 6.43523 9.32322 6.59506 9.00912C6.56395 9.0031 6.53214 9.00001 6.5 9.00001H1.708L2.855 7.85501C2.92551 7.78507 2.97361 7.69572 2.99314 7.59835C3.01268 7.50098 3.00277 7.39999 2.96469 7.30827C2.9266 7.21655 2.86207 7.13824 2.77931 7.08334C2.69655 7.02844 2.59931 6.99943 2.5 7.00001C2.43423 7.00002 2.3691 7.01301 2.30835 7.03824C2.24761 7.06346 2.19244 7.10043 2.146 7.14701L0.146 9.14701C0.052531 9.24071 2.8119e-05 9.36766 0 9.50001C5.01638e-05 9.56587 0.0129584 9.63109 0.0380001 9.69201C0.0629008 9.75288 0.0999949 9.80801 0.147 9.85401L2.147 11.854C2.1934 11.9003 2.24844 11.937 2.309 11.962C2.36961 11.9869 2.43447 11.9998 2.5 12C2.59902 12.0002 2.69586 11.971 2.77825 11.916C2.86064 11.8611 2.92487 11.7829 2.96278 11.6915C3.0007 11.6 3.01061 11.4993 2.99124 11.4022C2.97187 11.3051 2.92411 11.2159 2.854 11.146L1.708 10H6.20703Z" fill="#006CBF"/>
<path d="M6 11.5C6 11.4319 6.00124 11.3642 6.00369 11.2967L5.853 11.146C5.8066 11.0997 5.75155 11.063 5.691 11.038C5.63039 11.0131 5.56553 11.0002 5.5 11C5.40098 10.9998 5.30414 11.0291 5.22175 11.084C5.13936 11.1389 5.07513 11.2171 5.03722 11.3085C4.9993 11.4 4.98939 11.5007 5.00876 11.5978C5.02813 11.6949 5.07589 11.7841 5.146 11.854L6.17546 12.8835C6.06094 12.4414 6 11.9778 6 11.5Z" fill="#006CBF"/>
<path d="M7.01821 14.6888C6.65757 14.1828 6.38046 13.6132 6.20703 13H1.5C1.36739 13 1.24021 13.0527 1.14645 13.1464C1.05268 13.2402 1 13.3674 1 13.5C1 13.6326 1.05268 13.7598 1.14645 13.8536C1.24021 13.9473 1.36739 14 1.5 14H6.292L5.145 15.145C5.07449 15.2149 5.02639 15.3043 5.00686 15.4017C4.98732 15.499 4.99723 15.6 5.03531 15.6917C5.0734 15.7835 5.13793 15.8618 5.22069 15.9167C5.30345 15.9716 5.40069 16.0006 5.5 16C5.56577 16 5.6309 15.987 5.69165 15.9618C5.75239 15.9365 5.80756 15.8996 5.854 15.853L7.01821 14.6888Z" fill="#006CBF"/>
<path fill-rule="evenodd" clip-rule="evenodd" d="M11.5 16C13.9853 16 16 13.9853 16 11.5C16 9.01472 13.9853 7 11.5 7C9.01472 7 7 9.01472 7 11.5C7 13.9853 9.01472 16 11.5 16ZM13.3536 10.3536C13.5488 10.1583 13.5488 9.84171 13.3536 9.64645C13.1583 9.45118 12.8417 9.45118 12.6464 9.64645L11.5 10.7929L10.3536 9.64645C10.1583 9.45118 9.84171 9.45118 9.64645 9.64645C9.45118 9.84171 9.45118 10.1583 9.64645 10.3536L10.7929 11.5L9.64645 12.6464C9.45118 12.8417 9.45118 13.1583 9.64645 13.3536C9.84171 13.5488 10.1583 13.5488 10.3536 13.3536L11.5 12.2071L12.6464 13.3536C12.8417 13.5488 13.1583 13.5488 13.3536 13.3536C13.5488 13.1583 13.5488 12.8417 13.3536 12.6464L12.2071 11.5L13.3536 10.3536Z" fill="#C50F1F"/>
</g>
<defs>
<clipPath id="clip0_7202_74148">
<rect width="16" height="16" fill="white"/>
</clipPath>
</defs>
</svg>
