<svg width="16" height="16" viewBox="0 0 16 16" fill="none" xmlns="http://www.w3.org/2000/svg">
<g clip-path="url(#clip0_7202_74328)">
<path d="M0.159798 8.08597L2.7208 5.52597C2.26451 4.92566 2.01631 4.19299 2.0138 3.43897C2.0138 2.74673 2.21907 2.07004 2.60365 1.49447C2.98824 0.918899 3.53486 0.470295 4.17441 0.205388C4.81395 -0.0595187 5.51768 -0.12883 6.19661 0.00621793C6.87555 0.141266 7.49919 0.474609 7.98867 0.964093C8.47816 1.45358 8.8115 2.07722 8.94655 2.75615C9.08159 3.43508 9.01228 4.13882 8.74738 4.77836C8.48247 5.4179 8.03387 5.96453 7.45829 6.34911C6.88272 6.7337 6.20603 6.93897 5.5138 6.93897C4.76023 6.93652 4.02796 6.68869 3.4278 6.23297L0.867798 8.79297C0.774044 8.88685 0.646834 8.93965 0.514152 8.93974C0.38147 8.93984 0.254184 8.88722 0.160298 8.79347C0.0664109 8.69971 0.0136132 8.5725 0.0135194 8.43982C0.0134256 8.30714 0.0660438 8.17985 0.159798 8.08597ZM8.0138 3.43897C8.0138 2.94451 7.86718 2.46116 7.59247 2.05004C7.31777 1.63892 6.92732 1.31849 6.47051 1.12927C6.01369 0.940049 5.51103 0.89054 5.02607 0.987003C4.54112 1.08347 4.09566 1.32157 3.74603 1.6712C3.3964 2.02083 3.1583 2.46629 3.06184 2.95124C2.96537 3.43619 3.01488 3.93886 3.2041 4.39568C3.39332 4.85249 3.71375 5.24294 4.12487 5.51764C4.536 5.79234 5.01934 5.93897 5.5138 5.93897C6.17684 5.93897 6.81272 5.67557 7.28157 5.20673C7.75041 4.73789 8.0138 4.10201 8.0138 3.43897Z" fill="#006CBF"/>
<path d="M5 7.90885V11.001H5.06106C5.33756 10.7271 5.65549 10.5047 6 10.3397V7.91067C5.66681 7.94737 5.33139 7.94656 5 7.90885Z" fill="#202020"/>
<path fill-rule="evenodd" clip-rule="evenodd" d="M8.00781 7.17809C8.46059 6.87493 8.85793 6.48962 9.17726 6.03779C9.40132 5.72075 9.58168 5.37844 9.71587 5.02001C9.80867 5.00682 9.90354 5 10 5C11.105 5 12 5.895 12 7C12 8.105 11.105 9 10 9C8.95502 9 8.09785 8.19959 8.00781 7.17809ZM11 7C11 6.448 10.552 6 10 6C9.448 6 9 6.448 9 7C9 7.552 9.448 8 10 8C10.552 8 11 7.552 11 7Z" fill="#202020"/>
<path d="M9.96665 4C10.0051 3.69108 10.0116 3.37706 9.98484 3.06285C9.98305 3.04187 9.98111 3.02092 9.97903 3H13.5C14.327 3 15 3.673 15 4.5V13.5C15 14.327 14.327 15 13.5 15H10.6628C10.8122 14.6848 10.9142 14.3478 10.9643 14H13.5C13.776 14 14 13.775 14 13.5V4.5C14 4.225 13.776 4 13.5 4H9.96665Z" fill="#202020"/>
<path d="M10.9526 12.9263C11.7102 12.7959 12.2297 12.503 12.566 12.11C13.02 11.579 13.048 10.972 13.026 10.657C12.996 10.238 12.636 10 12.305 10H7.695C7.67247 10 7.6498 10.0011 7.62711 10.0033C8.49689 10.0349 9.32508 10.3896 9.94854 11H12.016C11.991 11.148 11.932 11.312 11.806 11.459C11.6461 11.6456 11.3202 11.8721 10.6432 11.9613C10.7921 12.2654 10.8966 12.5904 10.9526 12.9263Z" fill="#202020"/>
<path fill-rule="evenodd" clip-rule="evenodd" d="M7.50003 11.001C7.11343 11.0015 6.73227 11.0922 6.38683 11.2658C6.04139 11.4394 5.74118 11.6911 5.51003 12.001H1.50003C1.43464 12.0014 1.37 12.0149 1.30989 12.0407C1.24979 12.0664 1.19544 12.1039 1.15003 12.151L1.09003 12.221L0.220028 13.091L0.150028 13.151C0.102586 13.1961 0.0648117 13.2504 0.0389999 13.3106C0.0131882 13.3707 -0.00012207 13.4355 -0.00012207 13.501C-0.00012207 13.5665 0.0131882 13.6312 0.0389999 13.6914C0.0648117 13.7516 0.102586 13.8059 0.150028 13.851L1.15003 14.851C1.19515 14.8984 1.24944 14.9362 1.3096 14.962C1.36977 14.9878 1.43456 15.0011 1.50003 15.0011C1.5655 15.0011 1.63028 14.9878 1.69045 14.962C1.75062 14.9362 1.80491 14.8984 1.85003 14.851L2.50003 14.201L3.15003 14.851C3.19515 14.8984 3.24944 14.9362 3.3096 14.962C3.36977 14.9878 3.43456 15.0011 3.50003 15.0011C3.5655 15.0011 3.63028 14.9878 3.69045 14.962C3.75062 14.9362 3.80491 14.8984 3.85003 14.851L4.50003 14.201H5.11203C5.24294 14.6454 5.49501 15.0446 5.83999 15.3538C6.18497 15.6631 6.60924 15.8701 7.06527 15.9519C7.5213 16.0336 7.99107 15.9867 8.42197 15.8165C8.85286 15.6463 9.22786 15.3595 9.50494 14.9882C9.78203 14.6169 9.95026 14.1758 9.99079 13.7142C10.0313 13.2527 9.94254 12.789 9.73441 12.3751C9.52628 11.9612 9.20701 11.6134 8.81238 11.3707C8.41774 11.128 7.96332 11 7.50003 11.001ZM8.50003 14.251C8.35169 14.251 8.20669 14.207 8.08335 14.1246C7.96001 14.0422 7.86388 13.925 7.80712 13.788C7.75035 13.6509 7.7355 13.5002 7.76444 13.3547C7.79338 13.2092 7.86481 13.0755 7.9697 12.9707C8.07459 12.8658 8.20822 12.7943 8.35371 12.7654C8.4992 12.7365 8.65 12.7513 8.78704 12.8081C8.92409 12.8648 9.04122 12.961 9.12363 13.0843C9.20604 13.2076 9.25003 13.3526 9.25003 13.501C9.25003 13.6999 9.17101 13.8907 9.03036 14.0313C8.88971 14.172 8.69894 14.251 8.50003 14.251Z" fill="#202020"/>
</g>
<defs>
<clipPath id="clip0_7202_74328">
<rect width="16" height="16" fill="white"/>
</clipPath>
</defs>
</svg>
