<svg width="16" height="16" viewBox="0 0 16 16" fill="none" xmlns="http://www.w3.org/2000/svg">
<g clip-path="url(#clip0_7202_74332)">
<path d="M10.9774 15H13.5C14.327 15 15 14.327 15 13.5V4.5C15 3.673 14.327 3 13.5 3H9.97901C9.98109 3.02092 9.98303 3.04187 9.98482 3.06285C10.0116 3.37706 10.0051 3.69108 9.96663 4H13.5C13.776 4 14 4.225 14 4.5V13.5C14 13.775 13.776 14 13.5 14H10.9703C11.004 14.1594 11.0219 14.322 11.0238 14.487C11.0259 14.6605 11.0104 14.8319 10.9774 15Z" fill="#202020"/>
<path d="M10.5008 12.982C11.5088 12.9023 12.1666 12.5768 12.566 12.11C13.02 11.579 13.048 10.972 13.026 10.657C12.996 10.238 12.636 10 12.305 10H8.00791C7.99358 10.1347 7.97321 10.2689 7.94684 10.402L8.54484 11H12.016C11.991 11.148 11.932 11.312 11.806 11.459C11.602 11.697 11.128 12 9.99998 12C9.82658 12 9.66864 11.9929 9.52475 11.9799L10.2628 12.718C10.3472 12.7979 10.4269 12.8863 10.5008 12.982Z" fill="#202020"/>
<path fill-rule="evenodd" clip-rule="evenodd" d="M8.00779 7.17809C8.09783 8.19958 8.955 9 9.99998 9C11.105 9 12 8.105 12 7C12 5.895 11.105 5 9.99998 5C9.90352 5 9.80865 5.00682 9.71585 5.02001C9.58166 5.37844 9.4013 5.72075 9.17724 6.03779C8.85791 6.48962 8.46057 6.87493 8.00779 7.17809ZM11 7C11 6.448 10.552 6 9.99998 6C9.44798 6 8.99998 6.448 8.99998 7C8.99998 7.552 9.44798 8 9.99998 8C10.552 8 11 7.552 11 7Z" fill="#202020"/>
<path d="M0.0184021 9.85578C0.0531934 10.1905 0.13584 10.5197 0.265067 10.8331C0.493067 11.3861 0.858067 11.8721 1.32607 12.2451C1.79407 12.6171 2.35007 12.8651 2.94007 12.9631C3.53007 13.0621 4.13507 13.0081 4.69907 12.8071L7.42507 15.5331C7.56407 15.6781 7.73107 15.7951 7.91507 15.8751C8.09907 15.9551 8.29807 15.9981 8.49907 16.0001C8.70007 16.0031 8.90007 15.9651 9.08607 15.8891C9.27307 15.8141 9.44207 15.7011 9.58407 15.5591C9.72607 15.4171 9.83807 15.2471 9.91407 15.0611C9.99007 14.8751 10.0271 14.6751 10.0251 14.4741C10.0231 14.2731 9.98007 14.0741 9.90007 13.8901C9.82007 13.7051 9.70407 13.5391 9.55807 13.4001L6.83207 10.6741C7.03307 10.1111 7.08607 9.50611 6.98807 8.91511C6.9231 8.52333 6.79266 8.14738 6.60344 7.8021C5.64312 8.04351 4.63107 7.96063 3.72438 7.56842L3.87207 7.71611C4.14407 8.00111 4.29307 8.38011 4.28807 8.77411C4.28307 9.16811 4.12407 9.54411 3.84607 9.82211C3.56807 10.1011 3.19207 10.2591 2.79807 10.2641C2.40507 10.2691 2.02507 10.1191 1.74007 9.84811L1.47898 9.58702C1.2097 9.81377 0.867917 9.93951 0.513153 9.93959C0.343079 9.93963 0.175976 9.91079 0.0184021 9.85578Z" fill="#202020"/>
<path d="M0.159798 8.08597L2.7208 5.52597C2.26451 4.92566 2.01631 4.19299 2.0138 3.43897C2.0138 2.74673 2.21907 2.07004 2.60365 1.49447C2.98824 0.918899 3.53486 0.470295 4.17441 0.205388C4.81395 -0.0595187 5.51768 -0.12883 6.19661 0.00621793C6.87555 0.141266 7.49919 0.474609 7.98867 0.964093C8.47816 1.45358 8.8115 2.07722 8.94655 2.75615C9.08159 3.43508 9.01228 4.13882 8.74738 4.77836C8.48247 5.4179 8.03387 5.96453 7.45829 6.34911C6.88272 6.7337 6.20603 6.93897 5.5138 6.93897C4.76023 6.93652 4.02796 6.68869 3.4278 6.23297L0.867798 8.79297C0.774044 8.88685 0.646834 8.93965 0.514152 8.93974C0.38147 8.93984 0.254184 8.88722 0.160298 8.79347C0.0664109 8.69971 0.0136132 8.5725 0.0135194 8.43982C0.0134256 8.30714 0.0660438 8.17985 0.159798 8.08597ZM8.0138 3.43897C8.0138 2.94451 7.86718 2.46116 7.59247 2.05004C7.31777 1.63892 6.92732 1.31849 6.47051 1.12927C6.01369 0.940049 5.51103 0.89054 5.02607 0.987003C4.54112 1.08347 4.09566 1.32157 3.74603 1.6712C3.3964 2.02083 3.1583 2.46629 3.06184 2.95124C2.96537 3.43619 3.01488 3.93886 3.2041 4.39568C3.39332 4.85249 3.71375 5.24294 4.12487 5.51764C4.536 5.79234 5.01934 5.93897 5.5138 5.93897C6.17684 5.93897 6.81272 5.67557 7.28157 5.20673C7.75041 4.73789 8.0138 4.10201 8.0138 3.43897Z" fill="#006CBF"/>
</g>
<defs>
<clipPath id="clip0_7202_74332">
<rect width="16" height="16" fill="white"/>
</clipPath>
</defs>
</svg>
