<svg width="16" height="16" viewBox="0 0 16 16" fill="none" xmlns="http://www.w3.org/2000/svg">
<g clip-path="url(#clip0_7202_74291)">
<path fill-rule="evenodd" clip-rule="evenodd" d="M2 9.07376V11.5C2 12.881 3.119 14 4.5 14H11.5C12.881 14 14 12.881 14 11.5V4.5C14 3.119 12.881 2 11.5 2L9.76251 2C9.87185 2.32198 9.94496 2.65732 9.97903 3H11.5C12.328 3 13 3.672 13 4.5V5H9.7233C9.59362 5.35148 9.41963 5.68768 9.20367 6H10V13H6V7.91067C5.66681 7.94737 5.33139 7.94656 5 7.90885V13H4.5C3.672 13 3 12.328 3 11.5V8.07376L2 9.07376ZM11.5 13C12.328 13 13 12.328 13 11.5V6H11V13H11.5Z" fill="#202020"/>
<path d="M0.159792 8.08597L2.72079 5.52597C2.26451 4.92566 2.01631 4.19299 2.01379 3.43897C2.01379 2.74673 2.21906 2.07004 2.60365 1.49447C2.98823 0.918899 3.53486 0.470295 4.1744 0.205388C4.81394 -0.0595187 5.51768 -0.12883 6.19661 0.00621793C6.87554 0.141266 7.49918 0.474609 7.98867 0.964093C8.47815 1.45358 8.81149 2.07722 8.94654 2.75615C9.08159 3.43508 9.01228 4.13882 8.74737 4.77836C8.48246 5.4179 8.03386 5.96453 7.45829 6.34911C6.88272 6.7337 6.20603 6.93897 5.51379 6.93897C4.76022 6.93652 4.02795 6.68869 3.42779 6.23297L0.867792 8.79297C0.774038 8.88685 0.646828 8.93965 0.514146 8.93974C0.381464 8.93984 0.254178 8.88722 0.160292 8.79347C0.066405 8.69971 0.0136073 8.5725 0.0135136 8.43982C0.0134198 8.30714 0.0660379 8.17985 0.159792 8.08597V8.08597ZM8.01379 3.43897C8.01379 2.94451 7.86717 2.46116 7.59247 2.05004C7.31776 1.63892 6.92732 1.31849 6.4705 1.12927C6.01369 0.940049 5.51102 0.89054 5.02607 0.987003C4.54111 1.08347 4.09566 1.32157 3.74603 1.6712C3.39639 2.02083 3.15829 2.46629 3.06183 2.95124C2.96537 3.43619 3.01487 3.93886 3.20409 4.39568C3.39331 4.85249 3.71374 5.24294 4.12487 5.51764C4.53599 5.79234 5.01934 5.93897 5.51379 5.93897C6.17683 5.93897 6.81272 5.67557 7.28156 5.20673C7.7504 4.73789 8.01379 4.10201 8.01379 3.43897V3.43897Z" fill="#006CBF"/>
</g>
<defs>
<clipPath id="clip0_7202_74291">
<rect width="16" height="16" fill="white"/>
</clipPath>
</defs>
</svg>
