<svg width="16" height="16" viewBox="0 0 16 16" fill="none" xmlns="http://www.w3.org/2000/svg">
<g clip-path="url(#clip0_7202_74271)">
<path d="M2 9.07376V14.499C2 15.326 2.673 15.999 3.5 15.999H14.501L14.5 16C15.327 16 16 15.327 16 14.5V3.5C16 2.673 15.327 2 14.5 2L9.76251 2C9.87185 2.32198 9.94496 2.65732 9.97903 3H14.5C14.776 3 15 3.225 15 3.5V14.5C15 14.775 14.776 15 14.5 15H3.5C3.224 15 3 14.775 3 14.5V8.07376L2 9.07376Z" fill="#202020"/>
<path d="M5.05843 7.91511C5.23895 8.5409 5.81695 9 6.5 9C7.327 9 8 8.327 8 7.5C8 7.3983 7.98982 7.29893 7.97043 7.20285C7.65696 7.40824 7.31756 7.57457 6.95957 7.69676C6.88301 7.87467 6.70599 8 6.5 8C6.37991 8 6.26967 7.95741 6.18344 7.88663C5.80974 7.94345 5.43177 7.95266 5.05843 7.91511Z" fill="#202020"/>
<path fill-rule="evenodd" clip-rule="evenodd" d="M9.031 7C9.031 5.895 9.926 5 11.031 5C12.136 5 13.031 5.895 13.031 7C13.031 8.105 12.136 9 11.031 9C9.926 9 9.031 8.105 9.031 7ZM10.031 7C10.031 7.552 10.479 8 11.031 8C11.583 8 12.031 7.552 12.031 7C12.031 6.448 11.583 6 11.031 6C10.479 6 10.031 6.448 10.031 7Z" fill="#202020"/>
<path d="M7.42759 12.3713C7.42745 12.3711 7.42772 12.3715 7.42759 12.3713Z" fill="#202020"/>
<path d="M7.42759 12.3713C7.23284 12.0485 7.12196 11.7258 7.063 11.43C6.893 11.457 6.709 11.475 6.499 11.475C5.837 11.475 5.355 11.338 5.143 11.09C5.118 11.061 5.097 11.03 5.08 11H7.006C6.997 10.841 7 10.7 7.008 10.586C7.023 10.376 7.078 10.18 7.159 10H4.599C4.326 10 4.03 10.196 4.005 10.542C3.986 10.801 4.009 11.302 4.384 11.74C4.765 12.185 5.431 12.474 6.5 12.474C6.85738 12.474 7.15596 12.4311 7.42759 12.3713Z" fill="#202020"/>
<path fill-rule="evenodd" clip-rule="evenodd" d="M13.336 9.999C13.667 9.999 14.027 10.237 14.057 10.656C14.079 10.971 14.051 11.578 13.597 12.109C13.135 12.649 12.327 13 11.031 13C9.735 13 8.927 12.649 8.465 12.109C8.01 11.578 7.982 10.971 8.005 10.656C8.035 10.237 8.395 9.999 8.726 9.999H13.336ZM11.032 11.999C12.16 11.999 12.634 11.696 12.838 11.458C12.964 11.311 13.023 11.147 13.048 10.999H9.016C9.041 11.147 9.1 11.311 9.226 11.458C9.43 11.697 9.904 11.999 11.032 11.999Z" fill="#202020"/>
<path d="M0.159792 8.08597L2.72079 5.52597C2.26451 4.92566 2.01631 4.19299 2.01379 3.43897C2.01379 2.74673 2.21906 2.07004 2.60365 1.49447C2.98823 0.918899 3.53486 0.470295 4.1744 0.205388C4.81394 -0.0595187 5.51768 -0.12883 6.19661 0.00621793C6.87554 0.141266 7.49918 0.474609 7.98867 0.964093C8.47815 1.45358 8.81149 2.07722 8.94654 2.75615C9.08159 3.43508 9.01228 4.13882 8.74737 4.77836C8.48246 5.4179 8.03386 5.96453 7.45829 6.34911C6.88272 6.7337 6.20603 6.93897 5.51379 6.93897C4.76022 6.93652 4.02795 6.68869 3.42779 6.23297L0.867792 8.79297C0.774038 8.88685 0.646828 8.93965 0.514146 8.93974C0.381464 8.93984 0.254178 8.88722 0.160292 8.79347C0.066405 8.69971 0.0136073 8.5725 0.0135136 8.43982C0.0134198 8.30714 0.0660379 8.17985 0.159792 8.08597V8.08597ZM8.01379 3.43897C8.01379 2.94451 7.86717 2.46116 7.59247 2.05004C7.31776 1.63892 6.92732 1.31849 6.4705 1.12927C6.01369 0.940049 5.51102 0.89054 5.02607 0.987003C4.54111 1.08347 4.09566 1.32157 3.74603 1.6712C3.39639 2.02083 3.15829 2.46629 3.06183 2.95124C2.96537 3.43619 3.01487 3.93886 3.20409 4.39568C3.39331 4.85249 3.71374 5.24294 4.12487 5.51764C4.53599 5.79234 5.01934 5.93897 5.51379 5.93897C6.17683 5.93897 6.81272 5.67557 7.28156 5.20673C7.7504 4.73789 8.01379 4.10201 8.01379 3.43897V3.43897Z" fill="#006CBF"/>
</g>
<defs>
<clipPath id="clip0_7202_74271">
<rect width="16" height="16" fill="white"/>
</clipPath>
</defs>
</svg>
