<svg width="16" height="16" viewBox="0 0 16 16" fill="none" xmlns="http://www.w3.org/2000/svg">
<path d="M3 12.5V3.5C3 3.36739 2.94732 3.24021 2.85355 3.14645C2.75979 3.05268 2.63261 3 2.5 3C2.36739 3 2.24021 3.05268 2.14645 3.14645C2.05268 3.24021 2 3.36739 2 3.5V12.5C2 12.6326 2.05268 12.7598 2.14645 12.8536C2.24021 12.9473 2.36739 13 2.5 13C2.63261 13 2.75979 12.9473 2.85355 12.8536C2.94732 12.7598 3 12.6326 3 12.5Z" fill="#202020"/>
<path d="M13.1464 3.14645C13.2402 3.05268 13.3674 3 13.5 3C13.6326 3 13.7598 3.05268 13.8536 3.14645C13.9473 3.24021 14 3.36739 14 3.5V8.17157C13.6818 8.05906 13.3439 8 13 8V3.5C13 3.36739 13.0527 3.24021 13.1464 3.14645Z" fill="#202020"/>
<path fill-rule="evenodd" clip-rule="evenodd" d="M4.43934 12.5607C4.72064 12.842 5.10218 13 5.5 13C5.80762 13.0007 6.10784 12.9056 6.359 12.728L10.1453 10.0776C10.2901 9.62963 10.5396 9.21775 10.8787 8.87868C11.1952 8.56219 11.5751 8.32371 11.9886 8.17563C11.9955 8.11717 11.999 8.05819 11.999 7.999C11.999 7.75778 11.9408 7.52012 11.8294 7.30617C11.718 7.09222 11.5566 6.9083 11.359 6.77L6.359 3.27C6.13414 3.11292 5.8705 3.02051 5.59678 3.00281C5.32305 2.98511 5.04972 3.04281 4.8065 3.16963C4.56328 3.29644 4.35949 3.48752 4.21729 3.72208C4.0751 3.95664 3.99994 4.22571 4 4.5V11.5C4 11.8978 4.15804 12.2794 4.43934 12.5607ZM5.14645 4.14645C5.24021 4.05268 5.36739 4 5.5 4C5.60195 4.00024 5.7014 4.03165 5.785 4.09L10.785 7.59C10.8512 7.63605 10.9053 7.69743 10.9427 7.76891C10.98 7.84039 10.9995 7.91985 10.9995 8.0005C10.9995 8.08115 10.98 8.16061 10.9427 8.23209C10.9053 8.30357 10.8512 8.36495 10.785 8.411L5.785 11.911C5.70877 11.9571 5.62195 11.9827 5.53291 11.9855C5.44388 11.9882 5.35564 11.9679 5.27672 11.9266C5.19781 11.8853 5.13088 11.8243 5.08241 11.7496C5.03393 11.6749 5.00555 11.5889 5 11.5V4.5C5 4.36739 5.05268 4.24022 5.14645 4.14645Z" fill="#006CBF"/>
<path d="M11 12V11C11 9.89543 11.8954 9 13 9C14.1046 9 15 9.89543 15 11V12C15.5523 12 16 12.4477 16 13V15C16 15.5523 15.5523 16 15 16H11C10.4477 16 10 15.5523 10 15V13C10 12.4477 10.4477 12 11 12ZM12 11V12H14V11C14 10.4477 13.5523 10 13 10C12.4477 10 12 10.4477 12 11Z" fill="#202020"/>
</svg>
