<svg width="16" height="16" viewBox="0 0 16 16" fill="none" xmlns="http://www.w3.org/2000/svg">
<g clip-path="url(#clip0_7202_74467)">
<path d="M3 12.5V3.5C3 3.36739 2.94732 3.24021 2.85355 3.14645C2.75979 3.05268 2.63261 3 2.5 3C2.36739 3 2.24021 3.05268 2.14645 3.14645C2.05268 3.24021 2 3.36739 2 3.5V12.5C2 12.6326 2.05268 12.7598 2.14645 12.8536C2.24021 12.9473 2.36739 13 2.5 13C2.63261 13 2.75979 12.9473 2.85355 12.8536C2.94732 12.7598 3 12.6326 3 12.5Z" fill="#202020"/>
<path d="M13.1464 3.14645C13.2402 3.05268 13.3674 3 13.5 3C13.6326 3 13.7598 3.05268 13.8536 3.14645C13.9473 3.24021 14 3.36739 14 3.5V9.00025C13.9094 9.00126 13.8187 9.00637 13.7281 9.0156C13.4787 9.04103 13.2342 9.09741 13 9.18294V3.5C13 3.36739 13.0527 3.24021 13.1464 3.14645Z" fill="#202020"/>
<path fill-rule="evenodd" clip-rule="evenodd" d="M4.43934 12.5607C4.72064 12.842 5.10218 13 5.5 13C5.80762 13.0007 6.10784 12.9056 6.359 12.728L8.02479 11.5619C8.06406 11.2613 8.15034 10.968 8.28097 10.693C8.45358 10.3325 8.69829 10.0112 8.99997 9.74901C9.29976 9.48556 9.6498 9.28554 10.029 9.16102C10.3346 9.06036 10.6542 9.00905 10.976 9.00901C11.051 9.00901 11.126 9.00901 11.2 9.01801C11.319 9.02682 11.4372 9.0427 11.5538 9.06547C11.6642 8.95634 11.7573 8.83038 11.8294 8.69183C11.9408 8.47789 11.999 8.24022 11.999 7.999C11.999 7.75778 11.9408 7.52012 11.8294 7.30617C11.718 7.09222 11.5566 6.9083 11.359 6.77L6.359 3.27C6.13414 3.11292 5.8705 3.02051 5.59678 3.00281C5.32305 2.98511 5.04972 3.04281 4.8065 3.16963C4.56328 3.29644 4.35949 3.48752 4.21729 3.72208C4.0751 3.95664 3.99994 4.22571 4 4.5V11.5C4 11.8978 4.15804 12.2794 4.43934 12.5607ZM5.14645 4.14645C5.24021 4.05268 5.36739 4 5.5 4C5.60195 4.00024 5.7014 4.03165 5.785 4.09L10.785 7.59C10.8512 7.63605 10.9053 7.69743 10.9427 7.76891C10.98 7.84039 10.9995 7.91985 10.9995 8.0005C10.9995 8.08115 10.98 8.16061 10.9427 8.23209C10.9053 8.30357 10.8512 8.36495 10.785 8.411L5.785 11.911C5.70877 11.9571 5.62195 11.9827 5.53291 11.9855C5.44388 11.9882 5.35564 11.9679 5.27672 11.9266C5.19781 11.8853 5.13088 11.8243 5.08241 11.7496C5.03393 11.6749 5.00555 11.5889 5 11.5V4.5C5 4.36739 5.05268 4.24022 5.14645 4.14645Z" fill="#006CBF"/>
<path d="M15.9999 11.93C15.9998 12.1828 15.9492 12.4331 15.8512 12.6661C15.7531 12.8991 15.6096 13.1102 15.4289 13.287L12.8069 15.873C12.7661 15.9133 12.7179 15.9452 12.6649 15.967C12.6125 15.9884 12.5565 15.9996 12.4999 16C12.4423 16.0002 12.3852 15.989 12.3319 15.967C12.2786 15.9452 12.23 15.9133 12.1889 15.873L9.56389 13.287C9.37754 13.1023 9.23147 12.881 9.13489 12.637C9.03742 12.3952 8.99144 12.1356 8.99989 11.875C9.00882 11.614 9.07146 11.3577 9.18389 11.122C9.29686 10.8845 9.45753 10.6727 9.65589 10.5C9.85489 10.3258 10.0868 10.1932 10.3379 10.11C10.5904 10.0265 10.8569 9.99391 11.1221 10.014C11.3873 10.0341 11.6458 10.1065 11.8829 10.227C12.1181 10.3466 12.3266 10.5126 12.4959 10.715C12.7552 10.403 13.1044 10.1784 13.4959 10.072C13.8881 9.96308 14.3042 9.97598 14.6889 10.109C15.0712 10.2405 15.4036 10.4867 15.6409 10.814C15.8752 11.1381 16.0009 11.5281 15.9999 11.928V11.93Z" fill="#202020"/>
</g>
<defs>
<clipPath id="clip0_7202_74467">
<rect width="16" height="16" fill="white"/>
</clipPath>
</defs>
</svg>
