<svg width="16" height="16" viewBox="0 0 16 16" fill="none" xmlns="http://www.w3.org/2000/svg">
<path d="M3 3.5V12.5C3 12.6326 2.94732 12.7598 2.85355 12.8536C2.75979 12.9473 2.63261 13 2.5 13C2.36739 13 2.24021 12.9473 2.14645 12.8536C2.05268 12.7598 2 12.6326 2 12.5V3.5C2 3.36739 2.05268 3.24021 2.14645 3.14645C2.24021 3.05268 2.36739 3 2.5 3C2.63261 3 2.75979 3.05268 2.85355 3.14645C2.94732 3.24021 3 3.36739 3 3.5V3.5ZM13.5 3C13.3674 3 13.2402 3.05268 13.1464 3.14645C13.0527 3.24021 13 3.36739 13 3.5V12.5C13 12.6326 13.0527 12.7598 13.1464 12.8536C13.2402 12.9473 13.3674 13 13.5 13C13.6326 13 13.7598 12.9473 13.8536 12.8536C13.9473 12.7598 14 12.6326 14 12.5V3.5C14 3.36739 13.9473 3.24021 13.8536 3.14645C13.7598 3.05268 13.6326 3 13.5 3Z" fill="#202020"/>
<path d="M5.5 13C5.10218 13 4.72064 12.842 4.43934 12.5607C4.15804 12.2794 4 11.8978 4 11.5V4.5C3.99994 4.22571 4.0751 3.95664 4.21729 3.72208C4.35949 3.48752 4.56328 3.29644 4.8065 3.16963C5.04972 3.04281 5.32305 2.98511 5.59678 3.00281C5.8705 3.02051 6.13414 3.11292 6.359 3.27L11.359 6.77C11.5566 6.9083 11.718 7.09222 11.8294 7.30617C11.9408 7.52012 11.999 7.75778 11.999 7.999C11.999 8.24022 11.9408 8.47789 11.8294 8.69183C11.718 8.90578 11.5566 9.0897 11.359 9.228L6.359 12.728C6.10784 12.9056 5.80762 13.0007 5.5 13ZM5.5 4C5.36739 4 5.24021 4.05268 5.14645 4.14645C5.05268 4.24022 5 4.36739 5 4.5V11.5C5.00555 11.5889 5.03393 11.6749 5.08241 11.7496C5.13088 11.8243 5.19781 11.8853 5.27672 11.9266C5.35564 11.9679 5.44388 11.9882 5.53291 11.9855C5.62195 11.9827 5.70877 11.9571 5.785 11.911L10.785 8.411C10.8512 8.36495 10.9053 8.30357 10.9427 8.23209C10.98 8.16061 10.9995 8.08115 10.9995 8.0005C10.9995 7.91985 10.98 7.84039 10.9427 7.76891C10.9053 7.69743 10.8512 7.63605 10.785 7.59L5.785 4.09C5.7014 4.03165 5.60195 4.00024 5.5 4Z" fill="#006CBF"/>
</svg>
