<svg width="16" height="16" viewBox="0 0 16 16" fill="none" xmlns="http://www.w3.org/2000/svg">
<g clip-path="url(#clip0_7202_74519)">
<path d="M3 12.5V3.5C3 3.36739 2.94732 3.24021 2.85355 3.14645C2.75979 3.05268 2.63261 3 2.5 3C2.36739 3 2.24021 3.05268 2.14645 3.14645C2.05268 3.24021 2 3.36739 2 3.5V12.5C2 12.6326 2.05268 12.7598 2.14645 12.8536C2.24021 12.9473 2.36739 13 2.5 13C2.63261 13 2.75979 12.9473 2.85355 12.8536C2.94732 12.7598 3 12.6326 3 12.5Z" fill="#202020"/>
<path d="M13.1464 3.14645C13.2402 3.05268 13.3674 3 13.5 3C13.6326 3 13.7598 3.05268 13.8536 3.14645C13.9473 3.24021 14 3.36739 14 3.5V8.25606C13.6816 8.14352 13.3467 8.06579 13 8.02746V3.5C13 3.36739 13.0527 3.24021 13.1464 3.14645Z" fill="#202020"/>
<path d="M4.43934 12.5607C4.72064 12.842 5.10218 13 5.5 13C5.80762 13.0007 6.10784 12.9056 6.359 12.728L8.11117 11.5015C8.26811 10.8088 8.58484 10.1767 9.02056 9.64611L5.785 11.911C5.70877 11.9571 5.62195 11.9827 5.53291 11.9855C5.44388 11.9882 5.35564 11.9679 5.27672 11.9266C5.19781 11.8853 5.13088 11.8243 5.08241 11.7496C5.03393 11.6749 5.00555 11.5889 5 11.5V4.5C5 4.36739 5.05268 4.24022 5.14645 4.14645C5.24021 4.05268 5.36739 4 5.5 4C5.60195 4.00024 5.7014 4.03165 5.785 4.09L10.785 7.59C10.8512 7.63605 10.9053 7.69743 10.9427 7.76891C10.98 7.84039 10.9995 7.91985 10.9995 8.0005C10.9995 8.08115 10.98 8.16061 10.9427 8.23209C10.9321 8.25224 10.9203 8.27159 10.9072 8.29002C11.2527 8.15922 11.6186 8.06973 11.9988 8.0276C11.9989 8.01808 11.999 8.00854 11.999 7.999C11.999 7.75778 11.9408 7.52012 11.8294 7.30617C11.718 7.09222 11.5566 6.9083 11.359 6.77L6.359 3.27C6.13414 3.11292 5.8705 3.02051 5.59678 3.00281C5.32305 2.98511 5.04972 3.04281 4.8065 3.16963C4.56328 3.29644 4.35949 3.48752 4.21729 3.72208C4.0751 3.95664 3.99994 4.22571 4 4.5V11.5C4 11.8978 4.15804 12.2794 4.43934 12.5607Z" fill="#006CBF"/>
<path fill-rule="evenodd" clip-rule="evenodd" d="M12.5 16C14.433 16 16 14.433 16 12.5C16 10.567 14.433 9 12.5 9C10.567 9 9 10.567 9 12.5C9 14.433 10.567 16 12.5 16ZM15 12.5C15 13.8807 13.8807 15 12.5 15C11.9905 15 11.5165 14.8476 11.1213 14.5858L14.5858 11.1213C14.8476 11.5165 15 11.9905 15 12.5ZM10.4142 13.8787L13.8787 10.4142C13.4835 10.1524 13.0095 10 12.5 10C11.1193 10 10 11.1193 10 12.5C10 13.0095 10.1524 13.4835 10.4142 13.8787Z" fill="#202020"/>
</g>
<defs>
<clipPath id="clip0_7202_74519">
<rect width="16" height="16" fill="white"/>
</clipPath>
</defs>
</svg>
