<svg width="16" height="16" viewBox="0 0 16 16" fill="none" xmlns="http://www.w3.org/2000/svg">
<g clip-path="url(#clip0_7202_74499)">
<path d="M3 12.5V3.5C3 3.36739 2.94732 3.24021 2.85355 3.14645C2.75979 3.05268 2.63261 3 2.5 3C2.36739 3 2.24021 3.05268 2.14645 3.14645C2.05268 3.24021 2 3.36739 2 3.5V12.5C2 12.6326 2.05268 12.7598 2.14645 12.8536C2.24021 12.9473 2.36739 13 2.5 13C2.63261 13 2.75979 12.9473 2.85355 12.8536C2.94732 12.7598 3 12.6326 3 12.5Z" fill="#202020"/>
<path d="M13.1464 3.14645C13.2402 3.05268 13.3674 3 13.5 3C13.6326 3 13.7598 3.05268 13.8536 3.14645C13.9473 3.24021 14 3.36739 14 3.5V9.39248C13.9356 9.33277 13.8658 9.27869 13.7912 9.23103C13.5549 9.08013 13.2804 8.99992 13 8.99982V3.5C13 3.36739 13.0527 3.24021 13.1464 3.14645Z" fill="#202020"/>
<path fill-rule="evenodd" clip-rule="evenodd" d="M4.43934 12.5607C4.72064 12.842 5.10218 13 5.5 13C5.80762 13.0007 6.10784 12.9056 6.359 12.728L11.359 9.228C11.5566 9.0897 11.718 8.90578 11.8294 8.69183C11.9408 8.47789 11.999 8.24022 11.999 7.999C11.999 7.75778 11.9408 7.52012 11.8294 7.30617C11.718 7.09222 11.5566 6.9083 11.359 6.77L6.359 3.27C6.13414 3.11292 5.8705 3.02051 5.59678 3.00281C5.32305 2.98511 5.04972 3.04281 4.8065 3.16963C4.56328 3.29644 4.35949 3.48752 4.21729 3.72208C4.0751 3.95664 3.99994 4.22571 4 4.5V11.5C4 11.8978 4.15804 12.2794 4.43934 12.5607ZM5.14645 4.14645C5.24021 4.05268 5.36739 4 5.5 4C5.60195 4.00024 5.7014 4.03165 5.785 4.09L10.785 7.59C10.8512 7.63605 10.9053 7.69743 10.9427 7.76891C10.98 7.84039 10.9995 7.91985 10.9995 8.0005C10.9995 8.08115 10.98 8.16061 10.9427 8.23209C10.9053 8.30357 10.8512 8.36495 10.785 8.411L5.785 11.911C5.70877 11.9571 5.62195 11.9827 5.53291 11.9855C5.44388 11.9882 5.35564 11.9679 5.27672 11.9266C5.19781 11.8853 5.13088 11.8243 5.08241 11.7496C5.03393 11.6749 5.00555 11.5889 5 11.5V4.5C5 4.36739 5.05268 4.24022 5.14645 4.14645Z" fill="#006CBF"/>
<path d="M12.5701 10.279C12.6072 10.196 12.6676 10.1255 12.7439 10.076C12.8202 10.0266 12.9092 10.0002 13.0001 10.0002C13.091 10.0002 13.18 10.0266 13.2563 10.076C13.3327 10.1255 13.393 10.196 13.4301 10.279L14.0971 11.688L15.5891 11.914C15.6793 11.9313 15.7632 11.9727 15.8317 12.0338C15.9002 12.095 15.9509 12.1736 15.9782 12.2613C16.0055 12.349 16.0085 12.4424 15.9868 12.5317C15.9651 12.621 15.9196 12.7026 15.8551 12.768L14.7751 13.868L15.0301 15.417C15.0489 15.507 15.0418 15.6005 15.0094 15.6865C14.9771 15.7725 14.9209 15.8476 14.8475 15.9029C14.7741 15.9581 14.6864 15.9914 14.5948 15.9987C14.5032 16.006 14.4114 15.987 14.3301 15.944L13.0001 15.21L11.6661 15.941C11.5849 15.984 11.4931 16.003 11.4014 15.9957C11.3098 15.9884 11.2222 15.9551 11.1487 15.8999C11.0753 15.8446 11.0191 15.7695 10.9868 15.6835C10.9545 15.5975 10.9473 15.504 10.9661 15.414L11.2211 13.865L10.1411 12.765C10.0766 12.6996 10.0311 12.618 10.0094 12.5287C9.98776 12.4394 9.99074 12.346 10.0181 12.2583C10.0454 12.1706 10.096 12.092 10.1645 12.0308C10.233 11.9697 10.3169 11.9283 10.4071 11.911L11.8991 11.685L12.5701 10.279Z" fill="#202020"/>
</g>
<defs>
<clipPath id="clip0_7202_74499">
<rect width="16.006" height="16" fill="white"/>
</clipPath>
</defs>
</svg>
