<svg width="16" height="16" viewBox="0 0 16 16" fill="none" xmlns="http://www.w3.org/2000/svg">
<g clip-path="url(#clip0_7202_74551)">
<path fill-rule="evenodd" clip-rule="evenodd" d="M13 3H5V2C5 1.449 4.552 1 4 1H3C1.897 1 1 1.897 1 3V11C1 12.103 1.897 13 3 13H8L8 12H3C2.448 12 2 11.551 2 11C2 10.449 2.448 10 3 10H4C4.552 10 5 9.551 5 9V4H13C13.552 4 14 4.449 14 5V8H15V5C15 3.897 14.103 3 13 3ZM2 3C2 2.449 2.448 2 3 2H4V9H3C2.636 9 2.294 9.098 2 9.269V3Z" fill="#202020"/>
<path d="M12.5005 8C12.7763 7.99973 13 7.77584 13 7.5C13 7.224 12.776 7 12.5 7H9.5C9.224 7 9 7.224 9 7.5C9 7.776 9.224 8 9.5 8H9.99861C9.99907 8 9.99954 8 10 8L12.5005 8C12.5003 8 12.5007 8 12.5005 8Z" fill="#202020"/>
<path d="M7.5 6C7.77614 6 8 5.77614 8 5.5C8 5.22386 7.77614 5 7.5 5C7.22386 5 7 5.22386 7 5.5C7 5.77614 7.22386 6 7.5 6Z" fill="#202020"/>
<path d="M9.5 5H12.5C12.776 5 13 5.224 13 5.5C13 5.776 12.776 6 12.5 6H9.5C9.224 6 9 5.776 9 5.5C9 5.224 9.224 5 9.5 5Z" fill="#202020"/>
<path d="M7.5 8C7.77614 8 8 7.77614 8 7.5C8 7.22386 7.77614 7 7.5 7C7.22386 7 7 7.22386 7 7.5C7 7.77614 7.22386 8 7.5 8Z" fill="#202020"/>
<path d="M7.5 10C7.77614 10 8 9.77614 8 9.5C8 9.22386 7.77614 9 7.5 9C7.22386 9 7 9.22386 7 9.5C7 9.77614 7.22386 10 7.5 10Z" fill="#202020"/>
<path d="M12 15L12 13L9 13L9 15C9 15.552 9.448 16 10 16L11 16C11.552 16 12 15.552 12 15ZM9 12L9 10C9 9.448 9.448 9 10 9L12 9L12 12L9 12ZM16 10L16 11C16 11.552 15.552 12 15 12L13 12L13 9L15 9C15.552 9 16 9.448 16 10Z" fill="#202020"/>
</g>
<defs>
<clipPath id="clip0_7202_74551">
<rect width="16" height="16" fill="white"/>
</clipPath>
</defs>
</svg>
