<svg width="16" height="16" viewBox="0 0 16 16" fill="none" xmlns="http://www.w3.org/2000/svg">
<path d="M8.72955 4.56346C9.4771 3.81592 10.6891 3.81592 11.4367 4.56347C12.1842 5.31102 12.1842 6.52303 11.4366 7.27058L4.26678 14.4404C3.51923 15.1879 2.30722 15.1879 1.55968 14.4404C0.812126 13.6928 0.81213 12.4808 1.55968 11.7333L8.72955 4.56346ZM8.25002 6.4572L2.26679 12.4404C1.90976 12.7974 1.90976 13.3763 2.26678 13.7333C2.6238 14.0903 3.20265 14.0903 3.55967 13.7333L9.54291 7.75009L8.25002 6.4572ZM10.25 7.04299L10.7295 6.56347C11.0866 6.20645 11.0866 5.6276 10.7295 5.27057C10.3725 4.91355 9.79368 4.91355 9.43665 5.27057L8.95713 5.7501L10.25 7.04299Z" fill="#202020"/>
<path d="M14 1.5C14 1.22386 13.7761 1 13.5 1C13.2239 1 13 1.22386 13 1.5V2H12.5C12.2239 2 12 2.22386 12 2.5C12 2.77614 12.2239 3 12.5 3H13V3.5C13 3.77614 13.2239 4 13.5 4C13.7761 4 14 3.77614 14 3.5V3H14.5C14.7761 3 15 2.77614 15 2.5C15 2.22386 14.7761 2 14.5 2H14V1.5Z" fill="#B27C00"/>
<path d="M4 3.5C4 3.22386 3.77614 3 3.5 3C3.22386 3 3 3.22386 3 3.5V4H2.5C2.22386 4 2 4.22386 2 4.5C2 4.77614 2.22386 5 2.5 5H3V5.5C3 5.77614 3.22386 6 3.5 6C3.77614 6 4 5.77614 4 5.5V5H4.5C4.77614 5 5 4.77614 5 4.5C5 4.22386 4.77614 4 4.5 4H4V3.5Z" fill="#B27C00"/>
<path d="M13 11.5C13 11.7761 12.7761 12 12.5 12H12V12.5C12 12.7761 11.7761 13 11.5 13C11.2239 13 11 12.7761 11 12.5V12H10.5C10.2239 12 10 11.7761 10 11.5C10 11.2239 10.2239 11 10.5 11H11V10.5C11 10.2239 11.2239 10 11.5 10C11.7761 10 12 10.2239 12 10.5V11H12.5C12.7761 11 13 11.2239 13 11.5Z" fill="#B27C00"/>
</svg>
