<svg width="16" height="16" viewBox="0 0 16 16" fill="none" xmlns="http://www.w3.org/2000/svg">
<path d="M8.02787 3L4 3C2.89543 3 2 3.89543 2 5V11C2 12.1046 2.89543 13 4 13H12C13.1046 13 14 12.1046 14 11V7.74264C13.6753 7.85743 13.3398 7.93415 13 7.97213V11C13 11.5523 12.5523 12 12 12H4C3.44772 12 3 11.5523 3 11V6.87552L7.76305 9.44024C7.91104 9.51992 8.08916 9.51992 8.23715 9.44024L11.244 7.82116C10.8379 7.70313 10.4514 7.52869 10.0956 7.30378L8.0001 8.43212L3 5.73976V5C3 4.44772 3.44772 4 4 4H8.02786C7.99061 3.66681 7.99081 3.3314 8.02787 3Z" fill="#202020"/>
<path d="M12.5 0C14.433 -8.4494e-08 16 1.567 16 3.5C16 5.433 14.433 7 12.5 7C10.567 7 9 5.433 9 3.5C9 1.567 10.567 8.4494e-08 12.5 0Z" fill="#C50F1F"/>
</svg>
