<svg width="16" height="16" viewBox="0 0 16 16" fill="none" xmlns="http://www.w3.org/2000/svg">
<path d="M12.5 14H3.5C2.673 14 2 13.327 2 12.5V6.5C2 5.673 2.673 5 3.5 5H12.5C13.327 5 14 5.673 14 6.5V12.5C14 13.327 13.327 14 12.5 14ZM3.5 6C3.225 6 3 6.225 3 6.5V12.5C3 12.775 3.225 13 3.5 13H12.5C12.775 13 13 12.775 13 12.5V6.5C13 6.225 12.775 6 12.5 6H3.5ZM10 7.5C10 7.224 9.776 7 9.5 7H4.5C4.224 7 4 7.224 4 7.5C4 7.776 4.224 8 4.5 8H9.5C9.776 8 10 7.776 10 7.5ZM12 9.5C12 9.224 11.776 9 11.5 9H4.5C4.224 9 4 9.224 4 9.5C4 9.776 4.224 10 4.5 10H11.5C11.776 10 12 9.776 12 9.5ZM10 11.5C10 11.224 9.776 11 9.5 11H4.5C4.224 11 4 11.224 4 11.5C4 11.776 4.224 12 4.5 12H9.5C9.776 12 10 11.776 10 11.5ZM8 4H3C2.448 4 2 3.552 2 3V2C2 1.448 2.448 1 3 1H8C8.552 1 9 1.448 9 2V3C9 3.552 8.552 4 8 4ZM3 2V3H8V2H3Z" fill="#202020"/>
</svg>
