<svg width="16" height="16" viewBox="0 0 16 16" fill="none" xmlns="http://www.w3.org/2000/svg">
<path d="M11.1501 5.39L10.7901 5.04L10.0071 5.493L9.41012 5L10.0801 4.33L8.67012 2.92L6.59012 5L5.50912 5.54L4.37012 5L5.34012 4.68C5.50012 4.63 5.63012 4.54 5.74012 4.43L7.96012 2.21L7.61012 1.86C7.41012 1.66 7.41012 1.35 7.61012 1.15C7.81012 0.95 8.12012 0.95 8.32012 1.15L11.8501 4.69C12.0501 4.88 12.0501 5.2 11.8501 5.39C11.6601 5.59 11.3401 5.59 11.1501 5.39ZM14.2501 6H11.7501C11.3361 6 11.0001 6.336 11.0001 6.75V10L12.0001 10.5V7H14.0001V10.5L15.0001 10V6.75C15.0001 6.336 14.6641 6 14.2501 6Z" fill="#202020"/>
<path d="M11 10V13C11 13.53 11.211 14.039 11.586 14.414C11.961 14.789 12.47 15 13 15C13.53 15 14.039 14.789 14.414 14.414C14.789 14.039 15 13.53 15 13V10H11ZM13 14C12.735 14 12.48 13.895 12.293 13.707C12.106 13.519 12 13.265 12 13V11H14V13C14 13.265 13.895 13.52 13.707 13.707C13.519 13.894 13.265 14 13 14ZM10.5 5H4.37004L3.86004 5.17L1.62004 5.92C1.56004 5.94 1.50004 5.96 1.44004 6C1.32004 6.05 1.20004 6.14 1.11004 6.23C0.600039 6.75 0.600039 7.58 1.11004 8.09L4.92004 11.89C5.43004 12.4 6.26004 12.4 6.77004 11.89C6.91004 11.75 7.02004 11.57 7.08004 11.38L7.83004 9.15L8.32004 7.66C8.38004 7.51 8.46004 7.37 8.57004 7.26L10.79 5.04L10.5 5ZM7.86004 6.55C7.64004 6.77 7.47004 7.05 7.38004 7.34L7.04004 8.36L6.69004 9.42L6.14004 11.06C6.12004 11.11 6.09004 11.15 6.06004 11.18C5.94004 11.3 5.74004 11.3 5.62004 11.18L1.82004 7.38C1.70004 7.26 1.70004 7.06 1.82004 6.94C1.85004 6.91 1.89004 6.88 1.94004 6.87L3.59004 6.32L4.56004 6H8.41004L7.86004 6.55Z" fill="#159195"/>
</svg>
