<svg width="16" height="16" viewBox="0 0 16 16" fill="none" xmlns="http://www.w3.org/2000/svg">
<g clip-path="url(#clip0_7202_74623)">
<path d="M12 5C12 5.55228 11.5523 6 11 6C10.4477 6 10 5.55228 10 5C10 4.44772 10.4477 4 11 4C11.5523 4 12 4.44772 12 5Z" fill="#202020"/>
<path fill-rule="evenodd" clip-rule="evenodd" d="M7.5 11.5V12C7.5 12.2761 7.27614 12.5 7 12.5H6V13C6 13.5523 5.55229 14 5 14H3C2.44772 14 2 13.5523 2 13V11.7071C2 11.4419 2.10536 11.1875 2.29289 11L6.16219 7.13071C6.05656 6.77171 6 6.39211 6 6C6 3.79086 7.79086 2 10 2C12.2091 2 14 3.79086 14 6C14 7.369 13.3123 8.57738 12.2634 9.29847C11.9294 9.14049 11.5689 9.04532 11.2 9.01801C11.126 9.00901 11.051 9.00901 10.976 9.00901C10.6542 9.00905 10.3346 9.06036 10.029 9.16102C9.6498 9.28554 9.29976 9.48556 8.99997 9.74901C8.69829 10.0112 8.45358 10.3325 8.28097 10.693C8.15932 10.9491 8.07614 11.221 8.03356 11.5H7.5ZM10 3C8.34315 3 7 4.34315 7 6C7 6.38313 7.07157 6.74835 7.20163 7.08386C7.27321 7.26854 7.22904 7.47807 7.08898 7.61813L3 11.7071V13H5V12C5 11.7239 5.22386 11.5 5.5 11.5H6.5V11C6.5 10.7239 6.72386 10.5 7 10.5H8V9.5C8 9.22386 8.22386 9 8.5 9H10C11.6569 9 13 7.65685 13 6C13 4.34315 11.6569 3 10 3Z" fill="#202020"/>
<path d="M15.9999 11.93C15.9998 12.1828 15.9492 12.4331 15.8512 12.6661C15.7531 12.8991 15.6096 13.1102 15.4289 13.287L12.8069 15.873C12.7661 15.9133 12.7179 15.9452 12.6649 15.967C12.6125 15.9884 12.5565 15.9996 12.4999 16C12.4423 16.0002 12.3852 15.989 12.3319 15.967C12.2786 15.9452 12.23 15.9133 12.1889 15.873L9.56389 13.287C9.37754 13.1023 9.23147 12.881 9.13489 12.637C9.03742 12.3952 8.99144 12.1356 8.99989 11.875C9.00882 11.614 9.07146 11.3577 9.18389 11.122C9.29686 10.8845 9.45753 10.6727 9.65589 10.5C9.85489 10.3258 10.0868 10.1932 10.3379 10.11C10.5904 10.0265 10.8569 9.99391 11.1221 10.014C11.3873 10.0341 11.6458 10.1065 11.8829 10.227C12.1181 10.3466 12.3266 10.5126 12.4959 10.715C12.7552 10.403 13.1044 10.1784 13.4959 10.072C13.8881 9.96308 14.3042 9.97598 14.6889 10.109C15.0712 10.2405 15.4036 10.4867 15.6409 10.814C15.8752 11.1381 16.0009 11.5281 15.9999 11.928V11.93Z" fill="#202020"/>
</g>
<defs>
<clipPath id="clip0_7202_74623">
<rect width="16" height="16" fill="white"/>
</clipPath>
</defs>
</svg>
