<svg width="16" height="16" viewBox="0 0 16 16" fill="none" xmlns="http://www.w3.org/2000/svg">
<g clip-path="url(#clip0_7202_74633)">
<path d="M10.8166 4.01695C10.8768 4.00572 10.9382 4 11 4C11.0083 4 11.0165 4.0001 11.0248 4.0003C11.1488 4.00337 11.27 4.02944 11.3827 4.07612C11.3902 4.07923 11.3977 4.08243 11.4051 4.08573C11.5166 4.13513 11.6192 4.20498 11.7071 4.29289C11.7099 4.2957 11.7127 4.29853 11.7155 4.30138C11.7588 4.34569 11.7975 4.39362 11.8315 4.44443C11.8316 4.44469 11.8313 4.44417 11.8315 4.44443C11.9402 4.60751 12 4.80108 12 5C12 5.19778 11.9414 5.39112 11.8315 5.55557C11.8294 5.55871 11.8273 5.56184 11.8251 5.56495C11.7901 5.6161 11.7506 5.66365 11.7071 5.7071C11.7013 5.71295 11.6953 5.71872 11.6894 5.72441C11.6007 5.80876 11.4969 5.87657 11.3827 5.92388C11.2608 5.97437 11.1307 6 11 6C10.996 6 10.992 5.99997 10.9881 5.99993C10.9268 5.9992 10.8655 5.99284 10.8049 5.98078C10.7968 5.97917 10.7887 5.97746 10.7807 5.97565C10.6602 5.94857 10.5463 5.89952 10.4444 5.83147C10.4411 5.82926 10.4378 5.82703 10.4345 5.82478C10.384 5.79015 10.3366 5.75081 10.2929 5.7071C10.287 5.70126 10.2813 5.69534 10.2756 5.68936C10.1905 5.59992 10.123 5.49585 10.0761 5.38268C10.0746 5.379 10.0731 5.37532 10.0716 5.37163C10.0489 5.31478 10.0313 5.25571 10.0192 5.19509C10.0176 5.18698 10.0161 5.17885 10.0147 5.17072C9.9936 5.04906 9.99532 4.92505 10.0192 4.80491C10.02 4.801 10.0208 4.79711 10.0216 4.79322C10.0343 4.73331 10.0525 4.67442 10.0761 4.61731C10.0793 4.60967 10.0825 4.60208 10.0859 4.59453C10.136 4.48167 10.2063 4.37951 10.2929 4.29289C10.2957 4.29008 10.2985 4.28728 10.3014 4.2845C10.3452 4.24172 10.393 4.20287 10.4444 4.16853C10.4513 4.16393 10.4582 4.15943 10.4652 4.15501C10.5695 4.08898 10.6848 4.04311 10.8049 4.01921C10.8088 4.01844 10.8127 4.01768 10.8166 4.01695Z" fill="#202020"/>
<path d="M9 2.13C9.32573 2.04069 9.66226 1.99694 10 2C11.0609 2 12.0783 2.42142 12.8284 3.17157C13.5786 3.92172 14 4.93913 14 6C14 7.06086 13.5786 8.07828 12.8284 8.82842C12.6535 9.0033 12.4641 9.16032 12.263 9.29829C11.9292 9.14042 11.5688 9.04531 11.2 9.01801C11.126 9.00901 11.051 9.00901 10.976 9.00901C10.6542 9.00905 10.3346 9.06036 10.029 9.16102C9.6498 9.28554 9.29976 9.48556 8.99997 9.74901C8.69829 10.0112 8.45358 10.3325 8.28097 10.693C8.15932 10.9491 8.07614 11.221 8.03356 11.5H7.5V12C7.5 12.1326 7.44732 12.2598 7.35355 12.3536C7.25979 12.4473 7.13261 12.5 7 12.5H6V13C6 13.2652 5.89464 13.5196 5.70711 13.7071C5.51957 13.8946 5.26522 14 5 14H3C2.73478 14 2.48043 13.8946 2.29289 13.7071C2.10536 13.5196 2 13.2652 2 13V11.71C2.00197 11.4449 2.1058 11.1907 2.29 11L5.29 8H6.71L3 11.71V13H5V12C5 11.8674 5.05268 11.7402 5.14645 11.6464C5.24021 11.5527 5.36739 11.5 5.5 11.5H6.5V11C6.5 10.8674 6.55268 10.7402 6.64645 10.6464C6.74021 10.5527 6.86739 10.5 7 10.5H8V9.5C8 9.36739 8.05268 9.24021 8.14645 9.14644C8.24021 9.05267 8.36739 9 8.5 9H10C10.7956 9 11.5587 8.68393 12.1213 8.12132C12.6839 7.55871 13 6.79565 13 6C13 5.20435 12.6839 4.44129 12.1213 3.87868C11.5587 3.31607 10.7956 3 10 3C9.65842 2.99787 9.3194 3.0589 9 3.18V2.13Z" fill="#202020"/>
<path fill-rule="evenodd" clip-rule="evenodd" d="M7 1H2C1.44772 1 1 1.44772 1 2V6C1 6.55228 1.44772 7 2 7H7C7.55228 7 8 6.55228 8 6V2C8 1.44772 7.55228 1 7 1ZM6.5 4H2.5C2.36739 4 2.24021 3.94732 2.14645 3.85355C2.05268 3.75979 2 3.63261 2 3.5C2 3.36739 2.05268 3.24021 2.14645 3.14645C2.24021 3.05268 2.36739 3 2.5 3H6.5C6.63261 3 6.75979 3.05268 6.85355 3.14645C6.94732 3.24021 7 3.36739 7 3.5C7 3.63261 6.94732 3.75979 6.85355 3.85355C6.75979 3.94732 6.63261 4 6.5 4Z" fill="#006CBF"/>
<path d="M15.9999 11.93C15.9998 12.1828 15.9492 12.4331 15.8512 12.6661C15.7531 12.8991 15.6096 13.1102 15.4289 13.287L12.8069 15.873C12.7661 15.9133 12.7179 15.9452 12.6649 15.967C12.6125 15.9884 12.5565 15.9996 12.4999 16C12.4423 16.0002 12.3852 15.989 12.3319 15.967C12.2786 15.9452 12.23 15.9133 12.1889 15.873L9.56389 13.287C9.37754 13.1023 9.23147 12.881 9.13489 12.637C9.03742 12.3952 8.99144 12.1356 8.99989 11.875C9.00882 11.614 9.07146 11.3577 9.18389 11.122C9.29686 10.8845 9.45753 10.6727 9.65589 10.5C9.85489 10.3258 10.0868 10.1932 10.3379 10.11C10.5904 10.0265 10.8569 9.99391 11.1221 10.014C11.3873 10.0341 11.6458 10.1065 11.8829 10.227C12.1181 10.3466 12.3266 10.5126 12.4959 10.715C12.7552 10.403 13.1044 10.1784 13.4959 10.072C13.8881 9.96308 14.3042 9.97598 14.6889 10.109C15.0712 10.2405 15.4036 10.4867 15.6409 10.814C15.8752 11.1381 16.0009 11.5281 15.9999 11.928V11.93Z" fill="#202020"/>
</g>
<defs>
<clipPath id="clip0_7202_74633">
<rect width="16" height="16" fill="white"/>
</clipPath>
</defs>
</svg>
