<svg width="16" height="16" viewBox="0 0 16 16" fill="none" xmlns="http://www.w3.org/2000/svg">
<path d="M11 4C10.8022 4 10.6089 4.05865 10.4444 4.16853C10.28 4.27841 10.1518 4.43459 10.0761 4.61731C10.0004 4.80004 9.98063 5.00111 10.0192 5.19509C10.0578 5.38907 10.153 5.56725 10.2929 5.7071C10.4327 5.84696 10.6109 5.9422 10.8049 5.98078C10.9989 6.01937 11.2 5.99956 11.3827 5.92388C11.5654 5.84819 11.7216 5.72002 11.8315 5.55557C11.9414 5.39112 12 5.19778 12 5C12 4.73478 11.8946 4.48043 11.7071 4.29289C11.5196 4.10535 11.2652 4 11 4V4ZM10 2C9.66226 1.99694 9.32573 2.04069 9 2.13V3.18C9.3194 3.0589 9.65842 2.99787 10 3C10.7956 3 11.5587 3.31607 12.1213 3.87868C12.6839 4.44129 13 5.20435 13 6C13 6.79565 12.6839 7.55871 12.1213 8.12132C11.5587 8.68393 10.7956 9 10 9H8.5C8.36739 9 8.24021 9.05267 8.14645 9.14644C8.05268 9.24021 8 9.36739 8 9.5V10.5H7C6.86739 10.5 6.74021 10.5527 6.64645 10.6464C6.55268 10.7402 6.5 10.8674 6.5 11V11.5H5.5C5.36739 11.5 5.24021 11.5527 5.14645 11.6464C5.05268 11.7402 5 11.8674 5 12V13H3V11.71L6.71 8H5.29L2.29 11C2.1058 11.1907 2.00197 11.4449 2 11.71V13C2 13.2652 2.10536 13.5196 2.29289 13.7071C2.48043 13.8946 2.73478 14 3 14H5C5.26522 14 5.51957 13.8946 5.70711 13.7071C5.89464 13.5196 6 13.2652 6 13V12.5H7C7.13261 12.5 7.25979 12.4473 7.35355 12.3536C7.44732 12.2598 7.5 12.1326 7.5 12V11.5H8.5C8.63261 11.5 8.75979 11.4473 8.85355 11.3536C8.94732 11.2598 9 11.1326 9 11V10H10C11.0609 10 12.0783 9.57857 12.8284 8.82842C13.5786 8.07828 14 7.06086 14 6C14 4.93913 13.5786 3.92172 12.8284 3.17157C12.0783 2.42142 11.0609 2 10 2ZM12 5C12 4.80222 11.9414 4.60888 11.8315 4.44443C11.7216 4.27998 11.5654 4.1518 11.3827 4.07612C11.2 4.00043 10.9989 3.98063 10.8049 4.01921C10.6109 4.0578 10.4327 4.15304 10.2929 4.29289C10.153 4.43274 10.0578 4.61093 10.0192 4.80491C9.98063 4.99889 10.0004 5.19995 10.0761 5.38268C10.1518 5.56541 10.28 5.72159 10.4444 5.83147C10.6089 5.94135 10.8022 6 11 6C11.2652 6 11.5196 5.89464 11.7071 5.7071C11.8946 5.51957 12 5.26521 12 5ZM11 4C10.8022 4 10.6089 4.05865 10.4444 4.16853C10.28 4.27841 10.1518 4.43459 10.0761 4.61731C10.0004 4.80004 9.98063 5.00111 10.0192 5.19509C10.0578 5.38907 10.153 5.56725 10.2929 5.7071C10.4327 5.84696 10.6109 5.9422 10.8049 5.98078C10.9989 6.01937 11.2 5.99956 11.3827 5.92388C11.5654 5.84819 11.7216 5.72002 11.8315 5.55557C11.9414 5.39112 12 5.19778 12 5C12 4.73478 11.8946 4.48043 11.7071 4.29289C11.5196 4.10535 11.2652 4 11 4V4Z" fill="#202020"/>
<path fill-rule="evenodd" clip-rule="evenodd" d="M2 1H7C7.55228 1 8 1.44772 8 2V6C8 6.55228 7.55228 7 7 7H2C1.44772 7 1 6.55228 1 6V2C1 1.44772 1.44772 1 2 1ZM2.5 4H6.5C6.63261 4 6.75979 3.94732 6.85355 3.85355C6.94732 3.75979 7 3.63261 7 3.5C7 3.36739 6.94732 3.24021 6.85355 3.14645C6.75979 3.05268 6.63261 3 6.5 3H2.5C2.36739 3 2.24021 3.05268 2.14645 3.14645C2.05268 3.24021 2 3.36739 2 3.5C2 3.63261 2.05268 3.75979 2.14645 3.85355C2.24021 3.94732 2.36739 4 2.5 4Z" fill="#006CBF"/>
</svg>
