<svg width="16" height="16" viewBox="0 0 16 16" fill="none" xmlns="http://www.w3.org/2000/svg">
<path d="M8 4.691V2.5H7V5C7 5.189 7.107 5.362 7.276 5.447L13.276 8.447C13.348 8.483 13.424 8.5 13.5 8.5V7.441L8 4.691ZM4.5 7H2.5V8H4.382L13.257 12.437C13.407 12.156 13.5 11.84 13.5 11.5V11.441L4.724 7.053C4.655 7.018 4.578 7 4.5 7Z" fill="#006CBF"/>
<path d="M9 4.073L10 4.573V2.5H9V4.073ZM10.854 5L12.854 6H13.5V5H10.854ZM5 11V9.5C5 9.471 4.988 9.446 4.984 9.419L4.146 9H2.5V10H4V11.5C4 11.776 4.224 12 4.5 12H9V13.5H10V11.927L8.146 11H5Z" fill="#202020"/>
<path d="M2 4.5C2 3.119 3.119 2 4.5 2H11.5C12.881 2 14 3.119 14 4.5V11.5C14 12.881 12.881 14 11.5 14H4.5C3.119 14 2 12.881 2 11.5V4.5ZM4.5 3C3.672 3 3 3.672 3 4.5V11.5C3 12.328 3.672 13 4.5 13H11.5C12.328 13 13 12.328 13 11.5V4.5C13 3.672 12.328 3 11.5 3H4.5Z" fill="#202020"/>
</svg>
