<svg width="16" height="16" viewBox="0 0 16 16" fill="none" xmlns="http://www.w3.org/2000/svg">
<g clip-path="url(#clip0_7202_74740)">
<path d="M12 5C12 5.55228 11.5523 6 11 6C10.4477 6 10 5.55228 10 5C10 4.44772 10.4477 4 11 4C11.5523 4 12 4.44772 12 5Z" fill="#202020"/>
<path fill-rule="evenodd" clip-rule="evenodd" d="M7.5 11.5V12C7.5 12.2761 7.27614 12.5 7 12.5H6V13C6 13.5523 5.55229 14 5 14H3C2.44772 14 2 13.5523 2 13V11.7071C2 11.4419 2.10536 11.1875 2.29289 11L6.16219 7.13071C6.05656 6.77171 6 6.39211 6 6C6 3.79086 7.79086 2 10 2C12.2091 2 14 3.79086 14 6C14 7.22947 13.4453 8.32939 12.5725 9.06315C12.4445 9.10198 12.3217 9.15829 12.2078 9.23103C12.0745 9.31617 11.9564 9.4218 11.8577 9.54337C11.3026 9.83499 10.6706 10 10 10H9V11C9 11.2761 8.77614 11.5 8.5 11.5H7.5ZM10 3C8.34315 3 7 4.34315 7 6C7 6.38313 7.07157 6.74835 7.20163 7.08386C7.27321 7.26854 7.22904 7.47807 7.08898 7.61813L3 11.7071V13H5V12C5 11.7239 5.22386 11.5 5.5 11.5H6.5V11C6.5 10.7239 6.72386 10.5 7 10.5H8V9.5C8 9.22386 8.22386 9 8.5 9H10C11.6569 9 13 7.65685 13 6C13 4.34315 11.6569 3 10 3Z" fill="#202020"/>
<path d="M12.5701 10.279C12.6072 10.196 12.6676 10.1255 12.7439 10.076C12.8202 10.0266 12.9092 10.0002 13.0001 10.0002C13.091 10.0002 13.18 10.0266 13.2563 10.076C13.3327 10.1255 13.393 10.196 13.4301 10.279L14.0971 11.688L15.5891 11.914C15.6793 11.9313 15.7632 11.9727 15.8317 12.0338C15.9002 12.095 15.9509 12.1736 15.9782 12.2613C16.0055 12.349 16.0085 12.4424 15.9868 12.5317C15.9651 12.621 15.9196 12.7026 15.8551 12.768L14.7751 13.868L15.0301 15.417C15.0489 15.507 15.0418 15.6005 15.0094 15.6865C14.9771 15.7725 14.9209 15.8476 14.8475 15.9029C14.7741 15.9581 14.6864 15.9914 14.5948 15.9987C14.5032 16.006 14.4114 15.987 14.3301 15.944L13.0001 15.21L11.6661 15.941C11.5849 15.984 11.4931 16.003 11.4014 15.9957C11.3098 15.9884 11.2222 15.9551 11.1487 15.8999C11.0753 15.8446 11.0191 15.7695 10.9868 15.6835C10.9545 15.5975 10.9473 15.504 10.9661 15.414L11.2211 13.865L10.1411 12.765C10.0766 12.6996 10.0311 12.618 10.0094 12.5287C9.98776 12.4394 9.99074 12.346 10.0181 12.2583C10.0454 12.1706 10.096 12.092 10.1645 12.0308C10.233 11.9697 10.3169 11.9283 10.4071 11.911L11.8991 11.685L12.5701 10.279Z" fill="#202020"/>
</g>
<defs>
<clipPath id="clip0_7202_74740">
<rect width="16" height="16" fill="white"/>
</clipPath>
</defs>
</svg>
