<svg width="16" height="16" viewBox="0 0 16 16" fill="none" xmlns="http://www.w3.org/2000/svg">
<path d="M7.5 11.5V12C7.5 12.2761 7.27614 12.5 7 12.5H6V13C6 13.5523 5.55229 14 5 14H3C2.44772 14 2 13.5523 2 13V11.7071C2 11.4419 2.10536 11.1875 2.29289 11L6.16219 7.13071C6.05656 6.77171 6 6.39211 6 6C6 3.79086 7.79086 2 10 2C12.2091 2 14 3.79086 14 6C14 6.74234 13.7978 7.43745 13.4454 8.03324C13.2989 8.01124 13.15 8 13 8C12.6941 8 12.3931 8.04672 12.1063 8.1362C12.658 7.59217 13 6.83602 13 6C13 4.34315 11.6569 3 10 3C8.34315 3 7 4.34315 7 6C7 6.38313 7.07157 6.74835 7.20163 7.08386C7.27321 7.26854 7.22904 7.47807 7.08898 7.61813L3 11.7071V13H5V12C5 11.7239 5.22386 11.5 5.5 11.5H6.5V11C6.5 10.7239 6.72386 10.5 7 10.5H8V9.5C8 9.22386 8.22386 9 8.5 9H10C10.3108 9 10.6105 8.95274 10.8924 8.86503C10.8878 8.86956 10.8832 8.87411 10.8787 8.87868C10.5602 9.19715 10.3207 9.57985 10.1729 9.99633C10.1156 9.99877 10.0579 10 10 10H9V11C9 11.2761 8.77614 11.5 8.5 11.5H7.5Z" fill="#202020"/>
<path d="M12 5C12 5.55228 11.5523 6 11 6C10.4477 6 10 5.55228 10 5C10 4.44772 10.4477 4 11 4C11.5523 4 12 4.44772 12 5Z" fill="#202020"/>
<path d="M11 12V11C11 9.89543 11.8954 9 13 9C14.1046 9 15 9.89543 15 11V12C15.5523 12 16 12.4477 16 13V15C16 15.5523 15.5523 16 15 16H11C10.4477 16 10 15.5523 10 15V13C10 12.4477 10.4477 12 11 12ZM12 11V12H14V11C14 10.4477 13.5523 10 13 10C12.4477 10 12 10.4477 12 11Z" fill="#202020"/>
</svg>
