<svg width="16" height="16" viewBox="0 0 16 16" fill="none" xmlns="http://www.w3.org/2000/svg">
<path d="M7 12.5V10.5C6.72386 10.5 6.5 10.7239 6.5 11V11.5H5.5C5.22386 11.5 5 11.7239 5 12V13H3V11.7071L7.08898 7.61813C7.22904 7.47807 7.27321 7.26854 7.20163 7.08386C7.07157 6.74835 7 6.38313 7 6C7 4.34315 8.34315 3 10 3C11.6569 3 13 4.34315 13 6C13 6.35064 12.9398 6.68722 12.8293 7H13.874C13.9562 6.68038 14 6.3453 14 6C14 3.79086 12.2091 2 10 2C7.79086 2 6 3.79086 6 6C6 6.39211 6.05656 6.77171 6.16219 7.13071L2.29289 11C2.10536 11.1875 2 11.4419 2 11.7071V13C2 13.5523 2.44772 14 3 14H5C5.55229 14 6 13.5523 6 13V12.5H7Z" fill="#202020"/>
<path d="M12 5C12 5.55228 11.5523 6 11 6C10.4477 6 10 5.55228 10 5C10 4.44772 10.4477 4 11 4C11.5523 4 12 4.44772 12 5Z" fill="#202020"/>
<path fill-rule="evenodd" clip-rule="evenodd" d="M10 8C8.89543 8 8 8.89543 8 10V14C8 15.1046 8.89543 16 10 16H14C15.1046 16 16 15.1046 16 14V10C16 8.89543 15.1046 8 14 8H10ZM10 10.5C10 10.2239 10.2239 10 10.5 10H13.5C13.7761 10 14 10.2239 14 10.5V13.5C14 13.7761 13.7761 14 13.5 14C13.2239 14 13 13.7761 13 13.5V11.7071L10.8536 13.8536C10.6583 14.0488 10.3417 14.0488 10.1464 13.8536C9.95118 13.6583 9.95118 13.3417 10.1464 13.1465L12.2929 11H10.5C10.2239 11 10 10.7761 10 10.5Z" fill="#202020"/>
</svg>
