<svg width="16" height="16" viewBox="0 0 16 16" fill="none" xmlns="http://www.w3.org/2000/svg">
<g clip-path="url(#clip0_7202_74753)">
<path d="M7.5 11.5V12C7.5 12.2761 7.27614 12.5 7 12.5H6V13C6 13.5523 5.55229 14 5 14H3C2.44772 14 2 13.5523 2 13V11.7071C2 11.4419 2.10536 11.1875 2.29289 11L6.16219 7.13071C6.05656 6.77171 6 6.39211 6 6C6 3.79086 7.79086 2 10 2C12.2091 2 14 3.79086 14 6C14 6.7669 13.7842 7.48339 13.41 8.09205C13.1161 8.0317 12.8117 8 12.5 8C12.409 8 12.3186 8.0027 12.2289 8.00803C12.7082 7.47633 13 6.77224 13 6C13 4.34315 11.6569 3 10 3C8.34315 3 7 4.34315 7 6C7 6.38313 7.07157 6.74835 7.20163 7.08386C7.27321 7.26854 7.22904 7.47807 7.08898 7.61813L3 11.7071V13H5V12C5 11.7239 5.22386 11.5 5.5 11.5H6.5V11C6.5 10.7239 6.72386 10.5 7 10.5H8V9.5C8 9.22386 8.22386 9 8.5 9H9.67133C8.8997 9.6244 8.33869 10.4988 8.11151 11.5H7.5Z" fill="#202020"/>
<path d="M12 5C12 5.55228 11.5523 6 11 6C10.4477 6 10 5.55228 10 5C10 4.44772 10.4477 4 11 4C11.5523 4 12 4.44772 12 5Z" fill="#202020"/>
<path fill-rule="evenodd" clip-rule="evenodd" d="M12.5 16C14.433 16 16 14.433 16 12.5C16 10.567 14.433 9 12.5 9C10.567 9 9 10.567 9 12.5C9 14.433 10.567 16 12.5 16ZM15 12.5C15 13.8807 13.8807 15 12.5 15C11.9905 15 11.5165 14.8476 11.1213 14.5858L14.5858 11.1213C14.8476 11.5165 15 11.9905 15 12.5ZM10.4142 13.8787L13.8787 10.4142C13.4835 10.1524 13.0095 10 12.5 10C11.1193 10 10 11.1193 10 12.5C10 13.0095 10.1524 13.4835 10.4142 13.8787Z" fill="#202020"/>
</g>
<defs>
<clipPath id="clip0_7202_74753">
<rect width="16" height="16" fill="white"/>
</clipPath>
</defs>
</svg>
