<svg width="16" height="16" viewBox="0 0 16 16" fill="none" xmlns="http://www.w3.org/2000/svg">
<path d="M7.00505 9.31602V9.33002C6.98305 9.32502 6.95805 9.33002 6.94105 9.34602C6.93505 9.33002 6.92205 9.33002 6.90905 9.33002C7.26905 8.95602 6.11605 8.82302 6.14105 8.57002C5.67105 8.67302 5.43705 8.22902 5.13905 8.73702C4.85905 8.62602 4.58105 8.70502 4.71705 8.25102C4.38105 8.17002 4.29805 8.23902 4.46605 7.88102C4.50605 7.44402 3.59905 8.74802 3.81705 7.42702C3.82005 7.08302 4.85505 6.98002 4.80905 7.32302C5.01705 7.81802 4.96105 7.21802 4.94205 7.03702C5.04005 6.82802 5.45505 6.77202 5.35505 6.47102L5.39505 6.52302C5.46005 6.34102 5.61205 6.18902 5.80905 6.17002C5.64905 6.02702 6.02705 5.91302 6.18105 5.85702C5.83805 6.12402 6.65705 5.88002 6.49505 5.72102C6.45105 5.83202 6.28105 5.83602 6.23205 5.72702C6.33705 5.47802 6.11305 5.42802 5.88505 5.65002C5.94805 5.46102 6.37205 5.44202 6.30605 5.39202C6.39505 5.39002 6.48305 5.39602 6.57105 5.41102C6.34705 5.60602 6.65905 5.57302 6.73505 5.63802C6.81905 5.50802 6.78205 5.73802 6.87805 5.66402C6.95305 5.54602 6.82605 5.59302 6.85705 5.53102C6.90205 5.35102 6.74505 5.47002 6.71105 5.35602C6.77305 5.28902 7.07605 5.14502 6.77405 5.03102C6.91105 4.98302 6.68005 4.94302 6.67105 4.90802C6.57605 4.80602 6.59505 4.42902 6.50805 4.33202C6.28405 4.69902 6.25305 4.50402 6.22005 4.48602C6.27005 4.24302 6.04705 3.91002 5.77405 4.05102C5.69505 4.76702 5.57305 4.67002 5.39805 5.21102C5.18105 5.25402 5.28905 4.93502 5.28905 4.82502C4.96005 4.82302 5.03205 4.52302 4.72205 4.55902C4.57205 4.18402 5.05805 3.86202 5.07105 3.79202C5.26505 3.76502 5.43705 3.62502 5.50405 3.44102C5.84905 3.69402 6.22405 2.41802 5.49105 3.32702L5.50505 3.02902C5.45705 3.04502 5.41705 3.08202 5.39705 3.12802C5.39305 3.03002 5.45705 2.98102 5.34105 2.92402C5.53205 2.77302 5.32205 2.62802 5.46705 2.49902H5.30605C5.16905 2.66502 5.08405 2.85602 5.24005 2.94502C5.18805 3.05902 5.11005 3.15902 5.01305 3.23802C4.99105 3.16002 5.08005 3.12202 4.99805 3.05502C5.08905 3.12902 5.21705 2.93002 5.06605 2.84802C4.98505 2.91002 4.85105 2.94602 4.98905 3.04402C4.76805 3.24402 4.58505 3.02602 4.50405 2.89402C4.32005 2.85402 4.36305 3.01202 4.52105 2.94302C4.41805 2.96402 4.33005 3.04602 4.30205 3.14702C4.31505 2.88802 4.05305 3.08202 3.96605 2.89202C4.14205 2.91602 3.98605 2.72802 3.82905 2.62102C3.05605 2.89802 2.49805 3.63002 2.49805 4.49702V5.22002C2.51205 5.25602 2.51705 5.28502 2.49805 5.29502V6.95102C2.62205 7.20002 2.77105 7.43702 2.91005 7.66102C3.06905 7.67402 2.56605 7.00002 2.69905 6.95702C2.85805 7.30002 3.14805 7.46702 3.20105 7.92602C3.48205 8.18902 4.02205 8.25002 4.39805 8.42302C4.51105 8.60902 4.80305 8.95402 4.95005 8.69602C5.36205 8.90402 4.71405 9.32402 4.89705 9.53902L4.89405 9.53402C4.68705 9.96902 4.84405 9.57402 5.16305 10.286C5.10705 10.354 5.76305 10.708 5.60805 10.832C5.68405 11.42 5.48605 11.994 5.61205 12.514C5.46805 12.625 5.70805 12.72 5.61705 12.514C5.74105 12.464 5.64005 12.747 5.67105 12.781C5.72905 12.917 5.53605 12.825 5.56305 12.973C5.76005 12.931 5.56605 13.095 5.62105 13.16C5.65705 13.219 5.71605 13.563 5.73805 13.327C5.78205 13.432 5.72505 13.44 5.77005 13.497H6.06005C6.08005 13.471 6.10305 13.45 6.11905 13.464C6.05805 13.368 6.12105 13.154 6.22005 13.019C5.99705 12.835 6.16605 12.799 6.23705 12.568C6.16905 12.571 6.38305 12.538 6.25205 12.49C6.16905 12.555 6.11105 12.317 6.23205 12.409C6.41305 12.478 6.29705 12.256 6.36105 12.214C6.62905 12.287 6.75605 11.976 6.55505 11.85C7.05205 11.983 7.00605 11.343 7.22805 11.068C7.84505 10.895 7.61405 10.525 7.89605 10.06C8.35605 9.44002 7.17205 9.50902 7.00205 9.31202L7.00505 9.31602ZM13.081 3.29002C13.076 3.29602 13.073 3.29402 13.067 3.30402C12.864 3.35202 12.699 3.82302 12.703 3.39602C12.397 3.27702 12.832 3.59802 12.445 3.74202C12.438 3.91102 12.452 3.91402 12.304 3.83402C12.246 3.78702 12.212 3.93402 12.317 3.93402C12.296 4.13602 12.096 3.69302 12.015 3.65102C13.139 3.81502 11.901 3.18902 11.77 3.23902C11.969 3.19302 11.59 3.03702 11.587 3.16602C11.477 3.03502 11.337 3.23102 11.205 3.29702C11.217 3.25002 11.154 3.24902 11.188 3.29702C11.103 3.31602 11.064 3.34902 11.101 3.42502C10.988 3.48002 11.02 3.28002 10.956 3.49502C11.015 3.49502 11.048 3.46702 11.081 3.48702C10.882 3.64502 10.904 3.87502 10.731 4.06602C10.484 4.14802 10.353 4.50002 10.609 4.69202C10.849 4.51802 10.866 4.59002 10.942 4.87402V4.85602C10.962 4.98702 11.253 4.81302 11.193 4.74802C11.113 4.62402 11.318 4.54502 11.289 4.42902C11.046 4.20002 11.405 3.93102 11.474 3.77302C11.774 3.74902 11.383 4.07302 11.401 4.11802C11.35 4.64002 11.807 4.23502 11.901 4.42802C11.76 4.49802 11.514 4.47302 11.521 4.63502C11.615 4.53202 11.709 4.71002 11.607 4.72602C11.415 4.54902 11.531 4.92702 11.412 4.97302C11.223 4.98602 11.053 5.02502 10.884 5.04102C10.608 4.91902 11.117 5.02102 10.918 4.86502C10.814 5.11202 10.867 4.75102 10.826 4.70502C10.724 4.72902 10.66 4.86802 10.722 4.94402C10.811 5.20102 10.513 5.02202 10.396 5.31902C10.209 5.53102 10.152 5.47002 9.94905 5.56902C10.067 5.67102 10.285 5.86602 10.103 5.99302C9.95105 5.99702 9.58205 5.87702 9.67205 6.12602C9.54505 6.56102 9.85105 6.66402 10.171 6.49602C10.274 6.38702 10.368 5.91702 10.599 6.02502C10.87 5.79602 10.972 6.16802 11.247 6.29902C11.338 6.42602 11.13 6.45602 11.074 6.44302C11.011 6.55202 11.308 6.56602 11.223 6.49202C11.38 6.43802 11.281 6.24402 11.363 6.25202C11.545 6.33002 11.243 6.11902 11.254 6.11702C10.881 5.89002 11.007 5.73602 11.33 6.02002C11.535 6.07102 11.607 6.76402 11.767 6.46802C11.943 6.37302 11.532 6.31502 11.812 6.21102C12.029 6.18502 11.903 6.43802 11.986 6.47202C12.165 6.64802 12.354 6.55902 12.603 6.54302C12.694 7.45602 11.72 6.55802 11.564 6.98002C11.477 7.08402 10.806 6.80402 10.948 6.64502C10.831 6.34602 10.112 6.66202 9.83205 6.70002C9.43405 7.07702 9.06805 7.75702 9.07205 8.17502C9.89605 9.91302 10.598 7.58602 11.165 9.95802C10.919 10.32 11.176 10.842 11.294 11.203C11.428 11.267 11.362 11.832 11.637 11.68C12.153 11.705 12.48 11.152 12.638 10.764C12.445 10.404 13.116 10.545 13.024 10.057C12.867 9.65302 12.948 9.35802 13.401 9.04902C13.442 8.99802 13.467 8.96302 13.5 8.92002V8.42802C13.414 8.42702 13.315 8.42302 13.207 8.39902C13.024 8.06402 12.519 7.57202 12.545 7.22102C12.91 7.42702 13.032 8.08602 13.292 8.31902C13.375 8.30002 13.433 8.27202 13.5 8.24802V7.14102C13.488 7.10502 13.481 7.07102 13.488 7.04702C13.492 7.05302 13.496 7.05402 13.5 7.06002V6.42602C13.452 6.35202 13.435 6.25602 13.488 6.19602C13.231 6.02402 13.181 5.69702 13.5 5.65302V4.49602C13.5 4.03902 13.34 3.62302 13.081 3.28602V3.29002ZM11.314 3.24902V3.24602C11.373 3.26602 11.262 3.28302 11.314 3.24902ZM12.012 6.25102C11.989 6.25102 11.982 6.20202 12.08 6.21002C12.131 6.23802 12.048 6.26202 12.012 6.25102ZM12.195 5.71402C12.369 5.78002 12.273 5.77302 12.354 5.87702C12.505 5.86802 12.601 5.82302 12.415 5.75202C12.462 5.70002 12.727 5.57902 12.622 5.71202C12.501 5.94902 12.842 5.88302 12.907 6.10802C12.639 6.18902 11.6 6.29502 12.195 5.71402ZM9.90705 4.93002C9.88105 5.04802 10.026 5.00202 10.02 5.10502C9.96305 5.18602 9.83105 5.29402 10.015 5.34802C9.64705 5.53502 10.414 5.39902 10.319 5.25002C10.089 4.98302 9.92905 4.31702 9.84805 4.83102C9.86205 4.83502 9.84005 4.99802 9.90705 4.93002ZM13.5 5.88802V5.82402C13.492 5.83302 13.481 5.84202 13.478 5.85102C13.483 5.86202 13.493 5.87602 13.5 5.88802ZM9.76805 4.95002C9.64705 4.96602 9.49205 5.29402 9.67905 5.30202C9.82805 5.29802 9.98405 4.96602 9.76805 4.95002ZM10.798 6.06702C10.742 6.09002 10.743 6.12902 10.779 6.17702C10.819 6.22902 10.844 6.02602 10.798 6.06702ZM10.752 6.34902C10.767 6.45202 10.869 6.36302 10.843 6.30502C10.855 6.15202 10.708 6.17302 10.752 6.34902ZM4.93405 7.95302C4.93405 7.95302 4.93605 7.95302 4.93705 7.95202C4.93505 7.95102 4.93605 7.95202 4.93405 7.95102V7.95302ZM4.93705 7.95202C5.14205 8.08202 5.01605 7.84902 4.93705 7.95202ZM5.01705 7.69702C4.82405 7.50802 4.19205 7.63802 4.81605 7.68302C4.98105 7.70302 4.95105 7.84102 5.08005 7.83602C5.10205 7.85002 5.39905 7.83202 5.01705 7.69702ZM5.40905 7.98302C5.73305 7.91302 5.53505 7.83702 5.32705 7.81702C5.27405 7.96802 5.09305 7.94702 5.40905 7.98302ZM9.01205 3.25102L8.80805 3.20402C8.85405 3.17802 8.88405 3.12902 8.88605 3.07602C9.06205 3.40202 9.12005 3.01102 8.94305 2.86702C9.05705 3.00402 9.11205 2.86402 9.00905 2.76902C9.10205 2.81502 9.24505 2.70402 9.09805 2.66002L9.24905 2.62302C9.23805 2.59302 9.22905 2.54902 9.22205 2.50202H7.36305C7.36305 2.61502 7.35205 2.71902 7.33905 2.79102C7.20105 3.00202 7.41305 2.86602 7.43805 2.91302C7.36305 2.99402 7.53605 3.10602 7.43805 3.02802C7.07105 2.90802 7.46805 3.49802 7.37405 3.11102C7.67805 3.19602 7.30405 3.28602 7.32005 3.37802C7.26105 3.35502 7.16205 3.52902 7.24405 3.56302C7.25205 5.19402 7.96505 3.57902 9.01305 3.25002L9.01205 3.25102ZM5.80105 7.95202C5.78205 7.93102 5.70405 7.92602 5.68905 7.95802C5.66805 8.00502 5.83005 7.98202 5.80105 7.95202ZM9.42505 3.91002C9.46305 3.65602 9.11405 3.72802 9.02405 3.83202C8.79005 3.37302 8.82405 4.48402 9.42505 3.91002Z" fill="#006CBF"/>
<path d="M2 4.5C2 3.119 3.119 2 4.5 2H11.5C12.881 2 14 3.119 14 4.5V11.5C14 12.881 12.881 14 11.5 14H4.5C3.119 14 2 12.881 2 11.5V4.5ZM4.5 3C3.672 3 3 3.672 3 4.5V11.5C3 12.328 3.672 13 4.5 13H11.5C12.328 13 13 12.328 13 11.5V4.5C13 3.672 12.328 3 11.5 3H4.5Z" fill="#202020"/>
</svg>
