<svg width="16" height="16" viewBox="0 0 16 16" fill="none" xmlns="http://www.w3.org/2000/svg">
<path d="M4.5 2H3.5C2.673 2 2 2.673 2 3.5V4.5C2 4.776 2.224 5 2.5 5C2.776 5 3 4.776 3 4.5V3.5C3 3.224 3.225 3 3.5 3H4.5C4.776 3 5 2.776 5 2.5C5 2.224 4.776 2 4.5 2Z" fill="#202020"/>
<path d="M7.5 3H6.5C6.224 3 6 2.776 6 2.5C6 2.224 6.224 2 6.5 2H7.5C7.776 2 8 2.224 8 2.5C8 2.776 7.776 3 7.5 3Z" fill="#202020"/>
<path d="M9.5 3H10.5C10.776 3 11 2.776 11 2.5C11 2.224 10.776 2 10.5 2H9.5C9.224 2 9 2.224 9 2.5C9 2.776 9.224 3 9.5 3Z" fill="#202020"/>
<path d="M12.5 3H13.5C13.776 3 14 2.776 14 2.5C14 2.224 13.776 2 13.5 2H12.5C12.224 2 12 2.224 12 2.5C12 2.776 12.224 3 12.5 3Z" fill="#202020"/>
<path d="M2 6.5C2 6.224 2.224 6 2.5 6C2.776 6 3 6.224 3 6.5V7.5C3 7.776 2.776 8 2.5 8C2.224 8 2 7.776 2 7.5V6.5Z" fill="#202020"/>
<path d="M2.5 9C2.224 9 2 9.224 2 9.5V10.5C2 10.776 2.224 11 2.5 11C2.776 11 3 10.776 3 10.5V9.5C3 9.224 2.776 9 2.5 9Z" fill="#202020"/>
<path d="M2 12.5C2 12.224 2.224 12 2.5 12C2.776 12 3 12.224 3 12.5V13.5C3 13.776 2.776 14 2.5 14C2.224 14 2 13.776 2 13.5V12.5Z" fill="#202020"/>
<path d="M13.5 8H12.5C12.224 8 12 8.224 12 8.5C12 8.776 12.224 9 12.5 9H13.5C13.776 9 14 8.776 14 8.5C14 8.224 13.776 8 13.5 8Z" fill="#202020"/>
<path d="M9 8H10.5C10.776 8 11 8.224 11 8.5C11 8.776 10.776 9 10.5 9H9V10.5C9 10.776 8.776 11 8.5 11C8.224 11 8 10.776 8 10.5V9C8 8.449 8.448 8 9 8Z" fill="#202020"/>
<path d="M8.5 12C8.224 12 8 12.224 8 12.5V13.5C8 13.776 8.224 14 8.5 14C8.776 14 9 13.776 9 13.5V12.5C9 12.224 8.776 12 8.5 12Z" fill="#202020"/>
<path d="M6.25 5H13.5C13.776 5 14 5.224 14 5.5C14 5.776 13.776 6 13.5 6H6.25C6.112 6 6 6.112 6 6.25V13.5C6 13.776 5.776 14 5.5 14C5.224 14 5 13.776 5 13.5V6.25C5 5.561 5.561 5 6.25 5Z" fill="#202020"/>
</svg>
