<svg width="16" height="16" viewBox="0 0 16 16" fill="none" xmlns="http://www.w3.org/2000/svg">
<path d="M10.146 9.14625L12.146 7.14625C12.341 6.95125 12.658 6.95125 12.853 7.14625C13.048 7.34125 13.048 7.65825 12.853 7.85325L11.707 8.99925H14.5C14.776 8.99925 15 9.22325 15 9.49925C15 9.77525 14.776 9.99925 14.5 9.99925H11.707L12.853 11.1453C13.048 11.3403 13.048 11.6572 12.853 11.8523C12.755 11.9503 12.627 11.9983 12.499 11.9983C12.371 11.9983 12.243 11.9493 12.145 11.8523L10.145 9.85225C9.95 9.65725 9.95 9.34025 10.145 9.14525L10.146 9.14625ZM5.853 6.14625L3.853 4.14625C3.658 3.95125 3.341 3.95125 3.146 4.14625C2.951 4.34125 2.951 4.65825 3.146 4.85325L4.292 5.99925H1.5C1.224 5.99925 1 6.22325 1 6.49925C1 6.77525 1.224 6.99925 1.5 6.99925H4.293L3.147 8.14525C2.952 8.34025 2.952 8.65725 3.147 8.85225C3.245 8.95025 3.373 8.99825 3.501 8.99825C3.629 8.99825 3.757 8.94925 3.855 8.85225L5.855 6.85225C6.05 6.65725 6.05 6.34025 5.855 6.14525L5.853 6.14625Z" fill="#006CBF"/>
<path d="M8 2.5V10.5C8 11.327 7.327 12 6.5 12H2.5C1.673 12 1 11.327 1 10.5V8H2V10.5C2 10.776 2.225 11 2.5 11H6.5C6.775 11 7 10.776 7 10.5V2.5C7 2.224 6.775 2 6.5 2H2.5C2.225 2 2 2.224 2 2.5V5H1V2.5C1 1.673 1.673 1 2.5 1H6.5C7.327 1 8 1.673 8 2.5ZM15 5.5V8H14V5.5C14 5.224 13.775 5 13.5 5H9.5C9.225 5 9 5.224 9 5.5V4.092C9.157 4.036 9.324 4 9.5 4H13.5C14.327 4 15 4.673 15 5.5ZM14 11H15V13.5C15 14.327 14.327 15 13.5 15H9.5C8.673 15 8 14.327 8 13.5V12.487C8.477 12.126 8.826 11.606 8.949 11H9V13.5C9 13.776 9.225 14 9.5 14H13.5C13.775 14 14 13.776 14 13.5V11Z" fill="#202020"/>
</svg>
