<svg width="16" height="16" viewBox="0 0 16 16" fill="none" xmlns="http://www.w3.org/2000/svg">
<path d="M3.99998 1.00002C2.89498 1.00002 1.99998 1.89502 1.99998 3.00002V4.50502C1.99998 5.03502 1.99198 5.29902 1.91098 5.50202C1.84798 5.65802 1.71598 5.83302 1.27698 6.05302C1.10798 6.13802 1.00098 6.31102 1.00098 6.50002C1.00098 6.68902 1.10798 6.86302 1.27698 6.94702C1.71598 7.16702 1.84898 7.34102 1.91098 7.49802C1.99298 7.70202 1.99998 7.96702 1.99998 8.50002V10C1.99998 11.105 2.89498 12 3.99998 12C4.27598 12 4.49998 11.776 4.49998 11.5C4.49998 11.224 4.27598 11 3.99998 11C3.44798 11 2.99998 10.552 2.99998 10V8.44102C2.99998 7.99202 2.99998 7.53002 2.83898 7.12602C2.74198 6.88302 2.59598 6.67902 2.39998 6.49902C2.59598 6.32002 2.74098 6.11502 2.83798 5.87302C2.99998 5.47002 2.99898 5.00902 2.99898 4.56202V2.99902C2.99898 2.44702 3.44698 1.99902 3.99898 1.99902C4.27498 1.99902 4.49898 1.77502 4.49898 1.49902C4.49898 1.22302 4.27498 0.999023 3.99898 0.999023L3.99998 1.00002ZM11.5 3.50002C11.5 3.77602 11.724 4.00002 12 4.00002C12.552 4.00002 13 4.44802 13 5.00002V6.56302C13 7.01002 13 7.47102 13.161 7.87402C13.258 8.11602 13.404 8.32002 13.599 8.50002C13.403 8.68002 13.258 8.88402 13.16 9.12702C12.999 9.53102 12.999 9.99302 12.999 10.442V12.001C12.999 12.553 12.551 13.001 11.999 13.001C11.723 13.001 11.499 13.225 11.499 13.501C11.499 13.777 11.723 14.001 11.999 14.001C13.104 14.001 13.999 13.106 13.999 12.001V10.501C13.999 9.96802 14.007 9.70302 14.088 9.49902C14.151 9.34202 14.283 9.16802 14.722 8.94802C14.891 8.86302 14.998 8.69002 14.998 8.50102C14.998 8.31202 14.891 8.13802 14.722 8.05402C14.283 7.83402 14.15 7.66002 14.088 7.50302C14.007 7.30002 13.999 7.03602 13.999 6.50602V5.00102C13.999 3.89602 13.104 3.00102 11.999 3.00102C11.723 3.00102 11.499 3.22502 11.499 3.50102L11.5 3.50002Z" fill="#202020"/>
<path d="M10.854 7.14625L8.854 5.14625C8.659 4.95125 8.342 4.95125 8.147 5.14625C7.952 5.34125 7.952 5.65825 8.147 5.85325L9.293 6.99925H5.5C5.224 6.99925 5 7.22325 5 7.49925C5 7.77525 5.224 7.99925 5.5 7.99925H9.293L8.147 9.14525C7.952 9.34025 7.952 9.65725 8.147 9.85225C8.245 9.95025 8.373 9.99825 8.501 9.99825C8.629 9.99825 8.757 9.94925 8.855 9.85225L10.855 7.85225C11.05 7.65725 11.05 7.34025 10.855 7.14525L10.854 7.14625Z" fill="#006CBF"/>
</svg>
