<svg width="16" height="16" viewBox="0 0 16 16" fill="none" xmlns="http://www.w3.org/2000/svg">
<g clip-path="url(#clip0_7202_74827)">
<path d="M2 11.751C2 12.083 2.132 12.401 2.366 12.635C2.601 12.869 2.918 13.001 3.25 13.001H5.293L4.647 13.647C4.452 13.842 4.452 14.159 4.647 14.354C4.842 14.549 5.159 14.549 5.354 14.354L6.854 12.854C7.049 12.659 7.049 12.342 6.854 12.147L5.354 10.647C5.159 10.452 4.842 10.452 4.647 10.647C4.452 10.842 4.452 11.159 4.647 11.354L5.293 12H3.25C3.183 12 3.12 11.974 3.073 11.927C3.026 11.88 3 11.816 3 11.75V10.5C3 10.224 2.776 10 2.5 10C2.224 10 2 10.224 2 10.5V11.751Z" fill="#006CBF"/>
<path d="M3.85401 2.85425L2.20801 4.50025L3.85401 6.14625C4.04901 6.34125 4.04901 6.65825 3.85401 6.85325C3.75601 6.95125 3.62801 6.99925 3.50001 6.99925C3.37201 6.99925 3.24401 6.95025 3.14601 6.85325L1.14601 4.85325C0.951006 4.65825 0.951006 4.34125 1.14601 4.14625L3.14601 2.14625C3.34101 1.95125 3.65801 1.95125 3.85301 2.14625C4.04801 2.34125 4.04801 2.65825 3.85301 2.85325L3.85401 2.85425ZM8.85401 4.14725L6.85401 2.14725C6.65901 1.95225 6.34201 1.95225 6.14701 2.14725C5.95201 2.34225 5.95201 2.65925 6.14701 2.85425L7.79301 4.50025L6.14701 6.14625C5.95201 6.34125 5.95201 6.65825 6.14701 6.85325C6.24501 6.95125 6.37301 6.99925 6.50101 6.99925C6.62901 6.99925 6.75701 6.95025 6.85501 6.85325L8.85501 4.85325C9.05 4.65825 9.05 4.34125 8.85501 4.14625L8.85401 4.14725ZM10.854 10.1473C10.659 9.95225 10.342 9.95225 10.147 10.1473L8.14701 12.1473C7.95201 12.3422 7.95201 12.6593 8.14701 12.8542L10.147 14.8542C10.245 14.9522 10.373 15.0002 10.501 15.0002C10.629 15.0002 10.757 14.9513 10.855 14.8542C11.05 14.6593 11.05 14.3422 10.855 14.1473L9.20901 12.5013L10.855 10.8552C11.05 10.6602 11.05 10.3432 10.855 10.1482L10.854 10.1473ZM15.854 12.1473L13.854 10.1473C13.659 9.95225 13.342 9.95225 13.147 10.1473C12.952 10.3422 12.952 10.6593 13.147 10.8542L14.793 12.5002L13.147 14.1462C12.952 14.3412 12.952 14.6582 13.147 14.8532C13.245 14.9512 13.373 14.9992 13.501 14.9992C13.629 14.9992 13.757 14.9502 13.855 14.8532L15.855 12.8532C16.05 12.6582 16.05 12.3412 15.855 12.1462L15.854 12.1473Z" fill="#202020"/>
</g>
<defs>
<clipPath id="clip0_7202_74827">
<rect width="16" height="16" fill="white"/>
</clipPath>
</defs>
</svg>
