<svg width="16" height="16" viewBox="0 0 16 16" fill="none" xmlns="http://www.w3.org/2000/svg">
<path d="M8 14C11.3137 14 14 11.3137 14 8C14 4.68629 11.3137 2 8 2C4.68629 2 2 4.68629 2 8C2 11.3137 4.68629 14 8 14Z" fill="#202020"/>
<path d="M8.003 3C10.748 3 13 5.225 13 8.003C13 10.748 10.775 13 7.997 13C5.252 13 3 10.775 3 7.997C3 5.252 5.225 3 8.003 3Z" fill="#444444"/>
<path d="M8.004 4C9.548 4 12 5.208 12 8.004C12 9.548 10.792 12 7.996 12C6.452 12 4 10.792 4 7.996C4 6.452 5.208 4 8.004 4Z" fill="#6A6A6A"/>
<path d="M8.004 5C9.503 5 11 6.202 11 8.004C11 9.503 9.798 11 7.996 11C6.497 11 5 9.798 5 7.996C5 6.497 6.202 5 8.004 5Z" fill="#8F8F8F"/>
<path d="M8 6C9.103 6 10 6.897 10 8C10 9.103 9.103 10 8 10C6.897 10 6 9.103 6 8C6 6.897 6.897 6 8 6Z" fill="#B4B4B4"/>
<path d="M7.99924 6.698C8.54924 6.698 9.30124 7.129 9.30124 7.999C9.30124 8.549 8.87024 9.301 8.00024 9.301C7.45024 9.301 6.69824 8.87 6.69824 8C6.69824 7.45 7.12924 6.698 7.99924 6.698Z" fill="#DADADA"/>
<path d="M8 8.5C8.27614 8.5 8.5 8.27614 8.5 8C8.5 7.72386 8.27614 7.5 8 7.5C7.72386 7.5 7.5 7.72386 7.5 8C7.5 8.27614 7.72386 8.5 8 8.5Z" fill="white"/>
</svg>
