<svg width="16" height="16" viewBox="0 0 16 16" fill="none" xmlns="http://www.w3.org/2000/svg">
<path fill-rule="evenodd" clip-rule="evenodd" d="M9.077 1.379L14.039 3.287C14.618 3.51 15 4.066 15 4.687V9.08579C14.8415 9.02975 14.6735 9.001 14.501 9.001C14.3289 9.001 14.1596 9.03115 14 9.08801V4.973L8.5 7.33V9H7.501C7.50067 9 7.50133 9 7.501 9L7.5 7.329L2 4.972V9.08328C1.84268 9.02824 1.67446 8.999 1.501 8.999C1.387 8.999 1.274 9.012 1.156 9.039C1.1027 9.05154 1.05065 9.06679 1 9.08459V4.687C1 4.066 1.383 3.51 1.962 3.287L6.923 1.379C7.616 1.112 8.384 1.112 9.077 1.379ZM7.282 2.311L2.564 4.126L8 6.456L13.436 4.126L8.718 2.311C8.256 2.133 7.744 2.133 7.282 2.311Z" fill="#202020"/>
<path d="M5.99999 10.5V14.5C5.99999 14.776 5.77599 15 5.49999 15C5.22399 15 4.99999 14.776 4.99999 14.5V12.618L3.94699 14.723C3.77699 15.062 3.22199 15.062 3.05199 14.723L1.99899 12.618V14.5C1.99899 14.776 1.77499 15 1.49899 15C1.22299 15 0.998993 14.776 0.998993 14.5V10.5C0.998993 10.268 1.15799 10.066 1.38399 10.013C1.61299 9.961 1.84299 10.069 1.94599 10.276L3.49899 13.381L5.05199 10.276C5.15599 10.068 5.38299 9.961 5.61399 10.013C5.83999 10.066 5.99999 10.268 5.99999 10.5ZM10.25 11.5V13.5C10.25 14.327 9.57699 15 8.74999 15H7.49999C7.22399 15 6.99999 14.776 6.99999 14.5V10.5C6.99999 10.224 7.22399 10 7.49999 10H8.74999C9.57699 10 10.25 10.673 10.25 11.5ZM9.24999 11.5C9.24999 11.224 9.02499 11 8.74999 11H7.99999V14H8.74999C9.02499 14 9.24999 13.776 9.24999 13.5V11.5ZM13.625 12.5L14.9 10.8C15.065 10.579 15.02 10.266 14.799 10.1C14.58 9.935 14.267 9.978 14.099 10.2L12.999 11.666L11.899 10.2C11.732 9.978 11.419 9.934 11.199 10.1C10.978 10.266 10.933 10.579 11.098 10.8L12.373 12.5L11.098 14.2C10.933 14.421 10.978 14.734 11.199 14.9C11.289 14.967 11.394 15 11.499 15C11.65 15 11.801 14.931 11.899 14.8L12.999 13.334L14.099 14.8C14.198 14.931 14.348 15 14.499 15C14.603 15 14.709 14.967 14.799 14.9C15.02 14.734 15.065 14.421 14.9 14.2L13.625 12.5Z" fill="#202020"/>
</svg>
