<svg width="16" height="16" viewBox="0 0 16 16" fill="none" xmlns="http://www.w3.org/2000/svg">
<path d="M6.5 14C5.673 14 5 13.327 5 12.5C5 12.224 5.224 12 5.5 12C5.776 12 6 12.224 6 12.5C6 12.776 6.225 13 6.5 13C6.775 13 7 13.224 7 13.5C7 13.776 6.776 14 6.5 14ZM11 13.5C11 13.224 10.776 13 10.5 13H8.5C8.224 13 8 13.224 8 13.5C8 13.776 8.224 14 8.5 14H10.5C10.776 14 11 13.776 11 13.5ZM14 12.5C14 12.224 13.776 12 13.5 12C13.224 12 13 12.224 13 12.5C13 12.776 12.775 13 12.5 13C12.225 13 12 13.224 12 13.5C12 13.776 12.224 14 12.5 14C13.327 14 14 13.327 14 12.5ZM14 10.5V8.5C14 8.224 13.776 8 13.5 8C13.224 8 13 8.224 13 8.5V10.5C13 10.776 13.224 11 13.5 11C13.776 11 14 10.776 14 10.5ZM14 6.5C14 5.673 13.327 5 12.5 5C12.224 5 12 5.224 12 5.5C12 5.776 12.224 6 12.5 6C12.776 6 13 6.224 13 6.5C13 6.776 13.224 7 13.5 7C13.776 7 14 6.776 14 6.5ZM11 5.5C11 5.224 10.776 5 10.5 5H8.5C8.224 5 8 5.224 8 5.5C8 5.776 8.224 6 8.5 6H10.5C10.776 6 11 5.776 11 5.5ZM6 6.5C6 6.224 6.225 6 6.5 6C6.775 6 7 5.776 7 5.5C7 5.224 6.776 5 6.5 5C5.673 5 5 5.673 5 6.5C5 6.776 5.224 7 5.5 7C5.776 7 6 6.776 6 6.5ZM6 10.5V8.5C6 8.224 5.776 8 5.5 8C5.224 8 5 8.224 5 8.5V10.5C5 10.776 5.224 11 5.5 11C5.776 11 6 10.776 6 10.5Z" fill="#202020"/>
<path d="M13 1.5C13 1.224 13.224 1 13.5 1C13.776 1 14 1.224 14 1.5V3.5C14 3.776 13.776 4 13.5 4C13.224 4 13 3.776 13 3.5V3H6V3.5C6 3.776 5.776 4 5.5 4C5.224 4 5 3.776 5 3.5V1.5C5 1.224 5.224 1 5.5 1C5.776 1 6 1.224 6 1.5V2H13V1.5Z" fill="#006CBF"/>
<path d="M4 5.5C4 5.776 3.776 6 3.5 6H3V13H3.5C3.776 13 4 13.224 4 13.5C4 13.776 3.776 14 3.5 14H1.5C1.224 14 1 13.776 1 13.5C1 13.224 1.224 13 1.5 13H2V6H1.5C1.224 6 1 5.776 1 5.5C1 5.224 1.224 5 1.5 5H3.5C3.776 5 4 5.224 4 5.5Z" fill="#006CBF"/>
</svg>
