<svg width="16" height="16" viewBox="0 0 16 16" fill="none" xmlns="http://www.w3.org/2000/svg">
<path d="M10.5 10.5C9.571 10.5 8.795 11.14 8.571 12H6.5C6.224 12 6 11.776 6 11.5V8H8.571C8.795 8.86 9.571 9.5 10.5 9.5C11.603 9.5 12.5 8.603 12.5 7.5C12.5 6.397 11.603 5.5 10.5 5.5C9.571 5.5 8.795 6.14 8.571 7H6V5.949C7.14 5.717 8 4.707 8 3.5C8 2.122 6.878 1 5.5 1C4.122 1 3 2.122 3 3.5C3 4.707 3.86 5.717 5 5.949V11.5C5 12.327 5.673 13 6.5 13H8.571C8.795 13.86 9.571 14.5 10.5 14.5C11.603 14.5 12.5 13.603 12.5 12.5C12.5 11.397 11.603 10.5 10.5 10.5ZM10.5 6.5C11.051 6.5 11.5 6.949 11.5 7.5C11.5 8.051 11.051 8.5 10.5 8.5C9.949 8.5 9.5 8.051 9.5 7.5C9.5 6.949 9.949 6.5 10.5 6.5ZM4 3.5C4 2.673 4.673 2 5.5 2C6.327 2 7 2.673 7 3.5C7 4.327 6.327 5 5.5 5C4.673 5 4 4.327 4 3.5ZM10.5 13.5C9.949 13.5 9.5 13.051 9.5 12.5C9.5 11.949 9.949 11.5 10.5 11.5C11.051 11.5 11.5 11.949 11.5 12.5C11.5 13.051 11.051 13.5 10.5 13.5Z" fill="#202020"/>
</svg>
