<svg width="16" height="16" viewBox="0 0 16 16" fill="none" xmlns="http://www.w3.org/2000/svg">
<g clip-path="url(#clip0_7202_74865)">
<path fill-rule="evenodd" clip-rule="evenodd" d="M12.25 15H13.75C14.439 15 15 14.439 15 13.75L15 2.25C15 1.561 14.439 1 13.75 1H12.25C11.561 1 11 1.561 11 2.25L11 13.75C11 14.439 11.561 15 12.25 15ZM12 2.25C12 2.112 12.112 2 12.25 2L13.75 2C13.888 2 14 2.112 14 2.25L14 13.75C14 13.888 13.888 14 13.75 14H12.25C12.112 14 12 13.888 12 13.75L12 2.25Z" fill="#202020"/>
<path d="M6 7.00098L6 6.25C6 5.561 6.561 5 7.25 5H8.75C9.439 5 10 5.561 10 6.25V13.75C10 14.439 9.439 15 8.75 15H8V14H8.75C8.888 14 9 13.888 9 13.75V6.25C9 6.112 8.888 6 8.75 6H7.25C7.112 6 7 6.112 7 6.25V7.26892C6.69855 7.09489 6.35412 7.00098 6 7.00098Z" fill="#202020"/>
<path d="M3.79973 7.00098C3.78323 7.00033 3.76665 7 3.75 7H2.25C2.23335 7 2.21677 7.00033 2.20027 7.00098H3.79973Z" fill="#202020"/>
<path d="M6 8.00098H1C0.734784 8.00098 0.48043 8.10633 0.292893 8.29387C0.105357 8.48141 0 8.73576 0 9.00098V15.001C0 15.2662 0.105357 15.5205 0.292893 15.7081C0.48043 15.8956 0.734784 16.001 1 16.001H6C6.26522 16.001 6.51957 15.8956 6.70711 15.7081C6.89464 15.5205 7 15.2662 7 15.001V9.00098C7 8.73576 6.89464 8.48141 6.70711 8.29387C6.51957 8.10633 6.26522 8.00098 6 8.00098ZM1.5 15.001C1.40111 15.001 1.30444 14.9717 1.22221 14.9167C1.13999 14.8618 1.0759 14.7837 1.03806 14.6923C1.00022 14.601 0.990315 14.5004 1.00961 14.4034C1.0289 14.3064 1.07652 14.2173 1.14645 14.1474C1.21637 14.0775 1.30546 14.0299 1.40245 14.0106C1.49945 13.9913 1.59998 14.0012 1.69134 14.039C1.7827 14.0769 1.86079 14.141 1.91573 14.2232C1.97068 14.3054 2 14.4021 2 14.501C2 14.6336 1.94732 14.7608 1.85355 14.8545C1.75979 14.9483 1.63261 15.001 1.5 15.001ZM1.5 13.001C1.40111 13.001 1.30444 12.9717 1.22221 12.9167C1.13999 12.8618 1.0759 12.7837 1.03806 12.6923C1.00022 12.601 0.990315 12.5004 1.00961 12.4034C1.0289 12.3064 1.07652 12.2173 1.14645 12.1474C1.21637 12.0775 1.30546 12.0299 1.40245 12.0106C1.49945 11.9913 1.59998 12.0012 1.69134 12.039C1.7827 12.0769 1.86079 12.141 1.91573 12.2232C1.97068 12.3054 2 12.4021 2 12.501C2 12.6336 1.94732 12.7608 1.85355 12.8545C1.75979 12.9483 1.63261 13.001 1.5 13.001ZM3.5 15.001C3.40111 15.001 3.30444 14.9717 3.22221 14.9167C3.13999 14.8618 3.0759 14.7837 3.03806 14.6923C3.00022 14.601 2.99031 14.5004 3.00961 14.4034C3.0289 14.3064 3.07652 14.2173 3.14645 14.1474C3.21637 14.0775 3.30546 14.0299 3.40245 14.0106C3.49945 13.9913 3.59998 14.0012 3.69134 14.039C3.7827 14.0769 3.86079 14.141 3.91573 14.2232C3.97068 14.3054 4 14.4021 4 14.501C4 14.6336 3.94732 14.7608 3.85355 14.8545C3.75979 14.9483 3.63261 15.001 3.5 15.001ZM3.5 13.001C3.40111 13.001 3.30444 12.9717 3.22221 12.9167C3.13999 12.8618 3.0759 12.7837 3.03806 12.6923C3.00022 12.601 2.99031 12.5004 3.00961 12.4034C3.0289 12.3064 3.07652 12.2173 3.14645 12.1474C3.21637 12.0775 3.30546 12.0299 3.40245 12.0106C3.49945 11.9913 3.59998 12.0012 3.69134 12.039C3.7827 12.0769 3.86079 12.141 3.91573 12.2232C3.97068 12.3054 4 12.4021 4 12.501C4 12.6336 3.94732 12.7608 3.85355 12.8545C3.75979 12.9483 3.63261 13.001 3.5 13.001ZM5.5 15.001C5.40111 15.001 5.30444 14.9717 5.22221 14.9167C5.13999 14.8618 5.0759 14.7837 5.03806 14.6923C5.00022 14.601 4.99031 14.5004 5.00961 14.4034C5.0289 14.3064 5.07652 14.2173 5.14645 14.1474C5.21637 14.0775 5.30546 14.0299 5.40245 14.0106C5.49945 13.9913 5.59998 14.0012 5.69134 14.039C5.7827 14.0769 5.86079 14.141 5.91573 14.2232C5.97068 14.3054 6 14.4021 6 14.501C6 14.6336 5.94732 14.7608 5.85355 14.8545C5.75979 14.9483 5.63261 15.001 5.5 15.001ZM5.5 13.001C5.40111 13.001 5.30444 12.9717 5.22221 12.9167C5.13999 12.8618 5.0759 12.7837 5.03806 12.6923C5.00022 12.601 4.99031 12.5004 5.00961 12.4034C5.0289 12.3064 5.07652 12.2173 5.14645 12.1474C5.21637 12.0775 5.30546 12.0299 5.40245 12.0106C5.49945 11.9913 5.59998 12.0012 5.69134 12.039C5.7827 12.0769 5.86079 12.141 5.91573 12.2232C5.97068 12.3054 6 12.4021 6 12.501C6 12.6336 5.94732 12.7608 5.85355 12.8545C5.75979 12.9483 5.63261 13.001 5.5 13.001ZM6 10.501C6 10.6336 5.94732 10.7608 5.85355 10.8545C5.75979 10.9483 5.63261 11.001 5.5 11.001H1.5C1.36739 11.001 1.24021 10.9483 1.14645 10.8545C1.05268 10.7608 1 10.6336 1 10.501V9.50098C1 9.36837 1.05268 9.24119 1.14645 9.14742C1.24021 9.05365 1.36739 9.00098 1.5 9.00098H5.5C5.63261 9.00098 5.75979 9.05365 5.85355 9.14742C5.94732 9.24119 6 9.36837 6 9.50098V10.501Z" fill="#202020"/>
</g>
<defs>
<clipPath id="clip0_7202_74865">
<rect width="16" height="16" fill="white"/>
</clipPath>
</defs>
</svg>
