<svg width="16" height="16" viewBox="0 0 16 16" fill="none" xmlns="http://www.w3.org/2000/svg">
<g clip-path="url(#clip0_7202_74921)">
<path d="M3 4H11C12.105 4 13 4.895 13 6V6.20703C12.6777 6.11588 12.3434 6.05337 12 6.02242V6C12 5.448 11.552 5 11 5H3C2.448 5 2 5.448 2 6V6.74L6.51585 9.17134C6.374 9.47442 6.25899 9.79257 6.17386 10.1227L2 7.875V12C2 12.552 2.448 13 3 13H6.20703C6.30564 13.3486 6.43777 13.6832 6.59971 14H3C1.895 14 1 13.105 1 12V6C1 4.895 1.895 4 3 4Z" fill="#202020"/>
<path d="M15 7.25716V6C15 3.791 13.209 2 11 2H5C4.26 2 3.614 2.402 3.268 3H11C12.657 3 14 4.343 14 6V6.59971C14.3578 6.78261 14.6929 7.00353 15 7.25716Z" fill="#202020"/>
<path fill-rule="evenodd" clip-rule="evenodd" d="M11.5 16C13.9853 16 16 13.9853 16 11.5C16 9.01472 13.9853 7 11.5 7C9.01472 7 7 9.01472 7 11.5C7 13.9853 9.01472 16 11.5 16ZM13.3536 10.3536C13.5488 10.1583 13.5488 9.84171 13.3536 9.64645C13.1583 9.45118 12.8417 9.45118 12.6464 9.64645L11.5 10.7929L10.3536 9.64645C10.1583 9.45118 9.84171 9.45118 9.64645 9.64645C9.45118 9.84171 9.45118 10.1583 9.64645 10.3536L10.7929 11.5L9.64645 12.6464C9.45118 12.8417 9.45118 13.1583 9.64645 13.3536C9.84171 13.5488 10.1583 13.5488 10.3536 13.3536L11.5 12.2071L12.6464 13.3536C12.8417 13.5488 13.1583 13.5488 13.3536 13.3536C13.5488 13.1583 13.5488 12.8417 13.3536 12.6464L12.2071 11.5L13.3536 10.3536Z" fill="#C50F1F"/>
</g>
<defs>
<clipPath id="clip0_7202_74921">
<rect width="16" height="16" fill="white"/>
</clipPath>
</defs>
</svg>
