<svg width="16" height="16" viewBox="0 0 16 16" fill="none" xmlns="http://www.w3.org/2000/svg">
<g clip-path="url(#clip0_7202_74943)">
<path d="M7 11.5805C7.62482 11.8538 8.30488 11.9992 9 12C10.3256 11.9984 11.5964 11.4711 12.5338 10.5338C13.4711 9.59645 13.9984 8.32559 14 7C13.9984 5.67441 13.4711 4.40355 12.5338 3.46622C11.5964 2.52888 10.3256 2.00159 9 2C7.67441 2.00159 6.40355 2.52888 5.46622 3.46622C4.74751 4.18492 4.26987 5.09971 4.08544 6.0849C4.43385 6.14061 4.75922 6.22263 5.05688 6.32773C5.19522 5.51632 5.5818 4.76134 6.17157 4.17157C6.92172 3.42142 7.93913 3 9 3C10.0609 3 11.0783 3.42142 11.8284 4.17157C12.5786 4.92172 13 5.93913 13 7C13 8.06087 12.5786 9.07829 11.8284 9.82843C11.0783 10.5786 10.0609 11 9 11C8.29177 11 7.60291 10.8122 7 10.4641V11.5805Z" fill="#202020"/>
<path fill-rule="evenodd" clip-rule="evenodd" d="M7.43935 6.56065C7.72065 6.84196 8.10218 7 8.5 7C8.89783 7 9.27935 6.84196 9.56065 6.56065C9.84196 6.27935 10 5.89782 10 5.5C10 5.10218 9.84196 4.72065 9.56065 4.43935C9.27935 4.15804 8.89783 4 8.5 4C8.10218 4 7.72065 4.15804 7.43935 4.43935C7.15804 4.72065 7 5.10218 7 5.5C7 5.89782 7.15804 6.27935 7.43935 6.56065ZM8.14645 5.14645C8.24022 5.05269 8.36739 5 8.5 5C8.63261 5 8.75978 5.05269 8.85355 5.14645C8.94731 5.24022 9 5.36739 9 5.5C9 5.63261 8.94731 5.75978 8.85355 5.85355C8.75978 5.94731 8.63261 6 8.5 6C8.36739 6 8.24022 5.94731 8.14645 5.85355C8.05269 5.75978 8 5.63261 8 5.5C8 5.36739 8.05269 5.24022 8.14645 5.14645Z" fill="#202020"/>
<path d="M6 8.5C6 7.728 4.833 7.092 3.333 7.009C3.22367 7.003 3.11267 7 3 7C2.88733 7 2.77633 7.003 2.667 7.009C2.4707 7.01979 2.2751 7.04082 2.081 7.072C1.82712 7.1117 1.57694 7.17223 1.333 7.253C0.529 7.522 0 7.98 0 8.5C0 9.328 1.343 10 3 10C4.657 10 6 9.328 6 8.5ZM6 10.2V14.5C6 15.328 4.657 16 3 16C1.343 16 0 15.328 0 14.5V10.2C0.896699 10.7625 1.94228 11.0413 3 11C4.05772 11.0413 5.1033 10.7625 6 10.2Z" fill="#3487C7"/>
</g>
<defs>
<clipPath id="clip0_7202_74943">
<rect width="16" height="16" fill="white"/>
</clipPath>
</defs>
</svg>
