<svg width="16" height="16" viewBox="0 0 16 16" fill="none" xmlns="http://www.w3.org/2000/svg">
<path fill-rule="evenodd" clip-rule="evenodd" d="M5.43935 7.56065C5.72065 7.84196 6.10218 8 6.5 8C6.89782 8 7.27935 7.84196 7.56065 7.56065C7.84196 7.27935 8 6.89782 8 6.5C8 6.10218 7.84196 5.72065 7.56065 5.43935C7.27935 5.15804 6.89782 5 6.5 5C6.10218 5 5.72065 5.15804 5.43935 5.43935C5.15804 5.72065 5 6.10218 5 6.5C5 6.89782 5.15804 7.27935 5.43935 7.56065ZM6.14645 6.14645C6.24022 6.05269 6.36739 6 6.5 6C6.63261 6 6.75978 6.05269 6.85355 6.14645C6.94731 6.24022 7 6.36739 7 6.5C7 6.63261 6.94731 6.75978 6.85355 6.85355C6.75978 6.94731 6.63261 7 6.5 7C6.36739 7 6.24022 6.94731 6.14645 6.85355C6.05269 6.75978 6 6.63261 6 6.5C6 6.36739 6.05269 6.24022 6.14645 6.14645Z" fill="#202020"/>
<path fill-rule="evenodd" clip-rule="evenodd" d="M3.75911 12.2409C4.88398 13.3658 6.40919 13.9984 8 14C9.59081 13.9984 11.116 13.3658 12.2409 12.2409C13.3658 11.116 13.9984 9.59081 14 8C13.9984 6.40919 13.3658 4.88398 12.2409 3.75911C11.116 2.63424 9.59081 2.00159 8 2C6.40919 2.00159 4.88398 2.63424 3.75911 3.75911C2.63424 4.88398 2.00159 6.40919 2 8C2.00159 9.59081 2.63424 11.116 3.75911 12.2409ZM4.46622 4.46622C5.40355 3.52888 6.67441 3.00159 8 3C9.32559 3.00159 10.5964 3.52888 11.5338 4.46622C12.4711 5.40355 12.9984 6.67441 13 8C12.9984 9.32559 12.4711 10.5964 11.5338 11.5338C10.5964 12.4711 9.32559 12.9984 8 13C6.67441 12.9984 5.40355 12.4711 4.46622 11.5338C3.52888 10.5964 3.00159 9.32559 3 8C3.00159 6.67441 3.52888 5.40355 4.46622 4.46622Z" fill="#202020"/>
</svg>
