<svg width="16" height="16" viewBox="0 0 16 16" fill="none" xmlns="http://www.w3.org/2000/svg">
<g clip-path="url(#clip0_7202_74963)">
<path d="M3.14446 6.81199L2.23118 6.35565C2.07965 6.88581 2.00056 7.43882 2 8C2.00159 9.59081 2.63424 11.116 3.75911 12.2409C4.88398 13.3658 6.40919 13.9984 8 14C9.59081 13.9984 11.116 13.3658 12.2409 12.2409C13.3658 11.116 13.9984 9.59081 14 8C13.9984 6.40919 13.3658 4.88398 12.2409 3.75911C11.116 2.63424 9.59081 2.00159 8 2C7.33206 2.00067 6.67568 2.11259 6.05565 2.32548L5.00006 3.38177V4.00292C5.8603 3.35694 6.9117 3.0013 8 3C9.32559 3.00159 10.5964 3.52888 11.5338 4.46622C12.4711 5.40355 12.9984 6.67441 13 8C12.9984 9.32559 12.4711 10.5964 11.5338 11.5338C10.5964 12.4711 9.32559 12.9984 8 13C6.67441 12.9984 5.40355 12.4711 4.46622 11.5338C3.52888 10.5964 3.00159 9.32559 3 8C3.00048 7.5963 3.04973 7.19767 3.14446 6.81199Z" fill="#202020"/>
<path fill-rule="evenodd" clip-rule="evenodd" d="M6.5 8C6.10218 8 5.72065 7.84196 5.43935 7.56065C5.15804 7.27935 5 6.89782 5 6.5C5 6.10218 5.15804 5.72065 5.43935 5.43935C5.72065 5.15804 6.10218 5 6.5 5C6.89782 5 7.27935 5.15804 7.56065 5.43935C7.84196 5.72065 8 6.10218 8 6.5C8 6.89782 7.84196 7.27935 7.56065 7.56065C7.27935 7.84196 6.89782 8 6.5 8ZM6.5 6C6.36739 6 6.24022 6.05269 6.14645 6.14645C6.05269 6.24022 6 6.36739 6 6.5C6 6.63261 6.05269 6.75978 6.14645 6.85355C6.24022 6.94731 6.36739 7 6.5 7C6.63261 7 6.75978 6.94731 6.85355 6.85355C6.94731 6.75978 7 6.63261 7 6.5C7 6.36739 6.94731 6.24022 6.85355 6.14645C6.75978 6.05269 6.63261 6 6.5 6Z" fill="#202020"/>
<path d="M5.29303 1.6141e-08H0.707029C0.567176 -2.98612e-05 0.430455 0.0414187 0.314162 0.119103C0.197869 0.196787 0.107227 0.307216 0.0537039 0.436422C0.000180263 0.565628 -0.0138209 0.707806 0.0134713 0.84497C0.0407636 0.982135 0.108123 1.10812 0.207029 1.207L2.00003 3V5C2.00001 5.04633 2.01291 5.09174 2.03729 5.13114C2.06167 5.17053 2.09656 5.20235 2.13803 5.223L3.63803 5.973C3.67266 5.99085 3.71107 6.00011 3.75003 6C3.81633 6 3.87992 5.97366 3.92681 5.92678C3.97369 5.87989 4.00003 5.8163 4.00003 5.75V3L5.79303 1.207C5.89194 1.10812 5.95929 0.982135 5.98659 0.84497C6.01388 0.707806 5.99988 0.565628 5.94635 0.436422C5.89283 0.307216 5.80219 0.196787 5.6859 0.119103C5.5696 0.0414187 5.43288 -2.98612e-05 5.29303 1.6141e-08V1.6141e-08Z" fill="#006CBF"/>
</g>
<defs>
<clipPath id="clip0_7202_74963">
<rect width="16" height="16" fill="white"/>
</clipPath>
</defs>
</svg>
