<svg width="16" height="16" viewBox="0 0 16 16" fill="none" xmlns="http://www.w3.org/2000/svg">
<path d="M10 8.5V9H13.5C13.776 9 14 9.224 14 9.5C14 9.776 13.776 10 13.5 10H10V11H15.5V8H9.91422C9.97047 8.1591 10 8.32803 10 8.5Z" fill="#006CBF"/>
<path d="M6.5 7C6.224 7 6 6.776 6 6.5C6 6.224 6.224 6 6.5 6H11.5C11.776 6 12 6.224 12 6.5C12 6.776 11.776 7 11.5 7H6.5Z" fill="#202020"/>
<path fill-rule="evenodd" clip-rule="evenodd" d="M5 7V5H14C14.551 5 15 5.449 15 6V13C15 13.551 14.551 14 14 14H10V15H14C15.103 15 16 14.103 16 13V6C16 4.897 15.103 4 14 4H11V2.5C11 1.673 10.327 1 9.5 1H5.5C4.673 1 4 1.673 4 2.5V7H5ZM5 2.5C5 2.224 5.224 2 5.5 2H9.5C9.776 2 10 2.224 10 2.5V4H5V2.5Z" fill="#202020"/>
<path d="M10 12V13H11.5C11.776 13 12 12.776 12 12.5C12 12.224 11.776 12 11.5 12H10Z" fill="#202020"/>
<path d="M6.67611 12.674L2.93511 15.032C2.8335 15.0877 2.71857 15.1145 2.60281 15.1094C2.48705 15.1044 2.37489 15.0677 2.27851 15.0034C2.18214 14.9391 2.10523 14.8496 2.05615 14.7446C2.00706 14.6397 1.98768 14.5233 2.00011 14.4081V9.69305C1.98748 9.57777 2.00671 9.46123 2.05571 9.35612C2.1047 9.25101 2.18159 9.16135 2.27801 9.0969C2.37442 9.03246 2.48667 8.99569 2.60252 8.9906C2.71838 8.98551 2.83342 9.0123 2.93511 9.06805L6.67611 11.4261C6.77618 11.4965 6.85785 11.5899 6.91422 11.6985C6.9706 11.8071 7.00003 11.9277 7.00003 12.0501C7.00003 12.1724 6.9706 12.293 6.91422 12.4016C6.85785 12.5102 6.77618 12.6036 6.67611 12.674Z" fill="#006CBF"/>
<path d="M0.5 16C0.367392 16 0.240215 15.9473 0.146447 15.8536C0.0526784 15.7598 0 15.6326 0 15.5V8.5C0 8.36739 0.0526784 8.24021 0.146447 8.14645C0.240215 8.05268 0.367392 8 0.5 8C0.632608 8 0.759785 8.05268 0.853553 8.14645C0.947322 8.24021 1 8.36739 1 8.5V15.5C1 15.6326 0.947322 15.7598 0.853553 15.8536C0.759785 15.9473 0.632608 16 0.5 16Z" fill="#202020"/>
<path d="M8.5 16C8.36739 16 8.24021 15.9473 8.14645 15.8536C8.05268 15.7598 8 15.6326 8 15.5V8.5C8 8.36739 8.05268 8.24021 8.14645 8.14645C8.24021 8.05268 8.36739 8 8.5 8C8.63261 8 8.75979 8.05268 8.85355 8.14645C8.94732 8.24021 9 8.36739 9 8.5V15.5C9 15.6326 8.94732 15.7598 8.85355 15.8536C8.75979 15.9473 8.63261 16 8.5 16Z" fill="#202020"/>
</svg>
