<svg width="16" height="16" viewBox="0 0 16 16" fill="none" xmlns="http://www.w3.org/2000/svg">
<g clip-path="url(#clip0_7202_75069)">
<path fill-rule="evenodd" clip-rule="evenodd" d="M9.92504 6.5588C10.3704 6.19739 10.9265 6.0001 11.5 6.00001C11.9737 5.99995 12.4376 6.13445 12.8378 6.38785C13.2379 6.64125 13.5579 7.00311 13.7604 7.43131C13.9629 7.85951 14.0395 8.33642 13.9815 8.8065C13.9234 9.27658 13.733 9.7205 13.4324 10.0866C13.4205 10.101 13.4085 10.1153 13.3963 10.1295L13.1292 10.3965C12.8823 10.6085 12.5953 10.7713 12.2836 10.8741C11.8338 11.0225 11.3511 11.0401 10.8917 10.9248C10.4322 10.8095 10.0151 10.566 9.68866 10.2228C9.36226 9.87953 9.14008 9.45063 9.048 8.98601C7.57187 8.92025 6.1546 8.38808 5 7.46601V10.05C5.60703 10.1739 6.14642 10.5188 6.5136 11.0178C6.6621 11.2196 6.77815 11.4408 6.85959 11.6735C6.82633 11.702 6.7941 11.7319 6.76299 11.763C6.60055 11.9255 6.47169 12.1183 6.38377 12.3306C6.29586 12.5428 6.25061 12.7703 6.25061 13C6.25061 13.2298 6.29586 13.4572 6.38377 13.6695C6.42495 13.7689 6.4751 13.864 6.53348 13.9538C6.42993 14.0986 6.3105 14.2329 6.17658 14.354C5.71701 14.7695 5.11954 14.9995 4.5 14.9995C3.88047 14.9995 3.283 14.7695 2.82343 14.354C2.36386 13.9385 2.07493 13.3672 2.01266 12.7508C1.95039 12.1344 2.11922 11.5168 2.48641 11.0178C2.85359 10.5188 3.39298 10.1739 4 10.05V5.95001C3.39637 5.82741 2.85924 5.48627 2.49163 4.99203C2.12403 4.49779 1.95182 3.88523 2.00805 3.27184C2.06427 2.65845 2.34496 2.08741 2.79629 1.66823C3.24762 1.24905 3.83781 1.01124 4.45368 1.00042C5.06954 0.989592 5.66773 1.20651 6.13351 1.60957C6.59929 2.01263 6.89987 2.57346 6.97762 3.18449C7.05536 3.79553 6.90479 4.41376 6.55478 4.92061C6.20477 5.42747 5.67996 5.78727 5.081 5.93101C5.466 6.96301 7.172 7.86001 9.054 7.98501C9.17215 7.42377 9.47969 6.92021 9.92504 6.5588ZM3.2528 2.66665C3.08798 2.91333 3 3.20334 3 3.50001C3 3.89783 3.15804 4.27936 3.43934 4.56067C3.72065 4.84197 4.10218 5.00001 4.5 5.00001C4.79668 5.00001 5.08669 4.91203 5.33336 4.74721C5.58003 4.58239 5.77229 4.34812 5.88582 4.07403C5.99935 3.79994 6.02906 3.49834 5.97118 3.20737C5.9133 2.9164 5.77044 2.64913 5.56066 2.43935C5.35089 2.22957 5.08361 2.08671 4.79264 2.02883C4.50167 1.97095 4.20007 2.00066 3.92598 2.11419C3.65189 2.22772 3.41762 2.41998 3.2528 2.66665ZM5.74721 13.3334C5.91203 13.0867 6 12.7967 6 12.5C6 12.1022 5.84197 11.7207 5.56066 11.4393C5.27936 11.158 4.89783 11 4.5 11C4.20333 11 3.91332 11.088 3.66665 11.2528C3.41997 11.4176 3.22772 11.6519 3.11418 11.926C3.00065 12.2001 2.97095 12.5017 3.02883 12.7926C3.0867 13.0836 3.22957 13.3509 3.43934 13.5607C3.64912 13.7704 3.9164 13.9133 4.20737 13.9712C4.49834 14.0291 4.79994 13.9994 5.07403 13.8858C5.34812 13.7723 5.58239 13.58 5.74721 13.3334ZM10.6666 9.74721C10.9133 9.91204 11.2033 10 11.5 10C11.8978 10 12.2794 9.84197 12.5607 9.56067C12.842 9.27936 13 8.89783 13 8.50001C13 8.20334 12.912 7.91333 12.7472 7.66665C12.5824 7.41998 12.3481 7.22772 12.074 7.11419C11.7999 7.00066 11.4983 6.97095 11.2074 7.02883C10.9164 7.08671 10.6491 7.22957 10.4393 7.43935C10.2296 7.64913 10.0867 7.9164 10.0288 8.20737C9.97095 8.49834 10.0007 8.79994 10.1142 9.07403C10.2277 9.34812 10.42 9.58239 10.6666 9.74721Z" fill="#202020"/>
<path d="M10.5 16C10.4343 16.0001 10.3692 15.9873 10.3085 15.9623C10.2477 15.9372 10.1925 15.9004 10.146 15.854L7.64602 13.354C7.55213 13.2601 7.49939 13.1328 7.49939 13C7.49939 12.8672 7.55213 12.7399 7.64602 12.646C7.73991 12.5521 7.86725 12.4994 8.00002 12.4994C8.1328 12.4994 8.26013 12.5521 8.35402 12.646L10.5 14.793L15.146 10.146C15.2399 10.0521 15.3672 9.99939 15.5 9.99939C15.6328 9.99939 15.7601 10.0521 15.854 10.146C15.9479 10.2399 16.0007 10.3672 16.0007 10.5C16.0007 10.6328 15.9479 10.7601 15.854 10.854L10.854 15.854C10.8075 15.9004 10.7523 15.9372 10.6916 15.9623C10.6308 15.9873 10.5657 16.0001 10.5 16Z" fill="#11910D"/>
</g>
<defs>
<clipPath id="clip0_7202_75069">
<rect width="16" height="16" fill="white"/>
</clipPath>
</defs>
</svg>
