<svg width="16" height="16" viewBox="0 0 16 16" fill="none" xmlns="http://www.w3.org/2000/svg">
<g clip-path="url(#clip0_7202_75089)">
<path d="M5.91609 7H6C6.55228 7 7 6.55228 7 6V3C7 2.44772 6.55228 2 6 2H5.91744C5.92643 2.0254 5.93475 2.05107 5.94239 2.077C6.01339 2.318 6.02239 2.573 5.96939 2.818C5.95575 2.87986 5.93829 2.94064 5.91717 3H6V5.4136C6.00159 5.442 6.00239 5.47048 6.00239 5.499V6.499C6.00239 6.67074 5.97293 6.84002 5.91609 7Z" fill="#8661C5"/>
<path d="M7.25716 8H3C2.44772 8 2 8.44772 2 9V12C2 12.5523 2.44772 13 3 13H6.20703C6.11588 12.6777 6.05337 12.3434 6.02242 12H3L3 9H6.59971C6.78261 8.64222 7.00353 8.30711 7.25716 8Z" fill="#8661C5"/>
<path fill-rule="evenodd" clip-rule="evenodd" d="M12.9797 6.20134C12.993 6.1363 13 6.06897 13 6V3C13 2.44772 12.5523 2 12 2H9C8.44772 2 8 2.44772 8 3V6C8 6.378 8.20973 6.70701 8.51917 6.87702C9.37802 6.3221 10.4014 6 11.5 6C12.0126 6 12.5089 6.07014 12.9797 6.20134ZM11.5 6H9V3H12V6H11.5Z" fill="#8661C5"/>
<path fill-rule="evenodd" clip-rule="evenodd" d="M8.99994 7.75839C9.73996 7.26392 10.61 7 11.5 7C12.6935 7 13.8381 7.47411 14.682 8.31802C15.5259 9.16193 16 10.3065 16 11.5C16 12.39 15.7361 13.26 15.2416 14.0001C14.7471 14.7401 14.0443 15.3169 13.2221 15.6575C12.3998 15.9981 11.495 16.0872 10.6221 15.9135C9.74918 15.7399 8.94736 15.3113 8.31802 14.682C7.68868 14.0526 7.2601 13.2508 7.08647 12.3779C6.91283 11.505 7.00195 10.6002 7.34254 9.77792C7.68314 8.95566 8.25991 8.25285 8.99994 7.75839ZM9.5 12H13.5C13.6326 12 13.7598 11.9473 13.8536 11.8536C13.9473 11.7598 14 11.6326 14 11.5C14 11.3674 13.9473 11.2402 13.8536 11.1464C13.7598 11.0527 13.6326 11 13.5 11H9.5C9.36739 11 9.24021 11.0527 9.14645 11.1464C9.05268 11.2402 9 11.3674 9 11.5C9 11.6326 9.05268 11.7598 9.14645 11.8536C9.24021 11.9473 9.36739 12 9.5 12Z" fill="#C50F1F"/>
<path d="M3.00234 3.29299V1.70699L4.14834 2.85399C4.24234 2.94799 4.36934 3.00099 4.50234 3.00099C4.63534 3.00099 4.76234 2.94799 4.85634 2.85399C4.95034 2.75999 5.00334 2.63299 5.00334 2.49999C5.00334 2.36699 4.95034 2.23999 4.85634 2.14599L2.85634 0.145993C2.81034 0.0989929 2.75434 0.0619928 2.69434 0.0369928C2.63334 0.0119928 2.56834 -0.00100708 2.50234 -0.00100708C2.43634 -0.00100708 2.37134 0.0119928 2.31034 0.0369928C2.24934 0.0619928 2.19434 0.0989929 2.14834 0.145993L0.148343 2.14599C0.0543427 2.23999 0.00134277 2.36699 0.00134277 2.49999C0.00134277 2.63299 0.0543427 2.75999 0.148343 2.85399C0.242343 2.94799 0.369343 3.00099 0.502343 3.00099C0.635343 3.00099 0.762343 2.94799 0.856343 2.85399L2.00234 1.70699V6.49999C2.00234 6.63299 2.05534 6.75999 2.14834 6.85399C2.24234 6.94799 2.36934 6.99999 2.50234 6.99999C2.63534 6.99999 2.76234 6.94699 2.85634 6.85399C2.95034 6.76099 3.00234 6.63299 3.00234 6.49999V4.70699L4.00234 5.70699V6.49999C4.00234 6.63299 4.05534 6.75999 4.14834 6.85399C4.24234 6.94799 4.36934 6.99999 4.50234 6.99999C4.63534 6.99999 4.76234 6.94699 4.85634 6.85399C4.95034 6.76099 5.00234 6.63299 5.00234 6.49999V5.49999C5.00234 5.43399 4.98934 5.36899 4.96434 5.30799C4.93934 5.24699 4.90234 5.19199 4.85634 5.14599L3.00234 3.29299Z" fill="#11910D"/>
</g>
<defs>
<clipPath id="clip0_7202_75089">
<rect width="16" height="16" fill="white"/>
</clipPath>
</defs>
</svg>
