<svg width="16" height="16" viewBox="0 0 16 16" fill="none" xmlns="http://www.w3.org/2000/svg">
<path d="M2 11V5C2 3.89543 2.89543 3 4 3H12C13.1046 3 14 3.89543 14 5V6.59971C13.501 6.34464 12.958 6.16354 12.3853 6.07087L13 5.73987V5C13 4.44772 12.5523 4 12 4H4C3.44772 4 3 4.44772 3 5V5.73976L7.23889 8.02224C7.02722 8.28128 6.8387 8.55997 6.6765 8.85517L3 6.87552V11C3 11.5523 3.44772 12 4 12H6.02242C6.05337 12.3434 6.11588 12.6777 6.20703 13H4C2.89543 13 2 12.1046 2 11Z" fill="#202020"/>
<path fill-rule="evenodd" clip-rule="evenodd" d="M16 11.5C16 13.9853 13.9853 16 11.5 16C9.01472 16 7 13.9853 7 11.5C7 9.01472 9.01472 7 11.5 7C13.9853 7 16 9.01472 16 11.5ZM13.8536 9.64645C14.0488 9.84171 14.0488 10.1583 13.8536 10.3536L10.8536 13.3536C10.6583 13.5488 10.3417 13.5488 10.1464 13.3536L9.14645 12.3536C8.95118 12.1583 8.95118 11.8417 9.14645 11.6464C9.34171 11.4512 9.65829 11.4512 9.85355 11.6464L10.5 12.2929L13.1464 9.64645C13.3417 9.45118 13.6583 9.45118 13.8536 9.64645Z" fill="#11910D"/>
</svg>
