<svg width="16" height="16" viewBox="0 0 16 16" fill="none" xmlns="http://www.w3.org/2000/svg">
<g clip-path="url(#clip0_7202_75168)">
<path d="M11 4H3C1.895 4 1 4.895 1 6V12C1 13.105 1.895 14 3 14H11C12.105 14 13 13.105 13 12V6C13 4.895 12.105 4 11 4ZM12 12C12 12.552 11.552 13 11 13H3C2.448 13 2 12.552 2 12V7.875L6.763 10.44C6.911 10.52 7.089 10.52 7.237 10.44L12 7.875V11.999V12ZM12 6.74L7 9.432L2 6.74V6C2 5.448 2.448 5 3 5H11C11.552 5 12 5.448 12 6V6.74ZM15 6V10C15 10.74 14.598 11.387 14 11.732V6C14 4.343 12.657 3 11 3H3.268C3.614 2.402 4.26 2 5 2H11C13.209 2 15 3.791 15 6Z" fill="#202020"/>
</g>
<defs>
<clipPath id="clip0_7202_75168">
<rect width="16" height="16" fill="white"/>
</clipPath>
</defs>
</svg>
