<svg width="16" height="16" viewBox="0 0 16 16" fill="none" xmlns="http://www.w3.org/2000/svg">
<path d="M15 7.5V8.5C15 9.15 14.58 9.71 14 9.91V7.5C14 5.02 11.98 3 9.5 3H5.09C5.29 2.42 5.85 2 6.5 2H9.5C12.53 2 15 4.47 15 7.5ZM9.5 4H4.5C3.85 4 3.29 4.42 3.09 5H9.5C10.88 5 12 6.12 12 7.5V11.91C12.58 11.71 13 11.15 13 10.5V7.5C13 5.57 11.43 4 9.5 4ZM11 7.5V12.5C11 13.327 10.327 14 9.5 14H2.5C1.673 14 1 13.327 1 12.5V7.5C1 6.673 1.673 6 2.5 6H9.5C10.327 6 11 6.673 11 7.5ZM2 7.5V8.175L6 9.953L10 8.175V7.5C10 7.224 9.776 7 9.5 7H2.5C2.224 7 2 7.224 2 7.5ZM10 12.5V9.27L6.203 10.958C6.139 10.987 6.069 11.001 6 11.001C5.931 11.001 5.861 10.987 5.797 10.958L2 9.27V12.5C2 12.776 2.224 13 2.5 13H9.5C9.776 13 10 12.776 10 12.5Z" fill="#202020"/>
</svg>
