<svg width="16" height="16" viewBox="0 0 16 16" fill="none" xmlns="http://www.w3.org/2000/svg">
<path fill-rule="evenodd" clip-rule="evenodd" d="M4 8V4C4 2.89543 4.89543 2 6 2H14C15.1046 2 16 2.89543 16 4V10C16 11.1046 15.1046 12 14 12H9V11H14C14.5523 11 15 10.5523 15 10V5.87562L10.2371 8.44024C10.0892 8.51992 9.91104 8.51992 9.76305 8.44024L5 5.87552V8H4ZM14 3H6C5.44772 3 5 3.44772 5 4V4.73976L10.0001 7.43212L15 4.73987V4C15 3.44772 14.5523 3 14 3Z" fill="#202020"/>
<path d="M6.75 9H1.25C0.918479 9 0.600537 9.1317 0.366117 9.36612C0.131696 9.60054 0 9.91848 0 10.25V12H1.191L2.053 10.276C2.09583 10.1885 2.16359 10.1156 2.24775 10.0665C2.33192 10.0173 2.42873 9.99422 2.526 10C2.6231 10.005 2.71663 10.0383 2.79513 10.0956C2.87364 10.153 2.93371 10.232 2.968 10.323L4.068 13.25L5.056 11.275C5.10226 11.1977 5.16775 11.1338 5.2461 11.0894C5.32444 11.045 5.41295 11.0216 5.503 11.0216C5.59305 11.0216 5.68156 11.045 5.7599 11.0894C5.83825 11.1338 5.90374 11.1977 5.95 11.275L6.309 12H8V10.25C8 9.91848 7.8683 9.60054 7.63388 9.36612C7.39946 9.1317 7.08152 9 6.75 9ZM5.55 12.724L5.5 12.618L4.447 14.724C4.40544 14.8069 4.34161 14.8767 4.26267 14.9254C4.18373 14.9742 4.09278 15 4 15H3.974C3.8769 14.995 3.78337 14.9617 3.70487 14.9044C3.62636 14.847 3.56629 14.768 3.532 14.677L2.432 11.75L1.944 12.725C1.90253 12.8073 1.83911 12.8765 1.76076 12.9251C1.68241 12.9736 1.59216 12.9995 1.5 13H0V14.75C0 15.0815 0.131696 15.3995 0.366117 15.6339C0.600537 15.8683 0.918479 16 1.25 16H6.75C7.08152 16 7.39946 15.8683 7.63388 15.6339C7.8683 15.3995 8 15.0815 8 14.75V13H6C5.90722 13 5.81627 12.9742 5.73733 12.9254C5.65839 12.8767 5.59456 12.8069 5.553 12.724H5.55Z" fill="#202020"/>
</svg>
