<svg width="16" height="16" viewBox="0 0 16 16" fill="none" xmlns="http://www.w3.org/2000/svg">
<path d="M12.5 12C12.3674 12 12.2402 11.9473 12.1464 11.8536C12.0527 11.7598 12 11.6326 12 11.5V4C12 3.73478 11.8946 3.48043 11.7071 3.29289C11.5196 3.10536 11.2652 3 11 3H5C4.73478 3 4.48043 3.10536 4.29289 3.29289C4.10536 3.48043 4 3.73478 4 4V7.15054C3.83801 7.10898 3.67105 7.0878 3.503 7.0878C3.33288 7.0878 3.16387 7.1095 3 7.15208V4C3 3.46957 3.21071 2.96086 3.58579 2.58579C3.96086 2.21071 4.46957 2 5 2H11C11.5304 2 12.0391 2.21071 12.4142 2.58579C12.7893 2.96086 13 3.46957 13 4V11.5C13 11.6326 12.9473 11.7598 12.8536 11.8536C12.7598 11.9473 12.6326 12 12.5 12Z" fill="#202020"/>
<path d="M7.99367 14H9C9.13261 14 9.25979 13.9473 9.35355 13.8536C9.44732 13.7598 9.5 13.6326 9.5 13.5C9.5 13.3674 9.44732 13.2402 9.35355 13.1464C9.25979 13.0527 9.13261 13 9 13H8V13.841C8 13.8942 7.99787 13.9472 7.99367 14Z" fill="#202020"/>
<path d="M12.5 13H11C10.8674 13 10.7402 13.0527 10.6464 13.1464C10.5527 13.2402 10.5 13.3674 10.5 13.5C10.5 13.6326 10.5527 13.7598 10.6464 13.8536C10.7402 13.9473 10.8674 14 11 14H12.5C12.6326 14 12.7598 13.9473 12.8536 13.8536C12.9473 13.7598 13 13.6326 13 13.5C13 13.3674 12.9473 13.2402 12.8536 13.1464C12.7598 13.0527 12.6326 13 12.5 13Z" fill="#202020"/>
<path d="M0.606 9.23999L3.106 8.16899C3.2305 8.11562 3.36454 8.0881 3.5 8.0881C3.63546 8.0881 3.7695 8.11562 3.894 8.16899L6.394 9.23999C6.57384 9.31709 6.72712 9.44525 6.83484 9.6086C6.94255 9.77196 6.99998 9.96332 7 10.159V13.841C6.99998 14.0367 6.94255 14.228 6.83484 14.3914C6.72712 14.5547 6.57384 14.6829 6.394 14.76L3.894 15.831C3.7695 15.8844 3.63546 15.9119 3.5 15.9119C3.36454 15.9119 3.2305 15.8844 3.106 15.831L0.606 14.76C0.426157 14.6829 0.272882 14.5547 0.165165 14.3914C0.0574481 14.228 2.16103e-05 14.0367 0 13.841V10.159C2.16103e-05 9.96332 0.0574481 9.77196 0.165165 9.6086C0.272882 9.44525 0.426157 9.31709 0.606 9.23999ZM1.276 10.947L3 11.809V14C3 14.1326 3.05268 14.2598 3.14645 14.3535C3.24021 14.4473 3.36739 14.5 3.5 14.5C3.63261 14.5 3.75979 14.4473 3.85355 14.3535C3.94732 14.2598 4 14.1326 4 14V11.809L5.724 10.947C5.7834 10.9182 5.8364 10.8779 5.87987 10.8282C5.92333 10.7786 5.95636 10.7207 5.977 10.658C5.99748 10.5952 6.0053 10.5289 6 10.463C5.99558 10.3975 5.9783 10.3334 5.94913 10.2746C5.91996 10.2157 5.87948 10.1632 5.83 10.12C5.78008 10.0769 5.72213 10.0441 5.65949 10.0235C5.59684 10.0029 5.53075 9.99494 5.465 9.99999C5.39912 10.005 5.33488 10.023 5.276 10.053L3.5 10.941L1.724 10.053C1.60559 9.9948 1.46898 9.98577 1.34394 10.0279C1.21889 10.07 1.11556 10.1598 1.05645 10.2777C0.997339 10.3957 0.987247 10.5322 1.02837 10.6576C1.0695 10.7829 1.15851 10.887 1.276 10.947Z" fill="#5C2E91"/>
</svg>
