<svg width="16" height="16" viewBox="0 0 16 16" fill="none" xmlns="http://www.w3.org/2000/svg">
<path d="M7 1.5C7 1.22386 7.22386 1 7.5 1H9C9.27614 1 9.5 1.22386 9.5 1.5C9.5 1.77614 9.27614 2 9 2H7.5C7.22386 2 7 1.77614 7 1.5Z" fill="#202020"/>
<path d="M10.1895 1.5C10.1895 1.22386 10.4133 1 10.6895 1H11.586C11.9835 1 12.3647 1.15765 12.6465 1.43945L13.125 1.91795C13.3203 2.11321 13.3203 2.42979 13.125 2.62505C12.9297 2.82032 12.6132 2.82032 12.4179 2.62505L11.9394 2.14655C11.8452 2.05235 11.7184 2 11.586 2H10.6895C10.4133 2 10.1895 1.77614 10.1895 1.5Z" fill="#202020"/>
<path d="M13.3824 11.9243C13.2652 11.9729 13.1363 12 13 12V13C13.2702 13 13.5292 12.946 13.7657 12.8479C14.0208 12.742 14.1417 12.4495 14.0359 12.1944C13.93 11.9394 13.6375 11.8184 13.3824 11.9243Z" fill="#202020"/>
<path d="M14.082 2.87495C13.8867 2.67968 13.5702 2.67968 13.3749 2.87495C13.1796 3.07021 13.1796 3.38679 13.3749 3.58205L13.8534 4.06055L13.8543 4.06149C13.9471 4.15376 14 4.2808 14 4.414V5.23725C14 5.51339 14.2238 5.73725 14.5 5.73725C14.7761 5.73725 15 5.51339 15 5.23725V4.414C15 4.01744 14.843 3.63471 14.5601 3.35302L14.082 2.87495Z" fill="#202020"/>
<path d="M14.5 6.38375C14.7761 6.38375 15 6.60761 15 6.88375V8.53025C15 8.80639 14.7761 9.03025 14.5 9.03025C14.2238 9.03025 14 8.80639 14 8.53025V6.88375C14 6.60761 14.2238 6.38375 14.5 6.38375Z" fill="#202020"/>
<path d="M15 10.1768C15 9.90061 14.7761 9.67675 14.5 9.67675C14.2238 9.67675 14 9.90061 14 10.1768V11C14 11.1364 13.9729 11.2652 13.9242 11.3825C13.8184 11.6375 13.9393 11.9301 14.1944 12.0359C14.4494 12.1418 14.742 12.0208 14.8478 11.7658C14.946 11.5293 15 11.2703 15 11V10.1768Z" fill="#202020"/>
<path d="M8 11V10.159C8.00007 10.1058 7.99801 10.0528 7.99387 10H9.5C9.77614 10 10 10.2239 10 10.5C10 10.7761 9.77614 11 9.5 11H8Z" fill="#202020"/>
<path d="M8 13V12H9.5C9.77614 12 10 12.2239 10 12.5C10 12.7761 9.77614 13 9.5 13H8Z" fill="#202020"/>
<path fill-rule="evenodd" clip-rule="evenodd" d="M7.99367 14H10.003C10.555 14 11.003 13.552 11.003 13V8.061H11.001V7H9.50098C8.67298 7 8.00098 6.328 8.00098 5.5V4H5.00098C4.44898 4 4.00098 4.448 4.00098 5V7.15079C3.83868 7.10906 3.67139 7.0878 3.503 7.0878C3.33321 7.0878 3.16454 7.10942 3.00098 7.15183V5C3.00098 3.895 3.89598 3 5.00098 3H8.58598C8.98398 3 9.36598 3.158 9.64698 3.439L11.561 5.353C11.842 5.635 12 6.016 12 6.414V7.5H12.002V13C12.002 14.105 11.107 15 10.002 15H7.6299C7.64328 14.9812 7.65635 14.9621 7.66911 14.9428C7.85562 14.6602 7.96688 14.3358 7.99367 14ZM9.49998 6H10.793L8.99998 4.207V5.5C8.99998 5.776 9.22398 6 9.49998 6Z" fill="#202020"/>
<path d="M7.63171 9C7.41977 8.70096 7.1294 8.46551 6.792 8.32001L6.04432 8H9.5C9.77614 8 10 8.22386 10 8.5C10 8.77614 9.77614 9 9.5 9H7.63171Z" fill="#202020"/>
<path d="M0.606 9.23999L3.106 8.16899C3.2305 8.11562 3.36454 8.0881 3.5 8.0881C3.63546 8.0881 3.7695 8.11562 3.894 8.16899L6.394 9.23999C6.57384 9.31709 6.72712 9.44525 6.83484 9.6086C6.94255 9.77196 6.99998 9.96332 7 10.159V13.841C6.99998 14.0367 6.94255 14.228 6.83484 14.3914C6.72712 14.5547 6.57384 14.6829 6.394 14.76L3.894 15.831C3.7695 15.8844 3.63546 15.9119 3.5 15.9119C3.36454 15.9119 3.2305 15.8844 3.106 15.831L0.606 14.76C0.426157 14.6829 0.272882 14.5547 0.165165 14.3914C0.0574481 14.228 2.16103e-05 14.0367 0 13.841V10.159C2.16103e-05 9.96332 0.0574481 9.77196 0.165165 9.6086C0.272882 9.44525 0.426157 9.31709 0.606 9.23999ZM1.276 10.947L3 11.809V14C3 14.1326 3.05268 14.2598 3.14645 14.3535C3.24021 14.4473 3.36739 14.5 3.5 14.5C3.63261 14.5 3.75979 14.4473 3.85355 14.3535C3.94732 14.2598 4 14.1326 4 14V11.809L5.724 10.947C5.7834 10.9182 5.8364 10.8779 5.87987 10.8282C5.92333 10.7786 5.95636 10.7207 5.977 10.658C5.99748 10.5952 6.0053 10.5289 6 10.463C5.99558 10.3975 5.9783 10.3334 5.94913 10.2746C5.91996 10.2157 5.87948 10.1632 5.83 10.12C5.78008 10.0769 5.72213 10.0441 5.65949 10.0235C5.59684 10.0029 5.53075 9.99494 5.465 9.99999C5.39912 10.005 5.33488 10.023 5.276 10.053L3.5 10.941L1.724 10.053C1.60559 9.9948 1.46898 9.98577 1.34394 10.0279C1.21889 10.07 1.11556 10.1598 1.05645 10.2777C0.997339 10.3957 0.987247 10.5322 1.02837 10.6576C1.0695 10.7829 1.15851 10.887 1.276 10.947Z" fill="#5C2E91"/>
</svg>
