<svg width="16" height="16" viewBox="0 0 16 16" fill="none" xmlns="http://www.w3.org/2000/svg">
<path d="M14.013 1.931L9.854 0.419C9.303 0.218 8.696 0.218 8.145 0.419L3.987 1.931C3.396 2.146 3 2.712 3 3.341V3.359L4.318 2.88C4.318 2.88 4.324 2.873 4.329 2.872L8.487 1.36C8.652 1.3 8.826 1.27 9 1.27C9.174 1.27 9.348 1.3 9.513 1.36L13.671 2.873C13.868 2.944 14 3.133 14 3.342V10.356L14.013 10.351C14.604 10.136 15 9.57 15 8.941V3.34C15 2.712 14.604 2.145 14.013 1.931Z" fill="#5C2E91"/>
<path d="M9.80798 6.289C10.06 6.183 10.356 6.303 10.462 6.558C10.567 6.813 10.447 7.106 10.192 7.212L7.49998 8.334V11.001C7.49998 11.277 7.27598 11.501 6.99998 11.501C6.72398 11.501 6.49998 11.277 6.49998 11.001V8.334L3.80798 7.212C3.55298 7.106 3.43298 6.813 3.53798 6.558C3.64398 6.303 3.93998 6.182 4.19198 6.289L6.99998 7.459L9.80798 6.289Z" fill="#5C2E91"/>
<path fill-rule="evenodd" clip-rule="evenodd" d="M6.99998 14.872C6.71098 14.872 6.42098 14.822 6.14598 14.722L1.98798 13.21C1.39698 12.996 1.00098 12.429 1.00098 11.801V6.20098C1.00098 5.57298 1.39698 5.00598 1.98798 4.79098L6.14598 3.27898C6.69698 3.07798 7.30398 3.07798 7.85498 3.27898L12.013 4.79098C12.604 5.00498 13 5.57198 13 6.19998V11.8C13 12.428 12.604 12.995 12.013 13.21L7.85498 14.722C7.57998 14.823 7.28898 14.872 6.99998 14.872ZM6.99998 4.12798C6.82598 4.12798 6.65198 4.15798 6.48698 4.21798L2.32898 5.72998C2.13198 5.80198 1.99998 5.98998 1.99998 6.19998V11.8C1.99998 12.009 2.13198 12.198 2.32898 12.269L6.48698 13.782C6.81698 13.902 7.18198 13.902 7.51198 13.782L11.67 12.27C11.867 12.198 11.999 12.01 11.999 11.8V6.19998C11.999 5.99098 11.867 5.80198 11.67 5.73098L7.51198 4.21798C7.34698 4.15798 7.17398 4.12798 6.99998 4.12798Z" fill="#5C2E91"/>
</svg>
