<svg width="16" height="16" viewBox="0 0 16 16" fill="none" xmlns="http://www.w3.org/2000/svg">
<g clip-path="url(#clip0_7202_75233)">
<path d="M4.04031 5.30305C4.14909 5.04923 4.44303 4.93166 4.69684 5.04043L7.99988 6.45602L11.3029 5.04043C11.5567 4.93166 11.8507 5.04923 11.9595 5.30305C12.0682 5.55686 11.9507 5.8508 11.6968 5.95958L8.49988 7.3297V10.5C8.49988 10.7761 8.27603 11 7.99988 11C7.72374 11 7.49988 10.7761 7.49988 10.5V7.3297L4.30292 5.95958C4.04911 5.8508 3.93153 5.55686 4.04031 5.30305Z" fill="#5C2E91"/>
<path d="M6.92306 1.37855C7.61627 1.11193 8.38373 1.11193 9.07694 1.37855L14.0385 3.28683C14.6178 3.50964 15 4.06619 15 4.68685V9.08593C14.7911 9.15984 14.5992 9.27981 14.4395 9.43948L14 9.87927V4.68685C14 4.47997 13.8726 4.29445 13.6795 4.22018L8.71796 2.3119C8.25582 2.13415 7.74418 2.13415 7.28204 2.3119L2.32051 4.22018C2.12741 4.29445 2 4.47997 2 4.68685V11.3133C2 11.5201 2.12741 11.7057 2.32051 11.7799L7.28204 13.6882C7.74418 13.866 8.25582 13.866 8.71796 13.6882L10.7757 12.8968L10.8795 13.0005L9.43948 14.4395C9.4178 14.4612 9.39684 14.4834 9.37664 14.5063L9.07694 14.6216C8.38373 14.8882 7.61627 14.8882 6.92306 14.6216L1.96153 12.7133C1.38224 12.4905 1 11.9339 1 11.3133V4.68685C1 4.06619 1.38224 3.50964 1.96153 3.28683L6.92306 1.37855Z" fill="#5C2E91"/>
<path d="M15.8544 15.1465C15.9483 15.2404 16.001 15.3677 16.001 15.5005C16.001 15.6333 15.9483 15.7606 15.8544 15.8545C15.7605 15.9484 15.6332 16.0011 15.5004 16.0011C15.3676 16.0011 15.2403 15.9484 15.1464 15.8545L13.0004 13.7075L10.8544 15.8545C10.7605 15.9484 10.6332 16.0011 10.5004 16.0011C10.3676 16.0011 10.2403 15.9484 10.1464 15.8545C10.0525 15.7606 9.99976 15.6333 9.99976 15.5005C9.99976 15.3677 10.0525 15.2404 10.1464 15.1465L12.2934 13.0005L10.1464 10.8545C10.0525 10.7606 9.99976 10.6333 9.99976 10.5005C9.99976 10.3677 10.0525 10.2404 10.1464 10.1465C10.2403 10.0526 10.3676 9.99988 10.5004 9.99988C10.6332 9.99988 10.7605 10.0526 10.8544 10.1465L13.0004 12.2935L15.1464 10.1465C15.2403 10.0526 15.3676 9.99988 15.5004 9.99988C15.6332 9.99988 15.7605 10.0526 15.8544 10.1465C15.9483 10.2404 16.001 10.3677 16.001 10.5005C16.001 10.6333 15.9483 10.7606 15.8544 10.8545L13.7074 13.0005L15.8544 15.1465Z" fill="#202020"/>
</g>
<defs>
<clipPath id="clip0_7202_75233">
<rect width="16" height="16" fill="white"/>
</clipPath>
</defs>
</svg>
