<svg width="16" height="16" viewBox="0 0 16 16" fill="none" xmlns="http://www.w3.org/2000/svg">
<g clip-path="url(#clip0_7202_74411)">
<path fill-rule="evenodd" clip-rule="evenodd" d="M13.4995 8.20715C13.7646 8.20715 14.0189 8.31247 14.2065 8.49994L14.9995 9.29294C15.1869 9.48047 15.2922 9.73478 15.2922 9.99994C15.2922 10.2651 15.1869 10.5194 14.9995 10.7069L13.9995 11.7069V10.5C13.9995 10.4346 13.9952 10.3697 13.9869 10.3055L14.2925 9.99994L13.4995 9.20694L13.4034 9.30295C13.1446 9.10748 12.8276 9 12.4995 9H8.99945V4.99994H6.99951V3.5C6.99951 3.43461 6.99524 3.36967 6.98686 3.30553L7.79245 2.49994L6.49945 1.20694L5.69377 2.01263C5.6297 2.00426 5.56483 2 5.49951 2H4.29239L5.79245 0.49994C5.97998 0.312469 6.23429 0.207153 6.49945 0.207153C6.76462 0.207153 7.01892 0.312469 7.20645 0.49994L8.49945 1.79294C8.68692 1.98047 8.79224 2.23478 8.79224 2.49994C8.79224 2.7651 8.68692 3.01941 8.49945 3.20694L7.70645 3.99994H12.2925L12.7925 3.49994C12.98 3.31247 13.2343 3.20715 13.4995 3.20715C13.7646 3.20715 14.0189 3.31247 14.2065 3.49994L14.9995 4.29294C15.1869 4.48047 15.2922 4.73478 15.2922 4.99994C15.2922 5.2651 15.1869 5.51941 14.9995 5.70694L13.7065 6.99994C13.5189 7.18741 13.2646 7.29273 12.9995 7.29273C12.7343 7.29273 12.48 7.18741 12.2925 6.99994L11.4995 6.20694C11.3453 6.04983 11.2481 5.84571 11.2233 5.62701C11.1984 5.40832 11.2474 5.1876 11.3625 4.99994H9.99945V8.99994H12.2925L12.7925 8.49994C12.98 8.31247 13.2343 8.20715 13.4995 8.20715ZM12.9995 6.29294L14.2925 4.99994L13.4995 4.20694L12.2065 5.49994L12.9995 6.29294Z" fill="#B27C00"/>
<path fill-rule="evenodd" clip-rule="evenodd" d="M0.145958 8.85355C0.239726 8.94732 0.366903 9 0.499512 9H5.49951C5.63212 9 5.7593 8.94732 5.85307 8.85355C5.94683 8.75979 5.99951 8.63261 5.99951 8.5V3.5C5.99951 3.36739 5.94683 3.24021 5.85307 3.14645C5.7593 3.05268 5.63212 3 5.49951 3H0.499512C0.366903 3 0.239726 3.05268 0.145958 3.14645C0.0521901 3.24021 -0.000488281 3.36739 -0.000488281 3.5V8.5C-0.000488281 8.63261 0.0521901 8.75979 0.145958 8.85355ZM1.93846 4.26056C1.82901 4.05991 1.59744 3.95902 1.37597 4.01549C1.1545 4.07196 0.999512 4.27143 0.999512 4.49999V7.49999C0.999512 7.77613 1.22337 7.99999 1.49951 7.99999C1.77565 7.99999 1.99951 7.77613 1.99951 7.49999V6.46082L2.56056 7.48941C2.64818 7.65004 2.81654 7.74999 2.99951 7.74999C3.18248 7.74999 3.35084 7.65004 3.43846 7.48941L3.99951 6.46082V7.49999C3.99951 7.77613 4.22337 7.99999 4.49951 7.99999C4.77565 7.99999 4.99951 7.77613 4.99951 7.49999V4.49999C4.99951 4.27143 4.84453 4.07196 4.62306 4.01549C4.40158 3.95902 4.17001 4.05991 4.06056 4.26056L2.99951 6.20582L1.93846 4.26056Z" fill="#202020"/>
<path fill-rule="evenodd" clip-rule="evenodd" d="M7.49951 16H12.4995C12.6321 16 12.7593 15.9473 12.8531 15.8536C12.9468 15.7598 12.9995 15.6326 12.9995 15.5V10.5C12.9995 10.3674 12.9468 10.2402 12.8531 10.1464C12.7593 10.0527 12.6321 10 12.4995 10H7.49951C7.3669 10 7.23973 10.0527 7.14596 10.1464C7.05219 10.2402 6.99951 10.3674 6.99951 10.5V15.5C6.99951 15.6326 7.05219 15.7598 7.14596 15.8536C7.23973 15.9473 7.3669 16 7.49951 16ZM9.51351 12C9.37719 12 9.24645 12.0542 9.15006 12.1505C9.05367 12.2469 8.99951 12.3777 8.99951 12.514V13.486C8.99951 13.6223 9.05367 13.7531 9.15006 13.8495C9.24645 13.9458 9.37719 14 9.51351 14H10.4855C10.575 14 10.663 13.9766 10.7407 13.9322C10.8184 13.8877 10.8831 13.8237 10.9285 13.7465C11.0685 13.5085 11.3749 13.429 11.613 13.569C11.851 13.709 11.9305 14.0154 11.7905 14.2535C11.6568 14.4808 11.4661 14.6692 11.2372 14.8001C11.0084 14.9311 10.7492 15 10.4855 15H9.51351C9.11197 15 8.72688 14.8405 8.44295 14.5566C8.15902 14.2726 7.99951 13.8875 7.99951 13.486V12.514C7.99951 12.1125 8.15902 11.7274 8.44295 11.4434C8.72688 11.1595 9.11197 11 9.51351 11H10.4995C10.7628 11 11.0215 11.0693 11.2495 11.201C11.4775 11.3326 11.6669 11.522 11.7985 11.75C11.9366 11.9891 11.8547 12.2949 11.6155 12.433C11.3764 12.5711 11.0706 12.4891 10.9325 12.25C10.8886 12.174 10.8255 12.1109 10.7495 12.067C10.6735 12.0231 10.5873 12 10.4995 12H9.51351Z" fill="#202020"/>
<path fill-rule="evenodd" clip-rule="evenodd" d="M0.145958 15.8536C0.239726 15.9473 0.366903 16 0.499512 16H5.49951C5.63212 16 5.7593 15.9473 5.85307 15.8536C5.94683 15.7598 5.99951 15.6326 5.99951 15.5V10.5C5.99951 10.3674 5.94683 10.2402 5.85307 10.1464C5.7593 10.0527 5.63212 10 5.49951 10H0.499512C0.366903 10 0.239726 10.0527 0.145958 10.1464C0.0521901 10.2402 -0.000488281 10.3674 -0.000488281 10.5V15.5C-0.000488281 15.6326 0.0521901 15.7598 0.145958 15.8536ZM1.99951 11.5C1.99951 11.2239 2.22337 11 2.49951 11H4.49951C4.77565 11 4.99951 11.2239 4.99951 11.5C4.99951 11.7761 4.77565 12 4.49951 12H2.99951V12.75H3.99951C4.27565 12.75 4.49951 12.9739 4.49951 13.25C4.49951 13.5261 4.27565 13.75 3.99951 13.75H2.99951V14.5C2.99951 14.7761 2.77565 15 2.49951 15C2.22337 15 1.99951 14.7761 1.99951 14.5V11.5Z" fill="#202020"/>
</g>
<defs>
<clipPath id="clip0_7202_74411">
<rect width="16" height="16" fill="white"/>
</clipPath>
</defs>
</svg>
