<svg width="16" height="16" viewBox="0 0 16 16" fill="none" xmlns="http://www.w3.org/2000/svg">
<path d="M3.02499 6.97512C3.21999 7.17013 3.21999 7.48712 3.02499 7.68213C2.92699 7.78013 2.79899 7.82812 2.67099 7.82812C2.54299 7.82812 2.41499 7.77913 2.31699 7.68213C1.46699 6.83213 0.998993 5.70312 0.998993 4.50012C0.998993 3.29712 1.46699 2.16813 2.31699 1.31812C2.51199 1.12313 2.82899 1.12313 3.02399 1.31812C3.21899 1.51313 3.21899 1.83013 3.02399 2.02513C2.36299 2.68513 1.99899 3.56413 1.99899 4.50012C1.99899 5.43612 2.36299 6.31413 3.02399 6.97512H3.02499ZM4.43999 2.73313C4.24499 2.53813 3.92799 2.53813 3.73299 2.73313C3.26099 3.20613 3.00099 3.83312 3.00099 4.50112C3.00099 5.16912 3.26099 5.79612 3.73299 6.26912C3.83099 6.36713 3.95899 6.41512 4.08699 6.41512C4.21499 6.41512 4.34299 6.36613 4.44099 6.26912C4.63599 6.07412 4.63599 5.75712 4.44099 5.56212C4.15799 5.27912 4.00199 4.90212 4.00199 4.50112C4.00199 4.10012 4.15799 3.72412 4.44099 3.44012C4.63599 3.24513 4.63499 2.92813 4.43999 2.73313ZM13.683 1.31913C13.488 1.12413 13.171 1.12413 12.976 1.31913C12.781 1.51413 12.781 1.83113 12.976 2.02613C13.637 2.68613 14.001 3.56512 14.001 4.50112C14.001 5.43712 13.637 6.31512 12.976 6.97612C12.781 7.17112 12.781 7.48812 12.976 7.68313C13.074 7.78113 13.202 7.82912 13.33 7.82912C13.458 7.82912 13.586 7.78013 13.684 7.68313C14.534 6.83313 15.002 5.70412 15.002 4.50112C15.002 3.29812 14.534 2.16913 13.684 1.31913H13.683ZM12.268 2.73313C12.073 2.53813 11.756 2.53813 11.561 2.73313C11.366 2.92813 11.366 3.24513 11.561 3.44012C11.844 3.72312 12 4.10012 12 4.50112C12 4.90212 11.844 5.27812 11.561 5.56212C11.366 5.75712 11.366 6.07412 11.561 6.26912C11.659 6.36713 11.787 6.41512 11.915 6.41512C12.043 6.41512 12.171 6.36613 12.269 6.26912C12.741 5.79612 13.001 5.16912 13.001 4.50112C13.001 3.83312 12.741 3.20613 12.269 2.73313H12.268Z" fill="#006CBF"/>
<path d="M8 10.5C9.381 10.5 10.5 9.381 10.5 8V4.5C10.5 3.119 9.381 2 8 2C6.619 2 5.50001 3.119 5.50001 4.5V8C5.50001 9.381 6.619 10.5 8 10.5ZM6.50001 4.5C6.50001 3.672 7.172 3 8 3C8.828 3 9.5 3.672 9.5 4.5V8C9.5 8.828 8.828 9.5 8 9.5C7.172 9.5 6.50001 8.828 6.50001 8V4.5ZM12.358 9.126C11.888 10.948 10.338 12.252 8.5 12.458V13.5C8.5 13.776 8.276 14 8 14C7.724 14 7.50001 13.776 7.50001 13.5V12.458C5.662 12.252 4.112 10.948 3.642 9.126C3.573 8.858 3.734 8.586 4.002 8.517C4.269 8.451 4.543 8.609 4.61101 8.876C5.00901 10.421 6.403 11.5 8 11.5C9.597 11.5 10.991 10.421 11.389 8.876C11.458 8.608 11.736 8.45 11.998 8.517C12.266 8.586 12.427 8.859 12.358 9.126Z" fill="#202020"/>
</svg>
