<svg width="16" height="16" viewBox="0 0 16 16" fill="none" xmlns="http://www.w3.org/2000/svg">
<g clip-path="url(#clip0_2515_287)">
<path d="M1.01901 9.045C1.10701 8.082 1.46601 6.927 1.81001 5.845C2.13901 4.81 2.53801 3.818 3.03701 3.094C3.53801 2.367 4.07301 2 4.66701 2H8.00701C7.85001 2.264 7.71901 2.562 7.60201 2.872C7.45501 3.261 7.31901 3.699 7.17901 4.15L7.14801 4.25C6.68701 5.731 6.13001 7.566 5.69801 9H6.74201C6.85801 8.617 6.98101 8.211 7.10701 7.794L7.56601 6.296C7.80201 5.526 8.51301 5 9.31901 5H10.109C9.86101 5.291 9.66901 5.636 9.55401 6.02C9.36401 6.651 9.13501 7.41 8.89301 8.207L8.65001 9H9.69701C9.99501 8.021 10.282 7.07 10.511 6.308C10.745 5.532 11.459 5 12.27 5H13.497C14.152 5 14.491 5.179 14.678 5.39C14.877 5.613 14.991 5.966 14.998 6.479C15.009 7.209 14.805 8.098 14.543 9C14.892 9.006 15.222 9.083 15.522 9.218C15.788 8.292 16.011 7.309 15.999 6.464C15.99 5.835 15.851 5.202 15.427 4.725C14.992 4.235 14.339 3.999 13.501 3.999C12.941 3.999 12.679 3.846 12.522 3.683C12.337 3.491 12.228 3.221 12.087 2.83L12.067 2.774C11.944 2.431 11.783 1.982 11.467 1.633C11.1 1.228 10.576 1 9.83301 1H4.66901C3.59601 1 2.79701 1.682 2.21501 2.527C1.63101 3.376 1.19701 4.481 0.859007 5.543C0.475007 6.748 -0.00799347 8.267 6.52831e-06 9.5C0.296007 9.277 0.643007 9.119 1.02001 9.046L1.01901 9.045ZM8.98101 2.341C9.14901 2.115 9.41201 2 9.83301 2C10.35 2 10.583 2.147 10.725 2.304C10.9 2.498 11.001 2.769 11.145 3.169L11.15 3.184C11.237 3.426 11.343 3.721 11.512 4H9.31901C8.92701 4 8.54901 4.081 8.20301 4.229C8.31801 3.86 8.42601 3.526 8.53901 3.226C8.68401 2.841 8.82601 2.549 8.98101 2.341ZM14.5 10H1.50001C0.672007 10 6.52831e-06 10.672 6.52831e-06 11.5V14.5C6.52831e-06 15.328 0.672007 16 1.50001 16H14.5C15.328 16 16 15.328 16 14.5V11.5C16 10.672 15.328 10 14.5 10ZM5.00001 14.998H4.21901V12.605C4.21901 12.477 4.22101 12.341 4.22601 12.198C4.23101 12.055 4.23801 11.905 4.24801 11.749H4.22801C4.20701 11.872 4.18701 11.978 4.16901 12.067C4.15301 12.154 4.13601 12.225 4.11801 12.279L3.29501 14.999H2.64901L1.81201 12.307C1.80201 12.27 1.78701 12.205 1.76801 12.112C1.74901 12.019 1.72601 11.898 1.70201 11.749H1.68001C1.69101 11.946 1.69901 12.131 1.70401 12.304C1.70901 12.477 1.71101 12.638 1.71101 12.787V14.999H0.999007V10.999H2.15701L2.87401 13.37C2.90301 13.457 2.92701 13.545 2.94501 13.632C2.96501 13.719 2.98301 13.808 2.99901 13.897H3.01401C3.03701 13.797 3.06001 13.702 3.08301 13.613C3.10601 13.524 3.13001 13.441 3.15401 13.365L3.87101 11H5.00001V14.998ZM8.29201 13.83C8.29201 14.172 8.16901 14.452 7.92201 14.672C7.67501 14.891 7.34101 15.001 6.92001 15.001C6.70001 15.001 6.49601 14.975 6.30901 14.925C6.12401 14.874 5.93601 14.792 5.74501 14.679L6.06201 14.112C6.20201 14.195 6.32501 14.255 6.43201 14.293C6.53901 14.331 6.67201 14.35 6.83101 14.35C7.04301 14.35 7.19801 14.298 7.29801 14.196C7.39701 14.094 7.44701 13.975 7.44701 13.84C7.44701 13.653 7.37401 13.513 7.22701 13.419C7.08201 13.326 6.88101 13.279 6.62601 13.279H6.31901V12.626H6.60001C6.84501 12.626 7.02901 12.585 7.15101 12.502C7.27401 12.417 7.33501 12.277 7.33501 12.081C7.33501 11.939 7.29701 11.832 7.22001 11.76C7.14301 11.688 7.03101 11.652 6.88401 11.652C6.77901 11.652 6.66301 11.671 6.53501 11.711C6.40801 11.748 6.27201 11.809 6.12901 11.894L5.83001 11.33C6.02401 11.213 6.21401 11.129 6.39901 11.079C6.58401 11.027 6.78901 11.001 7.01501 11.001C7.36101 11.001 7.64101 11.09 7.85701 11.268C8.07301 11.446 8.18001 11.678 8.18001 11.962C8.18001 12.2 8.12701 12.398 8.02001 12.556C7.91301 12.714 7.75201 12.833 7.53701 12.912V12.925C7.77001 12.97 7.95301 13.076 8.08801 13.241C8.22501 13.404 8.29301 13.6 8.29301 13.829L8.29201 13.83ZM11.247 14.622C11.011 14.874 10.709 15 10.342 15C9.93101 15 9.61101 14.846 9.38201 14.536C9.15301 14.224 9.03801 13.781 9.03801 13.205C9.03801 12.872 9.07301 12.569 9.14301 12.295C9.21501 12.021 9.32301 11.789 9.46601 11.596C9.60601 11.403 9.77101 11.256 9.96201 11.153C10.153 11.05 10.392 10.999 10.681 10.999C10.807 10.999 10.942 11.021 11.085 11.064C11.229 11.107 11.38 11.193 11.539 11.323L11.114 11.825C11.044 11.766 10.974 11.722 10.904 11.693C10.834 11.664 10.748 11.65 10.647 11.65C10.522 11.65 10.412 11.677 10.316 11.731C10.222 11.783 10.136 11.86 10.059 11.963C9.98401 12.062 9.92601 12.182 9.88601 12.322C9.84501 12.461 9.82401 12.615 9.82001 12.784H9.83601C9.93101 12.672 10.043 12.589 10.172 12.533C10.301 12.476 10.446 12.447 10.607 12.447C10.91 12.447 11.151 12.558 11.331 12.779C11.513 13 11.604 13.298 11.604 13.672C11.604 14.052 11.485 14.368 11.247 14.622ZM14.929 13.698C14.929 14.072 14.825 14.382 14.617 14.629C14.409 14.876 14.121 14.999 13.754 14.999C13.567 14.999 13.395 14.968 13.238 14.905C13.081 14.84 12.928 14.738 12.777 14.6L13.098 14.079C13.199 14.172 13.303 14.241 13.408 14.284C13.513 14.327 13.619 14.349 13.724 14.349C13.884 14.349 14.007 14.296 14.095 14.19C14.183 14.082 14.227 13.944 14.227 13.777C14.227 13.568 14.171 13.416 14.06 13.321C13.949 13.226 13.783 13.178 13.562 13.178C13.482 13.178 13.394 13.183 13.299 13.192C13.205 13.199 13.105 13.21 13 13.224L13.119 11.065H14.786V11.761H13.649L13.605 12.536C13.662 12.53 13.715 12.527 13.763 12.525C13.811 12.522 13.856 12.52 13.897 12.52C14.221 12.52 14.474 12.624 14.657 12.833C14.84 13.041 14.931 13.33 14.931 13.699H14.929V13.698ZM10.707 13.235C10.789 13.338 10.83 13.493 10.83 13.702C10.83 13.905 10.786 14.064 10.699 14.18C10.612 14.293 10.493 14.35 10.342 14.35C10.193 14.35 10.073 14.287 9.98001 14.161C9.88901 14.033 9.84401 13.878 9.84401 13.694C9.84401 13.516 9.88901 13.369 9.98001 13.254C10.073 13.137 10.202 13.079 10.368 13.079C10.513 13.079 10.627 13.131 10.707 13.235Z" fill="#202020"/>
</g>
<defs>
<clipPath id="clip0_2515_287">
<rect width="16" height="16" fill="white"/>
</clipPath>
</defs>
</svg>
