<svg width="16" height="16" viewBox="0 0 16 16" fill="none" xmlns="http://www.w3.org/2000/svg">
<path d="M6.00003 8.50025C6.00003 8.77625 5.77603 9.00025 5.50003 9.00025H4.70703L4.85303 9.14625C5.04803 9.34125 5.04803 9.65825 4.85303 9.85325C4.75503 9.95125 4.62703 9.99925 4.49903 9.99925C4.37103 9.99925 4.24303 9.95025 4.14503 9.85325L3.14503 8.85325C2.95003 8.65825 2.95003 8.34125 3.14503 8.14625L4.14503 7.14625C4.34003 6.95125 4.65703 6.95125 4.85203 7.14625C5.04703 7.34125 5.04703 7.65825 4.85203 7.85325L4.70603 7.99925H5.49903C5.77503 7.99925 5.99903 8.22325 5.99903 8.49925L6.00003 8.50025ZM8.14603 11.1462L8.00003 11.2922V10.4992C8.00003 10.2232 7.77603 9.99925 7.50003 9.99925C7.22403 9.99925 7.00003 10.2232 7.00003 10.4992V11.2922L6.85403 11.1462C6.65903 10.9512 6.34203 10.9512 6.14703 11.1462C5.95203 11.3412 5.95203 11.6582 6.14703 11.8532L7.14703 12.8532C7.24503 12.9512 7.37303 12.9992 7.50103 12.9992C7.62903 12.9992 7.75703 12.9502 7.85503 12.8532L8.85503 11.8532C9.05003 11.6582 9.05003 11.3412 8.85503 11.1462C8.66003 10.9512 8.34303 10.9512 8.14803 11.1462H8.14603ZM11.853 8.14625L10.853 7.14625C10.658 6.95125 10.341 6.95125 10.146 7.14625C9.95103 7.34125 9.95103 7.65825 10.146 7.85325L10.292 7.99925H9.49903C9.22303 7.99925 8.99903 8.22325 8.99903 8.49925C8.99903 8.77525 9.22303 8.99925 9.49903 8.99925H10.292L10.146 9.14525C9.95103 9.34025 9.95103 9.65725 10.146 9.85225C10.244 9.95025 10.372 9.99825 10.5 9.99825C10.628 9.99825 10.756 9.94925 10.854 9.85225L11.854 8.85225C12.049 8.65725 12.049 8.34025 11.854 8.14525L11.853 8.14625ZM6.85303 5.85325L6.99903 5.70725V6.50025C6.99903 6.77625 7.22303 7.00025 7.49903 7.00025C7.77503 7.00025 7.99903 6.77625 7.99903 6.50025V5.70725L8.14503 5.85325C8.24303 5.95125 8.37103 5.99925 8.49903 5.99925C8.62703 5.99925 8.75503 5.95025 8.85303 5.85325C9.04803 5.65825 9.04803 5.34125 8.85303 5.14625L7.85303 4.14625C7.65803 3.95125 7.34103 3.95125 7.14603 4.14625L6.14603 5.14625C5.95103 5.34125 5.95103 5.65825 6.14603 5.85325C6.34103 6.04825 6.65803 6.04825 6.85303 5.85325Z" fill="#006CBF"/>
<path d="M12 15H3C1.897 15 1 14.103 1 13V4C1 2.897 1.897 2 3 2H12C13.103 2 14 2.897 14 4V13C14 14.103 13.103 15 12 15ZM3 3C2.448 3 2 3.449 2 4V13C2 13.551 2.448 14 3 14H12C12.552 14 13 13.551 13 13V4C13 3.449 12.552 3 12 3H3Z" fill="#202020"/>
</svg>
