<svg width="16" height="16" viewBox="0 0 16 16" fill="none" xmlns="http://www.w3.org/2000/svg">
<g clip-path="url(#clip0_7202_75320)">
<path d="M2.45209 4.67501C2.53209 4.72101 2.61909 4.74301 2.70409 4.74301C2.87609 4.74301 3.04309 4.65401 3.13609 4.49601C3.28109 4.24801 3.52709 4.07501 3.80409 4.02001H3.80609C3.84709 4.01201 3.88909 4.00601 3.93109 4.00301H3.93509C3.95609 4.00201 3.97809 4.00101 3.99909 4.00101H5.74409C6.02009 4.00101 6.24409 3.77701 6.24409 3.50101C6.24409 3.22501 6.02009 3.00101 5.74409 3.00101H3.99909C3.97009 3.00101 3.94009 3.00101 3.91109 3.00301C3.90209 3.00301 3.89409 3.00301 3.88509 3.00401C3.86009 3.00501 3.83609 3.00701 3.81109 3.01001C3.79866 3.0109 3.78702 3.01257 3.77476 3.01434L3.77009 3.01501C3.76309 3.01601 3.75584 3.01676 3.74859 3.01751C3.74134 3.01826 3.73409 3.01901 3.72709 3.02001C3.68509 3.02601 3.64409 3.03201 3.60309 3.04001C3.5951 3.04201 3.58809 3.04401 3.5811 3.04601C3.0381 3.16301 2.55809 3.50301 2.27209 3.99101C2.13309 4.22901 2.21209 4.53601 2.45109 4.67601L2.45209 4.67501Z" fill="#202020"/>
<path d="M12 5C12.354 5 12.685 5.19 12.864 5.496C12.957 5.654 13.124 5.743 13.296 5.743C13.382 5.743 13.469 5.721 13.548 5.675C13.786 5.535 13.866 5.229 13.727 4.99C13.369 4.38 12.707 4 12 4H11.521C11.245 4 11.021 4.224 11.021 4.5C11.021 4.776 11.245 5 11.521 5H12Z" fill="#202020"/>
<path d="M13.5 6.74901C13.224 6.74901 13 6.97301 13 7.24901V9.29101C13 9.56701 13.224 9.79101 13.5 9.79101C13.776 9.79101 14 9.56701 14 9.29101V7.24901C14 6.97301 13.776 6.74901 13.5 6.74901Z" fill="#202020"/>
<path d="M4.00003 12H4.01903L4.01803 12.001C4.29503 12.001 4.50903 12.225 4.50903 12.501C4.50903 12.777 4.27603 13.001 4.00003 13.001C3.05703 13.001 2.25503 12.359 2.04803 11.44C1.98803 11.171 2.15603 10.904 2.42603 10.843C2.69503 10.777 2.96303 10.951 3.02403 11.221C3.12503 11.672 3.53603 12 4.00003 12Z" fill="#202020"/>
<path d="M9.8783 12H9C8.724 12 8.5 12.224 8.5 12.5C8.5 12.776 8.724 13 9 13H9.939C10.1957 13 10.4074 12.8062 10.4358 12.5571L9.8783 12Z" fill="#202020"/>
<path d="M6.06104 12H7.00004C7.27604 12 7.50004 12.224 7.50004 12.5C7.50004 12.776 7.27604 13 7.00004 13H6.06104C5.78504 13 5.56104 12.776 5.56104 12.5C5.56104 12.224 5.78504 12 6.06104 12Z" fill="#202020"/>
<path d="M3 9.291C3 9.567 2.776 9.791 2.5 9.791C2.224 9.791 2 9.567 2 9.291V8C2 7.724 2.224 7.5 2.5 7.5C2.776 7.5 3 7.724 3 8V9.291Z" fill="#202020"/>
<path d="M2.5 6.5H4C4.276 6.5 4.5 6.276 4.5 6C4.5 5.724 4.276 5.5 4 5.5H2.5C2.224 5.5 2 5.724 2 6C2 6.276 2.224 6.5 2.5 6.5Z" fill="#202020"/>
<path d="M5.89488 5.196C5.68988 5.381 5.67388 5.697 5.85888 5.902C5.95788 6.011 6.09388 6.067 6.22988 6.067C6.34988 6.067 6.46888 6.024 6.56488 5.938L7.60488 5H9.47888C9.75488 5 9.97888 4.776 9.97888 4.5C9.97888 4.224 9.75488 4 9.47888 4H7.43688C7.31188 4 7.19888 4.046 7.11088 4.121C7.07488 4.14 7.04088 4.163 7.00888 4.191L5.89488 5.196Z" fill="#202020"/>
<path d="M15.854 15.146C15.9479 15.2399 16.0007 15.3672 16.0007 15.5C16.0007 15.6328 15.9479 15.7601 15.854 15.854C15.7601 15.9479 15.6328 16.0007 15.5 16.0007C15.3672 16.0007 15.2399 15.9479 15.146 15.854L13 13.707L10.854 15.854C10.7601 15.9479 10.6328 16.0007 10.5 16.0007C10.3672 16.0007 10.2399 15.9479 10.146 15.854C10.0521 15.7601 9.99939 15.6328 9.99939 15.5C9.99939 15.3672 10.0521 15.2399 10.146 15.146L12.293 13L10.146 10.854C10.0521 10.7601 9.99939 10.6328 9.99939 10.5C9.99939 10.3672 10.0521 10.2399 10.146 10.146C10.2399 10.0521 10.3672 9.99939 10.5 9.99939C10.6328 9.99939 10.7601 10.0521 10.854 10.146L13 12.293L15.146 10.146C15.2399 10.0521 15.3672 9.99939 15.5 9.99939C15.6328 9.99939 15.7601 10.0521 15.854 10.146C15.9479 10.2399 16.0007 10.3672 16.0007 10.5C16.0007 10.6328 15.9479 10.7601 15.854 10.854L13.707 13L15.854 15.146Z" fill="#C50F1F"/>
</g>
<defs>
<clipPath id="clip0_7202_75320">
<rect width="16" height="16" fill="white"/>
</clipPath>
</defs>
</svg>
