<svg width="16" height="16" viewBox="0 0 16 16" fill="none" xmlns="http://www.w3.org/2000/svg">
<path d="M11.793 14H4.208C4.075 14 3.948 13.947 3.854 13.854L2.146 12.144C2.053 12.05 2 11.923 2 11.79V4.209C2 4.075 2.054 3.946 2.149 3.853L3.884 2.144C3.978 2.052 4.104 2 4.235 2H11.793C11.926 2 12.053 2.053 12.147 2.146L13.854 3.853C13.948 3.947 14 4.074 14 4.207V11.793C14 11.926 13.947 12.053 13.854 12.147L12.147 13.854C12.053 13.948 11.926 14 11.793 14ZM4.415 13H11.586L13 11.586V4.414L11.586 3H4.44L3 4.418V11.583L4.415 13Z" fill="#202020"/>
<path d="M9.49989 12C9.40124 12.0003 9.30476 11.971 9.22289 11.916C9.1126 11.8425 9.03601 11.7282 9.00995 11.5983C8.98389 11.4683 9.01048 11.3333 9.08389 11.223L9.85089 10.073L6.75689 11.929C6.65558 11.9896 6.53608 12.0125 6.41955 11.9934C6.30302 11.9744 6.19698 11.9148 6.12021 11.8251C6.04344 11.7354 6.00089 11.6214 6.0001 11.5033C5.99931 11.3853 6.04033 11.2707 6.11589 11.18L8.62689 8.16699L4.79089 10.907C4.69198 10.9779 4.5706 11.0103 4.44951 10.9982C4.32841 10.986 4.21591 10.9301 4.1331 10.8409C4.05029 10.7517 4.00285 10.6353 3.99968 10.5137C3.99651 10.392 4.03783 10.2734 4.11589 10.18L7.22689 6.44699L4.75689 7.92899C4.65953 7.98723 4.54526 8.01063 4.43285 7.99535C4.32044 7.98007 4.21657 7.92701 4.13829 7.8449C4.06001 7.76278 4.01199 7.65649 4.0021 7.54348C3.99222 7.43046 4.02106 7.31744 4.08389 7.22299L5.03989 5.78899L4.72389 5.94699C4.60548 6.00518 4.46887 6.01421 4.34382 5.97212C4.21878 5.93003 4.11545 5.84021 4.05634 5.72226C3.99723 5.6043 3.98713 5.46777 4.02826 5.3424C4.06938 5.21704 4.15839 5.11301 4.27589 5.05299L6.27589 4.05299C6.37445 4.00371 6.48654 3.98837 6.59472 4.00936C6.7029 4.03035 6.80112 4.08649 6.8741 4.16905C6.94708 4.25162 6.99075 4.35598 6.99831 4.46592C7.00586 4.57586 6.97689 4.68521 6.91589 4.77699L6.14889 5.92699L9.24289 4.07099C9.3442 4.01035 9.4637 3.98751 9.58023 4.00653C9.69676 4.02555 9.8028 4.08519 9.87957 4.1749C9.95634 4.2646 9.99889 4.37858 9.99968 4.49665C10.0005 4.61472 9.95945 4.72926 9.88389 4.81999L7.37289 7.83299L11.2089 5.09299C11.3078 5.02206 11.4292 4.98965 11.5503 5.00182C11.6714 5.01399 11.7839 5.06991 11.8667 5.15911C11.9495 5.2483 11.9969 5.36463 12.0001 5.4863C12.0033 5.60796 11.9619 5.72661 11.8839 5.81999L8.77289 9.55299L11.2429 8.07099C11.3402 8.01275 11.4545 7.98935 11.5669 8.00463C11.6793 8.01991 11.7832 8.07296 11.8615 8.15508C11.9398 8.23719 11.9878 8.34348 11.9977 8.4565C12.0076 8.56951 11.9787 8.68253 11.9159 8.77699L9.91589 11.777C9.87027 11.8455 9.80843 11.9018 9.73586 11.9407C9.66329 11.9796 9.58223 11.9999 9.49989 12Z" fill="#11910D"/>
</svg>
