<svg width="16" height="16" viewBox="0 0 16 16" fill="none" xmlns="http://www.w3.org/2000/svg">
<path fill-rule="evenodd" clip-rule="evenodd" d="M2 4.5C2 3.11929 3.11929 2 4.5 2H11.5C12.8807 2 14 3.11929 14 4.5V11.5C14 12.8807 12.8807 14 11.5 14H9V13H11.5C12.3284 13 13 12.3284 13 11.5V6H3V7H2V4.5ZM3 5H13V4.5C13 3.67157 12.3284 3 11.5 3H4.5C3.67157 3 3 3.67157 3 4.5V5Z" fill="#202020"/>
<path d="M0 14.75C0 15.0815 0.131696 15.3995 0.366117 15.6339C0.600537 15.8683 0.918479 16 1.25 16H6.75C7.08152 16 7.39946 15.8683 7.63388 15.6339C7.8683 15.3995 8 15.0815 8 14.75V11H0V14.75Z" fill="#202020"/>
<path d="M6.75 8H1.25C0.918479 8 0.600537 8.1317 0.366117 8.36612C0.131696 8.60054 0 8.91848 0 9.25V10H8V9.25C8 8.91848 7.8683 8.60054 7.63388 8.36612C7.39946 8.1317 7.08152 8 6.75 8Z" fill="#202020"/>
</svg>
