<svg width="16" height="16" viewBox="0 0 16 16" fill="none" xmlns="http://www.w3.org/2000/svg">
<path d="M13 11.5C13 11.224 12.776 11 12.5 11C12.224 11 12 11.224 12 11.5V12.75C12 12.816 11.974 12.88 11.927 12.927C11.88 12.974 11.817 13 11.75 13H9.70701L10.353 12.354C10.548 12.159 10.548 11.842 10.353 11.647C10.158 11.452 9.84101 11.452 9.64601 11.647L8.14601 13.147C7.95101 13.342 7.95101 13.659 8.14601 13.854L9.64601 15.354C9.84101 15.549 10.158 15.549 10.353 15.354C10.548 15.159 10.548 14.842 10.353 14.647L9.70701 14.001H11.75C12.082 14.001 12.399 13.869 12.634 13.635C12.868 13.401 13 13.083 13 12.751V11.5Z" fill="#006CBF"/>
<path fill-rule="evenodd" clip-rule="evenodd" d="M5.5 2H12.5C13.881 2 15 3.119 15 4.5V11.5C15 12.316 14.604 13.033 14 13.489V6H4V8H3V4.5C3 3.119 4.119 2 5.5 2ZM4 5H14V4.5C14 3.672 13.328 3 12.5 3H5.5C4.672 3 4 3.672 4 4.5V5Z" fill="#202020"/>
<path fill-rule="evenodd" clip-rule="evenodd" d="M5.5 9C6.327 9 7 9.673 7 10.5V14.5C7 15.327 6.327 16 5.5 16H1.5C0.673 16 0 15.327 0 14.5V10.5C0 9.673 0.673 9 1.5 9H5.5ZM5.5 15C5.775 15 6 14.776 6 14.5V11H1V14.5C1 14.776 1.225 15 1.5 15H5.5Z" fill="#202020"/>
</svg>
