<svg width="16" height="16" viewBox="0 0 16 16" fill="none" xmlns="http://www.w3.org/2000/svg">
<g clip-path="url(#clip0_7202_75392)">
<path d="M3.99952 6.28143C3.99792 6.2157 4.0093 6.15031 4.033 6.08899C4.05639 6.02744 4.0917 5.97112 4.13692 5.92326C4.18213 5.8754 4.23635 5.83694 4.29647 5.81008C4.35658 5.78323 4.42141 5.76852 4.48723 5.76678C4.55304 5.76505 4.61856 5.77634 4.68 5.79999L9 7.46399L11.32 6.57199C11.3813 6.54835 11.4466 6.53701 11.5122 6.53861C11.5779 6.54022 11.6426 6.55474 11.7026 6.58134C11.7626 6.60795 11.8168 6.64611 11.8621 6.69367C11.9074 6.74122 11.9429 6.79722 11.9665 6.85849C11.9901 6.91975 12.0015 6.98507 11.9999 7.05071C11.9983 7.11635 11.9837 7.18104 11.9571 7.24107C11.9305 7.30111 11.8924 7.35531 11.8448 7.40059C11.7973 7.44588 11.7413 7.48135 11.68 7.50499L9.5 8.34299V10.02C9.5 10.1526 9.44732 10.2798 9.35355 10.3735C9.25978 10.4673 9.13261 10.52 9 10.52V9.5C9 8.83696 8.73661 8.20107 8.26777 7.73223C7.79893 7.26339 7.16304 7 6.5 7H5.0063L4.32 6.73599C4.25863 6.7124 4.20252 6.67695 4.15487 6.63165C4.10722 6.58635 4.06897 6.5321 4.04232 6.47201C4.01566 6.41191 4.00111 6.34715 3.99952 6.28143Z" fill="#006CBF"/>
<path d="M2 7V5.79999C1.99997 5.69881 2.03064 5.6 2.08795 5.51662C2.14527 5.43324 2.22653 5.36921 2.321 5.33299L6.821 3.60299C6.93602 3.55763 7.06398 3.55763 7.179 3.60299L13.679 6.10299C13.7736 6.13927 13.855 6.20345 13.9123 6.28703C13.9697 6.37061 14.0002 6.46964 14 6.57099V10.2C13.9999 10.3009 13.9693 10.3994 13.9122 10.4825C13.8551 10.5657 13.7741 10.6297 13.68 10.666L9.18 12.398C9.12206 12.4202 9.06102 12.4312 9 12.4311V12.5C9.00006 12.8169 8.93994 13.1284 8.82522 13.4188C9.06542 13.4472 9.31084 13.4172 9.54 13.329L14.039 11.6C14.3211 11.4899 14.5636 11.2975 14.7349 11.0479C14.9063 10.7982 14.9987 10.5028 15 10.2V6.57099C14.9984 6.26809 14.9059 5.97265 14.7344 5.72301C14.5628 5.47336 14.3202 5.28104 14.038 5.17099L7.538 2.67099C7.19098 2.53798 6.80702 2.53798 6.46 2.67099L1.96 4.40199C1.67849 4.51223 1.43652 4.70438 1.26538 4.95361C1.09424 5.20283 1.00179 5.49766 1 5.79999V7.0505C1.16335 7.01715 1.33079 7 1.5 7H2Z" fill="#006CBF"/>
<path d="M5.5 16C5.56551 15.9997 5.63035 15.9868 5.691 15.962C5.78244 15.9242 5.8606 15.8601 5.91561 15.7779C5.97061 15.6957 5.99998 15.5989 6 15.5V14H6.5C6.89782 14 7.27936 13.842 7.56066 13.5607C7.84196 13.2794 8 12.8978 8 12.5V9.5C8 9.10218 7.84196 8.72064 7.56066 8.43934C7.27936 8.15804 6.89782 8 6.5 8H1.5C1.10218 8 0.720644 8.15804 0.43934 8.43934C0.158035 8.72064 0 9.10218 0 9.5V12.5C0 12.8978 0.158035 13.2794 0.43934 13.5607C0.720644 13.842 1.10218 14 1.5 14H3.293L5.146 15.854C5.19252 15.9004 5.24773 15.9372 5.30847 15.9622C5.36921 15.9873 5.4343 16.0001 5.5 16ZM6.5 9C6.63261 9 6.75979 9.05268 6.85355 9.14645C6.94732 9.24021 7 9.36739 7 9.5V12.5C7 12.6326 6.94732 12.7598 6.85355 12.8536C6.75979 12.9473 6.63261 13 6.5 13H5.5C5.36739 13 5.24021 13.0527 5.14645 13.1464C5.05268 13.2402 5 13.3674 5 13.5V14.293L3.854 13.146C3.80748 13.0996 3.75227 13.0628 3.69153 13.0378C3.63079 13.0127 3.5657 12.9999 3.5 13H1.5C1.36739 13 1.24021 12.9473 1.14645 12.8536C1.05268 12.7598 1 12.6326 1 12.5V9.5C1 9.36739 1.05268 9.24021 1.14645 9.14645C1.24021 9.05268 1.36739 9 1.5 9H6.5Z" fill="#202020"/>
</g>
<defs>
<clipPath id="clip0_7202_75392">
<rect width="16" height="16" fill="white"/>
</clipPath>
</defs>
</svg>
