<svg width="16" height="16" viewBox="0 0 16 16" fill="none" xmlns="http://www.w3.org/2000/svg">
<g clip-path="url(#clip0_7202_75482)">
<path d="M10.49 6.49C10.685 6.685 10.685 7.002 10.49 7.197H10.491L7.83396 9.854C7.63896 10.049 7.32196 10.049 7.12696 9.854L5.62696 8.354C5.43196 8.159 5.43196 7.842 5.62696 7.647C5.82196 7.452 6.13896 7.452 6.33396 7.647L7.47996 8.793L9.78296 6.49C9.97796 6.295 10.295 6.295 10.49 6.49Z" fill="#11910D"/>
<path d="M12.3411 8.02579C12.1929 8.07547 12.0756 8.19278 12.0258 8.34101L12.3411 8.02579Z" fill="#202020"/>
<path d="M7.63449 12.998C7.58981 12.9993 7.54497 13 7.49998 13C5.01898 13 2.99998 10.981 2.99998 8.50001C2.99998 6.01901 5.01898 4.00001 7.49998 4.00001H10.293L9.64698 4.64601C9.45198 4.84101 9.45198 5.15801 9.64698 5.35301C9.74498 5.45101 9.87298 5.49901 10.001 5.49901C10.129 5.49901 10.257 5.45001 10.355 5.35301L11.855 3.85301C12.05 3.65801 12.05 3.34101 11.855 3.14601L10.355 1.64601C10.16 1.45101 9.84298 1.45101 9.64798 1.64601C9.45298 1.84101 9.45298 2.15801 9.64798 2.35301L10.294 2.99901H7.50098C4.46898 2.99901 2.00098 5.46701 2.00098 8.49901C2.00098 11.4601 4.35497 13.8833 7.28936 13.995L7.34103 13.7863C7.40951 13.5122 7.50819 13.2479 7.63449 12.998Z" fill="#202020"/>
<path d="M15.5449 8.45393C15.2519 8.16159 14.8549 7.99741 14.4409 7.99741C14.027 7.99741 13.63 8.16159 13.3369 8.45393L9.04895 12.7414C8.69299 13.0975 8.44065 13.5437 8.31895 14.0322L8.01895 15.2431C7.99361 15.3451 7.99509 15.452 8.02324 15.5533C8.0514 15.6546 8.10528 15.747 8.17964 15.8213C8.25401 15.8957 8.34633 15.9495 8.44766 15.9777C8.54899 16.0058 8.65588 16.0073 8.75795 15.982L9.96895 15.682C10.4572 15.5598 10.9031 15.3071 11.2589 14.9511L15.5479 10.6637C15.6931 10.5185 15.8081 10.3461 15.8865 10.1564C15.9649 9.96672 16.0051 9.76343 16.0049 9.55817C16.0046 9.35292 15.9638 9.14973 15.8849 8.96025C15.806 8.77077 15.6905 8.59872 15.5449 8.45393V8.45393Z" fill="#006CBF"/>
</g>
<defs>
<clipPath id="clip0_7202_75482">
<rect width="16" height="16" fill="white"/>
</clipPath>
</defs>
</svg>
