<svg width="16" height="16" viewBox="0 0 16 16" fill="none" xmlns="http://www.w3.org/2000/svg">
<path d="M8.64658 8.11342C9.48947 7.14696 10 5.8831 10 4.5C10 3.63021 9.7981 2.80757 9.4386 2.07641C9.61646 2.0267 9.80461 2 10 2C11.299 2 12.279 3.18 12.039 4.457L11.184 9.017C11.077 9.587 10.58 10 10 10C9.42 10 8.923 9.587 8.816 9.017L8.64658 8.11342Z" fill="#202020"/>
<path d="M10 14C10.828 14 11.5 13.328 11.5 12.5C11.5 11.672 10.828 11 10 11C9.172 11 8.5 11.672 8.5 12.5C8.5 13.328 9.172 14 10 14Z" fill="#202020"/>
<path fill-rule="evenodd" clip-rule="evenodd" d="M9 4.5C9 6.98528 6.98528 9 4.5 9C2.01472 9 0 6.98528 0 4.5C0 2.01472 2.01472 0 4.5 0C6.98528 0 9 2.01472 9 4.5ZM4.5 2C4.77614 2 5 2.22386 5 2.5V4H6.5C6.77614 4 7 4.22386 7 4.5C7 4.77614 6.77614 5 6.5 5H5V6.5C5 6.77614 4.77614 7 4.5 7C4.22386 7 4 6.77614 4 6.5V5H2.5C2.22386 5 2 4.77614 2 4.5C2 4.22386 2.22386 4 2.5 4H4V2.5C4 2.22386 4.22386 2 4.5 2Z" fill="#11910D"/>
</svg>
