<svg width="16" height="16" viewBox="0 0 16 16" fill="none" xmlns="http://www.w3.org/2000/svg">
<g clip-path="url(#clip0_7202_75368)">
<path fill-rule="evenodd" clip-rule="evenodd" d="M7.99994 7.50003V6.99994H5.70694L4.20694 8.49994C4.01941 8.68741 3.7651 8.79273 3.49994 8.79273C3.23478 8.79273 2.98047 8.68741 2.79294 8.49994L1.49994 7.20694C1.31247 7.01941 1.20715 6.7651 1.20715 6.49994C1.20715 6.23478 1.31247 5.98047 1.49994 5.79294L4.79294 2.49994C4.98047 2.31247 5.23478 2.20715 5.49994 2.20715C5.7651 2.20715 6.01941 2.31247 6.20694 2.49994L7.49994 3.79294C7.68741 3.98047 7.79273 4.23478 7.79273 4.49994C7.79273 4.7651 7.68741 5.01941 7.49994 5.20694L6.70694 5.99994H11.2929L11.7929 5.49994C11.9805 5.31247 12.2348 5.20715 12.4999 5.20715C12.7651 5.20715 13.0194 5.31247 13.2069 5.49994L13.9999 6.29294C14.1874 6.48047 14.2927 6.73478 14.2927 6.99994C14.2927 6.99996 14.2927 6.99992 14.2927 6.99994L13.2929 7L12.4999 6.20694L11.7069 7H10.3629C10.3629 6.99998 10.3629 7.00002 10.3629 7L8.99994 6.99994V7.05051C8.63809 7.12439 8.29633 7.27772 7.99994 7.50003ZM2.20694 6.49994L3.49994 7.79294L6.79294 4.49994L5.49994 3.20694L2.20694 6.49994Z" fill="#B27C00"/>
<path d="M10.5 16C10.4345 15.9997 10.3696 15.9868 10.309 15.962C10.2176 15.9242 10.1394 15.8601 10.0844 15.7779C10.0294 15.6957 10 15.5989 10 15.5V14H9.5C9.10218 14 8.72064 13.842 8.43934 13.5607C8.15804 13.2794 8 12.8978 8 12.5V9.5C8 9.10218 8.15804 8.72064 8.43934 8.43934C8.72064 8.15804 9.10218 8 9.5 8H14.5C14.8978 8 15.2794 8.15804 15.5607 8.43934C15.842 8.72064 16 9.10218 16 9.5V12.5C16 12.8978 15.842 13.2794 15.5607 13.5607C15.2794 13.842 14.8978 14 14.5 14H12.707L10.854 15.854C10.8075 15.9004 10.7523 15.9372 10.6915 15.9622C10.6308 15.9873 10.5657 16.0001 10.5 16ZM9.5 9C9.36739 9 9.24021 9.05268 9.14645 9.14645C9.05268 9.24021 9 9.36739 9 9.5V12.5C9 12.6326 9.05268 12.7598 9.14645 12.8536C9.24021 12.9473 9.36739 13 9.5 13H10.5C10.6326 13 10.7598 13.0527 10.8536 13.1464C10.9473 13.2402 11 13.3674 11 13.5V14.293L12.146 13.146C12.1925 13.0996 12.2477 13.0628 12.3085 13.0378C12.3692 13.0127 12.4343 12.9999 12.5 13H14.5C14.6326 13 14.7598 12.9473 14.8536 12.8536C14.9473 12.7598 15 12.6326 15 12.5V9.5C15 9.36739 14.9473 9.24021 14.8536 9.14645C14.7598 9.05268 14.6326 9 14.5 9H9.5Z" fill="#202020"/>
</g>
<defs>
<clipPath id="clip0_7202_75368">
<rect width="16" height="16" fill="white"/>
</clipPath>
</defs>
</svg>
