<svg width="16" height="16" viewBox="0 0 16 16" fill="none" xmlns="http://www.w3.org/2000/svg">
<g clip-path="url(#clip0_7202_75402)">
<path d="M4.04031 5.30305C4.14909 5.04923 4.44303 4.93166 4.69684 5.04043L7.99988 6.45602L11.3029 5.04043C11.5567 4.93166 11.8507 5.04923 11.9595 5.30305C12.0682 5.55686 11.9507 5.8508 11.6968 5.95958L8.49988 7.3297V10.5C8.49988 10.7761 8.27603 11 7.99988 11C7.72374 11 7.49988 10.7761 7.49988 10.5V7.3297L4.30292 5.95958C4.04911 5.8508 3.93153 5.55686 4.04031 5.30305Z" fill="#5C2E91"/>
<path d="M6.92306 1.37855C7.61627 1.11193 8.38373 1.11193 9.07694 1.37855L14.0385 3.28683C14.6178 3.50964 15 4.06619 15 4.68685V7.0576C14.8156 7.01576 14.6257 6.99417 14.4335 6.99417C14.2873 6.99417 14.1423 7.00669 14 7.03112V4.68685C14 4.47997 13.8726 4.29445 13.6795 4.22018L8.71796 2.3119C8.25582 2.13415 7.74418 2.13415 7.28204 2.3119L2.32051 4.22018C2.12741 4.29445 2 4.47997 2 4.68685V11.3133C2 11.5201 2.12741 11.7057 2.32051 11.7799L7.28204 13.6882C7.30764 13.6981 7.33339 13.7074 7.35927 13.7161C7.35297 13.7394 7.34689 13.7628 7.34103 13.7863L7.1176 14.6888C7.05219 14.6687 6.98731 14.6463 6.92306 14.6216L1.96153 12.7133C1.38224 12.4905 1 11.9339 1 11.3133V4.68685C1 4.06619 1.38224 3.50964 1.96153 3.28683L6.92306 1.37855Z" fill="#5C2E91"/>
<path d="M15.5449 8.45393C15.2519 8.16159 14.8549 7.99741 14.4409 7.99741C14.027 7.99741 13.63 8.16159 13.3369 8.45393L9.04895 12.7414C8.69299 13.0975 8.44065 13.5437 8.31895 14.0322L8.01895 15.2431C7.99361 15.3451 7.99509 15.452 8.02324 15.5533C8.0514 15.6546 8.10528 15.747 8.17964 15.8213C8.25401 15.8957 8.34633 15.9495 8.44766 15.9777C8.54899 16.0058 8.65588 16.0073 8.75795 15.982L9.96895 15.682C10.4572 15.5598 10.9031 15.3071 11.2589 14.9511L15.5479 10.6637C15.6931 10.5185 15.8081 10.3461 15.8865 10.1564C15.9649 9.96672 16.0051 9.76343 16.0049 9.55817C16.0046 9.35292 15.9638 9.14973 15.8849 8.96025C15.806 8.77077 15.6905 8.59872 15.5449 8.45393V8.45393Z" fill="#202020"/>
</g>
<defs>
<clipPath id="clip0_7202_75402">
<rect width="16" height="16" fill="white"/>
</clipPath>
</defs>
</svg>
