<svg width="16" height="16" viewBox="0 0 16 16" fill="none" xmlns="http://www.w3.org/2000/svg">
<g clip-path="url(#clip0_7202_75422)">
<path fill-rule="evenodd" clip-rule="evenodd" d="M10.9999 1C8.79074 1 6.99988 2.79086 6.99988 5C6.99988 5.31279 7.03588 5.61771 7.1041 5.91061L2.05327 11.1453C1.24087 11.9872 1.32876 13.3455 2.24288 14.0757C3.03691 14.7101 4.18171 14.6425 4.89565 13.9192L9.90214 8.84736C10.2514 8.94684 10.6198 9 10.9999 9C11.1298 9 11.2582 8.99381 11.3849 8.98171L12.623 7.74401C13.1032 7.2639 13.7545 6.99417 14.4335 6.99417C14.445 6.99417 14.4565 6.99425 14.468 6.99441C14.8063 6.40732 14.9999 5.72627 14.9999 5C14.9999 4.49138 14.9047 4.0038 14.7307 3.55493C14.6697 3.39732 14.5331 3.28125 14.3677 3.24637C14.2023 3.2115 14.0305 3.26254 13.911 3.38207L12.0001 5.29302L10.7072 4.00012L12.6182 2.08904C12.7377 1.96953 12.7888 1.79773 12.7539 1.63235C12.719 1.46698 12.603 1.3304 12.4454 1.26931C11.9964 1.09524 11.5087 1 10.9999 1ZM7.99988 5C7.99988 3.34315 9.34302 2 10.9999 2C11.0945 2 11.1879 2.00436 11.2802 2.01289L9.64654 3.64658C9.45128 3.84185 9.45129 4.15842 9.64655 4.35368L11.6465 6.35368C11.7403 6.44745 11.8675 6.50013 12.0001 6.50013C12.1327 6.50013 12.2599 6.44745 12.3537 6.35368L13.987 4.72023C13.9955 4.81228 13.9999 4.9056 13.9999 5C13.9999 6.65685 12.6567 8 10.9999 8C10.6261 8 10.2693 7.93186 9.94059 7.80777C9.75568 7.73797 9.54701 7.78364 9.40817 7.9243L4.18397 13.2167C3.82954 13.5758 3.26122 13.6093 2.86703 13.2944C2.41322 12.9319 2.36959 12.2576 2.77289 11.8396L8.02098 6.40054C8.14821 6.26869 8.19312 6.07781 8.13804 5.90305C8.0484 5.61868 7.99988 5.31548 7.99988 5Z" fill="#202020"/>
<path d="M15.5449 8.45393C15.2519 8.16159 14.8549 7.99741 14.4409 7.99741C14.027 7.99741 13.63 8.16159 13.3369 8.45393L9.04895 12.7414C8.69299 13.0975 8.44065 13.5437 8.31895 14.0322L8.01895 15.2431C7.99361 15.3451 7.99509 15.452 8.02324 15.5533C8.0514 15.6546 8.10528 15.747 8.17964 15.8213C8.25401 15.8957 8.34633 15.9495 8.44766 15.9777C8.54899 16.0058 8.65588 16.0073 8.75795 15.982L9.96895 15.682C10.4572 15.5598 10.9031 15.3071 11.2589 14.9511L15.5479 10.6637C15.6931 10.5185 15.8081 10.3461 15.8865 10.1564C15.9649 9.96672 16.0051 9.76343 16.0049 9.55817C16.0046 9.35292 15.9638 9.14973 15.8849 8.96025C15.806 8.77077 15.6905 8.59872 15.5449 8.45393V8.45393Z" fill="#202020"/>
</g>
<defs>
<clipPath id="clip0_7202_75422">
<rect width="16" height="16" fill="white"/>
</clipPath>
</defs>
</svg>
