<svg width="16" height="16" viewBox="0 0 16 16" fill="none" xmlns="http://www.w3.org/2000/svg">
<g clip-path="url(#clip0_7202_75364)">
<path fill-rule="evenodd" clip-rule="evenodd" d="M8.38136 11.9857C8.29313 11.9641 8.21166 11.9188 8.14639 11.8535C8.05262 11.7597 7.99994 11.6325 7.99994 11.4999V6.99994H5.70694L4.20694 8.49994C4.01941 8.68741 3.7651 8.79273 3.49994 8.79273C3.23478 8.79273 2.98047 8.68741 2.79294 8.49994L1.49994 7.20694C1.31247 7.01941 1.20715 6.7651 1.20715 6.49994C1.20715 6.23478 1.31247 5.98047 1.49994 5.79294L4.79294 2.49994C4.98047 2.31247 5.23478 2.20715 5.49994 2.20715C5.7651 2.20715 6.01941 2.31247 6.20694 2.49994L7.49994 3.79294C7.68741 3.98047 7.79273 4.23478 7.79273 4.49994C7.79273 4.7651 7.68741 5.01941 7.49994 5.20694L6.70694 5.99994H11.2929L11.7929 5.49994C11.9805 5.31247 12.2348 5.20715 12.4999 5.20715C12.7651 5.20715 13.0194 5.31247 13.2069 5.49994L13.9999 6.29294C14.1872 6.48023 14.2925 6.73413 14.2927 6.99893C13.665 7.03348 13.0699 7.29811 12.623 7.74499L11.3314 9.03636C11.3183 9.02459 11.3055 9.01245 11.2929 8.99994L10.4999 8.20694C10.3458 8.04983 10.2486 7.84571 10.2238 7.62701C10.1989 7.40832 10.2479 7.1876 10.3629 6.99994H8.99994V10.9999H9.36732L8.38136 11.9857ZM2.20694 6.49994L3.49994 7.79294L6.79294 4.49994L5.49994 3.20694L2.20694 6.49994ZM11.9999 8.29294L13.2929 6.99994L12.4999 6.20694L11.2069 7.49994L11.9999 8.29294Z" fill="#B27C00"/>
<path d="M15.5449 8.455C15.2519 8.16262 14.8549 7.99841 14.4409 7.99841C14.027 7.99841 13.63 8.16262 13.3369 8.455L9.04895 12.743C8.69299 13.0991 8.44065 13.5454 8.31895 14.034L8.01895 15.245C7.99361 15.3471 7.99509 15.454 8.02324 15.5553C8.0514 15.6566 8.10528 15.7489 8.17964 15.8233C8.25401 15.8977 8.34633 15.9515 8.44766 15.9797C8.54899 16.0079 8.65588 16.0093 8.75795 15.984L9.96895 15.684C10.4572 15.5617 10.9031 15.309 11.2589 14.953L15.5479 10.665C15.6931 10.5198 15.8081 10.3474 15.8865 10.1577C15.9649 9.96798 16.0051 9.76466 16.0049 9.55938C16.0046 9.3541 15.9638 9.15089 15.8849 8.96138C15.806 8.77188 15.6905 8.5998 15.5449 8.455Z" fill="#202020"/>
</g>
<defs>
<clipPath id="clip0_7202_75364">
<rect width="16" height="16" fill="white"/>
</clipPath>
</defs>
</svg>
