<svg width="16" height="16" viewBox="0 0 16 16" fill="none" xmlns="http://www.w3.org/2000/svg">
<g clip-path="url(#clip0_7202_75554)">
<path fill-rule="evenodd" clip-rule="evenodd" d="M3 2C2.44772 2 2 2.44772 2 3V6C2 6.55228 2.44772 7 3 7H6C6.55228 7 7 6.55228 7 6V3C7 2.44772 6.55228 2 6 2H3ZM6 3H3L3 6H6V3Z" fill="#8661C5"/>
<path fill-rule="evenodd" clip-rule="evenodd" d="M9 2C8.44772 2 8 2.44772 8 3V6C8 6.55228 8.44772 7 9 7H12C12.5523 7 13 6.55228 13 6V3C13 2.44772 12.5523 2 12 2H9ZM12 3H9V6H12V3Z" fill="#8661C5"/>
<path d="M3 8C2.44772 8 2 8.44772 2 9V12C2 12.5523 2.44771 13 3 13H8.02746C8.00932 12.8358 8 12.669 8 12.5C8 12.331 8.00932 12.1642 8.02746 12H3L3 9H9.67133C10.3616 8.44142 11.2205 8.08291 12.1597 8.01268C12.1077 8.00433 12.0543 8 12 8H3Z" fill="#8661C5"/>
<path fill-rule="evenodd" clip-rule="evenodd" d="M12.5 16C14.433 16 16 14.433 16 12.5C16 10.567 14.433 9 12.5 9C10.567 9 9 10.567 9 12.5C9 14.433 10.567 16 12.5 16ZM15 12.5C15 13.8807 13.8807 15 12.5 15C11.9905 15 11.5165 14.8476 11.1213 14.5858L14.5858 11.1213C14.8476 11.5165 15 11.9905 15 12.5ZM10.4142 13.8787L13.8787 10.4142C13.4835 10.1524 13.0095 10 12.5 10C11.1193 10 10 11.1193 10 12.5C10 13.0095 10.1524 13.4835 10.4142 13.8787Z" fill="#202020"/>
</g>
<defs>
<clipPath id="clip0_7202_75554">
<rect width="16" height="16" fill="white"/>
</clipPath>
</defs>
</svg>
