<svg width="16" height="16" viewBox="0 0 16 16" fill="none" xmlns="http://www.w3.org/2000/svg">
<path d="M4.5 2C3.119 2 2 3.119 2 4.5V11.5C2 12.881 3.119 14 4.5 14H11.5C12.881 14 14 12.881 14 11.5V4.5C14 3.119 12.881 2 11.5 2H4.5ZM13 5H3V4.5C3 3.672 3.672 3 4.5 3H11.5C12.328 3 13 3.672 13 4.5V5ZM3 6H13V11.5C13 12.328 12.328 13 11.5 13H4.5C3.672 13 3 12.328 3 11.5V6Z" fill="#202020"/>
<path d="M5 8.5V7.5C5 7.224 5.224 7 5.5 7H6.5C6.776 7 7 7.224 7 7.5V8.5C7 8.776 6.776 9 6.5 9H5.5C5.224 9 5 8.776 5 8.5ZM10.5 7H9.5C9.224 7 9 7.224 9 7.5V8.5C9 8.776 9.224 9 9.5 9H10.5C10.776 9 11 8.776 11 8.5V7.5C11 7.224 10.776 7 10.5 7ZM10.5 10H5.5C5.224 10 5 10.224 5 10.5V11.5C5 11.776 5.224 12 5.5 12H10.5C10.776 12 11 11.776 11 11.5V10.5C11 10.224 10.776 10 10.5 10Z" fill="#5C2E91"/>
</svg>
