<svg width="16" height="16" viewBox="0 0 16 16" fill="none" xmlns="http://www.w3.org/2000/svg">
<path fill-rule="evenodd" clip-rule="evenodd" d="M3 2C2.44772 2 2 2.44772 2 3V6C2 6.55228 2.44772 7 3 7H6C6.55228 7 7 6.55228 7 6V3C7 2.44772 6.55228 2 6 2H3ZM6 3H3L3 6H6V3Z" fill="#8661C5"/>
<path fill-rule="evenodd" clip-rule="evenodd" d="M9 2C8.44772 2 8 2.44772 8 3V6C8 6.378 8.20973 6.70701 8.51917 6.87703C9.37802 6.32211 10.4014 6 11.5 6C12.0126 6 12.5089 6.07014 12.9797 6.20134C12.993 6.1363 13 6.06897 13 6V3C13 2.44772 12.5523 2 12 2H9ZM11.5 6H9V3H12V6H11.5Z" fill="#8661C5"/>
<path d="M7.25716 8H3C2.44772 8 2 8.44772 2 9V12C2 12.5523 2.44771 13 3 13H6.20703C6.11588 12.6777 6.05337 12.3434 6.02242 12H3L3 9H6.59971C6.78261 8.64222 7.00353 8.30711 7.25716 8Z" fill="#8661C5"/>
<path fill-rule="evenodd" clip-rule="evenodd" d="M11.5 16C13.9853 16 16 13.9853 16 11.5C16 9.01472 13.9853 7 11.5 7C9.01472 7 7 9.01472 7 11.5C7 13.9853 9.01472 16 11.5 16ZM13.3536 10.3536C13.5488 10.1583 13.5488 9.84171 13.3536 9.64645C13.1583 9.45118 12.8417 9.45118 12.6464 9.64645L11.5 10.7929L10.3536 9.64645C10.1583 9.45118 9.84171 9.45118 9.64645 9.64645C9.45118 9.84171 9.45118 10.1583 9.64645 10.3536L10.7929 11.5L9.64645 12.6464C9.45118 12.8417 9.45118 13.1583 9.64645 13.3536C9.84171 13.5488 10.1583 13.5488 10.3536 13.3536L11.5 12.2071L12.6464 13.3536C12.8417 13.5488 13.1583 13.5488 13.3536 13.3536C13.5488 13.1583 13.5488 12.8417 13.3536 12.6464L12.2071 11.5L13.3536 10.3536Z" fill="#C50F1F"/>
</svg>
