<svg width="16" height="16" viewBox="0 0 16 16" fill="none" xmlns="http://www.w3.org/2000/svg">
<path fill-rule="evenodd" clip-rule="evenodd" d="M8.5 8H11.5C11.776 8 12 7.776 12 7.5V4.5C12 4.224 11.776 4 11.5 4H8.5C8.224 4 8 4.224 8 4.5V7.5C8 7.776 8.224 8 8.5 8ZM11 7H9V5H11V7Z" fill="#202020"/>
<path d="M11.5 9C11.776 9 12 9.224 12 9.5C12 9.776 11.776 10 11.5 10H8.5C8.224 10 8 9.776 8 9.5C8 9.224 8.224 9 8.5 9H11.5Z" fill="#202020"/>
<path d="M11.5 11C11.776 11 12 11.224 12 11.5C12 11.776 11.776 12 11.5 12H8.5C8.224 12 8 11.776 8 11.5C8 11.224 8.224 11 8.5 11H11.5Z" fill="#202020"/>
<path d="M7 4.5V7.5C7 7.776 6.776 8 6.5 8C6.224 8 6 7.776 6 7.5V4.5C6 4.224 6.224 4 6.5 4C6.776 4 7 4.224 7 4.5Z" fill="#202020"/>
<path d="M5 4.5V7.5C5 7.776 4.776 8 4.5 8C4.224 8 4 7.776 4 7.5V4.5C4 4.224 4.224 4 4.5 4C4.776 4 5 4.224 5 4.5Z" fill="#202020"/>
<path fill-rule="evenodd" clip-rule="evenodd" d="M4.5 12H6.5C6.776 12 7 11.776 7 11.5V9.5C7 9.224 6.776 9 6.5 9H4.5C4.224 9 4 9.224 4 9.5V11.5C4 11.776 4.224 12 4.5 12ZM6 11H5V10H6V11Z" fill="#202020"/>
<path fill-rule="evenodd" clip-rule="evenodd" d="M3.75 2C2.783 2 2 2.783 2 3.75V12.25C2 13.217 2.783 14 3.75 14H12.25C13.217 14 14 13.217 14 12.25V3.75C14 2.783 13.217 2 12.25 2H3.75ZM3 3.75C3 3.336 3.336 3 3.75 3H12.25C12.664 3 13 3.336 13 3.75V12.25C13 12.664 12.664 13 12.25 13H3.75C3.336 13 3 12.664 3 12.25V3.75Z" fill="#202020"/>
</svg>
