<svg width="16" height="16" viewBox="0 0 16 16" fill="none" xmlns="http://www.w3.org/2000/svg">
<path d="M14.5 15H1.5C1.224 15 1 14.776 1 14.5V10.5C1 10.367 1.053 10.24 1.146 10.146L3.146 8.14599C3.31 7.98299 3.563 7.95399 3.756 8.07099L5.818 9.30799L7.564 6.25099C7.637 6.12399 7.761 6.03499 7.905 6.00799C8.049 5.97999 8.196 6.01799 8.311 6.10899L10.385 7.76899L14.082 2.22299C14.204 2.03999 14.431 1.95599 14.643 2.02199C14.854 2.08599 14.998 2.27999 14.998 2.50099V14.501C14.998 14.777 14.774 15.001 14.498 15.001L14.5 15ZM2 14H14V4.15099L10.916 8.77699C10.838 8.89399 10.715 8.97199 10.577 8.99399C10.435 9.01499 10.298 8.97799 10.187 8.88999L8.144 7.25499L6.434 10.248C6.367 10.365 6.256 10.45 6.125 10.483C5.996 10.52 5.857 10.497 5.742 10.428L3.576 9.12899L1.999 10.706V13.999L2 14Z" fill="#202020"/>
</svg>
