<svg width="16" height="16" viewBox="0 0 16 16" fill="none" xmlns="http://www.w3.org/2000/svg">
<g clip-path="url(#clip0_7202_75600)">
<path d="M15.8501 13.85L13.8501 15.85C13.805 15.8975 13.7507 15.9352 13.6905 15.961C13.6304 15.9868 13.5656 16.0002 13.5001 16.0002C13.4347 16.0002 13.3699 15.9868 13.3097 15.961C13.2495 15.9352 13.1952 15.8975 13.1501 15.85C13.1027 15.8049 13.0649 15.7506 13.0391 15.6904C13.0133 15.6303 13 15.5655 13 15.5C13 15.4345 13.0133 15.3698 13.0391 15.3096C13.0649 15.2494 13.1027 15.1951 13.1501 15.15L14.2901 14L9.50012 14C9.36751 14 9.24034 13.9473 9.14657 13.8536C9.0528 13.7598 9.00012 13.6326 9.00012 13.5C9.00012 13.3674 9.0528 13.2402 9.14657 13.1465C9.24034 13.0527 9.36751 13 9.50012 13L14.2901 13L13.1501 11.85C13.0588 11.7569 13.008 11.6315 13.0087 11.501C13.0093 11.3706 13.0614 11.2457 13.1536 11.1535C13.2459 11.0613 13.3707 11.0092 13.5012 11.0086C13.6316 11.0079 13.757 11.0587 13.8501 11.15L15.8501 13.15C15.8976 13.1951 15.9353 13.2494 15.9612 13.3096C15.987 13.3698 16.0003 13.4345 16.0003 13.5C16.0003 13.5655 15.987 13.6303 15.9612 13.6904C15.9353 13.7506 15.8976 13.8049 15.8501 13.85Z" fill="#202020"/>
<path fill-rule="evenodd" clip-rule="evenodd" d="M12.7068 10.2288C12.6393 10.2145 12.57 10.2072 12.4999 10.2072C12.2348 10.2072 11.9805 10.3125 11.7929 10.4999L11.2929 10.9999H8.99994V6.99994H10.3629C10.2479 7.1876 10.1989 7.40832 10.2238 7.62701C10.2486 7.84571 10.3458 8.04983 10.4999 8.20694L11.2929 8.99994C11.4805 9.18741 11.7348 9.29273 11.9999 9.29273C12.2651 9.29273 12.5194 9.18741 12.7069 8.99994L13.9999 7.70694C14.1874 7.51941 14.2927 7.2651 14.2927 6.99994C14.2927 6.73478 14.1874 6.48047 13.9999 6.29294L13.2069 5.49994C13.0194 5.31247 12.7651 5.20715 12.4999 5.20715C12.2348 5.20715 11.9805 5.31247 11.7929 5.49994L11.2929 5.99994H6.70694L7.49994 5.20694C7.68741 5.01941 7.79273 4.7651 7.79273 4.49994C7.79273 4.23478 7.68741 3.98047 7.49994 3.79294L6.20694 2.49994C6.01941 2.31247 5.7651 2.20715 5.49994 2.20715C5.23478 2.20715 4.98047 2.31247 4.79294 2.49994L1.49994 5.79294C1.31247 5.98047 1.20715 6.23478 1.20715 6.49994C1.20715 6.7651 1.31247 7.01941 1.49994 7.20694L2.79294 8.49994C2.98047 8.68741 3.23478 8.79273 3.49994 8.79273C3.7651 8.79273 4.01941 8.68741 4.20694 8.49994L5.70694 6.99994H7.99994V11.4999C7.99994 11.6325 8.05262 11.7597 8.14639 11.8535C8.24015 11.9473 8.36733 11.9999 8.49994 11.9999H10.3629C10.363 11.9999 10.3629 12 10.3629 11.9999L11.7068 12L12.013 11.6939C12.0046 11.6297 12.0002 11.565 12 11.5C12.0002 11.2989 12.0412 11.0999 12.1207 10.9151C12.2001 10.7303 12.3162 10.5636 12.462 10.425C12.5365 10.3508 12.6186 10.2851 12.7068 10.2288ZM2.20694 6.49994L3.49994 7.79294L6.79294 4.49994L5.49994 3.20694L2.20694 6.49994ZM11.9999 8.29294L13.2929 6.99994L12.4999 6.20694L11.2069 7.49994L11.9999 8.29294Z" fill="#B27C00"/>
</g>
<defs>
<clipPath id="clip0_7202_75600">
<rect width="16" height="16" fill="white"/>
</clipPath>
</defs>
</svg>
