<svg width="16" height="16" viewBox="0 0 16 16" fill="none" xmlns="http://www.w3.org/2000/svg">
<g clip-path="url(#clip0_7202_75640)">
<path fill-rule="evenodd" clip-rule="evenodd" d="M10.9999 1C8.79074 1 6.99988 2.79086 6.99988 5C6.99988 5.31279 7.03588 5.61771 7.10411 5.91061L2.05327 11.1453C1.24088 11.9872 1.32876 13.3455 2.24288 14.0757C3.03692 14.7101 4.18171 14.6425 4.89566 13.9192L9.90214 8.84736C10.2514 8.94684 10.6198 9 10.9999 9C13.209 9 14.9999 7.20914 14.9999 5C14.9999 4.49138 14.9047 4.0038 14.7307 3.55493C14.6697 3.39732 14.5331 3.28125 14.3677 3.24637C14.2023 3.2115 14.0305 3.26254 13.911 3.38207L12.0001 5.29302L10.7072 4.00012L12.6182 2.08904C12.7377 1.96953 12.7888 1.79773 12.7539 1.63235C12.719 1.46698 12.603 1.3304 12.4454 1.26931C11.9964 1.09524 11.5087 1 10.9999 1ZM7.99988 5C7.99988 3.34315 9.34303 2 10.9999 2C11.0945 2 11.188 2.00436 11.2802 2.01289L9.64654 3.64658C9.45129 3.84185 9.45129 4.15842 9.64655 4.35368L11.6466 6.35368C11.7403 6.44745 11.8675 6.50013 12.0001 6.50013C12.1327 6.50013 12.2599 6.44745 12.3537 6.35368L13.987 4.72023C13.9955 4.81228 13.9999 4.9056 13.9999 5C13.9999 6.65685 12.6567 8 10.9999 8C10.6261 8 10.2693 7.93186 9.94059 7.80777C9.75569 7.73797 9.54701 7.78364 9.40817 7.9243L4.18398 13.2167C3.82954 13.5758 3.26122 13.6093 2.86703 13.2944C2.41322 12.9319 2.36959 12.2576 2.7729 11.8396L8.02099 6.40054C8.14821 6.26869 8.19313 6.07781 8.13804 5.90305C8.04841 5.61868 7.99988 5.31548 7.99988 5Z" fill="#202020"/>
<path d="M13.85 15.85C13.805 15.897 13.751 15.935 13.69 15.961C13.63 15.987 13.565 16 13.5 16C13.435 16 13.37 15.987 13.31 15.961C13.25 15.935 13.196 15.897 13.15 15.85C13.103 15.805 13.065 15.751 13.039 15.69C13.013 15.63 13 15.565 13 15.5C13 15.435 13.013 15.37 13.039 15.31C13.065 15.25 13.103 15.196 13.15 15.15L14.29 14H9.5C9.367 14 9.24 13.947 9.146 13.854C9.052 13.761 9 13.633 9 13.5C9 13.367 9.053 13.24 9.146 13.146C9.24 13.052 9.367 13 9.5 13H14.29L13.15 11.85C13.059 11.757 13.008 11.631 13.009 11.501C13.009 11.371 13.062 11.246 13.154 11.153C13.246 11.061 13.371 11.009 13.502 11.008C13.632 11.008 13.758 11.058 13.851 11.149L15.851 13.149C15.898 13.194 15.936 13.248 15.962 13.309C15.988 13.369 16.001 13.434 16.001 13.499C16.001 13.564 15.988 13.629 15.962 13.689C15.936 13.749 15.898 13.803 15.851 13.849L13.85 15.85Z" fill="#006CBF"/>
</g>
<defs>
<clipPath id="clip0_7202_75640">
<rect width="16" height="16" fill="white"/>
</clipPath>
</defs>
</svg>
