<svg width="16" height="16" viewBox="0 0 16 16" fill="none" xmlns="http://www.w3.org/2000/svg">
<g clip-path="url(#clip0_7202_75650)">
<path fill-rule="evenodd" clip-rule="evenodd" d="M7.65638 3.44928C7.61979 3.49331 7.58061 3.53529 7.539 3.57497L6.95343 4.16054L7.29289 4.5L5.93934 5.85355C5.84557 5.94732 5.71839 6 5.58579 6H4.53307C4.52294 6.00011 4.5128 6.00011 4.50266 6H2V4.5C2 4.32467 2.03008 4.15637 2.08536 3.99997H1.05002C1.01722 4.16153 1 4.32876 1 4.5V11.5C1 12.8807 2.11929 14 3.5 14H12.5C13.8807 14 15 12.8807 15 11.5V6.5C15 5.11929 13.8807 4 12.5 4H8.20711L7.65638 3.44928ZM2 11.5V7H5.58579C5.98361 7 6.36514 6.84197 6.64645 6.56066L8.20711 5H12.5C13.3284 5 14 5.67157 14 6.5V11.5C14 12.3284 13.3284 13 12.5 13H3.5C2.67157 13 2 12.3284 2 11.5Z" fill="#B27C00"/>
<path d="M6.85 2.85003L4.85 4.85003C4.80488 4.89747 4.75059 4.93524 4.69042 4.96106C4.63026 4.98687 4.56547 5.00018 4.5 5.00018C4.43453 5.00018 4.36974 4.98687 4.30958 4.96106C4.24941 4.93524 4.19512 4.89747 4.15 4.85003C4.10256 4.80491 4.06478 4.75062 4.03897 4.69045C4.01316 4.63028 3.99985 4.5655 3.99985 4.50003C3.99985 4.43456 4.01316 4.36977 4.03897 4.3096C4.06478 4.24944 4.10256 4.19515 4.15 4.15003L5.29 3.00003H0.5C0.367392 3.00003 0.240215 2.94735 0.146447 2.85358C0.0526784 2.75981 0 2.63264 0 2.50003C0 2.36742 0.0526784 2.24024 0.146447 2.14647C0.240215 2.05271 0.367392 2.00003 0.5 2.00003H5.29L4.15 0.850028C4.10256 0.804911 4.06478 0.750619 4.03897 0.690452C4.01316 0.630285 3.99985 0.565498 3.99985 0.500028C3.99985 0.434558 4.01316 0.369771 4.03897 0.309604C4.06478 0.249437 4.10256 0.195146 4.15 0.150028C4.19512 0.102586 4.24941 0.0648117 4.30958 0.0389999C4.36974 0.0131882 4.43453 -0.00012207 4.5 -0.00012207C4.56547 -0.00012207 4.63026 0.0131882 4.69042 0.0389999C4.75059 0.0648117 4.80488 0.102586 4.85 0.150028L6.85 2.15003C6.89744 2.19515 6.93522 2.24944 6.96103 2.3096C6.98684 2.36977 7.00015 2.43456 7.00015 2.50003C7.00015 2.5655 6.98684 2.63028 6.96103 2.69045C6.93522 2.75062 6.89744 2.80491 6.85 2.85003V2.85003Z" fill="#006CBF"/>
</g>
<defs>
<clipPath id="clip0_7202_75650">
<rect width="16" height="16" fill="white"/>
</clipPath>
</defs>
</svg>
