<svg width="16" height="16" viewBox="0 0 16 16" fill="none" xmlns="http://www.w3.org/2000/svg">
<g clip-path="url(#clip0_7202_75630)">
<path d="M4.04031 5.30305C4.14909 5.04923 4.44303 4.93166 4.69684 5.04043L7.99988 6.45602L11.3029 5.04043C11.5567 4.93166 11.8507 5.04923 11.9595 5.30305C12.0682 5.55686 11.9507 5.8508 11.6968 5.95958L8.49988 7.3297V10.5C8.49988 10.7761 8.27603 11 7.99988 11C7.72374 11 7.49988 10.7761 7.49988 10.5V7.3297L4.30292 5.95958C4.04911 5.8508 3.93153 5.55686 4.04031 5.30305Z" fill="#5C2E91"/>
<path d="M6.92306 1.37855C7.61627 1.11193 8.38373 1.11193 9.07694 1.37855L14.0385 3.28683C14.6178 3.50964 15 4.06619 15 4.68685V10.886L14.576 10.462C14.437 10.316 14.27 10.2 14.085 10.121C14.057 10.1091 14.0286 10.0979 14 10.0877V4.68685C14 4.47997 13.8726 4.29445 13.6795 4.22018L8.71796 2.3119C8.25582 2.13415 7.74418 2.13415 7.28204 2.3119L2.32051 4.22018C2.12741 4.29445 2 4.47997 2 4.68685V11.3133C2 11.5201 2.12741 11.7057 2.32051 11.7799L7.28204 13.6882C7.52411 13.7813 7.77976 13.8256 8.03477 13.8212C8.09567 14.0991 8.23488 14.3562 8.439 14.561C8.50889 14.6307 8.58486 14.6927 8.66566 14.7467C8.08838 14.8781 7.48161 14.8364 6.92306 14.6216L1.96153 12.7133C1.38224 12.4905 1 11.9339 1 11.3133V4.68685C1 4.06619 1.38224 3.50964 1.96153 3.28683L6.92306 1.37855Z" fill="#5C2E91"/>
<path d="M13.85 15.85C13.805 15.897 13.751 15.935 13.69 15.961C13.63 15.987 13.565 16 13.5 16C13.435 16 13.37 15.987 13.31 15.961C13.25 15.935 13.196 15.897 13.15 15.85C13.103 15.805 13.065 15.751 13.039 15.69C13.013 15.63 13 15.565 13 15.5C13 15.435 13.013 15.37 13.039 15.31C13.065 15.25 13.103 15.196 13.15 15.15L14.29 14H9.5C9.367 14 9.24 13.947 9.146 13.854C9.052 13.761 9 13.633 9 13.5C9 13.367 9.053 13.24 9.146 13.146C9.24 13.052 9.367 13 9.5 13H14.29L13.15 11.85C13.059 11.757 13.008 11.631 13.009 11.501C13.009 11.371 13.062 11.246 13.154 11.153C13.246 11.061 13.371 11.009 13.502 11.008C13.632 11.008 13.758 11.058 13.851 11.149L15.851 13.149C15.898 13.194 15.936 13.248 15.962 13.309C15.988 13.369 16.001 13.434 16.001 13.499C16.001 13.564 15.988 13.629 15.962 13.689C15.936 13.749 15.898 13.803 15.851 13.849L13.85 15.85Z" fill="#006CBF"/>
</g>
<defs>
<clipPath id="clip0_7202_75630">
<rect width="16" height="16" fill="white"/>
</clipPath>
</defs>
</svg>
