<svg width="16" height="16" viewBox="0 0 16 16" fill="none" xmlns="http://www.w3.org/2000/svg">
<path d="M6.49997 1H11.5C13.43 1 15 2.57 15 4.5V7.5C15 8.15 14.58 8.71 14 8.91V4.5C14 3.12 12.88 2 11.5 2H5.08997C5.28997 1.42 5.84997 1 6.49997 1Z" fill="#202020"/>
<path fill-rule="evenodd" clip-rule="evenodd" d="M11 14H14.5C14.633 14 14.76 14.052 14.854 14.146C14.947 14.24 15 14.367 15 14.5C15 14.633 14.948 14.76 14.854 14.854C14.76 14.947 14.633 15 14.5 15H11V15.5C11 15.633 10.948 15.76 10.854 15.854C10.76 15.947 10.633 16 10.5 16H5.5C5.367 16 5.24 15.948 5.146 15.854C5.053 15.76 5 15.633 5 15.5V15H1.5C1.367 15 1.24 14.948 1.146 14.854C1.053 14.76 1 14.633 1 14.5C1 14.367 1.052 14.24 1.146 14.146C1.24 14.053 1.367 14 1.5 14H5V13.5C5 13.367 5.052 13.24 5.146 13.146C5.24 13.053 5.367 13 5.5 13H6V12.5C6 12.367 6.052 12.24 6.146 12.146C6.24 12.053 6.367 12 6.5 12H7.511L7.504 11H4.5C3.673 11 3 10.327 3 9.5V4.5C3 3.673 3.673 3 4.5 3H11.5C12.327 3 13 3.673 13 4.5V9.5C13 10.327 12.327 11 11.5 11H8.504L8.511 12H9.5C9.633 12 9.76 12.052 9.854 12.146C9.947 12.24 10 12.367 10 12.5V13H10.5C10.633 13 10.76 13.052 10.854 13.146C10.947 13.24 11 13.367 11 13.5V14ZM4.5 4C4.224 4 4 4.224 4 4.5V5.175L8 6.953L12 5.175V4.5C12 4.224 11.776 4 11.5 4H4.5ZM4 6.27V9.5C4 9.776 4.224 10 4.5 10H11.5C11.776 10 12 9.776 12 9.5V6.27L8.203 7.958C8.139 7.987 8.069 8.001 8 8.001C7.931 8.001 7.861 7.987 7.797 7.958L4 6.27ZM6.5 14H6V15H10V14H9.5C9.367 14 9.24 13.948 9.146 13.854C9.053 13.76 9 13.633 9 13.5V13H7V13.5C7 13.633 6.948 13.76 6.854 13.854C6.76 13.947 6.633 14 6.5 14Z" fill="#202020"/>
</svg>
