<svg width="16" height="16" viewBox="0 0 16 16" fill="none" xmlns="http://www.w3.org/2000/svg">
<path d="M9.5 6H2.5C1.673 6 1 6.673 1 7.5V12.5C1 13.327 1.673 14 2.5 14H9.5C10.327 14 11 13.327 11 12.5V7.5C11 6.673 10.327 6 9.5 6ZM10 12.5C10 12.776 9.776 13 9.5 13H2.5C2.224 13 2 12.776 2 12.5V7.5C2 7.224 2.224 7 2.5 7H9.5C9.776 7 10 7.224 10 7.5V12.5ZM15 7.5V8.5C15 9.15 14.58 9.71 14 9.91V7.5C14 5.02 11.98 3 9.5 3H5.09C5.29 2.42 5.85 2 6.5 2H9.5C12.53 2 15 4.47 15 7.5ZM13 7.5V10.5C13 11.15 12.58 11.71 12 11.91V7.5C12 6.12 10.88 5 9.5 5H3.09C3.29 4.42 3.85 4 4.5 4H9.5C11.43 4 13 5.57 13 7.5ZM4 9H3V8H4V9ZM6 9H5V8H6V9ZM4 11H3V10H4V11ZM6 11H5V10H6V11ZM8 11H7V10H8V11Z" fill="#202020"/>
</svg>
