<svg width="16" height="16" viewBox="0 0 16 16" fill="none" xmlns="http://www.w3.org/2000/svg">
<g clip-path="url(#clip0_7202_75701)">
<path d="M3.00083 7.91446C3.15706 7.96983 3.32508 7.99998 3.5 7.99998C3.67553 7.99998 3.84417 7.96969 4.00092 7.91406C4.00031 7.94267 4 7.97132 4 8C4 9.06087 4.42142 10.0783 5.17157 10.8284C5.92078 11.5776 6.93661 11.999 7.99605 12L7.89785 12.9988C6.60926 12.971 5.37945 12.447 4.46622 11.5338C3.52888 10.5964 3.00159 9.32559 3 8C3.00003 7.97146 3.00031 7.94295 3.00083 7.91446Z" fill="#202020"/>
<path d="M12.5349 10.1011C12.8376 9.44888 12.9991 8.73281 13 8C12.9984 6.67441 12.4711 5.40355 11.5338 4.46622C10.5964 3.52888 9.32559 3.00159 8 3C7.97131 3.00003 7.94264 3.00032 7.914 3.00084C7.96968 3.15737 8 3.32574 8 3.50098C8 3.67614 7.96984 3.84444 7.91441 4.00092C7.94291 4.00031 7.97144 4 8 4C9.06087 4 10.0783 4.42142 10.8284 5.17157C11.4119 5.75503 11.7965 6.50018 11.9386 7.3017C11.9592 7.31283 11.9798 7.32425 12.0001 7.33598C12.344 7.53523 12.5948 7.86282 12.6974 8.24681C12.7999 8.6308 12.7459 9.03979 12.5471 9.38398C12.3978 9.64358 12.1742 9.85255 11.9051 9.98398L11.9141 10.01L12.1281 10.021C12.2673 10.0331 12.4036 10.0602 12.5349 10.1011Z" fill="#202020"/>
<path fill-rule="evenodd" clip-rule="evenodd" d="M6.1014 7.04214C6.31522 6.96962 6.5135 6.84799 6.684 6.68098C7.11464 6.24851 7.22678 5.6154 7.01965 5.079C7.17298 5.02716 7.33509 5 7.5 5C7.89783 5 8.27935 5.15804 8.56065 5.43935C8.84196 5.72065 9 6.10218 9 6.5C9 6.89782 8.84196 7.27935 8.56065 7.56065C8.27935 7.84196 7.89783 8 7.5 8C7.10218 8 6.72065 7.84196 6.43935 7.56065C6.29044 7.41175 6.17607 7.23476 6.1014 7.04214ZM7.14645 6.14645C7.24022 6.05269 7.36739 6 7.5 6C7.63261 6 7.75978 6.05269 7.85355 6.14645C7.94731 6.24022 8 6.36739 8 6.5C8 6.63261 7.94731 6.75978 7.85355 6.85355C7.75978 6.94731 7.63261 7 7.5 7C7.36739 7 7.24022 6.94731 7.14645 6.85355C7.05269 6.75978 7 6.63261 7 6.5C7 6.36739 7.05269 6.24022 7.14645 6.14645Z" fill="#202020"/>
<path d="M4.70502 3L5.97302 1.732C6.16802 1.537 6.16802 1.22 5.97302 1.025C5.77802 0.83 5.46102 0.83 5.26602 1.025L3.99802 2.293V0.5C3.99802 0.224 3.77402 0 3.49802 0C3.22202 0 2.99802 0.224 2.99802 0.5V2.293L1.73002 1.025C1.53502 0.83 1.21802 0.83 1.02302 1.025C0.828024 1.22 0.828024 1.537 1.02302 1.732L2.29102 3H0.499023C0.223023 3 -0.000976562 3.224 -0.000976562 3.5C-0.000976562 3.776 0.223023 4 0.499023 4H2.29102L1.02302 5.268C0.828024 5.463 0.828024 5.78 1.02302 5.975C1.12102 6.073 1.24902 6.121 1.37702 6.121C1.50502 6.121 1.63302 6.072 1.73102 5.975L2.99902 4.707V6.5C2.99902 6.776 3.22302 7 3.49902 7C3.77502 7 3.99902 6.776 3.99902 6.5V4.707L5.26702 5.975C5.36502 6.073 5.49302 6.121 5.62102 6.121C5.74902 6.121 5.87702 6.072 5.97502 5.975C6.17002 5.78 6.17002 5.463 5.97502 5.268L4.70702 4H6.49902C6.77502 4 6.99902 3.776 6.99902 3.5C6.99902 3.224 6.77502 3 6.49902 3H4.70502Z" fill="#006CBF"/>
<path d="M15.354 14.6L15.24 14.713C15.1516 14.8033 15.0461 14.8751 14.9298 14.9244C14.8134 14.9736 14.6884 14.9993 14.562 15C14.5341 15.0015 14.506 15.0015 14.478 15C14.3393 14.9882 14.2048 14.9463 14.0839 14.8772C13.963 14.8081 13.8586 14.7135 13.778 14.6L13.19 13.776L12.1 14.854C12.0062 14.9479 11.8788 15.0006 11.746 15.0006C11.6133 15.0006 11.4859 14.9479 11.392 14.854C11.2982 14.7601 11.2454 14.6328 11.2454 14.5C11.2454 14.3672 11.2982 14.2399 11.392 14.146L12.592 12.946L11.918 12L11.854 12.107C11.7599 12.1982 11.6336 12.2488 11.5025 12.2478C11.3714 12.2469 11.2459 12.1945 11.1531 12.1019C11.0603 12.0093 11.0075 11.884 11.0062 11.7529C11.0049 11.6218 11.0551 11.4954 11.146 11.401L11.246 11.301C11.3452 11.1991 11.4659 11.1209 11.5994 11.0721C11.7329 11.0233 11.8756 11.0051 12.017 11.019C12.1575 11.0298 12.294 11.0713 12.4168 11.1403C12.5396 11.2094 12.6458 11.3045 12.728 11.419L13.31 12.234L14.4 11.146C14.4939 11.0521 14.6213 10.9994 14.754 10.9994C14.8868 10.9994 15.0142 11.0521 15.108 11.146C15.2019 11.2399 15.2547 11.3672 15.2547 11.5C15.2547 11.6328 15.2019 11.7601 15.108 11.854L13.908 13.054L14.594 14.014L14.651 13.896C14.6975 13.8495 14.7527 13.8126 14.8135 13.7875C14.8742 13.7623 14.9393 13.7494 15.005 13.7494C15.0708 13.7494 15.1359 13.7623 15.1966 13.7875C15.2574 13.8126 15.3125 13.8495 15.359 13.896C15.4055 13.9425 15.4424 13.9977 15.4676 14.0584C15.4927 14.1191 15.5057 14.1842 15.5057 14.25C15.5057 14.3157 15.4927 14.3808 15.4676 14.4416C15.4424 14.5023 15.4055 14.5575 15.359 14.604L15.354 14.6ZM10.5 9.99999H10.2L10.254 9.44999C10.2662 9.36895 10.2974 9.29196 10.3452 9.22536C10.3929 9.15876 10.4558 9.10447 10.5287 9.06697C10.6016 9.02946 10.6823 9.00981 10.7643 9.00964C10.8462 9.00948 10.927 9.02879 11 9.06599C11.0569 9.09934 11.1198 9.12111 11.1852 9.13004C11.2505 9.13898 11.317 9.1349 11.3807 9.11804C11.4445 9.10119 11.5042 9.07189 11.5566 9.03184C11.609 8.99178 11.6529 8.94176 11.6859 8.88466C11.7189 8.82755 11.7402 8.76449 11.7487 8.6991C11.7572 8.63371 11.7527 8.56728 11.7354 8.50365C11.7182 8.44001 11.6885 8.38042 11.6481 8.32831C11.6077 8.27619 11.5574 8.23258 11.5 8.19999C11.2827 8.07451 11.0374 8.00554 10.7866 7.99941C10.5357 7.99328 10.2873 8.05018 10.0642 8.1649C9.84098 8.27962 9.65015 8.4485 9.50914 8.65606C9.36814 8.86363 9.28146 9.10325 9.25704 9.35299L9.19404 9.99999H8.75004C8.61743 9.99999 8.49025 10.0527 8.39648 10.1464C8.30272 10.2402 8.25004 10.3674 8.25004 10.5C8.25004 10.6326 8.30272 10.7598 8.39648 10.8535C8.49025 10.9473 8.61743 11 8.75004 11H9.10004L8.75204 14.55C8.73775 14.6388 8.70055 14.7223 8.64413 14.7923C8.58771 14.8623 8.51401 14.9163 8.43031 14.9491C8.34661 14.982 8.2558 14.9924 8.16684 14.9794C8.07788 14.9664 7.99385 14.9304 7.92304 14.875C7.82307 14.7911 7.69424 14.7496 7.56409 14.7594C7.43393 14.7691 7.31276 14.8294 7.22645 14.9274C7.14015 15.0253 7.09556 15.1531 7.10221 15.2834C7.10886 15.4138 7.16622 15.5364 7.26204 15.625C7.46915 15.8077 7.72268 15.9296 7.99468 15.9774C8.26669 16.0252 8.5466 15.997 8.80358 15.8958C9.06056 15.7947 9.28464 15.6246 9.45111 15.4042C9.61758 15.1839 9.71998 14.9218 9.74704 14.647L10.1 11H10.5C10.6326 11 10.7598 10.9473 10.8536 10.8535C10.9474 10.7598 11 10.6326 11 10.5C11 10.3674 10.9474 10.2402 10.8536 10.1464C10.7598 10.0527 10.6326 9.99999 10.5 9.99999Z" fill="#202020"/>
</g>
<defs>
<clipPath id="clip0_7202_75701">
<rect width="16" height="16" fill="white"/>
</clipPath>
</defs>
</svg>
