<svg width="16" height="16" viewBox="0 0 16 16" fill="none" xmlns="http://www.w3.org/2000/svg">
<path d="M12.0001 4.91C12.0001 4.26 11.7301 3.61 11.2701 3.15L9.85009 1.73C9.38009 1.26 8.75009 1 8.09009 1H6.09009C6.29009 0.42 6.85009 0 7.50009 0H8.09009C9.02009 0 9.90009 0.36 10.5601 1.03L11.9701 2.44C12.6301 3.09 13.0001 3.99 13.0001 4.91V7.5C13.0001 8.15 12.5801 8.71 12.0001 8.91V4.91Z" fill="#202020"/>
<path fill-rule="evenodd" clip-rule="evenodd" d="M14.5 14C14.633 14 14.76 14.052 14.854 14.146C14.947 14.24 15 14.367 15 14.5C15 14.633 14.948 14.76 14.854 14.854C14.76 14.947 14.633 15 14.5 15H11V15.5C11 15.633 10.948 15.76 10.854 15.854C10.76 15.947 10.633 16 10.5 16H5.5C5.367 16 5.24 15.948 5.146 15.854C5.053 15.76 5 15.633 5 15.5V15H1.5C1.367 15 1.24 14.948 1.146 14.854C1.053 14.76 1 14.633 1 14.5C1 14.367 1.052 14.24 1.146 14.146C1.24 14.053 1.367 14 1.5 14H5V13.5C5 13.367 5.052 13.24 5.146 13.146C5.24 13.053 5.367 13 5.5 13H6V12.5C6 12.367 6.052 12.24 6.146 12.146C6.24 12.053 6.367 12 6.5 12H7.511L7.504 11H5.5C4.673 11 4 10.327 4 9.5V3.5C4 2.673 4.673 2 5.5 2H8.086C8.487 2 8.864 2.156 9.147 2.439L10.561 3.853C10.84 4.133 11 4.519 11 4.914V9.5C11 10.327 10.327 11 9.5 11H8.504L8.511 12H9.5C9.633 12 9.76 12.052 9.854 12.146C9.947 12.24 10 12.367 10 12.5V13H10.5C10.633 13 10.76 13.052 10.854 13.146C10.947 13.24 11 13.367 11 13.5V14H14.5ZM5 3.5V9.5C5 9.775 5.224 10 5.5 10H9.5C9.776 10 10 9.775 10 9.5V4.914C10 4.782 9.947 4.653 9.854 4.56L8.44 3.146C8.346 3.054 8.217 3 8.086 3H5.5C5.224 3 5 3.225 5 3.5ZM6 15H10V14H9.5C9.367 14 9.24 13.948 9.146 13.854C9.053 13.76 9 13.633 9 13.5V13H7V13.5C7 13.633 6.948 13.76 6.854 13.854C6.76 13.947 6.633 14 6.5 14H6V15Z" fill="#202020"/>
</svg>
