<svg width="16" height="16" viewBox="0 0 16 16" fill="none" xmlns="http://www.w3.org/2000/svg">
<path d="M8.5 1H12.5C13.327 1 14 1.673 14 2.5V5.5H13.985C13.696 5.286 13.365 5.125 13 5.051V2.5C13 2.224 12.776 2 12.5 2H8.5C8.224 2 8 2.224 8 2.5V5H7V2.5C7 1.673 7.673 1 8.5 1Z" fill="#202020"/>
<path d="M9 3H10V4H9V3Z" fill="#202020"/>
<path d="M11 4V5H10V4H11Z" fill="#202020"/>
<path d="M11 4V3H12V4H11Z" fill="#202020"/>
<path d="M5 8H4V9H5V10H4V11H5V10H6V9H7V8H6V9H5V8Z" fill="#202020"/>
<path fill-rule="evenodd" clip-rule="evenodd" d="M14 7.5C14 6.673 13.327 6 12.5 6H3.5C2.673 6 2 6.673 2 7.5V12.5C2 13.327 2.673 14 3.5 14H12.5C13.327 14 14 13.327 14 12.5V7.5ZM13 12.5C13 12.776 12.776 13 12.5 13H3.5C3.224 13 3 12.776 3 12.5V7.5C3 7.224 3.224 7 3.5 7H12.5C12.776 7 13 7.224 13 7.5V12.5Z" fill="#202020"/>
</svg>
