<svg width="16" height="16" viewBox="0 0 16 16" fill="none" xmlns="http://www.w3.org/2000/svg">
<path d="M7.49998 10.5C8.53698 10.5 9.42698 9.868 9.80498 8.968C9.70598 8.988 9.60398 9 9.50098 9C9.23798 9 8.98798 8.926 8.76498 8.8C8.49898 9.22 8.03398 9.5 7.49998 9.5C6.67198 9.5 5.99998 8.828 5.99998 8V4.5C5.99998 3.672 6.67198 3 7.49998 3C7.88598 3 8.23498 3.15 8.50098 3.39C8.77398 3.144 9.11998 3.004 9.48998 3.001C9.03398 2.397 8.31598 2 7.49998 2C6.11898 2 4.99998 3.119 4.99998 4.5V8C4.99998 9.381 6.11898 10.5 7.49998 10.5ZM11.44 8.561L11.001 8.122L10.987 8.136C10.914 10.005 9.38698 11.501 7.50098 11.501C5.56798 11.501 4.00098 9.934 4.00098 8.001C4.00098 7.725 3.77698 7.501 3.50098 7.501C3.22498 7.501 3.00098 7.725 3.00098 8.001C3.00098 10.317 4.75098 12.225 7.00098 12.473V13.501C7.00098 13.777 7.22498 14.001 7.50098 14.001C7.77698 14.001 8.00098 13.777 8.00098 13.501V12.473C9.95898 12.257 11.535 10.783 11.912 8.879C11.738 8.805 11.578 8.699 11.441 8.561H11.44Z" fill="#202020"/>
<path d="M9.14698 4.14576C9.34198 3.95076 9.65898 3.95076 9.85398 4.14576L11.001 5.29176L12.147 4.14576C12.342 3.95076 12.659 3.95076 12.854 4.14576C13.049 4.34076 13.049 4.65776 12.854 4.85276L11.708 5.99876L12.854 7.14476C13.049 7.33976 13.049 7.65676 12.854 7.85176C12.659 8.04676 12.342 8.04676 12.147 7.85176L11.001 6.70576L9.85398 7.85176C9.65898 8.04676 9.34198 8.04676 9.14698 7.85176C8.95198 7.65676 8.95198 7.33976 9.14698 7.14476L10.294 5.99876L9.14698 4.85276C8.95198 4.65776 8.95198 4.34076 9.14698 4.14576Z" fill="#C50F1F"/>
</svg>
