<svg viewBox="0 0 16 16" fill="none" xmlns="http://www.w3.org/2000/svg">
<g opacity="0.75">
<path opacity="0.1" d="M0.5 8.5H6.5V14.5H0.5V8.5ZM8.5 0.5V6.5H14.5V0.5H8.5Z" fill="#1F1F1F"/>
<path d="M0.5 8L0 8.5V14.5L0.5 15H6.5L7 14.5V8.5L6.5 8H0.5ZM6 14H1V9H6V14ZM14.5 0H8.5L8 0.5V6.5L8.5 7H14.5L15 6.5V0.5L14.5 0ZM14 6H9V1H14V6Z" fill="#1F1F1F"/>
</g>
<g opacity="0.1">
<path d="M15 8.5V10.948L14 11.967V9L14.5 8L15 8.5ZM6 1V3.967L7 2.948V0.5L6.5 0L6 1Z" fill="#1F1F1F"/>
</g>
<path opacity="0.1" d="M0 7.5L0.5 8H6.5L7 7.5V6.5L6.5 7H0.5L0 6.5V7.5ZM8 15.5L8.5 16H14.5L15 15.5V14.5L14.5 15H8.5L8 14.5V15.5Z" fill="#1F1F1F"/>
<path opacity="0.1" d="M5.047 1H6V3.967L6.5 3.5V6.5H0.5V0.5H5.538L5.047 1ZM13.047 9H14V11.967L14.5 11.5V14.5H8.5V8.5H13.538L13.047 9Z" fill="#1F1F1F"/>
<path d="M6 3.967L7 2.948V6.5L6.5 7H0.5L0 6.5V0.5L0.5 0H6.5L7 0.5L6.988 1.859L3.846 5H3.135L1.8 3.624L2.514 2.924L3.5 3.936L6 1.432V1H1V6H6V3.967ZM14 11.967L15 10.948V14.5L14.5 15H8.5L8 14.5V8.5L8.5 8H14.5L15 8.5L14.988 9.859L11.846 13H11.135L9.8 11.624L10.514 10.924L11.501 11.935L14.001 9.435V9H9V14H14V11.967Z" fill="#1F1F1F"/>
</svg>
