<svg width="16" height="16" viewBox="0 0 16 16" fill="none" xmlns="http://www.w3.org/2000/svg">
<g clip-path="url(#clip0_7202_81682)">
<path d="M3 4C3 2.89543 3.89543 2 5 2C5.27614 2 5.5 2.22386 5.5 2.5C5.5 2.77614 5.27614 3 5 3C4.44772 3 4 3.44772 4 4L4.00003 6.063C4.00033 6.51001 4.00065 6.971 3.83912 7.37408C3.74199 7.61645 3.59646 7.82057 3.40072 8.00002C3.59654 8.17962 3.74212 8.384 3.83924 8.6268C4.00065 9.03033 4.00033 9.49235 4.00003 9.94145L4 12C4 12.5523 4.44772 13 5 13C5.27614 13 5.5 13.2239 5.5 13.5C5.5 13.7761 5.27614 14 5 14C3.89543 14 3 13.1046 3 12L3 10C3 9.46732 2.99233 9.20211 2.91076 8.99819C2.84809 8.84151 2.71569 8.66685 2.27638 8.44719C2.10699 8.36249 2 8.18935 2 7.99997C2 7.81058 2.10701 7.63745 2.2764 7.55276C2.71576 7.33309 2.84826 7.15835 2.91088 7.00209C2.99231 6.79889 3 6.53494 3 6.00469V4Z" fill="#202020"/>
<path d="M13 4C13 2.89543 12.1046 2 11 2C10.7239 2 10.5 2.22386 10.5 2.5C10.5 2.77614 10.7239 3 11 3C11.5523 3 12 3.44772 12 4L12 6.063C11.9997 6.51001 11.9993 6.971 12.1609 7.37408C12.258 7.61645 12.4035 7.82057 12.5993 8.00002L12.5982 8.00105C13.0669 8.01108 13.518 8.09279 13.941 8.23566C13.979 8.16445 14 8.0838 14 7.99997C14 7.81058 13.893 7.63745 13.7236 7.55276C13.2842 7.33309 13.1517 7.15835 13.0891 7.00209C13.0077 6.79889 13 6.53494 13 6.00469V4Z" fill="#202020"/>
<path fill-rule="evenodd" clip-rule="evenodd" d="M12.5 16C14.433 16 16 14.433 16 12.5C16 10.567 14.433 9 12.5 9C10.567 9 9 10.567 9 12.5C9 14.433 10.567 16 12.5 16ZM15 12.5C15 13.8807 13.8807 15 12.5 15C11.9905 15 11.5165 14.8476 11.1213 14.5858L14.5858 11.1213C14.8476 11.5165 15 11.9905 15 12.5ZM10.4142 13.8787L13.8787 10.4142C13.4835 10.1524 13.0095 10 12.5 10C11.1193 10 10 11.1193 10 12.5C10 13.0095 10.1524 13.4835 10.4142 13.8787Z" fill="#202020"/>
</g>
<defs>
<clipPath id="clip0_7202_81682">
<rect width="16" height="16" fill="white"/>
</clipPath>
</defs>
</svg>
