<svg width="16" height="16" viewBox="0 0 16 16" fill="none" xmlns="http://www.w3.org/2000/svg">
<path d="M3 4C3 2.89543 3.89543 2 5 2C5.27614 2 5.5 2.22386 5.5 2.5C5.5 2.77614 5.27614 3 5 3C4.44772 3 4 3.44772 4 4L4.00003 6.063C4.00033 6.51001 4.00065 6.971 3.83912 7.37408C3.74199 7.61645 3.59646 7.82057 3.40072 8.00002C3.59654 8.17962 3.74212 8.384 3.83924 8.6268C4.00065 9.03033 4.00033 9.49235 4.00003 9.94145L4 12C4 12.5523 4.44772 13 5 13C5.27614 13 5.5 13.2239 5.5 13.5C5.5 13.7761 5.27614 14 5 14C3.89543 14 3 13.1046 3 12L3 10C3 9.46732 2.99233 9.20211 2.91076 8.99819C2.84809 8.84151 2.71569 8.66685 2.27638 8.44719C2.10699 8.36249 2 8.18935 2 7.99997C2 7.81058 2.10701 7.63745 2.2764 7.55276C2.71576 7.33309 2.84826 7.15835 2.91088 7.00209C2.99231 6.79889 3 6.53494 3 6.00469V4Z" fill="#202020"/>
<path d="M13 4C13 2.89543 12.1046 2 11 2C10.7239 2 10.5 2.22386 10.5 2.5C10.5 2.77614 10.7239 3 11 3C11.5523 3 12 3.44772 12 4L12 6.063C11.9998 6.37673 11.9995 6.69735 12.0553 7H13.0883C13.0076 6.79708 13 6.53313 13 6.00469V4Z" fill="#202020"/>
<path fill-rule="evenodd" clip-rule="evenodd" d="M10 8C8.89543 8 8 8.89543 8 10V14C8 15.1046 8.89543 16 10 16H14C15.1046 16 16 15.1046 16 14V10C16 8.89543 15.1046 8 14 8H10ZM10 10.5C10 10.2239 10.2239 10 10.5 10H13.5C13.7761 10 14 10.2239 14 10.5V13.5C14 13.7761 13.7761 14 13.5 14C13.2239 14 13 13.7761 13 13.5V11.7071L10.8536 13.8536C10.6583 14.0488 10.3417 14.0488 10.1464 13.8536C9.95118 13.6583 9.95118 13.3417 10.1464 13.1465L12.2929 11H10.5C10.2239 11 10 10.7761 10 10.5Z" fill="#202020"/>
</svg>
