<svg width="16" height="16" viewBox="0 0 16 16" fill="none" xmlns="http://www.w3.org/2000/svg">
<path d="M7.00001 1H13C14.103 1 15 1.897 15 3V9C15 10.103 14.103 11 13 11H12V10H13C13.551 10 14 9.552 14 9V8H12V7H14V5H11.22C10.741 4.47 10.08 4.118 9.33301 4.034C9.38601 4.015 9.44101 4 9.50001 4H14V3C14 2.448 13.551 2 13 2H6.25001C5.84901 2 5.46901 2.113 5.13101 2.308C5.41401 1.547 6.14101 1 7.00001 1Z" fill="#202020"/>
<path fill-rule="evenodd" clip-rule="evenodd" d="M8.109 5.00002H9C10.103 5.00002 11 5.89602 11 6.99902V12.999C11 14.102 10.103 14.999 9 14.999H3C1.897 14.999 1 14.102 1 12.999V6.99902C1 5.93702 1.834 5.07402 2.881 5.01102C2.639 5.28502 2.501 5.63002 2.501 6.00002C2.501 6.03373 2.50526 6.06601 2.50954 6.09851C2.51149 6.11325 2.51344 6.12804 2.515 6.14302C2.213 6.31502 2 6.62702 2 6.99902V7.99902H3.879L4.438 8.55902C4.599 8.72102 4.792 8.83502 5 8.90902V14H7V8.12102L8 7.12102V8.00002H10V7.00002C10 6.44802 9.551 6.00002 9 6.00002H8.499C8.498 5.62502 8.357 5.27402 8.109 5.00002ZM3 14H4V12H2V13C2 13.552 2.449 14 3 14ZM2 11H4V9.00002H2V11ZM9 14C9.551 14 10 13.552 10 13V12H8V14H9ZM8 11H10V9.00002H8V11Z" fill="#202020"/>
<path d="M4.99998 6.293L4.35398 5.647C4.15898 5.452 3.84198 5.452 3.64698 5.647C3.45198 5.842 3.45198 6.159 3.64698 6.354L5.14598 7.854C5.34098 8.049 5.65798 8.049 5.85298 7.854L7.35298 6.354C7.54798 6.159 7.54798 5.842 7.35298 5.647C7.15798 5.452 6.84098 5.452 6.64598 5.647L5.99998 6.293V4.25C5.99998 4.183 6.02598 4.12 6.07298 4.073C6.11998 4.026 6.18398 4 6.24998 4H7.49998C7.77598 4 7.99998 3.776 7.99998 3.5C7.99998 3.224 7.77598 3 7.49998 3H6.24998C5.91798 3 5.59998 3.132 5.36598 3.366C5.13198 3.601 4.99998 3.918 4.99998 4.25V6.293Z" fill="#006CBF"/>
</svg>
