<svg width="16" height="16" viewBox="0 0 16 16" fill="none" xmlns="http://www.w3.org/2000/svg">
<path d="M4.5 13C3.672 13 3 12.328 3 11.5V11H5V10H3V6H5V5H3V4.5C3 3.672 3.672 3 4.5 3H5V5H6V3H10V5H11V3H11.5C12.328 3 13 3.672 13 4.5V5H14V4.5C14 3.119 12.881 2 11.5 2H4.5C3.119 2 2 3.119 2 4.5V11.5C2 12.881 3.119 14 4.5 14H5V13H4.5Z" fill="#202020"/>
<path d="M14 11.5V6H6V14H11.5C12.881 14 14 12.881 14 11.5ZM10 13H7V11H10V13ZM10 10H7V7H10V10ZM13 11.5C13 12.328 12.328 13 11.5 13H11V11H13V11.5ZM13 10H11V7H13V10Z" fill="#006CBF"/>
</svg>
