<svg width="16" height="16" viewBox="0 0 16 16" fill="none" xmlns="http://www.w3.org/2000/svg">
<path d="M15.5 14C15.633 14 15.76 14.052 15.854 14.146C15.947 14.24 16 14.367 16 14.5C16 14.633 15.948 14.76 15.854 14.854C15.76 14.947 15.633 15 15.5 15H12V15.5C12 15.633 11.948 15.761 11.854 15.854C11.76 15.947 11.633 16 11.5 16H6.70289L7.701 15.572C8.00354 15.4423 8.27002 15.2465 8.48182 15H11V14H10.5C10.367 14 10.239 13.948 10.146 13.854C10.053 13.76 10 13.633 10 13.5V13H9V10H12C12.552 10 13 9.552 13 9V3C13 2.448 12.552 2 12 2H6C5.448 2 5 2.448 5 3V6.26687L4.844 6.20004C4.575 6.08504 4.292 6.02704 4 6.02704V3C4 1.897 4.897 1 6 1H12C13.103 1 14 1.897 14 3V9C14 10.103 13.103 11 12 11H9.504L9.511 12H10.5C10.633 12 10.76 12.052 10.854 12.146C10.947 12.24 11 12.367 11 12.5V13H11.5C11.633 13 11.76 13.052 11.854 13.146C11.947 13.24 12 13.367 12 13.5V14H15.5Z" fill="#202020"/>
<path fill-rule="evenodd" clip-rule="evenodd" d="M11 5V6.092C11.581 6.299 12 6.849 12 7.5C12 8.327 11.327 9 10.5 9C9.673 9 9 8.327 9 7.5C9 6.849 9.419 6.299 10 6.092V5H8.908C8.701 5.581 8.151 6 7.5 6C6.673 6 6 5.327 6 4.5C6 3.673 6.673 3 7.5 3C8.151 3 8.701 3.419 8.908 4H10C10.552 4 11 4.448 11 5ZM7 4.5C7 4.775 7.225 5 7.5 5C7.775 5 8 4.775 8 4.5C8 4.225 7.775 4 7.5 4C7.225 4 7 4.225 7 4.5ZM10 7.5C10 7.775 10.225 8 10.5 8C10.775 8 11 7.775 11 7.5C11 7.225 10.775 7 10.5 7C10.225 7 10 7.225 10 7.5Z" fill="#202020"/>
<path d="M7.811 8.76605C7.688 8.57905 7.513 8.43305 7.307 8.34505L4.45 7.12105C4.308 7.06005 4.155 7.02905 4 7.02905C3.845 7.02905 3.692 7.06005 3.55 7.12105L0.693 8.34505C0.487 8.43305 0.312 8.58005 0.189 8.76605C0.066 8.95305 0 9.17105 0 9.39505V13.6031C0 13.8271 0.066 14.0451 0.189 14.2321C0.312 14.4191 0.487 14.5651 0.693 14.6531L3.55 15.8771C3.692 15.9381 3.845 15.9691 4 15.9691C4.155 15.9691 4.308 15.9381 4.45 15.8771L7.307 14.6531C7.513 14.5651 7.688 14.4181 7.811 14.2321C7.934 14.0451 8 13.8271 8 13.6031V9.39505C8 9.17105 7.934 8.95305 7.811 8.76605ZM2.447 11.9731C2.359 12.1481 2.182 12.2491 2 12.2491C1.925 12.2491 1.849 12.2321 1.776 12.1961L1.276 11.9461C1.029 11.8221 0.929 11.5221 1.052 11.2751C1.176 11.0281 1.477 10.9291 1.723 11.0511L2.223 11.3011C2.47 11.4251 2.57 11.7251 2.447 11.9721V11.9731ZM6.723 9.94705L4.499 11.0591V14.5001C4.499 14.7761 4.275 15.0001 3.999 15.0001C3.723 15.0001 3.499 14.7761 3.499 14.5001V11.0591L1.275 9.94705C1.028 9.82305 0.928 9.52305 1.051 9.27605C1.175 9.02905 1.476 8.93105 1.722 9.05205L3.998 10.1901L6.274 9.05205C6.522 8.93005 6.821 9.02905 6.945 9.27605C7.068 9.52305 6.968 9.82305 6.721 9.94705H6.723Z" fill="#202020"/>
</svg>
