<svg width="16" height="16" viewBox="0 0 16 16" fill="none" xmlns="http://www.w3.org/2000/svg">
<path d="M9.024 6.595C9.036 6.584 9.048 6.572 9.06 6.561C9.645 5.976 9.645 5.025 9.06 4.44C8.476 3.855 7.523 3.855 6.939 4.44C6.354 5.025 6.354 5.976 6.939 6.561C6.951 6.573 6.963 6.584 6.975 6.595L4.041 13.3C3.931 13.553 4.046 13.847 4.299 13.958C4.364 13.987 4.432 14 4.499 14C4.691 14 4.875 13.888 4.957 13.7L5.701 12H10.297L11.041 13.7C11.123 13.888 11.307 14 11.499 14C11.566 14 11.634 13.987 11.699 13.958C11.952 13.847 12.067 13.553 11.957 13.3L9.023 6.595H9.024ZM7.646 5.146C7.744 5.048 7.872 5 8 5C8.128 5 8.256 5.048 8.354 5.146C8.549 5.341 8.549 5.658 8.354 5.853C8.159 6.048 7.842 6.048 7.647 5.853C7.452 5.658 7.451 5.341 7.646 5.146ZM6.139 11L7.892 6.995C7.928 6.998 7.964 6.999 8 6.999C8.036 6.999 8.072 6.997 8.108 6.995L9.861 11H6.139ZM4.326 9.954C4.22 10.061 4.087 10.121 3.956 10.121C3.851 10.121 3.745 10.081 3.657 9.995L3.577 9.916C2.4 8.739 1.75 7.169 1.75 5.5C1.75 3.831 2.4 2.261 3.581 1.081C3.776 0.885996 4.093 0.885996 4.288 1.081C4.483 1.276 4.483 1.593 4.288 1.788C3.296 2.78 2.75 4.098 2.75 5.5C2.75 6.902 3.296 8.221 4.288 9.212C4.482 9.406 4.519 9.757 4.326 9.953V9.954ZM4.995 2.495C5.19 2.3 5.507 2.3 5.702 2.495C5.897 2.69 5.897 3.007 5.702 3.202C4.599 4.305 4.434 6.038 5.309 7.325C5.464 7.553 5.406 7.864 5.177 8.019C5.091 8.078 4.993 8.106 4.896 8.106C4.737 8.106 4.58 8.029 4.483 7.887C3.337 6.204 3.552 3.937 4.995 2.495ZM14.25 5.5C14.25 7.169 13.6 8.739 12.419 9.919L12.343 9.994C12.246 10.09 12.119 10.137 11.993 10.137C11.863 10.137 11.734 10.087 11.636 9.987C11.443 9.79 11.447 9.473 11.644 9.28C12.705 8.22 13.25 6.902 13.25 5.499C13.25 4.096 12.704 2.778 11.712 1.787C11.517 1.592 11.517 1.275 11.712 1.08C11.907 0.884996 12.224 0.884996 12.419 1.08C13.6 2.261 14.25 3.831 14.25 5.5ZM10.298 3.202C10.103 3.007 10.103 2.69 10.298 2.495C10.493 2.3 10.81 2.3 11.005 2.495C12.447 3.937 12.662 6.204 11.517 7.887C11.42 8.029 11.263 8.106 11.104 8.106C11.006 8.106 10.909 8.078 10.823 8.019C10.594 7.864 10.536 7.553 10.691 7.325C11.566 6.039 11.401 4.305 10.298 3.202Z" fill="#202020"/>
</svg>
