<svg width="16" height="16" viewBox="0 0 16 16" fill="none" xmlns="http://www.w3.org/2000/svg">
<g clip-path="url(#clip0_7202_81778)">
<path d="M7.5 6C7.36739 6 7.24021 6.05268 7.14645 6.14645C7.05268 6.24021 7 6.36739 7 6.5V6.64151C7.0168 6.66186 7.03342 6.68235 7.04986 6.703C7.52786 7.303 7.84686 8.019 7.97186 8.776C7.98267 8.84072 7.99204 8.90562 8 8.97066V6.5C8 6.36739 7.94732 6.24021 7.85355 6.14645C7.75979 6.05268 7.63261 6 7.5 6Z" fill="#202020"/>
<path fill-rule="evenodd" clip-rule="evenodd" d="M14.5 5H3V5.02919C2.87265 5.0423 2.74829 5.07322 2.63186 5.119C2.40086 5.209 2.19786 5.361 2.04586 5.558C2.02997 5.57849 2.01468 5.5994 2 5.62068V3H1.5C1.36739 3 1.24021 2.94732 1.14645 2.85355C1.05268 2.75979 1 2.63261 1 2.5C1 2.36739 1.05268 2.24021 1.14645 2.14645C1.24021 2.05268 1.36739 2 1.5 2H2C2.26522 2 2.51957 2.10536 2.70711 2.29289C2.89464 2.48043 3 2.73478 3 3V4H14.5C14.8978 4 15.2794 4.15804 15.5607 4.43934C15.842 4.72064 16 5.10218 16 5.5V10.5C16 10.8978 15.842 11.2794 15.5607 11.5607C15.2794 11.842 14.8978 12 14.5 12H14V13.5C14 13.6326 13.9473 13.7598 13.8536 13.8536C13.7598 13.9473 13.6326 14 13.5 14H10.9703C10.9354 13.8347 10.8836 13.6728 10.8149 13.515C10.6799 13.205 10.4879 12.931 10.2629 12.718L10 12.4551V12H9.54486L8.54486 11H14.5C14.6326 11 14.7598 10.9473 14.8536 10.8536C14.9473 10.7598 15 10.6326 15 10.5V5.5C15 5.36739 14.9473 5.24021 14.8536 5.14645C14.7598 5.05268 14.6326 5 14.5 5ZM13 12H11V13H13V12Z" fill="#202020"/>
<path d="M10.5 6C10.3674 6 10.2402 6.05268 10.1464 6.14645C10.0527 6.24021 10 6.36739 10 6.5V9.5C10 9.63261 10.0527 9.75979 10.1464 9.85355C10.2402 9.94732 10.3674 10 10.5 10C10.6326 10 10.7598 9.94732 10.8536 9.85355C10.9473 9.75979 11 9.63261 11 9.5V6.5C11 6.36739 10.9473 6.24021 10.8536 6.14645C10.7598 6.05268 10.6326 6 10.5 6Z" fill="#202020"/>
<path d="M13.5 6C13.3674 6 13.2402 6.05268 13.1464 6.14645C13.0527 6.24021 13 6.36739 13 6.5V9.5C13 9.63261 13.0527 9.75979 13.1464 9.85355C13.2402 9.94732 13.3674 10 13.5 10C13.6326 10 13.7598 9.94732 13.8536 9.85355C13.9473 9.75979 14 9.63261 14 9.5V6.5C14 6.36739 13.9473 6.24021 13.8536 6.14645C13.7598 6.05268 13.6326 6 13.5 6Z" fill="#202020"/>
<path d="M2.75809 6.33501C2.76709 6.26601 2.79409 6.20101 2.83709 6.14601C2.88009 6.09101 2.93609 6.04901 3.00009 6.02401C3.03509 6.01001 3.07109 6.00201 3.10809 5.99801C3.70209 5.92801 4.30509 6.01201 4.85809 6.24001C5.41109 6.46801 5.89709 6.83301 6.27009 7.30101C6.64309 7.76901 6.89009 8.32401 6.98809 8.91501C7.08609 9.50601 7.03309 10.111 6.83209 10.674L9.55809 13.4C9.70409 13.539 9.82009 13.705 9.90009 13.89C9.98009 14.074 10.0231 14.273 10.0251 14.474C10.0271 14.675 9.99009 14.875 9.91409 15.061C9.83809 15.247 9.72609 15.417 9.58409 15.559C9.44209 15.701 9.27309 15.814 9.08609 15.889C8.90009 15.965 8.70009 16.003 8.49909 16C8.29809 15.998 8.09909 15.955 7.91509 15.875C7.73109 15.795 7.56409 15.678 7.42509 15.533L4.69909 12.807C4.13509 13.008 3.53009 13.062 2.94009 12.963C2.35009 12.865 1.79409 12.617 1.32609 12.245C0.858086 11.872 0.493086 11.386 0.265086 10.833C0.037086 10.28 -0.045914 9.67801 0.023086 9.08301C0.035086 9.00201 0.070086 8.92701 0.124086 8.86601C0.178086 8.80501 0.248086 8.76101 0.326086 8.73801C0.404086 8.71601 0.487086 8.71701 0.565086 8.74101C0.643086 8.76501 0.712086 8.81101 0.765086 8.87301L1.74009 9.84801C2.02509 10.119 2.40509 10.269 2.79809 10.264C3.19209 10.259 3.56809 10.101 3.84609 9.82201C4.12409 9.54401 4.28309 9.16801 4.28809 8.77401C4.29309 8.38001 4.14409 8.00101 3.87209 7.71601L2.89709 6.74101C2.82509 6.67001 2.77709 6.58001 2.75909 6.48101C2.75109 6.43301 2.75009 6.38401 2.75709 6.33601L2.75809 6.33501Z" fill="#202020"/>
</g>
<defs>
<clipPath id="clip0_7202_81778">
<rect width="16" height="16" fill="white"/>
</clipPath>
</defs>
</svg>
