<svg width="16" height="16" viewBox="0 0 16 16" fill="none" xmlns="http://www.w3.org/2000/svg">
<path d="M5.00005 9.97757C5.00002 9.98505 5 9.99252 5 10C5 12.7614 7.23858 15 10 15C10.5739 15 11.1252 14.9033 11.6385 14.7253C11.8613 14.6481 12 14.4315 12 14.1957C12 13.8814 11.6592 13.6736 11.3607 13.7723C10.9265 13.9159 10.4494 14 10 14C9.92732 14 9.85509 13.9981 9.78337 13.9942L9.7575 14L9.76143 13.993C7.66335 13.8696 6 12.129 6 10C6 9.93005 6.0018 9.86052 6.00535 9.79145C5.68143 9.88342 5.34534 9.94646 5.00005 9.97757Z" fill="#202020"/>
<path fill-rule="evenodd" clip-rule="evenodd" d="M9.79145 6.00535C9.88342 5.68143 9.94646 5.34534 9.97757 5.00005C9.98505 5.00002 9.99252 5 10 5C12.7614 5 15 7.23858 15 10V10.75C15 11.7165 14.2165 12.5 13.25 12.5C12.6479 12.5 12.1168 12.1959 11.8019 11.7329C11.3471 12.2058 10.7079 12.5 10 12.5C8.61929 12.5 7.5 11.3807 7.5 10C7.5 9.62601 7.58212 9.2712 7.72931 8.95262C8.19851 8.61174 8.61174 8.19851 8.95262 7.72931C9.2712 7.58212 9.62601 7.5 10 7.5C10.5628 7.5 11.0822 7.68597 11.5 7.99982C11.5001 7.72376 11.7239 7.5 12 7.5C12.2761 7.5 12.5 7.72386 12.5 8V10.75C12.5 11.1642 12.8358 11.5 13.25 11.5C13.6642 11.5 14 11.1642 14 10.75V10C14 7.79086 12.2091 6 10 6C9.93005 6 9.86052 6.0018 9.79145 6.00535ZM10 8.5C10.8284 8.5 11.5 9.17157 11.5 10C11.5 10.8284 10.8284 11.5 10 11.5C9.17157 11.5 8.5 10.8284 8.5 10C8.5 9.17157 9.17157 8.5 10 8.5Z" fill="#202020"/>
<path fill-rule="evenodd" clip-rule="evenodd" d="M9 4.5C9 6.98528 6.98528 9 4.5 9C2.01472 9 0 6.98528 0 4.5C0 2.01472 2.01472 0 4.5 0C6.98528 0 9 2.01472 9 4.5ZM4.5 2C4.77614 2 5 2.22386 5 2.5V4H6.5C6.77614 4 7 4.22386 7 4.5C7 4.77614 6.77614 5 6.5 5H5V6.5C5 6.77614 4.77614 7 4.5 7C4.22386 7 4 6.77614 4 6.5V5H2.5C2.22386 5 2 4.77614 2 4.5C2 4.22386 2.22386 4 2.5 4H4V2.5C4 2.22386 4.22386 2 4.5 2Z" fill="#11910D"/>
</svg>
