<svg width="16" height="16" viewBox="0 0 16 16" fill="none" xmlns="http://www.w3.org/2000/svg">
<g clip-path="url(#clip0_7202_81812)">
<path d="M3 9.79297C3.32228 9.88412 3.65659 9.94663 4 9.97758V10.5C4 10.884 3.855 11.234 3.617 11.5C3.855 11.766 4 12.116 4 12.5V14.5C4 14.775 4.225 15 4.5 15C4.776 15 5 15.224 5 15.5C5 15.776 4.776 16 4.5 16C3.673 16 3 15.327 3 14.5V12.5C3 12.225 2.776 12 2.5 12C2.224 12 2 11.776 2 11.5C2 11.224 2.225 11 2.5 11C2.775 11 3 10.775 3 10.5V9.79297Z" fill="#202020"/>
<path d="M10 4.5C10 5.52356 9.7204 6.48181 9.23341 7.30254C9.27787 7.37245 9.32795 7.43847 9.383 7.5C9.145 7.766 9 8.116 9 8.5V10.5C9 10.775 8.775 11 8.5 11C8.225 11 8 11.224 8 11.5C8 11.776 8.224 12 8.5 12C9.327 12 10 11.327 10 10.5V8.5C10 8.225 10.225 8 10.5 8C10.775 8 11 7.776 11 7.5C11 7.224 10.776 7 10.5 7C10.225 7 10 6.775 10 6.5V4.5Z" fill="#202020"/>
<path d="M5.5 10C5.224 10 5 10.224 5 10.5C5 10.776 5.224 11 5.5 11H6.5C6.776 11 7 10.776 7 10.5C7 10.224 6.776 10 6.5 10H5.5Z" fill="#202020"/>
<path d="M6.5 13C6.776 13 7 13.224 7 13.5C7 13.776 6.776 14 6.5 14H5.5C5.224 14 5 13.776 5 13.5C5 13.224 5.224 13 5.5 13H6.5Z" fill="#202020"/>
<path d="M12.435 10H15.5V10.001C15.776 10.001 16 10.225 16 10.501C16 10.777 15.776 11.001 15.5 11.001H11.5C11.316 11.001 11.147 10.899 11.06 10.737C10.972 10.574 10.981 10.376 11.084 10.223L12.899 7.5L11.084 4.777C10.982 4.623 10.972 4.426 11.06 4.263C11.146 4.101 11.315 3.999 11.5 3.999H15.5C15.776 3.999 16 4.223 16 4.499C16 4.775 15.776 4.999 15.5 4.999H12.435L13.916 7.222C14.028 7.39 14.028 7.609 13.916 7.777L12.435 10Z" fill="#202020"/>
<path fill-rule="evenodd" clip-rule="evenodd" d="M9 4.5C9 6.98528 6.98528 9 4.5 9C2.01472 9 0 6.98528 0 4.5C0 2.01472 2.01472 0 4.5 0C6.98528 0 9 2.01472 9 4.5ZM4.5 2C4.77614 2 5 2.22386 5 2.5V4H6.5C6.77614 4 7 4.22386 7 4.5C7 4.77614 6.77614 5 6.5 5H5V6.5C5 6.77614 4.77614 7 4.5 7C4.22386 7 4 6.77614 4 6.5V5H2.5C2.22386 5 2 4.77614 2 4.5C2 4.22386 2.22386 4 2.5 4H4V2.5C4 2.22386 4.22386 2 4.5 2Z" fill="#11910D"/>
</g>
<defs>
<clipPath id="clip0_7202_81812">
<rect width="16" height="16" fill="white"/>
</clipPath>
</defs>
</svg>
