<svg width="16" height="16" viewBox="0 0 16 16" fill="none" xmlns="http://www.w3.org/2000/svg">
<g clip-path="url(#clip0_7202_81867)">
<path fill-rule="evenodd" clip-rule="evenodd" d="M7.83101 8.87694C7.88628 8.89667 7.94265 8.91406 8 8.929V12.071C7.14 12.295 6.5 13.071 6.5 14C6.5 15.103 7.397 16 8.5 16C9.603 16 10.5 15.103 10.5 14C10.5 13.071 9.86 12.295 9 12.071V11H12.75C13.439 11 14 10.439 14 9.75V8.929C14.86 8.705 15.5 7.929 15.5 7C15.5 5.897 14.603 5 13.5 5C12.397 5 11.5 5.897 11.5 7C11.5 7.929 12.14 8.705 13 8.929V9.75C13 9.888 12.888 10 12.75 10H9V8.929C9.86 8.705 10.5 7.929 10.5 7C10.5 6.43969 10.2685 5.93253 9.89616 5.56912C9.8094 6.00949 9.67008 6.431 9.48501 6.82682C9.49486 6.88308 9.5 6.94094 9.5 7C9.5 7.45684 9.19246 7.84245 8.77408 7.96182C8.49737 8.30303 8.18063 8.61046 7.83101 8.87694ZM8.5 15C9.051 15 9.5 14.552 9.5 14C9.5 13.448 9.051 13 8.5 13C7.949 13 7.5 13.448 7.5 14C7.5 14.552 7.949 15 8.5 15ZM12.5 7C12.5 7.552 12.949 8 13.5 8C14.051 8 14.5 7.552 14.5 7C14.5 6.448 14.051 6 13.5 6C12.949 6 12.5 6.448 12.5 7Z" fill="#202020"/>
<path fill-rule="evenodd" clip-rule="evenodd" d="M9 4.5C9 6.98528 6.98528 9 4.5 9C2.01472 9 0 6.98528 0 4.5C0 2.01472 2.01472 0 4.5 0C6.98528 0 9 2.01472 9 4.5ZM4.5 2C4.77614 2 5 2.22386 5 2.5V4H6.5C6.77614 4 7 4.22386 7 4.5C7 4.77614 6.77614 5 6.5 5H5V6.5C5 6.77614 4.77614 7 4.5 7C4.22386 7 4 6.77614 4 6.5V5H2.5C2.22386 5 2 4.77614 2 4.5C2 4.22386 2.22386 4 2.5 4H4V2.5C4 2.22386 4.22386 2 4.5 2Z" fill="#11910D"/>
</g>
<defs>
<clipPath id="clip0_7202_81867">
<rect width="16" height="16" fill="white"/>
</clipPath>
</defs>
</svg>
