<svg width="16" height="16" viewBox="0 0 16 16" fill="none" xmlns="http://www.w3.org/2000/svg">
<g clip-path="url(#clip0_7202_82007)">
<path fill-rule="evenodd" clip-rule="evenodd" d="M4.69671 9.99655L8.61195 14.8153C8.70689 14.9322 8.84944 15 9 15C9.15057 15 9.29312 14.9322 9.38806 14.8153L15.8881 6.8153C16.0119 6.66287 16.035 6.45206 15.9472 6.27639L13.9472 2.27639C13.8625 2.107 13.6894 2 13.5 2L9.40029 2C9.56223 2.31679 9.69436 2.65136 9.79297 3H10.1096L10.8596 6H9.79297C9.69436 6.34864 9.56223 6.68321 9.40029 7H10.8199L9.00002 12.8234L7.77898 8.91611C7.50408 9.12056 7.20943 9.29995 6.89841 9.4509L7.74627 12.164L5.85198 9.8326C5.48049 9.92649 5.09396 9.98258 4.69671 9.99655ZM14.4495 7H11.8675L10.2538 12.164L14.4495 7ZM11.8903 6H14.691L13.191 3H11.1403L11.8903 6Z" fill="#006CBF"/>
<path fill-rule="evenodd" clip-rule="evenodd" d="M9 4.5C9 6.98528 6.98528 9 4.5 9C2.01472 9 0 6.98528 0 4.5C0 2.01472 2.01472 0 4.5 0C6.98528 0 9 2.01472 9 4.5ZM4.5 2C4.77614 2 5 2.22386 5 2.5V4H6.5C6.77614 4 7 4.22386 7 4.5C7 4.77614 6.77614 5 6.5 5H5V6.5C5 6.77614 4.77614 7 4.5 7C4.22386 7 4 6.77614 4 6.5V5H2.5C2.22386 5 2 4.77614 2 4.5C2 4.22386 2.22386 4 2.5 4H4V2.5C4 2.22386 4.22386 2 4.5 2Z" fill="#11910D"/>
</g>
<defs>
<clipPath id="clip0_7202_82007">
<rect width="16" height="16" fill="white"/>
</clipPath>
</defs>
</svg>
