<svg width="16" height="16" viewBox="0 0 16 16" fill="none" xmlns="http://www.w3.org/2000/svg">
<g clip-path="url(#clip0_7202_81893)">
<path fill-rule="evenodd" clip-rule="evenodd" d="M9.97758 5C9.94663 5.34341 9.88412 5.67772 9.79297 6H13V10H9V7.66308C8.71611 8.06621 8.37943 8.42948 8 8.74284V12.5C8 12.8978 8.15804 13.2794 8.43934 13.5607C8.72064 13.842 9.10218 14 9.5 14H12.5C12.8978 14 13.2794 13.842 13.5607 13.5607C13.842 13.2794 14 12.8978 14 12.5V3.5C14 3.10218 13.842 2.72064 13.5607 2.43934C13.2794 2.15804 12.8978 2 12.5 2H9.5C9.46718 2 9.43448 2.00108 9.40193 2.00321C9.56312 2.31905 9.69469 2.65254 9.79297 3H12.5C12.6326 3 12.7598 3.05268 12.8536 3.14645C12.9473 3.24021 13 3.36739 13 3.5V5H9.97758ZM12.8536 12.8536C12.9473 12.7598 13 12.6326 13 12.5V11H9V12.5C9 12.6326 9.05268 12.7598 9.14645 12.8536C9.24022 12.9473 9.36739 13 9.5 13H12.5C12.6326 13 12.7598 12.9473 12.8536 12.8536Z" fill="#202020"/>
<path fill-rule="evenodd" clip-rule="evenodd" d="M6 9.79308V10.5011C6 10.6337 5.94732 10.7609 5.85355 10.8546C5.75979 10.9484 5.63261 11.0011 5.5 11.0011H1.5C1.36739 11.0011 1.24021 10.9484 1.14645 10.8546C1.05268 10.7609 1 10.6337 1 10.5011V9.50109C1 9.36848 1.05268 9.2413 1.14645 9.14753C1.20763 9.08635 1.28304 9.04266 1.3649 9.01968C1.01847 8.77892 0.701032 8.49934 0.418894 8.18726C0.37431 8.21909 0.332138 8.25473 0.292893 8.29398C0.105357 8.48151 0 8.73587 0 9.00109V15.0011C0 15.2663 0.105357 15.5207 0.292893 15.7082C0.48043 15.8957 0.734784 16.0011 1 16.0011H6C6.26522 16.0011 6.51957 15.8957 6.70711 15.7082C6.89464 15.5207 7 15.2663 7 15.0011V9.4004C6.68321 9.56234 6.34864 9.69447 6 9.79308ZM1.22221 14.9168C1.30444 14.9718 1.40111 15.0011 1.5 15.0011C1.63261 15.0011 1.75979 14.9484 1.85355 14.8546C1.94732 14.7609 2 14.6337 2 14.5011C2 14.4022 1.97068 14.3055 1.91573 14.2233C1.86079 14.1411 1.7827 14.077 1.69134 14.0391C1.59998 14.0013 1.49945 13.9914 1.40245 14.0107C1.30546 14.03 1.21637 14.0776 1.14645 14.1475C1.07652 14.2175 1.0289 14.3065 1.00961 14.4035C0.990315 14.5005 1.00022 14.6011 1.03806 14.6924C1.0759 14.7838 1.13999 14.8619 1.22221 14.9168ZM1.22221 12.9168C1.30444 12.9718 1.40111 13.0011 1.5 13.0011C1.63261 13.0011 1.75979 12.9484 1.85355 12.8546C1.94732 12.7609 2 12.6337 2 12.5011C2 12.4022 1.97068 12.3055 1.91573 12.2233C1.86079 12.1411 1.7827 12.077 1.69134 12.0391C1.59998 12.0013 1.49945 11.9914 1.40245 12.0107C1.30546 12.03 1.21637 12.0776 1.14645 12.1475C1.07652 12.2175 1.0289 12.3065 1.00961 12.4035C0.990315 12.5005 1.00022 12.6011 1.03806 12.6924C1.0759 12.7838 1.13999 12.8619 1.22221 12.9168ZM3.22221 14.9168C3.30444 14.9718 3.40111 15.0011 3.5 15.0011C3.63261 15.0011 3.75979 14.9484 3.85355 14.8546C3.94732 14.7609 4 14.6337 4 14.5011C4 14.4022 3.97068 14.3055 3.91573 14.2233C3.86079 14.1411 3.7827 14.077 3.69134 14.0391C3.59998 14.0013 3.49945 13.9914 3.40245 14.0107C3.30546 14.03 3.21637 14.0776 3.14645 14.1475C3.07652 14.2175 3.0289 14.3065 3.00961 14.4035C2.99031 14.5005 3.00022 14.6011 3.03806 14.6924C3.0759 14.7838 3.13999 14.8619 3.22221 14.9168ZM3.22221 12.9168C3.30444 12.9718 3.40111 13.0011 3.5 13.0011C3.63261 13.0011 3.75979 12.9484 3.85355 12.8546C3.94732 12.7609 4 12.6337 4 12.5011C4 12.4022 3.97068 12.3055 3.91573 12.2233C3.86079 12.1411 3.7827 12.077 3.69134 12.0391C3.59998 12.0013 3.49945 11.9914 3.40245 12.0107C3.30546 12.03 3.21637 12.0776 3.14645 12.1475C3.07652 12.2175 3.0289 12.3065 3.00961 12.4035C2.99031 12.5005 3.00022 12.6011 3.03806 12.6924C3.0759 12.7838 3.13999 12.8619 3.22221 12.9168ZM5.22221 14.9168C5.30444 14.9718 5.40111 15.0011 5.5 15.0011C5.63261 15.0011 5.75979 14.9484 5.85355 14.8546C5.94732 14.7609 6 14.6337 6 14.5011C6 14.4022 5.97068 14.3055 5.91573 14.2233C5.86079 14.1411 5.7827 14.077 5.69134 14.0391C5.59998 14.0013 5.49945 13.9914 5.40245 14.0107C5.30546 14.03 5.21637 14.0776 5.14645 14.1475C5.07652 14.2175 5.0289 14.3065 5.00961 14.4035C4.99031 14.5005 5.00022 14.6011 5.03806 14.6924C5.0759 14.7838 5.13999 14.8619 5.22221 14.9168ZM5.22221 12.9168C5.30444 12.9718 5.40111 13.0011 5.5 13.0011C5.63261 13.0011 5.75979 12.9484 5.85355 12.8546C5.94732 12.7609 6 12.6337 6 12.5011C6 12.4022 5.97068 12.3055 5.91573 12.2233C5.86079 12.1411 5.7827 12.077 5.69134 12.0391C5.59998 12.0013 5.49945 11.9914 5.40245 12.0107C5.30546 12.03 5.21637 12.0776 5.14645 12.1475C5.07652 12.2175 5.0289 12.3065 5.00961 12.4035C4.99031 12.5005 5.00022 12.6011 5.03806 12.6924C5.0759 12.7838 5.13999 12.8619 5.22221 12.9168Z" fill="#202020"/>
<path fill-rule="evenodd" clip-rule="evenodd" d="M9 4.5C9 6.98528 6.98528 9 4.5 9C2.01472 9 0 6.98528 0 4.5C0 2.01472 2.01472 0 4.5 0C6.98528 0 9 2.01472 9 4.5ZM4.5 2C4.77614 2 5 2.22386 5 2.5V4H6.5C6.77614 4 7 4.22386 7 4.5C7 4.77614 6.77614 5 6.5 5H5V6.5C5 6.77614 4.77614 7 4.5 7C4.22386 7 4 6.77614 4 6.5V5H2.5C2.22386 5 2 4.77614 2 4.5C2 4.22386 2.22386 4 2.5 4H4V2.5C4 2.22386 4.22386 2 4.5 2Z" fill="#11910D"/>
</g>
<defs>
<clipPath id="clip0_7202_81893">
<rect width="16" height="16" fill="white"/>
</clipPath>
</defs>
</svg>
