<svg width="16" height="16" viewBox="0 0 16 16" fill="none" xmlns="http://www.w3.org/2000/svg">
<path d="M5 9.97758C4.83532 9.99242 4.66854 10 4.5 10C4.33146 10 4.16468 9.99242 4 9.97758L4 12.5C4 13.8807 5.11929 15 6.5 15H13.5C14.8807 15 16 13.8807 16 12.5V5.5C16 4.11929 14.8807 3 13.5 3L9.79297 3C9.88412 3.32228 9.94663 3.65659 9.97758 4H13.5C14.3284 4 15 4.67157 15 5.5V6H9.79297C9.69436 6.34864 9.56223 6.68321 9.40029 7H15V12.5C15 13.3284 14.3284 14 13.5 14H6.5C5.67157 14 5 13.3284 5 12.5V9.97758Z" fill="#202020"/>
<path d="M6.79339 9.5005L7.29289 10L6.14645 11.1464C5.95118 11.3417 5.95118 11.6583 6.14645 11.8536C6.34171 12.0488 6.65829 12.0488 6.85355 11.8536L8.35355 10.3536C8.54882 10.1583 8.54882 9.84171 8.35355 9.64645L7.68885 8.98174C7.40874 9.18141 7.10911 9.35546 6.79339 9.5005Z" fill="#202020"/>
<path d="M9.5 11C9.22386 11 9 11.2239 9 11.5C9 11.7761 9.22386 12 9.5 12H13.5C13.7761 12 14 11.7761 14 11.5C14 11.2239 13.7761 11 13.5 11H9.5Z" fill="#202020"/>
<path fill-rule="evenodd" clip-rule="evenodd" d="M9 4.5C9 6.98528 6.98528 9 4.5 9C2.01472 9 0 6.98528 0 4.5C0 2.01472 2.01472 0 4.5 0C6.98528 0 9 2.01472 9 4.5ZM4.5 2C4.77614 2 5 2.22386 5 2.5V4H6.5C6.77614 4 7 4.22386 7 4.5C7 4.77614 6.77614 5 6.5 5H5V6.5C5 6.77614 4.77614 7 4.5 7C4.22386 7 4 6.77614 4 6.5V5H2.5C2.22386 5 2 4.77614 2 4.5C2 4.22386 2.22386 4 2.5 4H4V2.5C4 2.22386 4.22386 2 4.5 2Z" fill="#11910D"/>
</svg>
