<svg width="16" height="16" viewBox="0 0 16 16" fill="none" xmlns="http://www.w3.org/2000/svg">
<g clip-path="url(#clip0_7202_81997)">
<path d="M5.00002 9.97758V13.5C5.00002 13.633 5.05202 13.76 5.14602 13.854C5.24002 13.947 5.36702 14 5.50002 14H14.293L13.146 15.146C13.1 15.192 13.063 15.247 13.038 15.308C13.013 15.369 13 15.434 13 15.5C13 15.566 13.013 15.631 13.038 15.692C13.063 15.752 13.1 15.808 13.146 15.854C13.192 15.9 13.247 15.937 13.308 15.962C13.369 15.987 13.434 16 13.5 16C13.566 16 13.631 15.987 13.692 15.962C13.752 15.937 13.807 15.901 13.854 15.854L15.854 13.854C15.901 13.808 15.938 13.753 15.963 13.692C15.988 13.631 16.001 13.566 16.001 13.5C16.001 13.434 15.988 13.369 15.963 13.308C15.937 13.248 15.901 13.192 15.854 13.146L13.854 11.146C13.76 11.052 13.633 10.999 13.5 10.999C13.367 10.999 13.24 11.052 13.146 11.146C13.052 11.24 12.999 11.367 12.999 11.5C12.999 11.633 13.052 11.76 13.146 11.854L14.293 13H6.00002V9.79296C5.67774 9.88412 5.34343 9.94663 5.00002 9.97758Z" fill="#202020"/>
<path fill-rule="evenodd" clip-rule="evenodd" d="M15.287 3.64311L13.286 3.04211C13.1 2.98711 12.901 2.98611 12.713 3.04211L10.713 3.64211C10.286 3.77011 10 4.15511 10 4.60011V7.35611C10 7.80111 10.286 8.18611 10.713 8.31411L12.714 8.91511C12.808 8.94311 12.903 8.95711 13 8.95711C13.096 8.95711 13.193 8.94311 13.287 8.91511L15.287 8.31511C15.714 8.18711 16 7.80211 16 7.35711V4.60111C16 4.15611 15.714 3.77111 15.287 3.64311ZM11 7.35711V5.33911L12.5 5.83911V7.72911C12.5 7.74737 12.5048 7.76443 12.5095 7.78156C12.5123 7.79164 12.5151 7.80174 12.517 7.81211L11 7.35711ZM13 4.95311L11.498 4.45211L13 4.00111L14.502 4.45211L13 4.95311ZM15 7.35711L13.483 7.81211C13.4849 7.80174 13.4877 7.79164 13.4905 7.78156C13.4952 7.76443 13.5 7.74737 13.5 7.72911V5.83911L15 5.33911V7.35711Z" fill="#202020"/>
<path fill-rule="evenodd" clip-rule="evenodd" d="M9 4.5C9 6.98528 6.98528 9 4.5 9C2.01472 9 0 6.98528 0 4.5C0 2.01472 2.01472 0 4.5 0C6.98528 0 9 2.01472 9 4.5ZM4.5 2C4.77614 2 5 2.22386 5 2.5V4H6.5C6.77614 4 7 4.22386 7 4.5C7 4.77614 6.77614 5 6.5 5H5V6.5C5 6.77614 4.77614 7 4.5 7C4.22386 7 4 6.77614 4 6.5V5H2.5C2.22386 5 2 4.77614 2 4.5C2 4.22386 2.22386 4 2.5 4H4V2.5C4 2.22386 4.22386 2 4.5 2Z" fill="#11910D"/>
</g>
<defs>
<clipPath id="clip0_7202_81997">
<rect width="16" height="16" fill="white"/>
</clipPath>
</defs>
</svg>
