<svg width="16" height="16" viewBox="0 0 16 16" fill="none" xmlns="http://www.w3.org/2000/svg">
<path d="M9.79297 3H12.5C12.8978 3 13.2794 3.15804 13.5607 3.43934C13.842 3.72064 14 4.10218 14 4.5V11.5C14 11.8978 13.842 12.2794 13.5607 12.5607C13.2794 12.842 12.8978 13 12.5 13H5.5C5.10218 13 4.72064 12.842 4.43934 12.5607C4.15804 12.2794 4 11.8978 4 11.5V9.97758C3.65659 9.94663 3.32228 9.88412 3 9.79297L3 11.5C3 12.163 3.26339 12.7989 3.73223 13.2678C4.20107 13.7366 4.83696 14 5.5 14H12.5C13.163 14 13.7989 13.7366 14.2678 13.2678C14.7366 12.7989 15 12.163 15 11.5V4.5C15 3.83696 14.7366 3.20107 14.2678 2.73223C13.7989 2.26339 13.163 2 12.5 2L9.40029 2C9.56223 2.31679 9.69436 2.65136 9.79297 3Z" fill="#202020"/>
<path d="M9.40029 7C9.56223 6.68321 9.69436 6.34864 9.79297 6L11.5 6C11.6326 6 11.7598 6.05268 11.8536 6.14645C11.9473 6.24021 12 6.36739 12 6.5C12 6.63261 11.9473 6.75979 11.8536 6.85355C11.7598 6.94732 11.6326 7 11.5 7H9.40029Z" fill="#006CBF"/>
<path d="M6.07913 9.76994C6.65191 9.59855 7.18547 9.33633 7.66308 9H11.5C11.6326 9 11.7598 9.05268 11.8536 9.14645C11.9473 9.24021 12 9.36739 12 9.5C12 9.63261 11.9473 9.75979 11.8536 9.85355C11.7598 9.94732 11.6326 10 11.5 10H6.5C6.36739 10 6.24022 9.94732 6.14645 9.85355C6.12087 9.82798 6.09835 9.79992 6.07913 9.76994Z" fill="#006CBF"/>
<path fill-rule="evenodd" clip-rule="evenodd" d="M9 4.5C9 6.98528 6.98528 9 4.5 9C2.01472 9 0 6.98528 0 4.5C0 2.01472 2.01472 0 4.5 0C6.98528 0 9 2.01472 9 4.5ZM4.5 2C4.77614 2 5 2.22386 5 2.5V4H6.5C6.77614 4 7 4.22386 7 4.5C7 4.77614 6.77614 5 6.5 5H5V6.5C5 6.77614 4.77614 7 4.5 7C4.22386 7 4 6.77614 4 6.5V5H2.5C2.22386 5 2 4.77614 2 4.5C2 4.22386 2.22386 4 2.5 4H4V2.5C4 2.22386 4.22386 2 4.5 2Z" fill="#11910D"/>
</svg>
