<svg width="16" height="16" viewBox="0 0 16 16" fill="none" xmlns="http://www.w3.org/2000/svg">
<g clip-path="url(#clip0_7202_81969)">
<path d="M4.5 10C4.66855 10 4.83534 9.99242 5.00003 9.97758L4.99998 10C4.99998 12.757 7.24298 15 9.99998 15H10.001C12.727 15 14.951 12.806 15 10.092C14.091 10.432 12.983 10.184 12.312 9.47101C11.969 9.10801 11.759 8.66601 11.7 8.19801C10.768 7.82401 10.125 6.90201 10.125 5.87501C10.125 5.57301 10.177 5.28101 10.278 5.00801C10.185 5.00201 10.093 5.00001 9.99998 5.00001L9.97757 5.00006C9.99242 4.83536 10 4.66856 10 4.5C10 4.33181 9.99245 4.16539 9.97767 4.00105L10.001 4.00101C10.395 4.00101 10.791 4.04001 11.177 4.11601C11.35 4.15001 11.492 4.27301 11.551 4.43901C11.611 4.60401 11.578 4.78901 11.466 4.92501C11.244 5.19401 11.126 5.52301 11.126 5.87601C11.126 6.57301 11.618 7.18801 12.296 7.34001C12.536 7.39401 12.701 7.61301 12.686 7.85801C12.666 8.19301 12.792 8.52301 13.04 8.78701C13.565 9.34401 14.536 9.39001 15.119 8.87501C15.256 8.75201 15.451 8.71701 15.624 8.78101C15.797 8.84501 15.92 8.99901 15.945 9.18201L15.946 9.18301C15.982 9.45301 16.001 9.72701 16.001 10.001C16.001 13.31 13.31 16.001 10.001 16.001C6.69198 16.001 4.00098 13.31 4.00098 10.001L4.00102 9.97767C4.16537 9.99245 4.3318 10 4.5 10Z" fill="#202020"/>
<path d="M9.99998 10.75C9.58598 10.75 9.24998 10.414 9.24998 10C9.24998 9.58601 9.58598 9.25001 9.99998 9.25001C10.414 9.25001 10.75 9.58601 10.75 10C10.75 10.414 10.414 10.75 9.99998 10.75Z" fill="#202020"/>
<path d="M11.75 13C11.75 13.414 11.414 13.75 11 13.75C10.586 13.75 10.25 13.414 10.25 13C10.25 12.586 10.586 12.25 11 12.25C11.414 12.25 11.75 12.586 11.75 13Z" fill="#202020"/>
<path d="M8.74998 12C8.74998 12.414 8.41398 12.75 7.99998 12.75C7.58598 12.75 7.24998 12.414 7.24998 12C7.24998 11.586 7.58598 11.25 7.99998 11.25C8.41398 11.25 8.74998 11.586 8.74998 12Z" fill="#202020"/>
<path fill-rule="evenodd" clip-rule="evenodd" d="M9 4.5C9 6.98528 6.98528 9 4.5 9C2.01472 9 0 6.98528 0 4.5C0 2.01472 2.01472 0 4.5 0C6.98528 0 9 2.01472 9 4.5ZM4.5 2C4.77614 2 5 2.22386 5 2.5V4H6.5C6.77614 4 7 4.22386 7 4.5C7 4.77614 6.77614 5 6.5 5H5V6.5C5 6.77614 4.77614 7 4.5 7C4.22386 7 4 6.77614 4 6.5V5H2.5C2.22386 5 2 4.77614 2 4.5C2 4.22386 2.22386 4 2.5 4H4V2.5C4 2.22386 4.22386 2 4.5 2Z" fill="#11910D"/>
</g>
<defs>
<clipPath id="clip0_7202_81969">
<rect width="16" height="16" fill="white"/>
</clipPath>
</defs>
</svg>
