<svg width="16" height="16" viewBox="0 0 16 16" fill="none" xmlns="http://www.w3.org/2000/svg">
<g clip-path="url(#clip0_7202_81913)">
<path fill-rule="evenodd" clip-rule="evenodd" d="M8.74289 7.99994H8.99994V12.4999C8.99994 12.6325 9.05262 12.7597 9.14639 12.8535C9.24015 12.9473 9.36733 12.9999 9.49994 12.9999H11.3629C11.2479 13.1876 11.1989 13.4083 11.2238 13.627C11.2486 13.8457 11.3458 14.0498 11.4999 14.2069L12.2929 14.9999C12.4805 15.1874 12.7348 15.2927 12.9999 15.2927C13.2651 15.2927 13.5194 15.1874 13.7069 14.9999L14.9999 13.7069C15.1874 13.5194 15.2927 13.2651 15.2927 12.9999C15.2927 12.7348 15.1874 12.4805 14.9999 12.2929L14.2069 11.4999C14.0194 11.3125 13.7651 11.2072 13.4999 11.2072C13.2348 11.2072 12.9805 11.3125 12.7929 11.4999L12.2929 11.9999H9.99994V7.99994H11.3629C11.2479 8.1876 11.1989 8.40832 11.2238 8.62701C11.2486 8.84571 11.3458 9.04983 11.4999 9.20694L12.2929 9.99994C12.4805 10.1874 12.7348 10.2927 12.9999 10.2927C13.2651 10.2927 13.5194 10.1874 13.7069 9.99994L14.9999 8.70694C15.1874 8.51941 15.2927 8.2651 15.2927 7.99994C15.2927 7.73478 15.1874 7.48047 14.9999 7.29294L14.2069 6.49994C14.0194 6.31247 13.7651 6.20715 13.4999 6.20715C13.2348 6.20715 12.9805 6.31247 12.7929 6.49994L12.2929 6.99994H9.40032C9.21743 7.35772 8.99651 7.69283 8.74289 7.99994ZM12.9999 9.29294L14.2929 7.99994L13.4999 7.20694L12.2069 8.49994L12.9999 9.29294ZM12.2069 13.4999L12.9999 14.2929L14.2929 12.9999L13.4999 12.2069L12.2069 13.4999Z" fill="#B27C00"/>
<path fill-rule="evenodd" clip-rule="evenodd" d="M9 4.5C9 6.98528 6.98528 9 4.5 9C2.01472 9 0 6.98528 0 4.5C0 2.01472 2.01472 0 4.5 0C6.98528 0 9 2.01472 9 4.5ZM4.5 2C4.77614 2 5 2.22386 5 2.5V4H6.5C6.77614 4 7 4.22386 7 4.5C7 4.77614 6.77614 5 6.5 5H5V6.5C5 6.77614 4.77614 7 4.5 7C4.22386 7 4 6.77614 4 6.5V5H2.5C2.22386 5 2 4.77614 2 4.5C2 4.22386 2.22386 4 2.5 4H4V2.5C4 2.22386 4.22386 2 4.5 2Z" fill="#11910D"/>
</g>
<defs>
<clipPath id="clip0_7202_81913">
<rect width="16" height="16" fill="white"/>
</clipPath>
</defs>
</svg>
