<svg width="16" height="16" viewBox="0 0 16 16" fill="none" xmlns="http://www.w3.org/2000/svg">
<g clip-path="url(#clip0_7202_82080)">
<path d="M9.50134 6.79165C9.30089 7.22842 9.0449 7.63441 8.74243 8.00057C8.88881 8.17777 9.02429 8.36429 9.14787 8.55912L13 4.707V6.329C13 6.46161 13.0527 6.58878 13.1464 6.68255C13.2402 6.77632 13.3674 6.829 13.5 6.829C13.6326 6.829 13.7598 6.77632 13.8535 6.68255C13.9473 6.58878 14 6.46161 14 6.329V3.5C14 3.36739 13.9473 3.24022 13.8535 3.14645C13.7598 3.05268 13.6326 3 13.5 3H10.672C10.5394 3 10.4122 3.05268 10.3184 3.14645C10.2247 3.24022 10.172 3.36739 10.172 3.5C10.172 3.63261 10.2247 3.75978 10.3184 3.85355C10.4122 3.94732 10.5394 4 10.672 4H12.293L9.50134 6.79165Z" fill="#202020"/>
<path d="M9.97767 12C9.94679 12.3434 9.88435 12.6777 9.79327 13H13.293L12.146 14.146C12.0995 14.1925 12.0626 14.2477 12.0375 14.3084C12.0123 14.3692 11.9994 14.4343 11.9994 14.5C11.9994 14.5657 12.0123 14.6308 12.0375 14.6916C12.0626 14.7523 12.0995 14.8075 12.146 14.854C12.1925 14.9005 12.2477 14.9374 12.3084 14.9625C12.3691 14.9877 12.4342 15.0006 12.5 15.0006C12.5657 15.0006 12.6308 14.9877 12.6916 14.9625C12.7523 14.9374 12.8075 14.9005 12.854 14.854L14.854 12.854C14.9006 12.8076 14.9375 12.7524 14.9627 12.6916C14.9879 12.6309 15.0009 12.5658 15.0009 12.5C15.0009 12.4342 14.9879 12.3691 14.9627 12.3084C14.9375 12.2476 14.9006 12.1924 14.854 12.146L12.854 10.146C12.7601 10.0521 12.6328 9.99937 12.5 9.99937C12.3672 9.99937 12.2399 10.0521 12.146 10.146C12.0521 10.2399 11.9994 10.3672 11.9994 10.5C11.9994 10.6328 12.0521 10.7601 12.146 10.854L13.293 12H9.97767Z" fill="#202020"/>
<path d="M5.87601 9.82656C5.43624 9.93984 4.97517 10.0001 4.50003 10.0001C4.02494 10.0001 3.56392 9.93985 3.12419 9.8266C3.05876 10.2141 3.02086 10.6066 3.0111 11.001H5.9891C5.97934 10.6065 5.94144 10.2141 5.87601 9.82656Z" fill="#006CBF"/>
<path d="M6.83392 9.48178C6.92945 9.98134 6.98195 10.4896 6.9901 11.001H8.9731C8.88121 10.1814 8.56585 9.40284 8.06148 8.75033C8.05229 8.73845 8.04305 8.72662 8.03376 8.71484C7.67075 9.01952 7.26781 9.27816 6.83392 9.48178Z" fill="#006CBF"/>
<path d="M0.966383 8.71491C1.3294 9.01959 1.73236 9.27822 2.16626 9.48184C2.07075 9.98138 2.01825 10.4896 2.0101 11.001H0.0270996C0.118987 10.1814 0.434345 9.40284 0.938723 8.75033C0.947887 8.73847 0.957107 8.72667 0.966383 8.71491Z" fill="#006CBF"/>
<path d="M2.0101 12.001H0.0270996C0.118987 12.8206 0.434345 13.5992 0.938723 14.2517C1.4431 14.9042 2.1171 15.4056 2.8871 15.701C2.3298 14.5459 2.03054 13.2834 2.0101 12.001Z" fill="#006CBF"/>
<path d="M3.6431 14.976C4.0651 15.901 4.4431 16.001 4.5001 16.001C4.5571 16.001 4.9351 15.901 5.3571 14.976C5.74954 14.0318 5.96382 13.0232 5.9891 12.001H3.0111C3.03638 13.0232 3.25066 14.0318 3.6431 14.976Z" fill="#006CBF"/>
<path d="M8.06148 14.2517C8.56585 13.5992 8.88121 12.8206 8.9731 12.001H6.9901C6.96966 13.2834 6.6704 14.5459 6.1131 15.701C6.8831 15.4056 7.5571 14.9042 8.06148 14.2517Z" fill="#006CBF"/>
<path fill-rule="evenodd" clip-rule="evenodd" d="M9 4.5C9 6.98528 6.98528 9 4.5 9C2.01472 9 0 6.98528 0 4.5C0 2.01472 2.01472 0 4.5 0C6.98528 0 9 2.01472 9 4.5ZM4.5 2C4.77614 2 5 2.22386 5 2.5V4H6.5C6.77614 4 7 4.22386 7 4.5C7 4.77614 6.77614 5 6.5 5H5V6.5C5 6.77614 4.77614 7 4.5 7C4.22386 7 4 6.77614 4 6.5V5H2.5C2.22386 5 2 4.77614 2 4.5C2 4.22386 2.22386 4 2.5 4H4V2.5C4 2.22386 4.22386 2 4.5 2Z" fill="#11910D"/>
</g>
<defs>
<clipPath id="clip0_7202_82080">
<rect width="16" height="16" fill="white"/>
</clipPath>
</defs>
</svg>
