<svg width="16" height="16" viewBox="0 0 16 16" fill="none" xmlns="http://www.w3.org/2000/svg">
<path d="M5 9.97758V12H3.5C3.36739 12 3.24021 11.9473 3.14645 11.8536C3.05268 11.7598 3 11.6326 3 11.5V9.79297C2.65136 9.69436 2.31679 9.56223 2 9.40029L2 11.5C2 11.8978 2.15804 12.2794 2.43934 12.5607C2.72064 12.842 3.10218 13 3.5 13H5V13.5C5 13.8978 5.15804 14.2794 5.43934 14.5607C5.72064 14.842 6.10218 15 6.5 15H11.5C11.8978 15 12.2794 14.842 12.5607 14.5607C12.842 14.2794 13 13.8978 13 13.5V11H14.5C14.8978 11 15.2794 10.842 15.5607 10.5607C15.842 10.2794 16 9.89782 16 9.5V2.5C16 2.10218 15.842 1.72064 15.5607 1.43934C15.2794 1.15804 14.8978 1 14.5 1H9.5C9.27583 1 9.05683 1.05018 8.85803 1.14432C9.06589 1.41387 9.2493 1.70324 9.40494 2.00912C9.43604 2.00309 9.46786 2 9.5 2H14.5C14.6326 2 14.7598 2.05268 14.8536 2.14645C14.9473 2.24021 15 2.36739 15 2.5V9.5C15 9.63261 14.9473 9.75979 14.8536 9.85355C14.7598 9.94732 14.6326 10 14.5 10H13V6.5C13 6.10218 12.842 5.72064 12.5607 5.43934C12.2794 5.15804 11.8978 5 11.5 5H9.97758C9.94663 5.34341 9.88412 5.67772 9.79297 6H11.5C11.6326 6 11.7598 6.05268 11.8536 6.14645C11.9473 6.24021 12 6.36739 12 6.5V13.5C12 13.6326 11.9473 13.7598 11.8536 13.8536C11.7598 13.9473 11.6326 14 11.5 14H6.5C6.36739 14 6.24021 13.9473 6.14645 13.8536C6.05268 13.7598 6 13.6326 6 13.5V9.79297C5.67772 9.88412 5.34341 9.94663 5 9.97758Z" fill="#202020"/>
<path fill-rule="evenodd" clip-rule="evenodd" d="M9 4.5C9 6.98528 6.98528 9 4.5 9C2.01472 9 0 6.98528 0 4.5C0 2.01472 2.01472 0 4.5 0C6.98528 0 9 2.01472 9 4.5ZM4.5 2C4.77614 2 5 2.22386 5 2.5V4H6.5C6.77614 4 7 4.22386 7 4.5C7 4.77614 6.77614 5 6.5 5H5V6.5C5 6.77614 4.77614 7 4.5 7C4.22386 7 4 6.77614 4 6.5V5H2.5C2.22386 5 2 4.77614 2 4.5C2 4.22386 2.22386 4 2.5 4H4V2.5C4 2.22386 4.22386 2 4.5 2Z" fill="#11910D"/>
</svg>
