<svg width="16" height="16" viewBox="0 0 16 16" fill="none" xmlns="http://www.w3.org/2000/svg">
<g clip-path="url(#clip0_7202_82060)">
<path d="M9.97758 5C9.94663 5.34341 9.88412 5.67772 9.79297 6H13C13.552 6 14 6.449 14 7V8H15V7C15 5.897 14.103 5 13 5H9.97758Z" fill="#202020"/>
<path d="M8 15V14H3C2.448 14 2 13.551 2 13C2 12.449 2.448 12 3 12H4C4.552 12 5 11.551 5 11V9.97758C4.83532 9.99242 4.66854 10 4.5 10C4.33146 10 4.16468 9.99242 4 9.97758V11H3C2.636 11 2.294 11.098 2 11.269V9.40029C1.64222 9.21739 1.30711 8.99647 1 8.74284V13C1 14.103 1.897 15 3 15H8Z" fill="#202020"/>
<path d="M7.01113 9.39458C7.00384 9.42857 7 9.46384 7 9.5C7 9.77614 7.22386 10 7.5 10C7.77614 10 8 9.77614 8 9.5C8 9.27108 7.84616 9.0781 7.63623 9.01879C7.43706 9.15728 7.22829 9.28295 7.01113 9.39458Z" fill="#202020"/>
<path d="M9.0188 7.63621C9.07816 7.84608 9.27121 8 9.5 8H12.5C12.776 8 13 7.776 13 7.5C13 7.224 12.776 7 12.5 7H9.5C9.46384 7 9.42857 7.00385 9.39457 7.01115C9.28294 7.22829 9.15729 7.43705 9.0188 7.63621Z" fill="#202020"/>
<path d="M8 11.5C8 11.2239 7.77614 11 7.5 11C7.22386 11 7 11.2239 7 11.5C7 11.7761 7.22386 12 7.5 12C7.77614 12 8 11.7761 8 11.5Z" fill="#202020"/>
<path fill-rule="evenodd" clip-rule="evenodd" d="M9 4.5C9 6.98528 6.98528 9 4.5 9C2.01472 9 0 6.98528 0 4.5C0 2.01472 2.01472 0 4.5 0C6.98528 0 9 2.01472 9 4.5ZM4.5 2C4.77614 2 5 2.22386 5 2.5V4H6.5C6.77614 4 7 4.22386 7 4.5C7 4.77614 6.77614 5 6.5 5H5V6.5C5 6.77614 4.77614 7 4.5 7C4.22386 7 4 6.77614 4 6.5V5H2.5C2.22386 5 2 4.77614 2 4.5C2 4.22386 2.22386 4 2.5 4H4V2.5C4 2.22386 4.22386 2 4.5 2Z" fill="#11910D"/>
<path d="M12 15V13H9L9 15C9 15.552 9.448 16 10 16H11C11.552 16 12 15.552 12 15ZM9 12L9 10C9 9.448 9.448 9 10 9L12 9V12H9ZM16 10V11C16 11.552 15.552 12 15 12H13L13 9L15 9C15.552 9 16 9.448 16 10Z" fill="#202020"/>
</g>
<defs>
<clipPath id="clip0_7202_82060">
<rect width="16" height="16" fill="white"/>
</clipPath>
</defs>
</svg>
