<svg width="16" height="16" viewBox="0 0 16 16" fill="none" xmlns="http://www.w3.org/2000/svg">
<path fill-rule="evenodd" clip-rule="evenodd" d="M6 9.79297L6 13C6 14.1046 6.89543 15 8 15H14C15.1046 15 16 14.1046 16 13V5.41421C16 5.01639 15.842 4.63486 15.5607 4.35355L12.6464 1.43934C12.3651 1.15804 11.9836 1 11.5858 1L8.74284 1C8.99647 1.30711 9.21739 1.64222 9.40029 2H11V4.5C11 5.32843 11.6716 6 12.5 6H15V13C15 13.5523 14.5523 14 14 14H8C7.44772 14 7 13.5523 7 13V9.40029C6.68321 9.56223 6.34864 9.69436 6 9.79297ZM12.5 5H14.7929L12 2.20711V4.5C12 4.77614 12.2239 5 12.5 5Z" fill="#202020"/>
<path d="M9 7.66308C9.48948 6.96799 9.822 6.15439 9.94599 5.27384C9.98053 5.34176 10 5.41862 10 5.5V7.278C10.295 7.106 10.634 7 11 7C12.103 7 13 7.897 13 9V10.5C13 10.776 12.776 11 12.5 11C12.224 11 12 10.776 12 10.5V9C12 8.448 11.551 8 11 8C10.449 8 10 8.448 10 9V10.5C10 10.776 9.776 11 9.5 11C9.224 11 9 10.776 9 10.5L9 7.66308Z" fill="#202020"/>
<path fill-rule="evenodd" clip-rule="evenodd" d="M9 4.5C9 6.98528 6.98528 9 4.5 9C2.01472 9 0 6.98528 0 4.5C0 2.01472 2.01472 0 4.5 0C6.98528 0 9 2.01472 9 4.5ZM4.5 2C4.77614 2 5 2.22386 5 2.5V4H6.5C6.77614 4 7 4.22386 7 4.5C7 4.77614 6.77614 5 6.5 5H5V6.5C5 6.77614 4.77614 7 4.5 7C4.22386 7 4 6.77614 4 6.5V5H2.5C2.22386 5 2 4.77614 2 4.5C2 4.22386 2.22386 4 2.5 4H4V2.5C4 2.22386 4.22386 2 4.5 2Z" fill="#11910D"/>
</svg>
