<svg width="16" height="16" viewBox="0 0 16 16" fill="none" xmlns="http://www.w3.org/2000/svg">
<g clip-path="url(#clip0_7202_82245)">
<path d="M3.00388 9.79406C3.02471 9.91107 3.12703 10 3.25 10H10.75C10.888 10 11 9.888 11 9.75V8.25C11 8.112 10.888 8 10.75 8H8.74284C8.99647 7.69289 9.21739 7.35778 9.40029 7H10.75C11.439 7 12 7.561 12 8.25V9.75C12 10.439 11.439 11 10.75 11H3.25C2.561 11 2 10.439 2 9.75L2 9.40029C2.31797 9.56283 2.65384 9.69534 3.00388 9.79406Z" fill="#202020"/>
<path d="M9.40029 2C9.56223 2.31679 9.69436 2.65136 9.79297 3L14.75 3C14.888 3 15 3.112 15 3.25V4.75C15 4.888 14.888 5 14.75 5L9.97758 5C9.94663 5.34341 9.88412 5.67772 9.79297 6H14.75C15.439 6 16 5.439 16 4.75V3.25C16 2.561 15.439 2 14.75 2L9.40029 2Z" fill="#202020"/>
<path fill-rule="evenodd" clip-rule="evenodd" d="M2 14.75V13.25C2 12.561 2.561 12 3.25 12H8.75C9.439 12 10 12.561 10 13.25V14.75C10 15.439 9.439 16 8.75 16H3.25C2.561 16 2 15.439 2 14.75ZM8.75 15C8.888 15 9 14.888 9 14.75V13.25C9 13.112 8.888 13 8.75 13H3.25C3.112 13 3 13.112 3 13.25L3 14.75C3 14.888 3.112 15 3.25 15H8.75Z" fill="#202020"/>
<path fill-rule="evenodd" clip-rule="evenodd" d="M9 4.5C9 6.98528 6.98528 9 4.5 9C2.01472 9 0 6.98528 0 4.5C0 2.01472 2.01472 0 4.5 0C6.98528 0 9 2.01472 9 4.5ZM4.5 2C4.77614 2 5 2.22386 5 2.5V4H6.5C6.77614 4 7 4.22386 7 4.5C7 4.77614 6.77614 5 6.5 5H5V6.5C5 6.77614 4.77614 7 4.5 7C4.22386 7 4 6.77614 4 6.5V5H2.5C2.22386 5 2 4.77614 2 4.5C2 4.22386 2.22386 4 2.5 4H4V2.5C4 2.22386 4.22386 2 4.5 2Z" fill="#11910D"/>
</g>
<defs>
<clipPath id="clip0_7202_82245">
<rect width="16" height="16" fill="white"/>
</clipPath>
</defs>
</svg>
