<svg width="16" height="16" viewBox="0 0 16 16" fill="none" xmlns="http://www.w3.org/2000/svg">
<path d="M5.35969 9.93321L4.29289 11C4.10536 11.1875 4 11.4419 4 11.7071V13C4 13.5523 4.44772 14 5 14H7C7.55229 14 8 13.5523 8 13V12.5H9C9.27614 12.5 9.5 12.2761 9.5 12V11.5H10.5C10.7761 11.5 11 11.2761 11 11V10H12C14.2091 10 16 8.20914 16 6C16 3.79086 14.2091 2 12 2C11.1467 2 10.3558 2.26719 9.70642 2.72247C9.82458 3.06864 9.90918 3.43036 9.95635 3.80374C10.492 3.30505 11.2104 3 12 3C13.6569 3 15 4.34315 15 6C15 7.65685 13.6569 9 12 9H10.5C10.2239 9 10 9.22386 10 9.5V10.5H9C8.72386 10.5 8.5 10.7239 8.5 11V11.5H7.5C7.22386 11.5 7 11.7239 7 12V13H5V11.7071L7.82748 8.87963C7.11965 9.41824 6.27732 9.78917 5.35969 9.93321Z" fill="#202020"/>
<path d="M8.87963 7.82748L9.08898 7.61813C9.17546 7.53165 9.22538 7.41868 9.23407 7.30143C9.1259 7.48383 9.00749 7.65945 8.87963 7.82748Z" fill="#202020"/>
<path d="M14 5C14 5.55228 13.5523 6 13 6C12.4477 6 12 5.55228 12 5C12 4.44772 12.4477 4 13 4C13.5523 4 14 4.44772 14 5Z" fill="#202020"/>
<path fill-rule="evenodd" clip-rule="evenodd" d="M9 4.5C9 6.98528 6.98528 9 4.5 9C2.01472 9 0 6.98528 0 4.5C0 2.01472 2.01472 0 4.5 0C6.98528 0 9 2.01472 9 4.5ZM4.5 2C4.77614 2 5 2.22386 5 2.5V4H6.5C6.77614 4 7 4.22386 7 4.5C7 4.77614 6.77614 5 6.5 5H5V6.5C5 6.77614 4.77614 7 4.5 7C4.22386 7 4 6.77614 4 6.5V5H2.5C2.22386 5 2 4.77614 2 4.5C2 4.22386 2.22386 4 2.5 4H4V2.5C4 2.22386 4.22386 2 4.5 2Z" fill="#11910D"/>
</svg>
