<svg width="16" height="16" viewBox="0 0 16 16" fill="none" xmlns="http://www.w3.org/2000/svg">
<path fill-rule="evenodd" clip-rule="evenodd" d="M5 9.97758V11H3V9.79297C2.65136 9.69436 2.31679 9.56223 2 9.40029L2 12.5C2 13.879 3.122 15 4.5 15H12.5C13.878 15 15 13.879 15 12.5V4.5C15 3.121 13.878 2 12.5 2L9.40029 2C9.56223 2.31679 9.69436 2.65136 9.79297 3H12.5C13.327 3 14 3.673 14 4.5V5H9.97758C9.94663 5.34341 9.88412 5.67772 9.79297 6H14V8H8.74284C8.42948 8.37943 8.06621 8.71611 7.66308 9H14V11H6V9.79297C5.67772 9.88412 5.34341 9.94663 5 9.97758ZM3 12V12.5C3 13.327 3.673 14 4.5 14H5V12H3ZM6 14H12.5C13.327 14 14 13.327 14 12.5V12H6V14Z" fill="#202020"/>
<path fill-rule="evenodd" clip-rule="evenodd" d="M9 4.5C9 6.98528 6.98528 9 4.5 9C2.01472 9 0 6.98528 0 4.5C0 2.01472 2.01472 0 4.5 0C6.98528 0 9 2.01472 9 4.5ZM4.5 2C4.77614 2 5 2.22386 5 2.5V4H6.5C6.77614 4 7 4.22386 7 4.5C7 4.77614 6.77614 5 6.5 5H5V6.5C5 6.77614 4.77614 7 4.5 7C4.22386 7 4 6.77614 4 6.5V5H2.5C2.22386 5 2 4.77614 2 4.5C2 4.22386 2.22386 4 2.5 4H4V2.5C4 2.22386 4.22386 2 4.5 2Z" fill="#11910D"/>
</svg>
