<svg width="16" height="16" viewBox="0 0 16 16" fill="none" xmlns="http://www.w3.org/2000/svg">
<g clip-path="url(#clip0_7202_82265)">
<path d="M15.5 11C15.776 11 16 11.224 16 11.5V12.751C16 13.083 15.868 13.401 15.634 13.635C15.399 13.869 15.082 14.001 14.75 14.001H12.707L13.353 14.647C13.548 14.842 13.548 15.159 13.353 15.354C13.158 15.549 12.841 15.549 12.646 15.354L11.146 13.854C10.951 13.659 10.951 13.342 11.146 13.147L12.646 11.647C12.841 11.452 13.158 11.452 13.353 11.647C13.548 11.842 13.548 12.159 13.353 12.354L12.707 13H14.75C14.817 13 14.88 12.974 14.927 12.927C14.974 12.88 15 12.816 15 12.75V11.5C15 11.224 15.224 11 15.5 11Z" fill="#006CBF"/>
<path d="M4.5 10C4.66854 10 4.83532 9.99242 5 9.97758V10.5C5 10.7761 4.77614 11 4.5 11H3.5C3.22386 11 3 10.7761 3 10.5V9.79297C3.47683 9.92783 3.97999 10 4.5 10Z" fill="#202020"/>
<path d="M1 8.74284C1.30711 8.99647 1.64222 9.21739 2 9.40029V13.5C2 13.775 2.224 14 2.5 14H8.5C8.776 14 9 13.775 9 13.5V8.5C9 8.29808 8.87923 8.12312 8.70579 8.04438C8.92163 7.78852 9.11456 7.5127 9.28139 7.22007C9.71204 7.48398 10 7.95904 10 8.5V13.5C10 14.327 9.327 15 8.5 15H2.5C1.673 15 1 14.327 1 13.5V8.74284Z" fill="#202020"/>
<path fill-rule="evenodd" clip-rule="evenodd" d="M10 4V4.5C10 3.97999 9.92783 3.47683 9.79297 3H13.5C13.776 3 14 3.224 14 3.5V7.5C14 7.776 13.776 8 13.5 8H10.949C10.873 7.628 10.708 7.292 10.487 7H11V4H10ZM12 7H13V6H12V7ZM12 5H13V4H12V5Z" fill="#202020"/>
<path d="M14.5 2H9.40029C9.21739 1.64222 8.99647 1.30711 8.74284 1H14.5C15.327 1 16 1.673 16 2.5V8.5C16 9.327 15.327 10 14.5 10H11V9H14.5C14.776 9 15 8.775 15 8.5V2.5C15 2.225 14.776 2 14.5 2Z" fill="#202020"/>
<path d="M6.5 10C6.22386 10 6 10.2239 6 10.5V12.5C6 12.7761 6.22386 13 6.5 13H7.5C7.77614 13 8 12.7761 8 12.5V10.5C8 10.2239 7.77614 10 7.5 10H6.5Z" fill="#202020"/>
<path fill-rule="evenodd" clip-rule="evenodd" d="M9 4.5C9 6.98528 6.98528 9 4.5 9C2.01472 9 0 6.98528 0 4.5C0 2.01472 2.01472 0 4.5 0C6.98528 0 9 2.01472 9 4.5ZM4.5 2C4.77614 2 5 2.22386 5 2.5V4H6.5C6.77614 4 7 4.22386 7 4.5C7 4.77614 6.77614 5 6.5 5H5V6.5C5 6.77614 4.77614 7 4.5 7C4.22386 7 4 6.77614 4 6.5V5H2.5C2.22386 5 2 4.77614 2 4.5C2 4.22386 2.22386 4 2.5 4H4V2.5C4 2.22386 4.22386 2 4.5 2Z" fill="#11910D"/>
</g>
<defs>
<clipPath id="clip0_7202_82265">
<rect width="16" height="16" fill="white"/>
</clipPath>
</defs>
</svg>
