<svg width="16" height="16" viewBox="0 0 16 16" fill="none" xmlns="http://www.w3.org/2000/svg">
<g clip-path="url(#clip0_7202_82299)">
<path d="M2.5 11C1.119 11 0 12.119 0 13.5C0 14.881 1.119 16 2.5 16H3C3.276 16 3.5 15.776 3.5 15.5C3.5 15.224 3.276 15 3 15H2.5C1.672 15 1 14.328 1 13.5C1 12.672 1.672 12 2.5 12H3C3.276 12 3.5 11.776 3.5 11.5C3.5 11.224 3.276 11 3 11H2.5Z" fill="#006CBF"/>
<path d="M6 11C5.724 11 5.5 11.224 5.5 11.5C5.5 11.776 5.724 12 6 12H6.5C7.328 12 8 12.672 8 13.5C8 14.328 7.328 15 6.5 15H6C5.724 15 5.5 15.224 5.5 15.5C5.5 15.776 5.724 16 6 16H6.5C7.881 16 9 14.881 9 13.5C9 12.119 7.881 11 6.5 11H6Z" fill="#006CBF"/>
<path d="M2.5 13C2.224 13 2 13.224 2 13.5C2 13.776 2.224 14 2.5 14H6.5C6.776 14 7 13.776 7 13.5C7 13.224 6.776 13 6.5 13H2.5Z" fill="#006CBF"/>
<path fill-rule="evenodd" clip-rule="evenodd" d="M10 4.5C10 4.66854 9.99242 4.83532 9.97758 5H11V6H11.5C12.878 6 14 7.121 14 8.5V9H14.5C15.327 9 16 8.327 16 7.5V3.5C16 2.673 15.327 2 14.5 2H10.5C10.1431 2 9.81497 2.12531 9.55717 2.33422C9.84218 2.99887 10 3.73101 10 4.5ZM10 4V3.5C10 3.225 10.224 3 10.5 3H11V4H10ZM13 6H12V5H13V6ZM13 4H12V3H13V4ZM15 7.5C15 7.775 14.776 8 14.5 8H14V7H15V7.5ZM14 6V5H15V6H14ZM14 3H14.5C14.776 3 15 3.225 15 3.5V4H14V3Z" fill="#202020"/>
<path fill-rule="evenodd" clip-rule="evenodd" d="M6 10V9.79297C6.60281 9.62247 7.16355 9.35177 7.66308 9H8V8.74284C8.57767 8.26576 9.05626 7.67299 9.40029 7H11.5C12.327 7 13 7.673 13 8.5V12.5C13 13.327 12.327 14 11.5 14H9.95L9.95903 13.9362C9.97951 13.7926 10 13.649 10 13.5C10 13.3416 9.97769 13.1892 9.95532 13.0364L9.95 13H10V12H9.65C9.305 11.277 8.723 10.695 8 10.35V10H7V10.05L6.93622 10.041C6.79261 10.0205 6.64895 10 6.5 10H6ZM10 11H9V10H10V11ZM10 9H9V8H10V9ZM12 12.5C12 12.775 11.776 13 11.5 13H11V12H12V12.5ZM11 11V10H12V11H11ZM11 8H11.5C11.776 8 12 8.225 12 8.5V9H11V8Z" fill="#202020"/>
<path fill-rule="evenodd" clip-rule="evenodd" d="M9 4.5C9 6.98528 6.98528 9 4.5 9C2.01472 9 0 6.98528 0 4.5C0 2.01472 2.01472 0 4.5 0C6.98528 0 9 2.01472 9 4.5ZM4.5 2C4.77614 2 5 2.22386 5 2.5V4H6.5C6.77614 4 7 4.22386 7 4.5C7 4.77614 6.77614 5 6.5 5H5V6.5C5 6.77614 4.77614 7 4.5 7C4.22386 7 4 6.77614 4 6.5V5H2.5C2.22386 5 2 4.77614 2 4.5C2 4.22386 2.22386 4 2.5 4H4V2.5C4 2.22386 4.22386 2 4.5 2Z" fill="#11910D"/>
</g>
<defs>
<clipPath id="clip0_7202_82299">
<rect width="16" height="16" fill="white"/>
</clipPath>
</defs>
</svg>
