<svg width="16" height="16" viewBox="0 0 16 16" fill="none" xmlns="http://www.w3.org/2000/svg">
<g clip-path="url(#clip0_7202_82344)">
<path d="M8.42266 8.35525L8.04602 9.001L9.02702 9.303L9.52302 8.453C9.83502 7.917 10 7.309 10 6.689V4.5V3H12V6.689C12 7.309 12.165 7.918 12.477 8.453L13.033 9.406L13.954 9L13.341 7.949C13.118 7.566 13 7.132 13 6.689V3H13.5C13.776 3 14 2.776 14 2.5C14 2.224 13.776 2 13.5 2H9.40031C9.78374 2.75007 10 3.59978 10 4.5C10 6.00164 9.39823 7.36273 8.42266 8.35525Z" fill="#202020"/>
<path d="M15.555 11.744L13.954 9H8.04597L6.44497 11.744C5.86197 12.744 6.58297 14 7.74097 14H14.259C15.417 14 16.138 12.744 15.555 11.744ZM14.259 13H7.74097C7.35497 13 7.11497 12.581 7.30897 12.248L8.61997 10H13.379L14.69 12.248C14.884 12.581 14.645 13 14.259 13Z" fill="#159195"/>
<path d="M2.00915 9.40494C2.32324 9.56476 2.65473 9.6953 3.00003 9.79296L3.00003 14.29L4.15003 13.15C4.19515 13.1026 4.24944 13.0648 4.3096 13.039C4.36977 13.0132 4.43456 12.9999 4.50003 12.9999C4.5655 12.9999 4.63028 13.0132 4.69045 13.039C4.75062 13.0648 4.80491 13.1026 4.85003 13.15C4.89747 13.1951 4.93524 13.2494 4.96106 13.3096C4.98687 13.3698 5.00018 13.4345 5.00018 13.5C5.00018 13.5655 4.98687 13.6303 4.96106 13.6904C4.93524 13.7506 4.89747 13.8049 4.85003 13.85L2.85003 15.85C2.80491 15.8975 2.75062 15.9352 2.69045 15.961C2.63029 15.9869 2.5655 16.0002 2.50003 16.0002C2.43456 16.0002 2.36977 15.9869 2.3096 15.961C2.24944 15.9352 2.19515 15.8975 2.15003 15.85L0.150028 13.85C0.102586 13.8049 0.0648117 13.7506 0.0389999 13.6904C0.0131882 13.6303 -0.00012207 13.5655 -0.00012207 13.5C-0.00012207 13.4345 0.0131882 13.3698 0.0389999 13.3096C0.0648116 13.2494 0.102586 13.1951 0.150028 13.15C0.195146 13.1026 0.249437 13.0648 0.309604 13.039C0.369771 13.0132 0.434558 12.9999 0.500028 12.9999C0.565498 12.9999 0.630285 13.0132 0.690452 13.039C0.750619 13.0648 0.804911 13.1026 0.850028 13.15L2.00003 14.29L2.00003 9.50001C2.00003 9.46787 2.00312 9.43604 2.00915 9.40494Z" fill="#202020"/>
<path fill-rule="evenodd" clip-rule="evenodd" d="M9 4.5C9 6.98528 6.98528 9 4.5 9C2.01472 9 0 6.98528 0 4.5C0 2.01472 2.01472 0 4.5 0C6.98528 0 9 2.01472 9 4.5ZM4.5 2C4.77614 2 5 2.22386 5 2.5V4H6.5C6.77614 4 7 4.22386 7 4.5C7 4.77614 6.77614 5 6.5 5H5V6.5C5 6.77614 4.77614 7 4.5 7C4.22386 7 4 6.77614 4 6.5V5H2.5C2.22386 5 2 4.77614 2 4.5C2 4.22386 2.22386 4 2.5 4H4V2.5C4 2.22386 4.22386 2 4.5 2Z" fill="#11910D"/>
</g>
<defs>
<clipPath id="clip0_7202_82344">
<rect width="16" height="16" fill="white"/>
</clipPath>
</defs>
</svg>
