<svg width="16" height="16" viewBox="0 0 16 16" fill="none" xmlns="http://www.w3.org/2000/svg">
<g clip-path="url(#clip0_7202_82408)">
<path d="M5 9.97758L5 13.75C5 13.888 4.888 14 4.75 14L3.25 14C3.112 14 3 13.888 3 13.75L3 9.79297C2.65136 9.69436 2.31679 9.56223 2 9.40029L2 13.75C2 14.439 2.561 15 3.25 15H4.75C5.439 15 6 14.439 6 13.75L6 9.79297C5.67772 9.88412 5.34341 9.94663 5 9.97758Z" fill="#202020"/>
<path d="M7 9.40029L7 13.75C7 14.439 7.561 15 8.25 15H9.75C10.439 15 11 14.439 11 13.75V6.25C11 5.63803 10.5574 5.12705 9.9757 5.02043C9.94402 5.35792 9.88185 5.68654 9.79197 6.00351C9.91001 6.02349 10 6.1263 10 6.25L10 13.75C10 13.888 9.888 14 9.75 14H8.25C8.112 14 8 13.888 8 13.75L8 8.74284C7.69289 8.99647 7.35778 9.21739 7 9.40029Z" fill="#202020"/>
<path fill-rule="evenodd" clip-rule="evenodd" d="M13.25 15H14.75C15.439 15 16 14.439 16 13.75L16 2.25C16 1.561 15.439 1 14.75 1H13.25C12.561 1 12 1.561 12 2.25L12 13.75C12 14.439 12.561 15 13.25 15ZM13 2.25C13 2.112 13.112 2 13.25 2L14.75 2C14.888 2 15 2.112 15 2.25L15 13.75C15 13.888 14.888 14 14.75 14H13.25C13.112 14 13 13.888 13 13.75L13 2.25Z" fill="#202020"/>
<path fill-rule="evenodd" clip-rule="evenodd" d="M9 4.5C9 6.98528 6.98528 9 4.5 9C2.01472 9 0 6.98528 0 4.5C0 2.01472 2.01472 0 4.5 0C6.98528 0 9 2.01472 9 4.5ZM4.5 2C4.77614 2 5 2.22386 5 2.5V4H6.5C6.77614 4 7 4.22386 7 4.5C7 4.77614 6.77614 5 6.5 5H5V6.5C5 6.77614 4.77614 7 4.5 7C4.22386 7 4 6.77614 4 6.5V5H2.5C2.22386 5 2 4.77614 2 4.5C2 4.22386 2.22386 4 2.5 4H4V2.5C4 2.22386 4.22386 2 4.5 2Z" fill="#11910D"/>
</g>
<defs>
<clipPath id="clip0_7202_82408">
<rect width="16" height="16" fill="white"/>
</clipPath>
</defs>
</svg>
