<svg width="16" height="16" viewBox="0 0 16 16" fill="none" xmlns="http://www.w3.org/2000/svg">
<path d="M9.79297 3H12C12.552 3 13 3.448 13 4V12C13 12.552 12.552 13 12 13H4C3.448 13 3 12.552 3 12V9.79297C2.65136 9.69436 2.31679 9.56223 2 9.40029L2 12C2 13.103 2.897 14 4 14H12C13.103 14 14 13.103 14 12V4C14 2.897 13.103 2 12 2L9.40029 2C9.56223 2.31679 9.69436 2.65136 9.79297 3Z" fill="#202020"/>
<path d="M9.99196 4.8C9.9973 4.70068 10 4.60065 10 4.5C10 4.33146 9.99242 4.16468 9.97758 4L12 4L10.4 12H9.19999L8.46279 8.31397C8.83594 7.92635 9.15277 7.4841 9.40008 7.00042L9.79999 9L10.64 4.8H9.99196Z" fill="#202020"/>
<path d="M7.36025 9.19869C6.71271 9.59372 5.97712 9.85865 5.1898 9.95716L5.59999 12H6.79999L7.36025 9.19869Z" fill="#202020"/>
<path fill-rule="evenodd" clip-rule="evenodd" d="M9 4.5C9 6.98528 6.98528 9 4.5 9C2.01472 9 0 6.98528 0 4.5C0 2.01472 2.01472 0 4.5 0C6.98528 0 9 2.01472 9 4.5ZM4.5 2C4.77614 2 5 2.22386 5 2.5V4H6.5C6.77614 4 7 4.22386 7 4.5C7 4.77614 6.77614 5 6.5 5H5V6.5C5 6.77614 4.77614 7 4.5 7C4.22386 7 4 6.77614 4 6.5V5H2.5C2.22386 5 2 4.77614 2 4.5C2 4.22386 2.22386 4 2.5 4H4V2.5C4 2.22386 4.22386 2 4.5 2Z" fill="#11910D"/>
</svg>
