<svg width="16" height="16" viewBox="0 0 16 16" fill="none" xmlns="http://www.w3.org/2000/svg">
<g clip-path="url(#clip0_7202_82488)">
<path d="M6 9.79297V10.5C6 10.6326 6.05268 10.7598 6.14645 10.8535C6.24021 10.9473 6.36739 11 6.5 11C6.63261 11 6.75979 10.9473 6.85355 10.8535C6.94732 10.7598 7 10.6326 7 10.5V9.40029C6.68321 9.56223 6.34864 9.69436 6 9.79297Z" fill="#202020"/>
<path d="M9.15585 7.42934L10.265 6.73599C10.3236 6.70262 10.3748 6.65776 10.4155 6.6041C10.4563 6.55044 10.4858 6.4891 10.5023 6.42375C10.5187 6.3584 10.5218 6.2904 10.5113 6.22382C10.5009 6.15725 10.477 6.09349 10.4413 6.03636C10.4055 5.97923 10.3586 5.92991 10.3033 5.89138C10.248 5.85285 10.1855 5.82589 10.1196 5.81212C10.0536 5.79836 9.98551 5.79807 9.91943 5.81128C9.89116 5.81693 9.86351 5.825 9.83677 5.83536C9.6941 6.40738 9.46188 6.94396 9.15585 7.42934Z" fill="#202020"/>
<path d="M9.99765 4.33757C9.98461 3.88806 9.91764 3.45207 9.80297 3.03584L11.8 4.28199C12.0148 4.41742 12.1917 4.60517 12.3142 4.82765C12.4366 5.05013 12.5005 5.30005 12.5 5.55399V6.86099L13.2 6.41599C13.4394 6.26533 13.7163 6.18489 13.9991 6.18383C14.282 6.18277 14.5595 6.26112 14.8 6.40999L15.3 6.71899C15.515 6.85451 15.692 7.04242 15.8144 7.26509C15.9368 7.48775 16.0007 7.73788 16 7.99199V11.514C16.0022 11.7664 15.9407 12.0154 15.8212 12.2377C15.7016 12.4601 15.5278 12.6487 15.316 12.786L10.91 15.586C10.6708 15.7372 10.3938 15.818 10.1109 15.819C9.82788 15.8201 9.55032 15.7414 9.31 15.592L8.71 15.221C8.49426 15.0862 8.31636 14.8987 8.19304 14.6761C8.06971 14.4536 8.005 14.2034 8.005 13.949V12.641L7.305 13.086C7.06572 13.237 6.7888 13.3176 6.50586 13.3187C6.22293 13.3197 5.9454 13.2412 5.705 13.092L2.705 11.221C2.48926 11.0862 2.31136 10.8987 2.18804 10.6761C2.06471 10.4536 2 10.2034 2 9.94899L2 9.40029C2.31679 9.56223 2.65136 9.69436 3 9.79297V9.94599C3 10.0308 3.02157 10.1142 3.06268 10.1884C3.10379 10.2625 3.16309 10.325 3.235 10.37L6.229 12.24C6.30935 12.2898 6.40199 12.3161 6.4965 12.3161C6.59101 12.3161 6.68365 12.2898 6.764 12.24L8 11.449V10.549C7.99984 10.2966 8.06336 10.0483 8.18467 9.827C8.30598 9.6057 8.48116 9.41859 8.694 9.28299L11.5 7.49999V5.55399C11.5 5.46918 11.4784 5.38577 11.4373 5.3116C11.3962 5.23743 11.3369 5.17493 11.265 5.12999L9.99765 4.33757Z" fill="#202020"/>
<path fill-rule="evenodd" clip-rule="evenodd" d="M9 4.5C9 6.98528 6.98528 9 4.5 9C2.01472 9 0 6.98528 0 4.5C0 2.01472 2.01472 0 4.5 0C6.98528 0 9 2.01472 9 4.5ZM4.5 2C4.77614 2 5 2.22386 5 2.5V4H6.5C6.77614 4 7 4.22386 7 4.5C7 4.77614 6.77614 5 6.5 5H5V6.5C5 6.77614 4.77614 7 4.5 7C4.22386 7 4 6.77614 4 6.5V5H2.5C2.22386 5 2 4.77614 2 4.5C2 4.22386 2.22386 4 2.5 4H4V2.5C4 2.22386 4.22386 2 4.5 2Z" fill="#11910D"/>
</g>
<defs>
<clipPath id="clip0_7202_82488">
<rect width="16" height="16" fill="white"/>
</clipPath>
</defs>
</svg>
