<svg width="16" height="16" viewBox="0 0 16 16" fill="none" xmlns="http://www.w3.org/2000/svg">
<path fill-rule="evenodd" clip-rule="evenodd" d="M7 12.5C7 13.0814 6.66733 13.5867 6.18237 13.8356C6.49885 14.5229 7.19371 15 8 15H14C15.1046 15 16 14.1046 16 13V5.41421C16 5.01639 15.842 4.63486 15.5607 4.35355L12.6464 1.43934C12.3651 1.15804 11.9836 1 11.5858 1H8.74283C8.99646 1.30711 9.21739 1.64222 9.40029 2H11V4.5C11 5.32843 11.6716 6 12.5 6H15V13C15 13.5523 14.5523 14 14 14H8C7.44771 14 7 13.5523 7 13V12.5ZM12.5 5H14.7929L12 2.20711V4.5C12 4.77614 12.2239 5 12.5 5Z" fill="#202020"/>
<path fill-rule="evenodd" clip-rule="evenodd" d="M9 4.5C9 6.98528 6.98528 9 4.5 9C2.01472 9 0 6.98528 0 4.5C0 2.01472 2.01472 0 4.5 0C6.98528 0 9 2.01472 9 4.5ZM4.5 2C4.77614 2 5 2.22386 5 2.5V4H6.5C6.77614 4 7 4.22386 7 4.5C7 4.77614 6.77614 5 6.5 5H5V6.5C5 6.77614 4.77614 7 4.5 7C4.22386 7 4 6.77614 4 6.5V5H2.5C2.22386 5 2 4.77614 2 4.5C2 4.22386 2.22386 4 2.5 4H4V2.5C4 2.22386 4.22386 2 4.5 2Z" fill="#11910D"/>
<path d="M4 10.5C4 10.2239 3.77614 10 3.5 10C3.22386 10 3 10.2239 3 10.5V12H1.5C1.22386 12 1 12.2239 1 12.5C1 12.7761 1.22386 13 1.5 13H3V14.5C3 14.7761 3.22386 15 3.5 15C3.77614 15 4 14.7761 4 14.5V13H5.5C5.77614 13 6 12.7761 6 12.5C6 12.2239 5.77614 12 5.5 12H4V10.5Z" fill="#202020"/>
</svg>
