<svg width="16" height="16" viewBox="0 0 16 16" fill="none" xmlns="http://www.w3.org/2000/svg">
<path d="M9.79297 3H13.988C14.54 3 14.987 3.447 14.987 3.999V6.498H15.986V3.999H15.985C15.985 2.895 15.091 2 13.987 2L9.40029 2C9.56223 2.31679 9.69436 2.65136 9.79297 3Z" fill="#202020"/>
<path d="M15.985 11.992V10.245H14.987V11.992C14.987 12.544 14.54 12.991 13.988 12.991H5.998C5.446 12.991 4.999 12.544 4.999 11.992V10.245H4V11.992C4 13.096 4.895 13.991 5.998 13.991H7.991V14H8.99V13.991H10.985V14H11.984V13.991H13.987C15.091 13.991 15.985 13.096 15.985 11.992Z" fill="#202020"/>
<path d="M8.38431 8.39386L9.546 10.718C9.634 10.894 9.817 11.002 10.013 10.994C10.209 10.986 10.383 10.863 10.456 10.68L12.041 6.716L13.042 8.719C13.127 8.888 13.3 8.995 13.489 8.995H15.501C15.777 8.995 16 8.771 16 8.495C16 8.219 15.776 7.995 15.501 7.995H13.797L12.437 5.273C12.349 5.097 12.166 4.989 11.97 4.997L11.969 4.999C11.773 5.007 11.599 5.13 11.526 5.313L9.941 9.277L9.07785 7.54954C8.87481 7.85372 8.64227 8.13653 8.38431 8.39386Z" fill="#11910D"/>
<path fill-rule="evenodd" clip-rule="evenodd" d="M9 4.5C9 6.98528 6.98528 9 4.5 9C2.01472 9 0 6.98528 0 4.5C0 2.01472 2.01472 0 4.5 0C6.98528 0 9 2.01472 9 4.5ZM4.5 2C4.77614 2 5 2.22386 5 2.5V4H6.5C6.77614 4 7 4.22386 7 4.5C7 4.77614 6.77614 5 6.5 5H5V6.5C5 6.77614 4.77614 7 4.5 7C4.22386 7 4 6.77614 4 6.5V5H2.5C2.22386 5 2 4.77614 2 4.5C2 4.22386 2.22386 4 2.5 4H4V2.5C4 2.22386 4.22386 2 4.5 2Z" fill="#11910D"/>
</svg>
