<svg width="16" height="16" viewBox="0 0 16 16" fill="none" xmlns="http://www.w3.org/2000/svg">
<g clip-path="url(#clip0_7202_82735)">
<path d="M5.38735 9.92879C5.09849 9.97565 4.80209 10 4.5 10C4.37941 10 4.25973 9.99612 4.14108 9.98848C3.85515 10.706 4.00386 11.5552 4.58722 12.1357L7.88331 15.4157C8.66627 16.1948 9.93569 16.1948 10.7187 15.4157L15.3884 10.7688C15.7608 10.3982 15.9717 9.89662 15.9755 9.3725L15.9999 6.00947C16.008 4.89877 15.1029 3.99538 13.9867 4.00002L10.7362 4.01353C10.4777 4.0146 10.2246 4.06531 9.98968 4.16032C9.99653 4.27267 10 4.38593 10 4.5C10 4.81138 9.97412 5.11671 9.92441 5.41397L10.0357 5.30321C10.2227 5.11716 10.4759 5.01215 10.7404 5.01105L13.9909 4.99754C14.549 4.99522 15.0016 5.44692 14.9975 6.00227L14.9731 9.3653C14.9712 9.62736 14.8658 9.87815 14.6795 10.0635L10.0098 14.7103C9.61834 15.0999 8.98362 15.0999 8.59214 14.7103L5.29606 11.4304C4.90458 11.0408 4.90458 10.4092 5.29605 10.0196L5.38735 9.92879Z" fill="#202020"/>
<path d="M12 7C12 7.55228 12.4477 8 13 8C13.5523 8 14 7.55228 14 7C14 6.44772 13.5523 6 13 6C12.4477 6 12 6.44772 12 7Z" fill="#202020"/>
<path fill-rule="evenodd" clip-rule="evenodd" d="M9 4.5C9 6.98528 6.98528 9 4.5 9C2.01472 9 0 6.98528 0 4.5C0 2.01472 2.01472 0 4.5 0C6.98528 0 9 2.01472 9 4.5ZM4.5 2C4.77614 2 5 2.22386 5 2.5V4H6.5C6.77614 4 7 4.22386 7 4.5C7 4.77614 6.77614 5 6.5 5H5V6.5C5 6.77614 4.77614 7 4.5 7C4.22386 7 4 6.77614 4 6.5V5H2.5C2.22386 5 2 4.77614 2 4.5C2 4.22386 2.22386 4 2.5 4H4V2.5C4 2.22386 4.22386 2 4.5 2Z" fill="#11910D"/>
</g>
<defs>
<clipPath id="clip0_7202_82735">
<rect width="16" height="16" fill="white"/>
</clipPath>
</defs>
</svg>
