<svg width="16" height="16" viewBox="0 0 16 16" fill="none" xmlns="http://www.w3.org/2000/svg">
<path fill-rule="evenodd" clip-rule="evenodd" d="M5 9.97758L5 13C5 13.5304 5.21071 14.0391 5.58579 14.4142C5.96086 14.7893 6.46957 15 7 15H13C13.5304 15 14.0391 14.7893 14.4142 14.4142C14.7893 14.0391 15 13.5304 15 13V5.414C14.9999 5.01645 14.842 4.6352 14.561 4.354L11.646 1.439C11.3648 1.15798 10.9835 1.00008 10.586 1L8.74284 1C8.99647 1.30711 9.21739 1.64222 9.40029 2H10V4.5C10 4.89782 10.158 5.27936 10.4393 5.56066C10.7206 5.84196 11.1022 6 11.5 6H14V13C14 13.2652 13.8946 13.5196 13.7071 13.7071C13.5196 13.8946 13.2652 14 13 14H7C6.73478 14 6.48043 13.8946 6.29289 13.7071C6.10536 13.5196 6 13.2652 6 13V9.79297C5.67772 9.88412 5.34341 9.94663 5 9.97758ZM11.5 5H13.793L11 2.207V4.5C11 4.63261 11.0527 4.75979 11.1464 4.85355C11.2402 4.94732 11.3674 5 11.5 5Z" fill="#202020"/>
<path fill-rule="evenodd" clip-rule="evenodd" d="M12.6504 7.02314C12.8585 7.08875 13 7.28177 13 7.50001V12.5C13 12.7761 12.7762 13 12.5 13C12.2239 13 12 12.7761 12 12.5V12H9.96037L9.40966 12.7867C9.2513 13.013 8.93954 13.068 8.71331 12.9096C8.48709 12.7513 8.43207 12.4395 8.59043 12.2133L12.0904 7.21327C12.2156 7.03449 12.4422 6.95753 12.6504 7.02314ZM12 9.08619V11H10.6604L12 9.08619Z" fill="#202020"/>
<path fill-rule="evenodd" clip-rule="evenodd" d="M9 4.5C9 6.98528 6.98528 9 4.5 9C2.01472 9 0 6.98528 0 4.5C0 2.01472 2.01472 0 4.5 0C6.98528 0 9 2.01472 9 4.5ZM4.5 2C4.77614 2 5 2.22386 5 2.5V4H6.5C6.77614 4 7 4.22386 7 4.5C7 4.77614 6.77614 5 6.5 5H5V6.5C5 6.77614 4.77614 7 4.5 7C4.22386 7 4 6.77614 4 6.5V5H2.5C2.22386 5 2 4.77614 2 4.5C2 4.22386 2.22386 4 2.5 4H4V2.5C4 2.22386 4.22386 2 4.5 2Z" fill="#11910D"/>
</svg>
