<svg width="16" height="16" viewBox="0 0 16 16" fill="none" xmlns="http://www.w3.org/2000/svg">
<g clip-path="url(#clip0_7202_82885)">
<path d="M9.9381 10.673C9.97887 10.9431 10 11.2196 10 11.501C10 11.583 9.99821 11.6645 9.99466 11.7456L10.527 11.923C10.681 11.974 10.84 12 11.002 12C11.164 12 11.322 11.974 11.477 11.923L14.978 10.756C15.59 10.551 16.002 9.97999 16.002 9.33299V4.66699C16.002 4.02099 15.59 3.44899 14.977 3.24299H14.975L11.475 2.07699C11.166 1.97499 10.834 1.97499 10.526 2.07699L9.58142 2.39167C9.70828 2.69708 9.80841 3.01638 9.87888 3.34667L10.842 3.02599C10.944 2.99099 11.057 2.99099 11.158 3.02599L14.657 4.19099C14.862 4.25999 15 4.45099 15 4.66699V9.33299C15 9.54899 14.862 9.73899 14.658 9.80799L11.158 10.974C11.056 11.009 10.943 11.009 10.842 10.974L9.9381 10.673Z" fill="#202020"/>
<path d="M9.70889 6.27029C9.81596 5.95517 9.89523 5.62721 9.94379 5.28932L11 5.71198L13.314 4.78598H13.316C13.571 4.68298 13.862 4.80898 13.965 5.06398C14.068 5.31898 13.944 5.60998 13.687 5.71298L11.501 6.58698V8.49898C11.501 8.77498 11.277 8.99898 11.001 8.99898C10.725 8.99898 10.501 8.77498 10.501 8.49898V6.58698L9.70889 6.27029Z" fill="#202020"/>
<path d="M5.87601 9.82656C5.43624 9.93984 4.97517 10.0001 4.50003 10.0001C4.02494 10.0001 3.56392 9.93985 3.12419 9.8266C3.05876 10.2141 3.02086 10.6066 3.0111 11.001H5.9891C5.97934 10.6065 5.94144 10.2141 5.87601 9.82656Z" fill="#006CBF"/>
<path d="M6.83392 9.48178C6.92945 9.98134 6.98195 10.4896 6.9901 11.001H8.9731C8.88121 10.1814 8.56585 9.40284 8.06148 8.75033C8.05229 8.73845 8.04305 8.72662 8.03376 8.71484C7.67075 9.01952 7.26781 9.27816 6.83392 9.48178Z" fill="#006CBF"/>
<path d="M0.966383 8.71491C1.3294 9.01959 1.73236 9.27822 2.16626 9.48184C2.07075 9.98138 2.01825 10.4896 2.0101 11.001H0.0270996C0.118987 10.1814 0.434345 9.40284 0.938723 8.75033C0.947887 8.73847 0.957107 8.72667 0.966383 8.71491Z" fill="#006CBF"/>
<path d="M2.0101 12.001H0.0270996C0.118987 12.8206 0.434345 13.5992 0.938723 14.2517C1.4431 14.9042 2.1171 15.4056 2.8871 15.701C2.3298 14.5459 2.03054 13.2834 2.0101 12.001Z" fill="#006CBF"/>
<path d="M3.6431 14.976C4.0651 15.901 4.4431 16.001 4.5001 16.001C4.5571 16.001 4.9351 15.901 5.3571 14.976C5.74954 14.0318 5.96382 13.0232 5.9891 12.001H3.0111C3.03638 13.0232 3.25066 14.0318 3.6431 14.976Z" fill="#006CBF"/>
<path d="M8.06148 14.2517C8.56585 13.5992 8.88121 12.8206 8.9731 12.001H6.9901C6.96966 13.2834 6.6704 14.5459 6.1131 15.701C6.8831 15.4056 7.5571 14.9042 8.06148 14.2517Z" fill="#006CBF"/>
<path fill-rule="evenodd" clip-rule="evenodd" d="M9 4.5C9 6.98528 6.98528 9 4.5 9C2.01472 9 0 6.98528 0 4.5C0 2.01472 2.01472 0 4.5 0C6.98528 0 9 2.01472 9 4.5ZM4.5 2C4.77614 2 5 2.22386 5 2.5V4H6.5C6.77614 4 7 4.22386 7 4.5C7 4.77614 6.77614 5 6.5 5H5V6.5C5 6.77614 4.77614 7 4.5 7C4.22386 7 4 6.77614 4 6.5V5H2.5C2.22386 5 2 4.77614 2 4.5C2 4.22386 2.22386 4 2.5 4H4V2.5C4 2.22386 4.22386 2 4.5 2Z" fill="#11910D"/>
</g>
<defs>
<clipPath id="clip0_7202_82885">
<rect width="16" height="16" fill="white"/>
</clipPath>
</defs>
</svg>
