<svg width="16" height="16" viewBox="0 0 16 16" fill="none" xmlns="http://www.w3.org/2000/svg">
<g clip-path="url(#clip0_7202_82797)">
<path d="M8.42263 8.35525C9.3982 7.36273 9.99999 6.00164 9.99999 4.5V6.689C9.99999 7.309 9.83499 7.917 9.52299 8.453L9.02699 9.303L8.04599 9.001L8.42263 8.35525Z" fill="#202020"/>
<path d="M9.40028 2H13.5C13.776 2 14 2.224 14 2.5C14 2.776 13.776 3 13.5 3H13V6.689C13 7.132 13.118 7.566 13.341 7.949L13.954 9L13.033 9.406L12.477 8.453C12.165 7.918 12 7.309 12 6.689V3H9.99999V4.5C9.99999 3.59978 9.78371 2.75007 9.40028 2Z" fill="#202020"/>
<path d="M10.9703 14H14.259C15.417 14 16.138 12.744 15.555 11.744L13.954 9H8.046L8.01016 9.06142C8.05569 9.50863 8.03421 9.96109 7.94685 10.402L8.22396 10.6791L8.62 10H13.379L14.69 12.248C14.884 12.581 14.645 13 14.259 13H10.5145C10.6318 13.155 10.7336 13.3285 10.8149 13.515C10.8836 13.6728 10.9354 13.8347 10.9703 14Z" fill="#159195"/>
<path d="M7.03412 9.3828C6.27573 9.7772 5.41389 10.0001 4.49998 10.0001C4.23139 10.0001 3.9673 9.98086 3.70901 9.94366C3.45024 10.1466 3.13057 10.2597 2.79809 10.264C2.40509 10.269 2.02509 10.119 1.74009 9.84795L0.765086 8.87295C0.712086 8.81095 0.643086 8.76495 0.565086 8.74095C0.487086 8.71695 0.404086 8.71595 0.326086 8.73795C0.248086 8.76095 0.178086 8.80495 0.124086 8.86595C0.070086 8.92695 0.035086 9.00195 0.023086 9.08295C-0.045914 9.67795 0.037086 10.28 0.265086 10.833C0.493086 11.386 0.858086 11.872 1.32609 12.245C1.79409 12.617 2.35009 12.865 2.94009 12.963C3.53009 13.062 4.13509 13.008 4.69909 12.807L7.42509 15.533C7.56409 15.678 7.73109 15.795 7.91509 15.875C8.09909 15.955 8.29809 15.998 8.49909 16C8.70009 16.003 8.90009 15.965 9.08609 15.889C9.27309 15.814 9.44209 15.701 9.58409 15.559C9.72609 15.417 9.83809 15.247 9.91409 15.061C9.99009 14.875 10.0271 14.675 10.0251 14.474C10.0231 14.273 9.98009 14.074 9.90009 13.89C9.82009 13.705 9.70409 13.539 9.55809 13.4L6.83209 10.674C6.98026 10.2589 7.048 9.82105 7.03412 9.3828Z" fill="#202020"/>
<path fill-rule="evenodd" clip-rule="evenodd" d="M9 4.5C9 6.98528 6.98528 9 4.5 9C2.01472 9 0 6.98528 0 4.5C0 2.01472 2.01472 0 4.5 0C6.98528 0 9 2.01472 9 4.5ZM4.5 2C4.77614 2 5 2.22386 5 2.5V4H6.5C6.77614 4 7 4.22386 7 4.5C7 4.77614 6.77614 5 6.5 5H5V6.5C5 6.77614 4.77614 7 4.5 7C4.22386 7 4 6.77614 4 6.5V5H2.5C2.22386 5 2 4.77614 2 4.5C2 4.22386 2.22386 4 2.5 4H4V2.5C4 2.22386 4.22386 2 4.5 2Z" fill="#11910D"/>
</g>
<defs>
<clipPath id="clip0_7202_82797">
<rect width="16" height="16" fill="white"/>
</clipPath>
</defs>
</svg>
