<svg width="16" height="16" viewBox="0 0 16 16" fill="none" xmlns="http://www.w3.org/2000/svg">
<g clip-path="url(#clip0_7202_82776)">
<path d="M9.97756 5C9.94661 5.34341 9.8841 5.67772 9.79295 6H15V11.5C15 12.3284 14.3284 13 13.5 13H10.9852C10.9943 13.0821 10.999 13.1655 10.999 13.25C10.999 13.4407 10.9599 13.7073 10.8567 14H13.5C14.8807 14 16 12.8807 16 11.5V4.5C16 3.11929 14.8807 2 13.5 2H9.40027C9.56221 2.31679 9.69434 2.65136 9.79295 3H13.5C14.3284 3 15 3.67157 15 4.5V5H9.97756Z" fill="#202020"/>
<path d="M4.73522 9.99528C4.65722 9.99856 4.5788 10.0002 4.5 10.0002C3.17725 10.0002 1.96356 9.53327 1.01478 8.75523C1.00503 8.83537 1 8.91697 1 8.99975C1 10.1048 1.895 10.9998 3 10.9998C3.7425 10.9998 4.39017 10.5957 4.73522 9.99528Z" fill="#202020"/>
<path d="M6.02721 9.78542C6.16072 10.4769 6.76967 10.9998 7.5 10.9998C8.328 10.9998 9 10.3278 9 9.49975C9 9.02922 8.78298 8.60907 8.44364 8.33398C7.7867 9.00963 6.95762 9.51704 6.02721 9.78542Z" fill="#202020"/>
<path d="M0 13.2498C0 12.5598 0.56 11.9998 1.25 11.9998H4.75C5.44 11.9998 6 12.5598 6 13.2498C6 13.2498 6 13.3468 5.973 13.4998C5.871 14.0858 5.378 15.4998 3 15.4998C0 15.4998 0 13.2498 0 13.2498Z" fill="#202020"/>
<path d="M6.984 13.7418C6.99 13.6878 6.994 13.6398 6.996 13.5998H6.997L7 13.4998V13.2498C7 12.7868 6.86 12.3578 6.621 11.9998H8.75C9.44 11.9998 10 12.5598 10 13.2498C10 13.2498 10 14.9998 7.5 14.9998C7.138 14.9998 6.829 14.9628 6.565 14.9008C6.74 14.6258 6.844 14.3588 6.906 14.1358C6.948 13.9828 6.971 13.8488 6.984 13.7418Z" fill="#202020"/>
<path fill-rule="evenodd" clip-rule="evenodd" d="M9 4.5C9 6.98528 6.98528 9 4.5 9C2.01472 9 0 6.98528 0 4.5C0 2.01472 2.01472 0 4.5 0C6.98528 0 9 2.01472 9 4.5ZM4.5 2C4.77614 2 5 2.22386 5 2.5V4H6.5C6.77614 4 7 4.22386 7 4.5C7 4.77614 6.77614 5 6.5 5H5V6.5C5 6.77614 4.77614 7 4.5 7C4.22386 7 4 6.77614 4 6.5V5H2.5C2.22386 5 2 4.77614 2 4.5C2 4.22386 2.22386 4 2.5 4H4V2.5C4 2.22386 4.22386 2 4.5 2Z" fill="#11910D"/>
</g>
<defs>
<clipPath id="clip0_7202_82776">
<rect width="16" height="16" fill="white"/>
</clipPath>
</defs>
</svg>
