<svg width="16" height="16" viewBox="0 0 16 16" fill="none" xmlns="http://www.w3.org/2000/svg">
<path d="M5 9.97758C4.83532 9.99242 4.66854 10 4.5 10C4.33146 10 4.16468 9.99242 4 9.97758L4 11.5C4 12.8807 5.11929 14 6.5 14H13.5C14.8807 14 16 12.8807 16 11.5V6.5C16 5.11929 14.8807 4 13.5 4L9.97758 4C9.99242 4.16468 10 4.33146 10 4.5C10 4.66854 9.99242 4.83532 9.97758 5H13.5C14.3284 5 15 5.67157 15 6.5V11.5C15 12.3284 14.3284 13 13.5 13H6.5C5.67157 13 5 12.3284 5 11.5V9.97758Z" fill="#202020"/>
<path d="M8.5 8.27494C8.89591 7.85557 9.2266 7.37396 9.47584 6.84633L12.246 8.53921C12.5906 8.74977 12.5906 9.2502 12.246 9.46076L8.98686 11.4525C8.77363 11.5828 8.5 11.4293 8.5 11.1794L8.5 8.27494Z" fill="#006CBF"/>
<path fill-rule="evenodd" clip-rule="evenodd" d="M9 4.5C9 6.98528 6.98528 9 4.5 9C2.01472 9 0 6.98528 0 4.5C0 2.01472 2.01472 0 4.5 0C6.98528 0 9 2.01472 9 4.5ZM4.5 2C4.77614 2 5 2.22386 5 2.5V4H6.5C6.77614 4 7 4.22386 7 4.5C7 4.77614 6.77614 5 6.5 5H5V6.5C5 6.77614 4.77614 7 4.5 7C4.22386 7 4 6.77614 4 6.5V5H2.5C2.22386 5 2 4.77614 2 4.5C2 4.22386 2.22386 4 2.5 4H4V2.5C4 2.22386 4.22386 2 4.5 2Z" fill="#11910D"/>
</svg>
