<svg width="16" height="16" viewBox="0 0 16 16" fill="none" xmlns="http://www.w3.org/2000/svg">
<g clip-path="url(#clip0_7202_82951)">
<path fill-rule="evenodd" clip-rule="evenodd" d="M5.02593 9.97518C4.85283 9.9916 4.6774 10 4.5 10C4.41906 10 4.33853 9.99825 4.25844 9.99479C4.25064 10.0379 4.24317 10.0813 4.236 10.125H3.415C3.4619 10.0543 3.51234 9.98623 3.56606 9.92103C3.21008 9.86014 2.86577 9.76503 2.53665 9.63922C2.19678 10.1786 2 10.8167 2 11.5C2 13.43 3.57 15 5.5 15C7.43 15 9 13.43 9 11.5C9 10.4603 8.5444 9.52511 7.82235 8.88352C7.53895 9.09865 7.23405 9.28692 6.91144 9.44456C7.17705 9.62572 7.40605 9.85597 7.584 10.125H6.763C6.73116 9.93089 6.69332 9.74278 6.64787 9.56481C6.41804 9.6624 6.1802 9.7448 5.93561 9.81076C5.95984 9.90796 5.98284 10.0127 6.004 10.125H4.996C5.00562 10.0735 5.01562 10.0235 5.02593 9.97518ZM5.43104 13.9934C5.45378 13.9967 5.47644 14 5.5 14C5.52515 14 5.54909 13.9964 5.57299 13.9928C5.59281 13.9899 5.6126 13.9869 5.633 13.986C5.752 13.803 5.9 13.432 6.004 12.875H4.996C5.101 13.432 5.251 13.804 5.374 13.987C5.39344 13.9879 5.41227 13.9906 5.43104 13.9934ZM4.875 11.5C4.875 11.723 4.884 11.93 4.898 12.125H6.102C6.116 11.93 6.125 11.723 6.125 11.5C6.125 11.277 6.116 11.07 6.102 10.875H4.898C4.884 11.07 4.875 11.277 4.875 11.5ZM3.089 10.875C3.037 11.076 3 11.283 3 11.5C3 11.717 3.037 11.924 3.089 12.125H4.147C4.132 11.917 4.125 11.708 4.125 11.5C4.125 11.292 4.133 11.083 4.147 10.875H3.089ZM7.911 10.875H6.853C6.868 11.083 6.875 11.292 6.875 11.5C6.875 11.708 6.867 11.917 6.853 12.125H7.911C7.963 11.924 8 11.717 8 11.5C8 11.283 7.963 11.076 7.911 10.875ZM4.236 12.875H3.415C3.669 13.259 4.027 13.564 4.447 13.76C4.356 13.493 4.288 13.192 4.236 12.875ZM6.763 12.875C6.711 13.192 6.643 13.494 6.552 13.76C6.972 13.563 7.33 13.258 7.584 12.875H6.763Z" fill="#006CBF"/>
<path fill-rule="evenodd" clip-rule="evenodd" d="M9 4.5C9 6.98528 6.98528 9 4.5 9C2.01472 9 0 6.98528 0 4.5C0 2.01472 2.01472 0 4.5 0C6.98528 0 9 2.01472 9 4.5ZM4.5 2C4.77614 2 5 2.22386 5 2.5V4H6.5C6.77614 4 7 4.22386 7 4.5C7 4.77614 6.77614 5 6.5 5H5V6.5C5 6.77614 4.77614 7 4.5 7C4.22386 7 4 6.77614 4 6.5V5H2.5C2.22386 5 2 4.77614 2 4.5C2 4.22386 2.22386 4 2.5 4H4V2.5C4 2.22386 4.22386 2 4.5 2Z" fill="#11910D"/>
<path d="M14.5 11C14.776 11 15 11.224 15 11.5V12.751C15 13.083 14.868 13.401 14.634 13.635C14.399 13.869 14.082 14.001 13.75 14.001H11.707L12.353 14.647C12.548 14.842 12.548 15.159 12.353 15.354C12.158 15.549 11.841 15.549 11.646 15.354L10.146 13.854C9.95101 13.659 9.95101 13.342 10.146 13.147L11.646 11.647C11.841 11.452 12.158 11.452 12.353 11.647C12.548 11.842 12.548 12.159 12.353 12.354L11.707 13H13.75C13.817 13 13.88 12.974 13.927 12.927C13.974 12.88 14 12.816 14 12.75V11.5C14 11.224 14.224 11 14.5 11Z" fill="#006CBF"/>
<path d="M15.287 3.64311L13.286 3.04211C13.1 2.98711 12.901 2.98611 12.713 3.04211L10.713 3.64211C10.286 3.77011 10 4.15511 10 4.60011V7.35611C10 7.80111 10.286 8.18611 10.713 8.31411L12.714 8.91511C12.808 8.94311 12.903 8.95711 13 8.95711C13.096 8.95711 13.193 8.94311 13.287 8.91511L15.287 8.31511C15.714 8.18711 16 7.80211 16 7.35711V4.60111C16 4.15611 15.714 3.77111 15.287 3.64311ZM11 7.35711V5.33911L12.5 5.83911V7.72911C12.5 7.75811 12.512 7.78411 12.517 7.81211L11 7.35711ZM13 4.95311L11.498 4.45211L13 4.00111L14.502 4.45211L13 4.95311ZM15 7.35711L13.483 7.81211C13.488 7.78411 13.5 7.75811 13.5 7.72911V5.83911L15 5.33911V7.35711Z" fill="#5C2E91"/>
</g>
<defs>
<clipPath id="clip0_7202_82951">
<rect width="16" height="16" fill="white"/>
</clipPath>
</defs>
</svg>
