<svg width="16" height="16" viewBox="0 0 16 16" fill="none" xmlns="http://www.w3.org/2000/svg">
<g clip-path="url(#clip0_7202_83035)">
<path fill-rule="evenodd" clip-rule="evenodd" d="M1 4.5C1 3.11929 2.11929 2 3.5 2H5.58579C5.98361 2 6.36514 2.15804 6.64645 2.43934L8.20711 4H12.5C13.8807 4 15 5.11929 15 6.5V11.5C15 11.6223 14.9912 11.7426 14.9742 11.8602L14 10.886V6.5C14 5.67157 13.3284 5 12.5 5H8.20711L6.64645 6.56066C6.36514 6.84197 5.98361 7 5.58579 7H1V4.5ZM2 4.5V6H5.58579C5.71839 6 5.84557 5.94732 5.93934 5.85355L7.29289 4.5L5.93934 3.14645C5.84557 3.05268 5.71839 3 5.58579 3H3.5C2.67157 3 2 3.67157 2 4.5Z" fill="#B27C00"/>
<path d="M14.85 13.85L12.85 15.85C12.8049 15.8975 12.7506 15.9352 12.6904 15.9611C12.6303 15.9869 12.5655 16.0002 12.5 16.0002C12.4345 16.0002 12.3697 15.9869 12.3096 15.9611C12.2494 15.9352 12.1951 15.8975 12.15 15.85C12.1026 15.8049 12.0648 15.7506 12.039 15.6905C12.0132 15.6303 11.9998 15.5655 11.9998 15.5C11.9998 15.4346 12.0132 15.3698 12.039 15.3096C12.0648 15.2494 12.1026 15.1951 12.15 15.15L13.29 14H8.5C8.36739 14 8.24021 13.9473 8.14645 13.8536C8.05268 13.7598 8 13.6326 8 13.5C8 13.3674 8.05268 13.2402 8.14645 13.1465C8.24021 13.0527 8.36739 13 8.5 13H13.29L12.15 11.85C12.1026 11.8049 12.0648 11.7506 12.039 11.6905C12.0132 11.6303 11.9998 11.5655 11.9998 11.5C11.9998 11.4346 12.0132 11.3698 12.039 11.3096C12.0648 11.2494 12.1026 11.1951 12.15 11.15C12.1951 11.1026 12.2494 11.0648 12.3096 11.039C12.3697 11.0132 12.4345 10.9999 12.5 10.9999C12.5655 10.9999 12.6303 11.0132 12.6904 11.039C12.7506 11.0648 12.8049 11.1026 12.85 11.15L14.85 13.15C14.8974 13.1951 14.9352 13.2494 14.961 13.3096C14.9868 13.3698 15.0001 13.4346 15.0001 13.5C15.0001 13.5655 14.9868 13.6303 14.961 13.6905C14.9352 13.7506 14.8974 13.8049 14.85 13.85Z" fill="#006CBF"/>
<path d="M1 8H5C5.26522 8 5.51957 8.10536 5.70711 8.29289C5.89464 8.48043 6 8.73478 6 9V15.63C6 15.7281 5.96102 15.8222 5.89163 15.8916C5.82224 15.961 5.72813 16 5.63 16C5.54605 15.9999 5.46462 15.9714 5.399 15.919L3 14L0.6 15.919C0.53465 15.9711 0.453603 15.9997 0.37 16C0.321411 16 0.273298 15.9904 0.228407 15.9718C0.183517 15.9532 0.142728 15.926 0.108371 15.8916C0.0389821 15.8222 0 15.7281 0 15.63V9C0 8.73478 0.105357 8.48043 0.292893 8.29289C0.48043 8.10536 0.734784 8 1 8Z" fill="#202020"/>
</g>
<defs>
<clipPath id="clip0_7202_83035">
<rect width="16" height="16" fill="white"/>
</clipPath>
</defs>
</svg>
