<svg width="16" height="16" viewBox="0 0 16 16" fill="none" xmlns="http://www.w3.org/2000/svg">
<path d="M15 4.67598V11.346C15 11.56 14.944 11.77 14.837 11.955C14.73 12.14 14.576 12.294 14.391 12.402L8.60901 15.744C8.43501 15.816 8.21801 15.874 8.00001 15.874C7.78201 15.874 7.58001 15.816 7.39101 15.715L5.46401 14.572C5.17401 14.413 5.31901 14.355 5.40601 14.326C5.79701 14.196 5.87001 14.167 6.27601 13.935C6.31901 13.906 6.37701 13.92 6.42101 13.949L7.90001 14.832C7.95801 14.861 8.03001 14.861 8.07401 14.832L13.915 11.49C13.973 11.461 14.002 11.403 14.002 11.331V4.66098C14.002 4.58898 13.973 4.53098 13.915 4.50198L8.07401 1.17398C8.01601 1.14498 7.94301 1.14498 7.90001 1.17398L2.08901 4.50198C2.03101 4.53098 2.00201 4.60298 2.00201 4.66098V11.331C2.00201 11.389 2.03101 11.461 2.08901 11.49L3.69701 12.401C4.55201 12.835 5.00201 12.262 5.00201 11.756V5.17298C5.00201 5.08598 5.07401 4.99898 5.17601 4.99898H5.82801C5.91501 4.99898 6.00201 5.07098 6.00201 5.17298V11.756C6.00201 12.899 5.29601 13.631 4.46501 13.631C4.13201 13.631 3.87101 13.631 3.13201 13.269L1.61001 12.401C1.42501 12.294 1.27101 12.14 1.16501 11.954C1.05801 11.769 1.00201 11.559 1.00201 11.345V4.67498C1.00201 4.46098 1.05801 4.25098 1.16501 4.06598C1.27201 3.88098 1.42501 3.72698 1.61101 3.61898L7.39101 0.277982C7.75401 0.0749824 8.24601 0.0749824 8.60901 0.277982L14.391 3.61998C14.576 3.72698 14.73 3.88098 14.837 4.06698C14.944 4.25198 15 4.46198 15 4.67598ZM9.58601 10.04C8.29301 10.04 8.01301 9.85098 7.91501 9.13498C7.91501 9.05398 7.85401 8.99998 7.78101 8.99998H7.14701C7.06201 8.99998 7.00101 9.08098 7.00101 9.16198C7.00101 10.22 7.44001 11 9.57401 11C11.111 11 12.001 10.324 12.001 9.13498C12.001 7.97298 11.294 7.66198 9.79401 7.44598C8.28201 7.22998 8.12301 7.10798 8.12301 6.71598C8.12301 6.39198 8.25701 5.95898 9.37901 5.95898C10.379 5.95898 10.757 6.13498 10.903 6.87798C10.91 6.91198 10.927 6.94198 10.952 6.96398C10.976 6.98598 11.006 6.99898 11.038 6.99998H11.684C11.721 6.99998 11.757 6.97298 11.782 6.94598C11.806 6.90498 11.819 6.86498 11.819 6.82398C11.721 5.52698 10.953 4.99998 9.39201 4.99998C8.00201 4.99998 7.17301 5.64898 7.17301 6.74298C7.17301 7.91898 8.00201 8.24298 9.33101 8.39198C10.929 8.56798 11.051 8.82498 11.051 9.17598C11.051 9.78398 10.612 10.041 9.58801 10.041L9.58601 10.04Z" fill="#5FA04E"/>
</svg>
