<svg width="16" height="16" viewBox="0 0 16 16" fill="none" xmlns="http://www.w3.org/2000/svg">
<path fill-rule="evenodd" clip-rule="evenodd" d="M14.146 14.854C14.244 14.951 14.372 15 14.5 15V14.999C14.628 14.999 14.756 14.951 14.854 14.853C15.049 14.658 15.049 14.341 14.854 14.146L1.85301 1.14698C1.65801 0.951982 1.34101 0.951982 1.14601 1.14698C0.951006 1.34198 0.951006 1.65898 1.14601 1.85398L2.1459 2.85388C2.05237 3.04955 2 3.26866 2 3.5V12.5C2 13.3284 2.67157 14 3.5 14H12.5C12.7313 14 12.9505 13.9476 13.1461 13.8541L14.146 14.854ZM12.292 13L11.292 12H4V4.70798L3 3.70798V12.5C3 12.7761 3.22386 13 3.5 13H12.292ZM5 5.70798V11H10.292L5 5.70798Z" fill="#202020"/>
<path d="M14 3.5V11.878L13 10.878V3.5C13 3.22386 12.7761 3 12.5 3H5.12203L4.12203 2H12.5C13.3284 2 14 2.67157 14 3.5Z" fill="#202020"/>
<path d="M12 4V9.87797L11 8.87797V5H7.12203L6.12203 4H12Z" fill="#202020"/>
</svg>
