<svg width="16" height="16" viewBox="0 0 16 16" fill="none" xmlns="http://www.w3.org/2000/svg">
<g clip-path="url(#clip0_7202_83129)">
<path d="M9.38132 11.5L9 11.5V12C9 12.556 8.556 13 8 13C7.444 13 7 12.556 7 12V11.5H6V12C6 13.108 6.892 14 8 14C9.06831 14 9.93582 13.1708 9.9966 12.1182L9.43899 11.561C9.41915 11.5412 9.39992 11.5208 9.38132 11.5Z" fill="#202020"/>
<path d="M9.8783 12H3C2.834 12 2.679 11.917 2.586 11.78C2.493 11.643 2.474 11.468 2.536 11.314L3.5 8.901V6.5C3.5 4.015 5.515 2 8 2C10.485 2 12.5 4.015 12.5 6.5V8.901L13.2073 10.6715L13 10.879L11.6898 9.56786L11.536 9.183C11.512 9.124 11.5 9.061 11.5 8.997V6.499C11.5 4.566 9.933 2.999 8 2.999C6.067 2.999 4.5 4.566 4.5 6.499V8.997C4.5 9.061 4.488 9.124 4.464 9.183L3.738 11H9.08527C9.15917 11.2091 9.2792 11.4012 9.43899 11.561L9.8783 12Z" fill="#B27C00"/>
<path d="M15.854 15.146C15.9479 15.2399 16.0007 15.3672 16.0007 15.5C16.0007 15.6328 15.9479 15.7601 15.854 15.854C15.7601 15.9479 15.6328 16.0007 15.5 16.0007C15.3672 16.0007 15.2399 15.9479 15.146 15.854L13 13.707L10.854 15.854C10.7601 15.9479 10.6328 16.0007 10.5 16.0007C10.3672 16.0007 10.2399 15.9479 10.146 15.854C10.0521 15.7601 9.99939 15.6328 9.99939 15.5C9.99939 15.3672 10.0521 15.2399 10.146 15.146L12.293 13L10.146 10.854C10.0521 10.7601 9.99939 10.6328 9.99939 10.5C9.99939 10.3672 10.0521 10.2399 10.146 10.146C10.2399 10.0521 10.3672 9.99939 10.5 9.99939C10.6328 9.99939 10.7601 10.0521 10.854 10.146L13 12.293L15.146 10.146C15.2399 10.0521 15.3672 9.99939 15.5 9.99939C15.6328 9.99939 15.7601 10.0521 15.854 10.146C15.9479 10.2399 16.0007 10.3672 16.0007 10.5C16.0007 10.6328 15.9479 10.7601 15.854 10.854L13.707 13L15.854 15.146Z" fill="#C50F1F"/>
</g>
<defs>
<clipPath id="clip0_7202_83129">
<rect width="16" height="16" fill="white"/>
</clipPath>
</defs>
</svg>
