<svg width="16" height="16" viewBox="0 0 16 16" fill="none" xmlns="http://www.w3.org/2000/svg">
<g clip-path="url(#clip0_7202_83112)">
<path fill-rule="evenodd" clip-rule="evenodd" d="M11.885 2.72701L13.854 6.85401C13.9502 7.05577 14.0001 7.27649 14 7.50001V9.50001C14 9.65274 13.9767 9.80307 13.9321 9.94625L13 10.879L12.1216 10H12.5C12.6326 10 12.7598 9.94733 12.8536 9.85356C12.9473 9.75979 13 9.63262 13 9.50001V7.50001C12.9997 7.42528 12.983 7.35154 12.951 7.28401C12.9103 7.19896 12.8463 7.12716 12.7665 7.07691C12.6867 7.02666 12.5943 7 12.5 7.00001H3.5C3.36739 7.00001 3.24022 7.05269 3.14645 7.14645C3.05268 7.24022 3 7.3674 3 7.50001V9.50001C3 9.63262 3.05268 9.75979 3.14645 9.85356C3.24022 9.94733 3.36739 10 3.5 10H9.08526C9.02903 10.1591 8.99951 10.328 8.99951 10.5C8.99951 10.672 9.02903 10.8409 9.08527 11H3.5C3.10218 11 2.72064 10.842 2.43934 10.5607C2.15804 10.2794 2 9.89783 2 9.50001V7.50001C1.99993 7.27649 2.04981 7.05577 2.146 6.85401L4.116 2.72701V2.72001C4.21528 2.50329 4.37521 2.31996 4.57645 2.19219C4.77769 2.06442 5.01163 1.99767 5.25 2.00001H10.75C10.9885 1.99747 11.2227 2.06413 11.4241 2.19192C11.6256 2.3197 11.7857 2.50313 11.885 2.72001V2.72701ZM10.75 3.00001H5.25C5.20222 2.99853 5.1551 3.01135 5.11465 3.03683C5.07421 3.0623 5.0423 3.09928 5.023 3.14301L3.661 6.00001H12.339L10.976 3.14001C10.9563 3.097 10.9244 3.06077 10.8842 3.03586C10.8439 3.01095 10.7973 2.99848 10.75 3.00001Z" fill="#202020"/>
<path d="M11.9157 8.77779C11.9707 8.69557 12 8.5989 12 8.50001C12 8.3674 11.9473 8.24022 11.8536 8.14645C11.7598 8.05269 11.6326 8.00001 11.5 8.00001C11.4011 8.00001 11.3044 8.02933 11.2222 8.08427C11.14 8.13921 11.0759 8.2173 11.0381 8.30867C11.0002 8.40003 10.9903 8.50056 11.0096 8.59755C11.0289 8.69454 11.0765 8.78364 11.1464 8.85356C11.2164 8.92349 11.3055 8.97111 11.4025 8.9904C11.4994 9.00969 11.6 8.99979 11.6913 8.96195C11.7827 8.9241 11.8608 8.86002 11.9157 8.77779Z" fill="#202020"/>
<path d="M15.854 15.146C15.9479 15.2399 16.0007 15.3672 16.0007 15.5C16.0007 15.6328 15.9479 15.7601 15.854 15.854C15.7601 15.9479 15.6328 16.0007 15.5 16.0007C15.3672 16.0007 15.2399 15.9479 15.146 15.854L13 13.707L10.854 15.854C10.7601 15.9479 10.6328 16.0007 10.5 16.0007C10.3672 16.0007 10.2399 15.9479 10.146 15.854C10.0521 15.7601 9.99939 15.6328 9.99939 15.5C9.99939 15.3672 10.0521 15.2399 10.146 15.146L12.293 13L10.146 10.854C10.0521 10.7601 9.99939 10.6328 9.99939 10.5C9.99939 10.3672 10.0521 10.2399 10.146 10.146C10.2399 10.0521 10.3672 9.99939 10.5 9.99939C10.6328 9.99939 10.7601 10.0521 10.854 10.146L13 12.293L15.146 10.146C15.2399 10.0521 15.3672 9.99939 15.5 9.99939C15.6328 9.99939 15.7601 10.0521 15.854 10.146C15.9479 10.2399 16.0007 10.3672 16.0007 10.5C16.0007 10.6328 15.9479 10.7601 15.854 10.854L13.707 13L15.854 15.146Z" fill="#C50F1F"/>
</g>
<defs>
<clipPath id="clip0_7202_83112">
<rect width="16" height="16" fill="white"/>
</clipPath>
</defs>
</svg>
