<svg width="16" height="16" viewBox="0 0 16 16" fill="none" xmlns="http://www.w3.org/2000/svg">
<path d="M5.5 1C4.682 1 3.956 1.393 3.5 2H12C13.105 2 14 2.895 14 4V6.59971C14.3578 6.78261 14.6929 7.00353 15 7.25716V4C15 2.343 13.657 1 12 1H5.5Z" fill="#202020"/>
<path d="M13 6.20703V5C13 3.895 12.105 3 11 3H3C1.895 3 1 3.895 1 5V11C1 12.105 1.895 13 3 13V14.028C3 14.841 3.919 15.314 4.581 14.842L6.39368 13.5473C6.2634 13.2227 6.16318 12.8827 6.09646 12.5309L4 14.028V12H3C2.448 12 2 11.552 2 11V5C2 4.448 2.448 4 3 4H11C11.552 4 12 4.448 12 5V6.02242C12.3434 6.05337 12.6777 6.11588 13 6.20703Z" fill="#202020"/>
<path d="M4.146 6.14601C4.003 6.28901 3.96 6.50401 4.038 6.69101C4.115 6.87801 4.298 6.99901 4.5 6.99901H8.33833C8.81573 6.66305 9.34898 6.40112 9.9214 6.2299C9.83253 6.09108 9.67695 5.99901 9.5 5.99901H5.707L6.353 5.35301C6.548 5.15801 6.548 4.84101 6.353 4.64601C6.158 4.45101 5.841 4.45101 5.646 4.64601L4.146 6.14601Z" fill="#006CBF"/>
<path d="M6.59971 9.00001C6.43776 9.3168 6.30564 9.65137 6.20703 10H4.5C4.224 10 4 9.77601 4 9.50001C4 9.22401 4.224 9.00001 4.5 9.00001H6.59971Z" fill="#006CBF"/>
<path fill-rule="evenodd" clip-rule="evenodd" d="M11.5 16C13.9853 16 16 13.9853 16 11.5C16 9.01472 13.9853 7 11.5 7C9.01472 7 7 9.01472 7 11.5C7 13.9853 9.01472 16 11.5 16ZM13.3536 10.3536C13.5488 10.1583 13.5488 9.84171 13.3536 9.64645C13.1583 9.45118 12.8417 9.45118 12.6464 9.64645L11.5 10.7929L10.3536 9.64645C10.1583 9.45118 9.84171 9.45118 9.64645 9.64645C9.45118 9.84171 9.45118 10.1583 9.64645 10.3536L10.7929 11.5L9.64645 12.6464C9.45118 12.8417 9.45118 13.1583 9.64645 13.3536C9.84171 13.5488 10.1583 13.5488 10.3536 13.3536L11.5 12.2071L12.6464 13.3536C12.8417 13.5488 13.1583 13.5488 13.3536 13.3536C13.5488 13.1583 13.5488 12.8417 13.3536 12.6464L12.2071 11.5L13.3536 10.3536Z" fill="#C50F1F"/>
</svg>
