<svg width="16" height="16" viewBox="0 0 16 16" fill="none" xmlns="http://www.w3.org/2000/svg">
<path d="M13.5 2H2.5C1.67 2 1 2.67 1 3.5V10.5C1 11.33 1.67 12 2.5 12H4V13.94C4 14.78 4.99 15.23 5.63 14.68L8.69 12H13.5C14.33 12 15 11.33 15 10.5V3.5C15 2.67 14.33 2 13.5 2ZM14 10.5C14 10.78 13.78 11 13.5 11H8.31L7.17 12L5 13.9V11H2.5C2.22 11 2 10.78 2 10.5V3.5C2 3.22 2.22 3 2.5 3H13.5C13.78 3 14 3.22 14 3.5V10.5Z" fill="#202020"/>
<path d="M4.03799 5.69101C3.95999 5.50401 4.00299 5.28901 4.14599 5.14601L5.64599 3.64601C5.84099 3.45101 6.15799 3.45101 6.35299 3.64601C6.54799 3.84101 6.54799 4.15801 6.35299 4.35301L5.70699 4.99901H11.5C11.776 4.99901 12 5.22301 12 5.49901C12 5.77501 11.776 5.99901 11.5 5.99901H4.49999C4.29799 5.99901 4.11499 5.87801 4.03799 5.69101ZM11.5 8.00001H4.49999C4.22399 8.00001 3.99999 8.22401 3.99999 8.50001C3.99999 8.77601 4.22399 9.00001 4.49999 9.00001H10.293L9.64699 9.64601C9.45199 9.84101 9.45199 10.158 9.64699 10.353C9.74499 10.451 9.87299 10.499 10.001 10.499C10.129 10.499 10.257 10.45 10.355 10.353L11.855 8.85301C11.998 8.71001 12.041 8.49501 11.963 8.30801C11.886 8.12101 11.703 7.99901 11.501 7.99901L11.5 8.00001Z" fill="#006CBF"/>
</svg>
