<svg width="16" height="16" viewBox="0 0 16 16" fill="none" xmlns="http://www.w3.org/2000/svg">
<path d="M2.5 3.75C3.19 3.75 3.75 3.19 3.75 2.5C3.75 1.81 3.19 1.25 2.5 1.25C1.81 1.25 1.25 1.81 1.25 2.5C1.25 3.19 1.81 3.75 2.5 3.75Z" fill="#202020"/>
<path fill-rule="evenodd" clip-rule="evenodd" d="M15 7.34347V7.3C15 5.477 13.523 4 11.7 4H7.3C5.477 4 4 5.477 4 7.3V11.7C4 13.523 5.477 15 7.3 15H8V10.901C8 9.983 8.645 9.215 9.5 9.039V9.001C9.5 7.346 10.846 6 12.5 6C13.5422 6 14.4621 6.53438 15 7.34347ZM7 5.625C7.759 5.625 8.375 6.241 8.375 7C8.375 7.759 7.759 8.375 7 8.375C6.241 8.375 5.625 7.759 5.625 7C5.625 6.241 6.241 5.625 7 5.625Z" fill="#202020"/>
<path d="M10.5 9V10H9.875C9.392 10 9 10.403 9 10.9V15.1C9 15.597 9.392 16 9.875 16H15.125C15.608 16 16 15.597 16 15.1V10.9C16 10.403 15.608 10 15.125 10H14.5V9C14.5 7.895 13.605 7 12.5 7C11.395 7 10.5 7.895 10.5 9ZM12.5 8C13.052 8 13.5 8.448 13.5 9V10H11.5V9C11.5 8.448 11.948 8 12.5 8ZM12.5 13.75C12.086 13.75 11.75 13.414 11.75 13C11.75 12.586 12.086 12.25 12.5 12.25C12.914 12.25 13.25 12.586 13.25 13C13.25 13.414 12.914 13.75 12.5 13.75Z" fill="#202020"/>
</svg>
