<svg width="16" height="16" viewBox="0 0 16 16" fill="none" xmlns="http://www.w3.org/2000/svg">
<path fill-rule="evenodd" clip-rule="evenodd" d="M3 2C2.44772 2 2 2.44772 2 3V5C2 5.55228 2.44772 6 3 6H8C8.55228 6 9 5.55228 9 5V3C9 2.44772 8.55228 2 8 2H3ZM3 3H8V5H3V3Z" fill="#11910D"/>
<path d="M11 4.5C11 4.22386 11.2239 4 11.5 4H13.5C13.7761 4 14 4.22386 14 4.5C14 4.77614 13.7761 5 13.5 5H11.5C11.2239 5 11 4.77614 11 4.5Z" fill="#202020"/>
<path d="M9.02825 12.6661C9.06264 12.4636 9.12809 12.2672 9.2227 12.0839C9.08843 12.1735 9 12.3264 9 12.5C9 12.5582 9.00995 12.6141 9.02825 12.6661Z" fill="#202020"/>
<path d="M6 8.5C6 8.22386 6.22386 8 6.5 8H12.5C12.5502 8 12.5986 8.00739 12.6443 8.02115C11.9797 8.10049 11.3568 8.40056 10.8787 8.87868C10.8392 8.91815 10.8009 8.95861 10.7639 9H6.5C6.22386 9 6 8.77614 6 8.5Z" fill="#202020"/>
<path d="M2 12.5C2 12.2239 2.22386 12 2.5 12H6.5C6.77614 12 7 12.2239 7 12.5C7 12.7761 6.77614 13 6.5 13H2.5C2.22386 13 2 12.7761 2 12.5Z" fill="#202020"/>
<path d="M11 12V11C11 9.89543 11.8954 9 13 9C14.1046 9 15 9.89543 15 11V12C15.5523 12 16 12.4477 16 13V15C16 15.5523 15.5523 16 15 16H11C10.4477 16 10 15.5523 10 15V13C10 12.4477 10.4477 12 11 12ZM12 11V12H14V11C14 10.4477 13.5523 10 13 10C12.4477 10 12 10.4477 12 11Z" fill="#202020"/>
</svg>
