<svg width="16" height="16" viewBox="0 0 16 16" fill="none" xmlns="http://www.w3.org/2000/svg">
<path fill-rule="evenodd" clip-rule="evenodd" d="M3 2C2.44772 2 2 2.44772 2 3V5C2 5.55228 2.44772 6 3 6H8C8.55228 6 9 5.55228 9 5V3C9 2.44772 8.55228 2 8 2H3ZM3 3H8V5H3V3Z" fill="#11910D"/>
<path d="M11 4.5C11 4.22386 11.2239 4 11.5 4H13.5C13.7761 4 14 4.22386 14 4.5C14 4.77614 13.7761 5 13.5 5H11.5C11.2239 5 11 4.77614 11 4.5Z" fill="#202020"/>
<path d="M6 8.5C6 8.22386 6.22386 8 6.5 8H7.76389C7.50564 8.28855 7.30241 8.62738 7.17071 9H6.5C6.22386 9 6 8.77614 6 8.5Z" fill="#202020"/>
<path d="M7 12.5C7 12.7761 6.77614 13 6.5 13H2.5C2.22386 13 2 12.7761 2 12.5C2 12.2239 2.22386 12 2.5 12H6.5C6.77614 12 7 12.2239 7 12.5Z" fill="#202020"/>
<path fill-rule="evenodd" clip-rule="evenodd" d="M10 8C8.89543 8 8 8.89543 8 10V14C8 15.1046 8.89543 16 10 16H14C15.1046 16 16 15.1046 16 14V10C16 8.89543 15.1046 8 14 8H10ZM10 10.5C10 10.2239 10.2239 10 10.5 10H13.5C13.7761 10 14 10.2239 14 10.5V13.5C14 13.7761 13.7761 14 13.5 14C13.2239 14 13 13.7761 13 13.5V11.7071L10.8536 13.8536C10.6583 14.0488 10.3417 14.0488 10.1464 13.8536C9.95118 13.6583 9.95118 13.3417 10.1464 13.1465L12.2929 11H10.5C10.2239 11 10 10.7761 10 10.5Z" fill="#202020"/>
</svg>
