<svg width="16" height="16" viewBox="0 0 16 16" fill="none" xmlns="http://www.w3.org/2000/svg">
<g clip-path="url(#clip0_7202_83337)">
<path fill-rule="evenodd" clip-rule="evenodd" d="M3 2C2.44772 2 2 2.44772 2 3V5C2 5.55228 2.44772 6 3 6H8C8.55228 6 9 5.55228 9 5V3C9 2.44772 8.55228 2 8 2H3ZM3 3H8V5H3V3Z" fill="#11910D"/>
<path d="M11 4.5C11 4.22386 11.2239 4 11.5 4H13.5C13.7761 4 14 4.22386 14 4.5C14 4.77614 13.7761 5 13.5 5H11.5C11.2239 5 11 4.77614 11 4.5Z" fill="#202020"/>
<path d="M6 8.5C6 8.22386 6.22386 8 6.5 8H12.5C11.4284 8 10.4442 8.3746 9.67133 9H6.5C6.22386 9 6 8.77614 6 8.5Z" fill="#202020"/>
<path d="M2 12.5C2 12.2239 2.22386 12 2.5 12H6.5C6.77614 12 7 12.2239 7 12.5C7 12.7761 6.77614 13 6.5 13H2.5C2.22386 13 2 12.7761 2 12.5Z" fill="#202020"/>
<path fill-rule="evenodd" clip-rule="evenodd" d="M12.5 16C14.433 16 16 14.433 16 12.5C16 10.567 14.433 9 12.5 9C10.567 9 9 10.567 9 12.5C9 14.433 10.567 16 12.5 16ZM15 12.5C15 13.8807 13.8807 15 12.5 15C11.9905 15 11.5165 14.8476 11.1213 14.5858L14.5858 11.1213C14.8476 11.5165 15 11.9905 15 12.5ZM10.4142 13.8787L13.8787 10.4142C13.4835 10.1524 13.0095 10 12.5 10C11.1193 10 10 11.1193 10 12.5C10 13.0095 10.1524 13.4835 10.4142 13.8787Z" fill="#202020"/>
</g>
<defs>
<clipPath id="clip0_7202_83337">
<rect width="16" height="16" fill="white"/>
</clipPath>
</defs>
</svg>
