<svg width="16" height="16" viewBox="0 0 16 16" fill="none" xmlns="http://www.w3.org/2000/svg">
<path fill-rule="evenodd" clip-rule="evenodd" d="M2 3C2 2.44772 2.44772 2 3 2H8C8.55228 2 9 2.44772 9 3V5C9 5.55228 8.55228 6 8 6H3C2.44772 6 2 5.55228 2 5V3ZM8 3H3V5H8V3Z" fill="#11910D"/>
<path d="M11.5 4C11.2239 4 11 4.22386 11 4.5C11 4.77614 11.2239 5 11.5 5H13.5C13.7761 5 14 4.77614 14 4.5C14 4.22386 13.7761 4 13.5 4H11.5Z" fill="#202020"/>
<path d="M9.5 12C9.22386 12 9 12.2239 9 12.5C9 12.7761 9.22386 13 9.5 13H11.5C11.7761 13 12 12.7761 12 12.5C12 12.2239 11.7761 12 11.5 12H9.5Z" fill="#202020"/>
<path d="M6 8.5C6 8.22386 6.22386 8 6.5 8H12.5C12.7761 8 13 8.22386 13 8.5C13 8.77614 12.7761 9 12.5 9H6.5C6.22386 9 6 8.77614 6 8.5Z" fill="#202020"/>
<path d="M2.5 12C2.22386 12 2 12.2239 2 12.5C2 12.7761 2.22386 13 2.5 13H6.5C6.77614 13 7 12.7761 7 12.5C7 12.2239 6.77614 12 6.5 12H2.5Z" fill="#202020"/>
</svg>
