<svg width="16" height="16" viewBox="0 0 16 16" fill="none" xmlns="http://www.w3.org/2000/svg">
<path d="M2 4.5C2 3.119 3.119 2 4.5 2H11.5C12.881 2 14 3.119 14 4.5V11.5C14 12.881 12.881 14 11.5 14H4.5C3.119 14 2 12.881 2 11.5V4.5ZM4.5 3C3.672 3 3 3.672 3 4.5V11.5C3 12.328 3.672 13 4.5 13H11.5C12.328 13 13 12.328 13 11.5V4.5C13 3.672 12.328 3 11.5 3H4.5ZM7.5 4.5C7.5 4.224 7.276 4 7 4H4.5C4.224 4 4 4.224 4 4.5C4 4.776 4.224 5 4.5 5H7C7.276 5 7.5 4.776 7.5 4.5ZM12 4.5C12 4.224 11.776 4 11.5 4H9C8.724 4 8.5 4.224 8.5 4.5C8.5 4.776 8.724 5 9 5H11.5C11.776 5 12 4.776 12 4.5ZM7.5 6.5C7.5 6.224 7.276 6 7 6H4.5C4.224 6 4 6.224 4 6.5C4 6.776 4.224 7 4.5 7H7C7.276 7 7.5 6.776 7.5 6.5ZM12 6.5C12 6.224 11.776 6 11.5 6H9C8.724 6 8.5 6.224 8.5 6.5C8.5 6.776 8.724 7 9 7H11.5C11.776 7 12 6.776 12 6.5ZM12 8.5C12 8.224 11.776 8 11.5 8H9C8.724 8 8.5 8.224 8.5 8.5C8.5 8.776 8.724 9 9 9H11.5C11.776 9 12 8.776 12 8.5ZM6 12C4.897 12 4 11.103 4 10C4 8.897 4.897 8 6 8C7.103 8 8 8.897 8 10C8 11.103 7.103 12 6 12ZM6 9C5.448 9 5 9.448 5 10C5 10.552 5.448 11 6 11C6.552 11 7 10.552 7 10C7 9.448 6.552 9 6 9Z" fill="#202020"/>
</svg>
