<svg width="16" height="16" viewBox="0 0 16 16" fill="none" xmlns="http://www.w3.org/2000/svg">
<path fill-rule="evenodd" clip-rule="evenodd" d="M2.08296 7C2.55904 4.16229 5.027 2 8 2C11.3137 2 14 4.68629 14 8C14 10.973 11.8377 13.441 9 13.917V12.2573C9.10607 12.0962 9.21107 11.9055 9.31258 11.6822C9.4073 11.4738 9.49448 11.2455 9.57265 11H9V10H9.82134C9.93562 9.3892 10 8.71396 10 8C10 7.28604 9.93562 6.6108 9.82134 6H6.17866C6.1193 6.31725 6.07341 6.65189 6.043 7.0003C6.02869 7.0001 6.01436 7 6 7H5.03956C5.06706 6.6564 5.10856 6.32208 5.16299 6H3.41604C3.27732 6.3175 3.17062 6.6522 3.10002 7H2.08296ZM9.31258 4.31781C8.87543 3.35608 8.37372 3 8 3C7.62628 3 7.12457 3.35608 6.68742 4.31781C6.5927 4.52619 6.50552 4.75446 6.42735 5H9.57265C9.49448 4.75446 9.4073 4.52619 9.31258 4.31781ZM5.38411 5C5.49428 4.6038 5.62614 4.23601 5.77705 3.90401C5.85596 3.7304 5.94287 3.56117 6.03766 3.39978C5.22525 3.74677 4.52341 4.30269 3.99963 5H5.38411ZM12.0004 11H10.6159C10.5057 11.3962 10.3739 11.764 10.223 12.096C10.144 12.2696 10.0571 12.4388 9.96234 12.6002C10.7747 12.2532 11.4766 11.6973 12.0004 11ZM10.837 10H12.584C12.8516 9.38754 13 8.7111 13 8C13 7.2889 12.8516 6.61246 12.584 6H10.837C10.9431 6.6275 11 7.30146 11 8C11 8.69854 10.9431 9.3725 10.837 10ZM12.0004 5C11.4766 4.30269 10.7747 3.74677 9.96234 3.39978C10.0571 3.56117 10.144 3.7304 10.223 3.90401C10.3739 4.23601 10.5057 4.6038 10.6159 5H12.0004Z" fill="#006CBF"/>
<path fill-rule="evenodd" clip-rule="evenodd" d="M0 10V14C0 15.1046 0.89543 16 2 16H6C7.10457 16 8 15.1046 8 14V10C8 8.89543 7.10457 8 6 8H2C0.89543 8 0 8.89543 0 10ZM2 9C1.44772 9 1 9.44772 1 10H2V9ZM7 13V11H6V13H7ZM6 14H7C7 14.5523 6.55228 15 6 15V14ZM5 13V11H3V13H5ZM3 14H5V15H3V14ZM2 13V11H1V13H2ZM1 14H2V15C1.44772 15 1 14.5523 1 14ZM6 9C6.55228 9 7 9.44772 7 10H6V9ZM5 9V10H3V9H5Z" fill="#202020"/>
</svg>
