<svg width="16" height="16" viewBox="0 0 16 16" fill="none" xmlns="http://www.w3.org/2000/svg">
<g clip-path="url(#clip0_7202_83385)">
<path d="M15.953 7.836C15.9239 7.78572 15.8835 7.74291 15.835 7.711H15.828L15 7.234V1.7C15.0009 1.60782 14.9835 1.51637 14.9486 1.43102C14.9138 1.34567 14.8623 1.26813 14.7971 1.20294C14.7319 1.13775 14.6543 1.08623 14.569 1.05138C14.4836 1.01653 14.3922 0.999065 14.3 1H5.7C5.60782 0.999065 5.51637 1.01653 5.43102 1.05138C5.34567 1.08623 5.26813 1.13775 5.20294 1.20294C5.13775 1.26813 5.08623 1.34567 5.05138 1.43102C5.01653 1.51637 4.99907 1.60782 5 1.7V4H0.664001C0.577154 4.00022 0.491253 4.01806 0.411499 4.05244C0.331744 4.08681 0.259793 4.13701 0.200001 4.2C0.137013 4.25979 0.0868121 4.33174 0.0524351 4.4115C0.0180582 4.49125 0.000220359 4.57715 1.23601e-06 4.664V11.336C-0.000459578 11.4237 0.0170487 11.5105 0.0514463 11.5912C0.0858439 11.6719 0.136402 11.7446 0.200001 11.805C0.260373 11.8686 0.333133 11.9192 0.413796 11.9536C0.494458 11.988 0.581312 12.0055 0.669001 12.005H4V14.255C3.99974 14.3536 4.01896 14.4512 4.05655 14.5423C4.09415 14.6334 4.14939 14.7162 4.21908 14.7859C4.28878 14.8556 4.37156 14.9109 4.46268 14.9484C4.55379 14.986 4.65144 15.0053 4.75 15.005H15.25C15.3486 15.0053 15.4462 14.986 15.5373 14.9484C15.6284 14.9109 15.7112 14.8556 15.7809 14.7859C15.8506 14.7162 15.9059 14.6334 15.9434 14.5423C15.981 14.4512 16.0003 14.3536 16 14.255V8C15.9996 7.94207 15.9834 7.88535 15.953 7.836V7.836ZM12 2.5H14V4.5H12V2.5ZM12 5.5H14V7.5H12V5.5ZM12 8.5H14.031L12 9.719V8.5ZM8.5 2.5H11V4.5H8.5V2.5ZM8.5 5.5H11V7.5H8.5V5.5ZM8.5 8.5H11V10.32L10.109 10.852L8.5 9.852V8.5ZM6 2.5H7.5V4.031C7.47311 4.02077 7.44532 4.01307 7.417 4.008C7.39002 4.00247 7.36254 3.99979 7.335 4H6V2.5ZM3.984 10.656C3.62768 10.6606 3.27414 10.5926 2.945 10.456C2.64952 10.3335 2.38334 10.1498 2.164 9.917C1.94567 9.68017 1.77822 9.40109 1.672 9.097C1.55555 8.76447 1.49736 8.41433 1.5 8.062C1.49632 7.69104 1.55271 7.32193 1.667 6.969C1.77229 6.6496 1.94253 6.35543 2.167 6.105C2.38943 5.86125 2.66248 5.6691 2.967 5.542C3.31468 5.40424 3.68607 5.33629 4.06 5.342C4.41411 5.33677 4.76548 5.40486 5.092 5.542C5.38404 5.6683 5.64509 5.85666 5.857 6.094C6.0691 6.33564 6.23091 6.61712 6.333 6.922C6.44545 7.25403 6.50189 7.60245 6.5 7.953C6.50327 8.3164 6.44686 8.67788 6.333 9.023C6.22783 9.33769 6.06166 9.62857 5.844 9.879C5.62544 10.124 5.35622 10.3185 5.055 10.449C4.71642 10.5922 4.35155 10.6627 3.984 10.656V10.656ZM5 14V12H7.335C7.51096 11.9992 7.67949 11.929 7.80401 11.8047C7.92852 11.6804 7.99895 11.512 8 11.336V10.719L13.257 14H5ZM15 13.914L11.062 11.445L15 9.086V13.914ZM5.18 8.605C5.13668 8.78315 5.06256 8.95236 4.961 9.105C4.86175 9.25155 4.72731 9.37086 4.57 9.452C4.39114 9.54261 4.19242 9.58697 3.992 9.581C3.79592 9.58631 3.60196 9.53937 3.43 9.445C3.27649 9.35629 3.14545 9.23346 3.047 9.086C2.94611 8.93119 2.87207 8.76046 2.828 8.581C2.78124 8.39462 2.75773 8.20316 2.758 8.011C2.75761 7.81488 2.78111 7.61944 2.828 7.429C2.87111 7.2473 2.94665 7.07487 3.051 6.92C3.15688 6.76064 3.30179 6.63102 3.47193 6.5435C3.64207 6.45598 3.83178 6.41347 4.023 6.42C4.22511 6.41345 4.42521 6.46183 4.602 6.56C4.75511 6.65134 4.8846 6.7774 4.98 6.928C5.07921 7.08484 5.14933 7.25828 5.187 7.44C5.22956 7.63072 5.25069 7.82559 5.25 8.021C5.25128 8.21783 5.22776 8.41405 5.18 8.605V8.605Z" fill="#0072C6"/>
</g>
<defs>
<clipPath id="clip0_7202_83385">
<rect width="16" height="16" fill="white"/>
</clipPath>
</defs>
</svg>
