<svg width="16" height="16" viewBox="0 0 16 16" fill="none" xmlns="http://www.w3.org/2000/svg">
<g clip-path="url(#clip0_7202_83410)">
<path fill-rule="evenodd" clip-rule="evenodd" d="M3.5 2C2.11929 2 1 3.11929 1 4.5V8.886L1.42497 8.46103C1.56372 8.31556 1.73051 8.19971 1.91527 8.12047C1.94321 8.10849 1.97146 8.09739 2 8.08717V7H5.58579C5.98361 7 6.36514 6.84197 6.64645 6.56066L8.20711 5H12.5C13.3284 5 14 5.67157 14 6.5V11.5C14 12.3284 13.3284 13 12.5 13H4.50817C4.50544 13 4.5027 13 4.49997 13L4.49423 13H3.99997V14H12.5C13.8807 14 15 12.8807 15 11.5V6.5C15 5.11929 13.8807 4 12.5 4H8.20711L6.64645 2.43934C6.36514 2.15804 5.98361 2 5.58579 2H3.5ZM2 6V4.5C2 3.67157 2.67157 3 3.5 3H5.58579C5.71839 3 5.84557 3.05268 5.93934 3.14645L7.29289 4.5L5.93934 5.85355C5.84557 5.94732 5.71839 6 5.58579 6H2Z" fill="#B27C00"/>
<path d="M2.14985 9.15003L0.14985 11.15C0.102408 11.1951 0.0646336 11.2494 0.0388219 11.3096C0.0130102 11.3698 -0.000300208 11.4346 -0.000300211 11.5C-0.000300214 11.5655 0.0130101 11.6303 0.0388219 11.6905C0.0646336 11.7506 0.102408 11.8049 0.14985 11.85C0.194967 11.8975 0.249259 11.9352 0.309426 11.9611C0.369593 11.9869 0.43438 12.0002 0.49985 12.0002C0.56532 12.0002 0.630107 11.9869 0.690274 11.9611C0.750441 11.9352 0.804732 11.8975 0.84985 11.85L1.99985 10.71L1.99985 15.5C1.99985 15.6326 2.05253 15.7598 2.1463 15.8536C2.24006 15.9474 2.36724 16 2.49985 16C2.63246 16 2.75963 15.9474 2.8534 15.8536C2.94717 15.7598 2.99985 15.6326 2.99985 15.5L2.99985 10.71L4.14985 11.85C4.19497 11.8975 4.24926 11.9352 4.30943 11.9611C4.36959 11.9869 4.43438 12.0002 4.49985 12.0002C4.56532 12.0002 4.63011 11.9869 4.69027 11.9611C4.75044 11.9352 4.80473 11.8975 4.84985 11.85C4.89729 11.8049 4.93507 11.7506 4.96088 11.6905C4.98669 11.6303 5 11.5655 5 11.5C5 11.4346 4.98669 11.3698 4.96088 11.3096C4.93507 11.2494 4.89729 11.1951 4.84985 11.15L2.84985 9.15003C2.80473 9.10259 2.75044 9.06481 2.69027 9.039C2.63011 9.01319 2.56532 8.99988 2.49985 8.99988C2.43438 8.99988 2.36959 9.01319 2.30943 9.039C2.24926 9.06481 2.19497 9.10259 2.14985 9.15003V9.15003Z" fill="#006CBF"/>
</g>
<defs>
<clipPath id="clip0_7202_83410">
<rect width="16" height="16" fill="white"/>
</clipPath>
</defs>
</svg>
