<svg width="16" height="16" viewBox="0 0 16 16" fill="none" xmlns="http://www.w3.org/2000/svg">
<g clip-path="url(#clip0_7202_83420)">
<path d="M15.336 1C15.5119 1.00053 15.6805 1.07065 15.8049 1.19506C15.9293 1.31947 15.9995 1.48806 16 1.664V14.336C15.9995 14.5119 15.9293 14.6805 15.8049 14.8049C15.6805 14.9293 15.5119 14.9995 15.336 15H4.664C4.48806 14.9995 4.31947 14.9293 4.19506 14.8049C4.07065 14.6805 4.00053 14.5119 4 14.336V12H0.664C0.576293 12.0006 0.489403 11.9831 0.408724 11.9487C0.328044 11.9143 0.255298 11.8637 0.195 11.8C0.132918 11.7398 0.0836434 11.6676 0.0501343 11.5879C0.0166253 11.5082 -0.000427392 11.4225 0 11.336V4.664C0.00010294 4.57713 0.0178881 4.4912 0.0522721 4.41143C0.0866562 4.33166 0.136919 4.25972 0.2 4.2C0.25972 4.13692 0.331657 4.08666 0.411428 4.05227C0.491199 4.01789 0.577134 4.0001 0.664 4H4V1.664C4.00053 1.48806 4.07065 1.31947 4.19506 1.19506C4.31947 1.07065 4.48806 1.00053 4.664 1H15.336ZM3.039 7.336L4.93 10.617H6.117V5.382H4.961V8.734L3.141 5.382H1.883V10.617H3.039V7.336ZM15 5V2H5V4H7.336C7.51194 4.00053 7.68053 4.07065 7.80494 4.19506C7.92935 4.31947 7.99947 4.48806 8 4.664V11.336C7.99947 11.5119 7.92935 11.6805 7.80494 11.8049C7.68053 11.9293 7.51194 11.9995 7.336 12H5V14H12V5H15ZM15 8V6H13V8H15ZM15 11V9H13V11H15ZM15 14V12H13V14H15Z" fill="#80397B"/>
</g>
<defs>
<clipPath id="clip0_7202_83420">
<rect width="16" height="16" fill="white"/>
</clipPath>
</defs>
</svg>
