<svg width="16" height="16" viewBox="0 0 16 16" fill="none" xmlns="http://www.w3.org/2000/svg">
<g clip-path="url(#clip0_7202_83428)">
<path d="M10.475 4.81664C10.67 4.62164 10.987 4.62164 11.182 4.81664C12.032 5.66664 12.501 6.79564 12.501 7.99864C12.501 9.20164 12.033 10.3306 11.183 11.1806C11.085 11.2776 10.957 11.3266 10.829 11.3266C10.701 11.3266 10.573 11.2786 10.475 11.1806C10.28 10.9856 10.28 10.6686 10.475 10.4736C11.136 9.81164 11.5 8.93264 11.5 7.99864C11.5 7.06464 11.136 6.18464 10.475 5.52364C10.28 5.32864 10.28 5.01164 10.475 4.81664Z" fill="#202020"/>
<path d="M12.245 3.04664C12.44 2.85164 12.757 2.85164 12.952 3.04664L12.953 3.04564C15.683 5.77564 15.683 10.2196 12.953 12.9506C12.855 13.0486 12.727 13.0976 12.599 13.0976C12.471 13.0976 12.343 13.0486 12.245 12.9506C12.05 12.7556 12.05 12.4386 12.245 12.2436C14.586 9.90264 14.586 6.09464 12.245 3.75364C12.05 3.55864 12.05 3.24164 12.245 3.04664Z" fill="#202020"/>
<path d="M7 7.99864C7 7.44664 7.448 6.99864 8 6.99864C8.552 6.99864 9 7.44664 9 7.99864C9 8.55064 8.552 8.99864 8 8.99864C7.448 8.99864 7 8.55064 7 7.99864Z" fill="#202020"/>
<path d="M6.85 13.85L4.85 15.85C4.80488 15.8975 4.75059 15.9352 4.69042 15.9611C4.63026 15.9869 4.56547 16.0002 4.5 16.0002C4.43453 16.0002 4.36974 15.9869 4.30958 15.9611C4.24941 15.9352 4.19512 15.8975 4.15 15.85C4.10256 15.8049 4.06478 15.7506 4.03897 15.6905C4.01316 15.6303 3.99985 15.5655 3.99985 15.5C3.99985 15.4346 4.01316 15.3698 4.03897 15.3096C4.06478 15.2494 4.10256 15.1951 4.15 15.15L5.29 14H0.5C0.367392 14 0.240215 13.9473 0.146447 13.8536C0.0526784 13.7598 0 13.6326 0 13.5C0 13.3674 0.0526784 13.2402 0.146447 13.1465C0.240215 13.0527 0.367392 13 0.5 13H5.29L4.15 11.85C4.10256 11.8049 4.06478 11.7506 4.03897 11.6905C4.01316 11.6303 3.99985 11.5655 3.99985 11.5C3.99985 11.4346 4.01316 11.3698 4.03897 11.3096C4.06478 11.2494 4.10256 11.1951 4.15 11.15C4.19512 11.1026 4.24941 11.0648 4.30958 11.039C4.36974 11.0132 4.43453 10.9999 4.5 10.9999C4.56547 10.9999 4.63026 11.0132 4.69042 11.039C4.75059 11.0648 4.80488 11.1026 4.85 11.15L6.85 13.15C6.89744 13.1951 6.93522 13.2494 6.96103 13.3096C6.98684 13.3698 7.00015 13.4346 7.00015 13.5C7.00015 13.5655 6.98684 13.6303 6.96103 13.6905C6.93522 13.7506 6.89744 13.8049 6.85 13.85V13.85Z" fill="#006CBF"/>
</g>
<defs>
<clipPath id="clip0_7202_83428">
<rect width="16.0003" height="16" fill="white"/>
</clipPath>
</defs>
</svg>
