<svg width="16" height="16" viewBox="0 0 16 16" fill="none" xmlns="http://www.w3.org/2000/svg">
<g clip-path="url(#clip0_7202_83424)">
<path d="M10 11C9.71 11 9 9.773 9 7.5C9 5.227 9.71 4 10 4C10.218 4 10.672 4.692 10.885 6H11.889C11.65 4.354 11.014 3 10 3H3.5C3.224 3 3 3.224 3 3.5C3 3.776 3.224 4 3.5 4H8.709C8.245 4.868 8 6.183 8 7.5C8 8.817 8.245 10.132 8.709 11H3.5C3.224 11 3 11.224 3 11.5C3 11.776 3.224 12 3.5 12H10C11.014 12 11.65 10.646 11.889 9H10.885C10.672 10.308 10.218 11 10 11Z" fill="#202020"/>
<path d="M3.854 5.14625L5.854 7.14625L5.855 7.14525C6.05 7.34025 6.05 7.65725 5.855 7.85225L3.855 9.85225C3.757 9.94925 3.629 9.99825 3.501 9.99825C3.373 9.99825 3.245 9.95025 3.147 9.85225C2.952 9.65725 2.952 9.34025 3.147 9.14525L4.293 7.99925H0.5C0.224 7.99925 0 7.77525 0 7.49925C0 7.22325 0.224 6.99925 0.5 6.99925H4.293L3.147 5.85325C2.952 5.65825 2.952 5.34125 3.147 5.14625C3.342 4.95125 3.659 4.95125 3.854 5.14625Z" fill="#006CBF"/>
<path d="M13.854 5.14625L15.854 7.14625L15.855 7.14325C16.05 7.33825 16.05 7.65525 15.855 7.85025L13.855 9.85025C13.757 9.94725 13.629 9.99625 13.501 9.99625C13.373 9.99625 13.245 9.94825 13.147 9.85025C12.952 9.65525 12.952 9.33825 13.147 9.14325L14.293 7.99725H10.481C10.214 7.98725 10 7.76825 10 7.49825C10 7.22825 10.214 7.00925 10.481 6.99925H14.293L13.147 5.85325C12.952 5.65825 12.952 5.34125 13.147 5.14625C13.342 4.95125 13.659 4.95125 13.854 5.14625Z" fill="#006CBF"/>
</g>
<defs>
<clipPath id="clip0_7202_83424">
<rect width="16" height="16" fill="white"/>
</clipPath>
</defs>
</svg>
