<svg width="16" height="16" viewBox="0 0 16 16" fill="none" xmlns="http://www.w3.org/2000/svg">
<path d="M6 3.50017V12.5002C6 12.7762 5.776 13.0002 5.5 13.0002C5.224 13.0002 5 12.7762 5 12.5002V5.15117C4.662 5.48017 4.221 5.78617 3.658 5.97417C3.393 6.06317 3.113 5.91917 3.026 5.65817C2.939 5.39617 3.08 5.11317 3.342 5.02617C4.591 4.60917 5.022 3.35517 5.026 3.34217C5.104 3.11017 5.341 2.96717 5.58 3.00717C5.822 3.04717 6 3.25517 6 3.50017ZM11.207 10.5002L12.853 8.85417C13.048 8.65917 13.048 8.34217 12.853 8.14717C12.658 7.95217 12.341 7.95217 12.146 8.14717L10.5 9.79317L8.854 8.14717C8.659 7.95217 8.342 7.95217 8.147 8.14717C7.952 8.34217 7.952 8.65917 8.147 8.85417L9.793 10.5002L8.147 12.1462C7.952 12.3412 7.952 12.6582 8.147 12.8532C8.245 12.9512 8.373 12.9992 8.501 12.9992C8.629 12.9992 8.757 12.9502 8.855 12.8532L10.501 11.2072L12.147 12.8532C12.245 12.9512 12.373 12.9992 12.501 12.9992C12.629 12.9992 12.757 12.9502 12.855 12.8532C13.05 12.6582 13.05 12.3412 12.855 12.1462L11.209 10.5002H11.207Z" fill="#202020"/>
</svg>
