<svg width="16" height="16" viewBox="0 0 16 16" fill="none" xmlns="http://www.w3.org/2000/svg">
<g clip-path="url(#clip0_7202_83444)">
<path d="M3 4.5C3 3.122 4.121 2 5.5 2C5.776 2 6 2.224 6 2.5C6 2.776 5.776 3 5.5 3C4.673 3 4 3.673 4 4.5C4 4.776 3.776 5 3.5 5C3.224 5 3 4.776 3 4.5Z" fill="#202020"/>
<path d="M10.5 13H9.79324C9.69471 13.3486 9.56266 13.6832 9.40079 14H10.5C10.776 14 11 13.776 11 13.5C11 13.224 10.776 13 10.5 13Z" fill="#202020"/>
<path d="M14.5 11C14.224 11 14 11.224 14 11.5C14 12.327 13.327 13 12.5 13C12.224 13 12 13.224 12 13.5C12 13.776 12.224 14 12.5 14C13.879 14 15 12.878 15 11.5C15 11.224 14.776 11 14.5 11Z" fill="#202020"/>
<path d="M14.5 6C14.224 6 14 6.224 14 6.5V9.5C14 9.776 14.224 10 14.5 10C14.776 10 15 9.776 15 9.5V6.5C15 6.224 14.776 6 14.5 6Z" fill="#202020"/>
<path d="M12.5 3C13.327 3 14 3.673 14 4.5C14 4.776 14.224 5 14.5 5C14.776 5 15 4.776 15 4.5C15 3.122 13.879 2 12.5 2C12.224 2 12 2.224 12 2.5C12 2.776 12.224 3 12.5 3Z" fill="#202020"/>
<path d="M7.5 3H10.5C10.776 3 11 2.776 11 2.5C11 2.224 10.776 2 10.5 2H7.5C7.224 2 7 2.224 7 2.5C7 2.776 7.224 3 7.5 3Z" fill="#202020"/>
<path d="M5.5 5C5.224 5 5 5.224 5 5.5C5 5.776 5.224 6 5.5 6H8C8.276 6 8.5 5.776 8.5 5.5C8.5 5.224 8.276 5 8 5H5.5Z" fill="#202020"/>
<path d="M10 5C9.724 5 9.5 5.224 9.5 5.5C9.5 5.776 9.724 6 10 6H12.5C12.776 6 13 5.776 13 5.5C13 5.224 12.776 5 12.5 5H10Z" fill="#202020"/>
<path d="M3.01115 11.001H5.98915C5.96386 9.97881 5.74959 8.97015 5.35715 8.02598C4.93515 7.10098 4.55715 7.00098 4.50015 7.00098C4.44315 7.00098 4.06515 7.10098 3.64315 8.02598C3.25071 8.97015 3.03643 9.97881 3.01115 11.001V11.001ZM0.0271454 11.001C0.119033 10.1814 0.43439 9.4028 0.938769 8.75029C1.44315 8.09777 2.11715 7.59641 2.88715 7.30098C2.32984 8.45608 2.03059 9.71862 2.01015 11.001H0.0271454ZM0.0271454 12.001H2.01015C2.03059 13.2833 2.32984 14.5459 2.88715 15.701C2.11715 15.4055 1.44315 14.9042 0.938769 14.2517C0.43439 13.5991 0.119033 12.8206 0.0271454 12.001ZM4.50015 16.001C4.44315 16.001 4.06515 15.901 3.64315 14.976C3.25071 14.0318 3.03643 13.0231 3.01115 12.001H5.98915C5.96386 13.0231 5.74959 14.0318 5.35715 14.976C4.93515 15.901 4.55715 16.001 4.50015 16.001ZM8.97314 12.001C8.88126 12.8206 8.5659 13.5991 8.06152 14.2517C7.55714 14.9042 6.88314 15.4055 6.11315 15.701C6.67045 14.5459 6.9697 13.2833 6.99015 12.001H8.97314ZM6.11315 7.30098C6.88314 7.59641 7.55714 8.09777 8.06152 8.75029C8.5659 9.4028 8.88126 10.1814 8.97314 11.001H6.99015C6.9697 9.71862 6.67045 8.45608 6.11315 7.30098V7.30098Z" fill="#006CBF"/>
</g>
<defs>
<clipPath id="clip0_7202_83444">
<rect width="16" height="16" fill="white"/>
</clipPath>
</defs>
</svg>
