<svg width="16" height="16" viewBox="0 0 16 16" fill="none" xmlns="http://www.w3.org/2000/svg">
<path d="M8 2C4.686 2 2 4.686 2 8C2 11.314 4.686 14 8 14C11.314 14 14 11.314 14 8C14 4.686 11.314 2 8 2ZM10.854 6.854L7.604 10.104C7.506 10.202 7.378 10.25 7.25 10.25C7.122 10.25 6.994 10.201 6.896 10.104L5.146 8.354C4.951 8.159 4.951 7.842 5.146 7.647C5.341 7.452 5.658 7.452 5.853 7.647L7.249 9.043L10.145 6.147C10.34 5.952 10.657 5.952 10.852 6.147C11.047 6.342 11.047 6.659 10.852 6.854H10.854Z" fill="#11910D"/>
</svg>
