<svg width="16" height="16" viewBox="0 0 16 16" fill="none" xmlns="http://www.w3.org/2000/svg">
<path d="M14.9998 2.5V9.5C14.9998 10.327 14.3268 11 13.4998 11H11.9998V6.5C11.9998 5.121 10.8778 4 9.4998 4H4.9998V2.5C4.9998 1.673 5.6728 1 6.4998 1H13.4998C14.3298 1 14.9998 1.67 14.9998 2.5ZM10.9998 6.5V13.5C10.9998 14.327 10.3268 15 9.4998 15H2.4998C1.6728 15 0.999802 14.327 0.999802 13.5V6.5C0.999802 5.673 1.6728 5 2.4998 5H9.4998C10.3298 5 10.9998 5.67 10.9998 6.5ZM9.9998 11H6.4998C5.6698 11 4.9998 10.33 4.9998 9.5V6H2.4998C2.2238 6 1.9998 6.225 1.9998 6.5V13.5C1.9998 13.775 2.2238 14 2.4998 14H9.4998C9.7758 14 9.9998 13.775 9.9998 13.5V11Z" fill="#202020"/>
</svg>
