<svg width="16" height="16" viewBox="0 0 16 16" fill="none" xmlns="http://www.w3.org/2000/svg">
<g clip-path="url(#clip0_7202_83499)">
<path fill-rule="evenodd" clip-rule="evenodd" d="M1.99969 12.5C1.99969 12.8978 2.15773 13.2794 2.43903 13.5607C2.72034 13.842 3.10187 14 3.49969 14H4.99969V14.5C4.99969 14.8978 5.15773 15.2794 5.43903 15.5607C5.72034 15.842 6.10187 16 6.49969 16H11.4997C11.8975 16 12.2791 15.842 12.5604 15.5607C12.8417 15.2794 12.9997 14.8978 12.9997 14.5V12H14.4997C14.8975 12 15.2791 11.842 15.5604 11.5607C15.8417 11.2794 15.9997 10.8978 15.9997 10.5V3.5C15.9997 3.10218 15.8417 2.72064 15.5604 2.43934C15.2791 2.15804 14.8975 2 14.4997 2H9.49969C9.10187 2 8.72034 2.15804 8.43903 2.43934C8.15773 2.72064 7.99969 3.10218 7.99969 3.5V4H7.12397L6.12397 5H7.99969V6H6.49969C6.10187 6 5.72034 6.15804 5.43903 6.43934C5.15773 6.72064 4.99969 7.10218 4.99969 7.5V13H3.49969C3.36709 13 3.23991 12.9473 3.14614 12.8536C3.05237 12.7598 2.99969 12.6326 2.99969 12.5V5.5C2.99969 5.3686 3.05142 5.24252 3.1436 5.14901C3.11991 5.09922 3.0989 5.04798 3.08071 4.99546C2.9764 4.69429 2.97091 4.36828 3.06405 4.06465C2.83019 4.13564 2.615 4.26337 2.43903 4.43934C2.15773 4.72064 1.99969 5.10218 1.99969 5.5V12.5ZM11.8532 14.8536C11.947 14.7598 11.9997 14.6326 11.9997 14.5V7.5C11.9997 7.36739 11.947 7.24021 11.8532 7.14645C11.7595 7.05268 11.6323 7 11.4997 7H6.49969C6.36709 7 6.23991 7.05268 6.14614 7.14645C6.05237 7.24021 5.99969 7.36739 5.99969 7.5V14.5C5.99969 14.6326 6.05237 14.7598 6.14614 14.8536C6.23991 14.9473 6.36709 15 6.49969 15H11.4997C11.6323 15 11.7595 14.9473 11.8532 14.8536ZM14.8532 10.8536C14.947 10.7598 14.9997 10.6326 14.9997 10.5V3.5C14.9997 3.36739 14.947 3.24021 14.8532 3.14645C14.7595 3.05268 14.6323 3 14.4997 3H9.49969C9.36709 3 9.23991 3.05268 9.14614 3.14645C9.05237 3.24021 8.99969 3.36739 8.99969 3.5V6H11.4997C11.8975 6 12.2791 6.15804 12.5604 6.43934C12.8417 6.72064 12.9997 7.10218 12.9997 7.5V11H14.4997C14.6323 11 14.7595 10.9473 14.8532 10.8536Z" fill="#202020"/>
<path d="M4.8537 0.148274L6.8537 2.14827C6.90026 2.19472 6.9372 2.2499 6.96241 2.31064C6.98761 2.37139 7.00059 2.43651 7.00059 2.50227C7.00059 2.56804 6.98761 2.63316 6.96241 2.69391C6.9372 2.75465 6.90026 2.80983 6.8537 2.85627L4.85369 4.85627C4.75981 4.95016 4.63247 5.00291 4.49969 5.00291C4.36692 5.00291 4.23958 4.95016 4.14569 4.85627C4.05181 4.76239 3.99906 4.63505 3.99906 4.50227C3.99906 4.3695 4.05181 4.24216 4.14569 4.14827L5.2927 3.00227L2.49969 3.00227C2.10187 3.00227 1.72034 3.16031 1.43903 3.44161C1.15773 3.72292 0.999695 4.10445 0.999695 4.50227L0.999695 5.50227C0.999695 5.63488 0.947017 5.76206 0.853249 5.85583C0.75948 5.9496 0.632303 6.00227 0.499695 6.00227C0.367087 6.00227 0.239909 5.9496 0.146141 5.85583C0.0523729 5.76206 -0.00030516 5.63488 -0.000305154 5.50227L-0.00030511 4.50227C-0.000305081 3.83923 0.263087 3.20335 0.731928 2.73451C1.20077 2.26567 1.83665 2.00227 2.49969 2.00227L5.2927 2.00227L4.14569 0.856274C4.05181 0.762387 3.99906 0.635049 3.99906 0.502274C3.99906 0.369498 4.05181 0.24216 4.14569 0.148274C4.23958 0.054387 4.36692 0.00164194 4.4997 0.00164195C4.63247 0.00164195 4.75981 0.054387 4.8537 0.148274V0.148274Z" fill="#006CBF"/>
</g>
<defs>
<clipPath id="clip0_7202_83499">
<rect width="16" height="16" fill="white"/>
</clipPath>
</defs>
</svg>
