<svg width="16" height="16" viewBox="0 0 16 16" fill="none" xmlns="http://www.w3.org/2000/svg">
<g clip-path="url(#clip0_7202_83639)">
<path fill-rule="evenodd" clip-rule="evenodd" d="M4.99969 5.9182C4.89253 5.95623 4.78073 5.98218 4.66628 5.99509C4.43978 6.02065 4.21198 5.99411 3.9997 5.91933V10H2.9997C2.89799 10 2.79871 10.031 2.71509 10.0889C2.63147 10.1468 2.56749 10.2288 2.5317 10.324L1.03169 14.324C1.00324 14.3997 0.993557 14.4811 1.00347 14.5613C1.01338 14.6415 1.04259 14.7181 1.0886 14.7846C1.13461 14.8511 1.19604 14.9054 1.26764 14.9429C1.33924 14.9804 1.41886 15 1.49969 15H13.4997C13.5805 15 13.6602 14.9804 13.7317 14.9429C13.8033 14.9054 13.8648 14.8511 13.9108 14.7846C13.9568 14.7181 13.986 14.6415 13.9959 14.5613C14.0058 14.4811 13.9961 14.3997 13.9677 14.324L12.4677 10.324C12.4319 10.2288 12.3679 10.1468 12.2843 10.0889C12.2007 10.031 12.1014 10 11.9997 10H10.9997V2.5C10.9997 2.10218 10.8417 1.72064 10.5604 1.43934C10.2791 1.15804 9.89752 1 9.49969 1H7.11942L7.5607 1.44127C7.70023 1.58043 7.81085 1.74582 7.8862 1.92792C7.89605 1.95173 7.90527 1.97576 7.91386 2H9.49969C9.6323 2 9.75948 2.05268 9.85325 2.14645C9.94702 2.24021 9.99969 2.36739 9.99969 2.5V11.5C9.99969 11.6326 9.94702 11.7598 9.85325 11.8536C9.75948 11.9473 9.6323 12 9.49969 12H5.49969C5.36709 12 5.23991 11.9473 5.14614 11.8536C5.05237 11.7598 4.99969 11.6326 4.99969 11.5V5.9182ZM3.34669 11L2.22169 14H12.7777L11.6527 11H10.9997V11.5C10.9997 11.8978 10.8417 12.2794 10.5604 12.5607C10.2791 12.842 9.89752 13 9.49969 13H5.49969C5.10187 13 4.72034 12.842 4.43903 12.5607C4.15773 12.2794 3.9997 11.8978 3.9997 11.5V11H3.34669Z" fill="#202020"/>
<path d="M6.21378 4.91019L7.12397 4H8.49969C8.6323 4 8.75948 4.05268 8.85325 4.14645C8.94702 4.24021 8.99969 4.36739 8.99969 4.5C8.99969 4.63261 8.94702 4.75979 8.85325 4.85355C8.75948 4.94732 8.6323 5 8.49969 5H6.49969C6.39675 5 6.29709 4.96826 6.21378 4.91019Z" fill="#202020"/>
<path d="M6.14614 8.14645C6.05237 8.24021 5.99969 8.36739 5.99969 8.5C5.99969 8.63261 6.05237 8.75979 6.14614 8.85355C6.23991 8.94732 6.36709 9 6.49969 9H8.49969C8.6323 9 8.75948 8.94732 8.85325 8.85355C8.94702 8.75979 8.99969 8.63261 8.99969 8.5C8.99969 8.36739 8.94702 8.24021 8.85325 8.14645C8.75948 8.05268 8.6323 8 8.49969 8H6.49969C6.36709 8 6.23991 8.05268 6.14614 8.14645Z" fill="#202020"/>
<path d="M6.14614 10.1464C6.05237 10.2402 5.99969 10.3674 5.99969 10.5C5.99969 10.6326 6.05237 10.7598 6.14614 10.8536C6.23991 10.9473 6.36709 11 6.49969 11H8.49969C8.6323 11 8.75948 10.9473 8.85325 10.8536C8.94702 10.7598 8.99969 10.6326 8.99969 10.5C8.99969 10.3674 8.94702 10.2402 8.85325 10.1464C8.75948 10.0527 8.6323 10 8.49969 10H6.49969C6.36709 10 6.23991 10.0527 6.14614 10.1464Z" fill="#202020"/>
<path d="M4.8537 0.148274L6.8537 2.14827C6.90026 2.19472 6.9372 2.2499 6.96241 2.31064C6.98761 2.37139 7.00059 2.43651 7.00059 2.50227C7.00059 2.56804 6.98761 2.63316 6.96241 2.69391C6.9372 2.75465 6.90026 2.80983 6.8537 2.85627L4.85369 4.85627C4.75981 4.95016 4.63247 5.00291 4.49969 5.00291C4.36692 5.00291 4.23958 4.95016 4.14569 4.85627C4.05181 4.76239 3.99906 4.63505 3.99906 4.50227C3.99906 4.3695 4.05181 4.24216 4.14569 4.14827L5.2927 3.00227L2.49969 3.00227C2.10187 3.00227 1.72034 3.16031 1.43903 3.44161C1.15773 3.72292 0.999695 4.10445 0.999695 4.50227L0.999695 5.50227C0.999695 5.63488 0.947017 5.76206 0.853249 5.85583C0.75948 5.9496 0.632303 6.00227 0.499695 6.00227C0.367087 6.00227 0.239909 5.9496 0.146141 5.85583C0.0523729 5.76206 -0.00030516 5.63488 -0.000305154 5.50227L-0.00030511 4.50227C-0.000305081 3.83923 0.263087 3.20335 0.731928 2.73451C1.20077 2.26567 1.83665 2.00227 2.49969 2.00227L5.2927 2.00227L4.14569 0.856274C4.05181 0.762387 3.99906 0.635049 3.99906 0.502274C3.99906 0.369498 4.05181 0.24216 4.14569 0.148274C4.23958 0.054387 4.36692 0.00164194 4.4997 0.00164195C4.63247 0.00164195 4.75981 0.054387 4.8537 0.148274V0.148274Z" fill="#006CBF"/>
</g>
<defs>
<clipPath id="clip0_7202_83639">
<rect width="16" height="16" fill="white"/>
</clipPath>
</defs>
</svg>
