<svg width="16" height="16" viewBox="0 0 16 16" fill="none" xmlns="http://www.w3.org/2000/svg">
<path fill-rule="evenodd" clip-rule="evenodd" d="M7.8865 3.07663C7.96184 2.89454 8.00042 2.69934 8 2.50227C8.00036 2.33098 7.97127 2.16109 7.91417 2L11.5 2C12.163 2 12.7989 2.26339 13.2678 2.73223C13.7366 3.20107 14 3.83696 14 4.5V9.5C14 9.8283 13.9353 10.1534 13.8097 10.4567C13.6841 10.76 13.4999 11.0356 13.2678 11.2678C13.0356 11.4999 12.76 11.6841 12.4567 11.8097C12.2956 11.8764 12.1284 11.926 11.9577 11.9577C11.926 12.1284 11.8764 12.2956 11.8097 12.4567C11.6841 12.76 11.4999 13.0356 11.2678 13.2678C11.0356 13.4999 10.76 13.6841 10.4567 13.8097C10.1534 13.9353 9.8283 14 9.5 14H4.5C3.83696 14 3.20107 13.7366 2.73223 13.2678C2.26339 12.7989 2 12.163 2 11.5V6.5C2 5.83696 2.26339 5.20107 2.73223 4.73223C2.8159 4.64856 2.90489 4.57143 2.99841 4.50118C2.99804 4.66823 3.02556 4.83536 3.08101 4.99546C3.19251 5.31737 3.41026 5.59174 3.69844 5.77343C3.9056 5.90404 4.14029 5.98115 4.38163 6H3V11.5C3 11.8978 3.15804 12.2794 3.43934 12.5607C3.72064 12.842 4.10218 13 4.5 13H9.5C9.89782 13 10.2794 12.842 10.5607 12.5607C10.842 12.2794 11 11.8978 11 11.5V6H4.61516C4.63231 5.99866 4.64945 5.99703 4.66659 5.99509C5.00511 5.9569 5.32055 5.8046 5.561 5.56327L7.561 3.56327C7.70053 3.42412 7.81116 3.25873 7.8865 3.07663ZM12.5607 10.5607C12.401 10.7204 12.209 10.8403 12 10.9142V6.5C12 6.1717 11.9353 5.84661 11.8097 5.54329C11.6841 5.23998 11.4999 4.96438 11.2678 4.73223C11.0356 4.50009 10.76 4.31594 10.4567 4.1903C10.1534 4.06466 9.8283 4 9.5 4H13V9.5C13 9.89782 12.842 10.2794 12.5607 10.5607Z" fill="#202020"/>
<path d="M6 8.5C6 8.22386 6.22386 8 6.5 8H9.5C9.77614 8 10 8.22386 10 8.5C10 8.77614 9.77614 9 9.5 9H6.5C6.22386 9 6 8.77614 6 8.5Z" fill="#B27C00"/>
<path fill-rule="evenodd" clip-rule="evenodd" d="M4.00312 5.92042C4.00105 5.94668 4 5.97322 4 6V9.5C4 10.8807 5.11929 12 6.5 12H11C11.5523 12 12 11.5523 12 11V6C12 5.44772 11.5523 5 11 5H6.12427L5.561 5.56327C5.32055 5.8046 5.00511 5.9569 4.66659 5.99509C4.4412 6.02052 4.21452 5.99437 4.00312 5.92042ZM6.5 11H11V6L5 6V9.5C5 10.3284 5.67157 11 6.5 11Z" fill="#B27C00"/>
<path d="M4.854 0.148274L6.854 2.14827C6.90056 2.19472 6.93751 2.2499 6.96271 2.31064C6.98792 2.37139 7.00089 2.43651 7.00089 2.50227C7.00089 2.56804 6.98792 2.63316 6.96271 2.69391C6.93751 2.75465 6.90056 2.80983 6.854 2.85627L4.854 4.85627C4.76011 4.95016 4.63278 5.00291 4.5 5.00291C4.36722 5.00291 4.23989 4.95016 4.146 4.85627C4.05211 4.76239 3.99937 4.63505 3.99937 4.50227C3.99937 4.3695 4.05211 4.24216 4.146 4.14827L5.293 3.00227L2.5 3.00227C2.10218 3.00227 1.72064 3.16031 1.43934 3.44161C1.15804 3.72292 1 4.10445 1 4.50227L1 5.50227C1 5.63488 0.947322 5.76206 0.853554 5.85583C0.759786 5.9496 0.632608 6.00227 0.5 6.00227C0.367392 6.00227 0.240214 5.9496 0.146446 5.85583C0.0526781 5.76206 1.60592e-08 5.63488 2.18557e-08 5.50227L6.55671e-08 4.50227C9.45495e-08 3.83923 0.263392 3.20335 0.732233 2.73451C1.20107 2.26567 1.83696 2.00227 2.5 2.00227L5.293 2.00227L4.146 0.856274C4.05211 0.762387 3.99937 0.635049 3.99937 0.502274C3.99937 0.369498 4.05211 0.24216 4.146 0.148274C4.23989 0.054387 4.36722 0.00164194 4.5 0.00164195C4.63278 0.00164195 4.76011 0.054387 4.854 0.148274V0.148274Z" fill="#006CBF"/>
</svg>
