<svg width="16" height="16" viewBox="0 0 16 16" fill="none" xmlns="http://www.w3.org/2000/svg">
<path d="M3.05146 4.89996C2.97088 4.60511 2.98212 4.29179 3.085 4.00227H2.5C2.40308 4.00227 2.30906 4.03041 2.22887 4.08217C2.08041 4.52813 2 5.00486 2 5.5V10.5C2 12.981 4.019 15 6.5 15H11.5C13.981 15 16 12.981 16 10.5V5.5C16 3.019 13.981 1 11.5 1H7.11973L7.561 1.44127C7.70053 1.58043 7.81116 1.74582 7.8865 1.92792C7.89635 1.95173 7.90558 1.97576 7.91417 2H11.5C13.43 2 15 3.57 15 5.5V10.5C15 12.43 13.43 14 11.5 14H6.5C4.57 14 3 12.43 3 10.5V5.5C3 5.29546 3.01763 5.09497 3.05146 4.89996Z" fill="#202020"/>
<path fill-rule="evenodd" clip-rule="evenodd" d="M7.8865 3.07663C7.89697 3.05133 7.90673 3.02578 7.91577 3H11.5C12.881 3 14 4.119 14 5.5V10.5C14 11.881 12.881 13 11.5 13H6.5C5.119 13 4 11.881 4 10.5V5.91933C4.21228 5.99411 4.44009 6.02065 4.66659 5.99509C4.78103 5.98218 4.89284 5.95623 5 5.9182V6H7V4.12427L7.561 3.56327C7.70053 3.42412 7.81116 3.25873 7.8865 3.07663ZM8 12H10V10H8V12ZM7 10H5V10.5C5 11.328 5.672 12 6.5 12H7V10ZM8 9H10V7H8V9ZM7 7H5V9H7V7ZM8 6H10V4H8V6ZM11 7V9H13V7H11ZM11 10V12H11.5C12.328 12 13 11.328 13 10.5V10H11ZM13 6V5.5C13 4.672 12.328 4 11.5 4H11V6H13Z" fill="#202020"/>
<path d="M4.854 0.148274L6.854 2.14827C6.90056 2.19472 6.93751 2.2499 6.96271 2.31064C6.98792 2.37139 7.00089 2.43651 7.00089 2.50227C7.00089 2.56804 6.98792 2.63316 6.96271 2.69391C6.93751 2.75465 6.90056 2.80983 6.854 2.85627L4.854 4.85627C4.76011 4.95016 4.63278 5.00291 4.5 5.00291C4.36722 5.00291 4.23989 4.95016 4.146 4.85627C4.05211 4.76239 3.99937 4.63505 3.99937 4.50227C3.99937 4.3695 4.05211 4.24216 4.146 4.14827L5.293 3.00227L2.5 3.00227C2.10218 3.00227 1.72064 3.16031 1.43934 3.44161C1.15804 3.72292 1 4.10445 1 4.50227L1 5.50227C1 5.63488 0.947322 5.76206 0.853554 5.85583C0.759786 5.9496 0.632608 6.00227 0.5 6.00227C0.367392 6.00227 0.240214 5.9496 0.146446 5.85583C0.0526781 5.76206 1.60592e-08 5.63488 2.18557e-08 5.50227L6.55671e-08 4.50227C9.45495e-08 3.83923 0.263392 3.20335 0.732233 2.73451C1.20107 2.26567 1.83696 2.00227 2.5 2.00227L5.293 2.00227L4.146 0.856274C4.05211 0.762387 3.99937 0.635049 3.99937 0.502274C3.99937 0.369498 4.05211 0.24216 4.146 0.148274C4.23989 0.054387 4.36722 0.00164194 4.5 0.00164195C4.63278 0.00164195 4.76011 0.054387 4.854 0.148274V0.148274Z" fill="#006CBF"/>
</svg>
