<svg width="16" height="16" viewBox="0 0 16 16" fill="none" xmlns="http://www.w3.org/2000/svg">
<g clip-path="url(#clip0_7202_83555)">
<path d="M10.4997 6H9.49969L9.40982 6.00806C9.17657 6.05039 8.99969 6.25454 8.99969 6.5C8.99969 6.77614 9.22355 7 9.49969 7H10.4997L10.6641 7.00532C11.9682 7.08996 12.9997 8.17452 12.9997 9.5C12.9997 10.8807 11.8804 12 10.4997 12L9.4974 12.0046L9.40756 12.0131C9.17451 12.0565 8.99857 12.2614 8.99969 12.5069C9.00097 12.783 9.22585 13.0059 9.50199 13.0046L10.502 13L10.6938 12.9948C12.5354 12.8951 13.9997 11.3686 13.9997 9.5C13.9997 7.567 12.4327 6 10.4997 6Z" fill="#202020"/>
<path d="M6.49969 6H5.49969L5.30766 6.00518C3.46397 6.10487 1.99969 7.63144 1.99969 9.5C1.99969 11.433 3.5667 13 5.49969 13H6.49969L6.58957 12.9919C6.82282 12.9496 6.99969 12.7455 6.99969 12.5C6.99969 12.2239 6.77584 12 6.49969 12H5.49969L5.33532 11.9947C4.03123 11.91 2.99969 10.8255 2.99969 9.5C2.99969 8.11929 4.11898 7 5.49969 7H6.49969L6.58957 6.99194C6.82282 6.94961 6.99969 6.74546 6.99969 6.5C6.99969 6.22386 6.77584 6 6.49969 6Z" fill="#202020"/>
<path d="M10.4999 9.0023L5.49992 9L5.41005 9.00801C5.17678 9.05024 4.99981 9.25431 4.99969 9.49977C4.99957 9.77591 5.22332 9.99987 5.49947 10L10.4995 10.0023L10.5893 9.99428C10.8226 9.95205 10.9996 9.74798 10.9997 9.50252C10.9998 9.22638 10.7761 9.00242 10.4999 9.0023Z" fill="#202020"/>
<path d="M4.8537 0.148274L6.8537 2.14827C6.90026 2.19472 6.9372 2.2499 6.96241 2.31064C6.98761 2.37139 7.00059 2.43651 7.00059 2.50227C7.00059 2.56804 6.98761 2.63316 6.96241 2.69391C6.9372 2.75465 6.90026 2.80983 6.8537 2.85627L4.85369 4.85627C4.75981 4.95016 4.63247 5.00291 4.49969 5.00291C4.36692 5.00291 4.23958 4.95016 4.14569 4.85627C4.05181 4.76239 3.99906 4.63505 3.99906 4.50227C3.99906 4.3695 4.05181 4.24216 4.14569 4.14827L5.2927 3.00227L2.49969 3.00227C2.10187 3.00227 1.72034 3.16031 1.43903 3.44161C1.15773 3.72292 0.999695 4.10445 0.999695 4.50227L0.999695 5.50227C0.999695 5.63488 0.947017 5.76206 0.853249 5.85583C0.75948 5.9496 0.632303 6.00227 0.499695 6.00227C0.367087 6.00227 0.239909 5.9496 0.146141 5.85583C0.0523729 5.76206 -0.00030516 5.63488 -0.000305154 5.50227L-0.00030511 4.50227C-0.000305081 3.83923 0.263087 3.20335 0.731928 2.73451C1.20077 2.26567 1.83665 2.00227 2.49969 2.00227L5.2927 2.00227L4.14569 0.856274C4.05181 0.762387 3.99906 0.635049 3.99906 0.502274C3.99906 0.369498 4.05181 0.24216 4.14569 0.148274C4.23958 0.054387 4.36692 0.00164194 4.4997 0.00164195C4.63247 0.00164195 4.75981 0.054387 4.8537 0.148274V0.148274Z" fill="#006CBF"/>
</g>
<defs>
<clipPath id="clip0_7202_83555">
<rect width="16" height="16" fill="white"/>
</clipPath>
</defs>
</svg>
