<svg width="16" height="16" viewBox="0 0 16 16" fill="none" xmlns="http://www.w3.org/2000/svg">
<path fill-rule="evenodd" clip-rule="evenodd" d="M2.31406 6.07914C3.11498 3.70751 5.35808 2 8 2C11.3137 2 14 4.68629 14 8C14 10.2215 12.7927 12.161 10.9984 13.1982C10.9901 12.8337 10.8948 12.4903 10.7323 12.1881C11.2211 11.8686 11.6505 11.4659 12.0004 11H10.6159C10.5471 11.2473 10.4699 11.4835 10.3849 11.7068C10.1486 11.4565 9.85569 11.2604 9.52681 11.139C9.54241 11.0933 9.5577 11.047 9.57265 11H9.49892C9.8133 10.582 10 10.0623 10 9.5C10 9.33768 9.98445 9.17892 9.95475 9.02512C9.98434 8.69489 10 8.35215 10 8C10 7.28604 9.93562 6.6108 9.82134 6H6.17866C6.09179 6.46429 6.03376 6.96581 6.01091 7.49328C5.90903 7.56919 5.81311 7.65271 5.724 7.743C5.56148 7.39276 5.33338 7.07885 5.0556 6.81717C5.08227 6.53761 5.11826 6.26467 5.16299 6H3.41604C3.41209 6.00904 3.40817 6.01809 3.40427 6.02716C3.27202 6.00925 3.13706 6 3 6C2.76409 6 2.53443 6.02738 2.31406 6.07914ZM9.31258 4.31781C8.87543 3.35608 8.37372 3 8 3C7.62628 3 7.12457 3.35608 6.68742 4.31781C6.5927 4.52619 6.50552 4.75446 6.42735 5H9.57265C9.49448 4.75446 9.4073 4.52619 9.31258 4.31781ZM5.38411 5C5.49428 4.6038 5.62614 4.23601 5.77705 3.90401C5.85596 3.7304 5.94287 3.56117 6.03766 3.39978C5.22525 3.74677 4.52341 4.30269 3.99963 5H5.38411ZM10.837 10H12.584C12.8516 9.38754 13 8.7111 13 8C13 7.2889 12.8516 6.61246 12.584 6H10.837C10.9431 6.6275 11 7.30146 11 8C11 8.69854 10.9431 9.3725 10.837 10ZM12.0004 5C11.4766 4.30269 10.7747 3.74677 9.96234 3.39978C10.0571 3.56117 10.144 3.7304 10.2229 3.90401C10.3739 4.23601 10.5057 4.6038 10.6159 5H12.0004Z" fill="#006CBF"/>
<path d="M3 11C4.105 11 5 10.105 5 9C5 7.895 4.105 7 3 7C1.895 7 1 7.895 1 9C1 10.105 1.895 11 3 11ZM7.5 11C8.328 11 9 10.328 9 9.5C9 8.672 8.328 8 7.5 8C6.672 8 6 8.672 6 9.5C6 10.328 6.672 11 7.5 11ZM1.25 12C0.56 12 0 12.56 0 13.25C0 13.25 0 15.5 3 15.5C5.378 15.5 5.871 14.086 5.973 13.5C6 13.347 6 13.25 6 13.25C6 12.56 5.44 12 4.75 12H1.25ZM6.996 13.6C6.994 13.64 6.99 13.688 6.984 13.742C6.971 13.849 6.948 13.983 6.906 14.136C6.844 14.359 6.74 14.626 6.565 14.901C6.829 14.963 7.138 15 7.5 15C10 15 10 13.25 10 13.25C10 12.56 9.44 12 8.75 12H6.621C6.86 12.358 7 12.787 7 13.25V13.5L6.997 13.6H6.996Z" fill="#202020"/>
</svg>
