<svg width="16" height="16" viewBox="0 0 16 16" fill="none" xmlns="http://www.w3.org/2000/svg">
<g clip-path="url(#clip0_7202_83509)">
<path d="M7.91386 2H8.59069C9.24069 2 9.89069 2.27 10.3507 2.73L12.2707 4.65C12.7407 5.12 13.0007 5.75 13.0007 6.41V12.73C13.6007 12.38 14.0007 11.74 14.0007 11V6.41C14.0007 5.48 13.6407 4.6 12.9707 3.94L11.0607 2.03C10.4107 1.37 9.51069 1 8.59069 1H7.11942L7.5607 1.44127C7.70023 1.58043 7.81085 1.74582 7.8862 1.92792C7.89605 1.95173 7.90527 1.97576 7.91386 2Z" fill="#202020"/>
<path fill-rule="evenodd" clip-rule="evenodd" d="M7.8862 3.07663C7.89666 3.05133 7.90642 3.02578 7.91547 3H8.5857C8.9837 3 9.36569 3.158 9.6467 3.439L11.5607 5.353C11.8417 5.635 11.9997 6.016 11.9997 6.414V7.5H12.0007V13C12.0007 14.105 11.1057 15 10.0007 15H4.99969C3.89469 15 2.99969 14.105 2.99969 13V5C2.99969 4.91156 3.00543 4.82446 3.01654 4.73906C3.03027 4.82577 3.05166 4.91158 3.08071 4.99546C3.1922 5.31737 3.40995 5.59174 3.69813 5.77343C3.7935 5.83355 3.8947 5.88234 3.99969 5.91933V13C3.99969 13.552 4.44769 14 4.99969 14H10.0007C10.5527 14 11.0007 13.552 11.0007 13L11.0017 8.061H10.9997V7H9.49969C8.67169 7 7.99969 6.328 7.99969 5.5V4H7.12397L7.56069 3.56327C7.70023 3.42412 7.81085 3.25873 7.8862 3.07663ZM10.7927 6L8.99969 4.207V5.5C8.99969 5.776 9.22369 6 9.49969 6H10.7927Z" fill="#202020"/>
<path d="M4.8537 0.148274L6.8537 2.14827C6.90026 2.19472 6.9372 2.2499 6.96241 2.31064C6.98761 2.37139 7.00059 2.43651 7.00059 2.50227C7.00059 2.56804 6.98761 2.63316 6.96241 2.69391C6.9372 2.75465 6.90026 2.80983 6.8537 2.85627L4.85369 4.85627C4.75981 4.95016 4.63247 5.00291 4.49969 5.00291C4.36692 5.00291 4.23958 4.95016 4.14569 4.85627C4.05181 4.76239 3.99906 4.63505 3.99906 4.50227C3.99906 4.3695 4.05181 4.24216 4.14569 4.14827L5.2927 3.00227L2.49969 3.00227C2.10187 3.00227 1.72034 3.16031 1.43903 3.44161C1.15773 3.72292 0.999695 4.10445 0.999695 4.50227L0.999695 5.50227C0.999695 5.63488 0.947017 5.76206 0.853249 5.85583C0.75948 5.9496 0.632303 6.00227 0.499695 6.00227C0.367087 6.00227 0.239909 5.9496 0.146141 5.85583C0.0523729 5.76206 -0.00030516 5.63488 -0.000305154 5.50227L-0.00030511 4.50227C-0.000305081 3.83923 0.263087 3.20335 0.731928 2.73451C1.20077 2.26567 1.83665 2.00227 2.49969 2.00227L5.2927 2.00227L4.14569 0.856274C4.05181 0.762387 3.99906 0.635049 3.99906 0.502274C3.99906 0.369498 4.05181 0.24216 4.14569 0.148274C4.23958 0.054387 4.36692 0.00164194 4.4997 0.00164195C4.63247 0.00164195 4.75981 0.054387 4.8537 0.148274V0.148274Z" fill="#006CBF"/>
</g>
<defs>
<clipPath id="clip0_7202_83509">
<rect width="16" height="16" fill="white"/>
</clipPath>
</defs>
</svg>
