<svg width="16" height="16" viewBox="0 0 16 16" fill="none" xmlns="http://www.w3.org/2000/svg">
<path d="M3 1H13C14.103 1 15 1.897 15 3V7.17071C14.6872 7.06015 14.3506 7 14 7V3C14 2.449 13.552 2 13 2H3C2.448 2 2 2.449 2 3V13C2 13.551 2.448 14 3 14H7C7 14.3506 7.06015 14.6872 7.17071 15H3C1.897 15 1 14.103 1 13V3C1 1.897 1.897 1 3 1Z" fill="#006CBF"/>
<path d="M7 11.292V12.499C6.872 12.499 6.744 12.45 6.646 12.353L5.5 11.207L4.354 12.353C4.256 12.451 4.128 12.499 4 12.499C3.872 12.499 3.744 12.45 3.646 12.353C3.451 12.158 3.451 11.841 3.646 11.646L4.792 10.5L3.646 9.354C3.451 9.159 3.451 8.842 3.646 8.647C3.841 8.452 4.158 8.452 4.353 8.647L5.499 9.793L6.645 8.647C6.83333 8.45867 7.13546 8.45223 7.33157 8.62768C7.16415 8.95257 7.05432 9.31198 7.01557 9.69243L6.208 10.5L7 11.292Z" fill="#006CBF"/>
<path d="M7.5 6C7.776 6 8 5.776 8 5.5C8 5.224 7.776 5 7.5 5H6V3.5C6 3.224 5.776 3 5.5 3C5.224 3 5 3.224 5 3.5V5H3.5C3.224 5 3 5.224 3 5.5C3 5.776 3.224 6 3.5 6H5V7.5C5 7.776 5.224 8 5.5 8C5.776 8 6 7.776 6 7.5V6H7.5Z" fill="#006CBF"/>
<path d="M12.5 6C12.776 6 13 5.776 13 5.5C13 5.224 12.776 5 12.5 5H9.5C9.224 5 9 5.224 9 5.5C9 5.776 9.224 6 9.5 6H12.5Z" fill="#006CBF"/>
<path fill-rule="evenodd" clip-rule="evenodd" d="M10 8C8.89543 8 8 8.89543 8 10V14C8 15.1046 8.89543 16 10 16H14C15.1046 16 16 15.1046 16 14V10C16 8.89543 15.1046 8 14 8H10ZM10 10.5C10 10.2239 10.2239 10 10.5 10H13.5C13.7761 10 14 10.2239 14 10.5V13.5C14 13.7761 13.7761 14 13.5 14C13.2239 14 13 13.7761 13 13.5V11.7071L10.8536 13.8536C10.6583 14.0488 10.3417 14.0488 10.1464 13.8536C9.95118 13.6583 9.95118 13.3417 10.1464 13.1465L12.2929 11H10.5C10.2239 11 10 10.7761 10 10.5Z" fill="#202020"/>
</svg>
