<svg width="16" height="16" viewBox="0 0 16 16" fill="none" xmlns="http://www.w3.org/2000/svg">
<path d="M9.01368 1.41166C9.01368 1.2207 8.87729 1.05479 8.68423 1.01091C8.48853 0.966435 8.29453 1.06158 8.20219 1.22973C8.18339 1.26423 8.1627 1.2978 8.1415 1.33097C8.09555 1.40286 8.02531 1.50441 7.93118 1.61767C7.74051 1.84713 7.46535 2.10836 7.11153 2.27867C6.90025 2.38037 6.81461 2.62771 6.92025 2.83112C7.02589 3.03452 7.28281 3.11697 7.49409 3.01526C7.75056 2.89181 7.97169 2.73831 8.15825 2.57963V4.70581C8.15825 4.93322 8.34974 5.11757 8.58596 5.11757C8.82219 5.11757 9.01368 4.93322 9.01368 4.70581V1.41166Z" fill="#202020"/>
<path d="M7.15467 6.47354C6.98765 6.63435 6.98767 6.89507 7.15471 7.05586C7.32076 7.2157 7.58935 7.21663 7.7566 7.05867L7.76223 7.05372C7.76901 7.04787 7.78144 7.0375 7.7992 7.02406C7.83494 6.99702 7.89091 6.95855 7.9646 6.91951C8.1117 6.84157 8.3214 6.76534 8.58027 6.76465C8.77468 6.76838 8.93179 6.81799 9.02884 6.88718C9.11074 6.94556 9.168 7.02774 9.168 7.17649C9.168 7.34307 9.10794 7.4393 8.98775 7.53573C8.85827 7.6396 8.69013 7.71972 8.45895 7.82988C8.41973 7.84857 8.37811 7.86841 8.33515 7.88909C8.06676 8.01827 7.73402 8.18843 7.4748 8.46294C7.19981 8.75415 7.02941 9.13717 7.02941 9.64712C7.02941 9.87453 7.22091 10.0589 7.45713 10.0589H9.59524C9.83146 10.0589 10.0234 9.87453 10.0234 9.64712C10.0234 9.4197 9.83194 9.23535 9.59572 9.23535H7.96119C7.99998 9.14746 8.05092 9.07712 8.10777 9.01691C8.24954 8.86678 8.45144 8.75385 8.7177 8.62568C8.7506 8.60985 8.78525 8.59348 8.82121 8.5765C9.04529 8.47067 9.32073 8.34059 9.53538 8.16839C9.81618 7.94311 10.0234 7.62757 10.0234 7.17649C10.0234 6.76107 9.83289 6.43563 9.53792 6.22535C9.25871 6.0263 8.91125 5.94637 8.59112 5.94117L8.58393 5.94111C8.1454 5.94109 7.79299 6.07042 7.55214 6.19802C7.43152 6.26193 7.33688 6.32642 7.27057 6.3766C7.23731 6.40176 7.21087 6.42357 7.19152 6.44025C7.18184 6.44859 7.17391 6.45568 7.16776 6.46129L7.15988 6.46859L7.15693 6.47137L7.15572 6.47253L7.15467 6.47354Z" fill="#202020"/>
<path fill-rule="evenodd" clip-rule="evenodd" d="M8.52138 12.5294C8.28516 12.5294 8.09366 12.7137 8.09366 12.9412C8.09366 13.1686 8.28516 13.3529 8.52138 13.3529C8.81461 13.3529 8.97666 13.4325 9.05829 13.5037C9.13892 13.574 9.17203 13.6613 9.1686 13.7493C9.1624 13.9086 9.00959 14.1765 8.52138 14.1765C8.16851 14.1765 7.98575 14.0927 7.9032 14.0397C7.85995 14.012 7.8367 13.9879 7.82745 13.9772L7.82395 13.973C7.80697 13.9442 7.78684 13.918 7.76419 13.8947C7.78858 13.9455 7.81153 14.0026 7.83102 14.063C7.94102 14.319 7.99902 14.598 7.99902 14.879C7.99902 14.9025 7.99863 14.9259 7.99787 14.9493C8.15073 14.9813 8.32449 15 8.52138 15C9.40187 15 9.99757 14.4443 10.0234 13.7801C10.0352 13.4775 9.92247 13.1743 9.68433 12.9412C9.92247 12.7081 10.0352 12.4048 10.0234 12.1022C9.99757 11.438 9.40187 10.8823 8.52138 10.8823C8.01882 10.8823 7.66693 11.0045 7.42869 11.1574C7.31154 11.2325 7.22786 11.3114 7.17029 11.3779C7.14161 11.411 7.11958 11.4409 7.10316 11.4655C7.09495 11.4778 7.08813 11.4888 7.08257 11.4982L7.07516 11.5112L7.07213 11.5168L7.07077 11.5193L7.07013 11.5205L7.06952 11.5217C6.96388 11.7251 7.04952 11.9725 7.2608 12.0742C7.46527 12.1726 7.71246 12.0985 7.82395 11.9093L7.82745 11.9051C7.8367 11.8944 7.85995 11.8703 7.9032 11.8426C7.98575 11.7896 8.16851 11.7059 8.52138 11.7059C9.00959 11.7059 9.1624 11.9737 9.1686 12.1331C9.17203 12.221 9.13892 12.3083 9.05829 12.3786C8.97666 12.4498 8.81461 12.5294 8.52138 12.5294ZM7.82395 11.9093L7.82222 11.9116C7.82222 11.9116 7.82481 11.9077 7.82682 11.9042L7.83029 11.8981L7.83236 11.8943L7.83348 11.8922L7.83435 11.8906C7.83103 11.8969 7.82756 11.9032 7.82395 11.9093Z" fill="#202020"/>
<path d="M11 3.5C11 3.22386 11.2239 3 11.5 3H14.5C14.7761 3 15 3.22386 15 3.5C15 3.77614 14.7761 4 14.5 4H11.5C11.2239 4 11 3.77614 11 3.5Z" fill="#202020"/>
<path d="M11 7.5C11 7.22386 11.2239 7 11.5 7H14.5C14.7761 7 15 7.22386 15 7.5C15 7.77614 14.7761 8 14.5 8H11.5C11.2239 8 11 7.77614 11 7.5Z" fill="#202020"/>
<path d="M11 11.5C11 11.2239 11.2239 11 11.5 11H14.5C14.7761 11 15 11.2239 15 11.5C15 11.7761 14.7761 12 14.5 12H11.5C11.2239 12 11 11.7761 11 11.5Z" fill="#202020"/>
<path d="M0.11 14.41C0.12 14.36 0.14 14.32 0.17 14.28L0.973 13H6.027L6.83 14.28C6.86 14.32 6.88 14.36 6.89 14.41C6.96 14.55 7 14.71 7 14.88C7 15.47 6.55 15.95 5.98 15.99C5.95 16 5.91 16 5.88 16H1.12C1.09 16 1.05 16 1.02 15.99C0.45 15.95 0 15.47 0 14.88C0 14.71 0.0399997 14.55 0.11 14.41Z" fill="#159195"/>
<path d="M5.5 9H5V11.2C5 11.3 5.03 11.4 5.08 11.49L5.4 12H1.6L1.92 11.49C1.97 11.4 2 11.3 2 11.2V9H1.5C1.224 9 1 8.776 1 8.5C1 8.224 1.224 8 1.5 8H5.5C5.776 8 6 8.224 6 8.5C6 8.776 5.776 9 5.5 9Z" fill="#202020"/>
</svg>
