<svg width="16" height="16" viewBox="0 0 16 16" fill="none" xmlns="http://www.w3.org/2000/svg">
<path d="M3.4998 15.0002C3.2238 15.0002 2.9998 14.7762 2.9998 14.5002V2.70725L1.8538 3.85325C1.6588 4.04825 1.3418 4.04825 1.1468 3.85325C0.951799 3.65825 0.951799 3.34125 1.1468 3.14625L3.1468 1.14625C3.3418 0.95125 3.6588 0.95125 3.8538 1.14625L5.8538 3.14625C6.0488 3.34125 6.0488 3.65825 5.8538 3.85325C5.6588 4.04825 5.3418 4.04825 5.1468 3.85325L4.0008 2.70725V14.5002C4.0008 14.7762 3.7758 15.0002 3.4998 15.0002Z" fill="#006CBF"/>
<path d="M5.99979 10C6.55179 10 6.99979 9.552 6.99979 9C6.99979 8.448 6.55179 8 5.99979 8C5.44779 8 5.00379 8.445 5.00079 8.995V9.005C5.00379 9.555 5.44879 10 5.99979 10ZM10.9998 6H5.00079V7H10.9998V12H5.00079V13H10.9998C11.5518 13 11.9998 12.552 11.9998 12V7C11.9998 6.448 11.5518 6 10.9998 6ZM9.99979 10C9.99979 9.448 9.55179 9 8.99979 9C8.44779 9 7.99979 9.448 7.99979 10C7.99979 10.552 8.44779 11 8.99979 11C9.55179 11 9.99979 10.552 9.99979 10ZM13.9998 2H6.99979C6.75579 2 6.53979 2.099 6.36579 2.245L6.56079 2.44C6.72079 2.599 6.83579 2.792 6.90979 3.001H14.0008V8.001H13.0008V9.001H14.0008C14.5508 9.001 15.0008 8.551 15.0008 8.001V3C15.0008 2.45 14.5498 2 13.9998 2ZM8.99979 4C8.44979 4 7.99979 4.45 7.99979 5H9.99979C9.99979 4.45 9.54979 4 8.99979 4Z" fill="#202020"/>
</svg>
