<svg width="16" height="16" viewBox="0 0 16 16" fill="none" xmlns="http://www.w3.org/2000/svg">
<g clip-path="url(#clip0_7202_83777)">
<path fill-rule="evenodd" clip-rule="evenodd" d="M7.00073 2H8.00073C8.55173 2 9.00073 2.448 9.00073 3V6.085C9.67839 6.16188 10.3465 6.29172 11.0007 6.46979V4C11.0007 3.448 11.4497 3 12.0007 3H13.0007C13.5517 3 14.0007 3.448 14.0007 4V7.69353C14.2628 7.83693 14.5208 7.98881 14.7727 8.15309V8.15409C15.0037 8.30409 15.0697 8.61409 14.9187 8.84509C14.7697 9.07609 14.4587 9.14109 14.2277 8.99109C14.1525 8.94213 14.0769 8.89417 14.0007 8.84714V11C14.0007 11.552 13.5517 12 13.0007 12H12.0007C11.4497 12 11.0007 11.552 11.0007 11V7.5105C10.3483 7.31719 9.68016 7.17714 9.00073 7.09389V10C9.00073 10.552 8.55173 11 8.00073 11H7.00073C6.44973 11 6.00073 10.552 6.00073 10V7.09388C5.3213 7.17713 4.65316 7.31719 4.00073 7.51049V11C4.00073 11.552 3.55173 12 3.00073 12H2.00073C1.44973 12 1.00073 11.552 1.00073 11V8.8459C0.923911 8.89332 0.847565 8.9417 0.771727 8.99109C0.687727 9.04609 0.592727 9.07209 0.499727 9.07209C0.336727 9.07209 0.176727 8.99109 0.0807266 8.84409C-0.0702734 8.61309 -0.00527337 8.30309 0.226727 8.15309C0.479305 7.989 0.737926 7.83663 1.00073 7.69271V4C1.00073 3.448 1.44973 3 2.00073 3H3.00073C3.55173 3 4.00073 3.448 4.00073 4V6.46942C4.65485 6.29105 5.3227 6.1616 6.00073 6.08489V3C6.00073 2.448 6.44973 2 7.00073 2ZM7.00073 10H8.00073V3H7.00073V10ZM2.00073 11H3.00073V4H2.00073V11ZM12.0007 11H13.0007V4H12.0007V11Z" fill="#202020"/>
</g>
<defs>
<clipPath id="clip0_7202_83777">
<rect width="16" height="16" fill="white"/>
</clipPath>
</defs>
</svg>
