<svg width="16" height="16" viewBox="0 0 16 16" fill="none" xmlns="http://www.w3.org/2000/svg">
<g clip-path="url(#clip0_7202_83813)">
<path fill-rule="evenodd" clip-rule="evenodd" d="M6.49976 2H9.49976C9.89758 2 10.2791 2.15804 10.5604 2.43934C10.8417 2.72064 10.9998 3.10218 10.9998 3.5V12.5C10.9998 12.8978 10.8417 13.2794 10.5604 13.5607C10.2791 13.842 9.89758 14 9.49976 14H6.49976C6.10193 14 5.7204 13.842 5.4391 13.5607C5.15779 13.2794 4.99976 12.8978 4.99976 12.5V7.91278C5.02836 7.90252 5.05667 7.89137 5.08466 7.87934C5.26946 7.79992 5.43619 7.68379 5.57474 7.538C5.71065 7.40164 5.81818 7.2397 5.89113 7.06154C5.96194 6.88861 5.99879 6.70372 5.99976 6.51696V10H9.99976V6H5.99976V6.50197L5.99974 6.5C5.99922 6.29877 5.95803 6.09972 5.87864 5.91482C5.79924 5.72991 5.68329 5.56296 5.53774 5.424L4.99976 4.88601V3.5C4.99976 3.10218 5.15779 2.72064 5.4391 2.43934C5.7204 2.15804 6.10193 2 6.49976 2ZM6.1462 3.14645C6.05243 3.24021 5.99976 3.36739 5.99976 3.5V5H9.99976V3.5C9.99976 3.36739 9.94708 3.24021 9.85331 3.14645C9.75954 3.05268 9.63236 3 9.49976 3H6.49976C6.36715 3 6.23997 3.05268 6.1462 3.14645ZM9.85331 12.8536C9.94708 12.7598 9.99976 12.6326 9.99976 12.5V11H5.99976V12.5C5.99976 12.6326 6.05243 12.7598 6.1462 12.8536C6.23997 12.9473 6.36715 13 6.49976 13H9.49976C9.63236 13 9.75954 12.9473 9.85331 12.8536Z" fill="#202020"/>
<path d="M2.14978 4.15L0.149784 6.15C0.102342 6.19512 0.0645675 6.24941 0.0387558 6.30958C0.012944 6.36974 -0.000366211 6.43453 -0.000366211 6.5C-0.000366211 6.56547 0.012944 6.63026 0.0387558 6.69042C0.0645675 6.75059 0.102342 6.80488 0.149784 6.85C0.194901 6.89744 0.249193 6.93522 0.30936 6.96103C0.369527 6.98684 0.434314 7.00015 0.499784 7.00015C0.565254 7.00015 0.630041 6.98684 0.690208 6.96103C0.750375 6.93522 0.804667 6.89744 0.849784 6.85L1.99978 5.71V10.5C1.99978 10.6326 2.05246 10.7598 2.14623 10.8536C2.24 10.9473 2.36718 11 2.49978 11C2.63239 11 2.75957 10.9473 2.85334 10.8536C2.94711 10.7598 2.99978 10.6326 2.99978 10.5V5.71L4.14978 6.85C4.24293 6.94128 4.36833 6.99212 4.49875 6.99146C4.62916 6.9908 4.75405 6.9387 4.84627 6.84648C4.93848 6.75426 4.99058 6.62938 4.99124 6.49896C4.9919 6.36855 4.94107 6.24314 4.84978 6.15L2.84978 4.15C2.80467 4.10256 2.75038 4.06478 2.69021 4.03897C2.63004 4.01316 2.56525 3.99985 2.49978 3.99985C2.43431 3.99985 2.36953 4.01316 2.30936 4.03897C2.24919 4.06478 2.1949 4.10256 2.14978 4.15V4.15Z" fill="#006CBF"/>
</g>
<defs>
<clipPath id="clip0_7202_83813">
<rect width="16" height="16" fill="white"/>
</clipPath>
</defs>
</svg>
