<svg width="16" height="16" viewBox="0 0 16 16" fill="none" xmlns="http://www.w3.org/2000/svg">
<path d="M10.5 16C13.5376 16 16 13.5376 16 10.5C16 7.46243 13.5376 5 10.5 5C7.46243 5 5 7.46243 5 10.5C5 13.5376 7.46243 16 10.5 16Z" fill="white"/>
<path fill-rule="evenodd" clip-rule="evenodd" d="M15 10.5C15 12.9853 12.9853 15 10.5 15C8.01472 15 6 12.9853 6 10.5C6 8.01472 8.01472 6 10.5 6C12.9853 6 15 8.01472 15 10.5ZM12.8536 8.64645C13.0488 8.84171 13.0488 9.15829 12.8536 9.35355L9.85355 12.3536C9.65829 12.5488 9.34171 12.5488 9.14645 12.3536L8.14645 11.3536C7.95118 11.1583 7.95118 10.8417 8.14645 10.6464C8.34171 10.4512 8.65829 10.4512 8.85355 10.6464L9.5 11.2929L12.1464 8.64645C12.3417 8.45118 12.6583 8.45118 12.8536 8.64645Z" fill="#11910D"/>
</svg>
