<svg width="16" height="16" viewBox="0 0 16 16" fill="none" xmlns="http://www.w3.org/2000/svg">
<path d="M9 3.50003C8.99976 3.70106 8.95879 3.89997 8.87956 4.08473C8.80032 4.26949 8.68447 4.43628 8.539 4.57503L6.557 6.55703C6.42052 6.69929 6.25629 6.81202 6.07447 6.88822C5.89265 6.96442 5.69713 7.00248 5.5 7.00003C5.29407 7.00074 5.09028 6.95821 4.90183 6.87518C4.71337 6.79215 4.54445 6.67047 4.406 6.51803C4.14122 6.24584 3.99521 5.87974 4 5.50003C4.00001 5.3296 4.02945 5.16045 4.087 5.00003H1.5C1.10218 5.00003 0.720644 4.842 0.43934 4.56069C0.158035 4.27939 0 3.89786 0 3.50003C0 3.10221 0.158035 2.72068 0.43934 2.43937C0.720644 2.15807 1.10218 2.00003 1.5 2.00003H4.086C4.02965 1.83933 4.00059 1.67033 4 1.50003C4.00019 1.2989 4.04124 1.0999 4.12066 0.91511C4.20008 0.73032 4.31621 0.563589 4.462 0.425031C4.59836 0.289125 4.7603 0.181592 4.93846 0.108644C5.11663 0.0356958 5.30748 -0.00121965 5.5 3.07331e-05C5.70123 0.000551036 5.90028 0.0417452 6.08518 0.121138C6.27009 0.200531 6.43704 0.316484 6.576 0.462031L8.557 2.44303C8.69781 2.58061 8.80958 2.74505 8.88567 2.92661C8.96177 3.10818 9.00065 3.30317 9 3.50003Z" fill="white"/>
<path d="M7.85 3.85009L5.85 5.85009C5.80488 5.89753 5.75059 5.93531 5.69042 5.96112C5.63026 5.98693 5.56547 6.00024 5.5 6.00024C5.43453 6.00024 5.36974 5.98693 5.30958 5.96112C5.24941 5.93531 5.19512 5.89753 5.15 5.85009C5.10256 5.80497 5.06478 5.75068 5.03897 5.69051C5.01316 5.63035 4.99985 5.56556 4.99985 5.50009C4.99985 5.43462 5.01316 5.36983 5.03897 5.30967C5.06478 5.2495 5.10256 5.19521 5.15 5.15009L6.29 4.00009H1.5C1.36739 4.00009 1.24021 3.94741 1.14645 3.85364C1.05268 3.75987 1 3.6327 1 3.50009C1 3.36748 1.05268 3.2403 1.14645 3.14654C1.24021 3.05277 1.36739 3.00009 1.5 3.00009H6.29L5.15 1.85009C5.10256 1.80497 5.06478 1.75068 5.03897 1.69051C5.01316 1.63035 4.99985 1.56556 4.99985 1.50009C4.99985 1.43462 5.01316 1.36983 5.03897 1.30967C5.06478 1.2495 5.10256 1.19521 5.15 1.15009C5.19512 1.10265 5.24941 1.06487 5.30958 1.03906C5.36974 1.01325 5.43453 0.999939 5.5 0.999939C5.56547 0.999939 5.63026 1.01325 5.69042 1.03906C5.75059 1.06487 5.80488 1.10265 5.85 1.15009L7.85 3.15009C7.89744 3.19521 7.93522 3.2495 7.96103 3.30967C7.98684 3.36983 8.00015 3.43462 8.00015 3.50009C8.00015 3.56556 7.98684 3.63035 7.96103 3.69051C7.93522 3.75068 7.89744 3.80497 7.85 3.85009V3.85009Z" fill="#006CBF"/>
</svg>
