<svg width="16" height="16" viewBox="0 0 16 16" fill="none" xmlns="http://www.w3.org/2000/svg">
<path d="M10.5 16C13.5376 16 16 13.5376 16 10.5C16 7.46243 13.5376 5 10.5 5C7.46243 5 5 7.46243 5 10.5C5 13.5376 7.46243 16 10.5 16Z" fill="white"/>
<path fill-rule="evenodd" clip-rule="evenodd" d="M15 10.5C15 12.9853 12.9853 15 10.5 15C8.01471 15 6 12.9853 6 10.5C6 8.01472 8.01471 6 10.5 6C12.9853 6 15 8.01472 15 10.5ZM10.146 12.854L8.146 10.854C7.95099 10.659 7.95099 10.342 8.146 10.147C8.24402 10.05 8.37201 10.001 8.5 10.001C8.62799 10.001 8.75598 10.049 8.854 10.147L10 11.293V8.5C10 8.224 10.224 8 10.5 8C10.776 8 11 8.224 11 8.5V11.293L12.146 10.147C12.341 9.952 12.658 9.952 12.853 10.147C13.048 10.342 13.048 10.659 12.853 10.854L10.853 12.854C10.658 13.049 10.341 13.049 10.146 12.854Z" fill="#006CBF"/>
</svg>
