<svg width="16" height="16" viewBox="0 0 16 16" fill="none" xmlns="http://www.w3.org/2000/svg">
<path d="M10.5 16C13.5376 16 16 13.5376 16 10.5C16 7.46243 13.5376 5 10.5 5C7.46243 5 5 7.46243 5 10.5C5 13.5376 7.46243 16 10.5 16Z" fill="white"/>
<path d="M10.5 15C12.9853 15 15 12.9853 15 10.5C15 8.01472 12.9853 6 10.5 6C8.01472 6 6 8.01472 6 10.5C6 12.9853 8.01472 15 10.5 15Z" fill="#202020"/>
<path d="M8.14601 10.854L10.146 12.854C10.341 13.049 10.658 13.049 10.853 12.854L12.853 10.854C13.048 10.659 13.048 10.342 12.853 10.147C12.658 9.952 12.341 9.952 12.146 10.147L11 11.293V8.5C11 8.224 10.776 8 10.5 8C10.224 8 10 8.224 10 8.5V11.293L8.85401 10.147C8.75601 10.049 8.62801 10.001 8.50001 10.001C8.37201 10.001 8.24401 10.05 8.14601 10.147C7.95101 10.342 7.95101 10.659 8.14601 10.854Z" fill="white"/>
</svg>
