<svg width="16" height="16" viewBox="0 0 16 16" fill="none" xmlns="http://www.w3.org/2000/svg">
<path d="M8.54831 11.4263C9.00453 10.4699 9.10799 9.38296 8.84043 8.3576C8.57288 7.33225 7.95151 6.43446 7.08613 5.82287C6.22075 5.21127 5.16704 4.92523 4.11119 5.01528C3.05533 5.10534 2.06529 5.56569 1.31598 6.315C0.566664 7.06431 0.106313 8.05436 0.0162598 9.11021C-0.0737934 10.1661 0.212247 11.2198 0.823843 12.0852C1.43544 12.9505 2.33322 13.5719 3.35858 13.8395C4.38393 14.107 5.47086 14.0035 6.42731 13.5473L8.42731 15.5473C8.70857 15.8287 9.0901 15.9869 9.48796 15.987C9.88582 15.9871 10.2674 15.8291 10.5488 15.5478C10.8302 15.2666 10.9883 14.885 10.9884 14.4872C10.9885 14.0893 10.8306 13.7077 10.5493 13.4263L8.54831 11.4263Z" fill="white"/>
<path d="M9.84131 14.1333L7.28031 11.5733C7.73659 10.973 7.98479 10.2404 7.98731 9.48633C7.98731 8.7941 7.78203 8.11741 7.39745 7.54183C7.01287 6.96626 6.46624 6.51766 5.8267 6.25275C5.18716 5.98784 4.48342 5.91853 3.80449 6.05358C3.12556 6.18863 2.50192 6.52197 2.01243 7.01146C1.52295 7.50094 1.18961 8.12458 1.05456 8.80351C0.91951 9.48245 0.988821 10.1862 1.25373 10.8257C1.51863 11.4653 1.96724 12.0119 2.54281 12.3965C3.11838 12.7811 3.79507 12.9863 4.48731 12.9863C5.24088 12.9839 5.97314 12.7361 6.57331 12.2803L9.13331 14.8403C9.22706 14.9342 9.35427 14.987 9.48695 14.9871C9.61963 14.9872 9.74692 14.9346 9.84081 14.8408C9.93469 14.7471 9.98749 14.6199 9.98759 14.4872C9.98768 14.3545 9.93506 14.2272 9.84131 14.1333V14.1333ZM1.98731 9.48633C1.98731 8.99188 2.13393 8.50853 2.40863 8.0974C2.68334 7.68628 3.07378 7.36585 3.5306 7.17663C3.98741 6.98741 4.49008 6.9379 4.97503 7.03437C5.45998 7.13083 5.90544 7.36893 6.25507 7.71856C6.6047 8.06819 6.84281 8.51365 6.93927 8.9986C7.03573 9.48356 6.98622 9.98622 6.79701 10.443C6.60779 10.8999 6.28735 11.2903 5.87623 11.565C5.46511 11.8397 4.98176 11.9863 4.48731 11.9863C3.82426 11.9863 3.18838 11.7229 2.71954 11.2541C2.2507 10.7853 1.98731 10.1494 1.98731 9.48633V9.48633Z" fill="#006CBF"/>
</svg>
