<svg width="16" height="16" viewBox="0 0 16 16" fill="none" xmlns="http://www.w3.org/2000/svg">
<g clip-path="url(#clip0_7202_83925)">
<path d="M4.51996 14.5C4.51996 14.899 4.67496 15.276 4.95896 15.561C5.24196 15.844 5.61896 16 6.01996 16C6.42096 16 6.79596 15.845 7.08096 15.561L7.84696 14.796C8.09796 14.863 8.35796 14.898 8.61996 14.898C8.74196 14.898 8.86396 14.89 8.98596 14.876C9.64396 14.795 10.266 14.493 10.737 14.023L11.338 13.422C11.711 13.048 11.917 12.551 11.917 12.023C11.917 11.985 11.916 11.947 11.914 11.909C11.953 11.911 11.992 11.913 12.031 11.913C12.292 11.913 12.547 11.862 12.79 11.762C13.031 11.662 13.247 11.517 13.431 11.333L14.033 10.731C14.501 10.26 14.804 9.639 14.885 8.981C14.932 8.598 14.904 8.21 14.804 7.839L15.577 7.064C15.853 6.779 16.003 6.405 16 6.009C15.997 5.613 15.841 5.24 15.561 4.96C15.281 4.68 14.908 4.523 14.512 4.521C14.512 4.521 13.741 4.67 13.446 4.954L12.681 5.72C12.43 5.653 12.169 5.618 11.907 5.618C11.785 5.618 11.663 5.626 11.541 5.64C10.883 5.721 10.261 6.023 9.78996 6.493L9.18896 7.094C8.81496 7.469 8.60996 7.966 8.60996 8.493C8.60996 8.531 8.61096 8.569 8.61296 8.606C8.57396 8.604 8.53596 8.602 8.49696 8.602C7.96896 8.602 7.47196 8.808 7.09696 9.182L6.49496 9.784C6.02696 10.255 5.72396 10.876 5.64296 11.534C5.59596 11.917 5.62396 12.305 5.72396 12.675L4.96396 13.436C4.67896 13.719 4.52196 14.097 4.52196 14.498L4.51996 14.5Z" fill="white"/>
<path d="M5.51997 14.5C5.51997 14.367 5.57297 14.24 5.66697 14.146L6.84897 12.963C6.86597 12.95 6.88297 12.938 6.90197 12.928C6.67397 12.546 6.57997 12.099 6.63397 11.658C6.68797 11.217 6.88797 10.806 7.20197 10.491L7.80197 9.89097C7.98597 9.70697 8.23597 9.60397 8.49597 9.60397C8.75597 9.60397 9.00497 9.70697 9.18897 9.89097L10.631 11.33C10.815 11.514 10.918 11.763 10.918 12.023C10.918 12.283 10.815 12.532 10.631 12.716L10.031 13.316C9.71597 13.63 9.30497 13.83 8.86397 13.884C8.42297 13.938 7.97697 13.844 7.59497 13.616C7.58397 13.634 7.57296 13.652 7.55997 13.669L6.37397 14.855C6.27997 14.948 6.15297 15.001 6.01997 15.001C5.88697 15.001 5.75997 14.948 5.66597 14.854C5.57197 14.76 5.51997 14.633 5.51997 14.5Z" fill="#159195"/>
<path d="M11.6569 10.837C11.5379 10.788 11.4299 10.716 11.3389 10.625L9.89592 9.18798C9.71192 9.00398 9.60892 8.75498 9.60892 8.49398C9.60892 8.23298 9.71192 7.98398 9.89592 7.79998L10.4959 7.19998C10.8109 6.88598 11.2219 6.68598 11.6629 6.63198C12.1039 6.57798 12.5499 6.67198 12.9319 6.89998C12.9429 6.88198 12.9549 6.86398 12.9679 6.84698L14.1529 5.66098C14.2479 5.56998 14.3739 5.51998 14.5049 5.52098C14.6359 5.52198 14.7609 5.57398 14.8539 5.66698C14.9459 5.75898 14.9989 5.88498 14.9999 6.01598C15.0009 6.14698 14.9509 6.27398 14.8599 6.36798L13.6779 7.55298C13.6609 7.56598 13.6429 7.57798 13.6249 7.58798C13.8529 7.96998 13.9469 8.41698 13.8929 8.85798C13.8389 9.29898 13.6389 9.70998 13.3249 10.025L12.7249 10.625C12.6339 10.716 12.5259 10.788 12.4069 10.837C12.2879 10.887 12.1609 10.912 12.0319 10.912C11.9029 10.912 11.7759 10.886 11.6569 10.837Z" fill="#159195"/>
</g>
<defs>
<clipPath id="clip0_7202_83925">
<rect width="16" height="16" fill="white"/>
</clipPath>
</defs>
</svg>
