<svg width="16" height="16" viewBox="0 0 16 16" fill="none" xmlns="http://www.w3.org/2000/svg">
<path d="M5.749 15.9998C5.52534 15.9991 5.30587 15.939 5.113 15.8258L4 15.1628L2.889 15.8238C2.69926 15.9366 2.48301 15.9972 2.26225 15.9994C2.0415 16.0015 1.8241 15.9452 1.63218 15.8361C1.44027 15.727 1.28067 15.569 1.16963 15.3782C1.05859 15.1873 1.00006 14.9705 1 14.7498V11.6428C0.490834 11.0654 0.159074 10.3534 0.0445313 9.5922C-0.0700111 8.83098 0.0375303 8.05287 0.354251 7.35126C0.670972 6.64964 1.18342 6.05432 1.8301 5.63673C2.47677 5.21913 3.23021 4.99701 4 4.99701C4.76979 4.99701 5.52323 5.21913 6.16991 5.63673C6.81659 6.05432 7.32903 6.64964 7.64575 7.35126C7.96247 8.05287 8.07002 8.83098 7.95547 9.5922C7.84093 10.3534 7.50917 11.0654 7 11.6428V14.7498C6.99947 15.0813 6.86747 15.3991 6.63295 15.6334C6.39843 15.8677 6.08053 15.9995 5.749 15.9998Z" fill="white"/>
<path d="M7 8.99655C7 10.6533 5.65685 11.9964 4 11.9964C2.34315 11.9964 1 10.6533 1 8.99655C1 7.33978 2.34315 5.9967 4 5.9967C5.65685 5.9967 7 7.33978 7 8.99655ZM6 12.4612C5.41165 12.8016 4.72857 12.9963 4 12.9963C3.27143 12.9963 2.58835 12.8016 2 12.4612V14.7466C2 14.9405 2.21119 15.0606 2.37783 14.9614L4 13.9963L5.62217 14.9614C5.78881 15.0606 6 14.9405 6 14.7466V12.4612Z" fill="#202020"/>
<path d="M4 12.9963C4.72857 12.9963 5.41165 12.8016 6 12.4612V14.7466C6 14.9405 5.78881 15.0606 5.62217 14.9614L4 13.9963L2.37783 14.9614C2.21119 15.0606 2 14.9405 2 14.7466V12.4612C2.58835 12.8016 3.27143 12.9963 4 12.9963Z" fill="#202020"/>
</svg>
