<svg width="16" height="16" viewBox="0 0 16 16" fill="none" xmlns="http://www.w3.org/2000/svg">
<g clip-path="url(#clip0_7202_83998)">
<path d="M11.5 16C11.346 16 11.195 15.974 11.05 15.921C10.252 15.636 9.556 15.247 8.984 14.766C8.559 14.409 8.196 13.995 7.905 13.537C7.346 12.657 7.043 11.601 7.004 10.397L7 10.143V7.87502C7 7.11702 7.605 6.50002 8.35 6.50002C9.138 6.50002 9.848 6.14902 10.522 5.42702C10.775 5.15502 11.132 4.99902 11.5 4.99902C11.868 4.99902 12.226 5.15502 12.479 5.42702C12.797 5.76802 13.129 6.03102 13.465 6.20702C13.698 6.33002 13.934 6.41202 14.183 6.45702C14.335 6.48502 14.491 6.49902 14.65 6.49902C15.296 6.49902 15.854 6.96702 15.976 7.61302L15.996 7.77802L16.001 10.125C16.001 12.97 14.6 14.975 11.948 15.921C11.804 15.972 11.654 15.999 11.501 15.999L11.5 16Z" fill="white"/>
<path fill-rule="evenodd" clip-rule="evenodd" d="M13.0011 7.09352C13.3228 7.26198 13.6559 7.37777 14.0011 7.44146C14.2128 7.48053 14.4291 7.5 14.65 7.5C14.8191 7.5 14.9603 7.62854 14.9929 7.79942L15 7.875V10.126C15 12.5397 13.8511 14.1806 11.6107 14.9808C11.5388 15.0064 11.4612 15.0064 11.3893 14.9808C10.6975 14.7337 10.1098 14.4065 9.62789 14.0011C9.27976 13.7083 8.98681 13.3747 8.74968 13.0011C8.28729 12.2726 8.0371 11.392 8.00382 10.3647L8 10.126V7.875C8 7.66789 8.1567 7.5 8.35 7.5C9.42046 7.5 10.3829 7.04177 11.2531 6.10978C11.3899 5.96329 11.6116 5.96342 11.7482 6.11008C12.1457 6.53667 12.5628 6.86399 13.0011 7.09352ZM9.89645 8.89645C10.0917 8.70118 10.4083 8.70118 10.6036 8.89645L11.5 9.79289L12.3964 8.89645C12.5917 8.70118 12.9083 8.70118 13.1036 8.89645C13.2988 9.09171 13.2988 9.40829 13.1036 9.60355L12.2071 10.5L13.1036 11.3964C13.2988 11.5917 13.2988 11.9083 13.1036 12.1036C12.9083 12.2988 12.5917 12.2988 12.3964 12.1036L11.5 11.2071L10.6036 12.1036C10.4083 12.2988 10.0917 12.2988 9.89645 12.1036C9.70118 11.9083 9.70118 11.5917 9.89645 11.3964L10.7929 10.5L9.89645 9.60355C9.70118 9.40829 9.70118 9.09171 9.89645 8.89645Z" fill="#C50F1F"/>
</g>
<defs>
<clipPath id="clip0_7202_83998">
<rect width="16" height="16" fill="white"/>
</clipPath>
</defs>
</svg>
