<svg width="16" height="16" viewBox="0 0 16 16" fill="none" xmlns="http://www.w3.org/2000/svg">
<path d="M10.5 16C13.5376 16 16 13.5376 16 10.5C16 7.46243 13.5376 5 10.5 5C7.46243 5 5 7.46243 5 10.5C5 13.5376 7.46243 16 10.5 16Z" fill="white"/>
<path fill-rule="evenodd" clip-rule="evenodd" d="M15 10.5C15 12.9853 12.9853 15 10.5 15C8.01472 15 6 12.9853 6 10.5C6 8.01472 8.01472 6 10.5 6C12.9853 6 15 8.01472 15 10.5ZM10.4626 11.3084C10.4374 11.2476 10.4005 11.1925 10.3539 11.146L8.8539 9.64602C8.76001 9.55213 8.63268 9.49939 8.4999 9.49939C8.36712 9.49939 8.23979 9.55213 8.1459 9.64602C8.05201 9.73991 7.99927 9.86725 7.99927 10C7.99927 10.1328 8.05201 10.2601 8.1459 10.354L9.2929 11.5L8.1459 12.646C8.05201 12.7399 7.99927 12.8672 7.99927 13C7.99927 13.1328 8.05201 13.2601 8.1459 13.354C8.23979 13.4479 8.36712 13.5007 8.4999 13.5007C8.63268 13.5007 8.76001 13.4479 8.8539 13.354L10.3539 11.854C10.4005 11.8076 10.4374 11.7524 10.4626 11.6917C10.4878 11.6309 10.5008 11.5658 10.5008 11.5C10.5008 11.4343 10.4878 11.3691 10.4626 11.3084ZM12.8539 8.35402L11.7069 9.50002L12.8539 10.646C12.9478 10.7399 13.0005 10.8672 13.0005 11C13.0005 11.1328 12.9478 11.2601 12.8539 11.354C12.76 11.4479 12.6327 11.5007 12.4999 11.5007C12.3671 11.5007 12.2398 11.4479 12.1459 11.354L10.6459 9.85402C10.5993 9.80758 10.5624 9.7524 10.5372 9.69165C10.512 9.63091 10.499 9.56579 10.499 9.50002C10.499 9.43425 10.512 9.36913 10.5372 9.30839C10.5624 9.24764 10.5993 9.19247 10.6459 9.14602L12.1459 7.64602C12.2398 7.55213 12.3671 7.49939 12.4999 7.49939C12.6327 7.49939 12.76 7.55213 12.8539 7.64602C12.9478 7.73991 13.0005 7.86725 13.0005 8.00002C13.0005 8.1328 12.9478 8.26013 12.8539 8.35402Z" fill="#006CBF"/>
</svg>
