<svg width="16" height="16" viewBox="0 0 16 16" fill="none" xmlns="http://www.w3.org/2000/svg">
<path d="M2.44852 16C2.69343 15.9987 2.93407 15.9358 3.14826 15.817L4.00494 15.351L4.85762 15.818C5.1544 15.9819 5.49894 16.0374 5.83215 15.975C6.16537 15.9126 6.4665 15.7362 6.68393 15.476C6.82545 15.3084 6.92879 15.1121 6.9868 14.9005C7.0448 14.689 7.05606 14.4673 7.01981 14.251L6.84787 13.2L7.5706 12.465C7.76621 12.2664 7.90287 12.0173 7.96535 11.7456C8.02783 11.4739 8.01367 11.1901 7.92447 10.926C7.83943 10.666 7.68381 10.4348 7.47497 10.2582C7.26614 10.0816 7.01233 9.96658 6.74191 9.92599L5.77727 9.77899L5.33944 8.85199C5.22146 8.59747 5.03319 8.38202 4.79683 8.23103C4.56047 8.08004 4.28588 7.99982 4.00544 7.99982C3.725 7.99982 3.4504 8.08004 3.21404 8.23103C2.97768 8.38202 2.78941 8.59747 2.67144 8.85199L2.2326 9.77999L1.26796 9.92699C0.997543 9.96758 0.743734 10.0826 0.5349 10.2592C0.326067 10.4358 0.170439 10.667 0.0854068 10.927C-0.00387701 11.1914 -0.0179755 11.4754 0.0446859 11.7473C0.107347 12.0192 0.244304 12.2684 0.440273 12.467L1.162 13.201L0.990067 14.249C0.953893 14.4652 0.965199 14.6866 1.0232 14.898C1.0812 15.1094 1.18451 15.3056 1.32594 15.473C1.46344 15.6373 1.63513 15.7695 1.82903 15.8606C2.02292 15.9516 2.23434 15.9992 2.44852 16V16Z" fill="white"/>
<path d="M4.43476 9.27904C4.39766 9.19602 4.33733 9.12552 4.26106 9.07604C4.18478 9.02657 4.09582 9.00024 4.00492 9.00024C3.91401 9.00024 3.82505 9.02657 3.74878 9.07604C3.6725 9.12552 3.61217 9.19602 3.57508 9.27904L2.90833 10.688L1.41689 10.914C1.3267 10.9313 1.24288 10.9727 1.17439 11.0338C1.10589 11.095 1.05528 11.1736 1.02798 11.2613C1.00068 11.349 0.997697 11.4424 1.01936 11.5317C1.04103 11.621 1.08652 11.7026 1.15099 11.768L2.23058 12.868L1.97568 14.417C1.95686 14.507 1.96403 14.6005 1.99636 14.6865C2.02869 14.7725 2.08484 14.8476 2.15824 14.9029C2.23164 14.9581 2.31926 14.9914 2.41084 14.9987C2.50243 15.006 2.5942 14.987 2.67542 14.944L4.00492 14.21L5.33842 14.941C5.41964 14.984 5.5114 15.003 5.60299 14.9957C5.69458 14.9884 5.78219 14.9551 5.85559 14.8999C5.92899 14.8446 5.98514 14.7695 6.01747 14.6835C6.0498 14.5975 6.05698 14.504 6.03816 14.414L5.78325 12.865L6.86285 11.765C6.92731 11.6996 6.97281 11.618 6.99447 11.5287C7.01614 11.4394 7.01316 11.346 6.98586 11.2583C6.95855 11.1706 6.90795 11.092 6.83945 11.0308C6.77095 10.9697 6.68713 10.9283 6.59695 10.911L5.10551 10.685L4.43476 9.27904Z" fill="#202020"/>
</svg>
