<svg width="16" height="16" viewBox="0 0 16 16" fill="none" xmlns="http://www.w3.org/2000/svg">
<path d="M10.5 16C13.5376 16 16 13.5376 16 10.5C16 7.46243 13.5376 5 10.5 5C7.46243 5 5 7.46243 5 10.5C5 13.5376 7.46243 16 10.5 16Z" fill="white"/>
<path fill-rule="evenodd" clip-rule="evenodd" d="M7.99994 6.75839C8.73996 6.26392 9.60999 6 10.5 6C11.6935 6 12.8381 6.47411 13.682 7.31802C14.5259 8.16193 15 9.30653 15 10.5C15 11.39 14.7361 12.26 14.2416 13.0001C13.7471 13.7401 13.0443 14.3169 12.2221 14.6575C11.3998 14.9981 10.495 15.0872 9.6221 14.9135C8.74918 14.7399 7.94736 14.3113 7.31802 13.682C6.68868 13.0526 6.2601 12.2508 6.08647 11.3779C5.91283 10.505 6.00195 9.60019 6.34254 8.77792C6.68314 7.95566 7.25991 7.25285 7.99994 6.75839ZM12.5 11.5C12.5 11.7652 12.3946 12.0196 12.2071 12.2071C12.0196 12.3946 11.7652 12.5 11.5 12.5H9.5C9.23478 12.5 8.98043 12.3946 8.79289 12.2071C8.60536 12.0196 8.5 11.7652 8.5 11.5V9.5C8.5 9.23478 8.60536 8.98043 8.79289 8.79289C8.98043 8.60536 9.23478 8.5 9.5 8.5H11.5C11.7652 8.5 12.0196 8.60536 12.2071 8.79289C12.3946 8.98043 12.5 9.23478 12.5 9.5V11.5Z" fill="#C50F1F"/>
</svg>
