<svg width="16" height="16" viewBox="0 0 16 16" fill="none" xmlns="http://www.w3.org/2000/svg">
<g clip-path="url(#clip0_7959_780)">
<path d="M6.99951 16.0079C6.66079 16.0075 6.32772 15.9212 6.03151 15.7569C5.5793 15.5066 5.24154 15.0909 5.08904 14.5971C4.93654 14.1033 4.98115 13.5695 5.21351 13.1079L8.71351 6.10787C8.87938 5.77505 9.13476 5.49507 9.45096 5.29937C9.76715 5.10367 10.1317 5 10.5035 5C10.8754 5 11.2399 5.10367 11.5561 5.29937C11.8723 5.49507 12.1276 5.77505 12.2935 6.10787L15.7935 13.1079C15.9472 13.4129 16.0203 13.7523 16.0056 14.0936C15.991 14.4349 15.8892 14.7667 15.7099 15.0575C15.5306 15.3483 15.2798 15.5883 14.9815 15.7547C14.6831 15.921 14.3471 16.0082 14.0055 16.0079H6.99951Z" fill="white"/>
<path fill-rule="evenodd" clip-rule="evenodd" d="M11.3931 6.55201L14.8931 13.552C14.9694 13.7044 15.0056 13.8738 14.9981 14.044C14.9906 14.2143 14.9397 14.3799 14.8502 14.5249C14.7607 14.67 14.6357 14.7898 14.4869 14.8729C14.3381 14.9561 14.1705 14.9998 14.0001 15H7.00006C6.8292 15.0007 6.66101 14.9576 6.51154 14.8748C6.36207 14.792 6.23631 14.6723 6.14625 14.5271C6.0562 14.3818 6.00486 14.216 5.99712 14.0453C5.98938 13.8746 6.02551 13.7048 6.10206 13.552L9.60206 6.55201C9.6849 6.38534 9.8126 6.24509 9.97081 6.14705C10.129 6.04901 10.3114 5.99707 10.4976 5.99707C10.6837 5.99707 10.8661 6.04901 11.0243 6.14705C11.1825 6.24509 11.3102 6.38534 11.3931 6.55201ZM11 11.495V8.495C11 8.36239 10.9473 8.23521 10.8536 8.14144C10.7598 8.04767 10.6326 7.995 10.5 7.995C10.3674 7.995 10.2402 8.04767 10.1464 8.14144C10.0527 8.23521 10 8.36239 10 8.495V11.495C10 11.6276 10.0527 11.7548 10.1464 11.8485C10.2402 11.9423 10.3674 11.995 10.5 11.995C10.6326 11.995 10.7598 11.9423 10.8536 11.8485C10.9473 11.7548 11 11.6276 11 11.495ZM10.2222 13.0843C10.3044 13.0293 10.4011 13 10.5 13C10.6326 13 10.7598 13.0527 10.8536 13.1464C10.9473 13.2402 11 13.3674 11 13.5C11 13.5989 10.9707 13.6956 10.9157 13.7778C10.8608 13.86 10.7827 13.9241 10.6913 13.9619C10.6 13.9998 10.4994 14.0097 10.4025 13.9904C10.3055 13.9711 10.2164 13.9235 10.1464 13.8535C10.0765 13.7836 10.0289 13.6945 10.0096 13.5975C9.99031 13.5006 10.0002 13.4 10.0381 13.3087C10.0759 13.2173 10.14 13.1392 10.2222 13.0843Z" fill="#202020"/>
</g>
<defs>
<clipPath id="clip0_7959_780">
<rect width="16" height="16" fill="white"/>
</clipPath>
</defs>
</svg>
