<svg width="16" height="16" viewBox="0 0 16 16" fill="none" xmlns="http://www.w3.org/2000/svg">
<path d="M10.5 16C13.5376 16 16 13.5376 16 10.5C16 7.46243 13.5376 5 10.5 5C7.46243 5 5 7.46243 5 10.5C5 13.5376 7.46243 16 10.5 16Z" fill="white"/>
<path fill-rule="evenodd" clip-rule="evenodd" d="M13.0001 14.2416C12.26 14.7361 11.39 15 10.5 15C9.30653 15 8.16193 14.5259 7.31802 13.682C6.47411 12.8381 6 11.6935 6 10.5C6 9.60999 6.26392 8.73996 6.75839 7.99994C7.25285 7.25991 7.95566 6.68314 8.77792 6.34254C9.60019 6.00195 10.505 5.91283 11.3779 6.08647C12.2508 6.2601 13.0526 6.68868 13.682 7.31802C14.3113 7.94736 14.7399 8.74918 14.9135 9.6221C15.0872 10.495 14.9981 11.3998 14.6575 12.2221C14.3169 13.0443 13.7401 13.7471 13.0001 14.2416ZM9.5 8.5V12.5C9.5 12.6326 9.44732 12.7598 9.35355 12.8536C9.25979 12.9473 9.13261 13 9 13C8.86739 13 8.74021 12.9473 8.64645 12.8536C8.55268 12.7598 8.5 12.6326 8.5 12.5V8.5C8.5 8.36739 8.55268 8.24021 8.64645 8.14645C8.74021 8.05268 8.86739 8 9 8C9.13261 8 9.25979 8.05268 9.35355 8.14645C9.44732 8.24021 9.5 8.36739 9.5 8.5ZM12.5 8.5V12.5C12.5 12.6326 12.4473 12.7598 12.3536 12.8536C12.2598 12.9473 12.1326 13 12 13C11.8674 13 11.7402 12.9473 11.6464 12.8536C11.5527 12.7598 11.5 12.6326 11.5 12.5V8.5C11.5 8.36739 11.5527 8.24021 11.6464 8.14645C11.7402 8.05268 11.8674 8 12 8C12.1326 8 12.2598 8.05268 12.3536 8.14645C12.4473 8.24021 12.5 8.36739 12.5 8.5Z" fill="#006CBF"/>
</svg>
