<svg width="16" height="16" viewBox="0 0 16 16" fill="none" xmlns="http://www.w3.org/2000/svg">
<g clip-path="url(#clip0_7202_83861)">
<path d="M10.4999 16C10.3029 16.0004 10.1077 15.9619 9.92559 15.8865C9.74349 15.8112 9.57811 15.7005 9.43895 15.561L5.43895 11.561C5.29956 11.4217 5.18898 11.2563 5.11354 11.0743C5.0381 10.8922 4.99927 10.6971 4.99927 10.5C4.99927 10.3029 5.0381 10.1078 5.11354 9.92576C5.18898 9.74371 5.29956 9.57831 5.43895 9.43901L9.43895 5.43901C9.57825 5.29962 9.74365 5.18904 9.9257 5.1136C10.1078 5.03816 10.3029 4.99933 10.4999 4.99933C10.697 4.99933 10.8921 5.03816 11.0742 5.1136C11.2562 5.18904 11.4216 5.29962 11.5609 5.43901L15.5609 9.43901C15.7003 9.57831 15.8109 9.74371 15.8864 9.92576C15.9618 10.1078 16.0006 10.3029 16.0006 10.5C16.0006 10.6971 15.9618 10.8922 15.8864 11.0743C15.8109 11.2563 15.7003 11.4217 15.5609 11.561L11.5609 15.561C11.4218 15.7005 11.2564 15.8112 11.0743 15.8865C10.8922 15.9619 10.697 16.0004 10.4999 16V16Z" fill="white"/>
<path fill-rule="evenodd" clip-rule="evenodd" d="M10.854 14.854L14.854 10.854C14.9006 10.8075 14.9375 10.7524 14.9628 10.6916C14.988 10.6309 15.0009 10.5657 15.0009 10.5C15.0009 10.4342 14.988 10.3691 14.9628 10.3083C14.9375 10.2476 14.9006 10.1924 14.854 10.146L10.854 6.14598C10.8076 6.09941 10.7524 6.06247 10.6917 6.03727C10.6309 6.01206 10.5658 5.99908 10.5 5.99908C10.4343 5.99908 10.3692 6.01206 10.3084 6.03727C10.2477 6.06247 10.1925 6.09941 10.146 6.14598L6.14604 10.146C6.09948 10.1924 6.06253 10.2476 6.03733 10.3083C6.01212 10.3691 5.99915 10.4342 5.99915 10.5C5.99915 10.5657 6.01212 10.6309 6.03733 10.6916C6.06253 10.7524 6.09948 10.8075 6.14604 10.854L10.146 14.854C10.1925 14.9005 10.2477 14.9375 10.3084 14.9627C10.3692 14.9879 10.4343 15.0009 10.5 15.0009C10.5658 15.0009 10.6309 14.9879 10.6917 14.9627C10.7524 14.9375 10.8076 14.9005 10.854 14.854ZM10.8536 10.8536C10.9473 10.7598 11 10.6326 11 10.5V8.5C11 8.36739 10.9473 8.24021 10.8536 8.14645C10.7598 8.05268 10.6326 8 10.5 8C10.3674 8 10.2402 8.05268 10.1464 8.14645C10.0527 8.24021 10 8.36739 10 8.5V10.5C10 10.6326 10.0527 10.7598 10.1464 10.8536C10.2402 10.9473 10.3674 11 10.5 11C10.6326 11 10.7598 10.9473 10.8536 10.8536ZM11.125 12.5C11.125 12.8452 10.8452 13.125 10.5 13.125C10.1548 13.125 9.875 12.8452 9.875 12.5C9.875 12.1548 10.1548 11.875 10.5 11.875C10.8452 11.875 11.125 12.1548 11.125 12.5Z" fill="#006CBF"/>
</g>
<defs>
<clipPath id="clip0_7202_83861">
<rect width="16" height="16" fill="white"/>
</clipPath>
</defs>
</svg>
