<svg width="16" height="16" viewBox="0 0 16 16" fill="none" xmlns="http://www.w3.org/2000/svg">
<path d="M13.5 3C13.776 3 14 3.224 14 3.5V10.293L15.146 9.147C15.341 8.952 15.658 8.952 15.853 9.147C16.048 9.342 16.048 9.659 15.853 9.854L13.853 11.854C13.658 12.049 13.341 12.049 13.146 11.854L11.146 9.854C10.951 9.659 10.951 9.342 11.146 9.147C11.341 8.952 11.658 8.952 11.853 9.147L12.999 10.293V3.5C12.999 3.224 13.223 3 13.499 3H13.5Z" fill="#202020"/>
<path d="M8 7.5C8 8.88071 6.88071 10 5.5 10C4.11929 10 3 8.88071 3 7.5C3 6.11929 4.11929 5 5.5 5C6.88071 5 8 6.11929 8 7.5Z" fill="#3487C7"/>
<path fill-rule="evenodd" clip-rule="evenodd" d="M2.5 3H8.5C9.328 3 10 3.672 10 4.5V10.5C10 11.328 9.328 12 8.5 12H2.5C1.672 12 1 11.328 1 10.5V4.5C1 3.672 1.672 3 2.5 3ZM2 7.5C2 9.43 3.57 11 5.5 11C7.43 11 9 9.43 9 7.5C9 5.57 7.43 4 5.5 4C3.57 4 2 5.57 2 7.5Z" fill="#3487C7"/>
</svg>
