<svg width="16" height="16" viewBox="0 0 16 16" fill="none" xmlns="http://www.w3.org/2000/svg">
<g clip-path="url(#clip0_7202_83885)">
<path d="M4.50003 16C4.69241 16.0006 4.88293 15.9622 5.06003 15.887C5.23164 15.8162 5.38736 15.7119 5.51803 15.58L8.13903 13C8.42329 12.7187 8.64629 12.3816 8.79403 12.01C8.94154 11.6394 9.01102 11.2424 8.99812 10.8437C8.98521 10.445 8.8902 10.0533 8.71903 9.69301C8.54642 9.3325 8.30172 9.01121 8.00003 8.74901C7.70024 8.48556 7.3502 8.28554 6.97103 8.16101C6.66544 8.06036 6.34576 8.00905 6.02403 8.00901C5.94903 8.00901 5.87403 8.00901 5.80003 8.01801C5.40271 8.04742 5.0152 8.15552 4.66003 8.33602C4.60703 8.36302 4.55503 8.39201 4.50403 8.42201C4.12769 8.19867 3.70722 8.05998 3.27186 8.0156C2.83649 7.97121 2.39669 8.0222 1.98303 8.16501C1.40582 8.3626 0.904109 8.73435 0.547026 9.22901C0.140345 9.79209 -0.0507323 10.4824 0.00854397 11.1745C0.0678203 11.8665 0.373513 12.5143 0.870026 13L3.49003 15.585C3.62439 15.7173 3.78339 15.8219 3.95803 15.893C4.12992 15.9639 4.31409 16.0003 4.50003 16V16Z" fill="white"/>
<path d="M1.00005 10.93C1.00016 11.1828 1.05073 11.4331 1.14877 11.6661C1.24682 11.8991 1.39039 12.1102 1.57105 12.287L4.19305 14.873C4.23381 14.9133 4.28205 14.9453 4.33505 14.967C4.38746 14.9884 4.44346 14.9996 4.50005 15C4.55768 15.0002 4.61477 14.989 4.66805 14.967C4.72136 14.9453 4.76993 14.9134 4.81105 14.873L7.43605 12.287C7.6224 12.1023 7.76847 11.881 7.86505 11.637C7.96252 11.3952 8.0085 11.1357 8.00005 10.875C7.99112 10.6141 7.92848 10.3577 7.81605 10.122C7.70308 9.88451 7.54241 9.67278 7.34405 9.50004C7.14505 9.32579 6.91315 9.19318 6.66205 9.11004C6.40955 9.02658 6.14303 8.99394 5.87785 9.01402C5.61267 9.0341 5.3541 9.1065 5.11705 9.22704C4.88188 9.34668 4.67336 9.51268 4.50405 9.71504C4.24476 9.40299 3.89557 9.17846 3.50405 9.07204C3.11183 8.96311 2.69576 8.97601 2.31105 9.10904C1.92875 9.24052 1.59631 9.48671 1.35905 9.81404C1.12471 10.1381 0.999037 10.5281 1.00005 10.928V10.93Z" fill="#202020"/>
</g>
<defs>
<clipPath id="clip0_7202_83885">
<rect width="16" height="16" fill="white"/>
</clipPath>
</defs>
</svg>
