<svg width="16" height="16" viewBox="0 0 16 16" fill="none" xmlns="http://www.w3.org/2000/svg">
<path fill-rule="evenodd" clip-rule="evenodd" d="M3.5 2C2.11929 2 1 3.11929 1 4.5V7.12545L3.156 6.20102C3.425 6.08602 3.708 6.02802 4 6.02802C4.292 6.02802 4.575 6.08602 4.844 6.20102L6.29406 6.82225C6.42257 6.75342 6.54148 6.66562 6.64645 6.56066L8.20711 5H12.5C13.3284 5 14 5.67157 14 6.5V11.5C14 12.3284 13.3284 13 12.5 13H9V13.603C9 13.7371 8.98762 13.8699 8.96324 14H12.5C13.8807 14 15 12.8807 15 11.5V6.5C15 5.11929 13.8807 4 12.5 4H8.20711L6.64645 2.43934C6.36514 2.15804 5.98361 2 5.58579 2H3.5ZM2 6V4.5C2 3.67157 2.67157 3 3.5 3H5.58579C5.71839 3 5.84557 3.05268 5.93934 3.14645L7.29289 4.5L5.93934 5.85355C5.84557 5.94732 5.71839 6 5.58579 6H2Z" fill="#B27C00"/>
<path d="M7.811 8.76703C7.688 8.58003 7.513 8.43403 7.307 8.34603L4.45 7.12203C4.308 7.06103 4.155 7.03003 4 7.03003C3.845 7.03003 3.692 7.06103 3.55 7.12203L0.693 8.34603C0.487 8.43403 0.312 8.58103 0.189 8.76703C0.066 8.95403 0 9.17203 0 9.39603V13.604C0 13.828 0.066 14.046 0.189 14.233C0.312 14.42 0.487 14.566 0.693 14.654L3.55 15.878C3.692 15.939 3.845 15.97 4 15.97C4.155 15.97 4.308 15.939 4.45 15.878L7.307 14.654C7.513 14.566 7.688 14.419 7.811 14.233C7.934 14.046 8 13.828 8 13.604V9.39603C8 9.17203 7.934 8.95403 7.811 8.76703ZM2.447 11.974C2.359 12.149 2.182 12.25 2 12.25C1.925 12.25 1.849 12.233 1.776 12.197L1.276 11.947C1.029 11.823 0.929 11.523 1.052 11.276C1.176 11.029 1.477 10.93 1.723 11.052L2.223 11.302C2.47 11.426 2.57 11.726 2.447 11.973V11.974ZM6.723 9.94803L4.499 11.06V14.501C4.499 14.777 4.275 15.001 3.999 15.001C3.723 15.001 3.499 14.777 3.499 14.501V11.06L1.275 9.94803C1.028 9.82403 0.928 9.52403 1.051 9.27703C1.175 9.03003 1.476 8.93203 1.722 9.05303L3.998 10.191L6.274 9.05303C6.522 8.93103 6.821 9.03003 6.945 9.27703C7.068 9.52403 6.968 9.82403 6.721 9.94803H6.723Z" fill="#202020"/>
</svg>
