<svg width="16" height="16" viewBox="0 0 16 16" fill="none" xmlns="http://www.w3.org/2000/svg">
<path d="M4.75 1H11.25C12.216 1 13 1.784 13 2.75V13.25C13 14.216 12.216 15 11.25 15H4.75C3.784 15 3 14.216 3 13.25V2.75C3 1.784 3.784 1 4.75 1ZM4.75 14H9V12.5C9 12.224 9.224 12 9.5 12C9.776 12 10 12.224 10 12.5V14H11.25C11.664 14 12 13.664 12 13.25V11H11.5C11.224 11 11 10.776 11 10.5C11 10.224 11.224 10 11.5 10H12V2.75C12 2.336 11.664 2 11.25 2H10V3.5C10 3.776 9.776 4 9.5 4C9.224 4 9 3.776 9 3.5V2H4.75C4.336 2 4 2.336 4 2.75V10H4.5C4.776 10 5 10.224 5 10.5C5 10.776 4.776 11 4.5 11H4V13.25C4 13.664 4.336 14 4.75 14ZM9 5.5V7C9 7.276 9.224 7.5 9.5 7.5C9.776 7.5 10 7.276 10 7V5.5C10 5.224 9.776 5 9.5 5C9.224 5 9 5.224 9 5.5ZM9 9V10.5C9 10.776 9.224 11 9.5 11C9.776 11 10 10.776 10 10.5V9C10 8.724 9.776 8.5 9.5 8.5C9.224 8.5 9 8.724 9 9ZM6 10.5C6 10.776 6.224 11 6.5 11H7.5C7.776 11 8 10.776 8 10.5C8 10.224 7.776 10 7.5 10H6.5C6.224 10 6 10.224 6 10.5Z" fill="#202020"/>
</svg>
