<svg width="16" height="16" viewBox="0 0 16 16" fill="none" xmlns="http://www.w3.org/2000/svg">
<g clip-path="url(#clip0_7202_84262)">
<path d="M14 4.75V11.25C14 11.94 13.59 12.55 13 12.82V4.75C13 3.23 11.77 2 10.25 2H5.18C5.45 1.41 6.06 1 6.75 1H10.25C12.32 1 14 2.68 14 4.75ZM10.25 3H4.75C3.785 3 3 3.785 3 4.75V13.25C3 14.215 3.785 15 4.75 15H10.25C11.215 15 12 14.215 12 13.25V4.75C12 3.785 11.215 3 10.25 3ZM11 13.25C11 13.664 10.664 14 10.25 14H4.75C4.336 14 4 13.664 4 13.25V4.75C4 4.336 4.336 4 4.75 4H10.25C10.664 4 11 4.336 11 4.75V13.25Z" fill="#202020"/>
<path d="M9.25 6.5H5.75C5.336 6.5 5 6.164 5 5.75C5 5.336 5.336 5 5.75 5H9.25C9.664 5 10 5.336 10 5.75C10 6.164 9.664 6.5 9.25 6.5Z" fill="#006CBF"/>
</g>
<defs>
<clipPath id="clip0_7202_84262">
<rect width="16" height="16" fill="white"/>
</clipPath>
</defs>
</svg>
