<svg width="16" height="16" viewBox="0 0 16 16" fill="none" xmlns="http://www.w3.org/2000/svg">
<path d="M2 3.75V4.5C2 4.776 2.224 5 2.5 5C2.776 5 3 4.776 3 4.5V3.75C3 3.551 3.079 3.361 3.22 3.22C3.36 3.079 3.551 3 3.75 3H4.5C4.776 3 5 2.776 5 2.5C5 2.224 4.776 2 4.5 2H3.75C3.286 2 2.841 2.185 2.513 2.513C2.184 2.841 2 3.286 2 3.75Z" fill="#202020"/>
<path d="M3 9.5C3 9.776 2.776 10 2.5 10C2.224 10 2 9.776 2 9.5V6.5C2 6.224 2.224 6 2.5 6C2.776 6 3 6.224 3 6.5V9.5Z" fill="#202020"/>
<path d="M3.75 13H4.5C4.776 13 5 13.224 5 13.5C5 13.776 4.776 14 4.5 14H3.75C3.286 14 2.841 13.815 2.513 13.487C2.184 13.159 2 12.714 2 12.25V11.5C2 11.224 2.224 11 2.5 11C2.776 11 3 11.224 3 11.5V12.25C3 12.449 3.079 12.639 3.22 12.78C3.36 12.921 3.551 13 3.75 13Z" fill="#202020"/>
<path d="M6 13.5C6 13.224 6.224 13 6.5 13H9.5C9.776 13 10 13.224 10 13.5C10 13.776 9.776 14 9.5 14H6.5C6.224 14 6 13.776 6 13.5Z" fill="#202020"/>
<path d="M13 11.5C13 11.224 13.224 11 13.5 11C13.776 11 14 11.224 14 11.5V12.25C14 12.714 13.815 13.158 13.487 13.487C13.159 13.816 12.714 14 12.25 14H11.5C11.224 14 11 13.776 11 13.5C11 13.224 11.224 13 11.5 13H12.25C12.449 13 12.639 12.921 12.78 12.78C12.921 12.64 13 12.449 13 12.25V11.5Z" fill="#202020"/>
<path d="M13 6.5C13 6.224 13.224 6 13.5 6C13.776 6 14 6.224 14 6.5V9.5C14 9.776 13.776 10 13.5 10C13.224 10 13 9.776 13 9.5V6.5Z" fill="#202020"/>
<path d="M12.25 2C12.714 2 13.159 2.185 13.487 2.513C13.816 2.841 14 3.286 14 3.75V4.5C14 4.776 13.776 5 13.5 5C13.224 5 13 4.776 13 4.5V3.75C13 3.551 12.921 3.361 12.78 3.22C12.64 3.079 12.449 3 12.25 3H11.5C11.224 3 11 2.776 11 2.5C11 2.224 11.224 2 11.5 2H12.25Z" fill="#202020"/>
<path d="M9.5 3H6.5C6.224 3 6 2.776 6 2.5C6 2.224 6.224 2 6.5 2H9.5C9.776 2 10 2.224 10 2.5C10 2.776 9.776 3 9.5 3Z" fill="#202020"/>
<path fill-rule="evenodd" clip-rule="evenodd" d="M7 7H6C5.449 7 5 6.551 5 6V5C5 4.449 5.449 4 6 4H7C7.551 4 8 4.449 8 5V6C8 6.551 7.551 7 7 7ZM7 5H6V6H7V5Z" fill="#202020"/>
<path d="M10.5 7C10.776 7 11 6.776 11 6.5C11 6.224 10.776 6 10.5 6H9.5C9.224 6 9 6.224 9 6.5C9 6.776 9.224 7 9.5 7H10.5Z" fill="#202020"/>
<path d="M9.5 4C9.224 4 9 4.224 9 4.5C9 4.776 9.224 5 9.5 5H10.5C10.776 5 11 4.776 11 4.5C11 4.224 10.776 4 10.5 4H9.5Z" fill="#202020"/>
<path d="M10.5 9C10.776 9 11 8.776 11 8.5C11 8.224 10.776 8 10.5 8H5.5C5.224 8 5 8.224 5 8.5C5 8.776 5.224 9 5.5 9H10.5Z" fill="#202020"/>
<path d="M10.5 11C10.776 11 11 10.776 11 10.5C11 10.224 10.776 10 10.5 10H5.5C5.224 10 5 10.224 5 10.5C5 10.776 5.224 11 5.5 11H10.5Z" fill="#202020"/>
</svg>
