<svg width="16" height="16" viewBox="0 0 16 16" fill="none" xmlns="http://www.w3.org/2000/svg">
<path d="M10.146 3.439C9.863 3.156 9.486 3 9.085 3H5.499C4.672 3 3.999 3.673 3.999 4.5V11.5C3.999 12.327 4.672 13 5.499 13H10.499C11.326 13 11.999 12.327 11.999 11.5V5.914C11.999 5.514 11.843 5.137 11.56 4.853L10.146 3.439ZM11 11.5C11 11.776 10.776 12 10.5 12H5.5C5.224 12 5 11.776 5 11.5V4.5C5 4.224 5.224 4 5.5 4H9.086C9.217 4 9.346 4.053 9.44 4.146L10.854 5.56C10.947 5.653 11 5.782 11 5.914V11.5ZM2 3.5V12.5C2 12.776 2.224 13 2.5 13H3C3.276 13 3.5 13.224 3.5 13.5C3.5 13.776 3.276 14 3 14H2.5C1.673 14 1 13.327 1 12.5V3.5C1 2.673 1.673 2 2.5 2H3C3.276 2 3.5 2.224 3.5 2.5C3.5 2.776 3.276 3 3 3H2.5C2.224 3 2 3.224 2 3.5ZM15 3.5V12.5C15 13.327 14.327 14 13.5 14H13C12.724 14 12.5 13.776 12.5 13.5C12.5 13.224 12.724 13 13 13H13.5C13.776 13 14 12.776 14 12.5V3.5C14 3.224 13.776 3 13.5 3H13C12.724 3 12.5 2.776 12.5 2.5C12.5 2.224 12.724 2 13 2H13.5C14.327 2 15 2.673 15 3.5ZM7.103 10H9.5C9.776 10 10 10.224 10 10.5C10 10.776 9.776 11 9.5 11H6.5C6.224 11 6 10.776 6 10.5C6 9.14 7.06 8.528 7.911 8.036C8.586 7.646 9 7.388 9 7C9 6.449 8.551 6 8 6C7.449 6 7 6.449 7 7C7 7.276 6.776 7.5 6.5 7.5C6.224 7.5 6 7.276 6 7C6 5.897 6.897 5 8 5C9.103 5 10 5.897 10 7C10 7.985 9.156 8.472 8.411 8.902C7.76 9.278 7.298 9.574 7.103 10Z" fill="#202020"/>
</svg>
