<svg width="16" height="16" viewBox="0 0 16 16" fill="none" xmlns="http://www.w3.org/2000/svg">
<g clip-path="url(#clip0_7202_84335)">
<path fill-rule="evenodd" clip-rule="evenodd" d="M5 5H4C3.449 5 3 4.551 3 4V3C3 2.449 3.449 2 4 2H5C5.551 2 6 2.449 6 3V4C6 4.551 5.551 5 5 5ZM4 3V4H5V3H4Z" fill="#202020"/>
<path fill-rule="evenodd" clip-rule="evenodd" d="M9 5H8C7.449 5 7 4.551 7 4V3C7 2.449 7.449 2 8 2H9C9.551 2 10 2.449 10 3V4C10 4.551 9.551 5 9 5ZM8 3V4H9V3H8Z" fill="#202020"/>
<path fill-rule="evenodd" clip-rule="evenodd" d="M13 5H12C11.449 5 11 4.551 11 4V3C11 2.449 11.449 2 12 2H13C13.551 2 14 2.449 14 3V4C14 4.551 13.551 5 13 5ZM12 3V4H13V3H12Z" fill="#202020"/>
<path fill-rule="evenodd" clip-rule="evenodd" d="M5 9H4C3.449 9 3 8.551 3 8V7C3 6.449 3.449 6 4 6H5C5.551 6 6 6.449 6 7V8C6 8.551 5.551 9 5 9ZM4 7V8H5V7H4Z" fill="#202020"/>
<path fill-rule="evenodd" clip-rule="evenodd" d="M9 9H8C7.449 9 7 8.551 7 8V7C7 6.449 7.449 6 8 6H9C9.551 6 10 6.449 10 7V8C10 8.551 9.551 9 9 9ZM8 7V8H9V7H8Z" fill="#202020"/>
<path fill-rule="evenodd" clip-rule="evenodd" d="M13 9H12C11.449 9 11 8.551 11 8V7C11 6.449 11.449 6 12 6H13C13.551 6 14 6.449 14 7V8C14 8.551 13.551 9 13 9ZM12 7V8H13V7H12Z" fill="#202020"/>
<path d="M3.33553 10.2536C3.51237 10.096 3.74528 10 4 10H5C5.07663 10 5.15129 10.0087 5.22304 10.0251C5.1217 10.0442 5.02209 10.0737 4.92588 10.1135C4.65171 10.2271 4.41739 10.4195 4.25258 10.6663C4.18286 10.7707 4.1269 10.8829 4.08555 11H4V11.4975C3.99964 11.2016 3.91177 10.9124 3.74742 10.6663C3.63791 10.5023 3.49771 10.3624 3.33553 10.2536Z" fill="#202020"/>
<path d="M8.91489 13H9C9.551 13 10 12.551 10 12V11C10 10.449 9.551 10 9 10H8C7.48801 10 7.06408 10.3877 7.00663 10.8846L8 11.878V11H9V12H8.12199L8.561 12.439C8.70039 12.5783 8.81097 12.7437 8.88641 12.9258C8.89657 12.9503 8.90606 12.975 8.91489 13Z" fill="#202020"/>
<path fill-rule="evenodd" clip-rule="evenodd" d="M13 13H12C11.449 13 11 12.551 11 12V11C11 10.449 11.449 10 12 10H13C13.551 10 14 10.449 14 11V12C14 12.551 13.551 13 13 13ZM12 11V12H13V11H12Z" fill="#202020"/>
<path d="M7.854 13.854L5.854 15.854C5.76011 15.9479 5.63278 16.0006 5.5 16.0006C5.36723 16.0006 5.23989 15.9479 5.146 15.854C5.05211 15.7601 4.99937 15.6328 4.99937 15.5C4.99937 15.3672 5.05211 15.2399 5.146 15.146L6.293 14H1.707L2.854 15.146C2.94789 15.2399 3.00063 15.3672 3.00063 15.5C3.00063 15.6328 2.94789 15.7601 2.854 15.854C2.76011 15.9479 2.63278 16.0006 2.5 16.0006C2.36723 16.0006 2.23989 15.9479 2.146 15.854L0.146001 13.854C0.0994379 13.8075 0.0624951 13.7524 0.0372886 13.6916C0.0120822 13.6309 -0.000892639 13.5658 -0.000892639 13.5C-0.000892639 13.4342 0.0120822 13.3691 0.0372886 13.3084C0.0624951 13.2476 0.0994379 13.1924 0.146001 13.146L2.146 11.146C2.23989 11.0521 2.36723 10.9994 2.5 10.9994C2.63278 10.9994 2.76011 11.0521 2.854 11.146C2.94789 11.2399 3.00063 11.3672 3.00063 11.5C3.00063 11.6328 2.94789 11.7601 2.854 11.854L1.707 13H6.293L5.146 11.854C5.05211 11.7601 4.99937 11.6328 4.99937 11.5C4.99937 11.3672 5.05211 11.2399 5.146 11.146C5.23989 11.0521 5.36723 10.9994 5.5 10.9994C5.63278 10.9994 5.76011 11.0521 5.854 11.146L7.854 13.146C7.90056 13.1924 7.93751 13.2476 7.96271 13.3084C7.98792 13.3691 8.00089 13.4342 8.00089 13.5C8.00089 13.5658 7.98792 13.6309 7.96271 13.6916C7.93751 13.7524 7.90056 13.8075 7.854 13.854Z" fill="#006CBF"/>
</g>
<defs>
<clipPath id="clip0_7202_84335">
<rect width="16" height="16" fill="white"/>
</clipPath>
</defs>
</svg>
