<svg width="16" height="16" viewBox="0 0 16 16" fill="none" xmlns="http://www.w3.org/2000/svg">
<path fill-rule="evenodd" clip-rule="evenodd" d="M9 2H13.5C13.776 2 14 2.224 14 2.5C14 2.776 13.776 3 13.5 3H13V13.5C13 13.776 12.776 14 12.5 14C12.224 14 12 13.776 12 13.5V3H11V13.5C11 13.776 10.776 14 10.5 14C10.224 14 10 13.776 10 13.5V9H9C7.067 9 5.5 7.433 5.5 5.5C5.5 3.567 7.067 2 9 2ZM9 8H10V3H9C7.619 3 6.5 4.119 6.5 5.5C6.5 6.881 7.619 8 9 8Z" fill="#202020"/>
<path d="M6 12.5C6 13.3284 5.32843 14 4.5 14C3.67157 14 3 13.3284 3 12.5C3 11.6716 3.67157 11 4.5 11C5.32843 11 6 11.6716 6 12.5Z" fill="#202020"/>
</svg>
