<svg width="16" height="16" viewBox="0 0 16 16" fill="none" xmlns="http://www.w3.org/2000/svg">
<path d="M3 3V1.5C3 1.224 2.776 1 2.5 1C2.224 1 2 1.224 2 1.5V3C1.448 3 1 3.449 1 4V6C1 6.551 1.448 7 2 7V8.5C2 8.776 2.224 9 2.5 9C2.776 9 3 8.776 3 8.5V7C3.552 7 4 6.551 4 6V4C4 3.449 3.552 3 3 3ZM3 6H2V4H3V6ZM7 3V1.5C7 1.224 6.776 1 6.5 1C6.224 1 6 1.224 6 1.5V3C5.448 3 5 3.449 5 4V6C5 6.551 5.448 7 6 7V8.5C6 8.776 6.224 9 6.5 9C6.776 9 7 8.776 7 8.5V7C7.552 7 8 6.551 8 6V4C8 3.449 7.552 3 7 3ZM7 6H6V4H7V6Z" fill="#202020"/>
<path d="M13.5 6H9.49998C9.22398 6 8.99998 6.224 8.99998 6.5C8.99998 6.776 9.22398 7 9.49998 7H13.5C13.775 7 14 7.224 14 7.5V13.5C14 13.776 13.775 14 13.5 14H7.49998C7.22498 14 6.99998 13.776 6.99998 13.5V11.707L7.64598 12.353C7.74398 12.451 7.87198 12.499 7.99998 12.499C8.12798 12.499 8.25598 12.45 8.35398 12.353C8.54898 12.158 8.54898 11.841 8.35398 11.646L6.85398 10.146C6.65898 9.951 6.34198 9.951 6.14698 10.146L4.64698 11.646C4.45198 11.841 4.45198 12.158 4.64698 12.353C4.84198 12.548 5.15898 12.548 5.35398 12.353L5.99998 11.707V13.5C5.99998 14.327 6.67298 15 7.49998 15H13.5C14.327 15 15 14.327 15 13.5V7.5C15 6.673 14.327 6 13.5 6Z" fill="#006CBF"/>
</svg>
