<svg width="16" height="16" viewBox="0 0 16 16" fill="none" xmlns="http://www.w3.org/2000/svg">
<g clip-path="url(#clip0_7202_84379)">
<path d="M2.50604 14.998C2.11104 15.018 1.71904 14.915 1.38504 14.703C1.05104 14.491 0.790043 14.181 0.639044 13.815C0.217044 12.76 4.35134e-05 11.634 4.35134e-05 10.498C-0.00695649 9.35901 0.208044 8.22901 0.634044 7.17301C0.786044 6.80901 1.04704 6.50101 1.38104 6.29001C1.71504 6.08001 2.10604 5.97801 2.50004 5.99801C2.69004 5.99801 2.87904 6.01901 3.06304 6.06301C3.36504 6.13601 3.62904 6.32101 3.80004 6.58101C3.97104 6.84101 4.03704 7.15601 3.98504 7.46301L3.89004 8.01801C3.85004 8.27301 3.73404 8.51001 3.55704 8.69901C3.38104 8.88801 3.15204 9.01901 2.90004 9.07601L1.95604 9.28901L1.87904 9.62301C1.81804 9.91101 1.78704 10.204 1.78504 10.498C1.78804 10.798 1.82204 11.097 1.88504 11.39L1.95904 11.709L2.90304 11.921C3.15504 11.978 3.38404 12.109 3.56004 12.298C3.73604 12.486 3.85204 12.723 3.89304 12.979L3.98604 13.542C4.03704 13.847 3.97104 14.161 3.80004 14.419C3.62904 14.677 3.36704 14.861 3.06604 14.934C2.88304 14.978 2.69504 14.999 2.50604 14.998Z" fill="#006CBF"/>
<path d="M8 14H7C6.448 14 6 13.551 6 13V12C6 11.449 6.448 11 7 11H8C8.552 11 9 11.449 9 12V13C9 13.551 8.552 14 8 14ZM7 12V13H8V12H7ZM8 9H7C6.448 9 6 8.551 6 8V7C6 6.449 6.448 6 7 6H8C8.552 6 9 6.449 9 7V8C9 8.551 8.552 9 8 9ZM7 7V8H8V7H7ZM8 4H2C1.448 4 1 3.551 1 3V2C1 1.449 1.448 1 2 1H8C8.552 1 9 1.449 9 2V3C9 3.551 8.552 4 8 4ZM2 2V3H8V2H2ZM14 14H11C10.448 14 10 13.551 10 13V12C10 11.449 10.448 11 11 11H14C14.552 11 15 11.449 15 12V13C15 13.551 14.552 14 14 14ZM11 12V13H14V12H11ZM14 9H11C10.448 9 10 8.551 10 8V7C10 6.449 10.448 6 11 6H14C14.552 6 15 6.449 15 7V8C15 8.551 14.552 9 14 9ZM11 7V8H14V7H11ZM14 4H11C10.448 4 10 3.551 10 3V2C10 1.449 10.448 1 11 1H14C14.552 1 15 1.449 15 2V3C15 3.551 14.552 4 14 4ZM11 2V3H14V2H11Z" fill="#202020"/>
</g>
<defs>
<clipPath id="clip0_7202_84379">
<rect width="16" height="16" fill="white"/>
</clipPath>
</defs>
</svg>
