<svg width="16" height="16" viewBox="0 0 16 16" fill="none" xmlns="http://www.w3.org/2000/svg">
<path d="M12.354 8.646C12.159 8.451 11.842 8.451 11.647 8.646L11.208 9.085L11.915 9.792L12.354 9.353C12.549 9.158 12.549 8.841 12.354 8.646ZM13.5 4H8.5C8.224 4 8 4.224 8 4.5C8 4.776 8.224 5 8.5 5H13.5C13.775 5 14 5.224 14 5.5V9.5C14 9.776 13.775 10 13.5 10H12.122L13.122 11H13.5C14.327 11 15 10.327 15 9.5V5.5C15 4.673 14.327 4 13.5 4ZM10.146 10.854L11.646 12.354C11.744 12.452 11.872 12.5 12 12.5C12.128 12.5 12.256 12.451 12.354 12.354L10.147 10.147C9.952 10.342 9.952 10.659 10.147 10.854H10.146Z" fill="#006CBF"/>
<path fill-rule="evenodd" clip-rule="evenodd" d="M1.85301 1.14723L14.854 14.1462C15.049 14.3412 15.049 14.6582 14.854 14.8532C14.756 14.9512 14.628 14.9992 14.5 15.0002C14.372 15.0002 14.244 14.9512 14.146 14.8542L8.96701 9.67523C8.98501 9.78123 9.00001 9.88923 9.00001 10.0002C9.00001 11.1032 8.10301 12.0002 7.00001 12.0002C5.89701 12.0002 5.00001 11.1032 5.00001 10.0002C5.00001 8.89723 5.89701 8.00023 7.00001 8.00023C7.11101 8.00023 7.21901 8.01523 7.32501 8.03323L5.87601 6.58423C5.48101 6.84623 5.00901 7.00023 4.50001 7.00023C3.12101 7.00023 2.00001 5.87823 2.00001 4.50023C2.00001 3.99123 2.15401 3.51923 2.41601 3.12423L1.14601 1.85423C0.951006 1.65923 0.951006 1.34223 1.14601 1.14723C1.34101 0.952227 1.65801 0.952227 1.85301 1.14723ZM6.00001 10.0002C6.00001 10.5512 6.44801 11.0002 7.00001 11.0002C7.55201 11.0002 8.00001 10.5512 8.00001 10.0002C8.00001 9.44923 7.55201 9.00023 7.00001 9.00023C6.44801 9.00023 6.00001 9.44923 6.00001 10.0002ZM3.00001 4.50023C3.00001 5.32723 3.67301 6.00023 4.50001 6.00023C4.73101 6.00023 4.94701 5.94323 5.14201 5.85023L3.15001 3.85823C3.05701 4.05323 3.00001 4.26923 3.00001 4.50023Z" fill="#202020"/>
<path d="M6.99998 4.5C6.99998 3.122 5.87898 2 4.49998 2C4.39811 2 4.3007 2.01416 4.20327 2.02833L4.15698 2.035L6.96598 4.844L6.97247 4.79895C6.9867 4.7009 7.00098 4.60245 7.00098 4.501L6.99998 4.5Z" fill="#202020"/>
<path fill-rule="evenodd" clip-rule="evenodd" d="M2 8C0.897 8 0 8.897 0 10C0 11.103 0.897 12 2 12C3.103 12 4 11.103 4 10C4 8.897 3.103 8 2 8ZM2 11C1.448 11 1 10.551 1 10C1 9.449 1.448 9 2 9C2.552 9 3 9.449 3 10C3 10.551 2.552 11 2 11Z" fill="#202020"/>
</svg>
