<svg width="16" height="16" viewBox="0 0 16 16" fill="none" xmlns="http://www.w3.org/2000/svg">
<path d="M4.5 7C3.121 7 2 5.878 2 4.5C2 3.122 3.121 2 4.5 2C5.879 2 7 3.122 7 4.5C7 5.878 5.879 7 4.5 7ZM4.5 3C3.673 3 3 3.673 3 4.5C3 5.327 3.673 6 4.5 6C5.327 6 6 5.327 6 4.5C6 3.673 5.327 3 4.5 3ZM2 12C0.897 12 0 11.103 0 10C0 8.897 0.897 8 2 8C3.103 8 4 8.897 4 10C4 11.103 3.103 12 2 12ZM2 9C1.448 9 1 9.449 1 10C1 10.551 1.448 11 2 11C2.552 11 3 10.551 3 10C3 9.449 2.552 9 2 9ZM7 12C5.897 12 5 11.103 5 10C5 8.897 5.897 8 7 8C8.103 8 9 8.897 9 10C9 11.103 8.103 12 7 12ZM7 9C6.448 9 6 9.449 6 10C6 10.551 6.448 11 7 11C7.552 11 8 10.551 8 10C8 9.449 7.552 9 7 9Z" fill="#202020"/>
<path d="M13.5 4H8.5C8.224 4 8 4.224 8 4.5C8 4.776 8.224 5 8.5 5H13.5C13.775 5 14 5.224 14 5.5V9.5C14 9.776 13.775 10 13.5 10H11.707L12.353 9.354C12.548 9.159 12.548 8.842 12.353 8.647C12.158 8.452 11.841 8.452 11.646 8.647L10.146 10.147C9.951 10.342 9.951 10.659 10.146 10.854L11.646 12.354C11.744 12.452 11.872 12.5 12 12.5C12.128 12.5 12.256 12.451 12.354 12.354C12.549 12.159 12.549 11.842 12.354 11.647L11.708 11.001H13.501C14.328 11.001 15.001 10.328 15.001 9.501V5.501C15.001 4.674 14.328 4.001 13.501 4.001L13.5 4Z" fill="#006CBF"/>
</svg>
