<svg width="16" height="16" viewBox="0 0 16 16" fill="none" xmlns="http://www.w3.org/2000/svg">
<path d="M15 6V9.08435C14.8438 9.02908 14.6759 8.999 14.501 8.999C14.3254 8.999 14.1567 9.02934 14 9.08506V6C14 5.448 13.552 5 13 5H4C3.448 5 3 5.448 3 6V10C3 10.552 3.448 11 4 11H8.87901L9 11.121V12H4C2.897 12 2 11.103 2 10V6C2 4.897 2.897 4 4 4H13C14.103 4 15 4.897 15 6Z" fill="#202020"/>
<path d="M6 2.5C6 2.224 6.224 2 6.5 2H8V1.5C8 1.224 8.224 1 8.5 1C8.776 1 9 1.224 9 1.5V2H10.5C10.776 2 11 2.224 11 2.5C11 2.776 10.776 3 10.5 3H6.5C6.224 3 6 2.776 6 2.5Z" fill="#006CBF"/>
<path d="M6.5 13C6.224 13 6 13.224 6 13.5C6 13.776 6.224 14 6.5 14H8V14.5C8 14.776 8.224 15 8.5 15C8.776 15 9 14.776 9 14.5V13H6.5Z" fill="#006CBF"/>
<path d="M14.5 10C14.224 10 14 10.224 14 10.5V13.293L9.854 9.147C9.659 8.952 9.342 8.952 9.147 9.147C8.952 9.342 8.952 9.659 9.147 9.854L13.293 14H10.5C10.224 14 10 14.224 10 14.5C10 14.776 10.224 15 10.5 15H14.5C14.776 15 15 14.776 15 14.5V10.5C15 10.224 14.776 10 14.5 10Z" fill="#006CBF"/>
</svg>
