<svg width="16" height="16" viewBox="0 0 16 16" fill="none" xmlns="http://www.w3.org/2000/svg">
<g clip-path="url(#clip0_7202_84496)">
<path d="M13.8 5.40989L14.3 5.71889C14.515 5.85442 14.692 6.04233 14.8144 6.265C14.9368 6.48766 15.0007 6.73779 15 6.99189V10.5139C15 10.5162 15 10.5186 15 10.5209L13.2935 7.10787C13.1276 6.77505 12.8723 6.49507 12.5561 6.29937C12.2399 6.10367 11.8754 6 11.5035 6C11.1507 6 10.8046 6.09331 10.5 6.26998V4.55389C10.5 4.46909 10.4784 4.38568 10.4373 4.31151C10.3962 4.23734 10.3369 4.17484 10.265 4.12989L7.271 2.25789C7.19101 2.20859 7.09897 2.18229 7.005 2.18189C6.90973 2.18174 6.8164 2.2088 6.736 2.25989L2.231 5.12389C2.16012 5.16914 2.10179 5.23152 2.06141 5.30529C2.02103 5.37905 1.99991 5.4618 2 5.54589V7.72104C1.91643 7.80322 1.83849 7.89141 1.76687 7.98507C1.52268 8.30442 1.3591 8.67794 1.29001 9.07397C1.19585 9.1045 1.1054 9.14412 1.01983 9.19203C1.00668 9.11193 1 9.03063 1 8.94889V5.54889C1.00048 5.29597 1.06491 5.04728 1.1873 4.82593C1.30968 4.60459 1.48605 4.41779 1.7 4.28289L6.2 1.41589C6.43948 1.26546 6.71633 1.18515 6.99914 1.18409C7.28195 1.18303 7.5594 1.26126 7.8 1.40989L10.8 3.28189C11.0148 3.41733 11.1917 3.60508 11.3142 3.82756C11.4366 4.05004 11.5005 4.29995 11.5 4.55389V5.86089L12.2 5.41589C12.4394 5.26523 12.7163 5.1848 12.9991 5.18374C13.282 5.18267 13.5595 5.26103 13.8 5.40989Z" fill="#202020"/>
<path d="M5.13735 9.84411C5.30338 9.72159 5.44316 9.56553 5.54701 9.38497C5.74576 9.04078 5.79979 8.63179 5.69723 8.2478C5.59467 7.86381 5.34391 7.53622 5.00001 7.33697C4.6516 7.13641 4.25996 7.02284 3.85831 7.00587C3.79989 7.00341 3.74151 7.00299 3.68328 7.00461L3.245 6.74489C3.18732 6.71202 3.13676 6.668 3.09628 6.61538C3.05579 6.56276 3.02619 6.50261 3.0092 6.43843C2.99221 6.37425 2.98817 6.30733 2.99732 6.24158C3.00647 6.17582 3.02862 6.11254 3.06249 6.05544C3.09635 5.99834 3.14125 5.94855 3.19456 5.90898C3.24787 5.86941 3.30853 5.84086 3.37299 5.82498C3.43745 5.80911 3.50443 5.80623 3.57002 5.81651C3.63561 5.8268 3.69849 5.85005 3.755 5.88489L5.49 6.91289L8.735 4.88889C8.79061 4.85083 8.85334 4.8244 8.91943 4.81119C8.98551 4.79798 9.05359 4.79826 9.11956 4.81203C9.18553 4.82579 9.24804 4.85275 9.30332 4.89129C9.35861 4.92982 9.40554 4.97914 9.44129 5.03626C9.47704 5.09339 9.50087 5.15716 9.51135 5.22373C9.52183 5.2903 9.51874 5.35831 9.50228 5.42366C9.48581 5.48901 9.4563 5.55035 9.41553 5.60401C9.37475 5.65767 9.32355 5.70253 9.265 5.73589L6 7.77689V9.4999C6 9.6325 5.94732 9.75968 5.85355 9.85345C5.75979 9.94722 5.63261 9.9999 5.5 9.9999C5.36739 9.9999 5.24021 9.94722 5.14645 9.85345C5.14337 9.85037 5.14034 9.84726 5.13735 9.84411Z" fill="#202020"/>
<path d="M7 10.2042C7.22563 10.0745 7.48321 10.0045 7.74801 10.0045C7.9121 10.0045 8.07343 10.0314 8.2261 10.0827L9.71351 7.10787C9.74224 7.05023 9.77365 6.99417 9.8076 6.93986L7.694 8.28289C7.48116 8.4185 7.30598 8.60561 7.18467 8.82691C7.06336 9.0482 6.99984 9.29653 7 9.54889V10.2042Z" fill="#202020"/>
<path d="M6.30112 13.9327L7.76719 11.0006C7.76281 11.0005 7.75843 11.0004 7.75404 11.0004C7.62126 11.0004 7.49392 11.0531 7.40004 11.147L6.31004 12.235L5.72804 11.42C5.64583 11.3056 5.5396 11.2105 5.41678 11.1414C5.29397 11.0723 5.15754 11.0309 5.01704 11.02C4.8756 11.0062 4.73286 11.0243 4.59939 11.0731C4.46592 11.122 4.34515 11.2002 4.24604 11.302L4.14604 11.402C4.05508 11.4965 4.00486 11.6228 4.00618 11.7539C4.0075 11.885 4.06026 12.0104 4.1531 12.103C4.24594 12.1955 4.37142 12.2479 4.50253 12.2489C4.63363 12.2498 4.75987 12.1993 4.85404 12.108L4.91804 12.001L5.59204 12.947L4.39204 14.147C4.29815 14.2409 4.24541 14.3683 4.24541 14.501C4.24541 14.6338 4.29815 14.7611 4.39204 14.855C4.48592 14.9489 4.61326 15.0017 4.74604 15.0017C4.87881 15.0017 5.00615 14.9489 5.10004 14.855L6.19004 13.777L6.30112 13.9327Z" fill="#202020"/>
<path d="M3.20004 10.001H3.50004C3.63265 10.001 3.75982 10.0537 3.85359 10.1475C3.94736 10.2412 4.00004 10.3684 4.00004 10.501C4.00004 10.6336 3.94736 10.7608 3.85359 10.8546C3.75982 10.9484 3.63265 11.001 3.50004 11.001H3.10004L2.74704 14.648C2.71998 14.9229 2.61758 15.1849 2.45111 15.4053C2.28464 15.6256 2.06056 15.7957 1.80358 15.8969C1.5466 15.998 1.26669 16.0262 0.994684 15.9785C0.722682 15.9307 0.469153 15.8087 0.262037 15.626C0.16622 15.5374 0.108861 15.4148 0.102212 15.2845C0.0955635 15.1541 0.140153 15.0263 0.226454 14.9284C0.312756 14.8305 0.433928 14.7702 0.564086 14.7604C0.694243 14.7506 0.823067 14.7921 0.923037 14.876C0.993846 14.9314 1.07788 14.9674 1.16684 14.9804C1.2558 14.9934 1.34661 14.983 1.43031 14.9502C1.51401 14.9174 1.58771 14.8633 1.64413 14.7933C1.70055 14.7233 1.73775 14.6398 1.75204 14.551L2.10004 11.001H1.75004C1.61743 11.001 1.49025 10.9484 1.39648 10.8546C1.30272 10.7608 1.25004 10.6336 1.25004 10.501C1.25004 10.3684 1.30272 10.2412 1.39648 10.1475C1.49025 10.0537 1.61743 10.001 1.75004 10.001H2.19404L2.25704 9.35403C2.28146 9.10429 2.36814 8.86467 2.50914 8.6571C2.65015 8.44953 2.84098 8.28066 3.06415 8.16594C3.28732 8.05122 3.53571 7.99432 3.78657 8.00045C4.03742 8.00658 4.28274 8.07554 4.50004 8.20103C4.55736 8.23362 4.60767 8.27723 4.64807 8.32934C4.68847 8.38146 4.71817 8.44105 4.73544 8.50469C4.75272 8.56832 4.75724 8.63475 4.74874 8.70014C4.74024 8.76553 4.71889 8.82859 4.68592 8.8857C4.65295 8.9428 4.60901 8.99282 4.55663 9.03287C4.50425 9.07293 4.44446 9.10223 4.38071 9.11908C4.31696 9.13593 4.25051 9.14001 4.18517 9.13108C4.11984 9.12215 4.05692 9.10038 4.00004 9.06703C3.92702 9.02983 3.8462 9.01051 3.76425 9.01068C3.68231 9.01085 3.60157 9.0305 3.52871 9.06801C3.45584 9.10551 3.39294 9.1598 3.34518 9.2264C3.29743 9.29299 3.26619 9.36999 3.25404 9.45103L3.20004 10.001Z" fill="#202020"/>
<path fill-rule="evenodd" clip-rule="evenodd" d="M12.3931 7.55201L15.8931 14.552C15.9694 14.7044 16.0056 14.8738 15.9981 15.044C15.9906 15.2143 15.9397 15.3799 15.8502 15.5249C15.7607 15.67 15.6357 15.7898 15.4869 15.8729C15.3381 15.9561 15.1705 15.9998 15.0001 16H8.00006C7.8292 16.0007 7.66101 15.9576 7.51154 15.8748C7.36207 15.792 7.23631 15.6723 7.14625 15.5271C7.0562 15.3818 7.00486 15.216 6.99712 15.0453C6.98938 14.8746 7.02551 14.7048 7.10206 14.552L10.6021 7.55201C10.6849 7.38534 10.8126 7.24509 10.9708 7.14705C11.129 7.04901 11.3114 6.99707 11.4976 6.99707C11.6837 6.99707 11.8661 7.04901 12.0243 7.14705C12.1825 7.24509 12.3102 7.38534 12.3931 7.55201ZM12 12.495V9.495C12 9.36239 11.9473 9.23521 11.8536 9.14144C11.7598 9.04767 11.6326 8.995 11.5 8.995C11.3674 8.995 11.2402 9.04767 11.1464 9.14144C11.0527 9.23521 11 9.36239 11 9.495V12.495C11 12.6276 11.0527 12.7548 11.1464 12.8485C11.2402 12.9423 11.3674 12.995 11.5 12.995C11.6326 12.995 11.7598 12.9423 11.8536 12.8485C11.9473 12.7548 12 12.6276 12 12.495ZM11.2222 14.0843C11.3044 14.0293 11.4011 14 11.5 14C11.6326 14 11.7598 14.0527 11.8536 14.1464C11.9473 14.2402 12 14.3674 12 14.5C12 14.5989 11.9707 14.6956 11.9157 14.7778C11.8608 14.86 11.7827 14.9241 11.6913 14.9619C11.6 14.9998 11.4994 15.0097 11.4025 14.9904C11.3055 14.9711 11.2164 14.9235 11.1464 14.8535C11.0765 14.7836 11.0289 14.6945 11.0096 14.5975C10.9903 14.5006 11.0002 14.4 11.0381 14.3087C11.0759 14.2173 11.14 14.1392 11.2222 14.0843Z" fill="#B27C00"/>
</g>
<defs>
<clipPath id="clip0_7202_84496">
<rect width="16" height="16" fill="white"/>
</clipPath>
</defs>
</svg>
