<svg width="16" height="16" viewBox="0 0 16 16" fill="none" xmlns="http://www.w3.org/2000/svg">
<g clip-path="url(#clip0_7202_84501)">
<path d="M14.8 5.41L15.3 5.719C15.515 5.85453 15.692 6.04244 15.8144 6.2651C15.9368 6.48777 16.0007 6.73789 16 6.992V10.514C16.0022 10.7665 15.9407 11.0154 15.8212 11.2377C15.7016 11.4601 15.5278 11.6487 15.316 11.786L10.91 14.586C10.6708 14.7372 10.3938 14.818 10.1109 14.8191C9.82788 14.8201 9.55032 14.7414 9.31 14.592L8.71 14.221C8.49426 14.0862 8.31636 13.8987 8.19304 13.6762C8.06971 13.4536 8.005 13.2034 8.005 12.949V11.641L7.305 12.086C7.20873 12.1468 7.10637 12.1961 6.99997 12.2335V12C7 11.7216 6.94195 11.4483 6.83165 11.1967L8 10.449V9.549C7.99984 9.29664 8.06336 9.04831 8.18467 8.82701C8.30598 8.60572 8.48116 8.41861 8.694 8.283L11.5 6.5V4.554C11.5 4.4692 11.4784 4.38579 11.4373 4.31162C11.3962 4.23744 11.3369 4.17495 11.265 4.13L8.271 2.258C8.19101 2.20869 8.09897 2.1824 8.005 2.182C7.90973 2.18184 7.8164 2.20891 7.736 2.26L3.231 5.124C3.16012 5.16924 3.10179 5.23163 3.06141 5.30539C3.02103 5.37916 2.99991 5.46191 3 5.546V6.04306C2.7068 6.1029 2.42536 6.21519 2.16969 6.37587C2.11141 6.4125 2.0548 6.45143 2 6.49253V5.549C2.00048 5.29608 2.06491 5.04738 2.1873 4.82604C2.30968 4.6047 2.48605 4.41789 2.7 4.283L7.2 1.416C7.43948 1.26556 7.71633 1.18526 7.99914 1.1842C8.28195 1.18314 8.5594 1.26136 8.8 1.41L11.8 3.282C12.0148 3.41744 12.1917 3.60519 12.3142 3.82767C12.4366 4.05014 12.5005 4.30006 12.5 4.554V5.861L13.2 5.416C13.4394 5.26534 13.7163 5.1849 13.9991 5.18384C14.282 5.18278 14.5595 5.26114 14.8 5.41Z" fill="#202020"/>
<path d="M5.87456 7.71066C5.84065 7.60768 5.79995 7.50665 5.75259 7.40826C5.54846 6.98417 5.22875 6.62631 4.83025 6.37587C4.59264 6.22654 4.33278 6.11901 4.06191 6.05653L4.06249 6.05555C4.09635 5.99844 4.14125 5.94865 4.19456 5.90909C4.24787 5.86952 4.30853 5.84096 4.37299 5.82509C4.43745 5.80921 4.50443 5.80634 4.57002 5.81662C4.63561 5.82691 4.69849 5.85015 4.755 5.885L6.49 6.913L9.735 4.889C9.79061 4.85093 9.85334 4.8245 9.91943 4.81129C9.98551 4.79808 10.0536 4.79837 10.1196 4.81214C10.1855 4.8259 10.248 4.85286 10.3033 4.89139C10.3586 4.92993 10.4055 4.97924 10.4413 5.03637C10.477 5.0935 10.5009 5.15727 10.5113 5.22384C10.5218 5.29041 10.5187 5.35841 10.5023 5.42376C10.4858 5.48911 10.4563 5.55046 10.4155 5.60412C10.3748 5.65777 10.3236 5.70263 10.265 5.736L7 7.777V9.5C7 9.63261 6.94732 9.75979 6.85355 9.85356C6.75979 9.94732 6.63261 10 6.5 10C6.36739 10 6.24021 9.94732 6.14645 9.85356C6.05268 9.75979 6 9.63261 6 9.5V7.785L5.87456 7.71066Z" fill="#202020"/>
<path fill-rule="evenodd" clip-rule="evenodd" d="M5 8.5C5 9.15311 4.5826 9.70873 4 9.91465V11H5C5.26522 11 5.51957 11.1054 5.70711 11.2929C5.89464 11.4804 6 11.7348 6 12V13.0854C6.5826 13.2913 7 13.8469 7 14.5C7 15.3284 6.32843 16 5.5 16C4.67157 16 4 15.3284 4 14.5C4 13.8469 4.4174 13.2913 5 13.0854V12L2 12V13.0854C2.5826 13.2913 3 13.8469 3 14.5C3 15.3284 2.32843 16 1.5 16C0.671573 16 0 15.3284 0 14.5C0 13.8469 0.417404 13.2913 1 13.0854V12C1 11.7348 1.10536 11.4804 1.29289 11.2929C1.48043 11.1054 1.73478 11 2 11H3V9.91465C2.4174 9.70873 2 9.15311 2 8.5C2 7.67157 2.67157 7 3.5 7C4.32843 7 5 7.67157 5 8.5ZM3.5 8C3.22386 8 3 8.22386 3 8.5C3 8.77614 3.22386 9 3.5 9C3.77614 9 4 8.77614 4 8.5C4 8.22386 3.77614 8 3.5 8ZM5.5 14C5.22386 14 5 14.2239 5 14.5C5 14.7761 5.22386 15 5.5 15C5.77614 15 6 14.7761 6 14.5C6 14.2239 5.77614 14 5.5 14ZM1 14.5C1 14.2239 1.22386 14 1.5 14C1.77614 14 2 14.2239 2 14.5C2 14.7761 1.77614 15 1.5 15C1.22386 15 1 14.7761 1 14.5Z" fill="#202020"/>
</g>
<defs>
<clipPath id="clip0_7202_84501">
<rect width="16" height="16" fill="white"/>
</clipPath>
</defs>
</svg>
