<svg width="16" height="16" viewBox="0 0 16 16" fill="none" xmlns="http://www.w3.org/2000/svg">
<g clip-path="url(#clip0_7202_84481)">
<path d="M14.8 5.41L15.3 5.719C15.515 5.85453 15.692 6.04244 15.8144 6.2651C15.9368 6.48777 16.0007 6.73789 16 6.992V10.514C16.0022 10.7665 15.9407 11.0154 15.8212 11.2377C15.7016 11.4601 15.5278 11.6487 15.316 11.786L10.91 14.586C10.6708 14.7372 10.3938 14.818 10.1109 14.8191C9.87811 14.8199 9.64903 14.7669 9.44132 14.6648C9.50889 14.4276 9.51692 14.1772 9.46458 13.936C9.41133 13.6905 9.29731 13.4624 9.13298 13.2725C8.96864 13.0826 8.75925 12.9369 8.52401 12.849L8.80901 12.565C9.0904 12.2836 9.24849 11.9019 9.24849 11.504C9.24849 11.106 9.0904 10.7244 8.80901 10.443C8.58773 10.2217 8.30445 10.0767 8 10.0248V9.549C7.99984 9.29664 8.06336 9.04831 8.18467 8.82701C8.30598 8.60572 8.48116 8.41861 8.694 8.283L11.5 6.5V4.554C11.5 4.4692 11.4784 4.38579 11.4373 4.31162C11.3962 4.23744 11.3369 4.17495 11.265 4.13L8.271 2.258C8.19101 2.20869 8.09897 2.1824 8.005 2.182C7.90973 2.18184 7.8164 2.20891 7.736 2.26L3.231 5.124C3.16012 5.16924 3.10179 5.23163 3.06141 5.30539C3.02103 5.37916 2.99991 5.46191 3 5.546V7.11871C2.89536 7.15175 2.79271 7.19174 2.69275 7.23854C2.43545 7.359 2.20137 7.52207 2 7.72007V5.549C2.00048 5.29608 2.06491 5.04738 2.1873 4.82604C2.30968 4.6047 2.48605 4.41789 2.7 4.283L7.2 1.416C7.43948 1.26556 7.71633 1.18526 7.99914 1.1842C8.28195 1.18314 8.5594 1.26136 8.8 1.41L11.8 3.282C12.0148 3.41744 12.1917 3.60519 12.3142 3.82767C12.4366 4.05014 12.5005 4.30006 12.5 4.554V5.861L13.2 5.416C13.4394 5.26534 13.7163 5.1849 13.9991 5.18384C14.282 5.18278 14.5595 5.26114 14.8 5.41Z" fill="#202020"/>
<path d="M7 9.5V7.777L10.265 5.736C10.3236 5.70263 10.3748 5.65777 10.4155 5.60412C10.4563 5.55046 10.4858 5.48911 10.5023 5.42376C10.5187 5.35841 10.5218 5.29041 10.5113 5.22384C10.5009 5.15727 10.477 5.0935 10.4413 5.03637C10.4055 4.97924 10.3586 4.92993 10.3033 4.89139C10.248 4.85286 10.1855 4.8259 10.1196 4.81214C10.0536 4.79837 9.98551 4.79808 9.91943 4.81129C9.85334 4.8245 9.79061 4.85093 9.735 4.889L6.49 6.913L4.755 5.885C4.69849 5.85015 4.63561 5.82691 4.57002 5.81662C4.50443 5.80634 4.43745 5.80921 4.37299 5.82509C4.30853 5.84096 4.24787 5.86952 4.19456 5.90909C4.14125 5.94865 4.09635 5.99844 4.06249 6.05555C4.02862 6.11265 4.00647 6.17593 3.99732 6.24168C3.98817 6.30744 3.99221 6.37436 4.0092 6.43854C4.02619 6.50272 4.05579 6.56287 4.09628 6.61549C4.13676 6.6681 4.18732 6.71213 4.245 6.745L6 7.785V9.5C6 9.63261 6.05268 9.75979 6.14645 9.85356C6.24021 9.94732 6.36739 10 6.5 10C6.63261 10 6.75979 9.94732 6.85355 9.85356C6.94732 9.75979 7 9.63261 7 9.5Z" fill="#202020"/>
<path d="M8.35404 14.6L8.24004 14.713C8.1516 14.8033 8.04615 14.8751 7.92977 14.9244C7.8134 14.9736 7.68841 14.9993 7.56204 15C7.53406 15.0015 7.50602 15.0015 7.47804 15C7.3393 14.9882 7.2048 14.9463 7.08391 14.8772C6.96302 14.8081 6.85864 14.7135 6.77804 14.6L6.19004 13.776L5.10004 14.854C5.00615 14.9479 4.87881 15.0006 4.74604 15.0006C4.61326 15.0006 4.48592 14.9479 4.39204 14.854C4.29815 14.7601 4.24541 14.6328 4.24541 14.5C4.24541 14.3672 4.29815 14.2399 4.39204 14.146L5.59204 12.946L4.91804 12L4.85404 12.107C4.75987 12.1982 4.63363 12.2488 4.50253 12.2478C4.37142 12.2469 4.24594 12.1945 4.1531 12.1019C4.06026 12.0093 4.0075 11.884 4.00618 11.7529C4.00486 11.6218 4.05508 11.4954 4.14604 11.401L4.24604 11.301C4.34515 11.1991 4.46592 11.1209 4.59939 11.0721C4.73286 11.0233 4.8756 11.0051 5.01704 11.019C5.15754 11.0298 5.29397 11.0713 5.41678 11.1403C5.5396 11.2094 5.64583 11.3045 5.72804 11.419L6.31004 12.234L7.40004 11.146C7.49392 11.0521 7.62126 10.9994 7.75404 10.9994C7.88681 10.9994 8.01415 11.0521 8.10804 11.146C8.20192 11.2399 8.25467 11.3672 8.25467 11.5C8.25467 11.6328 8.20192 11.7601 8.10804 11.854L6.90804 13.054L7.59404 14.014L7.65104 13.896C7.69753 13.8495 7.75271 13.8126 7.81345 13.7875C7.87419 13.7623 7.93929 13.7494 8.00504 13.7494C8.07078 13.7494 8.13588 13.7623 8.19662 13.7875C8.25736 13.8126 8.31255 13.8495 8.35904 13.896C8.40553 13.9425 8.4424 13.9977 8.46756 14.0584C8.49272 14.1191 8.50567 14.1842 8.50567 14.25C8.50567 14.3157 8.49272 14.3808 8.46756 14.4416C8.4424 14.5023 8.40553 14.5575 8.35904 14.604L8.35404 14.6ZM3.50004 9.99999H3.20004L3.25404 9.44999C3.26619 9.36895 3.29743 9.29196 3.34518 9.22536C3.39294 9.15876 3.45584 9.10447 3.52871 9.06697C3.60157 9.02946 3.68231 9.00981 3.76425 9.00964C3.8462 9.00948 3.92702 9.02879 4.00004 9.06599C4.05692 9.09934 4.11984 9.12111 4.18517 9.13004C4.25051 9.13898 4.31696 9.1349 4.38071 9.11804C4.44446 9.10119 4.50425 9.07189 4.55663 9.03184C4.60901 8.99178 4.65295 8.94176 4.68592 8.88466C4.71889 8.82755 4.74024 8.76449 4.74874 8.6991C4.75724 8.63371 4.75272 8.56728 4.73544 8.50365C4.71817 8.44001 4.68847 8.38042 4.64807 8.32831C4.60767 8.27619 4.55736 8.23258 4.50004 8.19999C4.28274 8.07451 4.03742 8.00554 3.78657 7.99941C3.53571 7.99328 3.28732 8.05018 3.06415 8.1649C2.84098 8.27962 2.65015 8.4485 2.50914 8.65606C2.36814 8.86363 2.28146 9.10325 2.25704 9.35299L2.19404 9.99999H1.75004C1.61743 9.99999 1.49025 10.0527 1.39648 10.1464C1.30272 10.2402 1.25004 10.3674 1.25004 10.5C1.25004 10.6326 1.30272 10.7598 1.39648 10.8535C1.49025 10.9473 1.61743 11 1.75004 11H2.10004L1.75204 14.55C1.73775 14.6388 1.70055 14.7223 1.64413 14.7923C1.58771 14.8623 1.51401 14.9163 1.43031 14.9491C1.34661 14.982 1.2558 14.9924 1.16684 14.9794C1.07788 14.9664 0.993846 14.9304 0.923037 14.875C0.823067 14.7911 0.694243 14.7496 0.564086 14.7594C0.433928 14.7691 0.312756 14.8294 0.226454 14.9274C0.140153 15.0253 0.0955635 15.1531 0.102212 15.2834C0.108861 15.4138 0.16622 15.5364 0.262037 15.625C0.469153 15.8077 0.722682 15.9296 0.994684 15.9774C1.26669 16.0252 1.5466 15.997 1.80358 15.8958C2.06056 15.7947 2.28464 15.6246 2.45111 15.4042C2.61758 15.1839 2.71998 14.9218 2.74704 14.647L3.10004 11H3.50004C3.63265 11 3.75982 10.9473 3.85359 10.8535C3.94736 10.7598 4.00004 10.6326 4.00004 10.5C4.00004 10.3674 3.94736 10.2402 3.85359 10.1464C3.75982 10.0527 3.63265 9.99999 3.50004 9.99999Z" fill="#202020"/>
</g>
<defs>
<clipPath id="clip0_7202_84481">
<rect width="16" height="16" fill="white"/>
</clipPath>
</defs>
</svg>
