<svg width="16" height="16" viewBox="0 0 16 16" fill="none" xmlns="http://www.w3.org/2000/svg">
<g clip-path="url(#clip0_7202_84516)">
<path d="M13.8 5.40989L14.3 5.71889C14.515 5.85442 14.692 6.04233 14.8144 6.265C14.9368 6.48766 15.0007 6.73779 15 6.99189V10.5139C15 10.5162 15 10.5186 15 10.5209L13.2935 7.10787C13.1276 6.77505 12.8723 6.49507 12.5561 6.29937C12.2399 6.10367 11.8754 6 11.5035 6C11.1507 6 10.8046 6.09331 10.5 6.26998V4.55389C10.5 4.46909 10.4784 4.38568 10.4373 4.31151C10.3962 4.23734 10.3369 4.17484 10.265 4.12989L7.271 2.25789C7.19101 2.20859 7.09897 2.18229 7.005 2.18189C6.90973 2.18174 6.8164 2.2088 6.736 2.25989L2.231 5.12389C2.16012 5.16914 2.10179 5.23152 2.06141 5.30529C2.02103 5.37905 1.99991 5.4618 2 5.54589V6.49253C1.68014 6.73242 1.42162 7.0462 1.24735 7.40826C1.15632 7.59737 1.08992 7.79623 1.04897 8H1V5.54889C1.00048 5.29597 1.06491 5.04728 1.1873 4.82593C1.30968 4.60459 1.48605 4.41779 1.7 4.28289L6.2 1.41589C6.43948 1.26546 6.71633 1.18515 6.99914 1.18409C7.28195 1.18303 7.5594 1.26126 7.8 1.40989L10.8 3.28189C11.0148 3.41733 11.1917 3.60508 11.3142 3.82756C11.4366 4.05004 11.5005 4.29995 11.5 4.55389V5.86089L12.2 5.41589C12.4394 5.26523 12.7163 5.1848 12.9991 5.18374C13.282 5.18267 13.5595 5.26103 13.8 5.40989Z" fill="#202020"/>
<path d="M7.005 12.5108V11.6409L6.9713 11.6623C6.9314 11.4293 6.85045 11.205 6.73215 11H7V9.547C7.00016 9.29529 7.06366 9.04765 7.18467 8.82691C7.30598 8.60561 7.48116 8.4185 7.694 8.28289L9.8076 6.93986C9.77365 6.99417 9.74224 7.05023 9.71351 7.10787L7.01012 12.5147L7.005 12.5108Z" fill="#202020"/>
<path d="M6 8V7.77689L9.265 5.73589C9.32355 5.70253 9.37475 5.65767 9.41553 5.60401C9.4563 5.55035 9.48581 5.48901 9.50228 5.42366C9.51874 5.35831 9.52183 5.2903 9.51135 5.22373C9.50087 5.15716 9.47704 5.09339 9.44129 5.03626C9.40554 4.97914 9.35861 4.92982 9.30332 4.89129C9.24804 4.85275 9.18553 4.82579 9.11956 4.81203C9.05359 4.79826 8.98551 4.79798 8.91943 4.81119C8.85334 4.8244 8.79061 4.85083 8.735 4.88889L5.49 6.91289L5.38551 6.85098C5.53151 7.01868 5.65521 7.20594 5.75259 7.40826C5.84362 7.59737 5.91002 7.79623 5.95097 8H6Z" fill="#202020"/>
<path d="M4.03414 6.05029L4 6.03006V6.04307C4.0114 6.0454 4.02278 6.0478 4.03414 6.05029Z" fill="#202020"/>
<path fill-rule="evenodd" clip-rule="evenodd" d="M5 8.5C5 9.15311 4.5826 9.70873 4 9.91465V11H5C5.26522 11 5.51957 11.1054 5.70711 11.2929C5.89464 11.4804 6 11.7348 6 12V13.0854C6.5826 13.2913 7 13.8469 7 14.5C7 15.3284 6.32843 16 5.5 16C4.67157 16 4 15.3284 4 14.5C4 13.8469 4.4174 13.2913 5 13.0854V12L2 12V13.0854C2.5826 13.2913 3 13.8469 3 14.5C3 15.3284 2.32843 16 1.5 16C0.671573 16 0 15.3284 0 14.5C0 13.8469 0.417404 13.2913 1 13.0854V12C1 11.7348 1.10536 11.4804 1.29289 11.2929C1.48043 11.1054 1.73478 11 2 11H3V9.91465C2.4174 9.70873 2 9.15311 2 8.5C2 7.67157 2.67157 7 3.5 7C4.32843 7 5 7.67157 5 8.5ZM3.5 8C3.22386 8 3 8.22386 3 8.5C3 8.77614 3.22386 9 3.5 9C3.77614 9 4 8.77614 4 8.5C4 8.22386 3.77614 8 3.5 8ZM5.5 14C5.22386 14 5 14.2239 5 14.5C5 14.7761 5.22386 15 5.5 15C5.77614 15 6 14.7761 6 14.5C6 14.2239 5.77614 14 5.5 14ZM1 14.5C1 14.2239 1.22386 14 1.5 14C1.77614 14 2 14.2239 2 14.5C2 14.7761 1.77614 15 1.5 15C1.22386 15 1 14.7761 1 14.5Z" fill="#202020"/>
<path fill-rule="evenodd" clip-rule="evenodd" d="M12.3931 7.55201L15.8931 14.552C15.9694 14.7044 16.0056 14.8738 15.9981 15.044C15.9906 15.2143 15.9397 15.3799 15.8502 15.5249C15.7607 15.67 15.6357 15.7898 15.4869 15.8729C15.3381 15.9561 15.1705 15.9998 15.0001 16H8.00006C7.8292 16.0007 7.66101 15.9576 7.51154 15.8748C7.36207 15.792 7.23631 15.6723 7.14625 15.5271C7.0562 15.3818 7.00486 15.216 6.99712 15.0453C6.98938 14.8746 7.02551 14.7048 7.10206 14.552L10.6021 7.55201C10.6849 7.38534 10.8126 7.24509 10.9708 7.14705C11.129 7.04901 11.3114 6.99707 11.4976 6.99707C11.6837 6.99707 11.8661 7.04901 12.0243 7.14705C12.1825 7.24509 12.3102 7.38534 12.3931 7.55201ZM12 12.495V9.495C12 9.36239 11.9473 9.23521 11.8536 9.14144C11.7598 9.04767 11.6326 8.995 11.5 8.995C11.3674 8.995 11.2402 9.04767 11.1464 9.14144C11.0527 9.23521 11 9.36239 11 9.495V12.495C11 12.6276 11.0527 12.7548 11.1464 12.8485C11.2402 12.9423 11.3674 12.995 11.5 12.995C11.6326 12.995 11.7598 12.9423 11.8536 12.8485C11.9473 12.7548 12 12.6276 12 12.495ZM11.2222 14.0843C11.3044 14.0293 11.4011 14 11.5 14C11.6326 14 11.7598 14.0527 11.8536 14.1464C11.9473 14.2402 12 14.3674 12 14.5C12 14.5989 11.9707 14.6956 11.9157 14.7778C11.8608 14.86 11.7827 14.9241 11.6913 14.9619C11.6 14.9998 11.4994 15.0097 11.4025 14.9904C11.3055 14.9711 11.2164 14.9235 11.1464 14.8535C11.0765 14.7836 11.0289 14.6945 11.0096 14.5975C10.9903 14.5006 11.0002 14.4 11.0381 14.3087C11.0759 14.2173 11.14 14.1392 11.2222 14.0843Z" fill="#B27C00"/>
</g>
<defs>
<clipPath id="clip0_7202_84516">
<rect width="16" height="16" fill="white"/>
</clipPath>
</defs>
</svg>
