<svg width="16" height="16" viewBox="0 0 16 16" fill="none" xmlns="http://www.w3.org/2000/svg">
<path d="M5.14645 6.14645C5.34171 5.95118 5.65829 5.95118 5.85355 6.14645C6.04882 6.34171 6.04882 6.65829 5.85355 6.85355L5.20711 7.5L5.85355 8.14645C6.04882 8.34171 6.04882 8.65829 5.85355 8.85355C5.65829 9.04882 5.34171 9.04882 5.14645 8.85355L4.5 8.20711L3.85355 8.85355C3.65829 9.04882 3.34171 9.04882 3.14645 8.85355C2.95118 8.65829 2.95118 8.34171 3.14645 8.14645L3.79289 7.5L3.14645 6.85355C2.95118 6.65829 2.95118 6.34171 3.14645 6.14645C3.34171 5.95118 3.65829 5.95118 3.85355 6.14645L4.5 6.79289L5.14645 6.14645Z" fill="#202020"/>
<path d="M9.85355 6.85355C10.0488 6.65829 10.0488 6.34171 9.85355 6.14645C9.65829 5.95118 9.34171 5.95118 9.14645 6.14645L8.5 6.79289L7.85355 6.14645C7.65829 5.95118 7.34171 5.95118 7.14645 6.14645C6.95118 6.34171 6.95118 6.65829 7.14645 6.85355L7.79289 7.5L7.14645 8.14645C6.95118 8.34171 6.95118 8.65829 7.14645 8.85355C7.34171 9.04882 7.65829 9.04882 7.85355 8.85355L8.5 8.20711L9.14645 8.85355C9.24408 8.95118 9.37204 9 9.5 9C9.50012 8.63974 9.56402 8.29413 9.68098 7.97388L9.20711 7.5L9.85355 6.85355Z" fill="#202020"/>
<path d="M14 6.40271V5.5C14 4.67157 13.3284 4 12.5 4H3.5C2.67157 4 2 4.67157 2 5.5V9.5C2 10.3284 2.67157 11 3.5 11H8V12H3.5C2.11929 12 1 10.8807 1 9.5V5.5C1 4.11929 2.11929 3 3.5 3H12.5C13.8807 3 15 4.11929 15 5.5V7.34347C14.7439 6.95828 14.4012 6.63535 14 6.40271Z" fill="#202020"/>
<path d="M10.5 9V10H9.875C9.392 10 9 10.403 9 10.9V15.1C9 15.597 9.392 16 9.875 16H15.125C15.608 16 16 15.597 16 15.1V10.9C16 10.403 15.608 10 15.125 10H14.5V9C14.5 7.895 13.605 7 12.5 7C11.395 7 10.5 7.895 10.5 9ZM12.5 8C13.052 8 13.5 8.448 13.5 9V10H11.5V9C11.5 8.448 11.948 8 12.5 8ZM12.5 13.75C12.086 13.75 11.75 13.414 11.75 13C11.75 12.586 12.086 12.25 12.5 12.25C12.914 12.25 13.25 12.586 13.25 13C13.25 13.414 12.914 13.75 12.5 13.75Z" fill="#202020"/>
</svg>
