<svg width="16" height="16" viewBox="0 0 16 16" fill="none" xmlns="http://www.w3.org/2000/svg">
<g clip-path="url(#clip0_7202_84521)">
<path d="M0.5 7.00025C0.224 7.00025 0 7.22425 0 7.50025C0 7.77625 0.224 8.00025 0.5 8.00025H2.011C2.004 7.83425 2 7.66725 2 7.50025C2 7.33325 2.004 7.16625 2.011 7.00025H0.5ZM15.854 7.14625L13.854 5.14625C13.659 4.95125 13.342 4.95125 13.147 5.14625C12.952 5.34125 12.952 5.65825 13.147 5.85325L14.293 6.99925H10.015C10.007 7.15825 10 7.32125 10 7.49925C10 7.67725 10.007 7.84025 10.015 7.99925H14.293L13.147 9.14525C12.952 9.34025 12.952 9.65725 13.147 9.85225C13.245 9.95025 13.373 9.99825 13.501 9.99825C13.629 9.99825 13.757 9.94925 13.855 9.85225L15.855 7.85225C16.05 7.65725 16.05 7.34025 15.855 7.14525L15.854 7.14625Z" fill="#006CBF"/>
<path d="M10 11C9.71 11 9 9.773 9 7.5C9 5.227 9.71 4 10 4C10.218 4 10.672 4.692 10.885 6H11.889C11.65 4.354 11.014 3 10 3H5C3.687 3 3 5.264 3 7.5C3 9.736 3.687 12 5 12H10C11.014 12 11.65 10.646 11.889 9H10.885C10.672 10.308 10.218 11 10 11ZM4 7.5C4 5.227 4.71 4 5 4H8.709C8.245 4.868 8 6.183 8 7.5C8 8.817 8.245 10.132 8.709 11H5C4.71 11 4 9.773 4 7.5Z" fill="#202020"/>
</g>
<defs>
<clipPath id="clip0_7202_84521">
<rect width="16" height="16" fill="white"/>
</clipPath>
</defs>
</svg>
