<svg width="16" height="16" viewBox="0 0 16 16" fill="none" xmlns="http://www.w3.org/2000/svg">
<path fill-rule="evenodd" clip-rule="evenodd" d="M6.5 1C5.84689 1 5.29127 1.4174 5.08535 2H4.5C3.67157 2 3 2.67157 3 3.5V7H4V3.5C4 3.22386 4.22386 3 4.5 3H5.08535C5.29127 3.5826 5.84689 4 6.5 4H9.5C10.1531 4 10.7087 3.5826 10.9146 3H11.5C11.7761 3 12 3.22386 12 3.5V13.5C12 13.7761 11.7761 14 11.5 14H9C9 14.3506 8.93985 14.6872 8.82929 15H11.5C12.3284 15 13 14.3284 13 13.5V3.5C13 2.67157 12.3284 2 11.5 2H10.9146C10.7087 1.4174 10.1531 1 9.5 1H6.5ZM6 2.5C6 2.22386 6.22386 2 6.5 2H9.5C9.77614 2 10 2.22386 10 2.5C10 2.77614 9.77614 3 9.5 3H6.5C6.22386 3 6 2.77614 6 2.5Z" fill="#202020"/>
<path fill-rule="evenodd" clip-rule="evenodd" d="M0 10V14C0 15.1046 0.89543 16 2 16H6C7.10457 16 8 15.1046 8 14V10C8 8.89543 7.10457 8 6 8H2C0.89543 8 0 8.89543 0 10ZM2 9C1.44772 9 1 9.44772 1 10H2V9ZM7 13V11H6V13H7ZM6 14H7C7 14.5523 6.55228 15 6 15V14ZM5 13V11H3V13H5ZM3 14H5V15H3V14ZM2 13V11H1V13H2ZM1 14H2V15C1.44772 15 1 14.5523 1 14ZM6 9C6.55228 9 7 9.44772 7 10H6V9ZM5 9V10H3V9H5Z" fill="#202020"/>
</svg>
