<svg width="16" height="16" viewBox="0 0 16 16" fill="none" xmlns="http://www.w3.org/2000/svg">
<path d="M15.858 3.849C15.977 3.727 16.025 3.554 15.987 3.389C15.949 3.223 15.83 3.088 15.671 3.031L10.171 1.031C9.99 0.964004 9.784 1.01 9.647 1.147L7.772 3.022C7.637 3.04 7.502 3.069 7.37 3.12L2.555 5.077L0.683001 4.347C0.427 4.247 0.137 4.373 0.0360004 4.63C-0.0649996 4.886 0.0610004 5.176 0.317 5.277L2.001 5.944V11.614C2.001 11.963 2.105 12.299 2.302 12.586C2.498 12.874 2.774 13.092 3.099 13.219L7.377 14.883C7.578 14.961 7.789 15 8 15C8.211 15 8.422 14.961 8.624 14.883L12.902 13.219C13.227 13.093 13.503 12.874 13.699 12.587C13.896 12.299 14 11.963 14 11.614V5.761C14 5.761 14.001 5.754 14.002 5.751L15.858 3.849ZM10.129 2.078L14.602 3.704L13.374 4.963L8.961 3.246L10.13 2.077L10.129 2.078ZM7.739 4.049C7.908 3.984 8.094 3.984 8.262 4.049L12.176 5.571L8.001 7.195L3.912 5.605L7.739 4.05V4.049ZM3.461 12.288C3.324 12.235 3.209 12.143 3.126 12.022C3.043 11.901 3 11.761 3 11.615V6.341L5.363 7.277L7.5 8.079V13.86L3.461 12.288ZM12.873 12.022C12.79 12.143 12.675 12.234 12.539 12.288L8.5 13.858V8.073L13 6.323V11.614C13 11.76 12.956 11.901 12.873 12.022ZM4.031 8.243C4.128 7.984 4.415 7.854 4.675 7.951L6.175 8.513C6.433 8.61 6.564 8.898 6.467 9.157C6.392 9.358 6.201 9.481 5.999 9.481C5.94 9.481 5.881 9.471 5.823 9.449L4.323 8.887C4.065 8.79 3.934 8.502 4.031 8.243ZM6.468 11.157C6.393 11.358 6.202 11.481 6 11.481C5.941 11.481 5.882 11.471 5.824 11.449L4.324 10.887C4.066 10.79 3.935 10.502 4.032 10.243C4.129 9.984 4.416 9.854 4.676 9.951L6.176 10.513C6.434 10.61 6.565 10.898 6.468 11.157Z" fill="#202020"/>
</svg>
