<svg width="16" height="16" viewBox="0 0 16 16" fill="none" xmlns="http://www.w3.org/2000/svg">
<g clip-path="url(#clip0_7202_84595)">
<path d="M5.99991 5.759V5C5.99991 4.449 5.55191 4 4.99991 4H2.99991C2.44791 4 1.99991 4.449 1.99991 5V5.75L0.19991 7.1C-0.0210895 7.266 -0.0660895 7.579 0.0989105 7.8C0.19791 7.931 0.34791 8 0.49891 8C0.60291 8 0.70891 7.967 0.79891 7.9L1.99891 7C1.99891 7.552 2.44691 8 2.99891 8H4.99891C5.53791 8 5.97191 7.569 5.99191 7.035L10.1869 10.391C10.2799 10.465 10.3889 10.5 10.4989 10.5C10.6449 10.5 10.7909 10.436 10.8899 10.312C11.0619 10.096 11.0279 9.782 10.8119 9.609L5.99991 5.759ZM4.99991 7H2.99991V5H4.99991V7ZM15.7999 8.9L13.7999 10.4C13.7099 10.467 13.6049 10.5 13.4999 10.5C13.3489 10.5 13.1979 10.431 13.0999 10.3C12.9349 10.079 12.9799 9.766 13.2009 9.6L15.2009 8.1C15.4209 7.935 15.7339 7.978 15.9009 8.2C16.0659 8.421 16.0209 8.734 15.7999 8.9Z" fill="#202020"/>
<path d="M13 12.0002H11C10.448 12.0002 10 11.5512 10 11.0002V9.00023C10 8.44923 10.448 8.00023 11 8.00023H13C13.552 8.00023 14 8.44923 14 9.00023V11.0002C14 11.5512 13.552 12.0002 13 12.0002ZM11 9.00023V11.0002H13V9.00023H11ZM12.354 6.35423L13.854 4.85423C14.049 4.65923 14.049 4.34223 13.854 4.14723C13.659 3.95223 13.342 3.95223 13.147 4.14723L12.001 5.29323L10.855 4.14723C10.66 3.95223 10.343 3.95223 10.148 4.14723C9.953 4.34223 9.953 4.65923 10.148 4.85423L11.648 6.35423C11.746 6.45223 11.874 6.50023 12.002 6.50023C12.13 6.50023 12.258 6.45123 12.356 6.35423H12.354Z" fill="#006CBF"/>
</g>
<defs>
<clipPath id="clip0_7202_84595">
<rect width="16" height="16" fill="white"/>
</clipPath>
</defs>
</svg>
