<svg width="16" height="16" viewBox="0 0 16 16" fill="none" xmlns="http://www.w3.org/2000/svg">
<path d="M15 11H14C13.448 11 13 11.449 13 12H4V3C4.552 3 5 2.551 5 2V1C5 0.449 4.552 0 4 0H3C2.448 0 2 0.449 2 1V2C2 2.551 2.448 3 3 3V12.5C3 12.776 3.224 13 3.5 13H13C13 13.551 13.448 14 14 14H15C15.552 14 16 13.551 16 13V12C16 11.449 15.552 11 15 11ZM3 2V1H4V2H3ZM15 13H14V12H15V13ZM6 8.5C6 8.224 6.224 8 6.5 8C6.776 8 7 8.224 7 8.5C7 8.776 6.776 9 6.5 9C6.224 9 6 8.776 6 8.5ZM8 8.5C8 8.224 8.224 8 8.5 8C8.776 8 9 8.224 9 8.5C9 8.776 8.776 9 8.5 9C8.224 9 8 8.776 8 8.5ZM9 5.5C9 5.224 9.224 5 9.5 5C9.725 5 10 4.724 10 4.5V4.461C10 4.185 10.224 3.961 10.5 3.961C10.776 3.961 11 4.185 11 4.461V8.5C11 8.776 10.776 9 10.5 9C10.224 9 10 8.776 10 8.5V5.899C9.841 5.963 9.671 6 9.5 6C9.224 6 9 5.776 9 5.5Z" fill="#202020"/>
</svg>
