<svg width="16" height="16" viewBox="0 0 16 16" fill="none" xmlns="http://www.w3.org/2000/svg">
<path fill-rule="evenodd" clip-rule="evenodd" d="M14 11H13C12.448 11 12 11.449 12 12H3V3C3.552 3 4 2.551 4 2V1C4 0.449 3.552 0 3 0H2C1.448 0 1 0.449 1 1V2C1 2.551 1.448 3 2 3V12.5C2 12.776 2.224 13 2.5 13H12C12 13.551 12.448 14 13 14H14C14.552 14 15 13.551 15 13V12C15 11.449 14.552 11 14 11ZM2 1H3V2H2V1ZM14 13H13V12H14V13Z" fill="#202020"/>
<path d="M13.5 4.00398V4.00198C12.711 4.00198 11.964 4.37598 11.502 5.00198L11.5 5.00398V5.00598H11.498L9.70198 7.40098C9.70198 7.40098 9.70198 7.40298 9.69998 7.40398L9.69798 7.40598C9.42398 7.77898 8.97598 8.00198 8.50098 8.00198C7.67398 8.00198 7.00098 7.32898 7.00098 6.50198C7.00098 5.67498 7.67398 5.00198 8.50098 5.00198C8.82598 5.00198 9.14598 5.10798 9.40298 5.29998C9.62398 5.46698 9.93798 5.42198 10.103 5.19998C10.269 4.97898 10.224 4.66598 10.003 4.49998C9.57398 4.17798 9.04098 4.00098 8.50198 4.00098C7.12298 4.00098 6.00098 5.12398 6.00098 6.50198C6.00098 7.87998 7.12298 9.00198 8.50098 9.00198C9.29198 9.00198 10.038 8.62798 10.5 8.00198H10.502V7.99898H10.504L12.3 5.60398C12.3 5.60398 12.3 5.60198 12.302 5.60098L12.304 5.59898C12.578 5.22598 13.026 5.00298 13.501 5.00298C14.328 5.00298 15.001 5.67598 15.001 6.50298C15.001 7.32998 14.328 8.00298 13.501 8.00298C13.176 8.00298 12.856 7.89698 12.599 7.70498C12.378 7.53998 12.065 7.58398 11.899 7.80498C11.733 8.02598 11.778 8.33898 11.999 8.50498C12.428 8.82698 12.961 9.00398 13.5 9.00398C14.878 9.00398 16 7.88198 16 6.50398C16 5.12598 14.878 4.00398 13.5 4.00398Z" fill="#202020"/>
<path d="M5 8.5C5 8.77614 4.77614 9 4.5 9C4.22386 9 4 8.77614 4 8.5C4 8.22386 4.22386 8 4.5 8C4.77614 8 5 8.22386 5 8.5Z" fill="#202020"/>
</svg>
