<svg width="16" height="16" viewBox="0 0 16 16" fill="none" xmlns="http://www.w3.org/2000/svg">
<g clip-path="url(#clip0_7202_84592)">
<path d="M15.8999 8.2C15.7329 7.978 15.4199 7.935 15.1999 8.1L13.9999 9C13.9999 8.448 13.5519 8 12.9999 8H10.9999C10.4609 8 10.0269 8.431 10.0069 8.965L5.99991 5.759V5C5.99991 4.449 5.55191 4 4.99991 4H2.99991C2.44791 4 1.99991 4.449 1.99991 5V5.75L0.19991 7.1C-0.0210895 7.266 -0.0660895 7.579 0.0989105 7.8C0.19791 7.931 0.34791 8 0.49891 8C0.60291 8 0.70891 7.967 0.79891 7.9L1.99891 7C1.99891 7.552 2.44691 8 2.99891 8H4.99891C5.53791 8 5.97191 7.569 5.99191 7.035L9.99891 10.241V11C9.99891 11.551 10.4469 12 10.9989 12H12.9989C13.5509 12 13.9989 11.551 13.9989 11V10.25L15.7989 8.9C16.0199 8.734 16.0649 8.421 15.8999 8.2ZM4.99991 7H2.99991V5H4.99991V7ZM12.9999 11H10.9999V9H12.9999V11Z" fill="#202020"/>
</g>
<defs>
<clipPath id="clip0_7202_84592">
<rect width="16" height="16" fill="white"/>
</clipPath>
</defs>
</svg>
