<svg width="16" height="16" viewBox="0 0 16 16" fill="none" xmlns="http://www.w3.org/2000/svg">
<path fill-rule="evenodd" clip-rule="evenodd" d="M5 1C3.89543 1 3 1.89543 3 3V8.02838C3.16522 8.00974 3.33212 8.00019 3.5 8C3.66762 8 3.83453 8.00936 4 8.02786V3C4 2.44772 4.44772 2 5 2H8V4.5C8 5.32843 8.67157 6 9.5 6H12V13C12 13.5523 11.5523 14 11 14H7.74264C7.61779 14.3531 7.44941 14.6891 7.24166 15H11C12.1046 15 13 14.1046 13 13V5.41421C13 5.01639 12.842 4.63486 12.5607 4.35355L9.64645 1.43934C9.36514 1.15804 8.98361 1 8.58579 1H5ZM11.7929 5H9.5C9.22386 5 9 4.77614 9 4.5V2.20711L11.7929 5Z" fill="#202020"/>
<path d="M6.32843 9C6.22298 8.91479 6.11344 8.83414 6.00006 8.75839C5.70286 8.5598 5.38469 8.39841 5.05268 8.27636C5.13477 8.11249 5.30425 8 5.5 8H10.5C10.7761 8 11 8.22386 11 8.5C11 8.77614 10.7761 9 10.5 9H6.32843Z" fill="#202020"/>
<path d="M7.74264 11C7.71625 10.9254 7.68786 10.8513 7.65746 10.7779C7.54412 10.5043 7.40462 10.2439 7.24166 10H10.5C10.7761 10 11 10.2239 11 10.5C11 10.7761 10.7761 11 10.5 11H7.74264Z" fill="#202020"/>
<path d="M7.97214 13C8.00939 12.6668 8.00919 12.3314 7.97213 12H10.5C10.7761 12 11 12.2239 11 12.5C11 12.7761 10.7761 13 10.5 13H7.97214Z" fill="#202020"/>
<path d="M0 12.5C0 14.433 1.567 16 3.5 16C5.433 16 7 14.433 7 12.5C7 10.567 5.433 9 3.5 9C1.567 9 0 10.567 0 12.5Z" fill="#202020"/>
</svg>
