<svg width="16" height="16" viewBox="0 0 16 16" fill="none" xmlns="http://www.w3.org/2000/svg">
<g clip-path="url(#clip0_7202_84711)">
<path d="M9 11.501C9 13.9863 6.98528 16.001 4.5 16.001C2.01472 16.001 0 13.9863 0 11.501C0 9.0157 2.01472 7.00098 4.5 7.00098C6.98528 7.00098 9 9.0157 9 11.501ZM4.5 9.00098C4.22386 9.00098 4 9.22483 4 9.50098V11.501C4 11.7771 4.22386 12.001 4.5 12.001H6C6.27614 12.001 6.5 11.7771 6.5 11.501C6.5 11.2248 6.27614 11.001 6 11.001H5V9.50098C5 9.22483 4.77614 9.00098 4.5 9.00098Z" fill="#202020"/>
<path d="M11.9999 3.29398V1.70798L13.1459 2.85498C13.2398 2.94886 13.3671 3.00161 13.4999 3.00161C13.6327 3.00161 13.76 2.94886 13.8539 2.85498C13.9478 2.76109 14.0005 2.63375 14.0005 2.50098C14.0005 2.3682 13.9478 2.24086 13.8539 2.14698L11.8539 0.146976C11.8075 0.100413 11.7523 0.0634707 11.6915 0.0382643C11.6308 0.0130578 11.5657 8.29697e-05 11.4999 8.29697e-05C11.4341 8.29697e-05 11.369 0.0130578 11.3083 0.0382643C11.2475 0.0634707 11.1923 0.100413 11.1459 0.146976L9.1459 2.14698C9.05201 2.24086 8.99927 2.3682 8.99927 2.50098C8.99927 2.63375 9.05201 2.76109 9.1459 2.85498C9.23979 2.94886 9.36713 3.00161 9.4999 3.00161C9.63268 3.00161 9.76001 2.94886 9.8539 2.85498L10.9999 1.70798V6.50098C10.9999 6.63358 11.0526 6.76076 11.1463 6.85453C11.2401 6.9483 11.3673 7.00098 11.4999 7.00098C11.6325 7.00098 11.7597 6.9483 11.8535 6.85453C11.9472 6.76076 11.9999 6.63358 11.9999 6.50098V4.70798L12.9999 5.70798V6.50098C12.9999 6.63358 13.0526 6.76076 13.1463 6.85453C13.2401 6.9483 13.3673 7.00098 13.4999 7.00098C13.6325 7.00098 13.7597 6.9483 13.8535 6.85453C13.9472 6.76076 13.9999 6.63358 13.9999 6.50098V5.50098C14 5.43527 13.9872 5.37019 13.9621 5.30945C13.9371 5.2487 13.9003 5.1935 13.8539 5.14698L11.9999 3.29398Z" fill="#11910D"/>
</g>
<defs>
<clipPath id="clip0_7202_84711">
<rect width="16" height="16" fill="white"/>
</clipPath>
</defs>
</svg>
