<svg width="16" height="16" viewBox="0 0 16 16" fill="none" xmlns="http://www.w3.org/2000/svg">
<g clip-path="url(#clip0_7202_84718)">
<path d="M8 1.5C8 1.22386 8.22386 1 8.5 1H11.5C11.7761 1 12 1.22386 12 1.5C12 1.77614 11.7761 2 11.5 2H10.5V12H11.5C11.7761 12 12 12.2239 12 12.5C12 12.7761 11.7761 13 11.5 13H9.79324C9.92793 12.5235 10 12.0206 10 11.501C10 10.682 9.821 9.90485 9.5 9.20649V2H8.5C8.22386 2 8 1.77614 8 1.5Z" fill="#202020"/>
<path d="M5 6.0234V5C5 4.44771 5.44771 4 6 4H8.5V3H6C4.89543 3 4 3.89543 4 5V6.0234C4.16468 6.00856 4.33146 6.00098 4.5 6.00098C4.66854 6.00098 4.83532 6.00856 5 6.0234Z" fill="#202020"/>
<path d="M11.5 9.99726H14C14.5523 9.99726 15 9.54955 15 8.99727V5C15 4.44772 14.5523 4 14 4H11.5V3H14C15.1046 3 16 3.89543 16 5V8.99727C16 10.1018 15.1046 10.9973 14 10.9973H11.5V9.99726Z" fill="#202020"/>
<path d="M9 11.501C9 13.9863 6.98528 16.001 4.5 16.001C2.01472 16.001 0 13.9863 0 11.501C0 9.0157 2.01472 7.00098 4.5 7.00098C6.98528 7.00098 9 9.0157 9 11.501ZM4.5 9.00098C4.22386 9.00098 4 9.22483 4 9.50098V11.501C4 11.7771 4.22386 12.001 4.5 12.001H6C6.27614 12.001 6.5 11.7771 6.5 11.501C6.5 11.2248 6.27614 11.001 6 11.001H5V9.50098C5 9.22483 4.77614 9.00098 4.5 9.00098Z" fill="#202020"/>
</g>
<defs>
<clipPath id="clip0_7202_84718">
<rect width="16" height="16" fill="white"/>
</clipPath>
</defs>
</svg>
