<svg width="16" height="16" viewBox="0 0 16 16" fill="none" xmlns="http://www.w3.org/2000/svg">
<g clip-path="url(#clip0_7202_84688)">
<path fill-rule="evenodd" clip-rule="evenodd" d="M13.76 10H15C15.552 10 16 10.448 16 11V14C16 14.552 15.552 15 15 15H12C11.448 15 11 14.552 11 14V11C11 10.448 11.448 10 12 10H12.54L9.74 6H9.26L8.23527 7.4639C7.99062 7.23742 7.72533 7.03291 7.44255 6.85349L8.04 6H8C7.448 6 7 5.552 7 5V2C7 1.448 7.448 1 8 1H11C11.552 1 12 1.448 12 2V5C12 5.552 11.552 6 11 6H10.96L13.76 10ZM11 2H8V5H11V2ZM12 14H15V11H12V14Z" fill="#202020"/>
<path d="M9 11.501C9 13.9863 6.98528 16.001 4.5 16.001C2.01472 16.001 0 13.9863 0 11.501C0 9.0157 2.01472 7.00098 4.5 7.00098C6.98528 7.00098 9 9.0157 9 11.501ZM4.5 9.00098C4.22386 9.00098 4 9.22483 4 9.50098V11.501C4 11.7771 4.22386 12.001 4.5 12.001H6C6.27614 12.001 6.5 11.7771 6.5 11.501C6.5 11.2248 6.27614 11.001 6 11.001H5V9.50098C5 9.22483 4.77614 9.00098 4.5 9.00098Z" fill="#202020"/>
</g>
<defs>
<clipPath id="clip0_7202_84688">
<rect width="16" height="16" fill="white"/>
</clipPath>
</defs>
</svg>
