<svg width="16" height="16" viewBox="0 0 16 16" fill="none" xmlns="http://www.w3.org/2000/svg">
<g clip-path="url(#clip0_7202_84669)">
<path d="M6.00025 4.08625C6.00025 4.48625 6.15625 4.86325 6.43925 5.14725L8.08525 6.79325L8.79225 6.08625L7.14625 4.44025C7.05325 4.34725 7.00025 4.21825 7.00025 4.08625V2.70725L8.14625 3.85325C8.34125 4.04825 8.65825 4.04825 8.85325 3.85325C9.04825 3.65825 9.04825 3.34125 8.85325 3.14625L6.85325 1.14625C6.65825 0.95125 6.34125 0.95125 6.14625 1.14625L4.14625 3.14625C3.95125 3.34125 3.95125 3.65825 4.14625 3.85325C4.24425 3.95125 4.37225 3.99925 4.50025 3.99925C4.62825 3.99925 4.75625 3.95025 4.85425 3.85325L6.00025 2.70725V4.08625Z" fill="#006CBF"/>
<path d="M10.9143 8.20703L10.2073 8.91403L11.8533 10.56C11.9463 10.653 11.9993 10.782 11.9993 10.914V12.5C11.9993 12.776 12.2233 13 12.4993 13C12.7753 13 12.9993 12.776 12.9993 12.5V10.914C12.9993 10.514 12.8433 10.137 12.5603 9.85303L10.9143 8.20703Z" fill="#006CBF"/>
<path d="M12.854 1.14625L14.854 3.14625C15.049 3.34125 15.049 3.65825 14.854 3.85325C14.756 3.95025 14.628 3.99925 14.5 3.99925C14.372 3.99925 14.244 3.95125 14.146 3.85325L13 2.70725V4.08625C13 4.48725 12.844 4.86425 12.561 5.14725L9.14838 8.55984C8.96767 8.27482 8.76146 8.00756 8.53296 7.76126L11.854 4.44025C11.946 4.34625 12 4.21725 12 4.08625V2.70725L10.854 3.85325C10.659 4.04825 10.342 4.04825 10.147 3.85325C9.95198 3.65825 9.95198 3.34125 10.147 3.14625L12.147 1.14625C12.342 0.95125 12.659 0.95125 12.854 1.14625Z" fill="#202020"/>
<path d="M9 11.501C9 13.9863 6.98528 16.001 4.5 16.001C2.01472 16.001 0 13.9863 0 11.501C0 9.0157 2.01472 7.00098 4.5 7.00098C6.98528 7.00098 9 9.0157 9 11.501ZM4.5 9.00098C4.22386 9.00098 4 9.22483 4 9.50098V11.501C4 11.7771 4.22386 12.001 4.5 12.001H6C6.27614 12.001 6.5 11.7771 6.5 11.501C6.5 11.2248 6.27614 11.001 6 11.001H5V9.50098C5 9.22483 4.77614 9.00098 4.5 9.00098Z" fill="#202020"/>
</g>
<defs>
<clipPath id="clip0_7202_84669">
<rect width="16" height="16" fill="white"/>
</clipPath>
</defs>
</svg>
