<svg width="16" height="16" viewBox="0 0 16 16" fill="none" xmlns="http://www.w3.org/2000/svg">
<path d="M9.5 12H6.5C6.311 12 6.138 12.107 6.053 12.276C5.968 12.445 5.987 12.648 6.1 12.799L7.6 14.799C7.695 14.925 7.843 14.999 8 14.999C8.157 14.999 8.306 14.925 8.4 14.799L9.9 12.799C10.013 12.648 10.032 12.445 9.947 12.276C9.862 12.107 9.689 12 9.5 12ZM8 13.667L7.5 13H8.5L8 13.667ZM11 1.5V10C11 10.552 10.552 11 10 11H6C5.448 11 5 10.552 5 10V1.5C5 1.224 5.224 1 5.5 1C5.776 1 6 1.224 6 1.5V10H10V1.5C10 1.224 10.224 1 10.5 1C10.776 1 11 1.224 11 1.5Z" fill="#202020"/>
</svg>
