<svg width="16" height="16" viewBox="0 0 16 16" fill="none" xmlns="http://www.w3.org/2000/svg">
<path d="M12.207 5.50001L12.478 5.22901C13.433 4.27401 13.433 2.72701 12.478 1.77201C11.523 0.817006 9.976 0.817006 9.021 1.77201L2.396 8.39701C2.341 8.45201 2.3 8.51901 2.275 8.59201L1.025 12.342C0.967002 12.515 1.008 12.706 1.132 12.84C1.256 12.974 1.443 13.03 1.62 12.985L5.62 11.985C5.708 11.963 5.788 11.918 5.852 11.853L11.498 6.20701L11.584 6.29301C11.975 6.68401 11.975 7.31701 11.584 7.70701L10.145 9.14601C9.95 9.34101 9.95 9.65801 10.145 9.85301C10.34 10.048 10.657 10.048 10.852 9.85301L12.291 8.41401C13.072 7.63301 13.072 6.36701 12.291 5.58601L12.205 5.50001H12.207ZM11.771 4.52101L5.244 11.048L2.262 11.793L3.187 9.01901L9.729 2.47701C10.293 1.91301 11.208 1.91301 11.772 2.47701C12.336 3.04101 12.336 3.95601 11.772 4.52001L11.771 4.52101Z" fill="#202020"/>
<path d="M4.967 15C3.732 15 2.76 14.434 2.112 13.893L3.397 13.572C3.842 13.822 4.37 14 4.967 14C5.372 14 5.79 13.836 6.236 13.543C6.683 13.249 7.114 12.856 7.55 12.448L7.663 12.341C8.047 11.98 8.447 11.604 8.829 11.344C9.237 11.066 9.778 10.814 10.346 11.033C10.721 11.177 10.965 11.444 11.137 11.77C11.298 12.075 11.409 12.458 11.517 12.874C11.566 13.064 11.65 13.248 11.746 13.372C11.793 13.433 11.833 13.467 11.861 13.484C11.886 13.499 11.897 13.499 11.9 13.499C12.022 13.499 12.231 13.416 12.53 13.213C12.715 13.087 12.874 12.961 13.032 12.834C13.13 12.756 13.229 12.677 13.334 12.598C13.613 12.389 13.855 12.249 14.032 12.16C14.12 12.115 14.193 12.083 14.246 12.061C14.272 12.05 14.294 12.042 14.31 12.036L14.33 12.029L14.337 12.027H14.34L14.341 12.026C14.341 12.026 14.342 12.026 14.501 12.5L14.341 12.026C14.603 11.938 14.887 12.08 14.975 12.342C15.062 12.603 14.922 12.885 14.663 12.974L14.659 12.976C14.654 12.978 14.643 12.982 14.628 12.988C14.598 13 14.548 13.022 14.484 13.055C14.355 13.12 14.163 13.23 13.934 13.402C13.875 13.446 13.799 13.507 13.711 13.576C13.53 13.72 13.302 13.901 13.093 14.043C12.782 14.255 12.352 14.502 11.9 14.502C11.464 14.502 11.149 14.237 10.955 13.985C10.757 13.728 10.624 13.412 10.55 13.127C10.44 12.705 10.353 12.428 10.253 12.238C10.164 12.069 10.083 12.005 9.987 11.968C9.905 11.936 9.742 11.934 9.391 12.173C9.078 12.386 8.737 12.706 8.333 13.085L8.233 13.179C7.802 13.583 7.313 14.033 6.784 14.38C6.255 14.728 5.644 15.001 4.966 15.001L4.967 15Z" fill="#006CBF"/>
</svg>
