<svg width="16" height="16" viewBox="0 0 16 16" fill="none" xmlns="http://www.w3.org/2000/svg">
<path d="M14.5 1C14.224 1 14 1.224 14 1.5V3.5C14 3.775 13.776 4 13.5 4H2.5C2.224 4 2 3.775 2 3.5V1.5C2 1.224 1.776 1 1.5 1C1.224 1 1 1.224 1 1.5V3.5C1 4.327 1.673 5 2.5 5H2.691L5.915 11.447C6.037 11.692 6.25 11.866 6.5 11.947V13.5C6.5 14.327 7.173 15 8 15C8.827 15 9.5 14.327 9.5 13.5V11.947C9.75 11.866 9.963 11.692 10.085 11.447L13.309 5H13.5C14.327 5 15 4.327 15 3.5V1.5C15 1.224 14.776 1 14.5 1ZM8.5 13.5C8.5 13.775 8.276 14 8 14C7.724 14 7.5 13.775 7.5 13.5V12H8.5V13.5ZM9.191 11H6.809L3.809 5H12.191L9.191 11Z" fill="#202020"/>
</svg>
