<svg width="16" height="16" viewBox="0 0 16 16" fill="none" xmlns="http://www.w3.org/2000/svg">
<path d="M10.924 14H5.076C4.424 14 3.85 13.583 3.649 12.963L1.841 7.40099C1.64 6.78099 1.859 6.10699 2.386 5.72399L7.117 2.28599C7.644 1.90099 8.353 1.90299 8.881 2.28599L13.612 5.72399C14.139 6.10699 14.358 6.78099 14.157 7.40099L12.349 12.963C12.148 13.583 11.575 14 10.922 14H10.924ZM8 2.99999C7.896 2.99999 7.794 3.03199 7.706 3.09599L2.975 6.53399C2.799 6.66199 2.726 6.88699 2.793 7.09399L4.601 12.656C4.668 12.863 4.859 13.002 5.077 13.002H10.925C11.143 13.002 11.333 12.863 11.401 12.656L13.209 7.09399C13.276 6.88699 13.203 6.66199 13.027 6.53399L8.296 3.09599C8.208 3.03299 8.105 2.99999 8.002 2.99999H8Z" fill="#202020"/>
</svg>
