<svg width="16" height="16" viewBox="0 0 16 16" fill="none" xmlns="http://www.w3.org/2000/svg">
<path d="M11.5 1C11.224 1 11 1.224 11 1.5V5.5C11 5.775 10.776 6 10.5 6H5.5C5.224 6 5 5.775 5 5.5V1.5C5 1.224 4.776 1 4.5 1C4.224 1 4 1.224 4 1.5V5.5C4 6.151 4.419 6.701 5 6.908V12C5 12.552 5.449 13 6 13H7.5V14.5C7.5 14.776 7.724 15 8 15C8.276 15 8.5 14.776 8.5 14.5V13H10C10.551 13 11 12.552 11 12V6.908C11.581 6.701 12 6.151 12 5.5V1.5C12 1.224 11.776 1 11.5 1ZM10 12H6V7H10V12Z" fill="#202020"/>
</svg>
