<svg width="16" height="16" viewBox="0 0 16 16" fill="none" xmlns="http://www.w3.org/2000/svg">
<path d="M12.5 1C12.224 1 12 1.224 12 1.5V2.5C12 2.775 11.776 3 11.5 3H4.5C4.224 3 4 2.775 4 2.5V1.5C4 1.224 3.776 1 3.5 1C3.224 1 3 1.224 3 1.5V2.5C3 3.327 3.673 4 4.5 4H5.191L3.761 6.859C3.59 7.201 3.5 7.584 3.5 7.965C3.5 8.403 3.617 8.834 3.837 9.212L6.816 14.319C7.061 14.738 7.514 14.999 8 14.999C8.486 14.999 8.939 14.738 9.184 14.319L12.163 9.212C12.384 8.834 12.5 8.403 12.5 7.965C12.5 7.583 12.41 7.2 12.239 6.859L10.809 4H11.5C12.327 4 13 3.327 13 2.5V1.5C13 1.224 12.776 1 12.5 1ZM11.344 7.307C11.446 7.511 11.5 7.739 11.5 7.966C11.5 8.227 11.431 8.484 11.299 8.709L8.5 13.508V8.846C8.794 8.672 9 8.365 9 7.999C9 7.447 8.552 6.999 8 6.999C7.448 6.999 7 7.447 7 7.999C7 8.365 7.207 8.671 7.5 8.846V13.507L4.701 8.708C4.57 8.482 4.5 8.226 4.5 7.965C4.5 7.737 4.554 7.51 4.656 7.306L6.309 3.999H9.691L11.344 7.307Z" fill="#202020"/>
</svg>
