<svg width="16" height="16" viewBox="0 0 16 16" fill="none" xmlns="http://www.w3.org/2000/svg">
<path d="M12.987 2C14.091 2 14.985 2.895 14.985 3.999H14.986V6.498H13.987V3.999C13.987 3.447 13.54 3 12.988 3H4.998C4.446 3 3.999 3.447 3.999 3.999V6H3V3.999C3 2.895 3.894 2 4.998 2H12.987Z" fill="#202020"/>
<path d="M9 13.991H9.985V14H10.984V13.991H12.987C14.091 13.991 14.985 13.096 14.985 11.992V10.245H13.987V11.992C13.987 12.544 13.54 12.991 12.988 12.991H9V13.991Z" fill="#202020"/>
<path d="M10.526 5.313C10.599 5.13 10.773 5.007 10.969 4.999L10.97 4.997C11.166 4.989 11.349 5.097 11.437 5.273L12.797 7.995H14.501C14.776 7.995 15 8.219 15 8.495C15 8.771 14.777 8.995 14.501 8.995H12.489C12.3 8.995 12.127 8.888 12.042 8.719L11.041 6.716L9.456 10.68C9.383 10.863 9.209 10.986 9.013 10.994C9.00866 10.9942 9.00433 10.9943 9 10.9944V9.12944L10.526 5.313Z" fill="#11910D"/>
<path d="M7.02874 6.00021C7.01723 5.9994 7.00565 5.999 6.994 5.999C6.9834 5.999 6.97285 5.99933 6.96236 6H7C7.00959 6 7.01917 6.00007 7.02874 6.00021Z" fill="#11910D"/>
<path d="M7 7H2C1.73478 7 1.48043 7.10536 1.29289 7.29289C1.10536 7.48043 1 7.73478 1 8H0.5C0.367392 8 0.240215 8.05268 0.146447 8.14645C0.0526784 8.24021 0 8.36739 0 8.5C0 8.63261 0.0526784 8.75979 0.146447 8.85355C0.240215 8.94732 0.367392 9 0.5 9H1V10H0.5C0.367392 10 0.240215 10.0527 0.146447 10.1464C0.0526784 10.2402 0 10.3674 0 10.5C0 10.6326 0.0526784 10.7598 0.146447 10.8536C0.240215 10.9473 0.367392 11 0.5 11H1V12H0.5C0.367392 12 0.240215 12.0527 0.146447 12.1464C0.0526784 12.2402 0 12.3674 0 12.5C0 12.6326 0.0526784 12.7598 0.146447 12.8536C0.240215 12.9473 0.367392 13 0.5 13H1V14H0.5C0.367392 14 0.240215 14.0527 0.146447 14.1464C0.0526784 14.2402 0 14.3674 0 14.5C0 14.6326 0.0526784 14.7598 0.146447 14.8536C0.240215 14.9473 0.367392 15 0.5 15H1C1 15.2652 1.10536 15.5196 1.29289 15.7071C1.48043 15.8946 1.73478 16 2 16H7C7.26522 16 7.51957 15.8946 7.70711 15.7071C7.89464 15.5196 8 15.2652 8 15V8C8 7.73478 7.89464 7.48043 7.70711 7.29289C7.51957 7.10536 7.26522 7 7 7ZM6 10H3C2.86739 10 2.74021 9.94732 2.64645 9.85355C2.55268 9.75979 2.5 9.63261 2.5 9.5C2.5 9.36739 2.55268 9.24021 2.64645 9.14645C2.74021 9.05268 2.86739 9 3 9H6C6.13261 9 6.25979 9.05268 6.35355 9.14645C6.44732 9.24021 6.5 9.36739 6.5 9.5C6.5 9.63261 6.44732 9.75979 6.35355 9.85355C6.25979 9.94732 6.13261 10 6 10Z" fill="#202020"/>
</svg>
