<svg width="16" height="16" viewBox="0 0 16 16" fill="none" xmlns="http://www.w3.org/2000/svg">
<path d="M11.987 2C13.091 2 13.985 2.895 13.985 3.999H13.986V6.498H13.7901C13.5325 6.37986 13.2642 6.28103 12.987 6.20337V3.999C12.987 3.447 12.54 3 11.988 3H3.998C3.446 3 2.999 3.447 2.999 3.999V6.498H2V3.999C2 2.895 2.894 2 3.998 2H11.987Z" fill="#202020"/>
<path d="M6.20449 12.991H3.998C3.446 12.991 2.999 12.544 2.999 11.992V10.245H2V11.992C2 13.096 2.895 13.991 3.998 13.991H5.991V14H6.59971C6.43637 13.6805 6.30337 13.3429 6.20449 12.991Z" fill="#202020"/>
<path d="M9.526 5.313C9.599 5.13 9.773 5.007 9.969 4.999L9.97 4.997C10.166 4.989 10.349 5.097 10.437 5.273L10.821 6.0415C10.1778 6.12069 9.56909 6.31089 9.01445 6.59235L9.526 5.313Z" fill="#11910D"/>
<path d="M7.28576 7.96565L6.441 6.275C6.356 6.106 6.183 5.999 5.994 5.999C5.805 5.999 5.632 6.106 5.547 6.275L4.686 7.997H2.499C2.224 7.997 2 8.22 2 8.496C2 8.772 2.224 8.996 2.499 8.996H4.996C5.185 8.996 5.358 8.889 5.443 8.72L5.995 7.615L6.64446 8.91433C6.82533 8.57538 7.04066 8.2576 7.28576 7.96565Z" fill="#11910D"/>
<path fill-rule="evenodd" clip-rule="evenodd" d="M11.5 16C13.9853 16 16 13.9853 16 11.5C16 9.01472 13.9853 7 11.5 7C9.01472 7 7 9.01472 7 11.5C7 13.9853 9.01472 16 11.5 16ZM13.3536 10.3536C13.5488 10.1583 13.5488 9.84171 13.3536 9.64645C13.1583 9.45118 12.8417 9.45118 12.6464 9.64645L11.5 10.7929L10.3536 9.64645C10.1583 9.45118 9.84171 9.45118 9.64645 9.64645C9.45118 9.84171 9.45118 10.1583 9.64645 10.3536L10.7929 11.5L9.64645 12.6464C9.45118 12.8417 9.45118 13.1583 9.64645 13.3536C9.84171 13.5488 10.1583 13.5488 10.3536 13.3536L11.5 12.2071L12.6464 13.3536C12.8417 13.5488 13.1583 13.5488 13.3536 13.3536C13.5488 13.1583 13.5488 12.8417 13.3536 12.6464L12.2071 11.5L13.3536 10.3536Z" fill="#C50F1F"/>
</svg>
