<svg width="16" height="16" viewBox="0 0 16 16" fill="none" xmlns="http://www.w3.org/2000/svg">
<path d="M12.987 2C14.091 2 14.985 2.895 14.985 3.999H14.986V6.498H13.987V3.999C13.987 3.447 13.54 3 12.988 3H4.998C4.446 3 3.999 3.447 3.999 3.999V6H3V3.999C3 2.895 3.894 2 4.998 2H12.987Z" fill="#202020"/>
<path d="M8 13.991H9.985V14H10.984V13.991H12.987C14.091 13.991 14.985 13.096 14.985 11.992V10.245H13.987V11.992C13.987 12.544 13.54 12.991 12.988 12.991H8V13.991Z" fill="#202020"/>
<path d="M10.526 5.313C10.599 5.13 10.773 5.007 10.969 4.999L10.97 4.997C11.166 4.989 11.349 5.097 11.437 5.273L12.797 7.995H14.501C14.776 7.995 15 8.219 15 8.495C15 8.771 14.777 8.995 14.501 8.995H12.489C12.3 8.995 12.127 8.888 12.042 8.719L11.041 6.716L9.456 10.68C9.383 10.863 9.209 10.986 9.013 10.994C8.817 11.002 8.634 10.894 8.546 10.718L8 9.62565V9.586L7.96038 9.54638L6.995 7.615L6.67319 8.25919L5.92767 7.51367L6.547 6.275C6.632 6.106 6.805 5.999 6.994 5.999C7.183 5.999 7.356 6.106 7.441 6.275L8.941 9.277L10.526 5.313Z" fill="#11910D"/>
<path d="M7 10H4.5C4.36739 10 4.24021 9.94732 4.14645 9.85355C4.05268 9.75979 4 9.63261 4 9.5V7L7 10Z" fill="#202020"/>
<path fill-rule="evenodd" clip-rule="evenodd" d="M3 7V9.5C3 9.89782 3.15804 10.2794 3.43934 10.5607C3.72064 10.842 4.10218 11 4.5 11H7V15C7 15.2652 6.89464 15.5196 6.70711 15.7071C6.51957 15.8946 6.26522 16 6 16H1C0.734784 16 0.48043 15.8946 0.292893 15.7071C0.105357 15.5196 0 15.2652 0 15V8C0 7.73478 0.105357 7.48043 0.292893 7.29289C0.48043 7.10536 0.734784 7 1 7H3ZM2.5 11C2.77614 11 3 11.2239 3 11.5V14.5C3 14.7761 2.77614 15 2.5 15C2.22386 15 2 14.7761 2 14.5V11.5C2 11.2239 2.22386 11 2.5 11ZM4.5 12C4.77614 12 5 12.2239 5 12.5V14.5C5 14.7761 4.77614 15 4.5 15C4.22386 15 4 14.7761 4 14.5V12.5C4 12.2239 4.22386 12 4.5 12Z" fill="#202020"/>
</svg>
