<svg width="16" height="16" viewBox="0 0 16 16" fill="none" xmlns="http://www.w3.org/2000/svg">
<path d="M12.987 2C14.091 2 14.985 2.895 14.985 3.999H14.986V6.498H13.987V3.999C13.987 3.447 13.54 3 12.988 3H4.998C4.446 3 3.999 3.447 3.999 3.999V6.498H3V3.999C3 2.895 3.894 2 4.998 2H12.987Z" fill="#202020"/>
<path d="M14.985 11.992V10.245H13.987V11.992C13.987 12.544 13.54 12.991 12.988 12.991H8V13.841C8 13.8912 7.99811 13.9412 7.99436 13.991H9.985V14H10.984V13.991H12.987C14.091 13.991 14.985 13.096 14.985 11.992Z" fill="#202020"/>
<path d="M10.526 5.313C10.599 5.13 10.773 5.007 10.969 4.999L10.97 4.997C11.166 4.989 11.349 5.097 11.437 5.273L12.797 7.995H14.501C14.776 7.995 15 8.219 15 8.495C15 8.771 14.777 8.995 14.501 8.995H12.489C12.3 8.995 12.127 8.888 12.042 8.719L11.041 6.716L9.456 10.68C9.383 10.863 9.209 10.986 9.013 10.994C8.817 11.002 8.634 10.894 8.546 10.718L6.995 7.615L6.66909 8.2674L5.74793 7.87314L6.547 6.275C6.632 6.106 6.805 5.999 6.994 5.999C7.183 5.999 7.356 6.106 7.441 6.275L8.941 9.277L10.526 5.313Z" fill="#11910D"/>
<path d="M0.606 9.23999L3.106 8.16899C3.2305 8.11562 3.36454 8.0881 3.5 8.0881C3.63546 8.0881 3.7695 8.11562 3.894 8.16899L6.394 9.23999C6.57384 9.31709 6.72712 9.44525 6.83484 9.6086C6.94255 9.77196 6.99998 9.96332 7 10.159V13.841C6.99998 14.0367 6.94255 14.228 6.83484 14.3914C6.72712 14.5547 6.57384 14.6829 6.394 14.76L3.894 15.831C3.7695 15.8844 3.63546 15.9119 3.5 15.9119C3.36454 15.9119 3.2305 15.8844 3.106 15.831L0.606 14.76C0.426157 14.6829 0.272882 14.5547 0.165165 14.3914C0.0574481 14.228 2.16103e-05 14.0367 0 13.841V10.159C2.16103e-05 9.96332 0.0574481 9.77196 0.165165 9.6086C0.272882 9.44525 0.426157 9.31709 0.606 9.23999ZM1.276 10.947L3 11.809V14C3 14.1326 3.05268 14.2598 3.14645 14.3535C3.24021 14.4473 3.36739 14.5 3.5 14.5C3.63261 14.5 3.75979 14.4473 3.85355 14.3535C3.94732 14.2598 4 14.1326 4 14V11.809L5.724 10.947C5.7834 10.9182 5.8364 10.8779 5.87987 10.8282C5.92333 10.7786 5.95636 10.7207 5.977 10.658C5.99748 10.5952 6.0053 10.5289 6 10.463C5.99558 10.3975 5.9783 10.3334 5.94913 10.2746C5.91996 10.2157 5.87948 10.1632 5.83 10.12C5.78008 10.0769 5.72213 10.0441 5.65949 10.0235C5.59684 10.0029 5.53075 9.99494 5.465 9.99999C5.39912 10.005 5.33488 10.023 5.276 10.053L3.5 10.941L1.724 10.053C1.60559 9.9948 1.46898 9.98577 1.34394 10.0279C1.21889 10.07 1.11556 10.1598 1.05645 10.2777C0.997339 10.3957 0.987247 10.5322 1.02837 10.6576C1.0695 10.7829 1.15851 10.887 1.276 10.947Z" fill="#5C2E91"/>
</svg>
