<svg width="16" height="16" viewBox="0 0 16 16" fill="none" xmlns="http://www.w3.org/2000/svg">
<path d="M14 2H10C9.86001 2 9.72201 2.03 9.59701 2.088C9.57601 2.096 9.55501 2.104 9.53501 2.115L1.80401 6.171C1.79601 6.175 1.78901 6.18 1.78201 6.184C1.29901 6.448 1.00101 6.949 1.00101 7.5V12.5C1.00101 13.327 1.67401 14 2.50101 14H9.50101C10.02 14 10.508 13.726 10.779 13.285C10.782 13.281 10.785 13.277 10.788 13.273L14.84 6.548C14.854 6.528 14.867 6.507 14.878 6.485C14.96 6.322 15.002 6.159 15.002 6.001V3.001C15.002 2.44 14.563 2.001 14.002 2.001L14 2ZM10 3H13.293L10.146 6.147C9.95001 6.053 9.73101 6 9.50001 6H4.28201L10 3ZM10.853 6.854L13.996 3.712L13.983 6.028L11 10.98V7.501C11 7.27 10.947 7.049 10.853 6.854ZM9.50001 13H2.50001C2.22501 13 2.00001 12.776 2.00001 12.5V7.5C2.00001 7.313 2.10401 7.144 2.26901 7.057C2.34001 7.019 2.41801 7 2.50001 7H9.50001C9.77501 7 10 7.224 10 7.5V12.5C10 12.591 9.97601 12.68 9.92901 12.757C9.83801 12.909 9.67701 13 9.50001 13Z" fill="#202020"/>
</svg>
