<svg width="16" height="16" viewBox="0 0 16 16" fill="none" xmlns="http://www.w3.org/2000/svg">
<path fill-rule="evenodd" clip-rule="evenodd" d="M6.00024 9.00001V10.05C4.859 10.2815 4 11.2904 4 12.5C4 13.8807 5.11929 15 6.5 15C7.88071 15 9 13.8807 9 12.5C9 11.2906 8.14124 10.2818 7.00024 10.0501V9.00001C7.00033 9.00001 7.00016 9.00001 7.00024 9.00001H6.00024ZM6.5 11C5.67157 11 5 11.6716 5 12.5C5 13.3284 5.67157 14 6.5 14C7.32843 14 8 13.3284 8 12.5C8 11.6716 7.32843 11 6.5 11Z" fill="#202020"/>
<path fill-rule="evenodd" clip-rule="evenodd" d="M8.7321 7.99994H12.6337C12.8361 7.99994 13.0002 8.16407 13.0002 8.36653V10.05C11.859 10.2815 11 11.2904 11 12.5C11 13.8807 12.1193 15 13.5 15C14.8807 15 16 13.8807 16 12.5C16 11.2906 15.1412 10.2818 14.0002 10.0501V8.36653C14.0002 7.61178 13.3884 6.99994 12.6337 6.99994H10.4995V5.95009C11.6409 5.71865 12.5 4.70966 12.5 3.5C12.5 2.11929 11.3807 1 10 1C9.46409 1 8.96756 1.16863 8.56058 1.45572C8.67902 1.60274 8.77613 1.76619 8.84869 1.94129C8.91018 2.08966 8.9533 2.24459 8.97737 2.40262C9.2453 2.15284 9.6048 2 10 2C10.8284 2 11.5 2.67157 11.5 3.5C11.5 4.32843 10.8284 5 10 5C9.61582 5 9.26538 4.85557 9 4.61805V5.79198C9.1586 5.86127 9.32578 5.91459 9.4995 5.94989V6.99994H9C9 7.35403 8.9061 7.6985 8.7321 7.99994ZM15 12.5C15 11.6716 14.3284 11 13.5 11C12.6716 11 12 11.6716 12 12.5C12 13.3284 12.6716 14 13.5 14C14.3284 14 15 13.3284 15 12.5Z" fill="#202020"/>
<path d="M5 0H3V2H5V0ZM7.707 2L6 0.293V2.5C6 2.63261 5.94732 2.75979 5.85355 2.85355C5.75979 2.94732 5.63261 3 5.5 3H2.5C2.36739 3 2.24021 2.94732 2.14645 2.85355C2.05268 2.75979 2 2.63261 2 2.5V0H1C0.734784 0 0.48043 0.105357 0.292893 0.292893C0.105357 0.48043 0 0.734784 0 1V7C0 7.26522 0.105357 7.51957 0.292893 7.70711C0.48043 7.89464 0.734784 8 1 8V4.5C1 4.36739 1.05268 4.24021 1.14645 4.14645C1.24021 4.05268 1.36739 4 1.5 4H6.5C6.63261 4 6.75979 4.05268 6.85355 4.14645C6.94732 4.24021 7 4.36739 7 4.5V8C7.26522 8 7.51957 7.89464 7.70711 7.70711C7.89464 7.51957 8 7.26522 8 7V2.707C8.00047 2.57562 7.9748 2.44545 7.9245 2.32407C7.8742 2.2027 7.80027 2.09254 7.707 2V2ZM2 8H6V5H2V8Z" fill="#006CBF"/>
</svg>
