<svg width="16" height="16" viewBox="0 0 16 16" fill="none" xmlns="http://www.w3.org/2000/svg">
<g clip-path="url(#clip0_7202_84875)">
<path fill-rule="evenodd" clip-rule="evenodd" d="M7.00002 2H3.00002L2.99802 2.001C2.43702 2.001 1.99802 2.44 1.99802 3.001V6.001C1.99802 6.159 2.04002 6.322 2.12202 6.485C2.13302 6.507 2.14602 6.528 2.16002 6.548L2.43295 7.00098H3.60313L3.01702 6.028L3.00402 3.712L6.14702 6.854C6.12411 6.90153 6.10364 6.95059 6.08578 7.00098H7C7.11224 7.00098 7.22351 7.01041 7.33275 7.02884C7.38511 7.01017 7.44143 7 7.50002 7H14.5C14.582 7 14.66 7.019 14.731 7.057C14.896 7.144 15 7.313 15 7.5V12.5C15 12.776 14.775 13 14.5 13H9V14H14.499C15.326 14 15.999 13.327 15.999 12.5V7.5C15.999 6.949 15.701 6.448 15.218 6.184C15.2154 6.18248 15.2127 6.18081 15.21 6.17911C15.2055 6.17634 15.201 6.17348 15.196 6.171L7.46502 2.115C7.44503 2.104 7.42403 2.096 7.40303 2.088C7.27803 2.03 7.14002 2 7.00002 2ZM3.70702 3H7.00002L12.718 6H7.50002C7.26902 6 7.05002 6.053 6.85402 6.147L3.70702 3Z" fill="#202020"/>
<path fill-rule="evenodd" clip-rule="evenodd" d="M7.707 8.29398C7.51951 8.10643 7.26519 8.00103 7 8.00098H1C0.734784 8.00098 0.48043 8.10633 0.292893 8.29387C0.105357 8.48141 0 8.73576 0 9.00098V15.001C0 15.2662 0.105357 15.5205 0.292893 15.7081C0.48043 15.8956 0.734784 16.001 1 16.001H7C7.26522 16.001 7.51957 15.8956 7.70711 15.7081C7.89464 15.5205 8 15.2662 8 15.001V9.00098C7.99994 8.73578 7.89455 8.48147 7.707 8.29398ZM1 14.2939L2.14645 13.1474C2.34171 12.9522 2.65829 12.9522 2.85355 13.1474C3.04882 13.3427 3.04882 13.6593 2.85355 13.8545L1.70711 15.001H6.29289L5.14645 13.8545C4.95118 13.6593 4.95118 13.3427 5.14645 13.1474C5.34171 12.9522 5.65829 12.9522 5.85355 13.1474L7 14.2939V9.70808L5.85355 10.8545C5.65829 11.0498 5.34171 11.0498 5.14645 10.8545C4.95118 10.6593 4.95118 10.3427 5.14645 10.1474L6.29289 9.00098H1.70711L2.85355 10.1474C3.04882 10.3427 3.04882 10.6593 2.85355 10.8545C2.65829 11.0498 2.34171 11.0498 2.14645 10.8545L1 9.70808V14.2939Z" fill="#202020"/>
</g>
<defs>
<clipPath id="clip0_7202_84875">
<rect width="16" height="16" fill="white"/>
</clipPath>
</defs>
</svg>
