<svg width="16" height="16" viewBox="0 0 16 16" fill="none" xmlns="http://www.w3.org/2000/svg">
<path d="M7 12C6.724 12 6.5 12.224 6.5 12.5C6.5 12.776 6.724 13 7 13H9C9.276 13 9.5 12.776 9.5 12.5C9.5 12.224 9.276 12 9 12H7ZM5.75 1C4.784 1 4 1.783 4 2.75V13.25C4 14.217 4.784 15 5.75 15H10.25C11.217 15 12 14.217 12 13.25V2.75C12 1.783 11.217 1 10.25 1H5.75ZM5 2.75C5 2.336 5.336 2 5.75 2H10.25C10.664 2 11 2.336 11 2.75V13.25C11 13.664 10.664 14 10.25 14H5.75C5.336 14 5 13.664 5 13.25V2.75Z" fill="#202020"/>
<path d="M7.50005 8C7.79705 8 8.08705 8.088 8.33305 8.253C8.58005 8.418 8.77205 8.652 8.88505 8.926C8.99905 9.2 9.02805 9.502 8.97005 9.793C8.91205 10.084 8.76905 10.351 8.55905 10.561C8.34905 10.771 8.08205 10.914 7.79105 10.971C7.50005 11.029 7.19805 10.999 6.92405 10.886C6.65005 10.772 6.41605 10.58 6.25105 10.334C6.08605 10.087 5.99805 9.797 5.99805 9.501C5.99805 9.103 6.15605 8.722 6.43705 8.44C6.71805 8.159 7.10005 8.001 7.49805 8.001L7.50005 8Z" fill="#006CBF"/>
<path d="M10.5 7H8.5C8.224 7 8 6.776 8 6.5V4.5C8 4.224 8.224 4 8.5 4H10.5C10.776 4 11 4.224 11 4.5V6.5C11 6.776 10.776 7 10.5 7Z" fill="#11910D"/>
</svg>
