<svg width="16" height="16" viewBox="0 0 16 16" fill="none" xmlns="http://www.w3.org/2000/svg">
<path d="M12 9C12 9.27614 12.2239 9.5 12.5 9.5C12.7761 9.5 13 9.27614 13 9L13 7C13 6.72386 12.7761 6.5 12.5 6.5C12.2239 6.5 12 6.72386 12 7L12 9ZM1 10.25C1 11.2165 1.7835 12 2.75 12L13.25 12C14.2165 12 15 11.2165 15 10.25L15 5.75C15 4.7835 14.2165 4 13.25 4L2.75 4C1.7835 4 1 4.7835 1 5.75L1 10.25ZM2.75 11C2.33579 11 2 10.6642 2 10.25L2 5.75C2 5.33579 2.33579 5 2.75 5L13.25 5C13.6642 5 14 5.33579 14 5.75L14 10.25C14 10.6642 13.6642 11 13.25 11L2.75 11Z" fill="#202020"/>
</svg>
