<svg width="16" height="16" viewBox="0 0 16 16" fill="none" xmlns="http://www.w3.org/2000/svg">
<path d="M2.13009 6.11297C1.46957 6.36323 1 7.00178 1 7.75V12.25C1 13.2165 1.7835 14 2.75 14H13.25C14.2165 14 15 13.2165 15 12.25V7.75C15 6.7835 14.2165 6 13.25 6L7.61099 6C7.53571 6.00567 7.46045 6.00562 7.3858 6L4.9149 6C4.84108 6.20971 4.72086 6.40241 4.56066 6.56261C4.29746 6.82582 3.94651 6.9811 3.57657 7L13.25 7C13.6642 7 14 7.33579 14 7.75V12.25C14 12.6642 13.6642 13 13.25 13L2.75 13C2.33579 13 2 12.6642 2 12.25L2 7.75C2 7.33579 2.33579 7 2.75 7H3.42343C3.05349 6.9811 2.70254 6.82582 2.43934 6.56261C2.30836 6.43164 2.20411 6.27893 2.13009 6.11297Z" fill="#202020"/>
<path d="M3.5 8.5C3.77614 8.5 4 8.72386 4 9V11C4 11.2761 3.77614 11.5 3.5 11.5C3.22386 11.5 3 11.2761 3 11L3 9C3 8.72386 3.22386 8.5 3.5 8.5Z" fill="#202020"/>
<path d="M7.854 0.147953L9.854 2.14795C9.90056 2.1944 9.93751 2.24957 9.96271 2.31032C9.98792 2.37106 10.0009 2.43619 10.0009 2.50195C10.0009 2.56772 9.98792 2.63284 9.96271 2.69359C9.93751 2.75433 9.90056 2.80951 9.854 2.85595L7.854 4.85595C7.76011 4.94984 7.63278 5.00258 7.5 5.00258C7.36722 5.00258 7.23989 4.94984 7.146 4.85595C7.05211 4.76207 6.99937 4.63473 6.99937 4.50195C6.99937 4.36918 7.05211 4.24184 7.146 4.14795L8.293 3.00195L5.5 3.00195C5.10218 3.00195 4.72064 3.15999 4.43934 3.44129C4.15804 3.7226 4 4.10413 4 4.50195L4 5.50195C4 5.63456 3.94732 5.76174 3.85355 5.85551C3.75979 5.94927 3.63261 6.00195 3.5 6.00195C3.36739 6.00195 3.24021 5.94927 3.14645 5.85551C3.05268 5.76174 3 5.63456 3 5.50195L3 4.50195C3 3.83891 3.26339 3.20303 3.73223 2.73419C4.20107 2.26535 4.83696 2.00195 5.5 2.00195L8.293 2.00195L7.146 0.855953C7.05211 0.762067 6.99937 0.634729 6.99937 0.501953C6.99937 0.369178 7.05211 0.24184 7.146 0.147953C7.23989 0.0540666 7.36722 0.00132151 7.5 0.00132151C7.63278 0.00132152 7.76011 0.0540666 7.854 0.147953V0.147953Z" fill="#006CBF"/>
</svg>
