<svg width="16" height="16" viewBox="0 0 16 16" fill="none" xmlns="http://www.w3.org/2000/svg">
<path d="M9.97753 12.0005C9.98498 12.0002 9.99247 12 10 12H12C12.2761 12 12.5 12.2239 12.5 12.5C12.5 12.7761 12.2761 13 12 13H10C9.93046 13 9.86424 12.9858 9.80407 12.9602C9.88917 12.6503 9.94785 12.3296 9.97753 12.0005Z" fill="#202020"/>
<path d="M9.40029 14H13.25C13.6642 14 14 13.6642 14 13.25V2.75C14 2.33579 13.6642 2 13.25 2H8.75C8.33579 2 8 2.33579 8 2.75V7.25716C7.69289 7.00353 7.35778 6.78261 7 6.59971V2.75C7 1.7835 7.7835 1 8.75 1H13.25C14.2165 1 15 1.7835 15 2.75V13.25C15 14.2165 14.2165 15 13.25 15H8.75C8.74761 15 8.74523 15 8.74285 15C8.99647 14.6929 9.2174 14.3578 9.40029 14Z" fill="#202020"/>
<path d="M4 8V7.5C4 7.224 4.224 7 4.5 7C4.776 7 5 7.224 5 7.5V8C5 8.276 4.776 8.5 4.5 8.5C4.224 8.5 4 8.276 4 8ZM1.672 9.378C1.77 9.476 1.898 9.524 2.026 9.524C2.154 9.524 2.282 9.475 2.38 9.378C2.575 9.183 2.575 8.866 2.38 8.671L2.026 8.317C1.831 8.122 1.514 8.122 1.319 8.317C1.124 8.512 1.124 8.829 1.319 9.024L1.672 9.378ZM1.5 11.5C1.5 11.224 1.276 11 1 11H0.5C0.224 11 0 11.224 0 11.5C0 11.776 0.224 12 0.5 12H1C1.276 12 1.5 11.776 1.5 11.5ZM1.672 13.622L1.318 13.976C1.123 14.171 1.123 14.488 1.318 14.683C1.416 14.781 1.544 14.829 1.672 14.829C1.8 14.829 1.928 14.78 2.026 14.683L2.38 14.329C2.575 14.134 2.575 13.817 2.38 13.622C2.185 13.427 1.867 13.427 1.672 13.622ZM4.5 14.5C4.224 14.5 4 14.724 4 15V15.5C4 15.776 4.224 16 4.5 16C4.776 16 5 15.776 5 15.5V15C5 14.724 4.776 14.5 4.5 14.5ZM7.328 13.622C7.133 13.427 6.816 13.427 6.621 13.622C6.426 13.817 6.426 14.134 6.621 14.329L6.975 14.683C7.073 14.781 7.201 14.829 7.329 14.829C7.457 14.829 7.585 14.78 7.683 14.683C7.878 14.488 7.878 14.171 7.683 13.976L7.328 13.622ZM8.5 11H8C7.724 11 7.5 11.224 7.5 11.5C7.5 11.776 7.724 12 8 12H8.5C8.776 12 9 11.776 9 11.5C9 11.224 8.776 11 8.5 11ZM6.975 9.525C7.103 9.525 7.231 9.476 7.329 9.379L7.683 9.025C7.878 8.83 7.878 8.513 7.683 8.318C7.488 8.123 7.171 8.123 6.976 8.318L6.622 8.672C6.427 8.867 6.427 9.184 6.622 9.379C6.72 9.477 6.847 9.525 6.975 9.525ZM6.5 11.5C6.5 12.603 5.603 13.5 4.5 13.5C3.397 13.5 2.5 12.603 2.5 11.5C2.5 10.397 3.397 9.5 4.5 9.5C5.603 9.5 6.5 10.397 6.5 11.5ZM5.5 11.5C5.5 10.949 5.052 10.5 4.5 10.5C3.948 10.5 3.5 10.949 3.5 11.5C3.5 12.051 3.948 12.5 4.5 12.5C5.052 12.5 5.5 12.051 5.5 11.5Z" fill="#B27C00"/>
</svg>
