<svg width="16" height="16" viewBox="0 0 16 16" fill="none" xmlns="http://www.w3.org/2000/svg">
<path d="M8 12C7.724 12 7.5 12.224 7.5 12.5C7.5 12.776 7.724 13 8 13H10C10.276 13 10.5 12.776 10.5 12.5C10.5 12.224 10.276 12 10 12H8ZM6.75 1C5.784 1 5 1.783 5 2.75V13.25C5 14.217 5.784 15 6.75 15H11.25C12.217 15 13 14.217 13 13.25V2.75C13 1.783 12.217 1 11.25 1H6.75ZM6 2.75C6 2.336 6.336 2 6.75 2H11.25C11.664 2 12 2.336 12 2.75V13.25C12 13.664 11.664 14 11.25 14H6.75C6.336 14 6 13.664 6 13.25V2.75Z" fill="#202020"/>
<path d="M0.5 6C0.224 6 0 5.776 0 5.5C0 5.224 0.224 5 0.5 5H3.5C3.776 5 4 5.224 4 5.5C4 5.776 3.776 6 3.5 6H0.5ZM0.5 12C0.224 12 0 11.776 0 11.5C0 11.224 0.224 11 0.5 11H3.5C3.776 11 4 11.224 4 11.5C4 11.776 3.776 12 3.5 12H0.5ZM2 8.5C2 8.776 2.224 9 2.5 9H3.5C3.776 9 4 8.776 4 8.5C4 8.224 3.776 8 3.5 8H2.5C2.224 8 2 8.224 2 8.5Z" fill="#202020"/>
</svg>
