<svg width="16" height="16" viewBox="0 0 16 16" fill="none" xmlns="http://www.w3.org/2000/svg">
<path d="M5 2C5 2.55228 4.55228 3 4 3C3.44772 3 3 2.55228 3 2C3 1.44772 3.44772 1 4 1C4.55228 1 5 1.44772 5 2Z" fill="#202020"/>
<path d="M9 2C9 2.55228 8.55228 3 8 3C7.44772 3 7 2.55228 7 2C7 1.44772 7.44772 1 8 1C8.55228 1 9 1.44772 9 2Z" fill="#202020"/>
<path d="M12 3C12.5523 3 13 2.55228 13 2C13 1.44772 12.5523 1 12 1C11.4477 1 11 1.44772 11 2C11 2.55228 11.4477 3 12 3Z" fill="#202020"/>
<path d="M5 6C5 6.55228 4.55228 7 4 7C3.44772 7 3 6.55228 3 6C3 5.44772 3.44772 5 4 5C4.55228 5 5 5.44772 5 6Z" fill="#202020"/>
<path d="M8 7C8.55228 7 9 6.55228 9 6C9 5.44772 8.55228 5 8 5C7.44772 5 7 5.44772 7 6C7 6.55228 7.44772 7 8 7Z" fill="#202020"/>
<path d="M13 6C13 6.55228 12.5523 7 12 7C11.4477 7 11 6.55228 11 6C11 5.44772 11.4477 5 12 5C12.5523 5 13 5.44772 13 6Z" fill="#202020"/>
<path d="M4 11C4.55228 11 5 10.5523 5 10C5 9.44771 4.55228 9 4 9C3.44772 9 3 9.44771 3 10C3 10.5523 3.44772 11 4 11Z" fill="#202020"/>
<path d="M9 10C9 10.5523 8.55228 11 8 11C7.44772 11 7 10.5523 7 10C7 9.44771 7.44772 9 8 9C8.55228 9 9 9.44771 9 10Z" fill="#202020"/>
<path d="M8 15C8.55228 15 9 14.5523 9 14C9 13.4477 8.55228 13 8 13C7.44772 13 7 13.4477 7 14C7 14.5523 7.44772 15 8 15Z" fill="#202020"/>
<path d="M13 10C13 10.5523 12.5523 11 12 11C11.4477 11 11 10.5523 11 10C11 9.44771 11.4477 9 12 9C12.5523 9 13 9.44771 13 10Z" fill="#202020"/>
</svg>
