<svg width="16" height="16" viewBox="0 0 16 16" fill="none" xmlns="http://www.w3.org/2000/svg">
<path d="M10 12V13H12C12.2761 13 12.5 12.7761 12.5 12.5C12.5 12.2239 12.2761 12 12 12H10Z" fill="#202020"/>
<path d="M8 6.17071V2.75C8 2.33579 8.33579 2 8.75 2H13.25C13.6642 2 14 2.33579 14 2.75V13.25C14 13.6642 13.6642 14 13.25 14H10C10 14.3506 9.93985 14.6872 9.82929 15H13.25C14.2165 15 15 14.2165 15 13.25V2.75C15 1.7835 14.2165 1 13.25 1H8.75C7.7835 1 7 1.7835 7 2.75V6C7.35064 6 7.68722 6.06015 8 6.17071Z" fill="#202020"/>
<path d="M8 15.5C7.872 15.5 7.744 15.451 7.646 15.354L5 12.708C4.732 12.44 4.268 12.44 4 12.708L1.354 15.354C1.159 15.549 0.842 15.549 0.647 15.354C0.452 15.159 0.452 14.842 0.647 14.647L3.293 12.001C3.938 11.356 5.063 11.356 5.707 12.001L8.353 14.647C8.548 14.842 8.548 15.159 8.353 15.354C8.255 15.452 8.128 15.5 8 15.5Z" fill="#006CBF"/>
<path d="M7 16H2C0.897 16 0 15.103 0 14V9C0 7.897 0.897 7 2 7H7C8.103 7 9 7.897 9 9V14C9 15.103 8.103 16 7 16ZM2 8C1.449 8 1 8.448 1 9V14C1 14.552 1.449 15 2 15H7C7.551 15 8 14.552 8 14V9C8 8.448 7.551 8 7 8H2Z" fill="#202020"/>
<path d="M6.5 10.5C7.05228 10.5 7.5 10.0523 7.5 9.5C7.5 8.94772 7.05228 8.5 6.5 8.5C5.94772 8.5 5.5 8.94772 5.5 9.5C5.5 10.0523 5.94772 10.5 6.5 10.5Z" fill="#B27C00"/>
</svg>
