<svg width="16" height="16" viewBox="0 0 16 16" fill="none" xmlns="http://www.w3.org/2000/svg">
<g clip-path="url(#clip0_7202_84976)">
<path d="M2 3C2.55228 3 3 2.55228 3 2C3 1.44772 2.55228 1 2 1C1.44772 1 1 1.44772 1 2C1 2.55228 1.44772 3 2 3Z" fill="#202020"/>
<path d="M6 3C6.55228 3 7 2.55228 7 2C7 1.44772 6.55228 1 6 1C5.44772 1 5 1.44772 5 2C5 2.55228 5.44772 3 6 3Z" fill="#202020"/>
<path d="M10 3C10.5523 3 11 2.55228 11 2C11 1.44772 10.5523 1 10 1C9.44771 1 9 1.44772 9 2C9 2.55228 9.44771 3 10 3Z" fill="#202020"/>
<path d="M2 7C2.55228 7 3 6.55228 3 6C3 5.44772 2.55228 5 2 5C1.44772 5 1 5.44772 1 6C1 6.55228 1.44772 7 2 7Z" fill="#202020"/>
<path d="M6 7C6.55228 7 7 6.55228 7 6C7 5.44772 6.55228 5 6 5C5.44772 5 5 5.44772 5 6C5 6.55228 5.44772 7 6 7Z" fill="#202020"/>
<path d="M10 7C10.5523 7 11 6.55228 11 6C11 5.44772 10.5523 5 10 5C9.44771 5 9 5.44772 9 6C9 6.55228 9.44771 7 10 7Z" fill="#202020"/>
<path d="M2 11C2.55228 11 3 10.5523 3 10C3 9.44771 2.55228 9 2 9C1.44772 9 1 9.44771 1 10C1 10.5523 1.44772 11 2 11Z" fill="#202020"/>
<path d="M6 11C6.55228 11 7 10.5523 7 10C7 9.44771 6.55228 9 6 9C5.44772 9 5 9.44771 5 10C5 10.5523 5.44772 11 6 11Z" fill="#202020"/>
<path d="M6 15C6.55228 15 7 14.5523 7 14C7 13.4477 6.55228 13 6 13C5.44772 13 5 13.4477 5 14C5 14.5523 5.44772 15 6 15Z" fill="#202020"/>
<path d="M10.8663 9.50012L9.49981 10.8661C9.20102 10.6932 9 10.3701 9 10C9 9.44771 9.44771 9 10 9C10.3702 9 10.6934 9.20115 10.8663 9.50012Z" fill="#202020"/>
<path d="M15.5449 8.45393C15.2519 8.16159 14.8549 7.99741 14.4409 7.99741C14.027 7.99741 13.63 8.16159 13.3369 8.45393L9.04895 12.7414C8.69299 13.0975 8.44065 13.5437 8.31895 14.0322L8.01895 15.2431C7.99361 15.3451 7.99509 15.452 8.02324 15.5533C8.0514 15.6546 8.10528 15.747 8.17964 15.8213C8.25401 15.8957 8.34633 15.9495 8.44766 15.9777C8.54899 16.0058 8.65588 16.0073 8.75795 15.982L9.96895 15.682C10.4572 15.5598 10.9031 15.3071 11.2589 14.9511L15.5479 10.6637C15.6931 10.5185 15.8081 10.3461 15.8865 10.1564C15.9649 9.96672 16.0051 9.76343 16.0049 9.55817C16.0046 9.35292 15.9638 9.14973 15.8849 8.96025C15.806 8.77077 15.6905 8.59872 15.5449 8.45393V8.45393Z" fill="#006CBF"/>
</g>
<defs>
<clipPath id="clip0_7202_84976">
<rect width="16" height="16" fill="white"/>
</clipPath>
</defs>
</svg>
