<svg width="16" height="16" viewBox="0 0 16 16" fill="none" xmlns="http://www.w3.org/2000/svg">
<path d="M9 8C9 8.552 8.552 9 8 9C7.448 9 7 8.552 7 8C7 7.448 7.448 7 8 7C8.552 7 9 7.448 9 8ZM11 7C10.448 7 10 7.448 10 8C10 8.552 10.448 9 11 9C11.552 9 12 8.552 12 8C12 7.448 11.552 7 11 7ZM5 7C4.448 7 4 7.448 4 8C4 8.552 4.448 9 5 9C5.552 9 6 8.552 6 8C6 7.448 5.552 7 5 7ZM15 5V10C15 11.103 14.103 12 13 12H3C1.897 12 1 11.103 1 10V5C1 3.897 1.897 3 3 3H13C14.103 3 15 3.897 15 5ZM14 5C14 4.449 13.552 4 13 4H3C2.448 4 2 4.449 2 5V10C2 10.551 2.448 11 3 11H13C13.552 11 14 10.551 14 10V5Z" fill="#202020"/>
</svg>
