<svg width="16" height="16" viewBox="0 0 16 16" fill="none" xmlns="http://www.w3.org/2000/svg">
<path d="M7.5 2C7.78 2 8 1.78 8 1.5C8 1.22 7.78 1 7.5 1C3.92 1 1 3.92 1 7.5C1 10.74 3.39 13.44 6.5 13.92V12.91C3.95 12.44 2 10.19 2 7.5C2 4.64 4.2 2.28 7 2.03C7.16 2.01 7.33 2 7.5 2Z" fill="#202020"/>
<path d="M7.5 14.25C7.5 14.664 7.836 15 8.25 15C8.664 15 9 14.664 9 14.25V11.25C9 10.836 8.664 10.5 8.25 10.5C7.836 10.5 7.5 10.836 7.5 11.25V14.25Z" fill="#202020"/>
<path d="M11.25 15C10.836 15 10.5 14.664 10.5 14.25V9.75C10.5 9.336 10.836 9 11.25 9C11.664 9 12 9.336 12 9.75V14.25C12 14.664 11.664 15 11.25 15Z" fill="#202020"/>
<path d="M13.5 14.25C13.5 14.664 13.836 15 14.25 15C14.664 15 15 14.664 15 14.25V8.25C15 7.836 14.664 7.5 14.25 7.5C13.836 7.5 13.5 7.836 13.5 8.25V14.25Z" fill="#202020"/>
<path d="M7.5 1C7.22 1 7 1.22 7 1.5V7C7 7.55 7.45 8 8 8H12.53C12.63 7.26 13.2 6.67 13.92 6.54C13.46 3.41 10.75 1 7.5 1ZM8 7V2.02C10.63 2.26 12.74 4.37 12.98 7H8Z" fill="#3487C7"/>
</svg>
