<svg width="16" height="16" viewBox="0 0 16 16" fill="none" xmlns="http://www.w3.org/2000/svg">
<g clip-path="url(#clip0_7202_85175)">
<path fill-rule="evenodd" clip-rule="evenodd" d="M5.89 13C5.9 13.02 5.92 13.04 5.94 13.06L6.38 13.5L5.94 13.94C5.92 13.96 5.9 13.98 5.89 14H5C5 14.55 4.55 15 4 15H3C2.45 15 2 14.55 2 14H0.5C0.22 14 0 13.78 0 13.5C0 13.22 0.22 13 0.5 13H2C2 12.45 2.45 12 3 12V10.5C3 10.22 3.22 10 3.5 10C3.78 10 4 10.22 4 10.5V12C4.55 12 5 12.45 5 13H5.89ZM3 14H4V13H3V14Z" fill="#202020"/>
<path fill-rule="evenodd" clip-rule="evenodd" d="M14.0002 13H15.5002C15.7802 13 16.0002 13.22 16.0002 13.5C16.0002 13.78 15.7802 14 15.5002 14H14.0002C14.0002 14.55 13.5502 15 13.0002 15H12.0002C11.4502 15 11.0002 14.55 11.0002 14H9.91016C9.97016 13.84 10.0002 13.67 10.0002 13.5C10.0002 13.33 9.97016 13.16 9.91016 13H11.0002C11.0002 12.45 11.4502 12 12.0002 12V10.5C12.0002 10.22 12.2202 10 12.5002 10C12.7802 10 13.0002 10.22 13.0002 10.5V12C13.5502 12 14.0002 12.45 14.0002 13ZM12.0002 14H13.0002V13H12.0002V14Z" fill="#202020"/>
<path fill-rule="evenodd" clip-rule="evenodd" d="M0 4C0 2.859 1.505 2 3.5 2C5.495 2 7 2.859 7 4V9C7 10.141 5.495 11 3.5 11C1.505 11 0 10.141 0 9V4ZM6 4C6 3.592 5.026 3 3.5 3C1.974 3 1 3.592 1 4C1 4.408 1.974 5 3.5 5C5.026 5 6 4.408 6 4ZM1 9C1 9.408 1.974 10 3.5 10C5.026 10 6 9.408 6 9V5.426C5.374 5.785 4.499 6 3.5 6C2.501 6 1.626 5.784 1 5.426V9Z" fill="#3487C7"/>
<path fill-rule="evenodd" clip-rule="evenodd" d="M9 4C9 2.859 10.505 2 12.5 2C14.495 2 16 2.859 16 4V9C16 10.141 14.495 11 12.5 11C10.505 11 9 10.141 9 9V4ZM15 4C15 3.592 14.026 3 12.5 3C10.974 3 10 3.592 10 4C10 4.408 10.974 5 12.5 5C14.026 5 15 4.408 15 4ZM10 9C10 9.408 10.974 10 12.5 10C14.026 10 15 9.408 15 9V5.426C14.374 5.785 13.499 6 12.5 6C11.501 6 10.626 5.784 10 5.426V9Z" fill="#3487C7"/>
<path d="M6.99976 15.5002C6.87176 15.5002 6.74376 15.4512 6.64576 15.3542C6.45076 15.1592 6.45076 14.8422 6.64576 14.6472L7.79176 13.5012L6.64576 12.3552C6.45076 12.1602 6.45076 11.8432 6.64576 11.6482C6.84076 11.4532 7.15776 11.4532 7.35276 11.6482L8.85276 13.1482C9.04776 13.3432 9.04776 13.6602 8.85276 13.8552L7.35276 15.3552C7.25476 15.4532 7.12676 15.5012 6.99876 15.5012L6.99976 15.5002Z" fill="#006CBF"/>
</g>
<defs>
<clipPath id="clip0_7202_85175">
<rect width="16" height="16" fill="white"/>
</clipPath>
</defs>
</svg>
