<svg width="16" height="16" viewBox="0 0 16 16" fill="none" xmlns="http://www.w3.org/2000/svg">
<g clip-path="url(#clip0_7202_84050)">
<path d="M8.085 15C7.971 14.677 7.971 14.323 8.085 14H3.5C2.672 14 2 13.328 2 12.5V3.5C2 2.672 2.672 2 3.5 2H12.5C13.328 2 14 2.672 14 3.5V8.085C14.323 7.971 14.677 7.971 15 8.085V3.5C15 2.119 13.881 1 12.5 1H3.5C2.119 1 1 2.119 1 3.5V12.5C1 13.881 2.119 15 3.5 15H8.085Z" fill="#202020"/>
<path d="M4 3H5C5.55228 3 6 3.44772 6 4V5C6 5.55228 5.55228 6 5 6H4C3.44772 6 3 5.55228 3 5V4C3 3.44772 3.44772 3 4 3Z" fill="#202020"/>
<path d="M7 4C7 3.448 7.448 3 8 3H12C12.552 3 13 3.448 13 4V5C13 5.552 12.552 6 12 6H8C7.448 6 7 5.552 7 5V4Z" fill="#3487C7"/>
<path d="M3 8C3 7.448 3.448 7 4 7H5C5.552 7 6 7.448 6 8V12C6 12.552 5.552 13 5 13H4C3.448 13 3 12.552 3 12V8Z" fill="#3487C7"/>
<path d="M14.854 9.14601L15.854 10.146L15.853 10.147C16.048 10.342 16.048 10.659 15.853 10.854C15.658 11.049 15.341 11.049 15.146 10.854L15 10.708V12.501C15 13.882 13.881 15.001 12.5 15.001H10.707L10.853 15.147C11.048 15.342 11.048 15.659 10.853 15.854C10.658 16.049 10.341 16.049 10.146 15.854L9.14601 14.854C8.95101 14.659 8.95101 14.342 9.14601 14.147L10.146 13.147C10.341 12.952 10.658 12.952 10.853 13.147C11.048 13.342 11.048 13.659 10.853 13.854L10.707 14H12.5C13.328 14 14 13.328 14 12.5V10.707L13.854 10.853C13.659 11.048 13.342 11.048 13.147 10.853C12.952 10.658 12.952 10.341 13.147 10.146L14.147 9.14601C14.342 8.95101 14.659 8.95101 14.854 9.14601Z" fill="#3487C7"/>
</g>
<defs>
<clipPath id="clip0_7202_84050">
<rect width="16" height="16" fill="white"/>
</clipPath>
</defs>
</svg>
