<svg width="16" height="16" viewBox="0 0 16 16" fill="none" xmlns="http://www.w3.org/2000/svg">
<path fill-rule="evenodd" clip-rule="evenodd" d="M9 4.813C9.295 4.619 9.634 4.5 10 4.5C11.103 4.5 12 5.509 12 6.75C12 7.991 11.103 9 10 9C9.62 9 9.269 8.873 8.966 8.666C8.897 8.86 8.717 9 8.5 9C8.224 9 8 8.776 8 8.5V3.5C8 3.224 8.224 3 8.5 3C8.776 3 9 3.224 9 3.5V4.813ZM9 6.75C9 7.439 9.448 8 10 8C10.552 8 11 7.439 11 6.75C11 6.061 10.552 5.5 10 5.5C9.448 5.5 9 6.061 9 6.75Z" fill="#202020"/>
<path fill-rule="evenodd" clip-rule="evenodd" d="M3.89602 4.646C3.98902 4.553 4.36202 4.25 5.25002 4.25C6.12002 4.25 6.99902 4.765 6.99902 5.75V8.5C6.99902 8.776 6.77502 9 6.49902 9C6.36002 9 6.23502 8.943 6.14402 8.851C5.91002 8.937 5.62102 9 5.24902 9C3.93602 9 3.24902 8.246 3.24902 7.5C3.24902 6.754 3.93602 6 5.24902 6C5.55102 6 5.79502 6.023 5.99902 6.056V5.75C5.99902 5.256 5.27902 5.25 5.24902 5.25C4.78651 5.25 4.59972 5.36312 4.57733 5.37668L4.57502 5.378C4.37902 5.573 4.07602 5.561 3.88202 5.365C3.68702 5.17 3.70102 4.841 3.89602 4.646ZM5.25002 7C4.60102 7 4.25002 7.258 4.25002 7.5C4.25002 7.742 4.60102 8 5.25002 8C5.69702 8 5.90702 7.885 6.00002 7.811V7.074C5.85602 7.038 5.62202 7 5.25002 7Z" fill="#202020"/>
<path d="M13.854 12.1458L11.854 10.1458C11.659 9.95076 11.342 9.95076 11.147 10.1458C10.952 10.3408 10.952 10.6578 11.147 10.8528L12.293 11.9988H2.70701L3.85301 10.8528C4.04801 10.6578 4.04801 10.3408 3.85301 10.1458C3.65801 9.95076 3.34101 9.95076 3.14601 10.1458L1.14701 12.1448C1.10101 12.1908 1.06401 12.2468 1.03801 12.3078C0.987006 12.4298 0.987006 12.5678 1.03801 12.6898C1.06301 12.7518 1.10001 12.8068 1.14701 12.8528L3.14601 14.8518C3.24401 14.9498 3.37201 14.9978 3.50001 14.9978C3.62801 14.9978 3.75601 14.9488 3.85401 14.8518C4.04901 14.6568 4.04901 14.3398 3.85401 14.1448L2.70801 12.9988H12.294L11.148 14.1448C10.953 14.3398 10.953 14.6568 11.148 14.8518C11.246 14.9498 11.374 14.9978 11.502 14.9978C11.63 14.9978 11.758 14.9488 11.856 14.8518L13.856 12.8518C14.051 12.6568 14.051 12.3398 13.856 12.1448L13.854 12.1458Z" fill="#006CBF"/>
</svg>
