<svg width="16" height="16" viewBox="0 0 16 16" fill="none" xmlns="http://www.w3.org/2000/svg">
<path fill-rule="evenodd" clip-rule="evenodd" d="M3 3C3 1.89543 3.89543 1 5 1H12C13.1046 1 14 1.89543 14 3V13C14 14.1046 13.1046 15 12 15H5C3.89543 15 3 14.1046 3 13H2.5C2.22386 13 2 12.7761 2 12.5C2 12.2239 2.22386 12 2.5 12H3V10H2.5C2.22386 10 2 9.77614 2 9.5C2 9.22386 2.22386 9 2.5 9H3V7H2.5C2.22386 7 2 6.77614 2 6.5C2 6.22386 2.22386 6 2.5 6H3V4H2.5C2.22386 4 2 3.77614 2 3.5C2 3.22386 2.22386 3 2.5 3H3ZM4 3C4 2.44772 4.44772 2 5 2H12C12.5523 2 13 2.44772 13 3V13C13 13.5523 12.5523 14 12 14H5C4.44772 14 4 13.5523 4 13H4.5C4.77614 13 5 12.7761 5 12.5C5 12.2239 4.77614 12 4.5 12H4V10H4.5C4.77614 10 5 9.77614 5 9.5C5 9.22386 4.77614 9 4.5 9H4V7H4.5C4.77614 7 5 6.77614 5 6.5C5 6.22386 4.77614 6 4.5 6H4V4H4.5C4.77614 4 5 3.77614 5 3.5C5 3.22386 4.77614 3 4.5 3H4Z" fill="#202020"/>
<path d="M11.9058 9.332L8.94778 5.209C8.84978 5.072 8.68178 4.989 8.52578 5C8.35878 5.006 8.20678 5.094 8.11778 5.234L6.07578 8.493C5.98778 8.635 5.97478 8.81 6.04278 8.963C6.11078 9.116 6.24978 9.223 6.41478 9.252L11.4148 10.116C11.4428 10.121 11.4718 10.123 11.4998 10.123C11.6698 10.123 11.8308 10.036 11.9238 9.889C12.0308 9.717 12.0248 9.496 11.9058 9.332Z" fill="#202020"/>
</svg>
