<svg width="16" height="16" viewBox="0 0 16 16" fill="none" xmlns="http://www.w3.org/2000/svg">
<path d="M9.35423 6.14625C9.15923 5.95125 8.84223 5.95125 8.64723 6.14625C8.45223 6.34125 8.45223 6.65825 8.64723 6.85325L9.79323 7.99925L8.64723 9.14525C8.45223 9.34025 8.45223 9.65725 8.64723 9.85225C8.74523 9.95025 8.87323 9.99825 9.00123 9.99825C9.12923 9.99825 9.25723 9.94925 9.35523 9.85225L10.8552 8.35225C11.0502 8.15725 11.0502 7.84025 10.8552 7.64525L9.35523 6.14525L9.35423 6.14625Z" fill="#202020"/>
<path d="M5.64723 6.14625C5.84223 5.95125 6.15923 5.95125 6.35423 6.14625L6.35523 6.14525L7.85523 7.64525C8.05023 7.84025 8.05023 8.15725 7.85523 8.35225L6.35523 9.85225C6.25723 9.94925 6.12923 9.99825 6.00123 9.99825C5.87323 9.99825 5.74523 9.95025 5.64723 9.85225C5.45223 9.65725 5.45223 9.34025 5.64723 9.14525L6.79323 7.99925L5.64723 6.85325C5.45223 6.65825 5.45223 6.34125 5.64723 6.14625Z" fill="#202020"/>
<path fill-rule="evenodd" clip-rule="evenodd" d="M11.5 2H4.5C3.119 2 2 3.119 2 4.5V11.5C2 12.881 3.119 14 4.5 14H11.5C12.881 14 14 12.881 14 11.5V4.5C14 3.119 12.881 2 11.5 2ZM13 11.5C13 12.328 12.328 13 11.5 13H4.5C3.672 13 3 12.328 3 11.5V4.5C3 3.672 3.672 3 4.5 3H11.5C12.328 3 13 3.672 13 4.5V11.5Z" fill="#202020"/>
</svg>
