<svg width="16" height="16" viewBox="0 0 16 16" fill="none" xmlns="http://www.w3.org/2000/svg">
<path d="M11.0393 6.69446C11.1767 6.4889 11.25 6.24723 11.25 6C11.25 5.66848 11.1183 5.35054 10.8839 5.11612C10.6495 4.8817 10.3315 4.75 10 4.75C9.75277 4.75 9.5111 4.82331 9.30554 4.96066C9.09998 5.09801 8.93976 5.29324 8.84515 5.52165C8.75054 5.75005 8.72579 6.00139 8.77402 6.24386C8.82225 6.48634 8.9413 6.70907 9.11612 6.88388C9.29093 7.0587 9.51366 7.17775 9.75614 7.22598C9.99861 7.27421 10.2499 7.24946 10.4784 7.15485C10.7068 7.06024 10.902 6.90002 11.0393 6.69446Z" fill="#202020"/>
<path d="M5.30554 8.96066C5.5111 8.82331 5.75277 8.75 6 8.75C6.33152 8.75 6.64946 8.8817 6.88388 9.11612C7.1183 9.35054 7.25 9.66848 7.25 10C7.25 10.2472 7.17669 10.4889 7.03934 10.6945C6.90199 10.9 6.70676 11.0602 6.47836 11.1548C6.24995 11.2495 5.99861 11.2742 5.75614 11.226C5.51366 11.1778 5.29093 11.0587 5.11612 10.8839C4.9413 10.7091 4.82225 10.4863 4.77402 10.2439C4.72579 10.0014 4.75054 9.75005 4.84515 9.52165C4.93976 9.29324 5.09998 9.09801 5.30554 8.96066Z" fill="#202020"/>
<path fill-rule="evenodd" clip-rule="evenodd" d="M5.5 1H10.5C11.6931 1.00132 12.8369 1.47585 13.6805 2.31948C14.5241 3.16311 14.9987 4.30693 15 5.5V10.5C14.9987 11.6931 14.5241 12.8369 13.6805 13.6805C12.8369 14.5241 11.6931 14.9987 10.5 15H5.5C4.30693 14.9987 3.16311 14.5241 2.31948 13.6805C1.47585 12.8369 1.00132 11.6931 1 10.5V5.5C1.00132 4.30693 1.47585 3.16311 2.31948 2.31948C3.16311 1.47585 4.30693 1.00132 5.5 1ZM12.9749 12.9749C13.6313 12.3185 14 11.4283 14 10.5V5.5C14 4.57174 13.6313 3.6815 12.9749 3.02513C12.3185 2.36875 11.4283 2 10.5 2H5.5C4.57174 2 3.6815 2.36875 3.02513 3.02513C2.36875 3.6815 2 4.57174 2 5.5V10.5C2 11.4283 2.36875 12.3185 3.02513 12.9749C3.6815 13.6313 4.57174 14 5.5 14H10.5C11.4283 14 12.3185 13.6313 12.9749 12.9749Z" fill="#202020"/>
</svg>
