<svg width="16" height="16" viewBox="0 0 16 16" fill="none" xmlns="http://www.w3.org/2000/svg">
<path fill-rule="evenodd" clip-rule="evenodd" d="M10.0995 6.08496C10.6061 6.08496 11.0932 6.28064 11.459 6.63116C11.6433 6.80838 11.7905 7.0206 11.8919 7.25538C11.9932 7.49017 12.0468 7.74282 12.0493 7.99855C12.0518 8.25427 12.0033 8.50793 11.9066 8.74468C11.8099 8.98143 11.667 9.19651 11.4862 9.37734C11.3053 9.55817 11.0902 9.70112 10.8535 9.79782C10.6167 9.89451 10.3631 9.94301 10.1074 9.94048C9.85163 9.93795 9.59898 9.88444 9.36419 9.78308C9.12941 9.68171 8.91719 9.53454 8.73997 9.35016L7.99997 8.61016L7.25997 9.35016C7.08276 9.53454 6.87054 9.68171 6.63575 9.78308C6.40096 9.88444 6.14831 9.93795 5.89259 9.94048C5.63687 9.94301 5.38321 9.89451 5.14646 9.79782C4.90971 9.70112 4.69463 9.55817 4.51379 9.37734C4.33296 9.19651 4.19002 8.98143 4.09332 8.74468C3.99663 8.50793 3.94812 8.25427 3.95066 7.99855C3.95319 7.74282 4.0067 7.49017 4.10806 7.25538C4.20942 7.0206 4.3566 6.80838 4.54097 6.63116C4.90678 6.28064 5.39384 6.08496 5.90047 6.08496C6.40711 6.08496 6.89417 6.28064 7.25997 6.63116L7.99997 7.37116L8.73997 6.63116C9.10578 6.28064 9.59284 6.08496 10.0995 6.08496ZM6.63797 8.72816L7.37597 7.99116L6.63797 7.25716C6.54225 7.1587 6.42764 7.08058 6.301 7.02748C6.17435 6.97438 6.03829 6.94741 5.90097 6.94816C5.76425 6.947 5.62865 6.9729 5.50198 7.02439C5.37532 7.07588 5.2601 7.15193 5.16297 7.24816C4.96708 7.44462 4.85707 7.71073 4.85707 7.98816C4.85707 8.2656 4.96708 8.53171 5.16297 8.72816C5.36189 8.91739 5.62593 9.02293 5.90047 9.02293C6.17502 9.02293 6.43906 8.91739 6.63797 8.72816ZM11.0607 8.38968C11.1122 8.26318 11.1381 8.12774 11.137 7.99116C11.1381 7.85444 11.1122 7.71884 11.0607 7.59218C11.0093 7.46551 10.9332 7.35029 10.837 7.25316C10.638 7.06445 10.3742 6.95926 10.1 6.95926C9.82574 6.95926 9.56195 7.06445 9.36297 7.25316L8.62397 7.99116L9.36297 8.72816C9.56172 8.91733 9.8256 9.02283 10.1 9.02283C10.3744 9.02283 10.6382 8.91733 10.837 8.72816C10.9332 8.63122 11.0092 8.51618 11.0607 8.38968Z" fill="#202020"/>
<path fill-rule="evenodd" clip-rule="evenodd" d="M5.5 1H10.5C11.6931 1.00132 12.8369 1.47585 13.6805 2.31948C14.5241 3.16311 14.9987 4.30693 15 5.5V10.5C14.9987 11.6931 14.5241 12.8369 13.6805 13.6805C12.8369 14.5241 11.6931 14.9987 10.5 15H5.5C4.30693 14.9987 3.16311 14.5241 2.31948 13.6805C1.47585 12.8369 1.00132 11.6931 1 10.5V5.5C1.00132 4.30693 1.47585 3.16311 2.31948 2.31948C3.16311 1.47585 4.30693 1.00132 5.5 1ZM12.9749 12.9749C13.6313 12.3185 14 11.4283 14 10.5V5.5C14 4.57174 13.6313 3.6815 12.9749 3.02513C12.3185 2.36875 11.4283 2 10.5 2H5.5C4.57174 2 3.6815 2.36875 3.02513 3.02513C2.36875 3.6815 2 4.57174 2 5.5V10.5C2 11.4283 2.36875 12.3185 3.02513 12.9749C3.6815 13.6313 4.57174 14 5.5 14H10.5C11.4283 14 12.3185 13.6313 12.9749 12.9749Z" fill="#202020"/>
</svg>
