<svg width="16" height="16" viewBox="0 0 16 16" fill="none" xmlns="http://www.w3.org/2000/svg">
<path d="M9.1472 6.14625C9.3422 5.95125 9.6592 5.95125 9.8542 6.14625H9.8562C10.0512 6.34125 10.0512 6.65825 9.8562 6.85325L8.7102 7.99925L9.8562 9.14525C10.0512 9.34025 10.0512 9.65725 9.8562 9.85225C9.7582 9.94925 9.6302 9.99825 9.5022 9.99825C9.3742 9.99825 9.2462 9.95025 9.1482 9.85225L8.0022 8.70625L6.8562 9.85225C6.7582 9.94925 6.6302 9.99825 6.5022 9.99825C6.3742 9.99825 6.2462 9.95025 6.1482 9.85225C5.9532 9.65725 5.9532 9.34025 6.1482 9.14525L7.2942 7.99925L6.1482 6.85325C5.9532 6.65825 5.9532 6.34125 6.1482 6.14625C6.3432 5.95125 6.6602 5.95125 6.8552 6.14625L8.0012 7.29225L9.1472 6.14625Z" fill="#202020"/>
<path fill-rule="evenodd" clip-rule="evenodd" d="M4.5 2H11.5C12.881 2 14 3.119 14 4.5V11.5C14 12.881 12.881 14 11.5 14H4.5C3.119 14 2 12.881 2 11.5V4.5C2 3.119 3.119 2 4.5 2ZM11.5 13C12.328 13 13 12.328 13 11.5V4.5C13 3.672 12.328 3 11.5 3H4.5C3.672 3 3 3.672 3 4.5V11.5C3 12.328 3.672 13 4.5 13H11.5Z" fill="#202020"/>
</svg>
