<svg width="16" height="16" viewBox="0 0 16 16" fill="none" xmlns="http://www.w3.org/2000/svg">
<g clip-path="url(#clip0_7202_85247)">
<path fill-rule="evenodd" clip-rule="evenodd" d="M8.74284 8C8.51939 8.27056 8.27056 8.51939 8 8.74284V13.994C8 15.311 10.012 16 12 16C13.988 16 16 15.311 16 13.994V7.992C16 7.299 15.439 6.794 14.623 6.466C14.6115 6.47932 14.6032 6.49453 14.5949 6.5098C14.585 6.52779 14.5751 6.54586 14.56 6.561L13.872 7.249C14.589 7.47 15 7.782 15 7.993C15 8.347 13.861 8.996 12 8.996C11.9294 8.996 11.8637 8.99229 11.7979 8.98858C11.7613 8.98651 11.7246 8.98443 11.687 8.983L11.6554 8.9872C11.6041 8.99412 11.5531 9.001 11.5 9.001C11.354 9.001 11.213 8.973 11.076 8.933C9.78537 8.76733 9.01239 8.29167 9.00015 8H8.74284ZM9 9.348C9.886 9.777 10.856 10 11.838 10C11.892 10 11.946 10 12 9.998C12.054 9.999 12.108 10 12.162 10C13.144 10 14.115 9.777 15 9.348V13.994C15 14.348 13.861 14.997 12 14.997C10.139 14.997 9 14.348 9 13.994V9.348Z" fill="#3487C7"/>
<path d="M9.95021 5.24323C9.89706 5.63672 9.80229 6.017 9.67049 6.3795L11.144 7.85302C11.242 7.95002 11.37 7.99902 11.498 7.99902C11.626 7.99902 11.754 7.95102 11.852 7.85302L13.852 5.85302C14.047 5.65802 14.047 5.34102 13.852 5.14602C13.657 4.95102 13.34 4.95102 13.145 5.14602L11.999 6.29202V3.49902C11.999 3.22302 11.775 2.99902 11.499 2.99902C11.223 2.99902 10.999 3.22302 10.999 3.49902V6.29202L9.95021 5.24323Z" fill="#006CBF"/>
<path d="M11.5 2C11.7761 2 12 1.77614 12 1.5C12 1.22386 11.7761 1 11.5 1C11.2239 1 11 1.22386 11 1.5C11 1.77614 11.2239 2 11.5 2Z" fill="#202020"/>
<path d="M13.5 3C13.7761 3 14 2.77614 14 2.5C14 2.22386 13.7761 2 13.5 2C13.2239 2 13 2.22386 13 2.5C13 2.77614 13.2239 3 13.5 3Z" fill="#202020"/>
<path d="M15.5 2C15.7761 2 16 1.77614 16 1.5C16 1.22386 15.7761 1 15.5 1C15.2239 1 15 1.22386 15 1.5C15 1.77614 15.2239 2 15.5 2Z" fill="#202020"/>
<path d="M15.5 4C15.7761 4 16 3.77614 16 3.5C16 3.22386 15.7761 3 15.5 3C15.2239 3 15 3.22386 15 3.5C15 3.77614 15.2239 4 15.5 4Z" fill="#202020"/>
<path fill-rule="evenodd" clip-rule="evenodd" d="M1.99994 0.758387C2.73996 0.26392 3.60999 0 4.5 0C5.69348 0 6.83807 0.474106 7.68198 1.31802C8.5259 2.16193 9 3.30653 9 4.5C9 5.39002 8.73608 6.26004 8.24162 7.00007C7.74715 7.74009 7.04434 8.31686 6.22208 8.65746C5.39981 8.99805 4.49501 9.08717 3.6221 8.91353C2.74918 8.7399 1.94736 8.31132 1.31802 7.68198C0.688685 7.05264 0.260102 6.25082 0.0864683 5.37791C-0.0871652 4.50499 0.00194976 3.60019 0.342544 2.77792C0.683138 1.95566 1.25991 1.25285 1.99994 0.758387ZM6.713 4.937L3.743 6.587C3.66689 6.62932 3.58104 6.65103 3.49396 6.64998C3.40688 6.64893 3.32158 6.62515 3.24652 6.581C3.17145 6.53685 3.10922 6.47386 3.06598 6.39826C3.02274 6.32266 3 6.23708 3 6.15V2.85C3 2.76291 3.02274 2.67733 3.06598 2.60173C3.10922 2.52614 3.17145 2.46315 3.24652 2.41899C3.32158 2.37484 3.40688 2.35106 3.49396 2.35001C3.58104 2.34896 3.66689 2.37067 3.743 2.413L6.713 4.063C6.79091 4.10631 6.85582 4.16967 6.90101 4.2465C6.94621 4.32334 6.97004 4.41086 6.97004 4.5C6.97004 4.58914 6.94621 4.67666 6.90101 4.75349C6.85582 4.83033 6.79091 4.89368 6.713 4.937Z" fill="#11910D"/>
</g>
<defs>
<clipPath id="clip0_7202_85247">
<rect width="16" height="16" fill="white"/>
</clipPath>
</defs>
</svg>
