<svg width="16" height="16" viewBox="0 0 16 16" fill="none" xmlns="http://www.w3.org/2000/svg">
<path d="M15 14.5C15 14.776 14.776 15 14.5 15H1.5C1.224 15 1 14.776 1 14.5V1.5C1 1.224 1.224 1 1.5 1C1.776 1 2 1.224 2 1.5V14H14.5C14.776 14 15 14.224 15 14.5ZM4.146 6.854C4.244 6.952 4.372 7 4.5 7C4.628 7 4.756 6.951 4.854 6.854L6 5.708L7.146 6.854C7.244 6.952 7.372 7 7.5 7C7.628 7 7.756 6.951 7.854 6.854C8.049 6.659 8.049 6.342 7.854 6.147L6.708 5.001L7.854 3.855C8.049 3.66 8.049 3.343 7.854 3.148C7.659 2.953 7.342 2.953 7.147 3.148L6.001 4.294L4.855 3.148C4.66 2.953 4.343 2.953 4.148 3.148C3.953 3.343 3.953 3.66 4.148 3.855L5.294 5.001L4.148 6.147C3.953 6.342 3.953 6.659 4.148 6.854H4.146ZM9 10C9 8.897 9.897 8 11 8C12.103 8 13 8.897 13 10C13 11.103 12.103 12 11 12C9.897 12 9 11.103 9 10ZM10 10C10 10.552 10.449 11 11 11C11.551 11 12 10.552 12 10C12 9.448 11.551 9 11 9C10.449 9 10 9.448 10 10Z" fill="#202020"/>
<path d="M7.85401 8.854L6.70801 10L7.85401 11.146C8.04901 11.341 8.04901 11.658 7.85401 11.853C7.75601 11.951 7.62801 11.999 7.50001 11.999C7.37201 11.999 7.24401 11.95 7.14601 11.853L6.00001 10.707L4.85401 11.853C4.75601 11.951 4.62801 11.999 4.50001 11.999C4.37201 11.999 4.24401 11.95 4.14601 11.853C3.95101 11.658 3.95101 11.341 4.14601 11.146L5.29201 10L4.14601 8.854C3.95101 8.659 3.95101 8.342 4.14601 8.147C4.34101 7.952 4.65801 7.952 4.85301 8.147L5.99901 9.293L7.14501 8.147C7.34001 7.952 7.65701 7.952 7.85201 8.147C8.04701 8.342 8.04701 8.659 7.85201 8.854H7.85401ZM13 5C13 6.103 12.103 7 11 7C9.89701 7 9.00001 6.103 9.00001 5C9.00001 3.897 9.89701 3 11 3C12.103 3 13 3.897 13 5ZM12 5C12 4.448 11.551 4 11 4C10.449 4 10 4.448 10 5C10 5.552 10.449 6 11 6C11.551 6 12 5.552 12 5Z" fill="#3487C7"/>
</svg>
