<svg width="16" height="16" viewBox="0 0 16 16" fill="none" xmlns="http://www.w3.org/2000/svg">
<path d="M14.5 15H1.5C1.224 15 1 14.776 1 14.5V1.5C1 1.224 1.224 1 1.5 1C1.776 1 2 1.224 2 1.5V14H14.5C14.776 14 15 14.224 15 14.5C15 14.776 14.776 15 14.5 15Z" fill="#202020"/>
<path d="M5 8C5 8.552 4.552 9 4 9C3.448 9 3 8.552 3 8C3 7.448 3.448 7 4 7C4.552 7 5 7.448 5 8ZM7 4C6.448 4 6 4.448 6 5C6 5.552 6.448 6 7 6C7.552 6 8 5.552 8 5C8 4.448 7.552 4 7 4ZM10 6C9.448 6 9 6.448 9 7C9 7.552 9.448 8 10 8C10.552 8 11 7.552 11 7C11 6.448 10.552 6 10 6ZM13 9C12.448 9 12 9.448 12 10C12 10.552 12.448 11 13 11C13.552 11 14 10.552 14 10C14 9.448 13.552 9 13 9Z" fill="#3487C7"/>
</svg>
