<svg width="16" height="16" viewBox="0 0 16 16" fill="none" xmlns="http://www.w3.org/2000/svg">
<path fill-rule="evenodd" clip-rule="evenodd" d="M2 4.5C2 3.11929 3.11929 2 4.5 2H11.5C12.8807 2 14 3.11929 14 4.5V11.5C14 12.8807 12.8807 14 11.5 14H6V13H11.5C12.3284 13 13 12.3284 13 11.5V6H3.15467C3.10321 5.99801 3.05164 5.99701 3 5.99701C2.66092 5.99701 2.32501 6.04011 2 6.12403V4.5ZM3 5H13V4.5C13 3.67157 12.3284 3 11.5 3H4.5C3.67157 3 3 3.67157 3 4.5V5Z" fill="#202020"/>
<path d="M6 9.99655C6 11.6533 4.65685 12.9964 3 12.9964C1.34315 12.9964 0 11.6533 0 9.99655C0 8.33978 1.34315 6.9967 3 6.9967C4.65685 6.9967 6 8.33978 6 9.99655ZM5 13.4612C4.41165 13.8016 3.72857 13.9963 3 13.9963C2.27143 13.9963 1.58835 13.8016 1 13.4612V15.7466C1 15.9405 1.21119 16.0606 1.37783 15.9614L3 14.9963L4.62217 15.9614C4.78881 16.0606 5 15.9405 5 15.7466V13.4612Z" fill="#202020"/>
<path d="M3 13.9963C3.72857 13.9963 4.41165 13.8016 5 13.4612V15.7466C5 15.9405 4.78881 16.0606 4.62217 15.9614L3 14.9963L1.37783 15.9614C1.21119 16.0606 1 15.9405 1 15.7466V13.4612C1.58835 13.8016 2.27143 13.9963 3 13.9963Z" fill="#202020"/>
</svg>
