<svg width="16" height="16" viewBox="0 0 16 16" fill="none" xmlns="http://www.w3.org/2000/svg">
<path d="M13.5 14C13.224 14 13 13.776 13 13.5V4.5C13 3.673 12.327 3 11.5 3H2.5C2.224 3 2 2.776 2 2.5C2 2.224 2.224 2 2.5 2H11.5C12.879 2 14 3.121 14 4.5V13.5C14 13.776 13.776 14 13.5 14Z" fill="#202020"/>
<path d="M11 5.5V10.5C11 10.776 10.776 11 10.5 11C10.224 11 10 10.776 10 10.5V6.707L3.854 12.853C3.756 12.951 3.628 12.999 3.5 12.999C3.372 12.999 3.244 12.95 3.146 12.853C2.951 12.658 2.951 12.341 3.146 12.146L9.292 6H5.499C5.223 6 4.999 5.776 4.999 5.5C4.999 5.224 5.223 5 5.499 5H10.499C10.775 5 10.999 5.224 10.999 5.5H11Z" fill="#006CBF"/>
</svg>
