<svg width="16" height="16" viewBox="0 0 16 16" fill="none" xmlns="http://www.w3.org/2000/svg">
<path d="M12.854 1.14625L14.854 3.14625L14.855 3.14525C15.05 3.34025 15.05 3.65725 14.855 3.85225L12.855 5.85225C12.757 5.94925 12.629 5.99825 12.501 5.99825C12.373 5.99825 12.245 5.95025 12.147 5.85225C11.952 5.65725 11.952 5.34025 12.147 5.14525L13.293 3.99925H9.5C9.224 3.99925 9 3.77525 9 3.49925C9 3.22325 9.224 2.99925 9.5 2.99925H13.293L12.147 1.85325C11.952 1.65825 11.952 1.34125 12.147 1.14625C12.342 0.95125 12.659 0.95125 12.854 1.14625Z" fill="#006CBF"/>
<path d="M4.00023 13.292L5.14623 12.146H5.14823C5.34323 11.951 5.66023 11.951 5.85523 12.146C6.05023 12.341 6.05023 12.658 5.85523 12.853L3.85523 14.853C3.75723 14.95 3.62923 14.999 3.50123 14.999C3.37323 14.999 3.24523 14.951 3.14723 14.853L1.14723 12.853C0.952227 12.658 0.952227 12.341 1.14723 12.146C1.34223 11.951 1.65923 11.951 1.85423 12.146L3.00023 13.292V9.49902C3.00023 9.22302 3.22423 8.99902 3.50023 8.99902C3.77623 8.99902 4.00023 9.22302 4.00023 9.49902V13.292Z" fill="#006CBF"/>
<path d="M15 7.5C15 7.776 14.776 8 14.5 8H8V14.5C8 14.776 7.776 15 7.5 15C7.224 15 7 14.776 7 14.5V8H0.5C0.224 8 0 7.776 0 7.5C0 7.224 0.224 7 0.5 7H7V0.5C7 0.224 7.224 0 7.5 0C7.776 0 8 0.224 8 0.5V7H14.5C14.776 7 15 7.224 15 7.5ZM15 14V10C15 9.448 14.552 9 14 9H10C9.448 9 9 9.448 9 10V14C9 14.552 9.448 15 10 15H14C14.552 15 15 14.552 15 14ZM14.001 10V14H10.001V10H14.001Z" fill="#202020"/>
</svg>
