<svg width="16" height="16" viewBox="0 0 16 16" fill="none" xmlns="http://www.w3.org/2000/svg">
<g clip-path="url(#clip0_7202_85427)">
<path d="M9.5 5H6.5C6.36739 5 6.24021 4.94732 6.14645 4.85355C6.05268 4.75979 6 4.63261 6 4.5C6 4.36739 6.05268 4.24021 6.14645 4.14645C6.24021 4.05268 6.36739 4 6.5 4H9.5C9.63261 4 9.75979 4.05268 9.85355 4.14645C9.94732 4.24021 10 4.36739 10 4.5C10 4.63261 9.94732 4.75979 9.85355 4.85355C9.75979 4.94732 9.63261 5 9.5 5Z" fill="#202020"/>
<path d="M4 7V3C4 2.46957 4.21071 1.96086 4.58579 1.58579C4.96086 1.21071 5.46957 1 6 1H10C10.5304 1 11.0391 1.21071 11.4142 1.58579C11.7893 1.96086 12 2.46957 12 3V6.06261C11.8385 6.02123 11.6718 6 11.5035 6C11.3328 6 11.1636 6.02185 11 6.06442V3C11 2.73478 10.8946 2.48043 10.7071 2.29289C10.5196 2.10536 10.2652 2 10 2H6C5.73478 2 5.48043 2.10536 5.29289 2.29289C5.10536 2.48043 5 2.73478 5 3V7H4Z" fill="#202020"/>
<path fill-rule="evenodd" clip-rule="evenodd" d="M9.18355 8.16743C8.97391 8.06032 8.73986 8.00293 8.5 8.00293H3.5C3.105 8.00293 2.719 8.16293 2.439 8.44193C2.156 8.72493 2 9.10193 2 9.50293V13.0029C1.605 13.0029 1.219 13.1629 0.939 13.4419C0.656 13.7249 0.5 14.1019 0.5 14.5029C0.5 14.9039 0.656 15.2799 0.939 15.5639C1.218 15.8429 1.605 16.0029 2 16.0029H6.26581C6.19257 15.8755 6.13308 15.7394 6.08904 15.5967C5.99567 15.2944 5.97619 14.977 6.02845 14.6705C6.02039 14.6477 6.01389 14.6241 6.009 14.5999C5.989 14.5039 5.999 14.4039 6.037 14.3129C6.075 14.2209 6.14 14.1429 6.221 14.0879C6.22214 14.0872 6.22328 14.0864 6.22442 14.0857L6.73557 13.0634C6.66513 13.0255 6.58456 13.0039 6.499 13.0039H3V9.50293C3 9.37193 3.054 9.24293 3.146 9.14893C3.238 9.05493 3.368 9.00293 3.5 9.00293H7.092C7.035 9.16293 7 9.32993 7 9.50293V12.5345L8.2658 10.0029H8V9.50293C8 9.36993 8.053 9.24293 8.146 9.14893C8.239 9.05493 8.367 9.00293 8.5 9.00293C8.5833 9.00293 8.66425 9.02372 8.73621 9.06211L9.18355 8.16743ZM5.086 15.0029C5.061 14.9359 5.043 14.8659 5.029 14.7949C4.976 14.5309 4.996 14.2579 5.086 14.0029H2C1.868 14.0029 1.738 14.0549 1.646 14.1489C1.554 14.2429 1.5 14.3709 1.5 14.5029C1.5 14.6349 1.553 14.7639 1.646 14.8569C1.739 14.9499 1.868 15.0029 2 15.0029H5.086Z" fill="#202020"/>
<path fill-rule="evenodd" clip-rule="evenodd" d="M12.3931 7.55201L15.8931 14.552C15.9694 14.7044 16.0056 14.8738 15.9981 15.044C15.9906 15.2143 15.9397 15.3799 15.8502 15.5249C15.7607 15.67 15.6357 15.7898 15.4869 15.8729C15.3381 15.9561 15.1705 15.9998 15.0001 16H8.00006C7.8292 16.0007 7.66101 15.9576 7.51154 15.8748C7.36207 15.792 7.23631 15.6723 7.14625 15.5271C7.0562 15.3818 7.00486 15.216 6.99712 15.0453C6.98938 14.8746 7.02551 14.7048 7.10206 14.552L10.6021 7.55201C10.6849 7.38534 10.8126 7.24509 10.9708 7.14705C11.129 7.04901 11.3114 6.99707 11.4976 6.99707C11.6837 6.99707 11.8661 7.04901 12.0243 7.14705C12.1825 7.24509 12.3102 7.38534 12.3931 7.55201ZM12 12.495V9.495C12 9.36239 11.9473 9.23521 11.8536 9.14144C11.7598 9.04767 11.6326 8.995 11.5 8.995C11.3674 8.995 11.2402 9.04767 11.1464 9.14144C11.0527 9.23521 11 9.36239 11 9.495V12.495C11 12.6276 11.0527 12.7548 11.1464 12.8485C11.2402 12.9423 11.3674 12.995 11.5 12.995C11.6326 12.995 11.7598 12.9423 11.8536 12.8485C11.9473 12.7548 12 12.6276 12 12.495ZM11.2222 14.0843C11.3044 14.0293 11.4011 14 11.5 14C11.6326 14 11.7598 14.0527 11.8536 14.1464C11.9473 14.2402 12 14.3674 12 14.5C12 14.5989 11.9707 14.6956 11.9157 14.7778C11.8608 14.86 11.7827 14.9241 11.6913 14.9619C11.6 14.9998 11.4994 15.0097 11.4025 14.9904C11.3055 14.9711 11.2164 14.9235 11.1464 14.8535C11.0765 14.7836 11.0289 14.6945 11.0096 14.5975C10.9903 14.5006 11.0002 14.4 11.0381 14.3087C11.0759 14.2173 11.14 14.1392 11.2222 14.0843Z" fill="#B27C00"/>
</g>
<defs>
<clipPath id="clip0_7202_85427">
<rect width="16" height="16" fill="white"/>
</clipPath>
</defs>
</svg>
