<svg width="16" height="16" viewBox="0 0 16 16" fill="none" xmlns="http://www.w3.org/2000/svg">
<g clip-path="url(#clip0_7202_85422)">
<path d="M9.5 5H6.5C6.36739 5 6.24021 4.94732 6.14645 4.85355C6.05268 4.75979 6 4.63261 6 4.5C6 4.36739 6.05268 4.24021 6.14645 4.14645C6.24021 4.05268 6.36739 4 6.5 4H9.5C9.63261 4 9.75979 4.05268 9.85355 4.14645C9.94732 4.24021 10 4.36739 10 4.5C10 4.63261 9.94732 4.75979 9.85355 4.85355C9.75979 4.94732 9.63261 5 9.5 5Z" fill="#202020"/>
<path d="M4 7V3C4 2.46957 4.21071 1.96086 4.58579 1.58579C4.96086 1.21071 5.46957 1 6 1H10C10.5304 1 11.0391 1.21071 11.4142 1.58579C11.7893 1.96086 12 2.46957 12 3V6.02242C11.8353 6.00758 11.6685 6 11.5 6C11.3315 6 11.1647 6.00758 11 6.02242V3C11 2.73478 10.8946 2.48043 10.7071 2.29289C10.5196 2.10536 10.2652 2 10 2H6C5.73478 2 5.48043 2.10536 5.29289 2.29289C5.10536 2.48043 5 2.73478 5 3V7H4Z" fill="#202020"/>
<path fill-rule="evenodd" clip-rule="evenodd" d="M7.25444 8.00293H3.5C3.105 8.00293 2.719 8.16293 2.439 8.44193C2.156 8.72493 2 9.10193 2 9.50293V13.0029C1.605 13.0029 1.219 13.1629 0.939 13.4419C0.656 13.7249 0.5 14.1019 0.5 14.5029C0.5 14.9039 0.656 15.2799 0.939 15.5639C1.218 15.8429 1.605 16.0029 2 16.0029H6.501C6.696 16.0029 6.891 15.9649 7.074 15.8889C7.30642 15.7922 7.51006 15.6401 7.66783 15.4448C7.41433 15.1985 7.18449 14.928 6.98205 14.6371C6.9681 14.6879 6.94621 14.7361 6.917 14.7799C6.861 14.8629 6.783 14.9259 6.691 14.9649C6.6347 14.9885 6.56026 14.9965 6.51335 15.0015C6.5086 15.002 6.50414 15.0025 6.5 15.0029H6.487C6.459 15.0029 6.43 14.9989 6.403 14.9939C6.305 14.9739 6.216 14.9269 6.146 14.8569C6.076 14.7869 6.029 14.6989 6.009 14.5999C5.989 14.5039 5.999 14.4039 6.037 14.3129C6.075 14.2209 6.14 14.1429 6.221 14.0879C6.304 14.0329 6.401 14.0039 6.499 14.0039C6.53254 14.0039 6.5653 14.0006 6.59699 13.9943C6.43695 13.6804 6.30617 13.3491 6.20825 13.0039H3V9.50293C3 9.37193 3.054 9.24293 3.146 9.14893C3.238 9.05493 3.368 9.00293 3.5 9.00293H6.59803C6.7806 8.64519 7.00118 8.31008 7.25444 8.00293ZM5.086 15.0029C5.061 14.9359 5.043 14.8659 5.029 14.7949C4.976 14.5309 4.996 14.2579 5.086 14.0029H2C1.868 14.0029 1.738 14.0549 1.646 14.1489C1.554 14.2429 1.5 14.3709 1.5 14.5029C1.5 14.6349 1.553 14.7639 1.646 14.8569C1.739 14.9499 1.868 15.0029 2 15.0029H5.086Z" fill="#202020"/>
<path fill-rule="evenodd" clip-rule="evenodd" d="M11.5 16C13.9853 16 16 13.9853 16 11.5C16 9.01472 13.9853 7 11.5 7C9.01472 7 7 9.01472 7 11.5C7 13.9853 9.01472 16 11.5 16ZM13.3536 10.3536C13.5488 10.1583 13.5488 9.84171 13.3536 9.64645C13.1583 9.45118 12.8417 9.45118 12.6464 9.64645L11.5 10.7929L10.3536 9.64645C10.1583 9.45118 9.84171 9.45118 9.64645 9.64645C9.45118 9.84171 9.45118 10.1583 9.64645 10.3536L10.7929 11.5L9.64645 12.6464C9.45118 12.8417 9.45118 13.1583 9.64645 13.3536C9.84171 13.5488 10.1583 13.5488 10.3536 13.3536L11.5 12.2071L12.6464 13.3536C12.8417 13.5488 13.1583 13.5488 13.3536 13.3536C13.5488 13.1583 13.5488 12.8417 13.3536 12.6464L12.2071 11.5L13.3536 10.3536Z" fill="#C50F1F"/>
</g>
<defs>
<clipPath id="clip0_7202_85422">
<rect width="16" height="16" fill="white"/>
</clipPath>
</defs>
</svg>
