<svg width="16" height="16" viewBox="0 0 16 16" fill="none" xmlns="http://www.w3.org/2000/svg">
<g clip-path="url(#clip0_7202_85449)">
<path d="M12.933 0.0180057H6.333C6.12906 0.0178422 5.92914 0.074685 5.7558 0.182118C5.58246 0.289552 5.4426 0.443299 5.352 0.626006L4.452 2.44101C4.37004 2.60827 4.3319 2.7936 4.34115 2.97964C4.35039 3.16567 4.40673 3.34631 4.50487 3.50462C4.60302 3.66293 4.73976 3.79373 4.90227 3.88474C5.06478 3.97576 5.24774 4.02403 5.434 4.02501H11.439C11.7904 4.02348 12.1358 4.11525 12.4401 4.29094C12.7444 4.46663 12.9966 4.71994 13.171 5.02501C13.1046 5.0323 13.0378 5.03597 12.971 5.03601H4.122C3.80503 5.03524 3.49423 5.12363 3.2251 5.29109C2.95597 5.45854 2.73935 5.69831 2.6 5.98301L0.655999 9.96001H0.663999C0.553122 10.1887 0.496521 10.4398 0.498602 10.6939C0.500683 10.948 0.561392 11.1982 0.675999 11.425L2.576 15.232C2.66802 15.413 2.80833 15.5649 2.98138 15.6711C3.15444 15.7772 3.35349 15.8334 3.5565 15.8334C3.75951 15.8334 3.95856 15.7772 4.13162 15.6711C4.30467 15.5649 4.44498 15.413 4.537 15.232L7.148 10.009H10.964C11.5249 10.0099 12.0749 9.85357 12.5515 9.55767C13.028 9.26177 13.4121 8.83818 13.66 8.33501L15.282 5.03501L15.619 4.35501C15.8467 3.89759 15.9538 3.38959 15.9302 2.87917C15.9065 2.36876 15.7529 1.87284 15.4839 1.43844C15.2148 1.00403 14.8393 0.645546 14.3929 0.396962C13.9465 0.148378 13.444 0.0179371 12.933 0.0180057V0.0180057ZM3.646 14.789C3.63714 14.8039 3.62456 14.8163 3.60948 14.8249C3.5944 14.8335 3.57735 14.838 3.56 14.838C3.54265 14.838 3.52559 14.8335 3.51052 14.8249C3.49544 14.8163 3.48285 14.8039 3.474 14.789L1.574 10.982C1.52279 10.8801 1.49862 10.7667 1.50378 10.6528C1.50895 10.5389 1.54329 10.4282 1.60351 10.3313C1.66373 10.2345 1.74782 10.1547 1.84771 10.0997C1.9476 10.0446 2.05995 10.0162 2.174 10.017H6.032L3.646 14.789ZM12.867 7.68901L12.767 7.90001C12.6022 8.23547 12.3466 8.51804 12.0293 8.71565C11.7121 8.91326 11.3458 9.018 10.972 9.01801H2.233L3.5 6.42201C3.55686 6.30573 3.6452 6.20772 3.75497 6.13914C3.86475 6.07055 3.99156 6.03413 4.121 6.03401H12.58C12.9219 6.00508 13.2505 5.8887 13.5344 5.69606C13.8183 5.50342 14.0478 5.24099 14.201 4.93401L14.401 4.53401L12.867 7.68901Z" fill="#202020"/>
</g>
<defs>
<clipPath id="clip0_7202_85449">
<rect width="16" height="16" fill="white"/>
</clipPath>
</defs>
</svg>
