<svg width="16" height="16" viewBox="0 0 16 16" fill="none" xmlns="http://www.w3.org/2000/svg">
<path d="M5.99989 7.48184V4.50037H9.99989L9.99989 12.0004H6.45926C6.80898 11.3962 6.99775 10.7065 7 10C7 9.466 6.792 8.964 6.414 8.586C6.289 8.46 6.149 8.354 6 8.267V7.5C6 7.49394 5.99996 7.48789 5.99989 7.48184Z" fill="#11910D"/>
<path d="M6.49989 2.50037V2.00037C6.49989 1.72437 6.72389 1.50037 6.99989 1.50037H8.99989C9.27589 1.50037 9.49989 1.72437 9.49989 2.00037V2.50037H9.99989C11.1029 2.50037 11.9999 3.39737 11.9999 4.50037V12.0004C11.9999 13.1034 11.1029 14.0004 9.99989 14.0004H5.99989C5.53725 14.0004 5.11086 13.8426 4.77169 13.5779C5.10484 13.4131 5.41442 13.2025 5.69096 12.9517C5.78826 12.9833 5.8921 13.0004 5.99989 13.0004H9.99989C10.5519 13.0004 10.9999 12.5524 10.9999 12.0004L10.9999 4.50037C10.9999 3.94837 10.5519 3.50037 9.99989 3.50037L5.99989 3.50037C5.44789 3.50037 4.99989 3.94837 4.99989 4.50037V6.08443C4.84147 6.02884 4.67297 6 4.5 6H3.99989V4.50037C3.99989 3.39737 4.89689 2.50037 5.99989 2.50037L6.49989 2.50037Z" fill="#202020"/>
<path d="M3.5 12.95V15.5C3.5 15.633 3.447 15.76 3.354 15.854C3.26 15.948 3.133 16 3 16C2.867 16 2.74 15.947 2.646 15.854C2.552 15.76 2.5 15.633 2.5 15.5V12.95C1.802 12.832 1.169 12.471 0.711 11.932C0.254 11.392 0.002 10.708 0 10C0 9.735 0.105 9.48 0.293 9.293C0.481 9.105 0.735 9 1 9V7.5C1 7.367 1.053 7.24 1.146 7.146C1.24 7.052 1.367 7 1.5 7C1.633 7 1.76 7.053 1.854 7.146C1.948 7.24 2 7.367 2 7.5V9H4V7.5C4 7.367 4.053 7.24 4.146 7.146C4.24 7.052 4.367 7 4.5 7C4.633 7 4.76 7.053 4.854 7.146C4.948 7.24 5 7.367 5 7.5V9C5.265 9 5.52 9.105 5.707 9.293C5.895 9.481 6 9.735 6 10C5.998 10.708 5.746 11.392 5.289 11.932C4.832 12.472 4.198 12.833 3.5 12.95Z" fill="#202020"/>
</svg>
