<svg width="16" height="16" viewBox="0 0 16 16" fill="none" xmlns="http://www.w3.org/2000/svg">
<path d="M2 5.50025C2 5.22425 2.224 5.00025 2.5 5.00025H8.5C8.776 5.00025 9 5.22425 9 5.50025C9 5.77625 8.776 6.00025 8.5 6.00025H2.5C2.224 6.00025 2 5.77625 2 5.50025ZM8.5 10.0002H2.5C2.224 10.0002 2 10.2242 2 10.5002C2 10.7762 2.224 11.0002 2.5 11.0002H8.5C8.776 11.0002 9 10.7762 9 10.5002C9 10.2242 8.776 10.0002 8.5 10.0002ZM15.354 7.64625L9.854 2.14625C9.659 1.95125 9.342 1.95125 9.147 2.14625C8.952 2.34125 8.952 2.65825 9.147 2.85325L14.293 7.99925L9.147 13.1453C8.952 13.3403 8.952 13.6573 9.147 13.8523C9.245 13.9503 9.373 13.9983 9.501 13.9983C9.629 13.9983 9.757 13.9493 9.855 13.8523L15.355 8.35225C15.55 8.15725 15.55 7.84025 15.355 7.64525L15.354 7.64625Z" fill="#202020"/>
</svg>
