<svg width="16" height="16" viewBox="0 0 16 16" fill="none" xmlns="http://www.w3.org/2000/svg">
<path d="M1 3.5C1 3.22386 1.22386 3 1.5 3H7C7.27614 3 7.5 3.22386 7.5 3.5C7.5 3.77614 7.27614 4 7 4H1.5C1.22386 4 1 3.77614 1 3.5Z" fill="#202020"/>
<path d="M4.33136 6.02915C4.38404 6.01028 4.44082 6 4.5 6H8.5C8.77614 6 9 6.22386 9 6.5C9 6.77614 8.77614 7 8.5 7H6.38921C6.2958 6.92183 6.19894 6.84724 6.09882 6.77648C5.56648 6.40026 4.96288 6.14723 4.33136 6.02915Z" fill="#202020"/>
<path d="M8.18137 13H9C9.27614 13 9.5 12.7761 9.5 12.5C9.5 12.2239 9.27614 12 9 12H7.72128C7.67387 12.1286 7.62043 12.2554 7.56101 12.3799L8.18137 13Z" fill="#202020"/>
<path d="M7.97656 10H11.5C11.7761 10 12 9.77614 12 9.5C12 9.22386 11.7761 9 11.5 9H7.75978C7.79454 9.10228 7.82569 9.20608 7.85313 9.31122C7.91243 9.53848 7.95351 9.76877 7.97656 10Z" fill="#202020"/>
<path d="M11 6C10.7239 6 10.5 6.22386 10.5 6.5C10.5 6.77614 10.7239 7 11 7H13.5C13.7761 7 14 6.77614 14 6.5C14 6.22386 13.7761 6 13.5 6H11Z" fill="#202020"/>
<path d="M9 3.5C9 3.22386 9.22386 3 9.5 3H14.5C14.7761 3 15 3.22386 15 3.5C15 3.77614 14.7761 4 14.5 4H9.5C9.22386 4 9 3.77614 9 3.5Z" fill="#202020"/>
<path d="M8.854 15.0869L6.293 12.5269C6.74929 11.9266 6.99749 11.194 7 10.4399C7 9.74771 6.79473 9.07102 6.41015 8.49545C6.02556 7.91988 5.47894 7.47127 4.83939 7.20636C4.19985 6.94146 3.49612 6.87215 2.81719 7.00719C2.13825 7.14224 1.51461 7.47559 1.02513 7.96507C0.535644 8.45455 0.202301 9.07819 0.0672531 9.75713C-0.0677952 10.4361 0.00151649 11.1398 0.266423 11.7793C0.53133 12.4189 0.979934 12.9655 1.55551 13.3501C2.13108 13.7347 2.80777 13.9399 3.5 13.9399C4.25357 13.9375 4.98584 13.6897 5.586 13.2339L8.146 15.7939C8.23976 15.8878 8.36697 15.9406 8.49965 15.9407C8.63233 15.9408 8.75962 15.8882 8.8535 15.7944C8.94739 15.7007 9.00019 15.5735 9.00028 15.4408C9.00037 15.3081 8.94776 15.1808 8.854 15.0869V15.0869ZM1 10.4399C1 9.94549 1.14662 9.46214 1.42133 9.05102C1.69603 8.63989 2.08648 8.31946 2.54329 8.13024C3.00011 7.94103 3.50277 7.89152 3.98773 7.98798C4.47268 8.08444 4.91814 8.32255 5.26777 8.67218C5.6174 9.02181 5.8555 9.46726 5.95196 9.95222C6.04843 10.4372 5.99892 10.9398 5.8097 11.3967C5.62048 11.8535 5.30005 12.2439 4.88893 12.5186C4.4778 12.7933 3.99445 12.9399 3.5 12.9399C2.83696 12.9399 2.20108 12.6766 1.73223 12.2077C1.26339 11.7389 1 11.103 1 10.4399V10.4399Z" fill="#006CBF"/>
</svg>
