<svg width="16" height="16" viewBox="0 0 16 16" fill="none" xmlns="http://www.w3.org/2000/svg">
<g clip-path="url(#clip0_7202_85597)">
<path fill-rule="evenodd" clip-rule="evenodd" d="M3.5 2C2.11929 2 1 3.11929 1 4.5V11.5C1 11.9105 1.09895 12.298 1.27431 12.6397C1.32452 12.5695 1.38094 12.5036 1.44301 12.443L2.04008 11.8459C2.01387 11.7349 2 11.619 2 11.5V7H5.58579C5.98361 7 6.36514 6.84197 6.64645 6.56066L8.20711 5H12.5C13.3284 5 14 5.67157 14 6.5V7H15V6.5C15 5.11929 13.8807 4 12.5 4H8.20711L6.64645 2.43934C6.36514 2.15804 5.98361 2 5.58579 2H3.5ZM2 6V4.5C2 3.67157 2.67157 3 3.5 3H5.58579C5.71839 3 5.84557 3.05268 5.93934 3.14645L7.29289 4.5L5.93934 5.85355C5.84557 5.94732 5.71839 6 5.58579 6H2Z" fill="#B27C00"/>
<path d="M11 8H15C15.2652 8 15.5196 8.10536 15.7071 8.29289C15.8946 8.48043 16 8.73478 16 9V15.63C16 15.7281 15.961 15.8222 15.8916 15.8916C15.8222 15.961 15.7281 16 15.63 16C15.5461 15.9999 15.4646 15.9714 15.399 15.919L13 14L10.6 15.919C10.5346 15.9711 10.4536 15.9997 10.37 16C10.3214 16 10.2733 15.9904 10.2284 15.9718C10.1835 15.9532 10.1427 15.926 10.1084 15.8916C10.039 15.8222 10 15.7281 10 15.63V9C10 8.73478 10.1054 8.48043 10.2929 8.29289C10.4804 8.10536 10.7348 8 11 8Z" fill="#202020"/>
<path d="M2.15 13.85L4.15 15.85C4.19512 15.8975 4.24941 15.9352 4.30958 15.9611C4.36974 15.9869 4.43453 16.0002 4.5 16.0002C4.56547 16.0002 4.63026 15.9869 4.69042 15.9611C4.75059 15.9352 4.80488 15.8975 4.85 15.85C4.89744 15.8049 4.93522 15.7506 4.96103 15.6905C4.98684 15.6303 5.00015 15.5655 5.00015 15.5C5.00015 15.4346 4.98684 15.3698 4.96103 15.3096C4.93522 15.2494 4.89744 15.1951 4.85 15.15L3.71 14H8.5C8.63261 14 8.75979 13.9473 8.85355 13.8536C8.94732 13.7598 9 13.6326 9 13.5C9 13.3674 8.94732 13.2402 8.85355 13.1465C8.75979 13.0527 8.63261 13 8.5 13H3.71L4.85 11.85C4.89744 11.8049 4.93522 11.7506 4.96103 11.6905C4.98684 11.6303 5.00015 11.5655 5.00015 11.5C5.00015 11.4346 4.98684 11.3698 4.96103 11.3096C4.93522 11.2494 4.89744 11.1951 4.85 11.15C4.80488 11.1026 4.75059 11.0648 4.69042 11.039C4.63026 11.0132 4.56547 10.9999 4.5 10.9999C4.43453 10.9999 4.36974 11.0132 4.30958 11.039C4.24941 11.0648 4.19512 11.1026 4.15 11.15L2.15 13.15C2.10256 13.1951 2.06478 13.2494 2.03897 13.3096C2.01316 13.3698 1.99985 13.4346 1.99985 13.5C1.99985 13.5655 2.01316 13.6303 2.03897 13.6905C2.06478 13.7506 2.10256 13.8049 2.15 13.85Z" fill="#006CBF"/>
</g>
<defs>
<clipPath id="clip0_7202_85597">
<rect width="16" height="16" fill="white"/>
</clipPath>
</defs>
</svg>
