<svg width="16" height="16" viewBox="0 0 16 16" fill="none" xmlns="http://www.w3.org/2000/svg">
<g clip-path="url(#clip0_7202_85637)">
<path d="M7.0176 12.4997L7.5 11.5349V11.5H7.51744L8.76744 9H8.5C8.22386 9 8 9.22386 8 9.5V10.5H7C6.72386 10.5 6.5 10.7239 6.5 11V11.5H5.5C5.22386 11.5 5 11.7239 5 12V13H3V11.7071L7.08898 7.61813C7.22904 7.47807 7.27321 7.26854 7.20163 7.08386C7.07157 6.74835 7 6.38313 7 6C7 4.34315 8.34315 3 10 3C11.6569 3 13 4.34315 13 6C13 6.20794 12.9788 6.41093 12.9386 6.60695C13.0813 6.75397 13.2012 6.92274 13.2935 7.10787L13.6061 7.73304C13.8585 7.20871 14 6.62088 14 6C14 3.79086 12.2091 2 10 2C7.79086 2 6 3.79086 6 6C6 6.39211 6.05656 6.77171 6.16219 7.13071L2.29289 11C2.10536 11.1875 2 11.4419 2 11.7071V13C2 13.5523 2.44772 14 3 14H5C5.55229 14 6 13.5523 6 13V12.5H7C7.00589 12.5 7.01176 12.4999 7.0176 12.4997Z" fill="#202020"/>
<path d="M12 5C12 5.55228 11.5523 6 11 6C10.4477 6 10 5.55228 10 5C10 4.44772 10.4477 4 11 4C11.5523 4 12 4.44772 12 5Z" fill="#202020"/>
<path fill-rule="evenodd" clip-rule="evenodd" d="M12.3931 7.55201L15.8931 14.552C15.9694 14.7044 16.0056 14.8738 15.9981 15.044C15.9906 15.2143 15.9397 15.3799 15.8502 15.5249C15.7607 15.67 15.6357 15.7898 15.4869 15.8729C15.3381 15.9561 15.1705 15.9998 15.0001 16H8.00006C7.8292 16.0007 7.66101 15.9576 7.51154 15.8748C7.36207 15.792 7.23631 15.6723 7.14625 15.5271C7.0562 15.3818 7.00486 15.216 6.99712 15.0453C6.98938 14.8746 7.02551 14.7048 7.10206 14.552L10.6021 7.55201C10.6849 7.38534 10.8126 7.24509 10.9708 7.14705C11.129 7.04901 11.3114 6.99707 11.4976 6.99707C11.6837 6.99707 11.8661 7.04901 12.0243 7.14705C12.1825 7.24509 12.3102 7.38534 12.3931 7.55201ZM12 12.495V9.495C12 9.36239 11.9473 9.23521 11.8536 9.14144C11.7598 9.04767 11.6326 8.995 11.5 8.995C11.3674 8.995 11.2402 9.04767 11.1464 9.14144C11.0527 9.23521 11 9.36239 11 9.495V12.495C11 12.6276 11.0527 12.7548 11.1464 12.8485C11.2402 12.9423 11.3674 12.995 11.5 12.995C11.6326 12.995 11.7598 12.9423 11.8536 12.8485C11.9473 12.7548 12 12.6276 12 12.495ZM11.2222 14.0843C11.3044 14.0293 11.4011 14 11.5 14C11.6326 14 11.7598 14.0527 11.8536 14.1464C11.9473 14.2402 12 14.3674 12 14.5C12 14.5989 11.9707 14.6956 11.9157 14.7778C11.8608 14.86 11.7827 14.9241 11.6913 14.9619C11.6 14.9998 11.4994 15.0097 11.4025 14.9904C11.3055 14.9711 11.2164 14.9235 11.1464 14.8535C11.0765 14.7836 11.0289 14.6945 11.0096 14.5975C10.9903 14.5006 11.0002 14.4 11.0381 14.3087C11.0759 14.2173 11.14 14.1392 11.2222 14.0843Z" fill="#B27C00"/>
</g>
<defs>
<clipPath id="clip0_7202_85637">
<rect width="16" height="16" fill="white"/>
</clipPath>
</defs>
</svg>
