<svg width="16" height="16" viewBox="0 0 16 16" fill="none" xmlns="http://www.w3.org/2000/svg">
<path fill-rule="evenodd" clip-rule="evenodd" d="M6.5 2C5.67157 2 5 2.67157 5 3.5V4H4C2.89543 4 2 4.89543 2 6V6.59971C2.31679 6.43777 2.65136 6.30564 3 6.20703V6C3 5.44772 3.44772 5 4 5H14C14.5523 5 15 5.44772 15 6V10.5C15 10.7761 14.7761 11 14.5 11H13V10.5C13 9.67157 12.3284 9 11.5 9H9.40029C9.56223 9.31679 9.69436 9.65136 9.79297 10H11.5C11.7761 10 12 10.2239 12 10.5V12.5C12 12.7761 11.7761 13 11.5 13H9.79297C9.69436 13.3486 9.56223 13.6832 9.40029 14H11.5C12.3284 14 13 13.3284 13 12.5V12H14.5C15.3284 12 16 11.3284 16 10.5V6C16 4.89543 15.1046 4 14 4H13V3.5C13 2.67157 12.3284 2 11.5 2H6.5ZM12 4H6V3.5C6 3.22386 6.22386 3 6.5 3H11.5C11.7761 3 12 3.22386 12 3.5V4Z" fill="#202020"/>
<path fill-rule="evenodd" clip-rule="evenodd" d="M9 11.5C9 13.9853 6.98528 16 4.5 16C2.01472 16 0 13.9853 0 11.5C0 9.01472 2.01472 7 4.5 7C6.98528 7 9 9.01472 9 11.5ZM6.85355 9.64645C7.04882 9.84171 7.04882 10.1583 6.85355 10.3536L3.85355 13.3536C3.65829 13.5488 3.34171 13.5488 3.14645 13.3536L2.14645 12.3536C1.95118 12.1583 1.95118 11.8417 2.14645 11.6464C2.34171 11.4512 2.65829 11.4512 2.85355 11.6464L3.5 12.2929L6.14645 9.64645C6.34171 9.45118 6.65829 9.45118 6.85355 9.64645Z" fill="#006CBF"/>
</svg>
