<svg width="16" height="16" viewBox="0 0 16 16" fill="none" xmlns="http://www.w3.org/2000/svg">
<path d="M11.5 2H3.5C2.119 2 1 3.119 1 4.5V12.5C1 13.881 2.119 15 3.5 15H11.5C12.881 15 14 13.881 14 12.5V4.5C14 3.119 12.881 2 11.5 2ZM2 7H5V10H2V7ZM6 7H9V10H6V7ZM10 7H13V10H10V7ZM11.5 3C12.328 3 13 3.672 13 4.5V6H10V3H11.5ZM9 3V6H6V3H9ZM3.5 3H5V6H2V4.5C2 3.672 2.672 3 3.5 3ZM3.5 14C2.672 14 2 13.328 2 12.5V11H5V14H3.5ZM6 14V11H9V14H6ZM11.5 14H10V11H13V12.5C13 13.328 12.328 14 11.5 14Z" fill="#202020"/>
</svg>
