<svg width="16" height="16" viewBox="0 0 16 16" fill="none" xmlns="http://www.w3.org/2000/svg">
<path d="M13.5 1H1.5C0.673 1 0 1.673 0 2.5V12.5C0 13.327 0.673 14 1.5 14H13.5C14.327 14 15 13.327 15 12.5V2.5C15 1.673 14.327 1 13.5 1ZM14 12.5C14 12.776 13.776 13 13.5 13H1.5C1.224 13 1 12.776 1 12.5V2.5C1 2.224 1.224 2 1.5 2H13.5C13.776 2 14 2.224 14 2.5V12.5ZM6.5 3H2.5C2.224 3 2 3.224 2 3.5V11.5C2 11.776 2.224 12 2.5 12H6.5C6.776 12 7 11.776 7 11.5V3.5C7 3.224 6.776 3 6.5 3ZM6 11H3V4H6V11ZM12.5 3H8.5C8.224 3 8 3.224 8 3.5V11.5C8 11.776 8.224 12 8.5 12H12.5C12.776 12 13 11.776 13 11.5V3.5C13 3.224 12.776 3 12.5 3ZM12 11H9V4H12V11Z" fill="#202020"/>
</svg>
