<svg width="16" height="16" viewBox="0 0 16 16" fill="none" xmlns="http://www.w3.org/2000/svg">
<path d="M12.561 4.35398L9.647 1.43998C9.366 1.15898 8.984 1.00098 8.586 1.00098H5C3.895 1.00098 3 1.89598 3 3.00098V13.001C3 14.106 3.895 15.001 5 15.001H11C12.105 15.001 13 14.106 13 13.001V5.41498C13 5.01698 12.842 4.63598 12.561 4.35398ZM9 2.20798L11.793 5.00098H9.5C9.224 5.00098 9 4.77698 9 4.50098V2.20798ZM9.5 6.00098H12V9.00098H7V1.99998H8V4.49998C8 5.32798 8.672 6.00098 9.5 6.00098ZM5 1.99998H6V8.99998H4V2.99998C4 2.44798 4.448 1.99998 5 1.99998ZM4 13V9.99998H6V14H5C4.448 14 4 13.552 4 13ZM11 14H7V9.99998H12V13C12 13.552 11.552 14 11 14Z" fill="#202020"/>
</svg>
