<svg width="16" height="16" viewBox="0 0 16 16" fill="none" xmlns="http://www.w3.org/2000/svg">
<path fill-rule="evenodd" clip-rule="evenodd" d="M2 4.5C2 3.11929 3.11929 2 4.5 2H11.5C12.8807 2 14 3.11929 14 4.5V11.5C14 12.8807 12.8807 14 11.5 14H9.18187L8.18137 13H11.5C12.3284 13 13 12.3284 13 11.5V6H4.15636C3.81682 5.9503 3.47047 5.93934 3.12388 5.9689C2.73759 6.00184 2.36011 6.08435 2 6.21245V4.5ZM3 5H13V4.5C13 3.67157 12.3284 3 11.5 3H4.5C3.67157 3 3 3.67157 3 4.5V5Z" fill="#202020"/>
<path d="M8.854 15.0869L6.293 12.5269C6.74929 11.9266 6.99749 11.194 7 10.4399C7 9.74771 6.79473 9.07102 6.41015 8.49545C6.02556 7.91988 5.47894 7.47127 4.83939 7.20636C4.19985 6.94146 3.49612 6.87215 2.81719 7.00719C2.13825 7.14224 1.51461 7.47559 1.02513 7.96507C0.535644 8.45455 0.202301 9.07819 0.0672531 9.75713C-0.0677952 10.4361 0.00151649 11.1398 0.266423 11.7793C0.53133 12.4189 0.979934 12.9655 1.55551 13.3501C2.13108 13.7347 2.80777 13.9399 3.5 13.9399C4.25357 13.9375 4.98584 13.6897 5.586 13.2339L8.146 15.7939C8.23976 15.8878 8.36697 15.9406 8.49965 15.9407C8.63233 15.9408 8.75962 15.8882 8.8535 15.7944C8.94739 15.7007 9.00019 15.5735 9.00028 15.4408C9.00037 15.3081 8.94776 15.1808 8.854 15.0869V15.0869ZM1 10.4399C1 9.94549 1.14662 9.46214 1.42133 9.05102C1.69603 8.63989 2.08648 8.31946 2.54329 8.13024C3.00011 7.94103 3.50277 7.89152 3.98773 7.98798C4.47268 8.08444 4.91814 8.32255 5.26777 8.67218C5.6174 9.02181 5.8555 9.46726 5.95196 9.95222C6.04843 10.4372 5.99892 10.9398 5.8097 11.3967C5.62048 11.8535 5.30005 12.2439 4.88893 12.5186C4.4778 12.7933 3.99445 12.9399 3.5 12.9399C2.83696 12.9399 2.20108 12.6766 1.73223 12.2077C1.26339 11.7389 1 11.103 1 10.4399V10.4399Z" fill="#006CBF"/>
</svg>
