<svg width="16" height="16" viewBox="0 0 16 16" fill="none" xmlns="http://www.w3.org/2000/svg">
<g clip-path="url(#clip0_7202_85723)">
<path d="M8 14V15H2.5C1.121 15 0 13.879 0 12.5V6.5C0 6.224 0.224 6 0.5 6C0.776 6 1 6.224 1 6.5V12.5C1 13.327 1.673 14 2.5 14H8Z" fill="#202020"/>
<path d="M4 9C4 9.55228 3.55228 10 3 10C2.44772 10 2 9.55228 2 9C2 8.44771 2.44772 8 3 8C3.55228 8 4 8.44771 4 9Z" fill="#202020"/>
<path d="M8 9C8 9.55228 7.55228 10 7 10C6.44772 10 6 9.55228 6 9C6 8.44771 6.44772 8 7 8C7.55228 8 8 8.44771 8 9Z" fill="#202020"/>
<path d="M6 12C6 12.5523 5.55228 13 5 13C4.44772 13 4 12.5523 4 12C4 11.4477 4.44772 11 5 11C5.55228 11 6 11.4477 6 12Z" fill="#202020"/>
<path d="M9.85401 3.854L7.85401 5.854C7.65901 6.049 7.34201 6.049 7.14701 5.854L5.14701 3.854C4.95201 3.659 4.95201 3.342 5.14701 3.147C5.34201 2.952 5.65901 2.952 5.85401 3.147L7.00001 4.293V0.5C7.00001 0.224 7.22401 0 7.50001 0C7.77601 0 8.00001 0.224 8.00001 0.5V4.293L9.14601 3.147C9.24401 3.049 9.37201 3.001 9.50001 3.001C9.62801 3.001 9.75601 3.05 9.85401 3.147C10.049 3.342 10.049 3.659 9.85401 3.854Z" fill="#006CBF"/>
<path d="M10.5 9V10H9.875C9.392 10 9 10.403 9 10.9V15.1C9 15.597 9.392 16 9.875 16H15.125C15.608 16 16 15.597 16 15.1V10.9C16 10.403 15.608 10 15.125 10H14.5V9C14.5 7.895 13.605 7 12.5 7C11.395 7 10.5 7.895 10.5 9ZM12.5 8C13.052 8 13.5 8.448 13.5 9V10H11.5V9C11.5 8.448 11.948 8 12.5 8ZM12.5 13.75C12.086 13.75 11.75 13.414 11.75 13C11.75 12.586 12.086 12.25 12.5 12.25C12.914 12.25 13.25 12.586 13.25 13C13.25 13.414 12.914 13.75 12.5 13.75Z" fill="#202020"/>
</g>
<defs>
<clipPath id="clip0_7202_85723">
<rect width="16" height="16" fill="white"/>
</clipPath>
</defs>
</svg>
