<svg width="16" height="16" viewBox="0 0 16 16" fill="none" xmlns="http://www.w3.org/2000/svg">
<g clip-path="url(#clip0_7202_85801)">
<path d="M10.3929 7.57562C10.2761 7.36663 10.1443 7.16627 9.998 6.97603L9.813 6.73903C9.788 6.70703 9.658 6.54303 9.416 6.54303C9.359 6.54303 9.302 6.55303 9.248 6.57203L8.198 6.94403L8.042 6.97203C7.806 6.97203 7.604 6.80403 7.562 6.57203L7.362 5.48303C7.322 5.26903 7.148 5.10503 6.932 5.07803L6.632 5.04103C6.423 5.01503 6.213 5.00103 6.003 5.00103C5.793 5.00103 5.582 5.01403 5.373 5.04103L5.073 5.07803C4.856 5.10503 4.682 5.26903 4.643 5.48403L4.423 6.64903C4.305 6.95703 4.003 6.97003 3.956 6.97003C3.903 6.97003 3.849 6.96203 3.798 6.94403L2.748 6.57203C2.693 6.55203 2.635 6.54203 2.577 6.54203C2.334 6.54203 2.204 6.70703 2.179 6.73903L1.998 6.97503C1.747 7.31003 1.538 7.67503 1.377 8.06103L1.26 8.33803C1.234 8.40003 1.221 8.46603 1.221 8.53203C1.221 8.77045 1.38427 8.90289 1.39733 8.91348C1.39719 8.91337 1.39764 8.91373 1.39733 8.91348L2.298 9.68803C2.394 9.80103 2.412 9.92603 2.412 10C2.412 10.0002 2.412 10.0006 2.41201 10.0011C2.41234 10.0194 2.41603 10.2242 2.237 10.373L1.39 11.089C1.3903 11.0888 1.38986 11.0891 1.39 11.089C1.37694 11.0996 1.213 11.2326 1.213 11.471C1.213 11.537 1.226 11.603 1.252 11.665L1.369 11.943C1.533 12.331 1.747 12.696 2.003 13.03L2.184 13.266C2.209 13.298 2.339 13.461 2.58 13.461C2.637 13.461 2.694 13.451 2.748 13.432L3.795 13.066L3.959 13.037C4.196 13.037 4.397 13.206 4.44 13.437L4.64 14.526C4.682 14.738 4.855 14.9 5.07 14.926L5.364 14.963C5.57 14.989 5.777 15.002 5.984 15.002H6.01C6.215 15.002 6.42 14.989 6.623 14.963L6.923 14.926C7.139 14.899 7.313 14.734 7.352 14.52L7.42046 14.1591C7.35871 14.0948 7.30265 14.0249 7.253 13.95C7.088 13.703 7.001 13.415 7.001 13.121C7.00024 12.8868 7.01294 12.6538 7.03884 12.4229C6.87977 12.5636 6.73514 12.7557 6.634 13.018C6.607 13.095 6.586 13.174 6.571 13.254L6.438 13.979C6.292 13.995 6.145 14.004 5.998 14.004C5.851 14.004 5.704 13.996 5.558 13.979L5.431 13.254C5.345 12.706 4.865 12.024 3.992 12.024C3.893 12.024 3.794 12.034 3.696 12.054C3.618 12.068 3.542 12.089 3.468 12.116L2.763 12.366C2.59 12.132 2.443 11.879 2.325 11.613L2.89 11.135C3.233 10.847 3.418 10.427 3.418 10C3.418 9.64903 3.287 9.20303 2.891 8.86403L2.325 8.38603C2.443 8.12003 2.59 7.86703 2.764 7.63303L3.464 7.88303C3.621 7.93603 3.784 7.96203 3.946 7.96203C4.09 7.96203 5.008 7.92303 5.364 6.98303C5.391 6.90703 5.411 6.82803 5.426 6.74903L5.559 6.02503C5.705 6.00903 5.852 6.00203 5.999 6.00203C6.146 6.00203 6.293 6.01003 6.439 6.02503L6.574 6.75303C6.783 7.94103 7.967 7.97403 8.028 7.97403C8.289 7.97403 8.491 7.90303 8.54 7.88503L8.73646 7.81486C9.03759 7.58896 9.40224 7.46698 9.784 7.46698C9.99485 7.46698 10.201 7.50434 10.3929 7.57562Z" fill="#202020"/>
<path fill-rule="evenodd" clip-rule="evenodd" d="M7.68472 8.92505C7.3289 8.37029 6.70674 8.00203 6 8.00203C4.897 8.00203 4 8.89903 4 10.002C4 11.105 4.897 12.002 6 12.002C6.44387 12.002 6.85439 11.8568 7.18651 11.6113C7.28509 11.2225 7.42238 10.8439 7.597 10.481H7.596C7.503 10.266 7.453 10.032 7.453 9.79098C7.453 9.48262 7.53353 9.1859 7.68472 8.92505ZM5 10.002C5 10.553 5.448 11.002 6 11.002C6.552 11.002 7 10.553 7 10.002C7 9.45103 6.552 9.00203 6 9.00203C5.448 9.00203 5 9.45103 5 10.002Z" fill="#202020"/>
<path d="M12.5 4.25203C12.914 4.25203 13.25 3.91603 13.25 3.50203C13.25 3.08803 12.914 2.75203 12.5 2.75203C12.086 2.75203 11.75 3.08803 11.75 3.50203C11.75 3.91603 12.086 4.25203 12.5 4.25203Z" fill="#202020"/>
<path fill-rule="evenodd" clip-rule="evenodd" d="M15.098 3.38003C15.053 3.44103 15.015 3.52303 15.081 3.60403L15.079 3.60303L15.657 4.09803C15.818 4.23903 15.872 4.46603 15.791 4.66403L15.715 4.85003C15.66 4.98503 15.595 5.11403 15.524 5.23803C15.44 5.38203 15.361 5.50003 15.274 5.61503L15.156 5.77103C15.026 5.94403 14.797 6.01303 14.591 5.94003L13.902 5.69603C13.86 5.68303 13.811 5.68603 13.771 5.70803L13.681 5.85803L13.558 6.54403C13.527 6.69603 13.429 6.82703 13.29 6.89603C13.2393 6.92136 13.121 6.94636 12.935 6.97103C12.784 6.99103 12.631 7.00103 12.48 7.00103C12.338 7.00103 12.197 6.99303 12.057 6.97503L11.858 6.95003C11.641 6.92303 11.466 6.75803 11.428 6.54203L11.298 5.81603C11.29 5.77103 11.261 5.73003 11.225 5.70903C11.193 5.69003 11.158 5.68503 11.121 5.69003L10.399 5.94503C10.196 6.01403 9.973 5.94803 9.841 5.77903L9.718 5.62103C9.539 5.38603 9.39 5.13203 9.274 4.86303L9.198 4.67503C9.117 4.47603 9.172 4.24703 9.336 4.10703L9.9 3.62303C9.943 3.56503 9.985 3.48203 9.917 3.39803L9.339 2.90403C9.177 2.76303 9.123 2.53403 9.205 2.33603L9.282 2.15003C9.339 2.01303 9.406 1.88003 9.478 1.75403C9.551 1.62703 9.632 1.50403 9.722 1.38703L9.845 1.22503C9.975 1.05003 10.207 0.982026 10.41 1.05703L11.101 1.30403C11.143 1.31803 11.192 1.31403 11.232 1.29103L11.318 1.14703L11.44 0.458026C11.48 0.249026 11.649 0.0880256 11.86 0.0570256L12.06 0.0280256C12.357 -0.00997443 12.651 -0.0119744 12.94 0.0240256L13.14 0.0490256C13.358 0.0760256 13.533 0.242026 13.571 0.458026L13.7 1.18403C13.708 1.22703 13.735 1.26603 13.775 1.28903C13.807 1.30703 13.847 1.31403 13.879 1.30703L14.601 1.05203C14.803 0.982026 15.024 1.04803 15.157 1.21603L15.281 1.37403C15.463 1.61503 15.611 1.87103 15.724 2.14103L15.8 2.32603C15.883 2.52603 15.827 2.75603 15.663 2.89703L15.098 3.38003ZM14.726 4.61203L14.363 4.29503V4.29303C13.931 3.77203 14.015 3.23503 14.201 2.91503C14.263 2.80703 14.344 2.70903 14.44 2.62403L14.732 2.37403C14.687 2.28503 14.638 2.19803 14.582 2.11503L14.134 2.27003C13.792 2.34003 13.514 2.29203 13.277 2.15503C12.98 1.98303 12.777 1.69303 12.716 1.35903L12.653 1.00103C12.554 0.994026 12.453 0.995025 12.355 1.00203L12.188 1.66703C12.051 1.91103 11.906 2.05603 11.733 2.15603C11.439 2.32603 11.086 2.35703 10.768 2.24503L10.424 2.12203C10.397 2.16403 10.37 2.20703 10.345 2.25103C10.319 2.29703 10.294 2.34303 10.271 2.39003L10.633 2.70603C11.067 3.22903 10.983 3.76403 10.798 4.08303C10.737 4.19003 10.658 4.28603 10.558 4.37503L10.267 4.62503C10.311 4.71203 10.361 4.79703 10.417 4.88003L10.867 4.72503C11.207 4.65503 11.487 4.70503 11.722 4.84103C12.015 5.00803 12.225 5.30903 12.283 5.64303L12.345 5.99703C12.444 6.00203 12.542 6.00103 12.645 5.99503L12.816 5.33003C12.944 5.09303 13.091 4.94503 13.27 4.84203C13.563 4.67303 13.915 4.64003 14.235 4.75303L14.575 4.87403C14.603 4.83103 14.632 4.78603 14.66 4.73703C14.683 4.69703 14.705 4.65503 14.726 4.61203Z" fill="#202020"/>
<path d="M10.457 12.086L14.089 15.719C14.27 15.899 14.514 16 14.769 16C15.024 16 15.268 15.899 15.449 15.719L15.719 15.448C15.899 15.267 16 15.023 16 14.768C16 14.513 15.899 14.269 15.719 14.088L12.087 10.456C11.993 10.362 11.866 10.31 11.733 10.31C11.6 10.31 11.473 10.363 11.38 10.456L10.457 11.379C10.363 11.473 10.311 11.6 10.311 11.732C10.311 11.864 10.364 11.992 10.457 12.086V12.086Z" fill="#B27C00"/>
<path d="M8.00002 13.118C8.00002 13.217 8.02902 13.313 8.08402 13.396C8.13902 13.479 8.21702 13.542 8.30802 13.58C8.36902 13.605 8.43402 13.618 8.50002 13.618C8.63202 13.618 8.75902 13.565 8.85302 13.472L10.348 11.979L10.457 12.086C10.551 12.18 10.678 12.232 10.811 12.232C10.944 12.232 11.071 12.179 11.164 12.086L12.087 11.163C12.181 11.069 12.233 10.942 12.233 10.809C12.233 10.676 12.18 10.549 12.087 10.456L11.979 10.348L13.472 8.85401C13.542 8.78401 13.59 8.69501 13.609 8.59801C13.628 8.50101 13.619 8.40001 13.581 8.30901C13.543 8.21801 13.479 8.13901 13.397 8.08401C13.315 8.02901 13.218 8.00001 13.119 8.00001C12.161 7.99801 11.222 8.26801 10.412 8.77901L10.3 8.67401C10.161 8.54101 9.97602 8.46701 9.78402 8.46701C9.59202 8.46701 9.40702 8.54101 9.26802 8.67401L8.66802 9.27401C8.53102 9.41101 8.45402 9.59701 8.45402 9.79101C8.45402 9.98501 8.53102 10.171 8.66802 10.308L8.77402 10.414C8.26602 11.224 7.99802 12.162 8.00102 13.118H8.00002Z" fill="#202020"/>
</g>
<defs>
<clipPath id="clip0_7202_85801">
<rect width="16" height="16" fill="white"/>
</clipPath>
</defs>
</svg>
