<svg width="16" height="16" viewBox="0 0 16 16" fill="none" xmlns="http://www.w3.org/2000/svg">
<g clip-path="url(#clip0_7202_85785)">
<path d="M10.609 8.91503C10.615 8.91003 10.787 8.77703 10.787 8.53303C10.787 8.46703 10.774 8.40203 10.748 8.34003L10.63 8.06003C10.466 7.67303 10.254 7.30903 9.998 6.97603L9.813 6.73903C9.788 6.70703 9.658 6.54303 9.416 6.54303C9.359 6.54303 9.302 6.55303 9.248 6.57203L8.198 6.94403L8.042 6.97203C7.806 6.97203 7.604 6.80403 7.562 6.57203L7.362 5.48303C7.322 5.26903 7.148 5.10503 6.932 5.07803L6.632 5.04103C6.423 5.01503 6.213 5.00103 6.003 5.00103C5.793 5.00103 5.582 5.01403 5.373 5.04103L5.073 5.07803C4.856 5.10503 4.682 5.26903 4.643 5.48403L4.423 6.64903C4.305 6.95703 4.003 6.97003 3.956 6.97003C3.903 6.97003 3.849 6.96203 3.798 6.94403L2.748 6.57203C2.693 6.55203 2.635 6.54203 2.577 6.54203C2.334 6.54203 2.204 6.70703 2.179 6.73903L1.998 6.97503C1.747 7.31003 1.538 7.67503 1.377 8.06103L1.26 8.33803C1.234 8.40003 1.221 8.46603 1.221 8.53203C1.221 8.77603 1.392 8.90903 1.398 8.91403L2.298 9.68803C2.394 9.80103 2.412 9.92603 2.412 10C2.412 10.008 2.421 10.22 2.237 10.373L1.39 11.089C1.384 11.094 1.213 11.227 1.213 11.471C1.213 11.537 1.226 11.603 1.252 11.665L1.369 11.943C1.533 12.331 1.747 12.696 2.003 13.03L2.184 13.266C2.209 13.298 2.339 13.461 2.58 13.461C2.637 13.461 2.694 13.451 2.748 13.432L3.795 13.066L3.959 13.037C4.196 13.037 4.397 13.206 4.44 13.437L4.64 14.526C4.682 14.738 4.855 14.9 5.07 14.926L5.364 14.963C5.57 14.989 5.777 15.002 5.984 15.002C5.989 15.002 5.993 15.002 5.998 15.002C6.002 15.002 6.006 15.002 6.01 15.002C6.215 15.002 6.42 14.989 6.623 14.963L6.923 14.926C7.139 14.899 7.313 14.734 7.352 14.52L7.573 13.355C7.691 13.047 7.993 13.034 8.04 13.034C8.093 13.034 8.147 13.043 8.198 13.06L9.252 13.432C9.306 13.451 9.363 13.461 9.42 13.461C9.661 13.461 9.792 13.298 9.816 13.266L9.998 13.03C10.253 12.695 10.464 12.33 10.627 11.942L10.744 11.665C10.77 11.603 10.783 11.537 10.783 11.471C10.783 11.227 10.612 11.094 10.606 11.089L9.706 10.316C9.657 10.259 9.59 10.151 9.59 10.001C9.59 9.92703 9.61 9.75903 9.761 9.63103L10.609 8.91503ZM9.111 8.86603C8.77 9.15403 8.584 9.57303 8.584 10.001C8.584 10.353 8.71 10.787 9.11 11.134L9.678 11.614C9.56 11.88 9.413 12.133 9.24 12.367L8.54 12.118C8.383 12.066 8.221 12.04 8.059 12.04C7.915 12.04 6.996 12.079 6.634 13.018C6.607 13.095 6.586 13.174 6.571 13.254L6.438 13.979C6.292 13.995 6.145 14.004 5.998 14.004C5.851 14.004 5.704 13.996 5.558 13.979L5.431 13.254C5.345 12.706 4.865 12.024 3.992 12.024C3.893 12.024 3.794 12.034 3.696 12.054C3.618 12.068 3.542 12.089 3.468 12.116L2.763 12.366C2.59 12.132 2.443 11.879 2.325 11.613L2.89 11.135C3.233 10.847 3.418 10.427 3.418 10C3.418 9.64903 3.287 9.20303 2.891 8.86403L2.325 8.38603C2.443 8.12003 2.59 7.86703 2.764 7.63303L3.464 7.88303C3.621 7.93603 3.784 7.96203 3.946 7.96203C4.09 7.96203 5.008 7.92303 5.364 6.98303C5.391 6.90703 5.411 6.82803 5.426 6.74903L5.559 6.02503C5.705 6.00903 5.852 6.00203 5.999 6.00203C6.146 6.00203 6.293 6.01003 6.439 6.02503L6.574 6.75303C6.783 7.94103 7.967 7.97403 8.028 7.97403C8.289 7.97403 8.491 7.90303 8.54 7.88503L9.24 7.63503C9.414 7.86903 9.561 8.12103 9.679 8.38803L9.112 8.86603H9.111ZM15.081 3.60403C15.015 3.52303 15.053 3.44103 15.098 3.38003L15.663 2.89703C15.827 2.75603 15.883 2.52603 15.8 2.32603L15.724 2.14103C15.611 1.87103 15.463 1.61503 15.281 1.37403L15.157 1.21603C15.024 1.04803 14.803 0.982026 14.601 1.05203L13.879 1.30703C13.847 1.31403 13.807 1.30703 13.775 1.28903C13.735 1.26603 13.708 1.22703 13.7 1.18403L13.571 0.458026C13.533 0.242026 13.358 0.0760256 13.14 0.0490256L12.94 0.0240256C12.651 -0.0119744 12.357 -0.00997443 12.06 0.0280256L11.86 0.0570256C11.649 0.0880256 11.48 0.249026 11.44 0.458026L11.318 1.14703L11.232 1.29103C11.192 1.31403 11.143 1.31803 11.101 1.30403L10.41 1.05703C10.207 0.982026 9.975 1.05003 9.845 1.22503L9.722 1.38703C9.632 1.50403 9.551 1.62703 9.478 1.75403C9.406 1.88003 9.339 2.01303 9.282 2.15003L9.205 2.33603C9.123 2.53403 9.177 2.76303 9.339 2.90403L9.917 3.39803C9.985 3.48203 9.943 3.56503 9.9 3.62303L9.336 4.10703C9.172 4.24703 9.117 4.47603 9.198 4.67503L9.274 4.86303C9.39 5.13203 9.539 5.38603 9.718 5.62103L9.841 5.77903C9.973 5.94803 10.196 6.01403 10.399 5.94503L11.121 5.69003C11.158 5.68503 11.193 5.69003 11.225 5.70903C11.261 5.73003 11.29 5.77103 11.298 5.81603L11.428 6.54203C11.466 6.75803 11.641 6.92303 11.858 6.95003L12.057 6.97503C12.197 6.99303 12.338 7.00103 12.48 7.00103C12.631 7.00103 12.784 6.99103 12.935 6.97103C13.121 6.94636 13.2393 6.92136 13.29 6.89603C13.429 6.82703 13.527 6.69603 13.558 6.54403L13.681 5.85803L13.771 5.70803C13.811 5.68603 13.86 5.68303 13.902 5.69603L14.591 5.94003C14.797 6.01303 15.026 5.94403 15.156 5.77103L15.274 5.61503C15.361 5.50003 15.44 5.38203 15.524 5.23803C15.595 5.11403 15.66 4.98503 15.715 4.85003L15.791 4.66403C15.872 4.46603 15.818 4.23903 15.657 4.09803L15.079 3.60303L15.081 3.60403ZM14.363 4.29503L14.726 4.61203C14.705 4.65503 14.683 4.69703 14.66 4.73703C14.632 4.78603 14.603 4.83103 14.575 4.87403L14.235 4.75303C13.915 4.64003 13.563 4.67303 13.27 4.84203C13.091 4.94503 12.944 5.09303 12.816 5.33003L12.645 5.99503C12.542 6.00103 12.444 6.00203 12.345 5.99703L12.283 5.64303C12.225 5.30903 12.015 5.00803 11.722 4.84103C11.487 4.70503 11.207 4.65503 10.867 4.72503L10.417 4.88003C10.361 4.79703 10.311 4.71203 10.267 4.62503L10.558 4.37503C10.658 4.28603 10.737 4.19003 10.798 4.08303C10.983 3.76403 11.067 3.22903 10.633 2.70603L10.271 2.39003C10.294 2.34303 10.319 2.29703 10.345 2.25103C10.37 2.20703 10.397 2.16403 10.424 2.12203L10.768 2.24503C11.086 2.35703 11.439 2.32603 11.733 2.15603C11.906 2.05603 12.051 1.91103 12.188 1.66703L12.355 1.00203C12.453 0.995025 12.554 0.994026 12.653 1.00103L12.716 1.35903C12.777 1.69303 12.98 1.98303 13.277 2.15503C13.514 2.29203 13.792 2.34003 14.134 2.27003L14.582 2.11503C14.638 2.19803 14.687 2.28503 14.732 2.37403L14.44 2.62403C14.344 2.70903 14.263 2.80703 14.201 2.91503C14.015 3.23503 13.931 3.77203 14.363 4.29303V4.29503ZM13.25 3.50203C13.25 3.91603 12.914 4.25203 12.5 4.25203C12.086 4.25203 11.75 3.91603 11.75 3.50203C11.75 3.08803 12.086 2.75203 12.5 2.75203C12.914 2.75203 13.25 3.08803 13.25 3.50203ZM6 8.00203C4.897 8.00203 4 8.89903 4 10.002C4 11.105 4.897 12.002 6 12.002C7.103 12.002 8 11.105 8 10.002C8 8.89903 7.103 8.00203 6 8.00203ZM6 11.002C5.448 11.002 5 10.553 5 10.002C5 9.45103 5.448 9.00203 6 9.00203C6.552 9.00203 7 9.45103 7 10.002C7 10.553 6.552 11.002 6 11.002Z" fill="#202020"/>
</g>
<defs>
<clipPath id="clip0_7202_85785">
<rect width="16" height="16" fill="white"/>
</clipPath>
</defs>
</svg>
