<svg width="16" height="16" viewBox="0 0 16 16" fill="none" xmlns="http://www.w3.org/2000/svg">
<path d="M9.40806 13.7C9.50048 13.7927 9.55288 13.9179 9.554 14.0488C9.55512 14.1796 9.50488 14.3057 9.41406 14.4C9.22875 14.5864 9.00843 14.7343 8.76577 14.8352C8.5231 14.9361 8.26288 14.9881 8.00006 14.9881C7.73724 14.9881 7.47702 14.9361 7.23435 14.8352C6.99169 14.7343 6.77137 14.5864 6.58606 14.4C6.49498 14.3057 6.44458 14.1794 6.44572 14.0483C6.44686 13.9172 6.49945 13.7918 6.59215 13.6991C6.68486 13.6064 6.81026 13.5538 6.94136 13.5526C7.07246 13.5515 7.19876 13.6019 7.29306 13.693C7.48366 13.8746 7.73682 13.9758 8.00006 13.9758C8.26331 13.9758 8.51646 13.8746 8.70706 13.693C8.80144 13.6023 8.92761 13.5522 9.05849 13.5535C9.18937 13.5549 9.31452 13.6074 9.40706 13.7H9.40806ZM13.0081 10.1C12.9611 10.0531 12.9052 10.016 12.8437 9.99098C12.7823 9.96591 12.7164 9.95334 12.6501 9.95398C12.5837 9.95422 12.5181 9.96782 12.4571 9.99398C12.3964 10.0207 12.3415 10.0587 12.2951 10.106L10.1231 12.278C10.0534 12.348 10.0061 12.4371 9.98706 12.534C9.96717 12.6309 9.97693 12.7316 10.0151 12.823C10.0466 12.8988 10.0963 12.9658 10.1598 13.0178C10.2234 13.0699 10.2987 13.1055 10.3793 13.1215C10.4599 13.1376 10.5432 13.1335 10.6218 13.1097C10.7004 13.0858 10.7719 13.043 10.8301 12.985L13.0001 10.818C13.048 10.7721 13.0861 10.717 13.1121 10.656C13.1382 10.5949 13.1521 10.5294 13.1531 10.463C13.1533 10.3966 13.1404 10.3308 13.1152 10.2693C13.09 10.2079 13.0529 10.1521 13.0061 10.105L13.0081 10.1ZM14.4161 6.57098C14.3457 6.50313 14.2569 6.4574 14.1608 6.43945C14.0647 6.4215 13.9654 6.43213 13.8753 6.47002C13.7852 6.5079 13.7081 6.57138 13.6537 6.6526C13.5993 6.73382 13.5698 6.82921 13.5691 6.92698C13.5674 7.05791 13.6177 7.18416 13.7091 7.27798C13.8965 7.46551 14.0018 7.71982 14.0018 7.98498C14.0018 8.25015 13.8965 8.50446 13.7091 8.69198C13.6389 8.76216 13.5912 8.85162 13.5721 8.94898C13.5572 9.02172 13.5587 9.09685 13.5766 9.16892C13.5944 9.24099 13.628 9.30819 13.675 9.36564C13.722 9.42309 13.7812 9.46935 13.8484 9.50107C13.9155 9.53278 13.9888 9.54915 14.0631 9.54898C14.1956 9.54869 14.3225 9.49582 14.4161 9.40198C14.791 9.02693 15.0016 8.51831 15.0016 7.98798C15.0016 7.45765 14.791 6.94904 14.4161 6.57398V6.57098ZM10.1211 3.69998L12.2931 5.87198C12.3512 5.93002 12.4227 5.97284 12.5013 5.99666C12.58 6.02048 12.6632 6.02456 12.7438 6.00855C12.8244 5.99253 12.8998 5.95692 12.9633 5.90484C13.0268 5.85277 13.0765 5.78584 13.1081 5.70998C13.1466 5.61826 13.157 5.51712 13.1377 5.4195C13.1185 5.32187 13.0705 5.23221 13.0001 5.16198L10.8281 2.98998C10.7817 2.94271 10.7267 2.9047 10.6661 2.87798C10.5422 2.8267 10.403 2.8267 10.2791 2.87798C10.1865 2.91579 10.1073 2.9805 10.0519 3.06375C9.99644 3.147 9.96724 3.24496 9.96806 3.34498C9.96903 3.41137 9.98296 3.47693 10.0091 3.53798C10.0351 3.59899 10.0732 3.6541 10.1211 3.69998V3.69998ZM9.41406 1.57598C9.03298 1.21261 8.52662 1.00989 8.00006 1.00989C7.4735 1.00989 6.96715 1.21261 6.58606 1.57598C6.49503 1.67041 6.44475 1.79683 6.44606 1.92798C6.44606 2.06059 6.49874 2.18777 6.59251 2.28154C6.68628 2.37531 6.81345 2.42798 6.94606 2.42798C7.07736 2.42902 7.20379 2.37838 7.29806 2.28698C7.48889 2.10586 7.74196 2.00489 8.00506 2.00489C8.26816 2.00489 8.52123 2.10586 8.71206 2.28698C8.75824 2.33377 8.81332 2.37084 8.87406 2.39598C8.93489 2.4212 9.00022 2.43379 9.06606 2.43298C9.16466 2.43291 9.26103 2.40368 9.34306 2.34898C9.42517 2.29412 9.48919 2.21618 9.52706 2.12498C9.56498 2.03364 9.57495 1.93311 9.55573 1.8361C9.5365 1.73909 9.48894 1.64996 9.41906 1.57998L9.41406 1.57598ZM3.07606 5.93098C3.17219 5.99519 3.2876 6.02409 3.40265 6.01279C3.51769 6.00149 3.62526 5.95067 3.70706 5.86898L5.87906 3.69998C5.97014 3.60568 6.02054 3.47938 6.0194 3.34828C6.01826 3.21718 5.96567 3.09178 5.87297 2.99907C5.78027 2.90637 5.65486 2.85379 5.52376 2.85265C5.39266 2.85151 5.26636 2.9019 5.17206 2.99298L3.00006 5.16198C2.93018 5.23196 2.88262 5.32109 2.86339 5.4181C2.84417 5.51511 2.85415 5.61564 2.89206 5.70698C2.92993 5.79818 2.99395 5.87612 3.07606 5.93098ZM2.29306 8.69998C2.10559 8.51246 2.00027 8.25815 2.00027 7.99298C2.00027 7.72782 2.10559 7.47351 2.29306 7.28598C2.38414 7.19168 2.43454 7.06538 2.4334 6.93428C2.43226 6.80318 2.37967 6.67778 2.28697 6.58507C2.19427 6.49237 2.06886 6.43979 1.93776 6.43865C1.80666 6.43751 1.68036 6.4879 1.58606 6.57898C1.21112 6.95404 1.00049 7.46266 1.00049 7.99298C1.00049 8.52331 1.21112 9.03193 1.58606 9.40698C1.6796 9.50082 1.80657 9.55369 1.93906 9.55398C2.0133 9.55415 2.08664 9.53778 2.15376 9.50607C2.22088 9.47435 2.2801 9.42809 2.32711 9.37064C2.37413 9.31319 2.40776 9.24599 2.42557 9.17392C2.44337 9.10185 2.44491 9.02672 2.43006 8.95398C2.41035 8.85769 2.3627 8.76934 2.29306 8.69998ZM5.87906 12.286L3.70706 10.111C3.66057 10.0641 3.6056 10.0264 3.54506 9.99998C3.42116 9.9487 3.28196 9.9487 3.15806 9.99998C3.06546 10.0378 2.98632 10.1025 2.93088 10.1857C2.87544 10.269 2.84624 10.367 2.84706 10.467C2.84803 10.5334 2.86196 10.5989 2.88806 10.66C2.91453 10.7196 2.95261 10.7733 3.00006 10.818L5.17206 12.99C5.23019 13.048 5.30173 13.0908 5.38035 13.1147C5.45896 13.1385 5.54224 13.1426 5.62281 13.1265C5.70338 13.1105 5.77876 13.0749 5.84229 13.0228C5.90582 12.9708 5.95554 12.9038 5.98706 12.828C6.02519 12.7366 6.03495 12.6359 6.01506 12.539C5.996 12.4421 5.94868 12.353 5.87906 12.283V12.286Z" fill="#202020"/>
</svg>
