<svg width="16" height="16" viewBox="0 0 16 16" fill="none" xmlns="http://www.w3.org/2000/svg">
<path d="M4.57394 3.433C4.48626 3.43282 4.40016 3.40959 4.32429 3.36563C4.24843 3.32168 4.18545 3.25854 4.14169 3.18256C4.09792 3.10658 4.07491 3.02043 4.07495 2.93275C4.075 2.84506 4.0981 2.75894 4.14194 2.683L4.39194 2.25C4.43574 2.17414 4.4987 2.11112 4.57451 2.06724C4.65033 2.02336 4.73634 2.00018 4.82394 2H5.32394C5.45655 2 5.58372 2.05268 5.67749 2.14645C5.77126 2.24021 5.82394 2.36739 5.82394 2.5C5.82394 2.63261 5.77126 2.75979 5.67749 2.85355C5.58372 2.94732 5.45655 3 5.32394 3H5.11194L5.00694 3.183C4.96306 3.25901 4.89994 3.32213 4.82393 3.36601C4.74792 3.40989 4.66171 3.433 4.57394 3.433Z" fill="#202020"/>
<path d="M7.46509 3H8.53509C8.6677 3 8.79487 2.94732 8.88864 2.85355C8.98241 2.75979 9.03509 2.63261 9.03509 2.5C9.03509 2.36739 8.98241 2.24021 8.88864 2.14645C8.79487 2.05268 8.6677 2 8.53509 2H7.46509C7.33248 2 7.2053 2.05268 7.11153 2.14645C7.01777 2.24021 6.96509 2.36739 6.96509 2.5C6.96509 2.63261 7.01777 2.75979 7.11153 2.85355C7.2053 2.94732 7.33248 3 7.46509 3Z" fill="#202020"/>
<path d="M11.176 3.36601C11.252 3.40989 11.3383 3.433 11.426 3.433C11.5139 3.43303 11.6002 3.40955 11.676 3.365C11.7904 3.29853 11.8738 3.18943 11.9079 3.0616C11.942 2.93377 11.9241 2.79763 11.858 2.683L11.608 2.25C11.5642 2.17414 11.5013 2.11112 11.4255 2.06724C11.3496 2.02336 11.2636 2.00018 11.176 2H10.676C10.5434 2 10.4162 2.05268 10.3225 2.14645C10.2287 2.24021 10.176 2.36739 10.176 2.5C10.176 2.63261 10.2287 2.75979 10.3225 2.85355C10.4162 2.94732 10.5434 3 10.676 3H10.888L10.993 3.183C11.0369 3.25901 11.1 3.32213 11.176 3.36601Z" fill="#202020"/>
<path d="M2.71996 6.14601C2.79597 6.1899 2.88219 6.213 2.96996 6.21301C3.05721 6.21248 3.14281 6.18913 3.21825 6.14527C3.29368 6.10141 3.35633 6.03858 3.39996 5.96301L3.93796 5.03601C4.00322 4.92123 4.02043 4.7853 3.98583 4.65788C3.95124 4.53046 3.86765 4.42189 3.7533 4.35587C3.63896 4.28985 3.50315 4.27174 3.3755 4.30549C3.24785 4.33924 3.13873 4.42211 3.07196 4.53601L2.53696 5.46301C2.47066 5.57785 2.45269 5.71432 2.48701 5.84241C2.52133 5.97049 2.60512 6.0797 2.71996 6.14601Z" fill="#202020"/>
<path d="M1.90011 8.93303L1.89754 8.93302C1.98412 8.93242 2.06909 8.90935 2.14411 8.86604C2.22011 8.82215 2.28323 8.75903 2.32711 8.68302C2.371 8.60702 2.3941 8.52079 2.3941 8.43303C2.3941 8.34526 2.37099 8.25904 2.32711 8.18303L2.22711 8.00003L2.33311 7.81703C2.39289 7.70276 2.4062 7.56981 2.37027 7.44596C2.33434 7.3221 2.25194 7.21692 2.14029 7.15238C2.02864 7.08785 1.89637 7.06894 1.77111 7.09962C1.64585 7.13031 1.53729 7.2082 1.46811 7.31703L1.21811 7.75003C1.17423 7.82604 1.15112 7.91226 1.15112 8.00003C1.15112 8.0878 1.17423 8.17402 1.21811 8.25003L1.46811 8.68303C1.51191 8.75889 1.57487 8.82191 1.65068 8.86579C1.72576 8.90924 1.81083 8.9324 1.89754 8.93302L1.89411 8.93303H1.90011Z" fill="#202020"/>
<path d="M3.24945 11.6463C3.32565 11.6902 3.41208 11.7132 3.50001 11.713C3.58786 11.7132 3.67421 11.6902 3.75036 11.6464C3.8265 11.6026 3.88976 11.5395 3.93376 11.4634C3.97777 11.3874 4.00096 11.3011 4.001 11.2133C4.00104 11.1254 3.97794 11.0391 3.93401 10.963L3.39901 10.036C3.33271 9.92104 3.22345 9.83711 3.09527 9.8027C2.96708 9.76829 2.83048 9.7862 2.71551 9.85251C2.60054 9.91881 2.51662 10.0281 2.4822 10.1563C2.44779 10.2844 2.46571 10.421 2.53201 10.536L3.06601 11.463C3.10998 11.5392 3.17325 11.6024 3.24945 11.6463Z" fill="#202020"/>
<path d="M5.32392 14H4.82392C4.73632 13.9999 4.65031 13.9767 4.57449 13.9328C4.49868 13.8889 4.43572 13.8259 4.39192 13.75L4.14192 13.317C4.08214 13.2028 4.06883 13.0698 4.10476 12.946C4.14069 12.8221 4.22309 12.7169 4.33474 12.6524C4.44639 12.5878 4.57866 12.5689 4.70392 12.5996C4.82918 12.6303 4.93774 12.7082 5.00692 12.817L5.11192 13H5.32392C5.45653 13 5.5837 13.0527 5.67747 13.1465C5.77124 13.2402 5.82392 13.3674 5.82392 13.5C5.82392 13.6326 5.77124 13.7598 5.67747 13.8536C5.5837 13.9474 5.45653 14 5.32392 14Z" fill="#202020"/>
<path d="M7.46509 14H8.53509C8.6677 14 8.79487 13.9473 8.88864 13.8536C8.98241 13.7598 9.03509 13.6326 9.03509 13.5C9.03509 13.3674 8.98241 13.2402 8.88864 13.1464C8.79487 13.0527 8.6677 13 8.53509 13H7.46509C7.33248 13 7.2053 13.0527 7.11153 13.1464C7.01777 13.2402 6.96509 13.3674 6.96509 13.5C6.96509 13.6326 7.01777 13.7598 7.11153 13.8536C7.2053 13.9473 7.33248 14 7.46509 14Z" fill="#202020"/>
<path d="M11.176 14H10.676C10.5434 14 10.4162 13.9474 10.3225 13.8536C10.2287 13.7598 10.176 13.6326 10.176 13.5C10.176 13.3674 10.2287 13.2402 10.3225 13.1465C10.4162 13.0527 10.5434 13 10.676 13H10.888L10.993 12.817C11.0622 12.7082 11.1708 12.6303 11.296 12.5996C11.4213 12.5689 11.5536 12.5878 11.6652 12.6524C11.7769 12.7169 11.8593 12.8221 11.8952 12.946C11.9311 13.0698 11.9178 13.2028 11.858 13.317L11.608 13.75C11.5642 13.8259 11.5013 13.8889 11.4255 13.9328C11.3496 13.9767 11.2636 13.9999 11.176 14Z" fill="#202020"/>
<path d="M12.25 11.647C12.326 11.6909 12.4122 11.714 12.5 11.714C12.5878 11.714 12.674 11.6909 12.75 11.647C12.826 11.6031 12.8891 11.54 12.933 11.464L13.468 10.537C13.5042 10.4801 13.5285 10.4164 13.5394 10.3499C13.5503 10.2833 13.5477 10.2153 13.5317 10.1498C13.5156 10.0843 13.4865 10.0227 13.446 9.96876C13.4056 9.91481 13.3546 9.8696 13.2963 9.83585C13.2379 9.80211 13.1733 9.78052 13.1063 9.77239C13.0394 9.76425 12.9715 9.76975 12.9067 9.78854C12.842 9.80733 12.7817 9.83902 12.7295 9.88172C12.6773 9.92441 12.6342 9.97722 12.603 10.037L12.067 10.964C12.0231 11.04 12 11.1262 12 11.214C12 11.3017 12.0231 11.388 12.067 11.464C12.1109 11.54 12.174 11.6031 12.25 11.647Z" fill="#202020"/>
<path d="M14.1001 8.93303C14.0123 8.93303 13.9261 8.90992 13.8501 8.86604C13.7741 8.82215 13.711 8.75903 13.6671 8.68302C13.6232 8.60702 13.6001 8.52079 13.6001 8.43303C13.6001 8.34526 13.6232 8.25904 13.6671 8.18303L13.7731 8.00003L13.6681 7.81703C13.6083 7.70276 13.595 7.56981 13.6309 7.44596C13.6669 7.3221 13.7493 7.21692 13.8609 7.15238C13.9726 7.08785 14.1048 7.06894 14.2301 7.09962C14.3553 7.13031 14.4639 7.2082 14.5331 7.31703L14.7831 7.75003C14.827 7.82604 14.8501 7.91226 14.8501 8.00003C14.8501 8.0878 14.827 8.17402 14.7831 8.25003L14.5331 8.68303C14.4892 8.75904 14.4261 8.82216 14.3501 8.86604C14.2741 8.90992 14.1879 8.93303 14.1001 8.93303Z" fill="#202020"/>
<path d="M12.78 6.147C12.856 6.19088 12.9422 6.21399 13.03 6.21399C13.1178 6.21416 13.2042 6.19119 13.2803 6.14737C13.3565 6.10356 13.4197 6.04046 13.4637 5.96442C13.5077 5.88838 13.5309 5.80209 13.531 5.71424C13.531 5.62638 13.5079 5.54007 13.464 5.46399L12.93 4.53699C12.8637 4.42189 12.7544 4.33783 12.6261 4.30333C12.4978 4.26882 12.3611 4.28669 12.246 4.35299C12.1309 4.41929 12.0468 4.52861 12.0123 4.65688C11.9778 4.78516 11.9957 4.92189 12.062 5.03699L12.597 5.96399C12.6409 6.04 12.704 6.10311 12.78 6.147Z" fill="#202020"/>
</svg>
