<svg width="16" height="16" viewBox="0 0 16 16" fill="none" xmlns="http://www.w3.org/2000/svg">
<path fill-rule="evenodd" clip-rule="evenodd" d="M6.5874 1.58646C6.96261 1.21125 7.47097 1.00201 7.99995 1.00201C8.5297 1.00201 9.03747 1.21276 9.41188 1.58583L14.4125 6.58646C14.7865 6.96181 14.998 7.4702 14.998 8.00101C14.998 8.53132 14.7875 9.04058 14.4125 9.41557L9.41251 14.4156C9.03729 14.7908 8.52893 15 7.99995 15C7.47021 15 6.96243 14.7893 6.58803 14.4162L1.5874 9.41557C1.21338 9.04022 1.00195 8.53183 1.00195 8.00101C1.00195 7.47071 1.21242 6.96144 1.5874 6.58646L6.5874 1.58646ZM12.7459 6.33414L6.33304 12.747L5.62593 12.0399L12.0388 5.62703L12.7459 6.33414ZM10.3729 3.96114L3.96004 10.374L3.25293 9.66692L9.66582 3.25403L10.3729 3.96114Z" fill="#5C2E91"/>
</svg>
