<svg width="16" height="16" viewBox="0 0 16 16" fill="none" xmlns="http://www.w3.org/2000/svg">
<path d="M8.00199 1.00134C7.47264 1.00134 6.96489 1.2112 6.58999 1.58492L1.58939 6.58553C1.21445 6.96058 1.00381 7.4692 1.00381 7.99953C1.00381 8.52985 1.2145 9.03852 1.58944 9.41358L6.58999 14.4141C6.96489 14.7879 7.47265 14.9977 8.00199 14.9977C8.53134 14.9977 9.03966 14.7873 9.41455 14.4136L14.4146 9.41352C14.7895 9.03847 15.0002 8.52985 15.0002 7.99953C15.0002 7.4692 14.7895 6.96053 14.4145 6.58547L9.41399 1.58492C9.0391 1.2112 8.53134 1.00134 8.00199 1.00134Z" fill="#5C2E91"/>
</svg>
