<svg width="16" height="16" viewBox="0 0 16 16" fill="none" xmlns="http://www.w3.org/2000/svg">
<g clip-path="url(#clip0_7202_86105)">
<path d="M13.31 1.03901C13.37 1.01301 13.435 1.00001 13.5 1.00001C13.565 1.00001 13.63 1.01301 13.691 1.03901C13.751 1.06501 13.805 1.10301 13.851 1.15001L15.851 3.15001C15.942 3.24301 15.993 3.36901 15.992 3.49901C15.992 3.62901 15.939 3.75401 15.847 3.84701C15.755 3.93901 15.63 3.99101 15.499 3.99201C15.369 3.99201 15.243 3.94201 15.15 3.85101L14 2.71101V7.50101C14 7.63401 13.947 7.76101 13.854 7.85501C13.76 7.94901 13.633 8.00101 13.5 8.00101C13.367 8.00101 13.24 7.94801 13.146 7.85501C13.052 7.76101 13 7.63401 13 7.50101V2.71001L11.85 3.85001C11.805 3.89701 11.751 3.93501 11.69 3.96101C11.63 3.98701 11.565 4.00001 11.499 4.00001C11.433 4.00001 11.369 3.98701 11.309 3.96101C11.249 3.93501 11.194 3.89701 11.149 3.85001C11.102 3.80501 11.064 3.75101 11.038 3.69001C11.012 3.63001 10.999 3.56501 10.999 3.50001C10.999 3.43501 11.012 3.37001 11.038 3.31001C11.064 3.25001 11.102 3.19601 11.149 3.15001L13.149 1.15001C13.194 1.10301 13.249 1.06501 13.31 1.03901Z" fill="#006CBF"/>
<path d="M12.922 8.88401C12.853 9.27301 12.738 9.64701 12.584 10H10.837C10.943 9.37201 11 8.69901 11 8.00001C11 7.30101 10.943 6.62801 10.837 6.00001H12V5.00001H10.616C10.58 4.86901 10.541 4.74201 10.5 4.61701C10.48 4.59901 10.46 4.58001 10.44 4.56001C10.157 4.27701 10.001 3.90001 10.001 3.49901C10.001 3.48801 10.001 3.47701 10.001 3.46601C9.988 3.44301 9.976 3.42101 9.963 3.39801C9.976 3.40401 9.99 3.41001 10.003 3.41601C10.022 3.07201 10.156 2.74801 10.388 2.49301C9.656 2.17501 8.849 1.99901 8.001 1.99901C4.687 1.99901 2.001 4.68501 2.001 7.99901C2.001 11.313 4.687 13.999 8.001 13.999C10.996 13.999 13.478 11.805 13.928 8.93701C13.793 8.97701 13.649 8.99901 13.501 8.99901C13.296 8.99901 13.101 8.95801 12.923 8.88301L12.922 8.88401ZM6.688 4.31801C7.125 3.35601 7.627 3.00001 8.001 3.00001C8.375 3.00001 8.876 3.35601 9.314 4.31801C9.409 4.52601 9.496 4.75501 9.574 5.00001H6.429C6.507 4.75401 6.593 4.52601 6.688 4.31801ZM6.038 3.40001C5.943 3.56101 5.856 3.73101 5.777 3.90401C5.626 4.23601 5.494 4.60401 5.384 5.00001H4C4.524 4.30301 5.226 3.74701 6.038 3.40001ZM3.416 10C3.148 9.38801 3 8.71101 3 8.00001C3 7.28901 3.148 6.61201 3.416 6.00001H5.163C5.057 6.62801 5 7.30101 5 8.00001C5 8.69901 5.057 9.37201 5.163 10H3.416ZM4 11H5.384C5.494 11.396 5.626 11.764 5.777 12.096C5.856 12.27 5.943 12.439 6.038 12.6C5.226 12.253 4.524 11.697 4 11ZM9.313 11.682C8.876 12.644 8.374 13 8 13C7.626 13 7.125 12.644 6.687 11.682C6.592 11.474 6.505 11.245 6.427 11H9.572C9.494 11.245 9.408 11.474 9.313 11.682ZM6.179 10C6.065 9.38901 6 8.71401 6 8.00001C6 7.28601 6.064 6.61101 6.179 6.00001H9.822C9.936 6.61101 10.001 7.28601 10.001 8.00001C10.001 8.71401 9.937 9.38901 9.822 10H6.179ZM9.963 12.6C10.058 12.439 10.145 12.269 10.224 12.096C10.375 11.764 10.507 11.396 10.617 11H12.002C11.478 11.697 10.775 12.253 9.963 12.6ZM15.854 3.85401C15.756 3.95201 15.628 4.00001 15.5 4.00001C15.372 4.00001 15.244 3.95101 15.146 3.85401L14 2.70801V7.50101C14 7.77701 13.776 8.00101 13.5 8.00101C13.224 8.00101 13 7.77701 13 7.50101V2.70701L11.854 3.85301C11.659 4.04801 11.342 4.04801 11.147 3.85301C10.952 3.65801 10.952 3.34101 11.147 3.14601L13.147 1.14601C13.342 0.951006 13.659 0.951006 13.854 1.14601L15.854 3.14601C16.049 3.34101 16.049 3.65801 15.854 3.85301V3.85401Z" fill="#006CBF"/>
</g>
<defs>
<clipPath id="clip0_7202_86105">
<rect width="16" height="16" fill="white"/>
</clipPath>
</defs>
</svg>
