<svg width="16" height="16" viewBox="0 0 16 16" fill="none" xmlns="http://www.w3.org/2000/svg">
<path d="M8.25736 2H2.5C1.67 2 1 2.67 1 3.5V10.5C1 11.33 1.67 12 2.5 12H4V13.94C4 14.78 4.99 15.23 5.63 14.68L8.69 12H13.5C14.33 12 15 11.33 15 10.5V7.24166C14.7561 7.40462 14.4957 7.54412 14.2221 7.65746C14.1487 7.68786 14.0746 7.71626 14 7.74264V10.5C14 10.78 13.78 11 13.5 11H8.31L5 13.9V11H2.5C2.22 11 2 10.78 2 10.5V3.5C2 3.22 2.22 3 2.5 3H8.02787C8.06585 2.66023 8.14257 2.32466 8.25736 2Z" fill="#202020"/>
<path d="M12.5 0C14.433 -8.4494e-08 16 1.567 16 3.5C16 5.433 14.433 7 12.5 7C10.567 7 9 5.433 9 3.5C9 1.567 10.567 8.4494e-08 12.5 0Z" fill="#C50F1F"/>
</svg>
