<svg width="16" height="16" viewBox="0 0 16 16" fill="none" xmlns="http://www.w3.org/2000/svg">
<path d="M8.25736 2H2.5C1.67 2 1 2.67 1 3.5V10.5C1 11.33 1.67 12 2.5 12H4V13.94C4 14.78 4.99 15.23 5.63 14.68L6.54116 13.882C6.38695 13.5615 6.26289 13.2239 6.17266 12.8726L5 13.9V11H2.5C2.22 11 2 10.78 2 10.5V3.5C2 3.22 2.22 3 2.5 3H8.02787C8.06585 2.66023 8.14257 2.32466 8.25736 2Z" fill="#202020"/>
<path d="M15 7.25717V7.24166C14.9965 7.24398 14.9931 7.24629 14.9896 7.24859C14.9931 7.25145 14.9965 7.2543 15 7.25717Z" fill="#202020"/>
<path d="M16 3.5C16 1.567 14.433 0 12.5 0C10.567 0 9 1.567 9 3.5C9 4.55957 9.47083 5.50917 10.2147 6.151C10.627 6.05228 11.0574 6 11.5 6C12.4255 6 13.2977 6.22862 14.063 6.63246C15.2114 6.05831 16 4.87125 16 3.5Z" fill="#C50F1F"/>
<path fill-rule="evenodd" clip-rule="evenodd" d="M11.5 16C13.9853 16 16 13.9853 16 11.5C16 9.01472 13.9853 7 11.5 7C9.01472 7 7 9.01472 7 11.5C7 13.9853 9.01472 16 11.5 16ZM13.3536 10.3536C13.5488 10.1583 13.5488 9.84171 13.3536 9.64645C13.1583 9.45118 12.8417 9.45118 12.6464 9.64645L11.5 10.7929L10.3536 9.64645C10.1583 9.45118 9.84171 9.45118 9.64645 9.64645C9.45118 9.84171 9.45118 10.1583 9.64645 10.3536L10.7929 11.5L9.64645 12.6464C9.45118 12.8417 9.45118 13.1583 9.64645 13.3536C9.84171 13.5488 10.1583 13.5488 10.3536 13.3536L11.5 12.2071L12.6464 13.3536C12.8417 13.5488 13.1583 13.5488 13.3536 13.3536C13.5488 13.1583 13.5488 12.8417 13.3536 12.6464L12.2071 11.5L13.3536 10.3536Z" fill="#C50F1F"/>
</svg>
