<svg width="16" height="16" viewBox="0 0 16 16" fill="none" xmlns="http://www.w3.org/2000/svg">
<path d="M15 7.24166C14.7561 7.40462 14.4957 7.54412 14.2221 7.65746C14.1487 7.68786 14.0746 7.71626 14 7.74264V9L14 9.00522V10.7324C14.5978 10.3866 15 9.74029 15 9V7.24166Z" fill="#202020"/>
<path d="M8.02786 4C8.042 4.1264 8.06152 4.25248 8.08647 4.37791C8.12865 4.58995 8.18587 4.7978 8.25736 5H3C2.44772 5 2 5.44772 2 6V11C2 11.5523 2.44772 12 3 12H4L4 13.9981L6.74738 12H11C11.5523 12 12 11.5523 12 11V7.97214C12.3332 8.00939 12.6686 8.00919 13 7.97214V11C13 12.1046 12.1046 13 11 13H7.07257L4.58817 14.8068C3.9272 15.2875 3 14.8154 3 13.9981L3 13C1.89543 13 1 12.1046 1 11V6C1 4.89543 1.89543 4 3 4H8.02786Z" fill="#202020"/>
<path d="M8.02787 3C8.06585 2.66023 8.14257 2.32466 8.25736 2H5C4.25972 2 3.61337 2.4022 3.26756 3H8.02787Z" fill="#202020"/>
<path d="M12.5 0C14.433 -8.4494e-08 16 1.567 16 3.5C16 5.433 14.433 7 12.5 7C10.567 7 9 5.433 9 3.5C9 1.567 10.567 8.4494e-08 12.5 0Z" fill="#C50F1F"/>
</svg>
