<svg width="16" height="16" viewBox="0 0 16 16" fill="none" xmlns="http://www.w3.org/2000/svg">
<path fill-rule="evenodd" clip-rule="evenodd" d="M3 3C3 1.89543 3.89543 1 5 1H8.58579C8.98361 1 9.36514 1.15804 9.64645 1.43934L12.5607 4.35355C12.842 4.63486 13 5.01639 13 5.41421V13C13 14.1046 12.1046 15 11 15H7.62165L8.061 14.561C8.20039 14.4217 8.31096 14.2563 8.38641 14.0742C8.39657 14.0497 8.40607 14.025 8.41489 14H11C11.5523 14 12 13.5523 12 13V6H9.5C8.67157 6 8 5.32843 8 4.5V2H5C4.44772 2 4 2.44772 4 3V6.378L3.811 6.189C3.6717 6.04961 3.5063 5.93904 3.32425 5.86359C3.21977 5.8203 3.11099 5.78906 3 5.7703V3ZM9.5 5H11.7929L9 2.20711V4.5C9 4.77614 9.22386 5 9.5 5Z" fill="#202020"/>
<path d="M0.396813 8.89657C0.201551 9.09183 0.201551 9.40841 0.396813 9.60367L1.39666 10.6035C1.59192 10.7988 1.90851 10.7988 2.10377 10.6035L2.70729 10H2.99999V13C2.99999 13.2652 3.10534 13.5196 3.29288 13.7071C3.48042 13.8946 3.73477 14 3.99999 14H4.81684C4.70844 14.1876 4.73164 14.4309 4.88805 14.595L5.37605 15.107C5.46898 15.2045 5.59731 15.2603 5.73199 15.262C5.86667 15.2636 5.9963 15.2108 6.09154 15.1156L7.35354 13.8536C7.5488 13.6583 7.5488 13.3417 7.35354 13.1464L6.85354 12.6464C6.65828 12.4512 6.34169 12.4512 6.14643 12.6464L5.79288 13H3.99999V10H4.82215C4.72151 10.1858 4.74698 10.4223 4.90008 10.583L5.38808 11.095C5.481 11.1925 5.60933 11.2483 5.74401 11.25C5.87869 11.2516 6.00832 11.1988 6.10356 11.1036L7.35356 9.85355C7.54883 9.65829 7.54883 9.34171 7.35356 9.14645L6.85356 8.64645C6.6583 8.45118 6.34172 8.45118 6.14646 8.64645L5.7929 9H3.70729L4.10347 8.60382C4.29873 8.40856 4.29873 8.09198 4.10347 7.89672L3.10362 6.89687C2.90836 6.70161 2.59177 6.70161 2.39651 6.89687L0.396813 8.89657Z" fill="#B27C00"/>
</svg>
