<svg width="16" height="16" viewBox="0 0 16 16" fill="none" xmlns="http://www.w3.org/2000/svg">
<path d="M13.75 15H2.25C1.561 15 1 14.439 1 13.75V12.25C1 11.561 1.561 11 2.25 11H13.75C14.439 11 15 11.561 15 12.25V13.75C15 14.439 14.439 15 13.75 15ZM2.25 12C2.112 12 2 12.112 2 12.25V13.75C2 13.888 2.112 14 2.25 14H13.75C13.888 14 14 13.888 14 13.75V12.25C14 12.112 13.888 12 13.75 12H2.25Z" fill="#202020"/>
<path fill-rule="evenodd" clip-rule="evenodd" d="M6.25 5H9.75C10.439 5 11 4.439 11 3.75V2.25C11 1.561 10.439 1 9.75 1H6.25C5.561 1 5 1.561 5 2.25V3.75C5 4.439 5.561 5 6.25 5ZM6 2.25C6 2.112 6.112 2 6.25 2H9.75C9.888 2 10 2.112 10 2.25V3.75C10 3.888 9.888 4 9.75 4H6.25C6.112 4 6 3.888 6 3.75V2.25Z" fill="#3487C7"/>
<path fill-rule="evenodd" clip-rule="evenodd" d="M4.25 10H11.75C12.439 10 13 9.439 13 8.75V7.25C13 6.561 12.439 6 11.75 6H4.25C3.561 6 3 6.561 3 7.25V8.75C3 9.439 3.561 10 4.25 10ZM4 7.25C4 7.112 4.112 7 4.25 7H11.75C11.888 7 12 7.112 12 7.25V8.75C12 8.888 11.888 9 11.75 9H4.25C4.112 9 4 8.888 4 8.75V7.25Z" fill="#3487C7"/>
</svg>
