<svg width="16" height="16" viewBox="0 0 16 16" fill="none" xmlns="http://www.w3.org/2000/svg">
<path d="M12.561 4.354L9.647 1.44C9.366 1.159 8.984 1.001 8.586 1.001H5C3.895 1.001 3 1.896 3 3.001V6.213C3.323 6.122 3.656 6.057 4 6.026V3.001C4 2.449 4.448 2.001 5 2.001H8V4.501C8 5.329 8.672 6.001 9.5 6.001H12V13.001C12 13.553 11.552 14.001 11 14.001H9.395C9.212 14.358 8.996 14.695 8.743 15.001H11C12.105 15.001 13 14.106 13 13.001V5.415C13 5.017 12.842 4.636 12.561 4.354ZM9.5 5C9.224 5 9 4.776 9 4.5V2.207L11.793 5H9.5Z" fill="#202020"/>
<path fill-rule="evenodd" clip-rule="evenodd" d="M0.635002 10.92C1.723 10.642 2.369 9.523 2.066 8.442L1.91 7.885C2.164 7.69 2.439 7.522 2.732 7.388L3.069 7.746C3.858 8.583 5.189 8.584 5.979 7.748L6.304 7.404C6.602 7.545 6.882 7.719 7.139 7.922L7.013 8.344C6.684 9.446 7.35 10.598 8.469 10.863L8.818 10.946C8.84 11.128 8.851 11.313 8.851 11.501C8.851 11.657 8.843 11.811 8.828 11.963L8.367 12.081C7.279 12.359 6.633 13.478 6.936 14.559L7.092 15.116C6.838 15.311 6.563 15.479 6.27 15.614L5.933 15.256C5.144 14.419 3.813 14.418 3.023 15.255L2.698 15.599C2.4 15.459 2.121 15.284 1.863 15.081L1.989 14.658C2.318 13.556 1.652 12.404 0.533002 12.139L0.183002 12.056C0.161002 11.874 0.150002 11.689 0.150002 11.502C0.150002 11.346 0.158002 11.192 0.173002 11.04L0.634002 10.922L0.635002 10.92ZM5.5 11.5C5.5 12.052 5.052 12.5 4.5 12.5C3.948 12.5 3.5 12.052 3.5 11.5C3.5 10.948 3.948 10.5 4.5 10.5C5.052 10.5 5.5 10.948 5.5 11.5Z" fill="#B27C00"/>
</svg>
