<svg width="16" height="16" viewBox="0 0 16 16" fill="none" xmlns="http://www.w3.org/2000/svg">
<g clip-path="url(#clip0_7204_88284)">
<path d="M2.5 2C2.22386 2 2 2.22386 2 2.5C2 2.77614 2.22386 3 2.5 3H10.5C10.7761 3 11 2.77614 11 2.5C11 2.22386 10.7761 2 10.5 2H2.5Z" fill="#202020"/>
<path d="M2.5 10C2.22386 10 2 10.2239 2 10.5C2 10.7761 2.22386 11 2.5 11H9.02533C8.96981 10.6813 9.00594 10.3531 9.12993 10.0538C9.13742 10.0357 9.14521 10.0178 9.1533 10H2.5Z" fill="#202020"/>
<path d="M2 6.5C2 6.22386 2.22386 6 2.5 6H13.5C13.7761 6 14 6.22386 14 6.5C14 6.77614 13.7761 7 13.5 7H2.5C2.22386 7 2 6.77614 2 6.5Z" fill="#202020"/>
<path d="M15.2932 10H10.7072C10.5673 9.99997 10.4306 10.0414 10.3143 10.1191C10.198 10.1968 10.1073 10.3072 10.0538 10.4364C10.0003 10.5656 9.9863 10.7078 10.0136 10.845C10.0409 10.9821 10.1082 11.1081 10.2072 11.207L12.0002 13V15C12.0001 15.0463 12.013 15.0917 12.0374 15.1311C12.0618 15.1705 12.0967 15.2023 12.1382 15.223L13.6382 15.973C13.6728 15.9908 13.7112 16.0001 13.7502 16C13.8165 16 13.88 15.9737 13.9269 15.9268C13.9738 15.8799 14.0002 15.8163 14.0002 15.75V13L15.7932 11.207C15.8921 11.1081 15.9594 10.9821 15.9867 10.845C16.014 10.7078 16 10.5656 15.9465 10.4364C15.893 10.3072 15.8023 10.1968 15.686 10.1191C15.5697 10.0414 15.433 9.99997 15.2932 10V10Z" fill="#006CBF"/>
</g>
<defs>
<clipPath id="clip0_7204_88284">
<rect width="16" height="16" fill="white"/>
</clipPath>
</defs>
</svg>
