<svg width="16" height="16" viewBox="0 0 16 16" fill="none" xmlns="http://www.w3.org/2000/svg">
<g clip-path="url(#clip0_7204_88331)">
<path d="M11.5 2H6.5C5.83696 2 5.20107 2.26339 4.73223 2.73223C4.37275 3.09172 4.13405 3.54941 4.04225 4.04225C3.54941 4.13405 3.09172 4.37275 2.73223 4.73223C2.26339 5.20107 2 5.83696 2 6.5V11.5C2 12.163 2.26339 12.7989 2.73223 13.2678C3.20107 13.7366 3.83696 14 4.5 14H9.5C9.63897 14 9.77736 13.9884 9.91377 13.9655L10.8795 13.0005L10.4983 12.6196C10.2243 12.8639 9.86915 13 9.5 13H4.5C4.10218 13 3.72064 12.842 3.43934 12.5607C3.15804 12.2794 3 11.8978 3 11.5V6H11V9.08559C11.2093 9.15947 11.4016 9.27956 11.5615 9.43948L12 9.8783V6.5C12 6.1717 11.9353 5.84661 11.8097 5.54329C11.6841 5.23998 11.4999 4.96438 11.2678 4.73223C11.0356 4.50009 10.76 4.31594 10.4567 4.1903C10.1534 4.06466 9.8283 4 9.5 4H13V9.5C13 9.86915 12.8639 10.2243 12.6196 10.4983L13.0005 10.8795L13.9655 9.91377C13.9884 9.77736 14 9.63897 14 9.5V4.5C14 3.83696 13.7366 3.20107 13.2678 2.73223C12.7989 2.26339 12.163 2 11.5 2Z" fill="#202020"/>
<path d="M4 6C4 5.44771 4.44772 5 5 5H11C11.5523 5 12 5.44772 12 6V9.8783L11.5615 9.43948C11.4016 9.27956 11.2093 9.15947 11 9.08559V6L5 6V9.5C5 10.3284 5.67157 11 6.5 11H9.08559C9.15947 11.2093 9.27956 11.4016 9.43948 11.5615L9.8783 12H6.5C5.11929 12 4 10.8807 4 9.5V6Z" fill="#B27C00"/>
<path d="M6 8.5C6 8.22386 6.22386 8 6.5 8H9.5C9.77614 8 10 8.22386 10 8.5C10 8.77614 9.77614 9 9.5 9H6.5C6.22386 9 6 8.77614 6 8.5Z" fill="#B27C00"/>
<path d="M15.8544 15.1465C15.9483 15.2404 16.001 15.3677 16.001 15.5005C16.001 15.6333 15.9483 15.7606 15.8544 15.8545C15.7605 15.9484 15.6332 16.0011 15.5004 16.0011C15.3676 16.0011 15.2403 15.9484 15.1464 15.8545L13.0004 13.7075L10.8544 15.8545C10.7605 15.9484 10.6332 16.0011 10.5004 16.0011C10.3676 16.0011 10.2403 15.9484 10.1464 15.8545C10.0525 15.7606 9.99976 15.6333 9.99976 15.5005C9.99976 15.3677 10.0525 15.2404 10.1464 15.1465L12.2934 13.0005L10.1464 10.8545C10.0525 10.7606 9.99976 10.6333 9.99976 10.5005C9.99976 10.3677 10.0525 10.2404 10.1464 10.1465C10.2403 10.0526 10.3676 9.99988 10.5004 9.99988C10.6332 9.99988 10.7605 10.0526 10.8544 10.1465L13.0004 12.2935L15.1464 10.1465C15.2403 10.0526 15.3676 9.99988 15.5004 9.99988C15.6332 9.99988 15.7605 10.0526 15.8544 10.1465C15.9483 10.2404 16.001 10.3677 16.001 10.5005C16.001 10.6333 15.9483 10.7606 15.8544 10.8545L13.7074 13.0005L15.8544 15.1465Z" fill="#202020"/>
</g>
<defs>
<clipPath id="clip0_7204_88331">
<rect width="16" height="16" fill="white"/>
</clipPath>
</defs>
</svg>
