<svg width="16" height="16" viewBox="0 0 16 16" fill="none" xmlns="http://www.w3.org/2000/svg">
<g clip-path="url(#clip0_7204_88310)">
<path fill-rule="evenodd" clip-rule="evenodd" d="M6.5 2H11.5C12.163 2 12.7989 2.26339 13.2678 2.73223C13.7366 3.20107 14 3.83696 14 4.5V9.5C14 9.8283 13.9353 10.1534 13.8097 10.4567C13.6841 10.76 13.4999 11.0356 13.2678 11.2678C13.0356 11.4999 12.76 11.6841 12.4567 11.8097C12.2956 11.8764 12.1284 11.926 11.9577 11.9577C11.926 12.1284 11.8764 12.2956 11.8097 12.4567C11.6841 12.76 11.4999 13.0356 11.2678 13.2678C11.0356 13.4999 10.76 13.6841 10.4567 13.8097C10.1534 13.9353 9.8283 14 9.5 14H4.5C3.83696 14 3.20107 13.7366 2.73223 13.2678C2.26339 12.7989 2 12.163 2 11.5V6.5C2 5.83696 2.26339 5.20107 2.73223 4.73223C3.09172 4.37275 3.54941 4.13405 4.04225 4.04225C4.13405 3.54941 4.37275 3.09172 4.73223 2.73223C5.20107 2.26339 5.83696 2 6.5 2ZM3 6V11.5C3 11.8978 3.15804 12.2794 3.43934 12.5607C3.72064 12.842 4.10218 13 4.5 13H9.5C9.89782 13 10.2794 12.842 10.5607 12.5607C10.842 12.2794 11 11.8978 11 11.5V6H3ZM12 10.9142C12.209 10.8403 12.401 10.7204 12.5607 10.5607C12.842 10.2794 13 9.89782 13 9.5V4H9.5C9.8283 4 10.1534 4.06466 10.4567 4.1903C10.76 4.31594 11.0356 4.50009 11.2678 4.73223C11.4999 4.96438 11.6841 5.23998 11.8097 5.54329C11.9353 5.84661 12 6.1717 12 6.5V10.9142Z" fill="#202020"/>
<path d="M6.5 8C6.22386 8 6 8.22386 6 8.5C6 8.77614 6.22386 9 6.5 9H9.5C9.77614 9 10 8.77614 10 8.5C10 8.22386 9.77614 8 9.5 8H6.5Z" fill="#B27C00"/>
<path fill-rule="evenodd" clip-rule="evenodd" d="M5 5C4.44772 5 4 5.44771 4 6V9.5C4 10.8807 5.11929 12 6.5 12H11C11.5523 12 12 11.5523 12 11V6C12 5.44772 11.5523 5 11 5H5ZM5 6L11 6V11H6.5C5.67157 11 5 10.3284 5 9.5V6Z" fill="#B27C00"/>
</g>
<defs>
<clipPath id="clip0_7204_88310">
<rect width="16" height="16" fill="white"/>
</clipPath>
</defs>
</svg>
