<svg width="16" height="16" viewBox="0 0 16 16" fill="none" xmlns="http://www.w3.org/2000/svg">
<path d="M2.30298 9.88772C3.09412 12.2766 5.34579 14 8 14C11.1301 14 13.6999 11.6035 13.9756 8.54488C14.0003 8.26985 13.7975 8.0268 13.5225 8.00202C13.2474 7.97723 13.0044 8.1801 12.9796 8.45512C12.75 11.003 10.6079 13 8 13C5.68315 13 3.73435 11.4242 3.16691 9.2859C2.93439 9.56491 2.63604 9.77056 2.30298 9.88772Z" fill="#202020"/>
<path d="M7.30558 3.04783C7.53254 3.0163 7.76437 3 8 3C9.63527 3 11.0878 3.78495 12.0005 5H10C9.72386 5 9.5 5.22386 9.5 5.5C9.5 5.77614 9.72386 6 10 6H12.8904C12.8973 6.00014 12.9041 6.00014 12.911 6H13C13.2761 6 13.5 5.77614 13.5 5.5V2.5C13.5 2.22386 13.2761 2 13 2C12.7239 2 12.5 2.22386 12.5 2.5V4.03138C11.4009 2.78613 9.79253 2 8 2C7.50719 2 7.02826 2.05941 6.56997 2.17147C6.85146 2.31909 7.08539 2.55461 7.22695 2.85C7.25815 2.91441 7.28434 2.98054 7.30558 3.04783Z" fill="#202020"/>
<path d="M1.64198 9C1.32998 9 1.04398 8.858 0.856984 8.61C0.668984 8.362 0.608984 8.048 0.692984 7.748L1.46498 5H0.499984C0.340984 5 0.190984 4.924 0.0969841 4.796C0.00298412 4.668 -0.0240159 4.502 0.0229841 4.351L1.27298 0.351C1.33798 0.142 1.53198 0 1.75098 0H4.87598C5.03998 0 5.19298 0.0810001 5.28698 0.215C5.37998 0.35 5.40098 0.522 5.34398 0.675L4.47298 2.999H5.87598C6.06798 2.999 6.24298 3.109 6.32598 3.282C6.40998 3.455 6.38698 3.661 6.26598 3.811L2.41198 8.629C2.22398 8.863 1.94398 8.999 1.64198 8.999V9Z" fill="#B27C00"/>
</svg>
