<svg width="16" height="16" viewBox="0 0 16 16" fill="none" xmlns="http://www.w3.org/2000/svg">
<path d="M14 4.25004C14 5.11504 13.641 5.71204 13.427 5.92704C13.329 6.02504 13.171 6.02504 13.073 5.92704C12.975 5.82904 12.975 5.67104 13.073 5.57304C13.148 5.49804 13.298 5.28303 13.399 4.95003C13.357 4.98103 13.306 4.99904 13.25 4.99904C13.112 4.99904 13 4.88704 13 4.74904V4.24904C13 4.11104 13.112 3.99904 13.25 3.99904H13.75C13.888 3.99904 14 4.11204 14 4.25004ZM12.25 4.00004H11.75C11.612 4.00004 11.5 4.11204 11.5 4.25004V4.75004C11.5 4.88804 11.612 5.00004 11.75 5.00004C11.806 5.00004 11.858 4.98204 11.899 4.95104C11.798 5.28404 11.648 5.49904 11.573 5.57404C11.475 5.67204 11.475 5.83004 11.573 5.92804C11.671 6.02604 11.829 6.02604 11.927 5.92804C12.142 5.71404 12.5 5.11604 12.5 4.25104C12.5 4.11304 12.388 4.00004 12.25 4.00004ZM1.927 4.07304C1.829 3.97504 1.671 3.97504 1.573 4.07304C1.358 4.28804 1 4.88504 1 5.75004C1 5.88804 1.112 6.00004 1.25 6.00004H1.75C1.888 6.00004 2 5.88804 2 5.75004V5.25004C2 5.11204 1.888 5.00004 1.75 5.00004C1.694 5.00004 1.642 5.01803 1.601 5.04903C1.702 4.71603 1.852 4.50104 1.927 4.42604C2.025 4.32804 2.025 4.17104 1.927 4.07304ZM3.5 5.75004V5.25004C3.5 5.11204 3.388 5.00004 3.25 5.00004C3.194 5.00004 3.142 5.01803 3.101 5.04903C3.202 4.71603 3.352 4.50104 3.427 4.42604C3.525 4.32804 3.525 4.17004 3.427 4.07204C3.329 3.97404 3.171 3.97404 3.073 4.07204C2.858 4.28704 2.5 4.88404 2.5 5.74904C2.5 5.88704 2.612 5.99904 2.75 5.99904H3.25C3.388 5.99904 3.5 5.88804 3.5 5.75004ZM6.999 7.75004V10.5C6.999 10.776 6.775 11 6.499 11C6.36 11 6.235 10.943 6.144 10.851C5.91 10.937 5.621 11 5.249 11C3.936 11 3.249 10.246 3.249 9.50004C3.249 8.75404 3.936 8.00004 5.249 8.00004C5.551 8.00004 5.795 8.02304 5.999 8.05604V7.75004C5.999 7.25604 5.279 7.25004 5.249 7.25004C4.757 7.25004 4.577 7.37703 4.575 7.37803C4.379 7.57303 4.076 7.56103 3.882 7.36503C3.687 7.17003 3.701 6.84103 3.896 6.64603C3.989 6.55304 4.362 6.25004 5.25 6.25004C6.12 6.25004 6.999 6.76504 6.999 7.75004ZM6 9.07404C5.856 9.03804 5.622 9.00004 5.25 9.00004C4.601 9.00004 4.25 9.25804 4.25 9.50004C4.25 9.74204 4.601 10 5.25 10C5.697 10 5.907 9.88504 6 9.81104V9.07404ZM12 8.75004C12 9.99104 11.103 11 10 11C9.62 11 9.269 10.873 8.966 10.666C8.897 10.86 8.717 11 8.5 11C8.224 11 8 10.776 8 10.5V5.50004C8 5.22404 8.224 5.00004 8.5 5.00004C8.776 5.00004 9 5.22404 9 5.50004V6.81304C9.295 6.61904 9.634 6.50004 10 6.50004C11.103 6.50004 12 7.50904 12 8.75004ZM11 8.75004C11 8.06104 10.552 7.50004 10 7.50004C9.448 7.50004 9 8.06104 9 8.75004C9 9.43904 9.448 10 10 10C10.552 10 11 9.43904 11 8.75004Z" fill="#202020"/>
</svg>
