<svg width="16" height="16" viewBox="0 0 16 16" fill="none" xmlns="http://www.w3.org/2000/svg">
<path d="M15 14.5C15 14.776 14.776 15 14.5 15H1.5C1.224 15 1 14.776 1 14.5V1.5C1 1.224 1.224 1 1.5 1C1.776 1 2 1.224 2 1.5V14H14.5C14.776 14 15 14.224 15 14.5ZM3 12.5V2.5C3 2.224 3.224 2 3.5 2H13.5C13.776 2 14 2.224 14 2.5V12.5C14 12.776 13.776 13 13.5 13H3.5C3.224 13 3 12.776 3 12.5ZM4 12H13V3H4V12Z" fill="#202020"/>
<path d="M8.5001 13H5.5001C5.3271 13 5.1661 12.91 5.0741 12.763C4.9831 12.616 4.9751 12.431 5.0531 12.277L10.0531 2.276C10.1381 2.107 10.3111 2 10.5001 2H13.5001C13.7761 2 14.0001 2.224 14.0001 2.5V7C14.0001 7.125 13.9541 7.244 13.8701 7.336L8.8701 12.836C8.7751 12.94 8.6411 13 8.5001 13ZM6.3091 12H8.2801L13.0011 6.807V3H10.8101L6.3091 12Z" fill="#3487C7"/>
</svg>
