<svg width="16" height="16" viewBox="0 0 16 16" fill="none" xmlns="http://www.w3.org/2000/svg">
<path d="M5 1C3.895 1 3 1.895 3 3V13C3 14.105 3.895 15 5 15H11C12.105 15 13 14.105 13 13V5.414C13 5.016 12.842 4.635 12.561 4.353L9.647 1.439C9.366 1.158 8.984 1 8.586 1H5ZM4 3C4 2.448 4.448 2 5 2H8V4.5C8 5.328 8.672 6 9.5 6H12V13C12 13.552 11.552 14 11 14H5C4.448 14 4 13.552 4 13V3ZM11.793 5H9.5C9.224 5 9 4.776 9 4.5V2.207L11.793 5Z" fill="#202020"/>
<path d="M5.5 7C5.224 7 5 7.224 5 7.5C5 7.776 5.224 8 5.5 8H6.5C6.776 8 7 7.776 7 7.5C7 7.224 6.776 7 6.5 7H5.5Z" fill="#202020"/>
<path d="M8 7.5C8 7.224 8.224 7 8.5 7H10.5C10.776 7 11 7.224 11 7.5C11 7.776 10.776 8 10.5 8H8.5C8.224 8 8 7.776 8 7.5Z" fill="#202020"/>
<path d="M9 9.5C9 9.224 9.224 9 9.5 9H10.5C10.776 9 11 9.224 11 9.5C11 9.776 10.776 10 10.5 10H9.5C9.224 10 9 9.776 9 9.5Z" fill="#202020"/>
<path d="M6 9.5C6 9.224 6.224 9 6.5 9H7.5C7.776 9 8 9.224 8 9.5C8 9.776 7.776 10 7.5 10H6.5C6.224 10 6 9.776 6 9.5Z" fill="#202020"/>
<path d="M5.5 11C5.224 11 5 11.224 5 11.5C5 11.776 5.224 12 5.5 12H9C9.276 12 9.5 11.776 9.5 11.5C9.5 11.224 9.276 11 9 11H5.5Z" fill="#202020"/>
</svg>
