<svg width="16" height="16" viewBox="0 0 16 16" fill="none" xmlns="http://www.w3.org/2000/svg">
<path d="M10.727 8.362C10.8848 8.13733 10.9778 7.87367 10.9961 7.59974C11.0144 7.32582 10.9571 7.05214 10.8305 6.80852C10.704 6.5649 10.513 6.36068 10.2784 6.21812C10.0438 6.07555 9.77453 6.00011 9.5 6H8.5C8.36739 6 8.24021 6.05268 8.14645 6.14645C8.05268 6.24021 8 6.36739 8 6.5V10.5C8 10.6326 8.05268 10.7598 8.14645 10.8536C8.24021 10.9473 8.36739 11 8.5 11H9.75C10.0564 11 10.3553 10.9061 10.6068 10.7311C10.8582 10.5561 11.05 10.3082 11.1564 10.021C11.2628 9.73367 11.2787 9.4207 11.2019 9.12412C11.1252 8.82754 10.9594 8.56158 10.727 8.362ZM9 7H9.5C9.63261 7 9.75979 7.05268 9.85355 7.14645C9.94732 7.24021 10 7.36739 10 7.5C10 7.63261 9.94732 7.75979 9.85355 7.85355C9.75979 7.94732 9.63261 8 9.5 8H9V7ZM9.75 10H9V9H9.75C9.88261 9 10.0098 9.05268 10.1036 9.14645C10.1973 9.24021 10.25 9.36739 10.25 9.5C10.25 9.63261 10.1973 9.75979 10.1036 9.85355C10.0098 9.94732 9.88261 10 9.75 10ZM7.022 9.86C6.92834 9.41081 6.75928 8.98073 6.522 8.588C6.73897 8.3821 6.88942 8.11603 6.95403 7.82398C7.01864 7.53193 6.99446 7.22722 6.8846 6.94902C6.77473 6.67081 6.5842 6.4318 6.33748 6.26269C6.09075 6.09359 5.79911 6.00211 5.5 6H4.5C4.36739 6 4.24021 6.05268 4.14645 6.14645C4.05268 6.24021 4 6.36739 4 6.5V10.5C4 10.6326 4.05268 10.7598 4.14645 10.8536C4.24021 10.9473 4.36739 11 4.5 11C4.63261 11 4.75979 10.9473 4.85355 10.8536C4.94732 10.7598 5 10.6326 5 10.5V9H5.5C5.776 9 5.962 9.745 6.052 10.1C6.162 10.541 6.276 11 6.752 11C6.85197 10.9998 6.9496 10.9697 7.03227 10.9135C7.11495 10.8573 7.17887 10.7776 7.2158 10.6847C7.25272 10.5918 7.26095 10.4899 7.23942 10.3923C7.21788 10.2947 7.16758 10.2058 7.095 10.137C7.07 10.064 7.049 9.968 7.022 9.86ZM5 7H5.5C5.63261 7 5.75979 7.05268 5.85355 7.14645C5.94732 7.24021 6 7.36739 6 7.5C6 7.63261 5.94732 7.75979 5.85355 7.85355C5.75979 7.94732 5.63261 8 5.5 8H5V7Z" fill="#C50F1F"/>
<path fill-rule="evenodd" clip-rule="evenodd" d="M2.75 4C2.33579 4 2 4.33579 2 4.75V12.25C2 12.6642 2.33579 13 2.75 13H12.25C12.6642 13 13 12.6642 13 12.25V4.75C13 4.33579 12.6642 4 12.25 4H2.75ZM1 4.75C1 3.7835 1.7835 3 2.75 3H12.25C13.2165 3 14 3.7835 14 4.75V12.25C14 13.2165 13.2165 14 12.25 14H2.75C1.7835 14 1 13.2165 1 12.25V4.75Z" fill="#202020"/>
</svg>
