<svg width="16" height="16" viewBox="0 0 16 16" fill="none" xmlns="http://www.w3.org/2000/svg">
<g clip-path="url(#clip0_7204_88517)">
<path d="M2 7.91285C2.16023 7.97024 2.32934 7.9998 2.49999 8C2.67057 8.00056 2.83975 7.97145 3 7.91415V11C3 11.2652 3.10536 11.5196 3.29289 11.7071C3.48043 11.8946 3.73478 12 4 12H12C12.0284 12 12.0567 11.9988 12.0847 11.9964L12.086 12H9.49999C9.10199 12 8.71999 12.158 8.43899 12.439C8.27947 12.5991 8.15959 12.7911 8.08575 13H4C3.47005 12.9984 2.96227 12.7872 2.58754 12.4125C2.2128 12.0377 2.00158 11.5299 2 11V7.91285Z" fill="#202020"/>
<path d="M14 10.0877V5.094C14 4.82446 13.9274 4.55991 13.7898 4.32816C13.6522 4.09641 13.4546 3.90601 13.218 3.777L8.239 1.062C8.16595 1.02118 8.08367 0.999756 8 0.999756C7.91633 0.999756 7.83405 1.02118 7.761 1.062L4.11032 3.05194C4.23728 3.01795 4.36824 3.00045 4.49999 3C4.70112 3.00019 4.90012 3.04124 5.08491 3.12066C5.25002 3.19162 5.40071 3.29189 5.52977 3.41644L8 2.069L12.739 4.655C12.8179 4.69796 12.8838 4.7614 12.9298 4.83866C12.9757 4.91591 13 5.00412 13 5.094V5.7L8 8.43099L4.56124 6.55275L3.82271 7.29128L7.761 9.442C7.83411 9.48262 7.91636 9.50395 8 9.50395C8.08364 9.50395 8.16589 9.48262 8.239 9.442L13 6.842V10.0853C13.1606 10.028 13.3291 9.99913 13.5 10C13.6705 10 13.8397 10.0303 14 10.0877Z" fill="#202020"/>
<path d="M2.15 6.85L0.149998 4.85C0.102555 4.80488 0.0647811 4.75059 0.0389694 4.69042C0.0131577 4.63026 -0.000152588 4.56547 -0.000152588 4.5C-0.000152588 4.43453 0.0131577 4.36974 0.0389694 4.30958C0.0647811 4.24941 0.102555 4.19512 0.149998 4.15C0.195115 4.10256 0.249406 4.06478 0.309574 4.03897C0.369741 4.01316 0.434528 3.99985 0.499998 3.99985C0.565468 3.99985 0.630254 4.01316 0.690422 4.03897C0.750589 4.06478 0.80488 4.10256 0.849998 4.15L2 5.29V0.5C2 0.367392 2.05268 0.240215 2.14644 0.146447C2.24021 0.0526784 2.36739 0 2.5 0C2.63261 0 2.75978 0.0526784 2.85355 0.146447C2.94732 0.240215 3 0.367392 3 0.5V5.29L4.15 4.15C4.24314 4.05872 4.36855 4.00788 4.49896 4.00854C4.62938 4.0092 4.75426 4.0613 4.84648 4.15352C4.9387 4.24574 4.9908 4.37062 4.99146 4.50104C4.99211 4.63145 4.94128 4.75686 4.85 4.85L2.85 6.85C2.80488 6.89744 2.75059 6.93522 2.69042 6.96103C2.63025 6.98684 2.56547 7.00015 2.5 7.00015C2.43453 7.00015 2.36974 6.98684 2.30957 6.96103C2.24941 6.93522 2.19512 6.89744 2.15 6.85Z" fill="#006CBF"/>
<path d="M13.85 15.85C13.805 15.897 13.751 15.935 13.69 15.961C13.63 15.987 13.565 16 13.5 16C13.435 16 13.37 15.987 13.31 15.961C13.25 15.935 13.196 15.897 13.15 15.85C13.103 15.805 13.065 15.751 13.039 15.69C13.013 15.63 13 15.565 13 15.5C13 15.435 13.013 15.37 13.039 15.31C13.065 15.25 13.103 15.196 13.15 15.15L14.29 14H9.5C9.367 14 9.24 13.947 9.146 13.854C9.052 13.761 9 13.633 9 13.5C9 13.367 9.053 13.24 9.146 13.146C9.24 13.052 9.367 13 9.5 13H14.29L13.15 11.85C13.059 11.757 13.008 11.631 13.009 11.501C13.009 11.371 13.062 11.246 13.154 11.153C13.246 11.061 13.371 11.009 13.502 11.008C13.632 11.008 13.758 11.058 13.851 11.149L15.851 13.149C15.898 13.194 15.936 13.248 15.962 13.309C15.988 13.369 16.001 13.434 16.001 13.499C16.001 13.564 15.988 13.629 15.962 13.689C15.936 13.749 15.898 13.803 15.851 13.849L13.85 15.85Z" fill="#006CBF"/>
</g>
<defs>
<clipPath id="clip0_7204_88517">
<rect width="16" height="16" fill="white"/>
</clipPath>
</defs>
</svg>
