<svg width="16" height="16" viewBox="0 0 16 16" fill="none" xmlns="http://www.w3.org/2000/svg">
<path d="M1 7.98627L1 10.5C1 11.881 2.119 13 3.5 13H12.5C13.881 13 15 11.881 15 10.5V5.5C15 4.119 13.881 3 12.5 3L8 3V4H12.5C13.328 4 14 4.672 14 5.5V10.5C14 11.328 13.328 12 12.5 12H3.5C2.672 12 2 11.328 2 10.5V8H1.25C1.1655 8 1.08208 7.99534 1 7.98627Z" fill="#202020"/>
<path d="M7.98627 6H9.5C9.776 6 10 5.776 10 5.5C10 5.224 9.776 5 9.5 5H8V5.75C8 5.8345 7.99534 5.91792 7.98627 6Z" fill="#202020"/>
<path d="M11.5 5H12C12.551 5 13 5.448 13 6V7C13 7.276 12.776 7.5 12.5 7.5C12.224 7.5 12 7.276 12 7V6H11.5C11.224 6 11 5.776 11 5.5C11 5.224 11.224 5 11.5 5Z" fill="#202020"/>
<path d="M4 10H4.5C4.776 10 5 10.224 5 10.5C5 10.776 4.776 11 4.5 11H4C3.449 11 3 10.552 3 10V9C3 8.724 3.224 8.5 3.5 8.5C3.776 8.5 4 8.724 4 9V10Z" fill="#202020"/>
<path d="M12.5 8.5C12.224 8.5 12 8.724 12 9V10H11.5C11.224 10 11 10.224 11 10.5C11 10.776 11.224 11 11.5 11H12C12.551 11 13 10.552 13 10V9C13 8.724 12.776 8.5 12.5 8.5Z" fill="#202020"/>
<path d="M6 10.5C6 10.224 6.224 10 6.5 10H9.5C9.776 10 10 10.224 10 10.5C10 10.776 9.776 11 9.5 11H6.5C6.224 11 6 10.776 6 10.5Z" fill="#202020"/>
<path d="M3.5 2C2.673 2 2 2.673 2 3.5C2 4.327 2.673 5 3.5 5C4.327 5 5 4.327 5 3.5C5 2.673 4.327 2 3.5 2ZM5.75 0H1.25C0.561 0 0 0.561 0 1.25V5.75C0 6.439 0.561 7 1.25 7H5.75C6.439 7 7 6.439 7 5.75V1.25C7 0.561 6.439 0 5.75 0ZM3.5 6C2.121 6 1 4.878 1 3.5C1 2.122 2.121 1 3.5 1C4.879 1 6 2.122 6 3.5C6 4.878 4.879 6 3.5 6Z" fill="#C50F1F"/>
</svg>
