<svg width="16" height="16" viewBox="0 0 16 16" fill="none" xmlns="http://www.w3.org/2000/svg">
<g clip-path="url(#clip0_7204_88551)">
<path d="M5.99969 11.4647C6.00405 11.2797 6.04261 11.0969 6.11354 10.9258C6.18898 10.7437 6.29956 10.5783 6.43895 10.439L10.4389 6.43901C10.5782 6.29962 10.7436 6.18904 10.9257 6.1136C11.0969 6.04266 11.2797 6.00409 11.4647 5.99975C10.7731 4.80428 9.48046 4 8 4C5.79086 4 4 5.79086 4 8C4 9.48044 4.80426 10.773 5.99969 11.4647Z" fill="#C50F1F"/>
<path d="M7.8767 13.9988C4.61991 13.9331 2 11.2725 2 8C2 4.68629 4.68629 2 8 2C11.2726 2 13.9332 4.61998 13.9988 7.87682L14.9514 8.82943C14.9835 8.55743 15 8.28064 15 8C15 4.13401 11.866 1 8 1C4.13401 1 1 4.13401 1 8C1 11.866 4.13401 15 8 15C8.2806 15 8.55735 14.9835 8.82933 14.9514L7.8767 13.9988Z" fill="#C50F1F"/>
<path fill-rule="evenodd" clip-rule="evenodd" d="M11.854 15.854L15.854 11.854C15.9006 11.8075 15.9375 11.7524 15.9628 11.6916C15.988 11.6309 16.0009 11.5657 16.0009 11.5C16.0009 11.4342 15.988 11.3691 15.9628 11.3083C15.9375 11.2476 15.9006 11.1924 15.854 11.146L11.854 7.14598C11.8076 7.09941 11.7524 7.06247 11.6917 7.03727C11.6309 7.01206 11.5658 6.99908 11.5 6.99908C11.4343 6.99908 11.3692 7.01206 11.3084 7.03727C11.2477 7.06247 11.1925 7.09941 11.146 7.14598L7.14604 11.146C7.09948 11.1924 7.06253 11.2476 7.03733 11.3083C7.01212 11.3691 6.99915 11.4342 6.99915 11.5C6.99915 11.5657 7.01212 11.6309 7.03733 11.6916C7.06253 11.7524 7.09948 11.8075 7.14604 11.854L11.146 15.854C11.1925 15.9005 11.2477 15.9375 11.3084 15.9627C11.3692 15.9879 11.4343 16.0009 11.5 16.0009C11.5658 16.0009 11.6309 15.9879 11.6917 15.9627C11.7524 15.9375 11.8076 15.9005 11.854 15.854ZM11.8536 11.8536C11.9473 11.7598 12 11.6326 12 11.5V9.5C12 9.36739 11.9473 9.24021 11.8536 9.14645C11.7598 9.05268 11.6326 9 11.5 9C11.3674 9 11.2402 9.05268 11.1464 9.14645C11.0527 9.24021 11 9.36739 11 9.5V11.5C11 11.6326 11.0527 11.7598 11.1464 11.8536C11.2402 11.9473 11.3674 12 11.5 12C11.6326 12 11.7598 11.9473 11.8536 11.8536ZM12.125 13.5C12.125 13.8452 11.8452 14.125 11.5 14.125C11.1548 14.125 10.875 13.8452 10.875 13.5C10.875 13.1548 11.1548 12.875 11.5 12.875C11.8452 12.875 12.125 13.1548 12.125 13.5Z" fill="#006CBF"/>
</g>
<defs>
<clipPath id="clip0_7204_88551">
<rect width="16" height="16" fill="white"/>
</clipPath>
</defs>
</svg>
