<svg width="16" height="16" viewBox="0 0 16 16" fill="none" xmlns="http://www.w3.org/2000/svg">
<g clip-path="url(#clip0_7204_88587)">
<path d="M9.56124 11.6836C9.08142 11.8873 8.55363 12 7.99951 12C5.79037 12 3.99951 10.2091 3.99951 8C3.99951 5.79086 5.79037 4 7.99951 4C10.2087 4 11.9995 5.79086 11.9995 8C11.9995 8.55411 11.8868 9.08191 11.6832 9.56173L11.561 9.43948C11.2796 9.15809 10.8979 9 10.5 9C10.102 9 9.72039 9.15809 9.43899 9.43948C9.1576 9.72088 8.99951 10.1025 8.99951 10.5005C8.99951 10.8984 9.1576 11.2801 9.43899 11.5615L9.56124 11.6836Z" fill="#C50F1F"/>
<path d="M10.3622 13.5169C9.63714 13.8278 8.83843 14 7.99951 14C4.6858 14 1.99951 11.3137 1.99951 8C1.99951 4.68629 4.6858 2 7.99951 2C11.3132 2 13.9995 4.68629 13.9995 8C13.9995 8.83892 13.8273 9.63763 13.5164 10.3627L14.439 9.43948C14.5756 9.30283 14.7359 9.19526 14.9103 9.12075C14.969 8.75583 14.9995 8.38148 14.9995 8C14.9995 4.13401 11.8655 1 7.99951 1C4.13352 1 0.999512 4.13401 0.999512 8C0.999512 11.866 4.13352 15 7.99951 15C8.38099 15 8.75534 14.9695 9.12026 14.9108C9.19477 14.7364 9.30234 14.5761 9.43899 14.4395L10.3622 13.5169Z" fill="#C50F1F"/>
<path d="M15.8539 15.1465C15.9478 15.2404 16.0005 15.3677 16.0005 15.5005C16.0005 15.6333 15.9478 15.7606 15.8539 15.8545C15.76 15.9484 15.6327 16.0011 15.4999 16.0011C15.3671 16.0011 15.2398 15.9484 15.1459 15.8545L12.9999 13.7075L10.8539 15.8545C10.76 15.9484 10.6327 16.0011 10.4999 16.0011C10.3671 16.0011 10.2398 15.9484 10.1459 15.8545C10.052 15.7606 9.99927 15.6333 9.99927 15.5005C9.99927 15.3677 10.052 15.2404 10.1459 15.1465L12.2929 13.0005L10.1459 10.8545C10.052 10.7606 9.99927 10.6333 9.99927 10.5005C9.99927 10.3677 10.052 10.2404 10.1459 10.1465C10.2398 10.0526 10.3671 9.99988 10.4999 9.99988C10.6327 9.99988 10.76 10.0526 10.8539 10.1465L12.9999 12.2935L15.1459 10.1465C15.2398 10.0526 15.3671 9.99988 15.4999 9.99988C15.6327 9.99988 15.76 10.0526 15.8539 10.1465C15.9478 10.2404 16.0005 10.3677 16.0005 10.5005C16.0005 10.6333 15.9478 10.7606 15.8539 10.8545L13.7069 13.0005L15.8539 15.1465Z" fill="#202020"/>
</g>
<defs>
<clipPath id="clip0_7204_88587">
<rect width="16" height="16" fill="white"/>
</clipPath>
</defs>
</svg>
