<svg width="16" height="16" viewBox="0 0 16 16" fill="none" xmlns="http://www.w3.org/2000/svg">
<g clip-path="url(#clip0_7204_88583)">
<path d="M4.99951 8V9H1.99951C1.44737 9 0.999512 9.44786 0.999512 10V13C0.999512 13.5521 1.44737 14 1.99951 14H11.4995C12.8807 14 13.9995 12.8811 13.9995 11.5V3C13.9995 2.44786 13.5517 2 12.9995 2H9.99951C9.44737 2 8.99951 2.44786 8.99951 3V6H7.98578C7.94519 6.36721 7.81622 6.70779 7.62062 7H8.99951C9.55165 7 9.99951 6.55214 9.99951 6V3H12.9995V11.5C12.9995 12.3289 12.3284 13 11.4995 13H1.99951V10H4.99951C5.55165 10 5.99951 9.55214 5.99951 9V7.98627C5.91743 7.99534 5.83401 8 5.74951 8H4.99951Z" fill="#202020"/>
<path d="M3.49951 2C2.67251 2 1.99951 2.673 1.99951 3.5C1.99951 4.327 2.67251 5 3.49951 5C4.32651 5 4.99951 4.327 4.99951 3.5C4.99951 2.673 4.32651 2 3.49951 2ZM5.74951 0H1.24951C0.560512 0 -0.000488281 0.561 -0.000488281 1.25V5.75C-0.000488281 6.439 0.560512 7 1.24951 7H5.74951C6.43851 7 6.99951 6.439 6.99951 5.75V1.25C6.99951 0.561 6.43851 0 5.74951 0ZM3.49951 6C2.12051 6 0.999512 4.878 0.999512 3.5C0.999512 2.122 2.12051 1 3.49951 1C4.87851 1 5.99951 2.122 5.99951 3.5C5.99951 4.878 4.87851 6 3.49951 6Z" fill="#C50F1F"/>
</g>
<defs>
<clipPath id="clip0_7204_88583">
<rect width="16" height="16" fill="white"/>
</clipPath>
</defs>
</svg>
