<svg width="16" height="16" viewBox="0 0 16 16" fill="none" xmlns="http://www.w3.org/2000/svg">
<path d="M2.75 4C2.55109 4 2.36032 4.07902 2.21967 4.21967C2.07902 4.36032 2 4.55109 2 4.75C2 5.02614 1.77614 5.25 1.5 5.25C1.22386 5.25 1 5.02614 1 4.75C1 4.28587 1.18437 3.84075 1.51256 3.51256C1.84075 3.18437 2.28587 3 2.75 3H4.5C4.77614 3 5 3.22386 5 3.5C5 3.77614 4.77614 4 4.5 4H2.75Z" fill="#202020"/>
<path d="M1.5 6C1.77614 6 2 6.22386 2 6.5V9.5C2 9.77614 1.77614 10 1.5 10C1.22386 10 1 9.77614 1 9.5V6.5C1 6.22386 1.22386 6 1.5 6Z" fill="#202020"/>
<path d="M1.5 10.75C1.77614 10.75 2 10.9739 2 11.25C2 11.4489 2.07902 11.6397 2.21967 11.7803C2.36032 11.921 2.55109 12 2.75 12H4.5C4.77614 12 5 12.2239 5 12.5C5 12.7761 4.77614 13 4.5 13H2.75C2.28587 13 1.84075 12.8156 1.51256 12.4874C1.18437 12.1592 1 11.7141 1 11.25C1 10.9739 1.22386 10.75 1.5 10.75Z" fill="#202020"/>
<path d="M6 12.5C6 12.2239 6.22386 12 6.5 12H8.00079L8.0005 13H6.5C6.22386 13 6 12.7761 6 12.5Z" fill="#202020"/>
<path d="M14.9415 9.73497C14.9788 9.66492 15 9.58493 15 9.5V6.5C15 6.22386 14.7761 6 14.5 6C14.2239 6 14 6.22386 14 6.5V8.96478L14.9415 9.73497Z" fill="#202020"/>
<path d="M11 3.5C11 3.22386 11.2239 3 11.5 3H13.25C13.7141 3 14.1592 3.18437 14.4874 3.51256C14.8156 3.84075 15 4.28587 15 4.75C15 5.02614 14.7761 5.25 14.5 5.25C14.2239 5.25 14 5.02614 14 4.75C14 4.55109 13.921 4.36032 13.7803 4.21967C13.6397 4.07902 13.4489 4 13.25 4H11.5C11.2239 4 11 3.77614 11 3.5Z" fill="#202020"/>
<path d="M6 3.5C6 3.22386 6.22386 3 6.5 3H9.5C9.77614 3 10 3.22386 10 3.5C10 3.77614 9.77614 4 9.5 4H6.5C6.22386 4 6 3.77614 6 3.5Z" fill="#202020"/>
<path d="M15.723 11.668C16.268 12.114 15.953 12.999 15.248 12.999H12.262C12.105 12.999 11.958 13.072 11.863 13.198L10.348 15.203C9.914 15.777 8.999 15.47 9 14.751L9.002 7.75101C9.002 7.11801 9.737 6.77001 10.227 7.17101L15.723 11.668Z" fill="#006CBF"/>
</svg>
