<svg width="16" height="16" viewBox="0 0 16 16" fill="none" xmlns="http://www.w3.org/2000/svg">
<path d="M9 6.75C9 7.163 8.664 7.5 8.25 7.5H7V6H8.25C8.664 6 9 6.337 9 6.75ZM14 8C14 11.314 11.314 14 8 14C4.686 14 2 11.314 2 8C2 4.686 4.686 2 8 2C11.314 2 14 4.686 14 8ZM10.25 10.5C10.25 10.338 10.172 10.193 10.052 10.102C10.026 10.027 9.992 9.911 9.966 9.819C9.845 9.399 9.641 8.733 9.193 8.22C9.677 7.908 9.999 7.368 9.999 6.751C9.999 5.786 9.214 5.001 8.249 5.001H6.499C6.223 5.001 5.999 5.225 5.999 5.501V10.501C5.999 10.777 6.223 11.001 6.499 11.001C6.775 11.001 6.999 10.777 6.999 10.501V8.501H7.57C8.469 8.501 8.752 9.224 9.005 10.097C9.133 10.541 9.266 11.001 9.75 11.001C10.026 11.001 10.25 10.777 10.25 10.501V10.5Z" fill="#202020"/>
</svg>
