<svg width="16" height="16" viewBox="0 0 16 16" fill="none" xmlns="http://www.w3.org/2000/svg">
<path d="M13.854 10.146L10.854 7.146C10.659 6.951 10.342 6.951 10.147 7.146C9.952 7.341 9.952 7.658 10.147 7.853L12.293 9.999H5C4.448 9.999 4 9.55 4 8.999V2.5C4 2.224 3.776 2 3.5 2C3.224 2 3 2.224 3 2.5V9C3 10.103 3.897 11 5 11H12.293L10.147 13.146C9.952 13.341 9.952 13.658 10.147 13.853C10.245 13.951 10.373 13.999 10.501 13.999C10.629 13.999 10.757 13.95 10.855 13.853L13.855 10.853C14.05 10.658 14.049 10.341 13.854 10.146Z" fill="#202020"/>
</svg>
