<svg width="16" height="16" viewBox="0 0 16 16" fill="none" xmlns="http://www.w3.org/2000/svg">
<g clip-path="url(#clip0_7204_88657)">
<path fill-rule="evenodd" clip-rule="evenodd" d="M6 7.53816V11.05C5.39297 11.1739 4.85358 11.5188 4.4864 12.0178C4.11921 12.5168 3.95039 13.1344 4.01266 13.7508C4.07492 14.3672 4.36385 14.9385 4.82342 15.354C5.28299 15.7694 5.88046 15.9995 6.5 15.9995C7.11953 15.9995 7.717 15.7694 8.17657 15.354C8.63614 14.9385 8.92507 14.3672 8.98734 13.7508C9.04961 13.1344 8.88078 12.5168 8.5136 12.0178C8.14641 11.5188 7.60702 11.1739 7 11.05V8.46599C8.1546 9.38806 9.57186 9.92024 11.048 9.98599C11.1401 10.4506 11.3622 10.8795 11.6886 11.2228C12.015 11.566 12.4322 11.8095 12.8916 11.9248C13.3511 12.0401 13.8338 12.0225 14.2836 11.8741C14.7334 11.7257 15.1318 11.4526 15.4324 11.0865C15.733 10.7205 15.9234 10.2766 15.9814 9.80648C16.0395 9.3364 15.9628 8.85949 15.7604 8.4313C15.5579 8.0031 15.2379 7.64123 14.8378 7.38783C14.4376 7.13444 13.9737 6.99993 13.5 6.99999C12.9265 7.00008 12.3704 7.19737 11.925 7.55879C11.4797 7.9202 11.1721 8.42375 11.054 8.98499C9.172 8.85999 7.466 7.96299 7.081 6.93099C7.67995 6.78725 8.20476 6.42745 8.55477 5.9206C8.90478 5.41374 9.05535 4.79552 8.97761 4.18448C8.89987 3.57344 8.59928 3.01262 8.1335 2.60956C8.09012 2.57202 8.04559 2.53609 8 2.50181V3.5C8 3.67197 7.97047 3.8409 7.91421 4C7.93804 4.0674 7.95712 4.13668 7.97117 4.20736C8.02905 4.49833 7.99935 4.79993 7.88582 5.07402C7.77228 5.34811 7.58003 5.58238 7.33335 5.7472C7.08668 5.91202 6.79667 5.99999 6.5 5.99999C6.10217 5.99999 5.72064 5.84196 5.43934 5.56065C5.27964 5.40095 5.15966 5.20895 5.08578 5H4.121L5.561 6.439C5.69986 6.57786 5.8101 6.74261 5.88549 6.92392C5.92337 6.93349 5.96155 6.94218 6 6.94999V7.46184C6.00032 7.47455 6.00048 7.48727 6.00048 7.5C6.00048 7.51273 6.00032 7.52545 6 7.53816ZM7.7472 14.3333C7.91202 14.0867 8 13.7967 8 13.5C8 13.1022 7.84196 12.7206 7.56066 12.4393C7.27935 12.158 6.89782 12 6.5 12C6.20332 12 5.91331 12.088 5.66664 12.2528C5.41997 12.4176 5.22771 12.6519 5.11418 12.926C5.00065 13.2001 4.97094 13.5017 5.02882 13.7926C5.0867 14.0836 5.22956 14.3509 5.43934 14.5607C5.64911 14.7704 5.91639 14.9133 6.20736 14.9712C6.49833 15.029 6.79993 14.9993 7.07402 14.8858C7.34811 14.7723 7.58238 14.58 7.7472 14.3333ZM12.6666 10.7472C12.9133 10.912 13.2033 11 13.5 11C13.8978 11 14.2794 10.842 14.5607 10.5607C14.842 10.2793 15 9.89782 15 9.49999C15 9.20332 14.912 8.91331 14.7472 8.66664C14.5824 8.41996 14.3481 8.22771 14.074 8.11417C13.7999 8.00064 13.4983 7.97094 13.2074 8.02882C12.9164 8.08669 12.6491 8.22955 12.4393 8.43933C12.2296 8.64911 12.0867 8.91639 12.0288 9.20736C11.9709 9.49833 12.0006 9.79993 12.1142 10.074C12.2277 10.3481 12.42 10.5824 12.6666 10.7472Z" fill="#202020"/>
<path d="M2.621 2.29172e-08C3.31602 0.00187152 3.98224 0.277848 4.475 0.768L6 2.293V0.5C6 0.367392 6.05268 0.240215 6.14645 0.146447C6.24022 0.0526784 6.36739 2.29172e-08 6.5 2.29172e-08C6.63261 2.29172e-08 6.75979 0.0526784 6.85355 0.146447C6.94732 0.240215 7 0.367392 7 0.5V3.5C7 3.63261 6.94732 3.75979 6.85355 3.85355C6.75979 3.94732 6.63261 4 6.5 4H3.5C3.36739 4 3.24022 3.94732 3.14645 3.85355C3.05268 3.75979 3 3.63261 3 3.5C3 3.36739 3.05268 3.24021 3.14645 3.14645C3.24022 3.05268 3.36739 3 3.5 3H5.293L3.768 1.475C3.54135 1.24804 3.25247 1.09343 2.93792 1.03072C2.62336 0.968013 2.29727 1.00003 2.00092 1.12273C1.70457 1.24542 1.45128 1.45327 1.27311 1.71998C1.09494 1.98669 0.99989 2.30025 1 2.621C0.999544 2.83408 1.04128 3.04513 1.12281 3.242C1.20433 3.43886 1.32403 3.61763 1.475 3.768L4.854 7.146C4.90049 7.19249 4.93736 7.24768 4.96252 7.30842C4.98768 7.36916 5.00063 7.43426 5.00063 7.5C5.00063 7.56574 4.98768 7.63084 4.96252 7.69158C4.93736 7.75232 4.90049 7.80751 4.854 7.854C4.80751 7.90049 4.75232 7.93736 4.69158 7.96252C4.63084 7.98768 4.56574 8.00063 4.5 8.00063C4.43426 8.00063 4.36916 7.98768 4.30842 7.96252C4.24768 7.93736 4.19249 7.90049 4.146 7.854L0.768001 4.475C0.401236 4.1085 0.151413 3.64146 0.0501383 3.13295C-0.0511369 2.62444 0.000685632 2.09732 0.19905 1.61827C0.397414 1.13922 0.733407 0.729763 1.16452 0.441706C1.59564 0.153649 2.10251 -6.8527e-05 2.621 2.29172e-08V2.29172e-08Z" fill="#006CBF"/>
</g>
<defs>
<clipPath id="clip0_7204_88657">
<rect width="16" height="16" fill="white"/>
</clipPath>
</defs>
</svg>
