<svg width="16" height="16" viewBox="0 0 16 16" fill="none" xmlns="http://www.w3.org/2000/svg">
<g clip-path="url(#clip0_7204_88670)">
<path d="M8 1C8.27614 1 8.5 1.22386 8.5 1.5V2.5C8.5 2.77614 8.27614 3 8 3C7.72386 3 7.5 2.77614 7.5 2.5V1.5C7.5 1.22386 7.72386 1 8 1Z" fill="#202020"/>
<path fill-rule="evenodd" clip-rule="evenodd" d="M8 11C9.65685 11 11 9.65685 11 8C11 6.34315 9.65685 5 8 5C6.34315 5 5 6.34315 5 8C5 9.65685 6.34315 11 8 11ZM8 10C6.89543 10 6 9.10457 6 8C6 6.89543 6.89543 6 8 6C9.10457 6 10 6.89543 10 8C10 9.10457 9.10457 10 8 10Z" fill="#202020"/>
<path d="M14.5 8.5C14.7761 8.5 15 8.27614 15 8C15 7.72386 14.7761 7.5 14.5 7.5H13.5C13.2239 7.5 13 7.72386 13 8C13 8.27614 13.2239 8.5 13.5 8.5H14.5Z" fill="#202020"/>
<path d="M8 13C8.27614 13 8.5 13.2239 8.5 13.5V14.5C8.5 14.7761 8.27614 15 8 15C7.72386 15 7.5 14.7761 7.5 14.5V13.5C7.5 13.2239 7.72386 13 8 13Z" fill="#202020"/>
<path d="M3.14645 3.14651C3.34171 2.95125 3.65829 2.95125 3.85355 3.14651L4.85355 4.14651C5.04882 4.34177 5.04882 4.65835 4.85355 4.85361C4.65829 5.04888 4.34171 5.04888 4.14645 4.85361L3.14645 3.85361C2.95118 3.65835 2.95118 3.34177 3.14645 3.14651Z" fill="#202020"/>
<path d="M12.8536 3.14651C12.6583 2.95125 12.3417 2.95125 12.1464 3.14651L11.1464 4.14651C10.9512 4.34177 10.9512 4.65835 11.1464 4.85361C11.3417 5.04888 11.6583 5.04888 11.8536 4.85361L12.8536 3.85361C13.0488 3.65835 13.0488 3.34177 12.8536 3.14651Z" fill="#202020"/>
<path d="M12.1464 12.8536C12.3417 13.0489 12.6583 13.0489 12.8536 12.8536C13.0488 12.6584 13.0488 12.3418 12.8536 12.1465L11.8536 11.1465C11.6583 10.9512 11.3417 10.9512 11.1464 11.1465C10.9512 11.3418 10.9512 11.6584 11.1464 11.8536L12.1464 12.8536Z" fill="#202020"/>
<path d="M2.85003 15.85L4.85003 13.85C4.89747 13.8049 4.93524 13.7506 4.96106 13.6905C4.98687 13.6303 5.00018 13.5655 5.00018 13.5C5.00018 13.4346 4.98687 13.3698 4.96106 13.3096C4.93524 13.2494 4.89747 13.1951 4.85003 13.15C4.80491 13.1026 4.75062 13.0648 4.69045 13.039C4.63029 13.0132 4.5655 12.9999 4.50003 12.9999C4.43456 12.9999 4.36977 13.0132 4.3096 13.039C4.24944 13.0648 4.19515 13.1026 4.15003 13.15L3.00003 14.29L3.00003 9.50003C3.00003 9.36742 2.94735 9.24025 2.85358 9.14648C2.75981 9.05271 2.63264 9.00003 2.50003 9.00003C2.36742 9.00003 2.24024 9.05271 2.14647 9.14648C2.05271 9.24025 2.00003 9.36742 2.00003 9.50003L2.00003 14.29L0.850028 13.15C0.804911 13.1026 0.750619 13.0648 0.690452 13.039C0.630285 13.0132 0.565498 12.9999 0.500028 12.9999C0.434558 12.9999 0.369771 13.0132 0.309604 13.039C0.249437 13.0648 0.195146 13.1026 0.150028 13.15C0.102586 13.1951 0.0648118 13.2494 0.0390001 13.3096C0.0131884 13.3698 -0.000121876 13.4346 -0.000121874 13.5C-0.000121871 13.5655 0.0131884 13.6303 0.0390001 13.6905C0.0648119 13.7506 0.102586 13.8049 0.150028 13.85L2.15003 15.85C2.19515 15.8975 2.24944 15.9352 2.3096 15.9611C2.36977 15.9869 2.43456 16.0002 2.50003 16.0002C2.5655 16.0002 2.63029 15.9869 2.69045 15.9611C2.75062 15.9352 2.80491 15.8975 2.85003 15.85V15.85Z" fill="#006CBF"/>
</g>
<defs>
<clipPath id="clip0_7204_88670">
<rect width="16" height="16" fill="white"/>
</clipPath>
</defs>
</svg>
