<svg width="16" height="16" viewBox="0 0 16 16" fill="none" xmlns="http://www.w3.org/2000/svg">
<g clip-path="url(#clip0_7204_88778)">
<path d="M11.854 14.854L13.854 12.854C13.9006 12.8075 13.9375 12.7524 13.9627 12.6916C13.9879 12.6309 14.0009 12.5658 14.0009 12.5C14.0009 12.4342 13.9879 12.3691 13.9627 12.3084C13.9375 12.2476 13.9006 12.1924 13.854 12.146L11.854 10.146C11.7601 10.0521 11.6328 9.99936 11.5 9.99936C11.3672 9.99936 11.2399 10.0521 11.146 10.146C11.0521 10.2399 10.9994 10.3672 10.9994 10.5C10.9994 10.6328 11.0521 10.7601 11.146 10.854L12.293 12H7.11402L7.557 12.443C7.69781 12.5805 7.80958 12.745 7.88567 12.9266C7.89584 12.9508 7.90534 12.9753 7.91417 13H12.293L11.146 14.146C11.0995 14.1925 11.0626 14.2477 11.0375 14.3084C11.0123 14.3691 10.9994 14.4342 10.9994 14.5C10.9994 14.5657 11.0123 14.6308 11.0375 14.6916C11.0626 14.7523 11.0995 14.8075 11.146 14.854C11.1925 14.9005 11.2477 14.9374 11.3084 14.9625C11.3692 14.9877 11.4343 15.0006 11.5 15.0006C11.5657 15.0006 11.6308 14.9877 11.6916 14.9625C11.7523 14.9374 11.8075 14.9005 11.854 14.854Z" fill="#202020"/>
<path d="M3.00001 12H3.086C3.02982 11.8397 3.00076 11.6713 3.00001 11.5015V12Z" fill="#202020"/>
<path d="M3.00001 11.497C3.0006 11.2968 3.04164 11.0989 3.12066 10.915C3.20008 10.7303 3.31621 10.5635 3.462 10.425C3.59836 10.2891 3.7603 10.1815 3.93846 10.1086C3.95882 10.1002 3.97934 10.0924 4.00001 10.085V3.70699L5.14601 4.85399C5.23989 4.94788 5.36723 5.00063 5.50001 5.00063C5.63278 5.00063 5.76012 4.94788 5.85401 4.85399C5.94789 4.76011 6.00064 4.63277 6.00064 4.49999C6.00064 4.36722 5.94789 4.23988 5.85401 4.14599L3.85401 2.14599C3.80756 2.09943 3.75238 2.06249 3.69164 2.03728C3.63089 2.01207 3.56577 1.9991 3.50001 1.9991C3.43424 1.9991 3.36912 2.01207 3.30837 2.03728C3.24763 2.06249 3.19245 2.09943 3.14601 2.14599L1.14601 4.14599C1.05212 4.23988 0.999374 4.36722 0.999374 4.49999C0.999374 4.63277 1.05212 4.76011 1.14601 4.85399C1.23989 4.94788 1.36723 5.00063 1.50001 5.00063C1.63278 5.00063 1.76012 4.94788 1.85401 4.85399L3.00001 3.70699V11.497Z" fill="#202020"/>
<path d="M5.14477 10.1482L11.293 3.99999H9.67201C9.5394 3.99999 9.41222 3.94732 9.31845 3.85355C9.22468 3.75978 9.17201 3.6326 9.17201 3.49999C9.17201 3.36739 9.22468 3.24021 9.31845 3.14644C9.41222 3.05267 9.5394 2.99999 9.67201 2.99999H12.5C12.6326 2.99999 12.7598 3.05267 12.8536 3.14644C12.9473 3.24021 13 3.36739 13 3.49999V6.32899C13 6.4616 12.9473 6.58878 12.8536 6.68255C12.7598 6.77631 12.6326 6.82899 12.5 6.82899C12.3674 6.82899 12.2402 6.77631 12.1465 6.68255C12.0527 6.58878 12 6.4616 12 6.32899V4.70699L5.91051 10.7965L5.576 10.462C5.45213 10.3322 5.30602 10.226 5.14477 10.1482Z" fill="#202020"/>
<path d="M6.85 13.85L4.85 15.85C4.80488 15.8975 4.75059 15.9352 4.69042 15.9611C4.63026 15.9869 4.56547 16.0002 4.5 16.0002C4.43453 16.0002 4.36974 15.9869 4.30958 15.9611C4.24941 15.9352 4.19512 15.8975 4.15 15.85C4.10256 15.8049 4.06478 15.7506 4.03897 15.6905C4.01316 15.6303 3.99985 15.5655 3.99985 15.5C3.99985 15.4346 4.01316 15.3698 4.03897 15.3096C4.06478 15.2494 4.10256 15.1951 4.15 15.15L5.29 14H0.5C0.367392 14 0.240215 13.9473 0.146447 13.8536C0.0526784 13.7598 0 13.6326 0 13.5C0 13.3674 0.0526784 13.2402 0.146447 13.1465C0.240215 13.0527 0.367392 13 0.5 13H5.29L4.15 11.85C4.10256 11.8049 4.06478 11.7506 4.03897 11.6905C4.01316 11.6303 3.99985 11.5655 3.99985 11.5C3.99985 11.4346 4.01316 11.3698 4.03897 11.3096C4.06478 11.2494 4.10256 11.1951 4.15 11.15C4.19512 11.1026 4.24941 11.0648 4.30958 11.039C4.36974 11.0132 4.43453 10.9999 4.5 10.9999C4.56547 10.9999 4.63026 11.0132 4.69042 11.039C4.75059 11.0648 4.80488 11.1026 4.85 11.15L6.85 13.15C6.89744 13.1951 6.93522 13.2494 6.96103 13.3096C6.98684 13.3698 7.00015 13.4346 7.00015 13.5C7.00015 13.5655 6.98684 13.6303 6.96103 13.6905C6.93522 13.7506 6.89744 13.8049 6.85 13.85V13.85Z" fill="#006CBF"/>
</g>
<defs>
<clipPath id="clip0_7204_88778">
<rect width="16" height="16" fill="white"/>
</clipPath>
</defs>
</svg>
