<svg width="16" height="16" viewBox="0 0 16 16" fill="none" xmlns="http://www.w3.org/2000/svg">
<path fill-rule="evenodd" clip-rule="evenodd" d="M9.5 4C8.67157 4 8 4.67157 8 5.5V7H6V6C6 5.44772 5.55228 5 5 5H2C1.44772 5 1 5.44772 1 6V9C1 9.55228 1.44772 10 2 10H5C5.55228 10 6 9.55228 6 9V8H8V9.5C8 9.73495 8.05402 9.95728 8.15031 10.1553C8.31976 9.75399 8.62165 9.42342 9 9.22042V5.5C9 5.22386 9.22386 5 9.5 5H13.5C13.7761 5 14 5.22386 14 5.5V6.40271C14.4012 6.63535 14.7439 6.95828 15 7.34347V5.5C15 4.67157 14.3284 4 13.5 4H9.5ZM5 6H2V9H5V6Z" fill="#202020"/>
<path d="M10.5 9V10H9.875C9.392 10 9 10.403 9 10.9V15.1C9 15.597 9.392 16 9.875 16H15.125C15.608 16 16 15.597 16 15.1V10.9C16 10.403 15.608 10 15.125 10H14.5V9C14.5 7.895 13.605 7 12.5 7C11.395 7 10.5 7.895 10.5 9ZM12.5 8C13.052 8 13.5 8.448 13.5 9V10H11.5V9C11.5 8.448 11.948 8 12.5 8ZM12.5 13.75C12.086 13.75 11.75 13.414 11.75 13C11.75 12.586 12.086 12.25 12.5 12.25C12.914 12.25 13.25 12.586 13.25 13C13.25 13.414 12.914 13.75 12.5 13.75Z" fill="#202020"/>
</svg>
