<svg width="16" height="16" viewBox="0 0 16 16" fill="none" xmlns="http://www.w3.org/2000/svg">
<path fill-rule="evenodd" clip-rule="evenodd" d="M13 1H5.5C4.121 1 3 2.122 3 3.5V11H2C1.448 11 1 11.449 1 12V13C1 14.103 1.897 15 3 15H6.50117C6.28238 14.7092 6.12547 14.3693 6.05022 14H3C2.448 14 2 13.551 2 13V12H6.50117C6.89971 11.4703 7.50358 11.1035 8.19325 11.0187C8.13072 11.0064 8.06611 11 8 11H4V3.5C4 2.673 4.673 2 5.5 2H11.269C11.098 2.294 11 2.636 11 3V8.5C11 7.68363 11.3932 6.95767 12 6.5012V5H14C14.552 5 15 4.551 15 4V3C15 1.897 14.103 1 13 1ZM12 3C12 2.449 12.448 2 13 2C13.552 2 14 2.449 14 3V4H12V3Z" fill="#202020"/>
<path d="M14.5 11H14V9.908C14.581 9.701 15 9.151 15 8.5C15 7.673 14.327 7 13.5 7C12.673 7 12 7.673 12 8.5C12 9.151 12.419 9.701 13 9.908V11H12.5C11.673 11 11 11.673 11 12.5V13H9.908C9.701 12.419 9.151 12 8.5 12C7.673 12 7 12.673 7 13.5C7 14.327 7.673 15 8.5 15C9.151 15 9.701 14.581 9.908 14H11V14.5C11 15.327 11.673 16 12.5 16H14.5C15.327 16 16 15.327 16 14.5V12.5C16 11.673 15.327 11 14.5 11ZM13.5 8C13.776 8 14 8.225 14 8.5C14 8.775 13.776 9 13.5 9C13.224 9 13 8.775 13 8.5C13 8.225 13.224 8 13.5 8ZM8.5 14C8.224 14 8 13.775 8 13.5C8 13.225 8.224 13 8.5 13C8.776 13 9 13.225 9 13.5C9 13.775 8.776 14 8.5 14ZM15 14.5C15 14.775 14.776 15 14.5 15H12.5C12.224 15 12 14.775 12 14.5V12.5C12 12.225 12.224 12 12.5 12H14.5C14.776 12 15 12.225 15 12.5V14.5Z" fill="#202020"/>
</svg>
