<svg width="16" height="16" viewBox="0 0 16 16" fill="none" xmlns="http://www.w3.org/2000/svg">
<path d="M11.5 3H3.5C2.119 3 1 4.119 1 5.5V10.5C1 11.881 2.119 13 3.5 13H11.5C12.881 13 14 11.881 14 10.5V5.5C14 4.119 12.881 3 11.5 3ZM13 10.5C13 11.328 12.328 12 11.5 12H3.5C2.672 12 2 11.328 2 10.5V5.5C2 4.672 2.672 4 3.5 4H11.5C12.328 4 13 4.672 13 5.5V10.5ZM5 5C3.897 5 3 5.897 3 7V9C3 10.103 3.897 11 5 11C6.103 11 7 10.103 7 9V7C7 5.897 6.103 5 5 5ZM6 9C6 9.551 5.552 10 5 10C4.448 10 4 9.551 4 9V7C4 6.449 4.448 6 5 6C5.552 6 6 6.449 6 7V9ZM11.929 5.757L10.583 8L11.929 10.243C12.072 10.48 11.994 10.787 11.757 10.929C11.677 10.977 11.588 11 11.5 11C11.331 11 11.165 10.914 11.071 10.757L10 8.972L8.929 10.757C8.835 10.913 8.669 11 8.5 11C8.412 11 8.323 10.977 8.243 10.929C8.006 10.787 7.929 10.48 8.071 10.243L9.417 8L8.071 5.757C7.928 5.52 8.006 5.213 8.243 5.071C8.477 4.931 8.786 5.006 8.929 5.242L10 7.027L11.071 5.242C11.215 5.005 11.522 4.93 11.757 5.071C11.994 5.213 12.071 5.52 11.929 5.757Z" fill="#202020"/>
</svg>
