<svg width="16" height="16" viewBox="0 0 16 16" fill="none" xmlns="http://www.w3.org/2000/svg">
<g clip-path="url(#clip0_7204_88846)">
<path d="M9.705 5H11.5C11.776 5 12 5.224 12 5.5C12 5.776 11.776 6 11.5 6H9.707L10.975 7.268C11.17 7.463 11.17 7.78 10.975 7.975C10.877 8.072 10.749 8.121 10.621 8.121C10.493 8.121 10.365 8.073 10.267 7.975L8.999 6.707V8.5C8.999 8.776 8.775 9 8.499 9C8.223 9 7.999 8.776 7.999 8.5V6.707L6.731 7.975C6.633 8.072 6.505 8.121 6.377 8.121C6.249 8.121 6.121 8.073 6.023 7.975C5.828 7.78 5.828 7.463 6.023 7.268L7.291 6H5.498C5.222 6 4.998 5.776 4.998 5.5C4.998 5.224 5.222 5 5.498 5H7.291L6.023 3.732C5.828 3.537 5.828 3.22 6.023 3.025C6.218 2.83 6.535 2.83 6.73 3.025L7.998 4.293V2.5C7.998 2.224 8.222 2 8.498 2C8.774 2 8.998 2.224 8.998 2.5V4.293L10.266 3.025C10.461 2.83 10.778 2.83 10.973 3.025C11.168 3.22 11.168 3.537 10.973 3.732L9.705 5Z" fill="#202020"/>
<path d="M4 13C4.552 13 5 12.552 5 12C5 11.448 4.552 11 4 11C3.448 11 3 11.448 3 12C3 12.552 3.448 13 4 13Z" fill="#202020"/>
<path d="M10.5 16C10.4343 16.0001 10.3692 15.9873 10.3085 15.9623C10.2477 15.9372 10.1925 15.9004 10.146 15.854L7.64602 13.354C7.55213 13.2601 7.49939 13.1328 7.49939 13C7.49939 12.8672 7.55213 12.7399 7.64602 12.646C7.73991 12.5521 7.86725 12.4994 8.00002 12.4994C8.1328 12.4994 8.26013 12.5521 8.35402 12.646L10.5 14.793L15.146 10.146C15.2399 10.0521 15.3672 9.99939 15.5 9.99939C15.6328 9.99939 15.7601 10.0521 15.854 10.146C15.9479 10.2399 16.0007 10.3672 16.0007 10.5C16.0007 10.6328 15.9479 10.7601 15.854 10.854L10.854 15.854C10.8075 15.9004 10.7523 15.9372 10.6916 15.9623C10.6308 15.9873 10.5657 16.0001 10.5 16Z" fill="#11910D"/>
</g>
<defs>
<clipPath id="clip0_7204_88846">
<rect width="16" height="16" fill="white"/>
</clipPath>
</defs>
</svg>
