<svg width="16" height="16" viewBox="0 0 16 16" fill="none" xmlns="http://www.w3.org/2000/svg">
<g clip-path="url(#clip0_7204_88859)">
<path d="M10.0569 6.70307C10.1691 6.45073 10.0554 6.15525 9.80307 6.0431C9.55073 5.93094 9.25525 6.04459 9.14309 6.29693L5.14309 15.2969C5.03094 15.5493 5.14459 15.8448 5.39693 15.9569C5.64927 16.0691 5.94475 15.9554 6.05691 15.7031L10.0569 6.70307Z" fill="#202020"/>
<path d="M4.3737 9.08218C4.55716 8.87579 4.53857 8.55976 4.33218 8.3763C4.12579 8.19284 3.80975 8.21143 3.6263 8.41782L1.6263 10.6678C1.4579 10.8573 1.4579 11.1427 1.6263 11.3322L3.6263 13.5822C3.80975 13.7886 4.12579 13.8072 4.33218 13.6237C4.53857 13.4402 4.55716 13.1242 4.3737 12.9178L2.66898 11L4.3737 9.08218Z" fill="#202020"/>
<path d="M12.3737 8.41782C12.1902 8.21143 11.8742 8.19284 11.6678 8.3763C11.4614 8.55976 11.4428 8.87579 11.6263 9.08218L13.331 11L11.6263 12.9178C11.4428 13.1242 11.4614 13.4402 11.6678 13.6237C11.8742 13.8072 12.1902 13.7886 12.3737 13.5822L14.3737 11.3322C14.5421 11.1427 14.5421 10.8573 14.3737 10.6678L12.3737 8.41782Z" fill="#202020"/>
<path d="M6.5 2.99999H4.5C4.36739 2.99999 4.24021 2.94731 4.14645 2.85354C4.05268 2.75977 4 2.6326 4 2.49999C4 2.36738 4.05268 2.2402 4.14645 2.14644C4.24021 2.05267 4.36739 1.99999 4.5 1.99999H5.5C5.22862 1.63807 4.86412 1.35657 4.44536 1.18549C4.0266 1.0144 3.56927 0.960148 3.1221 1.0285C2.67493 1.09685 2.25469 1.28525 1.90616 1.57363C1.55763 1.862 1.29387 2.23953 1.143 2.66599C1.11351 2.74883 1.06271 2.82242 0.995698 2.87936C0.928691 2.93629 0.847854 2.97455 0.761342 2.99027C0.67483 3.00599 0.585703 2.99862 0.502949 2.9689C0.420196 2.93918 0.346743 2.88816 0.29 2.82099C0.214158 2.73119 0.172379 2.61753 0.172 2.49999C0.171277 2.4431 0.180761 2.38654 0.2 2.33299C0.397396 1.77193 0.734827 1.27059 1.1803 0.876501C1.62577 0.482411 2.16451 0.208633 2.74546 0.0811268C3.3264 -0.0463798 3.93028 -0.0233897 4.49984 0.147917C5.06941 0.319224 5.58578 0.63317 6 1.05999V0.499989C6 0.367381 6.05268 0.240204 6.14645 0.146436C6.24021 0.0526676 6.36739 -1.08097e-05 6.5 -1.08097e-05C6.63261 -1.08097e-05 6.75979 0.0526676 6.85355 0.146436C6.94732 0.240204 7 0.367381 7 0.499989V2.49999C7 2.6326 6.94732 2.75977 6.85355 2.85354C6.75979 2.94731 6.63261 2.99999 6.5 2.99999ZM1 6.49999V5.93999C1.41422 6.36681 1.93059 6.68075 2.50016 6.85206C3.06972 7.02337 3.6736 7.04636 4.25454 6.91885C4.83549 6.79134 5.37423 6.51757 5.8197 6.12348C6.26517 5.72939 6.6026 5.22805 6.8 4.66699C6.82522 4.60339 6.83746 4.53539 6.836 4.46699C6.83401 4.39976 6.81907 4.33356 6.792 4.27199C6.76432 4.21039 6.72414 4.15522 6.674 4.10999C6.62424 4.06559 6.5661 4.03158 6.503 4.00999C6.43876 3.98791 6.37079 3.97874 6.303 3.98299C6.23582 3.98716 6.17018 4.00484 6.11 4.03499C6.05005 4.06564 5.99671 4.10777 5.953 4.15899C5.90802 4.21022 5.87399 4.27012 5.853 4.33499C5.7016 4.76048 5.43776 5.13701 5.08952 5.42458C4.74129 5.71215 4.32165 5.90001 3.87521 5.96821C3.42876 6.03642 2.97218 5.98241 2.55397 5.81193C2.13576 5.64145 1.77154 5.36087 1.5 4.99999H2.5C2.63261 4.99999 2.75979 4.94731 2.85355 4.85354C2.94732 4.75977 3 4.6326 3 4.49999C3 4.36738 2.94732 4.2402 2.85355 4.14644C2.75979 4.05267 2.63261 3.99999 2.5 3.99999H0.5C0.367392 3.99999 0.240215 4.05267 0.146447 4.14644C0.0526784 4.2402 0 4.36738 0 4.49999V6.49999C0 6.6326 0.0526784 6.75977 0.146447 6.85354C0.240215 6.94731 0.367392 6.99999 0.5 6.99999C0.632608 6.99999 0.759785 6.94731 0.853553 6.85354C0.947322 6.75977 1 6.6326 1 6.49999Z" fill="#006CBF"/>
</g>
<defs>
<clipPath id="clip0_7204_88859">
<rect width="16" height="16" fill="white"/>
</clipPath>
</defs>
</svg>
