<svg width="16" height="16" viewBox="0 0 16 16" fill="none" xmlns="http://www.w3.org/2000/svg">
<path d="M8.5 8.27494V11.5C8.5 12.3284 7.82843 13 7 13H3.5C3.22386 13 3 12.7761 3 12.5V9.79297C2.65136 9.69436 2.31679 9.56223 2 9.40029L2 12.5C2 13.3284 2.67157 14 3.5 14H7C7.8178 14 8.54389 13.6073 9 13.0002C9.45612 13.6073 10.1822 14 11 14H14.5C15.3284 14 16 13.3284 16 12.5V3.5C16 2.67157 15.3284 2 14.5 2H11C10.4801 2 9.99726 2.15871 9.59729 2.43031C9.73274 2.76356 9.83645 3.11309 9.90469 3.47515C10.1784 3.18274 10.5679 3 11 3H14.5C14.7761 3 15 3.22386 15 3.5V12.5C15 12.7761 14.7761 13 14.5 13H11C10.1716 13 9.5 12.3284 9.5 11.5V6.79449C9.24813 7.34243 8.90885 7.84187 8.5 8.27494Z" fill="#202020"/>
<path fill-rule="evenodd" clip-rule="evenodd" d="M1.99994 0.758387C2.73996 0.26392 3.60999 0 4.5 0C5.69348 0 6.83807 0.474106 7.68198 1.31802C8.5259 2.16193 9 3.30653 9 4.5C9 5.39002 8.73608 6.26004 8.24162 7.00007C7.74715 7.74009 7.04434 8.31686 6.22208 8.65746C5.39981 8.99805 4.49501 9.08717 3.6221 8.91353C2.74918 8.7399 1.94736 8.31132 1.31802 7.68198C0.688685 7.05264 0.260102 6.25082 0.0864683 5.37791C-0.0871652 4.50499 0.00194976 3.60019 0.342544 2.77792C0.683138 1.95566 1.25991 1.25285 1.99994 0.758387ZM2.5 5H6.5C6.63261 5 6.75979 4.94732 6.85355 4.85355C6.94732 4.75979 7 4.63261 7 4.5C7 4.36739 6.94732 4.24021 6.85355 4.14645C6.75979 4.05268 6.63261 4 6.5 4H2.5C2.36739 4 2.24021 4.05268 2.14645 4.14645C2.05268 4.24021 2 4.36739 2 4.5C2 4.63261 2.05268 4.75979 2.14645 4.85355C2.24021 4.94732 2.36739 5 2.5 5Z" fill="#C50F1F"/>
</svg>
