<svg width="16" height="16" viewBox="0 0 16 16" fill="none" xmlns="http://www.w3.org/2000/svg">
<path d="M8 14C4.691 14 2 11.309 2 8C2 4.691 4.691 2 8 2C11.309 2 14 4.691 14 8C14 11.309 11.309 14 8 14ZM8 3C5.243 3 3 5.243 3 8C3 10.757 5.243 13 8 13C10.757 13 13 10.757 13 8C13 5.243 10.757 3 8 3ZM6.104 11.104L7.854 9.354C8.049 9.159 8.049 8.842 7.854 8.647L6.104 6.897C5.909 6.702 5.592 6.702 5.397 6.897C5.202 7.092 5.202 7.409 5.397 7.604L6.793 9L5.397 10.396C5.202 10.591 5.202 10.908 5.397 11.103C5.495 11.201 5.623 11.249 5.751 11.249C5.879 11.249 6.007 11.2 6.105 11.103L6.104 11.104ZM10.604 9.104C10.799 8.909 10.799 8.592 10.604 8.397L9.208 7.001L10.604 5.605C10.799 5.41 10.799 5.093 10.604 4.898C10.409 4.703 10.092 4.703 9.897 4.898L8.147 6.648C7.952 6.843 7.952 7.16 8.147 7.355L9.897 9.105C9.995 9.203 10.123 9.251 10.251 9.251C10.379 9.251 10.507 9.202 10.605 9.105L10.604 9.104Z" fill="#5C2E91"/>
</svg>
