<svg width="16" height="16" viewBox="0 0 16 16" fill="none" xmlns="http://www.w3.org/2000/svg">
<g clip-path="url(#clip0_7204_88994)">
<path d="M5.99999 3H3.95699L3.10299 2.146C3.00899 2.052 2.88199 2 2.74899 2H0.998993C0.446993 2 -0.00100708 2.449 -0.00100708 3V7C-0.00100708 7.551 0.446993 8 0.998993 8H5.99899C6.55099 8 6.99899 7.551 6.99899 7V4C6.99899 3.449 6.55199 3 5.99999 3ZM5.99999 4V7H0.999993V3H2.54299L3.39699 3.854C3.49099 3.948 3.61799 4 3.75099 4H5.99999ZM15 3H12.957L12.103 2.146C12.009 2.052 11.882 2 11.749 2H9.99899C9.44699 2 8.99899 2.449 8.99899 3V7C8.99899 7.551 9.44699 8 9.99899 8H14.999C15.551 8 15.999 7.551 15.999 7V4C15.999 3.449 15.551 3 14.999 3H15ZM15 4V7H9.99999V3H11.543L12.397 3.854C12.491 3.948 12.618 4 12.751 4H15.001H15Z" fill="#B27C00"/>
<path d="M15.354 10.6458L13.854 9.14576C13.659 8.95076 13.342 8.95076 13.147 9.14576L11.647 10.6458C11.452 10.8408 11.452 11.1578 11.647 11.3528C11.842 11.5478 12.159 11.5478 12.354 11.3528L13 10.7068V13.9998H10.5C10.393 13.9998 10.3 14.0408 10.219 14.0978L10.561 14.4398C10.721 14.5998 10.836 14.7928 10.909 15.0008H13C13.552 15.0008 14 14.5518 14 14.0008V10.7078L14.646 11.3538C14.744 11.4518 14.872 11.4998 15 11.4998C15.128 11.4998 15.256 11.4508 15.354 11.3538C15.549 11.1588 15.549 10.8418 15.354 10.6468V10.6458ZM3.00001 13.9998V10.7068L3.64601 11.3528C3.74401 11.4508 3.87201 11.4988 4.00001 11.4988C4.12801 11.4988 4.25601 11.4498 4.35401 11.3528C4.54901 11.1578 4.54901 10.8408 4.35401 10.6458L2.85401 9.14576C2.65901 8.95076 2.34201 8.95076 2.14701 9.14576L0.647013 10.6458C0.452013 10.8408 0.452013 11.1578 0.647013 11.3528C0.842013 11.5478 1.15901 11.5478 1.35401 11.3528L2.00001 10.7068V13.9998C2.00001 14.5508 2.44801 14.9998 3.00001 14.9998H5.09101C5.16501 14.7918 5.27901 14.5998 5.43901 14.4388L5.78101 14.0968C5.70001 14.0398 5.60601 13.9988 5.50001 13.9988H3.00001V13.9998Z" fill="#006CBF"/>
<path d="M8.70701 14.0002L9.85301 12.8542C10.048 12.6592 10.048 12.3422 9.85301 12.1472C9.65801 11.9522 9.34101 11.9522 9.14601 12.1472L8.00001 13.2932L6.85401 12.1472C6.65901 11.9522 6.34201 11.9522 6.14701 12.1472C5.95201 12.3422 5.95201 12.6592 6.14701 12.8542L7.29301 14.0002L6.14701 15.1462C5.95201 15.3412 5.95201 15.6582 6.14701 15.8532C6.24501 15.9512 6.37301 15.9992 6.50101 15.9992C6.62901 15.9992 6.75701 15.9502 6.85501 15.8532L8.00101 14.7072L9.14701 15.8532C9.24501 15.9512 9.37301 15.9992 9.50101 15.9992C9.62901 15.9992 9.75701 15.9502 9.85501 15.8532C10.05 15.6582 10.05 15.3412 9.85501 15.1462L8.70901 14.0002H8.70701Z" fill="#C50F1F"/>
</g>
<defs>
<clipPath id="clip0_7204_88994">
<rect width="16" height="16" fill="white"/>
</clipPath>
</defs>
</svg>
