<svg width="16" height="16" viewBox="0 0 16 16" fill="none" xmlns="http://www.w3.org/2000/svg">
<g clip-path="url(#clip0_7204_88932)">
<path d="M14.816 4.94499L14.467 4.86199C13.348 4.59699 12.682 3.44499 13.011 2.34299L13.137 1.92099C12.88 1.71799 12.6 1.54299 12.302 1.40299L11.977 1.74699C11.187 2.58299 9.856 2.58299 9.067 1.74499L8.73 1.38699C8.438 1.52199 8.162 1.68899 7.908 1.88399L8.064 2.44099C8.367 3.52199 7.721 4.64099 6.633 4.91899L6.172 5.03699C6.157 5.18899 6.149 5.34299 6.149 5.49899C6.149 5.68699 6.16 5.87199 6.182 6.05299L6.532 6.13599C7.651 6.40099 8.317 7.55299 7.988 8.65499L7.862 9.07799C8.066 9.23913 8.28448 9.38262 8.51496 9.50497L9.71351 7.10787C9.83785 6.85839 10.0125 6.6386 10.2253 6.46175C9.80674 6.34229 9.5 5.95675 9.5 5.49999C9.5 4.94799 9.948 4.49999 10.5 4.49999C11.052 4.49999 11.5 4.94799 11.5 5.49999C11.5 5.68414 11.4501 5.8567 11.3632 6.00493C11.4098 6.00165 11.4566 6 11.5035 6C11.8754 6 12.2399 6.10367 12.5561 6.29937C12.8112 6.4573 13.0268 6.67012 13.1877 6.9213C13.4515 6.51801 13.8612 6.20798 14.366 6.07899L14.827 5.96099C14.842 5.80899 14.85 5.65499 14.85 5.49899C14.85 5.31099 14.839 5.12599 14.817 4.94399L14.816 4.94499Z" fill="#202020"/>
<path fill-rule="evenodd" clip-rule="evenodd" d="M6.76744 13L6.26744 14H6C6 14.552 5.551 15 5 15H4C3.449 15 3 14.552 3 14H1.5C1.224 14 1 13.776 1 13.5C1 13.224 1.224 13 1.5 13H3C3 12.448 3.449 12 4 12V10.5C4 10.224 4.224 10 4.5 10C4.776 10 5 10.224 5 10.5V12C5.551 12 6 12.448 6 13H6.76744ZM5 14H4V13H5V14Z" fill="#202020"/>
<path d="M1.5 3H5.5C5.776 3 6 2.776 6 2.5C6 2.224 5.776 2 5.5 2H1.5C1.224 2 1 2.224 1 2.5C1 2.776 1.224 3 1.5 3Z" fill="#202020"/>
<path d="M1.5 9H5.5C5.776 9 6 8.776 6 8.5C6 8.224 5.776 8 5.5 8H1.5C1.224 8 1 8.224 1 8.5C1 8.776 1.224 9 1.5 9Z" fill="#202020"/>
<path d="M1.5 6H4.5C4.776 6 5 5.776 5 5.5C5 5.224 4.776 5 4.5 5H1.5C1.224 5 1 5.224 1 5.5C1 5.776 1.224 6 1.5 6Z" fill="#202020"/>
<path fill-rule="evenodd" clip-rule="evenodd" d="M12.3931 7.55201L15.8931 14.552C15.9694 14.7044 16.0056 14.8738 15.9981 15.044C15.9906 15.2143 15.9397 15.3799 15.8502 15.5249C15.7607 15.67 15.6357 15.7898 15.4869 15.8729C15.3381 15.9561 15.1705 15.9998 15.0001 16H8.00006C7.8292 16.0007 7.66101 15.9576 7.51154 15.8748C7.36207 15.792 7.23631 15.6723 7.14625 15.5271C7.0562 15.3818 7.00486 15.216 6.99712 15.0453C6.98938 14.8746 7.02551 14.7048 7.10206 14.552L10.6021 7.55201C10.6849 7.38534 10.8126 7.24509 10.9708 7.14705C11.129 7.04901 11.3114 6.99707 11.4976 6.99707C11.6837 6.99707 11.8661 7.04901 12.0243 7.14705C12.1825 7.24509 12.3102 7.38534 12.3931 7.55201ZM12 12.495V9.495C12 9.36239 11.9473 9.23521 11.8536 9.14144C11.7598 9.04767 11.6326 8.995 11.5 8.995C11.3674 8.995 11.2402 9.04767 11.1464 9.14144C11.0527 9.23521 11 9.36239 11 9.495V12.495C11 12.6276 11.0527 12.7548 11.1464 12.8485C11.2402 12.9423 11.3674 12.995 11.5 12.995C11.6326 12.995 11.7598 12.9423 11.8536 12.8485C11.9473 12.7548 12 12.6276 12 12.495ZM11.2222 14.0843C11.3044 14.0293 11.4011 14 11.5 14C11.6326 14 11.7598 14.0527 11.8536 14.1464C11.9473 14.2402 12 14.3674 12 14.5C12 14.5989 11.9707 14.6956 11.9157 14.7778C11.8608 14.86 11.7827 14.9241 11.6913 14.9619C11.6 14.9998 11.4994 15.0097 11.4025 14.9904C11.3055 14.9711 11.2164 14.9235 11.1464 14.8535C11.0765 14.7836 11.0289 14.6945 11.0096 14.5975C10.9903 14.5006 11.0002 14.4 11.0381 14.3087C11.0759 14.2173 11.14 14.1392 11.2222 14.0843Z" fill="#B27C00"/>
</g>
<defs>
<clipPath id="clip0_7204_88932">
<rect width="16" height="16" fill="white"/>
</clipPath>
</defs>
</svg>
