<svg width="16" height="16" viewBox="0 0 16 16" fill="none" xmlns="http://www.w3.org/2000/svg">
<path fill-rule="evenodd" clip-rule="evenodd" d="M3.5 2C2.11929 2 1 3.11929 1 4.5V11.5C1 12.8807 2.11929 14 3.5 14H6.59971C6.43777 13.6832 6.30564 13.3486 6.20703 13H3.5C2.67157 13 2 12.3284 2 11.5V7H5.58579C5.98361 7 6.36514 6.84197 6.64645 6.56066L8.20711 5H12.5C13.3284 5 14 5.67157 14 6.5V6.59971C14.3578 6.78261 14.6929 7.00353 15 7.25716V6.5C15 5.11929 13.8807 4 12.5 4H8.20711L6.64645 2.43934C6.36514 2.15804 5.98361 2 5.58579 2H3.5ZM2 6V4.5C2 3.67157 2.67157 3 3.5 3H5.58579C5.71839 3 5.84557 3.05268 5.93934 3.14645L7.29289 4.5L5.93934 5.85355C5.84557 5.94732 5.71839 6 5.58579 6H2Z" fill="#B27C00"/>
<path fill-rule="evenodd" clip-rule="evenodd" d="M16 11.5C16 13.9853 13.9853 16 11.5 16C9.01472 16 7 13.9853 7 11.5C7 9.01472 9.01472 7 11.5 7C13.9853 7 16 9.01472 16 11.5ZM11.4626 12.3084C11.4374 12.2476 11.4005 12.1925 11.3539 12.146L9.8539 10.646C9.76001 10.5521 9.63268 10.4994 9.4999 10.4994C9.36712 10.4994 9.23979 10.5521 9.1459 10.646C9.05201 10.7399 8.99927 10.8672 8.99927 11C8.99927 11.1328 9.05201 11.2601 9.1459 11.354L10.2929 12.5L9.1459 13.646C9.05201 13.7399 8.99927 13.8672 8.99927 14C8.99927 14.1328 9.05201 14.2601 9.1459 14.354C9.23979 14.4479 9.36712 14.5007 9.4999 14.5007C9.63268 14.5007 9.76001 14.4479 9.8539 14.354L11.3539 12.854C11.4005 12.8076 11.4374 12.7524 11.4626 12.6917C11.4878 12.6309 11.5008 12.5658 11.5008 12.5C11.5008 12.4343 11.4878 12.3691 11.4626 12.3084ZM13.8539 9.35402L12.7069 10.5L13.8539 11.646C13.9478 11.7399 14.0005 11.8672 14.0005 12C14.0005 12.1328 13.9478 12.2601 13.8539 12.354C13.76 12.4479 13.6327 12.5007 13.4999 12.5007C13.3671 12.5007 13.2398 12.4479 13.1459 12.354L11.6459 10.854C11.5993 10.8076 11.5624 10.7524 11.5372 10.6917C11.512 10.6309 11.499 10.5658 11.499 10.5C11.499 10.4343 11.512 10.3691 11.5372 10.3084C11.5624 10.2476 11.5993 10.1925 11.6459 10.146L13.1459 8.64602C13.2398 8.55213 13.3671 8.49939 13.4999 8.49939C13.6327 8.49939 13.76 8.55213 13.8539 8.64602C13.9478 8.73991 14.0005 8.86725 14.0005 9.00002C14.0005 9.1328 13.9478 9.26013 13.8539 9.35402Z" fill="#006CBF"/>
</svg>
