<svg width="16" height="16" viewBox="0 0 16 16" fill="none" xmlns="http://www.w3.org/2000/svg">
<path d="M3.9995 6.28143C3.9979 6.2157 4.00928 6.15031 4.03298 6.08899C4.05637 6.02744 4.09169 5.97112 4.1369 5.92326C4.18211 5.8754 4.23634 5.83694 4.29645 5.81008C4.35657 5.78323 4.42139 5.76852 4.48721 5.76678C4.55303 5.76505 4.61854 5.77634 4.67999 5.79999L8.99998 7.46399L11.32 6.57199C11.3812 6.54835 11.4466 6.53701 11.5122 6.53861C11.5779 6.54022 11.6425 6.55474 11.7026 6.58134C11.7626 6.60795 11.8168 6.64611 11.8621 6.69367C11.9074 6.74122 11.9428 6.79722 11.9665 6.85849C11.9901 6.91975 12.0015 6.98507 11.9999 7.05071C11.9983 7.11635 11.9837 7.18104 11.9571 7.24107C11.9305 7.30111 11.8924 7.35531 11.8448 7.40059C11.7973 7.44588 11.7412 7.48135 11.68 7.50499L9.49998 8.34299V10.02C9.49998 10.1526 9.44731 10.2798 9.35354 10.3735C9.25977 10.4673 9.13259 10.52 8.99998 10.52C8.86738 10.52 8.7402 10.4673 8.64643 10.3735C8.55266 10.2798 8.49998 10.1526 8.49998 10.02V8.34399L4.31998 6.73599C4.25862 6.7124 4.2025 6.67695 4.15485 6.63165C4.10721 6.58635 4.06896 6.5321 4.0423 6.47201C4.01564 6.41191 4.0011 6.34715 3.9995 6.28143Z" fill="#006CBF"/>
<path d="M0.999985 8.08579V5.79999C1.00178 5.49766 1.09422 5.20283 1.26536 4.95361C1.4365 4.70438 1.67847 4.51223 1.95998 4.40199L6.45998 2.67099C6.80701 2.53798 7.19096 2.53798 7.53798 2.67099L14.038 5.17099C14.3202 5.28104 14.5628 5.47336 14.7343 5.72301C14.9059 5.97265 14.9984 6.26809 15 6.57099V10.2C14.9986 10.5028 14.9063 10.7982 14.7349 11.0479C14.5636 11.2975 14.3211 11.4899 14.039 11.6L9.53998 13.329C9.19307 13.4626 8.8089 13.4626 8.46198 13.329L4.99998 11.9974V11H5.18722L8.82198 12.398C8.93723 12.4422 9.06474 12.4422 9.17999 12.398L13.68 10.666C13.7741 10.6297 13.855 10.5657 13.9122 10.4825C13.9693 10.3994 13.9999 10.3009 14 10.2V6.57099C14.0002 6.46964 13.9696 6.37061 13.9123 6.28703C13.855 6.20345 13.7736 6.13927 13.679 6.10299L7.17898 3.60299C7.06396 3.55763 6.93601 3.55763 6.82098 3.60299L2.32098 5.33299C2.22651 5.36921 2.14525 5.43324 2.08794 5.51662C2.03063 5.6 1.99996 5.69881 1.99998 5.79999V8H1.49998C1.32801 8 1.15909 8.02953 0.999985 8.08579Z" fill="#006CBF"/>
<path d="M0.999985 15.5C0.999985 15.6326 1.05266 15.7598 1.14643 15.8536C1.2402 15.9473 1.36738 16 1.49998 16H5.49998C5.63259 16 5.75977 15.9473 5.85354 15.8536C5.94731 15.7598 5.99998 15.6326 5.99998 15.5C5.99998 15.3674 5.94731 15.2402 5.85354 15.1464C5.75977 15.0527 5.63259 15 5.49998 15H3.99998V10H5.49998C5.63259 10 5.75977 9.94732 5.85354 9.85355C5.94731 9.75979 5.99998 9.63261 5.99998 9.5C5.99998 9.36739 5.94731 9.24021 5.85354 9.14645C5.75977 9.05268 5.63259 9 5.49998 9H1.49998C1.36738 9 1.2402 9.05268 1.14643 9.14645C1.05266 9.24021 0.999985 9.36739 0.999985 9.5C0.999985 9.63261 1.05266 9.75979 1.14643 9.85355C1.2402 9.94732 1.36738 10 1.49998 10H2.99998V15H1.49998C1.36738 15 1.2402 15.0527 1.14643 15.1464C1.05266 15.2402 0.999985 15.3674 0.999985 15.5Z" fill="#202020"/>
</svg>
