<svg width="16" height="16" viewBox="0 0 16 16" fill="none" xmlns="http://www.w3.org/2000/svg">
<path d="M4.69684 5.04043C4.44303 4.93166 4.14909 5.04923 4.04031 5.30305C3.93153 5.55686 4.04911 5.8508 4.30292 5.95958L7.49988 7.3297V10.5C7.49988 10.7761 7.72374 11 7.99988 11C8.27603 11 8.49988 10.7761 8.49988 10.5V7.3297L11.6968 5.95958C11.9507 5.8508 12.0682 5.55686 11.9595 5.30305C11.8507 5.04923 11.5567 4.93166 11.3029 5.04043L7.99988 6.45602L4.69684 5.04043Z" fill="#5C2E91"/>
<path d="M9.07694 1.37855C8.38373 1.11193 7.61627 1.11193 6.92306 1.37855L1.96153 3.28683C1.38224 3.50964 1 4.06619 1 4.68685V11.3133C1 11.9339 1.38224 12.4905 1.96153 12.7133L6.92306 14.6216C7.61627 14.8882 8.38373 14.8882 9.07694 14.6216L9.37624 14.5064C9.39652 14.4835 9.41756 14.4611 9.43934 14.4393C9.72064 14.158 10.1022 14 10.5 14H10.693L11 13.8819V12.8105L8.71796 13.6882C8.25582 13.866 7.74418 13.866 7.28204 13.6882L2.32051 11.7799C2.12741 11.7057 2 11.5201 2 11.3133V4.68685C2 4.47997 2.12741 4.29445 2.32051 4.22018L7.28204 2.3119C7.74418 2.13415 8.25582 2.13415 8.71796 2.3119L13.6795 4.22018C13.8726 4.29445 14 4.47997 14 4.68685V8H14.5C14.672 8 14.8409 8.02953 15 8.08579V4.68685C15 4.06619 14.6178 3.50964 14.0385 3.28683L9.07694 1.37855Z" fill="#5C2E91"/>
<path d="M15 15.5C15 15.6326 14.9473 15.7598 14.8536 15.8536C14.7598 15.9473 14.6326 16 14.5 16H10.5C10.3674 16 10.2402 15.9473 10.1464 15.8536C10.0527 15.7598 10 15.6326 10 15.5C10 15.3674 10.0527 15.2402 10.1464 15.1464C10.2402 15.0527 10.3674 15 10.5 15H12V10H10.5C10.3674 10 10.2402 9.94732 10.1464 9.85355C10.0527 9.75979 10 9.63261 10 9.5C10 9.36739 10.0527 9.24021 10.1464 9.14645C10.2402 9.05268 10.3674 9 10.5 9H14.5C14.6326 9 14.7598 9.05268 14.8536 9.14645C14.9473 9.24021 15 9.36739 15 9.5C15 9.63261 14.9473 9.75979 14.8536 9.85355C14.7598 9.94732 14.6326 10 14.5 10H13V15H14.5C14.6326 15 14.7598 15.0527 14.8536 15.1464C14.9473 15.2402 15 15.3674 15 15.5Z" fill="#202020"/>
</svg>
