<svg width="16" height="16" viewBox="0 0 16 16" fill="none" xmlns="http://www.w3.org/2000/svg">
<path fill-rule="evenodd" clip-rule="evenodd" d="M10.9999 1C8.79074 1 6.99988 2.79086 6.99988 5C6.99988 5.31279 7.03588 5.61771 7.10411 5.91061L2.05327 11.1453C1.24088 11.9872 1.32876 13.3455 2.24288 14.0757C3.03692 14.7101 4.18171 14.6425 4.89566 13.9192L9.01956 9.74147C9.00662 9.66214 9 9.58141 9 9.5C9 9.10218 9.15804 8.72064 9.43934 8.43934C9.72064 8.15804 10.1022 8 10.5 8H10.9999H13.6457C14.4761 7.26706 14.9999 6.19469 14.9999 5C14.9999 4.49138 14.9047 4.0038 14.7307 3.55493C14.6697 3.39732 14.5331 3.28125 14.3677 3.24637C14.2023 3.2115 14.0305 3.26254 13.911 3.38207L12.0001 5.29302L10.7072 4.00012L12.6182 2.08904C12.7377 1.96953 12.7888 1.79773 12.7539 1.63235C12.719 1.46698 12.603 1.3304 12.4454 1.26931C11.9964 1.09524 11.5087 1 10.9999 1ZM10.9999 8C12.6567 8 13.9999 6.65685 13.9999 5C13.9999 4.9056 13.9955 4.81228 13.987 4.72023L12.3537 6.35368C12.2599 6.44745 12.1327 6.50013 12.0001 6.50013C11.8675 6.50013 11.7403 6.44745 11.6466 6.35368L9.64655 4.35368C9.45129 4.15842 9.45129 3.84185 9.64654 3.64658L11.2802 2.01289C11.188 2.00436 11.0945 2 10.9999 2C9.34303 2 7.99988 3.34315 7.99988 5C7.99988 5.31548 8.04841 5.61868 8.13804 5.90305C8.19312 6.07781 8.14821 6.26869 8.02098 6.40054L2.7729 11.8396C2.36959 12.2576 2.41322 12.9319 2.86703 13.2944C3.26122 13.6093 3.82954 13.5758 4.18398 13.2167L9.40817 7.9243C9.54701 7.78364 9.75568 7.73797 9.94059 7.80777C10.2693 7.93186 10.6261 8 10.9999 8Z" fill="#202020"/>
<path d="M15 15.5C15 15.6326 14.9473 15.7598 14.8536 15.8536C14.7598 15.9473 14.6326 16 14.5 16H10.5C10.3674 16 10.2402 15.9473 10.1464 15.8536C10.0527 15.7598 10 15.6326 10 15.5C10 15.3674 10.0527 15.2402 10.1464 15.1464C10.2402 15.0527 10.3674 15 10.5 15H12V10H10.5C10.3674 10 10.2402 9.94732 10.1464 9.85355C10.0527 9.75979 10 9.63261 10 9.5C10 9.36739 10.0527 9.24021 10.1464 9.14645C10.2402 9.05268 10.3674 9 10.5 9H14.5C14.6326 9 14.7598 9.05268 14.8536 9.14645C14.9473 9.24021 15 9.36739 15 9.5C15 9.63261 14.9473 9.75979 14.8536 9.85355C14.7598 9.94732 14.6326 10 14.5 10H13V15H14.5C14.6326 15 14.7598 15.0527 14.8536 15.1464C14.9473 15.2402 15 15.3674 15 15.5Z" fill="#202020"/>
</svg>
