<svg width="16" height="16" viewBox="0 0 16 16" fill="none" xmlns="http://www.w3.org/2000/svg">
<path d="M4 9.5V10.5C4 10.776 3.776 11 3.5 11C3.224 11 3 10.776 3 10.5V9.5C3 9.224 3.224 9 3.5 9C3.776 9 4 9.224 4 9.5ZM4.5 6C4.224 6 4 6.224 4 6.5V8.5C4 8.776 4.224 9 4.5 9C4.776 9 5 8.776 5 8.5V6.5C5 6.224 4.776 6 4.5 6ZM7.5 4C7.224 4 7 4.224 7 4.5V6.5C7 6.776 7.224 7 7.5 7C7.776 7 8 6.776 8 6.5V4.5C8 4.224 7.776 4 7.5 4ZM6.5 7C6.224 7 6 7.224 6 7.5V8.5C6 8.776 6.224 9 6.5 9C6.776 9 7 8.776 7 8.5V7.5C7 7.224 6.776 7 6.5 7ZM10.5 6C10.224 6 10 6.224 10 6.5V8.5C10 8.776 10.224 9 10.5 9C10.776 9 11 8.776 11 8.5V6.5C11 6.224 10.776 6 10.5 6ZM12.5 7C12.224 7 12 7.224 12 7.5V8.5C12 8.776 12.224 9 12.5 9C12.776 9 13 8.776 13 8.5V7.5C13 7.224 12.776 7 12.5 7ZM13.5 4C13.224 4 13 4.224 13 4.5V6.5C13 6.776 13.224 7 13.5 7C13.776 7 14 6.776 14 6.5V4.5C14 4.224 13.776 4 13.5 4Z" fill="#3487C7"/>
<path d="M15 14.5C15 14.776 14.776 15 14.5 15H1.5C1.224 15 1 14.776 1 14.5V1.5C1 1.224 1.224 1 1.5 1C1.776 1 2 1.224 2 1.5V14H14.5C14.776 14 15 14.224 15 14.5ZM11.5 11C11.776 11 12 10.776 12 10.5V9.5C12 9.224 11.776 9 11.5 9C11.224 9 11 9.224 11 9.5V10.5C11 10.776 11.224 11 11.5 11ZM8.5 11C8.776 11 9 10.776 9 10.5V7.5C9 7.224 8.776 7 8.5 7C8.224 7 8 7.224 8 7.5V10.5C8 10.776 8.224 11 8.5 11ZM5.5 11C5.776 11 6 10.776 6 10.5V9.5C6 9.224 5.776 9 5.5 9C5.224 9 5 9.224 5 9.5V10.5C5 10.776 5.224 11 5.5 11Z" fill="#202020"/>
</svg>
