<svg width="16" height="16" viewBox="0 0 16 16" fill="none" xmlns="http://www.w3.org/2000/svg">
<path d="M3 8C3 5.239 5.239 3 8 3C9.635 3 11.087 3.784 12 4.999H9.5C9.224 4.999 9 5.223 9 5.5C9 5.777 9.224 6 9.5 6H12.5C12.776 6 13 5.776 13 5.5V4.843C13 4.843 13 4.834 13 4.83V2.5C13 2.224 12.776 2 12.5 2C12.224 2 12 2.224 12 2.5V3.528C10.939 2.578 9.537 2 8 2C4.686 2 2 4.686 2 8C2 11.314 4.686 14 8 14C11.314 14 14 11.314 14 8C14 7.724 13.776 7.5 13.5 7.5C13.224 7.5 13 7.724 13 8C13 10.761 10.761 13 8 13C5.239 13 3 10.761 3 8Z" fill="#202020"/>
<path fill-rule="evenodd" clip-rule="evenodd" d="M9.713 8.43701L6.743 10.087C6.667 10.129 6.581 10.151 6.494 10.15C6.407 10.149 6.322 10.125 6.247 10.081C6.172 10.037 6.11 9.97401 6.066 9.89801C6.023 9.82201 6 9.73701 6 9.65001V6.35001C6 6.26301 6.023 6.17701 6.066 6.10201C6.109 6.02601 6.171 5.96301 6.247 5.91901C6.322 5.87501 6.407 5.85101 6.494 5.85001C6.581 5.84901 6.667 5.87101 6.743 5.91301L9.713 7.56301C9.791 7.60601 9.856 7.67001 9.901 7.74601C9.946 7.82301 9.97 7.91001 9.97 7.99901C9.97 8.08801 9.946 8.17601 9.901 8.25201C9.856 8.32901 9.791 8.39201 9.713 8.43601V8.43701Z" fill="#11910D"/>
</svg>
