<svg width="16" height="16" viewBox="0 0 16 16" fill="none" xmlns="http://www.w3.org/2000/svg">
<path d="M14 8C14 11.31 11.31 14 8 14C4.69 14 2 11.31 2 8C2 4.69 4.69 2 8 2C9.54 2 10.94 2.58 12 3.53V2.5C12 2.22 12.22 2 12.5 2C12.78 2 13 2.22 13 2.5V5.5C13 5.78 12.78 6 12.5 6H10.91C10.84 5.79 10.72 5.6 10.56 5.44C10.4 5.28 10.21 5.16 10 5.09V5H12C11.09 3.78 9.64 3 8 3C5.24 3 3 5.24 3 8C3 10.76 5.24 13 8 13C10.76 13 13 10.76 13 8C13 7.72 13.22 7.5 13.5 7.5C13.78 7.5 14 7.72 14 8Z" fill="#202020"/>
<path d="M8.70698 7.99998L9.85298 6.85398C10.048 6.65898 10.048 6.34198 9.85298 6.14698C9.65798 5.95198 9.34098 5.95198 9.14598 6.14698L7.99998 7.29298L6.85398 6.14698C6.65898 5.95198 6.34198 5.95198 6.14698 6.14698C5.95198 6.34198 5.95198 6.65898 6.14698 6.85398L7.29298 7.99998L6.14698 9.14598C5.95198 9.34098 5.95198 9.65798 6.14698 9.85298C6.24498 9.95098 6.37298 9.99898 6.50098 9.99898C6.62898 9.99898 6.75698 9.94998 6.85498 9.85298L8.00098 8.70698L9.14698 9.85298C9.24498 9.95098 9.37298 9.99898 9.50098 9.99898C9.62898 9.99898 9.75698 9.94998 9.85498 9.85298C10.05 9.65798 10.05 9.34098 9.85498 9.14598L8.70898 7.99998H8.70698Z" fill="#C50F1F"/>
</svg>
