<svg width="16" height="16" viewBox="0 0 16 16" fill="none" xmlns="http://www.w3.org/2000/svg">
<g clip-path="url(#clip0_7204_89177)">
<path d="M6.854 3.85298C7.049 3.65798 7.049 3.34098 6.854 3.14598V3.14698L4.854 1.14698C4.659 0.951982 4.342 0.951982 4.147 1.14698C3.952 1.34198 3.952 1.65898 4.147 1.85398L5.293 2.99998H2.5C2.102 2.99998 1.72 3.15798 1.439 3.43898C1.158 3.72098 1 4.10198 1 4.49998V6.49998C1 6.77598 1.224 6.99998 1.5 6.99998C1.776 6.99998 2 6.77598 2 6.49998V4.49998C2 4.36698 2.052 4.23998 2.146 4.14598C2.24 4.05298 2.367 3.99998 2.5 3.99998H5.293L4.147 5.14598C3.952 5.34098 3.952 5.65798 4.147 5.85298C4.342 6.04798 4.659 6.04798 4.854 5.85298L6.854 3.85298Z" fill="#006CBF"/>
<path fill-rule="evenodd" clip-rule="evenodd" d="M12.207 2H14.749C15.438 2 15.999 2.561 15.999 3.25V6.75C15.999 7.439 15.438 8 14.749 8H9.24902C8.56002 8 7.99902 7.439 7.99902 6.75V2.25C7.99902 1.561 8.56002 1 9.24902 1H10.999C11.132 1 11.259 1.052 11.353 1.146L12.207 2ZM10.793 2H9.25002C9.11202 2 9.00002 2.112 9.00002 2.25V3H10.793L11.293 2.5L10.793 2ZM14.75 7C14.888 7 15 6.888 15 6.75H15.001V3.25C15.001 3.112 14.889 3 14.751 3H12.208L11.354 3.854C11.26 3.947 11.133 4 11 4H9.00002V6.75C9.00002 6.888 9.11202 7 9.25002 7H14.75Z" fill="#B27C00"/>
<path fill-rule="evenodd" clip-rule="evenodd" d="M4.20702 9H6.75002C7.43902 9 7.99902 9.561 7.99902 10.25V13.75C7.99902 14.439 7.43802 15 6.74902 15H1.24902C0.560023 15 -0.000976562 14.439 -0.000976562 13.75V9.25C-0.000976562 8.561 0.560023 8 1.24902 8H2.99902C3.13202 8 3.25902 8.052 3.35302 8.146L4.20702 9ZM2.79302 9H1.25002C1.11202 9 1.00002 9.112 1.00002 9.25V10H2.79302L3.29302 9.5L2.79302 9ZM6.75002 14C6.88802 14 7.00002 13.888 7.00002 13.75L7.00102 10.25C7.00102 10.112 6.88902 10 6.75102 10H4.20802L3.35402 10.854C3.26002 10.947 3.13302 11 3.00002 11H1.00002V13.75C1.00002 13.888 1.11202 14 1.25002 14H6.75002Z" fill="#B27C00"/>
</g>
<defs>
<clipPath id="clip0_7204_89177">
<rect width="16" height="16" fill="white"/>
</clipPath>
</defs>
</svg>
