<svg width="16" height="16" viewBox="0 0 16 16" fill="none" xmlns="http://www.w3.org/2000/svg">
<g clip-path="url(#clip0_7204_89173)">
<path d="M14 10V13C14 13.55 13.55 14 13 14V10C13 8.9 12.1 8 11 8H4.12L5.12 7H11C12.65 7 14 8.35 14 10ZM10.999 2.75V5.5C10.999 5.776 10.775 6 10.499 6C10.36 6 10.235 5.943 10.144 5.851C9.91 5.937 9.621 6 9.249 6C7.936 6 7.249 5.246 7.249 4.5C7.249 3.754 7.936 3 9.249 3C9.551 3 9.795 3.023 9.999 3.056V2.75C9.999 2.256 9.279 2.25 9.249 2.25C8.757 2.25 8.577 2.377 8.575 2.378C8.379 2.573 8.076 2.561 7.882 2.365C7.687 2.17 7.701 1.841 7.896 1.646C7.989 1.553 8.362 1.25 9.25 1.25C10.12 1.25 10.999 1.765 10.999 2.75ZM10 4.074C9.856 4.038 9.622 4 9.25 4C8.601 4 8.25 4.258 8.25 4.5C8.25 4.742 8.601 5 9.25 5C9.697 5 9.907 4.885 10 4.811V4.074ZM4.251 13C4.623 13 4.857 13.038 5.001 13.074V13.811C4.908 13.885 4.698 14 4.251 14C3.602 14 3.251 13.742 3.251 13.5C3.251 13.258 3.602 13 4.251 13ZM12 10V15C12 15.552 11.552 16 11 16H2C1.448 16 1 15.552 1 15V10C1 9.448 1.448 9 2 9H11C11.552 9 12 9.448 12 10ZM6 11.75C6 10.765 5.121 10.25 4.251 10.25C3.363 10.25 2.99 10.553 2.897 10.646C2.702 10.841 2.688 11.17 2.883 11.365C3.077 11.561 3.38 11.573 3.576 11.378C3.578 11.378 3.758 11.25 4.25 11.25C4.28 11.25 5 11.256 5 11.75V12.056C4.796 12.023 4.552 12 4.25 12C2.937 12 2.25 12.754 2.25 13.5C2.25 14.246 2.937 15 4.25 15C4.622 15 4.911 14.937 5.145 14.851C5.236 14.943 5.361 15 5.5 15C5.776 15 6 14.776 6 14.5V11.75ZM8 12.625C8 12.237 8.117 11.877 8.33 11.611C8.701 11.147 9.311 11.266 9.54 11.472C9.744 11.658 10.06 11.64 10.246 11.436C10.431 11.231 10.414 10.915 10.209 10.73C9.422 10.02 8.233 10.134 7.549 10.986C7.195 11.429 7 12.011 7 12.625C7 13.239 7.195 13.82 7.549 14.264C7.929 14.739 8.445 15 9 15C9.442 15 9.86 14.834 10.208 14.52C10.414 14.335 10.43 14.019 10.245 13.814C10.059 13.609 9.743 13.591 9.539 13.778C9.31 13.982 8.699 14.101 8.33 13.639C8.117 13.373 8 13.013 8 12.625ZM16 3.75C16 4.991 15.103 6 14 6C13.62 6 13.269 5.873 12.966 5.666C12.897 5.86 12.717 6 12.5 6C12.224 6 12 5.776 12 5.5V0.5C12 0.224 12.224 0 12.5 0C12.776 0 13 0.224 13 0.5V1.813C13.295 1.619 13.634 1.5 14 1.5C15.103 1.5 16 2.509 16 3.75ZM15 3.75C15 3.061 14.552 2.5 14 2.5C13.448 2.5 13 3.061 13 3.75C13 4.439 13.448 5 14 5C14.552 5 15 4.439 15 3.75Z" fill="#202020"/>
<path d="M3.49998 3C2.67298 3 1.99998 3.673 1.99998 4.5V6.293L0.853982 5.147C0.658982 4.952 0.341982 4.952 0.146982 5.147C-0.0480176 5.342 -0.0480176 5.659 0.146982 5.854L2.14698 7.854C2.24498 7.952 2.37298 8 2.50098 8C2.62898 8 2.75698 7.951 2.85498 7.854L4.85498 5.854C5.04998 5.659 5.04998 5.342 4.85498 5.147C4.65998 4.952 4.34298 4.952 4.14798 5.147L3.00198 6.293V4.5C3.00198 4.225 3.22598 4 3.50198 4H5.50198C5.77798 4 6.00198 3.776 6.00198 3.5C6.00198 3.224 5.77798 3 5.50198 3H3.49998Z" fill="#006CBF"/>
</g>
<defs>
<clipPath id="clip0_7204_89173">
<rect width="16" height="16" fill="white"/>
</clipPath>
</defs>
</svg>
