<svg width="16" height="16" viewBox="0 0 16 16" fill="none" xmlns="http://www.w3.org/2000/svg">
<g clip-path="url(#clip0_7204_89220)">
<path fill-rule="evenodd" clip-rule="evenodd" d="M5 1C3.895 1 3 1.895 3 3V13C3 14.105 3.895 15 5 15H6.00001C6.0011 14.6928 6.07295 14.3871 6.21351 14.1079L6.26744 14H5C4.448 14 4 13.552 4 13V3C4 2.448 4.448 2 5 2H8V4.5C8 5.328 8.672 6 9.5 6H12V6.06261C12.1954 6.11267 12.3829 6.19223 12.5561 6.29937C12.7222 6.40221 12.8716 6.52833 13 6.67315V5.414C13 5.016 12.842 4.635 12.561 4.353L9.647 1.439C9.366 1.158 8.984 1 8.586 1H5ZM11.793 5H9.5C9.224 5 9 4.776 9 4.5V2.207L11.793 5Z" fill="#202020"/>
<path d="M8.2234 10.0881C8.14283 10.0325 8.0452 10 7.94 10C7.664 10 7.44 10.224 7.44 10.5V11.6549L8.2234 10.0881Z" fill="#202020"/>
<path d="M6 12.5C6 12.776 5.776 13 5.5 13C5.224 13 5 12.776 5 12.5V6.5C5 6.224 5.224 6 5.5 6C5.776 6 6 6.224 6 6.5V12.5Z" fill="#202020"/>
<path fill-rule="evenodd" clip-rule="evenodd" d="M12.3931 7.55201L15.8931 14.552C15.9694 14.7044 16.0056 14.8738 15.9981 15.044C15.9906 15.2143 15.9397 15.3799 15.8502 15.5249C15.7607 15.67 15.6357 15.7898 15.4869 15.8729C15.3381 15.9561 15.1705 15.9998 15.0001 16H8.00006C7.8292 16.0007 7.66101 15.9576 7.51154 15.8748C7.36207 15.792 7.23631 15.6723 7.14625 15.5271C7.0562 15.3818 7.00486 15.216 6.99712 15.0453C6.98938 14.8746 7.02551 14.7048 7.10206 14.552L10.6021 7.55201C10.6849 7.38534 10.8126 7.24509 10.9708 7.14705C11.129 7.04901 11.3114 6.99707 11.4976 6.99707C11.6837 6.99707 11.8661 7.04901 12.0243 7.14705C12.1825 7.24509 12.3102 7.38534 12.3931 7.55201ZM12 12.495V9.495C12 9.36239 11.9473 9.23521 11.8536 9.14144C11.7598 9.04767 11.6326 8.995 11.5 8.995C11.3674 8.995 11.2402 9.04767 11.1464 9.14144C11.0527 9.23521 11 9.36239 11 9.495V12.495C11 12.6276 11.0527 12.7548 11.1464 12.8485C11.2402 12.9423 11.3674 12.995 11.5 12.995C11.6326 12.995 11.7598 12.9423 11.8536 12.8485C11.9473 12.7548 12 12.6276 12 12.495ZM11.2222 14.0843C11.3044 14.0293 11.4011 14 11.5 14C11.6326 14 11.7598 14.0527 11.8536 14.1464C11.9473 14.2402 12 14.3674 12 14.5C12 14.5989 11.9707 14.6956 11.9157 14.7778C11.8608 14.86 11.7827 14.9241 11.6913 14.9619C11.6 14.9998 11.4994 15.0097 11.4025 14.9904C11.3055 14.9711 11.2164 14.9235 11.1464 14.8535C11.0765 14.7836 11.0289 14.6945 11.0096 14.5975C10.9903 14.5006 11.0002 14.4 11.0381 14.3087C11.0759 14.2173 11.14 14.1392 11.2222 14.0843Z" fill="#B27C00"/>
</g>
<defs>
<clipPath id="clip0_7204_89220">
<rect width="16" height="16" fill="white"/>
</clipPath>
</defs>
</svg>
