<svg width="16" height="16" viewBox="0 0 16 16" fill="none" xmlns="http://www.w3.org/2000/svg">
<path fill-rule="evenodd" clip-rule="evenodd" d="M5 1C3.895 1 3 1.895 3 3V8.02786C3.33319 7.99061 3.6686 7.99081 4 8.02787V3C4 2.448 4.448 2 5 2H8V4.5C8 5.328 8.672 6 9.5 6H12V13C12 13.552 11.552 14 11 14H7.61828C7.5713 14.0798 7.52018 14.1574 7.46503 14.2326C7.23364 14.548 6.93972 14.8086 6.60433 15H11C12.105 15 13 14.105 13 13V5.414C13 5.016 12.842 4.635 12.561 4.353L9.647 1.439C9.366 1.158 8.984 1 8.586 1H5ZM11.793 5H9.5C9.224 5 9 4.776 9 4.5V2.207L11.793 5Z" fill="#202020"/>
<path d="M7.97184 12.999C8.23303 12.9826 8.44 12.7653 8.44 12.5V10.5C8.44 10.224 8.216 10 7.94 10C7.71202 10 7.51952 10.1528 7.45944 10.3616C7.81319 11.0166 8 11.7512 8 12.5C8.0057 12.6678 7.99612 12.8348 7.97184 12.999Z" fill="#202020"/>
<path d="M6 8.75834V6.5C6 6.224 5.776 6 5.5 6C5.224 6 5 6.224 5 6.5V8.25736C5.07463 8.28375 5.14868 8.31214 5.22208 8.34254C5.49571 8.45588 5.7561 8.59538 6 8.75834Z" fill="#202020"/>
<path d="M10.5 13C10.776 13 11 12.776 11 12.5V8.5C11 8.224 10.776 8 10.5 8C10.224 8 10 8.224 10 8.5V12.5C10 12.776 10.224 13 10.5 13Z" fill="#202020"/>
<path d="M3.50004 9C4.4283 9 5.31854 9.36875 5.97492 10.0251C6.63129 10.6815 7.00004 11.5717 7.00004 12.5C7.03339 12.9447 6.89063 13.3848 6.60256 13.7252C6.31448 14.0657 5.90416 14.2793 5.46004 14.32C5.28133 14.3277 5.10352 14.2906 4.94283 14.212C4.78214 14.1334 4.64367 14.0158 4.54004 13.87C4.40798 14.0138 4.24713 14.1282 4.06794 14.2057C3.88876 14.2832 3.69527 14.3222 3.50004 14.32C3.27793 14.3057 3.06098 14.2467 2.86218 14.1466C2.66338 14.0465 2.48682 13.9074 2.34305 13.7375C2.19928 13.5675 2.09125 13.3704 2.02545 13.1578C1.95964 12.9451 1.93739 12.7214 1.96004 12.5C1.93739 12.2786 1.95964 12.0549 2.02545 11.8422C2.09125 11.6296 2.19928 11.4325 2.34305 11.2625C2.48682 11.0926 2.66338 10.9535 2.86218 10.8534C3.06098 10.7533 3.27793 10.6943 3.50004 10.68C3.76687 10.6776 4.02882 10.7515 4.25504 10.893C4.29844 10.8168 4.36462 10.756 4.44428 10.7193C4.52395 10.6826 4.61311 10.6718 4.69926 10.6883C4.7854 10.7049 4.8642 10.748 4.9246 10.8116C4.985 10.8752 5.02397 10.9561 5.03604 11.043V11.1V12.5C5.03604 13.2 5.19304 13.48 5.45604 13.48C5.80804 13.48 6.15604 13.075 6.15604 12.5C6.15564 11.9465 5.98246 11.407 5.66068 10.9566C5.33889 10.5063 4.88455 10.1677 4.36105 9.98795C3.83756 9.80824 3.27102 9.79644 2.74049 9.95419C2.20996 10.1119 1.74192 10.4314 1.40165 10.8679C1.06139 11.3044 0.86589 11.8363 0.842432 12.3893C0.818973 12.9423 0.968727 13.4888 1.2708 13.9526C1.57287 14.4164 2.01218 14.7743 2.52744 14.9764C3.0427 15.1785 3.60821 15.2147 4.14504 15.08L4.30104 15.036L4.41504 15C4.51473 14.9644 4.62418 14.9677 4.7215 15.0094C4.81883 15.051 4.89684 15.1278 4.93994 15.2245C4.98303 15.3212 4.98803 15.4306 4.95394 15.5308C4.91984 15.631 4.84916 15.7147 4.75604 15.765L4.70304 15.789L4.56004 15.838C4.07906 15.9897 3.57098 16.0356 3.0706 15.9726C2.57021 15.9096 2.08935 15.7393 1.66093 15.4732C1.23251 15.2071 0.866658 14.8516 0.58842 14.4309C0.310182 14.0103 0.126134 13.5345 0.048878 13.0361C-0.0283781 12.5378 0.00298266 12.0286 0.140813 11.5435C0.278644 11.0583 0.519688 10.6087 0.847441 10.2254C1.17519 9.8421 1.58191 9.53415 2.03975 9.32265C2.49758 9.11115 2.99572 9.00108 3.50004 9V9ZM3.50004 11.52C3.09504 11.52 2.80004 11.942 2.80004 12.5C2.80004 13.058 3.09504 13.48 3.50004 13.48C3.90504 13.48 4.20004 13.058 4.20004 12.5C4.20004 11.942 3.90504 11.52 3.50004 11.52Z" fill="#202020"/>
</svg>
