<svg width="16" height="16" viewBox="0 0 16 16" fill="none" xmlns="http://www.w3.org/2000/svg">
<path fill-rule="evenodd" clip-rule="evenodd" d="M5 1C3.895 1 3 1.895 3 3V10H4V3C4 2.448 4.448 2 5 2H8V4.5C8 5.328 8.672 6 9.5 6H12V13C12 13.552 11.552 14 11 14H10V15H11C12.105 15 13 14.105 13 13V5.414C13 5.016 12.842 4.635 12.561 4.353L9.647 1.439C9.366 1.158 8.984 1 8.586 1H5ZM11.793 5H9.5C9.224 5 9 4.776 9 4.5V2.207L11.793 5Z" fill="#202020"/>
<path d="M10 12.5C10 12.776 10.224 13 10.5 13C10.776 13 11 12.776 11 12.5V8.5C11 8.224 10.776 8 10.5 8C10.224 8 10 8.224 10 8.5V12.5Z" fill="#202020"/>
<path d="M6 10V6.5C6 6.224 5.776 6 5.5 6C5.224 6 5 6.224 5 6.5V10H6Z" fill="#202020"/>
<path d="M8 11H1C0.734784 11 0.48043 11.1054 0.292893 11.2929C0.105357 11.4804 0 11.7348 0 12V15C0 15.2652 0.105357 15.5196 0.292893 15.7071C0.48043 15.8946 0.734784 16 1 16H8C8.26522 16 8.51957 15.8946 8.70711 15.7071C8.89464 15.5196 9 15.2652 9 15V12C9 11.7348 8.89464 11.4804 8.70711 11.2929C8.51957 11.1054 8.26522 11 8 11ZM8 15.5V15H1V12H2V12.5C2 12.6326 2.05268 12.7598 2.14645 12.8536C2.24021 12.9473 2.36739 13 2.5 13C2.63261 13 2.75979 12.9473 2.85355 12.8536C2.94732 12.7598 3 12.6326 3 12.5V12H4V13C4 13.1326 4.05268 13.2598 4.14645 13.3536C4.24021 13.4473 4.36739 13.5 4.5 13.5C4.63261 13.5 4.75979 13.4473 4.85355 13.3536C4.94732 13.2598 5 13.1326 5 13V12H6V12.5C6 12.6326 6.05268 12.7598 6.14645 12.8536C6.24021 12.9473 6.36739 13 6.5 13C6.63261 13 6.75979 12.9473 6.85355 12.8536C6.94732 12.7598 7 12.6326 7 12.5V12H8V15V15.5Z" fill="#B27C00"/>
</svg>
