<svg width="16" height="16" viewBox="0 0 16 16" fill="none" xmlns="http://www.w3.org/2000/svg">
<g clip-path="url(#clip0_7204_89251)">
<path d="M2 4.75C2 3.783 2.783 3 3.75 3H13.25C14.217 3 15 3.783 15 4.75V8.82249C14.9772 8.8293 14.9544 8.83658 14.9318 8.84434C14.6798 8.93091 14.451 9.07414 14.263 9.26303L14 9.52595V4.75C14 4.336 13.664 4 13.25 4H3.75C3.336 4 3 4.336 3 4.75V12.25C3 12.664 3.336 13 3.75 13H6.25061C6.25061 13 6.25061 13 6.25061 13C6.25061 13.2297 6.29586 13.4572 6.38377 13.6695C6.43209 13.7861 6.49276 13.8969 6.56459 14H3.75C2.783 14 2 13.217 2 12.25V4.75Z" fill="#202020"/>
<path d="M10.4749 13L10.5 13.025L10.525 13H10.4749Z" fill="#202020"/>
<path d="M9.707 8H11.502C11.778 8 12.002 8.224 12.002 8.5C12.002 8.776 11.778 9 11.502 9H9.709L10.977 10.268C11.172 10.463 11.172 10.78 10.977 10.975C10.879 11.072 10.751 11.121 10.623 11.121C10.495 11.121 10.367 11.073 10.269 10.975L9.001 9.707V11.5C9.001 11.5212 8.99968 11.5421 8.99711 11.5626C8.89482 11.4917 8.78501 11.4317 8.66945 11.3838C8.45752 11.296 8.23039 11.2508 8.001 11.2506V9.707L6.733 10.975C6.635 11.072 6.507 11.121 6.379 11.121C6.251 11.121 6.123 11.073 6.025 10.975C5.83 10.78 5.83 10.463 6.025 10.268L7.293 9H5.5C5.224 9 5 8.776 5 8.5C5 8.224 5.224 8 5.5 8H7.293L6.025 6.732C5.83 6.537 5.83 6.22 6.025 6.025C6.22 5.83 6.537 5.83 6.732 6.025L8 7.293V5.5C8 5.224 8.224 5 8.5 5C8.776 5 9 5.224 9 5.5V7.293L10.268 6.025C10.463 5.83 10.78 5.83 10.975 6.025C11.17 6.22 11.17 6.537 10.975 6.732L9.707 8Z" fill="#202020"/>
<path d="M10.5 16C10.4343 16.0001 10.3692 15.9873 10.3085 15.9623C10.2477 15.9372 10.1925 15.9004 10.146 15.854L7.64602 13.354C7.55213 13.2601 7.49939 13.1328 7.49939 13C7.49939 12.8672 7.55213 12.7399 7.64602 12.646C7.73991 12.5521 7.86725 12.4994 8.00002 12.4994C8.1328 12.4994 8.26013 12.5521 8.35402 12.646L10.5 14.793L15.146 10.146C15.2399 10.0521 15.3672 9.99939 15.5 9.99939C15.6328 9.99939 15.7601 10.0521 15.854 10.146C15.9479 10.2399 16.0007 10.3672 16.0007 10.5C16.0007 10.6328 15.9479 10.7601 15.854 10.854L10.854 15.854C10.8075 15.9004 10.7523 15.9372 10.6916 15.9623C10.6308 15.9873 10.5657 16.0001 10.5 16Z" fill="#11910D"/>
</g>
<defs>
<clipPath id="clip0_7204_89251">
<rect width="16" height="16" fill="white"/>
</clipPath>
</defs>
</svg>
