<svg width="16" height="16" viewBox="0 0 16 16" fill="none" xmlns="http://www.w3.org/2000/svg">
<g clip-path="url(#clip0_7204_89270)">
<path d="M4 8.91472V12.4999C4 13.6472 5.23546 14.3698 6.23537 13.8073L14.2356 9.30735C15.2551 8.7339 15.2551 7.26609 14.2357 6.69262L8 3.18494V3.5C8 3.89782 7.84196 4.27935 7.56066 4.56066C7.27935 4.84196 6.89782 5 6.5 5H4.121L5.561 6.439C5.70033 6.57833 5.81085 6.74374 5.88626 6.92579C5.96167 7.10783 6.00048 7.30295 6.00048 7.5C6.00048 7.69704 5.96167 7.89216 5.88626 8.07421C5.81085 8.25625 5.70033 8.42166 5.561 8.561C5.42166 8.70033 5.25625 8.81085 5.07421 8.88626C4.89216 8.96167 4.69704 9.00048 4.5 9.00048C4.32803 9.00048 4.15911 8.97096 4 8.91472Z" fill="#11910D"/>
<path d="M2.621 2.29172e-08C3.31602 0.00187152 3.98224 0.277848 4.475 0.768L6 2.293V0.5C6 0.367392 6.05268 0.240215 6.14644 0.146447C6.24021 0.0526784 6.36739 2.29172e-08 6.5 2.29172e-08C6.6326 2.29172e-08 6.75978 0.0526784 6.85355 0.146447C6.94732 0.240215 7 0.367392 7 0.5V3.5C7 3.63261 6.94732 3.75979 6.85355 3.85355C6.75978 3.94732 6.6326 4 6.5 4H3.5C3.36739 4 3.24021 3.94732 3.14644 3.85355C3.05268 3.75979 3 3.63261 3 3.5C3 3.36739 3.05268 3.24021 3.14644 3.14645C3.24021 3.05268 3.36739 3 3.5 3H5.293L3.768 1.475C3.54135 1.24804 3.25247 1.09343 2.93791 1.03072C2.62336 0.968013 2.29727 1.00003 2.00092 1.12273C1.70457 1.24542 1.45128 1.45327 1.2731 1.71998C1.09493 1.98669 0.999886 2.30025 0.999997 2.621C0.99954 2.83408 1.04128 3.04513 1.1228 3.242C1.20433 3.43886 1.32403 3.61763 1.475 3.768L4.854 7.146C4.90048 7.19249 4.93736 7.24768 4.96252 7.30842C4.98768 7.36916 5.00063 7.43426 5.00063 7.5C5.00063 7.56574 4.98768 7.63084 4.96252 7.69158C4.93736 7.75232 4.90048 7.80751 4.854 7.854C4.80751 7.90049 4.75232 7.93736 4.69158 7.96252C4.63084 7.98768 4.56574 8.00063 4.5 8.00063C4.43425 8.00063 4.36915 7.98768 4.30841 7.96252C4.24767 7.93736 4.19248 7.90049 4.146 7.854L0.767997 4.475C0.401232 4.1085 0.15141 3.64146 0.0501345 3.13295C-0.0511407 2.62444 0.000681818 2.09732 0.199046 1.61827C0.39741 1.13922 0.733403 0.729763 1.16452 0.441706C1.59563 0.153649 2.1025 -6.8527e-05 2.621 2.29172e-08Z" fill="#006CBF"/>
</g>
<defs>
<clipPath id="clip0_7204_89270">
<rect width="16" height="16" fill="white"/>
</clipPath>
</defs>
</svg>
