<svg width="16" height="16" viewBox="0 0 16 16" fill="none" xmlns="http://www.w3.org/2000/svg">
<g clip-path="url(#clip0_7204_89274)">
<path d="M10 7C10.552 7 11 6.552 11 6C11 5.448 10.552 5 10 5C9.448 5 9 5.448 9 6C9 6.552 9.448 7 10 7Z" fill="#B27C00"/>
<path d="M11.655 12.1377C11.527 12.1377 11.399 12.0887 11.301 11.9917L8.49995 9.19075C8.23195 8.92275 7.76795 8.92275 7.49995 9.19075L4.69895 11.9917C4.50395 12.1867 4.18695 12.1867 3.99195 11.9917C3.79695 11.7967 3.79695 11.4797 3.99195 11.2847L6.79295 8.48375C7.43795 7.83875 8.56295 7.83875 9.20695 8.48375L12.008 11.2847C12.203 11.4797 12.203 11.7967 12.008 11.9917C11.91 12.0897 11.783 12.1377 11.655 12.1377Z" fill="#006CBF"/>
<path d="M10.5 13H5.5C4.121 13 3 11.879 3 10.5V5.5C3 4.121 4.121 3 5.5 3H10.5C11.879 3 13 4.121 13 5.5V10.5C13 11.879 11.879 13 10.5 13ZM5.5 4C4.673 4 4 4.673 4 5.5V10.5C4 11.327 4.673 12 5.5 12H10.5C11.327 12 12 11.327 12 10.5V5.5C12 4.673 11.327 4 10.5 4H5.5Z" fill="#202020"/>
<path d="M2.5 3H0.5C0.224 3 0 2.776 0 2.5C0 2.224 0.224 2 0.5 2H2V0.5C2 0.224 2.224 0 2.5 0C2.776 0 3 0.224 3 0.5V2.5C3 2.776 2.776 3 2.5 3ZM3 15.5V13.5C3 13.224 2.776 13 2.5 13H0.5C0.224 13 0 13.224 0 13.5C0 13.776 0.224 14 0.5 14H2V15.5C2 15.776 2.224 16 2.5 16C2.776 16 3 15.776 3 15.5ZM14 15.5V14H15.5C15.776 14 16 13.776 16 13.5C16 13.224 15.776 13 15.5 13H13.5C13.224 13 13 13.224 13 13.5V15.5C13 15.776 13.224 16 13.5 16C13.776 16 14 15.776 14 15.5ZM16 2.5C16 2.224 15.776 2 15.5 2H14V0.5C14 0.224 13.776 0 13.5 0C13.224 0 13 0.224 13 0.5V2.5C13 2.776 13.224 3 13.5 3H15.5C15.776 3 16 2.776 16 2.5Z" fill="#202020"/>
</g>
<defs>
<clipPath id="clip0_7204_89274">
<rect width="16" height="16" fill="white"/>
</clipPath>
</defs>
</svg>
