<svg width="16" height="16" viewBox="0 0 16 16" fill="none" xmlns="http://www.w3.org/2000/svg">
<path fill-rule="evenodd" clip-rule="evenodd" d="M7.43919 4.55944C7.29641 4.78433 7.12876 4.99322 6.939 5.182L6.7948 5.32624C7.12553 5.63507 7.53997 5.85538 8 5.949V11.5C8 12.327 8.673 13 9.5 13H11.571C11.795 13.86 12.571 14.5 13.5 14.5C14.603 14.5 15.5 13.603 15.5 12.5C15.5 11.397 14.603 10.5 13.5 10.5C12.571 10.5 11.795 11.14 11.571 12H9.5C9.224 12 9 11.776 9 11.5V8H11.571C11.795 8.86 12.571 9.5 13.5 9.5C14.603 9.5 15.5 8.603 15.5 7.5C15.5 6.397 14.603 5.5 13.5 5.5C12.571 5.5 11.795 6.14 11.571 7H9V5.949C10.14 5.717 11 4.707 11 3.5C11 2.122 9.878 1 8.5 1C8.2133 1 7.93768 1.04857 7.68094 1.13791C7.81812 1.44288 7.91298 1.76654 7.96178 2.09985C8.12892 2.03537 8.31042 2 8.5 2C9.327 2 10 2.673 10 3.5C10 4.327 9.327 5 8.5 5C8.08615 5 7.71087 4.83147 7.43919 4.55944ZM14.5 7.5C14.5 6.949 14.051 6.5 13.5 6.5C12.949 6.5 12.5 6.949 12.5 7.5C12.5 8.051 12.949 8.5 13.5 8.5C14.051 8.5 14.5 8.051 14.5 7.5ZM12.5 12.5C12.5 13.051 12.949 13.5 13.5 13.5C14.051 13.5 14.5 13.051 14.5 12.5C14.5 11.949 14.051 11.5 13.5 11.5C12.949 11.5 12.5 11.949 12.5 12.5Z" fill="#202020"/>
<path d="M7 2.621C7.0012 2.9655 6.93392 3.30681 6.80208 3.62508C6.67024 3.94336 6.47646 4.23226 6.232 4.475L2.854 7.854C2.80748 7.9004 2.75227 7.93718 2.69153 7.96223C2.63079 7.98728 2.5657 8.00012 2.5 8C2.4343 8.00012 2.36921 7.98728 2.30847 7.96223C2.24773 7.93718 2.19252 7.9004 2.146 7.854C2.09944 7.80755 2.0625 7.75238 2.03729 7.69163C2.01208 7.63089 1.99911 7.56577 1.99911 7.5C1.99911 7.43423 2.01208 7.36911 2.03729 7.30837C2.0625 7.24762 2.09944 7.19245 2.146 7.146L5.525 3.768C5.67597 3.61763 5.79567 3.43886 5.87719 3.242C5.95872 3.04513 6.00046 2.83408 6 2.621C5.99947 2.19125 5.82852 1.77925 5.52464 1.47536C5.22075 1.17148 4.80875 1.00053 4.379 1C3.94904 1.00116 3.53689 1.17184 3.232 1.475L1.707 3H3.5C3.63261 3 3.75979 3.05268 3.85355 3.14645C3.94732 3.24021 4 3.36739 4 3.5C4 3.63261 3.94732 3.75979 3.85355 3.85355C3.75979 3.94732 3.63261 4 3.5 4H0.5C0.367392 4 0.240214 3.94732 0.146446 3.85355C0.052678 3.75979 0 3.63261 0 3.5V0.5C0 0.367392 0.052678 0.240215 0.146446 0.146447C0.240214 0.0526784 0.367392 0 0.5 0C0.632608 0 0.759786 0.0526784 0.853554 0.146447C0.947322 0.240215 1 0.367392 1 0.5V2.293L2.525 0.768C3.01776 0.277848 3.68398 0.0018715 4.379 0C5.07389 0.000794008 5.74009 0.277189 6.23145 0.76855C6.72281 1.25991 6.99921 1.92611 7 2.621V2.621Z" fill="#006CBF"/>
</svg>
