<svg width="16" height="16" viewBox="0 0 16 16" fill="none" xmlns="http://www.w3.org/2000/svg">
<path d="M6 13.5C6 13.776 5.776 14 5.5 14H3.75C2.784 14 2 13.216 2 12.25V10.5C2 10.224 2.224 10 2.5 10C2.776 10 3 10.224 3 10.5V12.25C3 12.664 3.336 13 3.75 13H5.5C5.776 13 6 13.224 6 13.5ZM2.5 6C2.776 6 3 5.776 3 5.5V3.75C3 3.336 3.336 3 3.75 3H5.5C5.776 3 6 2.776 6 2.5C6 2.224 5.776 2 5.5 2H3.75C2.784 2 2 2.784 2 3.75V5.5C2 5.776 2.224 6 2.5 6ZM12.25 2H10.5C10.224 2 10 2.224 10 2.5C10 2.776 10.224 3 10.5 3H12.25C12.664 3 13 3.336 13 3.75V5.5C13 5.776 13.224 6 13.5 6C13.776 6 14 5.776 14 5.5V3.75C14 2.784 13.216 2 12.25 2ZM13.5 10C13.224 10 13 10.224 13 10.5V12.25C13 12.664 12.664 13 12.25 13H10.5C10.224 13 10 13.224 10 13.5C10 13.776 10.224 14 10.5 14H12.25C13.216 14 14 13.216 14 12.25V10.5C14 10.224 13.776 10 13.5 10Z" fill="#202020"/>
<path d="M10.287 10.3361L8.287 10.9361C8.193 10.9641 8.096 10.9781 8 10.9781C7.903 10.9781 7.808 10.9641 7.714 10.9361L5.713 10.3351C5.286 10.2071 5 9.82211 5 9.37711V6.62111C5 6.17611 5.286 5.79111 5.713 5.66311L7.713 5.06311C7.901 5.00711 8.1 5.00811 8.286 5.06311L10.287 5.66411C10.714 5.79211 11 6.17711 11 6.62211V9.37811C11 9.82311 10.714 10.2081 10.287 10.3361ZM6.498 6.47311L8 6.97411L9.502 6.47311L8 6.02211L6.498 6.47311ZM6 9.37811L7.517 9.83311C7.512 9.80511 7.5 9.77911 7.5 9.75011V7.86011L6 7.36011V9.37811ZM10 9.37811V7.36011L8.5 7.86011V9.75011C8.5 9.77911 8.488 9.80511 8.483 9.83311L10 9.37811Z" fill="#5C2E91"/>
</svg>
