<svg width="16" height="16" viewBox="0 0 16 16" fill="none" xmlns="http://www.w3.org/2000/svg">
<path d="M10 7C10.552 7 11 6.552 11 6C11 5.448 10.552 5 10 5C9.448 5 9 5.448 9 6C9 6.552 9.448 7 10 7Z" fill="#B27C00"/>
<path d="M11.655 12.1377C11.527 12.1377 11.399 12.0887 11.301 11.9917L8.49995 9.19075C8.23195 8.92275 7.76795 8.92275 7.49995 9.19075L4.69895 11.9917C4.50395 12.1867 4.18695 12.1867 3.99195 11.9917C3.79695 11.7967 3.79695 11.4797 3.99195 11.2847L6.79295 8.48375C7.43795 7.83875 8.56295 7.83875 9.20695 8.48375L12.008 11.2847C12.203 11.4797 12.203 11.7967 12.008 11.9917C11.91 12.0897 11.783 12.1377 11.655 12.1377Z" fill="#006CBF"/>
<path d="M10.5 13H5.5C4.121 13 3 11.879 3 10.5V5.5C3 4.121 4.121 3 5.5 3H10.5C11.879 3 13 4.121 13 5.5V10.5C13 11.879 11.879 13 10.5 13ZM5.5 4C4.673 4 4 4.673 4 5.5V10.5C4 11.327 4.673 12 5.5 12H10.5C11.327 12 12 11.327 12 10.5V5.5C12 4.673 11.327 4 10.5 4H5.5Z" fill="#202020"/>
<path d="M1.5 6C1.224 6 1 5.776 1 5.5C1 4.746 1.191 3.999 1.553 3.34C1.687 3.098 1.991 3.01 2.232 3.142C2.474 3.275 2.563 3.579 2.43 3.821C2.149 4.333 2 4.913 2 5.499C2 5.775 1.776 6 1.5 6ZM3.822 2.43C4.334 2.149 4.914 2 5.5 2C5.776 2 6 1.776 6 1.5C6 1.224 5.776 1 5.5 1C4.746 1 3.999 1.191 3.34 1.553C3.098 1.686 3.009 1.99 3.142 2.232C3.233 2.398 3.404 2.491 3.581 2.491C3.663 2.491 3.745 2.471 3.821 2.429L3.822 2.43ZM2 8.5V7.5C2 7.224 1.776 7 1.5 7C1.224 7 1 7.224 1 7.5V8.5C1 8.776 1.224 9 1.5 9C1.776 9 2 8.776 2 8.5ZM6 14.5C6 14.224 5.776 14 5.5 14C4.914 14 4.333 13.852 3.822 13.57C3.581 13.438 3.277 13.526 3.143 13.768C3.01 14.01 3.099 14.314 3.341 14.447C4 14.808 4.746 15 5.501 15C5.777 15 6 14.776 6 14.5ZM2.232 12.857C2.474 12.724 2.563 12.42 2.43 12.178C2.149 11.666 2 11.086 2 10.5C2 10.224 1.776 10 1.5 10C1.224 10 1 10.224 1 10.5C1 11.254 1.191 12.001 1.553 12.66C1.644 12.826 1.815 12.919 1.992 12.919C2.074 12.919 2.156 12.899 2.232 12.857ZM9 14.5C9 14.224 8.776 14 8.5 14H7.5C7.224 14 7 14.224 7 14.5C7 14.776 7.224 15 7.5 15H8.5C8.776 15 9 14.776 9 14.5ZM14.447 12.66C14.808 12.001 15 11.255 15 10.5C15 10.224 14.776 10 14.5 10C14.224 10 14 10.224 14 10.5C14 11.086 13.852 11.667 13.57 12.178C13.437 12.42 13.526 12.724 13.768 12.857C13.844 12.899 13.927 12.919 14.008 12.919C14.185 12.919 14.356 12.825 14.447 12.66ZM12.659 14.448C12.901 14.315 12.99 14.011 12.857 13.769C12.723 13.527 12.419 13.439 12.178 13.571C11.666 13.852 11.086 14.001 10.5 14.001C10.224 14.001 10 14.225 10 14.501C10 14.777 10.224 15.001 10.5 15.001C11.254 15.001 12 14.81 12.659 14.448ZM14.999 8.501V7.501C14.999 7.225 14.775 7.001 14.499 7.001C14.223 7.001 13.999 7.225 13.999 7.501V8.501C13.999 8.777 14.223 9.001 14.499 9.001C14.775 9.001 14.999 8.777 14.999 8.501ZM12.856 2.233C12.989 1.991 12.9 1.687 12.658 1.554C11.999 1.193 11.253 1.001 10.498 1.001C10.222 1.001 9.998 1.225 9.998 1.501C9.998 1.777 10.222 2.001 10.498 2.001C11.084 2.001 11.665 2.149 12.176 2.431C12.252 2.473 12.335 2.493 12.416 2.493C12.593 2.493 12.764 2.399 12.855 2.234L12.856 2.233ZM14.999 5.501C14.999 4.747 14.808 4 14.446 3.341C14.312 3.099 14.008 3.011 13.767 3.143C13.525 3.276 13.436 3.58 13.569 3.822C13.85 4.334 13.999 4.914 13.999 5.5C13.999 5.776 14.223 6 14.499 6C14.775 6 14.999 5.777 14.999 5.501ZM9 1.5C9 1.224 8.776 1 8.5 1H7.5C7.224 1 7 1.224 7 1.5C7 1.776 7.224 2 7.5 2H8.5C8.776 2 9 1.776 9 1.5Z" fill="#202020"/>
</svg>
