<svg width="16" height="16" viewBox="0 0 16 16" fill="none" xmlns="http://www.w3.org/2000/svg">
<g clip-path="url(#clip0_7204_89313)">
<path d="M3 4C3 2.89543 3.89543 2 5 2H13C14.1046 2 15 2.89543 15 4V9.99729C15 11.1019 14.1046 11.9973 13 11.9973H11.0029V13.0079L12.5021 13.0079C12.7783 13.0079 13.0021 13.2318 13.0021 13.5079C13.0021 13.7841 12.7783 14.0079 12.5021 14.0079L9.96344 14.008C9.98771 13.8407 10 13.671 10 13.5V13.008H10.0029V11.9973H10V10.9973H13C13.5523 10.9973 14 10.5496 14 9.99729V4C14 3.44772 13.5523 3 13 3H5C4.44772 3 4 3.44772 4 4V6H3V4Z" fill="#202020"/>
<path fill-rule="evenodd" clip-rule="evenodd" d="M2.5 7H6.5C7.881 7 8.999 8.119 8.999 9.5V13.5C8.999 14.01 8.847 14.484 8.585 14.879L5.56 11.854C4.975 11.268 4.025 11.268 3.439 11.854L0.414 14.879C0.152 14.484 0 14.01 0 13.5V9.5C0 8.119 1.119 7 2.5 7ZM5.5 9.75C5.5 10.164 5.836 10.5 6.25 10.5C6.664 10.5 7 10.164 7 9.75C7 9.336 6.664 9 6.25 9C5.836 9 5.5 9.336 5.5 9.75Z" fill="#202020"/>
<path d="M2.50009 16C1.99009 16 1.51609 15.848 1.12109 15.586L4.14709 12.561C4.34209 12.366 4.65909 12.366 4.85409 12.561L7.87909 15.586C7.48309 15.848 7.01009 16 6.50009 16H2.50009Z" fill="#202020"/>
</g>
<defs>
<clipPath id="clip0_7204_89313">
<rect width="16" height="16" fill="white"/>
</clipPath>
</defs>
</svg>
