<svg width="16" height="16" viewBox="0 0 16 16" fill="none" xmlns="http://www.w3.org/2000/svg">
<g clip-path="url(#clip0_7204_89373)">
<path d="M10.9256 7.8865C11.1058 7.96104 11.2988 7.99959 11.4937 8H6V12.5C6 13.328 6.672 14 7.5 14H12.5C13.328 14 14 13.328 14 12.5V8H11.5063C11.7012 7.99959 11.8942 7.96104 12.0744 7.8865C12.2565 7.81116 12.4218 7.70053 12.561 7.561L13.122 7H13.915C13.8494 6.81445 13.7484 6.64572 13.6201 6.50189L14.3278 5.79417C14.7448 6.24083 15 6.84054 15 7.5V12.5C15 13.881 13.881 15 12.5 15H7.5C6.119 15 5 13.881 5 12.5V7.5C5 6.119 6.119 5 7.5 5H8.08407C8.15852 5.20982 8.27926 5.40184 8.439 5.561L8.878 6H7.5C6.847 6 6.291 6.417 6.085 7H9.878L10.439 7.561C10.5782 7.70053 10.7435 7.81116 10.9256 7.8865Z" fill="#202020"/>
<path fill-rule="evenodd" clip-rule="evenodd" d="M7 0.5C7 0.500119 7 0.499881 7 0.5C7 0.897825 7.15804 1.27936 7.43934 1.56066C7.57943 1.70075 7.74438 1.81027 7.92381 1.88492C7.97357 2.08168 8 2.28775 8 2.5V4H7V3H2V8.5C2 9.328 2.672 10 3.5 10H4V11H3.5C2.119 11 1 9.881 1 8.5V2.5C1 1.119 2.119 0 3.5 0H5.5C6.06287 0 6.58221 0.186248 7 0.5ZM3.5 1H5.5C6.153 1 6.709 1.417 6.915 2H2.085C2.291 1.417 2.847 1 3.5 1Z" fill="#202020"/>
<path d="M13.854 4.854L11.854 6.854C11.8076 6.90056 11.7524 6.93751 11.6916 6.96271C11.6309 6.98792 11.5658 7.00089 11.5 7.00089C11.4342 7.00089 11.3691 6.98792 11.3084 6.96271C11.2476 6.93751 11.1924 6.90056 11.146 6.854L9.146 4.854C9.05211 4.76011 8.99937 4.63278 8.99937 4.5C8.99937 4.36722 9.05211 4.23989 9.146 4.146C9.23989 4.05211 9.36722 3.99937 9.5 3.99937C9.63278 3.99937 9.76011 4.05211 9.854 4.146L11 5.293L11 2.5C11 2.10218 10.842 1.72064 10.5607 1.43934C10.2794 1.15804 9.89782 1 9.5 1L8.5 1C8.36739 1 8.24021 0.947322 8.14645 0.853554C8.05268 0.759786 8 0.632608 8 0.5C8 0.367392 8.05268 0.240214 8.14645 0.146446C8.24021 0.052678 8.36739 0 8.5 0L9.5 0C10.163 0 10.7989 0.263392 11.2678 0.732233C11.7366 1.20107 12 1.83696 12 2.5L12 5.293L13.146 4.146C13.2399 4.05211 13.3672 3.99937 13.5 3.99937C13.6328 3.99937 13.7601 4.05211 13.854 4.146C13.9479 4.23989 14.0006 4.36722 14.0006 4.5C14.0006 4.63278 13.9479 4.76011 13.854 4.854V4.854Z" fill="#006CBF"/>
</g>
<defs>
<clipPath id="clip0_7204_89373">
<rect width="16" height="16" fill="white"/>
</clipPath>
</defs>
</svg>
