<svg width="16" height="16" viewBox="0 0 16 16" fill="none" xmlns="http://www.w3.org/2000/svg">
<path d="M7.98093 3C7.99392 2.87433 8.00031 2.74782 8 2.621C7.99977 2.41141 7.98139 2.20371 7.94573 2L12.5 2C13.8807 2 15 3.11929 15 4.5V11.5C15 12.8807 13.8807 14 12.5 14H5.5C4.11929 14 3 12.8807 3 11.5L3 8.91497C3.02501 8.90615 3.0498 8.89666 3.07436 8.8865C3.25645 8.81116 3.42184 8.70053 3.561 8.561L4 8.12187V11.5C4 12.3284 4.67157 13 5.5 13H12.5C13.3284 13 14 12.3284 14 11.5V6H6.12124L6.939 5.182C6.99806 5.12324 7.05499 5.06253 7.10968 5H14V4.5C14 3.67157 13.3284 3 12.5 3H7.98093Z" fill="#202020"/>
<path d="M7 2.621C7.0012 2.9655 6.93392 3.30681 6.80208 3.62508C6.67024 3.94336 6.47646 4.23226 6.232 4.475L2.854 7.854C2.80748 7.9004 2.75227 7.93718 2.69153 7.96223C2.63079 7.98728 2.5657 8.00012 2.5 8C2.4343 8.00012 2.36921 7.98728 2.30847 7.96223C2.24773 7.93718 2.19252 7.9004 2.146 7.854C2.09944 7.80755 2.0625 7.75238 2.03729 7.69163C2.01208 7.63089 1.99911 7.56577 1.99911 7.5C1.99911 7.43423 2.01208 7.36911 2.03729 7.30837C2.0625 7.24762 2.09944 7.19245 2.146 7.146L5.525 3.768C5.67597 3.61763 5.79567 3.43886 5.87719 3.242C5.95872 3.04513 6.00046 2.83408 6 2.621C5.99947 2.19125 5.82852 1.77925 5.52464 1.47536C5.22075 1.17148 4.80875 1.00053 4.379 1C3.94904 1.00116 3.53689 1.17184 3.232 1.475L1.707 3H3.5C3.63261 3 3.75979 3.05268 3.85355 3.14645C3.94732 3.24021 4 3.36739 4 3.5C4 3.63261 3.94732 3.75979 3.85355 3.85355C3.75979 3.94732 3.63261 4 3.5 4H0.5C0.367392 4 0.240214 3.94732 0.146446 3.85355C0.052678 3.75979 0 3.63261 0 3.5V0.5C0 0.367392 0.052678 0.240215 0.146446 0.146447C0.240214 0.0526784 0.367392 0 0.5 0C0.632608 0 0.759786 0.0526784 0.853554 0.146447C0.947322 0.240215 1 0.367392 1 0.5V2.293L2.525 0.768C3.01776 0.277848 3.68398 0.0018715 4.379 0C5.07389 0.000794008 5.74009 0.277189 6.23145 0.76855C6.72281 1.25991 6.99921 1.92611 7 2.621V2.621Z" fill="#006CBF"/>
</svg>
