<svg width="16" height="16" viewBox="0 0 16 16" fill="none" xmlns="http://www.w3.org/2000/svg">
<g clip-path="url(#clip0_7204_89434)">
<path fill-rule="evenodd" clip-rule="evenodd" d="M8 2.49997V4.5C8 5.32843 8.67157 6 9.5 6H12V13C12 13.5523 11.5523 14 11 14H5C4.44772 14 4 13.5523 4 13V5.91422C3.96687 5.90239 3.93412 5.88935 3.90183 5.87512C3.71337 5.79209 3.54445 5.67041 3.406 5.51797C3.14965 5.25445 3.00463 4.9029 3 4.53621V13C3 14.1046 3.89543 15 5 15H11C12.1046 15 13 14.1046 13 13V5.41421C13 5.01639 12.842 4.63486 12.5607 4.35355L9.64645 1.43934C9.36514 1.15804 8.98361 1 8.58579 1H7.11403L7.557 1.44297C7.69781 1.58055 7.80958 1.74499 7.88567 1.92655C7.89584 1.9508 7.90534 1.9753 7.91417 2H8V2.49032C8.00001 2.49354 8.00001 2.49675 8 2.49997ZM11.7929 5H9.5C9.22386 5 9 4.77614 9 4.5V2.20711L11.7929 5Z" fill="#202020"/>
<path d="M3 4.49997C3.00001 4.32954 3.02945 4.16039 3.087 3.99997H3V4.49997Z" fill="#202020"/>
<path d="M5 8.5C5 8.22386 5.22386 8 5.5 8H10.5C10.7761 8 11 8.22386 11 8.5C11 8.77614 10.7761 9 10.5 9H5.5C5.22386 9 5 8.77614 5 8.5Z" fill="#202020"/>
<path d="M5.5 10C5.22386 10 5 10.2239 5 10.5C5 10.7761 5.22386 11 5.5 11H10.5C10.7761 11 11 10.7761 11 10.5C11 10.2239 10.7761 10 10.5 10H5.5Z" fill="#202020"/>
<path d="M5.5 12C5.22386 12 5 12.2239 5 12.5C5 12.7761 5.22386 13 5.5 13H10.5C10.7761 13 11 12.7761 11 12.5C11 12.2239 10.7761 12 10.5 12H5.5Z" fill="#202020"/>
<path d="M6.85 2.85003L4.85 4.85003C4.80488 4.89747 4.75059 4.93524 4.69042 4.96106C4.63026 4.98687 4.56547 5.00018 4.5 5.00018C4.43453 5.00018 4.36974 4.98687 4.30958 4.96106C4.24941 4.93524 4.19512 4.89747 4.15 4.85003C4.10256 4.80491 4.06478 4.75062 4.03897 4.69045C4.01316 4.63028 3.99985 4.5655 3.99985 4.50003C3.99985 4.43456 4.01316 4.36977 4.03897 4.3096C4.06478 4.24944 4.10256 4.19515 4.15 4.15003L5.29 3.00003H0.5C0.367392 3.00003 0.240215 2.94735 0.146447 2.85358C0.0526784 2.75981 0 2.63264 0 2.50003C0 2.36742 0.0526784 2.24024 0.146447 2.14647C0.240215 2.05271 0.367392 2.00003 0.5 2.00003H5.29L4.15 0.850028C4.10256 0.804911 4.06478 0.750619 4.03897 0.690452C4.01316 0.630285 3.99985 0.565498 3.99985 0.500028C3.99985 0.434558 4.01316 0.369771 4.03897 0.309604C4.06478 0.249437 4.10256 0.195146 4.15 0.150028C4.19512 0.102586 4.24941 0.0648117 4.30958 0.0389999C4.36974 0.0131882 4.43453 -0.00012207 4.5 -0.00012207C4.56547 -0.00012207 4.63026 0.0131882 4.69042 0.0389999C4.75059 0.0648117 4.80488 0.102586 4.85 0.150028L6.85 2.15003C6.89744 2.19515 6.93522 2.24944 6.96103 2.3096C6.98684 2.36977 7.00015 2.43456 7.00015 2.50003C7.00015 2.5655 6.98684 2.63028 6.96103 2.69045C6.93522 2.75062 6.89744 2.80491 6.85 2.85003V2.85003Z" fill="#006CBF"/>
</g>
<defs>
<clipPath id="clip0_7204_89434">
<rect width="16" height="16" fill="white"/>
</clipPath>
</defs>
</svg>
