<svg width="16" height="16" viewBox="0 0 16 16" fill="none" xmlns="http://www.w3.org/2000/svg">
<g clip-path="url(#clip0_7204_89414)">
<path fill-rule="evenodd" clip-rule="evenodd" d="M7.91284 3C7.97024 2.83976 7.9998 2.67063 8 2.49997C8.00056 2.3294 7.97145 2.16024 7.91417 2H11.5C12.8807 2 14 3.11929 14 4.5V11.5C14 12.8807 12.8807 14 11.5 14H4.5C3.11929 14 2 12.8807 2 11.5V4.5C2 4.32876 2.01722 4.16153 2.05002 3.99997H3.08536C3.0305 4.15517 3.00046 4.3221 3.00001 4.49598L3 4.49997C2.99985 4.51206 2.99985 4.52414 3 4.53621V5H3.08329C3.15181 5.192 3.26113 5.36904 3.406 5.51797C3.54445 5.67041 3.71337 5.79209 3.90183 5.87512C4.09028 5.95815 4.29407 6.00068 4.5 5.99997L4.50266 6H3V10H5V6H4.53307C4.71896 5.99804 4.90282 5.96009 5.07447 5.88816C5.25629 5.81195 5.42052 5.69923 5.557 5.55697L6.11397 5L10 5V3H7.91284ZM10 11V13H6V11L10 11ZM3 11H5V13H4.5C3.67157 13 3 12.3284 3 11.5V11ZM10 6V10L6 10V6L10 6ZM11 6H13V10H11V6ZM11 11H13V11.5C13 12.3284 12.3284 13 11.5 13H11V11ZM13 4.5V5H11V3H11.5C12.3284 3 13 3.67157 13 4.5Z" fill="#202020"/>
<path d="M6.85 2.85003L4.85 4.85003C4.80488 4.89747 4.75059 4.93524 4.69042 4.96106C4.63026 4.98687 4.56547 5.00018 4.5 5.00018C4.43453 5.00018 4.36974 4.98687 4.30958 4.96106C4.24941 4.93524 4.19512 4.89747 4.15 4.85003C4.10256 4.80491 4.06478 4.75062 4.03897 4.69045C4.01316 4.63028 3.99985 4.5655 3.99985 4.50003C3.99985 4.43456 4.01316 4.36977 4.03897 4.3096C4.06478 4.24944 4.10256 4.19515 4.15 4.15003L5.29 3.00003H0.5C0.367392 3.00003 0.240215 2.94735 0.146447 2.85358C0.0526784 2.75981 0 2.63264 0 2.50003C0 2.36742 0.0526784 2.24024 0.146447 2.14647C0.240215 2.05271 0.367392 2.00003 0.5 2.00003H5.29L4.15 0.850028C4.10256 0.804911 4.06478 0.750619 4.03897 0.690452C4.01316 0.630285 3.99985 0.565498 3.99985 0.500028C3.99985 0.434558 4.01316 0.369771 4.03897 0.309604C4.06478 0.249437 4.10256 0.195146 4.15 0.150028C4.19512 0.102586 4.24941 0.0648117 4.30958 0.0389999C4.36974 0.0131882 4.43453 -0.00012207 4.5 -0.00012207C4.56547 -0.00012207 4.63026 0.0131882 4.69042 0.0389999C4.75059 0.0648117 4.80488 0.102586 4.85 0.150028L6.85 2.15003C6.89744 2.19515 6.93522 2.24944 6.96103 2.3096C6.98684 2.36977 7.00015 2.43456 7.00015 2.50003C7.00015 2.5655 6.98684 2.63028 6.96103 2.69045C6.93522 2.75062 6.89744 2.80491 6.85 2.85003V2.85003Z" fill="#006CBF"/>
</g>
<defs>
<clipPath id="clip0_7204_89414">
<rect width="16" height="16" fill="white"/>
</clipPath>
</defs>
</svg>
