<svg width="16" height="16" viewBox="0 0 16 16" fill="none" xmlns="http://www.w3.org/2000/svg">
<g clip-path="url(#clip0_7204_89489)">
<path d="M1 6.122V12C1 13.103 1.897 14 3 14H4.5C4.776 14 5 13.776 5 13.5C5 13.224 4.776 13 4.5 13H3C2.449 13 2 12.552 2 12V6.91593C1.79018 6.84148 1.59816 6.72074 1.439 6.561L1 6.122Z" fill="#202020"/>
<path fill-rule="evenodd" clip-rule="evenodd" d="M5.5755 4.83066C5.35233 5.0025 5.14724 5.19793 4.964 5.414C4.59 5.855 4.317 6.372 4.162 6.929C4.007 7.486 3.975 8.07 4.068 8.641C4.161 9.212 4.376 9.755 4.699 10.235C5.022 10.714 5.445 11.118 5.939 11.419C6.433 11.719 6.986 11.909 7.561 11.975C8.135 12.041 8.717 11.982 9.266 11.801C9.329 11.781 9.388 11.749 9.438 11.706C9.488 11.663 9.53 11.611 9.56 11.552C9.59 11.493 9.608 11.429 9.613 11.363C9.618 11.297 9.61 11.231 9.589 11.168C9.568 11.105 9.535 11.047 9.492 10.997C9.448 10.947 9.396 10.906 9.336 10.877C9.276 10.848 9.212 10.83 9.146 10.826C9.08 10.822 9.014 10.831 8.951 10.853C8.349 11.054 7.699 11.059 7.095 10.867C6.49 10.675 5.962 10.297 5.586 9.786C5.21 9.275 5.005 8.658 5.002 8.024C4.998 7.39 5.196 6.771 5.566 6.255C5.936 5.74 6.46 5.356 7.063 5.157C7.666 4.958 8.315 4.956 8.919 5.15C9.523 5.344 10.05 5.724 10.424 6.237C10.798 6.749 11 7.367 11.002 8.001V8.501C11.002 8.634 10.949 8.761 10.856 8.855C10.762 8.949 10.635 9.001 10.502 9.001C10.369 9.001 10.242 8.948 10.148 8.855C10.054 8.761 10.002 8.634 10.002 8.501V6.501C10.002 6.386 9.962 6.275 9.89 6.186C9.818 6.097 9.717 6.036 9.604 6.012C9.492 5.989 9.375 6.004 9.273 6.057C9.171 6.11 9.09 6.196 9.044 6.301C8.727 6.105 8.361 6.001 7.988 6.002C7.615 6.002 7.249 6.108 6.933 6.305C6.616 6.503 6.361 6.785 6.197 7.12C6.032 7.455 5.965 7.829 6.002 8.2C6.039 8.571 6.179 8.925 6.407 9.221C6.634 9.517 6.94 9.743 7.289 9.874C7.638 10.005 8.017 10.036 8.383 9.963C8.749 9.89 9.087 9.716 9.359 9.461C9.555 9.698 9.82 9.869 10.117 9.95C10.414 10.031 10.729 10.018 11.018 9.913C11.307 9.808 11.557 9.616 11.733 9.363L11.732 9.361C11.908 9.108 12.002 8.807 12 8.5V8C12 6.939 11.579 5.922 10.828 5.172C10.078 4.422 9.06 4 8 4C7.55616 4.00154 7.11646 4.07737 6.69899 4.22296C6.36342 4.49397 5.9822 4.69933 5.5755 4.83066ZM8 9C8.265 9 8.519 8.895 8.707 8.707L8.708 8.706C8.896 8.519 9.001 8.264 9.001 7.999C9.001 7.801 8.942 7.607 8.832 7.443C8.722 7.279 8.566 7.151 8.383 7.075C8.2 6.999 7.999 6.979 7.805 7.018C7.611 7.057 7.433 7.152 7.293 7.292C7.153 7.432 7.058 7.61 7.019 7.804C6.981 7.998 7 8.199 7.076 8.382C7.151 8.565 7.28 8.721 7.444 8.831C7.609 8.941 7.802 9 8 9Z" fill="#202020"/>
<path d="M13 14C14.103 14 15 13.103 15 12V4C15 2.897 14.103 2 13 2H11.5C11.224 2 11 2.224 11 2.5C11 2.776 11.224 3 11.5 3H13C13.551 3 14 3.448 14 4V12C14 12.552 13.551 13 13 13H11.5C11.224 13 11 13.224 11 13.5C11 13.776 11.224 14 11.5 14H13Z" fill="#202020"/>
<path d="M2.146 5.854L0.146 3.854C0.0994365 3.80755 0.062494 3.75238 0.0372876 3.69163C0.0120811 3.63089 -0.000893749 3.56577 -0.000893746 3.5C-0.000893743 3.43423 0.0120811 3.36911 0.0372876 3.30837C0.062494 3.24762 0.0994365 3.19245 0.146 3.146L2.146 1.146C2.23989 1.05211 2.36722 0.999368 2.5 0.999368C2.63278 0.999368 2.76011 1.05211 2.854 1.146C2.94789 1.23989 3.00063 1.36722 3.00063 1.5C3.00063 1.63278 2.94789 1.76011 2.854 1.854L1.707 3L4.5 3C4.89782 3 5.27936 2.84196 5.56066 2.56066C5.84196 2.27936 6 1.89782 6 1.5L6 0.5C6 0.367392 6.05268 0.240215 6.14645 0.146447C6.24021 0.0526784 6.36739 -2.76522e-08 6.5 -2.18557e-08C6.63261 -1.60592e-08 6.75979 0.0526784 6.85355 0.146447C6.94732 0.240215 7 0.367392 7 0.5L7 1.5C7 2.16304 6.73661 2.79893 6.26777 3.26777C5.79893 3.73661 5.16304 4 4.5 4L1.707 4L2.854 5.146C2.94789 5.23989 3.00063 5.36722 3.00063 5.5C3.00063 5.63278 2.94789 5.76011 2.854 5.854C2.76011 5.94789 2.63278 6.00063 2.5 6.00063C2.36722 6.00063 2.23989 5.94789 2.146 5.854V5.854Z" fill="#006CBF"/>
</g>
<defs>
<clipPath id="clip0_7204_89489">
<rect width="16" height="16" fill="white"/>
</clipPath>
</defs>
</svg>
