<svg width="16" height="16" viewBox="0 0 16 16" fill="none" xmlns="http://www.w3.org/2000/svg">
<g clip-path="url(#clip0_7204_89479)">
<path fill-rule="evenodd" clip-rule="evenodd" d="M4.78674 4.98824C4.6161 5.46841 4.51645 5.99078 4.49908 6.54374L4.49847 6.56304L4.49936 6.58233C4.55605 7.81932 5.15409 8.90729 6.23634 10.0366L6.93745 12.9781L6.94472 12.9997C7.045 13.2973 7.23726 13.5443 7.4792 13.7174C7.73005 13.8968 8.03703 13.9989 8.36148 13.9989L8.36289 13.9989L9.74635 13.995L9.76712 13.9932C10.0818 13.9661 10.3741 13.8428 10.6071 13.6476C10.8382 13.454 11.0128 13.1875 11.0874 12.8745L11.8833 9.82476C12.9173 8.83034 13.5011 7.6803 13.5011 6.38728C13.5011 5.17278 12.9938 4.07612 12.1819 3.28545C11.3651 2.49008 10.2382 2.00107 8.998 2.00107C8.63572 2.00107 8.28273 2.04288 7.94411 2.12308C7.86566 2.55668 7.70606 2.9712 7.47435 3.3448C7.93345 3.12254 8.44994 3.00107 8.998 3.00107C9.97157 3.00107 10.8498 3.38411 11.4842 4.00187C12.1143 4.6155 12.5011 5.45824 12.5011 6.38728C12.5011 7.37856 12.0482 8.31298 11.0965 9.19226L10.989 9.2916L10.543 11H9.50122V7.50021C9.50122 7.22407 9.27736 7.00021 9.00122 7.00021C8.72508 7.00021 8.50122 7.22407 8.50122 7.50021V11H7.49398L7.14503 9.53596L7.04771 9.4368C6.00134 8.37071 5.54723 7.48046 5.49924 6.55564C5.52547 5.82151 5.72815 5.17104 6.05692 4.63465C5.66199 4.83079 5.23119 4.95173 4.78674 4.98824ZM10.282 12H7.73233L7.89863 12.6977C7.92984 12.7786 7.9858 12.8502 8.06093 12.904C8.14388 12.9633 8.24766 12.9988 8.36087 12.9989L9.6984 12.9952C9.80032 12.983 9.89238 12.9418 9.96491 12.881C10.0409 12.8174 10.0934 12.734 10.1152 12.6405L10.1182 12.6276L10.282 12Z" fill="#5C2E91"/>
<path d="M8.99994 3.99878C8.7238 3.99878 8.49994 4.22264 8.49994 4.49878V5.49877C8.49994 5.77491 8.7238 5.99877 8.99994 5.99877C9.27608 5.99877 9.49994 5.77491 9.49994 5.49877V4.49878C9.49994 4.22264 9.27608 3.99878 8.99994 3.99878Z" fill="#5C2E91"/>
<path d="M10.8706 5.29418C11.0658 5.09892 11.3824 5.09892 11.5777 5.29418C11.7729 5.48944 11.7729 5.80603 11.5777 6.00129L10.8706 6.70839C10.6753 6.90365 10.3587 6.90365 10.1635 6.70839C9.96819 6.51313 9.96819 6.19654 10.1635 6.00128L10.8706 5.29418Z" fill="#5C2E91"/>
<path d="M6.39365 5.29418C6.58892 5.09892 6.9055 5.09892 7.10076 5.29418L7.80786 6.00128C8.00312 6.19654 8.00312 6.51313 7.80786 6.70839C7.6126 6.90365 7.29601 6.90365 7.10075 6.70839L6.39365 6.00129C6.19839 5.80603 6.19839 5.48944 6.39365 5.29418Z" fill="#5C2E91"/>
<path d="M2.146 5.854L0.146 3.854C0.0994365 3.80755 0.062494 3.75238 0.0372876 3.69163C0.0120811 3.63089 -0.000893749 3.56577 -0.000893746 3.5C-0.000893743 3.43423 0.0120811 3.36911 0.0372876 3.30837C0.062494 3.24762 0.0994365 3.19245 0.146 3.146L2.146 1.146C2.23989 1.05211 2.36722 0.999368 2.5 0.999368C2.63278 0.999368 2.76011 1.05211 2.854 1.146C2.94789 1.23989 3.00063 1.36722 3.00063 1.5C3.00063 1.63278 2.94789 1.76011 2.854 1.854L1.707 3L4.5 3C4.89782 3 5.27936 2.84196 5.56066 2.56066C5.84196 2.27936 6 1.89782 6 1.5L6 0.5C6 0.367392 6.05268 0.240215 6.14645 0.146447C6.24021 0.0526784 6.36739 -2.76522e-08 6.5 -2.18557e-08C6.63261 -1.60592e-08 6.75979 0.0526784 6.85355 0.146447C6.94732 0.240215 7 0.367392 7 0.5L7 1.5C7 2.16304 6.73661 2.79893 6.26777 3.26777C5.79893 3.73661 5.16304 4 4.5 4L1.707 4L2.854 5.146C2.94789 5.23989 3.00063 5.36722 3.00063 5.5C3.00063 5.63278 2.94789 5.76011 2.854 5.854C2.76011 5.94789 2.63278 6.00063 2.5 6.00063C2.36722 6.00063 2.23989 5.94789 2.146 5.854V5.854Z" fill="#006CBF"/>
</g>
<defs>
<clipPath id="clip0_7204_89479">
<rect width="16" height="16" fill="white"/>
</clipPath>
</defs>
</svg>
