<svg width="16" height="16" viewBox="0 0 16 16" fill="none" xmlns="http://www.w3.org/2000/svg">
<path fill-rule="evenodd" clip-rule="evenodd" d="M6.50007 9.99999H1.50007V10.001C1.31807 10.001 1.15007 9.90199 1.06207 9.74299C0.97407 9.58399 0.97907 9.38899 1.07607 9.23599L6.07607 1.23599C6.19507 1.04499 6.42507 0.954994 6.63807 1.01999C6.85307 1.08099 7.00007 1.27699 7.00007 1.49999V9.49999C7.00007 9.77599 6.77607 9.99999 6.50007 9.99999ZM2.40207 8.99999H6.00007V3.24299L2.40207 8.99999Z" fill="#202020"/>
<path d="M9.924 1.23599C9.805 1.04499 9.578 0.954994 9.362 1.01999C9.147 1.08099 9 1.27699 9 1.49999V9.49999C9 9.77599 9.224 9.99999 9.5 9.99999H14.5C14.682 9.99999 14.85 9.90099 14.938 9.74199C15.026 9.58299 15.021 9.38799 14.924 9.23499L9.924 1.23599Z" fill="#202020"/>
<path d="M14.8538 13.146L12.8538 11.146C12.6588 10.951 12.3418 10.951 12.1468 11.146C11.9518 11.341 11.9518 11.658 12.1468 11.853L13.2928 12.999H2.70676L3.85276 11.853C4.04776 11.658 4.04776 11.341 3.85276 11.146C3.65776 10.951 3.34076 10.951 3.14576 11.146L1.14576 13.146C0.950762 13.341 0.950762 13.658 1.14576 13.853L3.14576 15.853C3.24376 15.951 3.37176 15.999 3.49976 15.999C3.62776 15.999 3.75576 15.95 3.85376 15.853C4.04876 15.658 4.04876 15.341 3.85376 15.146L2.70776 14H13.2938L12.1478 15.146C11.9528 15.341 11.9528 15.658 12.1478 15.853C12.2458 15.951 12.3738 15.999 12.5018 15.999C12.6298 15.999 12.7578 15.95 12.8558 15.853L14.8558 13.853C15.0508 13.658 15.0508 13.341 14.8558 13.146H14.8538Z" fill="#006CBF"/>
</svg>
