<svg width="16" height="16" viewBox="0 0 16 16" fill="none" xmlns="http://www.w3.org/2000/svg">
<path fill-rule="evenodd" clip-rule="evenodd" d="M5.5 1H13C14.103 1 15 1.897 15 3V4C15 4.551 14.552 5 14 5H12V13C12 14.103 11.103 15 10 15H5.91581C5.84259 14.7934 5.72327 14.6013 5.561 14.439L5.122 14H8.269C8.098 13.706 8 13.364 8 13V12H3.122L2.122 11H3V3.5C3 2.122 4.121 1 5.5 1ZM10 14C10.552 14 11 13.551 11 13V3C11 2.636 11.098 2.294 11.269 2H5.5C4.673 2 4 2.673 4 3.5V11H8C8.552 11 9 11.449 9 12V13C9 13.551 9.448 14 10 14ZM13 2C12.448 2 12 2.449 12 3V4H14V3C14 2.449 13.552 2 13 2Z" fill="#202020"/>
<path d="M1 11.5C1 11.776 0.776 12 0.5 12C0.224 12 0 11.776 0 11.5C0 11.224 0.224 11 0.5 11C0.776 11 1 11.224 1 11.5ZM0.5 13C0.224 13 0 13.224 0 13.5C0 13.776 0.224 14 0.5 14C0.776 14 1 13.776 1 13.5C1 13.224 0.776 13 0.5 13ZM0.5 15C0.224 15 0 15.224 0 15.5C0 15.776 0.224 16 0.5 16C0.776 16 1 15.776 1 15.5C1 15.224 0.776 15 0.5 15ZM2.5 13C2.224 13 2 13.224 2 13.5C2 13.776 2.224 14 2.5 14C2.776 14 3 13.776 3 13.5C3 13.224 2.776 13 2.5 13ZM2.5 15C2.224 15 2 15.224 2 15.5C2 15.776 2.224 16 2.5 16C2.776 16 3 15.776 3 15.5C3 15.224 2.776 15 2.5 15ZM4.5 15C4.224 15 4 15.224 4 15.5C4 15.776 4.224 16 4.5 16C4.776 16 5 15.776 5 15.5C5 15.224 4.776 15 4.5 15Z" fill="#202020"/>
</svg>
