<svg width="16" height="16" viewBox="0 0 16 16" fill="none" xmlns="http://www.w3.org/2000/svg">
<path d="M3 8.5C3 8.776 3.224 9 3.5 9H4.5C4.776 9 5 8.776 5 8.5V7.5C5 7.224 4.776 7 4.5 7H3.5C3.224 7 3 7.224 3 7.5V8.5Z" fill="#202020"/>
<path d="M7 7.5C7 7.224 7.224 7 7.5 7H8.5C8.776 7 9 7.224 9 7.5V8.5C9 8.776 8.776 9 8.5 9H7.5C7.224 9 7 8.776 7 8.5V7.5Z" fill="#202020"/>
<path d="M11.5 7H12.5C12.776 7 13 7.224 13 7.5V8.5C13 8.776 12.776 9 12.5 9H11.5C11.224 9 11 8.776 11 8.5V7.5C11 7.224 11.224 7 11.5 7Z" fill="#202020"/>
<path fill-rule="evenodd" clip-rule="evenodd" d="M1 10.5C1 11.327 1.673 12 2.5 12H13.5C14.327 12 15 11.327 15 10.5V5.5C15 4.673 14.327 4 13.5 4H9V3.5C9 2.673 8.327 2 7.5 2H4.5C3.673 2 3 2.673 3 3.5V4H2.5C1.673 4 1 4.673 1 5.5V10.5ZM2 5.5C2 5.225 2.225 5 2.5 5H3.5C3.776 5 4 4.776 4 4.5V3.5C4 3.225 4.225 3 4.5 3H7.5C7.775 3 8 3.225 8 3.5V4.5C8 4.776 8.224 5 8.5 5H13.5C13.775 5 14 5.225 14 5.5V10.5C14 10.775 13.775 11 13.5 11H2.5C2.225 11 2 10.775 2 10.5V5.5Z" fill="#202020"/>
</svg>
