<svg width="16" height="16" viewBox="0 0 16 16" fill="none" xmlns="http://www.w3.org/2000/svg">
<g clip-path="url(#clip0_7204_89583)">
<path d="M1 9.48527L1 10.5C1 11.881 2.119 13 3.5 13H12.5C13.881 13 15 11.881 15 10.5V5.5C15 4.119 13.881 3 12.5 3H6.26542L7.357 3.893C7.39863 3.92724 7.43837 3.96295 7.47618 4H12.5C13.328 4 14 4.672 14 5.5V10.5C14 11.328 13.328 12 12.5 12H3.5C2.672 12 2 11.328 2 10.5V8.9766C1.72954 9.25481 1.38022 9.43224 1 9.48527Z" fill="#202020"/>
<path fill-rule="evenodd" clip-rule="evenodd" d="M6.91349 6.87027L5.536 10.314C5.433 10.57 5.557 10.861 5.814 10.963C6.071 11.065 6.361 10.941 6.463 10.685L6.737 9.999H9.261L9.535 10.685C9.613 10.88 9.801 10.999 9.999 10.999C10.061 10.999 10.124 10.987 10.185 10.963C10.442 10.86 10.567 10.569 10.464 10.314L8.464 5.314C8.38749 5.11967 8.1869 5.02446 7.98867 5.02837C8.02145 5.29366 7.99264 5.56943 7.897 5.837C7.7239 6.32128 7.3644 6.68807 6.91349 6.87027ZM8 6.847L7.138 9H8.862L8 6.847Z" fill="#202020"/>
<path d="M6.723 4.66801C7.268 5.11401 6.953 5.99901 6.248 5.99901H3.262C3.105 5.99901 2.958 6.07201 2.863 6.19801L1.348 8.20301C0.914 8.77701 -0.000999181 8.47001 8.19005e-07 7.75101L0.00200067 0.751008C0.00200067 0.118008 0.737001 -0.229992 1.227 0.171008L6.723 4.66801Z" fill="#006CBF"/>
</g>
<defs>
<clipPath id="clip0_7204_89583">
<rect width="16" height="16" fill="white"/>
</clipPath>
</defs>
</svg>
