<svg width="16" height="16" viewBox="0 0 16 16" fill="none" xmlns="http://www.w3.org/2000/svg">
<path d="M8.5 7H10.293L9.025 5.732C8.83 5.537 8.83 5.22 9.025 5.025C9.22 4.83 9.537 4.83 9.732 5.025L11 6.293V4.5C11 4.224 11.224 4 11.5 4C11.776 4 12 4.224 12 4.5V6.293L13.268 5.025C13.463 4.83 13.78 4.83 13.975 5.025C14.17 5.22 14.17 5.537 13.975 5.732L12.707 7H14.5C14.776 7 15 7.224 15 7.5C15 7.776 14.776 8 14.5 8H12.707L13.975 9.268C14.17 9.463 14.17 9.78 13.975 9.975C13.877 10.073 13.749 10.121 13.621 10.121C13.493 10.121 13.365 10.072 13.267 9.975L11.999 8.707V10.5C11.999 10.776 11.775 11 11.499 11C11.223 11 10.999 10.776 10.999 10.5V8.707L9.731 9.975C9.633 10.073 9.505 10.121 9.377 10.121C9.249 10.121 9.121 10.072 9.023 9.975C8.828 9.78 8.828 9.463 9.023 9.268L10.291 8H8.498C8.222 8 7.998 7.776 7.998 7.5C7.998 7.224 8.222 7 8.498 7H8.5Z" fill="#202020"/>
<path fill-rule="evenodd" clip-rule="evenodd" d="M2.14645 4.14645C1.95118 4.34171 1.95118 4.65829 2.14645 4.85355L4.79289 7.5L2.14645 10.1464C1.95118 10.3417 1.95118 10.6583 2.14645 10.8536C2.34171 11.0488 2.65829 11.0488 2.85355 10.8536L5.85355 7.85355C6.04882 7.65829 6.04882 7.34171 5.85355 7.14645L2.85355 4.14645C2.65829 3.95118 2.34171 3.95118 2.14645 4.14645Z" fill="black"/>
</svg>
