<svg width="16" height="16" viewBox="0 0 16 16" fill="none" xmlns="http://www.w3.org/2000/svg">
<path d="M13.4998 13.9999H2.49978C2.27078 13.9999 2.07178 13.8449 2.01578 13.6239C1.95878 13.4019 2.05978 13.1709 2.26078 13.0619L13.2608 7.06195C13.4148 6.97695 13.6048 6.98095 13.7548 7.07095C13.9068 7.16095 13.9998 7.32395 13.9998 7.50095V13.5009C13.9998 13.7769 13.7758 14.0009 13.4998 14.0009V13.9999ZM4.46078 12.9999H12.9998V8.34195L4.46078 12.9999Z" fill="#202020"/>
<path d="M11.854 4.14601L9.854 2.14601C9.659 1.95101 9.342 1.95101 9.147 2.14601C8.952 2.34101 8.952 2.65801 9.147 2.85301L10.293 3.99901H5C3.346 3.99901 2 5.34501 2 6.99901C2 8.65301 3.346 9.99901 5 9.99901H5.5C5.776 9.99901 6 9.77501 6 9.49901C6 9.22301 5.776 8.99901 5.5 8.99901H5C3.897 8.99901 3 8.10201 3 6.99901C3 5.89601 3.897 4.99901 5 4.99901H10.293L9.147 6.14501C8.952 6.34001 8.952 6.65701 9.147 6.85201C9.245 6.95001 9.373 6.99801 9.501 6.99801C9.629 6.99801 9.757 6.94901 9.855 6.85201L11.855 4.85201C12.05 4.65701 12.05 4.34001 11.855 4.14501L11.854 4.14601Z" fill="#006CBF"/>
</svg>
