<svg width="16" height="16" viewBox="0 0 16 16" fill="none" xmlns="http://www.w3.org/2000/svg">
<path d="M2.5 13.9999H13.5C13.729 13.9999 13.928 13.8449 13.984 13.6239C14.041 13.4019 13.94 13.1709 13.739 13.0619L2.739 7.06195C2.585 6.97695 2.395 6.98095 2.245 7.07095C2.093 7.16095 2 7.32395 2 7.50095V13.5009C2 13.7769 2.224 14.0009 2.5 14.0009V13.9999ZM11.539 12.9999H3V8.34195L11.539 12.9999Z" fill="#202020"/>
<path d="M4.14578 4.14601L6.14578 2.14601C6.34078 1.95101 6.65778 1.95101 6.85278 2.14601C7.04778 2.34101 7.04778 2.65801 6.85278 2.85301L5.70678 3.99901H10.9998C12.6538 3.99901 13.9998 5.34501 13.9998 6.99901C13.9998 8.65301 12.6538 9.99901 10.9998 9.99901H10.4998C10.2238 9.99901 9.99978 9.77501 9.99978 9.49901C9.99978 9.22301 10.2238 8.99901 10.4998 8.99901H10.9998C12.1028 8.99901 12.9998 8.10201 12.9998 6.99901C12.9998 5.89601 12.1028 4.99901 10.9998 4.99901H5.70678L6.85278 6.14501C7.04778 6.34001 7.04778 6.65701 6.85278 6.85201C6.75478 6.95001 6.62678 6.99801 6.49878 6.99801C6.37078 6.99801 6.24278 6.94901 6.14478 6.85201L4.14478 4.85201C3.94979 4.65701 3.94979 4.34001 4.14478 4.14501L4.14578 4.14601Z" fill="#006CBF"/>
</svg>
