<svg width="16" height="16" viewBox="0 0 16 16" fill="none" xmlns="http://www.w3.org/2000/svg">
<g clip-path="url(#clip0_7204_89677)">
<path d="M6.17081 5.95119L7.561 4.561C7.70053 4.42184 7.81116 4.25645 7.8865 4.07436C7.92707 3.97632 7.95697 3.87447 7.97587 3.77059C8.15028 3.36538 8.19256 2.89987 8.064 2.44121L7.908 1.88421C8.162 1.68921 8.438 1.52221 8.73 1.38721L9.067 1.74521C9.856 2.58321 11.187 2.58321 11.977 1.74721L12.302 1.40321C12.6 1.54321 12.88 1.71821 13.137 1.92121L13.011 2.34321C12.682 3.44521 13.348 4.59721 14.467 4.86221L14.816 4.94521L14.817 4.94421C14.839 5.12621 14.85 5.31121 14.85 5.49921C14.85 5.65521 14.842 5.80921 14.827 5.96121L14.366 6.07921C14.0938 6.14876 13.8493 6.27095 13.6404 6.43201C12.9825 6.15382 12.2592 6 11.5 6C11.455 6 11.41 6.00054 11.3653 6.00162C11.4509 5.85418 11.5 5.68289 11.5 5.50021C11.5 4.94821 11.052 4.50021 10.5 4.50021C9.948 4.50021 9.5 4.94821 9.5 5.50021C9.5 5.80083 9.63288 6.07061 9.84307 6.25397C9.12859 6.47942 8.47711 6.84681 7.92171 7.32304C7.68544 6.74911 7.18612 6.29111 6.532 6.13621L6.182 6.05321C6.17789 6.01934 6.17415 5.98533 6.17081 5.95119Z" fill="#202020"/>
<path d="M3.08492 5.00021C2.97093 5.32116 2.96955 5.67135 3.08101 5.99319C3.08183 5.99553 3.08264 5.99788 3.08347 6.00021H1.5C1.224 6.00021 1 5.77621 1 5.50021C1 5.22421 1.224 5.00021 1.5 5.00021H3.08492Z" fill="#202020"/>
<path fill-rule="evenodd" clip-rule="evenodd" d="M6.20709 13.0002H6C6 12.4482 5.551 12.0002 5 12.0002V10.5002C5 10.2242 4.776 10.0002 4.5 10.0002C4.224 10.0002 4 10.2242 4 10.5002V12.0002C3.449 12.0002 3 12.4482 3 13.0002H1.5C1.224 13.0002 1 13.2242 1 13.5002C1 13.7762 1.224 14.0002 1.5 14.0002H3C3 14.5522 3.449 15.0002 4 15.0002H5C5.551 15.0002 6 14.5522 6 14.0002H6.59982C6.43786 13.6834 6.30572 13.3489 6.20709 13.0002ZM5 14.0002H4V13.0002H5V14.0002Z" fill="#202020"/>
<path d="M1.5 9.00021H5.5C5.776 9.00021 6 8.77621 6 8.50021C6 8.22421 5.776 8.00021 5.5 8.00021H1.5C1.224 8.00021 1 8.22421 1 8.50021C1 8.77621 1.224 9.00021 1.5 9.00021Z" fill="#202020"/>
<path fill-rule="evenodd" clip-rule="evenodd" d="M11.5 16C13.9853 16 16 13.9853 16 11.5C16 9.01472 13.9853 7 11.5 7C9.01472 7 7 9.01472 7 11.5C7 13.9853 9.01472 16 11.5 16ZM13.3536 10.3536C13.5488 10.1583 13.5488 9.84171 13.3536 9.64645C13.1583 9.45118 12.8417 9.45118 12.6464 9.64645L11.5 10.7929L10.3536 9.64645C10.1583 9.45118 9.84171 9.45118 9.64645 9.64645C9.45118 9.84171 9.45118 10.1583 9.64645 10.3536L10.7929 11.5L9.64645 12.6464C9.45118 12.8417 9.45118 13.1583 9.64645 13.3536C9.84171 13.5488 10.1583 13.5488 10.3536 13.3536L11.5 12.2071L12.6464 13.3536C12.8417 13.5488 13.1583 13.5488 13.3536 13.3536C13.5488 13.1583 13.5488 12.8417 13.3536 12.6464L12.2071 11.5L13.3536 10.3536Z" fill="#C50F1F"/>
<path d="M4.854 5.854L6.854 3.854C6.90056 3.80755 6.93751 3.75238 6.96271 3.69163C6.98792 3.63089 7.00089 3.56577 7.00089 3.5C7.00089 3.43423 6.98792 3.36911 6.96271 3.30837C6.93751 3.24762 6.90056 3.19245 6.854 3.146L4.854 1.146C4.76011 1.05211 4.63278 0.999368 4.5 0.999368C4.36722 0.999368 4.23989 1.05211 4.146 1.146C4.05211 1.23989 3.99937 1.36722 3.99937 1.5C3.99937 1.63278 4.05211 1.76011 4.146 1.854L5.293 3L2.5 3C2.10218 3 1.72064 2.84196 1.43934 2.56066C1.15804 2.27936 1 1.89782 1 1.5V0.5C1 0.367392 0.947322 0.240215 0.853554 0.146447C0.759786 0.0526784 0.632608 -5.79649e-09 0.5 0C0.367392 5.79649e-09 0.240214 0.0526784 0.146446 0.146447C0.052678 0.240215 -5.79649e-09 0.367392 0 0.5L4.37117e-08 1.5C7.26941e-08 2.16304 0.263392 2.79893 0.732233 3.26777C1.20107 3.73661 1.83696 4 2.5 4L5.293 4L4.146 5.146C4.05211 5.23989 3.99937 5.36722 3.99937 5.5C3.99937 5.63278 4.05211 5.76011 4.146 5.854C4.23989 5.94789 4.36722 6.00063 4.5 6.00063C4.63278 6.00063 4.76011 5.94789 4.854 5.854Z" fill="#006CBF"/>
</g>
<defs>
<clipPath id="clip0_7204_89677">
<rect width="16" height="16" fill="white"/>
</clipPath>
</defs>
</svg>
