<svg width="16" height="16" viewBox="0 0 16 16" fill="none" xmlns="http://www.w3.org/2000/svg">
<g clip-path="url(#clip0_7204_89682)">
<path d="M6.17081 5.95119L7.561 4.561C7.70053 4.42184 7.81116 4.25645 7.8865 4.07436C7.92707 3.97632 7.95697 3.87447 7.97587 3.77059C8.15028 3.36538 8.19256 2.89987 8.064 2.44121L7.908 1.88421C8.162 1.68921 8.438 1.52221 8.73 1.38721L9.067 1.74521C9.856 2.58321 11.187 2.58321 11.977 1.74721L12.302 1.40321C12.6 1.54321 12.88 1.71821 13.137 1.92121L13.011 2.34321C12.682 3.44521 13.348 4.59721 14.467 4.86221L14.816 4.94521L14.817 4.94421C14.839 5.12621 14.85 5.31121 14.85 5.49921C14.85 5.65521 14.842 5.80921 14.827 5.96121L14.366 6.07921C13.8612 6.20818 13.4516 6.51817 13.1877 6.92141C13.0269 6.67018 12.8113 6.45733 12.5561 6.29937C12.2399 6.10367 11.8754 6 11.5035 6C11.4566 6 11.4099 6.00165 11.3633 6.00492C11.4502 5.85674 11.5 5.68426 11.5 5.50021C11.5 4.94821 11.052 4.50021 10.5 4.50021C9.948 4.50021 9.5 4.94821 9.5 5.50021C9.5 5.95689 9.80665 6.34239 10.2251 6.4619C10.0124 6.63873 9.83781 6.85847 9.71351 7.10787L8.51488 9.50513C8.28443 9.3828 8.06597 9.23932 7.862 9.07821L7.988 8.65521C8.317 7.55321 7.651 6.40121 6.532 6.13621L6.182 6.05321C6.17789 6.01934 6.17415 5.98533 6.17081 5.95119Z" fill="#202020"/>
<path d="M3.08492 5.00021C2.97093 5.32116 2.96955 5.67135 3.08101 5.99319C3.08183 5.99553 3.08264 5.99788 3.08347 6.00021H1.5C1.224 6.00021 1 5.77621 1 5.50021C1 5.22421 1.224 5.00021 1.5 5.00021H3.08492Z" fill="#202020"/>
<path fill-rule="evenodd" clip-rule="evenodd" d="M6.76734 13.0002H6C6 12.4482 5.551 12.0002 5 12.0002V10.5002C5 10.2242 4.776 10.0002 4.5 10.0002C4.224 10.0002 4 10.2242 4 10.5002V12.0002C3.449 12.0002 3 12.4482 3 13.0002H1.5C1.224 13.0002 1 13.2242 1 13.5002C1 13.7762 1.224 14.0002 1.5 14.0002H3C3 14.5522 3.449 15.0002 4 15.0002H5C5.551 15.0002 6 14.5522 6 14.0002H6.26734L6.76734 13.0002ZM5 14.0002H4V13.0002H5V14.0002Z" fill="#202020"/>
<path d="M1.5 9.00021H5.5C5.776 9.00021 6 8.77621 6 8.50021C6 8.22421 5.776 8.00021 5.5 8.00021H1.5C1.224 8.00021 1 8.22421 1 8.50021C1 8.77621 1.224 9.00021 1.5 9.00021Z" fill="#202020"/>
<path fill-rule="evenodd" clip-rule="evenodd" d="M12.3931 7.55201L15.8931 14.552C15.9694 14.7044 16.0056 14.8738 15.9981 15.044C15.9906 15.2143 15.9397 15.3799 15.8502 15.5249C15.7607 15.67 15.6357 15.7898 15.4869 15.8729C15.3381 15.9561 15.1705 15.9998 15.0001 16H8.00006C7.8292 16.0007 7.66101 15.9576 7.51154 15.8748C7.36207 15.792 7.23631 15.6723 7.14625 15.5271C7.0562 15.3818 7.00486 15.216 6.99712 15.0453C6.98938 14.8746 7.02551 14.7048 7.10206 14.552L10.6021 7.55201C10.6849 7.38534 10.8126 7.24509 10.9708 7.14705C11.129 7.04901 11.3114 6.99707 11.4976 6.99707C11.6837 6.99707 11.8661 7.04901 12.0243 7.14705C12.1825 7.24509 12.3102 7.38534 12.3931 7.55201ZM12 12.495V9.495C12 9.36239 11.9473 9.23521 11.8536 9.14144C11.7598 9.04767 11.6326 8.995 11.5 8.995C11.3674 8.995 11.2402 9.04767 11.1464 9.14144C11.0527 9.23521 11 9.36239 11 9.495V12.495C11 12.6276 11.0527 12.7548 11.1464 12.8485C11.2402 12.9423 11.3674 12.995 11.5 12.995C11.6326 12.995 11.7598 12.9423 11.8536 12.8485C11.9473 12.7548 12 12.6276 12 12.495ZM11.2222 14.0843C11.3044 14.0293 11.4011 14 11.5 14C11.6326 14 11.7598 14.0527 11.8536 14.1464C11.9473 14.2402 12 14.3674 12 14.5C12 14.5989 11.9707 14.6956 11.9157 14.7778C11.8608 14.86 11.7827 14.9241 11.6913 14.9619C11.6 14.9998 11.4994 15.0097 11.4025 14.9904C11.3055 14.9711 11.2164 14.9235 11.1464 14.8535C11.0765 14.7836 11.0289 14.6945 11.0096 14.5975C10.9903 14.5006 11.0002 14.4 11.0381 14.3087C11.0759 14.2173 11.14 14.1392 11.2222 14.0843Z" fill="#B27C00"/>
<path d="M4.854 5.854L6.854 3.854C6.90056 3.80755 6.93751 3.75238 6.96271 3.69163C6.98792 3.63089 7.00089 3.56577 7.00089 3.5C7.00089 3.43423 6.98792 3.36911 6.96271 3.30837C6.93751 3.24762 6.90056 3.19245 6.854 3.146L4.854 1.146C4.76011 1.05211 4.63278 0.999368 4.5 0.999368C4.36722 0.999368 4.23989 1.05211 4.146 1.146C4.05211 1.23989 3.99937 1.36722 3.99937 1.5C3.99937 1.63278 4.05211 1.76011 4.146 1.854L5.293 3L2.5 3C2.10218 3 1.72064 2.84196 1.43934 2.56066C1.15804 2.27936 1 1.89782 1 1.5V0.5C1 0.367392 0.947322 0.240215 0.853554 0.146447C0.759786 0.0526784 0.632608 -5.79649e-09 0.5 0C0.367392 5.79649e-09 0.240214 0.0526784 0.146446 0.146447C0.052678 0.240215 -5.79649e-09 0.367392 0 0.5L4.37117e-08 1.5C7.26941e-08 2.16304 0.263392 2.79893 0.732233 3.26777C1.20107 3.73661 1.83696 4 2.5 4L5.293 4L4.146 5.146C4.05211 5.23989 3.99937 5.36722 3.99937 5.5C3.99937 5.63278 4.05211 5.76011 4.146 5.854C4.23989 5.94789 4.36722 6.00063 4.5 6.00063C4.63278 6.00063 4.76011 5.94789 4.854 5.854Z" fill="#006CBF"/>
</g>
<defs>
<clipPath id="clip0_7204_89682">
<rect width="16" height="16" fill="white"/>
</clipPath>
</defs>
</svg>
