<svg width="16" height="16" viewBox="0 0 16 16" fill="none" xmlns="http://www.w3.org/2000/svg">
<path d="M3 5H2.5C2.325 5 2.156 5.031 2 5.086V4.5C2 3.119 3.119 2 4.5 2H11.5C12.881 2 14 3.119 14 4.5V5.086C13.844 5.031 13.675 5 13.5 5H13V4.5C13 3.672 12.328 3 11.5 3H6V5H5V3H4.5C3.672 3 3 3.672 3 4.5V5Z" fill="#202020"/>
<path d="M13 11.0001H13.5C13.675 11.0001 13.844 10.9691 14 10.9141V11.5001C14 12.8811 12.881 14.0001 11.5 14.0001H4.5C3.119 14.0001 2 12.8811 2 11.5001V10.9141C2.156 10.9691 2.325 11.0001 2.5 11.0001H3V11.5001C3 12.3281 3.672 13.0001 4.5 13.0001H5V11.0001H6V13.0001H11.5C12.328 13.0001 13 12.3281 13 11.5001V11.0001Z" fill="#202020"/>
<path d="M12.5 10H3.5C2.673 10 2 9.327 2 8.5V7.5C2 6.673 2.673 6 3.5 6H12.5C13.327 6 14 6.673 14 7.5V8.5C14 9.327 13.327 10 12.5 10ZM3.5 7C3.225 7 3 7.225 3 7.5V8.5C3 8.775 3.225 9 3.5 9H12.5C12.775 9 13 8.775 13 8.5V7.5C13 7.225 12.775 7 12.5 7H3.5Z" fill="#006CBF"/>
</svg>
