<svg width="16" height="16" viewBox="0 0 16 16" fill="none" xmlns="http://www.w3.org/2000/svg">
<path d="M12.5 14H3.5C2.673 14 2 13.327 2 12.5V11.5C2 10.673 2.673 10 3.5 10H12.5C13.327 10 14 10.673 14 11.5V12.5C14 13.327 13.327 14 12.5 14ZM3.5 11C3.225 11 3 11.225 3 11.5V12.5C3 12.775 3.225 13 3.5 13H12.5C12.775 13 13 12.775 13 12.5V11.5C13 11.225 12.775 11 12.5 11H3.5ZM12.5 7H3.5C2.673 7 2 6.327 2 5.5V4.5C2 3.673 2.673 3 3.5 3H12.5C13.327 3 14 3.673 14 4.5V5.5C14 6.327 13.327 7 12.5 7ZM3.5 4C3.225 4 3 4.225 3 4.5V5.5C3 5.775 3.225 6 3.5 6H12.5C12.775 6 13 5.775 13 5.5V4.5C13 4.225 12.775 4 12.5 4H3.5Z" fill="#202020"/>
<path d="M13.5 9H2.5C2.224 9 2 8.776 2 8.5C2 8.224 2.224 8 2.5 8H13.5C13.776 8 14 8.224 14 8.5C14 8.776 13.776 9 13.5 9ZM14 1.5C14 1.224 13.776 1 13.5 1H2.5C2.224 1 2 1.224 2 1.5C2 1.776 2.224 2 2.5 2H13.5C13.776 2 14 1.776 14 1.5Z" fill="#006CBF"/>
</svg>
