<svg width="16" height="16" viewBox="0 0 16 16" fill="none" xmlns="http://www.w3.org/2000/svg">
<path d="M4.5 2C3.119 2 2 3.119 2 4.5V11.5C2 12.881 3.119 14 4.5 14H6.03544C6.01209 13.8367 6 13.6698 6 13.5C6 13.3302 6.01209 13.1633 6.03544 13H4.5C3.672 13 3 12.328 3 11.5V4.5C3 3.672 3.672 3 4.5 3H11.5C12.328 3 13 3.672 13 4.5V10H13.5C13.6698 10 13.8367 10.0121 14 10.0354V4.5C14 3.119 12.881 2 11.5 2H4.5Z" fill="#DE590B"/>
<path d="M11.981 10C11.7248 6.6487 8.91578 4 5.5 4C5.224 4 5 4.224 5 4.5C5 4.776 5.224 5 5.5 5C8.36348 5 10.7239 7.20128 10.9775 10H11.981Z" fill="#DE590B"/>
<path d="M8.96989 10.0399C8.74396 8.32655 7.27407 7 5.5 7C5.224 7 5 7.224 5 7.5C5 7.776 5.224 8 5.5 8C6.825 8 7.91182 9.03493 7.9949 10.3392C8.29833 10.1945 8.62589 10.0922 8.96989 10.0399Z" fill="#DE590B"/>
<path d="M6.25 10.5C6.25 10.914 5.914 11.25 5.5 11.25C5.086 11.25 4.75 10.914 4.75 10.5C4.75 10.086 5.086 9.75 5.5 9.75C5.914 9.75 6.25 10.086 6.25 10.5Z" fill="#DE590B"/>
<path d="M9.5 11C8.11929 11 7 12.1193 7 13.5C7 14.8807 8.11929 16 9.5 16H10C10.2761 16 10.5 15.7761 10.5 15.5C10.5 15.2239 10.2761 15 10 15H9.5C8.67157 15 8 14.3284 8 13.5C8 12.6716 8.67157 12 9.5 12H10C10.2761 12 10.5 11.7761 10.5 11.5C10.5 11.2239 10.2761 11 10 11H9.5Z" fill="#006CBF"/>
<path d="M13 11C12.7239 11 12.5 11.2239 12.5 11.5C12.5 11.7761 12.7239 12 13 12H13.5C14.3284 12 15 12.6716 15 13.5C15 14.3284 14.3284 15 13.5 15H13C12.7239 15 12.5 15.2239 12.5 15.5C12.5 15.7761 12.7239 16 13 16H13.5C14.8807 16 16 14.8807 16 13.5C16 12.1193 14.8807 11 13.5 11H13Z" fill="#006CBF"/>
<path d="M9.5 13C9.22386 13 9 13.2239 9 13.5C9 13.7761 9.22386 14 9.5 14H13.5C13.7761 14 14 13.7761 14 13.5C14 13.2239 13.7761 13 13.5 13H9.5Z" fill="#006CBF"/>
</svg>
