<svg width="16" height="16" viewBox="0 0 16 16" fill="none" xmlns="http://www.w3.org/2000/svg">
<path d="M16 7.5V8.5C16 8.776 15.776 9 15.5 9C15.224 9 15 8.776 15 8.5V8H8V8.5C8 8.776 7.776 9 7.5 9C7.224 9 7 8.776 7 8.5V7.5C7 7.224 7.224 7 7.5 7H11V6.5C11 6.224 11.224 6 11.5 6C11.776 6 12 6.224 12 6.5V7H15.5C15.776 7 16 7.224 16 7.5ZM15.5 11H12.333L13.8 9.9C13.973 9.771 14.042 9.546 13.975 9.342C13.907 9.138 13.715 9 13.5 9H9.5C9.224 9 9 9.224 9 9.5C9 9.776 9.224 10 9.5 10H12L11.2 10.6C11.074 10.694 11 10.843 11 11H7.5C7.224 11 7 11.224 7 11.5C7 11.776 7.224 12 7.5 12H11V13.75C11 13.888 10.888 14 10.75 14H10C9.724 14 9.5 14.224 9.5 14.5C9.5 14.776 9.724 15 10 15H10.75C11.439 15 12 14.439 12 13.75V12H15.5C15.776 12 16 11.776 16 11.5C16 11.224 15.776 11 15.5 11ZM2.8 5.4C3.335 4.999 4 4.5 4 3.5C4 2.673 3.327 2 2.5 2C1.673 2 1 2.673 1 3.5C1 3.776 1.224 4 1.5 4C1.776 4 2 3.775 2 3.5C2 3.225 2.225 3 2.5 3C2.775 3 3 3.225 3 3.5C3 3.977 2.711 4.217 2.2 4.6C1.665 5.001 1 5.5 1 6.5C1 6.776 1.224 7 1.5 7H3.5C3.776 7 4 6.776 4 6.5C4 6.224 3.776 6 3.5 6H2.146C2.279 5.798 2.502 5.624 2.8 5.4ZM5.5 3C5.224 3 5 3.224 5 3.5V6.5C5 6.776 5.224 7 5.5 7C5.776 7 6 6.776 6 6.5V3.5C6 3.224 5.776 3 5.5 3ZM5.622 0.887C5.501 0.863 5.375 0.875 5.261 0.923C5.147 0.971 5.049 1.05 4.981 1.153C4.912 1.256 4.876 1.377 4.876 1.5C4.876 1.666 4.942 1.825 5.059 1.942C5.176 2.059 5.335 2.125 5.501 2.125C5.625 2.125 5.745 2.088 5.848 2.02C5.951 1.952 6.031 1.854 6.078 1.739C6.125 1.625 6.138 1.499 6.114 1.378C6.09 1.257 6.03 1.145 5.943 1.058C5.856 0.971 5.743 0.911 5.622 0.887Z" fill="#202020"/>
</svg>
