<svg width="16" height="16" viewBox="0 0 16 16" fill="none" xmlns="http://www.w3.org/2000/svg">
<path d="M2 2.75C2 1.7835 2.7835 1 3.75 1H10.25C11.2165 1 12 1.7835 12 2.75V6.02242C11.8353 6.00758 11.6685 6 11.5 6C11.3315 6 11.1647 6.00758 11 6.02242V2.75C11 2.33579 10.6642 2 10.25 2H3.75C3.33579 2 3 2.33579 3 2.75V13.25C3 13.6642 3.33579 14 3.75 14H6.59971C6.78261 14.3578 7.00353 14.6929 7.25716 15H3.75C2.7835 15 2 14.2165 2 13.25V2.75Z" fill="#202020"/>
<path d="M9.992 6.2093C9.99711 6.13976 9.99978 6.06995 10 6C10.0027 5.49891 9.8798 5.00514 9.64258 4.56375C9.40536 4.12236 9.06135 3.74743 8.64197 3.47318C8.22258 3.19892 7.74119 3.03409 7.24172 2.99372C6.74225 2.95335 6.24063 3.03874 5.78265 3.24208C5.32467 3.44543 4.92491 3.76025 4.61989 4.15781C4.31486 4.55538 4.11428 5.02301 4.03645 5.51802C3.95862 6.01304 4.00603 6.51966 4.17434 6.99165C4.34266 7.46363 4.62652 7.88593 5 8.22V11.5C5.00005 11.5904 5.02463 11.6792 5.07112 11.7568C5.11761 11.8343 5.18427 11.8979 5.264 11.9405C5.34374 11.9832 5.43356 12.0035 5.5239 11.9992C5.61423 11.9948 5.70171 11.9661 5.777 11.916L6.00618 11.7631C6.00208 11.6759 6 11.5882 6 11.5C6 11.1607 6.03072 10.8286 6.08953 10.5063L6 10.566V8.816C6.19934 8.89194 6.40516 8.94437 6.61345 8.97331C6.79738 8.61831 7.01887 8.2859 7.27264 7.98134C7.1828 7.9937 7.09173 8 7 8C6.60444 8 6.21776 7.8827 5.88886 7.66294C5.55997 7.44318 5.30362 7.13082 5.15224 6.76537C5.00087 6.39992 4.96126 5.99778 5.03843 5.60982C5.1156 5.22186 5.30608 4.86549 5.58579 4.58579C5.86549 4.30608 6.22186 4.1156 6.60982 4.03843C6.99779 3.96126 7.39992 4.00087 7.76537 4.15224C8.13082 4.30362 8.44318 4.55996 8.66294 4.88886C8.88271 5.21776 9 5.60444 9 6C9 6.22628 8.96166 6.44861 8.88856 6.6583C9.23561 6.47072 9.60511 6.31937 9.992 6.2093Z" fill="#202020"/>
<path fill-rule="evenodd" clip-rule="evenodd" d="M11.5 16C13.9853 16 16 13.9853 16 11.5C16 9.01472 13.9853 7 11.5 7C9.01472 7 7 9.01472 7 11.5C7 13.9853 9.01472 16 11.5 16ZM13.3536 10.3536C13.5488 10.1583 13.5488 9.84171 13.3536 9.64645C13.1583 9.45118 12.8417 9.45118 12.6464 9.64645L11.5 10.7929L10.3536 9.64645C10.1583 9.45118 9.84171 9.45118 9.64645 9.64645C9.45118 9.84171 9.45118 10.1583 9.64645 10.3536L10.7929 11.5L9.64645 12.6464C9.45118 12.8417 9.45118 13.1583 9.64645 13.3536C9.84171 13.5488 10.1583 13.5488 10.3536 13.3536L11.5 12.2071L12.6464 13.3536C12.8417 13.5488 13.1583 13.5488 13.3536 13.3536C13.5488 13.1583 13.5488 12.8417 13.3536 12.6464L12.2071 11.5L13.3536 10.3536Z" fill="#C50F1F"/>
</svg>
