<svg width="16" height="16" viewBox="0 0 16 16" fill="none" xmlns="http://www.w3.org/2000/svg">
<g clip-path="url(#clip0_7204_89711)">
<path d="M2 2.75C2 1.7835 2.7835 1 3.75 1H10.25C11.2165 1 12 1.7835 12 2.75V6.06261C11.8385 6.02123 11.6718 6 11.5035 6C11.3328 6 11.1636 6.02185 11 6.06442V2.75C11 2.33579 10.6642 2 10.25 2H3.75C3.33579 2 3 2.33579 3 2.75V13.25C3 13.6642 3.33579 14 3.75 14H6.26744L6.21351 14.1079C6.07295 14.3871 6.0011 14.6928 6.00001 15H3.75C2.7835 15 2 14.2165 2 13.25V2.75Z" fill="#202020"/>
<path fill-rule="evenodd" clip-rule="evenodd" d="M9.32976 7.87536C9.22947 7.99853 9.11925 8.11382 9 8.22V8.53488L8 10.5349V8.816C7.35591 9.06137 6.64409 9.06137 6 8.816V10.566L6.723 10.084C6.80506 10.0294 6.90143 10.0003 7 10.0003C7.09857 10.0003 7.19494 10.0294 7.277 10.084L7.98833 10.5582L7.53814 11.4586L7 11.1L5.777 11.916C5.70171 11.9661 5.61423 11.9948 5.5239 11.9992C5.43356 12.0035 5.34374 11.9832 5.264 11.9405C5.18427 11.8979 5.11761 11.8343 5.07112 11.7568C5.02463 11.6792 5.00005 11.5904 5 11.5V8.22C4.62652 7.88593 4.34266 7.46363 4.17434 6.99165C4.00603 6.51966 3.95862 6.01304 4.03645 5.51802C4.11428 5.02301 4.31486 4.55538 4.61989 4.15781C4.92491 3.76025 5.32467 3.44543 5.78265 3.24208C6.24063 3.03874 6.74225 2.95335 7.24172 2.99372C7.74119 3.03409 8.22258 3.19892 8.64197 3.47318C9.06135 3.74743 9.40536 4.12236 9.64258 4.56375C9.8798 5.00514 10.0027 5.49891 10 6C9.99911 6.28317 9.95794 6.56407 9.87829 6.83438C9.8164 6.92067 9.76125 7.01208 9.71351 7.10787L9.32976 7.87536ZM7 8C6.60444 8 6.21776 7.8827 5.88886 7.66294C5.55997 7.44318 5.30362 7.13082 5.15224 6.76537C5.00087 6.39992 4.96126 5.99778 5.03843 5.60982C5.1156 5.22186 5.30608 4.86549 5.58579 4.58579C5.86549 4.30608 6.22186 4.1156 6.60982 4.03843C6.99779 3.96126 7.39992 4.00087 7.76537 4.15224C8.13082 4.30362 8.44318 4.55996 8.66294 4.88886C8.88271 5.21776 9 5.60444 9 6C9 6.53043 8.78929 7.03914 8.41422 7.41421C8.03914 7.78929 7.53044 8 7 8Z" fill="#202020"/>
<path fill-rule="evenodd" clip-rule="evenodd" d="M12.3931 7.55201L15.8931 14.552C15.9694 14.7044 16.0056 14.8738 15.9981 15.044C15.9906 15.2143 15.9397 15.3799 15.8502 15.5249C15.7607 15.67 15.6357 15.7898 15.4869 15.8729C15.3381 15.9561 15.1705 15.9998 15.0001 16H8.00006C7.8292 16.0007 7.66101 15.9576 7.51154 15.8748C7.36207 15.792 7.23631 15.6723 7.14625 15.5271C7.0562 15.3818 7.00486 15.216 6.99712 15.0453C6.98938 14.8746 7.02551 14.7048 7.10206 14.552L10.6021 7.55201C10.6849 7.38534 10.8126 7.24509 10.9708 7.14705C11.129 7.04901 11.3114 6.99707 11.4976 6.99707C11.6837 6.99707 11.8661 7.04901 12.0243 7.14705C12.1825 7.24509 12.3102 7.38534 12.3931 7.55201ZM12 12.495V9.495C12 9.36239 11.9473 9.23521 11.8536 9.14144C11.7598 9.04767 11.6326 8.995 11.5 8.995C11.3674 8.995 11.2402 9.04767 11.1464 9.14144C11.0527 9.23521 11 9.36239 11 9.495V12.495C11 12.6276 11.0527 12.7548 11.1464 12.8485C11.2402 12.9423 11.3674 12.995 11.5 12.995C11.6326 12.995 11.7598 12.9423 11.8536 12.8485C11.9473 12.7548 12 12.6276 12 12.495ZM11.2222 14.0843C11.3044 14.0293 11.4011 14 11.5 14C11.6326 14 11.7598 14.0527 11.8536 14.1464C11.9473 14.2402 12 14.3674 12 14.5C12 14.5989 11.9707 14.6956 11.9157 14.7778C11.8608 14.86 11.7827 14.9241 11.6913 14.9619C11.6 14.9998 11.4994 15.0097 11.4025 14.9904C11.3055 14.9711 11.2164 14.9235 11.1464 14.8535C11.0765 14.7836 11.0289 14.6945 11.0096 14.5975C10.9903 14.5006 11.0002 14.4 11.0381 14.3087C11.0759 14.2173 11.14 14.1392 11.2222 14.0843Z" fill="#B27C00"/>
</g>
<defs>
<clipPath id="clip0_7204_89711">
<rect width="16" height="16" fill="white"/>
</clipPath>
</defs>
</svg>
