<svg width="16" height="16" viewBox="0 0 16 16" fill="none" xmlns="http://www.w3.org/2000/svg">
<g clip-path="url(#clip0_7204_89731)">
<path d="M5 3.49993C5 3.11751 5.41183 2.87665 5.74514 3.06414L13.7454 7.56443C13.9436 7.67591 14.0262 7.88878 13.9932 8.08478C14.024 8.09565 14.0545 8.10754 14.0846 8.12045C14.2694 8.19968 14.4362 8.31553 14.5749 8.46101L14.8242 8.71025C15.1862 8.03124 14.99 7.11721 14.2357 6.69286L6.23541 2.19257C5.2355 1.63011 4 2.35268 4 3.49993V12.5002C4 13.6474 5.23546 14.37 6.23537 13.8076L10.0104 11.6842C10.003 11.6232 9.99951 11.5617 9.99991 11.5C10.0004 11.2988 10.0416 11.0997 10.121 10.9148C10.2004 10.7299 10.3164 10.563 10.4619 10.424L10.7844 10.1015L5.74512 12.936C5.41182 13.1235 5 12.8826 5 12.5002V3.49993Z" fill="#11910D"/>
<path d="M13.85 9.15003L15.85 11.15C15.8975 11.1951 15.9352 11.2494 15.9611 11.3096C15.9869 11.3698 16.0002 11.4346 16.0002 11.5C16.0002 11.5655 15.9869 11.6303 15.9611 11.6905C15.9352 11.7506 15.8975 11.8049 15.85 11.85C15.8049 11.8975 15.7506 11.9352 15.6905 11.9611C15.6303 11.9869 15.5655 12.0002 15.5 12.0002C15.4346 12.0002 15.3698 11.9869 15.3096 11.9611C15.2494 11.9352 15.1951 11.8975 15.15 11.85L14 10.71L14 15.5C14 15.6326 13.9473 15.7598 13.8536 15.8536C13.7598 15.9473 13.6326 16 13.5 16C13.3674 16 13.2402 15.9473 13.1465 15.8536C13.0527 15.7598 13 15.6326 13 15.5L13 10.71L11.85 11.85C11.8049 11.8975 11.7506 11.9352 11.6905 11.9611C11.6303 11.9869 11.5655 12.0002 11.5 12.0002C11.4346 12.0002 11.3698 11.9869 11.3096 11.9611C11.2494 11.9352 11.1951 11.8975 11.15 11.85C11.1026 11.8049 11.0648 11.7506 11.039 11.6905C11.0132 11.6303 10.9999 11.5655 10.9999 11.5C10.9999 11.4346 11.0132 11.3698 11.039 11.3096C11.0648 11.2494 11.1026 11.1951 11.15 11.15L13.15 9.15003C13.1951 9.10259 13.2494 9.06481 13.3096 9.039C13.3698 9.01319 13.4346 8.99988 13.5 8.99988C13.5655 8.99988 13.6303 9.01319 13.6905 9.039C13.7506 9.06481 13.8049 9.10259 13.85 9.15003Z" fill="#006CBF"/>
</g>
<defs>
<clipPath id="clip0_7204_89731">
<rect width="16" height="16" fill="white"/>
</clipPath>
</defs>
</svg>
