<svg width="16" height="16" viewBox="0 0 16 16" fill="none" xmlns="http://www.w3.org/2000/svg">
<g clip-path="url(#clip0_7204_89738)">
<path d="M5 3.49993C5 3.11751 5.41183 2.87665 5.74514 3.06414L13.7454 7.56443C13.9432 7.67567 14.0258 7.88786 13.9934 8.08351C14.2049 8.15719 14.3992 8.27799 14.5606 8.43934C14.6548 8.53362 14.7353 8.63916 14.8006 8.75279C15.1942 8.06992 15.0059 7.12614 14.2357 6.69286L6.23541 2.19257C5.2355 1.63011 4 2.35268 4 3.49993V12.5002C4 13.6474 5.23546 14.37 6.23537 13.8076L11.9999 10.5651V9.5C11.9999 9.47208 12.0007 9.44423 12.0022 9.4165L5.74512 12.936C5.41182 13.1235 5 12.8826 5 12.5002V3.49993Z" fill="#11910D"/>
<path d="M13.85 15.85L15.85 13.85C15.8975 13.8049 15.9352 13.7506 15.9611 13.6904C15.9869 13.6303 16.0002 13.5655 16.0002 13.5C16.0002 13.4345 15.9869 13.3697 15.9611 13.3096C15.9352 13.2494 15.8975 13.1951 15.85 13.15C15.8049 13.1026 15.7506 13.0648 15.6905 13.039C15.6303 13.0132 15.5655 12.9998 15.5 12.9998C15.4346 12.9998 15.3698 13.0132 15.3096 13.039C15.2494 13.0648 15.1951 13.1026 15.15 13.15L14 14.29L14 9.5C14 9.36739 13.9473 9.24021 13.8536 9.14645C13.7598 9.05268 13.6326 9 13.5 9C13.3674 9 13.2402 9.05268 13.1465 9.14645C13.0527 9.24021 13 9.36739 13 9.5L13 14.29L11.85 13.15C11.8049 13.1026 11.7506 13.0648 11.6905 13.039C11.6303 13.0132 11.5655 12.9998 11.5 12.9998C11.4346 12.9998 11.3698 13.0132 11.3096 13.039C11.2494 13.0648 11.1951 13.1026 11.15 13.15C11.1026 13.1951 11.0648 13.2494 11.039 13.3096C11.0132 13.3697 10.9999 13.4345 10.9999 13.5C10.9999 13.5655 11.0132 13.6303 11.039 13.6904C11.0648 13.7506 11.1026 13.8049 11.15 13.85L13.15 15.85C13.1951 15.8974 13.2494 15.9352 13.3096 15.961C13.3698 15.9868 13.4346 16.0001 13.5 16.0001C13.5655 16.0001 13.6303 15.9868 13.6905 15.961C13.7506 15.9352 13.8049 15.8974 13.85 15.85Z" fill="#006CBF"/>
</g>
<defs>
<clipPath id="clip0_7204_89738">
<rect width="16" height="16" fill="white"/>
</clipPath>
</defs>
</svg>
