<svg width="16" height="16" viewBox="0 0 16 16" fill="none" xmlns="http://www.w3.org/2000/svg">
<g clip-path="url(#clip0_7204_89760)">
<path d="M7.25709 9.2598L6.0525 13.3888C5.66859 14.7047 7.37677 15.5898 8.23047 14.5173L14.8374 6.21709C15.2285 5.72572 14.8786 5 14.2506 5H12.2211L13.2144 2.35112C13.4596 1.69737 12.9763 1 12.2781 1L8.74235 1C8.99598 1.30711 9.21691 1.64222 9.3998 2H12.2781L11.0314 5.32444C10.9739 5.47799 10.9952 5.65001 11.0886 5.7848C11.182 5.91958 11.3356 6 11.4996 6H13.7321L7.44807 13.8945C7.39569 13.9603 7.34418 13.9826 7.30165 13.9899C7.25305 13.9983 7.19419 13.9902 7.13745 13.9608C7.08072 13.9314 7.04019 13.888 7.01901 13.8434C7.00047 13.8045 6.98892 13.7496 7.01248 13.6688L8.47959 8.64003C8.51138 8.53108 8.50483 8.41591 8.4633 8.31294C8.10843 8.68175 7.70258 9.00115 7.25709 9.2598Z" fill="#B27C00"/>
<path fill-rule="evenodd" clip-rule="evenodd" d="M1.99945 0.758387C2.73947 0.26392 3.6095 0 4.49951 0C5.69299 0 6.83758 0.474106 7.68149 1.31802C8.52541 2.16193 8.99951 3.30653 8.99951 4.5C8.99951 5.39002 8.73559 6.26004 8.24113 7.00007C7.74666 7.74009 7.04386 8.31686 6.22159 8.65746C5.39932 8.99805 4.49452 9.08717 3.62161 8.91353C2.74869 8.7399 1.94687 8.31132 1.31753 7.68198C0.688197 7.05264 0.259613 6.25082 0.08598 5.37791C-0.0876535 4.50499 0.00146148 3.60019 0.342056 2.77792C0.68265 1.95566 1.25943 1.25285 1.99945 0.758387ZM6.71251 4.937L3.74251 6.587C3.6664 6.62932 3.58055 6.65103 3.49347 6.64998C3.40639 6.64893 3.32109 6.62515 3.24603 6.581C3.17096 6.53685 3.10873 6.47386 3.06549 6.39826C3.02225 6.32266 2.99951 6.23708 2.99951 6.15V2.85C2.99951 2.76291 3.02225 2.67733 3.06549 2.60173C3.10873 2.52614 3.17096 2.46315 3.24603 2.41899C3.32109 2.37484 3.40639 2.35106 3.49347 2.35001C3.58055 2.34896 3.6664 2.37067 3.74251 2.413L6.71251 4.063C6.79042 4.10631 6.85533 4.16967 6.90053 4.2465C6.94572 4.32334 6.96955 4.41086 6.96955 4.5C6.96955 4.58914 6.94572 4.67666 6.90053 4.75349C6.85533 4.83033 6.79042 4.89368 6.71251 4.937Z" fill="#11910D"/>
</g>
<defs>
<clipPath id="clip0_7204_89760">
<rect width="16" height="16" fill="white"/>
</clipPath>
</defs>
</svg>
