<svg width="16" height="16" viewBox="0 0 16 16" fill="none" xmlns="http://www.w3.org/2000/svg">
<path d="M6.19898 9.73257C6.65404 10.2054 7.29312 10.5 8 10.5C9.379 10.5 10.5 9.379 10.5 8C10.5 7.29312 10.2054 6.65404 9.73257 6.19898C9.61641 6.557 9.46452 6.89892 9.28112 7.22054C9.41994 7.44785 9.5 7.71476 9.5 8C9.5 8.827 8.827 9.5 8 9.5C7.71476 9.5 7.44785 9.41994 7.22054 9.28112C6.89892 9.46452 6.557 9.61641 6.19898 9.73257Z" fill="#202020"/>
<path d="M9.97758 4C9.94663 3.65659 9.88412 3.32228 9.79297 3H10V1.5C10 1.367 10.052 1.24 10.146 1.146C10.24 1.053 10.367 1 10.5 1C10.633 1 10.76 1.052 10.854 1.146C10.947 1.24 11 1.367 11 1.5V3C11.53 3 12.039 3.211 12.414 3.586C12.789 3.961 13 4.47 13 5H14.5C14.633 5 14.76 5.052 14.854 5.146C14.947 5.24 15 5.367 15 5.5C15 5.633 14.948 5.76 14.854 5.854C14.76 5.947 14.633 6 14.5 6H13V7.5H14.5C14.633 7.5 14.76 7.552 14.854 7.646C14.947 7.74 15 7.867 15 8C15 8.133 14.948 8.26 14.854 8.354C14.76 8.447 14.633 8.5 14.5 8.5H13V10H14.5C14.633 10 14.76 10.052 14.854 10.146C14.947 10.24 15 10.367 15 10.5C15 10.633 14.948 10.76 14.854 10.854C14.76 10.947 14.633 11 14.5 11H13C13 11.53 12.789 12.039 12.414 12.414C12.039 12.789 11.53 13 11 13V14.5C11 14.633 10.948 14.76 10.854 14.854C10.76 14.947 10.633 15 10.5 15C10.367 15 10.24 14.948 10.146 14.854C10.053 14.76 10 14.633 10 14.5V13H8.5V14.5C8.5 14.633 8.448 14.76 8.354 14.854C8.26 14.947 8.133 15 8 15C7.867 15 7.74 14.948 7.646 14.854C7.553 14.76 7.5 14.633 7.5 14.5V13H6V14.5C6 14.633 5.948 14.76 5.854 14.854C5.76 14.947 5.633 15 5.5 15C5.367 15 5.24 14.948 5.146 14.854C5.053 14.76 5 14.633 5 14.5V13C4.47 13 3.961 12.789 3.586 12.414C3.211 12.039 3 11.53 3 11H1.5C1.367 11 1.24 10.948 1.146 10.854C1.053 10.76 1 10.633 1 10.5C1 10.367 1.052 10.24 1.146 10.146C1.24 10.053 1.367 10 1.5 10H3V9.79297C3.32228 9.88412 3.65659 9.94663 4 9.97758V11C4 11.265 4.105 11.519 4.293 11.707C4.48 11.895 4.735 12 5 12H11C11.265 12 11.519 11.894 11.707 11.707C11.895 11.52 12 11.265 12 11V5C12 4.735 11.895 4.481 11.707 4.293C11.52 4.105 11.265 4 11 4H9.97758Z" fill="#202020"/>
<path fill-rule="evenodd" clip-rule="evenodd" d="M1.99994 0.758387C2.73996 0.26392 3.60999 0 4.5 0C5.69348 0 6.83807 0.474106 7.68198 1.31802C8.5259 2.16193 9 3.30653 9 4.5C9 5.39002 8.73608 6.26004 8.24162 7.00007C7.74715 7.74009 7.04434 8.31686 6.22208 8.65746C5.39981 8.99805 4.49501 9.08717 3.6221 8.91353C2.74918 8.7399 1.94736 8.31132 1.31802 7.68198C0.688685 7.05264 0.260102 6.25082 0.0864683 5.37791C-0.0871652 4.50499 0.00194976 3.60019 0.342544 2.77792C0.683138 1.95566 1.25991 1.25285 1.99994 0.758387ZM6.713 4.937L3.743 6.587C3.66689 6.62932 3.58104 6.65103 3.49396 6.64998C3.40688 6.64893 3.32158 6.62515 3.24652 6.581C3.17145 6.53685 3.10922 6.47386 3.06598 6.39826C3.02274 6.32266 3 6.23708 3 6.15V2.85C3 2.76291 3.02274 2.67733 3.06598 2.60173C3.10922 2.52614 3.17145 2.46315 3.24652 2.41899C3.32158 2.37484 3.40688 2.35106 3.49396 2.35001C3.58104 2.34896 3.66689 2.37067 3.743 2.413L6.713 4.063C6.79091 4.10631 6.85582 4.16967 6.90101 4.2465C6.94621 4.32334 6.97004 4.41086 6.97004 4.5C6.97004 4.58914 6.94621 4.67666 6.90101 4.75349C6.85582 4.83033 6.79091 4.89368 6.713 4.937Z" fill="#11910D"/>
</svg>
