<svg width="16" height="16" viewBox="0 0 16 16" fill="none" xmlns="http://www.w3.org/2000/svg">
<path d="M9.79297 3H11.988C12.54 3 12.987 3.447 12.987 3.999V6.498H13.986V3.999H13.985C13.985 2.895 13.091 2 11.987 2L9.40029 2C9.56223 2.31679 9.69436 2.65136 9.79297 3Z" fill="#202020"/>
<path d="M13.985 11.992V10.245H12.987V11.992C12.987 12.544 12.54 12.991 11.988 12.991H3.998C3.446 12.991 2.999 12.544 2.999 11.992V10.245H2V11.992C2 13.096 2.895 13.991 3.998 13.991H5.991V14H6.99V13.991H8.985V14H9.984V13.991H11.987C13.091 13.991 13.985 13.096 13.985 11.992Z" fill="#202020"/>
<path d="M8.23779 8.53475C9.20781 7.6357 9.85305 6.39115 9.97787 4.99674C10.1709 4.9919 10.3502 5.09936 10.437 5.273L11.797 7.995H13.501C13.776 7.995 14 8.219 14 8.495C14 8.771 13.777 8.995 13.501 8.995H11.489C11.3 8.995 11.127 8.888 11.042 8.719L10.041 6.716L8.456 10.68C8.383 10.863 8.209 10.986 8.013 10.994C7.817 11.002 7.634 10.894 7.546 10.718L6.90987 9.44532C7.21164 9.298 7.49793 9.12386 7.76563 8.92601L7.941 9.277L8.23779 8.53475Z" fill="#11910D"/>
<path d="M4.5 1C5.19224 1 5.86893 1.20527 6.4445 1.58986C7.02007 1.97444 7.46867 2.52107 7.73358 3.16061C7.99849 3.80015 8.0678 4.50388 7.93275 5.18282C7.7977 5.86175 7.46436 6.48539 6.97488 6.97487C6.48539 7.46436 5.86175 7.7977 5.18282 7.93275C4.50388 8.0678 3.80015 7.99849 3.16061 7.73358C2.52107 7.46867 1.97444 7.02007 1.58986 6.4445C1.20527 5.86892 1 5.19223 1 4.5C1 3.57174 1.36875 2.6815 2.02513 2.02513C2.68151 1.36875 3.57174 1 4.5 1ZM4.5 0C3.60999 0 2.73996 0.26392 1.99994 0.758387C1.25991 1.25285 0.683138 1.95566 0.342544 2.77792C0.00194976 3.60019 -0.0871652 4.50499 0.0864683 5.37791C0.260102 6.25082 0.688685 7.05264 1.31802 7.68198C1.94736 8.31132 2.74918 8.7399 3.6221 8.91353C4.49501 9.08717 5.39981 8.99805 6.22208 8.65746C7.04434 8.31686 7.74715 7.74009 8.24162 7.00007C8.73608 6.26004 9 5.39002 9 4.5C9 3.90905 8.88361 3.32389 8.65746 2.77792C8.43131 2.23196 8.09985 1.73588 7.68198 1.31802C7.26412 0.900156 6.76804 0.568688 6.22208 0.342542C5.67611 0.116396 5.09095 0 4.5 0Z" fill="#11910D"/>
<path d="M4.00004 3.812L5.09104 4.5L4.00004 5.188V3.812ZM3.44104 2.349C3.31622 2.35723 3.19975 2.41456 3.1171 2.50845C3.03445 2.60234 2.99236 2.72515 3.00004 2.85V6.15C2.99264 6.27468 3.03485 6.39723 3.11747 6.4909C3.20009 6.58458 3.31641 6.64177 3.44104 6.65C3.517 6.64942 3.59123 6.62722 3.65504 6.586L6.27304 4.936C6.34319 4.88673 6.40045 4.82131 6.43997 4.74524C6.4795 4.66918 6.50014 4.58472 6.50014 4.499C6.50014 4.41328 6.4795 4.32882 6.43997 4.25276C6.40045 4.17669 6.34319 4.11126 6.27304 4.062L3.65504 2.413C3.59123 2.37178 3.517 2.34958 3.44104 2.349Z" fill="#11910D"/>
</svg>
