<svg width="16" height="16" viewBox="0 0 16 16" fill="none" xmlns="http://www.w3.org/2000/svg">
<g clip-path="url(#clip0_7204_89859)">
<path d="M9.71483 6.2527C9.80573 6.27999 9.89611 6.30947 9.98592 6.34116C11.1497 6.75179 12.1583 7.51167 12.874 8.51702H12.876C13.1193 8.2791 13.3449 8.02375 13.551 7.75302C12.6901 6.62784 11.5079 5.79058 10.1607 5.35206C10.0888 5.32868 10.0167 5.30649 9.94433 5.28549C9.89672 5.61845 9.81929 5.94178 9.71483 6.2527Z" fill="#5C2E91"/>
<path d="M2.48828 9.62047C2.17686 9.49802 1.87932 9.34799 1.59866 9.17338C1.27887 9.8962 1.08208 10.6721 1.021 11.469C1.01493 11.5359 1.02275 11.6033 1.04399 11.667C1.06522 11.7308 1.09941 11.7894 1.14439 11.8393C1.18938 11.8891 1.24419 11.9291 1.30539 11.9568C1.36659 11.9845 1.43284 11.9992 1.5 12H1.535C1.65481 12.0012 1.77067 11.9572 1.85946 11.8768C1.94825 11.7963 2.00343 11.6854 2.014 11.566C2.06214 10.8916 2.22372 10.2342 2.48828 9.62047Z" fill="#5C2E91"/>
<path d="M13.982 11.537C13.9333 10.9206 13.7896 10.3155 13.556 9.74302C13.8181 9.49093 14.0623 9.22095 14.287 8.93502C14.6782 9.72797 14.9141 10.5884 14.982 11.47C14.9879 11.5371 14.9799 11.6046 14.9584 11.6684C14.937 11.7322 14.9025 11.7909 14.8572 11.8407C14.8119 11.8905 14.7568 11.9304 14.6953 11.9578C14.6338 11.9852 14.5673 11.9996 14.5 12H14.463C14.339 11.9984 14.2203 11.9496 14.1309 11.8636C14.0416 11.7776 13.9883 11.6609 13.982 11.537Z" fill="#5C2E91"/>
<path d="M6.22022 9.72563C5.67905 9.90368 5.10077 10 4.5 10C4.47311 10 4.44626 9.99981 4.41947 9.99942C5.49508 10.6495 6.73226 10.9983 8 11C9.76384 10.9977 11.462 10.3305 12.7556 9.1314C14.0492 7.93234 14.8431 6.28963 14.979 4.53103C14.9851 4.46414 14.9772 4.39672 14.956 4.33301C14.9348 4.26929 14.9006 4.21066 14.8556 4.16079C14.8106 4.11092 14.7558 4.0709 14.6946 4.04323C14.6334 4.01557 14.5672 4.00086 14.5 4.00003H14.462C14.3424 3.99906 14.2268 4.04318 14.1382 4.1236C14.0496 4.20402 13.9946 4.31485 13.984 4.43403C13.873 5.94567 13.1945 7.35942 12.0846 8.39173C10.9748 9.42404 9.51571 9.99855 8 10C7.39192 9.99951 6.79209 9.90573 6.22022 9.72563Z" fill="#006CBF"/>
<path fill-rule="evenodd" clip-rule="evenodd" d="M1.99994 0.758387C2.73996 0.26392 3.60999 0 4.5 0C5.69348 0 6.83807 0.474106 7.68198 1.31802C8.5259 2.16193 9 3.30653 9 4.5C9 5.39002 8.73608 6.26004 8.24162 7.00007C7.74715 7.74009 7.04434 8.31686 6.22208 8.65746C5.39981 8.99805 4.49501 9.08717 3.6221 8.91353C2.74918 8.7399 1.94736 8.31132 1.31802 7.68198C0.688685 7.05264 0.260102 6.25082 0.0864683 5.37791C-0.0871652 4.50499 0.00194976 3.60019 0.342544 2.77792C0.683138 1.95566 1.25991 1.25285 1.99994 0.758387ZM6.713 4.937L3.743 6.587C3.66689 6.62932 3.58104 6.65103 3.49396 6.64998C3.40688 6.64893 3.32158 6.62515 3.24652 6.581C3.17145 6.53685 3.10922 6.47386 3.06598 6.39826C3.02274 6.32266 3 6.23708 3 6.15V2.85C3 2.76291 3.02274 2.67733 3.06598 2.60173C3.10922 2.52614 3.17145 2.46315 3.24652 2.41899C3.32158 2.37484 3.40688 2.35106 3.49396 2.35001C3.58104 2.34896 3.66689 2.37067 3.743 2.413L6.713 4.063C6.79091 4.10631 6.85582 4.16967 6.90101 4.2465C6.94621 4.32334 6.97004 4.41086 6.97004 4.5C6.97004 4.58914 6.94621 4.67666 6.90101 4.75349C6.85582 4.83033 6.79091 4.89368 6.713 4.937Z" fill="#11910D"/>
</g>
<defs>
<clipPath id="clip0_7204_89859">
<rect width="16" height="16" fill="white"/>
</clipPath>
</defs>
</svg>
