<svg width="16" height="16" viewBox="0 0 16 16" fill="none" xmlns="http://www.w3.org/2000/svg">
<g clip-path="url(#clip0_7204_95363)">
<path fill-rule="evenodd" clip-rule="evenodd" d="M10.427 15H10.573V14.997C10.893 14.995 11.204 14.886 11.454 14.687C11.705 14.488 11.881 14.21 11.955 13.898C12.029 13.586 11.995 13.259 11.86 12.969C11.725 12.679 11.496 12.442 11.211 12.297L10.235 11.808C10.164 11.773 10.104 11.719 10.063 11.651C10.021 11.584 10 11.506 10 11.427C10 11.314 10.045 11.205 10.125 11.125C10.205 11.045 10.314 11 10.427 11H10.573C10.686 11 10.795 11.045 10.875 11.125C10.955 11.205 11 11.314 11 11.427V11.5C11.001 11.563 11.015 11.625 11.041 11.683C11.066 11.742 11.104 11.794 11.151 11.837C11.197 11.881 11.252 11.915 11.312 11.937C11.372 11.959 11.436 11.968 11.5 11.964C11.636 11.955 11.764 11.895 11.857 11.795C11.95 11.695 12.001 11.563 12 11.427C12 11.049 11.85 10.686 11.582 10.418C11.314 10.15 10.951 9.99999 10.573 9.99999H10.427C10.107 10.002 9.79601 10.111 9.54601 10.31C9.29501 10.509 9.11901 10.787 9.04501 11.099C8.97101 11.411 9.00501 11.738 9.14001 12.029C9.27501 12.319 9.50401 12.556 9.78901 12.701L10.765 13.193C10.836 13.228 10.895 13.283 10.937 13.35C10.979 13.417 11 13.495 11 13.574C11 13.687 10.955 13.796 10.875 13.876C10.795 13.956 10.686 14.001 10.573 14.001H10.427C10.365 13.998 10.305 13.983 10.249 13.956C10.166 13.915 10.097 13.849 10.053 13.768C10.008 13.686 9.99001 13.593 10 13.501C9.99901 13.438 9.98501 13.376 9.96001 13.318C9.93401 13.26 9.89601 13.207 9.84901 13.164C9.80301 13.12 9.74801 13.086 9.68801 13.064C9.62801 13.042 9.56401 13.033 9.50001 13.037C9.36401 13.046 9.23601 13.106 9.14301 13.206C9.05001 13.306 8.99901 13.438 9.00001 13.574C9.00001 13.952 9.15001 14.315 9.41801 14.583C9.68601 14.851 10.049 15.001 10.427 15.001V15ZM2.57301 15H2.42701C2.04901 15 1.68601 14.85 1.41801 14.582C1.15001 14.314 1.00001 13.952 1.00001 13.573C0.999014 13.437 1.05001 13.305 1.14301 13.205C1.23601 13.105 1.36401 13.045 1.50001 13.036C1.56401 13.032 1.62801 13.041 1.68801 13.063C1.74801 13.085 1.80301 13.119 1.84901 13.163C1.89601 13.206 1.93401 13.259 1.96001 13.317C1.98501 13.375 1.99901 13.437 2.00001 13.5C1.99001 13.592 2.00801 13.685 2.05301 13.767C2.09801 13.848 2.16601 13.914 2.24901 13.955C2.30501 13.982 2.36501 13.997 2.42701 14H2.57301C2.68601 14 2.79501 13.955 2.87501 13.875C2.95501 13.795 3.00001 13.686 3.00001 13.573C3.00001 13.494 2.97801 13.416 2.93701 13.349C2.89501 13.282 2.83601 13.227 2.76501 13.192L1.78901 12.7C1.50301 12.555 1.27501 12.319 1.14001 12.028C1.00501 11.738 0.972014 11.41 1.04501 11.098C1.11901 10.786 1.29501 10.509 1.54601 10.309C1.79701 10.11 2.10701 9.99999 2.42701 9.99899H2.57301C2.95101 9.99899 3.31401 10.149 3.58201 10.417C3.85001 10.685 4.00001 11.048 4.00001 11.426C4.00101 11.562 3.95001 11.694 3.85701 11.794C3.76401 11.894 3.63601 11.954 3.50001 11.963C3.43601 11.967 3.37201 11.958 3.31201 11.936C3.25201 11.914 3.19701 11.88 3.15101 11.836C3.10401 11.793 3.06601 11.74 3.04001 11.682C3.01501 11.624 3.00101 11.562 3.00001 11.499V11.426C3.00001 11.313 2.95501 11.204 2.87501 11.124C2.79501 11.044 2.68601 10.999 2.57301 10.999H2.42701C2.31401 10.999 2.20501 11.044 2.12501 11.124C2.04501 11.204 2.00001 11.313 2.00001 11.426C2.00001 11.505 2.02201 11.583 2.06301 11.65C2.10501 11.717 2.16401 11.772 2.23501 11.807L3.21101 12.296C3.49801 12.44 3.72901 12.676 3.86501 12.968C4.00101 13.259 4.03501 13.588 3.96101 13.9C3.88701 14.213 3.71001 14.491 3.45801 14.691C3.20601 14.891 2.89401 14.999 2.57301 14.999V15ZM14.427 15H14.573V14.997C14.893 14.995 15.204 14.886 15.454 14.687C15.705 14.488 15.881 14.21 15.955 13.898C16.029 13.586 15.995 13.259 15.86 12.969C15.725 12.679 15.496 12.442 15.211 12.297L14.235 11.808C14.164 11.773 14.104 11.719 14.063 11.651C14.021 11.584 14 11.506 14 11.427C14 11.314 14.045 11.205 14.125 11.125C14.205 11.045 14.314 11 14.427 11H14.573C14.686 11 14.795 11.045 14.875 11.125C14.955 11.205 15 11.314 15 11.427V11.5C15.001 11.563 15.015 11.625 15.04 11.683C15.066 11.741 15.104 11.794 15.151 11.837C15.197 11.881 15.252 11.915 15.312 11.937C15.372 11.959 15.436 11.968 15.5 11.964C15.636 11.955 15.764 11.895 15.857 11.795C15.95 11.695 16.001 11.563 16 11.427C16 11.049 15.85 10.686 15.582 10.418C15.314 10.15 14.951 9.99999 14.573 9.99999H14.427C14.107 10.002 13.796 10.111 13.546 10.31C13.296 10.509 13.119 10.787 13.045 11.099C12.971 11.411 13.005 11.738 13.14 12.029C13.275 12.319 13.504 12.556 13.789 12.701L14.765 13.193C14.836 13.228 14.896 13.282 14.937 13.35C14.979 13.417 15 13.495 15 13.574C15 13.687 14.955 13.796 14.875 13.876C14.795 13.956 14.686 14.001 14.573 14.001H14.427C14.365 13.999 14.304 13.983 14.249 13.956C14.165 13.916 14.096 13.85 14.052 13.768C14.007 13.686 13.989 13.593 14 13.501C13.999 13.438 13.985 13.376 13.96 13.318C13.934 13.26 13.896 13.207 13.849 13.164C13.803 13.12 13.748 13.086 13.688 13.064C13.628 13.042 13.564 13.033 13.5 13.037C13.364 13.046 13.236 13.106 13.143 13.206C13.05 13.306 12.999 13.438 13 13.574C13 13.952 13.15 14.315 13.418 14.583C13.686 14.851 14.049 15.001 14.427 15.001V15ZM6.50001 9.99999C6.70801 9.99999 6.89501 10.129 6.96801 10.324L8.46801 14.324C8.56501 14.583 8.43401 14.871 8.17501 14.968C7.91601 15.065 7.62801 14.934 7.53101 14.675L7.27801 13.999H5.72101L5.46801 14.675C5.37101 14.934 5.08301 15.064 4.82401 14.968C4.56501 14.871 4.43401 14.583 4.53101 14.324L6.03101 10.324C6.10401 10.129 6.29101 9.99999 6.49901 9.99999H6.50001ZM6.09601 13H6.90301L6.49901 11.924L6.09501 13H6.09601Z" fill="#E43BA6"/>
<path fill-rule="evenodd" clip-rule="evenodd" d="M4.289 9.711C4.543 9.965 4.736 10.274 4.857 10.61L5 10.228V3C5 2.735 5.105 2.48 5.293 2.293C5.481 2.105 5.735 2 6 2H9V4.5C9 4.898 9.158 5.279 9.439 5.561C9.72 5.843 10.102 6 10.5 6H13V9.476C13.13 9.38 13.27 9.3 13.417 9.233C13.452 9.217 13.486 9.201 13.522 9.186C13.677 9.123 13.836 9.071 14 9.041V5.41C13.998 5.013 13.84 4.632 13.56 4.35L10.65 1.44C10.368 1.16 9.987 1.002 9.59 1H6C5.47 1.002 4.962 1.213 4.588 1.588C4.213 1.963 4.002 2.471 4 3V9.475C4.101 9.548 4.201 9.623 4.289 9.711ZM10 2.21L12.79 5H10.5C10.367 5 10.24 4.947 10.146 4.854C10.052 4.761 10 4.633 10 4.5V2.21Z" fill="#202020"/>
</g>
<defs>
<clipPath id="clip0_7204_95363">
<rect width="16" height="16" fill="white"/>
</clipPath>
</defs>
</svg>
