<svg width="16" height="16" viewBox="0 0 16 16" fill="none" xmlns="http://www.w3.org/2000/svg">
<path d="M4 5H2C1.448 5 1 4.552 1 4V2C1 1.448 1.448 1 2 1H4C4.552 1 5 1.448 5 2V4C5 4.552 4.552 5 4 5ZM2 2V4H4V2H2ZM4 10H2C1.448 10 1 9.552 1 9V7C1 6.448 1.448 6 2 6H4C4.552 6 5 6.448 5 7V9C5 9.552 4.552 10 4 10ZM2 7V9H4V7H2ZM4 15H2C1.448 15 1 14.552 1 14V12C1 11.448 1.448 11 2 11H4C4.552 11 5 11.448 5 12V14C5 14.552 4.552 15 4 15ZM2 12V14H4V12H2ZM9 10H7C6.448 10 6 9.552 6 9V7C6 6.448 6.448 6 7 6H9C9.552 6 10 6.448 10 7V9C10 9.552 9.552 10 9 10ZM7 7V9H9V7H7ZM9 15H7C6.448 15 6 14.552 6 14V12C6 11.448 6.448 11 7 11H9C9.552 11 10 11.448 10 12V14C10 14.552 9.552 15 9 15ZM7 12V14H9V12H7ZM14 15H12C11.448 15 11 14.552 11 14V12C11 11.448 11.448 11 12 11H14C14.552 11 15 11.448 15 12V14C15 14.552 14.552 15 14 15ZM12 12V14H14V12H12ZM15 6.5C15 6.224 14.776 6 14.5 6H11.5C11.224 6 11 6.224 11 6.5C11 6.776 11.224 7 11.5 7H14.5C14.776 7 15 6.776 15 6.5ZM15 8.5C15 8.224 14.776 8 14.5 8H12.5C12.224 8 12 8.224 12 8.5C12 8.776 12.224 9 12.5 9H14.5C14.776 9 15 8.776 15 8.5ZM15 3.5C15 3.224 14.776 3 14.5 3H13.5C13.224 3 13 3.224 13 3.5C13 3.776 13.224 4 13.5 4H14.5C14.776 4 15 3.776 15 3.5ZM12 3.5C12 3.224 11.776 3 11.5 3H8.5C8.224 3 8 3.224 8 3.5C8 3.776 8.224 4 8.5 4H11.5C11.776 4 12 3.776 12 3.5ZM15 1.5C15 1.224 14.776 1 14.5 1H12.5C12.224 1 12 1.224 12 1.5C12 1.776 12.224 2 12.5 2H14.5C14.776 2 15 1.776 15 1.5ZM11 1.5C11 1.224 10.776 1 10.5 1H7.5C7.224 1 7 1.224 7 1.5C7 1.776 7.224 2 7.5 2H10.5C10.776 2 11 1.776 11 1.5Z" fill="#202020"/>
</svg>
