<svg width="16" height="16" viewBox="0 0 16 16" fill="none" xmlns="http://www.w3.org/2000/svg">
<g clip-path="url(#clip0_7204_95526)">
<path fill-rule="evenodd" clip-rule="evenodd" d="M7.43901 3.432C7.72001 3.15 8.10201 2.993 8.50001 2.993C8.89801 2.993 9.27901 3.151 9.56101 3.432C9.84301 3.713 10 4.095 10 4.493V6.493C10 6.56171 9.9953 6.62991 9.98606 6.69718C9.87913 6.82173 9.78743 6.95955 9.71351 7.10787L9.43365 7.66758C9.16971 7.87721 8.84072 7.993 8.50001 7.993C8.10201 7.993 7.72101 7.835 7.43901 7.554C7.15801 7.273 7.00001 6.891 7.00001 6.493V4.493C7.00001 4.095 7.15801 3.714 7.43901 3.432ZM8.85401 6.847C8.94801 6.754 9.00001 6.626 9.00001 6.493V4.493C9.00001 4.36 8.94701 4.233 8.85401 4.139C8.76001 4.045 8.63301 3.993 8.50001 3.993C8.36701 3.993 8.24001 4.046 8.14601 4.139C8.05201 4.233 8.00001 4.36 8.00001 4.493V6.493C8.00001 6.626 8.05301 6.753 8.14601 6.847C8.23901 6.941 8.36701 6.993 8.50001 6.993C8.63301 6.993 8.76001 6.94 8.85401 6.847Z" fill="#202020"/>
<path d="M8.76744 9H7.00001C6.73501 9 6.48101 8.895 6.29301 8.707C6.10501 8.52 6.00001 8.265 6.00001 8V3C6.00001 2.735 6.10501 2.481 6.29301 2.293C6.48001 2.105 6.73501 2 7.00001 2H13C13.265 2 13.52 2.105 13.707 2.293C13.895 2.48 14 2.735 14 3V8C14 8.12977 13.9748 8.25691 13.927 8.37494L14.4356 9.39207C14.7999 9.01669 15 8.52374 15 8V3C15 2.466 14.792 1.964 14.414 1.586C14.036 1.208 13.534 1 13 1H7.00001C6.46601 1 5.96401 1.208 5.58601 1.586C5.20801 1.964 5.00001 2.466 5.00001 3V7.337C5.34401 7.536 5.59501 7.864 5.69701 8.248C5.79901 8.628 5.74601 9.032 5.55201 9.373C5.55741 9.37885 5.56221 9.38511 5.56703 9.39141C5.57292 9.3991 5.57886 9.40685 5.58601 9.414C5.96401 9.792 6.46601 10 7.00001 10H8.26744L8.76744 9Z" fill="#202020"/>
<path d="M7.76736 11.0002C7.76291 11.0001 7.75846 11 7.75401 11C7.62101 11 7.49401 11.053 7.40001 11.147L6.31001 12.235L5.72801 11.42C5.64601 11.305 5.54001 11.21 5.41701 11.141C5.29401 11.072 5.15801 11.031 5.01701 11.02C4.87501 11.006 4.73201 11.024 4.59901 11.073C4.46601 11.122 4.34501 11.2 4.24601 11.302L4.14601 11.402C4.05501 11.496 4.00501 11.623 4.00601 11.754C4.00701 11.885 4.06101 12.01 4.15301 12.103C4.24501 12.196 4.37101 12.249 4.50201 12.249C4.63401 12.25 4.76001 12.199 4.85401 12.108L4.91801 12.001L5.59201 12.947L4.39201 14.147C4.29801 14.241 4.24501 14.368 4.24501 14.501C4.24501 14.634 4.29801 14.761 4.39201 14.855C4.48601 14.949 4.61301 15.002 4.74601 15.002C4.87901 15.002 5.00601 14.949 5.10001 14.855L6.19001 13.777L6.3011 13.9327L7.76736 11.0002Z" fill="#202020"/>
<path d="M13 6.67316V3.494C13 3.376 12.958 3.261 12.881 3.17C12.804 3.079 12.697 3.019 12.58 3C12.463 2.981 12.343 3.004 12.241 3.066C12.139 3.127 12.062 3.223 12.025 3.336C11.964 3.491 11.873 3.632 11.755 3.75C11.638 3.868 11.497 3.96 11.342 4.02C11.277 4.039 11.217 4.07 11.165 4.113C11.113 4.156 11.07 4.208 11.039 4.268C11.008 4.328 10.989 4.393 10.984 4.46C10.979 4.527 10.987 4.594 11.008 4.658C11.03 4.722 11.064 4.781 11.108 4.831C11.152 4.881 11.206 4.922 11.267 4.951C11.328 4.98 11.394 4.996 11.461 4.999C11.528 5.001 11.595 4.991 11.658 4.967C11.777 4.928 11.891 4.877 12 4.816V6.06261C12.1954 6.11267 12.3829 6.19223 12.5561 6.29937C12.7222 6.40222 12.8716 6.52833 13 6.67316Z" fill="#202020"/>
<path d="M3.20001 10.001L3.25401 9.451H3.25101C3.26301 9.37 3.29401 9.293 3.34201 9.226C3.39001 9.16 3.45301 9.105 3.52601 9.068C3.59901 9.031 3.68001 9.011 3.76201 9.011C3.84401 9.01 3.92501 9.03 3.99801 9.067C4.05501 9.1 4.11801 9.122 4.18301 9.131C4.24901 9.14 4.31501 9.136 4.37901 9.119C4.44301 9.102 4.50301 9.073 4.55501 9.033C4.60701 8.993 4.65101 8.944 4.68401 8.886C4.71701 8.828 4.73901 8.765 4.74701 8.7C4.75601 8.635 4.75101 8.569 4.73401 8.505C4.71701 8.442 4.68701 8.382 4.64701 8.33C4.60701 8.278 4.55601 8.235 4.49901 8.202C4.28101 8.076 4.03601 8.007 3.78501 8.001C3.53501 7.995 3.28601 8.052 3.06301 8.167C2.84001 8.282 2.64901 8.45 2.50801 8.658C2.36701 8.866 2.28001 9.105 2.25601 9.355L2.19301 10.002H1.74901C1.61601 10.002 1.48801 10.054 1.39501 10.148C1.30201 10.242 1.24901 10.369 1.24901 10.502C1.24901 10.635 1.30101 10.762 1.39501 10.856C1.48901 10.949 1.61601 11.002 1.74901 11.002H2.09901L1.75101 14.552C1.73701 14.64 1.69901 14.724 1.64301 14.794C1.58601 14.864 1.51301 14.918 1.42901 14.951C1.34601 14.984 1.25501 14.994 1.16601 14.981C1.07701 14.968 0.993006 14.932 0.922006 14.877C0.822006 14.793 0.693006 14.751 0.563006 14.761C0.432006 14.771 0.311006 14.831 0.225006 14.929C0.139006 15.027 0.0940061 15.155 0.101006 15.285C0.108006 15.416 0.165006 15.538 0.261006 15.627C0.468006 15.809 0.722006 15.931 0.994006 15.979C1.26601 16.026 1.54601 15.998 1.80301 15.897C2.06001 15.796 2.28501 15.625 2.45101 15.405C2.61701 15.185 2.72001 14.923 2.74701 14.648L3.10001 11.001H3.50001C3.63301 11.001 3.76001 10.949 3.85401 10.855C3.94701 10.761 4.00001 10.634 4.00001 10.501C4.00001 10.368 3.94801 10.241 3.85401 10.147C3.76001 10.054 3.63301 10.001 3.50001 10.001H3.20001Z" fill="#202020"/>
<path fill-rule="evenodd" clip-rule="evenodd" d="M12.3931 7.55201L15.8931 14.552C15.9694 14.7044 16.0056 14.8738 15.9981 15.044C15.9906 15.2143 15.9397 15.3799 15.8502 15.5249C15.7607 15.67 15.6357 15.7898 15.4869 15.8729C15.3381 15.9561 15.1705 15.9998 15.0001 16H8.00006C7.8292 16.0007 7.66101 15.9576 7.51154 15.8748C7.36207 15.792 7.23631 15.6723 7.14625 15.5271C7.0562 15.3818 7.00486 15.216 6.99712 15.0453C6.98938 14.8746 7.02551 14.7048 7.10206 14.552L10.6021 7.55201C10.6849 7.38534 10.8126 7.24509 10.9708 7.14705C11.129 7.04901 11.3114 6.99707 11.4976 6.99707C11.6837 6.99707 11.8661 7.04901 12.0243 7.14705C12.1825 7.24509 12.3102 7.38534 12.3931 7.55201ZM12 12.495V9.495C12 9.36239 11.9473 9.23521 11.8536 9.14144C11.7598 9.04767 11.6326 8.995 11.5 8.995C11.3674 8.995 11.2402 9.04767 11.1464 9.14144C11.0527 9.23521 11 9.36239 11 9.495V12.495C11 12.6276 11.0527 12.7548 11.1464 12.8485C11.2402 12.9423 11.3674 12.995 11.5 12.995C11.6326 12.995 11.7598 12.9423 11.8536 12.8485C11.9473 12.7548 12 12.6276 12 12.495ZM11.2222 14.0843C11.3044 14.0293 11.4011 14 11.5 14C11.6326 14 11.7598 14.0527 11.8536 14.1464C11.9473 14.2402 12 14.3674 12 14.5C12 14.5989 11.9707 14.6956 11.9157 14.7778C11.8608 14.86 11.7827 14.9241 11.6913 14.9619C11.6 14.9998 11.4994 15.0097 11.4025 14.9904C11.3055 14.9711 11.2164 14.9235 11.1464 14.8535C11.0765 14.7836 11.0289 14.6945 11.0096 14.5975C10.9903 14.5006 11.0002 14.4 11.0381 14.3087C11.0759 14.2173 11.14 14.1392 11.2222 14.0843Z" fill="#B27C00"/>
</g>
<defs>
<clipPath id="clip0_7204_95526">
<rect width="16" height="16" fill="white"/>
</clipPath>
</defs>
</svg>
