<svg width="16" height="16" viewBox="0 0 16 16" fill="none" xmlns="http://www.w3.org/2000/svg">
<path d="M14.25 4.5C14.25 3.71 13.72 3.048 13 2.832V1.5C13 1.224 12.776 1 12.5 1C12.224 1 12 1.224 12 1.5V2.832C11.28 3.049 10.75 3.71 10.75 4.5C10.75 5.263 11.244 5.907 11.927 6.146C11.799 6.836 11.478 7.476 10.977 7.977C10.966 7.988 10.951 7.999 10.94 8.01C10.624 7.552 10.097 7.251 9.5 7.251C8.535 7.251 7.75 8.036 7.75 9.001H6.5C6.171 9.001 5.859 9.047 5.557 9.116C5.262 8.89 4.898 8.751 4.5 8.751C3.535 8.751 2.75 9.536 2.75 10.501C2.75 10.658 2.778 10.808 2.817 10.952C2.291 11.708 2 12.579 2 13.501V14.501C2 14.777 2.224 15.001 2.5 15.001C2.776 15.001 3 14.777 3 14.501V13.501C3 12.922 3.144 12.366 3.415 11.863C3.714 12.102 4.088 12.251 4.5 12.251C5.465 12.251 6.25 11.466 6.25 10.501C6.25 10.334 6.219 10.177 6.175 10.024C6.282 10.014 6.388 10.001 6.5 10.001H8.068C8.385 10.453 8.908 10.751 9.5 10.751C10.447 10.751 11.216 9.994 11.245 9.054C11.408 8.932 11.558 8.81 11.684 8.684C12.361 8.007 12.782 7.131 12.927 6.192C13.685 6 14.25 5.317 14.25 4.5ZM4.5 11.25C4.194 11.25 3.933 11.065 3.816 10.802C3.812 10.794 3.811 10.785 3.806 10.776C3.772 10.69 3.75 10.598 3.75 10.5C3.75 10.086 4.086 9.75 4.5 9.75C4.914 9.75 5.25 10.086 5.25 10.5C5.25 10.914 4.914 11.25 4.5 11.25ZM9.5 9.75C9.198 9.75 8.94 9.568 8.822 9.31C8.818 9.301 8.812 9.295 8.808 9.286C8.771 9.198 8.75 9.101 8.75 8.999C8.75 8.585 9.086 8.249 9.5 8.249C9.914 8.249 10.25 8.585 10.25 8.999C10.25 9.413 9.914 9.749 9.5 9.749V9.75ZM12.5 5.25C12.086 5.25 11.75 4.914 11.75 4.5C11.75 4.086 12.086 3.75 12.5 3.75C12.914 3.75 13.25 4.086 13.25 4.5C13.25 4.914 12.914 5.25 12.5 5.25Z" fill="#3487C7"/>
<path d="M14.5 15H1.5C1.224 15 1 14.776 1 14.5V1.5C1 1.224 1.224 1 1.5 1C1.776 1 2 1.224 2 1.5V14H14.5C14.776 14 15 14.224 15 14.5C15 14.776 14.776 15 14.5 15Z" fill="#202020"/>
</svg>
