<svg width="16" height="16" viewBox="0 0 16 16" fill="none" xmlns="http://www.w3.org/2000/svg">
<path d="M13 9.909C13.208 9.836 13.401 9.721 13.561 9.561L14 9.121V11.5C14 12.881 12.881 14 11.5 14H4.5C3.119 14 2 12.881 2 11.5V4.5C2 3.119 3.119 2 4.5 2H7V2.5C7 2.676 7.036 2.843 7.092 3H4.5C3.672 3 3 3.672 3 4.5V11.5C3 12.328 3.672 13 4.5 13H11.5C12.328 13 13 12.328 13 11.5V9.909Z" fill="#202020"/>
<path d="M11.89 3.0578C11.96 2.8848 12 2.6968 12 2.4998V2.0498C13.141 2.2818 14 3.2908 14 4.4998V4.8788L13.561 4.4398C13.383 4.2618 13.165 4.1398 12.93 4.0698C12.781 3.5768 12.389 3.1928 11.89 3.0578Z" fill="#202020"/>
<path d="M10.5 3H8.5C8.224 3 8 2.776 8 2.5V0.5C8 0.224 8.224 0 8.5 0H10.5C10.776 0 11 0.224 11 0.5V2.5C11 2.776 10.776 3 10.5 3ZM9 2H10V1H9V2ZM12.5 9C12.372 9 12.244 8.951 12.146 8.854L10.646 7.354C10.451 7.159 10.451 6.842 10.646 6.647L12.146 5.147C12.341 4.952 12.658 4.952 12.853 5.147L14.353 6.647C14.548 6.842 14.548 7.159 14.353 7.354L12.853 8.854C12.755 8.952 12.627 9 12.499 9H12.5ZM11.707 7L12.5 7.793L13.293 7L12.5 6.207L11.707 7ZM6.5 7H4.5C4.224 7 4 6.776 4 6.5V4.5C4 4.224 4.224 4 4.5 4H6.5C6.776 4 7 4.224 7 4.5V6.5C7 6.776 6.776 7 6.5 7ZM5 6H6V5H5V6ZM6.5 12C6.302 12 6.114 11.881 6.036 11.686L5.036 9.186C4.933 8.93 5.057 8.639 5.314 8.537L7.814 7.537C8.07 7.433 8.361 7.559 8.463 7.815L9.463 10.315C9.566 10.571 9.442 10.862 9.185 10.964L6.685 11.964C6.624 11.988 6.562 12 6.5 12ZM6.15 9.278L6.778 10.849L8.349 10.221L7.721 8.65L6.15 9.278Z" fill="#006CBF"/>
</svg>
