<svg width="16" height="16" viewBox="0 0 16 16" fill="none" xmlns="http://www.w3.org/2000/svg">
<g clip-path="url(#clip0_7204_95563)">
<path fill-rule="evenodd" clip-rule="evenodd" d="M7.5 3.5C7.5 2.11929 8.61929 1 10 1C11.3807 1 12.5 2.11929 12.5 3.5C12.5 4.70966 11.6409 5.71865 10.4995 5.95009V6.99994H12.6337C13.3884 6.99994 14.0002 7.61178 14.0002 8.36653V10.0501C15.1412 10.2818 16 11.2906 16 12.5C16 13.8807 14.8807 15 13.5 15C12.1193 15 11 13.8807 11 12.5C11 11.2904 11.859 10.2815 13.0002 10.05V8.36653C13.0002 8.16407 12.8361 7.99994 12.6337 7.99994H7.771C7.64579 7.64881 7.47725 7.3137 7.26946 7.00335C7.30162 7.00109 7.3341 6.99994 7.36684 6.99994H9.4995V5.94989C8.35863 5.71806 7.5 4.7093 7.5 3.5ZM10 2C9.17157 2 8.5 2.67157 8.5 3.5C8.5 4.32843 9.17157 5 10 5C10.8284 5 11.5 4.32843 11.5 3.5C11.5 2.67157 10.8284 2 10 2ZM15 12.5C15 11.6716 14.3284 11 13.5 11C12.6716 11 12 11.6716 12 12.5C12 13.3284 12.6716 14 13.5 14C14.3284 14 15 13.3284 15 12.5Z" fill="#202020"/>
<path d="M2.75809 6.33501C2.76709 6.26601 2.79409 6.20101 2.83709 6.14601C2.88009 6.09101 2.93609 6.04901 3.00009 6.02401C3.03509 6.01001 3.07109 6.00201 3.10809 5.99801C3.70209 5.92801 4.30509 6.01201 4.85809 6.24001C5.41109 6.46801 5.89709 6.83301 6.27009 7.30101C6.64309 7.76901 6.89009 8.32401 6.98809 8.91501C7.08609 9.50601 7.03309 10.111 6.83209 10.674L9.55809 13.4C9.70409 13.539 9.82009 13.705 9.90009 13.89C9.98009 14.074 10.0231 14.273 10.0251 14.474C10.0271 14.675 9.99009 14.875 9.91409 15.061C9.83809 15.247 9.72609 15.417 9.58409 15.559C9.44209 15.701 9.27309 15.814 9.08609 15.889C8.90009 15.965 8.70009 16.003 8.49909 16C8.29809 15.998 8.09909 15.955 7.91509 15.875C7.73109 15.795 7.56409 15.678 7.42509 15.533L4.69909 12.807C4.13509 13.008 3.53009 13.062 2.94009 12.963C2.35009 12.865 1.79409 12.617 1.32609 12.245C0.858086 11.872 0.493086 11.386 0.265086 10.833C0.037086 10.28 -0.045914 9.67801 0.023086 9.08301C0.035086 9.00201 0.070086 8.92701 0.124086 8.86601C0.178086 8.80501 0.248086 8.76101 0.326086 8.73801C0.404086 8.71601 0.487086 8.71701 0.565086 8.74101C0.643086 8.76501 0.712086 8.81101 0.765086 8.87301L1.74009 9.84801C2.02509 10.119 2.40509 10.269 2.79809 10.264C3.19209 10.259 3.56809 10.101 3.84609 9.82201C4.12409 9.54401 4.28309 9.16801 4.28809 8.77401C4.29309 8.38001 4.14409 8.00101 3.87209 7.71601L2.89709 6.74101C2.82509 6.67001 2.77709 6.58001 2.75909 6.48101C2.75109 6.43301 2.75009 6.38401 2.75709 6.33601L2.75809 6.33501Z" fill="#202020"/>
</g>
<defs>
<clipPath id="clip0_7204_95563">
<rect width="16" height="16" fill="white"/>
</clipPath>
</defs>
</svg>
