<svg width="16" height="16" viewBox="0 0 16 16" fill="none" xmlns="http://www.w3.org/2000/svg">
<path d="M10.354 5.64625L7.85398 3.14625C7.65898 2.95125 7.34198 2.95125 7.14698 3.14625L4.64698 5.64625C4.45198 5.84125 4.45198 6.15825 4.64698 6.35325C4.84198 6.54825 5.15898 6.54825 5.35398 6.35325L6.99998 4.70725V10.5002C6.99998 10.7762 7.22398 11.0002 7.49998 11.0002C7.77598 11.0002 7.99998 10.7762 7.99998 10.5002V4.70725L9.64598 6.35325C9.74398 6.45125 9.87198 6.49925 9.99998 6.49925C10.128 6.49925 10.256 6.45025 10.354 6.35325C10.549 6.15825 10.549 5.84125 10.354 5.64625Z" fill="#006CBF"/>
<path d="M12.5 14H2.5C2.224 14 2 13.776 2 13.5C2 13.224 2.224 13 2.5 13H12.5C12.776 13 13 13.224 13 13.5C13 13.776 12.776 14 12.5 14Z" fill="#202020"/>
</svg>
