<svg width="16" height="16" viewBox="0 0 16 16" fill="none" xmlns="http://www.w3.org/2000/svg">
<path fill-rule="evenodd" clip-rule="evenodd" d="M4 3C4 1.89543 4.89543 1 6 1H9.58579C9.98361 1 10.3651 1.15804 10.6464 1.43934L13.5607 4.35355C13.842 4.63486 14 5.01639 14 5.41421V13C14 14.1046 13.1046 15 12 15H8.74284C8.99647 14.6929 9.21739 14.3578 9.40029 14H12C12.5523 14 13 13.5523 13 13V6H10.5C9.67157 6 9 5.32843 9 4.5V2H6C5.44772 2 5 2.44772 5 3V6.02242C4.83532 6.00758 4.66854 6 4.5 6C4.33146 6 4.16468 6.00758 4 6.02242V3ZM10.5 5H12.7929L10 2.20711V4.5C10 4.77614 10.2239 5 10.5 5Z" fill="#202020"/>
<path d="M4.5 7C2.019 7 0 9.019 0 11.5C0 13.981 2.019 16 4.5 16C6.981 16 9 13.981 9 11.5C9 9.019 6.981 7 4.5 7ZM4.5 15C2.57 15 1 13.43 1 11.5C1 9.57 2.57 8 4.5 8C6.43 8 8 9.57 8 11.5C8 13.43 6.43 15 4.5 15ZM7 11.5C7 12.881 5.881 14 4.5 14C3.119 14 2 12.881 2 11.5C2 10.119 3.119 9 4.5 9C5.881 9 7 10.119 7 11.5Z" fill="#202020"/>
</svg>
