<svg width="16" height="16" viewBox="0 0 16 16" fill="none" xmlns="http://www.w3.org/2000/svg">
<path fill-rule="evenodd" clip-rule="evenodd" d="M5.5 1H13C14.103 1 15 1.897 15 3V4C15 4.551 14.552 5 14 5H12V10H11V3C11 2.636 11.098 2.294 11.269 2H5.5C4.673 2 4 2.673 4 3.5V11H7.05051C6.75757 11.2871 6.51486 11.6252 6.33682 12H2V13C2 13.551 2.448 14 3 14H6.03544C6.08595 14.3531 6.18915 14.6891 6.33682 15H3C1.897 15 1 14.103 1 13V12C1 11.449 1.448 11 2 11H3V3.5C3 2.122 4.121 1 5.5 1ZM13 2C12.448 2 12 2.449 12 3V4H14V3C14 2.449 13.552 2 13 2Z" fill="#202020"/>
<path d="M9.5 11C8.11929 11 7 12.1193 7 13.5C7 14.8807 8.11929 16 9.5 16H10C10.2761 16 10.5 15.7761 10.5 15.5C10.5 15.2239 10.2761 15 10 15H9.5C8.67157 15 8 14.3284 8 13.5C8 12.6716 8.67157 12 9.5 12H10C10.2761 12 10.5 11.7761 10.5 11.5C10.5 11.2239 10.2761 11 10 11H9.5Z" fill="#006CBF"/>
<path d="M13 11C12.7239 11 12.5 11.2239 12.5 11.5C12.5 11.7761 12.7239 12 13 12H13.5C14.3284 12 15 12.6716 15 13.5C15 14.3284 14.3284 15 13.5 15H13C12.7239 15 12.5 15.2239 12.5 15.5C12.5 15.7761 12.7239 16 13 16H13.5C14.8807 16 16 14.8807 16 13.5C16 12.1193 14.8807 11 13.5 11H13Z" fill="#006CBF"/>
<path d="M9.5 13C9.22386 13 9 13.2239 9 13.5C9 13.7761 9.22386 14 9.5 14H13.5C13.7761 14 14 13.7761 14 13.5C14 13.2239 13.7761 13 13.5 13H9.5Z" fill="#006CBF"/>
</svg>
