<svg width="16" height="16" viewBox="0 0 16 16" fill="none" xmlns="http://www.w3.org/2000/svg">
<path fill-rule="evenodd" clip-rule="evenodd" d="M14 1H6.5C5.121 1 4 2.122 4 3.5V5.97994C4.34133 6.01772 4.67685 6.09449 5 6.20844V3.5C5 2.673 5.673 2 6.5 2H12.269C12.098 2.294 12 2.636 12 3V13C12 13.551 11.552 14 11 14C10.448 14 10 13.551 10 13V12C10 11.449 9.552 11 9 11H7.96438C7.92209 11.3402 7.84084 11.6758 7.72129 12H9V13C9 13.364 9.098 13.706 9.269 14H9.18184L9.56201 14.38C9.73666 14.5547 9.86377 14.7681 9.93501 15H11C12.103 15 13 14.103 13 13V5H15C15.552 5 16 4.551 16 4V3C16 1.897 15.103 1 14 1ZM13 3C13 2.449 13.448 2 14 2C14.552 2 15 2.449 15 3V4H13V3Z" fill="#202020"/>
<path d="M8.854 15.087L6.293 12.527C6.74929 11.9267 6.99749 11.194 7 10.44C7 9.74774 6.79473 9.07105 6.41015 8.49548C6.02556 7.91991 5.47894 7.4713 4.83939 7.2064C4.19985 6.94149 3.49612 6.87218 2.81719 7.00723C2.13825 7.14227 1.51461 7.47562 1.02513 7.9651C0.535644 8.45458 0.202301 9.07822 0.0672531 9.75716C-0.0677952 10.4361 0.00151649 11.1398 0.266423 11.7794C0.53133 12.4189 0.979934 12.9655 1.55551 13.3501C2.13108 13.7347 2.80777 13.94 3.5 13.94C4.25357 13.9375 4.98584 13.6897 5.586 13.234L8.146 15.794C8.23976 15.8879 8.36697 15.9407 8.49965 15.9408C8.63233 15.9408 8.75962 15.8882 8.8535 15.7945C8.94739 15.7007 9.00019 15.5735 9.00028 15.4408C9.00037 15.3081 8.94776 15.1809 8.854 15.087V15.087ZM1 10.44C1 9.94552 1.14662 9.46217 1.42133 9.05105C1.69603 8.63993 2.08648 8.31949 2.54329 8.13027C3.00011 7.94106 3.50277 7.89155 3.98773 7.98801C4.47268 8.08447 4.91814 8.32258 5.26777 8.67221C5.6174 9.02184 5.8555 9.4673 5.95196 9.95225C6.04843 10.4372 5.99892 10.9399 5.8097 11.3967C5.62048 11.8535 5.30005 12.2439 4.88893 12.5186C4.4778 12.7934 3.99445 12.94 3.5 12.94C2.83696 12.94 2.20108 12.6766 1.73223 12.2077C1.26339 11.7389 1 11.103 1 10.44V10.44Z" fill="#006CBF"/>
</svg>
