<svg width="16" height="16" viewBox="0 0 16 16" fill="none" xmlns="http://www.w3.org/2000/svg">
<path d="M11.854 9.14576C12.049 9.34076 12.049 9.65776 11.854 9.85276L7.85401 13.8528C7.75601 13.9508 7.62801 13.9988 7.50001 13.9988C7.37201 13.9988 7.24401 13.9498 7.14601 13.8528L1.14601 7.85376C0.951006 7.65876 0.951006 7.34176 1.14601 7.14676L7.14601 1.14576C7.34101 0.950762 7.65801 0.950762 7.85301 1.14576L11.853 5.14576C12.048 5.34076 12.048 5.65776 11.853 5.85276C11.658 6.04776 11.341 6.04776 11.146 5.85276L7.50001 2.20676L2.20701 7.49976L7.50001 12.7928L11.146 9.14676C11.341 8.95176 11.658 8.95176 11.853 9.14676L11.854 9.14576ZM13 6.99976H9.50001C9.22401 6.99976 9.00001 7.22376 9.00001 7.49976C9.00001 7.77576 9.22401 7.99976 9.50001 7.99976H13C13.276 7.99976 13.5 7.77576 13.5 7.49976C13.5 7.22376 13.276 6.99976 13 6.99976Z" fill="#202020"/>
</svg>
