<svg width="16" height="16" viewBox="0 0 16 16" fill="none" xmlns="http://www.w3.org/2000/svg">
<path d="M12.2351 1.379C12.1791 1.156 11.9801 1 11.7501 1H10.2501C10.0211 1 9.8211 1.156 9.7651 1.379L9.2651 3.379C9.2141 3.584 9.2971 3.799 9.4731 3.916L10.0001 4.268V8H12.0001V4.268L12.5271 3.916C12.7031 3.799 12.7861 3.583 12.7351 3.379L12.2351 1.379Z" fill="#202020"/>
<path d="M6.253 1.12801C6.119 1.12801 6 1.23601 6 1.38001V2.99901C6 3.27901 5.78 3.49901 5.5 3.49901C5.22 3.49901 5 3.27901 5 2.99901V1.38001C5 1.23601 4.881 1.12801 4.747 1.12801C4.674 1.12801 3 1.66801 3 3.49901C3 4.85601 3.895 5.50901 4.5 5.78301V7.99901H6.5V5.78801C7.382 5.40201 8 4.52301 8 3.49901C8 1.66801 6.326 1.12701 6.253 1.12701V1.12801Z" fill="#202020"/>
<path fill-rule="evenodd" clip-rule="evenodd" d="M13 8.99999V6.26999C13.6 6.61999 14 7.25999 14 7.99999V12C14 13.11 13.1 14 12 14H4C2.89 14 2 13.11 2 12V7.99999C2 7.25999 2.4 6.61999 3 6.26999V8.99999H13ZM12 13C12.55 13 13 12.55 13 12V9.99999H11V10.5C11 10.78 10.78 11 10.5 11C10.22 11 10 10.78 10 10.5V9.99999H6V10.5C6 10.78 5.78 11 5.5 11C5.22 11 5 10.78 5 10.5V9.99999H3V12C3 12.55 3.45 13 4 13H12Z" fill="#202020"/>
</svg>
