<svg width="16" height="16" viewBox="0 0 16 16" fill="none" xmlns="http://www.w3.org/2000/svg">
<path d="M12.2351 1.379C12.1791 1.156 11.9801 1 11.7501 1H10.2501C10.0211 1 9.8211 1.156 9.7651 1.379L9.2651 3.379C9.2141 3.584 9.2971 3.799 9.4731 3.916L10.0001 4.268V7.34357C10.4502 6.66654 11.1675 6.18195 12.0001 6.04166V4.268L12.5271 3.916C12.7031 3.799 12.7861 3.583 12.7351 3.379L12.2351 1.379Z" fill="#202020"/>
<path d="M9.5 8.99999H3V6.26999C2.4 6.61999 2 7.25999 2 7.99999V12C2 13.11 2.89 14 4 14H8V13H4C3.45 13 3 12.55 3 12V9.99999H5V10.5C5 10.78 5.22 11 5.5 11C5.78 11 6 10.78 6 10.5V9.99999H8.2243C8.48431 9.51241 8.94846 9.15253 9.5 9.039V8.99999Z" fill="#202020"/>
<path d="M6.253 1.12801C6.119 1.12801 6 1.23601 6 1.38001V2.99901C6 3.27901 5.78 3.49901 5.5 3.49901C5.22 3.49901 5 3.27901 5 2.99901V1.38001C5 1.23601 4.881 1.12801 4.747 1.12801C4.674 1.12801 3 1.66801 3 3.49901C3 4.85601 3.895 5.50901 4.5 5.78301V7.99901H6.5V5.78801C7.382 5.40201 8 4.52301 8 3.49901C8 1.66801 6.326 1.12701 6.253 1.12701V1.12801Z" fill="#202020"/>
<path d="M10.5 9V10H9.875C9.392 10 9 10.403 9 10.9V15.1C9 15.597 9.392 16 9.875 16H15.125C15.608 16 16 15.597 16 15.1V10.9C16 10.403 15.608 10 15.125 10H14.5V9C14.5 7.895 13.605 7 12.5 7C11.395 7 10.5 7.895 10.5 9ZM12.5 8C13.052 8 13.5 8.448 13.5 9V10H11.5V9C11.5 8.448 11.948 8 12.5 8ZM12.5 13.75C12.086 13.75 11.75 13.414 11.75 13C11.75 12.586 12.086 12.25 12.5 12.25C12.914 12.25 13.25 12.586 13.25 13C13.25 13.414 12.914 13.75 12.5 13.75Z" fill="#202020"/>
</svg>
