<svg width="16" height="16" viewBox="0 0 16 16" fill="none" xmlns="http://www.w3.org/2000/svg">
<g clip-path="url(#clip0_7204_95733)">
<path d="M10.9999 1C8.79074 1 6.99988 2.79086 6.99988 5C6.99988 5.31279 7.03588 5.61771 7.10411 5.91061L2.05327 11.1453C1.24088 11.9872 1.32876 13.3455 2.24288 14.0757C3.03692 14.7101 4.18171 14.6425 4.89566 13.9192L6.43925 12.3555C6.27871 12.0138 6.1621 11.6538 6.09179 11.284L4.18398 13.2167C3.82954 13.5758 3.26122 13.6093 2.86703 13.2944C2.41322 12.9319 2.36959 12.2576 2.7729 11.8396L8.02098 6.40054C8.14821 6.26869 8.19312 6.07781 8.13804 5.90305C8.04841 5.61868 7.99988 5.31548 7.99988 5C7.99988 3.34315 9.34303 2 10.9999 2C11.0945 2 11.188 2.00436 11.2802 2.01289L9.64654 3.64658C9.45129 3.84185 9.45129 4.15842 9.64655 4.35368L11.3187 6.02587C11.6762 6.09164 12.0248 6.20062 12.3567 6.35067L13.987 4.72023C13.9955 4.81228 13.9999 4.9056 13.9999 5C13.9999 5.73327 13.7368 6.40509 13.2999 6.92624C13.5638 7.13581 13.8019 7.37331 14.0106 7.63358C14.6266 6.92998 14.9999 6.00858 14.9999 5C14.9999 4.49138 14.9047 4.0038 14.7307 3.55493C14.6697 3.39732 14.5331 3.28125 14.3677 3.24637C14.2023 3.2115 14.0305 3.26254 13.911 3.38207L12.0001 5.29302L10.7072 4.00012L12.6182 2.08904C12.7377 1.96953 12.7888 1.79773 12.7539 1.63235C12.719 1.46698 12.603 1.3304 12.4454 1.26931C11.9964 1.09524 11.5087 1 10.9999 1Z" fill="#202020"/>
<path d="M15.854 15.086L13.293 12.526C13.7493 11.9257 13.9975 11.193 14 10.439C14 9.74676 13.7947 9.07007 13.4101 8.4945C13.0256 7.91893 12.4789 7.47033 11.8394 7.20542C11.1999 6.94051 10.4961 6.8712 9.81719 7.00625C9.13825 7.1413 8.51461 7.47464 8.02513 7.96412C7.53564 8.45361 7.2023 9.07725 7.06725 9.75618C6.9322 10.4351 7.00152 11.1388 7.26642 11.7784C7.53133 12.4179 7.97993 12.9646 8.55551 13.3491C9.13108 13.7337 9.80777 13.939 10.5 13.939C11.2536 13.9366 11.9858 13.6887 12.586 13.233L15.146 15.793C15.2398 15.8869 15.367 15.9397 15.4996 15.9398C15.6323 15.9399 15.7596 15.8873 15.8535 15.7935C15.9474 15.6997 16.0002 15.5725 16.0003 15.4399C16.0004 15.3072 15.9478 15.1799 15.854 15.086V15.086ZM8 10.439C8 9.94454 8.14662 9.46119 8.42133 9.05007C8.69603 8.63895 9.08648 8.31852 9.54329 8.1293C10.0001 7.94008 10.5028 7.89057 10.9877 7.98703C11.4727 8.0835 11.9181 8.3216 12.2678 8.67123C12.6174 9.02086 12.8555 9.46632 12.952 9.95127C13.0484 10.4362 12.9989 10.9389 12.8097 11.3957C12.6205 11.8525 12.3 12.243 11.8889 12.5177C11.4778 12.7924 10.9945 12.939 10.5 12.939C9.83696 12.939 9.20108 12.6756 8.73223 12.2068C8.26339 11.7379 8 11.102 8 10.439V10.439Z" fill="#006CBF"/>
</g>
<defs>
<clipPath id="clip0_7204_95733">
<rect width="16" height="16" fill="white"/>
</clipPath>
</defs>
</svg>
