<svg width="16" height="16" viewBox="0 0 16 16" fill="none" xmlns="http://www.w3.org/2000/svg">
<path d="M14.039 3.28696L9.077 1.37896C8.384 1.11196 7.616 1.11196 6.923 1.37896L1.962 3.28696C1.383 3.50996 1 4.06596 1 4.68696V11.313C1 11.934 1.382 12.49 1.962 12.713L5 13.882V12.811L2.32 11.78C2.127 11.706 2 11.52 2 11.313V4.97196L5.092 6.29696C5.172 5.96596 5.304 5.65496 5.484 5.37696L2.565 4.12596L7.283 2.31096C7.745 2.13296 8.257 2.13296 8.719 2.31096L13.437 4.12596L10.518 5.37696C10.698 5.65496 10.83 5.96596 10.91 6.29696L14.002 4.97196V11.313C14.002 11.52 13.875 11.705 13.682 11.78L11.002 12.811V13.883L14.041 12.714C14.62 12.491 15.002 11.935 15.002 11.314V4.68796C15.002 4.06696 14.62 3.51096 14.041 3.28796L14.039 3.28696Z" fill="#202020"/>
<path d="M8 16C6.897 16 6 15.103 6 14V7C6 5.897 6.897 5 8 5C9.103 5 10 5.897 10 7V14C10 15.103 9.103 16 8 16ZM8 6C7.448 6 7 6.449 7 7V14C7 14.551 7.448 15 8 15C8.552 15 9 14.551 9 14V7C9 6.449 8.552 6 8 6Z" fill="#006CBF"/>
</svg>
