<svg width="16" height="16" viewBox="0 0 16 16" fill="none" xmlns="http://www.w3.org/2000/svg">
<g clip-path="url(#clip0_7204_95786)">
<path fill-rule="evenodd" clip-rule="evenodd" d="M12 6.414V7.5H12.001V13C12.001 14.105 11.106 15 10.001 15H6.4739L7.4739 14H10.001C10.553 14 11.001 13.552 11.001 13L11.002 8.061H11V7H9.5C8.672 7 8 6.328 8 5.5V4H5C4.448 4 4 4.448 4 5V12.525L3.49987 13.025L3 12.5256V5C3 3.895 3.895 3 5 3H8.586C8.984 3 9.366 3.158 9.647 3.439L11.561 5.353C11.842 5.635 12 6.016 12 6.414ZM10.793 6L9 4.207V5.5C9 5.776 9.224 6 9.5 6H10.793Z" fill="#202020"/>
<path d="M14.001 11V6.41C14.001 5.48 13.641 4.6 12.971 3.94L11.061 2.03C10.411 1.37 9.511 1 8.591 1H7.001C6.261 1 5.621 1.4 5.271 2H8.591C9.241 2 9.891 2.27 10.351 2.73L12.271 4.65C12.741 5.12 13.001 5.75 13.001 6.41V12.73C13.601 12.38 14.001 11.74 14.001 11Z" fill="#202020"/>
<path d="M3.50014 16C3.43444 16.0001 3.36936 15.9873 3.30861 15.9623C3.24787 15.9372 3.19266 15.9004 3.14614 15.854L0.646143 13.354C0.552257 13.2601 0.499512 13.1328 0.499512 13C0.499512 12.8672 0.552257 12.7399 0.646143 12.646C0.74003 12.5521 0.867368 12.4994 1.00014 12.4994C1.13292 12.4994 1.26026 12.5521 1.35414 12.646L3.50014 14.793L8.14614 10.146C8.24003 10.0521 8.36737 9.99939 8.50014 9.99939C8.63292 9.99939 8.76026 10.0521 8.85414 10.146C8.94803 10.2399 9.00077 10.3672 9.00077 10.5C9.00077 10.6328 8.94803 10.7601 8.85414 10.854L3.85414 15.854C3.80762 15.9004 3.75242 15.9372 3.69167 15.9623C3.63093 15.9873 3.56585 16.0001 3.50014 16Z" fill="#11910D"/>
</g>
<defs>
<clipPath id="clip0_7204_95786">
<rect width="16" height="16" fill="white"/>
</clipPath>
</defs>
</svg>
