<svg width="16" height="16" viewBox="0 0 16 16" fill="none" xmlns="http://www.w3.org/2000/svg">
<path d="M14.039 3.28696L9.077 1.37896C8.384 1.11196 7.616 1.11196 6.923 1.37896L1.962 3.28696C1.383 3.50996 1 4.06596 1 4.68696V11.313C1 11.934 1.382 12.49 1.962 12.713L6.923 14.621C7.616 14.888 8.384 14.888 9.077 14.621L14.039 12.713C14.618 12.49 15 11.934 15 11.313V4.68696C15 4.06596 14.618 3.50996 14.039 3.28696ZM14 11.313C14 11.52 13.873 11.705 13.68 11.78L8.718 13.688C8.646 13.716 8.574 13.739 8.5 13.758V9.94996C8.337 9.97796 8.171 10.001 8 10.001C7.829 10.001 7.663 9.97796 7.5 9.94996V13.758C7.426 13.739 7.354 13.716 7.282 13.688L2.32 11.78C2.127 11.706 2 11.52 2 11.313V4.97196L5.092 6.29696C5.172 5.96596 5.304 5.65496 5.484 5.37696L2.565 4.12596L7.283 2.31096C7.745 2.13296 8.257 2.13296 8.719 2.31096L13.437 4.12596L10.518 5.37696C10.698 5.65496 10.83 5.96596 10.91 6.29696L14.002 4.97196V11.313H14Z" fill="#202020"/>
<path d="M8 9C6.897 9 6 8.103 6 7C6 5.897 6.897 5 8 5C9.103 5 10 5.897 10 7C10 8.103 9.103 9 8 9ZM8 6C7.449 6 7 6.448 7 7C7 7.552 7.449 8 8 8C8.551 8 9 7.552 9 7C9 6.448 8.551 6 8 6Z" fill="#006CBF"/>
</svg>
