<svg width="16" height="16" viewBox="0 0 16 16" fill="none" xmlns="http://www.w3.org/2000/svg">
<path d="M3.22 3.22C3.361 3.079 3.551 3 3.75 3H4.5C4.776 3 5 2.776 5 2.5C5 2.224 4.776 2 4.5 2H3.75C3.286 2 2.841 2.184 2.513 2.513C2.185 2.841 2 3.286 2 3.75V4.5C2 4.776 2.224 5 2.5 5C2.776 5 3 4.776 3 4.5V3.75C3 3.551 3.079 3.36 3.22 3.22ZM3 6.5C3 6.224 2.776 6 2.5 6C2.224 6 2 6.224 2 6.5V9.5C2 9.776 2.224 10 2.5 10C2.776 10 3 9.776 3 9.5V6.5ZM2.5 11C2.776 11 3 11.224 3 11.5V12.25C3 12.449 3.079 12.64 3.22 12.78C3.361 12.921 3.551 13 3.75 13H4.5C4.776 13 5 13.224 5 13.5C5 13.776 4.776 14 4.5 14H3.75C3.286 14 2.841 13.816 2.513 13.487C2.185 13.159 2 12.714 2 12.25V11.5C2 11.224 2.224 11 2.5 11ZM6.5 13C6.224 13 6 13.224 6 13.5C6 13.776 6.224 14 6.5 14H9.5C9.776 14 10 13.776 10 13.5C10 13.224 9.776 13 9.5 13H6.5ZM13.5 11C13.776 11 14 11.224 14 11.5V12.25C14 12.714 13.816 13.159 13.487 13.487C13.158 13.815 12.714 14 12.25 14H11.5C11.224 14 11 13.776 11 13.5C11 13.224 11.224 13 11.5 13H12.25C12.449 13 12.64 12.921 12.78 12.78C12.921 12.639 13 12.449 13 12.25V11.5C13 11.224 13.224 11 13.5 11ZM14 6.5C14 6.224 13.776 6 13.5 6C13.224 6 13 6.224 13 6.5V9.5C13 9.776 13.224 10 13.5 10C13.776 10 14 9.776 14 9.5V6.5ZM11 2.5C11 2.224 11.224 2 11.5 2H12.25C12.714 2 13.159 2.184 13.487 2.513C13.815 2.841 14 3.286 14 3.75V4.5C14 4.776 13.776 5 13.5 5C13.224 5 13 4.776 13 4.5V3.75C13 3.551 12.921 3.36 12.78 3.22C12.639 3.079 12.449 3 12.25 3H11.5C11.224 3 11 2.776 11 2.5ZM6.5 2C6.224 2 6 2.224 6 2.5C6 2.776 6.224 3 6.5 3H9.5C9.776 3 10 2.776 10 2.5C10 2.224 9.776 2 9.5 2H6.5Z" fill="#202020"/>
<path d="M11.5 9.82977C11.58 9.90977 11.62 10.0198 11.62 10.1298C11.62 10.2398 11.58 10.3498 11.5 10.4298L10.12 11.8098C10.04 11.8898 9.94001 11.9298 9.82001 11.9298C9.71001 11.9298 9.60001 11.8898 9.52001 11.8098L9.15001 11.4298C9.07001 11.3498 9.02001 11.2398 9.02001 11.1298V10.9998H8.00001C7.45001 10.9998 7.00001 10.5498 7.00001 9.99977V6.99977H6.23001L5.74001 7.48977C5.66001 7.56977 5.55001 7.60977 5.44001 7.60977C5.33001 7.60977 5.22001 7.56977 5.14001 7.48977L4.39001 6.73977C4.31001 6.65977 4.26001 6.54977 4.26001 6.43977C4.26001 6.31977 4.31001 6.21977 4.39001 6.13977L6.39001 4.13977C6.47001 4.05977 6.58001 4.00977 6.69001 4.00977C6.80001 4.00977 6.91001 4.05977 6.99001 4.13977L7.74001 4.88977C7.82001 4.96977 7.86001 5.06977 7.86001 5.18977C7.86001 5.29977 7.82001 5.40977 7.74001 5.48977L7.23001 5.99977H9.98001L10.52 5.44977C10.6 5.36977 10.71 5.32977 10.82 5.32977C10.94 5.32977 11.05 5.36977 11.12 5.44977L11.5 5.82977C11.58 5.90977 11.62 6.00977 11.62 6.12977C11.62 6.23977 11.58 6.34977 11.5 6.42977L10.12 7.79977C10.05 7.87977 9.94001 7.92977 9.82001 7.92977C9.71001 7.92977 9.60001 7.87977 9.52001 7.79977L9.15001 7.42977C9.07001 7.34977 9.02001 7.23977 9.02001 7.12977V6.99977H8.00001V9.99977H9.98001L10.52 9.44977C10.6 9.36977 10.71 9.32977 10.82 9.32977C10.94 9.32977 11.05 9.36977 11.12 9.44977L11.5 9.82977Z" fill="#B27C00"/>
</svg>
