<svg width="16" height="16" viewBox="0 0 16 16" fill="none" xmlns="http://www.w3.org/2000/svg">
<path d="M6.5 14C6.45 14 6.399 13.992 6.35 13.977C6.142 13.912 6 13.718 6 13.5V6.50001C6 6.29801 6.122 6.11501 6.309 6.03801C6.496 5.96301 6.71 6.00401 6.854 6.14601L11.354 10.646C11.497 10.789 11.54 11.004 11.462 11.191C11.384 11.378 11.202 11.5 11 11.5H8.511L6.909 13.787C6.814 13.923 6.66 14 6.5 14V14ZM7 7.70701V11.914L7.841 10.713C7.934 10.58 8.087 10.5 8.25 10.5H9.793L7 7.70701V7.70701Z" fill="#006CBF"/>
<path d="M6 3.5C6 3.776 6.224 4 6.5 4C6.776 4 7 3.776 7 3.5V2.5C7 2.224 6.776 2 6.5 2C6.224 2 6 2.224 6 2.5V3.5Z" fill="#202020"/>
<path d="M4.02488 4.73299C4.12275 4.82987 4.25055 4.87887 4.37838 4.87899C4.50622 4.87887 4.63401 4.83087 4.73188 4.73299C4.92688 4.53799 4.92688 4.22099 4.73188 4.02599L4.02488 3.31899C3.82988 3.12399 3.51288 3.12399 3.31788 3.31899C3.12288 3.51399 3.12288 3.83099 3.31788 4.02599L4.02488 4.73299Z" fill="#202020"/>
<path d="M3.5 7H2.5C2.224 7 2 6.776 2 6.5C2 6.224 2.224 6 2.5 6H3.5C3.776 6 4 6.224 4 6.5C4 6.776 3.776 7 3.5 7Z" fill="#202020"/>
<path d="M8.2671 4.73299C8.36497 4.82987 8.49277 4.87887 8.6206 4.87899C8.74843 4.87887 8.87623 4.83087 8.9741 4.73299L9.6811 4.02599C9.8761 3.83099 9.8761 3.51399 9.6811 3.31899C9.4861 3.12399 9.1691 3.12399 8.9741 3.31899L8.2671 4.02599C8.0721 4.22099 8.0721 4.53799 8.2671 4.73299Z" fill="#202020"/>
</svg>
