<svg width="16" height="16" viewBox="0 0 16 16" fill="none" xmlns="http://www.w3.org/2000/svg">
<path d="M3 11.5L3 10.975C2.634 10.934 2.292 10.815 2 10.619L2 11.5C2 12.878 3.121 14 4.5 14L11.5 14C12.879 14 14 12.878 14 11.5L14 10.619C13.708 10.815 13.366 10.934 13 10.975L13 11.5C13 12.327 12.327 13 11.5 13L11 13L11 11L10 11L10 13L6 13L6 11L5 11L5 13L4.5 13C3.673 13 3 12.327 3 11.5ZM2 4.5L2 5.381C2.292 5.185 2.634 5.066 3 5.025L3 4.5C3 3.673 3.673 3 4.5 3L5 3L5 5L6 5L6 3L10 3L10 5L11 5L11 3L11.5 3C12.327 3 13 3.673 13 4.5L13 5.025C13.366 5.066 13.708 5.185 14 5.381L14 4.5C14 3.122 12.879 2 11.5 2L4.5 2C3.121 2 2 3.122 2 4.5Z" fill="#202020"/>
<path d="M2 7.25L2 8.75C2 9.439 2.561 10 3.25 10L12.75 10C13.439 10 14 9.439 14 8.75L14 7.25C14 6.561 13.439 6 12.75 6L3.25 6C2.561 6 2 6.561 2 7.25ZM6 9L6 7L10 7L10 9L6 9ZM3 8.75L3 7.25C3 7.112 3.112 7 3.25 7L5 7L5 9L3.25 9C3.112 9 3 8.888 3 8.75ZM13 7.25L13 8.75C13 8.888 12.888 9 12.75 9L11 9L11 7L12.75 7C12.888 7 13 7.112 13 7.25Z" fill="#006CBF"/>
</svg>
