<svg width="16" height="16" viewBox="0 0 16 16" fill="none" xmlns="http://www.w3.org/2000/svg">
<path d="M14.0391 3.28696L9.0771 1.37896C8.3841 1.11196 7.6161 1.11196 6.9231 1.37896L2.5791 3.04996L3.8971 3.61496L7.2821 2.31296C7.7441 2.13496 8.2561 2.13496 8.7181 2.31296L13.4361 4.12796L8.8981 6.07296C9.1161 6.33296 9.2961 6.61996 9.3941 6.94796L14.0001 4.97396V11.315C14.0001 11.522 13.8731 11.707 13.6801 11.782L9.5001 13.39V14.139C9.5001 14.254 9.4811 14.366 9.4591 14.478L14.0391 12.716C14.6181 12.493 15.0001 11.937 15.0001 11.316V4.68996C15.0001 4.06896 14.6181 3.51296 14.0391 3.28996V3.28696Z" fill="#202020"/>
<path d="M7.75002 14.8859C7.65902 14.8859 7.56802 14.8699 7.48002 14.8359L1.96002 12.7129C1.38502 12.4919 0.999023 11.9289 0.999023 11.3129V4.59793C0.999023 4.34493 1.12502 4.11093 1.33602 3.97193C1.54702 3.83293 1.81102 3.80793 2.04502 3.90893L7.58602 6.28293C8.14002 6.51693 8.49902 7.05993 8.49902 7.66293V14.1369C8.49902 14.3839 8.37802 14.6149 8.17402 14.7549C8.04702 14.8419 7.89902 14.8869 7.74902 14.8869L7.75002 14.8859ZM2.00002 4.97693V11.3129C2.00002 11.5189 2.12902 11.7059 2.32002 11.7799L7.50002 13.7719V7.66293C7.50002 7.46193 7.38002 7.28093 7.19402 7.20293L2.00002 4.97693Z" fill="#006CBF"/>
</svg>
