<svg width="16" height="16" viewBox="0 0 16 16" fill="none" xmlns="http://www.w3.org/2000/svg">
<path d="M9.99846 3C10.5287 3 11.0373 3.21057 11.4123 3.58542L14.4139 6.58542C15.1954 7.36655 15.1954 8.63344 14.4139 9.41458L11.4123 12.4146C11.0373 12.7894 10.5287 13 9.99846 13H4C2.8955 13 2 12.1046 2 11V5C2 3.89543 2.8955 3 4 3H9.99846ZM10.7054 4.29271C10.5179 4.10529 10.2636 4 9.99846 4H4C3.4478 4 3 4.44772 3 5V11C3 11.5523 3.4478 12 4 12H9.99846C10.2636 12 10.5179 11.8947 10.7054 11.7073L13.7069 8.70729C14.0977 8.31672 14.0977 7.68328 13.7069 7.29271L10.7054 4.29271Z" fill="#202020"/>
</svg>
