<svg width="16" height="16" viewBox="0 0 16 16" fill="none" xmlns="http://www.w3.org/2000/svg">
<path d="M3.5 3C3.224 3 3 3.224 3 3.5C3 3.776 3.224 4 3.5 4H8C8.276 4 8.5 3.776 8.5 3.5C8.5 3.224 8.276 3 8 3H3.5ZM5 9.5C5 9.224 5.224 9 5.5 9H12.5C12.776 9 13 9.224 13 9.5C13 9.776 12.776 10 12.5 10H5.5C5.224 10 5 9.776 5 9.5ZM3.5 12C3.224 12 3 12.224 3 12.5C3 12.776 3.224 13 3.5 13H10C10.276 13 10.5 12.776 10.5 12.5C10.5 12.224 10.276 12 10 12H3.5ZM11 6.5C11 6.224 11.224 6 11.5 6H14C14.276 6 14.5 6.224 14.5 6.5C14.5 6.776 14.276 7 14 7H11.5C11.224 7 11 6.776 11 6.5ZM10.5 3C10.224 3 10 3.224 10 3.5C10 3.776 10.224 4 10.5 4H14.5C14.776 4 15 3.776 15 3.5C15 3.224 14.776 3 14.5 3H10.5Z" fill="#202020"/>
<path d="M8.5 7.99316H6.5C5.673 7.99316 5 7.32016 5 6.49316C5 5.66616 5.673 4.99316 6.5 4.99316H8.5C9.327 4.99316 10 5.66616 10 6.49316C10 7.32016 9.327 7.99316 8.5 7.99316ZM6.5 5.99316C6.224 5.99316 6 6.21816 6 6.49316C6 6.76816 6.224 6.99316 6.5 6.99316H8.5C8.776 6.99316 9 6.76816 9 6.49316C9 6.21816 8.776 5.99316 8.5 5.99316H6.5Z" fill="#006CBF"/>
<path d="M3.277 6.08416L1.777 5.08416C1.624 4.98116 1.425 4.97216 1.264 5.06016C1.101 5.14716 1 5.31616 1 5.50016V7.50016C1 7.68516 1.102 7.85416 1.264 7.94016C1.338 7.98016 1.419 8.00016 1.5 8.00016C1.597 8.00016 1.694 7.97216 1.777 7.91616L3.277 6.91616C3.416 6.82316 3.5 6.66716 3.5 6.50016C3.5 6.33316 3.417 6.17716 3.277 6.08416Z" fill="#11910D"/>
</svg>
