<svg width="16" height="16" viewBox="0 0 16 16" fill="none" xmlns="http://www.w3.org/2000/svg">
<g clip-path="url(#clip0_7204_95869)">
<path d="M1.99951 7.91421L1.99951 11C1.99951 12.1046 2.89494 13 3.99951 13H11.9995C13.1041 13 13.9995 12.1046 13.9995 11V5C13.9995 3.89543 13.1041 3 11.9995 3L5.91448 3C5.90709 3.02067 5.89923 3.04118 5.8909 3.06154C5.81795 3.2397 5.71042 3.40164 5.57451 3.538C5.43595 3.68379 5.26922 3.79992 5.08443 3.87934C4.89964 3.95876 4.70064 3.99981 4.49951 4C4.32922 3.99941 4.16022 3.97035 3.99951 3.914V4H4.49951H11.9995C12.5518 4 12.9995 4.44772 12.9995 5V5.73987L7.99961 8.43212L3.99951 6.27822V6.5C3.99951 6.78225 3.91996 7.05629 3.77328 7.29216L7.76256 9.44024C7.91055 9.51992 8.08867 9.51992 8.23666 9.44024L12.9995 6.87562V11C12.9995 11.5523 12.5518 12 11.9995 12H3.99951C3.44723 12 2.99951 11.5523 2.99951 11V7.91421C2.84041 7.97047 2.67148 8 2.49951 8C2.32754 8 2.15861 7.97047 1.99951 7.91421Z" fill="#202020"/>
<path d="M2.14951 0.15L0.149511 2.15C0.102069 2.19512 0.0642948 2.24941 0.038483 2.30958C0.0126713 2.36974 -0.000638962 2.43453 -0.000638962 2.5C-0.000638962 2.56547 0.0126713 2.63026 0.038483 2.69042C0.0642948 2.75059 0.102069 2.80488 0.149511 2.85C0.194629 2.89744 0.24892 2.93522 0.309087 2.96103C0.369254 2.98684 0.434041 3.00015 0.499511 3.00015C0.564981 3.00015 0.629768 2.98684 0.689935 2.96103C0.750102 2.93522 0.804394 2.89744 0.849511 2.85L1.99951 1.71V6.5C1.99951 6.63261 2.05219 6.75979 2.14596 6.85355C2.23973 6.94732 2.3669 7 2.49951 7C2.63212 7 2.7593 6.94732 2.85306 6.85355C2.94683 6.75979 2.99951 6.63261 2.99951 6.5V1.71L4.14951 2.85C4.24266 2.94128 4.36806 2.99212 4.49848 2.99146C4.62889 2.9908 4.75378 2.9387 4.84599 2.84648C4.93821 2.75426 4.99031 2.62938 4.99097 2.49896C4.99163 2.36855 4.94079 2.24314 4.84951 2.15L2.84951 0.15C2.80439 0.102558 2.7501 0.0647836 2.68994 0.0389719C2.62977 0.0131602 2.56498 -0.000149727 2.49951 -0.000149727C2.43404 -0.000149727 2.36925 0.0131602 2.30909 0.0389719C2.24892 0.0647836 2.19463 0.102558 2.14951 0.15V0.15Z" fill="#006CBF"/>
</g>
<defs>
<clipPath id="clip0_7204_95869">
<rect width="16" height="16" fill="white"/>
</clipPath>
</defs>
</svg>
