<svg width="16" height="16" viewBox="0 0 16 16" fill="none" xmlns="http://www.w3.org/2000/svg">
<path d="M5.5 9H2.5C1.673 9 1 9.673 1 10.5V13.5C1 14.327 1.673 15 2.5 15H5.5C6.327 15 7 14.327 7 13.5V10.5C7 9.673 6.327 9 5.5 9ZM2.5 14C2.224 14 2 13.776 2 13.5V10.5C2 10.224 2.224 10 2.5 10H5.5C5.776 10 6 10.224 6 10.5V13.5C6 13.776 5.776 14 5.5 14H2.5Z" fill="#202020"/>
<path d="M13.5 1H10.5C9.673 1 9 1.673 9 2.5V5.5C9 6.327 9.673 7 10.5 7H13.5C14.327 7 15 6.327 15 5.5V2.5C15 1.673 14.327 1 13.5 1ZM10.5 6C10.224 6 10 5.776 10 5.5V2.5C10 2.224 10.224 2 10.5 2H13.5C13.776 2 14 2.224 14 2.5V5.5C14 5.776 13.776 6 13.5 6H10.5Z" fill="#202020"/>
<path d="M12 10.5V8H10.5C9.12 8 8 6.88 8 5.5V4H5.5C4.67 4 4 4.67 4 5.5V8H5.5C6.88 8 8 9.12 8 10.5V12H10.5C11.33 12 12 11.33 12 10.5Z" fill="#006CBF"/>
</svg>
