<svg width="16" height="16" viewBox="0 0 16 16" fill="none" xmlns="http://www.w3.org/2000/svg">
<g clip-path="url(#clip0_7204_95854)">
<path d="M2 11V7.91422C2.1591 7.97047 2.32802 8 2.49999 8C2.67196 8 2.84089 7.97047 3 7.91421V11C3 11.2652 3.10536 11.5196 3.29289 11.7071C3.48043 11.8946 3.73478 12 4 12H12C12.2652 12 12.5196 11.8946 12.7071 11.7071C12.8946 11.5196 13 11.2652 13 11V6.842L8.239 9.442C8.16589 9.48262 8.08364 9.50395 8 9.50395C7.91636 9.50395 7.83411 9.48262 7.761 9.442L3.78641 7.27145C3.92501 7.04032 3.99999 6.77403 3.99999 6.5V6.24619L8 8.43099L13 5.7V5.094C13 5.00412 12.9757 4.91591 12.9298 4.83866C12.8838 4.7614 12.8179 4.69796 12.739 4.655L8 2.069L5.77944 3.28025C5.82274 3.2108 5.86021 3.13765 5.89138 3.06154C5.96432 2.88337 6.00124 2.69252 5.99999 2.5C5.9996 2.3501 5.97664 2.20142 5.93214 2.05889L7.761 1.062C7.83405 1.02118 7.91633 0.999756 8 0.999756C8.08367 0.999756 8.16596 1.02118 8.239 1.062L13.218 3.777C13.4546 3.90601 13.6522 4.09641 13.7898 4.32816C13.9274 4.55991 14 4.82446 14 5.094V11C13.9984 11.5299 13.7872 12.0377 13.4125 12.4125C13.0377 12.7872 12.5299 12.9984 12 13H4C3.47005 12.9984 2.96227 12.7872 2.58754 12.4125C2.21281 12.0377 2.00158 11.5299 2 11Z" fill="#202020"/>
<path d="M2.15 0.15L0.149998 2.15C0.102555 2.19512 0.0647811 2.24941 0.0389694 2.30958C0.0131577 2.36974 -0.000152588 2.43453 -0.000152588 2.5C-0.000152588 2.56547 0.0131577 2.63026 0.0389694 2.69042C0.0647811 2.75059 0.102555 2.80488 0.149998 2.85C0.195115 2.89744 0.249406 2.93522 0.309574 2.96103C0.369741 2.98684 0.434528 3.00015 0.499998 3.00015C0.565468 3.00015 0.630254 2.98684 0.690422 2.96103C0.750589 2.93522 0.80488 2.89744 0.849998 2.85L2 1.71V6.5C2 6.63261 2.05268 6.75979 2.14644 6.85355C2.24021 6.94732 2.36739 7 2.5 7C2.63261 7 2.75978 6.94732 2.85355 6.85355C2.94732 6.75979 3 6.63261 3 6.5V1.71L4.15 2.85C4.24314 2.94128 4.36855 2.99212 4.49896 2.99146C4.62938 2.9908 4.75426 2.9387 4.84648 2.84648C4.9387 2.75426 4.9908 2.62938 4.99146 2.49896C4.99211 2.36855 4.94128 2.24314 4.85 2.15L2.85 0.15C2.80488 0.102558 2.75059 0.0647836 2.69042 0.0389719C2.63025 0.0131602 2.56547 -0.000149727 2.5 -0.000149727C2.43453 -0.000149727 2.36974 0.0131602 2.30957 0.0389719C2.24941 0.0647836 2.19512 0.102558 2.15 0.15V0.15Z" fill="#006CBF"/>
</g>
<defs>
<clipPath id="clip0_7204_95854">
<rect width="16" height="16" fill="white"/>
</clipPath>
</defs>
</svg>
