<svg width="16" height="16" viewBox="0 0 16 16" fill="none" xmlns="http://www.w3.org/2000/svg">
<path d="M5 1C3.895 1 3 1.895 3 3V13C3 14.105 3.895 15 5 15H11C12.105 15 13 14.105 13 13V5.414C13 5.016 12.842 4.635 12.561 4.353L9.647 1.439C9.366 1.158 8.984 1 8.586 1H5ZM4 3C4 2.448 4.448 2 5 2H8V4.5C8 5.328 8.672 6 9.5 6H12V13C12 13.552 11.552 14 11 14H5C4.448 14 4 13.552 4 13V3ZM11.793 5H9.5C9.224 5 9 4.776 9 4.5V2.207L11.793 5Z" fill="#202020"/>
<path d="M5.25 8H5.75C5.88807 8 6 8.11193 6 8.25V8.75C6 8.88807 5.88807 9 5.75 9H5.25C5.11193 9 5 8.88807 5 8.75V8.25C5 8.11193 5.11193 8 5.25 8Z" fill="#202020"/>
<path d="M5.25 10H5.75C5.88807 10 6 10.1119 6 10.25V10.75C6 10.8881 5.88807 11 5.75 11H5.25C5.11193 11 5 10.8881 5 10.75V10.25C5 10.1119 5.11193 10 5.25 10Z" fill="#202020"/>
<path d="M5.25 12H5.75C5.88807 12 6 12.1119 6 12.25V12.75C6 12.8881 5.88807 13 5.75 13H5.25C5.11193 13 5 12.8881 5 12.75V12.25C5 12.1119 5.11193 12 5.25 12Z" fill="#202020"/>
<path d="M7.25 12H7.75C7.88807 12 8 12.1119 8 12.25V12.75C8 12.8881 7.88807 13 7.75 13H7.25C7.11193 13 7 12.8881 7 12.75V12.25C7 12.1119 7.11193 12 7.25 12Z" fill="#202020"/>
<path d="M9.75 12H9.25C9.11193 12 9 12.1119 9 12.25V12.75C9 12.8881 9.11193 13 9.25 13H9.75C9.88807 13 10 12.8881 10 12.75V12.25C10 12.1119 9.88807 12 9.75 12Z" fill="#202020"/>
<path d="M7.75 10H7.25C7.11193 10 7 10.1119 7 10.25V10.75C7 10.8881 7.11193 11 7.25 11H7.75C7.88807 11 8 10.8881 8 10.75V10.25C8 10.1119 7.88807 10 7.75 10Z" fill="#202020"/>
</svg>
