<svg width="16" height="16" viewBox="0 0 16 16" fill="none" xmlns="http://www.w3.org/2000/svg">
<g clip-path="url(#clip0_7204_95959)">
<path d="M5.99951 9.79297L5.99951 13C5.99951 13.5304 6.21023 14.0391 6.5853 14.4142C6.96037 14.7893 7.46908 15 7.99951 15H11.9995C12.5299 15 13.0387 14.7893 13.4137 14.4142C13.7888 14.0391 13.9995 13.5304 13.9995 13V3C13.9995 2.46957 13.7888 1.96086 13.4137 1.58579C13.0387 1.21071 12.5299 1 11.9995 1L8.74235 1C8.99598 1.30711 9.21691 1.64222 9.3998 2H11.9995C12.2647 2 12.5191 2.10536 12.7066 2.29289C12.8942 2.48043 12.9995 2.73478 12.9995 3V13C12.9995 13.2652 12.8942 13.5196 12.7066 13.7071C12.5191 13.8946 12.2647 14 11.9995 14H7.99951C7.7343 14 7.47994 13.8946 7.29241 13.7071C7.10487 13.5196 6.99951 13.2652 6.99951 13V9.40029C6.68272 9.56223 6.34815 9.69436 5.99951 9.79297Z" fill="#202020"/>
<path d="M9.97709 5H11.4995C11.6321 5 11.7593 4.94732 11.8531 4.85355C11.9468 4.75979 11.9995 4.63261 11.9995 4.5C11.9995 4.36739 11.9468 4.24021 11.8531 4.14645C11.7593 4.05268 11.6321 4 11.4995 4H9.97709C9.99193 4.16468 9.99951 4.33146 9.99951 4.5C9.99951 4.66854 9.99193 4.83532 9.97709 5Z" fill="#202020"/>
<path d="M8.14596 10.8536C8.23973 10.9473 8.3669 11 8.49951 11H11.4995C11.6321 11 11.7593 10.9473 11.8531 10.8536C11.9468 10.7598 11.9995 10.6326 11.9995 10.5C11.9995 10.3674 11.9468 10.2402 11.8531 10.1464C11.7593 10.0527 11.6321 10 11.4995 10H8.49951C8.3669 10 8.23973 10.0527 8.14596 10.1464C8.05219 10.2402 7.99951 10.3674 7.99951 10.5C7.99951 10.6326 8.05219 10.7598 8.14596 10.8536Z" fill="#202020"/>
<path d="M11.8531 12.8536C11.7593 12.9473 11.6321 13 11.4995 13H8.49951C8.3669 13 8.23973 12.9473 8.14596 12.8536C8.05219 12.7598 7.99951 12.6326 7.99951 12.5C7.99951 12.3674 8.05219 12.2402 8.14596 12.1464C8.23973 12.0527 8.3669 12 8.49951 12H11.4995C11.6321 12 11.7593 12.0527 11.8531 12.1464C11.9468 12.2402 11.9995 12.3674 11.9995 12.5C11.9995 12.6326 11.9468 12.7598 11.8531 12.8536Z" fill="#202020"/>
<path fill-rule="evenodd" clip-rule="evenodd" d="M1.99945 0.758387C2.73947 0.26392 3.6095 0 4.49951 0C5.69299 0 6.83758 0.474106 7.68149 1.31802C8.52541 2.16193 8.99951 3.30653 8.99951 4.5C8.99951 5.39002 8.73559 6.26004 8.24113 7.00007C7.74666 7.74009 7.04386 8.31686 6.22159 8.65746C5.39932 8.99805 4.49452 9.08717 3.62161 8.91353C2.74869 8.7399 1.94687 8.31132 1.31753 7.68198C0.688197 7.05264 0.259613 6.25082 0.08598 5.37791C-0.0876535 4.50499 0.00146148 3.60019 0.342056 2.77792C0.68265 1.95566 1.25943 1.25285 1.99945 0.758387ZM6.71251 4.937L3.74251 6.587C3.6664 6.62932 3.58055 6.65103 3.49347 6.64998C3.40639 6.64893 3.32109 6.62515 3.24603 6.581C3.17096 6.53685 3.10873 6.47386 3.06549 6.39826C3.02225 6.32266 2.99951 6.23708 2.99951 6.15V2.85C2.99951 2.76291 3.02225 2.67733 3.06549 2.60173C3.10873 2.52614 3.17096 2.46315 3.24603 2.41899C3.32109 2.37484 3.40639 2.35106 3.49347 2.35001C3.58055 2.34896 3.6664 2.37067 3.74251 2.413L6.71251 4.063C6.79042 4.10631 6.85533 4.16967 6.90053 4.2465C6.94572 4.32334 6.96955 4.41086 6.96955 4.5C6.96955 4.58914 6.94572 4.67666 6.90053 4.75349C6.85533 4.83033 6.79042 4.89368 6.71251 4.937Z" fill="#11910D"/>
</g>
<defs>
<clipPath id="clip0_7204_95959">
<rect width="16" height="16" fill="white"/>
</clipPath>
</defs>
</svg>
