<svg width="16" height="16" viewBox="0 0 16 16" fill="none" xmlns="http://www.w3.org/2000/svg">
<path d="M7.38679 9.18253C7.75078 9.67829 8.3378 10.0001 8.99998 10.0001C10.1045 10.0001 11 9.10467 11 8.0001C11 7.16067 10.4828 6.44202 9.74973 6.14538C9.64909 6.46685 9.51973 6.77561 9.36466 7.06869C9.7366 7.21442 9.99998 7.57651 9.99998 8.0001C9.99998 8.55239 9.55227 9.0001 8.99998 9.0001C8.66468 9.0001 8.36793 8.83509 8.1865 8.58183C7.93928 8.80525 7.67167 9.00653 7.38679 9.18253Z" fill="#202020"/>
<path d="M9.99991 4.5385C10 4.52571 10 4.51291 10 4.50011C10 3.60609 9.78673 2.76189 9.40823 2.01562C9.69566 2.03479 9.97981 2.07419 10.2592 2.13336C10.3997 2.16312 10.5082 2.27437 10.534 2.41506L10.7937 3.83084C10.864 4.21424 11.233 4.46836 11.6181 4.39844C11.6559 4.39156 11.6932 4.38163 11.7294 4.36876L13.0889 3.88473C13.224 3.83662 13.3749 3.87441 13.4711 3.98043C14.04 4.60739 14.4711 5.34719 14.7328 6.15313C14.777 6.28909 14.7344 6.43815 14.625 6.53064L13.5231 7.46215C13.2248 7.7144 13.1883 8.15971 13.4416 8.45678C13.4665 8.48599 13.4938 8.51313 13.5231 8.53792L14.625 9.46945C14.7344 9.56194 14.777 9.71099 14.7328 9.84696C14.4711 10.6529 14.04 11.3927 13.4711 12.0197C13.3749 12.1257 13.224 12.1635 13.0889 12.1154L11.7294 11.6314C11.3608 11.5002 10.9553 11.6914 10.8236 12.0584C10.8106 12.0945 10.8006 12.1315 10.7937 12.1693L10.534 13.585C10.5082 13.7257 10.3997 13.837 10.2592 13.8667C9.84822 13.9538 9.42689 13.998 9.00004 13.998C8.57293 13.998 8.15135 13.9537 7.74017 13.8666C7.59964 13.8368 7.49108 13.7255 7.46533 13.5847L7.20634 12.1692C7.13612 11.7859 6.76706 11.5317 6.38201 11.6016C6.34414 11.6085 6.30691 11.6185 6.27073 11.6313L4.91119 12.1154C4.77607 12.1635 4.62515 12.1257 4.52896 12.0197C3.96376 11.3967 3.53453 10.6625 3.27234 9.86257C3.63395 9.94502 4.00912 9.99182 4.39396 9.9991C4.55371 10.3628 4.75681 10.7064 4.99867 11.0227L5.93533 10.6893C6.02254 10.6582 6.11231 10.6343 6.20335 10.6177C7.12747 10.4499 8.01969 11.0593 8.18998 11.9891L8.36742 12.9589C8.57575 12.9849 8.78688 12.998 9.00004 12.998C9.21304 12.998 9.42402 12.9849 9.63219 12.9589L9.81008 11.9892C9.82681 11.8979 9.851 11.8079 9.88235 11.7206C10.2013 10.8318 11.1797 10.3743 12.0646 10.6892L13.0014 11.0227C13.2565 10.6891 13.4684 10.3252 13.6319 9.93935L12.8775 9.30161C12.8067 9.24176 12.7409 9.1762 12.6807 9.10566C12.0675 8.38659 12.1566 7.30798 12.8775 6.69851L13.6319 6.06074C13.4684 5.67487 13.2565 5.31094 13.0014 4.97736L12.0648 5.31083C11.9775 5.34186 11.8878 5.36582 11.7967 5.38235C11.0621 5.51576 10.3476 5.15797 9.99991 4.5385Z" fill="#202020"/>
<path fill-rule="evenodd" clip-rule="evenodd" d="M1.99994 0.758387C2.73996 0.26392 3.60999 0 4.5 0C5.69348 0 6.83807 0.474106 7.68198 1.31802C8.5259 2.16193 9 3.30653 9 4.5C9 5.39002 8.73608 6.26004 8.24162 7.00007C7.74715 7.74009 7.04434 8.31686 6.22208 8.65746C5.39981 8.99805 4.49501 9.08717 3.6221 8.91353C2.74918 8.7399 1.94736 8.31132 1.31802 7.68198C0.688685 7.05264 0.260102 6.25082 0.0864683 5.37791C-0.0871652 4.50499 0.00194976 3.60019 0.342544 2.77792C0.683138 1.95566 1.25991 1.25285 1.99994 0.758387ZM6.713 4.937L3.743 6.587C3.66689 6.62932 3.58104 6.65103 3.49396 6.64998C3.40688 6.64893 3.32158 6.62515 3.24652 6.581C3.17145 6.53685 3.10922 6.47386 3.06598 6.39826C3.02274 6.32266 3 6.23708 3 6.15V2.85C3 2.76291 3.02274 2.67733 3.06598 2.60173C3.10922 2.52614 3.17145 2.46315 3.24652 2.41899C3.32158 2.37484 3.40688 2.35106 3.49396 2.35001C3.58104 2.34896 3.66689 2.37067 3.743 2.413L6.713 4.063C6.79091 4.10631 6.85582 4.16967 6.90101 4.2465C6.94621 4.32334 6.97004 4.41086 6.97004 4.5C6.97004 4.58914 6.94621 4.67666 6.90101 4.75349C6.85582 4.83033 6.79091 4.89368 6.713 4.937Z" fill="#11910D"/>
</svg>
