<svg width="16" height="16" viewBox="0 0 16 16" fill="none" xmlns="http://www.w3.org/2000/svg">
<path d="M13.5 4H2.5C2.224 4 2 3.776 2 3.5C2 3.224 2.224 3 2.5 3H13.5C13.776 3 14 3.224 14 3.5C14 3.776 13.776 4 13.5 4Z" fill="#202020"/>
<path d="M13.5 12C13.776 12 14 12.224 14 12.5C14 12.776 13.776 13 13.5 13H2.5C2.224 13 2 12.776 2 12.5C2 12.224 2.224 12 2.5 12H13.5Z" fill="#202020"/>
<path fill-rule="evenodd" clip-rule="evenodd" d="M6 5C5.449 5 5 5.448 5 6V10C5 10.552 5.449 11 6 11H8C8.551 11 9 10.552 9 10V6C9 5.448 8.551 5 8 5H6ZM8 10H6V6H8V10Z" fill="#202020"/>
<path fill-rule="evenodd" clip-rule="evenodd" d="M11 5H13C13.551 5 14 5.448 14 6V10C14 10.552 13.551 11 13 11H11C10.449 11 10 10.552 10 10V6C10 5.448 10.449 5 11 5ZM11 10H13V6H11V10Z" fill="#202020"/>
</svg>
