<svg width="16" height="16" viewBox="0 0 16 16" fill="none" xmlns="http://www.w3.org/2000/svg">
<path d="M13 1H9C8.449 1 8 1.448 8 2V4C8 4.552 8.449 5 9 5H13C13.551 5 14 4.552 14 4V2C14 1.448 13.551 1 13 1ZM13 4H9V2H13V4ZM13 11H9C8.449 11 8 11.448 8 12V14C8 14.552 8.449 15 9 15H13C13.551 15 14 14.552 14 14V12C14 11.448 13.551 11 13 11ZM13 14H9V12H13V14Z" fill="#202020"/>
<path d="M13 10.0002H9C8.449 10.0002 8 9.55225 8 9.00025V7.00025C8 6.44825 8.449 6.00025 9 6.00025H13C13.551 6.00025 14 6.44825 14 7.00025V9.00025C14 9.55225 13.551 10.0002 13 10.0002ZM9 7.00025V9.00025H13V7.00025H9ZM6.854 7.14625L4.854 5.14625C4.659 4.95125 4.342 4.95125 4.147 5.14625C3.952 5.34125 3.952 5.65825 4.147 5.85325L5.293 6.99925H1.5C1.224 6.99925 1 7.22325 1 7.49925C1 7.77525 1.224 7.99925 1.5 7.99925H5.293L4.147 9.14525C3.952 9.34025 3.952 9.65725 4.147 9.85225C4.245 9.95025 4.373 9.99825 4.501 9.99825C4.629 9.99825 4.757 9.94925 4.855 9.85225L6.855 7.85225C7.05 7.65725 7.05 7.34025 6.855 7.14525L6.854 7.14625Z" fill="#006CBF"/>
</svg>
