<svg width="16" height="16" viewBox="0 0 16 16" fill="none" xmlns="http://www.w3.org/2000/svg">
<path d="M9.5 5H6.5C6.36739 5 6.24021 4.94732 6.14645 4.85355C6.05268 4.75979 6 4.63261 6 4.5C6 4.36739 6.05268 4.24021 6.14645 4.14645C6.24021 4.05268 6.36739 4 6.5 4H9.5C9.63261 4 9.75979 4.05268 9.85355 4.14645C9.94732 4.24021 10 4.36739 10 4.5C10 4.63261 9.94732 4.75979 9.85355 4.85355C9.75979 4.94732 9.63261 5 9.5 5Z" fill="#202020"/>
<path d="M6.5 11H9.5C9.63261 11 9.75979 10.9473 9.85355 10.8536C9.94732 10.7598 10 10.6326 10 10.5C10 10.3674 9.94732 10.2402 9.85355 10.1464C9.75979 10.0527 9.63261 10 9.5 10H6.5C6.4361 10 6.37347 10.0122 6.31522 10.0354C6.23836 10.2441 6.13848 10.4438 6.01737 10.6306C6.03999 10.7142 6.08415 10.7913 6.14645 10.8536C6.24021 10.9473 6.36739 11 6.5 11Z" fill="#202020"/>
<path d="M7.94954 13C7.8758 12.6386 7.72272 12.2968 7.50018 12H9.5C9.63261 12 9.75979 12.0527 9.85355 12.1464C9.94732 12.2402 10 12.3674 10 12.5C10 12.6326 9.94732 12.7598 9.85355 12.8536C9.75979 12.9473 9.63261 13 9.5 13H7.94954Z" fill="#202020"/>
<path d="M7.96132 14H10C10.2652 14 10.5196 13.8946 10.7071 13.7071C10.8946 13.5196 11 13.2652 11 13V3C11 2.73478 10.8946 2.48043 10.7071 2.29289C10.5196 2.10536 10.2652 2 10 2H6C5.73478 2 5.48043 2.10536 5.29289 2.29289C5.10536 2.48043 5 2.73478 5 3V6.40073C4.68997 6.22174 4.3512 6.10013 4 6.04077V3C4 2.46957 4.21071 1.96086 4.58579 1.58579C4.96086 1.21071 5.46957 1 6 1H10C10.5304 1 11.0391 1.21071 11.4142 1.58579C11.7893 1.96086 12 2.46957 12 3V13C12 13.5304 11.7893 14.0391 11.4142 14.4142C11.0391 14.7893 10.5304 15 10 15H7.62843C7.79748 14.6821 7.90759 14.3441 7.96132 14Z" fill="#202020"/>
<path d="M1.5 9C1.5 9.39556 1.6173 9.78224 1.83706 10.1111C2.05682 10.44 2.36918 10.6964 2.73463 10.8478C3.10009 10.9991 3.50222 11.0387 3.89018 10.9616C4.27814 10.8844 4.63451 10.6939 4.91421 10.4142C5.19392 10.1345 5.3844 9.77814 5.46157 9.39018C5.53874 9.00222 5.49913 8.60009 5.34776 8.23463C5.19638 7.86918 4.94004 7.55682 4.61114 7.33706C4.28224 7.1173 3.89556 7 3.5 7C2.96957 7 2.46086 7.21071 2.08579 7.58579C1.71071 7.96086 1.5 8.46957 1.5 9ZM0 13.5C0 14.745 1 16 3.5 16C6 16 7 14.75 7 13.5C7 13.1022 6.84196 12.7206 6.56066 12.4393C6.27936 12.158 5.89782 12 5.5 12H1.5C1.10218 12 0.720644 12.158 0.43934 12.4393C0.158035 12.7206 0 13.1022 0 13.5Z" fill="#202020"/>
</svg>
