<svg width="16" height="16" viewBox="0 0 16 16" fill="none" xmlns="http://www.w3.org/2000/svg">
<g clip-path="url(#clip0_7204_96088)">
<path d="M2.75 3C1.7835 3 1 3.7835 1 4.75V10.25C1 11.2165 1.7835 12 2.75 12H6.56462C6.62349 11.9155 6.68983 11.8362 6.76299 11.763C6.92544 11.6006 7.11829 11.4717 7.33053 11.3838C7.54278 11.2959 7.77026 11.2506 7.99999 11.2506C7.99999 11.2506 7.99999 11.2506 7.99999 11.2506L8 11H2.75C2.33579 11 2 10.6642 2 10.25V4.75C2 4.33579 2.33579 4 2.75 4H13.25C13.6642 4 14 4.33579 14 4.75V9.52595L14.263 9.26303C14.451 9.07414 14.6798 8.93091 14.9318 8.84434C14.9544 8.83658 14.9772 8.8293 15 8.82249V4.75C15 3.7835 14.2165 3 13.25 3H2.75Z" fill="#202020"/>
<path d="M4.5 7C4.22386 7 4 7.22386 4 7.5C4 7.77614 4.22386 8 4.5 8H11.5C11.7761 8 12 7.77614 12 7.5C12 7.22386 11.7761 7 11.5 7H4.5Z" fill="#202020"/>
<path d="M10.5 16C10.4343 16.0001 10.3692 15.9873 10.3085 15.9623C10.2477 15.9372 10.1925 15.9004 10.146 15.854L7.64602 13.354C7.55213 13.2601 7.49939 13.1328 7.49939 13C7.49939 12.8672 7.55213 12.7399 7.64602 12.646C7.73991 12.5521 7.86725 12.4994 8.00002 12.4994C8.1328 12.4994 8.26013 12.5521 8.35402 12.646L10.5 14.793L15.146 10.146C15.2399 10.0521 15.3672 9.99939 15.5 9.99939C15.6328 9.99939 15.7601 10.0521 15.854 10.146C15.9479 10.2399 16.0007 10.3672 16.0007 10.5C16.0007 10.6328 15.9479 10.7601 15.854 10.854L10.854 15.854C10.8075 15.9004 10.7523 15.9372 10.6916 15.9623C10.6308 15.9873 10.5657 16.0001 10.5 16Z" fill="#11910D"/>
</g>
<defs>
<clipPath id="clip0_7204_96088">
<rect width="16" height="16" fill="white"/>
</clipPath>
</defs>
</svg>
