<svg width="16" height="16" viewBox="0 0 16 16" fill="none" xmlns="http://www.w3.org/2000/svg">
<g clip-path="url(#clip0_7204_96100)">
<path fill-rule="evenodd" clip-rule="evenodd" d="M7.571 12C7.795 11.14 8.571 10.5 9.5 10.5C9.61502 10.5 9.72781 10.5098 9.83756 10.5285L8.33303 12.0325C8.02739 12.3386 7.77793 12.6935 7.59388 13.0809C7.58571 13.0541 7.57808 13.0272 7.571 13H5.5C4.673 13 4 12.327 4 11.5V5.949C2.86 5.717 2 4.707 2 3.5C2 2.122 3.122 1 4.5 1C5.878 1 7 2.122 7 3.5C7 4.707 6.14 5.717 5 5.949V7H7.571C7.795 6.14 8.571 5.5 9.5 5.5C10.603 5.5 11.5 6.397 11.5 7.5C11.5 8.603 10.603 9.5 9.5 9.5C8.571 9.5 7.795 8.86 7.571 8H5V11.5C5 11.776 5.224 12 5.5 12H7.571ZM10.5 7.5C10.5 6.949 10.051 6.5 9.5 6.5C8.949 6.5 8.5 6.949 8.5 7.5C8.5 8.051 8.949 8.5 9.5 8.5C10.051 8.5 10.5 8.051 10.5 7.5ZM4.5 2C3.673 2 3 2.673 3 3.5C3 4.327 3.673 5 4.5 5C5.327 5 6 4.327 6 3.5C6 2.673 5.327 2 4.5 2Z" fill="#202020"/>
<path d="M15.5449 8.45393C15.2519 8.16159 14.8549 7.99741 14.4409 7.99741C14.027 7.99741 13.63 8.16159 13.3369 8.45393L9.04895 12.7414C8.69299 13.0975 8.44065 13.5437 8.31895 14.0322L8.01895 15.2431C7.99361 15.3451 7.99509 15.452 8.02324 15.5533C8.0514 15.6546 8.10528 15.747 8.17964 15.8213C8.25401 15.8957 8.34633 15.9495 8.44766 15.9777C8.54899 16.0058 8.65588 16.0073 8.75795 15.982L9.96895 15.682C10.4572 15.5598 10.9031 15.3071 11.2589 14.9511L15.5479 10.6637C15.6931 10.5185 15.8081 10.3461 15.8865 10.1564C15.9649 9.96672 16.0051 9.76343 16.0049 9.55817C16.0046 9.35292 15.9638 9.14973 15.8849 8.96025C15.806 8.77077 15.6905 8.59872 15.5449 8.45393V8.45393Z" fill="#006CBF"/>
</g>
<defs>
<clipPath id="clip0_7204_96100">
<rect width="16" height="16" fill="white"/>
</clipPath>
</defs>
</svg>
