<svg width="16" height="16" viewBox="0 0 16 16" fill="none" xmlns="http://www.w3.org/2000/svg">
<path d="M7.5 8.25C7.91421 8.25 8.25 7.91421 8.25 7.5C8.25 7.08579 7.91421 6.75 7.5 6.75C7.08579 6.75 6.75 7.08579 6.75 7.5C6.75 7.91421 7.08579 8.25 7.5 8.25Z" fill="#202020"/>
<path fill-rule="evenodd" clip-rule="evenodd" d="M10.663 6.89497C10.776 6.79797 10.838 6.65797 10.838 6.51497C10.838 6.45097 10.826 6.38597 10.8 6.32397L10.724 6.13897C10.611 5.86897 10.463 5.61297 10.281 5.37197L10.157 5.21397C10.059 5.09097 9.91401 5.02197 9.76401 5.02197C9.71001 5.02197 9.65401 5.03097 9.60101 5.04997L8.87901 5.30497C8.87101 5.30697 8.86201 5.30797 8.85301 5.30797C8.82201 5.30797 8.72001 5.28997 8.70001 5.18197L8.57101 4.45597C8.53301 4.23997 8.35801 4.07397 8.14001 4.04697L7.94001 4.02197C7.80101 4.00497 7.66201 3.99597 7.52101 3.99597C7.36801 3.99597 7.21501 4.00597 7.06001 4.02597L6.86001 4.05497C6.64901 4.08597 6.48001 4.24697 6.44001 4.45597L6.31801 5.14497L6.23201 5.28897C6.20701 5.30297 6.17901 5.30997 6.15201 5.30997C6.13501 5.30997 6.11701 5.30697 6.10101 5.30197L5.41001 5.05497C5.35501 5.03497 5.29801 5.02497 5.24101 5.02497C5.08901 5.02497 4.94001 5.09597 4.84501 5.22297L4.72201 5.38497C4.53401 5.62997 4.38301 5.90597 4.28201 6.14797L4.20501 6.33397C4.17901 6.39597 4.16701 6.45997 4.16701 6.52397C4.16701 6.66597 4.22701 6.80497 4.33901 6.90197L4.91701 7.39597C4.94301 7.42797 4.95301 7.45997 4.95301 7.48997C4.95301 7.53897 4.92701 7.58497 4.90001 7.62097L4.33601 8.10497C4.22201 8.20197 4.16101 8.34197 4.16101 8.48497C4.16101 8.54797 4.17301 8.61197 4.19801 8.67297L4.27401 8.86097C4.39001 9.12997 4.53901 9.38397 4.71801 9.61897L4.84101 9.77697C4.93801 9.90097 5.08501 9.96997 5.23601 9.96997C5.29001 9.96997 5.34501 9.96097 5.39901 9.94297L6.12101 9.68797C6.13001 9.68697 6.13901 9.68597 6.14701 9.68597C6.24501 9.68597 6.28901 9.76497 6.29801 9.81397L6.42801 10.54C6.46601 10.756 6.64101 10.921 6.85801 10.948L7.05701 10.973C7.19701 10.991 7.33801 10.999 7.48001 10.999C8.46786 10.999 8.52454 10.7116 8.55541 10.555L8.55801 10.542L8.68101 9.85597L8.77101 9.70597C8.79501 9.69297 8.82301 9.68597 8.85001 9.68597C8.86801 9.68597 8.88501 9.68897 8.90201 9.69397L9.59101 9.93797C9.64601 9.95697 9.70201 9.96697 9.75801 9.96697C9.91201 9.96697 10.06 9.89597 10.156 9.76897L10.274 9.61297C10.354 9.50697 10.564 9.21697 10.715 8.84797L10.791 8.66197C10.816 8.60097 10.828 8.53697 10.828 8.47297C10.828 8.33197 10.768 8.19297 10.657 8.09597L10.079 7.60097H10.081C10.055 7.57097 10.045 7.53897 10.045 7.50897C10.045 7.46097 10.07 7.41597 10.098 7.37797L10.663 6.89497ZM9.36301 8.29297L9.72601 8.60997C9.66935 8.72713 9.62007 8.80279 9.57994 8.8644L9.57501 8.87197L9.23501 8.75097C9.10901 8.70697 8.97901 8.68497 8.84901 8.68497C8.55101 8.68497 8.10101 8.80097 7.81601 9.32797L7.64501 9.99297C7.58601 9.99597 7.52901 9.99797 7.47301 9.99797C7.43001 9.99797 7.38801 9.99697 7.34501 9.99497L7.28301 9.64097C7.21901 9.27397 6.87201 8.69097 6.16201 8.69097C6.06901 8.69097 5.97101 8.70097 5.86701 8.72197L5.41701 8.87697C5.36101 8.79397 5.31101 8.70897 5.26701 8.62197L5.55801 8.37197C5.82101 8.13797 5.94901 7.82997 5.94901 7.51597C5.94901 7.26497 5.86501 6.98197 5.63301 6.70297L5.27101 6.38697C5.33247 6.26227 5.39948 6.15741 5.41905 6.12679L5.42401 6.11897L5.76801 6.24197C5.89301 6.28597 6.02401 6.30797 6.15401 6.30797C6.85449 6.30797 7.14969 5.73784 7.18475 5.67012L7.18801 5.66397L7.35501 4.99897C7.40701 4.99497 7.46101 4.99297 7.51401 4.99297C7.56001 4.99297 7.60701 4.99397 7.65301 4.99797L7.71601 5.35597C7.78301 5.72097 8.13001 6.29897 8.83501 6.29897C8.92901 6.29897 9.02801 6.28897 9.13401 6.26697L9.58201 6.11197C9.63801 6.19497 9.68701 6.28197 9.73201 6.37097L9.44001 6.62097C9.37601 6.67697 9.04901 6.96697 9.04901 7.47997C9.04901 7.73097 9.13301 8.01297 9.36301 8.28997V8.29297Z" fill="#202020"/>
<path fill-rule="evenodd" clip-rule="evenodd" d="M3.5 1H11.5C12.878 1 14 2.121 14 3.5V11.5C14 12.879 12.878 14 11.5 14H3.5C2.122 14 1 12.879 1 11.5V3.5C1 2.121 2.122 1 3.5 1ZM11.5 13C12.327 13 13 12.327 13 11.5V3.5C13 2.673 12.327 2 11.5 2H3.5C2.673 2 2 2.673 2 3.5V11.5C2 12.327 2.673 13 3.5 13H11.5Z" fill="#202020"/>
</svg>
