<svg width="16" height="16" viewBox="0 0 16 16" fill="none" xmlns="http://www.w3.org/2000/svg">
<g clip-path="url(#clip0_7204_96161)">
<path d="M6.00001 15.002C6.00078 14.6941 6.07264 14.3878 6.21351 14.1079L6.27035 13.9942C6.17973 14.0006 6.08887 14.004 5.99801 14.004C5.85101 14.004 5.70401 13.996 5.55801 13.979L5.43101 13.254C5.34501 12.706 4.86501 12.024 3.99201 12.024C3.89301 12.024 3.79401 12.034 3.69601 12.054C3.61801 12.068 3.54201 12.089 3.46801 12.116L2.76301 12.366C2.59001 12.132 2.44301 11.879 2.32501 11.613L2.89001 11.135C3.23301 10.847 3.41801 10.427 3.41801 10C3.41801 9.64903 3.28701 9.20303 2.89101 8.86403L2.32501 8.38603C2.44301 8.12003 2.59001 7.86703 2.76401 7.63303L3.46401 7.88303C3.62101 7.93603 3.78401 7.96203 3.94601 7.96203C4.09001 7.96203 5.00801 7.92303 5.36401 6.98303C5.39101 6.90703 5.41101 6.82803 5.42601 6.74903L5.55901 6.02503C5.70501 6.00903 5.85201 6.00203 5.99901 6.00203C6.14601 6.00203 6.29301 6.01003 6.43901 6.02503L6.57401 6.75303C6.78301 7.94103 7.96701 7.97403 8.02801 7.97403C8.28901 7.97403 8.49101 7.90303 8.54001 7.88503L9.24001 7.63503C9.2825 7.69217 9.32339 7.75039 9.36263 7.80963L9.71351 7.10787C9.76238 7.00982 9.81901 6.91635 9.88268 6.82828L9.81301 6.73903C9.78801 6.70703 9.65801 6.54303 9.41601 6.54303C9.35901 6.54303 9.30201 6.55303 9.24801 6.57203L8.19801 6.94403L8.04201 6.97203C7.80601 6.97203 7.60401 6.80403 7.56201 6.57203L7.36201 5.48303C7.32201 5.26903 7.14801 5.10503 6.93201 5.07803L6.63201 5.04103C6.42301 5.01503 6.21301 5.00103 6.00301 5.00103C5.79301 5.00103 5.58201 5.01403 5.37301 5.04103L5.07301 5.07803C4.85601 5.10503 4.68201 5.26903 4.64301 5.48403L4.42301 6.64903C4.30501 6.95703 4.00301 6.97003 3.95601 6.97003C3.90301 6.97003 3.84901 6.96203 3.79801 6.94403L2.74801 6.57203C2.69301 6.55203 2.63501 6.54203 2.57701 6.54203C2.33401 6.54203 2.20401 6.70703 2.17901 6.73903L1.99801 6.97503C1.74701 7.31003 1.53801 7.67503 1.37701 8.06103L1.26001 8.33803C1.23401 8.40003 1.22101 8.46603 1.22101 8.53203C1.22101 8.77045 1.38429 8.90289 1.39735 8.91348C1.39721 8.91337 1.39765 8.91373 1.39735 8.91348L2.29801 9.68803C2.39401 9.80103 2.41201 9.92603 2.41201 10C2.41201 10.0002 2.41202 10.0006 2.41203 10.0011C2.41236 10.0194 2.41604 10.2242 2.23701 10.373L1.39001 11.089C1.39032 11.0888 1.38988 11.0891 1.39001 11.089C1.37696 11.0996 1.21301 11.2326 1.21301 11.471C1.21301 11.537 1.22601 11.603 1.25201 11.665L1.36901 11.943C1.53301 12.331 1.74701 12.696 2.00301 13.03L2.18401 13.266C2.20901 13.298 2.33901 13.461 2.58001 13.461C2.63701 13.461 2.69401 13.451 2.74801 13.432L3.79501 13.066L3.95901 13.037C4.19601 13.037 4.39701 13.206 4.44001 13.437L4.64001 14.526C4.68201 14.738 4.85501 14.9 5.07001 14.926L5.36401 14.963C5.57001 14.989 5.77701 15.002 5.98401 15.002H6.00001Z" fill="#202020"/>
<path d="M7.06888 12.3971C6.89806 12.5398 6.74149 12.7392 6.63401 13.018C6.60701 13.095 6.58601 13.174 6.57101 13.254L6.53078 13.4733L7.06888 12.3971Z" fill="#202020"/>
<path d="M12.5 4.25203C12.914 4.25203 13.25 3.91603 13.25 3.50203C13.25 3.08803 12.914 2.75203 12.5 2.75203C12.086 2.75203 11.75 3.08803 11.75 3.50203C11.75 3.91603 12.086 4.25203 12.5 4.25203Z" fill="#202020"/>
<path fill-rule="evenodd" clip-rule="evenodd" d="M15.098 3.38003C15.053 3.44103 15.015 3.52303 15.081 3.60403L15.079 3.60303L15.657 4.09803C15.818 4.23903 15.872 4.46603 15.791 4.66403L15.715 4.85003C15.66 4.98503 15.595 5.11403 15.524 5.23803C15.44 5.38203 15.361 5.50003 15.274 5.61503L15.156 5.77103C15.026 5.94403 14.797 6.01303 14.591 5.94003L13.902 5.69603C13.86 5.68303 13.811 5.68603 13.771 5.70803L13.681 5.85803L13.558 6.54403C13.527 6.69603 13.429 6.82703 13.29 6.89603C13.2689 6.90657 13.2361 6.91705 13.1916 6.92748C13.0303 6.67361 12.8133 6.4586 12.5561 6.29937C12.2399 6.10367 11.8754 6 11.5035 6C11.4462 6 11.3891 6.00246 11.3323 6.00734L11.298 5.81603C11.29 5.77103 11.261 5.73003 11.225 5.70903C11.193 5.69003 11.158 5.68503 11.121 5.69003L10.399 5.94503C10.196 6.01403 9.97301 5.94803 9.84101 5.77903L9.71801 5.62103C9.53901 5.38603 9.39001 5.13203 9.27401 4.86303L9.19801 4.67503C9.11701 4.47603 9.17201 4.24703 9.33601 4.10703L9.90001 3.62303C9.94301 3.56503 9.98501 3.48203 9.91701 3.39803L9.33901 2.90403C9.17701 2.76303 9.12301 2.53403 9.20501 2.33603L9.28201 2.15003C9.33901 2.01303 9.40601 1.88003 9.47801 1.75403C9.55101 1.62703 9.63201 1.50403 9.72201 1.38703L9.84501 1.22503C9.97501 1.05003 10.207 0.982026 10.41 1.05703L11.101 1.30403C11.143 1.31803 11.192 1.31403 11.232 1.29103L11.318 1.14703L11.44 0.458026C11.48 0.249026 11.649 0.0880256 11.86 0.0570256L12.06 0.0280256C12.357 -0.00997443 12.651 -0.0119744 12.94 0.0240256L13.14 0.0490256C13.358 0.0760256 13.533 0.242026 13.571 0.458026L13.7 1.18403C13.708 1.22703 13.735 1.26603 13.775 1.28903C13.807 1.30703 13.847 1.31403 13.879 1.30703L14.601 1.05203C14.803 0.982026 15.024 1.04803 15.157 1.21603L15.281 1.37403C15.463 1.61503 15.611 1.87103 15.724 2.14103L15.8 2.32603C15.883 2.52603 15.827 2.75603 15.663 2.89703L15.098 3.38003ZM14.726 4.61203L14.363 4.29503V4.29303C13.931 3.77203 14.015 3.23503 14.201 2.91503C14.263 2.80703 14.344 2.70903 14.44 2.62403L14.732 2.37403C14.687 2.28503 14.638 2.19803 14.582 2.11503L14.134 2.27003C13.792 2.34003 13.514 2.29203 13.277 2.15503C12.98 1.98303 12.777 1.69303 12.716 1.35903L12.653 1.00103C12.554 0.994026 12.453 0.995025 12.355 1.00203L12.188 1.66703C12.051 1.91103 11.906 2.05603 11.733 2.15603C11.439 2.32603 11.086 2.35703 10.768 2.24503L10.424 2.12203C10.397 2.16403 10.37 2.20703 10.345 2.25103C10.319 2.29703 10.294 2.34303 10.271 2.39003L10.633 2.70603C11.067 3.22903 10.983 3.76403 10.798 4.08303C10.737 4.19003 10.658 4.28603 10.558 4.37503L10.267 4.62503C10.311 4.71203 10.361 4.79703 10.417 4.88003L10.867 4.72503C11.207 4.65503 11.487 4.70503 11.722 4.84103C12.015 5.00803 12.225 5.30903 12.283 5.64303L12.345 5.99703C12.444 6.00203 12.542 6.00103 12.645 5.99503L12.816 5.33003C12.944 5.09303 13.091 4.94503 13.27 4.84203C13.563 4.67303 13.915 4.64003 14.235 4.75303L14.575 4.87403C14.603 4.83103 14.632 4.78603 14.66 4.73703C14.683 4.69703 14.705 4.65503 14.726 4.61203Z" fill="#202020"/>
<path fill-rule="evenodd" clip-rule="evenodd" d="M4.00001 10.002C4.00001 8.89903 4.89701 8.00203 6.00001 8.00203C7.10301 8.00203 8.00001 8.89903 8.00001 10.002C8.00001 11.105 7.10301 12.002 6.00001 12.002C4.89701 12.002 4.00001 11.105 4.00001 10.002ZM5.00001 10.002C5.00001 10.553 5.44801 11.002 6.00001 11.002C6.55201 11.002 7.00001 10.553 7.00001 10.002C7.00001 9.45103 6.55201 9.00203 6.00001 9.00203C5.44801 9.00203 5.00001 9.45103 5.00001 10.002Z" fill="#202020"/>
<path fill-rule="evenodd" clip-rule="evenodd" d="M12.3931 7.55201L15.8931 14.552C15.9694 14.7044 16.0056 14.8738 15.9981 15.044C15.9906 15.2143 15.9397 15.3799 15.8502 15.5249C15.7607 15.67 15.6357 15.7898 15.4869 15.8729C15.3381 15.9561 15.1705 15.9998 15.0001 16H8.00006C7.8292 16.0007 7.66101 15.9576 7.51154 15.8748C7.36207 15.792 7.23631 15.6723 7.14625 15.5271C7.0562 15.3818 7.00486 15.216 6.99712 15.0453C6.98938 14.8746 7.02551 14.7048 7.10206 14.552L10.6021 7.55201C10.6849 7.38534 10.8126 7.24509 10.9708 7.14705C11.129 7.04901 11.3114 6.99707 11.4976 6.99707C11.6837 6.99707 11.8661 7.04901 12.0243 7.14705C12.1825 7.24509 12.3102 7.38534 12.3931 7.55201ZM12 12.495V9.495C12 9.36239 11.9473 9.23521 11.8536 9.14144C11.7598 9.04767 11.6326 8.995 11.5 8.995C11.3674 8.995 11.2402 9.04767 11.1464 9.14144C11.0527 9.23521 11 9.36239 11 9.495V12.495C11 12.6276 11.0527 12.7548 11.1464 12.8485C11.2402 12.9423 11.3674 12.995 11.5 12.995C11.6326 12.995 11.7598 12.9423 11.8536 12.8485C11.9473 12.7548 12 12.6276 12 12.495ZM11.2222 14.0843C11.3044 14.0293 11.4011 14 11.5 14C11.6326 14 11.7598 14.0527 11.8536 14.1464C11.9473 14.2402 12 14.3674 12 14.5C12 14.5989 11.9707 14.6956 11.9157 14.7778C11.8608 14.86 11.7827 14.9241 11.6913 14.9619C11.6 14.9998 11.4994 15.0097 11.4025 14.9904C11.3055 14.9711 11.2164 14.9235 11.1464 14.8535C11.0765 14.7836 11.0289 14.6945 11.0096 14.5975C10.9903 14.5006 11.0002 14.4 11.0381 14.3087C11.0759 14.2173 11.14 14.1392 11.2222 14.0843Z" fill="#B27C00"/>
</g>
<defs>
<clipPath id="clip0_7204_96161">
<rect width="16" height="16" fill="white"/>
</clipPath>
</defs>
</svg>
