<svg width="16" height="16" viewBox="0 0 16 16" fill="none" xmlns="http://www.w3.org/2000/svg">
<g clip-path="url(#clip0_7204_96174)">
<path fill-rule="evenodd" clip-rule="evenodd" d="M6.99896 8C6.99896 6.89543 7.89439 6 8.99896 6C10.1035 6 10.999 6.89543 10.999 8C10.999 9.10457 10.1035 10 8.99896 10C7.89439 10 6.99896 9.10457 6.99896 8ZM8.99896 7C8.44668 7 7.99896 7.44772 7.99896 8C7.99896 8.55228 8.44668 9 8.99896 9C9.55125 9 9.99896 8.55228 9.99896 8C9.99896 7.44772 9.55125 7 8.99896 7Z" fill="#202020"/>
<path d="M10.7927 3.83074C10.8629 4.21413 11.232 4.46825 11.6171 4.39833C11.6549 4.39146 11.6922 4.38152 11.7283 4.36865L13.0879 3.88463C13.223 3.83652 13.3739 3.87431 13.4701 3.98033C14.039 4.60729 14.4701 5.34708 14.7318 6.15302C14.776 6.28899 14.7334 6.43805 14.624 6.53053L13.5221 7.46205C13.2237 7.71429 13.1873 8.1596 13.4406 8.45667C13.4655 8.48589 13.4928 8.51303 13.5221 8.53782L14.624 9.46935C14.7334 9.56183 14.776 9.71089 14.7318 9.84685C14.4701 10.6528 14.039 11.3926 13.4701 12.0196C13.3739 12.1256 13.223 12.1634 13.0879 12.1153L11.7284 11.6312C11.3598 11.5001 10.9543 11.6913 10.8226 12.0583C10.8096 12.0944 10.7996 12.1314 10.7927 12.1692L10.533 13.5849C10.5072 13.7256 10.3986 13.8369 10.2581 13.8666C9.84721 13.9537 9.42587 13.9979 8.99902 13.9979C8.57191 13.9979 8.15033 13.9536 7.73915 13.8665C7.59862 13.8367 7.49007 13.7254 7.46431 13.5846L7.20533 12.1691C7.17753 12.0174 7.10292 11.8859 6.99902 11.7867V10.6618C7.59266 10.84 8.06924 11.3353 8.18896 11.989L8.3664 12.9587C8.57473 12.9848 8.78586 12.9979 8.99902 12.9979C9.21202 12.9979 9.423 12.9848 9.63117 12.9588L9.80906 11.9891C9.8258 11.8978 9.84999 11.8078 9.88134 11.7205C10.2003 10.8317 11.1787 10.3742 12.0636 10.6891L13.0004 11.0226C13.2555 10.689 13.4674 10.3251 13.6309 9.93924L12.8765 9.3015C12.8057 9.24166 12.7399 9.17609 12.6797 9.10555C12.0665 8.38649 12.1556 7.30787 12.8765 6.6984L13.6309 6.06064C13.4674 5.67476 13.2555 5.31084 13.0004 4.97726L12.0637 5.31073C11.9765 5.34176 11.8868 5.36572 11.7957 5.38225C10.8717 5.55003 9.97956 4.9408 9.80913 4.01117L9.63117 3.04107C9.423 3.0151 9.21202 3.00195 8.99902 3.00195C8.78586 3.00195 8.57473 3.01512 8.3664 3.04113L8.18899 4.01078C8.17226 4.1021 8.14805 4.19207 8.11671 4.2794C7.79774 5.16815 6.81919 5.62559 5.93425 5.3107L4.99765 4.97726C4.74259 5.31084 4.53063 5.67476 4.36716 6.06064L4.48905 6.16367C4.14655 6.0845 3.77712 6.03239 3.38602 6.011C3.36281 6.00899 3.3395 6.00735 3.3161 6.006C3.58115 5.25708 3.99384 4.56897 4.52794 3.98033C4.62414 3.87431 4.77505 3.83652 4.91017 3.88463L6.26965 4.36863C6.63822 4.49978 7.04378 4.30859 7.17549 3.9416C7.18844 3.90551 7.19842 3.86844 7.20532 3.8308L7.46431 2.41527C7.49007 2.27452 7.59862 2.1632 7.73915 2.13341C8.15033 2.04627 8.57191 2.00195 8.99902 2.00195C9.42587 2.00195 9.84721 2.04621 10.2581 2.13325C10.3986 2.16301 10.5072 2.27427 10.533 2.41496L10.7927 3.83074Z" fill="#202020"/>
<path d="M5.99902 8.5C5.99902 7.728 4.83202 7.092 3.33202 7.009C3.22269 7.003 3.11169 7 2.99902 7C2.88636 7 2.77536 7.003 2.66602 7.009C2.46973 7.01979 2.27413 7.04082 2.08002 7.072C1.82614 7.1117 1.57596 7.17223 1.33202 7.253C0.528024 7.522 -0.000976562 7.98 -0.000976562 8.5C-0.000976562 9.328 1.34202 10 2.99902 10C4.65602 10 5.99902 9.328 5.99902 8.5ZM5.99902 10.2V14.5C5.99902 15.328 4.65602 16 2.99902 16C1.34202 16 -0.000976562 15.328 -0.000976562 14.5V10.2C0.895723 10.7625 1.9413 11.0413 2.99902 11C4.05675 11.0413 5.10232 10.7625 5.99902 10.2Z" fill="#3487C7"/>
</g>
<defs>
<clipPath id="clip0_7204_96174">
<rect width="16" height="16" fill="white"/>
</clipPath>
</defs>
</svg>
