<svg width="16" height="16" viewBox="0 0 16 16" fill="none" xmlns="http://www.w3.org/2000/svg">
<g clip-path="url(#clip0_7204_96120)">
<path d="M13.49 6.49C13.685 6.685 13.685 7.002 13.49 7.197H13.491L10.834 9.854C10.639 10.049 10.322 10.049 10.127 9.854L8.62699 8.354C8.43199 8.159 8.43199 7.842 8.62699 7.647C8.82199 7.452 9.13899 7.452 9.33399 7.647L10.48 8.793L12.783 6.49C12.978 6.295 13.295 6.295 13.49 6.49Z" fill="#11910D"/>
<path d="M5.00862 8.79021C5.16054 11.6875 7.56571 13.999 10.501 13.999C13.534 13.999 16.001 11.531 16.001 8.49901C16.001 8.22301 15.777 7.99901 15.501 7.99901L15.5 8.00001C15.224 8.00001 15 8.22401 15 8.50001C15 10.981 12.981 13 10.5 13C8.01901 13 6.00001 10.981 6.00001 8.50001C6.00001 8.32856 6.00966 8.15942 6.02846 7.99308L5.663 8.345C5.46904 8.53188 5.24781 8.6815 5.00862 8.79021Z" fill="#202020"/>
<path d="M8.99606 4.27546C9.39779 4.13321 9.82555 4.04604 10.27 4.02301L9.64701 4.64601C9.45201 4.84101 9.45201 5.15801 9.64701 5.35301C9.74501 5.45101 9.87301 5.49901 10.001 5.49901C10.129 5.49901 10.257 5.45001 10.355 5.35301L11.855 3.85301C12.05 3.65801 12.05 3.34101 11.855 3.14601L10.355 1.64601C10.16 1.45101 9.84301 1.45101 9.64801 1.64601C9.45301 1.84101 9.45301 2.15801 9.64801 2.35301L10.304 3.00901C9.79369 3.02723 9.3008 3.11512 8.83467 3.26345C8.94703 3.54505 9.00396 3.849 9 4.162C8.99958 4.19998 8.99826 4.23781 8.99606 4.27546Z" fill="#202020"/>
<path d="M7.611 3.188L4.849 0.398C4.597 0.144 4.254 0 3.896 0H1.342C0.601 0 0 0.602 0 1.344V3.903C0 4.255 0.138 4.593 0.384 4.844L3.081 7.597C3.596 8.123 4.439 8.135 4.969 7.625L7.588 5.103C8.128 4.583 8.138 3.721 7.611 3.188ZM2.5 3.25C2.086 3.25 1.75 2.914 1.75 2.5C1.75 2.086 2.086 1.75 2.5 1.75C2.914 1.75 3.25 2.086 3.25 2.5C3.25 2.914 2.914 3.25 2.5 3.25Z" fill="#202020"/>
</g>
<defs>
<clipPath id="clip0_7204_96120">
<rect width="16" height="16" fill="white"/>
</clipPath>
</defs>
</svg>
