<svg width="16" height="16" viewBox="0 0 16 16" fill="none" xmlns="http://www.w3.org/2000/svg">
<path fill-rule="evenodd" clip-rule="evenodd" d="M3.961 8.691C3.987 8.631 4 8.566 4 8.501C4 8.436 3.987 8.371 3.961 8.311C3.935 8.251 3.897 8.197 3.85 8.151L3.2 7.501L3.85 6.851C3.897 6.806 3.935 6.752 3.961 6.691C3.987 6.631 4 6.566 4 6.501C4 6.436 3.987 6.371 3.961 6.311C3.935 6.251 3.897 6.197 3.85 6.151L3.2 5.501V4.889C3.644 4.758 4.044 4.506 4.353 4.161C4.662 3.816 4.869 3.392 4.951 2.936C5.033 2.48 4.986 2.01 4.816 1.579C4.646 1.148 4.359 0.773001 3.988 0.496001C3.616 0.218001 3.175 0.0500008 2.713 0.0100008C2.252 -0.0299992 1.788 0.0580008 1.374 0.266001C0.96 0.474001 0.612 0.793001 0.37 1.188C0.127 1.583 0 2.037 0 2.5C0 2.887 0.091 3.268 0.265 3.613C0.439 3.958 0.69 4.259 1 4.49V8.5C1 8.565 1.014 8.63 1.04 8.69C1.066 8.75 1.103 8.804 1.15 8.85L1.22 8.91L2.09 9.78L2.15 9.85C2.195 9.897 2.249 9.935 2.31 9.961C2.37 9.987 2.435 10 2.5 10C2.565 10 2.63 9.987 2.69 9.961C2.75 9.935 2.805 9.897 2.85 9.85L3.85 8.85C3.897 8.805 3.935 8.751 3.961 8.69V8.691ZM2.787 2.194C2.65 2.251 2.499 2.266 2.354 2.237C2.209 2.208 2.075 2.137 1.97 2.032C1.865 1.927 1.794 1.793 1.765 1.648C1.736 1.502 1.751 1.352 1.808 1.215C1.865 1.078 1.961 0.961001 2.084 0.878001C2.207 0.795001 2.352 0.752001 2.501 0.752001C2.7 0.752001 2.891 0.831001 3.031 0.972001C3.172 1.113 3.251 1.303 3.251 1.502C3.251 1.65 3.207 1.795 3.125 1.919C3.043 2.042 2.925 2.138 2.788 2.195L2.787 2.194Z" fill="#202020"/>
<path fill-rule="evenodd" clip-rule="evenodd" d="M12.561 4.354L9.647 1.44C9.366 1.159 8.984 1.001 8.586 1.001H5.648C5.799 1.317 5.9 1.652 5.951 2.001H8V4.501C8 5.329 8.672 6.001 9.5 6.001H12V7.08492C12.1603 7.02762 12.3295 6.99878 12.5 6.99989C12.6707 7.00033 12.8398 7.03003 13 7.08748V5.416C13 5.018 12.842 4.636 12.561 4.354ZM9.5 5C9.224 5 9 4.776 9 4.5V2.207L11.793 5H9.5Z" fill="#202020"/>
<path d="M12.744 13.9821C12.6635 13.9949 12.5819 14.0009 12.5 13.9999C12.2941 14.0006 12.0903 13.9581 11.9018 13.875C11.8198 13.8389 11.7414 13.7954 11.6677 13.7453C11.4906 13.9042 11.2565 14.001 11 14.001H5C4.448 14.001 4 13.553 4 13.001V10.114L3.555 10.559C3.417 10.699 3.253 10.811 3.071 10.887C3.05868 10.8924 3.04579 10.8957 3.03293 10.899C3.02179 10.9019 3.01068 10.9048 3 10.909V13.002C3 14.107 3.895 15.002 5 15.002H11C11.7488 15.002 12.4012 14.591 12.744 13.9821Z" fill="#202020"/>
<path d="M14.85 10.8498L12.85 12.8498C12.8049 12.8973 12.7506 12.9351 12.6904 12.9609C12.6303 12.9867 12.5655 13 12.5 13C12.4345 13 12.3697 12.9867 12.3096 12.9609C12.2494 12.9351 12.1951 12.8973 12.15 12.8498C12.1026 12.8047 12.0648 12.7504 12.039 12.6903C12.0132 12.6301 11.9998 12.5653 11.9998 12.4998C11.9998 12.4344 12.0132 12.3696 12.039 12.3094C12.0648 12.2493 12.1026 12.195 12.15 12.1498L13.29 10.9998L8.5 10.9998C8.36739 10.9998 8.24021 10.9472 8.14645 10.8534C8.05268 10.7596 8 10.6325 8 10.4998C8 10.3672 8.05268 10.2401 8.14645 10.1463C8.24021 10.0525 8.36739 9.99984 8.5 9.99984L13.29 9.99984L12.15 8.84984C12.0587 8.7567 12.0079 8.63129 12.0085 8.50088C12.0092 8.37046 12.0613 8.24558 12.1535 8.15336C12.2457 8.06114 12.3706 8.00904 12.501 8.00838C12.6314 8.00773 12.7569 8.05856 12.85 8.14984L14.85 10.1498C14.8974 10.195 14.9352 10.2493 14.961 10.3094C14.9868 10.3696 15.0001 10.4344 15.0001 10.4998C15.0001 10.5653 14.9868 10.6301 14.961 10.6903C14.9352 10.7504 14.8974 10.8047 14.85 10.8498V10.8498Z" fill="#006CBF"/>
</svg>
