<svg width="16" height="16" viewBox="0 0 16 16" fill="none" xmlns="http://www.w3.org/2000/svg">
<path fill-rule="evenodd" clip-rule="evenodd" d="M3 3C3 1.89543 3.89543 1 5 1H8.58579C8.98361 1 9.36514 1.15804 9.64645 1.43934L12.5607 4.35355C12.842 4.63486 13 5.01639 13 5.41421V13C13 14.1046 12.1046 15 11 15H8.82929C8.93985 14.6872 9 14.3506 9 14H11C11.5523 14 12 13.5523 12 13V6H9.5C8.67157 6 8 5.32843 8 4.5V2H5C4.44772 2 4 2.44772 4 3V7H3V3ZM9.5 5H11.7929L9 2.20711V4.5C9 4.77614 9.22386 5 9.5 5Z" fill="#202020"/>
<path fill-rule="evenodd" clip-rule="evenodd" d="M2 8C0.895431 8 0 8.89543 0 10V14C0 15.1046 0.895431 16 2 16H6C7.10457 16 8 15.1046 8 14V10C8 8.89543 7.10457 8 6 8H2ZM2.5 10C2.22386 10 2 10.2239 2 10.5C2 10.7761 2.22386 11 2.5 11H4.2929L2.14645 13.1465C1.95118 13.3417 1.95118 13.6583 2.14645 13.8536C2.34171 14.0488 2.65829 14.0488 2.85355 13.8536L5 11.7071V13.5C5 13.7761 5.22386 14 5.5 14C5.77614 14 6 13.7761 6 13.5V10.5C6 10.2239 5.77614 10 5.5 10H2.5Z" fill="#006CBF"/>
</svg>
