<svg width="16" height="16" viewBox="0 0 16 16" fill="none" xmlns="http://www.w3.org/2000/svg">
<path d="M4 8V11C4 12.1046 4.89543 13 6 13H14C15.1046 13 16 12.1046 16 11V6C16 4.89543 15.1046 4 14 4H13.309L12.7236 2.82918C12.4695 2.321 11.9501 2 11.382 2H10V3H11.382C11.5714 3 11.7445 3.107 11.8292 3.27639L12.5528 4.72361C12.6375 4.893 12.8106 5 13 5H14C14.5523 5 15 5.44772 15 6V11C15 11.5523 14.5523 12 14 12H6C5.44772 12 5 11.5523 5 11V8H4Z" fill="#202020"/>
<path d="M7 8C7 9.65685 8.34315 11 10 11C11.6569 11 13 9.65685 13 8C13 6.34315 11.6569 5 10 5V5.5C10 5.67146 9.98275 5.83888 9.94989 6.00062C9.96655 6.00021 9.98325 6 10 6C11.1046 6 12 6.89543 12 8C12 9.10457 11.1046 10 10 10C8.89543 10 8 9.10457 8 8C8 7.98325 8.00021 7.96655 8.00062 7.94989C7.83888 7.98275 7.67146 8 7.5 8H7Z" fill="#159195"/>
<path d="M4.48706 3.923L8.98706 1.3C8.93863 0.939995 8.7612 0.609795 8.48773 0.370712C8.21425 0.131628 7.86331 -9.5045e-05 7.50006 5.14548e-08H1.50006C1.10224 5.14548e-08 0.720704 0.158035 0.4394 0.43934C0.158095 0.720644 6.10352e-05 1.10218 6.10352e-05 1.5V1.509L4.48706 3.923Z" fill="#202020"/>
<path d="M4.263 4.94499L0 2.64499V5.49999C0 5.89782 0.158035 6.27935 0.43934 6.56065C0.720644 6.84196 1.10218 6.99999 1.5 6.99999H7.5C7.89782 6.99999 8.27936 6.84196 8.56066 6.56065C8.84196 6.27935 9 5.89782 9 5.49999V2.45399L4.752 4.93699C4.678 4.98009 4.59417 5.00346 4.50854 5.00486C4.42292 5.00626 4.33837 4.98565 4.263 4.94499Z" fill="#202020"/>
</svg>
