<svg width="16" height="16" viewBox="0 0 16 16" fill="none" xmlns="http://www.w3.org/2000/svg">
<path fill-rule="evenodd" clip-rule="evenodd" d="M12.561 4.354C12.842 4.635 13 5.016 13 5.414V13C13 13.53 12.789 14.039 12.414 14.414C12.039 14.789 11.53 15 11 15H8.82929C8.93985 14.6872 9 14.3506 9 14H11C11.265 14 11.519 13.894 11.707 13.707C11.895 13.52 12 13.265 12 13V6H9.5C9.102 6 8.72 5.842 8.439 5.561C8.158 5.279 8 4.898 8 4.5V2H5C4.735 2 4.481 2.105 4.293 2.293C4.105 2.48 4 2.735 4 3V7H3V3C3 2.47 3.211 1.961 3.586 1.586C3.961 1.211 4.47 1 5 1H8.586C8.984 1 9.365 1.158 9.646 1.439L12.561 4.354ZM11.793 5L9 2.207V4.5C9 4.633 9.052 4.76 9.146 4.854C9.24 4.947 9.367 5 9.5 5H11.793Z" fill="#202020"/>
<path d="M9 11.5C9 11.776 9.224 12 9.5 12H12V11H9.5C9.224 11 9 11.224 9 11.5Z" fill="#202020"/>
<path fill-rule="evenodd" clip-rule="evenodd" d="M2 8C0.895431 8 0 8.89543 0 10V14C0 15.1046 0.895431 16 2 16H6C7.10457 16 8 15.1046 8 14V10C8 8.89543 7.10457 8 6 8H2ZM2.5 10C2.22386 10 2 10.2239 2 10.5C2 10.7761 2.22386 11 2.5 11H4.2929L2.14645 13.1465C1.95118 13.3417 1.95118 13.6583 2.14645 13.8536C2.34171 14.0488 2.65829 14.0488 2.85355 13.8536L5 11.7071V13.5C5 13.7761 5.22386 14 5.5 14C5.77614 14 6 13.7761 6 13.5V10.5C6 10.2239 5.77614 10 5.5 10H2.5Z" fill="#006CBF"/>
</svg>
