<svg width="16" height="16" viewBox="0 0 16 16" fill="none" xmlns="http://www.w3.org/2000/svg">
<path d="M5.83711 2.40697L7.00006 4.08167L8.16312 2.40697C8.26266 2.28013 8.38974 2.17757 8.53474 2.10705C8.67974 2.03652 8.83887 1.99988 9.00011 1.99988C9.16136 1.99988 9.32049 2.03652 9.46549 2.10705C9.61049 2.17757 9.73757 2.28013 9.83711 2.40697L12.3809 6.07017C12.0941 6.02399 11.7998 6 11.5 6C11.3742 6 11.2494 6.00422 11.1257 6.01254L9.00011 2.97597L7.61396 4.9657L8.81676 6.6978C8.52662 6.86027 8.25271 7.04827 7.99807 7.25876L7.0049 5.83995L5.50011 7.99997L6.43952 9.34197C6.27417 9.72921 6.15197 10.1393 6.07896 10.5661L4.67612 8.54597C4.56118 8.38222 4.49951 8.18703 4.49951 7.98697C4.49951 7.78691 4.56118 7.59172 4.67612 7.42797L6.38951 4.96082L5.00011 2.97597L1.50011 7.99997L5.00011 13L6.00037 11.5642C6.00615 12.0696 6.08011 12.5587 6.21348 13.0226L5.83611 13.566C5.74159 13.7001 5.61621 13.8095 5.47055 13.8851C5.32488 13.9606 5.1632 14 4.99911 14C4.83503 14 4.67335 13.9606 4.52768 13.8851C4.38202 13.8095 4.25664 13.7001 4.16212 13.566L0.676115 8.54597C0.561179 8.38222 0.499512 8.18703 0.499512 7.98697C0.499512 7.78691 0.561179 7.59172 0.676115 7.42797L4.16312 2.40697C4.26266 2.28013 4.38974 2.17757 4.53474 2.10705C4.67974 2.03652 4.83887 1.99988 5.00011 1.99988C5.16136 1.99988 5.32049 2.03652 5.46549 2.10705C5.61049 2.17757 5.73757 2.28013 5.83711 2.40697Z" fill="#202020"/>
<path fill-rule="evenodd" clip-rule="evenodd" d="M11.5 16C13.9853 16 16 13.9853 16 11.5C16 9.01472 13.9853 7 11.5 7C9.01472 7 7 9.01472 7 11.5C7 13.9853 9.01472 16 11.5 16ZM13.3536 10.3536C13.5488 10.1583 13.5488 9.84171 13.3536 9.64645C13.1583 9.45118 12.8417 9.45118 12.6464 9.64645L11.5 10.7929L10.3536 9.64645C10.1583 9.45118 9.84171 9.45118 9.64645 9.64645C9.45118 9.84171 9.45118 10.1583 9.64645 10.3536L10.7929 11.5L9.64645 12.6464C9.45118 12.8417 9.45118 13.1583 9.64645 13.3536C9.84171 13.5488 10.1583 13.5488 10.3536 13.3536L11.5 12.2071L12.6464 13.3536C12.8417 13.5488 13.1583 13.5488 13.3536 13.3536C13.5488 13.1583 13.5488 12.8417 13.3536 12.6464L12.2071 11.5L13.3536 10.3536Z" fill="#C50F1F"/>
</svg>
