<svg width="16" height="16" viewBox="0 0 16 16" fill="none" xmlns="http://www.w3.org/2000/svg">
<path d="M9.854 3.14601L7.854 1.14601C7.659 0.951006 7.342 0.951006 7.147 1.14601L5.147 3.14601C4.952 3.34101 4.952 3.65801 5.147 3.85301C5.342 4.04801 5.659 4.04801 5.854 3.85301L7 2.70701V7.50001C7 7.77601 7.224 8.00001 7.5 8.00001C7.776 8.00001 8 7.77601 8 7.50001V2.70701L9.146 3.85301C9.244 3.95101 9.372 3.99901 9.5 3.99901C9.628 3.99901 9.756 3.95001 9.854 3.85301C10.049 3.65801 10.049 3.34101 9.854 3.14601Z" fill="#006CBF"/>
<path d="M1 10.5C1 10.776 1.224 11 1.5 11C1.776 11 2 10.776 2 10.5V10H4C4.276 10 4.5 9.776 4.5 9.5C4.5 9.224 4.276 9 4 9H2C1.449 9 1 9.449 1 10V10.5Z" fill="#202020"/>
<path d="M2 14H4C4.276 14 4.5 13.776 4.5 13.5C4.5 13.224 4.276 13 4 13H2V12.5C2 12.224 1.776 12 1.5 12C1.224 12 1 12.224 1 12.5V13C1 13.551 1.449 14 2 14Z" fill="#202020"/>
<path d="M9 14H6C5.724 14 5.5 13.776 5.5 13.5C5.5 13.224 5.724 13 6 13H9C9.276 13 9.5 13.224 9.5 13.5C9.5 13.776 9.276 14 9 14Z" fill="#202020"/>
<path d="M11 14H13C13.551 14 14 13.551 14 13V12.5C14 12.224 13.776 12 13.5 12C13.224 12 13 12.224 13 12.5V13H11C10.724 13 10.5 13.224 10.5 13.5C10.5 13.776 10.724 14 11 14Z" fill="#202020"/>
<path d="M13.5 11C13.224 11 13 10.776 13 10.5V10H11C10.724 10 10.5 9.776 10.5 9.5C10.5 9.224 10.724 9 11 9H13C13.551 9 14 9.449 14 10V10.5C14 10.776 13.776 11 13.5 11Z" fill="#202020"/>
<path d="M6 10H9C9.276 10 9.5 9.776 9.5 9.5C9.5 9.224 9.276 9 9 9H6C5.724 9 5.5 9.224 5.5 9.5C5.5 9.776 5.724 10 6 10Z" fill="#202020"/>
</svg>
