<svg width="16" height="16" viewBox="0 0 16 16" fill="none" xmlns="http://www.w3.org/2000/svg">
<path d="M7.99153 9.92099C8.61953 10.197 9.18353 10.6 9.64753 11.105C9.45453 11.381 9.23153 11.635 8.98253 11.861C8.44653 11.252 7.73853 10.822 6.95153 10.626C6.16453 10.43 5.33653 10.479 4.57853 10.766C3.82053 11.053 3.16753 11.564 2.70653 12.231C2.24553 12.898 1.99953 13.69 1.99953 14.501C1.99953 14.634 1.94653 14.761 1.85353 14.855C1.75953 14.949 1.63253 15.001 1.49953 15.001C1.36653 15.001 1.23953 14.948 1.14553 14.855C1.05153 14.761 0.999526 14.634 0.999526 14.501C0.997526 13.671 1.20253 12.853 1.59653 12.123C1.99053 11.392 2.56053 10.771 3.25453 10.317C3.94853 9.86199 4.74553 9.58799 5.57353 9.51899C6.40053 9.44999 7.23253 9.58899 7.99253 9.92299L7.99153 9.92099ZM9.75253 13.163C9.91153 13.591 9.99553 14.043 9.99953 14.5C9.99953 14.633 10.0525 14.76 10.1455 14.854C10.2385 14.948 10.3665 15 10.4995 15C10.6325 15 10.7595 14.947 10.8535 14.854C10.9475 14.76 10.9995 14.633 10.9995 14.5C10.9965 13.78 10.8365 13.07 10.5315 12.418C10.2945 12.689 10.0335 12.938 9.75253 13.163ZM9.57253 2.51699C8.74553 2.58599 7.94853 2.85999 7.25353 3.31499C6.55953 3.76999 5.98953 4.39099 5.59553 5.12099C5.20153 5.85099 4.99653 6.66899 4.99853 7.49899C4.99853 7.63199 5.05153 7.75899 5.14453 7.85299C5.23853 7.94699 5.36553 7.99899 5.49853 7.99899C5.63153 7.99899 5.75853 7.94599 5.85253 7.85299C5.94653 7.75899 5.99853 7.63199 5.99853 7.49899C5.99853 6.68799 6.24453 5.89599 6.70553 5.22899C7.16653 4.56199 7.81953 4.05099 8.57753 3.76399C9.33553 3.47699 10.1635 3.42899 10.9505 3.62399C11.7375 3.81999 12.4455 4.25099 12.9815 4.85899C13.2305 4.63299 13.4535 4.37899 13.6465 4.10299C13.1825 3.59799 12.6185 3.19499 11.9905 2.91899C11.2305 2.58499 10.3995 2.44699 9.57153 2.51499L9.57253 2.51699ZM14.5315 5.41799C14.2945 5.68899 14.0335 5.93799 13.7525 6.16299C13.9115 6.59099 13.9955 7.04299 13.9995 7.49999C13.9995 7.63299 14.0525 7.75999 14.1455 7.85399C14.2385 7.94799 14.3665 7.99999 14.4995 7.99999C14.6325 7.99999 14.7595 7.94699 14.8535 7.85399C14.9475 7.75999 14.9995 7.63299 14.9995 7.49999C14.9965 6.77999 14.8365 6.06999 14.5315 5.41799Z" fill="#5C2E91"/>
<path d="M2.71751 10.776C2.46451 10.996 2.23551 11.242 2.03151 11.508C1.36651 10.646 1.00351 9.589 0.999512 8.5C0.999512 8.367 1.05251 8.24 1.14551 8.146C1.23951 8.052 1.36651 8 1.49951 8C1.63251 8 1.75951 8.053 1.85351 8.146C1.94751 8.24 1.99951 8.367 1.99951 8.5C1.99951 9.314 2.25051 10.109 2.71751 10.776ZM10.9995 8.5C10.9985 9.826 10.4715 11.097 9.53351 12.034C8.59651 12.971 7.32551 13.499 5.99951 13.5C5.12951 13.497 4.27651 13.261 3.52851 12.817C3.72851 12.528 3.97651 12.277 4.26251 12.074C4.80051 12.349 5.39551 12.495 5.99951 12.5C7.06051 12.5 8.07751 12.079 8.82751 11.328C9.57751 10.578 9.99951 9.56 9.99951 8.5C9.99951 8.367 10.0525 8.24 10.1455 8.146C10.2395 8.052 10.3665 8 10.4995 8C10.6325 8 10.7595 8.053 10.8535 8.146C10.9475 8.24 10.9995 8.367 10.9995 8.5ZM6.71751 3.776C6.46451 3.996 6.23551 4.242 6.03151 4.508C5.36651 3.646 5.00351 2.589 4.99951 1.5C4.99951 1.367 5.05251 1.24 5.14551 1.146C5.23951 1.052 5.36651 1 5.49951 1C5.63251 1 5.75951 1.053 5.85351 1.146C5.94751 1.24 5.99951 1.367 5.99951 1.5C5.99951 2.314 6.25051 3.109 6.71751 3.776ZM14.9995 1.5C14.9985 2.826 14.4715 4.097 13.5335 5.034C12.5965 5.971 11.3255 6.499 9.99951 6.5C9.12951 6.497 8.27651 6.261 7.52851 5.817C7.72851 5.528 7.97651 5.277 8.26251 5.074C8.80051 5.349 9.39551 5.495 9.99951 5.5C11.0605 5.5 12.0775 5.079 12.8275 4.328C13.5775 3.578 13.9995 2.56 13.9995 1.5C13.9995 1.367 14.0525 1.24 14.1455 1.146C14.2395 1.052 14.3665 1 14.4995 1C14.6325 1 14.7595 1.053 14.8535 1.146C14.9475 1.24 14.9995 1.367 14.9995 1.5Z" fill="#006CBF"/>
</svg>
