<svg width="16" height="16" viewBox="0 0 16 16" fill="none" xmlns="http://www.w3.org/2000/svg">
<g clip-path="url(#clip0_7204_96448)">
<path d="M4.854 0.146006C4.659 -0.0489941 4.342 -0.0489941 4.147 0.146006C3.952 0.341006 3.952 0.658006 4.147 0.853006L5.293 1.99901H0.5C0.224 1.99901 0 2.22301 0 2.49901C0 2.77501 0.224 2.99901 0.5 2.99901H5.293L4.147 4.14501C3.952 4.34001 3.952 4.65701 4.147 4.85201C4.245 4.95001 4.373 4.99801 4.501 4.99801C4.629 4.99801 4.757 4.94901 4.855 4.85201L6.855 2.85201C7.05 2.65701 7.05 2.34001 6.855 2.14501L4.855 0.145006L4.854 0.146006Z" fill="#006CBF"/>
<path d="M6.00001 7.50604C5.98001 7.11104 6.08301 6.71904 6.29501 6.38504C6.50701 6.05104 6.81701 5.79004 7.18301 5.63904C8.23801 5.21704 9.36401 5.00004 10.5 5.00004C11.639 4.99304 12.769 5.20804 13.825 5.63404C14.189 5.78604 14.497 6.04704 14.708 6.38104C14.918 6.71504 15.02 7.10604 15 7.50004C15 7.69004 14.979 7.87904 14.935 8.06304C14.862 8.36504 14.677 8.62904 14.417 8.80004C14.157 8.97104 13.842 9.03704 13.535 8.98504L12.98 8.89004C12.725 8.85004 12.488 8.73404 12.299 8.55704C12.11 8.38104 11.979 8.15204 11.922 7.90004L11.709 6.95604L11.375 6.87904C11.087 6.81804 10.794 6.78704 10.5 6.78504C10.2 6.78804 9.90101 6.82204 9.60801 6.88504L9.289 6.95904L9.077 7.90304C9.02 8.15504 8.88901 8.38404 8.70101 8.56004C8.51301 8.73604 8.27501 8.85204 8.02001 8.89304L7.45701 8.98604C7.152 9.03704 6.83801 8.97104 6.58001 8.80004C6.32201 8.62904 6.13801 8.36704 6.06501 8.06604C6.02101 7.88304 5.99901 7.69504 6.00001 7.50604ZM11.5 10H6.50001C6.22401 10 6.00001 10.224 6.00001 10.5C6.00001 10.776 6.22401 11 6.50001 11H11.5C11.776 11 12 10.776 12 10.5C12 10.224 11.776 10 11.5 10ZM6.50001 13H9.50001C9.77601 13 10 12.776 10 12.5C10 12.224 9.77601 12 9.50001 12H6.50001C6.22401 12 6.00001 12.224 6.00001 12.5C6.00001 12.776 6.22401 13 6.50001 13ZM10.5 14H6.50001C6.22401 14 6.00001 14.224 6.00001 14.5C6.00001 14.776 6.22401 15 6.50001 15H10.5C10.776 15 11 14.776 11 14.5C11 14.224 10.776 14 10.5 14Z" fill="#202020"/>
</g>
<defs>
<clipPath id="clip0_7204_96448">
<rect width="16" height="16" fill="white"/>
</clipPath>
</defs>
</svg>
