<svg width="16" height="16" viewBox="0 0 16 16" fill="none" xmlns="http://www.w3.org/2000/svg">
<path d="M12 1H3C1.897 1 1 1.897 1 3V12C1 13.103 1.897 14 3 14H12C13.103 14 14 13.103 14 12V3C14 1.897 13.103 1 12 1ZM13 12C13 12.551 12.551 13 12 13H3C2.449 13 2 12.551 2 12V3C2 2.449 2.449 2 3 2H12C12.551 2 13 2.449 13 3V12ZM11 9.092V8.5C11 7.673 10.327 7 9.5 7H8V5.908C8.581 5.701 9 5.151 9 4.5C9 3.673 8.327 3 7.5 3C6.673 3 6 3.673 6 4.5C6 5.151 6.419 5.701 7 5.908V7H5.5C4.673 7 4 7.673 4 8.5V9.092C3.419 9.299 3 9.849 3 10.5C3 11.327 3.673 12 4.5 12C5.327 12 6 11.327 6 10.5C6 9.849 5.581 9.299 5 9.092V8.5C5 8.224 5.224 8 5.5 8H9.5C9.776 8 10 8.224 10 8.5V9.092C9.419 9.299 9 9.849 9 10.5C9 11.327 9.673 12 10.5 12C11.327 12 12 11.327 12 10.5C12 9.849 11.581 9.299 11 9.092ZM7.5 4C7.776 4 8 4.224 8 4.5C8 4.776 7.776 5 7.5 5C7.224 5 7 4.776 7 4.5C7 4.224 7.224 4 7.5 4ZM4.5 11C4.224 11 4 10.776 4 10.5C4 10.224 4.224 10 4.5 10C4.776 10 5 10.224 5 10.5C5 10.776 4.776 11 4.5 11ZM10.5 11C10.224 11 10 10.776 10 10.5C10 10.224 10.224 10 10.5 10C10.776 10 11 10.224 11 10.5C11 10.776 10.776 11 10.5 11Z" fill="#202020"/>
</svg>
