<svg width="16" height="16" viewBox="0 0 16 16" fill="none" xmlns="http://www.w3.org/2000/svg">
<path fill-rule="evenodd" clip-rule="evenodd" d="M11.7581 4.50002C11.7581 4.08602 12.0941 3.75002 12.5081 3.75002C12.9221 3.75002 13.2581 4.08602 13.2581 4.50002C13.2581 4.91402 12.9221 5.25002 12.5081 5.25002C12.0941 5.25002 11.7581 4.91402 11.7581 4.50002ZM6.49512 6.20702L5.84912 6.85302C5.75112 6.95102 5.62312 6.99902 5.49512 6.99902C5.36712 6.99902 5.23912 6.95002 5.14112 6.85302L4.49512 6.20702L3.84912 6.85302C3.75112 6.95102 3.62312 6.99902 3.49512 6.99902C3.36712 6.99902 3.23912 6.95002 3.14112 6.85302L1.14112 4.85302C1.04312 4.75502 0.995117 4.62702 0.995117 4.49902C0.995117 4.37102 1.04412 4.24302 1.14112 4.14502L2.14112 3.14502C2.23512 3.05102 2.36212 2.99902 2.49512 2.99902H8.34412C8.39112 2.89902 9.24112 0.999023 11.5001 0.999023C13.4171 0.999023 14.9951 2.55502 14.9951 4.49402C14.9951 6.43302 13.4291 7.98902 11.5001 7.98902C11.0351 7.98902 9.39612 7.85002 8.46812 6.23302L7.84812 6.85302C7.75012 6.95102 7.62212 6.99902 7.49412 6.99902C7.36612 6.99902 7.23812 6.95002 7.14012 6.85302L6.49512 6.20702ZM6.14112 5.14602C6.23912 5.04802 6.36712 5.00002 6.49512 5.00002C6.62312 5.00002 6.75112 5.04902 6.84912 5.14602L7.49512 5.79202L8.14112 5.14602C8.23512 5.05202 8.36212 5.00002 8.49512 5.00002H8.67912C9.29912 5.00002 9.01612 5.69102 9.92712 6.43202C10.0641 6.54302 10.6281 6.99002 11.5001 6.99002C12.3021 6.99002 13.9951 6.38802 13.9951 4.49502C13.9951 3.11002 12.8691 2.00002 11.5001 2.00002C11.1021 2.00002 9.67512 2.17002 9.15112 3.66602C9.08112 3.86602 8.89112 4.00002 8.67912 4.00002H2.70212L2.20212 4.50002L3.49512 5.79302L4.14112 5.14702C4.23912 5.04902 4.36712 5.00102 4.49512 5.00102C4.62312 5.00102 4.75112 5.05002 4.84912 5.14702L5.49512 5.79302L6.14112 5.14602ZM10.0001 11.75C10.0001 12.991 9.10312 14 8.00012 14C7.62012 14 7.26912 13.873 6.96612 13.666C6.89712 13.86 6.71712 14 6.50012 14C6.22412 14 6.00012 13.776 6.00012 13.5V8.50002C6.00012 8.22402 6.22412 8.00002 6.50012 8.00002C6.77612 8.00002 7.00012 8.22402 7.00012 8.50002V9.81302C7.29512 9.61902 7.63412 9.50002 8.00012 9.50002C9.10312 9.50002 10.0001 10.509 10.0001 11.75ZM9.00012 11.75C9.00012 11.061 8.55212 10.5 8.00012 10.5C7.44812 10.5 7.00012 11.061 7.00012 11.75C7.00012 12.439 7.44812 13 8.00012 13C8.55212 13 9.00012 12.439 9.00012 11.75ZM12.7481 10.5C12.9631 10.5 13.0801 10.569 13.1891 10.632C13.2811 10.686 13.3671 10.736 13.4991 10.736C13.7761 10.736 14.0001 10.511 14.0001 10.236C14.0001 9.60502 12.8911 9.50002 12.7481 9.50002C11.6451 9.50002 10.7481 10.509 10.7481 11.75C10.7481 12.991 11.6451 14 12.7481 14C12.8861 14 14.0001 13.897 14.0001 13.264C14.0001 12.992 13.7781 12.765 13.4991 12.765C13.3661 12.765 13.2791 12.815 13.1861 12.869C13.0781 12.932 12.9601 13 12.7481 13C12.1961 13 11.7481 12.439 11.7481 11.75C11.7481 11.061 12.1961 10.5 12.7481 10.5ZM5.00012 10.75V13.5C5.00012 13.776 4.77612 14 4.50012 14C4.36112 14 4.23612 13.943 4.14512 13.851C3.91112 13.937 3.62212 14 3.25012 14C1.93712 14 1.25012 13.246 1.25012 12.5C1.25012 11.754 1.93712 11 3.25012 11C3.55212 11 3.79612 11.023 4.00012 11.056V10.75C4.00012 10.256 3.28012 10.25 3.25012 10.25C2.78712 10.25 2.60112 10.363 2.57812 10.377H2.57612C2.38012 10.573 2.07712 10.561 1.88312 10.365C1.68812 10.17 1.70212 9.84102 1.89712 9.64602C1.99012 9.55302 2.36312 9.25002 3.25112 9.25002C4.12112 9.25002 5.00012 9.76502 5.00012 10.75ZM4.00112 12.074C3.85712 12.038 3.62312 12 3.25112 12C2.60212 12 2.25112 12.258 2.25112 12.5C2.25112 12.742 2.60212 13 3.25112 13C3.69812 13 3.90812 12.885 4.00112 12.811V12.074Z" fill="#202020"/>
</svg>
