<svg width="16" height="16" viewBox="0 0 16 16" fill="none" xmlns="http://www.w3.org/2000/svg">
<g clip-path="url(#clip0_7204_96424)">
<path d="M14 9.5C14 8.67157 13.3284 8 12.5 8H7.77102C7.8607 8.25151 7.92814 8.51125 7.97186 8.776C7.98429 8.85045 7.99483 8.92514 8.00349 9H12.5C12.7761 9 13 9.22386 13 9.5V10C13 11.1561 12.0738 12.3929 10.3757 12.8329C10.5521 13.0261 10.703 13.2582 10.8149 13.515C10.8447 13.5836 10.8714 13.653 10.8949 13.7232C12.8741 13.1026 14 11.534 14 10V9.5Z" fill="#202020"/>
<path fill-rule="evenodd" clip-rule="evenodd" d="M11.75 4.25C11.75 2.73122 10.5188 1.5 9 1.5C7.48122 1.5 6.25 2.73122 6.25 4.25C6.25 5.76878 7.48122 7 9 7C10.5188 7 11.75 5.76878 11.75 4.25ZM7.25 4.25C7.25 3.2835 8.0335 2.5 9 2.5C9.9665 2.5 10.75 3.2835 10.75 4.25C10.75 5.2165 9.9665 6 9 6C8.0335 6 7.25 5.2165 7.25 4.25Z" fill="#202020"/>
<path d="M2.75809 6.33501C2.76709 6.26601 2.79409 6.20101 2.83709 6.14601C2.88009 6.09101 2.93609 6.04901 3.00009 6.02401C3.03509 6.01001 3.07109 6.00201 3.10809 5.99801C3.70209 5.92801 4.30509 6.01201 4.85809 6.24001C5.41109 6.46801 5.89709 6.83301 6.27009 7.30101C6.64309 7.76901 6.89009 8.32401 6.98809 8.91501C7.08609 9.50601 7.03309 10.111 6.83209 10.674L9.55809 13.4C9.70409 13.539 9.82009 13.705 9.90009 13.89C9.98009 14.074 10.0231 14.273 10.0251 14.474C10.0271 14.675 9.99009 14.875 9.91409 15.061C9.83809 15.247 9.72609 15.417 9.58409 15.559C9.44209 15.701 9.27309 15.814 9.08609 15.889C8.90009 15.965 8.70009 16.003 8.49909 16C8.29809 15.998 8.09909 15.955 7.91509 15.875C7.73109 15.795 7.56409 15.678 7.42509 15.533L4.69909 12.807C4.13509 13.008 3.53009 13.062 2.94009 12.963C2.35009 12.865 1.79409 12.617 1.32609 12.245C0.858086 11.872 0.493086 11.386 0.265086 10.833C0.037086 10.28 -0.045914 9.67801 0.023086 9.08301C0.035086 9.00201 0.070086 8.92701 0.124086 8.86601C0.178086 8.80501 0.248086 8.76101 0.326086 8.73801C0.404086 8.71601 0.487086 8.71701 0.565086 8.74101C0.643086 8.76501 0.712086 8.81101 0.765086 8.87301L1.74009 9.84801C2.02509 10.119 2.40509 10.269 2.79809 10.264C3.19209 10.259 3.56809 10.101 3.84609 9.82201C4.12409 9.54401 4.28309 9.16801 4.28809 8.77401C4.29309 8.38001 4.14409 8.00101 3.87209 7.71601L2.89709 6.74101C2.82509 6.67001 2.77709 6.58001 2.75909 6.48101C2.75109 6.43301 2.75009 6.38401 2.75709 6.33601L2.75809 6.33501Z" fill="#202020"/>
</g>
<defs>
<clipPath id="clip0_7204_96424">
<rect width="16" height="16" fill="white"/>
</clipPath>
</defs>
</svg>
