<svg width="16" height="16" viewBox="0 0 16 16" fill="none" xmlns="http://www.w3.org/2000/svg">
<path d="M12 2H4C2.897 2 2 2.897 2 4V12C2 13.103 2.897 14 4 14H12C13.103 14 14 13.103 14 12V4C14 2.897 13.103 2 12 2ZM13 12C13 12.551 12.552 13 12 13H4C3.448 13 3 12.551 3 12V4C3 3.449 3.448 3 4 3H12C12.552 3 13 3.449 13 4V12Z" fill="#202020"/>
<path d="M10.5 5H5.5C5.224 5 5 5.224 5 5.5V10.5C5 10.776 5.224 11 5.5 11H10.5C10.776 11 11 10.776 11 10.5V5.5C11 5.224 10.776 5 10.5 5ZM10 10H6V6H10V10Z" fill="#202020"/>
</svg>
