<svg width="16" height="16" viewBox="0 0 16 16" fill="none" xmlns="http://www.w3.org/2000/svg">
<path d="M14.854 14.146L1.85301 1.14698C1.65801 0.951982 1.34101 0.951982 1.14601 1.14698C0.951006 1.34198 0.951006 1.65898 1.14601 1.85398L2.41401 3.12198C2.15201 3.51698 2.00001 3.99098 2.00001 4.49998V11.5C2.00001 12.881 3.11901 14 4.50001 14H11.5C12.009 14 12.483 13.847 12.878 13.586L14.146 14.854C14.244 14.951 14.372 15 14.5 15C14.628 14.999 14.756 14.951 14.854 14.853C15.049 14.658 15.049 14.341 14.854 14.146ZM11.5 13H4.50001C3.67201 13 3.00001 12.328 3.00001 11.5V4.49998C3.00001 4.26898 3.05201 4.04998 3.14601 3.85398L12.146 12.854C11.95 12.948 11.731 13 11.5 13ZM11 2.49998C11 2.22398 11.224 1.99998 11.5 1.99998C12.878 1.99998 14 3.12098 14 4.49998C14 4.77598 13.776 4.99998 13.5 4.99998C13.224 4.99998 13 4.77598 13 4.49998C13 3.67298 12.327 2.99998 11.5 2.99998C11.224 2.99998 11 2.77598 11 2.49998ZM14 7.49998C14 7.77598 13.776 7.99998 13.5 7.99998C13.224 7.99998 13 7.77598 13 7.49998V6.49998C13 6.22398 13.224 5.99998 13.5 5.99998C13.776 5.99998 14 6.22398 14 6.49998V7.49998ZM14 9.49998V10.5C14 10.776 13.776 11 13.5 11C13.224 11 13 10.776 13 10.5V9.49998C13 9.22398 13.224 8.99998 13.5 8.99998C13.776 8.99998 14 9.22398 14 9.49998ZM5.00001 2.49998C5.00001 2.22398 5.22401 1.99998 5.50001 1.99998H6.50001C6.77601 1.99998 7.00001 2.22398 7.00001 2.49998C7.00001 2.77598 6.77601 2.99998 6.50001 2.99998H5.50001C5.22401 2.99998 5.00001 2.77598 5.00001 2.49998ZM8.00001 2.49998C8.00001 2.22398 8.22401 1.99998 8.50001 1.99998H9.50001C9.77601 1.99998 10 2.22398 10 2.49998C10 2.77598 9.77601 2.99998 9.50001 2.99998H8.50001C8.22401 2.99998 8.00001 2.77598 8.00001 2.49998Z" fill="#202020"/>
</svg>
