<svg width="16" height="16" viewBox="0 0 16 16" fill="none" xmlns="http://www.w3.org/2000/svg">
<path d="M6.196 5.326L9.581 7.745L10.163 6.931L6.781 4.514C6.92 4.204 7 3.862 7 3.5C7 2.121 5.879 1 4.5 1C3.121 1 2 2.121 2 3.5C2 4.708 2.86 5.717 4 5.949V10.05C2.86 10.282 2 11.292 2 12.499C2 13.878 3.121 14.999 4.5 14.999C5.879 14.999 7 13.878 7 12.499C7 11.291 6.14 10.282 5 10.05V5.949C5.458 5.856 5.866 5.632 6.196 5.325V5.326ZM3 3.5C3 2.673 3.673 2 4.5 2C5.327 2 6 2.673 6 3.5C6 4.327 5.327 5 4.5 5C3.673 5 3 4.327 3 3.5ZM6 12.5C6 13.327 5.327 14 4.5 14C3.673 14 3 13.327 3 12.5C3 11.673 3.673 11 4.5 11C5.327 11 6 11.673 6 12.5Z" fill="#202020"/>
<path d="M11.5 11C10.121 11 9 9.879 9 8.5C9 7.121 10.121 6 11.5 6C12.879 6 14 7.121 14 8.5C14 9.879 12.879 11 11.5 11ZM11.5 7C10.673 7 10 7.673 10 8.5C10 9.327 10.673 10 11.5 10C12.327 10 13 9.327 13 8.5C13 7.673 12.327 7 11.5 7Z" fill="#006CBF"/>
</svg>
