<svg width="16" height="16" viewBox="0 0 16 16" fill="none" xmlns="http://www.w3.org/2000/svg">
<path d="M10.5 10.5H14V4.5C14 3.122 12.879 2 11.5 2H10.5V5.5H5.5V10.5H2V11.5C2 12.878 3.121 14 4.5 14H10.5V10.5ZM11 3H11.5C12.327 3 13 3.673 13 4.5V5H11V3ZM11 6H13V10H11V6ZM5 13H4.5C3.673 13 3 12.327 3 11.5V11H5V13ZM10 13H6V11H10V13ZM6 10V6H10V10H6Z" fill="#202020"/>
<path fill-rule="evenodd" clip-rule="evenodd" d="M11 5.5C11 5.776 10.776 6 10.5 6H6V10.5C6 10.776 5.776 11 5.5 11H2.5C2.224 11 2 10.776 2 10.5V4.5C2 3.122 3.121 2 4.5 2H10.5C10.776 2 11 2.224 11 2.5V5.5ZM6 3V5H10V3H6ZM5 3H4.5C3.673 3 3 3.673 3 4.5V5H5V3ZM3 10H5V6H3V10Z" fill="#006CBF"/>
<path fill-rule="evenodd" clip-rule="evenodd" d="M10.5 10H13.5C13.776 10 14 10.224 14 10.5V11.5C14 12.878 12.879 14 11.5 14H10.5C10.224 14 10 13.776 10 13.5V10.5C10 10.224 10.224 10 10.5 10ZM11.5 13C12.327 13 13 12.327 13 11.5V11H11V13H11.5Z" fill="#006CBF"/>
</svg>
