<svg width="16" height="16" viewBox="0 0 16 16" fill="none" xmlns="http://www.w3.org/2000/svg">
<g clip-path="url(#clip0_7204_96434)">
<path fill-rule="evenodd" clip-rule="evenodd" d="M15 8.5V10.092C15.581 10.299 16 10.849 16 11.5C16 12.327 15.327 13 14.5 13C13.673 13 13 12.327 13 11.5C13 10.849 13.419 10.299 14 10.092V8.5C14 8.224 13.775 8 13.5 8H10.5V10.092C11.081 10.299 11.5 10.849 11.5 11.5C11.5 12.1673 11.0619 12.7343 10.4582 12.9284C10.3966 12.8531 10.3312 12.7827 10.2629 12.718L8.57574 11.0309C8.72151 10.5935 9.06544 10.2468 9.5 10.092V8H7.77102C7.64536 7.64758 7.47605 7.3113 7.26721 7H9.5V4.929C8.64 4.705 8 3.929 8 3C8 1.897 8.897 1 10 1C11.103 1 12 1.897 12 3C12 3.929 11.36 4.705 10.5 4.929V7H13.5C14.327 7 15 7.673 15 8.5ZM10 2C9.448 2 9 2.449 9 3C9 3.551 9.448 4 10 4C10.552 4 11 3.551 11 3C11 2.449 10.552 2 10 2ZM9.5 11.5C9.5 11.776 9.725 12 10 12C10.275 12 10.5 11.776 10.5 11.5C10.5 11.224 10.275 11 10 11C9.725 11 9.5 11.224 9.5 11.5ZM14 11.5C14 11.776 14.225 12 14.5 12C14.775 12 15 11.776 15 11.5C15 11.224 14.775 11 14.5 11C14.225 11 14 11.224 14 11.5Z" fill="#202020"/>
<path d="M2.75809 6.33504C2.76709 6.26604 2.79409 6.20104 2.83709 6.14604C2.88009 6.09104 2.93609 6.04904 3.00009 6.02404C3.03509 6.01004 3.07109 6.00204 3.10809 5.99804C3.70209 5.92804 4.30509 6.01204 4.85809 6.24004C5.41109 6.46804 5.89709 6.83304 6.27009 7.30104C6.64309 7.76904 6.89009 8.32404 6.98809 8.91504C7.08609 9.50604 7.03309 10.111 6.83209 10.674L9.55809 13.4C9.70409 13.539 9.82009 13.705 9.90009 13.89C9.98009 14.074 10.0231 14.273 10.0251 14.474C10.0271 14.675 9.99009 14.875 9.91409 15.061C9.83809 15.247 9.72609 15.417 9.58409 15.559C9.44209 15.701 9.27309 15.814 9.08609 15.889C8.90009 15.965 8.70009 16.003 8.49909 16C8.29809 15.998 8.09909 15.955 7.91509 15.875C7.73109 15.795 7.56409 15.678 7.42509 15.533L4.69909 12.807C4.13509 13.008 3.53009 13.062 2.94009 12.963C2.35009 12.865 1.79409 12.617 1.32609 12.245C0.858086 11.872 0.493086 11.386 0.265086 10.833C0.037086 10.28 -0.045914 9.67804 0.023086 9.08304C0.035086 9.00204 0.070086 8.92704 0.124086 8.86604C0.178086 8.80504 0.248086 8.76104 0.326086 8.73804C0.404086 8.71604 0.487086 8.71704 0.565086 8.74104C0.643086 8.76504 0.712086 8.81104 0.765086 8.87304L1.74009 9.84804C2.02509 10.119 2.40509 10.269 2.79809 10.264C3.19209 10.259 3.56809 10.101 3.84609 9.82204C4.12409 9.54404 4.28309 9.16804 4.28809 8.77404C4.29309 8.38004 4.14409 8.00104 3.87209 7.71604L2.89709 6.74104C2.82509 6.67004 2.77709 6.58004 2.75909 6.48104C2.75109 6.43304 2.75009 6.38404 2.75709 6.33604L2.75809 6.33504Z" fill="#202020"/>
</g>
<defs>
<clipPath id="clip0_7204_96434">
<rect width="16" height="16" fill="white"/>
</clipPath>
</defs>
</svg>
