<svg width="16" height="16" viewBox="0 0 16 16" fill="none" xmlns="http://www.w3.org/2000/svg">
<path fill-rule="evenodd" clip-rule="evenodd" d="M2 4.5C2 3.11929 3.11929 2 4.5 2H11.5C12.8807 2 14 3.11929 14 4.5V11.5C14 12.8807 12.8807 14 11.5 14H7.99366C7.99787 13.9472 8 13.8942 8 13.841V13H11.5C12.3284 13 13 12.3284 13 11.5V6H3V7.15205C2.90257 7.17737 2.80695 7.21007 2.714 7.24998L2 7.55557V4.5ZM3 5H13V4.5C13 3.67157 12.3284 3 11.5 3H4.5C3.67157 3 3 3.67157 3 4.5V5Z" fill="#202020"/>
<path d="M0.606 9.24002L3.106 8.16902C3.2305 8.11565 3.36454 8.08813 3.5 8.08813C3.63546 8.08813 3.7695 8.11565 3.894 8.16902L6.394 9.24002C6.57384 9.31712 6.72712 9.44528 6.83484 9.60863C6.94255 9.77199 6.99998 9.96335 7 10.159V13.841C6.99998 14.0367 6.94255 14.2281 6.83484 14.3914C6.72712 14.5548 6.57384 14.6829 6.394 14.76L3.894 15.831C3.7695 15.8844 3.63546 15.9119 3.5 15.9119C3.36454 15.9119 3.2305 15.8844 3.106 15.831L0.606 14.76C0.426157 14.6829 0.272882 14.5548 0.165165 14.3914C0.0574481 14.2281 2.16103e-05 14.0367 0 13.841V10.159C2.16103e-05 9.96335 0.0574481 9.77199 0.165165 9.60863C0.272882 9.44528 0.426157 9.31712 0.606 9.24002ZM1.276 10.947L3 11.809V14C3 14.1326 3.05268 14.2598 3.14645 14.3536C3.24021 14.4473 3.36739 14.5 3.5 14.5C3.63261 14.5 3.75979 14.4473 3.85355 14.3536C3.94732 14.2598 4 14.1326 4 14V11.809L5.724 10.947C5.7834 10.9183 5.8364 10.8779 5.87987 10.8282C5.92333 10.7786 5.95636 10.7207 5.977 10.658C5.99748 10.5952 6.0053 10.5289 6 10.463C5.99558 10.3975 5.9783 10.3335 5.94913 10.2746C5.91996 10.2158 5.87948 10.1632 5.83 10.12C5.78008 10.0769 5.72213 10.0442 5.65949 10.0236C5.59684 10.003 5.53075 9.99497 5.465 10C5.39912 10.005 5.33488 10.023 5.276 10.053L3.5 10.941L1.724 10.053C1.60559 9.99483 1.46898 9.9858 1.34394 10.0279C1.21889 10.07 1.11556 10.1598 1.05645 10.2778C0.997339 10.3957 0.987247 10.5322 1.02837 10.6576C1.0695 10.783 1.15851 10.887 1.276 10.947Z" fill="#5C2E91"/>
</svg>
