<svg width="16" height="16" viewBox="0 0 16 16" fill="none" xmlns="http://www.w3.org/2000/svg">
<path d="M3.5 2C2.11929 2 1 3.11929 1 4.5V6.71628C1.3113 6.50713 1.64732 6.33796 2 6.21251V4.5C2 3.67157 2.67157 3 3.5 3H12.5C13.3284 3 14 3.67157 14 4.5V9.5C14 10.3284 13.3284 11 12.5 11H7.96438C7.92209 11.3402 7.84085 11.6758 7.7213 12H12.5C13.8807 12 15 10.8807 15 9.5V4.5C15 3.11929 13.8807 2 12.5 2H3.5Z" fill="#202020"/>
<path d="M6.99902 7.62015V6.75C6.99902 5.765 6.12002 5.25 5.25002 5.25C4.36202 5.25 3.98902 5.553 3.89602 5.646C3.81004 5.73198 3.75925 5.84402 3.74605 5.95913C4.21784 5.9844 4.68177 6.08391 5.12083 6.25304C5.16098 6.25108 5.20368 6.25 5.24902 6.25C5.27812 6.25 5.95633 6.25564 5.99711 6.70673C6.03129 6.7295 6.0652 6.75278 6.09882 6.77654C6.43876 7.01679 6.74105 7.30119 6.99902 7.62015Z" fill="#202020"/>
<path fill-rule="evenodd" clip-rule="evenodd" d="M10 5.5C9.634 5.5 9.295 5.619 9 5.813V4.5C9 4.224 8.776 4 8.5 4C8.224 4 8 4.224 8 4.5V9.5C8 9.776 8.224 10 8.5 10C8.717 10 8.897 9.86 8.966 9.666C9.269 9.873 9.62 10 10 10C11.103 10 12 8.991 12 7.75C12 6.509 11.103 5.5 10 5.5ZM10 9C9.448 9 9 8.439 9 7.75C9 7.061 9.448 6.5 10 6.5C10.552 6.5 11 7.061 11 7.75C11 8.439 10.552 9 10 9Z" fill="#202020"/>
<path d="M8.854 15.087L6.293 12.527C6.74929 11.9267 6.99749 11.194 7 10.44C7 9.74777 6.79473 9.07108 6.41015 8.49551C6.02556 7.91994 5.47894 7.47133 4.83939 7.20643C4.19985 6.94152 3.49612 6.87221 2.81719 7.00726C2.13825 7.1423 1.51461 7.47565 1.02513 7.96513C0.535644 8.45461 0.202301 9.07825 0.0672531 9.75719C-0.0677952 10.4361 0.00151649 11.1399 0.266423 11.7794C0.53133 12.4189 0.979934 12.9656 1.55551 13.3501C2.13108 13.7347 2.80777 13.94 3.5 13.94C4.25357 13.9376 4.98584 13.6897 5.586 13.234L8.146 15.794C8.23976 15.8879 8.36697 15.9407 8.49965 15.9408C8.63233 15.9409 8.75962 15.8883 8.8535 15.7945C8.94739 15.7008 9.00019 15.5735 9.00028 15.4409C9.00037 15.3082 8.94776 15.1809 8.854 15.087V15.087ZM1 10.44C1 9.94555 1.14662 9.4622 1.42133 9.05108C1.69603 8.63996 2.08648 8.31952 2.54329 8.13031C3.00011 7.94109 3.50277 7.89158 3.98773 7.98804C4.47268 8.0845 4.91814 8.32261 5.26777 8.67224C5.6174 9.02187 5.8555 9.46733 5.95196 9.95228C6.04843 10.4372 5.99892 10.9399 5.8097 11.3967C5.62048 11.8535 5.30005 12.244 4.88893 12.5187C4.4778 12.7934 3.99445 12.94 3.5 12.94C2.83696 12.94 2.20108 12.6766 1.73223 12.2078C1.26339 11.7389 1 11.103 1 10.44V10.44Z" fill="#006CBF"/>
</svg>
