<svg width="16" height="16" viewBox="0 0 16 16" fill="none" xmlns="http://www.w3.org/2000/svg">
<path d="M14.854 14.146L1.85301 1.14698C1.65801 0.951982 1.34101 0.951982 1.14601 1.14698C0.951006 1.34198 0.951006 1.65898 1.14601 1.85398L14.146 14.854C14.244 14.951 14.372 15 14.5 15C14.628 14.999 14.756 14.951 14.854 14.853C15.049 14.658 15.049 14.341 14.854 14.146Z" fill="#202020"/>
<path d="M6.85399 9.14601C6.65899 8.95101 6.34199 8.95101 6.14699 9.14601L4.00099 11.292L1.85499 9.14601C1.65999 8.95101 1.34299 8.95101 1.14799 9.14601C0.95299 9.34101 0.95299 9.65801 1.14799 9.85301L3.29399 11.999L1.14799 14.145C0.95299 14.34 0.95299 14.657 1.14799 14.852C1.24599 14.95 1.37399 14.998 1.50199 14.998C1.62999 14.998 1.75799 14.949 1.85599 14.852L4.00199 12.706L6.14799 14.852C6.24599 14.95 6.37399 14.998 6.50199 14.998C6.62999 14.998 6.75799 14.949 6.85599 14.852C7.05099 14.657 7.05099 14.34 6.85599 14.145L4.70999 11.999L6.85599 9.85301C7.05099 9.65801 7.05099 9.34101 6.85599 9.14601H6.85399Z" fill="#202020"/>
<path d="M14.354 2.35398C14.2561 2.45086 14.1283 2.49986 14.0005 2.49998C13.8727 2.49986 13.7449 2.45185 13.647 2.35398C13.452 2.15898 13.452 1.84198 13.647 1.64698L14.147 1.14698C14.342 0.951982 14.659 0.951982 14.854 1.14698C15.049 1.34198 15.049 1.65898 14.854 1.85398L14.354 2.35398Z" fill="#202020"/>
<path d="M10.896 5.10402C10.994 5.20202 11.122 5.25002 11.25 5.25002C11.378 5.25002 11.506 5.20102 11.604 5.10402L12 4.70802L12.396 5.10402C12.494 5.20202 12.622 5.25002 12.75 5.25002C12.878 5.25002 13.006 5.20102 13.104 5.10402C13.299 4.90902 13.299 4.59202 13.104 4.39702L12.708 4.00102L13.104 3.60502C13.299 3.41002 13.299 3.09302 13.104 2.89802C12.909 2.70302 12.592 2.70302 12.397 2.89802L12.001 3.29402L11.605 2.89802C11.41 2.70302 11.093 2.70302 10.898 2.89802C10.703 3.09302 10.703 3.41002 10.898 3.60502L11.294 4.00102L10.898 4.39702C10.703 4.59202 10.703 4.90902 10.898 5.10402H10.896Z" fill="#202020"/>
<path d="M9.85401 6.85398C9.75614 6.95086 9.62834 6.99986 9.50051 6.99998C9.37268 6.99986 9.24488 6.95185 9.14701 6.85398C8.95201 6.65898 8.95201 6.34198 9.14701 6.14698L9.64701 5.64698C9.84201 5.45198 10.159 5.45198 10.354 5.64698C10.549 5.84198 10.549 6.15898 10.354 6.35398L9.85401 6.85398Z" fill="#202020"/>
<path d="M14.146 6.85398C14.244 6.95198 14.372 6.99998 14.5 6.99998C14.628 6.99998 14.756 6.95098 14.854 6.85398C15.049 6.65898 15.049 6.34198 14.854 6.14698L14.354 5.64698C14.159 5.45198 13.842 5.45198 13.647 5.64698C13.452 5.84198 13.452 6.15898 13.647 6.35398L14.147 6.85398H14.146Z" fill="#202020"/>
<path d="M10 2.49998C9.87201 2.49998 9.74401 2.45198 9.64601 2.35398H9.64701L9.14701 1.85398C8.95201 1.65898 8.95201 1.34198 9.14701 1.14698C9.34201 0.951982 9.65901 0.951982 9.85401 1.14698L10.354 1.64698C10.549 1.84198 10.549 2.15898 10.354 2.35398C10.256 2.45098 10.128 2.49998 10 2.49998Z" fill="#202020"/>
</svg>
