<svg width="16" height="16" viewBox="0 0 16 16" fill="none" xmlns="http://www.w3.org/2000/svg">
<path d="M13 5.414C13 5.016 12.842 4.635 12.561 4.354L9.646 1.439C9.365 1.158 8.984 1 8.586 1H5C4.47 1 3.961 1.211 3.586 1.586C3.211 1.961 3 2.47 3 3V13C3 13.53 3.211 14.039 3.586 14.414C3.961 14.789 4.47 15 5 15H11C11.53 15 12.039 14.789 12.414 14.414C12.789 14.039 13 13.53 13 13V5.414ZM9 2.207L11.793 5H9.5C9.367 5 9.24 4.947 9.146 4.854C9.052 4.76 9 4.633 9 4.5V2.207ZM12 13C12 13.265 11.895 13.52 11.707 13.707C11.519 13.894 11.265 14 11 14H5C4.735 14 4.48 13.895 4.293 13.707C4.106 13.519 4 13.265 4 13V3C4 2.735 4.105 2.48 4.293 2.293C4.481 2.105 4.735 2 5 2H8V4.5C8 4.898 8.158 5.279 8.439 5.561C8.72 5.842 9.102 6 9.5 6H12V13Z" fill="#202020"/>
<path d="M7.85399 9.14602C7.94799 9.24002 8.00099 9.36702 8.00099 9.50002C8.00099 9.63302 7.94799 9.76002 7.85399 9.85402L7.20699 10.5L7.85399 11.146C7.90099 11.192 7.93799 11.247 7.96299 11.308C7.98799 11.369 8.00099 11.434 8.00099 11.5C8.00099 11.566 7.98799 11.631 7.96299 11.692C7.93699 11.752 7.90099 11.807 7.85399 11.854C7.80799 11.9 7.75299 11.937 7.69199 11.962C7.63099 11.987 7.56599 12 7.49999 12C7.43399 12 7.36899 11.987 7.30799 11.962C7.24799 11.937 7.19199 11.901 7.14599 11.854L6.49999 11.207L5.85399 11.854C5.80799 11.9 5.75299 11.937 5.69199 11.962C5.63099 11.987 5.56599 12 5.49999 12C5.43399 12 5.36899 11.987 5.30799 11.962C5.24799 11.937 5.19199 11.901 5.14599 11.854C5.09899 11.808 5.06199 11.753 5.03699 11.692C5.01199 11.631 4.99899 11.566 4.99899 11.5C4.99899 11.434 5.01199 11.369 5.03699 11.308C5.06299 11.248 5.09899 11.193 5.14599 11.146L5.79299 10.5L5.14599 9.85402C5.05199 9.76002 4.99899 9.63302 4.99899 9.50002C4.99899 9.36702 5.05199 9.24002 5.14599 9.14602C5.23999 9.05202 5.36699 8.99902 5.49999 8.99902C5.63299 8.99902 5.75999 9.05202 5.85399 9.14602L6.49999 9.79302L7.14599 9.14602C7.23999 9.05202 7.36699 8.99902 7.49999 8.99902C7.63299 8.99902 7.75999 9.05202 7.85399 9.14602Z" fill="#202020"/>
<path d="M9 11.5C9 11.224 9.224 11 9.5 11H12V12H9.5C9.224 12 9 11.776 9 11.5Z" fill="#202020"/>
</svg>
