<svg width="16" height="16" viewBox="0 0 16 16" fill="none" xmlns="http://www.w3.org/2000/svg">
<path fill-rule="evenodd" clip-rule="evenodd" d="M9 2C12.3137 2 15 4.68629 15 8C15 11.3137 12.3137 14 9 14C8.57503 14 8.16073 13.9541 7.76074 13.8701L8.82031 12.9727C8.88288 12.9903 8.94275 13 9 13C9.37367 13 9.87539 12.6441 10.3125 11.6826C10.4072 11.4743 10.4941 11.2455 10.5723 11H9.41211C9.28744 10.6498 9.12805 10.3151 8.9375 10H10.8213C10.9356 9.3892 11 8.71396 11 8C11 7.28604 10.9356 6.6108 10.8213 6H7.17871C7.06443 6.6108 7 7.28604 7 8C7 8.03166 7.0017 8.06322 7.00195 8.09473C6.68552 7.91044 6.35199 7.75906 6.00684 7.6416C6.02287 7.07085 6.0753 6.51948 6.16309 6H4.41602C4.22873 6.42865 4.10153 6.88885 4.04102 7.37012C3.68937 7.39904 3.34672 7.46412 3.0166 7.56543C3.2393 4.45462 5.83245 2 9 2ZM11.6162 11C11.5061 11.3962 11.3735 11.7637 11.2227 12.0957C11.1437 12.2693 11.0567 12.4392 10.9619 12.6006C11.7743 12.2536 12.4762 11.6972 13 11H11.6162ZM11.8369 6C11.943 6.6275 12 7.30146 12 8C12 8.69854 11.943 9.3725 11.8369 10H13.584C13.8516 9.38754 14 8.7111 14 8C14 7.2889 13.8516 6.61246 13.584 6H11.8369ZM7.03809 3.39941C6.22575 3.74638 5.52376 4.30277 5 5H6.38379C6.49395 4.60385 6.62646 4.23626 6.77734 3.9043C6.85626 3.73069 6.9433 3.5608 7.03809 3.39941ZM9 3C8.62633 3 8.12461 3.35594 7.6875 4.31738C7.5928 4.52573 7.5059 4.7545 7.42773 5H10.5723C10.4941 4.7545 10.4072 4.52573 10.3125 4.31738C9.87539 3.35594 9.37367 3 9 3ZM10.9619 3.39941C11.0567 3.5608 11.1437 3.73069 11.2227 3.9043C11.3735 4.23626 11.5061 4.60385 11.6162 5H13C12.4762 4.30277 11.7743 3.74638 10.9619 3.39941Z" fill="#202020"/>
<path d="M8.516 11.489L8.505 11.466C8.22481 10.5968 7.68473 9.83449 6.95765 9.28194C6.23056 8.72938 5.35147 8.41317 4.439 8.37598C1.992 8.37598 0 10.689 0 13.532C0 14.662 1.321 15.607 3.448 16L3.862 15.89L8.378 12.061L8.524 11.506L8.516 11.489ZM7.005 10.976C6.781 10.948 6.555 10.922 6.324 10.907C6.38385 10.8728 6.4468 10.8443 6.512 10.822C6.60044 10.81 6.69042 10.8176 6.7756 10.8442C6.86079 10.8708 6.93909 10.9158 7.005 10.976ZM4.439 9.37598C5.03674 9.38176 5.61894 9.56711 6.11 9.90798C5.57856 10.1173 5.114 10.4671 4.766 10.92C3.57089 10.9542 2.39707 11.2447 1.324 11.772C1.53977 11.1043 1.95305 10.5178 2.50923 10.09C3.06541 9.66219 3.73831 9.41322 4.439 9.37598V9.37598ZM4.039 11.989C3.80088 12.4231 3.60015 12.8768 3.439 13.345C3.22582 12.9648 2.97272 12.6085 2.684 12.282C3.12719 12.1459 3.58117 12.0479 4.041 11.989H4.039ZM1 13.532C1 13.271 1.25 12.97 1.711 12.698C2.31991 13.2918 2.75492 14.0408 2.969 14.864C1.677 14.515 1 13.961 1 13.532ZM4.216 14.278C4.42703 13.4279 4.78399 12.6209 5.271 11.893C5.354 11.893 5.429 11.883 5.514 11.883C5.98852 11.8821 6.46257 11.9128 6.933 11.975L4.216 14.278Z" fill="#202020"/>
</svg>
