<svg width="16" height="16" viewBox="0 0 16 16" fill="none" xmlns="http://www.w3.org/2000/svg">
<path fill-rule="evenodd" clip-rule="evenodd" d="M10.974 3.374C10.979 3.396 10.983 3.415 10.986 3.437L10.987 3.436C10.9883 3.44518 10.9907 3.45401 10.9932 3.46278C10.9966 3.47504 11 3.48718 11 3.5V7C11 7.551 10.551 8 10 8H8V12H9V10C9 9.449 9.449 9 10 9H12.5C12.5128 9 12.525 9.0034 12.5372 9.00682C12.546 9.00928 12.5548 9.01175 12.564 9.013C12.586 9.016 12.605 9.02 12.627 9.026C12.711 9.048 12.79 9.084 12.853 9.147L14.853 11.147C14.915 11.21 14.951 11.29 14.974 11.374C14.979 11.396 14.983 11.415 14.986 11.437L14.987 11.436C14.9883 11.4452 14.9907 11.454 14.9932 11.4628C14.9966 11.475 15 11.4872 15 11.5V15C15 15.551 14.551 16 14 16H10C9.449 16 9 15.551 9 15V13H6V15C6 15.551 5.551 16 5 16H1C0.449 16 0 15.551 0 15V10C0 9.449 0.449 9 1 9H3.5C3.51282 9 3.52496 9.0034 3.53722 9.00682C3.54599 9.00928 3.55482 9.01175 3.564 9.013C3.586 9.016 3.605 9.02 3.627 9.026C3.711 9.048 3.79 9.084 3.853 9.147L5.853 11.147C5.915 11.21 5.951 11.29 5.974 11.374C5.979 11.396 5.983 11.415 5.986 11.437L5.987 11.436C5.98825 11.4452 5.99072 11.454 5.99318 11.4628C5.9966 11.475 6 11.4872 6 11.5V12H7V8H6C5.449 8 5 7.551 5 7V2C5 1.449 5.449 1 6 1H8.5C8.51282 1 8.52496 1.0034 8.53722 1.00682C8.54599 1.00928 8.55482 1.01175 8.564 1.013C8.586 1.016 8.605 1.02 8.627 1.026C8.711 1.048 8.79 1.084 8.853 1.147L10.853 3.147C10.915 3.21 10.951 3.29 10.974 3.374ZM9.999 12.5319V15.001H13.999V12.001H12.499C12.223 12.001 11.999 11.777 11.999 11.501V10.001H9.999V12.4681C9.99966 12.4787 10 12.4893 10 12.5C10 12.5107 9.99966 12.5213 9.999 12.5319ZM7.46815 7.001H5.999V2.001H7.999V3.501C7.999 3.777 8.223 4.001 8.499 4.001H9.999V7.001H7.53185C7.52132 7.00034 7.5107 7 7.5 7C7.4893 7 7.47868 7.00034 7.46815 7.001ZM0.999 15.001V10.001H2.999V11.501C2.999 11.777 3.223 12.001 3.499 12.001H4.999V15.001H0.999Z" fill="#202020"/>
</svg>
