<svg width="16" height="16" viewBox="0 0 16 16" fill="none" xmlns="http://www.w3.org/2000/svg">
<path d="M13.854 12.146C14.049 12.341 14.049 12.658 13.854 12.853C13.756 12.951 13.628 12.999 13.5 12.999C13.372 12.999 13.244 12.95 13.146 12.853L11.5 11.207L9.854 12.853C9.756 12.951 9.628 12.999 9.5 12.999C9.372 12.999 9.244 12.95 9.146 12.853C8.951 12.658 8.951 12.341 9.146 12.146L10.792 10.5L9.146 8.854C8.951 8.659 8.951 8.342 9.146 8.147C9.341 7.952 9.658 7.952 9.853 8.147L11.499 9.793L13.145 8.147C13.34 7.952 13.657 7.952 13.852 8.147C14.047 8.342 14.047 8.659 13.852 8.854L12.206 10.5L13.852 12.146H13.854ZM8 10C8 11.654 6.43 13 4.5 13C2.57 13 1 11.654 1 10C1 9.973 1.008 9.948 1.009 9.921C1.007 9.905 1 9.891 1 9.875C1 5.506 2.822 3 6 3C6.276 3 6.5 3.224 6.5 3.5C6.5 3.776 6.276 4 6 4C3.506 4 2.536 5.889 2.184 7.768C2.803 7.296 3.608 7 4.5 7C6.43 7 8 8.346 8 10ZM7 10C7 8.897 5.878 8 4.5 8C3.122 8 2 8.897 2 10C2 11.103 3.122 12 4.5 12C5.878 12 7 11.103 7 10Z" fill="#202020"/>
</svg>
