<svg width="16" height="16" viewBox="0 0 16 16" fill="none" xmlns="http://www.w3.org/2000/svg">
<g clip-path="url(#clip0_7204_96653)">
<path d="M3 5.121L2 6.12168V11C2 12.103 2.897 13 4 13H12C13.103 13 14 12.103 14 11V5C14 3.897 13.103 3 12 3H5.121L6.12169 4H12C12.551 4 13 4.449 13 5V11C13 11.551 12.551 12 12 12H4C3.449 12 3 11.551 3 11V5.121Z" fill="#202020"/>
<path d="M5.85402 5.14602C5.94791 5.23991 6.00065 5.36725 6.00065 5.50002C6.00065 5.6328 5.94791 5.76013 5.85402 5.85402C5.76013 5.94791 5.6328 6.00065 5.50002 6.00065C5.36725 6.00065 5.23991 5.94791 5.14602 5.85402L3.00002 3.70702L0.854021 5.85402C0.760135 5.94791 0.632797 6.00065 0.500021 6.00065C0.367245 6.00065 0.239908 5.94791 0.146021 5.85402C0.0521346 5.76013 -0.000610349 5.6328 -0.000610352 5.50002C-0.000610354 5.36725 0.0521346 5.23991 0.146021 5.14602L2.29302 3.00002L0.146021 0.854021C0.0521346 0.760135 -0.000610353 0.632797 -0.000610352 0.500021C-0.000610351 0.367245 0.0521346 0.239908 0.146021 0.146021C0.239908 0.0521346 0.367245 -0.000610351 0.500021 -0.000610352C0.632797 -0.000610353 0.760135 0.0521346 0.854021 0.146021L3.00002 2.29302L5.14602 0.146021C5.23991 0.0521346 5.36725 -0.000610354 5.50002 -0.000610352C5.6328 -0.000610349 5.76013 0.0521346 5.85402 0.146021C5.94791 0.239908 6.00065 0.367245 6.00065 0.500021C6.00065 0.632797 5.94791 0.760135 5.85402 0.854021L3.70702 3.00002L5.85402 5.14602Z" fill="#C50F1F"/>
</g>
<defs>
<clipPath id="clip0_7204_96653">
<rect width="16" height="16" fill="white"/>
</clipPath>
</defs>
</svg>
