<svg width="16" height="16" viewBox="0 0 16 16" fill="none" xmlns="http://www.w3.org/2000/svg">
<g clip-path="url(#clip0_7204_96663)">
<path d="M4.80948 3.33868C4.92544 1.59968 6.7405 0.510006 8.32985 1.22521L8.70506 1.39406C8.95688 1.50738 9.06916 1.80338 8.95584 2.0552C8.84252 2.30702 8.54652 2.4193 8.2947 2.30598L7.91949 2.13714C6.96587 1.70801 5.87684 2.36182 5.80726 3.40522L5.70092 5H7.5C7.77614 5 8 5.22386 8 5.5C8 5.77614 7.77614 6 7.5 6H5.63423L5.34963 10.268C5.26689 10.2103 5.17832 10.1611 5.08518 10.1211C4.90028 10.0417 4.70123 10.0005 4.5 9.99997C4.45484 9.99968 4.40976 10.0015 4.36492 10.0054L4.63201 6H3.5C3.22386 6 3 5.77614 3 5.5C3 5.22386 3.22386 5 3.5 5H4.6987L4.80948 3.33868Z" fill="#202020"/>
<path d="M7.9827 13.7245L10.3907 11.3165L11.5787 13.3955C11.9876 14.1111 12.9651 14.242 13.5479 13.6592L13.8536 13.3536C14.0488 13.1583 14.0488 12.8417 13.8536 12.6465C13.6583 12.4512 13.3417 12.4512 13.1464 12.6465L12.8408 12.9521C12.7242 13.0687 12.5287 13.0425 12.4469 12.8994L11.1236 10.5836L13.8536 7.85355C14.0489 7.65829 14.0489 7.34171 13.8536 7.14645C13.6584 6.95118 13.3418 6.95118 13.1465 7.14645L10.6094 9.68361L9.4213 7.6045C9.01237 6.88888 8.03492 6.75798 7.45211 7.34079L7.14645 7.64646C6.95118 7.84172 6.95118 8.1583 7.14645 8.35356C7.34171 8.54883 7.65829 8.54883 7.85355 8.35356L8.15922 8.0479C8.27578 7.93134 8.47127 7.95752 8.55306 8.10064L9.87643 10.4165L7.69485 12.5981C7.77221 12.6987 7.83641 12.809 7.88567 12.9266C7.96177 13.1081 8.00065 13.3031 8 13.5C7.99991 13.5753 7.9941 13.6504 7.9827 13.7245Z" fill="#202020"/>
<path d="M6.85 13.85L4.85 15.85C4.80488 15.8975 4.75059 15.9352 4.69042 15.9611C4.63026 15.9869 4.56547 16.0002 4.5 16.0002C4.43453 16.0002 4.36974 15.9869 4.30958 15.9611C4.24941 15.9352 4.19512 15.8975 4.15 15.85C4.10256 15.8049 4.06478 15.7506 4.03897 15.6905C4.01316 15.6303 3.99985 15.5655 3.99985 15.5C3.99985 15.4346 4.01316 15.3698 4.03897 15.3096C4.06478 15.2494 4.10256 15.1951 4.15 15.15L5.29 14H0.5C0.367392 14 0.240215 13.9473 0.146447 13.8536C0.0526784 13.7598 0 13.6326 0 13.5C0 13.3674 0.0526784 13.2402 0.146447 13.1465C0.240215 13.0527 0.367392 13 0.5 13H5.29L4.15 11.85C4.10256 11.8049 4.06478 11.7506 4.03897 11.6905C4.01316 11.6303 3.99985 11.5655 3.99985 11.5C3.99985 11.4346 4.01316 11.3698 4.03897 11.3096C4.06478 11.2494 4.10256 11.1951 4.15 11.15C4.19512 11.1026 4.24941 11.0648 4.30958 11.039C4.36974 11.0132 4.43453 10.9999 4.5 10.9999C4.56547 10.9999 4.63026 11.0132 4.69042 11.039C4.75059 11.0648 4.80488 11.1026 4.85 11.15L6.85 13.15C6.89744 13.1951 6.93522 13.2494 6.96103 13.3096C6.98684 13.3698 7.00015 13.4346 7.00015 13.5C7.00015 13.5655 6.98684 13.6303 6.96103 13.6905C6.93522 13.7506 6.89744 13.8049 6.85 13.85V13.85Z" fill="#006CBF"/>
</g>
<defs>
<clipPath id="clip0_7204_96663">
<rect width="16" height="16" fill="white"/>
</clipPath>
</defs>
</svg>
