<svg width="16" height="16" viewBox="0 0 16 16" fill="none" xmlns="http://www.w3.org/2000/svg">
<g clip-path="url(#clip0_7204_96688)">
<path d="M10 7C10.552 7 11 6.552 11 6C11 5.448 10.552 5 10 5C9.448 5 9 5.448 9 6C9 6.552 9.448 7 10 7Z" fill="#B27C00"/>
<path d="M11.655 12.1377C11.527 12.1377 11.399 12.0887 11.301 11.9917L8.49995 9.19075C8.23195 8.92275 7.76795 8.92275 7.49995 9.19075L4.69895 11.9917C4.50395 12.1867 4.18695 12.1867 3.99195 11.9917C3.79695 11.7967 3.79695 11.4797 3.99195 11.2847L6.79295 8.48375C7.43795 7.83875 8.56295 7.83875 9.20695 8.48375L12.008 11.2847C12.203 11.4797 12.203 11.7967 12.008 11.9917C11.91 12.0897 11.783 12.1377 11.655 12.1377Z" fill="#006CBF"/>
<path fill-rule="evenodd" clip-rule="evenodd" d="M10.5 13H5.5C4.121 13 3 11.879 3 10.5V5.5C3 4.121 4.121 3 5.5 3H10.5C11.879 3 13 4.121 13 5.5V10.5C13 11.879 11.879 13 10.5 13ZM5.5 4C4.673 4 4 4.673 4 5.5V10.5C4 11.327 4.673 12 5.5 12H10.5C11.327 12 12 11.327 12 10.5V5.5C12 4.673 11.327 4 10.5 4H5.5Z" fill="#202020"/>
<path d="M1.49976 9.50023C1.37176 9.50023 1.24376 9.45123 1.14576 9.35423L0.145762 8.35423C-0.0492383 8.15923 -0.0492383 7.84223 0.145762 7.64723L1.14576 6.64723C1.34076 6.45223 1.65776 6.45223 1.85276 6.64723C2.04776 6.84223 2.04776 7.15923 1.85276 7.35423L1.20676 8.00023L1.85276 8.64623C2.04776 8.84123 2.04776 9.15823 1.85276 9.35323C1.75476 9.45123 1.62676 9.49923 1.49876 9.49923L1.49976 9.50023Z" fill="#202020"/>
<path d="M14.1458 9.3542C14.2438 9.4512 14.3718 9.5002 14.4998 9.5002L14.4988 9.5012C14.6268 9.5012 14.7548 9.4532 14.8528 9.3552L15.8528 8.3552C16.0478 8.1602 16.0478 7.8432 15.8528 7.6482L14.8528 6.6482C14.6578 6.4532 14.3408 6.4532 14.1458 6.6482C13.9508 6.8432 13.9508 7.1602 14.1458 7.3552L14.7918 8.0012L14.1458 8.6472C13.9508 8.8422 13.9508 9.1592 14.1458 9.3542Z" fill="#202020"/>
</g>
<defs>
<clipPath id="clip0_7204_96688">
<rect width="16" height="16" fill="white"/>
</clipPath>
</defs>
</svg>
