<svg width="16" height="16" viewBox="0 0 16 16" fill="none" xmlns="http://www.w3.org/2000/svg">
<path fill-rule="evenodd" clip-rule="evenodd" d="M2.25 1H5.75C6.439 1 7 1.561 7 2.25V4H9V2.25C9 1.561 9.561 1 10.25 1H13.75C14.439 1 15 1.561 15 2.25V5.75C15 6.439 14.439 7 13.75 7H10.25C9.561 7 9 6.439 9 5.75V5H7V5.75C7 6.439 6.439 7 5.75 7H5V11.5C5 11.775 5.224 12 5.5 12H9V10.25C9 9.561 9.561 9 10.25 9H13.75C14.439 9 15 9.561 15 10.25V13.75C15 14.439 14.439 15 13.75 15H10.25C9.561 15 9 14.439 9 13.75V13H5.5C4.673 13 4 12.327 4 11.5V7H2.25C1.561 7 1 6.439 1 5.75V2.25C1 1.561 1.561 1 2.25 1ZM10 13.75C10 13.888 10.112 14 10.25 14H13.75C13.888 14 14 13.888 14 13.75V11H10V13.75ZM10 5.75V3H14V5.75C14 5.888 13.888 6 13.75 6H10.25C10.112 6 10 5.888 10 5.75ZM6 3H2V5.75C2 5.888 2.112 6 2.25 6H5.75C5.888 6 6 5.888 6 5.75V3Z" fill="#202020"/>
</svg>
