<svg width="16" height="16" viewBox="0 0 16 16" fill="none" xmlns="http://www.w3.org/2000/svg">
<path fill-rule="evenodd" clip-rule="evenodd" d="M11.5 2C12.8807 2 14 3.11929 14 4.5V11.5C14 12.8807 12.8807 14 11.5 14H8.99902V13H11.5C12.3284 13 13 12.3284 13 11.5V6H3V8.78418C2.73049 8.50442 2.38054 8.32473 2 8.26953V4.5C2 3.11929 3.11929 2 4.5 2H11.5ZM4.5 3C3.67157 3 3 3.67157 3 4.5V5H13V4.5C13 3.67157 12.3284 3 11.5 3H4.5Z" fill="#202020"/>
<path d="M7.51 9.05L5.51 8.3C5.43 8.27 5.34 8.25 5.25 8.25C5 8.25 4.77 8.38 4.64 8.57L4.62 8.6L3.22 10.6L2.39 9.61L2.32 9.52C2.18 9.35 1.98 9.25 1.75 9.25C1.62 9.25 1.51 9.28 1.41 9.33C1.37 9.35 1.33 9.37 1.29 9.4L0.3 10.15C0.12 10.29 0 10.51 0 10.75V13.25C0 13.5 0.12 13.71 0.3 13.85L0.36 13.89L1.29 14.6C1.33 14.63 1.37 14.65 1.41 14.67C1.51 14.72 1.62 14.75 1.75 14.75C1.98 14.75 2.18 14.65 2.32 14.48L2.39 14.39L3.22 13.4L4.62 15.4L4.64 15.43C4.77 15.62 5 15.75 5.25 15.75C5.34 15.75 5.43 15.73 5.51 15.7L7.51 14.95C7.8 14.85 8 14.57 8 14.25V9.75C8 9.43 7.8 9.16 7.51 9.05ZM1.298 10.686L2.23 11.997L1.298 13.323L1 13.096V10.912L1.298 10.686ZM6 13.93L4.39 12L6 10.07V13.93Z" fill="#9529C2"/>
</svg>
