<svg width="16" height="16" viewBox="0 0 16 16" fill="none" xmlns="http://www.w3.org/2000/svg">
<path d="M12.5 2C13.327 2 14 2.673 14 3.5V11.5C14 12.327 13.327 13 12.5 13H8.99902V12H12.5C12.775 12 13 11.776 13 11.5V4H6V7.41504L5.85742 7.3623C5.65643 7.28831 5.45202 7.25 5.24902 7.25C5.16501 7.25 5.08189 7.25673 5 7.26855V3.5C5 2.673 5.673 2 6.5 2H12.5Z" fill="#202020"/>
<path d="M11.5 9C11.776 9 12 9.224 12 9.5C12 9.776 11.776 10 11.5 10H9.5C9.224 10 9 9.776 9 9.5C9 9.224 9.224 9 9.5 9H11.5Z" fill="#202020"/>
<path d="M11.5 7C11.776 7 12 7.224 12 7.5C12 7.776 11.776 8 11.5 8H9.5C9.224 8 9 7.776 9 7.5C9 7.224 9.224 7 9.5 7H11.5Z" fill="#202020"/>
<path d="M7.5 7C7.776 7 8 7.224 8 7.5C8 7.76044 7.80029 7.9718 7.5459 7.99512L7.13672 7.8418C7.05247 7.75229 7 7.63253 7 7.5C7 7.224 7.224 7 7.5 7Z" fill="#202020"/>
<path d="M7.5 5C7.776 5 8 5.224 8 5.5C8 5.776 7.776 6 7.5 6C7.224 6 7 5.776 7 5.5C7 5.224 7.224 5 7.5 5Z" fill="#202020"/>
<path d="M11.5 5C11.776 5 12 5.224 12 5.5C12 5.776 11.776 6 11.5 6H9.5C9.224 6 9 5.776 9 5.5C9 5.224 9.224 5 9.5 5H11.5Z" fill="#202020"/>
<path d="M7.51 9.05L5.51 8.3C5.43 8.27 5.34 8.25 5.25 8.25C5 8.25 4.77 8.38 4.64 8.57L4.62 8.6L3.22 10.6L2.39 9.61L2.32 9.52C2.18 9.35 1.98 9.25 1.75 9.25C1.62 9.25 1.51 9.28 1.41 9.33C1.37 9.35 1.33 9.37 1.29 9.4L0.3 10.15C0.12 10.29 0 10.51 0 10.75V13.25C0 13.5 0.12 13.71 0.3 13.85L0.36 13.89L1.29 14.6C1.33 14.63 1.37 14.65 1.41 14.67C1.51 14.72 1.62 14.75 1.75 14.75C1.98 14.75 2.18 14.65 2.32 14.48L2.39 14.39L3.22 13.4L4.62 15.4L4.64 15.43C4.77 15.62 5 15.75 5.25 15.75C5.34 15.75 5.43 15.73 5.51 15.7L7.51 14.95C7.8 14.85 8 14.57 8 14.25V9.75C8 9.43 7.8 9.16 7.51 9.05ZM1.298 10.686L2.23 11.997L1.298 13.323L1 13.096V10.912L1.298 10.686ZM6 13.93L4.39 12L6 10.07V13.93Z" fill="#9529C2"/>
</svg>
