<svg width="16" height="16" viewBox="0 0 16 16" fill="none" xmlns="http://www.w3.org/2000/svg">
<path fill-rule="evenodd" clip-rule="evenodd" d="M1 6H6C6.551 6 7 6.448 7 7V11C7 11.552 6.551 12 6 12H1C0.449 12 0 11.552 0 11V7C0 6.448 0.449 6 1 6ZM1 11H6V7H1V11Z" fill="#202020"/>
<path d="M10 8V4C10 3.448 9.551 3 9 3H4C3.449 3 3 3.448 3 4V5H4V4H9V8H8V9H9C9.551 9 10 8.552 10 8Z" fill="#202020"/>
<path d="M12.5 1C12.776 1 13 1.224 13 1.5V13.293L14.146 12.147C14.341 11.952 14.658 11.952 14.853 12.147C15.048 12.342 15.048 12.659 14.853 12.854L12.853 14.854C12.658 15.049 12.341 15.049 12.146 14.854L10.146 12.854C9.95101 12.659 9.95101 12.342 10.146 12.147C10.341 11.952 10.658 11.952 10.853 12.147L11.999 13.293V1.5C11.999 1.224 12.223 1 12.499 1H12.5Z" fill="#006CBF"/>
</svg>
