<svg width="16" height="16" viewBox="0 0 16 16" fill="none" xmlns="http://www.w3.org/2000/svg">
<path d="M12.4998 1C12.7758 1 12.9998 1.224 12.9998 1.5V13.293L14.1458 12.147C14.3408 11.952 14.6578 11.952 14.8528 12.147C15.0478 12.342 15.0478 12.659 14.8528 12.854L12.8528 14.854C12.6578 15.049 12.3408 15.049 12.1458 14.854L10.1458 12.854C9.95076 12.659 9.95076 12.342 10.1458 12.147C10.3408 11.952 10.6578 11.952 10.8528 12.147L11.9988 13.293V1.5C11.9988 1.224 12.2228 1 12.4988 1H12.4998Z" fill="#006CBF"/>
<path d="M9.5 5H2.5C2.224 5 2 4.776 2 4.5C2 4.224 2.224 4 2.5 4H9.5C9.776 4 10 4.224 10 4.5C10 4.776 9.776 5 9.5 5ZM8 7.5C8 7.224 7.776 7 7.5 7H2.5C2.224 7 2 7.224 2 7.5C2 7.776 2.224 8 2.5 8H7.5C7.776 8 8 7.776 8 7.5ZM6 10.5C6 10.224 5.776 10 5.5 10H2.5C2.224 10 2 10.224 2 10.5C2 10.776 2.224 11 2.5 11H5.5C5.776 11 6 10.776 6 10.5Z" fill="#202020"/>
</svg>
