<svg width="16" height="16" viewBox="0 0 16 16" fill="none" xmlns="http://www.w3.org/2000/svg">
<g clip-path="url(#clip0_7204_96821)">
<path fill-rule="evenodd" clip-rule="evenodd" d="M3.5 2C2.11929 2 1 3.11929 1 4.5V7.25814C1.95094 6.47279 3.17037 6.00098 4.5 6.00098C5.29526 6.00098 6.0511 6.16976 6.73365 6.47346L8.20711 5H12.5C13.3284 5 14 5.67157 14 6.5V11.5C14 12.3284 13.3284 13 12.5 13H9.79324C9.69471 13.3486 9.56266 13.6832 9.40079 14H12.5C13.8807 14 15 12.8807 15 11.5V6.5C15 5.11929 13.8807 4 12.5 4H8.20711L6.64645 2.43934C6.36514 2.15804 5.98361 2 5.58579 2H3.5ZM2 6V4.5C2 3.67157 2.67157 3 3.5 3H5.58579C5.71839 3 5.84557 3.05268 5.93934 3.14645L7.29289 4.5L5.93934 5.85355C5.84557 5.94732 5.71839 6 5.58579 6H2Z" fill="#B27C00"/>
<path d="M3.01115 11.001H5.98915C5.96386 9.97881 5.74959 8.97015 5.35715 8.02598C4.93515 7.10098 4.55715 7.00098 4.50015 7.00098C4.44315 7.00098 4.06515 7.10098 3.64315 8.02598C3.25071 8.97015 3.03643 9.97881 3.01115 11.001V11.001ZM0.0271454 11.001C0.119033 10.1814 0.43439 9.4028 0.938769 8.75029C1.44315 8.09777 2.11715 7.59641 2.88715 7.30098C2.32984 8.45608 2.03059 9.71862 2.01015 11.001H0.0271454ZM0.0271454 12.001H2.01015C2.03059 13.2833 2.32984 14.5459 2.88715 15.701C2.11715 15.4055 1.44315 14.9042 0.938769 14.2517C0.43439 13.5991 0.119033 12.8206 0.0271454 12.001ZM4.50015 16.001C4.44315 16.001 4.06515 15.901 3.64315 14.976C3.25071 14.0318 3.03643 13.0231 3.01115 12.001H5.98915C5.96386 13.0231 5.74959 14.0318 5.35715 14.976C4.93515 15.901 4.55715 16.001 4.50015 16.001ZM8.97314 12.001C8.88126 12.8206 8.5659 13.5991 8.06152 14.2517C7.55714 14.9042 6.88314 15.4055 6.11315 15.701C6.67045 14.5459 6.9697 13.2833 6.99015 12.001H8.97314ZM6.11315 7.30098C6.88314 7.59641 7.55714 8.09777 8.06152 8.75029C8.5659 9.4028 8.88126 10.1814 8.97314 11.001H6.99015C6.9697 9.71862 6.67045 8.45608 6.11315 7.30098V7.30098Z" fill="#006CBF"/>
</g>
<defs>
<clipPath id="clip0_7204_96821">
<rect width="16" height="16" fill="white"/>
</clipPath>
</defs>
</svg>
