<svg width="16" height="16" viewBox="0 0 16 16" fill="none" xmlns="http://www.w3.org/2000/svg">
<path d="M7 4.75C7 3.785 6.215 3 5.25 3L3.75 3C2.785 3 2 3.785 2 4.75L2 7L1.5 7C1.224 7 1 7.224 1 7.5C1 7.776 1.224 8 1.5 8L2 8L2 10.25C2 11.215 2.785 12 3.75 12L5.25 12C6.215 12 7 11.215 7 10.25L7 8L9 8L9 10.25C9 11.215 9.785 12 10.75 12L12.25 12C13.215 12 14 11.215 14 10.25L14 8L14.5 8C14.776 8 15 7.776 15 7.5C15 7.224 14.776 7 14.5 7L14 7L14 4.75C14 3.785 13.215 3 12.25 3L10.75 3C9.785 3 9 3.785 9 4.75L9 7L7 7L7 4.75ZM10.75 4L12.25 4C12.663 4 13 4.337 13 4.75L13 10.25C13 10.663 12.663 11 12.25 11L10.75 11C10.337 11 10 10.663 10 10.25L10 4.75C10 4.337 10.337 4 10.75 4ZM5.25 11L3.75 11C3.337 11 3 10.663 3 10.25L3 4.75C3 4.337 3.337 4 3.75 4L5.25 4C5.663 4 6 4.337 6 4.75L6 10.25C6 10.663 5.663 11 5.25 11Z" fill="#202020"/>
</svg>
