<svg width="16" height="16" viewBox="0 0 16 16" fill="none" xmlns="http://www.w3.org/2000/svg">
<path d="M8.63 7.583C8.712 7.706 8.756 7.851 8.756 8C8.756 8.199 8.677 8.39 8.536 8.53C8.395 8.67 8.205 8.75 8.006 8.75C7.858 8.75 7.713 8.706 7.589 8.624C7.466 8.542 7.37 8.424 7.313 8.287C7.256 8.15 7.241 7.999 7.27 7.854C7.299 7.709 7.37 7.575 7.475 7.47C7.58 7.365 7.714 7.294 7.859 7.265C8.005 7.236 8.155 7.251 8.292 7.308C8.429 7.365 8.546 7.461 8.629 7.584L8.63 7.583ZM6 6.75V9.5C6 9.776 5.776 10 5.5 10C5.361 10 5.236 9.943 5.145 9.851C4.911 9.937 4.622 10 4.25 10C2.937 10 2.25 9.246 2.25 8.5C2.25 7.754 2.937 7 4.25 7C4.552 7 4.796 7.023 5 7.056V6.75C5 6.256 4.28 6.25 4.25 6.25C3.758 6.25 3.578 6.377 3.576 6.378C3.38 6.573 3.077 6.561 2.883 6.365C2.688 6.17 2.702 5.841 2.897 5.646C2.99 5.553 3.363 5.25 4.251 5.25C5.121 5.25 6 5.765 6 6.75ZM5.001 8.074C4.857 8.038 4.623 8 4.251 8C3.602 8 3.251 8.258 3.251 8.5C3.251 8.742 3.602 9 4.251 9C4.698 9 4.908 8.885 5.001 8.811V8.074ZM14 7.75C14 8.991 13.103 10 12 10C11.62 10 11.269 9.873 10.966 9.666C10.897 9.86 10.717 10 10.5 10C10.224 10 10 9.776 10 9.5V4.5C10 4.224 10.224 4 10.5 4C10.776 4 11 4.224 11 4.5V5.813C11.295 5.619 11.634 5.5 12 5.5C13.103 5.5 14 6.509 14 7.75ZM13 7.75C13 7.061 12.552 6.5 12 6.5C11.448 6.5 11 7.061 11 7.75C11 8.439 11.448 9 12 9C12.552 9 13 8.439 13 7.75Z" fill="#202020"/>
</svg>
