<svg width="16" height="16" viewBox="0 0 16 16" fill="none" xmlns="http://www.w3.org/2000/svg">
<path d="M11.751 9.81701C11.926 9.60301 11.894 9.28801 11.681 9.11301C11.467 8.93801 11.152 8.97001 10.977 9.18301L7.23601 13.755L5.35401 11.873C5.15901 11.678 4.84201 11.678 4.64701 11.873C4.45201 12.068 4.45201 12.385 4.64701 12.58L6.92001 14.853C7.02001 14.953 7.15701 15.006 7.29801 14.999C7.43901 14.992 7.57101 14.926 7.66001 14.816L11.751 9.81601V9.81701Z" fill="#11910D"/>
<path d="M9.47299 4.83603C9.69299 4.52103 9.80599 4.14303 9.79299 3.75903C9.80199 3.42603 9.72699 3.09603 9.57499 2.80003C9.44399 2.56103 9.24899 2.36303 9.01099 2.23003C8.69899 2.06803 8.35099 1.98903 7.99999 2.00003H6.49999C6.36699 2.00003 6.23999 2.05203 6.14599 2.14603C6.05299 2.24003 5.99999 2.36703 5.99999 2.50003V7.50003C5.99999 7.63303 6.05199 7.76003 6.14599 7.85403C6.23999 7.94703 6.36699 8.00003 6.49999 8.00003H8.24999C8.62399 8.00203 8.99199 7.90903 9.31999 7.72903C9.57699 7.57803 9.78799 7.35903 9.92899 7.09703C10.07 6.83503 10.136 6.53903 10.12 6.24103C10.13 5.89903 10.045 5.56103 9.87399 5.26403C9.77099 5.09503 9.63499 4.95003 9.47299 4.83603ZM6.99999 3.00003H7.99999C8.17899 2.99003 8.35799 3.02403 8.52099 3.10003C8.59599 3.14103 8.65699 3.20303 8.69699 3.27803C8.76999 3.42703 8.80499 3.59303 8.79699 3.75903C8.81399 3.87703 8.79699 3.99803 8.74899 4.10803C8.70099 4.21803 8.62199 4.31103 8.52199 4.37803C8.36899 4.46103 8.19599 4.50303 8.02199 4.50003H6.99999V3.00003ZM9.05699 6.59403C9.00399 6.70503 8.91899 6.79803 8.81399 6.86103C8.63999 6.95303 8.44699 7.00003 8.24999 7.00003H6.99999V5.50003H8.18599C8.39999 5.48703 8.61499 5.52103 8.81399 5.60003C8.89699 5.64003 8.96599 5.70303 9.01399 5.78103C9.08799 5.92103 9.12299 6.07903 9.11399 6.23803C9.12999 6.35903 9.10999 6.48303 9.05699 6.59403ZM5.46399 7.31403L3.46399 2.31403C3.31399 1.93303 2.68699 1.93303 2.53599 2.31403L0.535991 7.31403C0.432991 7.57003 0.556991 7.86103 0.813991 7.96303C1.06899 8.06703 1.36099 7.94103 1.46299 7.68503L1.73699 6.99903H4.26099L4.53499 7.68503C4.61299 7.88003 4.80099 7.99903 4.99899 7.99903C5.06099 7.99903 5.12399 7.98703 5.18499 7.96303C5.44199 7.86003 5.56599 7.56903 5.46299 7.31403H5.46399ZM2.13799 6.00003L2.99999 3.84703L3.86199 6.00003H2.13799ZM15.429 6.70803C15.04 7.55303 14.33 7.99903 13.374 7.99903C11.864 8.00003 10.999 6.90603 10.999 5.00003C10.999 3.09403 11.864 2.00003 13.374 2.00003C14.345 2.00003 15.086 2.48303 15.46 3.36103C15.568 3.61603 15.45 3.90903 15.196 4.01703C14.939 4.12503 14.648 4.00603 14.54 3.75303C14.321 3.23803 13.95 2.99903 13.374 2.99903C12.462 2.99903 11.999 3.67203 11.999 4.99903C11.999 6.32603 12.462 6.99903 13.374 6.99903C13.934 6.99903 14.298 6.77303 14.52 6.29003C14.635 6.03703 14.935 5.93003 15.183 6.04503C15.434 6.16003 15.544 6.45703 15.429 6.70803Z" fill="#202020"/>
</svg>
