<svg width="16" height="16" viewBox="0 0 16 16" fill="none" xmlns="http://www.w3.org/2000/svg">
<path d="M9.5 7H5.5C4.673 7 4 6.327 4 5.5V2.5C4 1.673 4.673 1 5.5 1H9.5C10.327 1 11 1.673 11 2.5V5.5C11 6.327 10.327 7 9.5 7ZM5.5 2C5.225 2 5 2.225 5 2.5V5.5C5 5.775 5.225 6 5.5 6H9.5C9.775 6 10 5.775 10 5.5V2.5C10 2.225 9.775 2 9.5 2H5.5ZM8.854 4.854C9.049 4.659 9.049 4.342 8.854 4.147L7.854 3.147C7.659 2.952 7.342 2.952 7.147 3.147L6.147 4.147C5.952 4.342 5.952 4.659 6.147 4.854C6.342 5.049 6.659 5.049 6.854 4.854L7.5 4.208L8.146 4.854C8.244 4.952 8.372 5 8.5 5C8.628 5 8.756 4.951 8.854 4.854ZM9.5 14H5.5C4.673 14 4 13.327 4 12.5V9.5C4 8.673 4.673 8 5.5 8H9.5C10.327 8 11 8.673 11 9.5V12.5C11 13.327 10.327 14 9.5 14ZM5.5 9C5.225 9 5 9.225 5 9.5V12.5C5 12.775 5.225 13 5.5 13H9.5C9.775 13 10 12.775 10 12.5V9.5C10 9.225 9.775 9 9.5 9H5.5ZM7.854 11.854L8.854 10.854C9.049 10.659 9.049 10.342 8.854 10.147C8.659 9.952 8.342 9.952 8.147 10.147L7.501 10.793L6.855 10.147C6.66 9.952 6.343 9.952 6.148 10.147C5.953 10.342 5.953 10.659 6.148 10.854L7.148 11.854C7.246 11.952 7.374 12 7.502 12C7.63 12 7.758 11.951 7.856 11.854H7.854Z" fill="#202020"/>
</svg>
