<svg width="16" height="16" viewBox="0 0 16 16" fill="none" xmlns="http://www.w3.org/2000/svg">
<path d="M14 2H2C0.897 2 0 2.897 0 4V12C0 13.103 0.897 14 2 14H14C15.103 14 16 13.103 16 12V4C16 2.897 15.103 2 14 2ZM1 12V4C1 3.448 1.448 3 2 3H9V13H2C1.448 13 1 12.552 1 12ZM5 4C3.62 4 2.5 5.12 2.5 6.5C2.5 7.53 3.12 8.41 4 8.79V11C4 11.13 4.05 11.26 4.15 11.35L4.65 11.85C4.74 11.95 4.87 12 5 12C5.13 12 5.26 11.95 5.35 11.85L5.85 11.35C6.05 11.16 6.05 10.84 5.85 10.65L5.21 10L5.85 9.35C5.95 9.26 6 9.13 6 9V8.79C6.88 8.41 7.5 7.53 7.5 6.5C7.5 5.12 6.38 4 5 4ZM5 6.25C4.59 6.25 4.25 5.91 4.25 5.5C4.25 5.09 4.59 4.75 5 4.75C5.41 4.75 5.75 5.09 5.75 5.5C5.75 5.91 5.41 6.25 5 6.25Z" fill="#202020"/>
</svg>
