<svg width="16" height="16" viewBox="0 0 16 16" fill="none" xmlns="http://www.w3.org/2000/svg">
<path d="M3.3422 10.8867C3.67827 10.4356 3.97737 9.87486 4.25807 9.29539C5.05258 9.93913 5.8722 10.4425 6.73171 10.8307C8.76374 11.7484 10.9714 12 13.5 12C13.7761 12 14 11.7761 14 11.5V5.5C14 5.26811 13.8406 5.06665 13.6149 5.01338C13.3913 4.9606 13.1609 5.06696 13.0557 5.27058C13.0557 5.27058 13.0523 5.27666 13.0482 5.28348C13.0393 5.29814 13.023 5.32355 12.9984 5.35625C12.9492 5.42188 12.8684 5.51493 12.7502 5.60957C12.5199 5.79375 12.1285 6 11.5 6C10.9581 6 10.4743 5.63915 9.81235 5.10957L9.75602 5.06445C9.17567 4.59936 8.42777 4 7.5 4C6.43334 4 5.66885 4.6902 5.09721 5.49889C4.65372 6.12627 4.27396 6.89989 3.9242 7.64941C3.2497 6.97716 2.58175 6.17347 1.90962 5.21327C1.78447 5.03448 1.55782 4.95752 1.34968 5.02313C1.14154 5.08874 1 5.28176 1 5.5V11.5C1 11.7761 1.22386 12 1.5 12C2.3037 12 2.89645 11.485 3.3422 10.8867Z" fill="#3487C7"/>
<path fill-rule="evenodd" clip-rule="evenodd" d="M1.5 1C1.77614 1 2 1.22386 2 1.5V14H14.5C14.7761 14 15 14.2239 15 14.5C15 14.7761 14.7761 15 14.5 15H1.5C1.22386 15 1 14.7761 1 14.5V1.5C1 1.22386 1.22386 1 1.5 1Z" fill="#202020"/>
</svg>
