<svg width="16" height="16" viewBox="0 0 16 16" fill="none" xmlns="http://www.w3.org/2000/svg">
<path fill-rule="evenodd" clip-rule="evenodd" d="M3 3.5C3 2.075 5.149 1 8 1C10.851 1 13 2.075 13 3.5V12.5C13 12.8583 12.8641 13.1945 12.6154 13.497C12.3816 13.2376 12.0588 13.0598 11.6956 13.0126C11.8946 12.8366 12 12.6589 12 12.5V5.021C10.7859 5.71872 9.39905 6.05816 8 6C6.60095 6.05816 5.21405 5.71872 4 5.021V9.49632C3.70951 9.27703 3.37012 9.12246 3 9.04882V3.5ZM12 3.5C12 2.888 10.441 2 8 2C5.558 2 4 2.888 4 3.5C4 4.112 5.559 5 8 5C10.441 5 12 4.112 12 3.5Z" fill="#3487C7"/>
<path d="M2.5 10C2.062 10 1.677 10.16 1.403 10.449C1.133 10.733 1 11.111 1 11.5C1 11.963 1.219 12.291 1.497 12.517C1.738 12.713 2.042 12.846 2.273 12.946L2.3 12.958C2.566 13.075 2.748 13.158 2.873 13.259C2.97 13.338 3.001 13.4 3.001 13.5C3.001 13.663 2.947 13.785 2.873 13.863C2.803 13.937 2.688 14 2.501 14C2.245 14 2.075 13.852 2.017 13.625C1.948 13.358 1.676 13.197 1.408 13.266C1.141 13.335 0.98 13.607 1.049 13.875C1.213 14.511 1.757 15 2.501 15C2.939 15 3.324 14.84 3.598 14.551C3.868 14.267 4.001 13.889 4.001 13.5C4.001 13.037 3.782 12.709 3.504 12.483C3.263 12.287 2.959 12.154 2.728 12.054L2.701 12.042C2.435 11.925 2.253 11.842 2.128 11.741C2.031 11.662 2 11.6 2 11.5C2 11.337 2.054 11.215 2.128 11.137C2.198 11.063 2.313 11 2.5 11C2.756 11 2.926 11.148 2.984 11.375C3.053 11.642 3.325 11.803 3.593 11.735C3.86 11.666 4.021 11.394 3.952 11.126C3.788 10.49 3.244 10.001 2.5 10.001V10ZM6.5 10C5.672 10 5 10.672 5 11.5V13.5C5 14.328 5.672 15 6.5 15C6.732 15 6.951 14.947 7.147 14.854L7.647 15.354C7.842 15.549 8.159 15.549 8.354 15.354C8.549 15.159 8.549 14.842 8.354 14.647L7.854 14.147C7.948 13.951 8 13.732 8 13.5V11.5C8 10.672 7.328 10 6.5 10ZM6 11.5C6 11.224 6.224 11 6.5 11C6.776 11 7 11.224 7 11.5V13.5C7 13.776 6.776 14 6.5 14C6.224 14 6 13.776 6 13.5V11.5ZM10 10.5C10 10.224 9.776 10 9.5 10C9.224 10 9 10.224 9 10.5V14.5C9 14.776 9.224 15 9.5 15H11.5C11.776 15 12 14.776 12 14.5C12 14.224 11.776 14 11.5 14H10V10.5Z" fill="#202020"/>
</svg>
