<svg width="16" height="16" viewBox="0 0 16 16" fill="none" xmlns="http://www.w3.org/2000/svg">
<path d="M6.49999 12C6.42399 12 6.34799 11.982 6.27599 11.947L1.27599 9.44703C1.02899 9.32303 0.92899 9.02303 1.05199 8.77603C1.17699 8.53003 1.47599 8.42903 1.72299 8.55203L6.37699 10.879L9.62299 7.17003C9.76599 7.00703 9.99799 6.95403 10.196 7.03903L13.696 8.53903C13.95 8.64803 14.067 8.94203 13.959 9.19603C13.848 9.45003 13.554 9.56403 13.302 9.45903L10.136 8.10203L6.87499 11.829C6.77799 11.94 6.64099 12 6.49999 12Z" fill="#3487C7"/>
<path d="M1.99998 14V6.527L6.34198 7.975C6.39398 7.992 6.44698 8 6.49998 8C6.65098 8 6.79798 7.931 6.89498 7.807L10.159 3.612L13.304 4.961C13.556 5.066 13.85 4.952 13.961 4.698C14.069 4.444 13.952 4.15 13.698 4.041L10.198 2.541C9.98698 2.451 9.74598 2.514 9.60598 2.694L6.32298 6.915L2.00098 5.473V1.5C2.00098 1.224 1.77698 1 1.50098 1C1.22498 1 1.00098 1.224 1.00098 1.5V14.5C1.00098 14.776 1.22498 15 1.50098 15H14.501C14.777 15 15.001 14.776 15.001 14.5C15.001 14.224 14.777 14 14.501 14H1.99998Z" fill="#202020"/>
</svg>
