<svg width="16" height="16" viewBox="0 0 16 16" fill="none" xmlns="http://www.w3.org/2000/svg">
<path fill-rule="evenodd" clip-rule="evenodd" d="M7.25 7H8.75C9.439 7 10 6.439 10 5.75V4.25C10 3.561 9.439 3 8.75 3H7.25C6.561 3 6 3.561 6 4.25V5.75C6 6.439 6.561 7 7.25 7ZM7 4.25C7 4.112 7.112 4 7.25 4H8.75C8.888 4 9 4.112 9 4.25V5.75C9 5.888 8.888 6 8.75 6H7.25C7.112 6 7 5.888 7 5.75V4.25Z" fill="#3487C7"/>
<path fill-rule="evenodd" clip-rule="evenodd" d="M7.25 15H8.75C9.439 15 10 14.439 10 13.75V9.25C10 8.561 9.439 8 8.75 8H7.25C6.561 8 6 8.561 6 9.25V13.75C6 14.439 6.561 15 7.25 15ZM7 9.25C7 9.112 7.112 9 7.25 9H8.75C8.888 9 9 9.112 9 9.25V13.75C9 13.888 8.888 14 8.75 14H7.25C7.112 14 7 13.888 7 13.75V9.25Z" fill="#3487C7"/>
<path d="M1.5 2C1.224 2 1 1.776 1 1.5C1 1.224 1.224 1 1.5 1H2.5C2.776 1 3 1.224 3 1.5C3 1.776 2.776 2 2.5 2H1.5Z" fill="#202020"/>
<path fill-rule="evenodd" clip-rule="evenodd" d="M5 13.75C5 14.439 4.439 15 3.75 15H2.25C1.561 15 1 14.439 1 13.75V4.25C1 3.561 1.561 3 2.25 3H3.75C4.439 3 5 3.561 5 4.25V13.75ZM2.25 4C2.112 4 2 4.112 2 4.25V13.75C2 13.888 2.112 14 2.25 14H3.75C3.888 14 4 13.888 4 13.75V4.25C4 4.112 3.888 4 3.75 4H2.25Z" fill="#202020"/>
<path fill-rule="evenodd" clip-rule="evenodd" d="M11 7.75C11 8.439 11.561 9 12.25 9H13.75C14.439 9 15 8.439 15 7.75V6.25C15 5.561 14.439 5 13.75 5H12.25C11.561 5 11 5.561 11 6.25V7.75ZM12 6.25C12 6.112 12.112 6 12.25 6H13.75C13.888 6 14 6.112 14 6.25V7.75C14 7.888 13.888 8 13.75 8H12.25C12.112 8 12 7.888 12 7.75V6.25Z" fill="#202020"/>
<path fill-rule="evenodd" clip-rule="evenodd" d="M11 13.75C11 14.439 11.561 15 12.25 15H13.75C14.439 15 15 14.439 15 13.75V11.25C15 10.561 14.439 10 13.75 10H12.25C11.561 10 11 10.561 11 11.25V13.75ZM12 11.25C12 11.112 12.112 11 12.25 11H13.75C13.888 11 14 11.112 14 11.25V13.75C14 13.888 13.888 14 13.75 14H12.25C12.112 14 12 13.888 12 13.75V11.25Z" fill="#202020"/>
<path d="M4 1.5C4 1.776 4.224 2 4.5 2H5.5C5.776 2 6 1.776 6 1.5C6 1.224 5.776 1 5.5 1H4.5C4.224 1 4 1.224 4 1.5Z" fill="#202020"/>
<path d="M7.5 2C7.224 2 7 1.776 7 1.5C7 1.224 7.224 1 7.5 1H8.5C8.776 1 9 1.224 9 1.5C9 1.776 8.776 2 8.5 2H7.5Z" fill="#202020"/>
<path d="M10 1.5C10 1.776 10.224 2 10.5 2H11.5C11.776 2 12 1.776 12 1.5C12 1.224 11.776 1 11.5 1H10.5C10.224 1 10 1.224 10 1.5Z" fill="#202020"/>
<path d="M13.5 2C13.224 2 13 1.776 13 1.5C13 1.224 13.224 1 13.5 1H14.5C14.776 1 15 1.224 15 1.5C15 1.776 14.776 2 14.5 2H13.5Z" fill="#202020"/>
</svg>
