<svg width="16" height="16" viewBox="0 0 16 16" fill="none" xmlns="http://www.w3.org/2000/svg">
<g clip-path="url(#clip0_7204_97077)">
<path d="M12.987 6.20337V3.999C12.987 3.447 12.54 3 11.988 3H9.79297C9.69436 2.65136 9.56223 2.31679 9.40029 2H11.987C13.091 2 13.985 2.895 13.985 3.999H13.986V6.498H13.7901C13.5325 6.37986 13.2642 6.28103 12.987 6.20337Z" fill="#202020"/>
<path d="M6.20449 12.991C6.30337 13.3429 6.43637 13.6805 6.59971 14H5.991V13.991H3.998C2.895 13.991 2 13.096 2 11.992V10.245H2.999V11.992C2.999 12.544 3.446 12.991 3.998 12.991H6.20449Z" fill="#202020"/>
<path d="M10.8212 6.04147L10.437 5.27251C10.3502 5.09888 10.1709 4.99143 9.9779 4.99625C9.93736 5.44957 9.84182 5.88706 9.698 6.30199C10.057 6.17756 10.4328 6.08927 10.8212 6.04147Z" fill="#11910D"/>
<path fill-rule="evenodd" clip-rule="evenodd" d="M14.0001 15.2416C13.26 15.7361 12.39 16 11.5 16C10.3065 16 9.16193 15.5259 8.31802 14.682C7.47411 13.8381 7 12.6935 7 11.5C7 10.61 7.26392 9.73996 7.75839 8.99994C8.25285 8.25991 8.95566 7.68314 9.77792 7.34254C10.6002 7.00195 11.505 6.91283 12.3779 7.08647C13.2508 7.2601 14.0526 7.68868 14.682 8.31802C15.3113 8.94736 15.7399 9.74918 15.9135 10.6221C16.0872 11.495 15.9981 12.3998 15.6575 13.2221C15.3169 14.0443 14.7401 14.7471 14.0001 15.2416ZM10.5 9.5V13.5C10.5 13.6326 10.4473 13.7598 10.3536 13.8536C10.2598 13.9473 10.1326 14 10 14C9.86739 14 9.74021 13.9473 9.64645 13.8536C9.55268 13.7598 9.5 13.6326 9.5 13.5V9.5C9.5 9.36739 9.55268 9.24021 9.64645 9.14645C9.74021 9.05268 9.86739 9 10 9C10.1326 9 10.2598 9.05268 10.3536 9.14645C10.4473 9.24021 10.5 9.36739 10.5 9.5ZM13.5 9.5V13.5C13.5 13.6326 13.4473 13.7598 13.3536 13.8536C13.2598 13.9473 13.1326 14 13 14C12.8674 14 12.7402 13.9473 12.6464 13.8536C12.5527 13.7598 12.5 13.6326 12.5 13.5V9.5C12.5 9.36739 12.5527 9.24021 12.6464 9.14645C12.7402 9.05268 12.8674 9 13 9C13.1326 9 13.2598 9.05268 13.3536 9.14645C13.4473 9.24021 13.5 9.36739 13.5 9.5Z" fill="#006CBF"/>
<path fill-rule="evenodd" clip-rule="evenodd" d="M1.99994 0.758387C2.73996 0.26392 3.60999 0 4.5 0C5.69348 0 6.83807 0.474106 7.68198 1.31802C8.5259 2.16193 9 3.30653 9 4.5C9 5.39002 8.73608 6.26004 8.24162 7.00007C7.74715 7.74009 7.04434 8.31686 6.22208 8.65746C5.39981 8.99805 4.49501 9.08717 3.6221 8.91353C2.74918 8.7399 1.94736 8.31132 1.31802 7.68198C0.688685 7.05264 0.260102 6.25082 0.0864683 5.37791C-0.0871652 4.50499 0.00194976 3.60019 0.342544 2.77792C0.683138 1.95566 1.25991 1.25285 1.99994 0.758387ZM6.713 4.937L3.743 6.587C3.66689 6.62932 3.58104 6.65103 3.49396 6.64998C3.40688 6.64893 3.32158 6.62515 3.24652 6.581C3.17145 6.53685 3.10922 6.47386 3.06598 6.39826C3.02274 6.32266 3 6.23708 3 6.15V2.85C3 2.76291 3.02274 2.67733 3.06598 2.60173C3.10922 2.52614 3.17145 2.46315 3.24652 2.41899C3.32158 2.37484 3.40688 2.35106 3.49396 2.35001C3.58104 2.34896 3.66689 2.37067 3.743 2.413L6.713 4.063C6.79091 4.10631 6.85582 4.16967 6.90101 4.2465C6.94621 4.32334 6.97004 4.41086 6.97004 4.5C6.97004 4.58914 6.94621 4.67666 6.90101 4.75349C6.85582 4.83033 6.79091 4.89368 6.713 4.937Z" fill="#11910D"/>
</g>
<defs>
<clipPath id="clip0_7204_97077">
<rect width="16" height="16" fill="white"/>
</clipPath>
</defs>
</svg>
