<svg width="16" height="16" viewBox="0 0 16 16" fill="none" xmlns="http://www.w3.org/2000/svg">
<path fill-rule="evenodd" clip-rule="evenodd" d="M5.1565 9.96118C5.15864 9.97413 5.16079 9.98705 5.16297 9.99996H3.41603C3.39912 9.96125 3.38269 9.92229 3.36673 9.88308C2.95458 9.79675 2.55938 9.66428 2.1868 9.49132C2.84985 12.0835 5.20112 14 7.99999 14C11.3137 14 14 11.3137 14 7.99996C14 5.20109 12.0836 2.84982 9.49135 2.18677C9.81778 2.88995 9.99999 3.67367 9.99999 4.49996C9.99999 5.01997 9.92782 5.52313 9.79296 5.99996H9.82133C9.93561 6.61075 9.99999 7.286 9.99999 7.99996C9.99999 8.71392 9.93561 9.38916 9.82133 9.99996H6.17865C6.16343 9.91864 6.1491 9.83618 6.13569 9.75264C5.82051 9.85068 5.49317 9.92114 5.1565 9.96118ZM5.77704 12.0959C5.62613 11.764 5.49427 11.3962 5.3841 11H3.99962C4.52339 11.6973 5.22524 12.2532 6.03764 12.6002C5.94286 12.4388 5.85595 12.2696 5.77704 12.0959ZM9.31257 11.6821C9.40729 11.4738 9.49447 11.2455 9.57264 11H6.42733C6.50551 11.2455 6.59269 11.4738 6.6874 11.6821C7.12456 12.6439 7.62627 13 7.99999 13C8.3737 13 8.87542 12.6439 9.31257 11.6821ZM12.0004 11H10.6159C10.5057 11.3962 10.3738 11.764 10.2229 12.0959C10.144 12.2696 10.0571 12.4388 9.96233 12.6002C10.7747 12.2532 11.4766 11.6973 12.0004 11ZM10.837 9.99996H12.5839C12.8515 9.3875 13 8.71106 13 7.99996C13 7.28885 12.8515 6.61242 12.5839 5.99996H10.837C10.943 6.62746 11 7.30141 11 7.99996C11 8.6985 10.943 9.37246 10.837 9.99996ZM12.0004 4.99996C11.4766 4.30264 10.7747 3.74673 9.96233 3.39973C10.0571 3.56112 10.144 3.73036 10.2229 3.90397C10.3738 4.23596 10.5057 4.60375 10.6159 4.99996H12.0004Z" fill="#006CBF"/>
<path fill-rule="evenodd" clip-rule="evenodd" d="M1.99994 0.758387C2.73996 0.26392 3.60999 0 4.5 0C5.69348 0 6.83807 0.474106 7.68198 1.31802C8.5259 2.16193 9 3.30653 9 4.5C9 5.39002 8.73608 6.26004 8.24162 7.00007C7.74715 7.74009 7.04434 8.31686 6.22208 8.65746C5.39981 8.99805 4.49501 9.08717 3.6221 8.91353C2.74918 8.7399 1.94736 8.31132 1.31802 7.68198C0.688685 7.05264 0.260102 6.25082 0.0864683 5.37791C-0.0871652 4.50499 0.00194976 3.60019 0.342544 2.77792C0.683138 1.95566 1.25991 1.25285 1.99994 0.758387ZM6.713 4.937L3.743 6.587C3.66689 6.62932 3.58104 6.65103 3.49396 6.64998C3.40688 6.64893 3.32158 6.62515 3.24652 6.581C3.17145 6.53685 3.10922 6.47386 3.06598 6.39826C3.02274 6.32266 3 6.23708 3 6.15V2.85C3 2.76291 3.02274 2.67733 3.06598 2.60173C3.10922 2.52614 3.17145 2.46315 3.24652 2.41899C3.32158 2.37484 3.40688 2.35106 3.49396 2.35001C3.58104 2.34896 3.66689 2.37067 3.743 2.413L6.713 4.063C6.79091 4.10631 6.85582 4.16967 6.90101 4.2465C6.94621 4.32334 6.97004 4.41086 6.97004 4.5C6.97004 4.58914 6.94621 4.67666 6.90101 4.75349C6.85582 4.83033 6.79091 4.89368 6.713 4.937Z" fill="#11910D"/>
</svg>
