<svg width="16" height="16" viewBox="0 0 16 16" fill="none" xmlns="http://www.w3.org/2000/svg">
<path fill-rule="evenodd" clip-rule="evenodd" d="M9.40032 6.99994H9.4995V6.79557C9.75475 6.24059 9.9203 5.63582 9.97759 4.99984C9.98505 4.99995 9.99252 5 10 5C10.8284 5 11.5 4.32843 11.5 3.5C11.5 2.67157 10.8284 2 10 2C9.80651 2 9.62157 2.03664 9.45176 2.10335C9.30407 1.79879 9.12912 1.5099 8.93007 1.23987C9.25442 1.08605 9.61716 1 10 1C11.3807 1 12.5 2.11929 12.5 3.5C12.5 4.70966 11.6409 5.71865 10.4995 5.95009V6.99994H12.6337C13.3884 6.99994 14.0002 7.61178 14.0002 8.36653V10.0501C15.1412 10.2818 16 11.2906 16 12.5C16 13.8807 14.8807 15 13.5 15C12.1193 15 11 13.8807 11 12.5C11 11.2904 11.859 10.2815 13.0002 10.05V8.36653C13.0002 8.16407 12.8361 7.99994 12.6337 7.99994H8.74289C8.99651 7.69283 9.21743 7.35772 9.40032 6.99994ZM15 12.5C15 11.6716 14.3284 11 13.5 11C12.6716 11 12 11.6716 12 12.5C12 13.3284 12.6716 14 13.5 14C14.3284 14 15 13.3284 15 12.5Z" fill="#202020"/>
<path fill-rule="evenodd" clip-rule="evenodd" d="M6.00024 9.7929V10.05C4.859 10.2815 4 11.2904 4 12.5C4 13.8807 5.11929 15 6.5 15C7.88071 15 9 13.8807 9 12.5C9 11.2906 8.14124 10.2818 7.00024 10.0501V9.40017C6.68345 9.56213 6.34889 9.69427 6.00024 9.7929ZM6.5 11C5.67157 11 5 11.6716 5 12.5C5 13.3284 5.67157 14 6.5 14C7.32843 14 8 13.3284 8 12.5C8 11.6716 7.32843 11 6.5 11Z" fill="#202020"/>
<path fill-rule="evenodd" clip-rule="evenodd" d="M1.99994 0.758387C2.73996 0.26392 3.60999 0 4.5 0C5.69348 0 6.83807 0.474106 7.68198 1.31802C8.5259 2.16193 9 3.30653 9 4.5C9 5.39002 8.73608 6.26004 8.24162 7.00007C7.74715 7.74009 7.04434 8.31686 6.22208 8.65746C5.39981 8.99805 4.49501 9.08717 3.6221 8.91353C2.74918 8.7399 1.94736 8.31132 1.31802 7.68198C0.688685 7.05264 0.260102 6.25082 0.0864683 5.37791C-0.0871652 4.50499 0.00194976 3.60019 0.342544 2.77792C0.683138 1.95566 1.25991 1.25285 1.99994 0.758387ZM6.713 4.937L3.743 6.587C3.66689 6.62932 3.58104 6.65103 3.49396 6.64998C3.40688 6.64893 3.32158 6.62515 3.24652 6.581C3.17145 6.53685 3.10922 6.47386 3.06598 6.39826C3.02274 6.32266 3 6.23708 3 6.15V2.85C3 2.76291 3.02274 2.67733 3.06598 2.60173C3.10922 2.52614 3.17145 2.46315 3.24652 2.41899C3.32158 2.37484 3.40688 2.35106 3.49396 2.35001C3.58104 2.34896 3.66689 2.37067 3.743 2.413L6.713 4.063C6.79091 4.10631 6.85582 4.16967 6.90101 4.2465C6.94621 4.32334 6.97004 4.41086 6.97004 4.5C6.97004 4.58914 6.94621 4.67666 6.90101 4.75349C6.85582 4.83033 6.79091 4.89368 6.713 4.937Z" fill="#11910D"/>
</svg>
