<svg width="16" height="16" viewBox="0 0 16 16" fill="none" xmlns="http://www.w3.org/2000/svg">
<path d="M5.34094 9.93612C5.06677 9.97818 4.78594 10 4.5 10C4.39771 10 4.29607 9.99721 4.19516 9.99169L4.191 10L5.093 10.432L5.34094 9.93612Z" fill="#202020"/>
<path d="M8.07367 8.68091C8.10837 8.80621 8.15503 8.92806 8.213 9.044L8.92 10.458L9.809 10L9.107 8.597C9.036 8.454 9 8.301 9 8.142V7.66308C8.73462 8.03993 8.42311 8.38194 8.07367 8.68091Z" fill="#202020"/>
<path d="M9.79297 3H12V6.14C12 6.45 12.07 6.77 12.21 7.04L12.92 8.46L13.81 8L13.11 6.6C13.04 6.45 13 6.3 13 6.14V3H13.5C13.78 3 14 2.78 14 2.5C14 2.22 13.78 2 13.5 2L9.40029 2C9.56223 2.31679 9.69436 2.65136 9.79297 3Z" fill="#202020"/>
<path d="M13.69 12C14.41 12 15 11.41 15 10.69C15 10.49 14.95 10.29 14.86 10.1L13.81 8H10V8.14L10.43 9H13.19L13.97 10.55C13.99 10.6 14 10.64 14 10.69C14 10.86 13.86 11 13.69 11H11.43L11.76 11.66C11.81 11.77 11.86 11.88 11.89 12H13.69Z" fill="#159195"/>
<path fill-rule="evenodd" clip-rule="evenodd" d="M11 12.691C11 12.489 10.952 12.286 10.862 12.105L9.809 10H4.191L3.138 12.105C3.048 12.286 3 12.489 3 12.691C3 13.413 3.587 14 4.309 14H9.691C10.413 14 11 13.413 11 12.691ZM9.967 12.552C9.988 12.595 10 12.643 10 12.691C10 12.861 9.861 13 9.691 13H4.309C4.139 13 4 12.861 4 12.691C4 12.643 4.011 12.595 4.033 12.552L4.809 10.999H9.191L9.967 12.552Z" fill="#159195"/>
<path fill-rule="evenodd" clip-rule="evenodd" d="M1.99994 0.758387C2.73996 0.26392 3.60999 0 4.5 0C5.69348 0 6.83807 0.474106 7.68198 1.31802C8.5259 2.16193 9 3.30653 9 4.5C9 5.39002 8.73608 6.26004 8.24162 7.00007C7.74715 7.74009 7.04434 8.31686 6.22208 8.65746C5.39981 8.99805 4.49501 9.08717 3.6221 8.91353C2.74918 8.7399 1.94736 8.31132 1.31802 7.68198C0.688685 7.05264 0.260102 6.25082 0.0864683 5.37791C-0.0871652 4.50499 0.00194976 3.60019 0.342544 2.77792C0.683138 1.95566 1.25991 1.25285 1.99994 0.758387ZM6.713 4.937L3.743 6.587C3.66689 6.62932 3.58104 6.65103 3.49396 6.64998C3.40688 6.64893 3.32158 6.62515 3.24652 6.581C3.17145 6.53685 3.10922 6.47386 3.06598 6.39826C3.02274 6.32266 3 6.23708 3 6.15V2.85C3 2.76291 3.02274 2.67733 3.06598 2.60173C3.10922 2.52614 3.17145 2.46315 3.24652 2.41899C3.32158 2.37484 3.40688 2.35106 3.49396 2.35001C3.58104 2.34896 3.66689 2.37067 3.743 2.413L6.713 4.063C6.79091 4.10631 6.85582 4.16967 6.90101 4.2465C6.94621 4.32334 6.97004 4.41086 6.97004 4.5C6.97004 4.58914 6.94621 4.67666 6.90101 4.75349C6.85582 4.83033 6.79091 4.89368 6.713 4.937Z" fill="#11910D"/>
</svg>
