<svg width="16" height="16" viewBox="0 0 16 16" fill="none" xmlns="http://www.w3.org/2000/svg">
<path d="M9.79297 3H10.382C10.5714 3 10.7445 3.107 10.8292 3.27639L11.5528 4.72361C11.6375 4.893 11.8106 5 12 5H13C13.5523 5 14 5.44772 14 6V11C14 11.5523 13.5523 12 13 12H5C4.44772 12 4 11.5523 4 11V9.97758C3.65659 9.94663 3.32228 9.88412 3 9.79297L3 11C3 12.1046 3.89543 13 5 13H13C14.1046 13 15 12.1046 15 11V6C15 4.89543 14.1046 4 13 4H12.309L11.7236 2.82918C11.4695 2.321 10.9501 2 10.382 2L9.40029 2C9.56223 2.31679 9.69436 2.65136 9.79297 3Z" fill="#202020"/>
<path d="M6.48229 9.63194C7.01712 10.4554 7.94496 11 9 11C10.6569 11 12 9.65685 12 8C12 6.6793 11.1466 5.55793 9.96113 5.15727C9.92067 5.49708 9.84922 5.82737 9.7497 6.14526C10.4828 6.44188 11 7.16054 11 8C11 9.10457 10.1046 10 9 10C8.33781 10 7.75078 9.67818 7.38679 9.1824C7.10155 9.35863 6.799 9.50952 6.48229 9.63194Z" fill="#159195"/>
<path fill-rule="evenodd" clip-rule="evenodd" d="M1.99994 0.758387C2.73996 0.26392 3.60999 0 4.5 0C5.69348 0 6.83807 0.474106 7.68198 1.31802C8.5259 2.16193 9 3.30653 9 4.5C9 5.39002 8.73608 6.26004 8.24162 7.00007C7.74715 7.74009 7.04434 8.31686 6.22208 8.65746C5.39981 8.99805 4.49501 9.08717 3.6221 8.91353C2.74918 8.7399 1.94736 8.31132 1.31802 7.68198C0.688685 7.05264 0.260102 6.25082 0.0864683 5.37791C-0.0871652 4.50499 0.00194976 3.60019 0.342544 2.77792C0.683138 1.95566 1.25991 1.25285 1.99994 0.758387ZM6.713 4.937L3.743 6.587C3.66689 6.62932 3.58104 6.65103 3.49396 6.64998C3.40688 6.64893 3.32158 6.62515 3.24652 6.581C3.17145 6.53685 3.10922 6.47386 3.06598 6.39826C3.02274 6.32266 3 6.23708 3 6.15V2.85C3 2.76291 3.02274 2.67733 3.06598 2.60173C3.10922 2.52614 3.17145 2.46315 3.24652 2.41899C3.32158 2.37484 3.40688 2.35106 3.49396 2.35001C3.58104 2.34896 3.66689 2.37067 3.743 2.413L6.713 4.063C6.79091 4.10631 6.85582 4.16967 6.90101 4.2465C6.94621 4.32334 6.97004 4.41086 6.97004 4.5C6.97004 4.58914 6.94621 4.67666 6.90101 4.75349C6.85582 4.83033 6.79091 4.89368 6.713 4.937Z" fill="#11910D"/>
</svg>
