<svg width="16" height="16" viewBox="0 0 16 16" fill="none" xmlns="http://www.w3.org/2000/svg">
<path fill-rule="evenodd" clip-rule="evenodd" d="M8 1.5V3.051C9.692 3.296 11 4.742 11 6.5C11 8.258 9.692 9.704 8 9.949V11.5C8 11.776 7.776 12 7.5 12C7.224 12 7 11.776 7 11.5V9.949C5.308 9.704 4 8.258 4 6.5C4 4.742 5.308 3.296 7 3.051V1.5C7 1.224 7.224 1 7.5 1C7.776 1 8 1.224 8 1.5ZM5 6.5C5 7.879 6.122 9 7.5 9C8.878 9 10 7.879 10 6.5C10 5.121 8.878 4 7.5 4C6.122 4 5 5.121 5 6.5Z" fill="#202020"/>
<path d="M1 13C1 14.103 1.897 15 3 15H12C13.103 15 14 14.103 14 13V9.5C14 9.224 13.776 9 13.5 9C13.224 9 13 9.224 13 9.5V13C13 13.552 12.551 14 12 14H3C2.449 14 2 13.552 2 13V9.5C2 9.224 1.776 9 1.5 9C1.224 9 1 9.224 1 9.5V13Z" fill="#202020"/>
</svg>
