<svg width="16" height="16" viewBox="0 0 16 16" fill="none" xmlns="http://www.w3.org/2000/svg">
<path d="M8 2C4.686 2 2 4.686 2 8C2 11.314 4.686 14 8 14C11.314 14 14 11.314 14 8C14 4.686 11.314 2 8 2ZM10.854 7.854C10.659 8.049 10.342 8.049 10.147 7.854L8.501 6.208V11.001C8.501 11.277 8.277 11.501 8.001 11.501C7.725 11.501 7.501 11.277 7.501 11.001V6.208L5.855 7.854C5.66 8.049 5.343 8.049 5.148 7.854C4.953 7.659 4.953 7.342 5.148 7.147L7.65 4.645C7.697 4.598 7.752 4.563 7.81 4.539C7.869 4.515 7.934 4.501 8.001 4.501C8.138 4.501 8.262 4.556 8.352 4.645L10.854 7.147C11.049 7.342 11.049 7.659 10.854 7.854Z" fill="#202020"/>
</svg>
