<svg width="16" height="16" viewBox="0 0 16 16" fill="none" xmlns="http://www.w3.org/2000/svg">
<g clip-path="url(#clip0_7204_97261)">
<path d="M15.77 4.51498H15.73C14.9257 4.48327 14.132 4.70648 13.4621 5.15276C12.7923 5.59903 12.2805 6.24554 12 6.99998C12 4.49998 13 1.49998 15.776 0.143977C15.846 0.108977 15.808 0.000976562 15.731 0.000976562C12.455 0.0279766 11.409 0.450977 10.131 1.40898C8 2.99998 8 5.49998 7 5.49998C5.5 5.49998 6 3.49998 7 2.49998C5.96723 2.94686 5.03589 3.5987 4.2624 4.41602C3.4889 5.23335 2.88933 6.19916 2.5 7.25498C2.8799 7.13383 3.27312 7.05928 3.671 7.03298C4.03214 6.28274 4.51273 5.59614 5.094 4.99998C5.11954 5.13288 5.1584 5.26287 5.21 5.38798C5.35677 5.73566 5.60772 6.02929 5.92829 6.22843C6.24886 6.42758 6.62328 6.52245 7 6.49998C8.1 6.49998 8.552 5.52798 8.954 4.66998C9.32555 3.71273 9.9351 2.86605 10.725 2.20998C11.3478 1.70568 12.0869 1.36533 12.875 1.21998C11.6093 2.87653 10.9478 4.91589 11 6.99998C11 7.23744 11.0846 7.46714 11.2385 7.64798C11.3924 7.82881 11.6056 7.94898 11.84 7.98698C11.8929 7.99568 11.9464 8.00003 12 7.99998C12.2098 7.99982 12.4142 7.93368 12.5844 7.81093C12.7545 7.68817 12.8817 7.51502 12.948 7.31598C13.0857 6.91259 13.3271 6.55253 13.648 6.27198C13.2118 7.43145 12.9921 8.66117 13 9.89998C13.0228 10.9208 12.7336 11.9242 12.1711 12.7763C11.6086 13.6285 10.7996 14.2887 9.852 14.669C9.25835 14.8852 8.63179 14.9972 8 15H7.976C7.71309 15.3454 7.40692 15.6556 7.065 15.923C7.37418 15.973 7.6868 15.9987 8 16C8.7466 15.9971 9.48712 15.8655 10.189 15.611C11.3309 15.1638 12.3084 14.3774 12.9898 13.3577C13.6712 12.3381 14.0237 11.1341 14 9.90798C13.9409 8.95319 14.0726 7.99619 14.3875 7.09289C14.7024 6.18959 15.1941 5.35809 15.834 4.64698C15.8452 4.63549 15.8526 4.62084 15.8551 4.60501C15.8577 4.58918 15.8553 4.57295 15.8483 4.55852C15.8413 4.5441 15.83 4.53218 15.816 4.52438C15.802 4.51659 15.7859 4.51331 15.77 4.51498Z" fill="#202020"/>
<path d="M4.5 12H5.5V13H4L3.5 12.5V10H4.5V12ZM8 12C8 12.7911 7.76541 13.5645 7.32588 14.2223C6.88635 14.8801 6.26164 15.3928 5.53074 15.6955C4.79983 15.9983 3.99556 16.0775 3.21964 15.9231C2.44372 15.7688 1.73098 15.3878 1.17157 14.8284C0.612165 14.269 0.231202 13.5563 0.0768607 12.7804C-0.0774802 12.0044 0.00173312 11.2002 0.304484 10.4693C0.607234 9.73836 1.11992 9.11365 1.77772 8.67412C2.43552 8.2346 3.20888 8 4 8C5.06087 8 6.07828 8.42143 6.82843 9.17157C7.57857 9.92172 8 10.9391 8 12ZM7 12C7 11.4067 6.82405 10.8266 6.49441 10.3333C6.16477 9.83994 5.69623 9.45542 5.14805 9.22836C4.59987 9.0013 3.99667 8.94189 3.41473 9.05764C2.83279 9.1734 2.29824 9.45912 1.87868 9.87868C1.45912 10.2982 1.1734 10.8328 1.05765 11.4147C0.94189 11.9967 1.0013 12.5999 1.22836 13.1481C1.45543 13.6962 1.83994 14.1648 2.33329 14.4944C2.82664 14.8241 3.40666 15 4 15C4.79565 15 5.55871 14.6839 6.12132 14.1213C6.68393 13.5587 7 12.7956 7 12Z" fill="#202020"/>
</g>
<defs>
<clipPath id="clip0_7204_97261">
<rect width="16" height="16" fill="white"/>
</clipPath>
</defs>
</svg>
