<svg width="12" height="12" viewBox="0 0 12 12" fill="none" xmlns="http://www.w3.org/2000/svg">
<path d="M6 1C3.239 1 1 3.239 1 6C1 8.761 3.239 11 6 11C8.761 11 11 8.761 11 6C11 3.239 8.761 1 6 1ZM7.854 7.146C8.049 7.341 8.049 7.658 7.854 7.853C7.659 8.048 7.342 8.048 7.147 7.853L6.001 6.707L4.855 7.853C4.66 8.048 4.343 8.048 4.148 7.853C3.953 7.658 3.953 7.341 4.148 7.146L5.294 6L4.148 4.854C3.953 4.659 3.953 4.342 4.148 4.147C4.343 3.952 4.66 3.952 4.855 4.147L6.001 5.293L7.147 4.147C7.342 3.952 7.659 3.952 7.854 4.147C8.049 4.342 8.049 4.659 7.854 4.854L6.708 6L7.854 7.146Z" fill="#C50F1F"/>
</svg>
