<svg width="16" height="16" viewBox="0 0 16 16" fill="none" xmlns="http://www.w3.org/2000/svg">
<g clip-path="url(#clip0_7204_97358)">
<path d="M9.50024 1H6.50024C5.67324 1 5.00024 1.673 5.00024 2.5V5.5C5.00024 6.154 5.42324 6.706 6.00824 6.91C6.01524 6.545 6.06424 6.193 6.14524 5.851C6.05524 5.761 6.00024 5.637 6.00024 5.5V2.5C6.00024 2.225 6.22424 2 6.50024 2H9.50024C9.63724 2 9.76224 2.056 9.85224 2.146C10.1942 2.065 10.5462 2.016 10.9112 2.009C10.7062 1.424 10.1552 1 9.50024 1Z" fill="#202020"/>
<path d="M14.5002 1H13.5002C12.8062 1 12.2262 1.476 12.0562 2.117C12.3892 2.189 12.7092 2.296 13.0142 2.431C13.0492 2.189 13.2492 1.999 13.5002 1.999H14.5002C14.7762 1.999 15.0002 2.224 15.0002 2.499V4.03C15.6202 4.863 16.0002 5.883 16.0002 6.999V2.5C16.0002 1.673 15.3272 1 14.5002 1Z" fill="#202020"/>
<path fill-rule="evenodd" clip-rule="evenodd" d="M6.99925 7C6.99925 4.791 8.79025 3 10.9992 3C13.2083 3 14.9983 4.791 14.9983 7C14.9983 9.209 13.2073 11 10.9983 11C10.0743 11 9.22325 10.686 8.54625 10.16L5.85325 12.853C5.65825 13.048 5.34125 13.048 5.14625 12.853C4.95125 12.658 4.95125 12.341 5.14625 12.146L7.83925 9.453C7.31325 8.776 6.99925 7.925 6.99925 7ZM7.99925 7C7.99925 8.657 9.34225 10 10.9992 10C12.6562 10 13.9992 8.657 13.9992 7C13.9992 5.343 12.6562 4 10.9992 4C9.34225 4 7.99925 5.343 7.99925 7Z" fill="#202020"/>
</g>
<defs>
<clipPath id="clip0_7204_97358">
<rect width="16" height="16" fill="white"/>
</clipPath>
</defs>
</svg>
