<svg width="16" height="16" viewBox="0 0 16 16" fill="none" xmlns="http://www.w3.org/2000/svg">
<path d="M0.192 8.46298C0.131 8.48798 0.066 8.50098 0 8.50098V7.29298L1.293 6.00098H0V5.00098H1.293L0 3.70898V2.50098C0.066 2.50098 0.131 2.51398 0.192 2.53898C0.253 2.56398 0.308 2.60098 0.354 2.64798L2.854 5.14798C2.901 5.19398 2.937 5.24998 2.963 5.30998C2.989 5.36998 3.001 5.43598 3.001 5.50198C3.001 5.56798 2.988 5.63298 2.963 5.69398C2.938 5.75498 2.901 5.80998 2.854 5.85598L0.354 8.35398C0.307 8.39998 0.252 8.43698 0.192 8.46298ZM14.707 9.99998L16 8.70798V7.49998C15.867 7.49998 15.74 7.55298 15.646 7.64698L13.146 10.147C13.099 10.193 13.063 10.249 13.037 10.309C13.012 10.37 12.999 10.435 12.999 10.501C12.999 10.567 13.012 10.632 13.037 10.693C13.062 10.754 13.099 10.809 13.146 10.855L15.646 13.355C15.693 13.402 15.748 13.438 15.808 13.463C15.869 13.488 15.934 13.501 16 13.501V12.293L14.707 11.001H16V10.001H14.707V9.99998Z" fill="#202020"/>
</svg>
