<svg width="16" height="16" viewBox="0 0 16 16" fill="none" xmlns="http://www.w3.org/2000/svg">
<path d="M8 1C4.134 1 1 4.134 1 8C1 11.866 4.134 15 8 15C11.866 15 15 11.866 15 8C15 4.134 11.866 1 8 1ZM7.5 5L7.508 4.91C7.55 4.677 7.754 4.5 8 4.5C8.246 4.5 8.45 4.677 8.492 4.91L8.5 5V8.5L8.492 8.59C8.45 8.823 8.246 9 8 9C7.754 9 7.55 8.823 7.508 8.59L7.5 8.5V5ZM8 11.5C7.586 11.5 7.25 11.164 7.25 10.75C7.25 10.336 7.586 10 8 10C8.414 10 8.75 10.336 8.75 10.75C8.75 11.164 8.414 11.5 8 11.5Z" fill="#C50F1F"/>
</svg>
