<svg width="16" height="16" viewBox="0 0 16 16" fill="none" xmlns="http://www.w3.org/2000/svg">
<path d="M12.5 15H3.5C2.121 15 1 13.879 1 12.5V7.5C1 7.224 1.224 7 1.5 7C1.776 7 2 7.224 2 7.5V12.5C2 13.327 2.673 14 3.5 14H12.5C13.327 14 14 13.327 14 12.5V7.5C14 7.224 14.224 7 14.5 7C14.776 7 15 7.224 15 7.5V12.5C15 13.879 13.879 15 12.5 15ZM3.5 8C3.224 8 3 8.224 3 8.5C3 8.776 3.224 9 3.5 9C3.776 9 4 8.776 4 8.5C4 8.224 3.776 8 3.5 8ZM5.5 10C5.224 10 5 10.224 5 10.5C5 10.776 5.224 11 5.5 11C5.776 11 6 10.776 6 10.5C6 10.224 5.776 10 5.5 10ZM7.5 9C7.224 9 7 9.224 7 9.5C7 9.776 7.224 10 7.5 10C7.776 10 8 9.776 8 9.5C8 9.224 7.776 9 7.5 9ZM12.5 10C12.224 10 12 10.224 12 10.5C12 10.776 12.224 11 12.5 11C12.776 11 13 10.776 13 10.5C13 10.224 12.776 10 12.5 10ZM10.5 9C10.224 9 10 9.224 10 9.5C10 9.776 10.224 10 10.5 10C10.776 10 11 9.776 11 9.5C11 9.224 10.776 9 10.5 9ZM7.5 6C7.224 6 7 6.224 7 6.5C7 6.776 7.224 7 7.5 7C7.776 7 8 6.776 8 6.5C8 6.224 7.776 6 7.5 6ZM11.5 6C11.224 6 11 6.224 11 6.5C11 6.776 11.224 7 11.5 7C11.776 7 12 6.776 12 6.5C12 6.224 11.776 6 11.5 6ZM6.75 12H5.25C5.11 12 5 12.12 5 12.25C5 12.28 5.18 13 5.96 13H6.04C6.82 13 7 12.28 7 12.25C7 12.12 6.89 12 6.75 12ZM10.75 12H9.25C9.11 12 9 12.12 9 12.25C9 12.28 9.18 13 9.96 13H10.04C10.82 13 11 12.28 11 12.25C11 12.12 10.89 12 10.75 12Z" fill="#202020"/>
</svg>
