<svg width="13" height="13" viewBox="0 0 13 13" fill="none" xmlns="http://www.w3.org/2000/svg">
<path d="M6.5 1C3.467 1 1 3.467 1 6.5C1 9.533 3.467 12 6.5 12C9.533 12 12 9.533 12 6.5C12 3.467 9.533 1 6.5 1ZM6.5 10.25C6.086 10.25 5.75 9.914 5.75 9.5C5.75 9.086 6.086 8.75 6.5 8.75C6.914 8.75 7.25 9.086 7.25 9.5C7.25 9.914 6.914 10.25 6.5 10.25ZM7.602 6.753C7.147 7.032 7 7.151 7 7.5C7 7.776 6.776 8 6.5 8C6.224 8 6 7.776 6 7.5C6 6.563 6.624 6.18 7.079 5.901C7.532 5.623 7.75 5.468 7.75 5C7.745 4.77 7.64 4 6.5 4C5.36 4 5.255 4.77 5.25 5.005C5.244 5.277 5.021 5.497 4.75 5.497H4.745C4.471 5.494 4.25 5.274 4.25 5C4.25 4.444 4.654 3 6.5 3C8.346 3 8.75 4.444 8.75 5C8.75 6.05 8.086 6.457 7.602 6.753Z" fill="#006CBF"/>
</svg>
