<svg width="12" height="12" viewBox="0 0 12 12" fill="none" xmlns="http://www.w3.org/2000/svg">
<path fill-rule="evenodd" clip-rule="evenodd" d="M10.581 4.98701L7.01301 1.41901C6.45401 0.860006 5.54701 0.860006 4.98801 1.41901L1.42001 4.98701C0.861013 5.54601 0.861013 6.45301 1.42001 7.01201L4.98801 10.58C5.54701 11.139 6.45401 11.139 7.01301 10.58L10.581 7.01201C11.14 6.45301 11.14 5.54601 10.581 4.98701ZM5.50001 3.50001L5.50801 3.41001C5.55001 3.17701 5.75401 3.00001 6.00001 3.00001C6.24601 3.00001 6.45001 3.17701 6.49201 3.41001L6.50001 3.50001V6.00001L6.49201 6.09001C6.45001 6.32301 6.24601 6.50001 6.00001 6.50001C5.75401 6.50001 5.55001 6.32301 5.50801 6.09001L5.50001 6.00001V3.50001ZM6.00001 9.00001C5.58601 9.00001 5.25001 8.66401 5.25001 8.25001C5.25001 7.83601 5.58601 7.50001 6.00001 7.50001C6.41401 7.50001 6.75001 7.83601 6.75001 8.25001C6.75001 8.66401 6.41401 9.00001 6.00001 9.00001Z" fill="#006CBF"/>
</svg>
