<svg width="16" height="16" viewBox="0 0 16 16" fill="none" xmlns="http://www.w3.org/2000/svg">
<path d="M9 10H7C6.449 10 6 9.552 6 9V7C6 6.448 6.449 6 7 6H9C9.551 6 10 6.448 10 7V9C10 9.552 9.551 10 9 10ZM7 7V9H9V7H7ZM14 13H12C11.449 13 11 12.552 11 12V10C11 9.448 11.449 9 12 9H14C14.551 9 15 9.448 15 10V12C15 12.552 14.551 13 14 13ZM12 10V12H14V10H12ZM10 12C10 12.552 9.551 13 9 13H8V14H9C9.597 14 10.133 13.737 10.5 13.321C10.189 12.968 10 12.506 10 12ZM3 10.269V4C3 3.448 3.449 3 4 3H7.586C7.717 3 7.846 3.054 7.94 3.146L9.854 5.06C9.908 5.114 9.949 5.181 9.973 5.253C10.585 5.595 11 6.25 11 7V5.414C11 5.019 10.84 4.633 10.561 4.353L8.647 2.439C8.364 2.156 7.987 2 7.586 2H4C2.897 2 2 2.897 2 4V12C2 11.261 2.403 10.615 3 10.269ZM6 15H4C3.449 15 3 14.552 3 14V12C3 11.448 3.449 11 4 11H6C6.551 11 7 11.448 7 12V14C7 14.552 6.551 15 6 15ZM4 12V14H6V12H4Z" fill="#202020"/>
</svg>
