<svg width="18" height="18" viewBox="0 0 18 18" fill="none" xmlns="http://www.w3.org/2000/svg">
<path d="M9 2C5.139 2 2 5.139 2 9C2 12.861 5.139 16 9 16C12.861 16 16 12.861 16 9C16 5.139 12.861 2 9 2ZM9 13.5C8.586 13.5 8.25 13.164 8.25 12.75C8.25 12.336 8.586 12 9 12C9.414 12 9.75 12.336 9.75 12.75C9.75 13.164 9.414 13.5 9 13.5ZM10.337 9.464C9.772 9.801 9.5 9.985 9.5 10.5C9.5 10.776 9.276 11 9 11C8.724 11 8.5 10.776 8.5 10.5C8.5 9.395 9.266 8.938 9.824 8.605C10.432 8.242 10.75 8.023 10.75 7.375C10.746 7.149 10.642 6 9 6C7.299 6 7.25 7.234 7.25 7.375C7.25 7.651 7.026 7.875 6.75 7.875C6.474 7.875 6.25 7.651 6.25 7.375C6.25 6.554 6.825 5 9 5C11.175 5 11.75 6.554 11.75 7.375C11.75 8.621 10.933 9.108 10.337 9.464Z" fill="#006CBF"/>
</svg>
