<svg width="16" height="16" viewBox="0 0 16 16" fill="none" xmlns="http://www.w3.org/2000/svg">
<path d="M15 2.75V6.25C15 7.215 14.215 8 13.25 8H12V7H13.25C13.663 7 14 6.663 14 6.25V2.75C14 2.337 13.663 2 13.25 2H9.75C9.337 2 9 2.337 9 2.75V4H8V2.75C8 1.785 8.785 1 9.75 1H13.25C14.215 1 15 1.785 15 2.75ZM9.25 5H5.75C4.785 5 4 5.785 4 6.75V8H5V6.75C5 6.337 5.337 6 5.75 6H9.25C9.663 6 10 6.337 10 6.75V10.25C10 10.663 9.663 11 9.25 11H8V12H9.25C10.215 12 11 11.215 11 10.25V6.75C11 5.785 10.215 5 9.25 5ZM7 14.25V10.75C7 9.785 6.215 9 5.25 9H1.75C0.785 9 0 9.785 0 10.75V14.25C0 15.215 0.785 16 1.75 16H5.25C6.215 16 7 15.215 7 14.25ZM5.25 10C5.663 10 6 10.337 6 10.75V14.25C6 14.663 5.663 15 5.25 15H1.75C1.337 15 1 14.663 1 14.25V10.75C1 10.337 1.337 10 1.75 10H5.25Z" fill="#202020"/>
</svg>
