<svg width="12" height="12" viewBox="0 0 12 12" fill="none" xmlns="http://www.w3.org/2000/svg">
<path d="M10.878 8.628L6.786 1.459C6.437 0.847 5.562 0.847 5.213 1.459L1.122 8.628C0.773999 9.238 1.21 10 1.908 10H10.091C10.789 10 11.226 9.238 10.877 8.628H10.878ZM5.5 4.5C5.5 4.224 5.724 4 6 4C6.276 4 6.5 4.224 6.5 4.5V5.5C6.5 5.776 6.276 6 6 6C5.724 6 5.5 5.776 5.5 5.5V4.5ZM6 8.25C5.586 8.25 5.25 7.914 5.25 7.5C5.25 7.086 5.586 6.75 6 6.75C6.414 6.75 6.75 7.086 6.75 7.5C6.75 7.914 6.414 8.25 6 8.25Z" fill="#B27C00"/>
</svg>
