<svg width="16" height="16" viewBox="0 0 16 16" fill="none" xmlns="http://www.w3.org/2000/svg">
<path d="M8 1C11.6032 1 14.5683 3.7226 14.9551 7.22266C14.0106 6.45882 12.8093 6 11.5 6C11.2368 6 10.978 6.01894 10.7246 6.05469C10.5371 5.96007 10.3031 5.98987 10.1465 6.14648L10.1182 6.17383C8.72953 6.53307 7.5537 7.4221 6.81836 8.61133L5.85352 7.64648C5.65825 7.45122 5.34175 7.45122 5.14648 7.64648C4.95122 7.84175 4.95122 8.15825 5.14648 8.35352L6.35254 9.55957C6.12494 10.163 6 10.8169 6 11.5C6 12.8093 6.45882 14.0106 7.22266 14.9551C3.7226 14.5683 1 11.6032 1 8C1 4.13401 4.13401 1 8 1Z" fill="#11910D"/>
<path fill-rule="evenodd" clip-rule="evenodd" d="M16 11.5C16 13.9853 13.9853 16 11.5 16C9.01472 16 7 13.9853 7 11.5C7 9.01472 9.01472 7 11.5 7C13.9853 7 16 9.01472 16 11.5ZM11.5 9C11.7761 9 12 9.22386 12 9.5V11H13.5C13.7761 11 14 11.2239 14 11.5C14 11.7761 13.7761 12 13.5 12H12V13.5C12 13.7761 11.7761 14 11.5 14C11.2239 14 11 13.7761 11 13.5V12H9.5C9.22386 12 9 11.7761 9 11.5C9 11.2239 9.22386 11 9.5 11H11V9.5C11 9.22386 11.2239 9 11.5 9Z" fill="#11910D"/>
</svg>
