<svg width="16" height="16" viewBox="0 0 16 16" fill="none" xmlns="http://www.w3.org/2000/svg">
<path d="M4.169 14H4C2.897 14 2 13.103 2 12V4C2 2.897 2.897 2 4 2H7.586C7.986 2 8.363 2.156 8.647 2.439L10.561 4.353C10.84 4.632 11 5.019 11 5.414V6H10.75C10.482 6 10.227 6.061 10 6.169V5.414C10 5.282 9.947 5.153 9.854 5.06L7.94 3.146C7.847 3.053 7.718 3 7.586 3H4C3.449 3 3 3.448 3 4V12C3 12.552 3.449 13 4 13V13.25C4 13.518 4.061 13.773 4.169 14ZM10.75 11C10.482 11 10.227 10.939 10 10.831V12C10 12.552 9.551 13 9 13V13.25C9 13.518 8.939 13.773 8.831 14H9C10.103 14 11 13.103 11 12V11H10.75ZM9 8.25V6.75C9 6.337 8.664 6 8.25 6H6.75C6.336 6 6 6.337 6 6.75V8.25C6 8.663 6.336 9 6.75 9H8.25C8.664 9 9 8.663 9 8.25ZM7 7H8V8H7V7ZM8 13.25V11.75C8 11.337 7.664 11 7.25 11H5.75C5.336 11 5 11.337 5 11.75V13.25C5 13.663 5.336 14 5.75 14H7.25C7.664 14 8 13.663 8 13.25ZM6 12H7V13H6V12ZM13 9.25V7.75C13 7.337 12.664 7 12.25 7H10.75C10.336 7 10 7.337 10 7.75V9.25C10 9.663 10.336 10 10.75 10H12.25C12.664 10 13 9.663 13 9.25ZM11 8H12V9H11V8Z" fill="#202020"/>
</svg>
