<svg width="16" height="16" viewBox="0 0 16 16" fill="none" xmlns="http://www.w3.org/2000/svg">
<g clip-path="url(#clip0_7204_97266)">
<path d="M15.77 4.51498H15.73C14.9298 4.48396 14.1401 4.70514 13.4724 5.14727C12.8047 5.58941 12.2928 6.23015 12.009 6.97898C12.3615 6.98115 12.7127 7.02037 13.057 7.09598C13.1933 6.78299 13.394 6.50222 13.646 6.27198C13.5314 6.57152 13.4339 6.87735 13.354 7.18798C13.6793 7.28023 13.9943 7.40555 14.294 7.56198C14.5326 6.4683 15.065 5.46044 15.834 4.64698C15.8452 4.63549 15.8526 4.62084 15.8551 4.60501C15.8577 4.58918 15.8553 4.57295 15.8483 4.55852C15.8413 4.5441 15.83 4.53218 15.816 4.52438C15.802 4.51659 15.7859 4.51331 15.77 4.51498ZM15.776 0.143977C15.846 0.108977 15.808 0.000976562 15.731 0.000976562C12.455 0.0279766 11.409 0.450977 10.131 1.40898C8 2.99998 8 5.49998 7 5.49998C5.5 5.49998 6 3.49998 7 2.49998C5.53497 3.13879 4.28462 4.18553 3.39807 5.51536C2.51152 6.84518 2.0262 8.40194 2 9.99998C2 11.5913 2.63214 13.1174 3.75736 14.2426C4.88258 15.3678 6.4087 16 8 16C8.32001 15.9964 8.63928 15.9684 8.955 15.916C8.61192 15.6512 8.30438 15.3433 8.04 15C8.027 15 8.013 15 8 15C6.6744 14.9984 5.40356 14.4711 4.46622 13.5338C3.52888 12.5964 3.00159 11.3256 3 9.99998C3.00925 8.12196 3.76219 6.3241 5.094 4.99998C5.11954 5.13288 5.1584 5.26287 5.21 5.38798C5.35677 5.73566 5.60772 6.02929 5.92829 6.22843C6.24886 6.42758 6.62328 6.52245 7 6.49998C8.1 6.49998 8.552 5.52798 8.954 4.66998C9.32555 3.71273 9.9351 2.86605 10.725 2.20998C11.3478 1.70568 12.0869 1.36533 12.875 1.21998C11.6093 2.87653 10.9478 4.91589 11 6.99998C11 7.02698 11.012 7.05098 11.014 7.07798C11.3385 7.01207 11.6688 6.97857 12 6.97798C12.007 4.48298 13.008 1.49998 15.776 0.143977Z" fill="#202020"/>
<path d="M12 7.979C11.2089 7.979 10.4355 8.2136 9.77772 8.65313C9.11993 9.09265 8.60723 9.71737 8.30448 10.4483C8.00173 11.1792 7.92252 11.9834 8.07686 12.7594C8.2312 13.5353 8.61216 14.248 9.17157 14.8074C9.73098 15.3668 10.4437 15.7478 11.2196 15.9021C11.9956 16.0565 12.7998 15.9773 13.5307 15.6745C14.2616 15.3718 14.8864 14.8591 15.3259 14.2013C15.7654 13.5435 16 12.7701 16 11.979C16 10.9181 15.5786 9.90072 14.8284 9.15058C14.0783 8.40043 13.0609 7.979 12 7.979ZM11.843 13.514H11.132L9.792 12.142L10.507 11.442L11.494 12.453L13.5 10.443L14.208 11.15L11.843 13.514Z" fill="#202020"/>
</g>
<defs>
<clipPath id="clip0_7204_97266">
<rect width="16" height="16" fill="white"/>
</clipPath>
</defs>
</svg>
