<svg width="16" height="16" viewBox="0 0 16 16" fill="none" xmlns="http://www.w3.org/2000/svg">
<path d="M15 7.5V12.5C15 13.879 13.878 15 12.5 15H3.5C2.122 15 1 13.879 1 12.5V7.5C1 7.224 1.224 7 1.5 7C1.776 7 2 7.224 2 7.5V12.5C2 13.327 2.673 14 3.5 14H12.5C13.327 14 14 13.327 14 12.5V7.5C14 7.224 14.224 7 14.5 7C14.776 7 15 7.224 15 7.5ZM5.5 3C5.776 3 6 2.776 6 2.5C6 2.224 5.776 2 5.5 2C5.224 2 5 2.224 5 2.5C5 2.776 5.224 3 5.5 3ZM10.5 3C10.776 3 11 2.776 11 2.5C11 2.224 10.776 2 10.5 2C10.224 2 10 2.224 10 2.5C10 2.776 10.224 3 10.5 3ZM12.5 2C12.776 2 13 1.776 13 1.5C13 1.224 12.776 1 12.5 1C12.224 1 12 1.224 12 1.5C12 1.776 12.224 2 12.5 2ZM3.5 1C3.776 1 4 0.776 4 0.5C4 0.224 3.776 0 3.5 0C3.224 0 3 0.224 3 0.5C3 0.776 3.224 1 3.5 1Z" fill="#202020"/>
</svg>
