<svg width="16" height="16" viewBox="0 0 16 16" fill="none" xmlns="http://www.w3.org/2000/svg">
<path d="M11.75 5H9.25C8.561 5 8 5.561 8 6.25V7.38C8.603 7.784 9 8.471 9 9.25V9.975C9.081 9.991 9.164 10 9.25 10H11.75C12.439 10 13 9.439 13 8.75V6.25C13 5.561 12.439 5 11.75 5ZM12 8.75C12 8.888 11.888 9 11.75 9H9.25C9.112 9 9 8.888 9 8.75V6.25C9 6.112 9.112 6 9.25 6H11.75C11.888 6 12 6.112 12 6.25V8.75ZM8 9.25V11.75C8 12.439 7.439 13 6.75 13H6V12.25C6 12.165 5.995 12.082 5.986 12H6.75C6.888 12 7 11.888 7 11.75V9.25C7 9.112 6.888 9 6.75 9H4.25C4.112 9 4 9.112 4 9.25V10.014C3.918 10.005 3.835 10 3.75 10H3V9.25C3 8.561 3.561 8 4.25 8H6.75C7.439 8 8 8.561 8 9.25ZM7.939 3.146L8.832 4.039C8.967 4.013 9.107 4 9.25 4H10.207L8.646 2.439C8.363 2.156 7.986 2 7.585 2H3.999C2.896 2 1.999 2.897 1.999 4V9.25C1.999 8.472 2.397 7.785 2.999 7.381V4C2.999 3.448 3.448 3 3.999 3H7.585C7.716 3 7.845 3.054 7.939 3.146ZM3.75 16H1.25C0.561 16 0 15.439 0 14.75V12.25C0 11.561 0.561 11 1.25 11H3.75C4.439 11 5 11.561 5 12.25V14.75C5 15.439 4.439 16 3.75 16ZM1.25 12C1.112 12 1 12.112 1 12.25V14.75C1 14.888 1.112 15 1.25 15H3.75C3.888 15 4 14.888 4 14.75V12.25C4 12.112 3.888 12 3.75 12H1.25Z" fill="#202020"/>
</svg>
