<svg width="13" height="13" viewBox="0 0 13 13" fill="none" xmlns="http://www.w3.org/2000/svg">
<path d="M6.5 1C3.467 1 1 3.467 1 6.5C1 9.533 3.467 12 6.5 12C9.533 12 12 9.533 12 6.5C12 3.467 9.533 1 6.5 1ZM8.503 7.796C8.698 7.991 8.698 8.308 8.503 8.503C8.405 8.601 8.277 8.649 8.149 8.649C8.021 8.649 7.893 8.6 7.795 8.503L6.499 7.207L5.203 8.503C5.105 8.601 4.977 8.649 4.849 8.649C4.721 8.649 4.593 8.6 4.495 8.503C4.3 8.308 4.3 7.991 4.495 7.796L5.791 6.5L4.495 5.204C4.3 5.009 4.3 4.692 4.495 4.497C4.69 4.302 5.007 4.302 5.202 4.497L6.498 5.793L7.794 4.497C7.989 4.302 8.306 4.302 8.501 4.497C8.696 4.692 8.696 5.009 8.501 5.204L7.205 6.5L8.501 7.796H8.503Z" fill="#C50F1F"/>
</svg>
