<svg width="12" height="12" viewBox="0 0 12 12" fill="none" xmlns="http://www.w3.org/2000/svg">
<path d="M2.08898 2.21604L2.14698 2.14704C2.32098 1.97304 2.58998 1.95404 2.78498 2.08904L2.85398 2.14704L5.99998 5.29404L9.14598 2.14704C9.34098 1.95204 9.65798 1.95204 9.85298 2.14704C10.048 2.34204 10.048 2.65904 9.85298 2.85404L6.70598 6.00004L9.85298 9.14604C10.027 9.32004 10.046 9.58904 9.91098 9.78404L9.85298 9.85304C9.67898 10.027 9.40998 10.046 9.21498 9.91104L9.14598 9.85304L5.99998 6.70604L2.85398 9.85304C2.65898 10.048 2.34198 10.048 2.14698 9.85304C1.95198 9.65804 1.95198 9.34104 2.14698 9.14604L5.29398 6.00004L2.14698 2.85404C1.97298 2.68004 1.95398 2.41104 2.08898 2.21604Z" fill="#C50F1F"/>
</svg>
