<svg width="10" height="10" viewBox="0 0 10 10" fill="none" xmlns="http://www.w3.org/2000/svg">
<path d="M5.70698 5.00001L8.35298 2.35401C8.54798 2.15901 8.54798 1.84201 8.35298 1.64701C8.15798 1.45201 7.84098 1.45201 7.64598 1.64701L4.99998 4.29301L2.35398 1.64601C2.15898 1.45101 1.84198 1.45101 1.64698 1.64601C1.45198 1.84101 1.45198 2.15801 1.64698 2.35301L4.29298 4.99901L1.64698 7.64501C1.45198 7.84001 1.45198 8.15701 1.64698 8.35201C1.74498 8.45001 1.87298 8.49801 2.00098 8.49801C2.12898 8.49801 2.25698 8.44901 2.35498 8.35201L5.00098 5.70601L7.64698 8.35201C7.74498 8.45001 7.87298 8.49801 8.00098 8.49801C8.12898 8.49801 8.25698 8.44901 8.35498 8.35201C8.54998 8.15701 8.54998 7.84001 8.35498 7.64501L5.70898 4.99901L5.70698 5.00001Z" fill="#C50F1F"/>
</svg>
