<svg width="16" height="16" viewBox="0 0 16 16" fill="none" xmlns="http://www.w3.org/2000/svg">
<path d="M5 2.5V5.5C5 6.3 5.63 6.949 6.42 6.992C6.243 6.586 6.119 6.16 6.056 5.718C6.023 5.651 6.001 5.579 6.001 5.5V5.013C6.001 5.013 6.001 5.004 6.001 5C6.001 4.997 6.001 4.995 6.001 4.992V2.5C6.001 2.225 6.225 2 6.501 2H7.026C7.313 1.621 7.65 1.284 8.031 1H6.501C5.674 1 5 1.673 5 2.5ZM14.5 1H13.969C15.194 1.912 16 3.359 16 5V2.5C16 1.673 15.327 1 14.5 1ZM13.969 9H14.5C15.327 9 16 8.327 16 7.5V5C16 6.641 15.194 8.088 13.969 9ZM10.999 1C13.208 1 14.999 2.791 14.999 5C14.999 7.209 13.208 9 10.999 9C10.075 9 9.224 8.687 8.547 8.16L5.854 10.853C5.659 11.048 5.342 11.048 5.147 10.853C4.952 10.658 4.952 10.341 5.147 10.146L7.84 7.453C7.313 6.776 7 5.924 7 5C7 2.791 8.791 1 11 1H10.999ZM13.999 5C13.999 3.343 12.656 2 10.999 2C9.342 2 7.999 3.343 7.999 5C7.999 6.657 9.342 8 10.999 8C12.656 8 13.999 6.657 13.999 5Z" fill="#202020"/>
</svg>
