<svg width="15" height="15" viewBox="0 0 15 15" fill="none" xmlns="http://www.w3.org/2000/svg">
<path d="M8.20698 7.49998L11.603 4.10398C11.798 3.90898 11.798 3.59198 11.603 3.39698C11.408 3.20198 11.091 3.20198 10.896 3.39698L7.49998 6.79298L4.10398 3.39698C3.90898 3.20198 3.59198 3.20198 3.39698 3.39698C3.20198 3.59198 3.20198 3.90898 3.39698 4.10398L6.79298 7.49998L3.39698 10.896C3.20198 11.091 3.20198 11.408 3.39698 11.603C3.49498 11.701 3.62298 11.749 3.75098 11.749C3.87898 11.749 4.00698 11.7 4.10498 11.603L7.50098 8.20698L10.897 11.603C10.995 11.701 11.123 11.749 11.251 11.749C11.379 11.749 11.507 11.7 11.605 11.603C11.8 11.408 11.8 11.091 11.605 10.896L8.20898 7.49998H8.20698Z" fill="#C50F1F"/>
</svg>
