<svg width="16" height="16" viewBox="0 0 16 16" fill="none" xmlns="http://www.w3.org/2000/svg">
<g clip-path="url(#clip0_7204_97121)">
<path d="M10 2.25V6.68112C9.88708 6.80984 9.79062 6.95315 9.71351 7.10787L9 8.53489V2.25C9 2.112 8.888 2 8.75 2H7.25C7.112 2 7 2.112 7 2.25V11H6V2.25C6 1.561 6.561 1 7.25 1H8.75C9.439 1 10 1.561 10 2.25Z" fill="#202020"/>
<path fill-rule="evenodd" clip-rule="evenodd" d="M5 8.25C5 7.561 4.439 7 3.75 7H2.25C1.561 7 1 7.561 1 8.25V13.75C1 14.439 1.561 15 2.25 15H3.75C4.439 15 5 14.439 5 13.75V8.25ZM2 8.25C2 8.112 2.112 8 2.25 8H3.75C3.888 8 4 8.112 4 8.25V13.75C4 13.888 3.888 14 3.75 14H2.25C2.112 14 2 13.888 2 13.75V8.25Z" fill="#202020"/>
<path d="M15 6.25V10.5208L14 8.52085V6.25C14 6.112 13.888 6 13.75 6H12.25C12.1773 6 12.1118 6.03111 12.0661 6.08075C11.8842 6.02744 11.6948 6 11.5035 6C11.3378 6 11.1735 6.0206 11.0143 6.06075C11.1058 5.46115 11.6253 5 12.25 5H13.75C14.439 5 15 5.561 15 6.25Z" fill="#202020"/>
<path fill-rule="evenodd" clip-rule="evenodd" d="M12.3931 7.55201L15.8931 14.552C15.9694 14.7044 16.0056 14.8738 15.9981 15.044C15.9906 15.2143 15.9397 15.3799 15.8502 15.5249C15.7607 15.67 15.6357 15.7898 15.4869 15.8729C15.3381 15.9561 15.1705 15.9998 15.0001 16H8.00006C7.8292 16.0007 7.66101 15.9576 7.51154 15.8748C7.36207 15.792 7.23631 15.6723 7.14625 15.5271C7.0562 15.3818 7.00486 15.216 6.99712 15.0453C6.98938 14.8746 7.02551 14.7048 7.10206 14.552L10.6021 7.55201C10.6849 7.38534 10.8126 7.24509 10.9708 7.14705C11.129 7.04901 11.3114 6.99707 11.4976 6.99707C11.6837 6.99707 11.8661 7.04901 12.0243 7.14705C12.1825 7.24509 12.3102 7.38534 12.3931 7.55201ZM12 12.495V9.495C12 9.36239 11.9473 9.23521 11.8536 9.14144C11.7598 9.04767 11.6326 8.995 11.5 8.995C11.3674 8.995 11.2402 9.04767 11.1464 9.14144C11.0527 9.23521 11 9.36239 11 9.495V12.495C11 12.6276 11.0527 12.7548 11.1464 12.8485C11.2402 12.9423 11.3674 12.995 11.5 12.995C11.6326 12.995 11.7598 12.9423 11.8536 12.8485C11.9473 12.7548 12 12.6276 12 12.495ZM11.2222 14.0843C11.3044 14.0293 11.4011 14 11.5 14C11.6326 14 11.7598 14.0527 11.8536 14.1464C11.9473 14.2402 12 14.3674 12 14.5C12 14.5989 11.9707 14.6956 11.9157 14.7778C11.8608 14.86 11.7827 14.9241 11.6913 14.9619C11.6 14.9998 11.4994 15.0097 11.4025 14.9904C11.3055 14.9711 11.2164 14.9235 11.1464 14.8535C11.0765 14.7836 11.0289 14.6945 11.0096 14.5975C10.9903 14.5006 11.0002 14.4 11.0381 14.3087C11.0759 14.2173 11.14 14.1392 11.2222 14.0843Z" fill="#B27C00"/>
</g>
<defs>
<clipPath id="clip0_7204_97121">
<rect width="16" height="16" fill="white"/>
</clipPath>
</defs>
</svg>
