<svg width="16" height="16" viewBox="0 0 16 16" fill="none" xmlns="http://www.w3.org/2000/svg">
<path d="M12.5 15H3.5C2.121 15 1 13.879 1 12.5V7.5C1 7.224 1.224 7 1.5 7C1.776 7 2 7.224 2 7.5V12.5C2 13.327 2.673 14 3.5 14H12.5C13.327 14 14 13.327 14 12.5V7.5C14 7.224 14.224 7 14.5 7C14.776 7 15 7.224 15 7.5V12.5C15 13.879 13.879 15 12.5 15ZM3.5 4C3.224 4 3 4.224 3 4.5C3 4.776 3.224 5 3.5 5C3.776 5 4 4.776 4 4.5C4 4.224 3.776 4 3.5 4ZM5.5 6C5.224 6 5 6.224 5 6.5C5 6.776 5.224 7 5.5 7C5.776 7 6 6.776 6 6.5C6 6.224 5.776 6 5.5 6ZM6.5 4C6.224 4 6 4.224 6 4.5C6 4.776 6.224 5 6.5 5C6.776 5 7 4.776 7 4.5C7 4.224 6.776 4 6.5 4ZM5.5 12C5.224 12 5 12.224 5 12.5C5 12.776 5.224 13 5.5 13C5.776 13 6 12.776 6 12.5C6 12.224 5.776 12 5.5 12ZM10.5 12C10.224 12 10 12.224 10 12.5C10 12.776 10.224 13 10.5 13C10.776 13 11 12.776 11 12.5C11 12.224 10.776 12 10.5 12ZM12.5 11C12.224 11 12 11.224 12 11.5C12 11.776 12.224 12 12.5 12C12.776 12 13 11.776 13 11.5C13 11.224 12.776 11 12.5 11ZM12.5 6C12.224 6 12 6.224 12 6.5C12 6.776 12.224 7 12.5 7C12.776 7 13 6.776 13 6.5C13 6.224 12.776 6 12.5 6ZM10.5 4C10.224 4 10 4.224 10 4.5C10 4.776 10.224 5 10.5 5C10.776 5 11 4.776 11 4.5C11 4.224 10.776 4 10.5 4ZM7.5 2C7.224 2 7 2.224 7 2.5C7 2.776 7.224 3 7.5 3C7.776 3 8 2.776 8 2.5C8 2.224 7.776 2 7.5 2ZM11.5 2C11.224 2 11 2.224 11 2.5C11 2.776 11.224 3 11.5 3C11.776 3 12 2.776 12 2.5C12 2.224 11.776 2 11.5 2ZM3.5 10C3.224 10 3 10.224 3 10.5C3 10.776 3.224 11 3.5 11C3.776 11 4 10.776 4 10.5C4 10.224 3.776 10 3.5 10ZM10.854 9.146C10.659 8.951 10.342 8.951 10.147 9.146L9.001 10.292V6.499C9.001 6.223 8.777 5.999 8.501 5.999C8.225 5.999 8.001 6.223 8.001 6.499V10.292L6.855 9.146C6.66 8.951 6.343 8.951 6.148 9.146C5.953 9.341 5.953 9.658 6.148 9.853L8.145 11.85C8.169 11.875 8.196 11.897 8.225 11.916C8.228 11.918 8.232 11.92 8.236 11.922C8.246 11.928 8.257 11.935 8.267 11.94C8.271 11.942 8.276 11.944 8.281 11.947C8.291 11.952 8.301 11.957 8.311 11.961C8.316 11.963 8.322 11.965 8.327 11.967C8.337 11.971 8.347 11.974 8.357 11.978C8.362 11.98 8.368 11.981 8.373 11.982C8.383 11.985 8.393 11.987 8.404 11.99C8.411 11.991 8.417 11.992 8.424 11.993C8.433 11.994 8.443 11.996 8.452 11.997C8.468 11.999 8.484 11.999 8.501 11.999C8.518 11.999 8.534 11.999 8.55 11.997C8.56 11.997 8.569 11.994 8.578 11.993C8.585 11.992 8.591 11.991 8.598 11.99C8.608 11.988 8.618 11.985 8.629 11.982C8.634 11.981 8.64 11.979 8.645 11.978C8.655 11.975 8.665 11.971 8.675 11.967C8.68 11.965 8.686 11.963 8.691 11.961C8.701 11.957 8.711 11.952 8.721 11.947C8.726 11.945 8.73 11.943 8.735 11.94C8.746 11.934 8.756 11.928 8.766 11.922C8.769 11.92 8.773 11.918 8.777 11.916C8.806 11.897 8.833 11.875 8.857 11.85L10.854 9.853C11.049 9.658 11.049 9.341 10.854 9.146Z" fill="#202020"/>
</svg>
