<svg width="16" height="16" viewBox="0 0 16 16" fill="none" xmlns="http://www.w3.org/2000/svg">
<path d="M8.41 2.25C8.08 2.4 7.8 2.63 7.61 2.88C7.58 2.92 7.54 2.96 7.51 3H4C3.45 3 3 3.45 3 4V9H2V4C2 2.9 2.9 2 4 2H7.59C7.88 2 8.17 2.09 8.41 2.25ZM6 14.5V11.5C6 10.673 5.327 10 4.5 10H1.5C0.673 10 0 10.673 0 11.5V14.5C0 15.327 0.673 16 1.5 16H4.5C5.327 16 6 15.327 6 14.5ZM4.5 11C4.775 11 5 11.225 5 11.5V14.5C5 14.775 4.775 15 4.5 15H1.5C1.225 15 1 14.775 1 14.5V11.5C1 11.225 1.225 11 1.5 11H4.5ZM14 4.5V7.5C14 8.33 13.33 9 12.5 9H11V8H12.5C12.78 8 13 7.78 13 7.5V4.5C13 4.22 12.78 4 12.5 4H9.5C9.3 4 9.14 4.11 9.06 4.27C9.02 4.34 9 4.42 9 4.5V5.05C8.84 5.02 8.67 5 8.5 5H8V4.5C8 4.14 8.12 3.81 8.35 3.56C8.56 3.28 8.87 3.09 9.24 3.03C9.32 3.01 9.41 3 9.5 3H12.5C13.33 3 14 3.67 14 4.5ZM8.5 6H5.5C4.673 6 4 6.673 4 7.5V9H4.5C4.671 9 4.838 9.017 5 9.05V7.5C5 7.225 5.225 7 5.5 7H8.5C8.775 7 9 7.225 9 7.5V10.5C9 10.775 8.775 11 8.5 11H6.95C6.983 11.162 7 11.329 7 11.5V12H8.5C9.327 12 10 11.327 10 10.5V7.5C10 6.673 9.327 6 8.5 6Z" fill="#202020"/>
</svg>
