<svg width="16" height="16" viewBox="0 0 16 16" fill="none" xmlns="http://www.w3.org/2000/svg">
<path d="M12.5 15H3.5C2.121 15 1 13.879 1 12.5V7.5C1 7.224 1.224 7 1.5 7C1.776 7 2 7.224 2 7.5V12.5C2 13.327 2.673 14 3.5 14H12.5C13.327 14 14 13.327 14 12.5V7.5C14 7.224 14.224 7 14.5 7C14.776 7 15 7.224 15 7.5V12.5C15 13.879 13.879 15 12.5 15ZM4.5 6C4.224 6 4 6.224 4 6.5C4 6.776 4.224 7 4.5 7C4.776 7 5 6.776 5 6.5C5 6.224 4.776 6 4.5 6ZM11.5 6C11.224 6 11 6.224 11 6.5C11 6.776 11.224 7 11.5 7C11.776 7 12 6.776 12 6.5C12 6.224 11.776 6 11.5 6ZM12.5 7C12.224 7 12 7.224 12 7.5C12 7.776 12.224 8 12.5 8C12.776 8 13 7.776 13 7.5C13 7.224 12.776 7 12.5 7ZM10.5 10C10.224 10 10 10.224 10 10.5C10 10.776 10.224 11 10.5 11C10.776 11 11 10.776 11 10.5C11 10.224 10.776 10 10.5 10ZM6 11C5.448 11 5 11.448 5 12C5 12.552 5.448 13 6 13C6.552 13 7 12.552 7 12C7 11.448 6.552 11 6 11ZM3.754 8.04C3.723 8.04 3 8.224 3 9C3 9.707 3.608 10 4 10C4.776 10 4.96 9.278 4.96 9.246C4.96 9.115 4.848 9 4.707 9H4V8.293C4 8.152 3.885 8.04 3.754 8.04ZM11.754 8.04C11.723 8.04 11 8.224 11 9C11 9.707 11.608 10 12 10C12.776 10 12.96 9.278 12.96 9.246C12.96 9.115 12.848 9 12.707 9H12V8.293C12 8.152 11.885 8.04 11.754 8.04ZM9.754 11.04C9.723 11.04 9 11.224 9 12C9 12.707 9.608 13 10 13C10.776 13 10.96 12.278 10.96 12.246C10.96 12.115 10.848 12 10.707 12H10V11.293C10 11.152 9.885 11.04 9.754 11.04ZM8 8.293V9H7.293C7.152 9 7.04 9.115 7.04 9.246C7.04 9.277 7.224 10 8 10C8.392 10 9 9.707 9 9C9 8.224 8.278 8.04 8.246 8.04C8.115 8.04 8 8.152 8 8.293Z" fill="#202020"/>
</svg>
