<svg width="10" height="10" viewBox="0 0 10 10" fill="none" xmlns="http://www.w3.org/2000/svg">
<g clip-path="url(#clip0_7204_97136)">
<path fill-rule="evenodd" clip-rule="evenodd" d="M9.12301 4.08901L5.91101 0.877006C5.40801 0.374006 4.59201 0.374006 4.08901 0.877006L0.877006 4.08901C0.374006 4.59201 0.374006 5.40801 0.877006 5.91201L4.08801 9.12301C4.59101 9.62601 5.40701 9.62601 5.91001 9.12301L9.12101 5.91201C9.62401 5.40901 9.62401 4.59301 9.12101 4.08901H9.12301ZM4.50001 3.00001C4.50001 2.72401 4.72401 2.50001 5.00001 2.50001C5.27601 2.50001 5.50001 2.72401 5.50001 3.00001V5.00001C5.50001 5.27601 5.27601 5.50001 5.00001 5.50001C4.72401 5.50001 4.50001 5.27601 4.50001 5.00001V3.00001ZM5.00001 7.75001C4.58601 7.75001 4.25001 7.41401 4.25001 7.00001C4.25001 6.58601 4.58601 6.25001 5.00001 6.25001C5.41401 6.25001 5.75001 6.58601 5.75001 7.00001C5.75001 7.41401 5.41401 7.75001 5.00001 7.75001Z" fill="#006CBF"/>
</g>
<defs>
<clipPath id="clip0_7204_97136">
<rect width="10" height="10" fill="white"/>
</clipPath>
</defs>
</svg>
