<svg width="10" height="10" viewBox="0 0 10 10" fill="none" xmlns="http://www.w3.org/2000/svg">
<path d="M5 7C5.276 7 5.5 6.776 5.5 6.5V5.5C5.5 5.224 5.276 5 5 5C4.724 5 4.5 5.224 4.5 5.5V6.5C4.5 6.776 4.724 7 5 7Z" fill="#006CBF"/>
<path d="M4.25 3.5C4.25 3.914 4.586 4.25 5 4.25C5.414 4.25 5.75 3.914 5.75 3.5C5.75 3.086 5.414 2.75 5 2.75C4.586 2.75 4.25 3.086 4.25 3.5Z" fill="#006CBF"/>
<path fill-rule="evenodd" clip-rule="evenodd" d="M5 1C2.794 1 1 2.794 1 5C1 7.206 2.794 9 5 9C7.206 9 9 7.206 9 5C9 2.794 7.206 1 5 1ZM2 5C2 3.34628 3.34628 2 5 2C6.65372 2 8 3.34628 8 5C8 6.65372 6.65372 8 5 8C3.34628 8 2 6.65372 2 5Z" fill="#006CBF"/>
</svg>
