<svg width="18" height="18" viewBox="0 0 18 18" fill="none" xmlns="http://www.w3.org/2000/svg">
<path d="M9.70698 9.00001L14.853 3.85401C15.048 3.65901 15.048 3.34201 14.853 3.14701C14.658 2.95201 14.341 2.95201 14.146 3.14701L8.99998 8.29301L3.85398 3.14601C3.65898 2.95101 3.34198 2.95101 3.14698 3.14601C2.95198 3.34101 2.95198 3.65801 3.14698 3.85301L8.29298 8.99901L3.14698 14.145C2.95198 14.34 2.95198 14.657 3.14698 14.852C3.24498 14.95 3.37298 14.998 3.50098 14.998C3.62898 14.998 3.75698 14.949 3.85498 14.852L9.00098 9.70601L14.147 14.852C14.245 14.95 14.373 14.998 14.501 14.998C14.629 14.998 14.757 14.949 14.855 14.852C15.05 14.657 15.05 14.34 14.855 14.145L9.70898 8.99901L9.70698 9.00001Z" fill="#C50F1F"/>
</svg>
