<svg width="15" height="15" viewBox="0 0 15 15" fill="none" xmlns="http://www.w3.org/2000/svg">
<path d="M12.872 10.51L8.372 2.51C8.201 2.205 7.874 2 7.5 2C7.126 2 6.799 2.206 6.628 2.51L2.128 10.51C2.047 10.655 2 10.822 2 11C2 11.552 2.448 12 3 12H12C12.552 12 13 11.552 13 11C13 10.822 12.954 10.655 12.872 10.51ZM7 5.5C7 5.224 7.224 5 7.5 5C7.776 5 8 5.224 8 5.5V7.25C8 7.526 7.776 7.75 7.5 7.75C7.224 7.75 7 7.526 7 7.25V5.5ZM7.5 10C7.086 10 6.75 9.664 6.75 9.25C6.75 8.836 7.086 8.5 7.5 8.5C7.914 8.5 8.25 8.836 8.25 9.25C8.25 9.664 7.914 10 7.5 10Z" fill="#B27C00"/>
</svg>
