<svg width="12" height="12" viewBox="0 0 12 12" fill="none" xmlns="http://www.w3.org/2000/svg">
<path d="M6.5 8C6.5 8.276 6.276 8.5 6 8.5C5.724 8.5 5.5 8.276 5.5 8V6.5C5.5 6.224 5.724 6 6 6C6.276 6 6.5 6.224 6.5 6.5V8Z" fill="#006CBF"/>
<path d="M6.75 4.5C6.75 4.91421 6.41421 5.25 6 5.25C5.58579 5.25 5.25 4.91421 5.25 4.5C5.25 4.08579 5.58579 3.75 6 3.75C6.41421 3.75 6.75 4.08579 6.75 4.5Z" fill="#006CBF"/>
<path fill-rule="evenodd" clip-rule="evenodd" d="M6 1C3.239 1 1 3.239 1 6C1 8.761 3.239 11 6 11C8.761 11 11 8.761 11 6C11 3.239 8.761 1 6 1ZM6 2C8.206 2 10 3.794 10 6C10 8.206 8.206 10 6 10C3.794 10 2 8.206 2 6C2 3.794 3.794 2 6 2Z" fill="#006CBF"/>
</svg>
