<svg width="16" height="16" viewBox="0 0 16 16" fill="none" xmlns="http://www.w3.org/2000/svg">
<g clip-path="url(#clip0_7204_97224)">
<path d="M15.77 4.51498H15.73C14.9257 4.48327 14.132 4.70648 13.4621 5.15276C12.7923 5.59903 12.2805 6.24554 12 6.99998C12.3524 7.00099 12.7037 7.03954 13.048 7.11498C13.1849 6.79399 13.3895 6.50641 13.648 6.27198C13.5304 6.57806 13.4303 6.89056 13.348 7.20798C13.6732 7.29989 13.9882 7.42487 14.288 7.58098C14.5251 6.48013 15.0595 5.46534 15.833 4.64698C15.8441 4.63555 15.8514 4.621 15.854 4.60528C15.8566 4.58956 15.8543 4.57344 15.8474 4.55906C15.8406 4.54469 15.8295 4.53276 15.8156 4.52488C15.8018 4.517 15.7859 4.51354 15.77 4.51498ZM15.776 0.143977C15.846 0.108977 15.808 0.000976562 15.731 0.000976562C12.455 0.0279766 11.409 0.450977 10.131 1.40898C8 2.99998 8 5.49998 7 5.49998C5.5 5.49998 6 3.49998 7 2.49998C5.53497 3.13879 4.28462 4.18553 3.39807 5.51536C2.51152 6.84518 2.0262 8.40194 2 9.99998C2 11.5913 2.63214 13.1174 3.75736 14.2426C4.88258 15.3678 6.4087 16 8 16C8.31229 15.9961 8.62384 15.9687 8.932 15.918C8.59097 15.6525 8.28577 15.3439 8.024 15H8C6.6744 14.9984 5.40356 14.4711 4.46622 13.5338C3.52888 12.5964 3.00159 11.3256 3 9.99998C3.00925 8.12196 3.76219 6.3241 5.094 4.99998C5.11954 5.13288 5.1584 5.26287 5.21 5.38798C5.35677 5.73566 5.60772 6.02929 5.92829 6.22843C6.24886 6.42758 6.62328 6.52245 7 6.49998C8.1 6.49998 8.552 5.52798 8.954 4.66998C9.32555 3.71273 9.9351 2.86605 10.725 2.20998C11.3478 1.70568 12.0869 1.36533 12.875 1.21998C11.6093 2.87653 10.9478 4.91589 11 6.99998C11.0039 7.03365 11.0099 7.06705 11.018 7.09998C11.3413 7.03464 11.6702 7.00114 12 6.99998C12 4.49998 13 1.49998 15.776 0.143977Z" fill="#202020"/>
<path d="M12 8C11.2089 8 10.4355 8.2346 9.77772 8.67412C9.11993 9.11365 8.60723 9.73836 8.30448 10.4693C8.00173 11.2002 7.92252 12.0044 8.07686 12.7804C8.2312 13.5563 8.61216 14.269 9.17157 14.8284C9.73098 15.3878 10.4437 15.7688 11.2196 15.9231C11.9956 16.0775 12.7998 15.9983 13.5307 15.6955C14.2616 15.3928 14.8864 14.8801 15.3259 14.2223C15.7654 13.5645 16 12.7911 16 12C16 10.9391 15.5786 9.92172 14.8284 9.17157C14.0783 8.42143 13.0609 8 12 8ZM13.854 13.146L13.146 13.854L12 12.707L10.854 13.854L10.146 13.146L11.293 12L10.146 10.854L10.854 10.146L12 11.293L13.146 10.146L13.854 10.854L12.707 12L13.854 13.146Z" fill="#202020"/>
</g>
<defs>
<clipPath id="clip0_7204_97224">
<rect width="16" height="16" fill="white"/>
</clipPath>
</defs>
</svg>
