<svg width="13" height="13" viewBox="0 0 13 13" fill="none" xmlns="http://www.w3.org/2000/svg">
<path d="M6.5 1C3.467 1 1 3.467 1 6.5C1 9.533 3.467 12 6.5 12C9.533 12 12 9.533 12 6.5C12 3.467 9.533 1 6.5 1ZM9.104 5.354L6.354 8.104C6.256 8.202 6.128 8.25 6 8.25C5.872 8.25 5.744 8.201 5.646 8.104L3.996 6.454C3.801 6.259 3.801 5.942 3.996 5.747C4.191 5.552 4.508 5.552 4.703 5.747L5.999 7.043L8.395 4.647C8.59 4.452 8.907 4.452 9.102 4.647C9.297 4.842 9.297 5.159 9.102 5.354H9.104Z" fill="#11910D"/>
</svg>
