<svg width="18" height="18" viewBox="0 0 18 18" fill="none" xmlns="http://www.w3.org/2000/svg">
<path d="M9.5 12.5C9.5 12.776 9.276 13 9 13C8.724 13 8.5 12.776 8.5 12.5V8.5C8.5 8.224 8.724 8 9 8C9.276 8 9.5 8.224 9.5 8.5V12.5Z" fill="#006CBF"/>
<path d="M9.75 6.5C9.75 6.91418 9.41422 7.25 9 7.25C8.58578 7.25 8.25 6.91418 8.25 6.5C8.25 6.08582 8.58578 5.75 9 5.75C9.41422 5.75 9.75 6.08582 9.75 6.5Z" fill="#006CBF"/>
<path fill-rule="evenodd" clip-rule="evenodd" d="M9 2C5.13901 2 2 5.13898 2 9C2 12.861 5.13901 16 9 16C12.861 16 16 12.861 16 9C16 5.13898 12.861 2 9 2ZM9 3C12.308 3 15 5.69202 15 9C15 12.308 12.308 15 9 15C5.692 15 3 12.308 3 9C3 5.69202 5.692 3 9 3Z" fill="#006CBF"/>
</svg>
