<svg width="10" height="10" viewBox="0 0 10 10" fill="none" xmlns="http://www.w3.org/2000/svg">
<path d="M5 1C2.794 1 1 2.794 1 5C1 7.206 2.794 9 5 9C7.206 9 9 7.206 9 5C9 2.794 7.206 1 5 1ZM6.268 5.509L4.668 6.509C4.652 6.519 4.635 6.528 4.618 6.537C4.537 6.577 4.446 6.6 4.35 6.6C4.019 6.6 3.75 6.331 3.75 6V4C3.75 3.669 4.019 3.4 4.35 3.4C4.446 3.4 4.537 3.423 4.618 3.463C4.635 3.472 4.652 3.481 4.668 3.491L6.268 4.491C6.438 4.597 6.55 4.785 6.55 5C6.55 5.215 6.437 5.403 6.268 5.509Z" fill="#11910D"/>
</svg>
