<svg width="16" height="16" viewBox="0 0 16 16" fill="none" xmlns="http://www.w3.org/2000/svg">
<path d="M10.25 7H13.75C14.439 7 15 6.439 15 5.75V2.25C15 1.561 14.439 1 13.75 1H10.25C9.561 1 9 1.561 9 2.25V3H5.5C4.673 3 4 3.673 4 4.5V5H2.25C1.561 5 1 5.561 1 6.25V9.75C1 10.439 1.561 11 2.25 11H4V11.5C4 12.327 4.673 13 5.5 13H9V13.75C9 14.439 9.561 15 10.25 15H13.75C14.439 15 15 14.439 15 13.75V10.25C15 9.561 14.439 9 13.75 9H10.25C9.561 9 9 9.561 9 10.25V12H5.5C5.224 12 5 11.775 5 11.5V11H5.75C6.439 11 7 10.439 7 9.75V6.25C7 5.561 6.439 5 5.75 5H5V4.5C5 4.225 5.224 4 5.5 4H9V5.75C9 6.439 9.561 7 10.25 7ZM10 11H14V13.75C14 13.888 13.888 14 13.75 14H10.25C10.112 14 10 13.888 10 13.75V11ZM6 7V9.75C6 9.888 5.888 10 5.75 10H2.25C2.112 10 2 9.888 2 9.75V7H6ZM10 3H14V5.75C14 5.888 13.888 6 13.75 6H10.25C10.112 6 10 5.888 10 5.75V3Z" fill="#202020"/>
</svg>
