<svg width="13" height="13" viewBox="0 0 13 13" fill="none" xmlns="http://www.w3.org/2000/svg">
<path d="M6.5 1C3.462 1 1 3.462 1 6.5C1 9.538 3.462 12 6.5 12C9.538 12 12 9.538 12 6.5C12 3.462 9.538 1 6.5 1ZM9.104 6.354C9.006 6.452 8.878 6.5 8.75 6.5C8.622 6.5 8.494 6.451 8.396 6.354L7 4.958V9.251C7 9.527 6.776 9.751 6.5 9.751C6.224 9.751 6 9.527 6 9.251V4.958L4.604 6.354C4.409 6.549 4.092 6.549 3.897 6.354C3.702 6.159 3.702 5.842 3.897 5.647L6.147 3.397C6.342 3.202 6.659 3.202 6.854 3.397L9.104 5.647C9.299 5.842 9.299 6.159 9.104 6.354Z" fill="#006CBF"/>
</svg>
