<svg width="13" height="13" viewBox="0 0 13 13" fill="none" xmlns="http://www.w3.org/2000/svg">
<path d="M7 8.5C7 8.776 6.776 9 6.5 9C6.224 9 6 8.776 6 8.5V6.5C6 6.224 6.224 6 6.5 6C6.776 6 7 6.224 7 6.5V8.5Z" fill="#006CBF"/>
<path d="M7.25 4.5C7.25 4.91418 6.91422 5.25 6.5 5.25C6.08578 5.25 5.75 4.91418 5.75 4.5C5.75 4.08582 6.08578 3.75 6.5 3.75C6.91422 3.75 7.25 4.08582 7.25 4.5Z" fill="#006CBF"/>
<path fill-rule="evenodd" clip-rule="evenodd" d="M6.5 1C3.467 1 1 3.46698 1 6.5C1 9.53302 3.467 12 6.5 12C9.533 12 12 9.53302 12 6.5C12 3.46698 9.533 1 6.5 1ZM6.5 2C8.981 2 11 4.01898 11 6.5C11 8.98102 8.981 11 6.5 11C4.019 11 2 8.98102 2 6.5C2 4.01898 4.019 2 6.5 2Z" fill="#006CBF"/>
</svg>
