<svg width="16" height="16" viewBox="0 0 16 16" fill="none" xmlns="http://www.w3.org/2000/svg">
<g clip-path="url(#clip0_7204_97220)">
<path d="M12.875 1.22C11.6093 2.87656 10.9478 4.91591 11 7C11 7.23746 11.0846 7.46716 11.2385 7.648C11.3924 7.82884 11.6056 7.94901 11.84 7.987C11.8929 7.99574 11.9464 8.00009 12 8C12.2098 7.99984 12.4142 7.9337 12.5844 7.81095C12.7545 7.6882 12.8817 7.51504 12.948 7.316C13.0853 6.91244 13.3268 6.5523 13.648 6.272C13.2118 7.43148 12.9921 8.6612 13 9.9C13.0228 10.9208 12.7336 11.9242 12.1711 12.7764C11.6086 13.6285 10.7996 14.2888 9.852 14.669C9.25835 14.8852 8.63179 14.9972 8 15C6.6744 14.9984 5.40356 14.4711 4.46622 13.5338C3.52888 12.5964 3.00159 11.3256 3 10C3.00925 8.12198 3.76219 6.32413 5.094 5C5.11954 5.1329 5.1584 5.26289 5.21 5.388C5.35677 5.73568 5.60772 6.02931 5.92829 6.22846C6.24886 6.4276 6.62328 6.52247 7 6.5C8.1 6.5 8.552 5.528 8.954 4.67C9.32583 3.7129 9.93532 2.86628 10.725 2.21C11.3478 1.7057 12.0869 1.36535 12.875 1.22ZM15.731 0C12.455 0.027 11.409 0.45 10.131 1.408C8 3 8 5.5 7 5.5C5.5 5.5 6 3.5 7 2.5C5.53497 3.13882 4.28462 4.18556 3.39807 5.51538C2.51152 6.8452 2.0262 8.40197 2 10C2 11.5913 2.63214 13.1174 3.75736 14.2426C4.88258 15.3679 6.4087 16 8 16C8.7466 15.9971 9.48712 15.8655 10.189 15.611C11.3309 15.1638 12.3084 14.3774 12.9898 13.3578C13.6712 12.3381 14.0237 11.1341 14 9.908C13.9409 8.95321 14.0726 7.99622 14.3875 7.09291C14.7024 6.18961 15.1941 5.35812 15.834 4.647C15.8452 4.63551 15.8526 4.62086 15.8551 4.60503C15.8577 4.58921 15.8553 4.57297 15.8483 4.55855C15.8413 4.54412 15.83 4.5322 15.816 4.52441C15.802 4.51661 15.7859 4.51333 15.77 4.515H15.73C14.9257 4.48329 14.132 4.70651 13.4621 5.15278C12.7923 5.59905 12.2805 6.24556 12 7C12 4.5 13 1.5 15.776 0.144C15.847 0.109 15.808 0 15.731 0Z" fill="#202020"/>
</g>
<defs>
<clipPath id="clip0_7204_97220">
<rect width="16" height="16" fill="white"/>
</clipPath>
</defs>
</svg>
