<svg width="16" height="16" viewBox="0 0 16 16" fill="none" xmlns="http://www.w3.org/2000/svg">
<path d="M12.5 15H3.5C2.122 15 1 13.879 1 12.5V7.5C1 7.224 1.224 7 1.5 7C1.776 7 2 7.224 2 7.5V12.5C2 13.327 2.673 14 3.5 14H12.5C13.327 14 14 13.327 14 12.5V7.5C14 7.224 14.224 7 14.5 7C14.776 7 15 7.224 15 7.5V12.5C15 13.879 13.878 15 12.5 15ZM3.5 1C3.224 1 3 1.224 3 1.5C3 1.776 3.224 2 3.5 2C3.776 2 4 1.776 4 1.5C4 1.224 3.776 1 3.5 1ZM5.5 3C5.224 3 5 3.224 5 3.5C5 3.776 5.224 4 5.5 4C5.776 4 6 3.776 6 3.5C6 3.224 5.776 3 5.5 3ZM6.5 1C6.224 1 6 1.224 6 1.5C6 1.776 6.224 2 6.5 2C6.776 2 7 1.776 7 1.5C7 1.224 6.776 1 6.5 1ZM5.5 10C5.224 10 5 10.224 5 10.5C5 10.776 5.224 11 5.5 11C5.776 11 6 10.776 6 10.5C6 10.224 5.776 10 5.5 10ZM10.5 10C10.224 10 10 10.224 10 10.5C10 10.776 10.224 11 10.5 11C10.776 11 11 10.776 11 10.5C11 10.224 10.776 10 10.5 10ZM12.5 9C12.224 9 12 9.224 12 9.5C12 9.776 12.224 10 12.5 10C12.776 10 13 9.776 13 9.5C13 9.224 12.776 9 12.5 9ZM12.5 3C12.224 3 12 3.224 12 3.5C12 3.776 12.224 4 12.5 4C12.776 4 13 3.776 13 3.5C13 3.224 12.776 3 12.5 3ZM10.5 1C10.224 1 10 1.224 10 1.5C10 1.776 10.224 2 10.5 2C10.776 2 11 1.776 11 1.5C11 1.224 10.776 1 10.5 1ZM3.5 7C3.224 7 3 7.224 3 7.5C3 7.776 3.224 8 3.5 8C3.776 8 4 7.776 4 7.5C4 7.224 3.776 7 3.5 7ZM10.854 5.146C10.659 4.951 10.342 4.951 10.147 5.146L9.001 6.292V2.499C9.001 2.223 8.777 1.999 8.501 1.999C8.225 1.999 8.001 2.223 8.001 2.499V6.292L6.855 5.146C6.66 4.951 6.343 4.951 6.148 5.146C5.953 5.341 5.953 5.658 6.148 5.853L8.145 7.85C8.169 7.875 8.196 7.897 8.225 7.916C8.228 7.918 8.232 7.92 8.236 7.922C8.246 7.928 8.257 7.935 8.267 7.94C8.271 7.942 8.276 7.944 8.281 7.947C8.291 7.952 8.301 7.957 8.311 7.961C8.316 7.963 8.322 7.965 8.327 7.967C8.337 7.971 8.347 7.974 8.357 7.978C8.362 7.98 8.368 7.981 8.373 7.982C8.383 7.985 8.393 7.987 8.404 7.99C8.411 7.991 8.417 7.992 8.424 7.993C8.433 7.994 8.443 7.996 8.452 7.997C8.468 7.999 8.484 7.999 8.501 7.999C8.518 7.999 8.534 7.999 8.55 7.997C8.56 7.997 8.569 7.994 8.578 7.993C8.585 7.992 8.591 7.991 8.598 7.99C8.608 7.988 8.618 7.985 8.629 7.982C8.634 7.981 8.64 7.979 8.645 7.978C8.655 7.975 8.665 7.971 8.675 7.967C8.68 7.965 8.686 7.963 8.691 7.961C8.701 7.957 8.711 7.952 8.721 7.947C8.726 7.945 8.73 7.943 8.735 7.94C8.746 7.934 8.756 7.928 8.766 7.922C8.769 7.92 8.773 7.918 8.777 7.916C8.806 7.897 8.833 7.875 8.857 7.85L10.854 5.853C11.049 5.658 11.049 5.341 10.854 5.146Z" fill="#202020"/>
</svg>
