<svg width="13" height="13" viewBox="0 0 13 13" fill="none" xmlns="http://www.w3.org/2000/svg">
<path d="M7.20698 6.49998L10.603 3.10398C10.798 2.90898 10.798 2.59198 10.603 2.39698C10.408 2.20198 10.091 2.20198 9.89598 2.39698L6.49998 5.79298L3.10398 2.39698C2.90898 2.20198 2.59198 2.20198 2.39698 2.39698C2.20198 2.59198 2.20198 2.90898 2.39698 3.10398L5.79298 6.49998L2.39698 9.89598C2.20198 10.091 2.20198 10.408 2.39698 10.603C2.49498 10.701 2.62298 10.749 2.75098 10.749C2.87898 10.749 3.00698 10.7 3.10498 10.603L6.50098 7.20698L9.89698 10.603C9.99498 10.701 10.123 10.749 10.251 10.749C10.379 10.749 10.507 10.7 10.605 10.603C10.8 10.408 10.8 10.091 10.605 9.89598L7.20898 6.49998H7.20698Z" fill="#C50F1F"/>
</svg>
