<svg width="16" height="16" viewBox="0 0 16 16" fill="none" xmlns="http://www.w3.org/2000/svg">
<path d="M12.5 15H3.5C2.122 15 1 13.879 1 12.5V7.5C1 7.224 1.224 7 1.5 7C1.776 7 2 7.224 2 7.5V12.5C2 13.327 2.673 14 3.5 14H12.5C13.327 14 14 13.327 14 12.5V7.5C14 7.224 14.224 7 14.5 7C14.776 7 15 7.224 15 7.5V12.5C15 13.879 13.878 15 12.5 15ZM5.5 4C5.224 4 5 4.224 5 4.5C5 4.776 5.224 5 5.5 5C5.776 5 6 4.776 6 4.5C6 4.224 5.776 4 5.5 4ZM10.5 4C10.224 4 10 4.224 10 4.5C10 4.776 10.224 5 10.5 5C10.776 5 11 4.776 11 4.5C11 4.224 10.776 4 10.5 4ZM12.5 3C12.224 3 12 3.224 12 3.5C12 3.776 12.224 4 12.5 4C12.776 4 13 3.776 13 3.5C13 3.224 12.776 3 12.5 3ZM3.5 2C3.224 2 3 2.224 3 2.5C3 2.776 3.224 3 3.5 3C3.776 3 4 2.776 4 2.5C4 2.224 3.776 2 3.5 2ZM9.293 0L9 0.293V0H8V0.293L7.707 0H6.293L8.144 1.851C8.168 1.876 8.195 1.898 8.224 1.917C8.227 1.919 8.231 1.921 8.235 1.923C8.245 1.929 8.256 1.936 8.266 1.941C8.27 1.943 8.275 1.945 8.28 1.948C8.29 1.953 8.3 1.958 8.31 1.962C8.315 1.964 8.321 1.966 8.326 1.968C8.336 1.972 8.346 1.975 8.356 1.979C8.361 1.981 8.367 1.982 8.372 1.983C8.382 1.986 8.392 1.988 8.403 1.991C8.41 1.992 8.416 1.993 8.423 1.994C8.432 1.995 8.442 1.997 8.451 1.998C8.467 2 8.483 2 8.5 2C8.517 2 8.533 2 8.549 1.998C8.559 1.998 8.568 1.995 8.577 1.994C8.584 1.993 8.59 1.992 8.597 1.991C8.607 1.989 8.617 1.986 8.628 1.983C8.633 1.982 8.639 1.98 8.644 1.979C8.654 1.976 8.664 1.972 8.674 1.968C8.679 1.966 8.685 1.964 8.69 1.962C8.7 1.958 8.71 1.953 8.72 1.948C8.725 1.946 8.729 1.944 8.734 1.941C8.745 1.935 8.755 1.929 8.765 1.923C8.768 1.921 8.772 1.919 8.776 1.917C8.805 1.898 8.832 1.876 8.856 1.851L10.707 0H9.293Z" fill="#202020"/>
</svg>
