<svg width="16" height="16" viewBox="0 0 16 16" fill="none" xmlns="http://www.w3.org/2000/svg">
<path d="M5.75 14H4C2.897 14 2 13.103 2 12V4C2 2.897 2.897 2 4 2H7.586C7.986 2 8.363 2.156 8.647 2.439L10.561 4.353C10.741 4.533 10.871 4.757 10.941 4.999H10.001C9.935 4.999 9.869 5.003 9.805 5.01L7.94 3.145C7.847 3.052 7.718 2.999 7.586 2.999H4C3.449 2.999 3 3.447 3 3.999V11.999C3 12.551 3.449 12.999 4 12.999H4.169C4.45 13.59 5.053 13.999 5.75 13.999V14ZM10 10V12C10 12.552 9.551 13 9 13H8.831C8.55 13.591 7.947 14 7.25 14H9C10.103 14 11 13.103 11 12V10H10ZM8 8.25V6.75C8 6.337 7.664 6 7.25 6H5.75C5.336 6 5 6.337 5 6.75V8.25C5 8.663 5.336 9 5.75 9H7.25C7.664 9 8 8.663 8 8.25ZM6 7H7V8H6V7ZM8 12.25V10.75C8 10.337 7.664 10 7.25 10H5.75C5.336 10 5 10.337 5 10.75V12.25C5 12.663 5.336 13 5.75 13H7.25C7.664 13 8 12.663 8 12.25ZM6 11H7V12H6V11ZM12.25 8.25V6.75C12.25 6.337 11.914 6 11.5 6H10C9.586 6 9.25 6.337 9.25 6.75V8.25C9.25 8.663 9.586 9 10 9H11.5C11.914 9 12.25 8.663 12.25 8.25ZM10.25 7H11.25V8H10.25V7Z" fill="#202020"/>
</svg>
