<svg width="13" height="13" viewBox="0 0 13 13" fill="none" xmlns="http://www.w3.org/2000/svg">
<path fill-rule="evenodd" clip-rule="evenodd" d="M11.539 5.38601L7.61401 1.46101C6.99901 0.846006 6.00201 0.846006 5.38701 1.46101L1.46201 5.38601C0.847013 6.00101 0.847013 6.99801 1.46201 7.61301L5.38701 11.538C6.00201 12.153 6.99901 12.153 7.61401 11.538L11.539 7.61301C12.154 6.99801 12.154 6.00101 11.539 5.38601ZM6.00001 3.75001C6.00001 3.47401 6.22401 3.25001 6.50001 3.25001C6.77601 3.25001 7.00001 3.47401 7.00001 3.75001V6.75001C7.00001 7.02601 6.77601 7.25001 6.50001 7.25001C6.22401 7.25001 6.00001 7.02601 6.00001 6.75001V3.75001ZM6.50001 9.75001C6.08601 9.75001 5.75001 9.41401 5.75001 9.00001C5.75001 8.58601 6.08601 8.25001 6.50001 8.25001C6.91401 8.25001 7.25001 8.58601 7.25001 9.00001C7.25001 9.41401 6.91401 9.75001 6.50001 9.75001Z" fill="#006CBF"/>
</svg>
