<svg width="16" height="16" viewBox="0 0 16 16" fill="none" xmlns="http://www.w3.org/2000/svg">
<path d="M8 1C11.6032 1 14.5683 3.7226 14.9551 7.22266C14.0106 6.45882 12.8093 6 11.5 6C11.1554 6 10.8183 6.03214 10.4912 6.09277C10.5207 5.93596 10.4749 5.76783 10.3535 5.64648C10.1583 5.45122 9.84175 5.45122 9.64648 5.64648L8.16699 7.125C8.10378 7.17323 8.04148 7.22257 7.98047 7.27344L6.35352 5.64648C6.15825 5.45122 5.84175 5.45122 5.64648 5.64648C5.45122 5.84175 5.45122 6.15825 5.64648 6.35352L7.27344 7.98047C7.22257 8.04148 7.17323 8.10378 7.125 8.16699L5.64648 9.64648C5.45122 9.84175 5.45122 10.1583 5.64648 10.3535C5.76783 10.4749 5.93596 10.5207 6.09277 10.4912C6.03214 10.8183 6 11.1554 6 11.5C6 12.8093 6.45882 14.0106 7.22266 14.9551C3.7226 14.5683 1 11.6032 1 8C1 4.13401 4.13401 1 8 1Z" fill="#C50F1F"/>
<path fill-rule="evenodd" clip-rule="evenodd" d="M16 11.5C16 13.9853 13.9853 16 11.5 16C9.01472 16 7 13.9853 7 11.5C7 9.01472 9.01472 7 11.5 7C13.9853 7 16 9.01472 16 11.5ZM11.5 9C11.7761 9 12 9.22386 12 9.5V11H13.5C13.7761 11 14 11.2239 14 11.5C14 11.7761 13.7761 12 13.5 12H12V13.5C12 13.7761 11.7761 14 11.5 14C11.2239 14 11 13.7761 11 13.5V12H9.5C9.22386 12 9 11.7761 9 11.5C9 11.2239 9.22386 11 9.5 11H11V9.5C11 9.22386 11.2239 9 11.5 9Z" fill="#11910D"/>
</svg>
