<svg width="18" height="18" viewBox="0 0 18 18" fill="none" xmlns="http://www.w3.org/2000/svg">
<path fill-rule="evenodd" clip-rule="evenodd" d="M16.329 7.38001L10.62 1.67101C9.72501 0.776006 8.27501 0.776006 7.38001 1.67101L1.67101 7.38001C0.776006 8.27501 0.776006 9.72501 1.67101 10.62L7.38001 16.329C8.27501 17.224 9.72501 17.224 10.62 16.329L16.329 10.62C17.224 9.72501 17.224 8.27501 16.329 7.38001ZM8.50001 5.50001C8.50001 5.22401 8.72401 5.00001 9.00001 5.00001C9.27601 5.00001 9.50001 5.22401 9.50001 5.50001V9.75001C9.50001 10.026 9.27601 10.25 9.00001 10.25C8.72401 10.25 8.50001 10.026 8.50001 9.75001V5.50001ZM9.00001 13C8.58601 13 8.25001 12.664 8.25001 12.25C8.25001 11.836 8.58601 11.5 9.00001 11.5C9.41401 11.5 9.75001 11.836 9.75001 12.25C9.75001 12.664 9.41401 13 9.00001 13Z" fill="#006CBF"/>
</svg>
