<svg width="18" height="18" viewBox="0 0 18 18" fill="none" xmlns="http://www.w3.org/2000/svg">
<path d="M9 2C5.139 2 2 5.139 2 9C2 12.861 5.139 16 9 16C12.861 16 16 12.861 16 9C16 5.139 12.861 2 9 2ZM12.354 7.604L8.604 11.354C8.506 11.452 8.378 11.5 8.25 11.5C8.122 11.5 7.994 11.451 7.896 11.354L5.896 9.354C5.701 9.159 5.701 8.842 5.896 8.647C6.091 8.452 6.408 8.452 6.603 8.647L8.249 10.293L11.645 6.897C11.84 6.702 12.157 6.702 12.352 6.897C12.547 7.092 12.547 7.409 12.352 7.604H12.354Z" fill="#11910D"/>
</svg>
