<svg width="10" height="10" viewBox="0 0 10 10" fill="none" xmlns="http://www.w3.org/2000/svg">
<path d="M5 1C2.791 1 1 2.791 1 5C1 7.209 2.791 9 5 9C7.209 9 9 7.209 9 5C9 2.791 7.209 1 5 1ZM6.854 4.854C6.756 4.952 6.628 5 6.5 5C6.372 5 6.244 4.951 6.146 4.854L5.5 4.208V7.001C5.5 7.277 5.276 7.501 5 7.501C4.724 7.501 4.5 7.277 4.5 7.001V4.208L3.854 4.854C3.659 5.049 3.342 5.049 3.147 4.854C2.952 4.659 2.952 4.342 3.147 4.147L4.647 2.647C4.842 2.452 5.159 2.452 5.354 2.647L6.854 4.147C7.049 4.342 7.049 4.659 6.854 4.854Z" fill="#006CBF"/>
</svg>
