<svg width="15" height="15" viewBox="0 0 15 15" fill="none" xmlns="http://www.w3.org/2000/svg">
<path fill-rule="evenodd" clip-rule="evenodd" d="M12.539 6.38601L8.61398 2.46101C7.99898 1.84601 7.00198 1.84601 6.38698 2.46101L2.46198 6.38601C1.84698 7.00101 1.84698 7.99801 2.46198 8.61301L6.38698 12.538C7.00198 13.153 7.99898 13.153 8.61398 12.538L12.539 8.61301C13.154 7.99801 13.154 7.00101 12.539 6.38601ZM6.99998 4.75001C6.99998 4.47401 7.22398 4.25001 7.49998 4.25001C7.77598 4.25001 7.99998 4.47401 7.99998 4.75001V7.75001C7.99998 8.02601 7.77598 8.25001 7.49998 8.25001C7.22398 8.25001 6.99998 8.02601 6.99998 7.75001V4.75001ZM7.49998 10.75C7.08598 10.75 6.74998 10.414 6.74998 10C6.74998 9.58601 7.08598 9.25001 7.49998 9.25001C7.91398 9.25001 8.24998 9.58601 8.24998 10C8.24998 10.414 7.91398 10.75 7.49998 10.75Z" fill="#006CBF"/>
</svg>
