<svg width="16" height="16" viewBox="0 0 16 16" fill="none" xmlns="http://www.w3.org/2000/svg">
<path d="M8 2C4.686 2 2 4.686 2 8C2 11.314 4.686 14 8 14C11.314 14 14 11.314 14 8C14 4.686 11.314 2 8 2ZM11.5 8.5H9.207L10.828 10.122C11.023 10.317 11.023 10.634 10.828 10.829C10.73 10.927 10.602 10.975 10.474 10.975C10.346 10.975 10.218 10.926 10.12 10.829L8.499 9.208V11.501C8.499 11.777 8.275 12.001 7.999 12.001C7.723 12.001 7.499 11.777 7.499 11.501V9.208L5.878 10.829C5.78 10.927 5.652 10.975 5.524 10.975C5.396 10.975 5.268 10.926 5.17 10.829C4.975 10.634 4.975 10.317 5.17 10.122L6.791 8.5H4.498C4.222 8.5 3.998 8.276 3.998 8C3.998 7.724 4.222 7.5 4.498 7.5H6.791L5.17 5.878C4.975 5.683 4.975 5.366 5.17 5.171C5.365 4.976 5.682 4.976 5.877 5.171L7.498 6.792V4.499C7.498 4.223 7.722 3.999 7.998 3.999C8.274 3.999 8.498 4.223 8.498 4.499V6.792L10.119 5.171C10.314 4.976 10.631 4.976 10.826 5.171C11.021 5.366 11.021 5.683 10.826 5.878L9.205 7.5H11.498C11.774 7.5 11.998 7.724 11.998 8C11.998 8.276 11.774 8.5 11.498 8.5H11.5Z" fill="#C50F1F"/>
</svg>
