<svg width="13" height="13" viewBox="0 0 13 13" fill="none" xmlns="http://www.w3.org/2000/svg">
<path d="M6.5 1C3.462 1 1 3.462 1 6.5C1 9.538 3.462 12 6.5 12C9.538 12 12 9.538 12 6.5C12 3.462 9.538 1 6.5 1ZM8.372 7.216L6.086 8.622C6.063 8.636 6.039 8.649 6.015 8.661C5.9 8.718 5.77 8.75 5.632 8.75C5.159 8.75 4.775 8.372 4.775 7.906V5.094C4.775 4.628 5.159 4.25 5.632 4.25C5.77 4.25 5.9 4.282 6.015 4.339C6.039 4.351 6.063 4.364 6.086 4.378L8.372 5.784C8.614 5.933 8.776 6.198 8.776 6.5C8.776 6.802 8.615 7.067 8.372 7.216Z" fill="#11910D"/>
</svg>
