<svg width="16" height="16" viewBox="0 0 16 16" fill="none" xmlns="http://www.w3.org/2000/svg">
<path d="M8 15C11.866 15 15 11.866 15 8C15 4.13401 11.866 1 8 1C4.13401 1 1 4.13401 1 8C1 11.866 4.13401 15 8 15Z" fill="#006CBF"/>
<path d="M4.5 6H11.5C11.776 6 12 5.776 12 5.5C12 5.224 11.776 5 11.5 5H4.5C4.224 5 4 5.224 4 5.5C4 5.776 4.224 6 4.5 6Z" fill="white"/>
<path d="M10 9H6C5.724 9 5.5 8.776 5.5 8.5C5.5 8.224 5.724 8 6 8H10C10.276 8 10.5 8.224 10.5 8.5C10.5 8.776 10.276 9 10 9Z" fill="white"/>
<path d="M9 12H7C6.724 12 6.5 11.776 6.5 11.5C6.5 11.224 6.724 11 7 11H9C9.276 11 9.5 11.224 9.5 11.5C9.5 11.776 9.276 12 9 12Z" fill="white"/>
</svg>
