<svg width="16" height="16" viewBox="0 0 16 16" fill="none" xmlns="http://www.w3.org/2000/svg">
<path d="M12.5 15H3.5C2.122 15 1 13.879 1 12.5V7.5C1 7.224 1.224 7 1.5 7C1.776 7 2 7.224 2 7.5V12.5C2 13.327 2.673 14 3.5 14H12.5C13.327 14 14 13.327 14 12.5V7.5C14 7.224 14.224 7 14.5 7C14.776 7 15 7.224 15 7.5V12.5C15 13.879 13.878 15 12.5 15ZM5.5 1C5.224 1 5 1.224 5 1.5C5 1.776 5.224 2 5.5 2C5.776 2 6 1.776 6 1.5C6 1.224 5.776 1 5.5 1ZM5.5 8C5.224 8 5 8.224 5 8.5C5 8.776 5.224 9 5.5 9C5.776 9 6 8.776 6 8.5C6 8.224 5.776 8 5.5 8ZM10.5 8C10.224 8 10 8.224 10 8.5C10 8.776 10.224 9 10.5 9C10.776 9 11 8.776 11 8.5C11 8.224 10.776 8 10.5 8ZM12.5 7C12.224 7 12 7.224 12 7.5C12 7.776 12.224 8 12.5 8C12.776 8 13 7.776 13 7.5C13 7.224 12.776 7 12.5 7ZM12.5 1C12.224 1 12 1.224 12 1.5C12 1.776 12.224 2 12.5 2C12.776 2 13 1.776 13 1.5C13 1.224 12.776 1 12.5 1ZM3.5 6C3.224 6 3 6.224 3 6.5C3 6.776 3.224 7 3.5 7C3.776 7 4 6.776 4 6.5C4 6.224 3.776 6 3.5 6ZM10.854 3.146C10.659 2.951 10.342 2.951 10.147 3.146L9.001 4.292V0.5C9.001 0.224 8.777 0 8.501 0C8.225 0 8.001 0.224 8.001 0.5V4.293L6.855 3.147C6.66 2.952 6.343 2.952 6.148 3.147C5.953 3.342 5.953 3.659 6.148 3.854L8.145 5.851C8.169 5.876 8.196 5.898 8.225 5.917C8.228 5.919 8.232 5.921 8.236 5.923C8.246 5.929 8.257 5.936 8.267 5.941C8.271 5.943 8.276 5.945 8.281 5.948C8.291 5.953 8.301 5.958 8.311 5.962C8.316 5.964 8.322 5.966 8.327 5.968C8.337 5.972 8.347 5.975 8.357 5.979C8.362 5.981 8.368 5.982 8.373 5.983C8.383 5.986 8.393 5.988 8.404 5.991C8.411 5.992 8.417 5.993 8.424 5.994C8.433 5.995 8.443 5.997 8.452 5.998C8.468 6 8.484 6 8.501 6C8.518 6 8.534 6 8.55 5.998C8.56 5.998 8.569 5.995 8.578 5.994C8.585 5.993 8.591 5.992 8.598 5.991C8.608 5.989 8.618 5.986 8.629 5.983C8.634 5.982 8.64 5.98 8.645 5.979C8.655 5.976 8.665 5.972 8.675 5.968C8.68 5.966 8.686 5.964 8.691 5.962C8.701 5.958 8.711 5.953 8.721 5.948C8.726 5.946 8.73 5.944 8.735 5.941C8.746 5.935 8.756 5.929 8.766 5.923C8.769 5.921 8.773 5.919 8.777 5.917C8.806 5.898 8.833 5.876 8.857 5.851L10.854 3.854C11.049 3.659 11.049 3.342 10.854 3.147V3.146Z" fill="#202020"/>
</svg>
