<svg width="16" height="16" viewBox="0 0 16 16" fill="none" xmlns="http://www.w3.org/2000/svg">
<path d="M8 2C11.308 2 14 4.692 14 8C14 11.308 11.308 14 8 14C4.692 14 2 11.308 2 8C2 4.692 4.692 2 8 2ZM8 1C4.134 1 1 4.134 1 8C1 11.866 4.134 15 8 15C11.866 15 15 11.866 15 8C15 4.134 11.866 1 8 1ZM6 11.25C6 11.526 5.776 11.75 5.5 11.75C5.224 11.75 5 11.526 5 11.25V4.75C5 4.474 5.224 4.25 5.5 4.25C5.776 4.25 6 4.474 6 4.75V11.25ZM11 11.25C11 11.526 10.776 11.75 10.5 11.75C10.224 11.75 10 11.526 10 11.25V4.75C10 4.474 10.224 4.25 10.5 4.25C10.776 4.25 11 4.474 11 4.75V11.25Z" fill="#006CBF"/>
</svg>
