<svg width="13" height="13" viewBox="0 0 13 13" fill="none" xmlns="http://www.w3.org/2000/svg">
<path d="M11.872 9.51L7.372 1.51C7.201 1.205 6.874 1 6.5 1C6.126 1 5.799 1.206 5.628 1.51L1.128 9.51C1.047 9.655 1 9.822 1 10C1 10.552 1.448 11 2 11H11C11.552 11 12 10.552 12 10C12 9.822 11.954 9.655 11.872 9.51ZM6 4.5C6 4.224 6.224 4 6.5 4C6.776 4 7 4.224 7 4.5V6.25C7 6.526 6.776 6.75 6.5 6.75C6.224 6.75 6 6.526 6 6.25V4.5ZM6.5 9C6.086 9 5.75 8.664 5.75 8.25C5.75 7.836 6.086 7.5 6.5 7.5C6.914 7.5 7.25 7.836 7.25 8.25C7.25 8.664 6.914 9 6.5 9Z" fill="#B27C00"/>
</svg>
