<svg width="18" height="18" viewBox="0 0 18 18" fill="none" xmlns="http://www.w3.org/2000/svg">
<path d="M9 2C5.134 2 2 5.134 2 9C2 12.866 5.134 16 9 16C12.866 16 16 12.866 16 9C16 5.134 12.866 2 9 2ZM12.166 8.791C12.068 8.889 11.94 8.937 11.812 8.937C11.684 8.937 11.556 8.888 11.458 8.791L9.499 6.832V12.375C9.499 12.651 9.275 12.875 8.999 12.875C8.723 12.875 8.499 12.651 8.499 12.375V6.832L6.54 8.791C6.345 8.986 6.028 8.986 5.833 8.791C5.638 8.596 5.638 8.279 5.833 8.084L8.645 5.272C8.84 5.077 9.157 5.077 9.352 5.272L12.164 8.084C12.359 8.279 12.359 8.596 12.164 8.791H12.166Z" fill="#006CBF"/>
</svg>
