<svg width="10" height="10" viewBox="0 0 10 10" fill="none" xmlns="http://www.w3.org/2000/svg">
<path d="M5 1C2.794 1 1 2.794 1 5C1 7.206 2.794 9 5 9C7.206 9 9 7.206 9 5C9 2.794 7.206 1 5 1ZM6.604 5.896C6.799 6.091 6.799 6.408 6.604 6.603C6.506 6.701 6.378 6.749 6.25 6.749C6.122 6.749 5.994 6.7 5.896 6.603L5 5.707L4.104 6.603C4.006 6.701 3.878 6.749 3.75 6.749C3.622 6.749 3.494 6.7 3.396 6.603C3.201 6.408 3.201 6.091 3.396 5.896L4.292 5L3.396 4.104C3.201 3.909 3.201 3.592 3.396 3.397C3.591 3.202 3.908 3.202 4.103 3.397L4.999 4.293L5.895 3.397C6.09 3.202 6.407 3.202 6.602 3.397C6.797 3.592 6.797 3.909 6.602 4.104L5.706 5L6.602 5.896H6.604Z" fill="#C50F1F"/>
</svg>
