<svg width="16" height="16" viewBox="0 0 16 16" fill="none" xmlns="http://www.w3.org/2000/svg">
<path d="M7 1H3C2.448 1 2 1.449 2 2V6C2 6.551 2.448 7 3 7H7C7.552 7 8 6.551 8 6V2C8 1.449 7.552 1 7 1ZM7 2V6H3V2H7ZM4 9H2C1.448 9 1 9.448 1 10V12C1 12.552 1.448 13 2 13H4C4.552 13 5 12.552 5 12V10C5 9.448 4.552 9 4 9ZM4 10V12H2V10H4ZM12 12H11C10.448 12 10 12.448 10 13V14C10 14.552 10.448 15 11 15H12C12.552 15 13 14.552 13 14V13C13 12.448 12.552 12 12 12ZM12 13V14H11V13H12ZM14 6H13C12.448 6 12 6.449 12 7V8C12 8.551 12.448 9 13 9H14C14.552 9 15 8.551 15 8V7C15 6.449 14.552 6 14 6ZM14 7V8H13V7H14ZM8 10.5V11.5C8 11.776 7.776 12 7.5 12H6.5C6.224 12 6 11.776 6 11.5V10.5C6 10.224 6.224 10 6.5 10H7.5C7.776 10 8 10.224 8 10.5ZM10 4.5V3.5C10 3.224 10.224 3 10.5 3H11.5C11.776 3 12 3.224 12 3.5V4.5C12 4.776 11.776 5 11.5 5H10.5C10.224 5 10 4.776 10 4.5Z" fill="#202020"/>
</svg>
