<svg width="16" height="16" viewBox="0 0 16 16" fill="none" xmlns="http://www.w3.org/2000/svg">
<path d="M14 12C14 13.105 13.105 14 12 14C10.895 14 10 13.105 10 12C10 10.895 10.895 10 12 10C13.105 10 14 10.895 14 12ZM3.707 3H6.5C6.776 3 7 2.776 7 2.5C7 2.224 6.776 2 6.5 2H2.5C2.224 2 2 2.224 2 2.5V6.5C2 6.776 2.224 7 2.5 7C2.776 7 3 6.776 3 6.5V3.707L8.146 8.853C8.244 8.951 8.372 8.999 8.5 8.999C8.628 8.999 8.756 8.95 8.854 8.853C9.049 8.658 9.049 8.341 8.854 8.146L3.707 3Z" fill="#006CBF"/>
</svg>
