<svg width="16" height="16" viewBox="0 0 16 16" fill="none" xmlns="http://www.w3.org/2000/svg">
<path d="M14.325 8.971C14.2713 8.98991 14.2149 8.99972 14.158 9C14.0546 8.99987 13.9538 8.96768 13.8694 8.90786C13.7851 8.84804 13.7213 8.76354 13.687 8.666C13.3065 7.59428 12.6037 6.66658 11.675 6.0102C10.7463 5.35382 9.63724 5.00094 8.5 5C7.48609 4.99981 6.49185 5.2799 5.62713 5.80932C4.76242 6.33874 4.06087 7.09688 3.6 8H6.5C6.63261 8 6.75979 8.05268 6.85355 8.14645C6.94732 8.24021 7 8.36739 7 8.5C7 8.63261 6.94732 8.75979 6.85355 8.85355C6.75979 8.94732 6.63261 9 6.5 9H2.5C2.36739 9 2.24021 8.94732 2.14645 8.85355C2.05268 8.75979 2 8.63261 2 8.5V4.5C2 4.36739 2.05268 4.24021 2.14645 4.14645C2.24021 4.05268 2.36739 4 2.5 4C2.63261 4 2.75979 4.05268 2.85355 4.14645C2.94732 4.24021 3 4.36739 3 4.5V7.034C3.58572 6.10475 4.39738 5.3391 5.35918 4.80853C6.32099 4.27797 7.40156 3.9998 8.5 4C9.84408 4.00108 11.1549 4.41815 12.2524 5.19397C13.35 5.96978 14.1805 7.0663 14.63 8.333C14.6519 8.39492 14.6613 8.46054 14.6578 8.52611C14.6543 8.59169 14.638 8.65593 14.6096 8.71517C14.5813 8.77442 14.5416 8.8275 14.4928 8.8714C14.4439 8.91529 14.3869 8.94914 14.325 8.971Z" fill="#006CBF"/>
</svg>
