<svg width="16" height="16" viewBox="0 0 16 16" fill="none" xmlns="http://www.w3.org/2000/svg">
<path d="M1.67501 8.971C1.72867 8.98991 1.78511 8.99972 1.84201 9C1.94541 8.99987 2.04624 8.96768 2.13059 8.90786C2.21494 8.84804 2.27867 8.76354 2.31301 8.666C2.69346 7.59428 3.39627 6.66658 4.32498 6.0102C5.25368 5.35382 6.36276 5.00094 7.50001 5C8.51392 4.99981 9.50815 5.2799 10.3729 5.80932C11.2376 6.33874 11.9391 7.09688 12.4 8H9.50001C9.3674 8 9.24022 8.05268 9.14645 8.14645C9.05268 8.24021 9.00001 8.36739 9.00001 8.5C9.00001 8.63261 9.05268 8.75979 9.14645 8.85355C9.24022 8.94732 9.3674 9 9.50001 9H13.5C13.6326 9 13.7598 8.94732 13.8536 8.85355C13.9473 8.75979 14 8.63261 14 8.5V4.5C14 4.36739 13.9473 4.24021 13.8536 4.14645C13.7598 4.05268 13.6326 4 13.5 4C13.3674 4 13.2402 4.05268 13.1465 4.14645C13.0527 4.24021 13 4.36739 13 4.5V7.034C12.4143 6.10475 11.6026 5.3391 10.6408 4.80853C9.67902 4.27797 8.59844 3.9998 7.50001 4C6.15593 4.00108 4.84513 4.41815 3.74757 5.19397C2.65 5.96978 1.81948 7.0663 1.37001 8.333C1.34814 8.39492 1.33868 8.46054 1.34217 8.52611C1.34566 8.59169 1.36204 8.65593 1.39036 8.71517C1.41868 8.77442 1.4584 8.8275 1.50724 8.8714C1.55608 8.91529 1.61308 8.94914 1.67501 8.971Z" fill="#006CBF"/>
</svg>
