<svg width="16" height="16" viewBox="0 0 16 16" fill="none" xmlns="http://www.w3.org/2000/svg">
<path d="M6 4C6 5.105 5.105 6 4 6C2.895 6 2 5.105 2 4C2 2.895 2.895 2 4 2C5.105 2 6 2.895 6 4ZM13.854 13.146L8.708 8H11.501C11.777 8 12.001 7.776 12.001 7.5C12.001 7.224 11.777 7 11.501 7H7.501C7.225 7 7.001 7.224 7.001 7.5V11.5C7.001 11.776 7.225 12 7.501 12C7.777 12 8.001 11.776 8.001 11.5V8.707L13.147 13.853C13.245 13.951 13.373 13.999 13.501 13.999C13.629 13.999 13.757 13.95 13.855 13.853C14.05 13.658 14.049 13.341 13.854 13.146Z" fill="#006CBF"/>
</svg>
