<svg width="16" height="16" viewBox="0 0 16 16" fill="none" xmlns="http://www.w3.org/2000/svg">
<g clip-path="url(#clip0_7204_97853)">
<path d="M3.52201 8H2.25907C1.54541 9.02245 1.11625 10.2199 1.02052 11.469C1.01445 11.5359 1.02227 11.6033 1.04351 11.667C1.06474 11.7308 1.09893 11.7894 1.14391 11.8393C1.1889 11.8891 1.24371 11.9291 1.30491 11.9568C1.36611 11.9845 1.43236 11.9992 1.49952 12H1.53452C1.65433 12.0012 1.77019 11.9572 1.85898 11.8768C1.94777 11.7963 2.00295 11.6854 2.01352 11.566C2.10137 10.3351 2.5671 9.16126 3.34707 8.20491C3.40393 8.13519 3.46226 8.06688 3.52201 8Z" fill="#5C2E91"/>
<path d="M9.98544 6.34116C9.04129 6.00802 8.03239 5.91794 7.05079 6.07392C7.15277 5.74899 7.14203 5.39587 7.01841 5.07706C8.06848 4.929 9.14324 5.02103 10.1602 5.35206C11.5074 5.79058 12.6896 6.62784 13.5505 7.75302C13.3444 8.02375 13.1188 8.2791 12.8755 8.51702H12.8735C12.1578 7.51167 11.1492 6.75179 9.98544 6.34116Z" fill="#5C2E91"/>
<path d="M13.5555 9.74302C13.7891 10.3155 13.9328 10.9206 13.9815 11.537C13.9879 11.6609 14.0411 11.7776 14.1305 11.8636C14.2198 11.9496 14.3385 11.9984 14.4625 12H14.4995C14.5668 11.9996 14.6333 11.9852 14.6948 11.9578C14.7563 11.9304 14.8114 11.8905 14.8567 11.8407C14.902 11.7909 14.9365 11.7322 14.958 11.6684C14.9794 11.6046 14.9875 11.5371 14.9815 11.47C14.9136 10.5884 14.6777 9.72797 14.2865 8.93502C14.0618 9.22095 13.8176 9.49093 13.5555 9.74302Z" fill="#5C2E91"/>
<path d="M14.4615 4.00003C14.3419 3.99906 14.2263 4.04318 14.1377 4.1236C14.0491 4.20402 13.9941 4.31485 13.9835 4.43403C13.8725 5.94567 13.194 7.35942 12.0842 8.39173C10.9743 9.42404 9.51523 9.99855 7.99952 10C6.64711 9.99887 5.33555 9.53641 4.28152 8.68903C4.06103 8.93933 3.86606 9.21101 3.69952 9.50003C4.92337 10.4694 6.43828 10.9979 7.99952 11C9.76336 10.9977 11.4615 10.3305 12.7551 9.1314C14.0487 7.93234 14.8426 6.28963 14.9785 4.53103C14.9846 4.46414 14.9768 4.39672 14.9555 4.33301C14.9343 4.26929 14.9001 4.21066 14.8551 4.16079C14.8101 4.11092 14.7553 4.0709 14.6941 4.04323C14.6329 4.01557 14.5667 4.00086 14.4995 4.00003H14.4615Z" fill="#006CBF"/>
<path d="M6.49654 3H4.70454L5.97254 1.732C6.16754 1.537 6.16754 1.22 5.97254 1.025C5.77754 0.83 5.46054 0.83 5.26554 1.025L3.99754 2.293V0.5C3.99754 0.224 3.77354 0 3.49754 0C3.22154 0 2.99754 0.224 2.99754 0.5V2.293L1.72954 1.025C1.53454 0.83 1.21754 0.83 1.02254 1.025C0.827535 1.22 0.827535 1.537 1.02254 1.732L2.29054 3H0.498535C0.222535 3 -0.00146484 3.224 -0.00146484 3.5C-0.00146484 3.776 0.222535 4 0.498535 4H2.29054L1.02254 5.268C0.827535 5.463 0.827535 5.78 1.02254 5.975C1.12054 6.073 1.24854 6.121 1.37654 6.121C1.50454 6.121 1.63254 6.072 1.73054 5.975L2.99854 4.707V6.5C2.99854 6.776 3.22254 7 3.49854 7C3.77454 7 3.99854 6.776 3.99854 6.5V4.707L5.26654 5.975C5.36454 6.073 5.49254 6.121 5.62054 6.121C5.74854 6.121 5.87654 6.072 5.97454 5.975C6.16954 5.78 6.16954 5.463 5.97454 5.268L4.70654 4H6.49854C6.77454 4 6.99854 3.776 6.99854 3.5C6.99854 3.224 6.77454 3 6.49854 3H6.49654Z" fill="#006CBF"/>
</g>
<defs>
<clipPath id="clip0_7204_97853">
<rect width="16" height="16" fill="white"/>
</clipPath>
</defs>
</svg>
