<svg width="16" height="16" viewBox="0 0 16 16" fill="none" xmlns="http://www.w3.org/2000/svg">
<path d="M5.99998 11C5.78498 11 5.59398 10.862 5.52598 10.658L4.09698 6.37101L3.48898 9.10801C3.44898 9.28601 3.31598 9.42801 3.13998 9.48001C2.96398 9.52701 2.77598 9.48201 2.64698 9.35301L1.14698 7.85301C0.951982 7.65801 0.951982 7.34101 1.14698 7.14601C1.34198 6.95101 1.65898 6.95101 1.85398 7.14601L2.70998 8.00101L3.51198 4.39101C3.56098 4.17101 3.74998 4.01201 3.97398 4.00001C4.20998 3.97501 4.40298 4.12801 4.47398 4.34101L5.99998 8.91801L6.52598 7.34101C6.58998 7.15001 6.76298 7.01501 6.96398 7.00001C7.17698 6.98101 7.35698 7.09501 7.44698 7.27501L7.84298 8.06601L8.51498 5.37801C8.55798 5.20301 8.69298 5.06601 8.86698 5.01801C9.03998 4.96701 9.22598 5.01801 9.35398 5.14601L9.86298 5.65601L10.553 4.27601C10.723 3.93801 11.278 3.93801 11.448 4.27601L12.001 5.38101L13.054 3.27601C13.179 3.03001 13.478 2.92801 13.725 3.05201C13.972 3.17601 14.072 3.47601 13.949 3.72301L12.449 6.72301C12.279 7.06101 11.724 7.06101 11.554 6.72301L11.001 5.61801L10.448 6.72301C10.376 6.86701 10.24 6.96701 10.081 6.99301C9.92198 7.02201 9.76098 6.96801 9.64698 6.85301L9.27198 6.47701L8.48598 9.62101C8.43498 9.82401 8.26398 9.97501 8.05598 9.99701C7.84198 10.017 7.64798 9.91101 7.55398 9.72401L7.09398 8.80401L6.47498 10.658C6.40698 10.862 6.21498 11 5.99998 11Z" fill="#3487C7"/>
<path d="M14.5 15H1.5C1.224 15 1 14.776 1 14.5V1.5C1 1.224 1.224 1 1.5 1C1.776 1 2 1.224 2 1.5V14H14.5C14.776 14 15 14.224 15 14.5C15 14.776 14.776 15 14.5 15Z" fill="#202020"/>
</svg>
