<svg width="16" height="16" viewBox="0 0 16 16" fill="none" xmlns="http://www.w3.org/2000/svg">
<g clip-path="url(#clip0_7204_97891)">
<path d="M9.98039 4C9.95148 3.65672 9.89104 3.32242 9.80198 3L13.5 3C13.7761 3 14 3.22386 14 3.5C14 3.77614 13.7761 4 13.5 4H9.98039Z" fill="#202020"/>
<path d="M8.71602 8C8.97322 7.69334 9.19758 7.3582 9.38368 7H11.5C11.7761 7 12 7.22386 12 7.5C12 7.77614 11.7761 8 11.5 8H8.71602Z" fill="#202020"/>
<path d="M6.5 11C6.22386 11 6 11.2239 6 11.5C6 11.7761 6.22386 12 6.5 12H9.5C9.77614 12 10 11.7761 10 11.5C10 11.2239 9.77614 11 9.5 11H6.5Z" fill="#202020"/>
<path fill-rule="evenodd" clip-rule="evenodd" d="M7.00006 8.24174C6.26004 8.7362 5.39001 9.00012 4.5 9.00012C3.30652 9.00012 2.16193 8.52602 1.31802 7.6821C0.474104 6.83819 -1.61828e-06 5.6936 -1.51395e-06 4.50012C-1.43614e-06 3.61011 0.263918 2.74008 0.758385 2.00006C1.25285 1.26003 1.95566 0.683257 2.77792 0.342663C3.60019 0.002069 4.50499 -0.0870461 5.37791 0.0865876C6.25082 0.260221 7.05264 0.688805 7.68198 1.31814C8.31132 1.94748 8.7399 2.7493 8.91353 3.62222C9.08717 4.49513 8.99805 5.39993 8.65746 6.2222C8.31686 7.04447 7.74009 7.74727 7.00006 8.24174ZM2.5 3.50012C2.5 3.2349 2.60536 2.98055 2.79289 2.79301C2.98043 2.60548 3.23478 2.50012 3.5 2.50012L5.5 2.50012C5.76522 2.50012 6.01957 2.60548 6.20711 2.79302C6.39464 2.98055 6.5 3.23491 6.5 3.50012L6.5 5.50012C6.5 5.76534 6.39464 6.01969 6.20711 6.20723C6.01957 6.39476 5.76522 6.50012 5.5 6.50012L3.5 6.50012C3.23478 6.50012 2.98043 6.39476 2.79289 6.20723C2.60536 6.01969 2.5 5.76534 2.5 5.50012L2.5 3.50012Z" fill="#C50F1F"/>
</g>
<defs>
<clipPath id="clip0_7204_97891">
<rect width="16" height="16" fill="white"/>
</clipPath>
</defs>
</svg>
