<svg width="16" height="16" viewBox="0 0 16 16" fill="none" xmlns="http://www.w3.org/2000/svg">
<path d="M9.97755 5.00037L13.2503 5.00037C13.6645 5.00037 14.0003 5.33615 14.0003 5.75037V10.2504C14.0003 10.6646 13.6645 11.0004 13.2503 11.0004L2.75034 11.0004C2.33612 11.0004 2.00034 10.6646 2.00034 10.2504V9.40046C1.64256 9.2176 1.30745 8.99671 1.00034 8.74311L1.00034 10.2504C1.00034 11.2169 1.78384 12.0004 2.75034 12.0004L13.2503 12.0004C14.2168 12.0004 15.0003 11.2169 15.0003 10.2504V5.75037C15.0003 4.78387 14.2168 4.00037 13.2503 4.00037L9.97761 4.00037C9.99243 4.16493 10 4.33158 10 4.5C10 4.66867 9.99241 4.83557 9.97755 5.00037Z" fill="#202020"/>
<path d="M12.5003 9.50037C12.2242 9.50037 12.0003 9.27651 12.0003 9.00037V7.00037C12.0003 6.72422 12.2242 6.50037 12.5003 6.50037C12.7765 6.50037 13.0003 6.72422 13.0003 7.00037V9.00037C13.0003 9.27651 12.7765 9.50037 12.5003 9.50037Z" fill="#202020"/>
<path fill-rule="evenodd" clip-rule="evenodd" d="M1.99994 0.758387C2.73996 0.26392 3.60999 0 4.5 0C5.69348 0 6.83807 0.474106 7.68198 1.31802C8.5259 2.16193 9 3.30653 9 4.5C9 5.39002 8.73608 6.26004 8.24162 7.00007C7.74715 7.74009 7.04434 8.31686 6.22208 8.65746C5.39981 8.99805 4.49501 9.08717 3.6221 8.91353C2.74918 8.7399 1.94736 8.31132 1.31802 7.68198C0.688685 7.05264 0.260102 6.25082 0.0864683 5.37791C-0.0871652 4.50499 0.00194976 3.60019 0.342544 2.77792C0.683138 1.95566 1.25991 1.25285 1.99994 0.758387ZM6.5 5.5C6.5 5.76522 6.39464 6.01957 6.20711 6.20711C6.01957 6.39464 5.76522 6.5 5.5 6.5H3.5C3.23478 6.5 2.98043 6.39464 2.79289 6.20711C2.60536 6.01957 2.5 5.76522 2.5 5.5V3.5C2.5 3.23478 2.60536 2.98043 2.79289 2.79289C2.98043 2.60536 3.23478 2.5 3.5 2.5H5.5C5.76522 2.5 6.01957 2.60536 6.20711 2.79289C6.39464 2.98043 6.5 3.23478 6.5 3.5V5.5Z" fill="#C50F1F"/>
</svg>
