<svg width="16" height="16" viewBox="0 0 16 16" fill="none" xmlns="http://www.w3.org/2000/svg">
<path fill-rule="evenodd" clip-rule="evenodd" d="M2.732 2.732C3.201 2.263 3.837 2 4.5 2H11.5C12.163 2 12.799 2.263 13.268 2.732C13.737 3.201 14 3.837 14 4.5V6.59971C13.6832 6.43777 13.3486 6.30564 13 6.20703V6H3V11.5C3 11.898 3.158 12.279 3.439 12.561C3.72 12.842 4.102 13 4.5 13H6.20703C6.30564 13.3486 6.43777 13.6832 6.59971 14H4.5C3.837 14 3.201 13.737 2.732 13.268C2.263 12.799 2 12.163 2 11.5V4.5C2 3.837 2.263 3.201 2.732 2.732ZM3 5H13V4.5C13 4.102 12.842 3.721 12.561 3.439C12.28 3.158 11.898 3 11.5 3H4.5C4.102 3 3.721 3.158 3.439 3.439C3.158 3.72 3 4.102 3 4.5V5Z" fill="#202020"/>
<path d="M6.02242 11C6.00758 11.1647 6 11.3315 6 11.5C6 11.6685 6.00758 11.8353 6.02242 12H4.5C4.224 12 4 11.776 4 11.5C4 11.224 4.224 11 4.5 11H6.02242Z" fill="#202020"/>
<path d="M6.59971 9C6.43777 9.31679 6.30564 9.65136 6.20703 10H4.5C4.224 10 4 9.776 4 9.5C4 9.224 4.224 9 4.5 9H6.59971Z" fill="#202020"/>
<path d="M8.33692 7C7.93379 7.28389 7.57052 7.62057 7.25716 8H4.5C4.224 8 4 7.776 4 7.5C4 7.224 4.224 7 4.5 7H8.33692Z" fill="#202020"/>
<path fill-rule="evenodd" clip-rule="evenodd" d="M11.5 16C13.9853 16 16 13.9853 16 11.5C16 9.01472 13.9853 7 11.5 7C9.01472 7 7 9.01472 7 11.5C7 13.9853 9.01472 16 11.5 16ZM13.3536 10.3536C13.5488 10.1583 13.5488 9.84171 13.3536 9.64645C13.1583 9.45118 12.8417 9.45118 12.6464 9.64645L11.5 10.7929L10.3536 9.64645C10.1583 9.45118 9.84171 9.45118 9.64645 9.64645C9.45118 9.84171 9.45118 10.1583 9.64645 10.3536L10.7929 11.5L9.64645 12.6464C9.45118 12.8417 9.45118 13.1583 9.64645 13.3536C9.84171 13.5488 10.1583 13.5488 10.3536 13.3536L11.5 12.2071L12.6464 13.3536C12.8417 13.5488 13.1583 13.5488 13.3536 13.3536C13.5488 13.1583 13.5488 12.8417 13.3536 12.6464L12.2071 11.5L13.3536 10.3536Z" fill="#C50F1F"/>
</svg>
