<svg width="16" height="16" viewBox="0 0 16 16" fill="none" xmlns="http://www.w3.org/2000/svg">
<path fill-rule="evenodd" clip-rule="evenodd" d="M2.732 2.732C3.201 2.263 3.837 2 4.5 2H11.5C12.163 2 12.799 2.263 13.268 2.732C13.737 3.201 14 3.837 14 4.5V6.40271C13.6962 6.22654 13.3588 6.10214 13 6.04168V6H3V11.5C3 11.898 3.158 12.279 3.439 12.561C3.72 12.842 4.102 13 4.5 13H8V14H4.5C3.837 14 3.201 13.737 2.732 13.268C2.263 12.799 2 12.163 2 11.5V4.5C2 3.837 2.263 3.201 2.732 2.732ZM3 5H13V4.5C13 4.102 12.842 3.721 12.561 3.439C12.28 3.158 11.898 3 11.5 3H4.5C4.102 3 3.721 3.158 3.439 3.439C3.158 3.72 3 4.102 3 4.5V5Z" fill="#202020"/>
<path d="M8.93651 9.2561C8.63674 9.43235 8.38937 9.69044 8.2243 10H4.5C4.224 10 4 9.776 4 9.5C4 9.224 4.224 9 4.5 9H8.5C8.68745 9 8.85092 9.10333 8.93651 9.2561Z" fill="#202020"/>
<path d="M8 11.5C8 11.776 7.776 12 7.5 12H4.5C4.224 12 4 11.776 4 11.5C4 11.224 4.224 11 4.5 11H7.5C7.776 11 8 11.224 8 11.5Z" fill="#202020"/>
<path d="M4 7.5C4 7.224 4.224 7 4.5 7H8.5C8.776 7 9 7.224 9 7.5C9 7.776 8.776 8 8.5 8H4.5C4.224 8 4 7.776 4 7.5Z" fill="#202020"/>
<path d="M10.5 9V10H9.875C9.392 10 9 10.403 9 10.9V15.1C9 15.597 9.392 16 9.875 16H15.125C15.608 16 16 15.597 16 15.1V10.9C16 10.403 15.608 10 15.125 10H14.5V9C14.5 7.895 13.605 7 12.5 7C11.395 7 10.5 7.895 10.5 9ZM12.5 8C13.052 8 13.5 8.448 13.5 9V10H11.5V9C11.5 8.448 11.948 8 12.5 8ZM12.5 13.75C12.086 13.75 11.75 13.414 11.75 13C11.75 12.586 12.086 12.25 12.5 12.25C12.914 12.25 13.25 12.586 13.25 13C13.25 13.414 12.914 13.75 12.5 13.75Z" fill="#202020"/>
</svg>
