<svg width="16" height="16" viewBox="0 0 16 16" fill="none" xmlns="http://www.w3.org/2000/svg">
<g clip-path="url(#clip0_7204_97962)">
<path fill-rule="evenodd" clip-rule="evenodd" d="M11.885 2.72695L13.854 6.85395C13.9502 7.05571 14.0001 7.27643 14 7.49995V9.49995C14 9.89777 13.842 10.2793 13.5607 10.5606C13.2794 10.8419 12.8978 10.9999 12.5 10.9999H8C7.99988 10.6495 7.93933 10.3129 7.82823 9.99995H12.5C12.6326 9.99995 12.7598 9.94727 12.8536 9.8535C12.9473 9.75973 13 9.63256 13 9.49995V7.49995C12.9997 7.42522 12.983 7.35148 12.951 7.28395C12.9103 7.1989 12.8463 7.1271 12.7665 7.07685C12.6867 7.02659 12.5943 6.99994 12.5 6.99995H3.5C3.36739 6.99995 3.24022 7.05263 3.14645 7.14639C3.05268 7.24016 3 7.36734 3 7.49995V7.50669C2.72389 7.29784 2.40538 7.1464 2.06392 7.06625C2.0858 6.99371 2.11321 6.92273 2.146 6.85395L4.116 2.72695V2.71995C4.21528 2.50323 4.37521 2.3199 4.57645 2.19213C4.77769 2.06436 5.01163 1.99761 5.25 1.99995H10.75C10.9885 1.99741 11.2227 2.06407 11.4241 2.19186C11.6256 2.31964 11.7856 2.50307 11.885 2.71995V2.72695ZM10.75 2.99995H5.25C5.20222 2.99847 5.1551 3.01129 5.11465 3.03677C5.07421 3.06224 5.0423 3.09922 5.023 3.14295L3.661 5.99995H12.339L10.976 3.13995C10.9563 3.09694 10.9244 3.0607 10.8842 3.0358C10.8439 3.01089 10.7973 2.99842 10.75 2.99995Z" fill="#202020"/>
<path d="M11.9157 8.77773C11.9707 8.69551 12 8.59884 12 8.49995C12 8.36734 11.9473 8.24016 11.8536 8.14639C11.7598 8.05263 11.6326 7.99995 11.5 7.99995C11.4011 7.99995 11.3044 8.02927 11.2222 8.08421C11.14 8.13915 11.0759 8.21724 11.0381 8.30861C11.0002 8.39997 10.9903 8.5005 11.0096 8.59749C11.0289 8.69448 11.0765 8.78358 11.1464 8.8535C11.2164 8.92343 11.3055 8.97105 11.4025 8.99034C11.4994 9.00963 11.6 8.99973 11.6913 8.96189C11.7827 8.92404 11.8608 8.85996 11.9157 8.77773Z" fill="#202020"/>
<path d="M7 13.093V11.001C7 9.89798 6.103 9.00098 5 9.00098H2.908C2.701 8.41998 2.151 8.00098 1.5 8.00098C0.673 8.00098 0 8.67398 0 9.50098C0 10.328 0.673 11.001 1.5 11.001C2.151 11.001 2.701 10.582 2.908 10.001H5C5.552 10.001 6 10.449 6 11.001V13.093C5.419 13.3 5 13.85 5 14.501C5 15.328 5.673 16.001 6.5 16.001C7.327 16.001 8 15.328 8 14.501C8 13.85 7.581 13.3 7 13.093ZM1.5 10.001C1.225 10.001 1 9.77598 1 9.50098C1 9.22598 1.225 9.00098 1.5 9.00098C1.775 9.00098 2 9.22598 2 9.50098C2 9.77598 1.775 10.001 1.5 10.001ZM6.5 15.001C6.225 15.001 6 14.776 6 14.501C6 14.226 6.225 14.001 6.5 14.001C6.775 14.001 7 14.226 7 14.501C7 14.776 6.775 15.001 6.5 15.001Z" fill="#202020"/>
</g>
<defs>
<clipPath id="clip0_7204_97962">
<rect width="16" height="16" fill="white"/>
</clipPath>
</defs>
</svg>
