<svg width="16" height="16" viewBox="0 0 16 16" fill="none" xmlns="http://www.w3.org/2000/svg">
<path fill-rule="evenodd" clip-rule="evenodd" d="M4 3.5C4 2.075 6.149 1 9 1C11.851 1 14 2.075 14 3.5V12.5C14 13.925 11.851 15 9 15C8.761 15 8.52693 14.9924 8.29864 14.9778C8.92216 14.8841 9.45227 14.5016 9.74804 13.9712C11.755 13.8141 13 13.046 13 12.5V5.021C11.7859 5.71872 10.3991 6.05816 9 6C7.9202 6.04489 6.84765 5.85293 5.85621 5.44221L4.414 4H4V3.5ZM13 3.5C13 2.888 11.441 2 9 2C6.558 2 5 2.888 5 3.5C5 4.112 6.559 5 9 5C11.441 5 13 4.112 13 3.5Z" fill="#3487C7"/>
<path d="M4.15 7.85C4.05 7.76 4 7.63 4 7.5V5L7 8H4.5C4.37 8 4.24 7.95 4.15 7.85ZM4.75 10C3.784 10 3 10.784 3 11.75V14H1C0.73 14 0.48 13.89 0.29 13.71C0.11 13.52 0 13.27 0 13V6C0 5.73 0.11 5.48 0.29 5.29C0.48 5.11 0.73 5 1 5H3V7.5C3 7.9 3.16 8.28 3.44 8.56C3.72 8.84 4.1 9 4.5 9H7V10H4.75ZM2 12.25C2 12.11 1.89 12 1.75 12H1.25C1.11 12 1 12.11 1 12.25V12.75C1 12.89 1.11 13 1.25 13H1.75C1.89 13 2 12.89 2 12.75V12.25ZM2 10.25C2 10.11 1.89 10 1.75 10H1.25C1.11 10 1 10.11 1 10.25V10.75C1 10.89 1.11 11 1.25 11H1.75C1.89 11 2 10.89 2 10.75V10.25ZM9 12V13C9 13.552 8.551 14 8 14H7V15C7 15.552 6.551 16 6 16H5C4.449 16 4 15.552 4 15V12C4 11.448 4.449 11 5 11H8C8.551 11 9 11.448 9 12ZM5 13H6V12H5V13ZM6.001 15V14H5.001V15H6.001ZM8 12H7V13H8V12Z" fill="#202020"/>
</svg>
