<svg width="16" height="16" viewBox="0 0 16 16" fill="none" xmlns="http://www.w3.org/2000/svg">
<g clip-path="url(#clip0_7204_98031)">
<path fill-rule="evenodd" clip-rule="evenodd" d="M6.5 2C5.837 2 5.201 2.263 4.732 2.732C4.263 3.201 4 3.837 4 4.5V7H5V6H15V11.5C15 11.898 14.842 12.28 14.561 12.561C14.279 12.842 13.898 13 13.5 13H9V14H13.5C14.163 14 14.799 13.737 15.268 13.268C15.737 12.799 16 12.163 16 11.5V4.5C16 3.837 15.737 3.201 15.268 2.732C14.799 2.263 14.163 2 13.5 2H6.5ZM15 5H5V4.5C5 4.102 5.158 3.72 5.439 3.439C5.721 3.158 6.102 3 6.5 3H13.5C13.898 3 14.28 3.158 14.561 3.439C14.842 3.721 15 4.102 15 4.5V5Z" fill="#202020"/>
<path d="M10.1782 7.64469C10.2983 7.75315 10.4067 7.87224 10.5025 7.99999C10.7774 7.99864 11 7.77516 11 7.5C11 7.224 10.776 7 10.5 7H6.5L6.49879 7H8.5C9.11998 6.99938 9.71807 7.22914 10.1782 7.64469Z" fill="#202020"/>
<path d="M11 11.5C11 11.224 11.224 11 11.5 11H13.5C13.776 11 14 11.224 14 11.5C14 11.776 13.776 12 13.5 12H11.5C11.224 12 11 11.776 11 11.5Z" fill="#202020"/>
<path d="M12 9.5C12 9.224 12.224 9 12.5 9H13.5C13.776 9 14 9.224 14 9.5C14 9.776 13.776 10 13.5 10H12.5C12.224 10 12 9.776 12 9.5Z" fill="#202020"/>
<path d="M9.561 8.4423C9.28 8.1613 8.898 8.0033 8.5 8.0033H3.5C3.105 8.0033 2.719 8.1633 2.439 8.4423C2.156 8.7253 2 9.1023 2 9.5033V13.0033C1.605 13.0033 1.219 13.1633 0.939 13.4423C0.656 13.7253 0.5 14.1023 0.5 14.5033C0.5 14.9043 0.656 15.2803 0.939 15.5643C1.218 15.8433 1.605 16.0033 2 16.0033H6.501C6.696 16.0033 6.891 15.9653 7.074 15.8893C7.348 15.7753 7.582 15.5843 7.748 15.3363C7.913 15.0883 8 14.8003 8 14.5033V11.0033H8.5C8.898 11.0033 9.279 10.8453 9.561 10.5643C9.842 10.2833 10 9.9013 10 9.5033C10 9.1053 9.842 8.7243 9.561 8.4423V8.4423ZM5.029 14.7953C5.043 14.8663 5.061 14.9363 5.086 15.0033H2C1.868 15.0033 1.739 14.9503 1.646 14.8573C1.553 14.7643 1.5 14.6353 1.5 14.5033C1.5 14.3713 1.554 14.2433 1.646 14.1493C1.738 14.0553 1.868 14.0033 2 14.0033H5.086C4.996 14.2583 4.976 14.5313 5.029 14.7953ZM7 14.5033C7 14.6033 6.971 14.6993 6.917 14.7803C6.861 14.8633 6.783 14.9263 6.691 14.9653C6.629 14.9913 6.545 14.9983 6.5 15.0033H6.487C6.459 15.0033 6.43 14.9993 6.403 14.9943C6.305 14.9743 6.216 14.9273 6.146 14.8573C6.076 14.7873 6.029 14.6993 6.009 14.6003C5.989 14.5043 5.999 14.4043 6.037 14.3133C6.075 14.2213 6.14 14.1433 6.221 14.0883C6.304 14.0333 6.401 14.0043 6.499 14.0043C6.775 14.0043 6.999 13.7803 6.999 13.5043C6.999 13.2283 6.775 13.0043 6.499 13.0043H3V9.5033C3 9.3723 3.054 9.2433 3.146 9.1493C3.238 9.0553 3.368 9.0033 3.5 9.0033H7.092C7.035 9.1633 7 9.3303 7 9.5033V10.5023C7 10.5023 7 10.5023 7 10.5033V14.5033V14.5033ZM8.854 9.8573C8.76 9.9513 8.633 10.0033 8.5 10.0033H8V9.5033C8 9.3703 8.053 9.2433 8.146 9.1493C8.239 9.0553 8.367 9.0033 8.5 9.0033C8.633 9.0033 8.76 9.0563 8.854 9.1493C8.948 9.2423 9 9.3703 9 9.5033C9 9.6363 8.947 9.7633 8.854 9.8573Z" fill="#202020"/>
</g>
<defs>
<clipPath id="clip0_7204_98031">
<rect width="16" height="16" fill="white"/>
</clipPath>
</defs>
</svg>
