<svg width="16" height="16" viewBox="0 0 16 16" fill="none" xmlns="http://www.w3.org/2000/svg">
<path fill-rule="evenodd" clip-rule="evenodd" d="M5 9.00001V10H4C3.8983 10 3.79901 10.031 3.7154 10.0889C3.63178 10.1468 3.5678 10.2288 3.532 10.324L2.032 14.324C2.00355 14.3997 1.99386 14.4811 2.00377 14.5613C2.01368 14.6415 2.04289 14.7181 2.0889 14.7846C2.13491 14.8511 2.19635 14.9054 2.26795 14.9429C2.33954 14.9804 2.41917 15 2.5 15H14.5C14.5808 15 14.6605 14.9804 14.7321 14.9429C14.8037 14.9054 14.8651 14.8511 14.9111 14.7846C14.9571 14.7181 14.9863 14.6415 14.9962 14.5613C15.0061 14.4811 14.9965 14.3997 14.968 14.324L13.468 10.324C13.4322 10.2288 13.3682 10.1468 13.2846 10.0889C13.201 10.031 13.1017 10 13 10H12V2.5C12 2.10218 11.842 1.72064 11.5607 1.43934C11.2794 1.15804 10.8978 1 10.5 1H8.12099L8.414 1.29301C8.60035 1.47822 8.7481 1.69857 8.84869 1.94129C8.85676 1.96075 8.86451 1.98032 8.87194 2H10.5C10.6326 2 10.7598 2.05268 10.8536 2.14645C10.9473 2.24021 11 2.36739 11 2.5V11.5C11 11.6326 10.9473 11.7598 10.8536 11.8536C10.7598 11.9473 10.6326 12 10.5 12H6.5C6.36739 12 6.24021 11.9473 6.14645 11.8536C6.05268 11.7598 6 11.6326 6 11.5V9.00001H5ZM4.347 11L3.222 14H13.778L12.653 11H12V11.5C12 11.8978 11.842 12.2794 11.5607 12.5607C11.2794 12.842 10.8978 13 10.5 13H6.5C6.10218 13 5.72064 12.842 5.43934 12.5607C5.15804 12.2794 5 11.8978 5 11.5V11H4.347Z" fill="#202020"/>
<path d="M7.33457 8.97184C7.38724 8.99031 7.44312 9 7.5 9H9.5C9.63261 9 9.75979 8.94732 9.85355 8.85355C9.94732 8.75979 10 8.63261 10 8.5C10 8.36739 9.94732 8.24021 9.85355 8.14645C9.75979 8.05268 9.63261 8 9.5 8H8.73206C8.64541 8.1501 8.53889 8.28955 8.41421 8.41423C8.11895 8.70949 7.74087 8.9029 7.33457 8.97184Z" fill="#202020"/>
<path d="M9 5H9.5C9.63261 5 9.75979 4.94732 9.85355 4.85355C9.94732 4.75979 10 4.63261 10 4.5C10 4.36739 9.94732 4.24021 9.85355 4.14645C9.75979 4.05268 9.63261 4 9.5 4H9V5Z" fill="#202020"/>
<path d="M7.14645 10.1464C7.05268 10.2402 7 10.3674 7 10.5C7 10.6326 7.05268 10.7598 7.14645 10.8536C7.24021 10.9473 7.36739 11 7.5 11H9.5C9.63261 11 9.75979 10.9473 9.85355 10.8536C9.94732 10.7598 10 10.6326 10 10.5C10 10.3674 9.94732 10.2402 9.85355 10.1464C9.75979 10.0527 9.63261 10 9.5 10H7.5C7.36739 10 7.24021 10.0527 7.14645 10.1464Z" fill="#202020"/>
<path d="M5 0H3V2H5V0ZM7.707 2L6 0.293V2.5C6 2.63261 5.94732 2.75979 5.85355 2.85355C5.75979 2.94732 5.63261 3 5.5 3H2.5C2.36739 3 2.24021 2.94732 2.14645 2.85355C2.05268 2.75979 2 2.63261 2 2.5V0H1C0.734784 0 0.48043 0.105357 0.292893 0.292893C0.105357 0.48043 0 0.734784 0 1V7C0 7.26522 0.105357 7.51957 0.292893 7.70711C0.48043 7.89464 0.734784 8 1 8V4.5C1 4.36739 1.05268 4.24021 1.14645 4.14645C1.24021 4.05268 1.36739 4 1.5 4H6.5C6.63261 4 6.75979 4.05268 6.85355 4.14645C6.94732 4.24021 7 4.36739 7 4.5V8C7.26522 8 7.51957 7.89464 7.70711 7.70711C7.89464 7.51957 8 7.26522 8 7V2.707C8.00047 2.57562 7.9748 2.44545 7.9245 2.32407C7.8742 2.2027 7.80027 2.09254 7.707 2V2ZM2 8H6V5H2V8Z" fill="#006CBF"/>
</svg>
