<svg width="16" height="16" viewBox="0 0 16 16" fill="none" xmlns="http://www.w3.org/2000/svg">
<g clip-path="url(#clip0_7204_98083)">
<path fill-rule="evenodd" clip-rule="evenodd" d="M9.793 6.759C9.806 7.143 9.693 7.521 9.473 7.836C9.635 7.95 9.771 8.095 9.874 8.264C10.045 8.561 10.13 8.899 10.12 9.241C10.136 9.539 10.07 9.835 9.929 10.097C9.788 10.359 9.577 10.578 9.32 10.729C8.992 10.909 8.624 11.002 8.25 11H6.5C6.367 11 6.24 10.947 6.146 10.854C6.052 10.76 6 10.633 6 10.5V5.5C6 5.367 6.053 5.24 6.146 5.146C6.24 5.052 6.367 5 6.5 5H8C8.351 4.989 8.699 5.068 9.011 5.23C9.249 5.363 9.444 5.561 9.575 5.8C9.727 6.096 9.802 6.426 9.793 6.759ZM8.697 6.278C8.657 6.203 8.596 6.141 8.521 6.1C8.358 6.024 8.179 5.99 8 6H7V7.5H8.022C8.196 7.503 8.369 7.461 8.522 7.378C8.622 7.311 8.701 7.218 8.749 7.108C8.798 6.998 8.814 6.877 8.797 6.759C8.805 6.593 8.77 6.427 8.697 6.278ZM8.186 8.5H7V10H8.25C8.447 10 8.64 9.953 8.814 9.861C8.919 9.798 9.004 9.705 9.057 9.594C9.11 9.483 9.13 9.359 9.114 9.238C9.123 9.079 9.088 8.921 9.014 8.781C8.966 8.703 8.897 8.64 8.814 8.6C8.615 8.521 8.4 8.487 8.186 8.5ZM5.464 10.314L3.464 5.314C3.314 4.933 2.687 4.933 2.536 5.314L0.536 10.314C0.433 10.57 0.557 10.861 0.814 10.963C1.069 11.067 1.361 10.941 1.463 10.685L1.737 9.999H4.261L4.535 10.685C4.613 10.88 4.801 10.999 4.999 10.999C5.061 10.999 5.124 10.987 5.185 10.963C5.442 10.86 5.566 10.569 5.463 10.314H5.464ZM2.138 9L3 6.847L3.862 9H2.138ZM13.375 11C11.865 11 11 9.906 11 8C11 6.094 11.865 5 13.375 5C14.346 5 15.087 5.483 15.461 6.361C15.569 6.616 15.451 6.909 15.197 7.017C14.94 7.125 14.649 7.006 14.541 6.753C14.322 6.238 13.951 5.999 13.375 5.999C12.463 5.999 12 6.672 12 7.999C12 9.326 12.463 9.999 13.375 9.999C13.935 9.999 14.299 9.773 14.521 9.29C14.636 9.037 14.936 8.93 15.184 9.045C15.435 9.16 15.544 9.457 15.429 9.708C15.04 10.553 14.33 10.999 13.374 10.999H13.375V11ZM15.5 4H0.5C0.224 4 0 3.776 0 3.5C0 3.224 0.224 3 0.5 3H15.5C15.776 3 16 3.224 16 3.5C16 3.776 15.776 4 15.5 4ZM10 12.5C10 12.224 9.776 12 9.5 12H0.5C0.224 12 0 12.224 0 12.5C0 12.776 0.224 13 0.5 13H9.5C9.776 13 10 12.776 10 12.5ZM13.854 14.854L15.854 12.854C16.049 12.659 16.049 12.342 15.854 12.147C15.659 11.952 15.342 11.952 15.147 12.147L13.501 13.793L11.855 12.147C11.66 11.952 11.343 11.952 11.148 12.147C10.953 12.342 10.953 12.659 11.148 12.854L13.148 14.854C13.246 14.952 13.374 15 13.502 15C13.63 15 13.758 14.951 13.856 14.854H13.854Z" fill="#202020"/>
</g>
<defs>
<clipPath id="clip0_7204_98083">
<rect width="16" height="16" fill="white"/>
</clipPath>
</defs>
</svg>
