<svg width="16" height="16" viewBox="0 0 16 16" fill="none" xmlns="http://www.w3.org/2000/svg">
<path d="M13.5 12C13.367 12 13.24 11.947 13.146 11.854C13.052 11.76 13 11.633 13 11.5V4C13 3.735 12.895 3.48 12.707 3.293C12.519 3.105 12.265 3 12 3H3C2.735 3 2.48 3.105 2.293 3.293C2.105 3.481 2 3.735 2 4V11.5C2 11.633 1.947 11.76 1.854 11.854C1.76 11.948 1.633 12 1.5 12C1.367 12 1.24 11.947 1.146 11.854C1.052 11.76 1 11.633 1 11.5V4C1 3.47 1.211 2.961 1.586 2.586C1.961 2.211 2.47 2 3 2H12C12.53 2 13.039 2.211 13.414 2.586C13.789 2.961 14 3.47 14 4V11.5C14 11.633 13.947 11.76 13.854 11.854C13.76 11.948 13.633 12 13.5 12ZM13.5 13H12C11.867 13 11.74 13.053 11.646 13.146C11.552 13.24 11.5 13.367 11.5 13.5C11.5 13.633 11.553 13.76 11.646 13.854C11.74 13.948 11.867 14 12 14H13.5C13.633 14 13.76 13.947 13.854 13.854C13.948 13.76 14 13.633 14 13.5C14 13.367 13.947 13.24 13.854 13.146C13.76 13.052 13.633 13 13.5 13ZM3 13H1.5C1.367 13 1.24 13.053 1.146 13.146C1.052 13.24 1 13.367 1 13.5C1 13.633 1.053 13.76 1.146 13.854C1.24 13.948 1.367 14 1.5 14H3C3.133 14 3.26 13.947 3.354 13.854C3.448 13.76 3.5 13.633 3.5 13.5C3.5 13.367 3.447 13.24 3.354 13.146C3.26 13.052 3.133 13 3 13ZM6.5 13H5C4.867 13 4.74 13.053 4.646 13.146C4.552 13.24 4.5 13.367 4.5 13.5C4.5 13.633 4.553 13.76 4.646 13.854C4.74 13.948 4.867 14 5 14H6.5C6.633 14 6.76 13.947 6.854 13.854C6.948 13.76 7 13.633 7 13.5C7 13.367 6.947 13.24 6.854 13.146C6.76 13.052 6.633 13 6.5 13ZM10 13H8.5C8.367 13 8.24 13.053 8.146 13.146C8.052 13.24 8 13.367 8 13.5C8 13.633 8.053 13.76 8.146 13.854C8.24 13.948 8.367 14 8.5 14H10C10.133 14 10.26 13.947 10.354 13.854C10.448 13.76 10.5 13.633 10.5 13.5C10.5 13.367 10.447 13.24 10.354 13.146C10.26 13.052 10.133 13 10 13ZM10 7.5C9.634 7.5 9.295 7.619 9 7.813V6.5C9 6.224 8.776 6 8.5 6C8.224 6 8 6.224 8 6.5V11.5C8 11.776 8.224 12 8.5 12C8.717 12 8.897 11.86 8.966 11.666C9.269 11.873 9.62 12 10 12C11.103 12 12 10.991 12 9.75C12 8.509 11.103 7.5 10 7.5ZM10 11C9.448 11 9 10.439 9 9.75C9 9.061 9.448 8.5 10 8.5C10.552 8.5 11 9.061 11 9.75C11 10.439 10.552 11 10 11ZM3.897 7.646C3.99 7.553 4.363 7.25 5.251 7.25C6.121 7.25 7 7.765 7 8.75V11.5C7 11.776 6.776 12 6.5 12C6.361 12 6.236 11.943 6.145 11.851C5.911 11.937 5.622 12 5.25 12C3.937 12 3.25 11.246 3.25 10.5C3.25 9.754 3.937 9 5.25 9C5.552 9 5.796 9.023 6 9.056V8.75C6 8.256 5.28 8.25 5.25 8.25C4.787 8.25 4.601 8.363 4.578 8.377H4.576C4.38 8.573 4.077 8.561 3.883 8.365C3.688 8.17 3.702 7.841 3.897 7.646ZM5.251 10C4.602 10 4.251 10.258 4.251 10.5C4.251 10.742 4.602 11 5.251 11C5.698 11 5.908 10.885 6.001 10.811V10.074C5.857 10.038 5.623 10 5.251 10Z" fill="#202020"/>
</svg>
