<svg width="16" height="16" viewBox="0 0 16 16" fill="none" xmlns="http://www.w3.org/2000/svg">
<path d="M14 6C14.55 6 15 5.55 15 5C15 3.35 13.65 2 12 2H5C4.45 2 4 2.45 4 3H12C13.1 3 14 3.9 14 5V6Z" fill="#006CBF"/>
<path fill-rule="evenodd" clip-rule="evenodd" d="M3 4C2.448 4 2 4.448 2 5V7C2 7.552 2.448 8 3 8H12C12.552 8 13 7.552 13 7V5C13 4.448 12.552 4 12 4H3ZM12 5H3V7H12V5Z" fill="#006CBF"/>
<path fill-rule="evenodd" clip-rule="evenodd" d="M2 10C2 9.448 2.448 9 3 9H5C5.552 9 6 9.448 6 10V12C6 12.552 5.552 13 5 13H3C2.448 13 2 12.552 2 12V10ZM3 12V10H5V12H3Z" fill="#006CBF"/>
<path fill-rule="evenodd" clip-rule="evenodd" d="M10 9C9.448 9 9 9.448 9 10V12C9 12.552 9.448 13 10 13H12C12.552 13 13 12.552 13 12V10C13 9.448 12.552 9 12 9H10ZM12 10H10V12H12V10Z" fill="#006CBF"/>
</svg>
