<svg width="16" height="16" viewBox="0 0 16 16" fill="none" xmlns="http://www.w3.org/2000/svg">
<g clip-path="url(#clip0_7204_98193)">
<path d="M13 13.499C13 13.779 13.22 13.999 13.5 13.999C13.78 13.999 14 13.779 14 13.499V10.499C14 10.219 13.78 9.99902 13.5 9.99902C13.22 9.99902 13 10.219 13 10.499V13.499Z" fill="#202020"/>
<path d="M11 13.999C10.72 13.999 10.5 13.779 10.5 13.499V12.599C10.72 12.469 10.93 12.309 11.12 12.119C11.26 11.979 11.39 11.819 11.5 11.659V13.499C11.5 13.779 11.28 13.999 11 13.999Z" fill="#202020"/>
<path d="M9 13.499C9 13.779 8.78 13.999 8.5 13.999C8.22 13.999 8 13.779 8 13.499V12.999H9V13.499Z" fill="#202020"/>
<path d="M12.65 2.43902L15.56 5.34902C15.84 5.63902 16 6.01902 16 6.40902V13.999C16 15.099 15.1 15.999 14 15.999H8C7.31175 15.999 6.70807 15.653 6.3487 15.1278C6.65672 14.9921 6.93738 14.8013 7.17685 14.5651C7.35769 14.8268 7.6597 14.999 8 14.999H14C14.55 14.999 15 14.549 15 13.999V6.99902H12.5C12.32 6.99902 12.16 6.96902 12 6.90902V5.49902C12 5.77902 12.22 5.99902 12.5 5.99902H14.79L12 3.20902V3.40902C12 2.89902 11.85 2.40902 11.56 1.99902H11.59C11.98 1.99902 12.37 2.15902 12.65 2.43902Z" fill="#202020"/>
<path fill-rule="evenodd" clip-rule="evenodd" d="M7.97214 11.999H9C9.53 11.999 10.039 11.788 10.414 11.413C10.789 11.038 11 10.529 11 9.99902V3.41302C11 3.01502 10.842 2.63402 10.561 2.35302L8.646 0.438023C8.506 0.299023 8.341 0.188023 8.159 0.113023C7.977 0.0380234 7.782 -0.000976562 7.585 -0.000976562H4C3.47 -0.000976562 2.961 0.210023 2.586 0.585023C2.211 0.960023 2 1.46902 2 1.99902V8.25638C2.2022 8.18489 2.41005 8.12767 2.6221 8.08549C2.74752 8.06054 2.8736 8.04102 3 8.02689V1.99902C3 1.73402 3.106 1.48002 3.293 1.29202C3.48 1.10402 3.735 0.999023 4 0.999023H7V2.49902C7 2.89702 7.157 3.27902 7.439 3.56002C7.721 3.84102 8.102 3.99902 8.5 3.99902H10V9.99902C10 10.264 9.894 10.518 9.707 10.706C9.52 10.894 9.265 10.999 9 10.999H7.74264C7.85679 11.3219 7.93394 11.6574 7.97214 11.999ZM8.146 2.85302C8.053 2.75902 8 2.63202 8 2.49902V1.20602L9.792 2.99902H8.5C8.367 2.99902 8.239 2.94702 8.146 2.85302Z" fill="#202020"/>
<path d="M6.97855 9.64426C6.9925 9.59829 7 9.54953 7 9.49902V5.49902C7 5.22302 6.776 4.99902 6.5 4.99902C6.224 4.99902 6 5.22302 6 5.49902V8.75736C6.36736 9.00282 6.69727 9.30151 6.97855 9.64426Z" fill="#202020"/>
<path d="M5 8.25638V7.49902C5 7.22302 4.776 6.99902 4.5 6.99902C4.224 6.99902 4 7.22302 4 7.49902V8.02689C4.33977 8.06488 4.67534 8.14159 5 8.25638Z" fill="#202020"/>
<path d="M8.5 5.99902C8.776 5.99902 9 6.22302 9 6.49902V9.49902C9 9.77502 8.776 9.99902 8.5 9.99902C8.224 9.99902 8 9.77502 8 9.49902V6.49902C8 6.22302 8.224 5.99902 8.5 5.99902Z" fill="#202020"/>
<path d="M3.50004 8.99902C4.4283 8.99902 5.31854 9.36777 5.97492 10.0241C6.63129 10.6805 7.00004 11.5708 7.00004 12.499C7.03339 12.9438 6.89063 13.3838 6.60256 13.7242C6.31448 14.0647 5.90416 14.2783 5.46004 14.319C5.28133 14.3267 5.10352 14.2896 4.94283 14.211C4.78214 14.1324 4.64367 14.0148 4.54004 13.869C4.40798 14.0128 4.24713 14.1272 4.06794 14.2047C3.88876 14.2823 3.69527 14.3212 3.50004 14.319C3.27793 14.3047 3.06098 14.2457 2.86218 14.1457C2.66338 14.0456 2.48682 13.9064 2.34305 13.7365C2.19928 13.5666 2.09125 13.3694 2.02545 13.1568C1.95964 12.9442 1.93739 12.7204 1.96004 12.499C1.93739 12.2776 1.95964 12.0539 2.02545 11.8413C2.09125 11.6286 2.19928 11.4315 2.34305 11.2616C2.48682 11.0917 2.66338 10.9525 2.86218 10.8524C3.06098 10.7523 3.27793 10.6933 3.50004 10.679C3.76687 10.6766 4.02882 10.7505 4.25504 10.892C4.29844 10.8158 4.36462 10.7551 4.44428 10.7184C4.52395 10.6817 4.61311 10.6708 4.69926 10.6874C4.7854 10.7039 4.8642 10.747 4.9246 10.8106C4.985 10.8742 5.02397 10.9551 5.03604 11.042V11.099V12.499C5.03604 13.199 5.19304 13.479 5.45604 13.479C5.80804 13.479 6.15604 13.074 6.15604 12.499C6.15564 11.9455 5.98246 11.406 5.66068 10.9557C5.33889 10.5053 4.88455 10.1667 4.36105 9.98697C3.83756 9.80727 3.27102 9.79546 2.74049 9.95321C2.20996 10.111 1.74192 10.4304 1.40165 10.8669C1.06139 11.3035 0.86589 11.8353 0.842432 12.3883C0.818973 12.9413 0.968727 13.4878 1.2708 13.9516C1.57287 14.4154 2.01218 14.7733 2.52744 14.9754C3.0427 15.1775 3.60821 15.2137 4.14504 15.079L4.30104 15.035L4.41504 14.999C4.51473 14.9634 4.62418 14.9668 4.7215 15.0084C4.81883 15.05 4.89684 15.1269 4.93994 15.2236C4.98303 15.3202 4.98803 15.4296 4.95394 15.5298C4.91984 15.63 4.84916 15.7137 4.75604 15.764L4.70304 15.788L4.56004 15.837C4.07906 15.9887 3.57098 16.0346 3.0706 15.9716C2.57021 15.9087 2.08935 15.7383 1.66093 15.4722C1.23251 15.2061 0.866658 14.8506 0.58842 14.43C0.310182 14.0093 0.126134 13.5335 0.048878 13.0352C-0.0283781 12.5368 0.00298266 12.0276 0.140813 11.5425C0.278644 11.0574 0.519688 10.6077 0.847441 10.2244C1.17519 9.84113 1.58191 9.53318 2.03975 9.32167C2.49758 9.11017 2.99572 9.00011 3.50004 8.99902V8.99902ZM3.50004 11.519C3.09504 11.519 2.80004 11.941 2.80004 12.499C2.80004 13.057 3.09504 13.479 3.50004 13.479C3.90504 13.479 4.20004 13.057 4.20004 12.499C4.20004 11.941 3.90504 11.519 3.50004 11.519Z" fill="#202020"/>
</g>
<defs>
<clipPath id="clip0_7204_98193">
<rect width="16" height="16" fill="white"/>
</clipPath>
</defs>
</svg>
