<svg width="16" height="16" viewBox="0 0 16 16" fill="none" xmlns="http://www.w3.org/2000/svg">
<path d="M13.5 14C13.22 14 13 13.78 13 13.5V10.5C13 10.22 13.22 10 13.5 10C13.78 10 14 10.22 14 10.5V13.5C14 13.78 13.78 14 13.5 14ZM10.5 13.5C10.5 13.78 10.72 14 11 14C11.28 14 11.5 13.78 11.5 13.5V11.66C11.39 11.82 11.26 11.98 11.12 12.12C10.93 12.31 10.72 12.47 10.5 12.6V13.5ZM8.5 14C8.78 14 9 13.78 9 13.5V13H8V13.5C8 13.78 8.22 14 8.5 14ZM15.56 5.35L12.65 2.44C12.37 2.16 11.98 2 11.59 2H11.56C11.85 2.41 12 2.9 12 3.41V3.21L14.79 6H12.5C12.22 6 12 5.78 12 5.5V6.91C12.16 6.97 12.32 7 12.5 7H15V14C15 14.55 14.55 15 14 15H8C7.45 15 7 14.55 7 14V13H6V14C6 15.1 6.89 16 8 16H14C15.1 16 16 15.1 16 14V6.41C16 6.02 15.84 5.64 15.56 5.35ZM9 12H4C3.47 12 2.961 11.789 2.586 11.414C2.211 11.039 2 10.53 2 10V2C2 1.47 2.211 0.961 2.586 0.586C2.961 0.211 3.47 0 4 0H7.585C7.782 0 7.977 0.039 8.159 0.114C8.341 0.189 8.506 0.3 8.646 0.439L10.561 2.354C10.842 2.635 11 3.016 11 3.414V10C11 10.53 10.789 11.039 10.414 11.414C10.039 11.789 9.53 12 9 12ZM8 2.5C8 2.633 8.053 2.76 8.146 2.854C8.239 2.948 8.367 3 8.5 3H9.792L8 1.207V2.5ZM4 11H9C9.265 11 9.52 10.895 9.707 10.707C9.894 10.519 10 10.265 10 10V4H8.5C8.102 4 7.721 3.842 7.439 3.561C7.157 3.28 7 2.898 7 2.5V1H4C3.735 1 3.48 1.105 3.293 1.293C3.106 1.481 3 1.735 3 2V10C3 10.265 3.105 10.52 3.293 10.707C3.481 10.895 3.735 11 4 11ZM4.5 7C4.224 7 4 7.224 4 7.5V9.5C4 9.776 4.224 10 4.5 10C4.776 10 5 9.776 5 9.5V7.5C5 7.224 4.776 7 4.5 7ZM6.5 5C6.224 5 6 5.224 6 5.5V9.5C6 9.776 6.224 10 6.5 10C6.776 10 7 9.776 7 9.5V5.5C7 5.224 6.776 5 6.5 5ZM9 6.5C9 6.224 8.776 6 8.5 6C8.224 6 8 6.224 8 6.5V9.5C8 9.776 8.224 10 8.5 10C8.776 10 9 9.776 9 9.5V6.5Z" fill="#202020"/>
</svg>
