<svg width="16" height="16" viewBox="0 0 16 16" fill="none" xmlns="http://www.w3.org/2000/svg">
<path fill-rule="evenodd" clip-rule="evenodd" d="M5.682 7.99996C5.774 7.99296 5.952 7.92796 6.027 7.87396C6.13 7.79996 6.209 7.69796 6.256 7.58196C6.291 7.49596 6.312 7.30496 6.296 7.21296L6.068 5.88396L7.036 4.95096C7.129 4.86196 7.194 4.74796 7.224 4.62496C7.246 4.53396 7.239 4.34096 7.21 4.25196C7.17 4.13096 7.097 4.02396 6.995 3.93996C6.925 3.88296 6.751 3.80796 6.662 3.79496L5.327 3.60096L4.725 2.37996C4.668 2.26596 4.581 2.17196 4.475 2.10696C4.396 2.05896 4.213 2.00696 4.121 2.00696C3.996 2.00696 3.874 2.04196 3.772 2.10396C3.689 2.15296 3.558 2.29596 3.515 2.38196L2.918 3.58996L1.596 3.78196C1.472 3.79696 1.354 3.84596 1.246 3.93096C1.175 3.98996 1.067 4.14696 1.037 4.23396C0.995 4.35496 0.989 4.48496 1.02 4.61096C1.042 4.70196 1.138 4.86896 1.204 4.93396L2.173 5.88596L1.943 7.23296C1.926 7.35596 1.943 7.48096 1.992 7.59396C2.029 7.67796 2.147 7.82396 2.222 7.87696C2.325 7.94896 2.444 7.99096 2.56 7.99896H2.585C2.684 7.99896 2.847 7.96396 2.923 7.92296L4.121 7.29396L5.318 7.91996C5.428 7.97796 5.555 8.00296 5.682 7.99596V7.99996ZM5.054 5.88196L5.2 6.73396L4.434 6.33296C4.338 6.28296 4.229 6.25596 4.121 6.25596C4.04 6.25596 3.879 6.29596 3.808 6.33396L3.043 6.73596L3.187 5.89296C3.207 5.78496 3.198 5.67196 3.166 5.57496C3.142 5.49596 3.054 5.35296 2.995 5.29596L2.371 4.68296L3.248 4.55596C3.355 4.53696 3.458 4.49296 3.543 4.42696C3.605 4.37996 3.707 4.25396 3.741 4.18396L4.12 3.41696L4.494 4.17496C4.541 4.27996 4.614 4.37096 4.7 4.43496C4.768 4.48696 4.926 4.55396 5.011 4.56596L5.866 4.69096L5.252 5.28296C5.172 5.35996 5.111 5.45496 5.078 5.55696C5.052 5.63496 5.039 5.80096 5.054 5.88196Z" fill="#B27C00"/>
<path d="M14.5 6H8.5C8.224 6 8 5.776 8 5.5C8 5.224 8.224 5 8.5 5H14.5C14.776 5 15 5.224 15 5.5C15 5.776 14.776 6 14.5 6ZM15 9.5C15 9.224 14.776 9 14.5 9H8.5C8.224 9 8 9.224 8 9.5C8 9.776 8.224 10 8.5 10H14.5C14.776 10 15 9.776 15 9.5ZM15 13.5C15 13.224 14.776 13 14.5 13H8.5C8.224 13 8 13.224 8 13.5C8 13.776 8.224 14 8.5 14H14.5C14.776 14 15 13.776 15 13.5Z" fill="#202020"/>
</svg>
