<svg width="17" height="16" viewBox="0 0 17 16" fill="none" xmlns="http://www.w3.org/2000/svg">
<g clip-path="url(#clip0_820_199455)">
<path opacity="0.1" d="M16.39 13L14.46 13.52L11.61 2.9L13.54 2.38L16.39 13ZM3.5 5.12C3.55514 5.10084 3.61211 5.08744 3.67 5.08C3.78 5.06 3.89 5.04 4 5.03C4.16257 5.01005 4.32621 5.00003 4.49 5C4.83024 4.99964 5.16931 5.03992 5.5 5.12V2.5H3.5V5.12ZM7.5 6.15C7.68681 6.30651 7.85463 6.48439 8 6.68C8.65125 7.47504 9.00489 8.47229 9 9.5C8.99846 10.5236 8.64543 11.5156 8 12.31C7.84894 12.4977 7.68162 12.6717 7.5 12.83V13.5H9.5V2.5H7.5V6.15Z" fill="#1F1F1F"/>
<path d="M14.03 2.25L13.41 1.9L11.48 2.41L11.13 3.03L13.97 13.65L14.59 14L16.52 13.49L16.87 12.87L14.03 2.25ZM14.81 12.91L12.22 3.25L13.19 2.99L15.78 12.65L14.81 12.91ZM5.5 2L6 2.5V5.26C5.83794 5.19822 5.67058 5.15136 5.5 5.12C5.33522 5.08034 5.16827 5.05029 5 5.03V3H4V5.03C3.89 5.04 3.78 5.06 3.67 5.08C3.61211 5.08744 3.55514 5.10084 3.5 5.12C3.33075 5.1527 3.16375 5.19612 3 5.25V2.5L3.5 2H5.5ZM9.5 2L10 2.5V13.5L9.5 14H7.5L7.02 13.52C7.0702 13.2912 7.19725 13.0865 7.38 12.94C7.42244 12.9061 7.46254 12.8693 7.5 12.83C7.68162 12.6717 7.84894 12.4977 8 12.31V13H9V3H8V6.68C7.85463 6.48439 7.68681 6.30651 7.5 6.15C7.46254 6.11066 7.42244 6.07391 7.38 6.04C7.26002 5.93791 7.13305 5.84435 7 5.76V2.5L7.5 2H9.5Z" fill="#1F1F1F"/>
<path opacity="0.1" d="M7.5 9.5C7.50022 9.93761 7.4038 10.3699 7.21763 10.7659C7.03145 11.1619 6.76011 11.512 6.423 11.791C6.14267 12.0108 5.91452 12.29 5.75493 12.6085C5.59534 12.927 5.50828 13.2769 5.5 13.633V15.5H3.5V13.628C3.49931 13.2815 3.42034 12.9397 3.269 12.628C3.11766 12.3163 2.89785 12.0428 2.626 11.828C2.22929 11.5106 1.91967 11.0978 1.72617 10.628C1.53267 10.1583 1.46163 9.64712 1.5197 9.14242C1.57777 8.63773 1.76306 8.15605 2.05819 7.74254C2.35332 7.32904 2.74863 6.99725 3.20704 6.77829C3.66546 6.55934 4.17198 6.46038 4.67909 6.4907C5.18621 6.52102 5.67732 6.67963 6.10639 6.95165C6.53545 7.22368 6.8884 7.6002 7.13215 8.04593C7.37591 8.49165 7.50248 8.99198 7.5 9.5V9.5Z" fill="#1F1F1F"/>
<path d="M6.741 6.812C6.38973 6.49149 5.97683 6.24593 5.5275 6.09029C5.07818 5.93466 4.60185 5.87221 4.12759 5.90677C3.65333 5.94133 3.19109 6.07217 2.76907 6.2913C2.34705 6.51043 1.97411 6.81325 1.67301 7.18129C1.37191 7.54933 1.14897 7.97487 1.01778 8.43194C0.886595 8.889 0.849921 9.368 0.909998 9.83971C0.970075 10.3114 1.12564 10.7659 1.3672 11.1755C1.60877 11.5851 1.93126 11.9412 2.315 12.222C2.52758 12.3897 2.69958 12.6033 2.81818 12.8467C2.93679 13.0902 2.99893 13.3572 3 13.628V15.5L3.5 16H5.5L6 15.5V13.632C6.00742 13.3492 6.07789 13.0717 6.20626 12.8196C6.33463 12.5675 6.51766 12.3473 6.742 12.175C7.1358 11.8479 7.45272 11.438 7.67023 10.9746C7.88774 10.5111 8.0005 10.0055 8.0005 9.4935C8.0005 8.98155 7.88774 8.47588 7.67023 8.01243C7.45272 7.54898 7.1358 7.13913 6.742 6.812H6.741ZM4 15V14H5V15H4ZM6.1 11.407C5.59882 11.8158 5.24115 12.3739 5.079 13H3.928C3.78363 12.3828 3.43471 11.8327 2.938 11.439C2.57796 11.1551 2.3041 10.7765 2.14708 10.3458C1.99006 9.91499 1.9561 9.44899 2.049 9C2.1713 8.39132 2.51572 7.84992 3.0152 7.48118C3.51468 7.11245 4.1335 6.94276 4.75121 7.00514C5.36891 7.06752 5.94131 7.35751 6.35698 7.81867C6.77265 8.27983 7.00187 8.87916 7 9.5C6.99947 9.86449 6.91854 10.2244 6.76297 10.554C6.6074 10.8836 6.38103 11.1749 6.1 11.407V11.407Z" fill="#1F1F1F"/>
<g opacity="0.75">
<path d="M6 9.5C6.00114 9.22474 5.92651 8.95448 5.7843 8.7188C5.64208 8.48312 5.43776 8.29112 5.1937 8.16383C4.94964 8.03653 4.67526 7.97885 4.4006 7.99709C4.12595 8.01533 3.86161 8.1088 3.63653 8.26725C3.41145 8.42571 3.23431 8.64304 3.12451 8.89546C3.01471 9.14787 2.97649 9.42563 3.01402 9.69832C3.05155 9.97101 3.1634 10.2281 3.33731 10.4415C3.51122 10.6548 3.74048 10.8162 4 10.908V13.5H5V10.908C5.29145 10.805 5.54395 10.6144 5.72296 10.3623C5.90196 10.1103 5.99872 9.80913 6 9.5V9.5ZM4.5 10C4.40111 10 4.30444 9.97068 4.22221 9.91573C4.13999 9.86079 4.0759 9.7827 4.03806 9.69134C4.00022 9.59998 3.99031 9.49944 4.00961 9.40245C4.0289 9.30546 4.07652 9.21637 4.14645 9.14645C4.21637 9.07652 4.30546 9.0289 4.40245 9.00961C4.49944 8.99031 4.59998 9.00022 4.69134 9.03806C4.7827 9.0759 4.86079 9.13999 4.91573 9.22221C4.97067 9.30444 5 9.40111 5 9.5C5 9.63261 4.94732 9.75978 4.85355 9.85355C4.75978 9.94732 4.63261 10 4.5 10Z" fill="#1F1F1F"/>
</g>
</g>
<defs>
<clipPath id="clip0_820_199455">
<rect width="17" height="16" fill="white"/>
</clipPath>
</defs>
</svg>
