<svg width="16" height="16" viewBox="0 0 16 16" fill="none" xmlns="http://www.w3.org/2000/svg">
<path fill-rule="evenodd" clip-rule="evenodd" d="M5 3C5 1.895 5.895 1 7 1H10.586C10.984 1 11.366 1.158 11.647 1.439L14.561 4.353C14.842 4.635 15 5.016 15 5.414V13C15 14.105 14.105 15 13 15H9.93502C9.86378 14.7681 9.73667 14.5547 9.56201 14.3799L9.18187 14H13C13.552 14 14 13.552 14 13V6H11.5C10.672 6 10 5.328 10 4.5V2H7C6.448 2 6 2.448 6 3V6.70859C5.68685 6.49958 5.35072 6.33209 5 6.20841V3ZM11.5 5H13.793L11 2.207V4.5C11 4.776 11.224 5 11.5 5Z" fill="#202020"/>
<path d="M8 10.5V6.5C8 6.224 7.776 6 7.5 6C7.224 6 7 6.224 7 6.5V7.62129C7.39826 8.11403 7.69081 8.68915 7.85313 9.31122C7.95512 9.70208 8.0032 10.1019 7.99838 10.5H8Z" fill="#202020"/>
<path d="M13 12.5C13 12.776 12.776 13 12.5 13C12.224 13 12 12.776 12 12.5V8.5C12 8.224 12.224 8 12.5 8C12.776 8 13 8.224 13 8.5V12.5Z" fill="#202020"/>
<path d="M10.44 12.5C10.44 12.776 10.216 13 9.94 13C9.664 13 9.44 12.776 9.44 12.5V10.5C9.44 10.224 9.664 10 9.94 10C10.216 10 10.44 10.224 10.44 10.5V12.5Z" fill="#202020"/>
<path d="M8.854 15.0869L6.293 12.5269C6.74929 11.9266 6.99749 11.194 7 10.4399C7 9.74771 6.79473 9.07102 6.41015 8.49545C6.02556 7.91988 5.47894 7.47127 4.83939 7.20636C4.19985 6.94146 3.49612 6.87215 2.81719 7.00719C2.13825 7.14224 1.51461 7.47559 1.02513 7.96507C0.535644 8.45455 0.202301 9.07819 0.0672531 9.75713C-0.0677952 10.4361 0.00151649 11.1398 0.266423 11.7793C0.53133 12.4189 0.979934 12.9655 1.55551 13.3501C2.13108 13.7347 2.80777 13.9399 3.5 13.9399C4.25357 13.9375 4.98584 13.6897 5.586 13.2339L8.146 15.7939C8.23976 15.8878 8.36697 15.9406 8.49965 15.9407C8.63233 15.9408 8.75962 15.8882 8.8535 15.7944C8.94739 15.7007 9.00019 15.5735 9.00028 15.4408C9.00037 15.3081 8.94776 15.1808 8.854 15.0869V15.0869ZM1 10.4399C1 9.94549 1.14662 9.46214 1.42133 9.05102C1.69603 8.63989 2.08648 8.31946 2.54329 8.13024C3.00011 7.94103 3.50277 7.89152 3.98773 7.98798C4.47268 8.08444 4.91814 8.32255 5.26777 8.67218C5.6174 9.02181 5.8555 9.46726 5.95196 9.95222C6.04843 10.4372 5.99892 10.9398 5.8097 11.3967C5.62048 11.8535 5.30005 12.2439 4.88893 12.5186C4.4778 12.7933 3.99445 12.9399 3.5 12.9399C2.83696 12.9399 2.20108 12.6766 1.73223 12.2077C1.26339 11.7389 1 11.103 1 10.4399V10.4399Z" fill="#006CBF"/>
</svg>
