<svg width="16" height="16" viewBox="0 0 16 16" fill="none" xmlns="http://www.w3.org/2000/svg">
<g clip-path="url(#clip0_7204_98328)">
<path d="M6.03319 14.6442C5.69958 14.8074 5.34045 14.9171 4.969 14.968C4.334 15.055 3.688 14.965 3.101 14.709C2.514 14.453 2.008 14.041 1.639 13.517C1.27 12.993 1.053 12.378 1.01 11.739C0.967 11.1 1.101 10.461 1.396 9.89301C1.692 9.32501 2.138 8.84801 2.686 8.51601C3.234 8.18401 3.863 8.00901 4.503 8.01001C5.225 8.01101 5.929 8.23701 6.518 8.65501C7.008 9.00301 7.398 9.47001 7.653 10.01H8.26244L7.76244 11.01H7.316C7.104 11.01 6.915 10.876 6.844 10.676C6.673 10.19 6.356 9.76901 5.936 9.47001C5.516 9.17201 5.014 9.01101 4.499 9.01001C4.042 9.01001 3.593 9.13401 3.202 9.37101C2.811 9.60801 2.492 9.94801 2.281 10.354C2.07 10.76 1.975 11.216 2.005 11.672C2.036 12.128 2.191 12.567 2.454 12.941C2.717 13.315 3.078 13.609 3.498 13.792C3.917 13.975 4.379 14.039 4.832 13.977C5.285 13.915 5.713 13.73 6.068 13.442C6.423 13.154 6.692 12.773 6.845 12.342C6.90976 12.1605 7.07268 12.0339 7.26092 12.0131L6.21351 14.1079C6.12755 14.2787 6.06728 14.4593 6.03319 14.6442Z" fill="#202020"/>
<path d="M3.5 12.26C3.914 12.26 4.25 11.924 4.25 11.51C4.25 11.096 3.914 10.76 3.5 10.76C3.086 10.76 2.75 11.096 2.75 11.51C2.75 11.924 3.086 12.26 3.5 12.26Z" fill="#202020"/>
<path d="M3.492 4.25C3.906 4.25 4.242 3.914 4.242 3.5C4.242 3.086 3.906 2.75 3.492 2.75C3.078 2.75 2.742 3.086 2.742 3.5C2.742 3.914 3.078 4.25 3.492 4.25Z" fill="#006CBF"/>
<path fill-rule="evenodd" clip-rule="evenodd" d="M12.846 5.854L14.846 3.854V3.853C15.041 3.658 15.041 3.341 14.846 3.146L13.846 2.146C13.752 2.053 13.625 2 13.492 2H7.643C7.388 1.46 6.998 0.993004 6.508 0.645004C5.919 0.227004 5.215 0.00100426 4.493 4.2618e-06C3.853 -0.000995738 3.224 0.174004 2.678 0.506004C2.13 0.838004 1.684 1.315 1.388 1.883C1.093 2.451 0.958997 3.09 1.002 3.729C1.045 4.368 1.262 4.983 1.631 5.507C2 6.031 2.506 6.443 3.093 6.699C3.68 6.955 4.326 7.045 4.961 6.958C5.596 6.871 6.195 6.612 6.692 6.208C7.028 5.936 7.308 5.605 7.521 5.234L8.141 5.854C8.336 6.049 8.653 6.049 8.848 5.854L9.494 5.208L10.14 5.854C10.335 6.049 10.652 6.049 10.847 5.854L11.493 5.208L12.139 5.854C12.334 6.049 12.651 6.049 12.846 5.854ZM13.285 3L13.785 3.5H13.783L12.49 4.793L11.844 4.147C11.649 3.952 11.332 3.952 11.137 4.147L10.491 4.793L9.845 4.147C9.65 3.952 9.333 3.952 9.138 4.147L8.492 4.793L7.846 4.147C7.752 4.054 7.625 4.001 7.492 4.001H7.308C7.097 4.001 6.908 4.134 6.837 4.333C6.684 4.763 6.415 5.144 6.06 5.432C5.705 5.72 5.277 5.905 4.824 5.967C4.371 6.029 3.91 5.965 3.49 5.782C3.07 5.599 2.709 5.305 2.446 4.931C2.183 4.557 2.028 4.118 1.997 3.662C1.967 3.206 2.062 2.75 2.273 2.344C2.484 1.938 2.803 1.598 3.194 1.361C3.585 1.124 4.034 1 4.491 1C5.006 1.001 5.508 1.162 5.928 1.46C6.348 1.759 6.665 2.18 6.836 2.666C6.907 2.866 7.096 3 7.308 3H13.285Z" fill="#006CBF"/>
<path fill-rule="evenodd" clip-rule="evenodd" d="M12.3931 7.55201L15.8931 14.552C15.9694 14.7044 16.0056 14.8738 15.9981 15.044C15.9906 15.2143 15.9397 15.3799 15.8502 15.5249C15.7607 15.67 15.6357 15.7898 15.4869 15.8729C15.3381 15.9561 15.1705 15.9998 15.0001 16H8.00006C7.8292 16.0007 7.66101 15.9576 7.51154 15.8748C7.36207 15.792 7.23631 15.6723 7.14625 15.5271C7.0562 15.3818 7.00486 15.216 6.99712 15.0453C6.98938 14.8746 7.02551 14.7048 7.10206 14.552L10.6021 7.55201C10.6849 7.38534 10.8126 7.24509 10.9708 7.14705C11.129 7.04901 11.3114 6.99707 11.4976 6.99707C11.6837 6.99707 11.8661 7.04901 12.0243 7.14705C12.1825 7.24509 12.3102 7.38534 12.3931 7.55201ZM12 12.495V9.495C12 9.36239 11.9473 9.23521 11.8536 9.14144C11.7598 9.04767 11.6326 8.995 11.5 8.995C11.3674 8.995 11.2402 9.04767 11.1464 9.14144C11.0527 9.23521 11 9.36239 11 9.495V12.495C11 12.6276 11.0527 12.7548 11.1464 12.8485C11.2402 12.9423 11.3674 12.995 11.5 12.995C11.6326 12.995 11.7598 12.9423 11.8536 12.8485C11.9473 12.7548 12 12.6276 12 12.495ZM11.2222 14.0843C11.3044 14.0293 11.4011 14 11.5 14C11.6326 14 11.7598 14.0527 11.8536 14.1464C11.9473 14.2402 12 14.3674 12 14.5C12 14.5989 11.9707 14.6956 11.9157 14.7778C11.8608 14.86 11.7827 14.9241 11.6913 14.9619C11.6 14.9998 11.4994 15.0097 11.4025 14.9904C11.3055 14.9711 11.2164 14.9235 11.1464 14.8535C11.0765 14.7836 11.0289 14.6945 11.0096 14.5975C10.9903 14.5006 11.0002 14.4 11.0381 14.3087C11.0759 14.2173 11.14 14.1392 11.2222 14.0843Z" fill="#B27C00"/>
</g>
<defs>
<clipPath id="clip0_7204_98328">
<rect width="16" height="16" fill="white"/>
</clipPath>
</defs>
</svg>
