<svg width="16" height="16" viewBox="0 0 16 16" fill="none" xmlns="http://www.w3.org/2000/svg">
<path d="M8.12471 5H10.5C10.6326 5 10.7598 4.94732 10.8536 4.85355C10.9473 4.75979 11 4.63261 11 4.5C11 4.36739 10.9473 4.24021 10.8536 4.14645C10.7598 4.05268 10.6326 4 10.5 4H7.5C7.39702 4 7.29732 4.03177 7.21399 4.08988L8.12471 5Z" fill="#202020"/>
<path d="M6 9.91299C5.84089 9.96942 5.672 9.99935 5.49999 10C5.32918 10.0001 5.16013 9.97101 5 9.9145V13C5 13.5304 5.21071 14.0391 5.58579 14.4142C5.96086 14.7893 6.46957 15 7 15H11C11.5304 15 12.0391 14.7893 12.4142 14.4142C12.7893 14.0391 13 13.5304 13 13V3C13 2.46957 12.7893 1.96086 12.4142 1.58579C12.0391 1.21071 11.5304 1 11 1H7C6.90729 1 6.81525 1.00644 6.72447 1.01906C6.99173 1.06216 7.24384 1.17707 7.45289 1.35344C7.65781 1.52632 7.8115 1.74993 7.89989 2H11C11.2652 2 11.5196 2.10536 11.7071 2.29289C11.8946 2.48043 12 2.73478 12 3V13C12 13.2652 11.8946 13.5196 11.7071 13.7071C11.5196 13.8946 11.2652 14 11 14H7C6.73478 14 6.48043 13.8946 6.29289 13.7071C6.10536 13.5196 6 13.2652 6 13V9.91299Z" fill="#202020"/>
<path d="M7.5 11H10.5C10.6326 11 10.7598 10.9473 10.8536 10.8536C10.9473 10.7598 11 10.6326 11 10.5C11 10.3674 10.9473 10.2402 10.8536 10.1464C10.7598 10.0527 10.6326 10 10.5 10H7.5C7.36739 10 7.24021 10.0527 7.14645 10.1464C7.05268 10.2402 7 10.3674 7 10.5C7 10.6326 7.05268 10.7598 7.14645 10.8536C7.24021 10.9473 7.36739 11 7.5 11Z" fill="#202020"/>
<path d="M10.5 13H7.5C7.36739 13 7.24021 12.9473 7.14645 12.8536C7.05268 12.7598 7 12.6326 7 12.5C7 12.3674 7.05268 12.2402 7.14645 12.1464C7.24021 12.0527 7.36739 12 7.5 12H10.5C10.6326 12 10.7598 12.0527 10.8536 12.1464C10.9473 12.2402 11 12.3674 11 12.5C11 12.6326 10.9473 12.7598 10.8536 12.8536C10.7598 12.9473 10.6326 13 10.5 13Z" fill="#202020"/>
<path d="M2.5 5.00001C2.59902 5.00019 2.69586 4.97096 2.77825 4.91603C2.86064 4.8611 2.92487 4.78295 2.96278 4.69147C3.0007 4.6 3.01061 4.49933 2.99124 4.40222C2.97187 4.30511 2.92411 4.21594 2.854 4.14601L1.708 3.00001H6.5C6.63261 3.00001 6.75979 2.94733 6.85355 2.85356C6.94732 2.75979 7 2.63262 7 2.50001C7 2.3674 6.94732 2.24022 6.85355 2.14645C6.75979 2.05269 6.63261 2.00001 6.5 2.00001H1.708L2.855 0.855008C2.92551 0.785073 2.97361 0.695723 2.99314 0.598349C3.01268 0.500975 3.00277 0.399989 2.96469 0.308267C2.9266 0.216546 2.86207 0.138243 2.77931 0.0833424C2.69655 0.0284419 2.59931 -0.000569089 2.5 8.45845e-06C2.43423 2.23932e-05 2.3691 0.013014 2.30835 0.0382389C2.24761 0.0634637 2.19244 0.100426 2.146 0.147008L0.146 2.14701C0.052531 2.24071 2.8119e-05 2.36766 0 2.50001C5.01638e-05 2.56587 0.0129584 2.63109 0.0380001 2.69201C0.0629008 2.75288 0.0999949 2.80801 0.147 2.85401L2.147 4.85401C2.1934 4.90028 2.24844 4.93697 2.309 4.96201C2.36961 4.98692 2.43447 4.99983 2.5 5.00001Z" fill="#006CBF"/>
<path d="M5.5 4C5.40098 3.99982 5.30414 4.02905 5.22175 4.08398C5.13936 4.13891 5.07513 4.21706 5.03722 4.30854C4.9993 4.40001 4.98939 4.50068 5.00876 4.59779C5.02813 4.6949 5.07589 4.78407 5.146 4.854L6.292 6H1.5C1.36739 6 1.24021 6.05268 1.14645 6.14645C1.05268 6.24022 1 6.36739 1 6.5C1 6.63261 1.05268 6.75979 1.14645 6.85355C1.24021 6.94732 1.36739 7 1.5 7H6.292L5.145 8.145C5.07449 8.21494 5.02639 8.30429 5.00686 8.40166C4.98732 8.49903 4.99723 8.60002 5.03531 8.69174C5.0734 8.78346 5.13793 8.86177 5.22069 8.91667C5.30345 8.97157 5.40069 9.00058 5.5 9C5.56577 8.99999 5.6309 8.987 5.69165 8.96177C5.75239 8.93655 5.80756 8.89958 5.854 8.853L7.854 6.853C7.94747 6.7593 7.99997 6.63235 8 6.5C7.99995 6.43414 7.98704 6.36892 7.962 6.308C7.9371 6.24713 7.9 6.192 7.853 6.146L5.853 4.146C5.8066 4.09973 5.75155 4.06304 5.691 4.038C5.63039 4.01309 5.56553 4.00018 5.5 4Z" fill="#006CBF"/>
</svg>
