<svg width="16" height="16" viewBox="0 0 16 16" fill="none" xmlns="http://www.w3.org/2000/svg">
<path d="M11.5 5H8.5C8.36739 5 8.24021 4.94732 8.14645 4.85355C8.05268 4.75979 8 4.63261 8 4.5C8 4.36739 8.05268 4.24021 8.14645 4.14645C8.24021 4.05268 8.36739 4 8.5 4H11.5C11.6326 4 11.7598 4.05268 11.8536 4.14645C11.9473 4.24021 12 4.36739 12 4.5C12 4.63261 11.9473 4.75979 11.8536 4.85355C11.7598 4.94732 11.6326 5 11.5 5Z" fill="#202020"/>
<path d="M9.97758 11H11.5C11.6326 11 11.7598 10.9473 11.8536 10.8536C11.9473 10.7598 12 10.6326 12 10.5C12 10.3674 11.9473 10.2402 11.8536 10.1464C11.7598 10.0527 11.6326 10 11.5 10H9.79297C9.88412 10.3223 9.94663 10.6566 9.97758 11Z" fill="#202020"/>
<path d="M9.79297 13C9.88412 12.6777 9.94663 12.3434 9.97758 12H11.5C11.6326 12 11.7598 12.0527 11.8536 12.1464C11.9473 12.2402 12 12.3674 12 12.5C12 12.6326 11.9473 12.7598 11.8536 12.8536C11.7598 12.9473 11.6326 13 11.5 13H9.79297Z" fill="#202020"/>
<path d="M9.40029 14H12C12.2652 14 12.5196 13.8946 12.7071 13.7071C12.8946 13.5196 13 13.2652 13 13V3C13 2.73478 12.8946 2.48043 12.7071 2.29289C12.5196 2.10536 12.2652 2 12 2H8C7.73478 2 7.48043 2.10536 7.29289 2.29289C7.10536 2.48043 7 2.73478 7 3V6.59971C6.68321 6.43777 6.34864 6.30564 6 6.20703V3C6 2.46957 6.21071 1.96086 6.58579 1.58579C6.96086 1.21071 7.46957 1 8 1H12C12.5304 1 13.0391 1.21071 13.4142 1.58579C13.7893 1.96086 14 2.46957 14 3V13C14 13.5304 13.7893 14.0391 13.4142 14.4142C13.0391 14.7893 12.5304 15 12 15H8.74284C8.99647 14.6929 9.21739 14.3578 9.40029 14Z" fill="#202020"/>
<path fill-rule="evenodd" clip-rule="evenodd" d="M4.5 7C6.98528 7 9 9.01472 9 11.5C9 13.9853 6.98528 16 4.5 16C2.01472 16 0 13.9853 0 11.5C-9.53674e-07 9.01472 2.01472 7 4.5 7ZM5.125 9.5C5.125 9.15482 4.84518 8.875 4.5 8.875C4.15482 8.875 3.875 9.15482 3.875 9.5C3.875 9.84518 4.15482 10.125 4.5 10.125C4.84518 10.125 5.125 9.84518 5.125 9.5ZM4 13.5C4 13.7761 4.22386 14 4.5 14C4.77614 14 5 13.7761 5 13.5L5 11.5C5 11.2239 4.77614 11 4.5 11C4.22386 11 4 11.2239 4 11.5V13.5Z" fill="#006CBF"/>
</svg>
