<svg width="16" height="16" viewBox="0 0 16 16" fill="none" xmlns="http://www.w3.org/2000/svg">
<path d="M15 7.5C15 6.849 14.581 6.299 14 6.092V3C14 1.897 13.103 1 12 1H3C1.897 1 1 1.897 1 3V12C1 13.103 1.897 14 3 14H12C13.103 14 14 13.103 14 12V8.908C14.581 8.701 15 8.151 15 7.5ZM12 13H3C2.449 13 2 12.552 2 12V3C2 2.448 2.449 2 3 2H12C12.551 2 13 2.448 13 3V6.092C12.419 6.299 12 6.849 12 7.5C12 8.151 12.419 8.701 13 8.908V12C13 12.552 12.551 13 12 13ZM13.5 8C13.224 8 13 7.775 13 7.5C13 7.225 13.224 7 13.5 7C13.776 7 14 7.225 14 7.5C14 7.775 13.776 8 13.5 8ZM11 4V6C11 6.552 10.552 7 10 7H8.062C8.027 7 8 6.972 8 6.938V6.063C8 6.028 8.028 6.001 8.062 6.001H10V4.001H5V6.001H6.938C6.973 6.001 7 6.029 7 6.063V6.938C7 6.972 6.972 7 6.938 7H5C4.448 7 4 6.552 4 6V4C4 3.448 4.448 3 5 3H10C10.552 3 11 3.448 11 4ZM11 9V11C11 11.552 10.552 12 10 12H5C4.448 12 4 11.552 4 11V9C4 8.448 4.448 8 5 8H6.938C6.973 8 7 8.028 7 8.062V8.937C7 8.971 6.972 8.999 6.938 8.999H5V10.999H10V8.999H8.062C8.027 8.999 8 8.971 8 8.937V8.062C8 8.027 8.028 8 8.062 8H10C10.552 8 11 8.448 11 9ZM7 5.85V5.15C7 5.067 7.067 5 7.15 5H7.85C7.933 5 8 5.067 8 5.15V5.85C8 5.933 7.933 6 7.85 6H7.15C7.067 6 7 5.933 7 5.85ZM7 7.15C7 7.067 7.067 7 7.15 7H7.85C7.933 7 8 7.067 8 7.15V7.85C8 7.933 7.933 8 7.85 8H7.15C7.067 8 7 7.933 7 7.85V7.15ZM7 9.15C7 9.067 7.067 9 7.15 9H7.85C7.933 9 8 9.067 8 9.15V9.85C8 9.933 7.933 10 7.85 10H7.15C7.067 10 7 9.933 7 9.85V9.15Z" fill="#202020"/>
</svg>
