<svg width="16" height="16" viewBox="0 0 16 16" fill="none" xmlns="http://www.w3.org/2000/svg">
<path d="M13.5 14C13.7761 14 14 13.7761 14 13.5C14 13.2239 13.7761 13 13.5 13H2.5C2.22386 13 2 13.2239 2 13.5C2 13.7761 2.22386 14 2.5 14H13.5ZM4.5 2C3.11929 2 2 3.11929 2 4.5V9.5C2 9.77614 2.22386 10 2.5 10H5C5 9.61612 5.14645 9.23223 5.43934 8.93934C5.60309 8.77559 5.79527 8.65762 6 8.58542V6H10V8.58542C10.2047 8.65762 10.3969 8.77559 10.5607 8.93934C10.8536 9.23223 11 9.61612 11 10H13.5C13.7761 10 14 9.77614 14 9.5V4.5C14 3.11929 12.8807 2 11.5 2H4.5ZM13 6V9H11V6H13ZM5 9H3V6H5V9ZM6 3H10V5H6V3ZM11 3H11.5C12.3284 3 13 3.67157 13 4.5V5H11V3ZM5 3V5H3V4.5C3 3.67157 3.67157 3 4.5 3H5Z" fill="#202020"/>
<path d="M6.14645 9.64645C6.34171 9.45118 6.65829 9.45118 6.85355 9.64645L7.5 10.2929V8.50035C7.5 8.22421 7.72386 8 8 8C8.27614 8 8.5 8.22386 8.5 8.5V10.2929L9.14645 9.64645C9.34171 9.45118 9.65829 9.45118 9.85355 9.64645C10.0488 9.84171 10.0488 10.1583 9.85355 10.3536L8.35355 11.8536C8.15829 12.0488 7.84171 12.0488 7.64645 11.8536L6.14645 10.3536C5.95118 10.1583 5.95118 9.84171 6.14645 9.64645Z" fill="#006CBF"/>
</svg>
