<svg width="16" height="16" viewBox="0 0 16 16" fill="none" xmlns="http://www.w3.org/2000/svg">
<g clip-path="url(#clip0_7204_98534)">
<path fill-rule="evenodd" clip-rule="evenodd" d="M4.5 2C3.11929 2 2 3.11929 2 4.5V7.72104C2.20137 7.52304 2.43545 7.35998 2.69275 7.23952C2.79271 7.19272 2.89536 7.15273 3 7.11968V6H5V7.33697C5 7.33697 5 7.33696 5 7.33697C5.3439 7.53621 5.59467 7.86381 5.69723 8.2478C5.79979 8.63179 5.74576 9.04078 5.54701 9.38497C5.41564 9.61338 5.22677 9.80259 5 9.93428V10H4.91021L4.91401 10.011L5.12801 10.022C5.48667 10.0533 5.82637 10.1838 6.11109 10.3947C6.13831 10.2613 6.17035 10.1297 6.20703 10H6V6L10 6V6.20703C10.3223 6.11588 10.6566 6.05337 11 6.02242V6H13V6.20703C13.3486 6.30564 13.6832 6.43777 14 6.59971V4.5C14 3.11929 12.8807 2 11.5 2H4.5ZM10 5L6 5V3H10V5ZM4.5 3H5V5H3V4.5C3 3.67157 3.67157 3 4.5 3ZM13 4.5V5H11V3H11.5C12.3284 3 13 3.67157 13 4.5Z" fill="#202020"/>
<path d="M6.00876 11.8131C6.07491 12.9919 6.51225 14.0715 7.20577 14.9369C7.16393 14.9203 7.1232 14.9007 7.08391 14.8783C6.96302 14.8092 6.85864 14.7146 6.77804 14.601L6.19004 13.777L5.10004 14.855C5.00615 14.9489 4.87881 15.0017 4.74604 15.0017C4.61326 15.0017 4.48592 14.9489 4.39204 14.855C4.29815 14.7611 4.24541 14.6338 4.24541 14.501C4.24541 14.3683 4.29815 14.2409 4.39204 14.147L5.59204 12.947L4.91804 12.001L4.85404 12.108C4.75987 12.1993 4.63363 12.2498 4.50253 12.2489C4.37142 12.2479 4.24594 12.1955 4.1531 12.103C4.06026 12.0104 4.0075 11.885 4.00618 11.7539C4.00486 11.6228 4.05508 11.4965 4.14604 11.402L4.24604 11.302C4.34515 11.2002 4.46592 11.122 4.59939 11.0731C4.73286 11.0243 4.8756 11.0062 5.01704 11.02C5.15754 11.0309 5.29397 11.0723 5.41678 11.1414C5.5396 11.2105 5.64583 11.3056 5.72804 11.42L6.00876 11.8131Z" fill="#202020"/>
<path d="M3.20004 10.001H3.50004C3.63265 10.001 3.75982 10.0537 3.85359 10.1475C3.94736 10.2412 4.00004 10.3684 4.00004 10.501C4.00004 10.6336 3.94736 10.7608 3.85359 10.8546C3.75982 10.9484 3.63265 11.001 3.50004 11.001H3.10004L2.74704 14.648C2.71998 14.9229 2.61758 15.1849 2.45111 15.4053C2.28464 15.6256 2.06056 15.7957 1.80358 15.8969C1.5466 15.998 1.26669 16.0262 0.994684 15.9785C0.722682 15.9307 0.469153 15.8087 0.262037 15.626C0.16622 15.5374 0.108861 15.4148 0.102212 15.2845C0.0955635 15.1541 0.140153 15.0263 0.226454 14.9284C0.312756 14.8305 0.433928 14.7702 0.564086 14.7604C0.694243 14.7506 0.823067 14.7921 0.923037 14.876C0.993846 14.9314 1.07788 14.9674 1.16684 14.9804C1.2558 14.9934 1.34661 14.983 1.43031 14.9502C1.51401 14.9174 1.58771 14.8633 1.64413 14.7933C1.70055 14.7233 1.73775 14.6398 1.75204 14.551L2.10004 11.001H1.75004C1.61743 11.001 1.49025 10.9484 1.39648 10.8546C1.30272 10.7608 1.25004 10.6336 1.25004 10.501C1.25004 10.3684 1.30272 10.2412 1.39648 10.1475C1.49025 10.0537 1.61743 10.001 1.75004 10.001H2.19404L2.25704 9.35403C2.28146 9.10429 2.36814 8.86467 2.50914 8.6571C2.65015 8.44953 2.84098 8.28066 3.06415 8.16594C3.28732 8.05122 3.53571 7.99432 3.78657 8.00045C4.03742 8.00658 4.28274 8.07554 4.50004 8.20103C4.55736 8.23362 4.60767 8.27723 4.64807 8.32934C4.68847 8.38146 4.71817 8.44105 4.73544 8.50469C4.75272 8.56832 4.75724 8.63475 4.74874 8.70014C4.74024 8.76553 4.71889 8.82859 4.68592 8.8857C4.65295 8.9428 4.60901 8.99282 4.55663 9.03287C4.50425 9.07293 4.44446 9.10223 4.38071 9.11908C4.31696 9.13594 4.25051 9.14001 4.18517 9.13108C4.11984 9.12215 4.05692 9.10038 4.00004 9.06703C3.92702 9.02983 3.8462 9.01051 3.76425 9.01068C3.68231 9.01085 3.60157 9.0305 3.52871 9.06801C3.45584 9.10551 3.39294 9.1598 3.34518 9.2264C3.29743 9.29299 3.26619 9.36999 3.25404 9.45103L3.20004 10.001Z" fill="#202020"/>
<path fill-rule="evenodd" clip-rule="evenodd" d="M11.5 16C13.9853 16 16 13.9853 16 11.5C16 9.01472 13.9853 7 11.5 7C9.01472 7 7 9.01472 7 11.5C7 13.9853 9.01472 16 11.5 16ZM13.3536 10.3536C13.5488 10.1583 13.5488 9.84171 13.3536 9.64645C13.1583 9.45118 12.8417 9.45118 12.6464 9.64645L11.5 10.7929L10.3536 9.64645C10.1583 9.45118 9.84171 9.45118 9.64645 9.64645C9.45118 9.84171 9.45118 10.1583 9.64645 10.3536L10.7929 11.5L9.64645 12.6464C9.45118 12.8417 9.45118 13.1583 9.64645 13.3536C9.84171 13.5488 10.1583 13.5488 10.3536 13.3536L11.5 12.2071L12.6464 13.3536C12.8417 13.5488 13.1583 13.5488 13.3536 13.3536C13.5488 13.1583 13.5488 12.8417 13.3536 12.6464L12.2071 11.5L13.3536 10.3536Z" fill="#C50F1F"/>
</g>
<defs>
<clipPath id="clip0_7204_98534">
<rect width="16" height="16" fill="white"/>
</clipPath>
</defs>
</svg>
