<svg width="16" height="16" viewBox="0 0 16 16" fill="none" xmlns="http://www.w3.org/2000/svg">
<path fill-rule="evenodd" clip-rule="evenodd" d="M4.5 2C3.11929 2 2 3.11929 2 4.5V11.5C2 12.8807 3.11929 14 4.5 14H6.59971C6.43777 13.6832 6.30564 13.3486 6.20703 13H6V11H6.02242C6.05337 10.6566 6.11588 10.3223 6.20703 10H6V6L10 6V6.20703C10.3223 6.11588 10.6566 6.05337 11 6.02242V6H13V6.20703C13.3486 6.30564 13.6832 6.43777 14 6.59971V4.5C14 3.11929 12.8807 2 11.5 2H4.5ZM3 11H5V13H4.5C3.67157 13 3 12.3284 3 11.5V11ZM3 6H5V10H3V6ZM10 5L6 5V3H10V5ZM4.5 3H5V5H3V4.5C3 3.67157 3.67157 3 4.5 3ZM13 4.5V5H11V3H11.5C12.3284 3 13 3.67157 13 4.5Z" fill="#202020"/>
<path fill-rule="evenodd" clip-rule="evenodd" d="M16 11.5C16 13.9853 13.9853 16 11.5 16C9.01472 16 7 13.9853 7 11.5C7 9.01472 9.01472 7 11.5 7C13.9853 7 16 9.01472 16 11.5ZM13.8536 9.64645C14.0488 9.84171 14.0488 10.1583 13.8536 10.3536L10.8536 13.3536C10.6583 13.5488 10.3417 13.5488 10.1464 13.3536L9.14645 12.3536C8.95118 12.1583 8.95118 11.8417 9.14645 11.6464C9.34171 11.4512 9.65829 11.4512 9.85355 11.6464L10.5 12.2929L13.1464 9.64645C13.3417 9.45118 13.6583 9.45118 13.8536 9.64645Z" fill="#11910D"/>
</svg>
