<svg width="16" height="16" viewBox="0 0 16 16" fill="none" xmlns="http://www.w3.org/2000/svg">
<path d="M5.5 9C5.224 9 5 9.224 5 9.5C5 9.776 5.224 10 5.5 10H10.5C10.776 10 11 9.776 11 9.5C11 9.224 10.776 9 10.5 9H5.5Z" fill="#202020"/>
<path d="M5.5 11C5.224 11 5 11.224 5 11.5C5 11.776 5.224 12 5.5 12H10.5C10.776 12 11 11.776 11 11.5C11 11.224 10.776 11 10.5 11H5.5Z" fill="#202020"/>
<path fill-rule="evenodd" clip-rule="evenodd" d="M4.5 2H11.5C12.881 2 14 3.119 14 4.5V11.5C14 12.881 12.881 14 11.5 14H4.5C3.119 14 2 12.881 2 11.5V4.5C2 3.119 3.119 2 4.5 2ZM11.5 13C12.328 13 13 12.328 13 11.5V4.5C13 3.672 12.328 3 11.5 3H4.5C3.672 3 3 3.672 3 4.5V11.5C3 12.328 3.672 13 4.5 13H11.5Z" fill="#202020"/>
</svg>
