<svg width="16" height="16" viewBox="0 0 16 16" fill="none" xmlns="http://www.w3.org/2000/svg">
<path d="M3 4.75V6.20703C2.65136 6.30564 2.31679 6.43777 2 6.59971V4.75C2 3.7835 2.7835 3 3.75 3H14.25C15.2165 3 16 3.7835 16 4.75V11.25C16 12.2165 15.2165 13 14.25 13H9.79297C9.88412 12.6777 9.94663 12.3434 9.97758 12H14.25C14.6642 12 15 11.6642 15 11.25V4.75C15 4.33579 14.6642 4 14.25 4H3.75C3.33579 4 3 4.33579 3 4.75Z" fill="#202020"/>
<path fill-rule="evenodd" clip-rule="evenodd" d="M0.634576 10.9201C1.72253 10.6421 2.36853 9.52323 2.06523 8.44208L1.90905 7.8853C2.16313 7.69 2.43852 7.5227 2.73095 7.38782L3.0683 7.74578C3.85724 8.5829 5.188 8.5836 5.97782 7.74731L6.3025 7.40352C6.60029 7.54404 6.88008 7.71831 7.13731 7.9216L7.01112 8.34389C6.68178 9.44603 7.34777 10.5982 8.46721 10.8628L8.81621 10.9454C8.83779 11.1271 8.84891 11.3122 8.84891 11.5C8.84891 11.656 8.84124 11.8101 8.82627 11.962L8.36573 12.0797C7.27778 12.3576 6.63178 13.4765 6.93507 14.5576L7.09122 15.1143C6.83715 15.3096 6.56178 15.477 6.26936 15.6119L5.932 15.2539C5.14306 14.4168 3.8123 14.4161 3.02248 15.2524L2.69749 15.5965C2.39976 15.4561 2.12002 15.2819 1.86284 15.0786L1.98918 14.6558C2.31852 13.5537 1.65253 12.4016 0.533096 12.1369L0.18354 12.0542C0.16198 11.8726 0.150879 11.6876 0.150879 11.5C0.150879 11.3439 0.158554 11.1898 0.173535 11.0378L0.634576 10.9201ZM5.4999 11.5C5.4999 12.0523 5.05218 12.5 4.4999 12.5C3.94761 12.5 3.4999 12.0523 3.4999 11.5C3.4999 10.9477 3.94761 10.5 4.4999 10.5C5.05218 10.5 5.4999 10.9477 5.4999 11.5Z" fill="#202020"/>
</svg>
