<svg width="16" height="16" viewBox="0 0 16 16" fill="none" xmlns="http://www.w3.org/2000/svg">
<path d="M4.5 8C2.505 8 1 8.859 1 10V13C1 14.141 2.505 15 4.5 15C6.495 15 8 14.141 8 13V10C8 8.859 6.495 8 4.5 8ZM4.5 9C6.026 9 7 9.592 7 10C7 10.408 6.026 11 4.5 11C2.974 11 2 10.408 2 10C2 9.592 2.974 9 4.5 9ZM4.5 14C2.974 14 2 13.408 2 13V11.426C2.626 11.784 3.501 12 4.5 12C5.499 12 6.374 11.785 7 11.426V13C7 13.408 6.026 14 4.5 14Z" fill="#3487C7"/>
<path fill-rule="evenodd" clip-rule="evenodd" d="M9 10V13C9 14.105 9.895 15 11 15H14C15.105 15 16 14.105 16 13V10C16 8.895 15.105 8 14 8H11C9.895 8 9 8.895 9 10ZM11 9C10.448 9 10 9.448 10 10H11V9ZM15 12V11H14V12H15ZM14 13H15C15 13.552 14.552 14 14 14V13ZM13 12V11H12V12H13ZM12 13H13V14H12V13ZM11 12V11H10V12H11ZM10 13H11V14C10.448 14 10 13.552 10 13ZM14 9C14.552 9 15 9.448 15 10H14V9ZM13 9V10H12V9H13Z" fill="#202020"/>
<path d="M14.854 1.146C14.76 1.052 14.633 1 14.5 1C14.367 1 14.24 1.053 14.146 1.146C14.052 1.239 14 1.367 14 1.5V4.034C13.414 3.105 12.603 2.339 11.641 1.809C10.679 1.279 9.599 1 8.5 1C7.402 1 6.321 1.278 5.359 1.809C4.397 2.34 3.586 3.105 3 4.034V1.5C3 1.367 2.947 1.24 2.854 1.146C2.761 1.052 2.633 1 2.5 1C2.367 1 2.24 1.053 2.146 1.146C2.052 1.24 2 1.367 2 1.5V5.5C2 5.633 2.053 5.76 2.146 5.854C2.24 5.948 2.367 6 2.5 6H6.5C6.633 6 6.76 5.947 6.854 5.854C6.948 5.76 7 5.633 7 5.5C7 5.367 6.947 5.24 6.854 5.146C6.761 5.052 6.633 5 6.5 5H3.6C4.061 4.097 4.762 3.339 5.627 2.809C6.492 2.28 7.486 1.999 8.5 2C9.514 2 10.508 2.28 11.373 2.809C12.238 3.338 12.939 4.097 13.4 5H10.5C10.367 5 10.24 5.053 10.146 5.146C10.052 5.239 10 5.367 10 5.5C10 5.633 10.053 5.76 10.146 5.854C10.24 5.948 10.367 6 10.5 6H14.5C14.633 6 14.76 5.947 14.854 5.854C14.948 5.76 15 5.633 15 5.5V1.5C15 1.367 14.947 1.24 14.854 1.146Z" fill="#006CBF"/>
</svg>
