<svg width="16" height="16" viewBox="0 0 16 16" fill="none" xmlns="http://www.w3.org/2000/svg">
<path d="M15.1464 11.8536C15.2402 11.9473 15.3674 12 15.5 12C15.6326 12 15.7598 11.9473 15.8536 11.8536C15.9473 11.7598 16 11.6326 16 11.5V4C16 3.46957 15.7893 2.96086 15.4142 2.58579C15.0391 2.21071 14.5304 2 14 2H8C7.46957 2 6.96086 2.21071 6.58579 2.58579C6.21071 2.96086 6 3.46957 6 4V8H7V4C7 3.73478 7.10536 3.48043 7.29289 3.29289C7.48043 3.10536 7.73478 3 8 3H14C14.2652 3 14.5196 3.10536 14.7071 3.29289C14.8946 3.48043 15 3.73478 15 4V11.5C15 11.6326 15.0527 11.7598 15.1464 11.8536Z" fill="#202020"/>
<path d="M11 14V13H12C12.1326 13 12.2598 13.0527 12.3536 13.1464C12.4473 13.2402 12.5 13.3674 12.5 13.5C12.5 13.6326 12.4473 13.7598 12.3536 13.8536C12.2598 13.9473 12.1326 14 12 14H11Z" fill="#202020"/>
<path d="M14 13H15.5C15.6326 13 15.7598 13.0527 15.8536 13.1464C15.9473 13.2402 16 13.3674 16 13.5C16 13.6326 15.9473 13.7598 15.8536 13.8536C15.7598 13.9473 15.6326 14 15.5 14H14C13.8674 14 13.7402 13.9473 13.6464 13.8536C13.5527 13.7598 13.5 13.6326 13.5 13.5C13.5 13.3674 13.5527 13.2402 13.6464 13.1464C13.7402 13.0527 13.8674 13 14 13Z" fill="#202020"/>
<path d="M8.5 16H1.5C0.673 16 0 15.327 0 14.5V10.5C0 9.673 0.673 9 1.5 9H8.5C9.327 9 10 9.673 10 10.5V14.5C10 15.327 9.327 16 8.5 16ZM1.5 10C1.225 10 1 10.225 1 10.5V14.5C1 14.775 1.225 15 1.5 15H8.5C8.775 15 9 14.775 9 14.5V10.5C9 10.225 8.775 10 8.5 10H1.5ZM3.854 13.854C4.049 13.659 4.049 13.342 3.854 13.147L3.208 12.501L3.854 11.855C4.049 11.66 4.049 11.343 3.854 11.148C3.659 10.953 3.342 10.953 3.147 11.148L2.147 12.148C1.952 12.343 1.952 12.66 2.147 12.855L3.147 13.855C3.245 13.953 3.373 14.001 3.501 14.001C3.629 14.001 3.757 13.952 3.855 13.855L3.854 13.854ZM6.854 13.854L7.854 12.854C8.049 12.659 8.049 12.342 7.854 12.147L6.854 11.147C6.659 10.952 6.342 10.952 6.147 11.147C5.952 11.342 5.952 11.659 6.147 11.854L6.793 12.5L6.147 13.146C5.952 13.341 5.952 13.658 6.147 13.853C6.245 13.951 6.373 13.999 6.501 13.999C6.629 13.999 6.757 13.95 6.855 13.853L6.854 13.854Z" fill="#202020"/>
</svg>
