<svg width="16" height="16" viewBox="0 0 16 16" fill="none" xmlns="http://www.w3.org/2000/svg">
<path fill-rule="evenodd" clip-rule="evenodd" d="M7.5 7.75C7.5 7.4816 7.43958 7.22731 7.33159 7H8.66841C8.56042 7.22731 8.5 7.4816 8.5 7.75C8.5 8.7165 9.2835 9.5 10.25 9.5C11.2165 9.5 12 8.7165 12 7.75C12 6.7835 11.2165 6 10.25 6H5.75C4.7835 6 4 6.7835 4 7.75C4 8.7165 4.7835 9.5 5.75 9.5C6.7165 9.5 7.5 8.7165 7.5 7.75ZM5.75 8.5C5.33579 8.5 5 8.16421 5 7.75C5 7.33579 5.33579 7 5.75 7C6.16421 7 6.5 7.33579 6.5 7.75C6.5 8.16421 6.16421 8.5 5.75 8.5ZM9.5 7.75C9.5 7.33579 9.83579 7 10.25 7C10.6642 7 11 7.33579 11 7.75C11 8.16421 10.6642 8.5 10.25 8.5C9.83579 8.5 9.5 8.16421 9.5 7.75Z" fill="#006CBF"/>
<path d="M2 4.5C2 3.67157 2.67157 3 3.5 3H12.5C13.3284 3 14 3.67157 14 4.5V11C14 11.8284 13.3284 12.5 12.5 12.5H10C10 12.1529 9.9278 11.8122 9.79171 11.5H12.5C12.7761 11.5 13 11.2761 13 11V4.5C13 4.22386 12.7761 4 12.5 4H3.5C3.22386 4 3 4.22386 3 4.5V9.99902H2V4.5Z" fill="#006CBF"/>
<path fill-rule="evenodd" clip-rule="evenodd" d="M1.5 10.999H7.5C7.89782 10.999 8.27936 11.1571 8.56066 11.4384C8.84196 11.7197 9 12.1012 9 12.499V14.499C9 14.6316 8.94732 14.7588 8.85355 14.8526C8.75979 14.9463 8.63261 14.999 8.5 14.999H8V15.499C8 15.7752 7.77614 15.999 7.5 15.999C7.22386 15.999 7 15.7752 7 15.499V14.999H2V15.499C2 15.7752 1.77614 15.999 1.5 15.999C1.22386 15.999 1 15.7752 1 15.499V14.999H0.5C0.367392 14.999 0.240215 14.9463 0.146447 14.8526C0.0526784 14.7588 0 14.6316 0 14.499V12.499C0 12.1012 0.158035 11.7197 0.43934 11.4384C0.720644 11.1571 1.10218 10.999 1.5 10.999ZM7.5 13.999C7.63261 13.999 7.75979 13.9463 7.85355 13.8526C7.94732 13.7588 8 13.6316 8 13.499C8 13.4001 7.97068 13.3035 7.91574 13.2212C7.86079 13.139 7.7827 13.0749 7.69134 13.0371C7.59998 12.9992 7.49944 12.9893 7.40245 13.0086C7.30546 13.0279 7.21637 13.0755 7.14645 13.1455C7.07652 13.2154 7.0289 13.3045 7.00961 13.4015C6.99031 13.4985 7.00022 13.599 7.03806 13.6904C7.0759 13.7817 7.13999 13.8598 7.22221 13.9148C7.30444 13.9697 7.40111 13.999 7.5 13.999Z" fill="#202020"/>
</svg>
