<svg width="16" height="16" viewBox="0 0 16 16" fill="none" xmlns="http://www.w3.org/2000/svg">
<g clip-path="url(#clip0_7204_98685)">
<path fill-rule="evenodd" clip-rule="evenodd" d="M3 3C3 1.89543 3.89543 1 5 1H8.58579C8.98361 1 9.36514 1.15804 9.64645 1.43934L12.5607 4.35355C12.842 4.63486 13 5.01639 13 5.41421V6.67315C12.8716 6.52833 12.7222 6.40221 12.5561 6.29937C12.3829 6.19223 12.1954 6.11267 12 6.06261V6H9.5C8.67157 6 8 5.32843 8 4.5V2H5C4.44772 2 4 2.44772 4 3V6.08583C3.79117 6.15929 3.59986 6.27915 3.43894 6.44007C3.21094 6.66807 3.06494 6.95707 3.01694 7.26907C3.01129 7.27107 3.00564 7.27307 3 7.27509V3ZM9.5 5H11.7929L9 2.20711V4.5C9 4.77614 9.22386 5 9.5 5Z" fill="#202020"/>
<path d="M4.5 12.5021C4.698 12.5021 4.891 12.4441 5.056 12.3341C5.22 12.2241 5.348 12.0681 5.424 11.8851C5.5 11.7021 5.52 11.5011 5.481 11.3071C5.442 11.1131 5.347 10.9351 5.207 10.7951C5.067 10.6551 4.889 10.5591 4.695 10.5211C4.501 10.4831 4.3 10.5021 4.117 10.5781C3.934 10.6531 3.778 10.7821 3.668 10.9461C3.559 11.1111 3.5 11.3041 3.5 11.5021C3.5 11.7671 3.606 12.0211 3.793 12.2091C3.98 12.3971 4.235 12.5021 4.5 12.5021Z" fill="#202020"/>
<path fill-rule="evenodd" clip-rule="evenodd" d="M6.03582 14.6302C6.07035 14.4502 6.12972 14.2743 6.21351 14.1079L7.89965 10.7356C7.75488 10.0943 7.43098 9.50509 6.964 9.03811C6.433 8.50711 5.744 8.16111 5 8.05311V7.50211C5 7.36911 4.948 7.24211 4.854 7.14811C4.76 7.05511 4.633 7.00211 4.5 7.00211C4.367 7.00211 4.24 7.05411 4.146 7.14811C4.053 7.24211 4 7.36911 4 7.50211V8.05311C3.256 8.16111 2.567 8.50711 2.036 9.03811C1.505 9.56911 1.159 10.2581 1.051 11.0021H0.5C0.367 11.0021 0.24 11.0541 0.146 11.1481C0.053 11.2421 0 11.3691 0 11.5021C0 11.6351 0.052 11.7621 0.146 11.8561C0.24 11.9491 0.367 12.0021 0.5 12.0021H1.051C1.159 12.7461 1.505 13.4351 2.036 13.9661C2.567 14.4971 3.256 14.8431 4 14.9511V15.5021C4 15.6351 4.052 15.7621 4.146 15.8561C4.24 15.9491 4.367 16.0021 4.5 16.0021C4.633 16.0021 4.76 15.9501 4.854 15.8561C4.947 15.7621 5 15.6351 5 15.5021V14.9511C5.36228 14.8985 5.71152 14.7895 6.03582 14.6302ZM6.268 13.2701C5.859 13.6791 5.321 13.9331 4.745 13.9901C4.169 14.0471 3.593 13.9021 3.112 13.5811C2.631 13.2601 2.276 12.7821 2.108 12.2281C1.94 11.6751 1.969 11.0801 2.19 10.5461C2.411 10.0121 2.811 9.57111 3.321 9.29811C3.831 9.02511 4.42 8.93711 4.987 9.05011C5.554 9.16311 6.065 9.46911 6.432 9.91611C6.799 10.3631 7 10.9241 7 11.5021C7 11.8311 6.935 12.1561 6.81 12.4591C6.684 12.7621 6.5 13.0381 6.268 13.2701Z" fill="#202020"/>
<path fill-rule="evenodd" clip-rule="evenodd" d="M12.3931 7.55201L15.8931 14.552C15.9694 14.7044 16.0056 14.8738 15.9981 15.044C15.9906 15.2143 15.9397 15.3799 15.8502 15.5249C15.7607 15.67 15.6357 15.7898 15.4869 15.8729C15.3381 15.9561 15.1705 15.9998 15.0001 16H8.00006C7.8292 16.0007 7.66101 15.9576 7.51154 15.8748C7.36207 15.792 7.23631 15.6723 7.14625 15.5271C7.0562 15.3818 7.00486 15.216 6.99712 15.0453C6.98938 14.8746 7.02551 14.7048 7.10206 14.552L10.6021 7.55201C10.6849 7.38534 10.8126 7.24509 10.9708 7.14705C11.129 7.04901 11.3114 6.99707 11.4976 6.99707C11.6837 6.99707 11.8661 7.04901 12.0243 7.14705C12.1825 7.24509 12.3102 7.38534 12.3931 7.55201ZM12 12.495V9.495C12 9.36239 11.9473 9.23521 11.8536 9.14144C11.7598 9.04767 11.6326 8.995 11.5 8.995C11.3674 8.995 11.2402 9.04767 11.1464 9.14144C11.0527 9.23521 11 9.36239 11 9.495V12.495C11 12.6276 11.0527 12.7548 11.1464 12.8485C11.2402 12.9423 11.3674 12.995 11.5 12.995C11.6326 12.995 11.7598 12.9423 11.8536 12.8485C11.9473 12.7548 12 12.6276 12 12.495ZM11.2222 14.0843C11.3044 14.0293 11.4011 14 11.5 14C11.6326 14 11.7598 14.0527 11.8536 14.1464C11.9473 14.2402 12 14.3674 12 14.5C12 14.5989 11.9707 14.6956 11.9157 14.7778C11.8608 14.86 11.7827 14.9241 11.6913 14.9619C11.6 14.9998 11.4994 15.0097 11.4025 14.9904C11.3055 14.9711 11.2164 14.9235 11.1464 14.8535C11.0765 14.7836 11.0289 14.6945 11.0096 14.5975C10.9903 14.5006 11.0002 14.4 11.0381 14.3087C11.0759 14.2173 11.14 14.1392 11.2222 14.0843Z" fill="#B27C00"/>
</g>
<defs>
<clipPath id="clip0_7204_98685">
<rect width="16" height="16" fill="white"/>
</clipPath>
</defs>
</svg>
