<svg width="16" height="16" viewBox="0 0 16 16" fill="none" xmlns="http://www.w3.org/2000/svg">
<g clip-path="url(#clip0_7204_98680)">
<path d="M10.5 9V10H9.875C9.392 10 9 10.403 9 10.9V15.1C9 15.597 9.392 16 9.875 16H15.125C15.608 16 16 15.597 16 15.1V10.9C16 10.403 15.608 10 15.125 10H14.5V9C14.5 7.895 13.605 7 12.5 7C11.395 7 10.5 7.895 10.5 9ZM12.5 8C13.052 8 13.5 8.448 13.5 9V10H11.5V9C11.5 8.448 11.948 8 12.5 8ZM12.5 13.75C12.086 13.75 11.75 13.414 11.75 13C11.75 12.586 12.086 12.25 12.5 12.25C12.914 12.25 13.25 12.586 13.25 13C13.25 13.414 12.914 13.75 12.5 13.75Z" fill="#202020"/>
<path fill-rule="evenodd" clip-rule="evenodd" d="M3 3C3 1.89543 3.89543 1 5 1H8.58579C8.98361 1 9.36514 1.15804 9.64645 1.43934L12.5607 4.35355C12.842 4.63486 13 5.01639 13 5.41421V6.20714C12.6777 6.11598 12.3434 6.05347 12 6.02252V6H9.5C8.67157 6 8 5.32843 8 4.5V2H5C4.44772 2 4 2.44772 4 3V6.08583C3.79117 6.15929 3.59986 6.27915 3.43894 6.44007C3.21094 6.66807 3.06494 6.95707 3.01694 7.26907C3.01129 7.27107 3.00564 7.27307 3 7.27509V3ZM9.5 5H11.7929L9 2.20711V4.5C9 4.77614 9.22386 5 9.5 5Z" fill="#202020"/>
<path d="M4.5 12.501C4.698 12.501 4.891 12.443 5.056 12.333C5.22 12.223 5.348 12.067 5.424 11.884C5.5 11.701 5.52 11.5 5.481 11.306C5.442 11.112 5.347 10.934 5.207 10.794C5.067 10.654 4.889 10.558 4.695 10.52C4.501 10.482 4.3 10.501 4.117 10.577C3.934 10.652 3.778 10.781 3.668 10.945C3.559 11.11 3.5 11.303 3.5 11.501C3.5 11.766 3.606 12.02 3.793 12.208C3.98 12.396 4.235 12.501 4.5 12.501Z" fill="#202020"/>
<path fill-rule="evenodd" clip-rule="evenodd" d="M8 11.001H7.949C7.841 10.257 7.495 9.56801 6.964 9.03701C6.433 8.50601 5.744 8.16001 5 8.05201V7.50101C5 7.36801 4.948 7.24101 4.854 7.14701C4.76 7.05401 4.633 7.00101 4.5 7.00101C4.367 7.00101 4.24 7.05301 4.146 7.14701C4.053 7.24101 4 7.36801 4 7.50101V8.05201C3.256 8.16001 2.567 8.50601 2.036 9.03701C1.505 9.56801 1.159 10.257 1.051 11.001H0.5C0.367 11.001 0.24 11.053 0.146 11.147C0.053 11.241 0 11.368 0 11.501C0 11.634 0.052 11.761 0.146 11.855C0.24 11.948 0.367 12.001 0.5 12.001H1.051C1.159 12.745 1.505 13.434 2.036 13.965C2.567 14.496 3.256 14.842 4 14.95V15.501C4 15.634 4.052 15.761 4.146 15.855C4.24 15.948 4.367 16.001 4.5 16.001C4.633 16.001 4.76 15.949 4.854 15.855C4.947 15.761 5 15.634 5 15.501V14.95C5.744 14.842 6.433 14.496 6.964 13.965C7.495 13.434 7.841 12.745 7.949 12.001H8V11.001ZM6.268 13.269C5.859 13.678 5.321 13.932 4.745 13.989C4.169 14.046 3.593 13.901 3.112 13.58C2.631 13.259 2.276 12.781 2.108 12.227C1.94 11.674 1.969 11.079 2.19 10.545C2.411 10.011 2.811 9.57001 3.321 9.29701C3.831 9.02401 4.42 8.93601 4.987 9.04901C5.554 9.16201 6.065 9.46801 6.432 9.91501C6.799 10.362 7 10.923 7 11.501C7 11.83 6.935 12.155 6.81 12.458C6.684 12.761 6.5 13.037 6.268 13.269Z" fill="#202020"/>
</g>
<defs>
<clipPath id="clip0_7204_98680">
<rect width="16" height="16" fill="white"/>
</clipPath>
</defs>
</svg>
