<svg width="16" height="16" viewBox="0 0 16 16" fill="none" xmlns="http://www.w3.org/2000/svg">
<g clip-path="url(#clip0_7204_98675)">
<path fill-rule="evenodd" clip-rule="evenodd" d="M3 3C3 1.89543 3.89543 1 5 1H8.58579C8.98361 1 9.36514 1.15804 9.64645 1.43934L12.5607 4.35355C12.842 4.63486 13 5.01639 13 5.41421V6.20714C12.6777 6.11598 12.3434 6.05347 12 6.02252V6H9.5C8.67157 6 8 5.32843 8 4.5V2H5C4.44772 2 4 2.44772 4 3V6.08583C3.79117 6.15929 3.59986 6.27915 3.43894 6.44007C3.21094 6.66807 3.06494 6.95707 3.01694 7.26907C3.01129 7.27107 3.00564 7.27307 3 7.27509V3ZM9.5 5H11.7929L9 2.20711V4.5C9 4.77614 9.22386 5 9.5 5Z" fill="#202020"/>
<path d="M6.70509 8.80379C6.21729 8.40509 5.62825 8.14418 5 8.05298V7.50198C5 7.36898 4.948 7.24198 4.854 7.14798C4.76 7.05498 4.633 7.00198 4.5 7.00198C4.367 7.00198 4.24 7.05398 4.146 7.14798C4.053 7.24198 4 7.36898 4 7.50198V8.05298C3.256 8.16098 2.567 8.50698 2.036 9.03798C1.505 9.56898 1.159 10.258 1.051 11.002H0.5C0.367 11.002 0.24 11.054 0.146 11.148C0.053 11.242 0 11.369 0 11.502C0 11.635 0.052 11.762 0.146 11.856C0.24 11.949 0.367 12.002 0.5 12.002H1.051C1.159 12.746 1.505 13.435 2.036 13.966C2.567 14.497 3.256 14.843 4 14.951V15.502C4 15.635 4.052 15.762 4.146 15.856C4.24 15.949 4.367 16.002 4.5 16.002C4.633 16.002 4.76 15.95 4.854 15.856C4.947 15.762 5 15.635 5 15.502V14.951C5.62891 14.8597 6.21852 14.5983 6.70662 14.1989C6.53782 13.8998 6.39621 13.5832 6.28515 13.2527C6.27946 13.2585 6.27375 13.2642 6.268 13.27C5.859 13.679 5.321 13.933 4.745 13.99C4.169 14.047 3.593 13.902 3.112 13.581C2.631 13.26 2.276 12.782 2.108 12.228C1.94 11.675 1.969 11.08 2.19 10.546C2.411 10.012 2.811 9.57098 3.321 9.29798C3.831 9.02498 4.42 8.93698 4.987 9.04998C5.48129 9.14849 5.93302 9.39368 6.2839 9.75109C6.3948 9.42016 6.53632 9.10328 6.70509 8.80379Z" fill="#202020"/>
<path d="M4.5 12.502C4.698 12.502 4.891 12.444 5.056 12.334C5.22 12.224 5.348 12.068 5.424 11.885C5.5 11.702 5.52 11.501 5.481 11.307C5.442 11.113 5.347 10.935 5.207 10.795C5.067 10.655 4.889 10.559 4.695 10.521C4.501 10.483 4.3 10.502 4.117 10.578C3.934 10.653 3.778 10.782 3.668 10.946C3.559 11.111 3.5 11.304 3.5 11.502C3.5 11.767 3.606 12.021 3.793 12.209C3.98 12.397 4.235 12.502 4.5 12.502Z" fill="#202020"/>
<path fill-rule="evenodd" clip-rule="evenodd" d="M11.5 16C13.9853 16 16 13.9853 16 11.5C16 9.01472 13.9853 7 11.5 7C9.01472 7 7 9.01472 7 11.5C7 13.9853 9.01472 16 11.5 16ZM13.3536 10.3536C13.5488 10.1583 13.5488 9.84171 13.3536 9.64645C13.1583 9.45118 12.8417 9.45118 12.6464 9.64645L11.5 10.7929L10.3536 9.64645C10.1583 9.45118 9.84171 9.45118 9.64645 9.64645C9.45118 9.84171 9.45118 10.1583 9.64645 10.3536L10.7929 11.5L9.64645 12.6464C9.45118 12.8417 9.45118 13.1583 9.64645 13.3536C9.84171 13.5488 10.1583 13.5488 10.3536 13.3536L11.5 12.2071L12.6464 13.3536C12.8417 13.5488 13.1583 13.5488 13.3536 13.3536C13.5488 13.1583 13.5488 12.8417 13.3536 12.6464L12.2071 11.5L13.3536 10.3536Z" fill="#C50F1F"/>
</g>
<defs>
<clipPath id="clip0_7204_98675">
<rect width="16" height="16" fill="white"/>
</clipPath>
</defs>
</svg>
