<svg width="16" height="16" viewBox="0 0 16 16" fill="none" xmlns="http://www.w3.org/2000/svg">
<path d="M5.5 6H11.5C11.776 6 12 5.776 12 5.5C12 5.224 11.776 5 11.5 5H5.5C5.224 5 5 5.224 5 5.5C5 5.776 5.224 6 5.5 6Z" fill="#202020"/>
<path d="M8.50002 8H5.14001C4.86401 8 4.64001 7.776 4.64001 7.5C4.64001 7.224 4.86401 7 5.14001 7H8.50002C8.77601 7 9.00002 7.224 9.00002 7.5C9.00002 7.776 8.77601 8 8.50002 8Z" fill="#202020"/>
<path d="M4.77002 10H6.50002C6.77602 10 7.00002 9.776 7.00002 9.5C7.00002 9.224 6.77602 9 6.50002 9H4.77002C4.49402 9 4.27002 9.224 4.27002 9.5C4.27002 9.776 4.49402 10 4.77002 10Z" fill="#202020"/>
<path fill-rule="evenodd" clip-rule="evenodd" d="M3.29701 14H10.831C12.039 14 13.073 13.136 13.29 11.947L14.67 4.358C14.776 3.772 14.618 3.175 14.237 2.718C13.856 2.262 13.297 2 12.702 2H5.16801C3.96001 2 2.92601 2.864 2.70901 4.053L1.32901 11.642C1.22301 12.228 1.38101 12.825 1.76201 13.282C2.14301 13.738 2.70201 14 3.29701 14ZM3.69301 4.232C3.82301 3.518 4.44401 3 5.16901 3H12.703C13.001 3 13.281 3.131 13.471 3.359C13.662 3.587 13.741 3.886 13.688 4.179L12.308 11.768C12.178 12.482 11.557 13 10.832 13H3.29801C3.00001 13 2.72001 12.869 2.53001 12.641C2.33901 12.413 2.26001 12.114 2.31301 11.821L3.69301 4.232Z" fill="#202020"/>
</svg>
