<svg width="16" height="16" viewBox="0 0 16 16" fill="none" xmlns="http://www.w3.org/2000/svg">
<path d="M8.59698 4.5C8.35098 4.5 8.11298 4.677 8.02498 4.91L7.99898 5L7.31898 8.5L7.30998 8.59C7.30698 8.823 7.47598 9 7.72198 9C7.96798 9 8.20598 8.823 8.29398 8.59L8.31898 8.5L8.99898 5L9.00898 4.91C9.01198 4.677 8.84298 4.5 8.59698 4.5Z" fill="#202020"/>
<path d="M6.63199 10.75C6.71299 10.336 7.11399 10 7.52799 10C7.94199 10 8.21199 10.336 8.13199 10.75C8.05099 11.164 7.64999 11.5 7.23599 11.5C6.82199 11.5 6.55099 11.164 6.63199 10.75Z" fill="#202020"/>
<path fill-rule="evenodd" clip-rule="evenodd" d="M14.238 2.718C13.857 2.262 13.298 2 12.703 2H5.16899C3.96099 2 2.92699 2.864 2.70999 4.053L1.32999 11.642C1.22399 12.228 1.38199 12.825 1.76299 13.282C2.14399 13.738 2.70299 14 3.29799 14H10.832C12.04 14 13.074 13.136 13.291 11.947L14.671 4.358C14.777 3.772 14.619 3.175 14.238 2.718ZM12.309 11.768C12.179 12.482 11.558 13 10.833 13H3.29899C3.00099 13 2.72099 12.869 2.53099 12.641C2.33999 12.413 2.26099 12.114 2.31399 11.821L3.69399 4.232C3.82399 3.518 4.44499 3 5.16999 3H12.704C13.002 3 13.282 3.131 13.472 3.359C13.663 3.587 13.742 3.886 13.689 4.179L12.309 11.768Z" fill="#202020"/>
</svg>
