<svg width="16" height="16" viewBox="0 0 16 16" fill="none" xmlns="http://www.w3.org/2000/svg">
<path d="M10.854 6.147C11.049 6.342 11.049 6.659 10.854 6.854L7.35502 10.354C7.16002 10.549 6.84302 10.549 6.64802 10.354L5.14802 8.854C4.95302 8.659 4.95302 8.342 5.14802 8.147C5.34302 7.952 5.66002 7.952 5.85502 8.147L7.00102 9.293L10.147 6.147C10.342 5.952 10.659 5.952 10.854 6.147Z" fill="#202020"/>
<path fill-rule="evenodd" clip-rule="evenodd" d="M3.29701 14H10.831C12.039 14 13.073 13.136 13.29 11.947L14.67 4.358C14.776 3.772 14.618 3.175 14.237 2.718C13.856 2.262 13.297 2 12.702 2H5.16801C3.96001 2 2.92601 2.864 2.70901 4.053L1.32901 11.642C1.22301 12.228 1.38101 12.825 1.76201 13.282C2.14301 13.738 2.70201 14 3.29701 14ZM3.69301 4.232C3.82301 3.518 4.44401 3 5.16901 3H12.703C13.001 3 13.281 3.131 13.471 3.359C13.662 3.587 13.741 3.886 13.688 4.179L12.308 11.768C12.178 12.482 11.557 13 10.832 13H3.29801C3.00001 13 2.72001 12.869 2.53001 12.641C2.33901 12.413 2.26001 12.114 2.31301 11.821L3.69301 4.232Z" fill="#202020"/>
</svg>
