<svg width="16" height="16" viewBox="0 0 16 16" fill="none" xmlns="http://www.w3.org/2000/svg">
<path d="M3.5 12H5V13.25C5 13.664 4.664 14 4.25 14C3.836 14 3.5 13.664 3.5 13.25V12ZM10.997 13.25C10.997 13.664 11.333 14 11.747 14C12.161 14 12.497 13.664 12.497 13.25V12H10.997V13.25ZM11.498 9C11.498 8.586 11.163 8.251 10.749 8.251C10.335 8.251 10 8.586 10 9C10 9.414 10.335 9.749 10.749 9.749C11.163 9.749 11.498 9.414 11.498 9ZM5.251 8.251C4.837 8.251 4.502 8.586 4.502 9C4.502 9.414 4.837 9.749 5.251 9.749C5.665 9.749 6 9.414 6 9C6 8.586 5.665 8.251 5.251 8.251ZM10 1.5C10 1.224 9.776 1 9.5 1H6.5C6.224 1 6 1.224 6 1.5V2H10V1.5ZM4 5.5C4 5.224 3.776 5 3.5 5H2.5C2.224 5 2 5.224 2 5.5C2 5.776 2.224 6 2.5 6H3.5C3.776 6 4 5.776 4 5.5ZM13.5 5H12.5C12.224 5 12 5.224 12 5.5C12 5.776 12.224 6 12.5 6H13.5C13.776 6 14 5.776 14 5.5C14 5.224 13.776 5 13.5 5Z" fill="#202020"/>
<path d="M12.951 6.077L12.66 3.751C12.535 2.753 11.682 2 10.676 2H5.324C4.318 2 3.465 2.753 3.34 3.751L3.049 6.077C2.443 6.27 2 6.831 2 7.5V10.5C2 11.327 2.673 12 3.5 12H12.5C13.327 12 14 11.327 14 10.5V7.5C14 6.831 13.557 6.27 12.951 6.077ZM5.324 3H10.676C11.179 3 11.606 3.376 11.668 3.876L11.934 6H4.067L4.333 3.876C4.395 3.376 4.821 3 5.324 3ZM13 10.5C13 10.775 12.776 11 12.5 11H3.5C3.224 11 3 10.775 3 10.5V7.5C3 7.225 3.224 7 3.5 7H12.5C12.776 7 13 7.225 13 7.5V10.5Z" fill="#B27C00"/>
</svg>
