<svg width="16" height="16" viewBox="0 0 16 16" fill="none" xmlns="http://www.w3.org/2000/svg">
<path fill-rule="evenodd" clip-rule="evenodd" d="M3 4.5C3 3.11929 4.11929 2 5.5 2H12.5C13.8807 2 15 3.11929 15 4.5V11.5C15 12.8807 13.8807 14 12.5 14H10.8567C10.9599 13.7073 10.999 13.4407 10.999 13.25C10.999 13.1655 10.9943 13.0821 10.9852 13H12.5C13.3284 13 14 12.3284 14 11.5V6H4V6.1715C3.68704 6.06046 3.35041 6 3 6V4.5ZM4 5H14V4.5C14 3.67157 13.3284 3 12.5 3H5.5C4.67157 3 4 3.67157 4 4.5V5Z" fill="#202020"/>
<path d="M3 11C4.105 11 5 10.105 5 9C5 7.895 4.105 7 3 7C1.895 7 1 7.895 1 9C1 10.105 1.895 11 3 11ZM7.5 11C8.328 11 9 10.328 9 9.5C9 8.672 8.328 8 7.5 8C6.672 8 6 8.672 6 9.5C6 10.328 6.672 11 7.5 11ZM1.25 12C0.56 12 0 12.56 0 13.25C0 13.25 0 15.5 3 15.5C5.378 15.5 5.871 14.086 5.973 13.5C6 13.347 6 13.25 6 13.25C6 12.56 5.44 12 4.75 12H1.25ZM6.996 13.6C6.994 13.64 6.99 13.688 6.984 13.742C6.971 13.849 6.948 13.983 6.906 14.136C6.844 14.359 6.74 14.626 6.565 14.901C6.829 14.963 7.138 15 7.5 15C10 15 10 13.25 10 13.25C10 12.56 9.44 12 8.75 12H6.621C6.86 12.358 7 12.787 7 13.25V13.5L6.997 13.6H6.996Z" fill="#202020"/>
</svg>
