<svg width="16" height="16" viewBox="0 0 16 16" fill="none" xmlns="http://www.w3.org/2000/svg">
<path d="M9.5 3H4.5C3.121 3 2 4.122 2 5.5V6.17141C2.31292 6.06043 2.64955 6 3 6V5.5C3 4.673 3.673 4 4.5 4H9.5C10.327 4 11 4.673 11 5.5V6.02242C11.1647 6.00758 11.3315 6 11.5 6C11.6685 6 11.8353 6.00758 12 6.02242V5.5C12 4.122 10.879 3 9.5 3Z" fill="#202020"/>
<path d="M14 5.5V6.59971C13.6832 6.43777 13.3486 6.30564 13 6.20703V5.5C13 3.567 11.433 2 9.5 2H4C4.456 1.393 5.182 1 6 1H9.5C11.985 1 14 3.015 14 5.5Z" fill="#202020"/>
<path d="M3 11C4.105 11 5 10.105 5 9C5 7.895 4.105 7 3 7C1.895 7 1 7.895 1 9C1 10.105 1.895 11 3 11Z" fill="#202020"/>
<path d="M1.25 12C0.56 12 0 12.56 0 13.25C0 13.25 0 15.5 3 15.5C5.378 15.5 5.871 14.086 5.973 13.5C6 13.347 6 13.25 6 13.25C6 12.56 5.44 12 4.75 12H1.25Z" fill="#202020"/>
<path fill-rule="evenodd" clip-rule="evenodd" d="M11.5 16C13.9853 16 16 13.9853 16 11.5C16 9.01472 13.9853 7 11.5 7C9.01472 7 7 9.01472 7 11.5C7 13.9853 9.01472 16 11.5 16ZM13.3536 10.3536C13.5488 10.1583 13.5488 9.84171 13.3536 9.64645C13.1583 9.45118 12.8417 9.45118 12.6464 9.64645L11.5 10.7929L10.3536 9.64645C10.1583 9.45118 9.84171 9.45118 9.64645 9.64645C9.45118 9.84171 9.45118 10.1583 9.64645 10.3536L10.7929 11.5L9.64645 12.6464C9.45118 12.8417 9.45118 13.1583 9.64645 13.3536C9.84171 13.5488 10.1583 13.5488 10.3536 13.3536L11.5 12.2071L12.6464 13.3536C12.8417 13.5488 13.1583 13.5488 13.3536 13.3536C13.5488 13.1583 13.5488 12.8417 13.3536 12.6464L12.2071 11.5L13.3536 10.3536Z" fill="#C50F1F"/>
</svg>
