<svg width="16" height="16" viewBox="0 0 16 16" fill="none" xmlns="http://www.w3.org/2000/svg">
<path d="M4.5 3H9.5C10.879 3 12 4.122 12 5.5V10.5C12 11.3621 11.5613 12.1239 10.8952 12.5736C10.792 12.247 10.6163 11.9525 10.387 11.7089C10.7585 11.4356 11 10.9955 11 10.5V5.5C11 4.673 10.327 4 9.5 4H4.5C3.673 4 3 4.673 3 5.5V6C2.64955 6 2.31292 6.06043 2 6.17141V5.5C2 4.122 3.121 3 4.5 3Z" fill="#202020"/>
<path d="M14 8V5.5C14 3.015 11.985 1 9.5 1H6C5.182 1 4.456 1.393 4 2H9.5C11.433 2 13 3.567 13 5.5V10C13.607 9.544 14 8.818 14 8Z" fill="#202020"/>
<path d="M3 11C4.105 11 5 10.105 5 9C5 7.895 4.105 7 3 7C1.895 7 1 7.895 1 9C1 10.105 1.895 11 3 11ZM7.5 11C8.328 11 9 10.328 9 9.5C9 8.672 8.328 8 7.5 8C6.672 8 6 8.672 6 9.5C6 10.328 6.672 11 7.5 11ZM1.25 12C0.56 12 0 12.56 0 13.25C0 13.25 0 15.5 3 15.5C5.378 15.5 5.871 14.086 5.973 13.5C6 13.347 6 13.25 6 13.25C6 12.56 5.44 12 4.75 12H1.25ZM6.996 13.6C6.994 13.64 6.99 13.688 6.984 13.742C6.971 13.849 6.948 13.983 6.906 14.136C6.844 14.359 6.74 14.626 6.565 14.901C6.829 14.963 7.138 15 7.5 15C10 15 10 13.25 10 13.25C10 12.56 9.44 12 8.75 12H6.621C6.86 12.358 7 12.787 7 13.25V13.5L6.997 13.6H6.996Z" fill="#202020"/>
</svg>
