<svg width="16" height="16" viewBox="0 0 16 16" fill="none" xmlns="http://www.w3.org/2000/svg">
<g clip-path="url(#clip0_7204_98825)">
<path d="M4.5 3C4.22386 3 4 3.22386 4 3.5V4.5C4 4.77614 4.22386 5 4.5 5C4.77614 5 5 4.77614 5 4.5V4H7.5V12H7C6.72386 12 6.5 12.2239 6.5 12.5C6.5 12.7761 6.72386 13 7 13H8.02746C8.00932 12.8358 8 12.669 8 12.5C8 11.7562 8.18047 11.0545 8.5 10.4364V4H11V4.5C11 4.77614 11.2239 5 11.5 5C11.7761 5 12 4.77614 12 4.5V3.5C12 3.22386 11.7761 3 11.5 3H4.5Z" fill="#202020"/>
<path d="M13.9437 8.23657C13.4905 8.08318 13.005 8 12.5 8C12.4321 8 12.3645 8.0015 12.2974 8.00448L11.6464 7.35355C11.4512 7.15829 11.4512 6.84171 11.6464 6.64645C11.8417 6.45118 12.1583 6.45118 12.3536 6.64645L13.9437 8.23657Z" fill="#202020"/>
<path d="M4.35355 7.35355C4.54882 7.15829 4.54882 6.84171 4.35355 6.64645C4.15829 6.45118 3.84171 6.45118 3.64645 6.64645L1.14645 9.14645C0.951184 9.34171 0.951184 9.65829 1.14645 9.85355L3.64645 12.3536C3.84171 12.5488 4.15829 12.5488 4.35355 12.3536C4.54882 12.1583 4.54882 11.8417 4.35355 11.6464L2.20711 9.5L4.35355 7.35355Z" fill="#202020"/>
<path fill-rule="evenodd" clip-rule="evenodd" d="M12.5 16C14.433 16 16 14.433 16 12.5C16 10.567 14.433 9 12.5 9C10.567 9 9 10.567 9 12.5C9 14.433 10.567 16 12.5 16ZM15 12.5C15 13.8807 13.8807 15 12.5 15C11.9905 15 11.5165 14.8476 11.1213 14.5858L14.5858 11.1213C14.8476 11.5165 15 11.9905 15 12.5ZM10.4142 13.8787L13.8787 10.4142C13.4835 10.1524 13.0095 10 12.5 10C11.1193 10 10 11.1193 10 12.5C10 13.0095 10.1524 13.4835 10.4142 13.8787Z" fill="#202020"/>
</g>
<defs>
<clipPath id="clip0_7204_98825">
<rect width="16" height="16" fill="white"/>
</clipPath>
</defs>
</svg>
