<svg width="16" height="16" viewBox="0 0 16 16" fill="none" xmlns="http://www.w3.org/2000/svg">
<path d="M4.5 3C4.22386 3 4 3.22386 4 3.5V4.5C4 4.77614 4.22386 5 4.5 5C4.77614 5 5 4.77614 5 4.5V4H7.5V12H7C6.72386 12 6.5 12.2239 6.5 12.5C6.5 12.7761 6.72386 13 7 13H9C9.00017 12.6714 9.08131 12.3482 9.23578 12.059C9.16553 12.0213 9.08526 12 9 12H8.5V4H11V4.5C11 4.77614 11.2239 5 11.5 5C11.7761 5 12 4.77614 12 4.5V3.5C12 3.22386 11.7761 3 11.5 3H4.5Z" fill="#202020"/>
<path d="M13.8219 8.11477C13.5569 8.03927 13.2805 8 13 8C12.7837 8 12.5697 8.02337 12.3616 8.0687L11.6464 7.35355C11.4512 7.15829 11.4512 6.84171 11.6464 6.64645C11.8417 6.45118 12.1583 6.45118 12.3536 6.64645L13.8219 8.11477Z" fill="#202020"/>
<path d="M4.35355 7.35355C4.54882 7.15829 4.54882 6.84171 4.35355 6.64645C4.15829 6.45118 3.84171 6.45118 3.64645 6.64645L1.14645 9.14645C0.951184 9.34171 0.951184 9.65829 1.14645 9.85355L3.64645 12.3536C3.84171 12.5488 4.15829 12.5488 4.35355 12.3536C4.54882 12.1583 4.54882 11.8417 4.35355 11.6464L2.20711 9.5L4.35355 7.35355Z" fill="#202020"/>
<path d="M11 12V11C11 9.89543 11.8954 9 13 9C14.1046 9 15 9.89543 15 11V12C15.5523 12 16 12.4477 16 13V15C16 15.5523 15.5523 16 15 16H11C10.4477 16 10 15.5523 10 15V13C10 12.4477 10.4477 12 11 12ZM12 11V12H14V11C14 10.4477 13.5523 10 13 10C12.4477 10 12 10.4477 12 11Z" fill="#202020"/>
</svg>
