<svg width="16" height="16" viewBox="0 0 16 16" fill="none" xmlns="http://www.w3.org/2000/svg">
<path fill-rule="evenodd" clip-rule="evenodd" d="M3.5 2C2.11929 2 1 3.11929 1 4.5V11.5C1 12.8807 2.11929 14 3.5 14H8V13H3.5C2.67157 13 2 12.3284 2 11.5V6H12V6.04168C12.1626 6.01427 12.3297 6 12.5 6C12.6703 6 12.8374 6.01427 13 6.04168V4.5C13 3.11929 11.8807 2 10.5 2H3.5ZM12 5H2V4.5C2 3.67157 2.67157 3 3.5 3H10.5C11.3284 3 12 3.67157 12 4.5V5Z" fill="#202020"/>
<path d="M8.2243 10H6.5C6.22386 10 6 10.2239 6 10.5C6 10.7761 6.22386 11 6.5 11H8V10.901C8 10.5752 8.08125 10.2683 8.2243 10Z" fill="#202020"/>
<path d="M5.35355 8.64645L3.85355 7.14645C3.65829 6.95118 3.34171 6.95118 3.14645 7.14645C2.95118 7.34171 2.95118 7.65829 3.14645 7.85355L4.29289 9L3.14645 10.1464C2.95118 10.3417 2.95118 10.6583 3.14645 10.8536C3.34171 11.0488 3.65829 11.0488 3.85355 10.8536L5.35355 9.35355C5.54882 9.15829 5.54882 8.84171 5.35355 8.64645Z" fill="#202020"/>
<path d="M10.5 9V10H9.875C9.392 10 9 10.403 9 10.9V15.1C9 15.597 9.392 16 9.875 16H15.125C15.608 16 16 15.597 16 15.1V10.9C16 10.403 15.608 10 15.125 10H14.5V9C14.5 7.895 13.605 7 12.5 7C11.395 7 10.5 7.895 10.5 9ZM12.5 8C13.052 8 13.5 8.448 13.5 9V10H11.5V9C11.5 8.448 11.948 8 12.5 8ZM12.5 13.75C12.086 13.75 11.75 13.414 11.75 13C11.75 12.586 12.086 12.25 12.5 12.25C12.914 12.25 13.25 12.586 13.25 13C13.25 13.414 12.914 13.75 12.5 13.75Z" fill="#202020"/>
</svg>
