<svg width="16" height="16" viewBox="0 0 16 16" fill="none" xmlns="http://www.w3.org/2000/svg">
<path d="M10.477 8.453L11.033 9.406L11.954 9L11.341 7.949C11.118 7.566 11 7.132 11 6.689V3H11.5C11.776 3 12 2.776 12 2.5C12 2.224 11.776 2 11.5 2H6.5C6.224 2 6 2.224 6 2.5C6 2.776 6.224 3 6.5 3H7V6.69C7 7.133 6.882 7.568 6.659 7.95L6.61277 8.02926L7.53845 8.42619C7.84044 7.89676 8 7.29868 8 6.689V3H10V6.689C10 7.309 10.165 7.918 10.477 8.453Z" fill="#202020"/>
<path d="M9.72072 14H12.259C13.417 14 14.138 12.744 13.555 11.744L11.954 9H8.87134C9.19505 9.15668 9.47107 9.39804 9.66967 9.69921C9.73287 9.79505 9.78741 9.89571 9.83294 10H11.379L12.69 12.248C12.884 12.581 12.644 13 12.258 13H9.99991C9.99649 13.3525 9.89996 13.6974 9.72072 14Z" fill="#159195"/>
<path d="M8.394 9.88001L5.894 8.80901C5.7695 8.75564 5.63546 8.72812 5.5 8.72812C5.36454 8.72812 5.2305 8.75564 5.106 8.80901L0.606 10.74C0.426157 10.8171 0.272882 10.9453 0.165165 11.1086C0.0574481 11.272 2.16103e-05 11.4633 0 11.659V13.841C2.16103e-05 14.0367 0.0574481 14.228 0.165165 14.3914C0.272882 14.5548 0.426157 14.6829 0.606 14.76L3.106 15.831C3.2305 15.8844 3.36454 15.9119 3.5 15.9119C3.63546 15.9119 3.7695 15.8844 3.894 15.831L8.394 13.9C8.57384 13.8229 8.72712 13.6948 8.83484 13.5314C8.94255 13.368 8.99998 13.1767 9 12.981V10.8C9.00017 10.6042 8.94284 10.4126 8.83511 10.249C8.72738 10.0855 8.574 9.95717 8.394 9.88001V9.88001ZM7.694 11.246L4 12.83V14.5C4 14.6326 3.94732 14.7598 3.85355 14.8536C3.75979 14.9473 3.63261 15 3.5 15C3.36739 15 3.24021 14.9473 3.14645 14.8536C3.05268 14.7598 3 14.6326 3 14.5V12.83L1.3 12.1C1.23959 12.0741 1.18487 12.0366 1.13896 11.9896C1.09305 11.9426 1.05685 11.887 1.03243 11.826C0.983109 11.7028 0.984752 11.565 1.037 11.443C1.08925 11.321 1.18782 11.2248 1.31103 11.1754C1.43424 11.1261 1.572 11.1278 1.694 11.18L3.494 11.953L7.294 10.323C7.35441 10.2971 7.41932 10.2834 7.48503 10.2826C7.55074 10.2819 7.61596 10.294 7.67697 10.3184C7.73798 10.3429 7.79358 10.3791 7.8406 10.425C7.88761 10.4709 7.92513 10.5256 7.951 10.586C7.97687 10.6464 7.99059 10.7113 7.99137 10.777C7.99216 10.8427 7.97999 10.908 7.95557 10.969C7.93115 11.03 7.89495 11.0856 7.84904 11.1326C7.80313 11.1796 7.74841 11.2171 7.688 11.243L7.694 11.246Z" fill="#006CBF"/>
</svg>
