<svg width="16" height="16" viewBox="0 0 16 16" fill="none" xmlns="http://www.w3.org/2000/svg">
<g clip-path="url(#clip0_7204_99099)">
<path d="M14.75 0H10.25C9.64999 0 9.16999 0.43 9.04999 1H14.75C14.89 1 15 1.11 15 1.25V7.75C15 7.89 14.89 8 14.75 8H11.53L12.11 9H14.75C15.44 9 16 8.44 16 7.75V1.25C16 0.56 15.44 0 14.75 0Z" fill="#202020"/>
<path d="M14 2.5C14 2.78 13.78 3 13.5 3H11.92C11.97 2.84 12 2.67 12 2.5C12 2.32 11.97 2.16 11.91 2H13.5C13.78 2 14 2.22 14 2.5Z" fill="#202020"/>
<path d="M9.477 8.453L10.033 9.406L10.954 9L10.341 7.949C10.118 7.566 10 7.132 10 6.689V3H10.5C10.776 3 11 2.776 11 2.5C11 2.224 10.776 2 10.5 2H5.5C5.224 2 5 2.224 5 2.5C5 2.776 5.224 3 5.5 3H6V5.74476C6.37524 5.99179 6.7132 6.29417 7 6.64151V3H9V6.689C9 7.309 9.165 7.918 9.477 8.453Z" fill="#202020"/>
<path d="M4.41924 13.9664L4.40186 13.949C4.39146 13.9511 4.38105 13.9531 4.37063 13.9551C4.38671 13.9591 4.40292 13.9629 4.41924 13.9664Z" fill="#159195"/>
<path d="M10.9703 14H11.259C12.417 14 13.138 12.744 12.555 11.744L10.954 9H8.00349C8.04193 9.33231 8.04325 9.66795 8.00793 10H10.379L11.69 12.248C11.884 12.581 11.645 13 11.259 13H10.5145C10.6318 13.155 10.7336 13.3285 10.8149 13.515C10.8836 13.6728 10.9354 13.8347 10.9703 14Z" fill="#159195"/>
<path d="M2.75809 6.33501C2.76709 6.26601 2.79409 6.20101 2.83709 6.14601C2.88009 6.09101 2.93609 6.04901 3.00009 6.02401C3.03509 6.01001 3.07109 6.00201 3.10809 5.99801C3.70209 5.92801 4.30509 6.01201 4.85809 6.24001C5.41109 6.46801 5.89709 6.83301 6.27009 7.30101C6.64309 7.76901 6.89009 8.32401 6.98809 8.91501C7.08609 9.50601 7.03309 10.111 6.83209 10.674L9.55809 13.4C9.70409 13.539 9.82009 13.705 9.90009 13.89C9.98009 14.074 10.0231 14.273 10.0251 14.474C10.0271 14.675 9.99009 14.875 9.91409 15.061C9.83809 15.247 9.72609 15.417 9.58409 15.559C9.44209 15.701 9.27309 15.814 9.08609 15.889C8.90009 15.965 8.70009 16.003 8.49909 16C8.29809 15.998 8.09909 15.955 7.91509 15.875C7.73109 15.795 7.56409 15.678 7.42509 15.533L4.69909 12.807C4.13509 13.008 3.53009 13.062 2.94009 12.963C2.35009 12.865 1.79409 12.617 1.32609 12.245C0.858086 11.872 0.493086 11.386 0.265086 10.833C0.037086 10.28 -0.045914 9.67801 0.023086 9.08301C0.035086 9.00201 0.070086 8.92701 0.124086 8.86601C0.178086 8.80501 0.248086 8.76101 0.326086 8.73801C0.404086 8.71601 0.487086 8.71701 0.565086 8.74101C0.643086 8.76501 0.712086 8.81101 0.765086 8.87301L1.74009 9.84801C2.02509 10.119 2.40509 10.269 2.79809 10.264C3.19209 10.259 3.56809 10.101 3.84609 9.82201C4.12409 9.54401 4.28309 9.16801 4.28809 8.77401C4.29309 8.38001 4.14409 8.00101 3.87209 7.71601L2.89709 6.74101C2.82509 6.67001 2.77709 6.58001 2.75909 6.48101C2.75109 6.43301 2.75009 6.38401 2.75709 6.33601L2.75809 6.33501Z" fill="#202020"/>
</g>
<defs>
<clipPath id="clip0_7204_99099">
<rect width="16" height="16" fill="white"/>
</clipPath>
</defs>
</svg>
