<svg width="16" height="16" viewBox="0 0 16 16" fill="none" xmlns="http://www.w3.org/2000/svg">
<g clip-path="url(#clip0_7204_98902)">
<path d="M9 3C9.27614 3 9.5 3.22386 9.5 3.5V6H10.5C10.7761 6 11 6.22386 11 6.5V8H12.5C12.7761 8 13 8.22386 13 8.5V9.5H15.5C15.7761 9.5 16 9.72386 16 10C16 10.2761 15.7761 10.5 15.5 10.5H13V11.5C13 11.7761 12.7761 12 12.5 12H6.57932L6.00002 11.077V11H12V9H10.5C10.2239 9 10 8.77614 10 8.5V7H8V8.5C8 8.77614 7.77614 9 7.5 9H6.91436C6.96983 8.84356 7.00002 8.67525 7.00002 8.5C7.00002 8.32477 6.96981 8.15646 6.91432 8H7V6.5C7 6.22386 7.22386 6 7.5 6H8.5V3.5C8.5 3.22386 8.72386 3 9 3Z" fill="#202020"/>
<path d="M0.11 14.41C0.12 14.36 0.14 14.32 0.17 14.28L0.973 13H6.027L6.83 14.28C6.86 14.32 6.88 14.36 6.89 14.41C6.96 14.55 7 14.71 7 14.88C7 15.47 6.55 15.95 5.98 15.99C5.95 16 5.91 16 5.88 16H1.12C1.09 16 1.05 16 1.02 15.99C0.45 15.95 0 15.47 0 14.88C0 14.71 0.0399997 14.55 0.11 14.41Z" fill="#159195"/>
<path d="M5.5 9H5V11.2C5 11.3 5.03 11.4 5.08 11.49L5.4 12H1.6L1.92 11.49C1.97 11.4 2 11.3 2 11.2V9H1.5C1.224 9 1 8.776 1 8.5C1 8.224 1.224 8 1.5 8H5.5C5.776 8 6 8.224 6 8.5C6 8.776 5.776 9 5.5 9Z" fill="#202020"/>
</g>
<defs>
<clipPath id="clip0_7204_98902">
<rect width="16" height="16" fill="white"/>
</clipPath>
</defs>
</svg>
