<svg width="16" height="16" viewBox="0 0 16 16" fill="none" xmlns="http://www.w3.org/2000/svg">
<path d="M12.8425 4.36288C13.0434 4.17348 13.0528 3.85704 12.8634 3.65609C12.674 3.45513 12.3575 3.44577 12.1566 3.63517L9.02481 6.58686C9.65341 6.26962 10.3512 6.06946 11.0895 6.01505L12.8425 4.36288Z" fill="#11910D"/>
<path d="M6.04797 10.7667C6.14541 10.0354 6.38655 9.34948 6.74208 8.73834L4.51143 10.8407L2.10567 8.39908C1.91186 8.20237 1.59529 8.20003 1.39859 8.39384C1.20188 8.58765 1.19954 8.90422 1.39335 9.10093L4.07369 11.8213C4.30262 12.0536 4.67524 12.0605 4.91261 11.8368L6.04797 10.7667Z" fill="#11910D"/>
<path d="M15.9995 11.5C15.9995 13.9853 13.9848 16 11.4995 16C9.01423 16 6.99951 13.9853 6.99951 11.5C6.99951 9.01472 9.01423 7 11.4995 7C13.9848 7 15.9995 9.01472 15.9995 11.5ZM11.4995 9C11.2234 9 10.9995 9.22386 10.9995 9.5V11.5C10.9995 11.7761 11.2234 12 11.4995 12H12.9995C13.2757 12 13.4995 11.7761 13.4995 11.5C13.4995 11.2239 13.2757 11 12.9995 11H11.9995V9.5C11.9995 9.22386 11.7757 9 11.4995 9Z" fill="#202020"/>
</svg>
