<svg width="16" height="16" viewBox="0 0 16 16" fill="none" xmlns="http://www.w3.org/2000/svg">
<path d="M12.56 11.74L10.95 9L10.34 7.95C10.12 7.57 10 7.13 10 6.69V3H10.5C10.78 3 11 2.78 11 2.5C11 2.22 10.78 2 10.5 2H5.50001C5.22001 2 5.00001 2.22 5.00001 2.5C5.00001 2.78 5.22001 3 5.50001 3H6.00001V6.69C6.00001 7.13 5.88001 7.57 5.66001 7.95L5.05001 9L3.44001 11.74C2.86001 12.74 3.58001 14 4.74001 14H11.26C12.42 14 13.14 12.74 12.56 11.74ZM11.26 13H4.74001C4.35001 13 4.11001 12.58 4.31001 12.25L5.62001 10L6.20001 9L6.52001 8.45C6.84001 7.92 7.00001 7.31 7.00001 6.69V3H9.00001V6.69C9.00001 7.31 9.16001 7.92 9.48001 8.45L9.80001 9L10.38 10L11.69 12.25C11.88 12.58 11.64 13 11.26 13Z" fill="#202020"/>
</svg>
