<svg width="16" height="16" viewBox="0 0 16 16" fill="none" xmlns="http://www.w3.org/2000/svg">
<g clip-path="url(#clip0_7204_99164)">
<path d="M9.5 5H7V9L5 9.5V5H4C3.448 5 3 4.552 3 4C3 3.448 3.448 3 4 3H9L9.5 5ZM8.905 9.546C8.898 9.562 8.901 9.581 8.893 9.597L8.191 11L9.093 11.432L9.787 10.044C9.926 9.766 10 9.453 10 9.142V8.31C9.694 8.771 9.324 9.186 8.905 9.546ZM13.5 6C13.776 6 14 5.776 14 5.5C14 5.224 13.776 5 13.5 5H11C11 5.341 10.965 5.674 10.91 6H12V9.142C12 9.454 12.074 9.766 12.213 10.044L12.92 11.458L13.809 11L13.107 9.597C13.036 9.454 13 9.301 13 9.142V6H13.5Z" fill="#202020"/>
<path fill-rule="evenodd" clip-rule="evenodd" d="M5 9C7.209 9 9 7.209 9 5C9 2.791 7.209 1 5 1C2.791 1 1 2.791 1 5C1 7.209 2.791 9 5 9ZM5 10C7.761 10 10 7.761 10 5C10 2.239 7.761 0 5 0C2.239 0 0 2.239 0 5C0 7.761 2.239 10 5 10Z" fill="#202020"/>
<path d="M13.809 11H8.191L7.138 13.105C7.048 13.286 7 13.489 7 13.691C7 14.413 7.587 15 8.309 15H13.691C14.413 15 15 14.413 15 13.691C15 13.489 14.952 13.286 14.862 13.105L13.809 11ZM13.691 14H8.309C8.139 14 8 13.861 8 13.691C8 13.643 8.011 13.595 8.033 13.552L8.809 11.999H13.191L13.967 13.552C13.988 13.595 14 13.643 14 13.691C14 13.861 13.861 14 13.691 14Z" fill="#159195"/>
</g>
<defs>
<clipPath id="clip0_7204_99164">
<rect width="16" height="16" fill="white"/>
</clipPath>
</defs>
</svg>
