<svg width="16" height="16" viewBox="0 0 16 16" fill="none" xmlns="http://www.w3.org/2000/svg">
<path fill-rule="evenodd" clip-rule="evenodd" d="M3.5 2C2.11929 2 1 3.11929 1 4.5V7.085C1.1559 7.02996 1.32354 7 1.49802 7H5.58579C5.98361 7 6.36514 6.84197 6.64645 6.56066L8.20711 5H12.5C13.3284 5 14 5.67157 14 6.5V11.5C14 12.3284 13.3284 13 12.5 13H7.20694L7.67702 13.749C7.72211 13.8066 7.76999 13.8963 7.80901 14H12.5C13.8807 14 15 12.8807 15 11.5V6.5C15 5.11929 13.8807 4 12.5 4H8.20711L6.64645 2.43934C6.36514 2.15804 5.98361 2 5.58579 2H3.5ZM2 6V4.5C2 3.67157 2.67157 3 3.5 3H5.58579C5.71839 3 5.84557 3.05268 5.93934 3.14645L7.29289 4.5L5.93934 5.85355C5.84557 5.94732 5.71839 6 5.58579 6H2Z" fill="#B27C00"/>
<path d="M0.11 14.41C0.12 14.36 0.14 14.32 0.17 14.28L0.973 13H6.027L6.83 14.28C6.86 14.32 6.88 14.36 6.89 14.41C6.96 14.55 7 14.71 7 14.88C7 15.47 6.55 15.95 5.98 15.99C5.95 16 5.91 16 5.88 16H1.12C1.09 16 1.05 16 1.02 15.99C0.45 15.95 0 15.47 0 14.88C0 14.71 0.0399997 14.55 0.11 14.41Z" fill="#159195"/>
<path d="M5.5 9H5V11.2C5 11.3 5.03 11.4 5.08 11.49L5.4 12H1.6L1.92 11.49C1.97 11.4 2 11.3 2 11.2V9H1.5C1.224 9 1 8.776 1 8.5C1 8.224 1.224 8 1.5 8H5.5C5.776 8 6 8.224 6 8.5C6 8.776 5.776 9 5.5 9Z" fill="#202020"/>
</svg>
