<svg width="16" height="16" viewBox="0 0 16 16" fill="none" xmlns="http://www.w3.org/2000/svg">
<path fill-rule="evenodd" clip-rule="evenodd" d="M4.75 1H6.25C6.664 1 7 1.336 7 1.75V3.25C7 3.664 6.664 4 6.25 4H4.75C4.336 4 4 3.664 4 3.25V1.75C4 1.336 4.336 1 4.75 1ZM5 3H6V2H5V3Z" fill="#202020"/>
<path fill-rule="evenodd" clip-rule="evenodd" d="M12.335 11.543C12.6309 11.8379 13.0227 11.9999 13.4385 12C14.2993 11.9997 14.999 11.2988 14.999 10.439C14.999 10.021 14.837 9.629 14.542 9.335L11.909 6.702C11.969 6.465 11.999 6.229 11.999 5.999C11.999 4.011 10.051 2.442 7.986 3.185C7.825 3.243 7.705 3.38 7.667 3.547C7.63 3.714 7.681 3.888 7.802 4.009L9.042 5.249L8.249 6.042L7.009 4.802C6.889 4.681 6.714 4.631 6.547 4.667C6.38 4.704 6.244 4.824 6.186 4.985C6.061 5.327 5.999 5.667 5.999 5.999C5.999 6.4259 6.09021 6.83364 6.25354 7.2034C6.61923 7.41677 6.88703 7.78037 6.97167 8.20892C7.66985 8.8562 8.66682 9.17522 9.702 8.909L12.335 11.543ZM10.197 7.99C10.101 7.895 9.973 7.844 9.843 7.844L9.844 7.846C9.787 7.846 9.73 7.855 9.675 7.875C8.313 8.367 7.144 7.431 7.012 6.221L7.897 7.105C8.092 7.3 8.409 7.3 8.604 7.105L10.104 5.605C10.299 5.41 10.299 5.093 10.104 4.898L9.219 4.013C10.219 4.122 11 4.972 11 6.001C11 6.219 10.959 6.44 10.874 6.675C10.807 6.857 10.853 7.061 10.99 7.198L13.836 10.044C13.941 10.149 14 10.29 14 10.44C14 10.897 13.369 11.159 13.043 10.836L10.197 7.99Z" fill="#202020"/>
<path d="M0.11 14.41C0.12 14.36 0.14 14.32 0.17 14.28L0.973 13H6.027L6.83 14.28C6.86 14.32 6.88 14.36 6.89 14.41C6.96 14.55 7 14.71 7 14.88C7 15.47 6.55 15.95 5.98 15.99C5.95 16 5.91 16 5.88 16H1.12C1.09 16 1.05 16 1.02 15.99C0.45 15.95 0 15.47 0 14.88C0 14.71 0.0399997 14.55 0.11 14.41Z" fill="#159195"/>
<path d="M5.5 9H5V11.2C5 11.3 5.03 11.4 5.08 11.49L5.4 12H1.6L1.92 11.49C1.97 11.4 2 11.3 2 11.2V9H1.5C1.224 9 1 8.776 1 8.5C1 8.224 1.224 8 1.5 8H5.5C5.776 8 6 8.224 6 8.5C6 8.776 5.776 9 5.5 9Z" fill="#202020"/>
</svg>
