<svg width="16" height="16" viewBox="0 0 16 16" fill="none" xmlns="http://www.w3.org/2000/svg">
<path d="M8.33643 7C7.9333 7.28388 7.57003 7.62057 7.25667 8H2.49951C2.22351 8 1.99951 7.776 1.99951 7.5C1.99951 7.224 2.22351 7 2.49951 7H8.33643Z" fill="#006CBF"/>
<path d="M15.9995 11.5C15.9995 13.9853 13.9848 16 11.4995 16C9.01423 16 6.99951 13.9853 6.99951 11.5C6.99951 9.01472 9.01423 7 11.4995 7C13.9848 7 15.9995 9.01472 15.9995 11.5ZM11.4995 9C11.2234 9 10.9995 9.22386 10.9995 9.5V11.5C10.9995 11.7761 11.2234 12 11.4995 12H12.9995C13.2757 12 13.4995 11.7761 13.4995 11.5C13.4995 11.2239 13.2757 11 12.9995 11H11.9995V9.5C11.9995 9.22386 11.7757 9 11.4995 9Z" fill="#202020"/>
</svg>
