<svg width="16" height="16" viewBox="0 0 16 16" fill="none" xmlns="http://www.w3.org/2000/svg">
<path d="M6.74251 11.587L9.71251 9.937C9.79042 9.89368 9.85533 9.83033 9.90053 9.75349C9.94572 9.67666 9.96955 9.58914 9.96955 9.5C9.96955 9.41086 9.94572 9.32334 9.90053 9.2465C9.85533 9.16967 9.79042 9.10631 9.71251 9.063L6.74251 7.413C6.6664 7.37067 6.58055 7.34896 6.49347 7.35001C6.40639 7.35106 6.32109 7.37484 6.24603 7.41899C6.17096 7.46315 6.10873 7.52614 6.06549 7.60173C6.02225 7.67733 5.99951 7.76291 5.99951 7.85V11.15C5.99951 11.2371 6.02225 11.3227 6.06549 11.3983C6.10873 11.4739 6.17096 11.5368 6.24603 11.581C6.32109 11.6251 6.40639 11.6489 6.49347 11.65C6.58055 11.651 6.6664 11.6293 6.74251 11.587Z" fill="#202020"/>
<path fill-rule="evenodd" clip-rule="evenodd" d="M1.99951 4.5C1.99951 3.11929 3.1188 2 4.49951 2H11.4995C12.8802 2 13.9995 3.11929 13.9995 4.5V11.5C13.9995 12.8807 12.8802 14 11.4995 14H4.49951C3.1188 14 1.99951 12.8807 1.99951 11.5V4.5ZM2.99951 5H12.9995V4.5C12.9995 3.67157 12.3279 3 11.4995 3H4.49951C3.67108 3 2.99951 3.67157 2.99951 4.5V5ZM12.9995 6H2.99951V11.5C2.99951 12.3284 3.67108 13 4.49951 13H11.4995C12.3279 13 12.9995 12.3284 12.9995 11.5V6Z" fill="#202020"/>
</svg>
