<svg width="16" height="16" viewBox="0 0 16 16" fill="none" xmlns="http://www.w3.org/2000/svg">
<path d="M6.59971 14H3.74001C2.58001 14 1.86001 12.74 2.44001 11.74L4.05001 9L4.66001 7.95C4.88001 7.57 5.00001 7.13 5.00001 6.69V3H4.50001C4.22001 3 4.00001 2.78 4.00001 2.5C4.00001 2.22 4.22001 2 4.50001 2H9.50001C9.78001 2 10 2.22 10 2.5C10 2.78 9.78001 3 9.50001 3H9.00001V6.59971C8.65779 6.77465 8.33631 6.98438 8.04024 7.22425C8.01342 7.04814 8.00001 6.86949 8.00001 6.69V3H6.00001V6.69C6.00001 7.31 5.84001 7.92 5.52001 8.45L5.20001 9L4.62001 10L3.31001 12.25C3.11001 12.58 3.35001 13 3.74001 13H6.20703C6.30564 13.3486 6.43777 13.6832 6.59971 14Z" fill="#202020"/>
<path d="M16 11.5C16 13.9853 13.9853 16 11.5 16C9.01472 16 7 13.9853 7 11.5C7 9.01472 9.01472 7 11.5 7C13.9853 7 16 9.01472 16 11.5ZM11.5 9C11.2239 9 11 9.22386 11 9.5V11.5C11 11.7761 11.2239 12 11.5 12H13C13.2761 12 13.5 11.7761 13.5 11.5C13.5 11.2239 13.2761 11 13 11H12V9.5C12 9.22386 11.7761 9 11.5 9Z" fill="#202020"/>
</svg>
