<svg width="16" height="16" viewBox="0 0 16 16" fill="none" xmlns="http://www.w3.org/2000/svg">
<path d="M8.04111 7.22355C8.01385 7.04731 8 6.86862 8 6.689V3H6V6.689C6 7.309 5.835 7.917 5.523 8.453L5.027 9.303L4.046 9.001L4.659 7.95C4.882 7.568 5 7.133 5 6.69V3H4.5C4.224 3 4 2.776 4 2.5C4 2.224 4.224 2 4.5 2H9.5C9.776 2 10 2.224 10 2.5C10 2.776 9.776 3 9.5 3H9V6.59971C8.65812 6.77448 8.33694 6.98398 8.04111 7.22355Z" fill="#202020"/>
<path d="M6.59971 9L4.046 9L2.445 11.744C1.862 12.744 2.583 14 3.741 14H6.59971C6.43777 13.6832 6.30564 13.3486 6.20703 13H3.741C3.355 13 3.115 12.581 3.309 12.248L4.62 10H6.20703C6.30564 9.65136 6.43777 9.31679 6.59971 9Z" fill="#159195"/>
<path fill-rule="evenodd" clip-rule="evenodd" d="M16 11.5C16 13.9853 13.9853 16 11.5 16C9.01472 16 7 13.9853 7 11.5C7 9.01472 9.01472 7 11.5 7C13.9853 7 16 9.01472 16 11.5ZM13.8536 9.64645C14.0488 9.84171 14.0488 10.1583 13.8536 10.3536L10.8536 13.3536C10.6583 13.5488 10.3417 13.5488 10.1464 13.3536L9.14645 12.3536C8.95118 12.1583 8.95118 11.8417 9.14645 11.6464C9.34171 11.4512 9.65829 11.4512 9.85355 11.6464L10.5 12.2929L13.1464 9.64645C13.3417 9.45118 13.6583 9.45118 13.8536 9.64645Z" fill="#11910D"/>
</svg>
