<svg width="16" height="16" viewBox="0 0 16 16" fill="none" xmlns="http://www.w3.org/2000/svg">
<g clip-path="url(#clip0_7204_99181)">
<path d="M3.99951 3.49968C3.99951 2.35243 5.23502 1.62986 6.23492 2.19233L14.2352 6.69262C15.2547 7.26609 15.2546 8.73391 14.2351 9.30735L9.50969 11.9653L7.94637 10.402C8.05237 9.867 8.06137 9.315 7.97137 8.776C7.84637 8.019 7.52737 7.303 7.04937 6.703C6.57237 6.104 5.94537 5.633 5.23637 5.341C4.83797 5.177 4.42378 5.07145 3.99951 5.02588V3.49968Z" fill="#11910D"/>
<path d="M2.7576 6.33501C2.7666 6.26601 2.7936 6.20101 2.8366 6.14601C2.8796 6.09101 2.9356 6.04901 2.9996 6.02401C3.0346 6.01001 3.0706 6.00201 3.1076 5.99801C3.7016 5.92801 4.3046 6.01201 4.8576 6.24001C5.4106 6.46801 5.8966 6.83301 6.2696 7.30101C6.6426 7.76901 6.8896 8.32401 6.9876 8.91501C7.0856 9.50601 7.0326 10.111 6.8316 10.674L9.5576 13.4C9.7036 13.539 9.8196 13.705 9.8996 13.89C9.9796 14.074 10.0226 14.273 10.0246 14.474C10.0266 14.675 9.9896 14.875 9.9136 15.061C9.8376 15.247 9.7256 15.417 9.5836 15.559C9.4416 15.701 9.2726 15.814 9.0856 15.889C8.8996 15.965 8.6996 16.003 8.4986 16C8.2976 15.998 8.0986 15.955 7.9146 15.875C7.7306 15.795 7.5636 15.678 7.4246 15.533L4.6986 12.807C4.1346 13.008 3.5296 13.062 2.9396 12.963C2.3496 12.865 1.7936 12.617 1.3256 12.245C0.857598 11.872 0.492598 11.386 0.264598 10.833C0.0365977 10.28 -0.0464023 9.67801 0.0225977 9.08301C0.0345977 9.00201 0.0695977 8.92701 0.123598 8.86601C0.177598 8.80501 0.247598 8.76101 0.325598 8.73801C0.403598 8.71601 0.486598 8.71701 0.564598 8.74101C0.642598 8.76501 0.711598 8.81101 0.764598 8.87301L1.7396 9.84801C2.0246 10.119 2.4046 10.269 2.7976 10.264C3.1916 10.259 3.5676 10.101 3.8456 9.82201C4.1236 9.54401 4.2826 9.16801 4.2876 8.77401C4.2926 8.38001 4.1436 8.00101 3.8716 7.71601L2.8966 6.74101C2.8246 6.67001 2.7766 6.58001 2.7586 6.48101C2.7506 6.43301 2.7496 6.38401 2.7566 6.33601L2.7576 6.33501Z" fill="#202020"/>
</g>
<defs>
<clipPath id="clip0_7204_99181">
<rect width="16" height="16" fill="white"/>
</clipPath>
</defs>
</svg>
