<svg width="16" height="16" viewBox="0 0 16 16" fill="none" xmlns="http://www.w3.org/2000/svg">
<g clip-path="url(#clip0_7204_99115)">
<path fill-rule="evenodd" clip-rule="evenodd" d="M3.49951 2C2.1188 2 0.999512 3.11929 0.999512 4.5V6.26918C1.30347 6.09359 1.64835 6.00008 1.99951 6L6.99951 6.00098C7.06541 6.00098 7.13097 6.00423 7.19598 6.01064L8.20662 5H12.4995C13.3279 5 13.9995 5.67157 13.9995 6.5V11.5C13.9995 12.3284 13.3279 13 12.4995 13H8.99951V14H12.4995C13.8802 14 14.9995 12.8807 14.9995 11.5V6.5C14.9995 5.11929 13.8802 4 12.4995 4H8.20662L6.64596 2.43934C6.36465 2.15804 5.98312 2 5.5853 2H3.49951ZM1.99951 6V4.5C1.99951 3.67157 2.67108 3 3.49951 3H5.5853C5.71791 3 5.84508 3.05268 5.93885 3.14645L7.29241 4.5L5.93885 5.85355C5.84508 5.94732 5.71791 6 5.5853 6H1.99951Z" fill="#B27C00"/>
<path d="M6.99951 7.00098H1.99951C1.7343 7.00098 1.47994 7.10633 1.2924 7.29387C1.10487 7.48141 0.999512 7.73576 0.999512 8.00098H0.499512C0.366903 8.00098 0.239727 8.05366 0.145958 8.14742C0.0521901 8.24119 -0.000488281 8.36837 -0.000488281 8.50098C-0.000488281 8.63358 0.0521901 8.76076 0.145958 8.85453C0.239727 8.9483 0.366903 9.00098 0.499512 9.00098H0.999512V10.001H0.499512C0.366903 10.001 0.239727 10.0537 0.145958 10.1474C0.0521901 10.2412 -0.000488281 10.3684 -0.000488281 10.501C-0.000488281 10.6336 0.0521901 10.7608 0.145958 10.8545C0.239727 10.9483 0.366903 11.001 0.499512 11.001H0.999512V12.001H0.499512C0.366903 12.001 0.239727 12.0537 0.145958 12.1474C0.0521901 12.2412 -0.000488281 12.3684 -0.000488281 12.501C-0.000488281 12.6336 0.0521901 12.7608 0.145958 12.8545C0.239727 12.9483 0.366903 13.001 0.499512 13.001H0.999512V14.001H0.499512C0.366903 14.001 0.239727 14.0537 0.145958 14.1474C0.0521901 14.2412 -0.000488281 14.3684 -0.000488281 14.501C-0.000488281 14.6336 0.0521901 14.7608 0.145958 14.8545C0.239727 14.9483 0.366903 15.001 0.499512 15.001H0.999512C0.999512 15.2662 1.10487 15.5205 1.2924 15.7081C1.47994 15.8956 1.7343 16.001 1.99951 16.001H6.99951C7.26473 16.001 7.51908 15.8956 7.70662 15.7081C7.89415 15.5205 7.99951 15.2662 7.99951 15.001V8.00098C7.99951 7.73576 7.89415 7.48141 7.70662 7.29387C7.51908 7.10633 7.26473 7.00098 6.99951 7.00098ZM5.99951 10.001H2.99951C2.8669 10.001 2.73973 9.9483 2.64596 9.85453C2.55219 9.76076 2.49951 9.63358 2.49951 9.50098C2.49951 9.36837 2.55219 9.24119 2.64596 9.14742C2.73973 9.05365 2.8669 9.00098 2.99951 9.00098H5.99951C6.13212 9.00098 6.2593 9.05365 6.35307 9.14742C6.44683 9.24119 6.49951 9.36837 6.49951 9.50098C6.49951 9.63358 6.44683 9.76076 6.35307 9.85453C6.2593 9.9483 6.13212 10.001 5.99951 10.001Z" fill="#202020"/>
</g>
<defs>
<clipPath id="clip0_7204_99115">
<rect width="16" height="16" fill="white"/>
</clipPath>
</defs>
</svg>
