<svg width="16" height="16" viewBox="0 0 16 16" fill="none" xmlns="http://www.w3.org/2000/svg">
<path fill-rule="evenodd" clip-rule="evenodd" d="M4.5 2C3.11929 2 2 3.11929 2 4.5V7H6.58579C6.98361 7 7.36514 6.84197 7.64645 6.56066L9.20711 5H13.5C14.3284 5 15 5.67157 15 6.5V8.92818C15.2546 8.99426 15.4883 9.12697 15.68 9.31801C15.8205 9.45914 15.9271 9.62102 16 9.79366V6.5C16 5.11929 14.8807 4 13.5 4H9.20711L7.64645 2.43934C7.36514 2.15804 6.98361 2 6.58579 2H4.5ZM3 6V4.5C3 3.67157 3.67157 3 4.5 3H6.58579C6.71839 3 6.84557 3.05268 6.93934 3.14645L8.29289 4.5L6.93934 5.85355C6.84557 5.94732 6.71839 6 6.58579 6H3Z" fill="#B27C00"/>
<path d="M16 10.9661C15.9851 11.0016 15.9687 11.0366 15.951 11.071C15.9675 11.0762 15.9838 11.0817 16 11.0874V10.9661Z" fill="#B27C00"/>
<path d="M9.01306 14C9.02373 13.9764 9.03505 13.9531 9.047 13.93C9.03122 13.925 9.01555 13.9198 9 13.9142V14H9.01306Z" fill="#B27C00"/>
<path d="M13.705 12L14.973 10.732C15.168 10.537 15.168 10.22 14.973 10.025C14.778 9.83 14.461 9.83 14.266 10.025L12.998 11.293V9.5C12.998 9.224 12.774 9 12.498 9C12.222 9 11.998 9.224 11.998 9.5V11.293L10.73 10.025C10.535 9.83 10.218 9.83 10.023 10.025C9.82799 10.22 9.82799 10.537 10.023 10.732L11.291 12H9.49899C9.22299 12 8.99899 12.224 8.99899 12.5C8.99899 12.776 9.22299 13 9.49899 13H11.291L10.023 14.268C9.82799 14.463 9.82799 14.78 10.023 14.975C10.121 15.073 10.249 15.121 10.377 15.121C10.505 15.121 10.633 15.072 10.731 14.975L11.999 13.707V15.5C11.999 15.776 12.223 16 12.499 16C12.775 16 12.999 15.776 12.999 15.5V13.707L14.267 14.975C14.365 15.073 14.493 15.121 14.621 15.121C14.749 15.121 14.877 15.072 14.975 14.975C15.17 14.78 15.17 14.463 14.975 14.268L13.707 13H15.499C15.775 13 15.999 12.776 15.999 12.5C15.999 12.224 15.775 12 15.499 12H13.705Z" fill="#202020"/>
<path d="M0.11 14.41C0.12 14.36 0.14 14.32 0.17 14.28L0.973 13H6.027L6.83 14.28C6.86 14.32 6.88 14.36 6.89 14.41C6.96 14.55 7 14.71 7 14.88C7 15.47 6.55 15.95 5.98 15.99C5.95 16 5.91 16 5.88 16H1.12C1.09 16 1.05 16 1.02 15.99C0.45 15.95 0 15.47 0 14.88C0 14.71 0.0399997 14.55 0.11 14.41Z" fill="#159195"/>
<path d="M5.5 9H5V11.2C5 11.3 5.03 11.4 5.08 11.49L5.4 12H1.6L1.92 11.49C1.97 11.4 2 11.3 2 11.2V9H1.5C1.224 9 1 8.776 1 8.5C1 8.224 1.224 8 1.5 8H5.5C5.776 8 6 8.224 6 8.5C6 8.776 5.776 9 5.5 9Z" fill="#202020"/>
</svg>
