<svg width="16" height="16" viewBox="0 0 16 16" fill="none" xmlns="http://www.w3.org/2000/svg">
<path d="M15 5.5C15 5.776 14.776 6 14.5 6H3.5C3.224 6 3 5.776 3 5.5C3 5.224 3.224 5 3.5 5H14.5C14.776 5 15 5.224 15 5.5ZM7.5 8H3.5C3.224 8 3 8.224 3 8.5C3 8.776 3.224 9 3.5 9H7.5C7.776 9 8 8.776 8 8.5C8 8.224 7.776 8 7.5 8ZM3.5 3H10.5C10.776 3 11 2.776 11 2.5C11 2.224 10.776 2 10.5 2H3.5C3.224 2 3 2.224 3 2.5C3 2.776 3.224 3 3.5 3Z" fill="#202020"/>
<path d="M1.50001 15.0002C1.37201 15.0002 1.24401 14.9512 1.14601 14.8542C0.951006 14.6592 0.951006 14.3422 1.14601 14.1472L2.79201 12.5012L1.14601 10.8552C0.951006 10.6602 0.951006 10.3432 1.14601 10.1482C1.34101 9.9532 1.65801 9.9532 1.85301 10.1482L3.85301 12.1482C4.04801 12.3432 4.04801 12.6602 3.85301 12.8552L1.85301 14.8552C1.75501 14.9532 1.62701 15.0012 1.49901 15.0012L1.50001 15.0002Z" fill="#006CBF"/>
</svg>
