<svg width="16" height="16" viewBox="0 0 16 16" fill="none" xmlns="http://www.w3.org/2000/svg">
<path d="M13.5 3H1.5C1.224 3 1 2.776 1 2.5C1 2.224 1.224 2 1.5 2H13.5C13.776 2 14 2.224 14 2.5C14 2.776 13.776 3 13.5 3Z" fill="#202020"/>
<path d="M1.5 14H13.5C13.776 14 14 14.224 14 14.5C14 14.776 13.776 15 13.5 15H1.5C1.224 15 1 14.776 1 14.5C1 14.224 1.224 14 1.5 14Z" fill="#202020"/>
<path d="M9.14601 10.1463L8.00001 11.2923V5.70627L9.14601 6.85227C9.24401 6.95027 9.37201 6.99827 9.50001 6.99827C9.62801 6.99827 9.75601 6.94927 9.85401 6.85227C10.049 6.65727 10.049 6.34027 9.85401 6.14527L7.85401 4.14527C7.65901 3.95027 7.34201 3.95027 7.14701 4.14527L5.14701 6.14527C4.95201 6.34027 4.95201 6.65727 5.14701 6.85227C5.34201 7.04727 5.65901 7.04727 5.85401 6.85227L7.00001 5.70627V11.2923L5.85401 10.1463C5.65901 9.95127 5.34201 9.95127 5.14701 10.1463C4.95201 10.3413 4.95201 10.6583 5.14701 10.8533L7.14701 12.8533C7.24501 12.9513 7.37301 12.9993 7.50101 12.9993C7.62901 12.9993 7.75701 12.9503 7.85501 12.8533L9.85501 10.8533C10.05 10.6583 10.05 10.3413 9.85501 10.1463C9.66001 9.95127 9.34301 9.95127 9.14801 10.1463H9.14601Z" fill="#006CBF"/>
</svg>
