<svg width="16" height="16" viewBox="0 0 16 16" fill="none" xmlns="http://www.w3.org/2000/svg">
<path d="M15 10.5C15 10.776 14.776 11 14.5 11H3.5C3.224 11 3 10.776 3 10.5C3 10.224 3.224 10 3.5 10H14.5C14.776 10 15 10.224 15 10.5ZM7.5 13H3.5C3.224 13 3 13.224 3 13.5C3 13.776 3.224 14 3.5 14H7.5C7.776 14 8 13.776 8 13.5C8 13.224 7.776 13 7.5 13ZM3.5 8H10.5C10.776 8 11 7.776 11 7.5C11 7.224 10.776 7 10.5 7H3.5C3.224 7 3 7.224 3 7.5C3 7.776 3.224 8 3.5 8Z" fill="#202020"/>
<path d="M1.50001 6.0002C1.37201 6.0002 1.24401 5.9512 1.14601 5.8542C0.951006 5.6592 0.951006 5.3422 1.14601 5.1472L2.79201 3.5012L1.14601 1.8552C0.951006 1.6602 0.951006 1.3432 1.14601 1.1482C1.34101 0.953203 1.65801 0.953203 1.85301 1.1482L3.85301 3.1482C4.04801 3.3432 4.04801 3.6602 3.85301 3.8552L1.85301 5.8552C1.75501 5.9532 1.62701 6.0012 1.49901 6.0012L1.50001 6.0002Z" fill="#006CBF"/>
</svg>
