<svg width="16" height="16" viewBox="0 0 16 16" fill="none" xmlns="http://www.w3.org/2000/svg">
<path d="M8 7C8.552 7 9 6.552 9 6C9 5.448 8.552 5 8 5C7.448 5 7 5.448 7 6C7 6.552 7.448 7 8 7Z" fill="#B27C00"/>
<path d="M9.65495 12.1377C9.52695 12.1377 9.39895 12.0887 9.30095 11.9917L6.49995 9.19075C6.23195 8.92275 5.76795 8.92275 5.49995 9.19075L2.69895 11.9917C2.50395 12.1867 2.18695 12.1867 1.99195 11.9917C1.79695 11.7967 1.79695 11.4797 1.99195 11.2847L4.79295 8.48375C5.43795 7.83875 6.56295 7.83875 7.20695 8.48375L10.008 11.2847C10.203 11.4797 10.203 11.7967 10.008 11.9917C9.90995 12.0897 9.78295 12.1377 9.65495 12.1377Z" fill="#006CBF"/>
<path d="M8.5 13H3.5C2.121 13 1 11.879 1 10.5V5.5C1 4.121 2.121 3 3.5 3H8.5C9.879 3 11 4.121 11 5.5V10.5C11 11.879 9.879 13 8.5 13ZM3.5 4C2.673 4 2 4.673 2 5.5V10.5C2 11.327 2.673 12 3.5 12H8.5C9.327 12 10 11.327 10 10.5V5.5C10 4.673 9.327 4 8.5 4H3.5ZM16 4.5C16 4.224 15.776 4 15.5 4H12.5C12.224 4 12 4.224 12 4.5C12 4.776 12.224 5 12.5 5H15.5C15.776 5 16 4.776 16 4.5ZM16 7.5C16 7.224 15.776 7 15.5 7H12.5C12.224 7 12 7.224 12 7.5C12 7.776 12.224 8 12.5 8H15.5C15.776 8 16 7.776 16 7.5ZM16 10.5C16 10.224 15.776 10 15.5 10H12.5C12.224 10 12 10.224 12 10.5C12 10.776 12.224 11 12.5 11H15.5C15.776 11 16 10.776 16 10.5Z" fill="#202020"/>
</svg>
