<svg width="16" height="16" viewBox="0 0 16 16" fill="none" xmlns="http://www.w3.org/2000/svg">
<path d="M14.5 9H7.5C7.224 9 7 8.776 7 8.5C7 8.224 7.224 8 7.5 8H14.5C14.776 8 15 8.224 15 8.5C15 8.776 14.776 9 14.5 9ZM3.5 7C2.672 7 2 7.672 2 8.5C2 9.328 2.672 10 3.5 10C4.328 10 5 9.328 5 8.5C5 7.672 4.328 7 3.5 7Z" fill="#202020"/>
<path d="M4.99998 5.50023C4.87198 5.50023 4.74398 5.45123 4.64598 5.35423L3.49998 4.20823L2.35398 5.35423C2.15898 5.54923 1.84198 5.54923 1.64698 5.35423C1.45198 5.15923 1.45198 4.84223 1.64698 4.64723L3.14698 3.14723C3.34198 2.95223 3.65898 2.95223 3.85398 3.14723L5.35398 4.64723C5.54898 4.84223 5.54898 5.15923 5.35398 5.35423C5.25598 5.45223 5.12798 5.50023 4.99998 5.50023ZM3.85398 13.8542L5.35398 12.3542C5.54898 12.1592 5.54898 11.8422 5.35398 11.6472C5.15898 11.4522 4.84198 11.4522 4.64698 11.6472L3.50098 12.7932L2.35498 11.6472C2.15998 11.4522 1.84298 11.4522 1.64798 11.6472C1.45298 11.8422 1.45298 12.1592 1.64798 12.3542L3.14798 13.8542C3.24598 13.9522 3.37398 14.0002 3.50198 14.0002C3.62998 14.0002 3.75798 13.9512 3.85598 13.8542H3.85398Z" fill="#006CBF"/>
</svg>
