<svg width="16" height="16" viewBox="0 0 16 16" fill="none" xmlns="http://www.w3.org/2000/svg">
<path d="M6.04197 11.363H5.61397C5.54497 11.363 5.47697 11.376 5.41397 11.403L3.99897 11.961L4.59897 10.58C4.62597 10.517 4.63897 10.449 4.63897 10.38V9.95205L9.69997 4.88805L8.99297 4.17505L3.77997 9.39805C3.73397 9.44405 3.69697 9.50005 3.67197 9.56005C3.64697 9.62105 3.63397 9.68605 3.63397 9.75105V10.283L3.08197 11.57C3.00097 11.759 2.97897 11.967 3.01797 12.169C3.05697 12.37 3.15497 12.556 3.29997 12.701C3.44497 12.846 3.63097 12.944 3.83197 12.983C4.03397 13.022 4.24197 12.999 4.43097 12.918L5.71697 12.366H6.24897C6.31497 12.366 6.37997 12.353 6.44097 12.328C6.50197 12.303 6.55697 12.266 6.60297 12.22L11.816 7.00705L11.108 6.29705L6.04197 11.363Z" fill="#3487C7"/>
<path d="M2.634 10.078V9.751C2.634 9.553 2.673 9.359 2.749 9.176C2.773 9.116 2.809 9.058 2.842 9H1V11H2.238L2.633 10.078H2.634ZM2.29 13H1V15H3V13.71C2.854 13.624 2.713 13.529 2.592 13.407C2.471 13.287 2.376 13.145 2.29 13ZM3 8.779C3.025 8.75 3.045 8.718 3.072 8.691L4.76 7H3V8.779ZM1 5V7H3V5H1ZM6.249 13.366H5.922L5 13.762V15H7V13.133C6.936 13.171 6.885 13.227 6.815 13.255C6.637 13.328 6.445 13.366 6.249 13.366ZM7.31 12.927C7.278 12.959 7.234 12.971 7.2 13H9V11.237L7.31 12.928V12.927ZM9 13V15H11V13H9Z" fill="#202020"/>
<path d="M14.853 2.19892C14.756 1.96292 14.612 1.74892 14.432 1.56892C14.241 1.38092 14.015 1.23392 13.766 1.13592C13.517 1.03792 13.251 0.990921 12.983 0.998921C12.728 0.998921 12.475 1.04792 12.239 1.14592C12.003 1.24392 11.789 1.38692 11.608 1.56792L10.908 2.26792L10.652 2.01392C10.547 1.90892 10.422 1.82592 10.285 1.76892C10.148 1.71192 10.001 1.68292 9.85202 1.68292C9.70302 1.68292 9.55602 1.71192 9.41902 1.76892C9.28202 1.82592 9.15702 1.90892 9.05202 2.01392L8.46102 2.59892C8.25002 2.81192 8.13202 3.09892 8.13202 3.39892C8.13202 3.69892 8.25002 3.98592 8.46102 4.19892L8.71602 4.45392L11.54 7.28692L11.795 7.54192C12.008 7.75292 12.295 7.87192 12.595 7.87192C12.895 7.87192 13.182 7.75292 13.395 7.54192L13.978 6.95892C14.19 6.74592 14.308 6.45892 14.308 6.15892C14.308 5.85892 14.189 5.57192 13.978 5.35892L13.728 5.09892L14.428 4.39892C14.617 4.20792 14.766 3.97992 14.864 3.72992C14.963 3.47992 15.009 3.21192 15.001 2.94292C15.001 2.68792 14.952 2.43492 14.854 2.19892H14.853ZM13.928 3.37692C13.881 3.49192 13.811 3.59592 13.723 3.68392L12.665 4.74092C12.571 4.83492 12.519 4.96192 12.519 5.09492C12.519 5.22792 12.572 5.35492 12.665 5.44792L13.273 6.05792C13.286 6.06992 13.296 6.08492 13.303 6.10092C13.31 6.11692 13.313 6.13492 13.313 6.15292C13.313 6.17092 13.31 6.18792 13.303 6.20492C13.296 6.22092 13.286 6.23592 13.273 6.24892L12.69 6.83192C12.678 6.84492 12.663 6.85492 12.647 6.86192C12.631 6.86892 12.613 6.87192 12.595 6.87192C12.577 6.87192 12.56 6.86892 12.543 6.86192C12.527 6.85492 12.512 6.84492 12.499 6.83192L9.16602 3.49992C9.15302 3.48792 9.14302 3.47292 9.13602 3.45692C9.12902 3.44092 9.12602 3.42292 9.12602 3.40492C9.12602 3.38692 9.13002 3.36992 9.13602 3.35292C9.14302 3.33692 9.15302 3.32192 9.16602 3.30992L9.74902 2.72692C9.76202 2.71392 9.77802 2.70392 9.79502 2.69692C9.81202 2.68992 9.83102 2.68692 9.84902 2.68792C9.86702 2.68792 9.88602 2.68992 9.90302 2.69692C9.92002 2.70392 9.93602 2.71392 9.94902 2.72692L10.559 3.33492C10.653 3.42892 10.78 3.48092 10.913 3.48092C11.046 3.48092 11.173 3.42792 11.266 3.33492L12.323 2.27692C12.42 2.18392 12.535 2.11192 12.66 2.06392C12.786 2.01592 12.92 1.99492 13.054 1.99992C13.304 1.99992 13.545 2.09892 13.722 2.27592C13.816 2.37392 13.889 2.49092 13.936 2.61792C13.983 2.74492 14.004 2.88092 13.998 3.01692C13.998 3.14092 13.974 3.26392 13.927 3.37892V3.37692H13.928Z" fill="#202020"/>
</svg>
