<svg width="16" height="16" viewBox="0 0 16 16" fill="none" xmlns="http://www.w3.org/2000/svg">
<g clip-path="url(#clip0_7204_99316)">
<path d="M11.5862 6.00067C11.139 5.73315 10.661 5.51504 10.1602 5.35203C8.81304 4.91351 7.36446 4.8944 6.00619 5.29722C4.64792 5.70004 3.44398 6.5058 2.5537 7.60788C1.66343 8.70996 1.12878 10.0564 1.02052 11.469C1.01445 11.5359 1.02227 11.6033 1.04351 11.667C1.06474 11.7307 1.09893 11.7894 1.14391 11.8392C1.1889 11.8891 1.24371 11.9291 1.30491 11.9568C1.36611 11.9845 1.43236 11.9992 1.49952 12H1.53452C1.65433 12.0012 1.77019 11.9572 1.85898 11.8768C1.94777 11.7963 2.00295 11.6853 2.01352 11.566C2.10137 10.335 2.5671 9.16123 3.34707 8.20488C4.12705 7.24854 5.18324 6.5563 6.37138 6.22272C7.49065 5.90848 8.6756 5.92696 9.78211 6.27344C10.3225 6.09599 10.8998 6 11.4995 6C11.5284 6 11.5573 6.00022 11.5862 6.00067Z" fill="#5C2E91"/>
<path d="M2.01552 4.431C2.08677 5.41177 2.39975 6.35964 2.92652 7.19C2.68644 7.44299 2.46581 7.71376 2.26652 8C1.54586 6.97737 1.11437 5.77929 1.01752 4.532C1.01144 4.46481 1.01935 4.3971 1.04075 4.33313C1.06216 4.26916 1.0966 4.21032 1.14189 4.16033C1.18718 4.11033 1.24235 4.07028 1.3039 4.04268C1.36546 4.01509 1.43207 4.00055 1.49952 4H1.53652C1.65586 3.99871 1.77132 4.0423 1.86004 4.12212C1.94875 4.20195 2.00425 4.31219 2.01552 4.431Z" fill="#006CBF"/>
<path d="M14.1377 4.12357C14.2263 4.04315 14.3419 3.99903 14.4615 4H14.4995C14.5667 4.00083 14.6329 4.01553 14.6941 4.0432C14.7553 4.07087 14.8101 4.11089 14.8551 4.16076C14.9001 4.21063 14.9343 4.26926 14.9555 4.33298C14.9768 4.39669 14.9846 4.46411 14.9785 4.531C14.9168 5.33029 14.7191 6.10564 14.4003 6.82628C14.1183 6.65091 13.8194 6.50035 13.5064 6.37764C13.7708 5.76623 13.9339 5.1099 13.9835 4.434C13.9941 4.31482 14.0491 4.20399 14.1377 4.12357Z" fill="#006CBF"/>
<path d="M6.28518 9.7458C5.56076 9.5268 4.87967 9.16988 4.28152 8.689C4.06103 8.9393 3.86606 9.21098 3.69952 9.5C4.4037 10.0578 5.20424 10.4695 6.05453 10.7191C6.10216 10.384 6.17999 10.0586 6.28518 9.7458Z" fill="#006CBF"/>
<path fill-rule="evenodd" clip-rule="evenodd" d="M8.99945 7.75839C9.73947 7.26392 10.6095 7 11.4995 7C12.693 7 13.8376 7.47411 14.6815 8.31802C15.5254 9.16193 15.9995 10.3065 15.9995 11.5C15.9995 12.39 15.7356 13.26 15.2411 14.0001C14.7467 14.7401 14.0439 15.3169 13.2216 15.6575C12.3993 15.9981 11.4945 16.0872 10.6216 15.9135C9.74869 15.7399 8.94687 15.3113 8.31753 14.682C7.6882 14.0526 7.25961 13.2508 7.08598 12.3779C6.91235 11.505 7.00146 10.6002 7.34206 9.77792C7.68265 8.95566 8.25943 8.25285 8.99945 7.75839ZM13.4995 12.5C13.4995 12.7652 13.3942 13.0196 13.2066 13.2071C13.0191 13.3946 12.7647 13.5 12.4995 13.5H10.4995C10.2343 13.5 9.97994 13.3946 9.79241 13.2071C9.60487 13.0196 9.49951 12.7652 9.49951 12.5V10.5C9.49951 10.2348 9.60487 9.98043 9.79241 9.79289C9.97994 9.60536 10.2343 9.5 10.4995 9.5H12.4995C12.7647 9.5 13.0191 9.60536 13.2066 9.79289C13.3942 9.98043 13.4995 10.2348 13.4995 10.5V12.5Z" fill="#C50F1F"/>
</g>
<defs>
<clipPath id="clip0_7204_99316">
<rect width="16" height="16" fill="white"/>
</clipPath>
</defs>
</svg>
