<svg width="16" height="16" viewBox="0 0 16 16" fill="none" xmlns="http://www.w3.org/2000/svg">
<path fill-rule="evenodd" clip-rule="evenodd" d="M11 10.5V7.121L11.003 7.119L12.003 6.119V10.498C12.003 10.9 11.847 11.277 11.563 11.56L11.56 11.562L8.56298 14.559L8.56498 14.562C8.28298 14.843 7.90598 14.998 7.50198 14.998H2.50198C2.27598 14.998 2.06398 14.936 1.86498 14.842L1.85498 14.852L1.80998 14.807L1.80577 14.8048C1.68115 14.7395 1.55576 14.6739 1.44798 14.572C1.33918 14.4573 1.27049 14.3288 1.20224 14.2012L1.19998 14.197L1.14798 14.145L1.15798 14.135C1.06198 13.934 1.00098 13.723 1.00098 13.499V8.499C1.00098 8.094 1.15598 7.716 1.43798 7.435L1.44098 7.438L4.43798 4.441L4.43998 4.438C4.72298 4.156 5.09998 4 5.49998 4H9.87898L8.87898 5H5.49998C5.36598 5 5.23998 5.051 5.14598 5.146C5.05198 5.241 4.99998 5.366 4.99998 5.5V10.5C4.99998 10.775 5.22398 11 5.49998 11H10.5C10.6256 11 10.7442 10.9552 10.836 10.8713L10.854 10.8533C10.9478 10.7583 11 10.6338 11 10.5ZM1.99998 8.5V13.292L4.14598 11.146L4.15898 11.159C4.06098 10.96 3.99998 10.738 3.99998 10.5V6.293L2.14598 8.147L1.78998 7.791L2.14298 8.145C2.05098 8.236 1.99998 8.362 1.99998 8.5ZM7.85698 13.857L7.85398 13.854L7.85198 13.855L9.70598 12.001H5.49898C5.26198 12.001 5.03998 11.941 4.83998 11.842L4.85298 11.855L2.70698 14.001H7.50098C7.63798 14.001 7.76398 13.95 7.85698 13.857Z" fill="#202020"/>
<path d="M10.5 1C10.224 1 9.99998 1.224 9.99998 1.5C9.99998 1.776 10.224 2 10.5 2H13.293L8.14698 7.146C7.95198 7.341 7.95198 7.658 8.14698 7.853C8.24498 7.951 8.37298 7.999 8.50098 7.999C8.62898 7.999 8.75698 7.95 8.85498 7.853L14.001 2.707V5.5C14.001 5.776 14.225 6 14.501 6C14.777 6 15.001 5.776 15.001 5.5V1.5C15.001 1.224 14.777 1 14.501 1H10.5Z" fill="#006CBF"/>
</svg>
