<svg width="16" height="16" viewBox="0 0 16 16" fill="none" xmlns="http://www.w3.org/2000/svg">
<path d="M4.75 7H2.25C1.561 7 1 6.439 1 5.75V3.25C1 2.561 1.561 2 2.25 2H4.75C5.439 2 6 2.561 6 3.25V5.75C6 6.439 5.439 7 4.75 7ZM2.25 3C2.112 3 2 3.112 2 3.25V5.75C2 5.888 2.112 6 2.25 6H4.75C4.888 6 5 5.888 5 5.75V3.25C5 3.112 4.888 3 4.75 3H2.25ZM15 3.5C15 3.224 14.776 3 14.5 3H8.5C8.224 3 8 3.224 8 3.5C8 3.776 8.224 4 8.5 4H14.5C14.776 4 15 3.776 15 3.5ZM13 5.5C13 5.224 12.776 5 12.5 5H8.5C8.224 5 8 5.224 8 5.5C8 5.776 8.224 6 8.5 6H12.5C12.776 6 13 5.776 13 5.5ZM4.75 14H2.25C1.561 14 1 13.439 1 12.75V10.25C1 9.561 1.561 9 2.25 9H4.75C5.439 9 6 9.561 6 10.25V12.75C6 13.439 5.439 14 4.75 14ZM2.25 10C2.112 10 2 10.112 2 10.25V12.75C2 12.888 2.112 13 2.25 13H4.75C4.888 13 5 12.888 5 12.75V10.25C5 10.112 4.888 10 4.75 10H2.25ZM15 10.5C15 10.224 14.776 10 14.5 10H8.5C8.224 10 8 10.224 8 10.5C8 10.776 8.224 11 8.5 11H14.5C14.776 11 15 10.776 15 10.5ZM13 12.5C13 12.224 12.776 12 12.5 12H8.5C8.224 12 8 12.224 8 12.5C8 12.776 8.224 13 8.5 13H12.5C12.776 13 13 12.776 13 12.5Z" fill="#202020"/>
</svg>
