<svg width="16" height="16" viewBox="0 0 16 16" fill="none" xmlns="http://www.w3.org/2000/svg">
<path d="M7.5 11.207L5.857 12.85C6.053 12.944 6.269 13 6.5 13H9.5C9.731 13 9.947 12.943 10.143 12.85L8.5 11.207C8.232 10.939 7.768 10.939 7.5 11.207ZM9.5 7H6.5C5.673 7 5 7.673 5 8.5V11.5C5 11.731 5.057 11.947 5.15 12.143L6.793 10.5C7.438 9.855 8.563 9.855 9.207 10.5L10.85 12.143C10.944 11.947 11 11.731 11 11.5V8.5C11 7.673 10.327 7 9.5 7ZM9.5 9C9.224 9 9 8.776 9 8.5C9 8.224 9.224 8 9.5 8C9.776 8 10 8.224 10 8.5C10 8.776 9.776 9 9.5 9Z" fill="#202020"/>
<path d="M5 1C3.895 1 3 1.895 3 3V13C3 14.105 3.895 15 5 15H11C12.105 15 13 14.105 13 13V5.414C13 5.016 12.842 4.635 12.561 4.353L9.647 1.439C9.366 1.158 8.984 1 8.586 1H5ZM4 3C4 2.448 4.448 2 5 2H8V4.5C8 5.328 8.672 6 9.5 6H12V13C12 13.552 11.552 14 11 14H5C4.448 14 4 13.552 4 13V3ZM11.793 5H9.5C9.224 5 9 4.776 9 4.5V2.207L11.793 5Z" fill="#202020"/>
</svg>
