<svg width="16" height="16" viewBox="0 0 16 16" fill="none" xmlns="http://www.w3.org/2000/svg">
<g clip-path="url(#clip0_7204_99397)">
<path d="M11.146 3.85423C11.244 3.95123 11.372 4.00023 11.5 4.00023C11.628 4.00023 11.756 3.95223 11.854 3.85423C12.049 3.65923 12.049 3.34223 11.854 3.14723L10.854 2.14723C10.659 1.95223 10.342 1.95223 10.147 2.14723L9.14698 3.14723C8.95198 3.34223 8.95198 3.65923 9.14698 3.85423C9.34198 4.04923 9.65898 4.04923 9.85398 3.85423L10.5 3.20823L11.146 3.85423Z" fill="#006CBF"/>
<path d="M11.854 7.85423L10.854 8.85423H10.856C10.758 8.95123 10.63 9.00023 10.502 9.00023C10.374 9.00023 10.246 8.95223 10.148 8.85423L9.14798 7.85423C8.95298 7.65923 8.95298 7.34223 9.14798 7.14723C9.34298 6.95223 9.65998 6.95223 9.85498 7.14723L10.501 7.79323L11.147 7.14723C11.342 6.95223 11.659 6.95223 11.854 7.14723C12.049 7.34223 12.049 7.65923 11.854 7.85423Z" fill="#006CBF"/>
<path d="M9.97749 11H12C13.103 11 14 10.103 14 9V2C14 0.897 13.103 0 12 0H9C7.897 0 7 0.897 7 2V6.60069C7.35778 6.78358 7.69289 7.00451 8 7.25814V2C8 1.448 8.449 1 9 1H12C12.551 1 13 1.448 13 2V9C13 9.552 12.551 10 12 10H9.79269C9.88391 10.3223 9.94648 10.6566 9.97749 11Z" fill="#202020"/>
<path d="M9 11.501C9 13.9863 6.98528 16.001 4.5 16.001C2.01472 16.001 0 13.9863 0 11.501C0 9.0157 2.01472 7.00098 4.5 7.00098C6.98528 7.00098 9 9.0157 9 11.501ZM4.5 9.00098C4.22386 9.00098 4 9.22483 4 9.50098V11.501C4 11.7771 4.22386 12.001 4.5 12.001H6C6.27614 12.001 6.5 11.7771 6.5 11.501C6.5 11.2248 6.27614 11.001 6 11.001H5V9.50098C5 9.22483 4.77614 9.00098 4.5 9.00098Z" fill="#202020"/>
</g>
<defs>
<clipPath id="clip0_7204_99397">
<rect width="16" height="16" fill="white"/>
</clipPath>
</defs>
</svg>
