<svg width="16" height="16" viewBox="0 0 16 16" fill="none" xmlns="http://www.w3.org/2000/svg">
<g clip-path="url(#clip0_7204_99381)">
<path fill-rule="evenodd" clip-rule="evenodd" d="M14 0H2.99998C1.89698 0 0.999985 0.897 0.999985 2V7.25814C1.30709 7.00451 1.6422 6.78358 1.99998 6.60069V2C1.99998 1.449 2.44798 1 2.99998 1H8.99998V8.3379C9.53965 9.10425 9.8885 10.0146 9.97748 11H14C15.103 11 16 10.103 16 9V2C16 0.897 15.103 0 14 0ZM15 9C15 9.551 14.552 10 14 10H9.99998V1H14C14.552 1 15 1.449 15 2V9Z" fill="#202020"/>
<path d="M6.49998 4H4.49998C4.22398 4 3.99998 3.776 3.99998 3.5C3.99998 3.224 4.22398 3 4.49998 3H6.49998C6.77598 3 6.99998 3.224 6.99998 3.5C6.99998 3.776 6.77598 4 6.49998 4Z" fill="#202020"/>
<path d="M4.49998 5H6.49998C6.77598 5 6.99998 5.224 6.99998 5.5C6.99998 5.776 6.77598 6 6.49998 6H4.49998C4.22398 6 3.99998 5.776 3.99998 5.5C3.99998 5.224 4.22398 5 4.49998 5Z" fill="#202020"/>
<path d="M13.146 3.85401C13.244 3.95101 13.372 4.00001 13.5 4.00001C13.628 4.00001 13.756 3.95201 13.854 3.85401C14.049 3.65901 14.049 3.34201 13.854 3.14701L12.854 2.14701C12.659 1.95201 12.342 1.95201 12.147 2.14701L11.147 3.14701C10.952 3.34201 10.952 3.65901 11.147 3.85401C11.342 4.04901 11.659 4.04901 11.854 3.85401L12.5 3.20801L13.146 3.85401Z" fill="#006CBF"/>
<path d="M13.854 7.85401L12.854 8.85401H12.856C12.758 8.95101 12.63 9.00001 12.502 9.00001C12.374 9.00001 12.246 8.95201 12.148 8.85401L11.148 7.85401C10.953 7.65901 10.953 7.34201 11.148 7.14701C11.343 6.95201 11.66 6.95201 11.855 7.14701L12.501 7.79301L13.147 7.14701C13.342 6.95201 13.659 6.95201 13.854 7.14701C14.049 7.34201 14.049 7.65901 13.854 7.85401Z" fill="#006CBF"/>
<path d="M8.99998 11.501C8.99998 13.9863 6.98527 16.001 4.49998 16.001C2.0147 16.001 -1.52588e-05 13.9863 -1.52588e-05 11.501C-1.52588e-05 9.0157 2.0147 7.00098 4.49998 7.00098C6.98527 7.00098 8.99998 9.0157 8.99998 11.501ZM4.49998 9.00098C4.22384 9.00098 3.99998 9.22483 3.99998 9.50098V11.501C3.99998 11.7771 4.22384 12.001 4.49998 12.001H5.99998C6.27613 12.001 6.49998 11.7771 6.49998 11.501C6.49998 11.2248 6.27613 11.001 5.99998 11.001H4.99998V9.50098C4.99998 9.22483 4.77613 9.00098 4.49998 9.00098Z" fill="#202020"/>
</g>
<defs>
<clipPath id="clip0_7204_99381">
<rect width="16" height="16" fill="white"/>
</clipPath>
</defs>
</svg>
