<svg width="16" height="16" viewBox="0 0 16 16" fill="none" xmlns="http://www.w3.org/2000/svg">
<path d="M14.039 3.28696L9.077 1.37896C8.384 1.11196 7.616 1.11196 6.923 1.37896L1.962 3.28696C1.383 3.50996 1 4.06596 1 4.68696V11.313C1 11.934 1.382 12.49 1.962 12.713L6.923 14.621C7.616 14.888 8.384 14.888 9.077 14.621L14.039 12.713C14.618 12.49 15 11.934 15 11.313V4.68696C15 4.06596 14.618 3.50996 14.039 3.28696ZM14 11.313C14 11.52 13.873 11.705 13.68 11.78L8.718 13.688C8.646 13.716 8.574 13.739 8.5 13.758V11.908C8.343 11.964 8.176 12 8 12C7.824 12 7.657 11.964 7.5 11.908V13.758C7.426 13.739 7.354 13.716 7.282 13.688L2.32 11.78C2.127 11.706 2 11.52 2 11.313V4.97196L4.566 6.07196C4.704 6.02996 4.848 5.99996 5 5.99996H6.5V5.81296L2.564 4.12596L7.282 2.31096C7.744 2.13296 8.256 2.13296 8.718 2.31096L13.436 4.12596L9.5 5.81296V5.99996H11C11.152 5.99996 11.297 6.02996 11.435 6.07196L14 4.97296V11.313Z" fill="#202020"/>
<path d="M11 7H8.5V4.5C8.5 4.224 8.276 4 8 4C7.724 4 7.5 4.224 7.5 4.5V7H5C4.724 7 4.5 7.224 4.5 7.5C4.5 7.776 4.724 8 5 8H7.5V10.5C7.5 10.776 7.724 11 8 11C8.276 11 8.5 10.776 8.5 10.5V8H11C11.276 8 11.5 7.776 11.5 7.5C11.5 7.224 11.276 7 11 7Z" fill="#006CBF"/>
</svg>
