<svg width="16" height="16" viewBox="0 0 16 16" fill="none" xmlns="http://www.w3.org/2000/svg">
<path fill-rule="evenodd" clip-rule="evenodd" d="M12.286 1.08459L14.287 1.68559C14.714 1.81359 15 2.19859 15 2.64359V5.39959C15 5.84459 14.714 6.22959 14.287 6.35759L12.287 6.95759C12.193 6.98559 12.096 6.99959 12 6.99959C11.903 6.99959 11.808 6.98559 11.714 6.95759L9.713 6.35659C9.286 6.22859 9 5.8436 9 5.39859V2.64259C9 2.19759 9.286 1.81259 9.713 1.68459L11.713 1.08459C11.901 1.02859 12.1 1.02959 12.286 1.08459ZM10 3.38159V5.39959L11.517 5.85459C11.5151 5.84422 11.5123 5.83412 11.5095 5.82404C11.5048 5.80691 11.5 5.78985 11.5 5.77159V3.88159L10 3.38159ZM10.498 2.49459L12 2.99559L13.502 2.49459L12 2.04359L10.498 2.49459ZM12.483 5.85459L14 5.39959V3.38159L12.5 3.88159V5.77159C12.5 5.78985 12.4952 5.80691 12.4905 5.82404C12.4877 5.83412 12.4849 5.84422 12.483 5.85459Z" fill="#202020"/>
<path fill-rule="evenodd" clip-rule="evenodd" d="M5.50009 5C4.67209 5 4.00009 5.672 4.00009 6.5L3.99909 6.501V9.663L3.65909 9.479C2.60409 8.908 1.29409 9.499 1.02409 10.668C0.946089 11.003 1.08309 11.35 1.36709 11.542L3.82709 13.205C3.84109 13.214 3.85609 13.223 3.87109 13.231C4.46309 13.548 4.92309 14.008 5.22009 14.366C5.57009 14.787 6.13509 15.075 6.74309 14.983L8.64209 14.694C9.24009 14.603 9.72609 14.161 9.87209 13.574L10.4251 11.355C10.7811 9.926 9.83109 8.5 8.37509 8.279L7.00009 8.07V6.5C7.00009 5.672 6.32809 5 5.50009 5ZM5.00009 6.5C5.00009 6.224 5.22409 6 5.50009 6L5.49909 5.998C5.77509 5.998 5.99909 6.222 5.99909 6.498V8.498C5.99909 8.745 6.18009 8.955 6.42409 8.992L8.22409 9.266C9.09809 9.399 9.66809 10.254 9.45409 11.112L8.90109 13.331C8.85209 13.526 8.69109 13.674 8.49109 13.704L6.59209 13.993C6.39509 14.023 6.16009 13.932 5.98909 13.726C5.64909 13.316 5.10109 12.76 4.36709 12.361L2.03209 10.782C2.20509 10.33 2.74409 10.119 3.18409 10.357L4.26209 10.94C4.41709 11.024 4.60509 11.02 4.75609 10.93C4.90709 10.84 5.00009 10.677 5.00009 10.501V6.5Z" fill="#202020"/>
</svg>
