<svg width="16" height="16" viewBox="0 0 16 16" fill="none" xmlns="http://www.w3.org/2000/svg">
<g clip-path="url(#clip0_7204_99468)">
<path fill-rule="evenodd" clip-rule="evenodd" d="M10.9733 8.09535C10.991 8.183 11.0002 8.27368 11.0002 8.36653V10.0501C12.1412 10.2818 13 11.2906 13 12.5C13 13.8807 11.8807 15 10.5 15C9.11929 15 8 13.8807 8 12.5C8 11.2904 8.859 10.2815 10.0002 10.05V8.36653C10.0002 8.16407 9.83612 7.99994 9.63365 7.99994H4.36684C4.16437 7.99994 4.00024 8.16407 4.00024 8.36653V10.0501C5.14124 10.2818 6 11.2906 6 12.5C6 13.8807 4.88071 15 3.5 15C2.11929 15 1 13.8807 1 12.5C1 11.2904 1.859 10.2815 3.00024 10.05V8.36653C3.00024 7.61178 3.61209 6.99994 4.36684 6.99994H6.4995V5.94989C5.35863 5.71806 4.5 4.7093 4.5 3.5C4.5 2.11929 5.61929 1 7 1C8.38071 1 9.5 2.11929 9.5 3.5C9.5 4.70966 8.64087 5.71865 7.4995 5.95009V6.99994H9.63365C9.80505 6.99994 9.96907 7.03149 10.1202 7.0891C10.1951 7.26475 10.3033 7.42537 10.4397 7.56169L10.9733 8.09535ZM7 2C6.17157 2 5.5 2.67157 5.5 3.5C5.5 4.32843 6.17157 5 7 5C7.82843 5 8.5 4.32843 8.5 3.5C8.5 2.67157 7.82843 2 7 2ZM3.5 11C2.67157 11 2 11.6716 2 12.5C2 13.3284 2.67157 14 3.5 14C4.32843 14 5 13.3284 5 12.5C5 11.6716 4.32843 11 3.5 11ZM12 12.5C12 11.6716 11.3284 11 10.5 11C9.67157 11 9 11.6716 9 12.5C9 13.3284 9.67157 14 10.5 14C11.3284 14 12 13.3284 12 12.5Z" fill="#202020"/>
<path d="M13.8546 1.1466L15.8546 3.1466C15.9485 3.24049 16.0013 3.36783 16.0013 3.5006C16.0013 3.63338 15.9485 3.76072 15.8546 3.8546C15.7607 3.94849 15.6334 4.00123 15.5006 4.00123C15.3679 4.00123 15.2405 3.94849 15.1466 3.8546L14.0006 2.7076L14.0006 7.2936L15.1466 6.1466C15.2405 6.05271 15.3679 5.99997 15.5006 5.99997C15.6334 5.99997 15.7607 6.05271 15.8546 6.1466C15.9485 6.24049 16.0013 6.36783 16.0013 6.5006C16.0013 6.63338 15.9485 6.76071 15.8546 6.8546L13.8546 8.8546C13.8082 8.90116 13.753 8.93811 13.6923 8.96331C13.6315 8.98852 13.5664 9.0015 13.5006 9.0015C13.4349 9.0015 13.3697 8.98852 13.309 8.96331C13.2483 8.93811 13.1931 8.90116 13.1466 8.8546L11.1466 6.8546C11.0527 6.76071 11 6.63338 11 6.5006C11 6.36783 11.0527 6.24049 11.1466 6.1466C11.2405 6.05271 11.3679 5.99997 11.5006 5.99997C11.6334 5.99997 11.7607 6.05271 11.8546 6.1466L13.0006 7.2936L13.0006 2.7076L11.8546 3.8546C11.7607 3.94849 11.6334 4.00123 11.5006 4.00123C11.3679 4.00123 11.2405 3.94849 11.1466 3.8546C11.0527 3.76072 11 3.63338 11 3.5006C11 3.36783 11.0527 3.24049 11.1466 3.1466L13.1466 1.1466C13.1931 1.10004 13.2483 1.0631 13.309 1.03789C13.3697 1.01268 13.4349 0.999708 13.5006 0.999708C13.5664 0.999708 13.6315 1.01268 13.6923 1.03789C13.753 1.0631 13.8082 1.10004 13.8546 1.1466Z" fill="#006CBF"/>
</g>
<defs>
<clipPath id="clip0_7204_99468">
<rect width="16" height="16" fill="white"/>
</clipPath>
</defs>
</svg>
