<svg width="16" height="16" viewBox="0 0 16 16" fill="none" xmlns="http://www.w3.org/2000/svg">
<path d="M14 1.5C14 1.224 14.224 1 14.5 1C14.776 1 15 1.224 15 1.5V13C15 14.103 14.103 15 13 15H1.5C1.224 15 1 14.776 1 14.5C1 14.224 1.224 14 1.5 14H5V12.5C5 12.224 5.224 12 5.5 12C5.776 12 6 12.224 6 12.5V14H13C13.551 14 14 13.551 14 13V6H12.5C12.224 6 12 5.776 12 5.5C12 5.224 12.224 5 12.5 5H14V1.5Z" fill="#202020"/>
<path d="M5 8.5C5 8.224 5.224 8 5.5 8C5.776 8 6 8.224 6 8.5V10.5C6 10.776 5.776 11 5.5 11C5.224 11 5 10.776 5 10.5V8.5Z" fill="#202020"/>
<path d="M8.5 6H10.5C10.776 6 11 5.776 11 5.5C11 5.224 10.776 5 10.5 5H8.5C8.224 5 8 5.224 8 5.5C8 5.776 8.224 6 8.5 6Z" fill="#202020"/>
<path d="M5 6H4.5C4.224 6 4 5.776 4 5.5C4 5.224 4.224 5 4.5 5H5V4.5C5 4.224 5.224 4 5.5 4C5.776 4 6 4.224 6 4.5V5H6.5C6.776 5 7 5.224 7 5.5C7 5.776 6.776 6 6.5 6H6V6.5C6 6.776 5.776 7 5.5 7C5.224 7 5 6.776 5 6.5V6Z" fill="#202020"/>
<path d="M1.5 6H2.5C2.776 6 3 5.776 3 5.5C3 5.224 2.776 5 2.5 5H1.5C1.224 5 1 5.224 1 5.5C1 5.776 1.224 6 1.5 6Z" fill="#202020"/>
<path d="M6 2.5C6 2.776 5.776 3 5.5 3C5.224 3 5 2.776 5 2.5V1.5C5 1.224 5.224 1 5.5 1C5.776 1 6 1.224 6 1.5V2.5Z" fill="#202020"/>
</svg>
