<svg width="16" height="16" viewBox="0 0 16 16" fill="none" xmlns="http://www.w3.org/2000/svg">
<path d="M9.507 3H6.507C5.679 3 5.007 3.672 5.007 4.5V5H5V5.5H6V5H6.007V4.5C6.007 4.224 6.231 4 6.507 4H9.507C9.783 4 10.007 4.224 10.007 4.5V5H10V5.5H11V5H11.007V4.5C11.007 3.672 10.335 3 9.507 3Z" fill="#202020"/>
<path d="M12 5H11.007H10.007H6.007H5.007H4C2.895 5 2 5.895 2 7V10.999C2 12.104 2.895 12.999 4 12.999H12C13.105 12.999 14 12.104 14 10.999V7C14 5.895 13.105 5 12 5ZM13 10.999C13 11.551 12.552 11.999 12 11.999H4C3.448 11.999 3 11.551 3 10.999V9H4.5H11.5H13V10.999ZM13 8H11H10H6H5H3V7C3 6.448 3.448 6 4 6H12C12.552 6 13 6.448 13 7V8Z" fill="#C50F1F"/>
<path d="M5 9.5C5 9.776 5.224 10 5.5 10C5.776 10 6 9.776 6 9.5V7.5C6 7.224 5.776 7 5.5 7C5.224 7 5 7.224 5 7.5V9.5Z" fill="#202020"/>
<path d="M10 9.5C10 9.776 10.224 10 10.5 10C10.776 10 11 9.776 11 9.5V7.5C11 7.224 10.776 7 10.5 7C10.224 7 10 7.224 10 7.5V9.5Z" fill="#202020"/>
</svg>
