<svg width="16" height="16" viewBox="0 0 16 16" fill="none" xmlns="http://www.w3.org/2000/svg">
<g clip-path="url(#clip0_7204_99580)">
<path fill-rule="evenodd" clip-rule="evenodd" d="M2.5 10H6.5C7.327 10 8 9.327 8 8.5V7.5C8 6.673 7.327 6 6.5 6H2.5C1.673 6 1 6.673 1 7.5V8.5C1 9.327 1.673 10 2.5 10ZM2 7.5C2 7.224 2.225 7 2.5 7H6.5C6.775 7 7 7.224 7 7.5V8.5C7 8.776 6.775 9 6.5 9H2.5C2.225 9 2 8.776 2 8.5V7.5Z" fill="#006CBF"/>
<path d="M4.5 5H8.5C9.327 5 10 4.327 10 3.5V2.5C10 2.224 9.776 2 9.5 2C9.224 2 9 2.224 9 2.5V3.5C9 3.776 8.775 4 8.5 4H4.5C4.225 4 4 3.776 4 3.5V2.5C4 2.224 3.776 2 3.5 2C3.224 2 3 2.224 3 2.5V3.5C3 4.327 3.673 5 4.5 5Z" fill="#202020"/>
<path d="M9.9143 12C9.70791 11.418 9.15178 11 8.5 11H4.5C3.673 11 3 11.673 3 12.5V13.5C3 13.776 3.224 14 3.5 14C3.776 14 4 13.776 4 13.5V12.5C4 12.224 4.225 12 4.5 12H8.5C8.63747 12 8.76245 12.056 8.85307 12.1464C9.05318 12.051 9.27401 12 9.5 12H9.9143Z" fill="#202020"/>
<path d="M13.85 15.85C13.805 15.897 13.751 15.935 13.69 15.961C13.63 15.987 13.565 16 13.5 16C13.435 16 13.37 15.987 13.31 15.961C13.25 15.935 13.196 15.897 13.15 15.85C13.103 15.805 13.065 15.751 13.039 15.69C13.013 15.63 13 15.565 13 15.5C13 15.435 13.013 15.37 13.039 15.31C13.065 15.25 13.103 15.196 13.15 15.15L14.29 14H9.5C9.367 14 9.24 13.947 9.146 13.854C9.052 13.761 9 13.633 9 13.5C9 13.367 9.053 13.24 9.146 13.146C9.24 13.052 9.367 13 9.5 13H14.29L13.15 11.85C13.059 11.757 13.008 11.631 13.009 11.501C13.009 11.371 13.062 11.246 13.154 11.153C13.246 11.061 13.371 11.009 13.502 11.008C13.632 11.008 13.758 11.058 13.851 11.149L15.851 13.149C15.898 13.194 15.936 13.248 15.962 13.309C15.988 13.369 16.001 13.434 16.001 13.499C16.001 13.564 15.988 13.629 15.962 13.689C15.936 13.749 15.898 13.803 15.851 13.849L13.85 15.85Z" fill="#006CBF"/>
</g>
<defs>
<clipPath id="clip0_7204_99580">
<rect width="16" height="16" fill="white"/>
</clipPath>
</defs>
</svg>
