<svg width="16" height="16" viewBox="0 0 16 16" fill="none" xmlns="http://www.w3.org/2000/svg">
<g clip-path="url(#clip0_7204_99564)">
<path fill-rule="evenodd" clip-rule="evenodd" d="M7.5 10H11.5C12.327 10 13 9.327 13 8.5V7.5C13 6.673 12.327 6 11.5 6H7.5C6.673 6 6 6.673 6 7.5V8.5C6 9.327 6.673 10 7.5 10ZM7 7.5C7 7.224 7.225 7 7.5 7H11.5C11.775 7 12 7.224 12 7.5V8.5C12 8.776 11.775 9 11.5 9H7.5C7.225 9 7 8.776 7 8.5V7.5Z" fill="#006CBF"/>
<path d="M9.5 5H13.5C14.327 5 15 4.327 15 3.5V2.5C15 2.224 14.776 2 14.5 2C14.224 2 14 2.224 14 2.5V3.5C14 3.776 13.775 4 13.5 4H9.5C9.225 4 9 3.776 9 3.5V2.5C9 2.224 8.776 2 8.5 2C8.224 2 8 2.224 8 2.5V3.5C8 4.327 8.673 5 9.5 5Z" fill="#202020"/>
<path d="M15 12.5V13.5C15 13.776 14.776 14 14.5 14C14.224 14 14 13.776 14 13.5V12.5C14 12.224 13.775 12 13.5 12H9.5C9.225 12 9 12.224 9 12.5V13.5C9 13.776 8.776 14 8.5 14C8.224 14 8 13.776 8 13.5C8.00001 13.4968 8.00001 13.4935 8 13.4903V12.5C8 11.673 8.673 11 9.5 11H13.5C14.327 11 15 11.673 15 12.5Z" fill="#202020"/>
<path d="M6.85 13.85L4.85 15.85C4.80488 15.8975 4.75059 15.9352 4.69042 15.9611C4.63026 15.9869 4.56547 16.0002 4.5 16.0002C4.43453 16.0002 4.36974 15.9869 4.30958 15.9611C4.24941 15.9352 4.19512 15.8975 4.15 15.85C4.10256 15.8049 4.06478 15.7506 4.03897 15.6905C4.01316 15.6303 3.99985 15.5655 3.99985 15.5C3.99985 15.4346 4.01316 15.3698 4.03897 15.3096C4.06478 15.2494 4.10256 15.1951 4.15 15.15L5.29 14H0.5C0.367392 14 0.240215 13.9473 0.146447 13.8536C0.0526784 13.7598 0 13.6326 0 13.5C0 13.3674 0.0526784 13.2402 0.146447 13.1465C0.240215 13.0527 0.367392 13 0.5 13H5.29L4.15 11.85C4.10256 11.8049 4.06478 11.7506 4.03897 11.6905C4.01316 11.6303 3.99985 11.5655 3.99985 11.5C3.99985 11.4346 4.01316 11.3698 4.03897 11.3096C4.06478 11.2494 4.10256 11.1951 4.15 11.15C4.19512 11.1026 4.24941 11.0648 4.30958 11.039C4.36974 11.0132 4.43453 10.9999 4.5 10.9999C4.56547 10.9999 4.63026 11.0132 4.69042 11.039C4.75059 11.0648 4.80488 11.1026 4.85 11.15L6.85 13.15C6.89744 13.1951 6.93522 13.2494 6.96103 13.3096C6.98684 13.3698 7.00015 13.4346 7.00015 13.5C7.00015 13.5655 6.98684 13.6303 6.96103 13.6905C6.93522 13.7506 6.89744 13.8049 6.85 13.85V13.85Z" fill="#006CBF"/>
</g>
<defs>
<clipPath id="clip0_7204_99564">
<rect width="16" height="16" fill="white"/>
</clipPath>
</defs>
</svg>
