<svg width="16" height="16" viewBox="0 0 16 16" fill="none" xmlns="http://www.w3.org/2000/svg">
<path d="M3.5 12.5C3.5 12.2239 3.72386 12 4 12H6C6.22805 12 6.42044 12.1527 6.48054 12.3614C6.31785 12.5538 6.18201 12.7667 6.07627 12.9942C6.0514 12.998 6.02593 13 6 13H4C3.72386 13 3.5 12.7761 3.5 12.5Z" fill="#202020"/>
<path d="M5.81939 14H2.75C2.33579 14 2 13.6642 2 13.25V2.75C2 2.33579 2.33579 2 2.75 2H7.25C7.66421 2 8 2.33579 8 2.75V6.63415C8.36984 6.74077 8.7128 6.93215 9 7.19631V2.75C9 1.7835 8.2165 1 7.25 1H2.75C1.7835 1 1 1.7835 1 2.75V13.25C1 14.2165 1.7835 15 2.75 15H5.93412C5.83666 14.6775 5.7973 14.3388 5.81939 14Z" fill="#202020"/>
<path d="M6.95311 8.68075C6.85938 8.77451 6.80672 8.90166 6.80672 9.03425C6.80672 9.16683 6.85938 9.29398 6.95311 9.38775L9.78311 12.2167C9.8444 12.278 9.88873 12.3541 9.91175 12.4376C9.93476 12.5212 9.93568 12.6092 9.9144 12.6932C9.89313 12.7772 9.85039 12.8542 9.79039 12.9167C9.73038 12.9792 9.65517 13.0251 9.57211 13.0497L8.39711 13.3997C8.28581 13.433 8.18286 13.4895 8.09511 13.5656C8.00737 13.6417 7.93683 13.7356 7.88821 13.8411C7.83958 13.9466 7.81398 14.0612 7.8131 14.1774C7.81222 14.2935 7.83609 14.4085 7.88311 14.5147L10.6511 13.9807C11.3376 13.7889 12.0539 13.7271 12.7631 13.7987C12.8774 13.8145 12.9939 13.801 13.1016 13.7596C13.2094 13.7181 13.3048 13.6501 13.3791 13.5617L14.5171 12.0147C14.5756 11.9353 14.6093 11.8403 14.614 11.7417C14.6186 11.6431 14.5939 11.5453 14.5431 11.4607L13.3661 9.50075C13.2585 9.32181 13.1148 9.1673 12.9441 9.0471C12.7734 8.92691 12.5794 8.84368 12.3747 8.80273C12.17 8.76178 11.959 8.76403 11.7552 8.80932C11.5513 8.85461 11.3592 8.94195 11.1911 9.06575L9.72511 10.1437C9.62881 10.2147 9.51028 10.2487 9.39103 10.2397C9.27177 10.2307 9.15969 10.1793 9.07511 10.0947L7.66111 8.68075C7.61467 8.63418 7.55949 8.59724 7.49874 8.57203C7.438 8.54683 7.37288 8.53385 7.30711 8.53385C7.24134 8.53385 7.17622 8.54683 7.11548 8.57203C7.05473 8.59724 6.99956 8.63418 6.95311 8.68075ZM6.24611 10.0947C5.96485 9.81335 5.80689 9.43175 5.80698 9.03389C5.80708 8.63603 5.96522 8.25451 6.24661 7.97325C6.52801 7.69198 6.90961 7.53402 7.30746 7.53412C7.70532 7.53421 8.08685 7.69235 8.36811 7.97375L9.47811 9.08375L10.5981 8.25975C10.8784 8.05346 11.1986 7.90796 11.5383 7.83255C11.8781 7.75714 12.2298 7.75349 12.571 7.82182C12.9122 7.89016 13.2354 8.02898 13.5199 8.22941C13.8044 8.42983 14.0439 8.68744 14.2231 8.98575L15.4001 10.9457C15.5527 11.1994 15.6269 11.4926 15.6132 11.7884C15.5995 12.0842 15.4985 12.3692 15.3231 12.6077L14.1841 14.1547C14.008 14.3822 13.7763 14.5606 13.5113 14.6727C13.2464 14.7848 12.957 14.8268 12.6711 14.7947C12.0812 14.7338 11.485 14.785 10.9141 14.9457C10.8981 14.9508 10.8817 14.9548 10.8651 14.9577L7.95011 15.5207C7.78551 15.5525 7.61516 15.5337 7.46147 15.4667C7.30779 15.3998 7.17797 15.2879 7.08911 15.1457C6.94168 14.9086 6.85089 14.6406 6.82379 14.3627C6.7967 14.0848 6.83403 13.8044 6.93288 13.5432C7.03174 13.282 7.18946 13.0472 7.3938 12.8568C7.59814 12.6665 7.84359 12.5258 8.11111 12.4457L8.48211 12.3347L6.24611 10.0947Z" fill="#202020"/>
</svg>
