<svg width="16" height="16" viewBox="0 0 16 16" fill="none" xmlns="http://www.w3.org/2000/svg">
<path d="M8.00202 1.00134C7.47268 1.00134 6.96492 1.2112 6.59002 1.58492L1.58942 6.58553C1.21448 6.96058 1.00385 7.4692 1.00385 7.99953C1.00385 8.52985 1.21453 9.03852 1.58947 9.41358L6.59002 14.4141C6.96492 14.7879 7.47268 14.9977 8.00202 14.9977C8.53137 14.9977 9.03969 14.7873 9.41458 14.4136L14.4146 9.41352C14.7896 9.03847 15.0002 8.52985 15.0002 7.99953C15.0002 7.4692 14.7895 6.96053 14.4146 6.58547L9.41402 1.58492C9.03913 1.2112 8.53137 1.00134 8.00202 1.00134Z" fill="#C50F1F"/>
</svg>
