<svg width="16" height="16" viewBox="0 0 16 16" fill="none" xmlns="http://www.w3.org/2000/svg">
<g clip-path="url(#clip0_7204_99606)">
<path d="M7.91284 3C7.97024 2.83976 7.9998 2.67063 8 2.49997C8.00056 2.3294 7.97145 2.16024 7.91417 2H11.987C13.091 2 13.985 2.895 13.985 3.999H13.986V6.498H12.987V3.999C12.987 3.447 12.54 3 11.988 3H7.91284Z" fill="#202020"/>
<path d="M2.999 3.99997H2V6.498H2.999V3.99997Z" fill="#202020"/>
<path d="M13.985 11.992V10.245H12.987V11.992C12.987 12.544 12.54 12.991 11.988 12.991H3.998C3.446 12.991 2.999 12.544 2.999 11.992V10.245H2V11.992C2 13.096 2.895 13.991 3.998 13.991H5.991V14H6.99V13.991H8.985V14H9.984V13.991H11.987C13.091 13.991 13.985 13.096 13.985 11.992Z" fill="#202020"/>
<path d="M9.526 5.313C9.599 5.13 9.773 5.007 9.969 4.999L9.97 4.997C10.166 4.989 10.349 5.097 10.437 5.273L11.797 7.995H13.501C13.776 7.995 14 8.219 14 8.495C14 8.771 13.777 8.995 13.501 8.995H11.489C11.3 8.995 11.127 8.888 11.042 8.719L10.041 6.716L8.456 10.68C8.383 10.863 8.209 10.986 8.013 10.994C7.817 11.002 7.634 10.894 7.546 10.718L5.995 7.615L5.443 8.72C5.358 8.889 5.185 8.996 4.996 8.996H2.499C2.224 8.996 2 8.772 2 8.496C2 8.22 2.224 7.997 2.499 7.997H4.686L5.547 6.275C5.632 6.106 5.805 5.999 5.994 5.999C6.183 5.999 6.356 6.106 6.441 6.275L7.941 9.277L9.526 5.313Z" fill="#11910D"/>
<path d="M6.85 2.85003L4.85 4.85003C4.80488 4.89747 4.75059 4.93524 4.69042 4.96106C4.63026 4.98687 4.56547 5.00018 4.5 5.00018C4.43453 5.00018 4.36974 4.98687 4.30958 4.96106C4.24941 4.93524 4.19512 4.89747 4.15 4.85003C4.10256 4.80491 4.06478 4.75062 4.03897 4.69045C4.01316 4.63028 3.99985 4.5655 3.99985 4.50003C3.99985 4.43456 4.01316 4.36977 4.03897 4.3096C4.06478 4.24944 4.10256 4.19515 4.15 4.15003L5.29 3.00003H0.5C0.367392 3.00003 0.240215 2.94735 0.146447 2.85358C0.0526784 2.75981 0 2.63264 0 2.50003C0 2.36742 0.0526784 2.24024 0.146447 2.14647C0.240215 2.05271 0.367392 2.00003 0.5 2.00003H5.29L4.15 0.850028C4.10256 0.804911 4.06478 0.750619 4.03897 0.690452C4.01316 0.630285 3.99985 0.565498 3.99985 0.500028C3.99985 0.434558 4.01316 0.369771 4.03897 0.309604C4.06478 0.249437 4.10256 0.195146 4.15 0.150028C4.19512 0.102586 4.24941 0.0648117 4.30958 0.0389999C4.36974 0.0131882 4.43453 -0.00012207 4.5 -0.00012207C4.56547 -0.00012207 4.63026 0.0131882 4.69042 0.0389999C4.75059 0.0648117 4.80488 0.102586 4.85 0.150028L6.85 2.15003C6.89744 2.19515 6.93522 2.24944 6.96103 2.3096C6.98684 2.36977 7.00015 2.43456 7.00015 2.50003C7.00015 2.5655 6.98684 2.63028 6.96103 2.69045C6.93522 2.75062 6.89744 2.80491 6.85 2.85003V2.85003Z" fill="#006CBF"/>
</g>
<defs>
<clipPath id="clip0_7204_99606">
<rect width="16" height="16" fill="white"/>
</clipPath>
</defs>
</svg>
