<svg width="16" height="16" viewBox="0 0 16 16" fill="none" xmlns="http://www.w3.org/2000/svg">
<path fill-rule="evenodd" clip-rule="evenodd" d="M6.59009 1.58492C6.96498 1.2112 7.47274 1.00134 8.00209 1.00134C8.53144 1.00134 9.03919 1.2112 9.41409 1.58492L14.4146 6.58547C14.7896 6.96053 15.0003 7.4692 15.0003 7.99953C15.0003 8.52985 14.7896 9.03847 14.4147 9.41352L9.41464 14.4136C9.03975 14.7873 8.53143 14.9977 8.00209 14.9977C7.47274 14.9977 6.96498 14.7879 6.59009 14.4141L1.58953 9.41358C1.21459 9.03852 1.00391 8.52985 1.00391 7.99953C1.00391 7.4692 1.21454 6.96058 1.58948 6.58553L6.59009 1.58492ZM11 8.5V5.5C11 5.36739 10.9473 5.24021 10.8536 5.14645C10.7598 5.05268 10.6326 5 10.5 5H7.50001C7.3674 5 7.24023 5.05268 7.14646 5.14645C7.05269 5.24021 7.00001 5.36739 7.00001 5.5C7.00001 5.63261 7.05269 5.75979 7.14646 5.85355C7.24023 5.94732 7.3674 6 7.50001 6H9.29301L7.89601 7.4C7.8124 7.4953 7.76812 7.61881 7.77212 7.74552C7.77612 7.87224 7.82811 7.99271 7.91757 8.08254C8.00702 8.17238 8.12726 8.22488 8.25396 8.22942C8.38066 8.23396 8.50435 8.1902 8.60001 8.107L10 6.707V8.5C10 8.63261 10.0527 8.75979 10.1465 8.85355C10.2402 8.94732 10.3674 9 10.5 9C10.6326 9 10.7598 8.94732 10.8536 8.85355C10.9473 8.75979 11 8.63261 11 8.5ZM5.00805 10.292L6.40001 8.9H6.39601C6.4899 8.80558 6.61745 8.75233 6.7506 8.75195C6.88375 8.75158 7.01159 8.80411 7.10601 8.898C7.20043 8.99189 7.25368 9.11944 7.25406 9.25259C7.25443 9.38574 7.2019 9.51358 7.10801 9.608L5.71605 11C5.62216 11.0939 5.49482 11.1466 5.36205 11.1466C5.22927 11.1466 5.10194 11.0939 5.00805 11C4.91416 10.9061 4.86142 10.7788 4.86142 10.646C4.86142 10.5132 4.91416 10.3859 5.00805 10.292Z" fill="#C50F1F"/>
</svg>
