<svg width="16" height="16" viewBox="0 0 16 16" fill="none" xmlns="http://www.w3.org/2000/svg">
<path d="M11 8.5V5.5C11 5.36739 10.9473 5.24021 10.8535 5.14645C10.7598 5.05268 10.6326 5 10.5 5H7.49998C7.36737 5 7.2402 5.05268 7.14643 5.14645C7.05266 5.24021 6.99998 5.36739 6.99998 5.5C6.99998 5.63261 7.05266 5.75979 7.14643 5.85355C7.2402 5.94732 7.36737 6 7.49998 6H9.29298L7.89598 7.4C7.81237 7.4953 7.76809 7.61881 7.77209 7.74552C7.77609 7.87224 7.82808 7.99271 7.91754 8.08254C8.00699 8.17238 8.12724 8.22488 8.25393 8.22942C8.38063 8.23396 8.50432 8.1902 8.59998 8.107L9.99998 6.707V8.5C9.99998 8.63261 10.0527 8.75979 10.1464 8.85355C10.2402 8.94732 10.3674 9 10.5 9C10.6326 9 10.7598 8.94732 10.8535 8.85355C10.9473 8.75979 11 8.63261 11 8.5Z" fill="#C50F1F"/>
<path fill-rule="evenodd" clip-rule="evenodd" d="M8.00209 1.00134C7.47274 1.00134 6.96498 1.2112 6.59009 1.58492L1.58948 6.58553C1.21454 6.96058 1.00391 7.4692 1.00391 7.99953C1.00391 8.52985 1.21459 9.03852 1.58953 9.41358L6.59009 14.4141C6.96498 14.7879 7.47274 14.9977 8.00209 14.9977C8.53143 14.9977 9.03975 14.7873 9.41464 14.4136L14.4147 9.41352C14.7896 9.03847 15.0003 8.52985 15.0003 7.99953C15.0003 7.4692 14.7896 6.96053 14.4146 6.58547L9.41409 1.58492C9.03919 1.2112 8.53144 1.00134 8.00209 1.00134ZM2.29669 7.29252L7.29609 2.29313C7.48351 2.10639 7.7375 2.00134 8.00209 2.00134C8.26667 2.00134 8.52066 2.10639 8.70809 2.29313L13.7075 7.29258C13.895 7.4801 14.0003 7.73439 14.0003 7.99953C14.0003 8.26466 13.8949 8.519 13.7075 8.70653L8.70781 13.7062C8.52039 13.8929 8.26663 13.9977 8.00209 13.9977C7.73754 13.9977 7.48351 13.8926 7.29609 13.7059L5.14988 11.5597L7.10798 9.608C7.20187 9.51358 7.2544 9.38574 7.25403 9.25259C7.25365 9.11944 7.2004 8.99189 7.10598 8.898C7.01157 8.80411 6.88372 8.75158 6.75057 8.75195C6.61742 8.75233 6.48987 8.80558 6.39598 8.9H6.39998L4.44188 10.8517L2.29664 8.70647C2.1092 8.51895 2.00391 8.26466 2.00391 7.99953C2.00391 7.73439 2.10925 7.48005 2.29669 7.29252Z" fill="#C50F1F"/>
</svg>
