<svg width="16" height="16" viewBox="0 0 16 16" fill="none" xmlns="http://www.w3.org/2000/svg">
<path d="M6 7C5.449 7 5 7.448 5 8C5 8.552 5.449 9 6 9C6.551 9 7 8.552 7 8C7 7.448 6.551 7 6 7ZM8.5 5H3.5C3.224 5 3 5.224 3 5.5V10.5C3 10.776 3.224 11 3.5 11H8.5C8.776 11 9 10.776 9 10.5V5.5C9 5.224 8.776 5 8.5 5ZM6 10C4.897 10 4 9.103 4 8C4 6.897 4.897 6 6 6C7.103 6 8 6.897 8 8C8 9.103 7.103 10 6 10Z" fill="#C50F1F"/>
<path d="M13.75 13H2.25C1.561 13 1 12.439 1 11.75V4.25C1 3.561 1.561 3 2.25 3H13.75C14.439 3 15 3.561 15 4.25V11.75C15 12.439 14.439 13 13.75 13ZM2.25 4C2.112 4 2 4.112 2 4.25V11.75C2 11.888 2.112 12 2.25 12H13.75C13.888 12 14 11.888 14 11.75V4.25C14 4.112 13.888 4 13.75 4H2.25ZM12.891 7.688L10.891 5.188C10.799 5.073 10.658 5 10.5 5C10.224 5 10 5.224 10 5.5V10.5C10 10.776 10.224 11 10.5 11C10.658 11 10.799 10.927 10.891 10.812L12.891 8.312C12.959 8.226 13 8.118 13 8C13 7.882 12.959 7.773 12.891 7.688Z" fill="#202020"/>
</svg>
