<svg width="16" height="16" viewBox="0 0 16 16" fill="none" xmlns="http://www.w3.org/2000/svg">
<path d="M13.5 1H10.5C9.673 1 9 1.673 9 2.5V3H4.5C3.673 3 3 3.673 3 4.5V9H2.5C1.673 9 1 9.673 1 10.5V13.5C1 14.327 1.673 15 2.5 15H5.5C6.327 15 7 14.327 7 13.5V13H11.5C12.327 13 13 12.327 13 11.5V7H13.5C14.327 7 15 6.327 15 5.5V2.5C15 1.673 14.327 1 13.5 1ZM6 13.5C6 13.776 5.776 14 5.5 14H2.5C2.224 14 2 13.776 2 13.5V10.5C2 10.224 2.224 10 2.5 10H3V11.5C3 12.327 3.673 13 4.5 13H6V13.5ZM6 12H4.5C4.224 12 4 11.776 4 11.5V10H5.5C5.776 10 6 10.224 6 10.5V12ZM12 11.5C12 11.776 11.776 12 11.5 12H7V10.5C7 9.673 6.327 9 5.5 9H4V4.5C4 4.224 4.224 4 4.5 4H9V5.5C9 6.327 9.673 7 10.5 7H12V11.5ZM12 6H10.5C10.224 6 10 5.776 10 5.5V4H11.5C11.776 4 12 4.224 12 4.5V6ZM14 5.5C14 5.776 13.776 6 13.5 6H13V4.5C13 3.673 12.327 3 11.5 3H10V2.5C10 2.224 10.224 2 10.5 2H13.5C13.776 2 14 2.224 14 2.5V5.5Z" fill="#202020"/>
</svg>
