<svg width="16" height="16" viewBox="0 0 16 16" fill="none" xmlns="http://www.w3.org/2000/svg">
<g clip-path="url(#clip0_7204_99729)">
<path d="M6.91593 14H13C14.103 14 15 13.103 15 12V3C15 1.897 14.103 1 13 1H4C2.897 1 2 1.897 2 3V8.03588C2.34779 8.08608 2.68479 8.18821 3 8.33772V3C3 2.448 3.448 2 4 2H13C13.552 2 14 2.448 14 3V12C14 12.552 13.552 13 13 13H6.91705C6.99184 13.2123 7.01837 13.4401 6.99282 13.6666C6.97991 13.781 6.95395 13.8928 6.91593 14Z" fill="#202020"/>
<path fill-rule="evenodd" clip-rule="evenodd" d="M5 5C5 3.86 6.5 3 8.5 3C10.5 3 12 3.86 12 5V10C12 11.14 10.5 12 8.5 12C6.5 12 5 11.14 5 10V5ZM8.5 11C10.03 11 11 10.41 11 10V6.43C10.227 6.825 9.368 7.021 8.5 7C7.632 7.021 6.773 6.825 6 6.43V10C6 10.41 6.97 11 8.5 11ZM6 5C6 5.41 6.97 6 8.5 6C10.03 6 11 5.41 11 5C11 4.59 10.03 4 8.5 4C6.97 4 6 4.59 6 5Z" fill="#006CBF"/>
<path d="M5.854 13.854L3.854 15.854C3.80755 15.9006 3.75238 15.9375 3.69163 15.9627C3.63089 15.9879 3.56577 16.0009 3.5 16.0009C3.43423 16.0009 3.36911 15.9879 3.30837 15.9627C3.24762 15.9375 3.19245 15.9006 3.146 15.854L1.146 13.854C1.05211 13.7601 0.999368 13.6328 0.999368 13.5C0.999368 13.3672 1.05211 13.2399 1.146 13.146C1.23989 13.0521 1.36722 12.9994 1.5 12.9994C1.63278 12.9994 1.76011 13.0521 1.854 13.146L3 14.293V11.5C3 11.1022 2.84196 10.7206 2.56066 10.4393C2.27936 10.158 1.89782 10 1.5 10H0.5C0.367392 10 0.240215 9.94732 0.146447 9.85355C0.0526784 9.75979 0 9.63261 0 9.5C0 9.36739 0.0526784 9.24021 0.146447 9.14645C0.240215 9.05268 0.367392 9 0.5 9H1.5C2.16304 9 2.79893 9.26339 3.26777 9.73223C3.73661 10.2011 4 10.837 4 11.5V14.293L5.146 13.146C5.23989 13.0521 5.36722 12.9994 5.5 12.9994C5.63278 12.9994 5.76011 13.0521 5.854 13.146C5.94789 13.2399 6.00063 13.3672 6.00063 13.5C6.00063 13.6328 5.94789 13.7601 5.854 13.854V13.854Z" fill="#006CBF"/>
</g>
<defs>
<clipPath id="clip0_7204_99729">
<rect width="16" height="16" fill="white"/>
</clipPath>
</defs>
</svg>
