<svg width="16" height="16" viewBox="0 0 16 16" fill="none" xmlns="http://www.w3.org/2000/svg">
<path d="M10.5 3H12.5C12.776 3 13 3.224 13 3.5C13 3.776 12.776 4 12.5 4H10.5C10.224 4 10 3.776 10 3.5C10 3.224 10.224 3 10.5 3Z" fill="#202020"/>
<path d="M8.5 4C8.77614 4 9 3.77614 9 3.5C9 3.22386 8.77614 3 8.5 3C8.22386 3 8 3.22386 8 3.5C8 3.77614 8.22386 4 8.5 4Z" fill="#202020"/>
<path d="M10.5 5H12.5C12.776 5 13 5.224 13 5.5C13 5.776 12.776 6 12.5 6H10.5C10.224 6 10 5.776 10 5.5C10 5.224 10.224 5 10.5 5Z" fill="#202020"/>
<path d="M8.5 6C8.77614 6 9 5.77614 9 5.5C9 5.22386 8.77614 5 8.5 5C8.22386 5 8 5.22386 8 5.5C8 5.77614 8.22386 6 8.5 6Z" fill="#202020"/>
<path fill-rule="evenodd" clip-rule="evenodd" d="M7.5 1H13.5C14.327 1 15 1.673 15 2.5V6.5C15 7.327 14.327 8 13.5 8H7.5C6.673 8 6 7.327 6 6.5V2.5C6 1.673 6.673 1 7.5 1ZM13.5 7C13.775 7 14 6.776 14 6.5V2.5C14 2.224 13.775 2 13.5 2H7.5C7.225 2 7 2.224 7 2.5V6.5C7 6.776 7.225 7 7.5 7H13.5Z" fill="#202020"/>
<path d="M7.5 11H5.5C5.224 11 5 11.224 5 11.5C5 11.776 5.224 12 5.5 12H7.5C7.776 12 8 11.776 8 11.5C8 11.224 7.776 11 7.5 11Z" fill="#202020"/>
<path d="M4 11.5C4 11.7761 3.77614 12 3.5 12C3.22386 12 3 11.7761 3 11.5C3 11.2239 3.22386 11 3.5 11C3.77614 11 4 11.2239 4 11.5Z" fill="#202020"/>
<path d="M7.5 13H5.5C5.224 13 5 13.224 5 13.5C5 13.776 5.224 14 5.5 14H7.5C7.776 14 8 13.776 8 13.5C8 13.224 7.776 13 7.5 13Z" fill="#202020"/>
<path d="M4 13.5C4 13.7761 3.77614 14 3.5 14C3.22386 14 3 13.7761 3 13.5C3 13.2239 3.22386 13 3.5 13C3.77614 13 4 13.2239 4 13.5Z" fill="#202020"/>
<path fill-rule="evenodd" clip-rule="evenodd" d="M2.5 9H8.5C9.327 9 10 9.673 10 10.5V14.5C10 15.327 9.327 16 8.5 16H2.5C1.673 16 1 15.327 1 14.5V10.5C1 9.673 1.673 9 2.5 9ZM8.5 15C8.775 15 9 14.776 9 14.5V10.5C9 10.224 8.775 10 8.5 10H2.5C2.225 10 2 10.224 2 10.5V14.5C2 14.776 2.225 15 2.5 15H8.5Z" fill="#202020"/>
<path d="M1.99876 6.293L1.35276 5.647C1.15776 5.452 0.840762 5.452 0.645762 5.647C0.450762 5.842 0.450762 6.159 0.645762 6.354L2.14476 7.854C2.33976 8.049 2.65676 8.049 2.85176 7.854L4.35176 6.354C4.54676 6.159 4.54676 5.842 4.35176 5.647C4.15676 5.452 3.83976 5.452 3.64476 5.647L2.99876 6.293V4.25C2.99876 4.183 3.02476 4.12 3.07176 4.073C3.11876 4.026 3.18276 4 3.24876 4H4.49876C4.77476 4 4.99876 3.776 4.99876 3.5C4.99876 3.224 4.77476 3 4.49876 3H3.24876C2.91676 3 2.59876 3.132 2.36476 3.366C2.13076 3.601 1.99876 3.918 1.99876 4.25V6.293Z" fill="#006CBF"/>
</svg>
