<svg width="16" height="16" viewBox="0 0 16 16" fill="none" xmlns="http://www.w3.org/2000/svg">
<g clip-path="url(#clip0_7204_99709)">
<path d="M11.5 2C12.881 2 14 3.119 14 4.5V5.5C14 5.776 13.776 6 13.5 6C13.224 6 13 5.776 13 5.5V4.5C13 3.672 12.328 3 11.5 3H10.5C10.224 3 10 2.776 10 2.5C10 2.224 10.224 2 10.5 2H11.5Z" fill="#202020"/>
<path d="M4.5 2C3.119 2 2 3.119 2 4.5V5.5C2 5.776 2.224 6 2.5 6C2.776 6 3 5.776 3 5.5V4.5C3 3.672 3.672 3 4.5 3H5.5C5.776 3 6 2.776 6 2.5C6 2.224 5.776 2 5.5 2H4.5Z" fill="#202020"/>
<path d="M11.5 14C12.881 14 14 12.881 14 11.5V10.5C14 10.224 13.776 10 13.5 10C13.224 10 13 10.224 13 10.5V11.5C13 12.328 12.328 13 11.5 13H10.5C10.224 13 10 13.224 10 13.5C10 13.776 10.224 14 10.5 14H11.5Z" fill="#202020"/>
<path d="M2 11.5C2 12.881 3.119 14 4.5 14H5.5C5.776 14 6 13.776 6 13.5C6 13.224 5.776 13 5.5 13H4.5C3.672 13 3 12.328 3 11.5V10.5362C2.99985 10.5242 2.99985 10.5121 3 10.5C3 10.2252 2.77785 10.0019 2.50342 10H2.49658C2.22215 10.0019 2 10.2251 2 10.5V11.5Z" fill="#202020"/>
<path d="M5.4979 11.6152C5.76374 11.8543 6.1152 12 6.5 12H9.5C10.327 12 11 11.327 11 10.5V5.5C11 4.673 10.327 4 9.5 4H6.5C5.80879 4 5.22515 4.47014 5.05213 5.10739C5.0632 5.11183 5.07422 5.11641 5.08518 5.12112C5.27009 5.20051 5.43704 5.31646 5.576 5.46201L6 5.88601V5.5C6 5.225 6.225 5 6.5 5H9.5C9.775 5 10 5.225 10 5.5V10.5C10 10.775 9.775 11 9.5 11H6.5C6.39143 11 6.29066 10.9649 6.20845 10.9056L5.557 11.557C5.53784 11.577 5.51813 11.5964 5.4979 11.6152Z" fill="#202020"/>
<path d="M6.85 8.84997L4.85 10.85C4.80488 10.8974 4.75059 10.9352 4.69042 10.961C4.63026 10.9868 4.56547 11.0001 4.5 11.0001C4.43453 11.0001 4.36974 10.9868 4.30958 10.961C4.24941 10.9352 4.19512 10.8974 4.15 10.85C4.10256 10.8049 4.06478 10.7506 4.03897 10.6904C4.01316 10.6302 3.99985 10.5654 3.99985 10.5C3.99985 10.4345 4.01316 10.3697 4.03897 10.3095C4.06478 10.2494 4.10256 10.1951 4.15 10.15L5.29 8.99997L0.5 8.99997C0.367392 8.99997 0.240215 8.94729 0.146446 8.85353C0.0526783 8.75976 -1.03489e-07 8.63258 -1.09285e-07 8.49997C-1.15082e-07 8.36736 0.0526783 8.24019 0.146446 8.14642C0.240215 8.05265 0.367392 7.99997 0.5 7.99997L5.29 7.99997L4.15 6.84997C4.05872 6.75683 4.00788 6.63142 4.00854 6.50101C4.0092 6.37059 4.0613 6.24571 4.15352 6.15349C4.24574 6.06127 4.37062 6.00917 4.50104 6.00851C4.63145 6.00786 4.75685 6.05869 4.85 6.14997L6.85 8.14997C6.89744 8.19509 6.93522 8.24938 6.96103 8.30955C6.98684 8.36971 7.00015 8.4345 7.00015 8.49997C7.00015 8.56544 6.98684 8.63023 6.96103 8.6904C6.93522 8.75056 6.89744 8.80485 6.85 8.84997V8.84997Z" fill="#006CBF"/>
</g>
<defs>
<clipPath id="clip0_7204_99709">
<rect width="16" height="16" fill="white"/>
</clipPath>
</defs>
</svg>
