<svg width="16" height="16" viewBox="0 0 16 16" fill="none" xmlns="http://www.w3.org/2000/svg">
<g clip-path="url(#clip0_7204_99750)">
<path fill-rule="evenodd" clip-rule="evenodd" d="M2 4.5C2 3.119 3.119 2 4.5 2H11.5C12.881 2 14 3.119 14 4.5V11.5C14 12.881 12.881 14 11.5 14H6.91593C6.95395 13.8928 6.97991 13.781 6.99282 13.6666C7.01837 13.4401 6.99184 13.2123 6.91705 13H11.5C12.328 13 13 12.328 13 11.5V6H3V8.33772C2.68479 8.18821 2.34779 8.08608 2 8.03588V4.5ZM3 5H13V4.5C13 3.672 12.328 3 11.5 3H4.5C3.672 3 3 3.672 3 4.5V5Z" fill="#202020"/>
<path d="M9.5 9H10.5C10.776 9 11 8.776 11 8.5V7.5C11 7.224 10.776 7 10.5 7H9.5C9.224 7 9 7.224 9 7.5V8.5C9 8.776 9.224 9 9.5 9Z" fill="#202020"/>
<path d="M9.5 12H10.5C10.776 12 11 11.776 11 11.5V10.5C11 10.224 10.776 10 10.5 10H9.5C9.224 10 9 10.224 9 10.5V11.5C9 11.776 9.224 12 9.5 12Z" fill="#202020"/>
<path fill-rule="evenodd" clip-rule="evenodd" d="M6 11H7C7.552 11 8 10.552 8 10V9C8 8.448 7.552 8 7 8H6C5.448 8 5 8.448 5 9V10C5 10.552 5.448 11 6 11ZM6 10V9H7V10H6Z" fill="#202020"/>
<path d="M5.854 13.854L3.854 15.854C3.80755 15.9006 3.75238 15.9375 3.69163 15.9627C3.63089 15.9879 3.56577 16.0009 3.5 16.0009C3.43423 16.0009 3.36911 15.9879 3.30837 15.9627C3.24762 15.9375 3.19245 15.9006 3.146 15.854L1.146 13.854C1.05211 13.7601 0.999368 13.6328 0.999368 13.5C0.999368 13.3672 1.05211 13.2399 1.146 13.146C1.23989 13.0521 1.36722 12.9994 1.5 12.9994C1.63278 12.9994 1.76011 13.0521 1.854 13.146L3 14.293V11.5C3 11.1022 2.84196 10.7206 2.56066 10.4393C2.27936 10.158 1.89782 10 1.5 10H0.5C0.367392 10 0.240215 9.94732 0.146447 9.85355C0.0526784 9.75979 0 9.63261 0 9.5C0 9.36739 0.0526784 9.24021 0.146447 9.14645C0.240215 9.05268 0.367392 9 0.5 9H1.5C2.16304 9 2.79893 9.26339 3.26777 9.73223C3.73661 10.2011 4 10.837 4 11.5V14.293L5.146 13.146C5.23989 13.0521 5.36722 12.9994 5.5 12.9994C5.63278 12.9994 5.76011 13.0521 5.854 13.146C5.94789 13.2399 6.00063 13.3672 6.00063 13.5C6.00063 13.6328 5.94789 13.7601 5.854 13.854V13.854Z" fill="#006CBF"/>
</g>
<defs>
<clipPath id="clip0_7204_99750">
<rect width="16" height="16" fill="white"/>
</clipPath>
</defs>
</svg>
