<svg width="16" height="16" viewBox="0 0 16 16" fill="none" xmlns="http://www.w3.org/2000/svg">
<path d="M11 2.5V4H6.5C5.12 4 4 5.12 4 6.5V11H2.5C1.67 11 1 10.33 1 9.5V2.5C1 1.67 1.67 1 2.5 1H9.5C10.33 1 11 1.67 11 2.5Z" fill="#202020"/>
<path d="M10 9.5C10 9.224 10.224 9 10.5 9C10.776 9 11 9.224 11 9.5C11 10.327 10.327 11 9.5 11C9.224 11 9 10.776 9 10.5C9 10.224 9.224 10 9.5 10C9.776 10 10 9.776 10 9.5Z" fill="#202020"/>
<path fill-rule="evenodd" clip-rule="evenodd" d="M13.5 5H6.5C5.673 5 5 5.673 5 6.5V13.5C5 14.327 5.673 15 6.5 15H13.5C14.327 15 15 14.327 15 13.5V6.5C15 5.673 14.327 5 13.5 5ZM14 13.5C14 13.775 13.776 14 13.5 14H6.5C6.224 14 6 13.775 6 13.5V11H7.5C7.776 11 8 10.776 8 10.5C8 10.224 7.776 10 7.5 10H6V6.5C6 6.225 6.224 6 6.5 6H10V7.5C10 7.776 10.224 8 10.5 8C10.776 8 11 7.776 11 7.5V6H13.5C13.776 6 14 6.225 14 6.5V13.5Z" fill="#202020"/>
</svg>
