<svg width="16" height="16" viewBox="0 0 16 16" fill="none" xmlns="http://www.w3.org/2000/svg">
<path d="M13.75 2H2.25C1.561 2 1 2.561 1 3.25V4.75C1 5.439 1.561 6 2.25 6H3V7.75C3 8.439 3.561 9 4.25 9H5V10.75C5 11.439 5.561 12 6.25 12H7V13.75C7 14.439 7.561 15 8.25 15H13.75C14.439 15 15 14.439 15 13.75V3.25C15 2.561 14.439 2 13.75 2ZM9 11V9H14V11H9ZM14 6V8H7V6H14ZM14 3.25V5H5V3H13.75C13.888 3 14 3.112 14 3.25ZM2 4.75V3.25C2 3.112 2.112 3 2.25 3H4V5H2.25C2.112 5 2 4.888 2 4.75ZM4 7.75V6H6V8H4.25C4.112 8 4 7.888 4 7.75ZM6 10.75V9H8V11H6.25C6.112 11 6 10.888 6 10.75ZM8 13.75V12H10V14H8.25C8.112 14 8 13.888 8 13.75ZM14 13.75C14 13.888 13.888 14 13.75 14H11V12H14V13.75Z" fill="#202020"/>
</svg>
