<svg width="16" height="16" viewBox="0 0 16 16" fill="none" xmlns="http://www.w3.org/2000/svg">
<g clip-path="url(#clip0_7204_99893)">
<path fill-rule="evenodd" clip-rule="evenodd" d="M12.3931 7.55201L15.8931 14.552C15.9694 14.7044 16.0056 14.8738 15.9981 15.044C15.9906 15.2143 15.9397 15.3799 15.8502 15.5249C15.7607 15.67 15.6357 15.7898 15.4869 15.8729C15.3381 15.9561 15.1705 15.9998 15.0001 16H8.00006C7.8292 16.0007 7.66101 15.9576 7.51154 15.8748C7.36207 15.792 7.23631 15.6723 7.14625 15.5271C7.0562 15.3818 7.00486 15.216 6.99712 15.0453C6.98938 14.8746 7.02551 14.7048 7.10206 14.552L10.6021 7.55201C10.6849 7.38534 10.8126 7.24509 10.9708 7.14705C11.129 7.04901 11.3114 6.99707 11.4976 6.99707C11.6837 6.99707 11.8661 7.04901 12.0243 7.14705C12.1825 7.24509 12.3102 7.38534 12.3931 7.55201ZM12 12.495V9.495C12 9.36239 11.9473 9.23521 11.8536 9.14144C11.7598 9.04767 11.6326 8.995 11.5 8.995C11.3674 8.995 11.2402 9.04767 11.1464 9.14144C11.0527 9.23521 11 9.36239 11 9.495V12.495C11 12.6276 11.0527 12.7548 11.1464 12.8485C11.2402 12.9423 11.3674 12.995 11.5 12.995C11.6326 12.995 11.7598 12.9423 11.8536 12.8485C11.9473 12.7548 12 12.6276 12 12.495ZM11.2222 14.0843C11.3044 14.0293 11.4011 14 11.5 14C11.6326 14 11.7598 14.0527 11.8536 14.1464C11.9473 14.2402 12 14.3674 12 14.5C12 14.5989 11.9707 14.6956 11.9157 14.7778C11.8608 14.86 11.7827 14.9241 11.6913 14.9619C11.6 14.9998 11.4994 15.0097 11.4025 14.9904C11.3055 14.9711 11.2164 14.9235 11.1464 14.8535C11.0765 14.7836 11.0289 14.6945 11.0096 14.5975C10.9903 14.5006 11.0002 14.4 11.0381 14.3087C11.0759 14.2173 11.14 14.1392 11.2222 14.0843Z" fill="#B27C00"/>
<path d="M1.64201 16C1.33001 16 1.04401 15.858 0.857015 15.61C0.669015 15.362 0.609015 15.048 0.693015 14.748L1.46501 12H0.500015C0.341015 12 0.191015 11.924 0.0970146 11.796C0.00301464 11.668 -0.0239854 11.502 0.0230146 11.351L1.27301 7.351C1.33801 7.142 1.53201 7 1.75101 7H4.87601C5.04001 7 5.19301 7.081 5.28701 7.215C5.38001 7.35 5.40101 7.522 5.34401 7.675L4.47301 9.999H5.87601C6.06801 9.999 6.24301 10.109 6.32601 10.282C6.41001 10.455 6.38701 10.661 6.26601 10.811L2.41201 15.629C2.22401 15.863 1.94401 15.999 1.64201 15.999V16Z" fill="#B27C00"/>
<path fill-rule="evenodd" clip-rule="evenodd" d="M4.5 1H11.5C12.881 1 14 2.119 14 3.5V8.52085L13.2935 7.10787C13.2148 6.94995 13.1159 6.80392 13 6.67315V5H3V6H2V3.5C2 2.119 3.119 1 4.5 1ZM3 4H13V3.5C13 2.672 12.328 2 11.5 2H4.5C3.672 2 3 2.672 3 3.5V4Z" fill="#202020"/>
</g>
<defs>
<clipPath id="clip0_7204_99893">
<rect width="16" height="16" fill="white"/>
</clipPath>
</defs>
</svg>
