<svg width="16" height="16" viewBox="0 0 16 16" fill="none" xmlns="http://www.w3.org/2000/svg">
<path fill-rule="evenodd" clip-rule="evenodd" d="M11.5 1H4.5C3.119 1 2 2.119 2 3.5V6H3V5H13V6.20703C13.3486 6.30564 13.6832 6.43777 14 6.59971V3.5C14 2.119 12.881 1 11.5 1ZM13 4H3V3.5C3 2.672 3.672 2 4.5 2H11.5C12.328 2 13 2.672 13 3.5V4Z" fill="#202020"/>
<path d="M6.01238 11.1281C6.0359 10.7758 6.09259 10.4326 6.17934 10.1016C6.09387 10.0363 5.98782 9.999 5.876 9.999H4.473L5.344 7.675C5.401 7.522 5.38 7.35 5.287 7.215C5.193 7.081 5.04 7 4.876 7H1.751C1.532 7 1.338 7.142 1.273 7.351L0.023 11.351C-0.024 11.502 0.00300001 11.668 0.097 11.796C0.191 11.924 0.341 12 0.5 12H1.465L0.693 14.748C0.609 15.048 0.669 15.362 0.857 15.61C1.044 15.858 1.33 16 1.642 16V15.999C1.944 15.999 2.224 15.863 2.412 15.629L6.01238 11.1281Z" fill="#B27C00"/>
<path fill-rule="evenodd" clip-rule="evenodd" d="M11.5 16C13.9853 16 16 13.9853 16 11.5C16 9.01472 13.9853 7 11.5 7C9.01472 7 7 9.01472 7 11.5C7 13.9853 9.01472 16 11.5 16ZM13.3536 10.3536C13.5488 10.1583 13.5488 9.84171 13.3536 9.64645C13.1583 9.45118 12.8417 9.45118 12.6464 9.64645L11.5 10.7929L10.3536 9.64645C10.1583 9.45118 9.84171 9.45118 9.64645 9.64645C9.45118 9.84171 9.45118 10.1583 9.64645 10.3536L10.7929 11.5L9.64645 12.6464C9.45118 12.8417 9.45118 13.1583 9.64645 13.3536C9.84171 13.5488 10.1583 13.5488 10.3536 13.3536L11.5 12.2071L12.6464 13.3536C12.8417 13.5488 13.1583 13.5488 13.3536 13.3536C13.5488 13.1583 13.5488 12.8417 13.3536 12.6464L12.2071 11.5L13.3536 10.3536Z" fill="#C50F1F"/>
</svg>
