<svg width="16" height="16" viewBox="0 0 16 16" fill="none" xmlns="http://www.w3.org/2000/svg">
<g clip-path="url(#clip0_7204_99900)">
<path d="M5.87877 5H3.5C2.122 5 1 6.121 1 7.5V12.5C1 13.879 2.122 15 3.5 15H13.5C14.878 15 16 13.879 16 12.5V7.5C16 6.121 14.878 5 13.5 5H11.122L10.122 6H13.5C14.327 6 15 6.673 15 7.5V12.5C15 13.327 14.327 14 13.5 14H3.5C2.673 14 2 13.327 2 12.5V7.5C2 6.673 2.673 6 3.5 6H6.87827L5.87877 5Z" fill="#202020"/>
<path fill-rule="evenodd" clip-rule="evenodd" d="M6.5 7C5.673 7 5 7.673 5 8.5V11.5C5 12.327 5.673 13 6.5 13H10.5C11.327 13 12 12.327 12 11.5V8.5C12 7.673 11.327 7 10.5 7H6.5ZM6 8.5C6 8.225 6.224 8 6.5 8H10.5C10.776 8 11 8.225 11 8.5V11.5C11 11.775 10.776 12 10.5 12H6.5C6.224 12 6 11.775 6 11.5V8.5Z" fill="#202020"/>
<path d="M10.854 3.14602C10.659 2.95102 10.342 2.95102 10.147 3.14602L9.00096 4.29202V0.499023C9.00096 0.223023 8.77696 -0.000976562 8.50096 -0.000976562C8.22496 -0.000976562 8.00096 0.223023 8.00096 0.499023V4.29202L6.85496 3.14602C6.65996 2.95102 6.34296 2.95102 6.14796 3.14602C5.95296 3.34102 5.95296 3.65802 6.14796 3.85302L8.14796 5.85302C8.24596 5.95102 8.37396 5.99902 8.50196 5.99902C8.62996 5.99902 8.75796 5.95002 8.85596 5.85302L10.856 3.85302C11.051 3.65802 11.051 3.34102 10.856 3.14602H10.854Z" fill="#006CBF"/>
</g>
<defs>
<clipPath id="clip0_7204_99900">
<rect width="16" height="16" fill="white"/>
</clipPath>
</defs>
</svg>
