<svg width="16" height="16" viewBox="0 0 16 16" fill="none" xmlns="http://www.w3.org/2000/svg">
<g clip-path="url(#clip0_7204_99910)">
<path d="M11.8536 4.85355C12.0488 4.65829 12.0488 4.34171 11.8536 4.14645C11.6583 3.95118 11.3417 3.95118 11.1464 4.14645L7.5 7.79289L5.85355 6.14645C5.65829 5.95118 5.34171 5.95118 5.14645 6.14645C4.95118 6.34171 4.95118 6.65829 5.14645 6.85355L7.14645 8.85355C7.34171 9.04882 7.65829 9.04882 7.85355 8.85355L11.8536 4.85355Z" fill="#202020"/>
<path fill-rule="evenodd" clip-rule="evenodd" d="M7.64599 15.354C7.74387 15.4509 7.87166 15.4999 7.9995 15.5C8.12733 15.4999 8.25512 15.4519 8.35299 15.354L10.707 13H14C15.103 13 16 12.103 16 11V2C16 0.897 15.103 0 14 0H1.99999C0.896993 0 -7.08003e-06 0.897 -0.00100708 2V11C-0.00100708 12.103 0.895993 13 1.99899 13H5.29199L7.64599 15.354ZM0.999993 2C0.999993 1.448 1.44899 1 1.99999 1H14C14.551 1 15 1.448 15 2V11C15 11.552 14.551 12 14 12H10.5C10.367 12 10.24 12.052 10.146 12.146L7.99999 14.292L5.85399 12.146C5.75999 12.053 5.63299 12 5.49999 12H1.99999C1.44899 12 0.999993 11.552 0.999993 11V2Z" fill="#202020"/>
</g>
<defs>
<clipPath id="clip0_7204_99910">
<rect width="16" height="16" fill="white"/>
</clipPath>
</defs>
</svg>
