<svg width="16" height="16" viewBox="0 0 16 16" fill="none" xmlns="http://www.w3.org/2000/svg">
<g clip-path="url(#clip0_7204_99919)">
<path d="M8.00002 15.5C7.87202 15.5 7.74402 15.451 7.64602 15.354L5.29202 13H1.99902C0.896023 13 -0.000976562 12.103 -0.000976562 11V2C2.34375e-05 0.897 0.897023 0 2.00002 0H14C15.103 0 16 0.897 16 2V11C16 12.103 15.103 13 14 13H10.707L8.35302 15.354C8.25502 15.452 8.12702 15.5 7.99902 15.5H8.00002ZM2.00002 1C1.44902 1 1.00002 1.448 1.00002 2V11C1.00002 11.552 1.44902 12 2.00002 12H5.50002C5.63302 12 5.76002 12.053 5.85402 12.146L8.00002 14.292L10.146 12.146C10.24 12.052 10.367 12 10.5 12H14C14.551 12 15 11.552 15 11V2C15 1.448 14.551 1 14 1H2.00002Z" fill="#202020"/>
</g>
<defs>
<clipPath id="clip0_7204_99919">
<rect width="16" height="16" fill="white"/>
</clipPath>
</defs>
</svg>
