<svg width="16" height="16" viewBox="0 0 16 16" fill="none" xmlns="http://www.w3.org/2000/svg">
<g clip-path="url(#clip0_7204_99940)">
<path d="M2 0C0.897 0 0 0.897 0 2V11C0 12.103 0.897 13 2 13H5.293L7.647 15.354C7.745 15.452 7.873 15.5 8.001 15.5C8.129 15.5 8.257 15.451 8.355 15.354L10.709 13H14.002C15.105 13 16.002 12.103 16.002 11V2C16.002 0.897 15.105 0 14.002 0H2ZM15 11C15 11.552 14.551 12 14 12H10.5C10.367 12 10.24 12.053 10.146 12.146L8 14.292L5.854 12.146C5.76 12.052 5.633 12 5.5 12H2C1.449 12 1 11.552 1 11V2C1 1.448 1.449 1 2 1H14C14.551 1 15 1.448 15 2V11ZM13.854 1.646C14.049 1.841 14.049 2.158 13.854 2.353L11.854 4.353C11.659 4.548 11.342 4.548 11.147 4.353L10.147 3.353C9.952 3.158 9.952 2.841 10.147 2.646C10.342 2.451 10.659 2.451 10.854 2.646L11.5 3.292L13.146 1.646C13.341 1.451 13.658 1.451 13.853 1.646H13.854ZM8 3.5C8 3.776 7.776 4 7.5 4H3.5C3.224 4 3 3.776 3 3.5C3 3.224 3.224 3 3.5 3H7.5C7.776 3 8 3.224 8 3.5ZM13.854 4.646C14.049 4.841 14.049 5.158 13.854 5.353L11.854 7.353C11.659 7.548 11.342 7.548 11.147 7.353L10.147 6.353C9.952 6.158 9.952 5.841 10.147 5.646C10.342 5.451 10.659 5.451 10.854 5.646L11.5 6.292L13.146 4.646C13.341 4.451 13.658 4.451 13.853 4.646H13.854ZM8 6.5C8 6.776 7.776 7 7.5 7H3.5C3.224 7 3 6.776 3 6.5C3 6.224 3.224 6 3.5 6H7.5C7.776 6 8 6.224 8 6.5Z" fill="#202020"/>
</g>
<defs>
<clipPath id="clip0_7204_99940">
<rect width="16" height="16" fill="white"/>
</clipPath>
</defs>
</svg>
