<svg width="16" height="16" viewBox="0 0 16 16" fill="none" xmlns="http://www.w3.org/2000/svg">
<path d="M14.146 14.8542C14.244 14.9512 14.372 15.0002 14.5 15.0002V14.9992C14.628 14.9992 14.756 14.9512 14.854 14.8532C15.049 14.6582 15.049 14.3412 14.854 14.1462L1.85301 1.14723C1.65801 0.952227 1.34101 0.952227 1.14601 1.14723C0.951006 1.34223 0.951006 1.65923 1.14601 1.85423L6.79178 7.5H3V5.5C3 5.224 2.776 5 2.5 5C2.224 5 2 5.224 2 5.5V10.5C2 10.776 2.224 11 2.5 11C2.776 11 3 10.776 3 10.5V8.5H7.79178L14.146 14.8542Z" fill="#202020"/>
<path d="M13 5.5C13 5.224 13.224 5 13.5 5C13.776 5 14 5.224 14 5.5V10.5C14 10.776 13.776 11 13.5 11C13.224 11 13 10.776 13 10.5V8.5H10.622L9.622 7.5H13V5.5Z" fill="#202020"/>
</svg>
