<svg width="16" height="16" viewBox="0 0 16 16" fill="none" xmlns="http://www.w3.org/2000/svg">
<g clip-path="url(#clip0_7204_99989)">
<path d="M4.50001 7.99998C4.50001 7.06598 4.86401 6.18598 5.52501 5.52498C5.72001 5.32998 5.71901 5.01298 5.52401 4.81798C5.32901 4.62298 5.01201 4.62298 4.81701 4.81798C3.96701 5.66798 3.49901 6.79698 3.49901 7.99998C3.49901 8.93841 3.78379 9.83181 4.31254 10.5829C4.47215 10.376 4.68344 10.214 4.92589 10.1135C5.00043 10.0827 5.07701 10.058 5.15485 10.0396C4.72947 9.44844 4.50001 8.74155 4.50001 7.99998Z" fill="#202020"/>
<path d="M1.43618 10.4418C0.514921 7.95353 1.0522 5.04306 3.04801 3.04798C3.24301 2.85298 3.56001 2.85298 3.75501 3.04798C3.95001 3.24298 3.95001 3.55998 3.75501 3.75498L3.75601 3.75598C2.06814 5.44312 1.59723 7.89391 2.34327 10.0075C2.29775 10.0123 2.25234 10.0192 2.20719 10.0282C1.91612 10.0861 1.64879 10.2291 1.43901 10.439L1.43618 10.4418Z" fill="#202020"/>
<path d="M10.475 4.81798C10.67 4.62298 10.987 4.62298 11.182 4.81798C12.032 5.66798 12.501 6.79698 12.501 7.99998C12.501 9.20298 12.033 10.332 11.183 11.182C11.085 11.279 10.957 11.328 10.829 11.328C10.701 11.328 10.573 11.28 10.475 11.182C10.28 10.987 10.28 10.67 10.475 10.475C11.136 9.81298 11.5 8.93398 11.5 7.99998C11.5 7.06598 11.136 6.18598 10.475 5.52498C10.28 5.32998 10.28 5.01298 10.475 4.81798Z" fill="#202020"/>
<path d="M12.245 3.04798C12.44 2.85298 12.757 2.85298 12.952 3.04798L12.953 3.04698C15.683 5.77698 15.683 10.221 12.953 12.952C12.855 13.05 12.727 13.099 12.599 13.099C12.471 13.099 12.343 13.05 12.245 12.952C12.05 12.757 12.05 12.44 12.245 12.245C14.586 9.90398 14.586 6.09598 12.245 3.75498C12.05 3.55998 12.05 3.24298 12.245 3.04798Z" fill="#202020"/>
<path d="M7.00001 7.99998C7.00001 7.44798 7.44801 6.99998 8.00001 6.99998C8.55201 6.99998 9.00001 7.44798 9.00001 7.99998C9.00001 8.55198 8.55201 8.99998 8.00001 8.99998C7.44801 8.99998 7.00001 8.55198 7.00001 7.99998Z" fill="#202020"/>
<path d="M7.85401 13.854L5.85401 15.854C5.76012 15.9479 5.63278 16.0007 5.50001 16.0007C5.36723 16.0007 5.2399 15.9479 5.14601 15.854C5.05212 15.7601 4.99938 15.6328 4.99938 15.5C4.99938 15.3672 5.05212 15.2399 5.14601 15.146L6.29301 14H1.70701L2.85401 15.146C2.9479 15.2399 3.00064 15.3672 3.00064 15.5C3.00064 15.6328 2.9479 15.7601 2.85401 15.854C2.76012 15.9479 2.63278 16.0007 2.50001 16.0007C2.36723 16.0007 2.2399 15.9479 2.14601 15.854L0.146009 13.854C0.0994455 13.8076 0.0625027 13.7524 0.0372962 13.6917C0.0120898 13.6309 -0.00088501 13.5658 -0.00088501 13.5C-0.00088501 13.4343 0.0120898 13.3691 0.0372962 13.3084C0.0625027 13.2476 0.0994455 13.1925 0.146009 13.146L2.14601 11.146C2.2399 11.0521 2.36723 10.9994 2.50001 10.9994C2.63278 10.9994 2.76012 11.0521 2.85401 11.146C2.9479 11.2399 3.00064 11.3672 3.00064 11.5C3.00064 11.6328 2.9479 11.7601 2.85401 11.854L1.70701 13H6.29301L5.14601 11.854C5.05212 11.7601 4.99938 11.6328 4.99938 11.5C4.99938 11.3672 5.05212 11.2399 5.14601 11.146C5.2399 11.0521 5.36723 10.9994 5.50001 10.9994C5.63278 10.9994 5.76012 11.0521 5.85401 11.146L7.85401 13.146C7.90057 13.1925 7.93751 13.2476 7.96272 13.3084C7.98793 13.3691 8.0009 13.4343 8.0009 13.5C8.0009 13.5658 7.98793 13.6309 7.96272 13.6917C7.93751 13.7524 7.90057 13.8076 7.85401 13.854Z" fill="#006CBF"/>
</g>
<defs>
<clipPath id="clip0_7204_99989">
<rect width="16" height="16" fill="white"/>
</clipPath>
</defs>
</svg>
