<svg width="16" height="16" viewBox="0 0 16 16" fill="none" xmlns="http://www.w3.org/2000/svg">
<g clip-path="url(#clip0_7204_100002)">
<path d="M10.5 4C10.776 4 11 4.224 11 4.5C11 4.776 10.776 5 10.5 5H8.5C8.224 5 8 4.776 8 4.5C8 4.224 8.224 4 8.5 4H10.5Z" fill="#202020"/>
<path d="M10.5 7C10.776 7 11 7.224 11 7.5C11 7.776 10.776 8 10.5 8H8.5C8.224 8 8 7.776 8 7.5C8 7.224 8.224 7 8.5 7H10.5Z" fill="#202020"/>
<path d="M8.5 10H10.5C10.776 10 11 10.224 11 10.5V11.5C11 11.776 10.776 12 10.5 12H8.5C8.224 12 8 11.776 8 11.5V10.5C8 10.224 8.224 10 8.5 10Z" fill="#202020"/>
<path fill-rule="evenodd" clip-rule="evenodd" d="M7.5 14H11.5C12.327 14 13 13.327 13 12.5V3.5C13 2.673 12.327 2 11.5 2H7.5C6.673 2 6 2.673 6 3.5V12.0834C6.31897 12.1956 6.59075 12.4123 6.77115 12.6984C6.95284 12.9866 7.03101 13.3281 6.99282 13.6666C6.98406 13.7442 6.96931 13.8206 6.94887 13.8951C7.11956 13.9628 7.30552 14 7.5 14ZM7 3.5C7 3.225 7.224 3 7.5 3H11.5C11.776 3 12 3.225 12 3.5V12.5C12 12.775 11.776 13 11.5 13H7.5C7.224 13 7 12.775 7 12.5V3.5Z" fill="#202020"/>
<path d="M5.854 13.854L3.854 15.854C3.80755 15.9006 3.75238 15.9375 3.69163 15.9627C3.63089 15.9879 3.56577 16.0009 3.5 16.0009C3.43423 16.0009 3.36911 15.9879 3.30837 15.9627C3.24762 15.9375 3.19245 15.9006 3.146 15.854L1.146 13.854C1.05211 13.7601 0.999368 13.6328 0.999368 13.5C0.999368 13.3672 1.05211 13.2399 1.146 13.146C1.23989 13.0521 1.36722 12.9994 1.5 12.9994C1.63278 12.9994 1.76011 13.0521 1.854 13.146L3 14.293V11.5C3 11.1022 2.84196 10.7206 2.56066 10.4393C2.27936 10.158 1.89782 10 1.5 10H0.5C0.367392 10 0.240215 9.94732 0.146447 9.85355C0.0526784 9.75979 0 9.63261 0 9.5C0 9.36739 0.0526784 9.24021 0.146447 9.14645C0.240215 9.05268 0.367392 9 0.5 9H1.5C2.16304 9 2.79893 9.26339 3.26777 9.73223C3.73661 10.2011 4 10.837 4 11.5V14.293L5.146 13.146C5.23989 13.0521 5.36722 12.9994 5.5 12.9994C5.63278 12.9994 5.76011 13.0521 5.854 13.146C5.94789 13.2399 6.00063 13.3672 6.00063 13.5C6.00063 13.6328 5.94789 13.7601 5.854 13.854V13.854Z" fill="#006CBF"/>
</g>
<defs>
<clipPath id="clip0_7204_100002">
<rect width="16" height="16" fill="white"/>
</clipPath>
</defs>
</svg>
