<svg width="16" height="16" viewBox="0 0 16 16" fill="none" xmlns="http://www.w3.org/2000/svg">
<g clip-path="url(#clip0_7204_100042)">
<path d="M16 7.5C16.0078 7.11339 15.8631 6.73923 15.5972 6.45851C15.3313 6.17778 14.9655 6.01306 14.579 6C14.2096 5.1331 13.5999 4.38999 12.8218 3.85841C12.0438 3.32683 11.1299 3.02897 10.188 3C9.42113 3.00348 8.6679 3.20315 8 3.58C7.3321 3.20315 6.57888 3.00348 5.812 3C4.87016 3.02909 3.9563 3.327 3.17826 3.85856C2.40022 4.39013 1.79049 5.13317 1.421 6C1.03453 6.01306 0.668745 6.17778 0.402804 6.45851C0.136863 6.73923 -0.00784251 7.11339 1.68779e-06 7.5C-0.00121926 7.8665 0.128991 8.2213 0.367002 8.5C0.128991 8.7787 -0.00121926 9.1335 1.68779e-06 9.5C-0.00784251 9.88661 0.136863 10.2608 0.402804 10.5415C0.668745 10.8222 1.03453 10.9869 1.421 11C1.79049 11.8668 2.40022 12.6099 3.17826 13.1414C3.9563 13.673 4.87016 13.9709 5.812 14C6.57895 13.9971 7.33231 13.7974 8 13.42C8.66754 13.7969 9.42044 13.9965 10.187 14C11.1288 13.9708 12.0426 13.6728 12.8206 13.1413C13.5987 12.6097 14.2084 11.8668 14.578 11C14.9647 10.9872 15.3307 10.8226 15.5968 10.5418C15.863 10.2611 16.0078 9.88678 16 9.5C16.0018 9.13321 15.8712 8.7781 15.632 8.5C15.8708 8.22171 16.0015 7.86672 16 7.5Z" fill="white"/>
<path d="M7.7 6.44C7.36345 6.91481 6.91964 7.30354 6.40463 7.5746C5.88962 7.84566 5.31792 7.99141 4.736 8H1.436C1.30339 8 1.17621 7.94732 1.08244 7.85355C0.988675 7.75979 0.935997 7.63261 0.935997 7.5C0.935997 7.36739 0.988675 7.24021 1.08244 7.14645C1.17621 7.05268 1.30339 7 1.436 7H4.736C5.17849 6.99513 5.6137 6.88679 6.00682 6.68363C6.39994 6.48047 6.74007 6.18813 7 5.83C7.26937 5.98784 7.5068 6.19474 7.7 6.44V6.44ZM4.736 9H1.436C1.30339 9 1.17621 9.05268 1.08244 9.14645C0.988675 9.24021 0.935997 9.36739 0.935997 9.5C0.935997 9.63261 0.988675 9.75979 1.08244 9.85355C1.17621 9.94732 1.30339 10 1.436 10H4.736C5.17849 10.0049 5.6137 10.1132 6.00682 10.3164C6.39994 10.5195 6.74007 10.8119 7 11.17C7.27199 11.0116 7.5099 10.8009 7.7 10.55C7.36237 10.077 6.91809 9.69024 6.40314 9.42095C5.8882 9.15166 5.31706 9.00745 4.736 9ZM14.1 8C14.0483 7.4834 13.9185 6.97763 13.715 6.5C13.4353 5.7845 12.9523 5.16651 12.3256 4.72226C11.6988 4.27801 10.9557 4.02693 10.188 4C9.56237 4.00054 8.94848 4.16982 8.411 4.49C8.67261 4.70829 8.90756 4.95668 9.111 5.23C9.44993 5.07876 9.81685 5.0004 10.188 5C10.6989 5.01224 11.1979 5.1569 11.6361 5.41983C12.0743 5.68277 12.4368 6.05496 12.688 6.5C12.7957 6.65391 12.8812 6.82223 12.942 7C13.0816 7.31799 13.1729 7.65504 13.213 8C13.2597 8.3317 13.2597 8.6683 13.213 9C13.1729 9.34496 13.0816 9.68201 12.942 10C12.8812 10.1778 12.7957 10.3461 12.688 10.5C12.4368 10.945 12.0743 11.3172 11.6361 11.5802C11.1979 11.8431 10.6989 11.9878 10.188 12C9.81685 11.9996 9.44993 11.9212 9.111 11.77C8.90756 12.0433 8.67261 12.2917 8.411 12.51C8.94848 12.8302 9.56237 12.9995 10.188 13C10.9556 12.9729 11.6984 12.7217 12.325 12.2775C12.9515 11.8332 13.4344 11.2154 13.714 10.5C13.9179 10.0224 14.048 9.51666 14.1 9C14.1347 8.66757 14.1347 8.33243 14.1 8V8Z" fill="#0597FF"/>
<path d="M12.769 8H11.264C10.6821 7.99141 10.1104 7.84566 9.59537 7.5746C9.08036 7.30354 8.63655 6.91481 8.3 6.44C8.25993 6.40076 8.22437 6.35716 8.194 6.31C8.131 6.23 8.07 6.15 8 6.07C7.80417 5.82452 7.56734 5.61476 7.3 5.45C7.17058 5.36331 7.03291 5.28962 6.889 5.23C6.55007 5.07876 6.18315 5.0004 5.812 5C5.3011 5.01224 4.80213 5.1569 4.3639 5.41983C3.92568 5.68277 3.56323 6.05496 3.312 6.5H2.286C2.56562 5.78465 3.04846 5.16676 3.67501 4.72253C4.30157 4.27829 5.04443 4.02713 5.812 4C6.43763 4.00054 7.05152 4.16982 7.589 4.49C7.73413 4.5708 7.87169 4.66452 8 4.77C8.26528 4.96128 8.50111 5.19038 8.7 5.45C8.761 5.52 8.814 5.6 8.875 5.68C8.91111 5.73439 8.95302 5.78468 9 5.83C9.25993 6.18813 9.60006 6.48047 9.99318 6.68363C10.3863 6.88679 10.8215 6.99513 11.264 7H12.464C12.6213 7.31376 12.7244 7.65186 12.769 8V8ZM11.264 9C10.6829 9.00745 10.1118 9.15166 9.59686 9.42095C9.08191 9.69024 8.63763 10.077 8.3 10.55C8.26228 10.5948 8.2269 10.6415 8.194 10.69C8.133 10.77 8.072 10.85 8.002 10.93C7.80617 11.1755 7.56934 11.3852 7.302 11.55C7.17258 11.6367 7.03491 11.7104 6.891 11.77C6.55145 11.9215 6.18382 11.9999 5.812 12C5.3011 11.9878 4.80213 11.8431 4.3639 11.5802C3.92568 11.3172 3.56323 10.945 3.312 10.5H2.286C2.56562 11.2154 3.04846 11.8332 3.67501 12.2775C4.30157 12.7217 5.04443 12.9729 5.812 13C6.43763 12.9995 7.05152 12.8302 7.589 12.51C7.73413 12.4292 7.87169 12.3355 8 12.23C8.26528 12.0387 8.50111 11.8096 8.7 11.55C8.761 11.48 8.814 11.4 8.875 11.32C8.91111 11.2656 8.95302 11.2153 9 11.17C9.25993 10.8119 9.60006 10.5195 9.99318 10.3164C10.3863 10.1132 10.8215 10.0049 11.264 10H12.464C12.622 9.68637 12.7258 9.34826 12.771 9H11.264ZM14.564 7H14.37C14.4526 7.32822 14.5082 7.66268 14.536 8H14.562C14.6946 8 14.8218 7.94732 14.9156 7.85355C15.0093 7.75979 15.062 7.63261 15.062 7.5C15.062 7.36739 15.0093 7.24021 14.9156 7.14645C14.8218 7.05268 14.6946 7 14.562 7H14.564ZM14.564 9H14.538C14.5102 9.33732 14.4546 9.67178 14.372 10H14.564C14.6966 10 14.8238 9.94732 14.9176 9.85355C15.0113 9.75979 15.064 9.63261 15.064 9.5C15.064 9.36739 15.0113 9.24021 14.9176 9.14645C14.8238 9.05268 14.6966 9 14.564 9Z" fill="#0457D2"/>
</g>
<defs>
<clipPath id="clip0_7204_100042">
<rect width="16" height="16" fill="white"/>
</clipPath>
</defs>
</svg>
