<svg width="16" height="16" viewBox="0 0 16 16" fill="none" xmlns="http://www.w3.org/2000/svg">
<g clip-path="url(#clip0_7204_100048)">
<path d="M16 7.5C16.0066 7.11392 15.8615 6.74065 15.5961 6.46023C15.3306 6.17982 14.9659 6.01459 14.58 6C14.2101 5.13368 13.6004 4.39108 12.8226 3.8596C12.0449 3.32812 11.1315 3.02988 10.19 3C9.42222 3.00143 8.66784 3.20122 8 3.58C7.33215 3.20122 6.57777 3.00143 5.81 3C4.91636 3.02509 4.04671 3.29472 3.29562 3.77957C2.54454 4.26443 1.94078 4.94594 1.55 5.75C1.50074 5.83011 1.45729 5.91366 1.42 6C1.26542 5.9989 1.11226 6.02954 0.969996 6.09C0.68383 6.19808 0.437549 6.39107 0.264174 6.64309C0.0907992 6.89511 -0.00137993 7.19411 -3.80509e-06 7.5C-0.000222046 7.6953 0.0371229 7.88881 0.109996 8.07C0.00948298 8.47857 -0.0209492 8.90124 0.0199962 9.32C0.0186658 9.3213 0.0176089 9.32286 0.0168873 9.32458C0.0161658 9.32629 0.0157942 9.32814 0.0157942 9.33C0.0157942 9.33186 0.0161658 9.33371 0.0168873 9.33542C0.0176089 9.33714 0.0186658 9.3387 0.0199962 9.34C0.00353058 9.39165 -0.00324992 9.44589 -3.80509e-06 9.5C0.000591599 9.77073 0.0730606 10.0365 0.209996 10.27V10.28C0.403864 10.8649 0.73274 11.3959 1.17 11.83C1.6141 12.2718 2.15509 12.6039 2.75 12.8C3.58931 13.5601 4.67771 13.987 5.81 14C5.9237 14.0033 6.03747 13.9966 6.15 13.98L8.17 16H9.72L11 14.72V13.92C11.7858 13.7527 12.5204 13.4006 13.143 12.8928C13.7656 12.385 14.2582 11.7361 14.58 11C14.9659 10.9854 15.3306 10.8202 15.5961 10.5398C15.8615 10.2594 16.0066 9.88608 16 9.5C15.9997 9.13324 15.8685 8.77864 15.63 8.5C15.87 8.22228 16.0015 7.86708 16 7.5V7.5Z" fill="white"/>
<path d="M14.1 8C14.0652 7.66108 13.9983 7.32623 13.9 7C13.84 6.83 13.78 6.66 13.71 6.5C13.4325 5.78439 12.9511 5.16599 12.3253 4.72157C11.6996 4.27714 10.9571 4.02624 10.19 4C9.56337 4.0001 8.9484 4.16939 8.41 4.49C8.6731 4.7067 8.90824 4.95527 9.11 5.23C9.44986 5.07835 9.81785 4.99998 10.19 5C10.7009 5.01204 11.2 5.15662 11.6383 5.41958C12.0765 5.68253 12.4389 6.05483 12.69 6.5C12.795 6.65494 12.879 6.82306 12.94 7C13.0798 7.31854 13.1741 7.65518 13.22 8C13.26 8.33213 13.26 8.66787 13.22 9C13.1741 9.34482 13.0798 9.68146 12.94 10C12.879 10.1769 12.795 10.3451 12.69 10.5C12.4389 10.9452 12.0765 11.3175 11.6383 11.5804C11.2 11.8434 10.7009 11.988 10.19 12C10.0561 12.0003 9.92236 11.9903 9.79 11.97L10.76 12.95H10.77C11.4249 12.8176 12.0365 12.5244 12.5497 12.0967C13.063 11.669 13.4617 11.1203 13.71 10.5C13.78 10.34 13.84 10.17 13.9 10C13.9983 9.67377 14.0652 9.33892 14.1 9C14.1168 8.8339 14.1235 8.66692 14.12 8.5C14.1235 8.33308 14.1168 8.1661 14.1 8V8ZM7 5.83C6.92 5.93 6.84 6.02 6.76 6.11L6.82 6.17C7.02726 6.36992 7.20867 6.59501 7.36 6.84C7.48108 6.71344 7.5946 6.57988 7.7 6.44C7.5064 6.19513 7.26905 5.9883 7 5.83V5.83Z" fill="#0597FF"/>
<path d="M14.56 9H14.54C14.5094 9.33724 14.4525 9.67158 14.37 10H14.56C14.6926 10 14.8198 9.94732 14.9136 9.85355C15.0073 9.75979 15.06 9.63261 15.06 9.5C15.06 9.36739 15.0073 9.24021 14.9136 9.14645C14.8198 9.05268 14.6926 9 14.56 9ZM14.56 7H14.37C14.4525 7.32842 14.5094 7.66276 14.54 8H14.56C14.6926 8 14.8198 7.94732 14.9136 7.85355C15.0073 7.75979 15.06 7.63261 15.06 7.5C15.06 7.36739 15.0073 7.24021 14.9136 7.14645C14.8198 7.05268 14.6926 7 14.56 7ZM11.26 9C10.6879 9.00712 10.1254 9.14726 9.61686 9.40934C9.10833 9.67142 8.66775 10.0482 8.33 10.51L9 11.18V11.17C9.25947 10.8124 9.59895 10.5203 9.99134 10.3172C10.3837 10.114 10.8182 10.0054 11.26 10H12.46C12.6211 9.68741 12.7261 9.34893 12.77 9H11.26ZM12.46 7H11.26C10.8182 6.99459 10.3837 6.88598 9.99134 6.68284C9.59895 6.4797 9.25947 6.18765 9 5.83C8.95404 5.78507 8.91374 5.7347 8.88 5.68C8.81 5.6 8.76 5.52 8.7 5.45C8.50007 5.19131 8.26438 4.96235 8 4.77C7.8722 4.6643 7.73496 4.57058 7.59 4.49C7.05161 4.16939 6.43663 4.0001 5.81 4C4.85129 4.0118 3.93556 4.39964 3.26 5.08C3.50596 5.02377 3.75772 4.99691 4.01 5C4.23088 5.00173 4.45138 5.01844 4.67 5.05C4.79 5.07 4.91 5.1 5.02 5.12C5.27561 5.03966 5.54207 4.99918 5.81 5C6.18216 4.99998 6.55015 5.07835 6.89 5.23C7.03369 5.28941 7.17105 5.36312 7.3 5.45C7.56714 5.61503 7.80392 5.82475 8 6.07C8.07 6.15 8.13 6.23 8.19 6.31C8.22115 6.35772 8.2581 6.40138 8.3 6.44C8.63615 6.91427 9.07932 7.30267 9.59359 7.5737C10.1079 7.84474 10.6788 7.99078 11.26 8H12.77C12.7261 7.65107 12.6211 7.31259 12.46 7V7Z" fill="#0457D2"/>
<path d="M1.042 9.50799C0.94032 8.8977 1.03046 8.2709 1.3 7.71399L3.286 9.70899L4.7 8.29099L2.7 6.29999C3.25759 6.02924 3.88568 5.93891 4.49697 6.04155C5.10826 6.1442 5.6724 6.43472 6.11097 6.87275C6.54955 7.31077 6.84078 7.87454 6.94419 8.4857C7.0476 9.09687 6.95806 9.72507 6.688 10.283L10 13.6V14.3L9.293 15.007H8.59L5.278 11.7C4.86127 11.9014 4.40336 12.003 3.94055 11.9966C3.47775 11.9903 3.02278 11.8763 2.61171 11.6636C2.20063 11.4509 1.84476 11.1453 1.5723 10.7711C1.29984 10.397 1.11827 9.96452 1.042 9.50799V9.50799Z" fill="#202020"/>
</g>
<defs>
<clipPath id="clip0_7204_100048">
<rect width="16" height="16" fill="white"/>
</clipPath>
</defs>
</svg>
