<svg width="16" height="16" viewBox="0 0 16 16" fill="none" xmlns="http://www.w3.org/2000/svg">
<path d="M3.5 15C2.673 15 2 14.327 2 13.5V8.5C2 7.673 2.673 7 3.5 7H9.5C10.327 7 11 7.673 11 8.5V9.00903C10.992 9.00901 10.984 9.00901 10.976 9.00901C10.6542 9.00905 10.3346 9.06036 10.029 9.16102C10.0193 9.16419 10.0096 9.16742 10 9.1707V8.5C10 8.225 9.775 8 9.5 8H3.5C3.225 8 3 8.225 3 8.5V13.5C3 13.775 3.225 14 3.5 14H8.86096C8.86096 14 8.86095 14 8.86096 14L9.83786 14.9616C9.72924 14.9867 9.61614 15 9.5 15H3.5Z" fill="#006CBF"/>
<path d="M12.5 1C12.9 1 13.28 1.16 13.56 1.44C13.84 1.72 14 2.1 14 2.5V9.00025C13.9094 9.00126 13.8187 9.00637 13.7281 9.0156C13.4787 9.04103 13.2342 9.09741 13 9.18294V2.5C13 2.37 12.95 2.24 12.85 2.15C12.76 2.05 12.63 2 12.5 2H6.5C6.37 2 6.24 2.05 6.15 2.15C6.05 2.24 6 2.37 6 2.5V6H5V2.5C5 2.1 5.16 1.72 5.44 1.44C5.72 1.16 6.1 1 6.5 1H12.5Z" fill="#202020"/>
<path d="M7.5 4H11.5C11.776 4 12 3.776 12 3.5C12 3.224 11.776 3 11.5 3H7.5C7.224 3 7 3.224 7 3.5C7 3.776 7.224 4 7.5 4Z" fill="#202020"/>
<path d="M7.5 6H11.5C11.776 6 12 5.776 12 5.5C12 5.224 11.776 5 11.5 5H7.5C7.224 5 7 5.224 7 5.5C7 5.776 7.224 6 7.5 6Z" fill="#202020"/>
<path d="M15.9999 11.93C15.9998 12.1828 15.9492 12.433 15.8512 12.666C15.7531 12.899 15.6096 13.1102 15.4289 13.287L12.8069 15.873C12.7661 15.9133 12.7179 15.9452 12.6649 15.967C12.6125 15.9884 12.5565 15.9996 12.4999 16C12.4423 16.0001 12.3852 15.9889 12.3319 15.967C12.2786 15.9452 12.23 15.9133 12.1889 15.873L9.56389 13.287C9.37754 13.1023 9.23147 12.8809 9.13489 12.637C9.03742 12.3951 8.99144 12.1356 8.99989 11.875C9.00882 11.614 9.07146 11.3577 9.18389 11.122C9.29686 10.8844 9.45753 10.6727 9.65589 10.5C9.85489 10.3257 10.0868 10.1931 10.3379 10.11C10.5904 10.0265 10.8569 9.99388 11.1221 10.014C11.3873 10.034 11.6458 10.1064 11.8829 10.227C12.1181 10.3466 12.3266 10.5126 12.4959 10.715C12.7552 10.4029 13.1044 10.1784 13.4959 10.072C13.8881 9.96305 14.3042 9.97595 14.6889 10.109C15.0712 10.2405 15.4036 10.4866 15.6409 10.814C15.8752 11.1381 16.0009 11.528 15.9999 11.928V11.93Z" fill="#202020"/>
</svg>
