<svg width="16" height="16" viewBox="0 0 16 16" fill="none" xmlns="http://www.w3.org/2000/svg">
<path d="M3.5 15C2.673 15 2 14.327 2 13.5V8.5C2 7.673 2.673 7 3.5 7H9.5C10.327 7 11 7.673 11 8.5V8.76393C10.9586 8.80095 10.9182 8.83921 10.8787 8.87868C10.3161 9.44129 10 10.2044 10 11V8.5C10 8.225 9.775 8 9.5 8H3.5C3.225 8 3 8.225 3 8.5V13.5C3 13.775 3.225 14 3.5 14H9V15H3.5Z" fill="#006CBF"/>
<path d="M12.5 1C12.9 1 13.28 1.16 13.56 1.44C13.84 1.72 14 2.1 14 2.5V8.17157C13.6818 8.05906 13.3439 8 13 8V2.5C13 2.37 12.95 2.24 12.85 2.15C12.76 2.05 12.63 2 12.5 2H6.5C6.37 2 6.24 2.05 6.15 2.15C6.05 2.24 6 2.37 6 2.5V6H5V2.5C5 2.1 5.16 1.72 5.44 1.44C5.72 1.16 6.1 1 6.5 1H12.5Z" fill="#202020"/>
<path d="M7.5 4H11.5C11.776 4 12 3.776 12 3.5C12 3.224 11.776 3 11.5 3H7.5C7.224 3 7 3.224 7 3.5C7 3.776 7.224 4 7.5 4Z" fill="#202020"/>
<path d="M7.5 6H11.5C11.776 6 12 5.776 12 5.5C12 5.224 11.776 5 11.5 5H7.5C7.224 5 7 5.224 7 5.5C7 5.776 7.224 6 7.5 6Z" fill="#202020"/>
<path d="M11 12V11C11 9.89543 11.8954 9 13 9C14.1046 9 15 9.89543 15 11V12C15.5523 12 16 12.4477 16 13V15C16 15.5523 15.5523 16 15 16H11C10.4477 16 10 15.5523 10 15V13C10 12.4477 10.4477 12 11 12ZM12 11V12H14V11C14 10.4477 13.5523 10 13 10C12.4477 10 12 10.4477 12 11Z" fill="#202020"/>
</svg>
