<svg width="16" height="16" viewBox="0 0 16 16" fill="none" xmlns="http://www.w3.org/2000/svg">
<path d="M12.4655 7.99997C12.3885 9.26997 12.0345 10.367 11.3775 11.245C10.6595 12.204 9.57854 12.944 8.16454 13.443L7.99854 13.502V7.99997H12.4655V7.99997ZM7.99854 2.51697L7.66454 2.81697C6.54754 3.81997 5.30154 4.37997 3.96054 4.48297L3.49854 4.51797V7.50197C3.49854 7.67497 3.52154 7.83397 3.53154 8.00097H7.99854V2.51697Z" fill="#1493DF"/>
<path d="M12.48 7.82111C12.4747 7.88038 12.4694 7.93967 12.4658 7.99999V7.99899H7.99878V2.51599L8.33278 2.81699C9.44878 3.81999 10.6948 4.37999 12.0368 4.48199L12.4988 4.51699V7.50099C12.4988 7.6115 12.4894 7.71629 12.48 7.82111Z" fill="#FFCD00"/>
<path d="M7.99874 13.502V7.99999L3.53174 7.99899C3.60874 9.26899 3.96174 10.366 4.61974 11.244C5.33774 12.204 6.41874 12.944 7.83274 13.443L7.99874 13.502Z" fill="#FFCD00"/>
<path d="M4.03154 8H3.03154C3.02154 7.833 2.99854 7.674 2.99854 7.501V4.5C2.99854 4.224 3.22254 4 3.49854 4C5.02754 4 6.40253 3.389 7.64553 2.146C7.74253 2.049 7.87054 2 7.99854 2V3.189C6.81154 4.254 5.47754 4.868 3.99854 4.981V7.501C3.99854 7.676 4.02054 7.833 4.03154 8V8ZM11.9655 8C11.8885 9.194 11.5555 10.173 10.9775 10.945C10.3405 11.796 9.36954 12.488 7.99854 12.971V13.974C8.05154 13.974 8.10554 13.991 8.15654 13.974C11.1845 12.965 12.7985 10.94 12.9655 8H11.9655V8Z" fill="#2C74AD"/>
<path d="M7.99874 3.189V2C8.12674 2 8.25574 2.049 8.35374 2.147C9.59374 3.389 10.9677 4 12.4987 4C12.7747 4 12.9987 4.224 12.9987 4.5V7.501C12.9987 7.674 12.9747 7.833 12.9657 8H11.9657C11.9767 7.834 11.9987 7.677 11.9987 7.501V4.981C10.5177 4.869 9.18374 4.255 7.99874 3.189ZM5.01974 10.945C4.44174 10.173 4.10874 9.194 4.03174 8H3.03174C3.19874 10.94 4.81174 12.965 7.84074 13.974C7.89174 13.991 7.94574 13.974 7.99874 13.974V12.971C6.62874 12.488 5.65774 11.796 5.01974 10.945Z" fill="#DC9F06"/>
</svg>
