<svg width="16" height="16" viewBox="0 0 16 16" fill="none" xmlns="http://www.w3.org/2000/svg">
<path d="M4.5 2C3.119 2 2 3.119 2 4.5V11.5C2 12.881 3.119 14 4.5 14H11.5C12.881 14 14 12.881 14 11.5V4.5C14 3.119 12.881 2 11.5 2H4.5ZM13 5H3V4.5C3 3.672 3.672 3 4.5 3H11.5C12.328 3 13 3.672 13 4.5V5ZM3 6H13V11.5C13 12.328 12.328 13 11.5 13H4.5C3.672 13 3 12.328 3 11.5V6ZM6 12H5C4.448 12 4 11.552 4 11V8C4 7.448 4.448 7 5 7H6C6.552 7 7 7.448 7 8V11C7 11.552 6.552 12 6 12ZM5 8V11H6V8H5ZM11.5 8H8.5C8.224 8 8 7.776 8 7.5C8 7.224 8.224 7 8.5 7H11.5C11.776 7 12 7.224 12 7.5C12 7.776 11.776 8 11.5 8ZM10.5 10H8.5C8.224 10 8 9.776 8 9.5C8 9.224 8.224 9 8.5 9H10.5C10.776 9 11 9.224 11 9.5C11 9.776 10.776 10 10.5 10Z" fill="#202020"/>
</svg>
