<svg width="16" height="16" viewBox="0 0 16 16" fill="none" xmlns="http://www.w3.org/2000/svg">
<path d="M10 8C10 8.552 10.448 9 11 9H14C14.552 9 15 8.552 15 8V6C15 5.448 14.552 5 14 5H11C10.448 5 10 5.448 10 6V7H8V5.5C8 4.673 7.327 4 6.5 4H6V3C6 2.448 5.552 2 5 2H2C1.448 2 1 2.448 1 3V5C1 5.552 1.448 6 2 6H5C5.552 6 6 5.552 6 5H6.5C6.775 5 7 5.225 7 5.5V11.5C7 12.327 7.673 13 8.5 13H10C10 13.552 10.448 14 11 14H14C14.552 14 15 13.552 15 13V11C15 10.448 14.552 10 14 10H11C10.448 10 10 10.448 10 11V12H8.5C8.225 12 8 11.775 8 11.5V8H10ZM11 6H14V8H11V6ZM5 5H2V3H5V5ZM11 11H14V13H11V11Z" fill="#202020"/>
</svg>
