<svg width="16" height="16" viewBox="0 0 16 16" fill="none" xmlns="http://www.w3.org/2000/svg">
<path d="M12.5 1H2.5C1.673 1 1 1.673 1 2.5V4.5C1 5.327 1.673 6 2.5 6H12.5C13.327 6 14 5.327 14 4.5V2.5C14 1.673 13.327 1 12.5 1ZM13 4.5C13 4.775 12.776 5 12.5 5H2.5C2.224 5 2 4.775 2 4.5V2.5C2 2.225 2.224 2 2.5 2H12.5C12.776 2 13 2.225 13 2.5V4.5ZM14 14.5C14 14.776 13.776 15 13.5 15H1.5C1.224 15 1 14.776 1 14.5C1 14.224 1.224 14 1.5 14H13.5C13.776 14 14 14.224 14 14.5ZM7 12.5V8.707L5.854 9.853C5.659 10.048 5.342 10.048 5.147 9.853C4.952 9.658 4.952 9.341 5.147 9.146L7.147 7.146C7.342 6.951 7.659 6.951 7.854 7.146L9.854 9.146C10.049 9.341 10.049 9.658 9.854 9.853C9.756 9.951 9.628 9.999 9.5 9.999C9.372 9.999 9.244 9.95 9.146 9.853L8 8.707V12.5C8 12.776 7.776 13 7.5 13C7.224 13 7 12.776 7 12.5Z" fill="#202020"/>
</svg>
