<svg width="16" height="16" viewBox="0 0 16 16" fill="none" xmlns="http://www.w3.org/2000/svg">
<g clip-path="url(#clip0_7205_107123)">
<path d="M12 6H10V4C10 2.897 9.103 2 8 2H4C2.897 2 2 2.897 2 4V8C2 9.103 2.897 10 4 10H6V12C6 13.103 6.897 14 8 14H12C13.103 14 14 13.103 14 12V8C14 6.897 13.103 6 12 6ZM4 9C3.449 9 3 8.551 3 8V4C3 3.449 3.449 3 4 3H8C8.551 3 9 3.449 9 4V6H8C6.897 6 6 6.897 6 8V9H4ZM9 7V8C9 8.551 8.551 9 8 9H7V8C7 7.449 7.449 7 8 7H9ZM13 12C13 12.551 12.551 13 12 13H8C7.449 13 7 12.551 7 12V10H8C9.103 10 10 9.103 10 8V7H12C12.551 7 13 7.449 13 8V12Z" fill="#202020"/>
<path d="M2.5 4C3.32843 4 4 3.32843 4 2.5C4 1.67157 3.32843 1 2.5 1C1.67157 1 1 1.67157 1 2.5C1 3.32843 1.67157 4 2.5 4Z" fill="#006CBF"/>
<path d="M13.5 15C14.3284 15 15 14.3284 15 13.5C15 12.6716 14.3284 12 13.5 12C12.6716 12 12 12.6716 12 13.5C12 14.3284 12.6716 15 13.5 15Z" fill="#006CBF"/>
<path d="M9.5 4C10.3284 4 11 3.32843 11 2.5C11 1.67157 10.3284 1 9.5 1C8.67157 1 8 1.67157 8 2.5C8 3.32843 8.67157 4 9.5 4Z" fill="#006CBF"/>
<path d="M9.5 11C10.3284 11 11 10.3284 11 9.5C11 8.67157 10.3284 8 9.5 8C8.67157 8 8 8.67157 8 9.5C8 10.3284 8.67157 11 9.5 11Z" fill="#006CBF"/>
<path d="M6.5 8C7.32843 8 8 7.32843 8 6.5C8 5.67157 7.32843 5 6.5 5C5.67157 5 5 5.67157 5 6.5C5 7.32843 5.67157 8 6.5 8Z" fill="#006CBF"/>
<path d="M2.5 11C3.32843 11 4 10.3284 4 9.5C4 8.67157 3.32843 8 2.5 8C1.67157 8 1 8.67157 1 9.5C1 10.3284 1.67157 11 2.5 11Z" fill="#006CBF"/>
<path d="M6.5 15C7.32843 15 8 14.3284 8 13.5C8 12.6716 7.32843 12 6.5 12C5.67157 12 5 12.6716 5 13.5C5 14.3284 5.67157 15 6.5 15Z" fill="#006CBF"/>
<path d="M13.5 8C14.3284 8 15 7.32843 15 6.5C15 5.67157 14.3284 5 13.5 5C12.6716 5 12 5.67157 12 6.5C12 7.32843 12.6716 8 13.5 8Z" fill="#006CBF"/>
</g>
<defs>
<clipPath id="clip0_7205_107123">
<rect width="16" height="16" fill="white"/>
</clipPath>
</defs>
</svg>
