<svg width="16" height="16" viewBox="0 0 16 16" fill="none" xmlns="http://www.w3.org/2000/svg">
<g clip-path="url(#clip0_7205_107139)">
<path fill-rule="evenodd" clip-rule="evenodd" d="M3.5 2H13.5C14.327 2 15 2.673 15 3.5V7.5C15 8.327 14.327 9 13.5 9H10.5383C10.5255 8.99967 10.5128 8.99951 10.5 8.99951C10.4872 8.99951 10.4744 8.99967 10.4617 9H9V10.4617C8.99967 10.4744 8.99951 10.4872 8.99951 10.5C8.99951 10.5128 8.99967 10.5255 9 10.5383V13.5C9 14.327 8.327 15 7.5 15H3.5C2.673 15 2 14.327 2 13.5V3.5C2 2.673 2.673 2 3.5 2ZM8 3H3.5C3.225 3 3 3.224 3 3.5V8H8V3ZM3.5 14H7.5C7.775 14 8 13.776 8 13.5V9H3V13.5C3 13.776 3.225 14 3.5 14ZM13.5 8C13.775 8 14 7.776 14 7.5V3.5C14 3.224 13.775 3 13.5 3H9V8H13.5Z" fill="#202020"/>
<path d="M15.854 15.146C15.9479 15.2399 16.0007 15.3672 16.0007 15.5C16.0007 15.6328 15.9479 15.7601 15.854 15.854C15.7601 15.9479 15.6328 16.0007 15.5 16.0007C15.3672 16.0007 15.2399 15.9479 15.146 15.854L13 13.707L10.854 15.854C10.7601 15.9479 10.6328 16.0007 10.5 16.0007C10.3672 16.0007 10.2399 15.9479 10.146 15.854C10.0521 15.7601 9.99939 15.6328 9.99939 15.5C9.99939 15.3672 10.0521 15.2399 10.146 15.146L12.293 13L10.146 10.854C10.0521 10.7601 9.99939 10.6328 9.99939 10.5C9.99939 10.3672 10.0521 10.2399 10.146 10.146C10.2399 10.0521 10.3672 9.99939 10.5 9.99939C10.6328 9.99939 10.7601 10.0521 10.854 10.146L13 12.293L15.146 10.146C15.2399 10.0521 15.3672 9.99939 15.5 9.99939C15.6328 9.99939 15.7601 10.0521 15.854 10.146C15.9479 10.2399 16.0007 10.3672 16.0007 10.5C16.0007 10.6328 15.9479 10.7601 15.854 10.854L13.707 13L15.854 15.146Z" fill="#C50F1F"/>
</g>
<defs>
<clipPath id="clip0_7205_107139">
<rect width="16" height="16" fill="white"/>
</clipPath>
</defs>
</svg>
