<svg width="16" height="16" viewBox="0 0 16 16" fill="none" xmlns="http://www.w3.org/2000/svg">
<g clip-path="url(#clip0_7205_107211)">
<path d="M6 3.5C6 3.22386 6.22386 3 6.5 3H12.5C12.7761 3 13 3.22386 13 3.5V8.02746C13.3467 8.06579 13.6816 8.14352 14 8.25606V3.5C14 2.67157 13.3284 2 12.5 2H6.5C5.67157 2 5 2.67157 5 3.5V5H6V3.5Z" fill="#202020"/>
<path d="M11 8.25606V7.5C11 6.67157 10.3284 6 9.5 6H3.5C2.67157 6 2 6.67157 2 7.5V12.5C2 13.3284 2.67157 14 3.5 14H8.25606C8.14352 13.6816 8.06579 13.3467 8.02746 13H3.5C3.22386 13 3 12.7761 3 12.5V7.5C3 7.22386 3.22386 7 3.5 7H9.5C9.77614 7 10 7.22386 10 7.5V8.75777C10.3085 8.55127 10.644 8.3819 11 8.25606Z" fill="#202020"/>
<path d="M5 6.5C5 6.22386 5.22386 6 5.5 6H9.5C9.89783 6 10.2794 6.15804 10.5607 6.43934C10.842 6.72064 11 7.10217 11 7.5V8.25606C10.0774 8.58215 9.2929 9.20056 8.75777 10H6.5C6.10217 10 5.72064 9.84196 5.43934 9.56066C5.15804 9.27936 5 8.89783 5 8.5V6.5Z" fill="#006CBF"/>
<path fill-rule="evenodd" clip-rule="evenodd" d="M12.5 16C14.433 16 16 14.433 16 12.5C16 10.567 14.433 9 12.5 9C10.567 9 9 10.567 9 12.5C9 14.433 10.567 16 12.5 16ZM15 12.5C15 13.8807 13.8807 15 12.5 15C11.9905 15 11.5165 14.8476 11.1213 14.5858L14.5858 11.1213C14.8476 11.5165 15 11.9905 15 12.5ZM10.4142 13.8787L13.8787 10.4142C13.4835 10.1524 13.0095 10 12.5 10C11.1193 10 10 11.1193 10 12.5C10 13.0095 10.1524 13.4835 10.4142 13.8787Z" fill="#202020"/>
</g>
<defs>
<clipPath id="clip0_7205_107211">
<rect width="16" height="16" fill="white"/>
</clipPath>
</defs>
</svg>
