<svg width="16" height="16" viewBox="0 0 16 16" fill="none" xmlns="http://www.w3.org/2000/svg">
<path d="M6 3.5C6 3.22386 6.22386 3 6.5 3H12.5C12.7761 3 13 3.22386 13 3.5V8C13.3439 8 13.6818 8.05906 14 8.17157V3.5C14 2.67157 13.3284 2 12.5 2H6.5C5.67157 2 5 2.67157 5 3.5V5H6V3.5Z" fill="#202020"/>
<path d="M11 8.76393V7.5C11 6.67157 10.3284 6 9.5 6H3.5C2.67157 6 2 6.67157 2 7.5V12.5C2 13.3284 2.67157 14 3.5 14H9V13H3.5C3.22386 13 3 12.7761 3 12.5V7.5C3 7.22386 3.22386 7 3.5 7H9.5C9.77614 7 10 7.22386 10 7.5V11C10 10.2044 10.3161 9.44129 10.8787 8.87868C10.9182 8.83921 10.9586 8.80095 11 8.76393Z" fill="#202020"/>
<path d="M5 6.5C5 6.22386 5.22386 6 5.5 6H9.5C9.89783 6 10.2794 6.15804 10.5607 6.43934C10.842 6.72064 11 7.10217 11 7.5V8.76393C10.9586 8.80095 10.9182 8.83921 10.8787 8.87868C10.5593 9.19808 10.3193 9.5821 10.1716 10H6.5C6.10217 10 5.72064 9.84196 5.43934 9.56066C5.15804 9.27936 5 8.89783 5 8.5V6.5Z" fill="#006CBF"/>
<path d="M11 12V11C11 9.89543 11.8954 9 13 9C14.1046 9 15 9.89543 15 11V12C15.5523 12 16 12.4477 16 13V15C16 15.5523 15.5523 16 15 16H11C10.4477 16 10 15.5523 10 15V13C10 12.4477 10.4477 12 11 12ZM12 11V12H14V11C14 10.4477 13.5523 10 13 10C12.4477 10 12 10.4477 12 11Z" fill="#202020"/>
</svg>
