<svg width="16" height="16" viewBox="0 0 16 16" fill="none" xmlns="http://www.w3.org/2000/svg">
<path d="M3.00007 11.4991C2.99892 12.1398 3.1739 12.7684 3.50587 13.3164C3.83784 13.8643 4.31404 14.3105 4.88242 14.6061C5.4508 14.9017 6.08951 15.0354 6.72873 14.9925C6.8874 14.9819 7.04458 14.9605 7.19925 14.9287C6.96938 14.6407 6.76782 14.3291 6.59879 13.9982C6.16363 14.0163 5.73089 13.9202 5.34383 13.7189C4.93808 13.5079 4.59813 13.1894 4.36115 12.7982C4.12416 12.407 3.99925 11.9583 4.00006 11.5009C4.00099 10.9857 4.16167 10.4835 4.45998 10.0635C4.75828 9.64353 5.17951 9.32638 5.66562 9.15581C5.86597 9.08551 6.00007 8.89634 6.00007 8.68401L6.00007 2.70712L6.50007 2.20712L7.79296 3.50001L7.14651 4.14646C6.95125 4.34172 6.95125 4.6583 7.14651 4.85356L7.79296 5.50001L7.14651 6.14646C6.95125 6.34172 6.95125 6.6583 7.14651 6.85356L7.76013 7.46718C8.00645 7.23864 8.27375 7.0324 8.55881 6.85165L8.20717 6.50001L8.85362 5.85356C9.04888 5.6583 9.04888 5.34172 8.85362 5.14646L8.20717 4.50001L8.85362 3.85356C9.04888 3.6583 9.04888 3.34172 8.85362 3.14646L6.85362 1.14646C6.65836 0.951196 6.34177 0.951196 6.14651 1.14646L5.14651 2.14646C5.05274 2.24023 5.00007 2.3674 5.00007 2.50001L5.00007 8.34941C4.46017 8.6043 3.99273 8.99444 3.64468 9.48449C3.22658 10.0732 3.00136 10.7771 3.00007 11.4991Z" fill="#202020"/>
<path d="M6.01632 11.9268C5.85348 12.0644 5.75006 12.2701 5.75006 12.5C5.75006 12.8349 5.9696 13.1186 6.27262 13.2149C6.13813 12.8047 6.05058 12.3732 6.01632 11.9268Z" fill="#202020"/>
<path fill-rule="evenodd" clip-rule="evenodd" d="M11.5 16C13.9853 16 16 13.9853 16 11.5C16 9.01472 13.9853 7 11.5 7C9.01472 7 7 9.01472 7 11.5C7 13.9853 9.01472 16 11.5 16ZM13.3536 10.3536C13.5488 10.1583 13.5488 9.84171 13.3536 9.64645C13.1583 9.45118 12.8417 9.45118 12.6464 9.64645L11.5 10.7929L10.3536 9.64645C10.1583 9.45118 9.84171 9.45118 9.64645 9.64645C9.45118 9.84171 9.45118 10.1583 9.64645 10.3536L10.7929 11.5L9.64645 12.6464C9.45118 12.8417 9.45118 13.1583 9.64645 13.3536C9.84171 13.5488 10.1583 13.5488 10.3536 13.3536L11.5 12.2071L12.6464 13.3536C12.8417 13.5488 13.1583 13.5488 13.3536 13.3536C13.5488 13.1583 13.5488 12.8417 13.3536 12.6464L12.2071 11.5L13.3536 10.3536Z" fill="#C50F1F"/>
</svg>
