<svg width="16" height="16" viewBox="0 0 16 16" fill="none" xmlns="http://www.w3.org/2000/svg">
<path d="M14.001 7.49998C14.001 8.32798 13.329 8.99998 12.501 8.99998H8V7.99998H12.501C12.777 7.99998 13.001 7.77598 13.001 7.49998H13V4.49998C13 4.22398 12.776 3.99998 12.5 3.99998H11V5.49998C11 5.77598 10.776 5.99998 10.5 5.99998C10.224 5.99998 9.99998 5.77598 9.99998 5.49998V3.99998H8.49998V5.99998C8.49998 6.27598 8.27599 6.49998 7.99998 6.49998C7.9782 6.49998 7.95674 6.49859 7.93569 6.49588C7.85561 6.1885 7.70409 5.90969 7.49998 5.67831V3.99998H5.99998V5H4.99998V3.99998H3.49998C3.22398 3.99998 2.99998 4.22398 2.99998 4.49998V5H1.99998V4.49998C1.99998 3.67198 2.67198 2.99998 3.49998 2.99998H12.501C13.329 2.99998 14.001 3.67198 14.001 4.49998V7.49998Z" fill="#B27C00"/>
<path d="M1 7V12H1.5C1.776 12 2 12.224 2 12.5C2 12.776 1.776 13 1.5 13H1C0.449 13 0 12.551 0 12V7C0 6.449 0.449 6 1 6H1.5C1.776 6 2 6.224 2 6.5C2 6.776 1.776 7 1.5 7H1ZM6 6H5.5C5.224 6 5 6.224 5 6.5C5 6.776 5.224 7 5.5 7H6V12H5.5C5.224 12 5 12.224 5 12.5C5 12.776 5.224 13 5.5 13H6C6.551 13 7 12.551 7 12V7C7 6.449 6.551 6 6 6Z" fill="#202020"/>
</svg>
