<svg width="16" height="16" viewBox="0 0 16 16" fill="none" xmlns="http://www.w3.org/2000/svg">
<path d="M6.50716 13.81C5.47603 13.5442 4.52482 13.0066 3.75911 12.2409C2.63424 11.116 2.00159 9.59081 2 8C2.00159 6.40919 2.63424 4.88398 3.75911 3.75911C4.88398 2.63424 6.40919 2.00159 8 2C9.59081 2.00159 11.116 2.63424 12.2409 3.75911C13.0066 4.52482 13.5442 5.47603 13.81 6.50716C13.4372 6.33441 13.0419 6.20217 12.6296 6.11611C12.3802 5.50445 12.0099 4.94231 11.5338 4.46622C10.5964 3.52888 9.32559 3.00159 8 3C6.67441 3.00159 5.40355 3.52888 4.46622 4.46622C3.52888 5.40355 3.00159 6.67441 3 8C3.00159 9.32559 3.52888 10.5964 4.46622 11.5338C4.94231 12.0099 5.50445 12.3802 6.11611 12.6296C6.20217 13.0419 6.33441 13.4372 6.50716 13.81Z" fill="#202020"/>
<path fill-rule="evenodd" clip-rule="evenodd" d="M6.5 8C6.10218 8 5.72065 7.84196 5.43935 7.56065C5.15804 7.27935 5 6.89782 5 6.5C5 6.10218 5.15804 5.72065 5.43935 5.43935C5.72065 5.15804 6.10218 5 6.5 5C6.89782 5 7.27935 5.15804 7.56065 5.43935C7.84196 5.72065 8 6.10218 8 6.5C8 6.89782 7.84196 7.27935 7.56065 7.56065C7.27935 7.84196 6.89782 8 6.5 8ZM6.5 6C6.36739 6 6.24022 6.05269 6.14645 6.14645C6.05269 6.24022 6 6.36739 6 6.5C6 6.63261 6.05269 6.75978 6.14645 6.85355C6.24022 6.94731 6.36739 7 6.5 7C6.63261 7 6.75978 6.94731 6.85355 6.85355C6.94731 6.75978 7 6.63261 7 6.5C7 6.36739 6.94731 6.24022 6.85355 6.14645C6.75978 6.05269 6.63261 6 6.5 6Z" fill="#202020"/>
<path fill-rule="evenodd" clip-rule="evenodd" d="M11.5 16C13.9853 16 16 13.9853 16 11.5C16 9.01472 13.9853 7 11.5 7C9.01472 7 7 9.01472 7 11.5C7 13.9853 9.01472 16 11.5 16ZM11.5 8.50342C10.452 8.50342 9.63568 9.32081 9.64659 10.4577C9.64924 10.7338 9.87524 10.9555 10.1514 10.9529C10.4275 10.9502 10.6492 10.7242 10.6465 10.4481C10.641 9.8691 11.0062 9.50342 11.5 9.50342C11.9723 9.50342 12.3534 9.89531 12.3534 10.4529C12.3534 10.6547 12.2822 10.7679 11.9937 10.9968L11.7157 11.2118C11.2099 11.6161 11 11.9293 10.9999 12.5003C10.9999 12.7764 11.2238 13.0003 11.4999 13.0003C11.7454 13.0003 11.9495 12.8234 11.9919 12.5902L12.0034 12.434C12.0202 12.2863 12.103 12.1804 12.3487 11.9858L12.6257 11.7715C13.1391 11.3606 13.3534 11.0387 13.3534 10.4529C13.3534 9.34921 12.531 8.50342 11.5 8.50342ZM11.4999 13.3803C11.155 13.3803 10.8754 13.6599 10.8754 14.0048C10.8754 14.3497 11.155 14.6293 11.4999 14.6293C11.8448 14.6293 12.1244 14.3497 12.1244 14.0048C12.1244 13.6599 11.8448 13.3803 11.4999 13.3803Z" fill="#006CBF"/>
</svg>
