<svg width="16" height="16" viewBox="0 0 16 16" fill="none" xmlns="http://www.w3.org/2000/svg">
<path d="M10.5 4.99999H9.5L9.41 5.00699C9.177 5.04899 9 5.25399 9 5.49899C9 5.77499 9.224 5.99899 9.5 5.99899H10.5L10.664 6.00399C11.969 6.08899 13 7.17399 13 8.49899C13 9.87999 11.881 10.999 10.5 10.999L9.498 11.004L9.408 11.013C9.175 11.057 8.999 11.262 9 11.507C9.001 11.783 9.226 12.006 9.502 12.005L10.502 12L10.694 11.995C12.536 11.895 14 10.369 14 8.49999C14 6.56699 12.433 4.99999 10.5 4.99999Z" fill="#202020"/>
<path d="M6.5 2.99999H5.5L5.308 3.00499C3.464 3.10499 2 4.63099 2 6.49999C2 8.43299 3.567 9.99999 5.5 9.99999H6.5L6.59 9.99199C6.823 9.94999 7 9.74499 7 9.49999C7 9.22399 6.776 8.99999 6.5 8.99999H5.5L5.336 8.99499C4.032 8.90999 3 7.82499 3 6.49999C3 5.11899 4.119 3.99999 5.5 3.99999H6.5L6.59 3.99199C6.823 3.94999 7 3.74499 7 3.49999C7 3.22399 6.776 2.99999 6.5 2.99999Z" fill="#202020"/>
</svg>
