<svg width="16" height="16" viewBox="0 0 16 16" fill="none" xmlns="http://www.w3.org/2000/svg">
<path d="M10.5025 10.0025L10.5025 9.0025L10.4955 8.9125C10.4535 8.6795 10.2485 8.5025 10.0035 8.5025C9.72751 8.5025 9.50351 8.7265 9.50351 9.0025L9.50351 10.0025L9.49851 10.1665C9.41351 11.4715 8.32851 12.5025 7.00351 12.5025C5.62251 12.5025 4.50351 11.3835 4.50351 10.0025L4.49851 9.0005L4.48951 8.9105C4.44551 8.6775 4.24051 8.5015 3.99551 8.5025C3.71951 8.5035 3.49651 8.7285 3.49751 9.0045L3.50251 10.0045L3.50751 10.1965C3.60751 12.0385 5.13351 13.5025 7.00251 13.5025C8.93551 13.5025 10.5025 11.9355 10.5025 10.0025Z" fill="#202020"/>
<path d="M12.5025 6.00249L12.5025 5.00249L12.4975 4.81049C12.3975 2.9665 10.8715 1.50249 9.0025 1.50249C7.0695 1.50249 5.5025 3.06949 5.5025 5.00249L5.5025 6.00249L5.5105 6.09249C5.5525 6.32549 5.7575 6.50249 6.0025 6.50249C6.2785 6.50249 6.5025 6.27849 6.5025 6.00249L6.5025 5.00249L6.5075 4.83849C6.5925 3.53449 7.6775 2.50249 9.0025 2.50249C10.3835 2.50249 11.5025 3.62149 11.5025 5.00249L11.5025 6.00249L11.5105 6.09249C11.5525 6.32549 11.7575 6.50249 12.0025 6.50249C12.2785 6.50249 12.5025 6.27849 12.5025 6.00249Z" fill="#202020"/>
</svg>
