<svg width="16" height="16" viewBox="0 0 16 16" fill="none" xmlns="http://www.w3.org/2000/svg">
<path fill-rule="evenodd" clip-rule="evenodd" d="M2 4.5C2 3.11929 3.11929 2 4.5 2H11.5C12.8807 2 14 3.11929 14 4.5V11.5C14 12.8807 12.8807 14 11.5 14H10.9147C11.0282 13.6771 11.0281 13.3228 10.9143 13H11.5C12.3284 13 13 12.3284 13 11.5V6H3V11.5C3 12.1917 3.46818 12.774 4.10494 12.9474C3.97679 13.2723 3.96629 13.633 4.07343 13.9638C2.89593 13.7613 2 12.7353 2 11.5V4.5ZM3 5H13V4.5C13 3.67157 12.3284 3 11.5 3H4.5C3.67157 3 3 3.67157 3 4.5V5Z" fill="#202020"/>
<path d="M9.85396 13.146C9.65896 12.951 9.34196 12.951 9.14696 13.146L8.00096 14.292V10.499C8.00096 10.223 7.77696 9.99902 7.50096 9.99902C7.22496 9.99902 7.00096 10.223 7.00096 10.499V14.292L5.85496 13.146C5.65996 12.951 5.34296 12.951 5.14796 13.146C4.95296 13.341 4.95296 13.658 5.14796 13.853L7.14796 15.853C7.24596 15.951 7.37396 15.999 7.50196 15.999C7.62996 15.999 7.75796 15.95 7.85596 15.853L9.85596 13.853C10.051 13.658 10.051 13.341 9.85596 13.146H9.85396Z" fill="#006CBF"/>
</svg>
