<svg width="16" height="16" viewBox="0 0 16 16" fill="none" xmlns="http://www.w3.org/2000/svg">
<g clip-path="url(#clip0_7205_107324)">
<path fill-rule="evenodd" clip-rule="evenodd" d="M10.051 12C10.283 10.86 11.293 10 12.5 10C13.878 10 15 11.122 15 12.5C15 13.878 13.878 15 12.5 15C11.293 15 10.283 14.14 10.051 13H8.5C7.673 13 7 12.327 7 11.5V10.5377C7.00032 10.5251 7.00047 10.5126 7.00047 10.5C7.00047 10.4874 7.00032 10.4748 7 10.4623V9.429C6.301 9.247 5.753 8.699 5.571 8H3.5C2.673 8 2 7.327 2 6.5V3.908C1.419 3.701 1 3.151 1 2.5C1 1.673 1.673 1 2.5 1C3.327 1 4 1.673 4 2.5C4 3.151 3.581 3.701 3 3.908V6.5C3 6.776 3.224 7 3.5 7H5.571C5.795 6.14 6.571 5.5 7.5 5.5C8.603 5.5 9.5 6.397 9.5 7.5C9.5 8.429 8.86 9.205 8 9.429V11.5C8 11.776 8.224 12 8.5 12H10.051ZM3 2.5C3 2.224 2.776 2 2.5 2C2.224 2 2 2.224 2 2.5C2 2.776 2.224 3 2.5 3C2.776 3 3 2.776 3 2.5ZM7.5 6.5C6.949 6.5 6.5 6.949 6.5 7.5C6.5 8.051 6.949 8.5 7.5 8.5C8.051 8.5 8.5 8.051 8.5 7.5C8.5 6.949 8.051 6.5 7.5 6.5ZM11 12.5C11 13.327 11.673 14 12.5 14C13.327 14 14 13.327 14 12.5C14 11.673 13.327 11 12.5 11C11.673 11 11 11.673 11 12.5Z" fill="#202020"/>
<path d="M5.85414 15.146C5.94803 15.2399 6.00078 15.3672 6.00078 15.5C6.00078 15.6328 5.94803 15.7601 5.85414 15.854C5.76026 15.9479 5.63292 16.0007 5.50014 16.0007C5.36737 16.0007 5.24003 15.9479 5.14614 15.854L3.00014 13.707L0.854143 15.854C0.760257 15.9479 0.632919 16.0007 0.500143 16.0007C0.367368 16.0007 0.24003 15.9479 0.146143 15.854C0.0522567 15.7601 -0.000488279 15.6328 -0.000488281 15.5C-0.000488283 15.3672 0.0522567 15.2399 0.146143 15.146L2.29314 13L0.146143 10.854C0.0522567 10.7601 -0.000488282 10.6328 -0.000488281 10.5C-0.00048828 10.3672 0.0522567 10.2399 0.146143 10.146C0.24003 10.0521 0.367368 9.99939 0.500143 9.99939C0.632919 9.99939 0.760257 10.0521 0.854143 10.146L3.00014 12.293L5.14614 10.146C5.24003 10.0521 5.36737 9.99939 5.50014 9.99939C5.63292 9.99939 5.76026 10.0521 5.85414 10.146C5.94803 10.2399 6.00078 10.3672 6.00078 10.5C6.00078 10.6328 5.94803 10.7601 5.85414 10.854L3.70714 13L5.85414 15.146Z" fill="#C50F1F"/>
</g>
<defs>
<clipPath id="clip0_7205_107324">
<rect width="16" height="16" fill="white"/>
</clipPath>
</defs>
</svg>
