<svg width="16" height="16" viewBox="0 0 16 16" fill="none" xmlns="http://www.w3.org/2000/svg">
<path fill-rule="evenodd" clip-rule="evenodd" d="M8 15C11.866 15 15 11.866 15 8C15 4.134 11.866 1 8 1C4.134 1 1 4.134 1 8C1 11.866 4.134 15 8 15ZM9.79 11.892C11.502 11.084 12.038 9.59 12.159 9.009C11.533 9.65 10.841 10.3 10.375 9.85C10.375 9.85 10.35 7.45 10.35 6.466C10.35 5.143 11.605 4.156 11.605 4.156C10.915 4.279 10.086 4.525 9.206 5.388C9.127 5.467 9.051 5.549 8.98 5.636C8.603 5.347 8.114 5.434 8.114 5.434C8.378 5.579 8.642 6.001 8.642 6.351V9.788C8.642 9.788 8.066 10.294 7.623 10.294C7.523 10.294 7.424 10.272 7.335 10.226C7.246 10.181 7.169 10.115 7.11 10.034C7.075 9.988 7.046 9.938 7.023 9.885V5.638C6.892 5.746 6.449 5.835 6.449 5.1C6.449 4.643 6.778 4.098 7.365 3.764C6.56 3.887 5.805 4.235 5.189 4.768C4.721 5.172 4.346 5.674 4.092 6.238C3.837 6.802 3.709 7.414 3.715 8.033C3.715 8.033 4.144 6.693 4.681 6.569C4.759 6.548 4.841 6.546 4.92 6.563C4.999 6.58 5.073 6.615 5.137 6.665C5.2 6.715 5.251 6.78 5.285 6.853C5.319 6.926 5.335 7.007 5.332 7.088V10.234C5.332 10.553 5.126 10.623 4.936 10.619C4.807 10.61 4.68 10.586 4.557 10.548C4.949 11.079 5.459 11.512 6.046 11.813C6.633 12.114 7.282 12.276 7.942 12.284L9.102 11.118L9.789 11.891L9.79 11.892Z" fill="#202020"/>
</svg>
