<svg width="16" height="16" viewBox="0 0 16 16" fill="none" xmlns="http://www.w3.org/2000/svg">
<g clip-path="url(#clip0_7205_107344)">
<path d="M3 2.75C3 1.7835 3.7835 1 4.75 1H11.25C12.2165 1 13 1.7835 13 2.75V10.879L12 9.87831V2.75C12 2.33579 11.6642 2 11.25 2H4.75C4.33579 2 4 2.33579 4 2.75V13.25C4 13.6642 4.33579 14 4.75 14H9.87829L9.43899 14.439C9.2792 14.5988 9.15916 14.7909 9.08527 15H4.75C3.7835 15 3 14.2165 3 13.25V2.75Z" fill="#202020"/>
<path fill-rule="evenodd" clip-rule="evenodd" d="M10 9.08526V8.22C10.3133 7.94102 10.5643 7.59911 10.7366 7.2166C10.909 6.83408 10.9987 6.41953 11 6C11.0027 5.49891 10.8798 5.00514 10.6426 4.56375C10.4054 4.12236 10.0613 3.74743 9.64197 3.47318C9.22258 3.19892 8.74119 3.03409 8.24172 2.99372C7.74225 2.95335 7.24063 3.03874 6.78265 3.24208C6.32467 3.44543 5.92491 3.76025 5.61989 4.15781C5.31486 4.55538 5.11428 5.02301 5.03645 5.51802C4.95862 6.01304 5.00603 6.51966 5.17434 6.99165C5.34266 7.46363 5.62652 7.88593 6 8.22V11.5C6.00005 11.5904 6.02463 11.6792 6.07112 11.7568C6.11761 11.8343 6.18427 11.8979 6.264 11.9405C6.34374 11.9832 6.43356 12.0035 6.5239 11.9992C6.61423 11.9948 6.70171 11.9661 6.777 11.916L8 11.1L9.223 11.915C9.30492 11.9701 9.4013 11.9996 9.5 12C9.5823 11.9998 9.6633 11.9796 9.736 11.941C9.75386 11.9314 9.77105 11.9208 9.78751 11.9093L9.43899 11.561C9.16667 11.2887 9.00984 10.9225 9 10.5384V10.566L8.277 10.084C8.19494 10.0294 8.09857 10.0003 8 10.0003C7.90143 10.0003 7.80506 10.0294 7.723 10.084L7 10.566V8.816C7.64409 9.06137 8.35591 9.06137 9 8.816V10.4615C9.00984 10.0775 9.16667 9.71131 9.43899 9.43899C9.59879 9.27919 9.79092 9.15916 10 9.08526ZM8 8C7.60444 8 7.21776 7.8827 6.88886 7.66294C6.55997 7.44318 6.30362 7.13082 6.15224 6.76537C6.00087 6.39992 5.96126 5.99778 6.03843 5.60982C6.1156 5.22186 6.30608 4.86549 6.58579 4.58579C6.86549 4.30608 7.22186 4.1156 7.60982 4.03843C7.99779 3.96126 8.39992 4.00087 8.76537 4.15224C9.13082 4.30362 9.44318 4.55996 9.66294 4.88886C9.88271 5.21776 10 5.60444 10 6C10 6.53043 9.78929 7.03914 9.41422 7.41421C9.03914 7.78929 8.53044 8 8 8Z" fill="#202020"/>
<path d="M15.854 15.146C15.9479 15.2399 16.0007 15.3672 16.0007 15.5C16.0007 15.6328 15.9479 15.7601 15.854 15.854C15.7601 15.9479 15.6328 16.0007 15.5 16.0007C15.3672 16.0007 15.2399 15.9479 15.146 15.854L13 13.707L10.854 15.854C10.7601 15.9479 10.6328 16.0007 10.5 16.0007C10.3672 16.0007 10.2399 15.9479 10.146 15.854C10.0521 15.7601 9.99939 15.6328 9.99939 15.5C9.99939 15.3672 10.0521 15.2399 10.146 15.146L12.293 13L10.146 10.854C10.0521 10.7601 9.99939 10.6328 9.99939 10.5C9.99939 10.3672 10.0521 10.2399 10.146 10.146C10.2399 10.0521 10.3672 9.99939 10.5 9.99939C10.6328 9.99939 10.7601 10.0521 10.854 10.146L13 12.293L15.146 10.146C15.2399 10.0521 15.3672 9.99939 15.5 9.99939C15.6328 9.99939 15.7601 10.0521 15.854 10.146C15.9479 10.2399 16.0007 10.3672 16.0007 10.5C16.0007 10.6328 15.9479 10.7601 15.854 10.854L13.707 13L15.854 15.146Z" fill="#C50F1F"/>
</g>
<defs>
<clipPath id="clip0_7205_107344">
<rect width="16" height="16" fill="white"/>
</clipPath>
</defs>
</svg>
