<svg width="16" height="16" viewBox="0 0 16 16" fill="none" xmlns="http://www.w3.org/2000/svg">
<g clip-path="url(#clip0_7205_107397)">
<path d="M5 7.745C4.71771 7.84466 4.42481 7.9163 4.12542 7.958C4.08365 7.96381 4.04184 7.96904 4 7.97367L4 11.5C4 12.327 4.673 13 5.5 13H13.5C14.327 13 15 12.327 15 11.5V3.5C15 2.673 14.327 2 13.5 2H8V2.5C8.00036 2.67049 7.97154 2.83958 7.91497 3H13.5C13.775 3 14 3.224 14 3.5V11.5C14 11.776 13.775 12 13.5 12H5.5C5.225 12 5 11.776 5 11.5V7.745Z" fill="#202020"/>
<path d="M6.481 6.873C6.66957 6.70707 6.84307 6.52608 7 6.33223V6.8C7 6.91 6.91 7 6.8 7H6.33114C6.38194 6.95883 6.43191 6.91649 6.481 6.873Z" fill="#202020"/>
<path d="M9 4.2V4.8C9 4.91 8.91 5 8.8 5H8.2C8.09 5 8 4.91 8 4.8V4.2C8 4.09 8.09 4 8.2 4H8.8C8.91 4 9 4.09 9 4.2Z" fill="#202020"/>
<path d="M11 4.2V4.8C11 4.91 10.91 5 10.8 5H10.2C10.09 5 10 4.91 10 4.8V4.2C10 4.09 10.09 4 10.2 4H10.8C10.91 4 11 4.09 11 4.2Z" fill="#202020"/>
<path d="M13 4.2V4.8C13 4.91 12.91 5 12.8 5H12.2C12.09 5 12 4.91 12 4.8V4.2C12 4.09 12.09 4 12.2 4H12.8C12.91 4 13 4.09 13 4.2Z" fill="#202020"/>
<path d="M9 6.2V6.8C9 6.91 8.91 7 8.8 7H8.2C8.09 7 8 6.91 8 6.8V6.2C8 6.09 8.09 6 8.2 6H8.8C8.91 6 9 6.09 9 6.2Z" fill="#202020"/>
<path d="M11 6.2V6.8C11 6.91 10.91 7 10.8 7H10.2C10.09 7 10 6.91 10 6.8V6.2C10 6.09 10.09 6 10.2 6H10.8C10.91 6 11 6.09 11 6.2Z" fill="#202020"/>
<path d="M13 6.2V6.8C13 6.91 12.91 7 12.8 7H12.2C12.09 7 12 6.91 12 6.8V6.2C12 6.09 12.09 6 12.2 6H12.8C12.91 6 13 6.09 13 6.2Z" fill="#202020"/>
<path d="M7 8.2V8.8C7 8.91 6.91 9 6.8 9H6.2C6.09 9 6 8.91 6 8.8V8.2C6 8.09 6.09 8 6.2 8H6.8C6.91 8 7 8.09 7 8.2Z" fill="#202020"/>
<path d="M9 8.2V8.8C9 8.91 8.91 9 8.8 9H8.2C8.09 9 8 8.91 8 8.8V8.2C8 8.09 8.09 8 8.2 8H8.8C8.91 8 9 8.09 9 8.2Z" fill="#202020"/>
<path d="M11 8.2V8.8C11 8.91 10.91 9 10.8 9H10.2C10.09 9 10 8.91 10 8.8V8.2C10 8.09 10.09 8 10.2 8H10.8C10.91 8 11 8.09 11 8.2Z" fill="#202020"/>
<path d="M13 8.2V8.8C13 8.91 12.91 9 12.8 9H12.2C12.09 9 12 8.91 12 8.8V8.2C12 8.09 12.09 8 12.2 8H12.8C12.91 8 13 8.09 13 8.2Z" fill="#202020"/>
<path d="M7 10.2V10.8C7 10.91 6.91 11 6.8 11H6.2C6.09 11 6 10.91 6 10.8V10.2C6 10.09 6.09 10 6.2 10H6.8C6.91 10 7 10.09 7 10.2Z" fill="#202020"/>
<path d="M9 10.2V10.8C9 10.91 8.91 11 8.8 11H8.2C8.09 11 8 10.91 8 10.8V10.2C8 10.09 8.09 10 8.2 10H8.8C8.91 10 9 10.09 9 10.2Z" fill="#202020"/>
<path d="M11 10.2V10.8C11 10.91 10.91 11 10.8 11H10.2C10.09 11 10 10.91 10 10.8V10.2C10 10.09 10.09 10 10.2 10H10.8C10.91 10 11 10.09 11 10.2Z" fill="#202020"/>
<path d="M13 10.2V10.8C13 10.91 12.91 11 12.8 11H12.2C12.09 11 12 10.91 12 10.8V10.2C12 10.09 12.09 10 12.2 10H12.8C12.91 10 13 10.09 13 10.2Z" fill="#202020"/>
<path d="M6.5 2.99999H4.5C4.36739 2.99999 4.24021 2.94731 4.14645 2.85354C4.05268 2.75977 4 2.6326 4 2.49999C4 2.36738 4.05268 2.2402 4.14645 2.14644C4.24021 2.05267 4.36739 1.99999 4.5 1.99999H5.5C5.22862 1.63807 4.86412 1.35657 4.44536 1.18549C4.0266 1.0144 3.56927 0.960148 3.1221 1.0285C2.67493 1.09685 2.25469 1.28525 1.90616 1.57363C1.55763 1.862 1.29387 2.23953 1.143 2.66599C1.11351 2.74883 1.06271 2.82242 0.995698 2.87936C0.928691 2.93629 0.847854 2.97455 0.761342 2.99027C0.67483 3.00599 0.585703 2.99862 0.502949 2.9689C0.420196 2.93918 0.346743 2.88816 0.29 2.82099C0.214158 2.73119 0.172379 2.61753 0.172 2.49999C0.171277 2.4431 0.180761 2.38654 0.2 2.33299C0.397396 1.77193 0.734827 1.27059 1.1803 0.876501C1.62577 0.482411 2.16451 0.208633 2.74546 0.0811268C3.3264 -0.0463798 3.93028 -0.0233897 4.49984 0.147917C5.06941 0.319224 5.58578 0.63317 6 1.05999V0.499989C6 0.367381 6.05268 0.240204 6.14645 0.146436C6.24021 0.0526676 6.36739 -1.08097e-05 6.5 -1.08097e-05C6.63261 -1.08097e-05 6.75979 0.0526676 6.85355 0.146436C6.94732 0.240204 7 0.367381 7 0.499989V2.49999C7 2.6326 6.94732 2.75977 6.85355 2.85354C6.75979 2.94731 6.63261 2.99999 6.5 2.99999ZM1 6.49999V5.93999C1.41422 6.36681 1.93059 6.68075 2.50016 6.85206C3.06972 7.02337 3.6736 7.04636 4.25454 6.91885C4.83549 6.79134 5.37423 6.51757 5.8197 6.12348C6.26517 5.72939 6.6026 5.22805 6.8 4.66699C6.82522 4.60339 6.83746 4.53539 6.836 4.46699C6.83401 4.39976 6.81907 4.33356 6.792 4.27199C6.76432 4.21039 6.72414 4.15522 6.674 4.10999C6.62424 4.06559 6.5661 4.03158 6.503 4.00999C6.43876 3.98791 6.37079 3.97874 6.303 3.98299C6.23582 3.98716 6.17018 4.00484 6.11 4.03499C6.05005 4.06564 5.99671 4.10777 5.953 4.15899C5.90802 4.21022 5.87399 4.27012 5.853 4.33499C5.7016 4.76048 5.43776 5.13701 5.08952 5.42458C4.74129 5.71215 4.32165 5.90001 3.87521 5.96821C3.42876 6.03642 2.97218 5.98241 2.55397 5.81193C2.13576 5.64145 1.77154 5.36087 1.5 4.99999H2.5C2.63261 4.99999 2.75979 4.94731 2.85355 4.85354C2.94732 4.75977 3 4.6326 3 4.49999C3 4.36738 2.94732 4.2402 2.85355 4.14644C2.75979 4.05267 2.63261 3.99999 2.5 3.99999H0.5C0.367392 3.99999 0.240215 4.05267 0.146447 4.14644C0.0526784 4.2402 0 4.36738 0 4.49999V6.49999C0 6.6326 0.0526784 6.75977 0.146447 6.85354C0.240215 6.94731 0.367392 6.99999 0.5 6.99999C0.632608 6.99999 0.759785 6.94731 0.853553 6.85354C0.947322 6.75977 1 6.6326 1 6.49999Z" fill="#006CBF"/>
</g>
<defs>
<clipPath id="clip0_7205_107397">
<rect width="16" height="16" fill="white"/>
</clipPath>
</defs>
</svg>
