<svg width="16" height="16" viewBox="0 0 16 16" fill="none" xmlns="http://www.w3.org/2000/svg">
<g clip-path="url(#clip0_7205_107430)">
<path fill-rule="evenodd" clip-rule="evenodd" d="M2.99976 7.91422L2.99976 13C2.99976 14.1046 3.89519 15 4.99976 15H10.9998C12.1043 15 12.9998 14.1046 12.9998 13V5.41421C12.9998 5.01639 12.8417 4.63486 12.5604 4.35355L9.6462 1.43934C9.3649 1.15804 8.98337 1 8.58554 1H5.11376L5.53776 1.424C5.68331 1.56296 5.79926 1.72991 5.87865 1.91482C5.89071 1.9429 5.90189 1.97131 5.91217 2H7.99976V4.5C7.99976 5.32843 8.67133 6 9.49976 6H11.9998V13C11.9998 13.5523 11.552 14 10.9998 14H4.99976C4.44747 14 3.99976 13.5523 3.99976 13V6.50339C3.99886 6.89999 3.84093 7.28015 3.56042 7.56066C3.40072 7.72036 3.20871 7.84034 2.99976 7.91422ZM9.49976 5H11.7926L8.99976 2.20711V4.5C8.99976 4.77614 9.22361 5 9.49976 5Z" fill="#202020"/>
<path d="M2.14975 0.15L0.149753 2.15C0.102311 2.19512 0.064537 2.24941 0.0387253 2.30958C0.0129135 2.36974 -0.000396729 2.43453 -0.000396729 2.5C-0.000396729 2.56547 0.0129135 2.63026 0.0387253 2.69042C0.064537 2.75059 0.102311 2.80488 0.149753 2.85C0.194871 2.89744 0.249162 2.93522 0.30933 2.96103C0.369497 2.98684 0.434283 3.00015 0.499753 3.00015C0.565224 3.00015 0.63001 2.98684 0.690177 2.96103C0.750345 2.93522 0.804636 2.89744 0.849753 2.85L1.99975 1.71V6.5C1.99975 6.63261 2.05243 6.75979 2.1462 6.85355C2.23997 6.94732 2.36715 7 2.49975 7C2.63236 7 2.75954 6.94732 2.85331 6.85355C2.94707 6.75979 2.99975 6.63261 2.99975 6.5V1.71L4.14975 2.85C4.2429 2.94128 4.3683 2.99212 4.49872 2.99146C4.62913 2.9908 4.75402 2.9387 4.84624 2.84648C4.93845 2.75426 4.99055 2.62938 4.99121 2.49896C4.99187 2.36855 4.94104 2.24314 4.84975 2.15L2.84975 0.15C2.80464 0.102558 2.75034 0.0647836 2.69018 0.0389719C2.63001 0.0131602 2.56522 -0.000149727 2.49975 -0.000149727C2.43428 -0.000149727 2.3695 0.0131602 2.30933 0.0389719C2.24916 0.0647836 2.19487 0.102558 2.14975 0.15V0.15Z" fill="#006CBF"/>
</g>
<defs>
<clipPath id="clip0_7205_107430">
<rect width="16" height="16" fill="white"/>
</clipPath>
</defs>
</svg>
