<svg width="16" height="16" viewBox="0 0 16 16" fill="none" xmlns="http://www.w3.org/2000/svg">
<g clip-path="url(#clip0_7205_107420)">
<path d="M3 7.91422L3 12.5C3 13.925 5.149 15 8 15C10.851 15 13 13.925 13 12.5V3.5C13 2.075 10.851 1 8 1C7.05262 1 6.18276 1.1187 5.44351 1.32951L5.538 1.424C5.68355 1.56296 5.7995 1.72991 5.8789 1.91482C5.92226 2.0158 5.95422 2.121 5.97439 2.22847C6.54756 2.08833 7.22982 2 8 2C10.441 2 12 2.888 12 3.5C12 4.112 10.441 5 8 5C6.15632 5 4.8158 4.49342 4.27014 3.9818C4.17837 3.9675 4.08795 3.94484 4 3.914V5.021C5.21405 5.71872 6.60095 6.05816 8 6C9.39905 6.05816 10.7859 5.71872 12 5.021V12.5C12 13.111 10.441 14 8 14C5.558 14 4 13.111 4 12.5V6.50339C3.99911 6.89999 3.84117 7.28015 3.56066 7.56066C3.40096 7.72036 3.20895 7.84034 3 7.91422Z" fill="#3487C7"/>
<path d="M2.15 0.15L0.149998 2.15C0.102555 2.19512 0.0647811 2.24941 0.0389694 2.30958C0.0131577 2.36974 -0.000152588 2.43453 -0.000152588 2.5C-0.000152588 2.56547 0.0131577 2.63026 0.0389694 2.69042C0.0647811 2.75059 0.102555 2.80488 0.149998 2.85C0.195115 2.89744 0.249406 2.93522 0.309574 2.96103C0.369741 2.98684 0.434528 3.00015 0.499998 3.00015C0.565468 3.00015 0.630254 2.98684 0.690422 2.96103C0.750589 2.93522 0.80488 2.89744 0.849998 2.85L2 1.71V6.5C2 6.63261 2.05268 6.75979 2.14644 6.85355C2.24021 6.94732 2.36739 7 2.5 7C2.63261 7 2.75978 6.94732 2.85355 6.85355C2.94732 6.75979 3 6.63261 3 6.5V1.71L4.15 2.85C4.24314 2.94128 4.36855 2.99212 4.49896 2.99146C4.62938 2.9908 4.75426 2.9387 4.84648 2.84648C4.9387 2.75426 4.9908 2.62938 4.99146 2.49896C4.99211 2.36855 4.94128 2.24314 4.85 2.15L2.85 0.15C2.80488 0.102558 2.75059 0.0647836 2.69042 0.0389719C2.63025 0.0131602 2.56547 -0.000149727 2.5 -0.000149727C2.43453 -0.000149727 2.36974 0.0131602 2.30957 0.0389719C2.24941 0.0647836 2.19512 0.102558 2.15 0.15V0.15Z" fill="#006CBF"/>
</g>
<defs>
<clipPath id="clip0_7205_107420">
<rect width="16" height="16" fill="white"/>
</clipPath>
</defs>
</svg>
