<svg width="16" height="16" viewBox="0 0 16 16" fill="none" xmlns="http://www.w3.org/2000/svg">
<path fill-rule="evenodd" clip-rule="evenodd" d="M2.08296 9C2.0284 8.67479 2 8.34071 2 8C2 4.68629 4.68629 2 8 2C11.3137 2 14 4.68629 14 8C14 10.973 11.8377 13.441 9 13.917V12.2573C9.10607 12.0962 9.21107 11.9055 9.31258 11.6822C9.4073 11.4738 9.49448 11.2455 9.57265 11H9C9 10.6357 8.90261 10.2942 8.73244 10H9.82134C9.93562 9.3892 10 8.71396 10 8C10 7.28604 9.93562 6.6108 9.82134 6H6.17866C6.06438 6.6108 6 7.28604 6 8C6 8.34323 6.01488 8.67752 6.04303 9H5.03956C5.01349 8.67417 5 8.34 5 8C5 7.30146 5.05694 6.6275 5.16299 6H3.41604C3.14845 6.61246 3 7.2889 3 8C3 8.34247 3.03443 8.67689 3.10002 9H2.08296ZM9.31258 4.31781C8.87543 3.35608 8.37372 3 8 3C7.62628 3 7.12457 3.35608 6.68742 4.31781C6.5927 4.52619 6.50552 4.75446 6.42735 5H9.57265C9.49448 4.75446 9.4073 4.52619 9.31258 4.31781ZM5.38411 5C5.49428 4.6038 5.62614 4.23601 5.77705 3.90401C5.85596 3.7304 5.94287 3.56117 6.03766 3.39978C5.22525 3.74677 4.52341 4.30269 3.99963 5H5.38411ZM12.0004 11H10.6159C10.5057 11.3962 10.3739 11.764 10.2229 12.096C10.144 12.2696 10.0571 12.4388 9.96234 12.6002C10.7747 12.2532 11.4766 11.6973 12.0004 11ZM10.837 10H12.584C12.8516 9.38754 13 8.7111 13 8C13 7.2889 12.8516 6.61246 12.584 6H10.837C10.9431 6.6275 11 7.30146 11 8C11 8.69854 10.9431 9.3725 10.837 10ZM12.0004 5C11.4766 4.30269 10.7747 3.74677 9.96234 3.39978C10.0571 3.56117 10.144 3.7304 10.2229 3.90401C10.3739 4.23601 10.5057 4.6038 10.6159 5H12.0004Z" fill="#006CBF"/>
<path d="M7 10H1C0.448 10 0 10.448 0 11V15C0 15.552 0.448 16 1 16H7C7.552 16 8 15.552 8 15V11C8 10.448 7.552 10 7 10ZM7 15H1V11H7V15ZM4 12.5V13.5C4 13.776 3.776 14 3.5 14H2.5C2.224 14 2 13.776 2 13.5V12.5C2 12.224 2.224 12 2.5 12H3.5C3.776 12 4 12.224 4 12.5ZM6 12.5V13.5C6 13.776 5.776 14 5.5 14C5.224 14 5 13.776 5 13.5V12.5C5 12.224 5.224 12 5.5 12C5.776 12 6 12.224 6 12.5Z" fill="#202020"/>
</svg>
