<svg width="16" height="16" viewBox="0 0 16 16" fill="none" xmlns="http://www.w3.org/2000/svg">
<g clip-path="url(#clip0_7205_107453)">
<path d="M11.9868 2C13.0908 2 13.9848 2.895 13.9848 3.999H13.9858V6.498H12.9868V3.999C12.9868 3.447 12.5398 3 11.9878 3H3.99776C3.44576 3 2.99876 3.447 2.99876 3.999V6.04094C2.64792 6.10036 2.30949 6.2219 1.99976 6.40073V3.999C1.99976 2.895 2.89376 2 3.99776 2H11.9868Z" fill="#202020"/>
<path d="M7.96247 13.991H8.98476V14H9.98376V13.991H11.9868C13.0908 13.991 13.9848 13.096 13.9848 11.992V10.245H12.9868V11.992C12.9868 12.544 12.5398 12.991 11.9878 12.991H7.94744C7.98201 13.1573 7.99977 13.3278 7.99976 13.5C7.99976 13.664 7.98742 13.8282 7.96247 13.991Z" fill="#202020"/>
<path d="M9.52576 5.313C9.59876 5.13 9.77276 5.007 9.96876 4.999L9.96976 4.997C10.1658 4.989 10.3488 5.097 10.4368 5.273L11.7968 7.995H13.5008C13.7758 7.995 13.9998 8.219 13.9998 8.495C13.9998 8.771 13.7768 8.995 13.5008 8.995H11.4888C11.2998 8.995 11.1268 8.888 11.0418 8.719L10.0408 6.716L8.45576 10.68C8.38276 10.863 8.20876 10.986 8.01276 10.994C7.81676 11.002 7.63376 10.894 7.54576 10.718L6.46765 8.56109C6.42817 8.29337 6.35244 8.03083 6.24143 7.78094C6.04367 7.33573 5.74107 6.94669 5.36119 6.64613L5.54676 6.275C5.63176 6.106 5.80476 5.999 5.99376 5.999C6.18276 5.999 6.35576 6.106 6.44076 6.275L7.94076 9.277L9.52576 5.313Z" fill="#11910D"/>
<path d="M1.49976 9C1.49976 9.39556 1.61705 9.78224 1.83682 10.1111C2.05658 10.44 2.36894 10.6964 2.73439 10.8478C3.09984 10.9991 3.50197 11.0387 3.88994 10.9616C4.2779 10.8844 4.63426 10.6939 4.91397 10.4142C5.19367 10.1345 5.38416 9.77814 5.46133 9.39018C5.5385 9.00222 5.49889 8.60009 5.34752 8.23463C5.19614 7.86918 4.93979 7.55682 4.6109 7.33706C4.282 7.1173 3.89532 7 3.49976 7C2.96932 7 2.46062 7.21071 2.08554 7.58579C1.71047 7.96086 1.49976 8.46957 1.49976 9ZM-0.000244141 13.5C-0.000244141 14.745 0.999756 16 3.49976 16C5.99976 16 6.99976 14.75 6.99976 13.5C6.99976 13.1022 6.84172 12.7206 6.56042 12.4393C6.27911 12.158 5.89758 12 5.49976 12H1.49976C1.10193 12 0.7204 12.158 0.439095 12.4393C0.157791 12.7206 -0.000244141 13.1022 -0.000244141 13.5Z" fill="#202020"/>
</g>
<defs>
<clipPath id="clip0_7205_107453">
<rect width="16" height="16" fill="white"/>
</clipPath>
</defs>
</svg>
