<svg width="16" height="16" viewBox="0 0 16 16" fill="none" xmlns="http://www.w3.org/2000/svg">
<g clip-path="url(#clip0_7205_107031)">
<path d="M12 4.75025V6.25025C12 6.66425 11.664 7.00025 11.25 7.00025H11V7.88225C11 8.45425 10.682 8.96825 10.171 9.22425L8 10.3092V13.0922C8.581 13.2992 9 13.8482 9 14.5002C9 15.3282 8.328 16.0002 7.5 16.0002C6.672 16.0002 6 15.3282 6 14.5002C6 13.8482 6.419 13.2983 7 13.0922V11.3092L4.829 10.2242C4.318 9.96825 4 9.45425 4 8.88225V7.90825C3.419 7.70125 3 7.15225 3 6.50025C3 5.67225 3.672 5.00025 4.5 5.00025C5.328 5.00025 6 5.67225 6 6.50025C6 7.15225 5.581 7.70225 5 7.90825V8.88225C5 9.07325 5.106 9.24425 5.276 9.32925L7 10.1912V1.70725L5.854 2.85325C5.659 3.04825 5.342 3.04825 5.147 2.85325C4.952 2.65825 4.952 2.34125 5.147 2.14625L7.146 0.14625C7.341 -0.04875 7.658 -0.04875 7.853 0.14625L9.853 2.14625C10.048 2.34125 10.048 2.65825 9.853 2.85325C9.755 2.95125 9.627 2.99925 9.499 2.99925C9.371 2.99925 9.243 2.95025 9.145 2.85325L7.999 1.70725V9.19125L9.723 8.32925C9.893 8.24425 9.999 8.07325 9.999 7.88225V7.00025H9.749C9.335 7.00025 8.999 6.66425 8.999 6.25025V4.75025C8.999 4.33625 9.335 4.00025 9.749 4.00025H11.249C11.663 4.00025 11.999 4.33625 11.999 4.75025H12Z" fill="#202020"/>
</g>
<defs>
<clipPath id="clip0_7205_107031">
<rect width="16" height="16" fill="white"/>
</clipPath>
</defs>
</svg>
