<svg width="16" height="16" viewBox="0 0 16 16" fill="none" xmlns="http://www.w3.org/2000/svg">
<path d="M7.99976 14C4.14076 14 0.999756 11.309 0.999756 8C0.999756 4.691 4.14076 2 7.99976 2C11.8588 2 14.9998 4.691 14.9998 8C14.9998 11.309 11.8588 14 7.99976 14ZM7.99976 3C4.69076 3 1.99976 5.243 1.99976 8C1.99976 10.757 4.69076 13 7.99976 13C11.3088 13 13.9998 10.757 13.9998 8C13.9998 5.243 11.3088 3 7.99976 3ZM10.9998 6.5C10.9998 6.224 10.7758 6 10.4998 6H5.49976C5.22376 6 4.99976 6.224 4.99976 6.5C4.99976 6.776 5.22376 7 5.49976 7H10.4998C10.7758 7 10.9998 6.776 10.9998 6.5ZM10.9998 9.5C10.9998 9.224 10.7758 9 10.4998 9H5.49976C5.22376 9 4.99976 9.224 4.99976 9.5C4.99976 9.776 5.22376 10 5.49976 10H10.4998C10.7758 10 10.9998 9.776 10.9998 9.5Z" fill="#202020"/>
</svg>
