<svg width="16" height="16" viewBox="0 0 16 16" fill="none" xmlns="http://www.w3.org/2000/svg">
<path d="M2.146 6.146C2.24 6.053 2.367 6 2.5 6C2.633 6 2.76 6.052 2.854 6.146C2.947 6.24 3 6.367 3 6.5V8.5C3 8.633 2.948 8.761 2.854 8.854C2.76 8.947 2.633 9 2.5 9C2.367 9 2.239 8.948 2.146 8.854C2.053 8.76 2 8.633 2 8.5V6.5C2 6.367 2.052 6.24 2.146 6.146Z" fill="#202020"/>
<path fill-rule="evenodd" clip-rule="evenodd" d="M10.647 1.44001L13.561 4.35401C13.842 4.63601 14 5.01701 14 5.41501V13.001C14 14.106 13.105 15.001 12 15.001H6C4.895 15.001 4 14.106 4 13.001V11.002H1C0.735 11.002 0.481 10.897 0.293 10.709C0.105 10.522 0 10.267 0 10.002V5.00201C0 4.73701 0.105 4.48301 0.293 4.29501C0.48 4.10701 0.735 4.00201 1 4.00201H4V3.00101C4 1.89601 4.895 1.00101 6 1.00101H9.586C9.984 1.00101 10.366 1.15901 10.647 1.44001ZM12.793 5.00101L10 2.20801V4.50101C10 4.77701 10.224 5.00101 10.5 5.00101H12.793ZM5.461 7.00701C5.528 7.00901 5.595 6.99901 5.658 6.97501C5.777 6.93601 5.891 6.88501 6 6.82401V9.50101C6 9.63401 6.052 9.76201 6.146 9.85501C6.24 9.94801 6.367 10.001 6.5 10.001C6.633 10.001 6.761 9.94901 6.854 9.85501C6.947 9.76101 7 9.63401 7 9.50101V5.50201C7 5.38401 6.958 5.26901 6.881 5.17801C6.804 5.08701 6.697 5.02701 6.58 5.00801C6.463 4.98901 6.343 5.01201 6.241 5.07401C6.139 5.13501 6.062 5.23101 6.025 5.34401C5.964 5.49901 5.873 5.64001 5.755 5.75801C5.638 5.87601 5.497 5.96801 5.342 6.02801C5.277 6.04701 5.217 6.07801 5.165 6.12101C5.113 6.16401 5.07 6.21601 5.039 6.27601C5.01838 6.31537 5.01006 6.35914 5.00168 6.40317C5.00112 6.40612 5.00056 6.40906 5 6.41201V6.60001C5.00164 6.60905 5.00211 6.61826 5.00257 6.62744C5.00322 6.64058 5.00388 6.65364 5.008 6.66601C5.03 6.73001 5.064 6.78901 5.108 6.83901C5.152 6.88901 5.206 6.93001 5.267 6.95901C5.328 6.98801 5.394 7.00401 5.461 7.00701ZM2.5 10.001C2.898 10.001 3.28 9.84301 3.561 9.56201C3.842 9.28001 4 8.89901 4 8.50101V6.50101C4 6.10301 3.843 5.72101 3.561 5.44001C3.279 5.15901 2.898 5.00101 2.5 5.00101C2.102 5.00101 1.72 5.15801 1.439 5.44001C1.158 5.72201 1 6.10301 1 6.50101V8.50101C1 8.89901 1.158 9.28101 1.439 9.56201C1.721 9.84301 2.102 10.001 2.5 10.001ZM12 14.001C12.552 14.001 13 13.553 13 13.001V6.00001H10.5C9.672 6.00001 9 5.32801 9 4.50001V2.00001H6C5.448 2.00001 5 2.44801 5 3.00001V4.00101H7C7.265 4.00101 7.52 4.10601 7.707 4.29401C7.895 4.48101 8 4.73601 8 5.00101V10.001C8 10.266 7.895 10.52 7.707 10.708C7.52 10.896 7.265 11.001 7 11.001H5V13.001C5 13.553 5.448 14.001 6 14.001H12Z" fill="#202020"/>
</svg>
