<svg width="16" height="16" viewBox="0 0 16 16" fill="none" xmlns="http://www.w3.org/2000/svg">
<path fill-rule="evenodd" clip-rule="evenodd" d="M4.5 2C3.11929 2 2 3.11929 2 4.5V6.40073C2.31003 6.22174 2.6488 6.10013 3 6.04077V6H3.41549C3.44363 5.99921 3.4718 5.99881 3.5 5.99881C3.5282 5.99881 3.55637 5.99921 3.58451 6H5V6.40073C5.04564 6.42708 5.09065 6.45468 5.13499 6.4835C5.48036 6.70799 5.77425 7.00017 6 7.3405V6L10 6V10L6.32801 10C6.19652 10.3714 5.99252 10.715 5.726 11.01C5.81842 11.0184 5.90988 11.0319 6 11.0503V11L10 11V13H7.94954C7.98289 13.1634 8.00002 13.3309 8 13.5C8 13.667 7.9872 13.8342 7.96132 14H11.5C12.8807 14 14 12.8807 14 11.5V4.5C14 3.11929 12.8807 2 11.5 2H4.5ZM10 5L6 5V3H10V5ZM4.5 3H5V5H3V4.5C3 3.67157 3.67157 3 4.5 3ZM11 6H13V10H11V6ZM11 11H13V11.5C13 12.3284 12.3284 13 11.5 13H11V11ZM13 4.5V5H11V3H11.5C12.3284 3 13 3.67157 13 4.5Z" fill="#202020"/>
<path d="M1.5 9C1.5 9.39556 1.6173 9.78224 1.83706 10.1111C2.05682 10.44 2.36918 10.6964 2.73463 10.8478C3.10009 10.9991 3.50222 11.0387 3.89018 10.9616C4.27814 10.8844 4.63451 10.6939 4.91421 10.4142C5.19392 10.1345 5.3844 9.77814 5.46157 9.39018C5.53874 9.00222 5.49913 8.60009 5.34776 8.23463C5.19638 7.86918 4.94004 7.55682 4.61114 7.33706C4.28224 7.1173 3.89556 7 3.5 7C2.96957 7 2.46086 7.21071 2.08579 7.58579C1.71071 7.96086 1.5 8.46957 1.5 9ZM0 13.5C0 14.745 1 16 3.5 16C6 16 7 14.75 7 13.5C7 13.1022 6.84196 12.7206 6.56066 12.4393C6.27936 12.158 5.89782 12 5.5 12H1.5C1.10218 12 0.720644 12.158 0.43934 12.4393C0.158035 12.7206 0 13.1022 0 13.5Z" fill="#202020"/>
</svg>
