<svg width="16" height="16" viewBox="0 0 16 16" fill="none" xmlns="http://www.w3.org/2000/svg">
<g clip-path="url(#clip0_7205_107488)">
<path d="M13.5 15H7.62843C7.79748 14.6821 7.90759 14.3441 7.96132 14H13.5C14.327 14 15 13.327 15 12.5V6.5C15 6.224 15.224 6 15.5 6C15.776 6 16 6.224 16 6.5V12.5C16 13.879 14.879 15 13.5 15Z" fill="#202020"/>
<path d="M10 9C10 9.55228 9.55228 10 9 10C8.44772 10 8 9.55228 8 9C8 8.44771 8.44772 8 9 8C9.55228 8 10 8.44771 10 9Z" fill="#202020"/>
<path d="M12 12C12 12.5523 11.5523 13 11 13C10.4477 13 10 12.5523 10 12C10 11.4477 10.4477 11 11 11C11.5523 11 12 11.4477 12 12Z" fill="#202020"/>
<path d="M14 9C14 9.55228 13.5523 10 13 10C12.4477 10 12 9.55228 12 9C12 8.44771 12.4477 8 13 8C13.5523 8 14 8.44771 14 9Z" fill="#202020"/>
<path d="M11.854 3.854L9.854 5.854C9.659 6.049 9.342 6.049 9.147 5.854L7.147 3.854C6.952 3.659 6.952 3.342 7.147 3.147C7.342 2.952 7.659 2.952 7.854 3.147L9 4.293V0.5C9 0.224 9.224 0 9.5 0C9.776 0 10 0.224 10 0.5V4.293L11.146 3.147C11.244 3.049 11.372 3.001 11.5 3.001C11.628 3.001 11.756 3.05 11.854 3.147C12.049 3.342 12.049 3.659 11.854 3.854Z" fill="#006CBF"/>
<path d="M1.5 9C1.5 9.39556 1.6173 9.78224 1.83706 10.1111C2.05682 10.44 2.36918 10.6964 2.73463 10.8478C3.10009 10.9991 3.50222 11.0387 3.89018 10.9616C4.27814 10.8844 4.63451 10.6939 4.91421 10.4142C5.19392 10.1345 5.3844 9.77814 5.46157 9.39018C5.53874 9.00222 5.49913 8.60009 5.34776 8.23463C5.19638 7.86918 4.94004 7.55682 4.61114 7.33706C4.28224 7.1173 3.89556 7 3.5 7C2.96957 7 2.46086 7.21071 2.08579 7.58579C1.71071 7.96086 1.5 8.46957 1.5 9ZM0 13.5C0 14.745 1 16 3.5 16C6 16 7 14.75 7 13.5C7 13.1022 6.84196 12.7206 6.56066 12.4393C6.27936 12.158 5.89782 12 5.5 12H1.5C1.10218 12 0.720644 12.158 0.43934 12.4393C0.158035 12.7206 0 13.1022 0 13.5Z" fill="#202020"/>
</g>
<defs>
<clipPath id="clip0_7205_107488">
<rect width="16" height="16" fill="white"/>
</clipPath>
</defs>
</svg>
