<svg width="16" height="16" viewBox="0 0 16 16" fill="none" xmlns="http://www.w3.org/2000/svg">
<path fill-rule="evenodd" clip-rule="evenodd" d="M6.5 1C5.84689 1 5.29127 1.4174 5.08535 2H4.5C3.67157 2 3 2.67157 3 3.5V6.04077C3.1645 6.01296 3.33173 5.99881 3.5 5.99881C3.66827 5.99881 3.8355 6.01296 4 6.04077V3.5C4 3.22386 4.22386 3 4.5 3H5.08535C5.29127 3.5826 5.84689 4 6.5 4H9.5C10.1531 4 10.7087 3.5826 10.9146 3H11.5C11.7761 3 12 3.22386 12 3.5V13.5C12 13.7761 11.7761 14 11.5 14H7.96132C7.90759 14.3441 7.79748 14.6821 7.62843 15H11.5C12.3284 15 13 14.3284 13 13.5V3.5C13 2.67157 12.3284 2 11.5 2H10.9146C10.7087 1.4174 10.1531 1 9.5 1H6.5ZM6 2.5C6 2.22386 6.22386 2 6.5 2H9.5C9.77614 2 10 2.22386 10 2.5C10 2.77614 9.77614 3 9.5 3H6.5C6.22386 3 6 2.77614 6 2.5Z" fill="#202020"/>
<path d="M1.5 9C1.5 9.39556 1.6173 9.78224 1.83706 10.1111C2.05682 10.44 2.36918 10.6964 2.73463 10.8478C3.10009 10.9991 3.50222 11.0387 3.89018 10.9616C4.27814 10.8844 4.63451 10.6939 4.91421 10.4142C5.19392 10.1345 5.3844 9.77814 5.46157 9.39018C5.53874 9.00222 5.49913 8.60009 5.34776 8.23463C5.19638 7.86918 4.94004 7.55682 4.61114 7.33706C4.28224 7.1173 3.89556 7 3.5 7C2.96957 7 2.46086 7.21071 2.08579 7.58579C1.71071 7.96086 1.5 8.46957 1.5 9ZM0 13.5C0 14.745 1 16 3.5 16C6 16 7 14.75 7 13.5C7 13.1022 6.84196 12.7206 6.56066 12.4393C6.27936 12.158 5.89782 12 5.5 12H1.5C1.10218 12 0.720644 12.158 0.43934 12.4393C0.158035 12.7206 0 13.1022 0 13.5Z" fill="#202020"/>
</svg>
