<svg width="16" height="16" viewBox="0 0 16 16" fill="none" xmlns="http://www.w3.org/2000/svg">
<path d="M2.146 5.14601C2.24 5.05301 2.367 5.00001 2.5 5.00001C2.633 5.00001 2.76 5.05201 2.854 5.14601C2.947 5.24001 3 5.36701 3 5.50001V7.50001C3 7.63301 2.948 7.76101 2.854 7.85401C2.76 7.94701 2.633 8.00001 2.5 8.00001C2.367 8.00001 2.239 7.94801 2.146 7.85401C2.053 7.76001 2 7.63301 2 7.50001V5.50001C2 5.36701 2.052 5.24001 2.146 5.14601Z" fill="#202020"/>
<path fill-rule="evenodd" clip-rule="evenodd" d="M10.647 1.44001L13.561 4.35401C13.842 4.63601 14 5.01701 14 5.41501V6.59971C13.6832 6.43777 13.3486 6.30564 13 6.20703V6.00001H11.509C11.506 6 11.503 6 11.5 6C11.497 6 11.494 6 11.491 6.00001H10.5C9.672 6.00001 9 5.32801 9 4.50001V2.00001H6C5.448 2.00001 5 2.44801 5 3.00001H7C7.265 3.00001 7.52 3.10501 7.707 3.29301C7.895 3.48001 8 3.73501 8 4.00001V7.25716C7.62057 7.57052 7.28389 7.93379 7 8.33692V4.50101C7 4.38301 6.958 4.26801 6.881 4.17701C6.804 4.08601 6.697 4.02601 6.58 4.00701C6.463 3.98801 6.343 4.01101 6.241 4.07301C6.139 4.13401 6.062 4.23001 6.025 4.34301C5.964 4.49801 5.873 4.63901 5.755 4.75701C5.638 4.87501 5.497 4.96701 5.342 5.02701C5.277 5.04601 5.217 5.07701 5.165 5.12001C5.113 5.16301 5.07 5.21501 5.039 5.27501C5.008 5.33501 4.989 5.40001 4.984 5.46701C4.979 5.53401 4.987 5.60101 5.008 5.66501C5.03 5.72901 5.064 5.78801 5.108 5.83801C5.152 5.88801 5.206 5.92901 5.267 5.95801C5.328 5.98701 5.394 6.00301 5.461 6.00601C5.528 6.00801 5.595 5.99801 5.658 5.97401C5.777 5.93501 5.891 5.88401 6 5.82301V8.50001C6 8.63301 6.052 8.76101 6.146 8.85401C6.24 8.94701 6.367 9.00001 6.5 9.00001C6.53567 9.00001 6.57099 8.99627 6.60536 8.98898C6.44084 9.30903 6.30678 9.64732 6.20703 10H5V13C5 13.552 5.448 14 6 14H6.59971C6.78281 14.3582 7.00402 14.6936 7.25799 15.001H6C4.895 15.001 4 14.106 4 13.001V10.001H1C0.735 10.001 0.481 9.89601 0.293 9.70801C0.105 9.52101 0 9.26601 0 9.00101V4.00101C0 3.73601 0.105 3.48201 0.293 3.29401C0.48 3.10601 0.735 3.00101 1 3.00101H4C4 1.89601 4.895 1.00101 6 1.00101H9.586C9.984 1.00101 10.366 1.15901 10.647 1.44001ZM3.561 8.56101C3.842 8.27901 4 7.89801 4 7.50001V5.50001C4 5.10201 3.843 4.72001 3.561 4.43901C3.279 4.15801 2.898 4.00001 2.5 4.00001C2.102 4.00001 1.72 4.15701 1.439 4.43901C1.158 4.72101 1 5.10201 1 5.50001V7.50001C1 7.89801 1.158 8.28001 1.439 8.56101C1.721 8.84201 2.102 9.00001 2.5 9.00001C2.898 9.00001 3.28 8.84201 3.561 8.56101ZM12.793 5.00001L10 2.20701V4.50001C10 4.77601 10.224 5.00001 10.5 5.00001H12.793Z" fill="#202020"/>
<path fill-rule="evenodd" clip-rule="evenodd" d="M11.5 16C13.9853 16 16 13.9853 16 11.5C16 9.01472 13.9853 7 11.5 7C9.01472 7 7 9.01472 7 11.5C7 13.9853 9.01472 16 11.5 16ZM13.3536 10.3536C13.5488 10.1583 13.5488 9.84171 13.3536 9.64645C13.1583 9.45118 12.8417 9.45118 12.6464 9.64645L11.5 10.7929L10.3536 9.64645C10.1583 9.45118 9.84171 9.45118 9.64645 9.64645C9.45118 9.84171 9.45118 10.1583 9.64645 10.3536L10.7929 11.5L9.64645 12.6464C9.45118 12.8417 9.45118 13.1583 9.64645 13.3536C9.84171 13.5488 10.1583 13.5488 10.3536 13.3536L11.5 12.2071L12.6464 13.3536C12.8417 13.5488 13.1583 13.5488 13.3536 13.3536C13.5488 13.1583 13.5488 12.8417 13.3536 12.6464L12.2071 11.5L13.3536 10.3536Z" fill="#C50F1F"/>
</svg>
