<svg width="16" height="16" viewBox="0 0 16 16" fill="none" xmlns="http://www.w3.org/2000/svg">
<path fill-rule="evenodd" clip-rule="evenodd" d="M6.5 1H14C15.103 1 16 1.897 16 3V4C16 4.551 15.552 5 15 5H13V13C13 14.103 12.103 15 11 15H6.92998C6.97607 14.8397 7 14.6727 7 14.5V14H9.269C9.098 13.706 9 13.364 9 13V12H7V11H9C9.552 11 10 11.449 10 12V13C10 13.551 10.448 14 11 14C11.552 14 12 13.551 12 13V3C12 2.636 12.098 2.294 12.269 2H6.5C5.673 2 5 2.673 5 3.5V6.30804C4.69343 6.20404 4.35845 6.12416 4 6.07183V3.5C4 2.122 5.121 1 6.5 1ZM14 2C13.448 2 13 2.449 13 3V4H15V3C15 2.449 14.552 2 14 2Z" fill="#202020"/>
<path d="M6 8.5C6 7.728 4.833 7.092 3.333 7.009C3.22367 7.003 3.11267 7 3 7C2.88733 7 2.77633 7.003 2.667 7.009C2.4707 7.01979 2.2751 7.04082 2.081 7.072C1.82712 7.1117 1.57694 7.17223 1.333 7.253C0.529 7.522 0 7.98 0 8.5C0 9.328 1.343 10 3 10C4.657 10 6 9.328 6 8.5ZM6 10.2V14.5C6 15.328 4.657 16 3 16C1.343 16 0 15.328 0 14.5V10.2C0.896699 10.7625 1.94228 11.0413 3 11C4.05772 11.0413 5.1033 10.7625 6 10.2Z" fill="#3487C7"/>
</svg>
