<svg width="16" height="16" viewBox="0 0 16 16" fill="none" xmlns="http://www.w3.org/2000/svg">
<g clip-path="url(#clip0_7205_108249)">
<path fill-rule="evenodd" clip-rule="evenodd" d="M6.29289 9H4.5C3.80777 9 3.13108 8.79473 2.55551 8.41014C1.97993 8.02556 1.53133 7.47893 1.26642 6.83939C1.00152 6.19985 0.932205 5.49612 1.06725 4.81719C1.2023 4.13825 1.53564 3.51461 2.02513 3.02513C2.51461 2.53564 3.13825 2.2023 3.81719 2.06725C4.49612 1.9322 5.19985 2.00152 5.83939 2.26642C6.47893 2.53133 7.02556 2.97993 7.41014 3.55551C7.44127 3.60209 7.47123 3.64934 7.49999 3.69721C7.64578 3.4546 7.82163 3.22862 8.02513 3.02513C8.6815 2.36875 9.57174 2 10.5 2C11.4283 2 12.3185 2.36875 12.9749 3.02513C13.6313 3.6815 14 4.57174 14 5.5C14 6.42826 13.6313 7.3185 12.9749 7.97487C12.3185 8.63125 11.4283 9 10.5 9H8.70711L11.6162 11.9091L10.909 12.6161L7.5 9.20711L2.85355 13.8536C2.65829 14.0488 2.34171 14.0488 2.14645 13.8536C1.95118 13.6583 1.95118 13.3417 2.14645 13.1464L6.29289 9ZM5.45671 3.1903C4.9999 3.00108 4.49723 2.95158 4.01228 3.04804C3.52732 3.1445 3.08187 3.3826 2.73223 3.73223C2.3826 4.08187 2.1445 4.52732 2.04804 5.01228C1.95158 5.49723 2.00108 5.9999 2.1903 6.45671C2.37952 6.91353 2.69995 7.30397 3.11108 7.57868C3.5222 7.85338 4.00555 8 4.5 8H7V5.5C7 5.00555 6.85338 4.5222 6.57868 4.11108C6.30397 3.69995 5.91353 3.37952 5.45671 3.1903ZM10.5 8H8L8 5.5C8 4.83696 8.26339 4.20107 8.73223 3.73223C9.20107 3.26339 9.83696 3 10.5 3C11.163 3 11.7989 3.26339 12.2678 3.73223C12.7366 4.20107 13 4.83696 13 5.5C13 6.16304 12.7366 6.79893 12.2678 7.26777C11.7989 7.73661 11.163 8 10.5 8Z" fill="#202020"/>
<path d="M10.5 16C10.4343 16.0001 10.3692 15.9873 10.3085 15.9623C10.2477 15.9372 10.1925 15.9004 10.146 15.854L7.64602 13.354C7.55213 13.2601 7.49939 13.1328 7.49939 13C7.49939 12.8672 7.55213 12.7399 7.64602 12.646C7.73991 12.5521 7.86725 12.4994 8.00002 12.4994C8.1328 12.4994 8.26013 12.5521 8.35402 12.646L10.5 14.793L15.146 10.146C15.2399 10.0521 15.3672 9.99939 15.5 9.99939C15.6328 9.99939 15.7601 10.0521 15.854 10.146C15.9479 10.2399 16.0007 10.3672 16.0007 10.5C16.0007 10.6328 15.9479 10.7601 15.854 10.854L10.854 15.854C10.8075 15.9004 10.7523 15.9372 10.6916 15.9623C10.6308 15.9873 10.5657 16.0001 10.5 16Z" fill="#11910D"/>
</g>
<defs>
<clipPath id="clip0_7205_108249">
<rect width="16" height="16" fill="white"/>
</clipPath>
</defs>
</svg>
