<svg width="16" height="16" viewBox="0 0 16 16" fill="none" xmlns="http://www.w3.org/2000/svg">
<g clip-path="url(#clip0_7205_108229)">
<path fill-rule="evenodd" clip-rule="evenodd" d="M3 3C3 1.89543 3.89543 1 5 1H8.58579C8.98361 1 9.36514 1.15804 9.64645 1.43934L12.5607 4.35355C12.842 4.63486 13 5.01639 13 5.41421V10.5257L12 11.5254V6H9.5C8.67157 6 8 5.32843 8 4.5V2H5C4.44772 2 4 2.44772 4 3V13C4 13.5523 4.44772 14 5 14H6.56459C6.62346 14.0845 6.68982 14.1639 6.76299 14.237L7.52597 15H5C3.89543 15 3 14.1046 3 13V3ZM9.5 5H11.7929L9 2.20711V4.5C9 4.77614 9.22386 5 9.5 5Z" fill="#202020"/>
<path d="M10.5 16C10.4343 16.0001 10.3692 15.9873 10.3085 15.9623C10.2477 15.9372 10.1925 15.9004 10.146 15.854L7.64602 13.354C7.55213 13.2601 7.49939 13.1328 7.49939 13C7.49939 12.8672 7.55213 12.7399 7.64602 12.646C7.73991 12.5521 7.86725 12.4994 8.00002 12.4994C8.1328 12.4994 8.26013 12.5521 8.35402 12.646L10.5 14.793L15.146 10.146C15.2399 10.0521 15.3672 9.99939 15.5 9.99939C15.6328 9.99939 15.7601 10.0521 15.854 10.146C15.9479 10.2399 16.0007 10.3672 16.0007 10.5C16.0007 10.6328 15.9479 10.7601 15.854 10.854L10.854 15.854C10.8075 15.9004 10.7523 15.9372 10.6916 15.9623C10.6308 15.9873 10.5657 16.0001 10.5 16Z" fill="#11910D"/>
</g>
<defs>
<clipPath id="clip0_7205_108229">
<rect width="16" height="16" fill="white"/>
</clipPath>
</defs>
</svg>
