<svg width="16" height="16" viewBox="0 0 16 16" fill="none" xmlns="http://www.w3.org/2000/svg">
<g clip-path="url(#clip0_7205_108259)">
<path d="M10 2C9.44786 2 9 2.44786 9 3V6H6C5.44786 6 5 6.44786 5 7V9H2C1.44786 9 1 9.44786 1 10V13C1 13.5521 1.44786 14 2 14H6.56459C6.49276 13.8969 6.43209 13.7861 6.38377 13.6695C6.29586 13.4572 6.25061 13.2298 6.25061 13C6.25061 13 6.25061 13 6.25061 13L2 13V10H5C5.55214 10 6 9.55214 6 9V7H9C9.55214 7 10 6.55214 10 6V3H13V10.5257L14 9.52595V3C14 2.44786 13.5521 2 13 2H10Z" fill="#202020"/>
<path d="M10.525 13H10.4749L10.5 13.025L10.525 13Z" fill="#202020"/>
<path d="M10.5 16C10.4343 16.0001 10.3692 15.9873 10.3085 15.9623C10.2477 15.9372 10.1925 15.9004 10.146 15.854L7.64602 13.354C7.55213 13.2601 7.49939 13.1328 7.49939 13C7.49939 12.8672 7.55213 12.7399 7.64602 12.646C7.73991 12.5521 7.86725 12.4994 8.00002 12.4994C8.1328 12.4994 8.26013 12.5521 8.35402 12.646L10.5 14.793L15.146 10.146C15.2399 10.0521 15.3672 9.99939 15.5 9.99939C15.6328 9.99939 15.7601 10.0521 15.854 10.146C15.9479 10.2399 16.0007 10.3672 16.0007 10.5C16.0007 10.6328 15.9479 10.7601 15.854 10.854L10.854 15.854C10.8075 15.9004 10.7523 15.9372 10.6916 15.9623C10.6308 15.9873 10.5657 16.0001 10.5 16Z" fill="#11910D"/>
</g>
<defs>
<clipPath id="clip0_7205_108259">
<rect width="16" height="16" fill="white"/>
</clipPath>
</defs>
</svg>
