<svg width="16" height="16" viewBox="0 0 16 16" fill="none" xmlns="http://www.w3.org/2000/svg">
<g clip-path="url(#clip0_7205_108239)">
<path fill-rule="evenodd" clip-rule="evenodd" d="M12 8.5V10.092C12.3317 10.2102 12.6105 10.4401 12.7888 10.7368L11.9993 11.5261C11.9998 11.5174 12 11.5088 12 11.5C12 11.224 11.775 11 11.5 11C11.225 11 11 11.224 11 11.5C11 11.776 11.225 12 11.5 12C11.5087 12 11.5174 11.9998 11.526 11.9993L10.7352 12.7899C10.2953 12.5281 10 12.0479 10 11.5C10 10.849 10.419 10.299 11 10.092V8.5C11 8.224 10.775 8 10.5 8H7.5V10.092C8.02674 10.2797 8.42033 10.7493 8.48925 11.3205C8.3306 11.2742 8.16588 11.2506 7.99999 11.2506C7.82025 11.2506 7.64188 11.2783 7.47111 11.3325C7.40196 11.1388 7.21647 11 7 11C6.725 11 6.5 11.224 6.5 11.5C6.5 11.6467 6.56356 11.7787 6.6644 11.8702C6.54782 12.008 6.45308 12.1633 6.38377 12.3306C6.32081 12.4826 6.27974 12.6424 6.26149 12.8052C5.80718 12.5471 5.5 12.0587 5.5 11.5C5.5 10.849 5.919 10.299 6.5 10.092V8H3.5C3.225 8 3 8.224 3 8.5V10.092C3.581 10.299 4 10.849 4 11.5C4 12.327 3.327 13 2.5 13C1.673 13 1 12.327 1 11.5C1 10.849 1.419 10.299 2 10.092V8.5C2 7.673 2.673 7 3.5 7H6.5V4.929C5.64 4.705 5 3.929 5 3C5 1.897 5.897 1 7 1C8.103 1 9 1.897 9 3C9 3.929 8.36 4.705 7.5 4.929V7H10.5C11.327 7 12 7.673 12 8.5ZM7 2C6.448 2 6 2.449 6 3C6 3.551 6.448 4 7 4C7.552 4 8 3.551 8 3C8 2.449 7.552 2 7 2ZM2 11.5C2 11.776 2.225 12 2.5 12C2.775 12 3 11.776 3 11.5C3 11.224 2.775 11 2.5 11C2.225 11 2 11.224 2 11.5Z" fill="#202020"/>
<path d="M10.5 16C10.4343 16.0001 10.3692 15.9873 10.3085 15.9623C10.2477 15.9372 10.1925 15.9004 10.146 15.854L7.64602 13.354C7.55213 13.2601 7.49939 13.1328 7.49939 13C7.49939 12.8672 7.55213 12.7399 7.64602 12.646C7.73991 12.5521 7.86725 12.4994 8.00002 12.4994C8.1328 12.4994 8.26013 12.5521 8.35402 12.646L10.5 14.793L15.146 10.146C15.2399 10.0521 15.3672 9.99939 15.5 9.99939C15.6328 9.99939 15.7601 10.0521 15.854 10.146C15.9479 10.2399 16.0007 10.3672 16.0007 10.5C16.0007 10.6328 15.9479 10.7601 15.854 10.854L10.854 15.854C10.8075 15.9004 10.7523 15.9372 10.6916 15.9623C10.6308 15.9873 10.5657 16.0001 10.5 16Z" fill="#11910D"/>
</g>
<defs>
<clipPath id="clip0_7205_108239">
<rect width="16" height="16" fill="white"/>
</clipPath>
</defs>
</svg>
