<svg width="16" height="16" viewBox="0 0 16 16" fill="none" xmlns="http://www.w3.org/2000/svg">
<path d="M6.5 2C6.10218 2 5.72064 2.15804 5.43934 2.43934C5.15804 2.72064 5 3.10217 5 3.5V5H9.5C10.7095 5 11.7184 5.85888 11.95 7H14V3.5C14 3.10217 13.842 2.72064 13.5607 2.43934C13.2794 2.15804 12.8978 2 12.5 2H6.5Z" fill="#006CBF"/>
<path d="M10.9146 7H10C8.34315 7 7 8.34315 7 10V14H3.5C2.67157 14 2 13.3284 2 12.5V7.5C2 6.67157 2.67157 6 3.5 6H9.5C10.1531 6 10.7087 6.4174 10.9146 7Z" fill="#006CBF"/>
<path fill-rule="evenodd" clip-rule="evenodd" d="M10 8C8.89543 8 8 8.89543 8 10V14C8 15.1046 8.89543 16 10 16H14C15.1046 16 16 15.1046 16 14V10C16 8.89543 15.1046 8 14 8H10ZM10 10.5C10 10.2239 10.2239 10 10.5 10H13.5C13.7761 10 14 10.2239 14 10.5V13.5C14 13.7761 13.7761 14 13.5 14C13.2239 14 13 13.7761 13 13.5V11.7071L10.8536 13.8536C10.6583 14.0488 10.3417 14.0488 10.1464 13.8536C9.95118 13.6583 9.95118 13.3417 10.1464 13.1465L12.2929 11H10.5C10.2239 11 10 10.7761 10 10.5Z" fill="#202020"/>
</svg>
