<svg width="16" height="16" viewBox="0 0 16 16" fill="none" xmlns="http://www.w3.org/2000/svg">
<g clip-path="url(#clip0_7205_108389)">
<path d="M6.80948 2.33868C6.92544 0.599681 8.7405 -0.489994 10.3299 0.225214L10.7051 0.394059C10.9569 0.507378 11.0692 0.803382 10.9558 1.0552C10.8425 1.30702 10.5465 1.4193 10.2947 1.30598L9.91949 1.13714C8.96587 0.70801 7.87684 1.36182 7.80726 2.40522L7.70092 4H9.5C9.77614 4 10 4.22386 10 4.5C10 4.77614 9.77614 5 9.5 5H7.63423L7.47776 7.34653C7.35409 7.12075 7.21101 6.90528 7.04986 6.703C6.8988 6.51331 6.73271 6.33646 6.55372 6.17406L6.63201 5H5.5C5.22386 5 5 4.77614 5 4.5C5 4.22386 5.22386 4 5.5 4H6.6987L6.80948 2.33868Z" fill="#202020"/>
<path d="M4.30834 13.9667C4.3511 13.9735 4.39384 13.9791 4.43653 13.9837L4.40186 13.949C4.37074 13.9552 4.33957 13.9611 4.30834 13.9667Z" fill="#202020"/>
<path d="M10.126 12.5812L12.3907 10.3165L13.5787 12.3955C13.9876 13.1111 14.9651 13.242 15.5479 12.6592L15.8536 12.3536C16.0488 12.1583 16.0488 11.8417 15.8536 11.6465C15.6583 11.4512 15.3417 11.4512 15.1464 11.6465L14.8408 11.9521C14.7242 12.0687 14.5287 12.0425 14.4469 11.8994L13.1236 9.58356L15.8536 6.85355C16.0489 6.65829 16.0489 6.34171 15.8536 6.14645C15.6584 5.95118 15.3418 5.95118 15.1465 6.14645L12.6094 8.68361L11.4213 6.6045C11.0124 5.88888 10.0349 5.75798 9.45211 6.34079L9.14645 6.64646C8.95118 6.84172 8.95118 7.1583 9.14645 7.35356C9.34171 7.54883 9.65829 7.54883 9.85355 7.35356L10.1592 7.0479C10.2758 6.93134 10.4713 6.95752 10.5531 7.10064L11.8764 9.41654L9.41891 11.8741L10.126 12.5812Z" fill="#202020"/>
<path d="M2.75809 6.33498C2.76709 6.26598 2.79409 6.20098 2.83709 6.14598C2.88009 6.09098 2.93609 6.04898 3.00009 6.02398C3.03509 6.00998 3.07109 6.00198 3.10809 5.99798C3.70209 5.92798 4.30509 6.01198 4.85809 6.23998C5.41109 6.46798 5.89709 6.83298 6.27009 7.30098C6.64309 7.76898 6.89009 8.32398 6.98809 8.91498C7.08609 9.50598 7.03309 10.111 6.83209 10.674L9.55809 13.4C9.70409 13.539 9.82009 13.705 9.90009 13.89C9.98009 14.074 10.0231 14.273 10.0251 14.474C10.0271 14.675 9.99009 14.875 9.91409 15.061C9.83809 15.247 9.72609 15.417 9.58409 15.559C9.44209 15.701 9.27309 15.814 9.08609 15.889C8.90009 15.965 8.70009 16.003 8.49909 16C8.29809 15.998 8.09909 15.955 7.91509 15.875C7.73109 15.795 7.56409 15.678 7.42509 15.533L4.69909 12.807C4.13509 13.008 3.53009 13.062 2.94009 12.963C2.35009 12.865 1.79409 12.617 1.32609 12.245C0.858086 11.872 0.493086 11.386 0.265086 10.833C0.037086 10.28 -0.045914 9.67798 0.023086 9.08298C0.035086 9.00198 0.070086 8.92698 0.124086 8.86598C0.178086 8.80498 0.248086 8.76098 0.326086 8.73798C0.404086 8.71598 0.487086 8.71698 0.565086 8.74098C0.643086 8.76498 0.712086 8.81098 0.765086 8.87298L1.74009 9.84798C2.02509 10.119 2.40509 10.269 2.79809 10.264C3.19209 10.259 3.56809 10.101 3.84609 9.82198C4.12409 9.54398 4.28309 9.16798 4.28809 8.77398C4.29309 8.37998 4.14409 8.00098 3.87209 7.71598L2.89709 6.74098C2.82509 6.66998 2.77709 6.57998 2.75909 6.48098C2.75109 6.43298 2.75009 6.38398 2.75709 6.33598L2.75809 6.33498Z" fill="#202020"/>
</g>
<defs>
<clipPath id="clip0_7205_108389">
<rect width="16" height="16" fill="white"/>
</clipPath>
</defs>
</svg>
