<svg width="16" height="16" viewBox="0 0 16 16" fill="none" xmlns="http://www.w3.org/2000/svg">
<path fill-rule="evenodd" clip-rule="evenodd" d="M3 3C3 1.89543 3.89543 1 5 1H8.58579C8.98361 1 9.36514 1.15804 9.64645 1.43934L12.5607 4.35355C12.842 4.63486 13 5.01639 13 5.41421V13C13 13.9752 12.302 14.7874 11.3783 14.9643L10.4141 14H11C11.5523 14 12 13.5523 12 13V6H9.5C8.67157 6 8 5.32843 8 4.5V2H5C4.44772 2 4 2.44772 4 3V7.58594L3 6.58594V3ZM9.5 5H11.7929L9 2.20711V4.5C9 4.77614 9.22386 5 9.5 5Z" fill="#202020"/>
<path d="M3 12.6639V13C3 14.1046 3.89543 15 5 15H5.33606L3 12.6639Z" fill="#202020"/>
<path d="M3 8L10 15H7.164C6.89881 14.9999 6.64449 14.8945 6.457 14.707L3.293 11.543C3.10545 11.3555 3.00006 11.1012 3 10.836V8Z" fill="#202020"/>
</svg>
