<svg width="16" height="16" viewBox="0 0 16 16" fill="none" xmlns="http://www.w3.org/2000/svg">
<path d="M4 2.75C4 1.7835 4.7835 1 5.75 1H10.25C11.2165 1 12 1.7835 12 2.75V13.25C12 13.6286 11.8798 13.9791 11.6755 14.2654L10.9443 13.5342C10.9802 13.4466 11 13.3506 11 13.25V2.75C11 2.33579 10.6642 2 10.25 2H5.75C5.33579 2 5 2.33579 5 2.75V7.58997L4 6.58997V2.75Z" fill="#202020"/>
<path d="M6.33204 15L4 12.668V13.25C4 14.2165 4.7835 15 5.75 15H6.33204Z" fill="#202020"/>
<path d="M4 8.00403L11 15.004H8.164C7.89881 15.004 7.64449 14.8986 7.457 14.711L4.293 11.547C4.10545 11.3595 4.00006 11.1052 4 10.84V8.00403Z" fill="#202020"/>
</svg>
