<svg width="16" height="16" viewBox="0 0 16 16" fill="none" xmlns="http://www.w3.org/2000/svg">
<path d="M11.8107 2.44865C11.2249 1.86286 10.2751 1.86286 9.68934 2.44865L7.96209 4.1759C7.81395 3.50326 7.21434 2.99999 6.49719 2.99999H3.49719C2.66877 2.99999 1.99719 3.67156 1.99719 4.49999V12.498C1.99719 13.0083 2.252 13.4591 2.64133 13.7301C2.88458 13.9002 3.18064 14 3.5 14H11.5C12.3284 14 13 13.3284 13 12.5V9.49999C13 8.80096 12.5218 8.21362 11.8748 8.04718L13.5813 6.34063C14.1671 5.75484 14.1671 4.8051 13.5813 4.21931L11.8107 2.44865ZM9.57803 7.99999H7.99719V6.41915L9.57803 7.99999ZM10.3964 3.15575C10.5917 2.96049 10.9083 2.96049 11.1036 3.15575L12.8742 4.92642C13.0695 5.12168 13.0695 5.43826 12.8742 5.63352L11.1036 7.40419C10.9083 7.59945 10.5917 7.59945 10.3964 7.40419L8.62578 5.63352C8.43052 5.43826 8.43052 5.12168 8.62578 4.92642L10.3964 3.15575ZM6.99719 4.49999V7.99999L2.99719 7.99999V4.49999C2.99719 4.22384 3.22105 3.99999 3.49719 3.99999H6.49719C6.77333 3.99999 6.99719 4.22384 6.99719 4.49999ZM3 12.5L3 8.99999H6.99719V12.998H3.49719C3.39102 12.998 3.29257 12.9649 3.21161 12.9085C3.08358 12.8179 3 12.6687 3 12.5ZM7.99719 8.99999H11.5C11.7761 8.99999 12 9.22385 12 9.49999V12.5C12 12.7761 11.7761 13 11.5 13H7.99719V8.99999Z" fill="#006CBF"/>
</svg>
