<svg width="16" height="16" viewBox="0 0 16 16" fill="none" xmlns="http://www.w3.org/2000/svg">
<path d="M3.24895 2C2.55917 2 2 2.55938 2 3.24941V5.44188C2.31584 5.29466 2.65045 5.18118 2.99916 5.10609V3.24941C2.99916 3.11141 3.11099 2.99953 3.24895 2.99953H3.74852C3.88648 2.99953 3.99831 3.11141 3.99831 3.24941V5L3.99998 5C4.34202 5 4.67574 5.03635 4.99747 5.10538V3.24941C4.99747 2.55938 4.4383 2 3.74852 2H3.24895Z" fill="#202020"/>
<path d="M7.1236 13.9885C7.16374 13.9924 7.20442 13.9944 7.24557 13.9944H7.74515C8.43492 13.9944 8.9941 13.435 8.9941 12.745V3.24941C8.9941 2.55938 8.43492 2 7.74515 2H7.24557C6.5558 2 5.99663 2.55938 5.99663 3.24941V5.44035C6.35625 5.60764 6.6916 5.81866 6.99578 6.06653V3.24941C6.99578 3.11141 7.10762 2.99953 7.24557 2.99953H7.74515C7.88311 2.99953 7.99494 3.11141 7.99494 3.24941V7.18296C8.47258 7.92367 8.74998 8.80507 8.74998 9.75C8.74998 10.667 8.48302 11.5511 7.99494 12.3068V12.745C7.99494 12.883 7.88311 12.9948 7.74515 12.9948H7.45502C7.40848 13.0441 7.36079 13.0925 7.31198 13.14L7.1236 13.9885Z" fill="#202020"/>
<path fill-rule="evenodd" clip-rule="evenodd" d="M11.4011 4.06385C12.0311 3.84331 12.7231 4.15733 12.9723 4.77682L15.9093 12.0802C16.1752 12.7412 15.8355 13.4904 15.1632 13.7258L14.581 13.9296C13.9509 14.1502 13.2589 13.8361 13.0098 13.2166L10.0727 5.91326C9.80684 5.25222 10.1466 4.50297 10.8189 4.26764L11.4011 4.06385ZM12.0453 5.14988C11.9955 5.02598 11.8571 4.96318 11.7311 5.00729L11.1489 5.21108C11.0144 5.25815 10.9465 5.40799 10.9996 5.5402L13.9367 12.8436C13.9865 12.9675 14.1249 13.0303 14.251 12.9862L14.8332 12.7823C14.9676 12.7353 15.0356 12.5854 14.9824 12.4532L12.0453 5.14988Z" fill="#202020"/>
<path d="M2.131 15.021C2.259 15.597 2.761 16 3.352 16H4.649C5.24 16 5.742 15.598 5.87 15.021L6.097 14H1.904L2.131 15.021ZM4 6C1.933 6 0.25 7.682 0.25 9.75C0.25 10.861 0.738 11.895 1.596 12.612L1.682 13H3.5V11.418C2.78 11.201 2.25 10.54 2.25 9.75C2.25 8.785 3.035 8 4 8C4.965 8 5.75 8.785 5.75 9.75C5.75 10.54 5.22 11.202 4.5 11.418V13H6.318L6.404 12.612C7.261 11.894 7.75 10.861 7.75 9.75C7.75 7.682 6.067 6 4 6ZM4.75 9.75C4.75 9.337 4.413 9 4 9C3.587 9 3.25 9.337 3.25 9.75C3.25 10.163 3.587 10.5 4 10.5C4.413 10.5 4.75 10.163 4.75 9.75Z" fill="#006CBF"/>
</svg>
