<svg width="16" height="16" viewBox="0 0 16 16" fill="none" xmlns="http://www.w3.org/2000/svg">
<path fill-rule="evenodd" clip-rule="evenodd" d="M2 4.5C2 3.11929 3.11929 2 4.5 2H11.5C12.8807 2 14 3.11929 14 4.5V11.5C14 12.7095 13.1411 13.7184 12 13.95V12.9146C12.5826 12.7087 13 12.1531 13 11.5V6H3V9H2V4.5ZM3 5H13V4.5C13 3.67157 12.3284 3 11.5 3H4.5C3.67157 3 3 3.67157 3 4.5V5Z" fill="#202020"/>
<path d="M3.76298 12.074C3.61598 11.984 3.43098 11.975 3.27698 12.053L2.27698 12.553C2.10798 12.638 2.00098 12.811 2.00098 13C2.00098 13.189 2.10798 13.362 2.27698 13.447L3.27698 13.947C3.34698 13.982 3.42398 14 3.50098 14C3.59298 14 3.68398 13.975 3.76398 13.926C3.91098 13.834 4.00098 13.673 4.00098 13.5V12.5C4.00098 12.327 3.90998 12.166 3.76298 12.074Z" fill="#006CBF"/>
<path d="M7.72398 12.053L8.72398 12.553H8.72498C8.89398 12.638 9.00098 12.811 9.00098 13C9.00098 13.189 8.89398 13.362 8.72498 13.447L7.72498 13.947C7.65398 13.982 7.57698 14 7.50098 14C7.40898 14 7.31798 13.975 7.23798 13.926C7.09098 13.834 7.00098 13.673 7.00098 13.5V12.5C7.00098 12.327 7.09098 12.166 7.23798 12.074C7.38498 11.985 7.56998 11.976 7.72398 12.053Z" fill="#006CBF"/>
<path fill-rule="evenodd" clip-rule="evenodd" d="M9.75 10H1.25C0.561 10 0 10.561 0 11.25V14.75C0 15.439 0.561 16 1.25 16H9.75C10.439 16 11 15.439 11 14.75V11.25C11 10.561 10.439 10 9.75 10ZM1 14.75V11.25C1 11.112 1.112 11 1.25 11H5V15H1.25C1.112 15 1 14.888 1 14.75ZM10 14.75C10 14.888 9.888 15 9.75 15H6V11H9.75C9.888 11 10 11.112 10 11.25V14.75Z" fill="#006CBF"/>
</svg>
