<svg width="16" height="16" viewBox="0 0 16 16" fill="none" xmlns="http://www.w3.org/2000/svg">
<path d="M2.24895 2C1.55917 2 1 2.55938 1 3.24941V7.01373C1.08208 7.00466 1.1655 7 1.25 7H1.99916V3.24941C1.99916 3.11141 2.11099 2.99953 2.24895 2.99953H2.74852C2.88648 2.99953 2.99831 3.11141 2.99831 3.24941V7H3.99747V3.24941C3.99747 2.55938 3.4383 2 2.74852 2H2.24895Z" fill="#202020"/>
<path d="M7.9941 7.37495V3.24941C7.9941 2.55938 7.43492 2 6.74515 2H6.24557C5.5558 2 4.99663 2.55938 4.99663 3.24941V7H5.99578V3.24941C5.99578 3.11141 6.10762 2.99953 6.24557 2.99953H6.74515C6.88311 2.99953 6.99494 3.11141 6.99494 3.24941V7.01318C7.36161 7.05288 7.70187 7.18067 7.9941 7.37495Z" fill="#202020"/>
<path fill-rule="evenodd" clip-rule="evenodd" d="M10.4011 4.06385C11.0311 3.84331 11.7231 4.15733 11.9723 4.77682L14.9093 12.0802C15.1752 12.7412 14.8355 13.4904 14.1632 13.7258L13.581 13.9296C12.9509 14.1502 12.2589 13.8361 12.0098 13.2166L9.07268 5.91326C8.80684 5.25222 9.14658 4.50297 9.81888 4.26764L10.4011 4.06385ZM11.0453 5.14988C10.9955 5.02598 10.8571 4.96318 10.7311 5.00729L10.1489 5.21108C10.0144 5.25815 9.94647 5.40799 9.99964 5.5402L12.9367 12.8436C12.9865 12.9675 13.1249 13.0303 13.251 12.9862L13.8332 12.7823C13.9676 12.7353 14.0356 12.5854 13.9824 12.4532L11.0453 5.14988Z" fill="#202020"/>
<path d="M0 14.75C0 15.0815 0.131696 15.3995 0.366117 15.6339C0.600537 15.8683 0.918479 16 1.25 16H6.75C7.08152 16 7.39946 15.8683 7.63388 15.6339C7.8683 15.3995 8 15.0815 8 14.75V11H0V14.75Z" fill="#006CBF"/>
<path d="M6.75 8H1.25C0.918479 8 0.600537 8.1317 0.366117 8.36612C0.131696 8.60054 0 8.91848 0 9.25V10H8V9.25C8 8.91848 7.8683 8.60054 7.63388 8.36612C7.39946 8.1317 7.08152 8 6.75 8Z" fill="#006CBF"/>
</svg>
