<svg width="16" height="16" viewBox="0 0 16 16" fill="none" xmlns="http://www.w3.org/2000/svg">
<path d="M11.335 2.06526L11.4114 2.21783L11.9879 3.75081C12.0332 3.87153 12.1284 3.96679 12.2492 4.01208L13.7292 4.56735C14.3787 4.81102 14.7278 5.50506 14.5547 6.16172L14.513 6.2924L13.8245 7.81523C13.7711 7.93262 13.7711 8.06733 13.8245 8.18472L14.4784 9.62393C14.7654 10.2555 14.5214 10.9931 13.9347 11.335L13.7821 11.4114L12.2492 11.9879C12.1284 12.0332 12.0332 12.1284 11.9879 12.2491L11.4326 13.7292C11.1889 14.3787 10.4949 14.7277 9.83826 14.5547L9.70757 14.513L8.18474 13.8245C8.06735 13.7711 7.93264 13.7711 7.81525 13.8245L6.37604 14.4784C5.74447 14.7654 5.00692 14.5214 4.66497 13.9347L4.58855 13.7821L4.0121 12.2491C3.96681 12.1284 3.87155 12.0332 3.75083 11.9879L2.27076 11.4326C1.62125 11.1889 1.27223 10.4949 1.4453 9.83823L1.48695 9.70755L2.17551 8.18472C2.22885 8.06733 2.22885 7.93262 2.17551 7.81523L1.52158 6.37602C1.23461 5.74445 1.47858 5.0069 2.06528 4.66495L2.21785 4.58853L3.75083 4.01208C3.87155 3.96679 3.96681 3.87153 4.0121 3.75081L4.56737 2.27073C4.81105 1.62123 5.50508 1.27221 6.16174 1.44528L6.29243 1.48692L7.81525 2.17549C7.93264 2.22883 8.06735 2.22883 8.18474 2.17549L9.62395 1.52156C10.2555 1.23459 10.9931 1.47855 11.335 2.06526ZM10.1639 5.70588L6.97824 9.34663L5.81579 8.18418C5.64138 8.00977 5.35861 8.00977 5.1842 8.18418C5.00979 8.35859 5.00979 8.64136 5.1842 8.81577L6.6842 10.3158C6.86688 10.4984 7.16598 10.4885 7.3361 10.2941L10.8361 6.29406C10.9985 6.10844 10.9797 5.82629 10.7941 5.66387C10.6085 5.50145 10.3263 5.52026 10.1639 5.70588Z" fill="#006CBF"/>
</svg>
