<svg width="16" height="16" viewBox="0 0 16 16" fill="none" xmlns="http://www.w3.org/2000/svg">
<path d="M1 5.5C1 4.119 2.119 3 3.5 3H12.5C13.881 3 15 4.119 15 5.5V10.5C15 11.881 13.881 13 12.5 13H3.5C2.119 13 1 11.881 1 10.5V5.5ZM3.5 4C2.672 4 2 4.672 2 5.5V10.5C2 11.328 2.672 12 3.5 12H12.5C13.328 12 14 11.328 14 10.5V5.5C14 4.672 13.328 4 12.5 4H3.5ZM8 10.5C8 10.776 7.776 11 7.5 11C7.224 11 7 10.776 7 10.5C7 10.224 7.224 10 7.5 10C7.776 10 8 10.224 8 10.5ZM11 5C9.897 5 9 5.897 9 7V9C9 10.103 9.897 11 11 11C12.103 11 13 10.103 13 9V7C13 5.897 12.103 5 11 5ZM12 9C12 9.551 11.551 10 11 10C10.449 10 10 9.551 10 9V7C10 6.449 10.449 6 11 6C11.551 6 12 6.449 12 7V9ZM6 10.5V5.5C6 5.281 5.856 5.089 5.647 5.024C5.438 4.962 5.209 5.038 5.085 5.22C5.081 5.226 4.666 5.818 3.878 6.015C3.61 6.082 3.447 6.353 3.514 6.621C3.58 6.889 3.851 7.053 4.12 6.985C4.462 6.9 4.756 6.765 5 6.615V10.5C5 10.776 5.223 11 5.499 11C5.775 11 6 10.776 6 10.5Z" fill="#202020"/>
</svg>
