<svg width="16" height="16" viewBox="0 0 16 16" fill="none" xmlns="http://www.w3.org/2000/svg">
<g clip-path="url(#clip0_7205_108419)">
<path fill-rule="evenodd" clip-rule="evenodd" d="M7.49951 1H14.4995C15.3265 1 15.9995 1.673 15.9995 2.5V7.5C15.9995 8.327 15.3265 9 14.4995 9H12.9995V10H13.4995C13.7755 10 13.9995 10.224 13.9995 10.5C13.9995 10.776 13.7755 11 13.4995 11H9.99951V10.25C9.99951 9.01 8.98951 8 7.74951 8H14.4995C14.7745 8 14.9995 7.775 14.9995 7.5V2.5C14.9995 2.225 14.7745 2 14.4995 2H7.49951C7.22451 2 6.99951 2.225 6.99951 2.5V7.5C6.99951 7.775 7.22451 8 7.49951 8H6.09151C6.03551 7.843 5.99951 7.676 5.99951 7.5V2.5C5.99951 1.673 6.67251 1 7.49951 1ZM9.99951 10H11.9995V9H9.99951V10Z" fill="#202020"/>
<path d="M2.49951 12C2.77551 12 2.99951 11.776 2.99951 11.5C2.99951 11.224 2.77551 11 2.49951 11C2.22351 11 1.99951 11.224 1.99951 11.5C1.99951 11.776 2.22351 12 2.49951 12Z" fill="#202020"/>
<path d="M4.49951 12C4.77551 12 4.99951 11.776 4.99951 11.5C4.99951 11.224 4.77551 11 4.49951 11C4.22351 11 3.99951 11.224 3.99951 11.5C3.99951 11.776 4.22351 12 4.49951 12Z" fill="#202020"/>
<path d="M6.49951 12C6.77551 12 6.99951 11.776 6.99951 11.5C6.99951 11.224 6.77551 11 6.49951 11C6.22351 11 5.99951 11.224 5.99951 11.5C5.99951 11.776 6.22351 12 6.49951 12Z" fill="#202020"/>
<path fill-rule="evenodd" clip-rule="evenodd" d="M0.999512 9H7.74951C8.43851 9 8.99951 9.561 8.99951 10.25V12.75C8.99951 13.439 8.43851 14 7.74951 14H6.99951V15.5C6.99951 15.776 6.77551 16 6.49951 16H4.49951C4.22351 16 3.99951 15.776 3.99951 15.5V14H0.999512V14.5C0.999512 14.776 0.775512 15 0.499512 15C0.223512 15 -0.000488281 14.776 -0.000488281 14.5V8.5C-0.000488281 8.224 0.223512 8 0.499512 8C0.775512 8 0.999512 8.224 0.999512 8.5V9ZM4.99951 15H5.99951V14H4.99951V15ZM7.74951 13C7.88751 13 7.99951 12.888 7.99951 12.75V10.25C7.99951 10.112 7.88751 10 7.74951 10H0.999512V13H7.74951Z" fill="#202020"/>
</g>
<defs>
<clipPath id="clip0_7205_108419">
<rect width="16" height="16" fill="white"/>
</clipPath>
</defs>
</svg>
