<svg width="16" height="16" viewBox="0 0 16 16" fill="none" xmlns="http://www.w3.org/2000/svg">
<path fill-rule="evenodd" clip-rule="evenodd" d="M10.4977 3.39098C10.4406 2.06085 9.34419 1 8 1C6.61929 1 5.5 2.11929 5.5 3.5C5.5 4.7093 6.35863 5.71806 7.4995 5.94989V6.99994H5.36684C4.61209 6.99994 4.00024 7.61178 4.00024 8.36653V10.05C2.859 10.2815 2 11.2904 2 12.5C2 13.8807 3.11929 15 4.5 15C5.88071 15 7 13.8807 7 12.5C7 11.2906 6.14124 10.2818 5.00024 10.0501V8.36653C5.00024 8.16407 5.16437 7.99994 5.36684 7.99994H10.6337C10.8361 7.99994 11.0002 8.16407 11.0002 8.36653V10.05C9.859 10.2815 9 11.2904 9 12.5C9 13.8807 10.1193 15 11.5 15C12.8807 15 14 13.8807 14 12.5C14 11.2906 13.1412 10.2818 12.0002 10.0501V8.36653C12.0002 7.61178 11.3884 6.99994 10.6337 6.99994H8.4995V5.95009C9.14294 5.81962 9.69668 5.44203 10.0574 4.92069C10.0176 4.78435 9.99822 4.64259 9.99999 4.5C9.99928 4.29407 10.0418 4.09028 10.1248 3.90183C10.2079 3.71337 10.3295 3.54445 10.482 3.406C10.4872 3.40095 10.4924 3.39594 10.4977 3.39098ZM8 2C7.17157 2 6.5 2.67157 6.5 3.5C6.5 4.32843 7.17157 5 8 5C8.82843 5 9.5 4.32843 9.5 3.5C9.5 2.67157 8.82843 2 8 2ZM4.5 11C3.67157 11 3 11.6716 3 12.5C3 13.3284 3.67157 14 4.5 14C5.32843 14 6 13.3284 6 12.5C6 11.6716 5.32843 11 4.5 11ZM13 12.5C13 11.6716 12.3284 11 11.5 11C10.6716 11 10 11.6716 10 12.5C10 13.3284 10.6716 14 11.5 14C12.3284 14 13 13.3284 13 12.5Z" fill="#202020"/>
<path d="M13.15 6.85L11.15 4.85C11.1026 4.80488 11.0648 4.75059 11.039 4.69042C11.0132 4.63026 10.9999 4.56547 10.9999 4.5C10.9999 4.43453 11.0132 4.36974 11.039 4.30958C11.0648 4.24941 11.1026 4.19512 11.15 4.15C11.1951 4.10256 11.2494 4.06478 11.3096 4.03897C11.3698 4.01316 11.4346 3.99985 11.5 3.99985C11.5655 3.99985 11.6303 4.01316 11.6905 4.03897C11.7506 4.06478 11.8049 4.10256 11.85 4.15L13 5.29V0.5C13 0.367392 13.0527 0.240215 13.1465 0.146447C13.2402 0.0526784 13.3674 0 13.5 0C13.6326 0 13.7598 0.0526784 13.8536 0.146447C13.9473 0.240215 14 0.367392 14 0.5V5.29L15.15 4.15C15.2432 4.05872 15.3686 4.00788 15.499 4.00854C15.6294 4.0092 15.7543 4.0613 15.8465 4.15352C15.9387 4.24574 15.9908 4.37062 15.9915 4.50104C15.9921 4.63145 15.9413 4.75686 15.85 4.85L13.85 6.85C13.8049 6.89744 13.7506 6.93522 13.6905 6.96103C13.6303 6.98684 13.5655 7.00015 13.5 7.00015C13.4346 7.00015 13.3698 6.98684 13.3096 6.96103C13.2494 6.93522 13.1951 6.89744 13.15 6.85V6.85Z" fill="#006CBF"/>
</svg>
