<svg width="16" height="16" viewBox="0 0 16 16" fill="none" xmlns="http://www.w3.org/2000/svg">
<path fill-rule="evenodd" clip-rule="evenodd" d="M6.50864 13.8132C3.91642 13.1501 2 10.7989 2 8C2 4.68629 4.68629 2 8 2C10.7989 2 13.1501 3.91642 13.8132 6.50864C13.4406 6.33568 13.0454 6.20321 12.6333 6.11688C12.6173 6.07767 12.6009 6.03871 12.584 6H10.837C10.8392 6.01291 10.8414 6.02583 10.8435 6.03878C10.5068 6.07882 10.1795 6.14928 9.8643 6.24732C9.85088 6.16378 9.83655 6.08132 9.82134 6H6.17866C6.06438 6.6108 6 7.28604 6 8C6 8.71396 6.06438 9.3892 6.17866 10H6.20703C6.07217 10.4768 6 10.98 6 11.5C6 12.3263 6.18221 13.11 6.50864 13.8132ZM9.31258 4.31781C8.87543 3.35608 8.37372 3 8 3C7.62628 3 7.12457 3.35608 6.68742 4.31781C6.5927 4.52619 6.50552 4.75446 6.42735 5H9.57265C9.49448 4.75446 9.4073 4.52619 9.31258 4.31781ZM5.38411 5C5.49428 4.6038 5.62614 4.23601 5.77705 3.90401C5.85596 3.7304 5.94287 3.56117 6.03766 3.39978C5.22525 3.74677 4.52341 4.30269 3.99963 5H5.38411ZM5 8C5 7.30146 5.05694 6.6275 5.16299 6H3.41604C3.14845 6.61246 3 7.2889 3 8C3 8.7111 3.14845 9.38754 3.41604 10H5.16299C5.05694 9.3725 5 8.69854 5 8ZM5.77705 12.096C5.62614 11.764 5.49428 11.3962 5.38411 11H3.99963C4.52341 11.6973 5.22525 12.2532 6.03766 12.6002C5.94287 12.4388 5.85596 12.2696 5.77705 12.096ZM12.0004 5C11.4766 4.30269 10.7747 3.74677 9.96234 3.39978C10.0571 3.56117 10.144 3.7304 10.2229 3.90401C10.3739 4.23601 10.5057 4.6038 10.6159 5H12.0004Z" fill="#006CBF"/>
<path fill-rule="evenodd" clip-rule="evenodd" d="M16 11.5C16 13.9853 13.9853 16 11.5 16C9.01472 16 7 13.9853 7 11.5C7 9.01472 9.01472 7 11.5 7C13.9853 7 16 9.01472 16 11.5ZM11.4626 12.3084C11.4374 12.2476 11.4005 12.1925 11.3539 12.146L9.8539 10.646C9.76001 10.5521 9.63268 10.4994 9.4999 10.4994C9.36712 10.4994 9.23979 10.5521 9.1459 10.646C9.05201 10.7399 8.99927 10.8672 8.99927 11C8.99927 11.1328 9.05201 11.2601 9.1459 11.354L10.2929 12.5L9.1459 13.646C9.05201 13.7399 8.99927 13.8672 8.99927 14C8.99927 14.1328 9.05201 14.2601 9.1459 14.354C9.23979 14.4479 9.36712 14.5007 9.4999 14.5007C9.63268 14.5007 9.76001 14.4479 9.8539 14.354L11.3539 12.854C11.4005 12.8076 11.4374 12.7524 11.4626 12.6917C11.4878 12.6309 11.5008 12.5658 11.5008 12.5C11.5008 12.4343 11.4878 12.3691 11.4626 12.3084ZM13.8539 9.35402L12.7069 10.5L13.8539 11.646C13.9478 11.7399 14.0005 11.8672 14.0005 12C14.0005 12.1328 13.9478 12.2601 13.8539 12.354C13.76 12.4479 13.6327 12.5007 13.4999 12.5007C13.3671 12.5007 13.2398 12.4479 13.1459 12.354L11.6459 10.854C11.5993 10.8076 11.5624 10.7524 11.5372 10.6917C11.512 10.6309 11.499 10.5658 11.499 10.5C11.499 10.4343 11.512 10.3691 11.5372 10.3084C11.5624 10.2476 11.5993 10.1925 11.6459 10.146L13.1459 8.64602C13.2398 8.55213 13.3671 8.49939 13.4999 8.49939C13.6327 8.49939 13.76 8.55213 13.8539 8.64602C13.9478 8.73991 14.0005 8.86725 14.0005 9.00002C14.0005 9.1328 13.9478 9.26013 13.8539 9.35402Z" fill="#006CBF"/>
</svg>
