<svg width="16" height="16" viewBox="0 0 16 16" fill="none" xmlns="http://www.w3.org/2000/svg">
<path d="M3.5 5H12.5C12.7761 5 13 5.22386 13 5.5V10.5C13 10.7761 12.7761 11 12.5 11H3.5C3.22386 11 3 10.7761 3 10.5V5.5C3 5.22386 3.22386 5 3.5 5Z" fill="#202020"/>
<path fill-rule="evenodd" clip-rule="evenodd" d="M3.5 3C2.11929 3 1 4.11929 1 5.5V10.5C1 11.8807 2.11929 13 3.5 13H12.5C13.8807 13 15 11.8807 15 10.5V5.5C15 4.11929 13.8807 3 12.5 3H3.5ZM2 5.5C2 4.67157 2.67157 4 3.5 4H12.5C13.3284 4 14 4.67157 14 5.5V10.5C14 11.3284 13.3284 12 12.5 12H3.5C2.67157 12 2 11.3284 2 10.5V5.5Z" fill="#202020"/>
</svg>
