<svg width="16" height="16" viewBox="0 0 16 16" fill="none" xmlns="http://www.w3.org/2000/svg">
<g clip-path="url(#clip0_7205_108498)">
<path d="M5.121 3H12.291L10.146 5.146C10.0521 5.23989 9.99937 5.36722 9.99937 5.5C9.99937 5.63278 10.0521 5.76011 10.146 5.854C10.2399 5.94789 10.3672 6.00063 10.5 6.00063C10.6328 6.00063 10.7601 5.94789 10.854 5.854L13 3.709V12.291L10.856 10.146C10.7621 10.0521 10.6348 9.99937 10.502 9.99937C10.3692 9.99937 10.2419 10.0521 10.148 10.146C10.0541 10.2399 10.0014 10.3672 10.0014 10.5C10.0014 10.6328 10.0541 10.7601 10.148 10.854L12.291 13H3.709L5.854 10.856C5.94789 10.7621 6.00063 10.6348 6.00063 10.502C6.00063 10.3692 5.94789 10.2419 5.854 10.148C5.76011 10.0541 5.63278 10.0014 5.5 10.0014C5.36722 10.0014 5.23989 10.0541 5.146 10.148L3 12.291V5.121L2 6.12168V12.25C2.00053 12.714 2.18507 13.1588 2.51315 13.4869C2.84122 13.8149 3.28603 13.9995 3.75 14H12.25C12.714 13.9995 13.1588 13.8149 13.4869 13.4869C13.8149 13.1588 13.9995 12.714 14 12.25V3.75C13.9995 3.28603 13.8149 2.84122 13.4869 2.51315C13.1588 2.18507 12.714 2.00053 12.25 2H6.12168L5.121 3Z" fill="#202020"/>
<path d="M5.85402 5.14602C5.94791 5.23991 6.00065 5.36725 6.00065 5.50002C6.00065 5.6328 5.94791 5.76013 5.85402 5.85402C5.76013 5.94791 5.6328 6.00065 5.50002 6.00065C5.36725 6.00065 5.23991 5.94791 5.14602 5.85402L3.00002 3.70702L0.854021 5.85402C0.760135 5.94791 0.632797 6.00065 0.500021 6.00065C0.367245 6.00065 0.239908 5.94791 0.146021 5.85402C0.0521346 5.76013 -0.000610349 5.6328 -0.000610352 5.50002C-0.000610354 5.36725 0.0521346 5.23991 0.146021 5.14602L2.29302 3.00002L0.146021 0.854021C0.0521346 0.760135 -0.000610353 0.632797 -0.000610352 0.500021C-0.000610351 0.367245 0.0521346 0.239908 0.146021 0.146021C0.239908 0.0521346 0.367245 -0.000610351 0.500021 -0.000610352C0.632797 -0.000610353 0.760135 0.0521346 0.854021 0.146021L3.00002 2.29302L5.14602 0.146021C5.23991 0.0521346 5.36725 -0.000610354 5.50002 -0.000610352C5.6328 -0.000610349 5.76013 0.0521346 5.85402 0.146021C5.94791 0.239908 6.00065 0.367245 6.00065 0.500021C6.00065 0.632797 5.94791 0.760135 5.85402 0.854021L3.70702 3.00002L5.85402 5.14602Z" fill="#C50F1F"/>
</g>
<defs>
<clipPath id="clip0_7205_108498">
<rect width="16" height="16" fill="white"/>
</clipPath>
</defs>
</svg>
