<svg width="16" height="16" viewBox="0 0 16 16" fill="none" xmlns="http://www.w3.org/2000/svg">
<path d="M11.5 13H4.5C3.122 13 2 11.879 2 10.5V5.5C2 4.121 3.122 3 4.5 3H11.5C12.878 3 14 4.121 14 5.5V10.5C14 11.879 12.878 13 11.5 13ZM4.5 4C3.673 4 3 4.673 3 5.5V10.5C3 11.327 3.673 12 4.5 12H11.5C12.327 12 13 11.327 13 10.5V5.5C13 4.673 12.327 4 11.5 4H4.5ZM11.5 5H5.5C5.224 5 5 5.224 5 5.5V10.5C5 10.776 5.224 11 5.5 11H11.5C11.776 11 12 10.776 12 10.5V5.5C12 5.224 11.776 5 11.5 5ZM11 10H6V6H11V10Z" fill="#202020"/>
</svg>
