<svg width="16" height="16" viewBox="0 0 16 16" fill="none" xmlns="http://www.w3.org/2000/svg">
<g clip-path="url(#clip0_7205_108552)">
<path d="M12.468 10.324L13.968 14.324C13.9965 14.3997 14.0061 14.4811 13.9962 14.5613C13.9863 14.6415 13.9571 14.7181 13.9111 14.7846C13.8651 14.8511 13.8037 14.9054 13.7321 14.9429C13.6605 14.9804 13.5808 15 13.5 15H10.1836C10.2481 14.6682 10.2276 14.3239 10.1223 14H12.778L11.653 11H11V11.5C11 11.8978 10.842 12.2794 10.5607 12.5607C10.329 12.7923 10.0294 12.9404 9.70863 12.9854L9.30043 12H9.5C9.63261 12 9.75979 11.9473 9.85355 11.8536C9.94732 11.7598 10 11.6326 10 11.5V2.5C10 2.36739 9.94732 2.24021 9.85355 2.14645C9.75979 2.05268 9.63261 2 9.5 2H5.5C5.36739 2 5.24021 2.05268 5.14645 2.14645C5.05268 2.24021 5 2.36739 5 2.5V7.26907C4.69672 7.09391 4.35193 7.00102 4 7.00098L4 2.5C4 2.10218 4.15804 1.72064 4.43934 1.43934C4.72064 1.15804 5.10218 1 5.5 1H9.5C9.89782 1 10.2794 1.15804 10.5607 1.43934C10.842 1.72064 11 2.10218 11 2.5V10H12C12.1017 10 12.201 10.031 12.2846 10.0889C12.3682 10.1468 12.4322 10.2288 12.468 10.324Z" fill="#202020"/>
<path d="M7.98557 9C7.84819 8.81939 7.68071 8.66222 7.48936 8.53592C7.15896 8.31784 6.77188 8.2014 6.376 8.20098C6.27906 8.19984 6.18227 8.20588 6.08642 8.21901C6.10398 8.19317 6.12404 8.16885 6.14645 8.14645C6.24021 8.05268 6.36739 8 6.5 8H8.5C8.63261 8 8.75979 8.05268 8.85355 8.14645C8.94732 8.24021 9 8.36739 9 8.5C9 8.63261 8.94732 8.75979 8.85355 8.85355C8.75979 8.94732 8.63261 9 8.5 9H7.98557Z" fill="#202020"/>
<path d="M8.83342 10.8726L8.47195 10H8.5C8.63261 10 8.75979 10.0527 8.85355 10.1464C8.94732 10.2402 9 10.3674 9 10.5C9 10.6326 8.94732 10.7598 8.85355 10.8536C8.847 10.8601 8.84029 10.8665 8.83342 10.8726Z" fill="#202020"/>
<path d="M6.14645 4.14645C6.05268 4.24021 6 4.36739 6 4.5C6 4.63261 6.05268 4.75979 6.14645 4.85355C6.24021 4.94732 6.36739 5 6.5 5H8.5C8.63261 5 8.75979 4.94732 8.85355 4.85355C8.94732 4.75979 9 4.63261 9 4.5C9 4.36739 8.94732 4.24021 8.85355 4.14645C8.75979 4.05268 8.63261 4 8.5 4H6.5C6.36739 4 6.24021 4.05268 6.14645 4.14645Z" fill="#202020"/>
<path d="M9.144 14.235L7.311 9.80998C7.20676 9.56616 7.01108 9.37293 6.76597 9.27178C6.52085 9.17063 6.24585 9.16963 6 9.26898L5.078 9.65098C5.0513 9.66216 5.02526 9.67485 5 9.68898V9.00098C5 8.73576 4.89464 8.48141 4.70711 8.29387C4.51957 8.10634 4.26522 8.00098 4 8.00098H3C2.82429 8.00067 2.65168 8.04727 2.5 8.13598C2.34832 8.04727 2.17571 8.00067 2 8.00098H1C0.734784 8.00098 0.48043 8.10634 0.292893 8.29387C0.105357 8.48141 0 8.73576 0 9.00098V15.001C0 15.2662 0.105357 15.5205 0.292893 15.7081C0.48043 15.8956 0.734784 16.001 1 16.001H2C2.17571 16.0013 2.34832 15.9547 2.5 15.866C2.65168 15.9547 2.82429 16.0013 3 16.001H4C4.26522 16.001 4.51957 15.8956 4.70711 15.7081C4.89464 15.5205 5 15.2662 5 15.001V12.071L6.373 15.384C6.44894 15.5671 6.57761 15.7236 6.74267 15.8334C6.90773 15.9433 7.10172 16.0016 7.3 16.001C7.43138 16.0006 7.56144 15.9748 7.683 15.925L8.608 15.542C8.7905 15.4661 8.94641 15.3378 9.05605 15.1733C9.16569 15.0089 9.22413 14.8156 9.224 14.618C9.22313 14.4863 9.19593 14.356 9.144 14.235V14.235ZM1 15.001V9.00098H2V15.001H1ZM4 15.001H3V9.00098H4V15.001ZM7.3 15.001L5.463 10.575L6.385 10.193L8.22 14.618L7.3 15.001Z" fill="#202020"/>
</g>
<defs>
<clipPath id="clip0_7205_108552">
<rect width="16" height="16" fill="white"/>
</clipPath>
</defs>
</svg>
