<svg width="16" height="16" viewBox="0 0 16 16" fill="none" xmlns="http://www.w3.org/2000/svg">
<path fill-rule="evenodd" clip-rule="evenodd" d="M2 4.5C2 3.11929 3.11929 2 4.5 2H11.5C12.8807 2 14 3.11929 14 4.5V11.5C14 12.8807 12.8807 14 11.5 14H10V13H11.5C12.3284 13 13 12.3284 13 11.5V6H7.22498L6.802 5.802L6.59601 6H3V9.26057L2 8.50242V4.5ZM3 5H13V4.5C13 3.67157 12.3284 3 11.5 3H4.5C3.67157 3 3 3.67157 3 4.5V5Z" fill="#202020"/>
<path d="M7 7L3.191 10.661L1 9L0 9.273V13.727L1 14L3.191 12.339L7 16L9 15.064V7.936L7 7ZM1 12.766V10.234L2.317 11.5L1 12.766ZM7 13.548L4.3 11.5L7 9.452V13.548Z" fill="#8661C5"/>
</svg>
