<svg width="16" height="16" viewBox="0 0 16 16" fill="none" xmlns="http://www.w3.org/2000/svg">
<path d="M4.56 8.92004L4 9.86004L3.53 10.64C3.23 11.15 2.74 11.45 2.19 11.53L4.73 12.76L4.74 12.77C4.91 12.85 5.11 12.9 5.31 12.9C5.75 12.9 6.14 12.68 6.38 12.35V12.34L6.49 12.19L4.56 8.92004ZM2.67 5.75004C2.42 5.32004 1.98 5.26004 1.66 5.34004C1.34 5.43004 1 5.70004 1 6.21004V9.67004C1 10.18 1.34 10.45 1.66 10.54C1.74 10.56 1.83 10.58 1.92 10.58C2.19 10.58 2.48 10.46 2.67 10.13L3.98 7.94004L2.67 5.75004Z" fill="#9529C2"/>
<path d="M15 4.29004V11.59C15 12.13 14.67 12.6 14.19 12.8C14.18 12.8 14.16 12.81 14.11 12.83L10.16 14.24C10.01 14.3 9.84996 14.33 9.68996 14.33C9.22996 14.33 8.81996 14.09 8.58996 13.73C8.57996 13.72 8.41996 13.45 8.30996 13.29C8.27996 13.25 8.25996 13.21 8.22996 13.17L3.52996 5.24004C3.23996 4.74004 2.74996 4.43004 2.20996 4.35004L4.72996 3.12004L4.73996 3.11004C4.90996 3.03004 5.10996 2.98004 5.30996 2.98004C5.74996 2.98004 6.13996 3.20004 6.37996 3.53004V3.54004L11 10.05V5.51004L9.99996 6.92004L7.67996 3.65004L8.54996 2.15004C8.56996 2.13004 8.57996 2.11004 8.58996 2.10004C8.81996 1.74004 9.22996 1.50004 9.68996 1.50004C10.05 1.50004 9.64996 1.44004 14.14 3.06004C14.16 3.07004 14.17 3.07004 14.19 3.08004C14.67 3.28004 15 3.75004 15 4.29004Z" fill="#9529C2"/>
</svg>
