<svg width="16" height="16" viewBox="0 0 16 16" fill="none" xmlns="http://www.w3.org/2000/svg">
<path fill-rule="evenodd" clip-rule="evenodd" d="M9.58594 1C9.98371 1.00004 10.3652 1.15818 10.6465 1.43945L13.5605 4.35352C13.8418 4.63478 14 5.01629 14 5.41406V13C14 14.1046 13.1046 15 12 15H8.83008C8.93845 14.7708 8.99902 14.516 8.99902 14.25V14H12C12.5523 14 13 13.5523 13 13V6H10.5C9.67157 6 9 5.32843 9 4.5V2H6C5.44772 2 5 2.44772 5 3V7.26855C4.62109 7.32326 4.27247 7.50362 4 7.78516V3C4 1.89543 4.89543 1 6 1H9.58594ZM10 4.5C10 4.77614 10.2239 5 10.5 5H12.793L10 2.20703V4.5Z" fill="#202020"/>
<path d="M11.5 12C11.7761 12 12 12.2239 12 12.5C12 12.7761 11.7761 13 11.5 13H8.99902V12H11.5Z" fill="#202020"/>
<path d="M11.5 10C11.7761 10 12 10.2239 12 10.5C12 10.7761 11.7761 11 11.5 11H8.99902V10H11.5Z" fill="#202020"/>
<path d="M11.5 8C11.7761 8 12 8.22386 12 8.5C12 8.77614 11.7761 9 11.5 9H8.83008C8.64048 8.60144 8.30101 8.28102 7.86035 8.11328L7.55859 8H11.5Z" fill="#202020"/>
<path d="M7.51 9.05L5.51 8.3C5.43 8.27 5.34 8.25 5.25 8.25C5 8.25 4.77 8.38 4.64 8.57L4.62 8.6L3.22 10.6L2.39 9.61L2.32 9.52C2.18 9.35 1.98 9.25 1.75 9.25C1.62 9.25 1.51 9.28 1.41 9.33C1.37 9.35 1.33 9.37 1.29 9.4L0.3 10.15C0.12 10.29 0 10.51 0 10.75V13.25C0 13.5 0.12 13.71 0.3 13.85L0.36 13.89L1.29 14.6C1.33 14.63 1.37 14.65 1.41 14.67C1.51 14.72 1.62 14.75 1.75 14.75C1.98 14.75 2.18 14.65 2.32 14.48L2.39 14.39L3.22 13.4L4.62 15.4L4.64 15.43C4.77 15.62 5 15.75 5.25 15.75C5.34 15.75 5.43 15.73 5.51 15.7L7.51 14.95C7.8 14.85 8 14.57 8 14.25V9.75C8 9.43 7.8 9.16 7.51 9.05ZM1.298 10.686L2.23 11.997L1.298 13.323L1 13.096V10.912L1.298 10.686ZM6 13.93L4.39 12L6 10.07V13.93Z" fill="#9529C2"/>
</svg>
