<svg width="16" height="16" viewBox="0 0 16 16" fill="none" xmlns="http://www.w3.org/2000/svg">
<path fill-rule="evenodd" clip-rule="evenodd" d="M4.5 2C3.11929 2 2 3.11929 2 4.5V10.0857C2.15646 10.0302 2.32477 10 2.5 10C3.15177 10 3.70789 10.418 3.9143 11H5V12.0857C5.58198 12.2921 6 12.8482 6 13.5C6 13.6752 5.96979 13.8435 5.9143 14H11.5C12.8807 14 14 12.8807 14 11.5V4.5C14 3.11929 12.8807 2 11.5 2H4.5ZM10 13H6V11L10 11V13ZM10 10L6 10V6L10 6V10ZM3 6H5V10H3V6ZM10 5L6 5V3H10V5ZM4.5 3H5V5H3V4.5C3 3.67157 3.67157 3 4.5 3ZM11 6H13V10H11V6ZM11 11H13V11.5C13 12.3284 12.3284 13 11.5 13H11V11ZM13 4.5V5H11V3H11.5C12.3284 3 13 3.67157 13 4.5Z" fill="#202020"/>
<path d="M3 11.5C3 11.2239 2.77614 11 2.5 11C2.22386 11 2 11.2239 2 11.5V13H0.5C0.223858 13 0 13.2239 0 13.5C0 13.7761 0.223858 14 0.5 14H2V15.5C2 15.7761 2.22386 16 2.5 16C2.77614 16 3 15.7761 3 15.5V14H4.5C4.77614 14 5 13.7761 5 13.5C5 13.2239 4.77614 13 4.5 13H3V11.5Z" fill="#11910D"/>
</svg>
