<svg width="16" height="16" viewBox="0 0 16 16" fill="none" xmlns="http://www.w3.org/2000/svg">
<path d="M7.25758 9.2598L6.05299 13.3888C5.66907 14.7047 7.37726 15.5898 8.23096 14.5173L14.8379 6.21709C15.229 5.72572 14.8791 5 14.2511 5H12.2216L13.2149 2.35112C13.4601 1.69737 12.9768 1 12.2786 1L8.74284 1C8.99647 1.30711 9.21739 1.64222 9.40029 2H12.2786L11.0319 5.32444C10.9743 5.47799 10.9957 5.65001 11.0891 5.7848C11.1825 5.91958 11.3361 6 11.5001 6H13.7326L7.44856 13.8945C7.39618 13.9603 7.34467 13.9826 7.30213 13.9899C7.25354 13.9983 7.19467 13.9902 7.13794 13.9608C7.08121 13.9314 7.04067 13.888 7.0195 13.8434C7.00096 13.8045 6.98941 13.7496 7.01297 13.6688L8.48008 8.64003C8.51187 8.53108 8.50532 8.41591 8.46378 8.31294C8.10892 8.68175 7.70307 9.00115 7.25758 9.2598Z" fill="#B27C00"/>
<path fill-rule="evenodd" clip-rule="evenodd" d="M7.00007 8.24162C6.26004 8.73608 5.39002 9 4.5 9C3.30653 9 2.16193 8.5259 1.31802 7.68198C0.474106 6.83807 0 5.69348 0 4.5C0 3.60999 0.26392 2.73996 0.758387 1.99994C1.25285 1.25991 1.95566 0.683138 2.77792 0.342544C3.60019 0.00194976 4.50499 -0.0871652 5.37791 0.0864683C6.25082 0.260102 7.05264 0.688685 7.68198 1.31802C8.31132 1.94736 8.7399 2.74918 8.91353 3.6221C9.08717 4.49501 8.99805 5.39981 8.65746 6.22208C8.31686 7.04434 7.74009 7.74715 7.00007 8.24162ZM3.5 2.5V6.5C3.5 6.63261 3.44732 6.75979 3.35355 6.85355C3.25979 6.94732 3.13261 7 3 7C2.86739 7 2.74021 6.94732 2.64645 6.85355C2.55268 6.75979 2.5 6.63261 2.5 6.5V2.5C2.5 2.36739 2.55268 2.24021 2.64645 2.14645C2.74021 2.05268 2.86739 2 3 2C3.13261 2 3.25979 2.05268 3.35355 2.14645C3.44732 2.24021 3.5 2.36739 3.5 2.5ZM6.5 2.5V6.5C6.5 6.63261 6.44732 6.75979 6.35355 6.85355C6.25979 6.94732 6.13261 7 6 7C5.86739 7 5.74021 6.94732 5.64645 6.85355C5.55268 6.75979 5.5 6.63261 5.5 6.5V2.5C5.5 2.36739 5.55268 2.24021 5.64645 2.14645C5.74021 2.05268 5.86739 2 6 2C6.13261 2 6.25979 2.05268 6.35355 2.14645C6.44732 2.24021 6.5 2.36739 6.5 2.5Z" fill="#006CBF"/>
</svg>
