<svg width="16" height="16" viewBox="0 0 16 16" fill="none" xmlns="http://www.w3.org/2000/svg">
<path d="M14.854 7.854L13.354 9.354C13.256 9.452 13.128 9.5 13 9.5C12.872 9.5 12.744 9.451 12.646 9.354C12.451 9.159 12.451 8.842 12.646 8.647L13.292 8.001H8.49899C8.22299 8.001 7.99899 7.777 7.99899 7.501C7.99899 7.225 8.22299 7.001 8.49899 7.001H13.292L12.646 6.355C12.451 6.16 12.451 5.843 12.646 5.648C12.841 5.453 13.158 5.453 13.353 5.648L14.853 7.148C15.048 7.343 15.048 7.66 14.853 7.855L14.854 7.854ZM12.5 11C12.224 11 12 11.224 12 11.5V12.293L8.85399 9.147C8.65899 8.952 8.34199 8.952 8.14699 9.147C7.95199 9.342 7.95199 9.659 8.14699 9.854L11.293 13H10.5C10.224 13 9.99999 13.224 9.99999 13.5C9.99999 13.776 10.224 14 10.5 14H12.5C12.776 14 13 13.776 13 13.5V11.5C13 11.224 12.776 11 12.5 11ZM8.49999 6C8.62799 6 8.75599 5.951 8.85399 5.854L12 2.708V3.501C12 3.777 12.224 4.001 12.5 4.001C12.776 4.001 13 3.777 13 3.501V1.5C13 1.224 12.776 1 12.5 1H10.5C10.224 1 9.99999 1.224 9.99999 1.5C9.99999 1.776 10.224 2 10.5 2H11.293L8.14699 5.146C7.95199 5.341 7.95199 5.658 8.14699 5.853C8.24499 5.951 8.37299 5.999 8.50099 5.999L8.49999 6Z" fill="#006CBF"/>
<path d="M5 2C3 2 1 2.656 1 3.969V10.969C1 12.282 3.012 12.969 5 12.969C6.988 12.969 9 12.282 9 10.969V3.969C9 2.656 7 2 5 2ZM5 2.969C6.861 2.969 8 3.616 8 3.969C8 4.322 6.861 4.969 5 4.969C3.139 4.969 2 4.322 2 3.969C2 3.616 3.139 2.969 5 2.969ZM5 11.969C3.139 11.969 2 11.322 2 10.969V5.321C2.886 5.749 3.856 5.971 4.838 5.971C4.892 5.971 4.946 5.971 5 5.969C5.054 5.97 5.108 5.971 5.162 5.971C6.144 5.971 7.115 5.749 8 5.321V10.969C8 11.322 6.861 11.969 5 11.969Z" fill="#3487C7"/>
</svg>
