<svg width="16" height="16" viewBox="0 0 16 16" fill="none" xmlns="http://www.w3.org/2000/svg">
<g clip-path="url(#clip0_7205_108906)">
<path fill-rule="evenodd" clip-rule="evenodd" d="M3.52727 11.9994C2.5775 10.938 2 9.53643 2 8C2 4.68629 4.68629 2 8 2C11.3137 2 14 4.68629 14 8C14 9.83572 13.1756 11.4789 11.8768 12.5795C11.7844 12.2404 11.6411 11.9161 11.451 11.6181C11.6506 11.4277 11.8344 11.2209 12.0004 11H10.9495C10.4871 10.5469 9.90582 10.2289 9.26885 10.0855C9.01525 10.0284 8.75776 10.0001 8.50106 10H9.82134C9.93562 9.3892 10 8.71396 10 8C10 7.28604 9.93562 6.6108 9.82134 6H6.17866C6.06438 6.6108 6 7.28604 6 8C6 8.71396 6.06438 9.3892 6.17866 10H8.49912C7.97184 10.0001 7.44792 10.1194 6.96784 10.3532C6.39653 10.6314 5.91451 11.0584 5.57011 11.5854C5.50266 11.3984 5.44054 11.2029 5.38411 11H3.99963C4.28383 11.3784 4.62046 11.7151 4.99874 11.9994H3.52727ZM9.31258 4.31781C8.87543 3.35608 8.37372 3 8 3C7.62628 3 7.12457 3.35608 6.68742 4.31781C6.5927 4.52619 6.50552 4.75446 6.42735 5H9.57265C9.49448 4.75446 9.4073 4.52619 9.31258 4.31781ZM5.38411 5C5.49428 4.6038 5.62614 4.23601 5.77705 3.90401C5.85596 3.7304 5.94287 3.56117 6.03766 3.39978C5.22525 3.74677 4.52341 4.30269 3.99963 5H5.38411ZM5 8C5 7.30146 5.05694 6.6275 5.16299 6H3.41604C3.14845 6.61246 3 7.2889 3 8C3 8.7111 3.14845 9.38754 3.41604 10H5.16299C5.05694 9.3725 5 8.69854 5 8ZM10.837 10H12.584C12.8516 9.38754 13 8.7111 13 8C13 7.2889 12.8516 6.61246 12.584 6H10.837C10.9431 6.6275 11 7.30146 11 8C11 8.69854 10.9431 9.3725 10.837 10ZM12.0004 5C11.4766 4.30269 10.7747 3.74677 9.96234 3.39978C10.0571 3.56117 10.144 3.7304 10.2229 3.90401C10.3739 4.23601 10.5057 4.6038 10.6159 5H12.0004Z" fill="#006CBF"/>
<path d="M8.49999 10.9994C7.92383 10.9995 7.3654 11.1986 6.91915 11.5631C6.4729 11.9275 6.16622 12.4349 6.05099 12.9994H2.90799C2.79004 12.6658 2.55795 12.3846 2.25275 12.2056C1.94754 12.0265 1.58887 11.9612 1.24012 12.021C0.891374 12.0808 0.575006 12.262 0.346935 12.5326C0.118864 12.8031 -0.00622559 13.1455 -0.00622559 13.4994C-0.00622559 13.8532 0.118864 14.1957 0.346935 14.4662C0.575006 14.7368 0.891374 14.918 1.24012 14.9778C1.58887 15.0376 1.94754 14.9722 2.25275 14.7932C2.55795 14.6142 2.79004 14.333 2.90799 13.9994H6.05099C6.1456 14.4629 6.36978 14.89 6.69747 15.2312C7.02517 15.5724 7.44294 15.8136 7.90226 15.9268C8.36157 16.04 8.84358 16.0205 9.29228 15.8707C9.74099 15.7209 10.138 15.4468 10.4371 15.0803C10.7363 14.7139 10.9253 14.2701 10.9823 13.8005C11.0393 13.3308 10.9618 12.8547 10.759 12.4273C10.5561 12 10.2362 11.639 9.83629 11.3862C9.43642 11.1334 8.97305 10.9993 8.49999 10.9994V10.9994ZM1.49999 13.9994C1.4011 13.9994 1.30443 13.9701 1.2222 13.9151C1.13998 13.8602 1.07589 13.7821 1.03805 13.6907C1.0002 13.5994 0.990303 13.4988 1.0096 13.4018C1.02889 13.3049 1.07651 13.2158 1.14643 13.1458C1.21636 13.0759 1.30545 13.0283 1.40244 13.009C1.49943 12.9897 1.59997 12.9996 1.69133 13.0374C1.78269 13.0753 1.86078 13.1394 1.91572 13.2216C1.97066 13.3038 1.99999 13.4005 1.99999 13.4994C1.99999 13.632 1.94731 13.7592 1.85354 13.8529C1.75977 13.9467 1.6326 13.9994 1.49999 13.9994ZM8.49999 14.9994C8.20332 14.9994 7.91331 14.9114 7.66663 14.7466C7.41996 14.5818 7.2277 14.3475 7.11417 14.0734C7.00064 13.7993 6.97093 13.4977 7.02881 13.2068C7.08669 12.9158 7.22955 12.6485 7.43933 12.4387C7.64911 12.229 7.91638 12.0861 8.20735 12.0282C8.49832 11.9703 8.79992 12 9.07401 12.1136C9.3481 12.2271 9.58237 12.4194 9.74719 12.666C9.91201 12.9127 9.99999 13.2027 9.99999 13.4994C9.99999 13.8972 9.84195 14.2787 9.56065 14.5601C9.27934 14.8414 8.89781 14.9994 8.49999 14.9994V14.9994Z" fill="#202020"/>
</g>
<defs>
<clipPath id="clip0_7205_108906">
<rect width="16" height="16" fill="white"/>
</clipPath>
</defs>
</svg>
