<svg width="16" height="16" viewBox="0 0 16 16" fill="none" xmlns="http://www.w3.org/2000/svg">
<path d="M13.534 6.466C12.597 5.529 11.326 5.001 10 5C9.011 5 8.044 5.293 7.222 5.843C7.088 5.932 6.968 6.037 6.844 6.138L5.583 4.877C5.845 4.482 5.999 4.009 5.999 3.5C5.999 2.122 4.878 1 3.499 1C2.12 1 1 2.122 1 3.5C1 4.878 2.121 6 3.5 6C4.009 6 4.481 5.846 4.877 5.584L6.13 6.837C5.823 7.213 5.569 7.634 5.381 8.087C5.003 9.001 4.904 10.006 5.096 10.976C5.288 11.946 5.765 12.837 6.464 13.536C7.163 14.235 8.054 14.711 9.024 14.904C9.994 15.097 10.999 14.998 11.913 14.62C12.827 14.242 13.608 13.601 14.157 12.779C14.706 11.957 15 10.99 15 10.001C14.998 8.675 14.471 7.404 13.534 6.466ZM10 6C10.18 6 10.6 6.691 10.83 8H9.17C9.405 6.691 9.82 6 10 6ZM3.5 5C2.673 5 2 4.327 2 3.5C2 2.673 2.673 2 3.5 2C4.327 2 5 2.673 5 3.5C5 4.327 4.327 5 3.5 5ZM6.142 11C6.052 10.674 6.004 10.338 6 10C6.004 9.662 6.052 9.326 6.142 9H8.037C8.013 9.332 8 9.668 8 10C8 10.332 8.013 10.668 8.037 11H6.142ZM6.556 12H8.151C8.235 12.596 8.391 13.179 8.613 13.738C7.747 13.414 7.02 12.8 6.556 12ZM8.151 8H6.556C7.02 7.2 7.747 6.586 8.613 6.262C8.391 6.821 8.235 7.404 8.151 8ZM10 14C9.82 14 9.405 13.309 9.17 12H10.83C10.6 13.309 10.18 14 10 14ZM10.959 11H9.041C9.016 10.689 9 10.358 9 10C9 9.642 9.016 9.311 9.041 9H10.959C10.984 9.311 11 9.642 11 10C11 10.358 10.984 10.689 10.959 11ZM13.444 8H11.844C11.76 7.404 11.604 6.821 11.382 6.262C12.25 6.585 12.979 7.199 13.444 8ZM11.387 13.738C11.609 13.179 11.765 12.596 11.849 12H13.449C12.984 12.8 12.255 13.415 11.387 13.738ZM13.858 11H11.958C11.982 10.668 11.995 10.332 11.995 10C11.995 9.668 11.987 9.332 11.963 9H13.863C13.951 9.326 13.997 9.662 14 10C13.996 10.338 13.948 10.674 13.858 11Z" fill="#006CBF"/>
</svg>
