<svg width="16" height="16" viewBox="0 0 16 16" fill="none" xmlns="http://www.w3.org/2000/svg">
<g clip-path="url(#clip0_7205_108971)">
<path d="M2.24895 2C1.55917 2 1 2.55938 1 3.24941V7.25814C1.30687 7.00471 1.64169 6.78393 1.99916 6.60112V3.24941C1.99916 3.11141 2.11099 2.99953 2.24895 2.99953H2.74852C2.88648 2.99953 2.99831 3.11141 2.99831 3.24941V6.20849C3.32032 6.1173 3.65435 6.05471 3.99747 6.02363V3.24941C3.99747 2.55938 3.4383 2 2.74852 2H2.24895Z" fill="#202020"/>
<path d="M7.9941 7.25327V3.24941C7.9941 2.55938 7.43492 2 6.74515 2H6.24557C5.5558 2 4.99663 2.55938 4.99663 3.24941V6.0231C5.33972 6.0538 5.67375 6.11601 5.99578 6.20682V3.24941C5.99578 3.11141 6.10762 2.99953 6.24557 2.99953H6.74515C6.88311 2.99953 6.99494 3.11141 6.99494 3.24941V6.5981C7.35233 6.78033 7.68715 7.00049 7.9941 7.25327Z" fill="#202020"/>
<path fill-rule="evenodd" clip-rule="evenodd" d="M10.4011 4.06385C11.0311 3.84331 11.7231 4.15733 11.9723 4.77682L14.9093 12.0802C15.1752 12.7412 14.8355 13.4904 14.1632 13.7258L13.581 13.9296C12.9509 14.1502 12.2589 13.8361 12.0098 13.2166L9.07268 5.91326C8.80684 5.25222 9.14658 4.50297 9.81888 4.26764L10.4011 4.06385ZM11.0453 5.14988C10.9955 5.02598 10.8571 4.96318 10.7311 5.00729L10.1489 5.21108C10.0144 5.25815 9.94647 5.40799 9.99964 5.5402L12.9367 12.8436C12.9865 12.9675 13.1249 13.0303 13.251 12.9862L13.8332 12.7823C13.9676 12.7353 14.0356 12.5854 13.9824 12.4532L11.0453 5.14988Z" fill="#202020"/>
<path d="M3.01116 11.001H5.98916C5.96388 9.97881 5.7496 8.97015 5.35716 8.02598C4.93516 7.10098 4.55716 7.00098 4.50016 7.00098C4.44316 7.00098 4.06516 7.10098 3.64316 8.02598C3.25072 8.97015 3.03644 9.97881 3.01116 11.001V11.001ZM0.0271606 11.001C0.119048 10.1814 0.434406 9.4028 0.938784 8.75029C1.44316 8.09777 2.11716 7.59641 2.88716 7.30098C2.32986 8.45608 2.0306 9.71862 2.01016 11.001H0.0271606ZM0.0271606 12.001H2.01016C2.0306 13.2833 2.32986 14.5459 2.88716 15.701C2.11716 15.4055 1.44316 14.9042 0.938784 14.2517C0.434406 13.5991 0.119048 12.8206 0.0271606 12.001ZM4.50016 16.001C4.44316 16.001 4.06516 15.901 3.64316 14.976C3.25072 14.0318 3.03644 13.0231 3.01116 12.001H5.98916C5.96388 13.0231 5.7496 14.0318 5.35716 14.976C4.93516 15.901 4.55716 16.001 4.50016 16.001ZM8.97316 12.001C8.88127 12.8206 8.56592 13.5991 8.06154 14.2517C7.55716 14.9042 6.88316 15.4055 6.11316 15.701C6.67046 14.5459 6.96972 13.2833 6.99016 12.001H8.97316ZM6.11316 7.30098C6.88316 7.59641 7.55716 8.09777 8.06154 8.75029C8.56592 9.4028 8.88127 10.1814 8.97316 11.001H6.99016C6.96972 9.71862 6.67046 8.45608 6.11316 7.30098V7.30098Z" fill="#006CBF"/>
</g>
<defs>
<clipPath id="clip0_7205_108971">
<rect width="16" height="16" fill="white"/>
</clipPath>
</defs>
</svg>
