<svg width="16" height="16" viewBox="0 0 16 16" fill="none" xmlns="http://www.w3.org/2000/svg">
<g clip-path="url(#clip0_7205_108991)">
<path fill-rule="evenodd" clip-rule="evenodd" d="M7.29818 13.9594C4.31516 13.6119 2 11.0763 2 8C2 4.68629 4.68629 2 8 2C10.9888 2 13.4672 4.18533 13.9245 7.0453C13.5822 7.11474 13.2574 7.25356 12.9705 7.45332C12.9148 6.94175 12.782 6.45335 12.584 6H10.837C10.9431 6.6275 11 7.30146 11 8C11 8.49875 10.971 8.98497 10.9158 9.45069L9.3659 11H6.42735C6.50552 11.2455 6.5927 11.4738 6.68742 11.6822C7.00748 12.3863 7.36215 12.7658 7.67585 12.9186C7.52959 13.1917 7.41682 13.483 7.34103 13.7863L7.29818 13.9594ZM9.31258 4.31781C8.87543 3.35608 8.37372 3 8 3C7.62628 3 7.12457 3.35608 6.68742 4.31781C6.5927 4.52619 6.50552 4.75446 6.42735 5H9.57265C9.49448 4.75446 9.4073 4.52619 9.31258 4.31781ZM5.38411 5C5.49428 4.6038 5.62614 4.23601 5.77705 3.90401C5.85596 3.7304 5.94287 3.56117 6.03766 3.39978C5.22525 3.74677 4.52341 4.30269 3.99963 5H5.38411ZM5 8C5 7.30146 5.05694 6.6275 5.16299 6H3.41604C3.14845 6.61246 3 7.2889 3 8C3 8.7111 3.14845 9.38754 3.41604 10H5.16299C5.05694 9.3725 5 8.69854 5 8ZM5.77705 12.096C5.62614 11.764 5.49428 11.3962 5.38411 11H3.99963C4.52341 11.6973 5.22525 12.2532 6.03766 12.6002C5.94287 12.4388 5.85596 12.2696 5.77705 12.096ZM6 8C6 8.71396 6.06438 9.3892 6.17866 10H9.82134C9.93562 9.3892 10 8.71396 10 8C10 7.28604 9.93562 6.6108 9.82134 6H6.17866C6.06438 6.6108 6 7.28604 6 8ZM12.0004 5C11.4766 4.30269 10.7747 3.74677 9.96234 3.39978C10.0571 3.56117 10.144 3.7304 10.2229 3.90401C10.3739 4.23601 10.5057 4.6038 10.6159 5H12.0004Z" fill="#006CBF"/>
<path d="M15.5449 8.45396C15.2519 8.16162 14.8549 7.99744 14.4409 7.99744C14.027 7.99744 13.63 8.16162 13.3369 8.45396L9.04895 12.7414C8.69299 13.0975 8.44065 13.5437 8.31895 14.0323L8.01895 15.2431C7.99361 15.3452 7.99509 15.452 8.02324 15.5534C8.0514 15.6547 8.10528 15.747 8.17964 15.8213C8.25401 15.8957 8.34633 15.9496 8.44766 15.9777C8.54899 16.0059 8.65588 16.0074 8.75795 15.982L9.96895 15.6821C10.4572 15.5598 10.9031 15.3071 11.2589 14.9512L15.5479 10.6637C15.6931 10.5185 15.8081 10.3461 15.8865 10.1564C15.9649 9.96675 16.0051 9.76346 16.0049 9.5582C16.0046 9.35295 15.9638 9.14976 15.8849 8.96028C15.806 8.7708 15.6905 8.59875 15.5449 8.45396V8.45396Z" fill="#006CBF"/>
</g>
<defs>
<clipPath id="clip0_7205_108991">
<rect width="16" height="16" fill="white"/>
</clipPath>
</defs>
</svg>
