<svg width="16" height="16" viewBox="0 0 16 16" fill="none" xmlns="http://www.w3.org/2000/svg">
<g clip-path="url(#clip0_7205_109015)">
<path fill-rule="evenodd" clip-rule="evenodd" d="M3 3C3 1.89543 3.89543 1 5 1H8.58579C8.98361 1 9.36514 1.15804 9.64645 1.43934L12.5607 4.35355C12.842 4.63486 13 5.01639 13 5.41421V6.207C12.6777 6.11586 12.3434 6.05335 12 6.02241V6H9.5C8.67157 6 8 5.32843 8 4.5V2H5C4.44772 2 4 2.44772 4 3V6.02339C3.65659 6.05434 3.32228 6.11684 3 6.20799V3ZM9.5 5H11.7929L9 2.20711V4.5C9 4.77614 9.22386 5 9.5 5Z" fill="#202020"/>
<path d="M6.68623 14.1624C6.85823 14.4727 7.05936 14.7647 7.28593 15.0345C6.93235 15.313 6.53735 15.5382 6.11322 15.701C6.35224 15.2056 6.54378 14.6904 6.68623 14.1624Z" fill="#006CBF"/>
<path d="M7.28494 7.96667C7.05862 8.23638 6.8577 8.52813 6.68588 8.83823C6.54347 8.31068 6.35204 7.79596 6.11322 7.30098C6.53696 7.46356 6.93162 7.6885 7.28494 7.96667Z" fill="#006CBF"/>
<path d="M5.35722 8.02598C5.74966 8.97015 5.96394 9.97881 5.98922 11.001H3.01122C3.03651 9.97881 3.25078 8.97015 3.64322 8.02598C4.06522 7.10098 4.44322 7.00098 4.50022 7.00098C4.55722 7.00098 4.93522 7.10098 5.35722 8.02598Z" fill="#006CBF"/>
<path d="M0.938845 8.75029C0.434467 9.4028 0.119109 10.1814 0.0272217 11.001H2.01022C2.03066 9.71862 2.32992 8.45608 2.88722 7.30098C2.11722 7.59641 1.44322 8.09777 0.938845 8.75029Z" fill="#006CBF"/>
<path d="M2.01022 12.001H0.0272217C0.119109 12.8206 0.434467 13.5991 0.938845 14.2517C1.44322 14.9042 2.11722 15.4055 2.88722 15.701C2.32992 14.5459 2.03066 13.2833 2.01022 12.001Z" fill="#006CBF"/>
<path d="M3.64322 14.976C4.06522 15.901 4.44322 16.001 4.50022 16.001C4.55722 16.001 4.93522 15.901 5.35722 14.976C5.74966 14.0318 5.96394 13.0231 5.98922 12.001H3.01122C3.03651 13.0231 3.25078 14.0318 3.64322 14.976Z" fill="#006CBF"/>
<path fill-rule="evenodd" clip-rule="evenodd" d="M11.5 16C13.9853 16 16 13.9853 16 11.5C16 9.01472 13.9853 7 11.5 7C9.01472 7 7 9.01472 7 11.5C7 13.9853 9.01472 16 11.5 16ZM13.3536 10.3536C13.5488 10.1583 13.5488 9.84171 13.3536 9.64645C13.1583 9.45118 12.8417 9.45118 12.6464 9.64645L11.5 10.7929L10.3536 9.64645C10.1583 9.45118 9.84171 9.45118 9.64645 9.64645C9.45118 9.84171 9.45118 10.1583 9.64645 10.3536L10.7929 11.5L9.64645 12.6464C9.45118 12.8417 9.45118 13.1583 9.64645 13.3536C9.84171 13.5488 10.1583 13.5488 10.3536 13.3536L11.5 12.2071L12.6464 13.3536C12.8417 13.5488 13.1583 13.5488 13.3536 13.3536C13.5488 13.1583 13.5488 12.8417 13.3536 12.6464L12.2071 11.5L13.3536 10.3536Z" fill="#C50F1F"/>
</g>
<defs>
<clipPath id="clip0_7205_109015">
<rect width="16" height="16" fill="white"/>
</clipPath>
</defs>
</svg>
