<svg width="16" height="16" viewBox="0 0 16 16" fill="none" xmlns="http://www.w3.org/2000/svg">
<path d="M4.5 8C4.411 8 4.327 8.02 4.24 8.026C3.65525 8.91482 3.35942 9.96261 3.393 11.026H5.607C5.64057 9.96261 5.34474 8.91482 4.76 8.026C4.673 8.02 4.589 8 4.5 8ZM5.789 14.748C6.35538 14.5219 6.85265 14.1513 7.23127 13.6732C7.60989 13.1951 7.85666 12.6261 7.947 12.023H6.356C6.33208 12.958 6.14001 13.8811 5.789 14.748V14.748ZM7.952 11.023C7.86899 10.4107 7.62478 9.8315 7.24437 9.34461C6.86396 8.85772 6.36101 8.48065 5.787 8.252C6.14382 9.13335 6.33698 10.0724 6.357 11.023H7.952ZM4.24 14.974C4.327 14.98 4.411 15 4.5 15C4.589 15 4.673 14.98 4.76 14.974C5.33702 14.1 5.63196 13.07 5.605 12.023H3.4C3.37155 13.0694 3.66474 14.0994 4.24 14.974V14.974ZM1.048 11.023H2.643C2.66302 10.0724 2.85618 9.13335 3.213 8.252C2.63898 8.48065 2.13603 8.85772 1.75562 9.34461C1.37521 9.8315 1.131 10.4107 1.048 11.023V11.023ZM1.048 12.023C1.13834 12.6261 1.3851 13.1951 1.76373 13.6732C2.14235 14.1513 2.63961 14.5219 3.206 14.748C2.85498 13.8811 2.66292 12.958 2.639 12.023H1.048Z" fill="#006CBF"/>
<path d="M13.561 4.354L10.646 1.439C10.3648 1.15798 9.98355 1.00008 9.586 1H6C5.46957 1 4.96086 1.21071 4.58579 1.58579C4.21071 1.96086 4 2.46957 4 3V6.8C4.16561 6.7739 4.33253 6.75688 4.5 6.749C4.66747 6.75688 4.83439 6.7739 5 6.8V3C5 2.73478 5.10536 2.48043 5.29289 2.29289C5.48043 2.10536 5.73478 2 6 2H9V4.5C9 4.89782 9.15804 5.27936 9.43934 5.56066C9.72064 5.84196 10.1022 6 10.5 6H13V13C13 13.2652 12.8946 13.5196 12.7071 13.7071C12.5196 13.8946 12.2652 14 12 14H8.521C8.28928 14.3702 8.00763 14.7067 7.684 15H12C12.5304 15 13.0391 14.7893 13.4142 14.4142C13.7893 14.0391 14 13.5304 14 13V5.414C13.9999 5.01645 13.842 4.6352 13.561 4.354V4.354ZM10.5 5C10.3674 5 10.2402 4.94732 10.1464 4.85355C10.0527 4.75979 10 4.63261 10 4.5V2.207L12.793 5H10.5Z" fill="#202020"/>
</svg>
