<svg width="16" height="16" viewBox="0 0 16 16" fill="none" xmlns="http://www.w3.org/2000/svg">
<path fill-rule="evenodd" clip-rule="evenodd" d="M5.00098 4.25V2.75C5.00098 2.336 4.66498 2 4.25098 2H2.75098C2.33698 2 2.00098 2.336 2.00098 2.75V4.25C2.00098 4.664 2.33698 5 2.75098 5H4.25098C4.66498 5 5.00098 4.664 5.00098 4.25ZM3.00098 3H4.00098V4H3.00098V3Z" fill="#202020"/>
<path fill-rule="evenodd" clip-rule="evenodd" d="M11.367 13.5729C11.662 13.8679 12.054 14.0299 12.47 14.0299C13.331 14.0299 14.031 13.3279 14.031 12.4679C14.031 12.0499 13.869 11.6579 13.574 11.3639L9.91101 7.70092C9.97101 7.46392 10.001 7.22792 10.001 6.99792C10.001 5.00992 8.05301 3.44092 5.98801 4.18392C5.82701 4.24192 5.70701 4.37892 5.66901 4.54592C5.63201 4.71292 5.68301 4.88692 5.80401 5.00792L7.04401 6.24792L6.25101 7.04092L5.01101 5.80092C4.89101 5.67992 4.71601 5.62992 4.54901 5.66592C4.38201 5.70292 4.24601 5.82292 4.18801 5.98392C4.06301 6.32592 4.00101 6.66593 4.00101 6.99792C4.00101 8.88692 5.78701 10.4009 7.70401 9.90792L11.367 13.5729ZM12.868 12.0739C12.973 12.1789 13.032 12.3199 13.032 12.4699C13.032 12.9269 12.401 13.1889 12.075 12.8659L8.19901 8.98992C8.10301 8.89492 7.97501 8.84392 7.84601 8.84392V8.84592C7.78901 8.84592 7.73201 8.85492 7.67701 8.87492C6.31501 9.36692 5.14601 8.43092 5.01401 7.22092L5.89901 8.10492C6.09401 8.29992 6.41101 8.29992 6.60601 8.10492L8.10601 6.60492C8.30101 6.40992 8.30101 6.09292 8.10601 5.89792L7.22101 5.01292C8.22101 5.12192 9.00201 5.97192 9.00201 7.00092C9.00201 7.21892 8.96101 7.43992 8.87601 7.67492C8.80901 7.85693 8.85501 8.06092 8.99201 8.19792L12.868 12.0739Z" fill="#202020"/>
<path d="M2.5 11C2.776 11 3 11.224 3 11.5V12C3 12.551 3.448 13 4 13H4.5C4.776 13 5 13.224 5 13.5C5 13.776 4.776 14 4.5 14H4C2.897 14 2 13.103 2 12V11.5C2 11.224 2.224 11 2.5 11Z" fill="#202020"/>
<path d="M3 6.5C3 6.224 2.776 6 2.5 6C2.224 6 2 6.224 2 6.5V9.5C2 9.776 2.224 10 2.5 10C2.776 10 3 9.776 3 9.5V6.5Z" fill="#202020"/>
<path d="M9.5 3H6.5C6.224 3 6 2.776 6 2.5C6 2.224 6.224 2 6.5 2H9.5C9.776 2 10 2.224 10 2.5C10 2.776 9.776 3 9.5 3Z" fill="#202020"/>
<path d="M13 4.5C13 4.776 13.224 5 13.5 5C13.776 5 14 4.776 14 4.5V4C14 2.897 13.103 2 12 2H11.5C11.224 2 11 2.224 11 2.5C11 2.776 11.224 3 11.5 3H12C12.552 3 13 3.449 13 4V4.5Z" fill="#202020"/>
<path d="M13.5 10C13.224 10 13 9.776 13 9.5V6.5C13 6.224 13.224 6 13.5 6C13.776 6 14 6.224 14 6.5V9.5C14 9.776 13.776 10 13.5 10Z" fill="#202020"/>
<path d="M6.5 14H9.5C9.776 14 10 13.776 10 13.5C10 13.224 9.776 13 9.5 13H6.5C6.224 13 6 13.224 6 13.5C6 13.776 6.224 14 6.5 14Z" fill="#202020"/>
</svg>
