<svg width="16" height="16" viewBox="0 0 16 16" fill="none" xmlns="http://www.w3.org/2000/svg">
<g clip-path="url(#clip0_7205_109083)">
<path fill-rule="evenodd" clip-rule="evenodd" d="M8 2C5.74804 2 3.78585 3.24064 2.75963 5.07571C2.83824 5.05321 2.91943 5.03737 3.00186 5.029C3.16486 5.01 3.33986 5 3.51486 5C4.10886 5 4.68786 5.115 5.23686 5.341C5.63835 5.50635 6.01355 5.72911 6.3501 6H9.82134C9.93562 6.6108 10 7.28604 10 8C10 8.71396 9.93562 9.3892 9.82134 10H8.00793C7.9936 10.1347 7.97323 10.2689 7.94686 10.402L8.54486 11H9.57265C9.49448 11.2455 9.4073 11.4738 9.31258 11.6822C9.3036 11.7019 9.29459 11.7214 9.28556 11.7407L10.0286 12.4838C10.098 12.3581 10.1628 12.2283 10.223 12.096C10.3739 11.764 10.5057 11.3962 10.6159 11H12.0004C11.504 11.6608 10.8477 12.1947 10.0889 12.5441L10.2629 12.718C10.4453 12.8907 10.6061 13.1036 10.7323 13.3432C12.6723 12.3491 14 10.3296 14 8C14 4.68629 11.3137 2 8 2ZM8 3C8.37372 3 8.87543 3.35608 9.31258 4.31781C9.4073 4.52619 9.49448 4.75446 9.57265 5H6.42735C6.50552 4.75446 6.5927 4.52619 6.68742 4.31781C7.12457 3.35608 7.62628 3 8 3ZM5.77705 3.90401C5.62614 4.23601 5.49428 4.6038 5.38411 5H3.99963C4.52341 4.30269 5.22525 3.74677 6.03766 3.39978C5.94287 3.56117 5.85596 3.7304 5.77705 3.90401ZM12.584 10H10.837C10.9431 9.3725 11 8.69854 11 8C11 7.30146 10.9431 6.6275 10.837 6H12.584C12.8516 6.61246 13 7.2889 13 8C13 8.7111 12.8516 9.38754 12.584 10ZM9.96234 3.39978C10.7747 3.74677 11.4766 4.30269 12.0004 5H10.6159C10.5057 4.6038 10.3739 4.23601 10.223 3.90401C10.144 3.7304 10.0571 3.56117 9.96234 3.39978Z" fill="#006CBF"/>
<path d="M2.75809 6.33498C2.76709 6.26598 2.79409 6.20098 2.83709 6.14598C2.88009 6.09098 2.93609 6.04898 3.00009 6.02398C3.03509 6.00998 3.07109 6.00198 3.10809 5.99798C3.70209 5.92798 4.30509 6.01198 4.85809 6.23998C5.41109 6.46798 5.89709 6.83298 6.27009 7.30098C6.64309 7.76898 6.89009 8.32398 6.98809 8.91498C7.08609 9.50598 7.03309 10.111 6.83209 10.674L9.55809 13.4C9.70409 13.539 9.82009 13.705 9.90009 13.89C9.98009 14.074 10.0231 14.273 10.0251 14.474C10.0271 14.675 9.99009 14.875 9.91409 15.061C9.83809 15.247 9.72609 15.417 9.58409 15.559C9.44209 15.701 9.27309 15.814 9.08609 15.889C8.90009 15.965 8.70009 16.003 8.49909 16C8.29809 15.998 8.09909 15.955 7.91509 15.875C7.73109 15.795 7.56409 15.678 7.42509 15.533L4.69909 12.807C4.13509 13.008 3.53009 13.062 2.94009 12.963C2.35009 12.865 1.79409 12.617 1.32609 12.245C0.858086 11.872 0.493086 11.386 0.265086 10.833C0.037086 10.28 -0.045914 9.67798 0.023086 9.08298C0.035086 9.00198 0.070086 8.92698 0.124086 8.86598C0.178086 8.80498 0.248086 8.76098 0.326086 8.73798C0.404086 8.71598 0.487086 8.71698 0.565086 8.74098C0.643086 8.76498 0.712086 8.81098 0.765086 8.87298L1.74009 9.84798C2.02509 10.119 2.40509 10.269 2.79809 10.264C3.19209 10.259 3.56809 10.101 3.84609 9.82198C4.12409 9.54398 4.28309 9.16798 4.28809 8.77398C4.29309 8.37998 4.14409 8.00098 3.87209 7.71598L2.89709 6.74098C2.82509 6.66998 2.77709 6.57998 2.75909 6.48098C2.75109 6.43298 2.75009 6.38398 2.75709 6.33598L2.75809 6.33498Z" fill="#202020"/>
</g>
<defs>
<clipPath id="clip0_7205_109083">
<rect width="16" height="16" fill="white"/>
</clipPath>
</defs>
</svg>
