<svg width="16" height="16" viewBox="0 0 16 16" fill="none" xmlns="http://www.w3.org/2000/svg">
<g clip-path="url(#clip0_7205_109073)">
<path d="M9.97767 12C9.94678 12.3434 9.88433 12.6777 9.79324 13H11C11.2761 13 11.5 12.7761 11.5 12.5C11.5 12.2239 11.2761 12 11 12H9.97767Z" fill="#202020"/>
<path d="M7 6.60069V2.75C7 2.33579 7.33579 2 7.75 2H12.25C12.6642 2 13 2.33579 13 2.75V13.25C13 13.6642 12.6642 14 12.25 14H9.40079C9.21799 14.3578 8.99716 14.6929 8.74364 15H12.25C13.2165 15 14 14.2165 14 13.25V2.75C14 1.7835 13.2165 1 12.25 1H7.75C6.7835 1 6 1.7835 6 2.75V6.20801C6.34864 6.30662 6.68321 6.43874 7 6.60069Z" fill="#202020"/>
<path d="M3.01115 11.001H5.98915C5.96386 9.97881 5.74959 8.97015 5.35715 8.02598C4.93515 7.10098 4.55715 7.00098 4.50015 7.00098C4.44315 7.00098 4.06515 7.10098 3.64315 8.02598C3.25071 8.97015 3.03643 9.97881 3.01115 11.001V11.001ZM0.0271454 11.001C0.119033 10.1814 0.43439 9.4028 0.938769 8.75029C1.44315 8.09777 2.11715 7.59641 2.88715 7.30098C2.32984 8.45608 2.03059 9.71862 2.01015 11.001H0.0271454ZM0.0271454 12.001H2.01015C2.03059 13.2833 2.32984 14.5459 2.88715 15.701C2.11715 15.4055 1.44315 14.9042 0.938769 14.2517C0.43439 13.5991 0.119033 12.8206 0.0271454 12.001ZM4.50015 16.001C4.44315 16.001 4.06515 15.901 3.64315 14.976C3.25071 14.0318 3.03643 13.0231 3.01115 12.001H5.98915C5.96386 13.0231 5.74959 14.0318 5.35715 14.976C4.93515 15.901 4.55715 16.001 4.50015 16.001ZM8.97314 12.001C8.88126 12.8206 8.5659 13.5991 8.06152 14.2517C7.55714 14.9042 6.88314 15.4055 6.11315 15.701C6.67045 14.5459 6.9697 13.2833 6.99015 12.001H8.97314ZM6.11315 7.30098C6.88314 7.59641 7.55714 8.09777 8.06152 8.75029C8.5659 9.4028 8.88126 10.1814 8.97314 11.001H6.99015C6.9697 9.71862 6.67045 8.45608 6.11315 7.30098V7.30098Z" fill="#006CBF"/>
</g>
<defs>
<clipPath id="clip0_7205_109073">
<rect width="16" height="16" fill="white"/>
</clipPath>
</defs>
</svg>
