<svg width="16" height="16" viewBox="0 0 16 16" fill="none" xmlns="http://www.w3.org/2000/svg">
<path fill-rule="evenodd" clip-rule="evenodd" d="M11.5 15C11.898 15 12.279 14.842 12.561 14.561C12.842 14.28 13 13.898 13 13.5V10.707L14.146 11.853C14.341 12.048 14.658 12.048 14.853 11.853C15.048 11.658 15.048 11.341 14.853 11.146L12.853 9.14601C12.658 8.95101 12.341 8.95101 12.146 9.14601L10.146 11.146C9.95102 11.341 9.95102 11.658 10.146 11.853C10.341 12.048 10.658 12.048 10.853 11.853L11.999 10.707V13.5C11.999 13.633 11.946 13.76 11.853 13.854C11.759 13.948 11.632 14 11.499 14H9.49902C9.22302 14 8.99902 14.224 8.99902 14.5C8.99902 14.776 9.22302 15 9.49902 15H11.5Z" fill="#006CBF"/>
<path d="M4.5 8C2.57 8 1 9.57 1 11.5C1 13.43 2.57 15 4.5 15C6.43 15 8 13.43 8 11.5C8 9.57 6.43 8 4.5 8ZM6.487 10H5.869C5.826 9.76 5.772 9.535 5.707 9.325C6.012 9.495 6.277 9.723 6.487 10ZM7 11.5C7 11.671 6.982 11.838 6.949 12H5.983C5.992 11.834 6 11.667 6 11.5C6 11.333 5.992 11.166 5.983 11H6.949C6.982 11.162 7 11.329 7 11.5ZM4.153 13H4.848C4.741 13.491 4.603 13.824 4.501 13.955C4.398 13.825 4.259 13.491 4.153 13ZM4.028 12C4.018 11.835 4 11.685 4 11.5C4 11.315 4.018 11.165 4.028 11H4.972C4.982 11.165 5 11.315 5 11.5C5 11.685 4.982 11.835 4.972 12H4.028ZM2 11.5C2 11.329 2.018 11.162 2.051 11H3.017C3.008 11.166 3 11.333 3 11.5C3 11.667 3.008 11.834 3.017 12H2.051C2.018 11.838 2 11.671 2 11.5ZM4.847 10H4.152C4.259 9.509 4.397 9.176 4.499 9.045C4.602 9.175 4.741 9.509 4.847 10ZM3.292 9.325C3.227 9.536 3.172 9.761 3.13 10H2.512C2.722 9.723 2.987 9.495 3.292 9.325ZM2.512 13H3.13C3.173 13.24 3.227 13.465 3.292 13.675C2.987 13.505 2.722 13.277 2.512 13ZM5.707 13.675C5.772 13.464 5.827 13.239 5.869 13H6.487C6.277 13.277 6.012 13.505 5.707 13.675Z" fill="#006CBF"/>
<path d="M13.75 2H11.207L10.353 1.146C10.259 1.052 10.132 1 9.99902 1H8.24902C7.56002 1 6.99902 1.561 6.99902 2.25V6.75C6.99902 7.439 7.56002 8 8.24902 8H13.749C14.438 8 14.999 7.439 14.999 6.75V3.25C14.999 2.561 14.438 2 13.749 2H13.75ZM8.25002 2H9.79302L10.293 2.5L9.79302 3H8.00002V2.25C8.00002 2.112 8.11202 2 8.25002 2ZM14 6.75C14 6.888 13.888 7 13.75 7H8.25002C8.11202 7 8.00002 6.888 8.00002 6.75V4H10C10.133 4 10.26 3.947 10.354 3.854L11.208 3H13.751C13.889 3 14.001 3.112 14.001 3.25V6.75H14Z" fill="#B27C00"/>
</svg>
