<svg width="16" height="16" viewBox="0 0 16 16" fill="none" xmlns="http://www.w3.org/2000/svg">
<g clip-path="url(#clip0_7205_109110)">
<path d="M11.5 5H8.5C8.36739 5 8.24021 4.94732 8.14645 4.85355C8.05268 4.75979 8 4.63261 8 4.5C8 4.36739 8.05268 4.24021 8.14645 4.14645C8.24021 4.05268 8.36739 4 8.5 4H11.5C11.6326 4 11.7598 4.05268 11.8536 4.14645C11.9473 4.24021 12 4.36739 12 4.5C12 4.63261 11.9473 4.75979 11.8536 4.85355C11.7598 4.94732 11.6326 5 11.5 5Z" fill="#202020"/>
<path d="M9.97749 11H11.5C11.6326 11 11.7598 10.9473 11.8536 10.8536C11.9473 10.7598 12 10.6326 12 10.5C12 10.3674 11.9473 10.2402 11.8536 10.1464C11.7598 10.0527 11.6326 10 11.5 10H9.79269C9.88391 10.3223 9.94648 10.6566 9.97749 11Z" fill="#202020"/>
<path d="M9.79324 13C9.88433 12.6777 9.94678 12.3434 9.97767 12H11.5C11.6326 12 11.7598 12.0527 11.8536 12.1464C11.9473 12.2402 12 12.3674 12 12.5C12 12.6326 11.9473 12.7598 11.8536 12.8536C11.7598 12.9473 11.6326 13 11.5 13H9.79324Z" fill="#202020"/>
<path d="M9.40079 14H12C12.2652 14 12.5196 13.8946 12.7071 13.7071C12.8946 13.5196 13 13.2652 13 13V3C13 2.73478 12.8946 2.48043 12.7071 2.29289C12.5196 2.10536 12.2652 2 12 2H8C7.73478 2 7.48043 2.10536 7.29289 2.29289C7.10536 2.48043 7 2.73478 7 3V6.60069C6.68321 6.43874 6.34864 6.30662 6 6.20801V3C6 2.46957 6.21071 1.96086 6.58579 1.58579C6.96086 1.21071 7.46957 1 8 1H12C12.5304 1 13.0391 1.21071 13.4142 1.58579C13.7893 1.96086 14 2.46957 14 3V13C14 13.5304 13.7893 14.0391 13.4142 14.4142C13.0391 14.7893 12.5304 15 12 15H8.74364C8.99716 14.6929 9.21799 14.3578 9.40079 14Z" fill="#202020"/>
<path d="M3.01115 11.001H5.98915C5.96386 9.97881 5.74959 8.97015 5.35715 8.02598C4.93515 7.10098 4.55715 7.00098 4.50015 7.00098C4.44315 7.00098 4.06515 7.10098 3.64315 8.02598C3.25071 8.97015 3.03643 9.97881 3.01115 11.001V11.001ZM0.0271454 11.001C0.119033 10.1814 0.43439 9.4028 0.938769 8.75029C1.44315 8.09777 2.11715 7.59641 2.88715 7.30098C2.32984 8.45608 2.03059 9.71862 2.01015 11.001H0.0271454ZM0.0271454 12.001H2.01015C2.03059 13.2833 2.32984 14.5459 2.88715 15.701C2.11715 15.4055 1.44315 14.9042 0.938769 14.2517C0.43439 13.5991 0.119033 12.8206 0.0271454 12.001ZM4.50015 16.001C4.44315 16.001 4.06515 15.901 3.64315 14.976C3.25071 14.0318 3.03643 13.0231 3.01115 12.001H5.98915C5.96386 13.0231 5.74959 14.0318 5.35715 14.976C4.93515 15.901 4.55715 16.001 4.50015 16.001ZM8.97314 12.001C8.88126 12.8206 8.5659 13.5991 8.06152 14.2517C7.55714 14.9042 6.88314 15.4055 6.11315 15.701C6.67045 14.5459 6.9697 13.2833 6.99015 12.001H8.97314ZM6.11315 7.30098C6.88314 7.59641 7.55714 8.09777 8.06152 8.75029C8.5659 9.4028 8.88126 10.1814 8.97314 11.001H6.99015C6.9697 9.71862 6.67045 8.45608 6.11315 7.30098V7.30098Z" fill="#006CBF"/>
</g>
<defs>
<clipPath id="clip0_7205_109110">
<rect width="16" height="16" fill="white"/>
</clipPath>
</defs>
</svg>
