<svg width="16" height="16" viewBox="0 0 16 16" fill="none" xmlns="http://www.w3.org/2000/svg">
<path fill-rule="evenodd" clip-rule="evenodd" d="M3.29648 6.13203C4.08172 3.73294 6.33848 2 9 2C12.3137 2 15 4.68629 15 8C15 11.1768 12.5311 13.7769 9.4074 13.9864C9.66347 13.4819 9.84403 12.9326 9.93422 12.3533C10.0626 12.1735 10.1901 11.9516 10.3126 11.6822C10.4073 11.4738 10.4945 11.2455 10.5727 11H9.97759C9.94665 10.6566 9.88417 10.3223 9.79304 10H10.8213C10.9356 9.3892 11 8.71396 11 8C11 7.28604 10.9356 6.6108 10.8213 6H7.17866C7.13998 6.20676 7.10701 6.4209 7.08032 6.64143C6.7775 6.48029 6.45782 6.34664 6.12461 6.2438C6.13658 6.1618 6.14938 6.08052 6.16299 6H4.41604C4.41595 6.00021 4.41614 5.99979 4.41604 6C4.03212 6.00576 3.65746 6.05148 3.29648 6.13203ZM10.3126 4.31781C9.87543 3.35608 9.37372 3 9 3C8.62628 3 8.12457 3.35608 7.68742 4.31781C7.5927 4.52619 7.50552 4.75446 7.42735 5H10.5727C10.4945 4.75446 10.4073 4.52619 10.3126 4.31781ZM6.38411 5C6.49428 4.6038 6.62614 4.23601 6.77705 3.90401C6.85596 3.7304 6.94287 3.56117 7.03766 3.39978C6.22525 3.74677 5.52341 4.30269 4.99963 5H6.38411ZM13.0004 11H11.6159C11.5057 11.3962 11.3739 11.764 11.2229 12.096C11.144 12.2696 11.0571 12.4388 10.9623 12.6002C11.7747 12.2532 12.4766 11.6973 13.0004 11ZM11.837 10H13.584C13.8516 9.38754 14 8.7111 14 8C14 7.2889 13.8516 6.61246 13.584 6H11.837C11.9431 6.6275 12 7.30146 12 8C12 8.69854 11.9431 9.3725 11.837 10ZM13.0004 5C12.4766 4.30269 11.7747 3.74677 10.9623 3.39978C11.0571 3.56117 11.144 3.7304 11.2229 3.90401C11.3739 4.23601 11.5057 4.6038 11.6159 5H13.0004Z" fill="#006CBF"/>
<path d="M4.5 16C2.019 16 0 13.981 0 11.5C0 9.019 2.019 7 4.5 7C6.981 7 9 9.019 9 11.5C9 13.981 6.981 16 4.5 16ZM4.5 8C2.57 8 1 9.57 1 11.5C1 13.43 2.57 15 4.5 15C6.43 15 8 13.43 8 11.5C8 9.57 6.43 8 4.5 8ZM4.5 13C3.673 13 3 12.327 3 11.5C3 10.673 3.673 10 4.5 10C5.327 10 6 10.673 6 11.5C6 12.327 5.327 13 4.5 13ZM4.5 11C4.224 11 4 11.225 4 11.5C4 11.775 4.224 12 4.5 12C4.776 12 5 11.775 5 11.5C5 11.225 4.776 11 4.5 11Z" fill="#202020"/>
</svg>
