<svg width="16" height="16" viewBox="0 0 16 16" fill="none" xmlns="http://www.w3.org/2000/svg">
<path d="M9.477 8.453L10.033 9.406L10.954 9L10.341 7.949C10.118 7.566 10 7.132 10 6.689V3H10.5C10.776 3 11 2.776 11 2.5C11 2.224 10.776 2 10.5 2H5.5C5.224 2 5 2.224 5 2.5C5 2.776 5.224 3 5.5 3H6V6.69C6 7.133 5.882 7.568 5.659 7.95L5.046 9.001L6.027 9.303L6.523 8.453C6.835 7.917 7 7.309 7 6.689V3H9V6.689C9 7.309 9.165 7.918 9.477 8.453Z" fill="#202020"/>
<path d="M5.5 14H11.259C12.417 14 13.138 12.744 12.555 11.744L10.954 9H5.046L4.69737 9.59753C4.88726 9.84883 5 10.1615 5 10.5V11H5.03682L5.62 10H10.379L11.69 12.248C11.884 12.581 11.644 13 11.258 13H6.9143C6.70789 13.582 6.15177 14 5.5 14Z" fill="#159195"/>
<path d="M4 10.5C4 10.2239 3.77614 10 3.5 10C3.22386 10 3 10.2239 3 10.5V12H1.5C1.22386 12 1 12.2239 1 12.5C1 12.7761 1.22386 13 1.5 13H3V14.5C3 14.7761 3.22386 15 3.5 15C3.77614 15 4 14.7761 4 14.5V13H5.5C5.77614 13 6 12.7761 6 12.5C6 12.2239 5.77614 12 5.5 12H4V10.5Z" fill="#202020"/>
</svg>
