<svg width="16" height="16" viewBox="0 0 16 16" fill="none" xmlns="http://www.w3.org/2000/svg">
<path d="M15 9.5C15 8.67157 14.3284 8 13.5 8H8.74284C8.99647 8.30711 9.21739 8.64222 9.40029 9H13.5C13.7761 9 14 9.22386 14 9.5V10C14 11.4376 12.5678 13 10 13C9.93047 13 9.86178 12.9989 9.79393 12.9966C9.69774 13.3375 9.56951 13.665 9.41269 13.9756C9.60311 13.9917 9.79893 14 10 14C13.1405 14 15 11.9714 15 10V9.5Z" fill="#202020"/>
<path fill-rule="evenodd" clip-rule="evenodd" d="M12.75 4.25C12.75 2.73122 11.5188 1.5 10 1.5C8.48122 1.5 7.25 2.73122 7.25 4.25C7.25 5.76878 8.48122 7 10 7C11.5188 7 12.75 5.76878 12.75 4.25ZM8.25 4.25C8.25 3.2835 9.0335 2.5 10 2.5C10.9665 2.5 11.75 3.2835 11.75 4.25C11.75 5.2165 10.9665 6 10 6C9.0335 6 8.25 5.2165 8.25 4.25Z" fill="#202020"/>
<path fill-rule="evenodd" clip-rule="evenodd" d="M4.5 16C6.98528 16 9 13.9853 9 11.5C9 9.01472 6.98528 7 4.5 7C2.01472 7 0 9.01472 0 11.5C0 13.9853 2.01472 16 4.5 16ZM4.49997 8.50342C3.45202 8.50342 2.63568 9.32081 2.64659 10.4577C2.64924 10.7338 2.87524 10.9555 3.15137 10.9529C3.4275 10.9502 3.6492 10.7242 3.64655 10.4481C3.64099 9.8691 4.0062 9.50342 4.49997 9.50342C4.97235 9.50342 5.35337 9.89531 5.35337 10.4529C5.35337 10.6547 5.28218 10.7679 4.99368 10.9968L4.7157 11.2118C4.20993 11.6161 3.99995 11.9293 3.99993 12.5003C3.99992 12.7764 4.22376 13.0003 4.49991 13.0003C4.74537 13.0003 4.94952 12.8234 4.99187 12.5902L5.0034 12.434C5.02024 12.2863 5.10295 12.1804 5.34869 11.9858L5.62574 11.7715C6.13905 11.3606 6.35337 11.0387 6.35337 10.4529C6.35337 9.34921 5.53102 8.50342 4.49997 8.50342ZM4.49993 13.3803C4.15502 13.3803 3.87542 13.6599 3.87542 14.0048C3.87542 14.3497 4.15502 14.6293 4.49993 14.6293C4.84484 14.6293 5.12444 14.3497 5.12444 14.0048C5.12444 13.6599 4.84484 13.3803 4.49993 13.3803Z" fill="#202020"/>
</svg>
