<svg width="16" height="16" viewBox="0 0 16 16" fill="none" xmlns="http://www.w3.org/2000/svg">
<path fill-rule="evenodd" clip-rule="evenodd" d="M2.18681 6.50864C2.84986 3.91642 5.20113 2 8 2C11.3137 2 14 4.68629 14 8C14 10.7989 12.0836 13.1501 9.49136 13.8132C9.81779 13.11 10 12.3263 10 11.5C10 10.98 9.92783 10.4768 9.79297 10H9.82134C9.93562 9.3892 10 8.71396 10 8C10 7.28604 9.93562 6.6108 9.82134 6H6.17866C6.16345 6.08132 6.14912 6.16378 6.1357 6.24732C5.82052 6.14928 5.49318 6.07882 5.15651 6.03878C5.15865 6.02583 5.16081 6.01291 5.16299 6H3.41604C3.39913 6.03871 3.3827 6.07767 3.36674 6.11688C2.95459 6.20321 2.55939 6.33568 2.18681 6.50864ZM9.31258 4.31781C8.87543 3.35608 8.37372 3 8 3C7.62628 3 7.12457 3.35608 6.68742 4.31781C6.5927 4.52619 6.50552 4.75446 6.42735 5H9.57265C9.49448 4.75446 9.4073 4.52619 9.31258 4.31781ZM5.38411 5C5.49428 4.6038 5.62614 4.23601 5.77705 3.90401C5.85596 3.7304 5.94287 3.56117 6.03766 3.39978C5.22525 3.74677 4.52341 4.30269 3.99963 5H5.38411ZM12.0004 11H10.6159C10.5057 11.3962 10.3739 11.764 10.2229 12.096C10.144 12.2696 10.0571 12.4388 9.96234 12.6002C10.7747 12.2532 11.4766 11.6973 12.0004 11ZM10.837 10H12.584C12.8516 9.38754 13 8.7111 13 8C13 7.2889 12.8516 6.61246 12.584 6H10.837C10.9431 6.6275 11 7.30146 11 8C11 8.69854 10.9431 9.3725 10.837 10ZM12.0004 5C11.4766 4.30269 10.7747 3.74677 9.96234 3.39978C10.0571 3.56117 10.144 3.7304 10.2229 3.90401C10.3739 4.23601 10.5057 4.6038 10.6159 5H12.0004Z" fill="#006CBF"/>
<path fill-rule="evenodd" clip-rule="evenodd" d="M4.5 16C6.98528 16 9 13.9853 9 11.5C9 9.01472 6.98528 7 4.5 7C2.01472 7 0 9.01472 0 11.5C0 13.9853 2.01472 16 4.5 16ZM4.49997 8.50342C3.45202 8.50342 2.63568 9.32081 2.64659 10.4577C2.64924 10.7338 2.87524 10.9555 3.15137 10.9529C3.4275 10.9502 3.6492 10.7242 3.64655 10.4481C3.64099 9.8691 4.0062 9.50342 4.49997 9.50342C4.97235 9.50342 5.35337 9.89531 5.35337 10.4529C5.35337 10.6547 5.28218 10.7679 4.99368 10.9968L4.7157 11.2118C4.20993 11.6161 3.99995 11.9293 3.99993 12.5003C3.99992 12.7764 4.22376 13.0003 4.49991 13.0003C4.74537 13.0003 4.94952 12.8234 4.99187 12.5902L5.0034 12.434C5.02024 12.2863 5.10295 12.1804 5.34869 11.9858L5.62574 11.7715C6.13905 11.3606 6.35337 11.0387 6.35337 10.4529C6.35337 9.34921 5.53102 8.50342 4.49997 8.50342ZM4.49993 13.3803C4.15502 13.3803 3.87542 13.6599 3.87542 14.0048C3.87542 14.3497 4.15502 14.6293 4.49993 14.6293C4.84484 14.6293 5.12444 14.3497 5.12444 14.0048C5.12444 13.6599 4.84484 13.3803 4.49993 13.3803Z" fill="#202020"/>
</svg>
