<svg width="16" height="16" viewBox="0 0 16 16" fill="none" xmlns="http://www.w3.org/2000/svg">
<path d="M13.5 12H13V9.5C13 8.673 12.327 8 11.5 8H10.449C10.237 6.748 9.252 5.763 8 5.551V4H8.5C9.327 4 10 3.327 10 2.5C10 1.673 9.327 1 8.5 1H6.5C5.673 1 5 1.673 5 2.5C5 3.327 5.673 4 6.5 4H7V5.551C5.748 5.763 4.763 6.748 4.551 8H3.5C2.673 8 2 8.673 2 9.5V12H1.5C0.673 12 0 12.673 0 13.5C0 14.327 0.673 15 1.5 15H3.5C4.327 15 5 14.327 5 13.5C5 12.673 4.327 12 3.5 12H3V9.5C3 9.225 3.224 9 3.5 9H4.551C4.791 10.416 6.017 11.5 7.5 11.5C8.983 11.5 10.21 10.416 10.449 9H11.5C11.776 9 12 9.225 12 9.5V12H11.5C10.673 12 10 12.673 10 13.5C10 14.327 10.673 15 11.5 15H13.5C14.327 15 15 14.327 15 13.5C15 12.673 14.327 12 13.5 12ZM6 2.5C6 2.225 6.224 2 6.5 2H8.5C8.776 2 9 2.225 9 2.5C9 2.775 8.776 3 8.5 3H6.5C6.224 3 6 2.775 6 2.5ZM4 13.5C4 13.775 3.776 14 3.5 14H1.5C1.224 14 1 13.775 1 13.5C1 13.225 1.224 13 1.5 13H3.5C3.776 13 4 13.225 4 13.5ZM7.5 10.5C6.397 10.5 5.5 9.603 5.5 8.5C5.5 7.397 6.397 6.5 7.5 6.5C8.603 6.5 9.5 7.397 9.5 8.5C9.5 9.603 8.603 10.5 7.5 10.5ZM13.5 14H11.5C11.224 14 11 13.775 11 13.5C11 13.225 11.224 13 11.5 13H13.5C13.776 13 14 13.225 14 13.5C14 13.775 13.776 14 13.5 14Z" fill="#202020"/>
</svg>
