<svg width="16" height="16" viewBox="0 0 16 16" fill="none" xmlns="http://www.w3.org/2000/svg">
<path d="M4.49963 2C3.11863 2 1.99963 3.119 1.99963 4.5V11.5C1.99963 12.881 3.11863 14 4.49963 14H11.4996C12.8806 14 13.9996 12.881 13.9996 11.5V4.5C13.9996 3.119 12.8806 2 11.4996 2H4.49963ZM12.9996 5H2.99963V4.5C2.99963 3.672 3.67163 3 4.49963 3H11.4996C12.3276 3 12.9996 3.672 12.9996 4.5V5ZM2.99963 6H12.9996V11.5C12.9996 12.328 12.3276 13 11.4996 13H4.49963C3.67163 13 2.99963 12.328 2.99963 11.5V6Z" fill="#202020"/>
<path d="M10.9996 7H7.99963C7.44963 7 6.99963 7.45 6.99963 8H4.99963C4.44963 8 3.99963 8.45 3.99963 9V11C3.99963 11.55 4.44963 12 4.99963 12H7.99963C8.54963 12 8.99963 11.55 8.99963 11H10.9996C11.5496 11 11.9996 10.55 11.9996 10V8C11.9996 7.45 11.5496 7 10.9996 7ZM4.99963 11V9.5H7.99963V11H4.99963ZM8.99963 10V9C8.99963 8.814 8.93463 8.649 8.84563 8.5H10.9996V10H8.99963Z" fill="#202020"/>
</svg>
