<svg width="16" height="16" viewBox="0 0 16 16" fill="none" xmlns="http://www.w3.org/2000/svg">
<g clip-path="url(#clip0_7205_109312)">
<path fill-rule="evenodd" clip-rule="evenodd" d="M4.99963 5.5C4.99963 4.119 6.11863 3 7.49963 3H12.4996C13.8806 3 14.9996 4.119 14.9996 5.5V7.25716C14.6925 7.00353 14.3574 6.78261 13.9996 6.59971V6H5.99963V10.5C5.99963 10.6174 6.01314 10.7316 6.03868 10.8413C6.0129 11.0572 5.99963 11.2771 5.99963 11.5C5.99963 11.8679 6.03576 12.2274 6.10466 12.5751C5.43802 12.1261 4.99963 11.3644 4.99963 10.5V5.5ZM6.08463 5H13.9146C13.7086 4.417 13.1526 4 12.4996 4H7.49963C6.84663 4 6.29063 4.417 6.08463 5Z" fill="#202020"/>
<path d="M-0.000366211 5.5C-0.000366211 5.776 0.223634 6 0.499634 6H3.49963C3.77563 6 3.99963 5.776 3.99963 5.5C3.99963 5.224 3.77563 5 3.49963 5H0.499634C0.223634 5 -0.000366211 5.224 -0.000366211 5.5Z" fill="#202020"/>
<path d="M-0.000366211 11.5C-0.000366211 11.776 0.223634 12 0.499634 12H3.49963C3.77563 12 3.99963 11.776 3.99963 11.5C3.99963 11.224 3.77563 11 3.49963 11H0.499634C0.223634 11 -0.000366211 11.224 -0.000366211 11.5Z" fill="#202020"/>
<path d="M2.49963 9C2.22363 9 1.99963 8.776 1.99963 8.5C1.99963 8.224 2.22363 8 2.49963 8H3.49963C3.77563 8 3.99963 8.224 3.99963 8.5C3.99963 8.776 3.77563 9 3.49963 9H2.49963Z" fill="#202020"/>
<path fill-rule="evenodd" clip-rule="evenodd" d="M8.99957 7.75839C9.73959 7.26392 10.6096 7 11.4996 7C12.6931 7 13.8377 7.47411 14.6816 8.31802C15.5255 9.16193 15.9996 10.3065 15.9996 11.5C15.9996 12.39 15.7357 13.26 15.2412 14.0001C14.7468 14.7401 14.044 15.3169 13.2217 15.6575C12.3994 15.9981 11.4946 16.0872 10.6217 15.9135C9.74881 15.7399 8.94699 15.3113 8.31766 14.682C7.68832 14.0526 7.25974 13.2508 7.0861 12.3779C6.91247 11.505 7.00158 10.6002 7.34218 9.77792C7.68277 8.95566 8.25955 8.25285 8.99957 7.75839ZM13.4996 12.5C13.4996 12.7652 13.3943 13.0196 13.2067 13.2071C13.0192 13.3946 12.7649 13.5 12.4996 13.5H10.4996C10.2344 13.5 9.98006 13.3946 9.79253 13.2071C9.60499 13.0196 9.49963 12.7652 9.49963 12.5V10.5C9.49963 10.2348 9.60499 9.98043 9.79253 9.79289C9.98006 9.60536 10.2344 9.5 10.4996 9.5H12.4996C12.7649 9.5 13.0192 9.60536 13.2067 9.79289C13.3943 9.98043 13.4996 10.2348 13.4996 10.5V12.5Z" fill="#C50F1F"/>
</g>
<defs>
<clipPath id="clip0_7205_109312">
<rect width="16" height="16" fill="white"/>
</clipPath>
</defs>
</svg>
