<svg width="16" height="16" viewBox="0 0 16 16" fill="none" xmlns="http://www.w3.org/2000/svg">
<path d="M4.5 2C3.119 2 2 3.119 2 4.5V11.5C2 12.881 3.119 14 4.5 14H11.5C12.881 14 14 12.881 14 11.5V4.5C14 3.119 12.881 2 11.5 2H4.5ZM13 5H3V4.5C3 3.672 3.672 3 4.5 3H11.5C12.328 3 13 3.672 13 4.5V5ZM3 6H13V11.5C13 12.328 12.328 13 11.5 13H4.5C3.672 13 3 12.328 3 11.5V6Z" fill="#202020"/>
<path d="M7 12H5C4.448 12 4 11.552 4 11V9C4 8.448 4.448 8 5 8H7C7.552 8 8 8.448 8 9V11C8 11.552 7.552 12 7 12ZM5 9V11H7V9H5ZM11 10H10C9.448 10 9 9.552 9 9V8C9 7.448 9.448 7 10 7H11C11.552 7 12 7.448 12 8V9C12 9.552 11.552 10 11 10ZM10 8V9H11V8H10Z" fill="#5C2E91"/>
</svg>
