<svg width="16" height="16" viewBox="0 0 16 16" fill="none" xmlns="http://www.w3.org/2000/svg">
<g clip-path="url(#clip0_7205_109259)">
<path fill-rule="evenodd" clip-rule="evenodd" d="M1.99854 4.5C1.99854 3.11929 3.11782 2 4.49854 2H11.4985C12.8792 2 13.9985 3.11929 13.9985 4.5V11.5C13.9985 12.8807 12.8792 14 11.4985 14H8.96178C8.98615 13.8699 8.99854 13.7371 8.99854 13.603V13H11.4985C12.327 13 12.9985 12.3284 12.9985 11.5V6H2.99854V6.2679L1.99854 6.69668V4.5ZM2.99854 5H12.9985V4.5C12.9985 3.67157 12.327 3 11.4985 3H4.49854C3.67011 3 2.99854 3.67157 2.99854 4.5V5Z" fill="#202020"/>
<path d="M7.80954 8.76703C7.68654 8.58003 7.51154 8.43403 7.30554 8.34603L4.44853 7.12203C4.30653 7.06103 4.15354 7.03003 3.99854 7.03003C3.84354 7.03003 3.69054 7.06103 3.54854 7.12203L0.691535 8.34603C0.485535 8.43403 0.310535 8.58103 0.187535 8.76703C0.0645352 8.95403 -0.00146484 9.17203 -0.00146484 9.39603V13.604C-0.00146484 13.828 0.0645352 14.046 0.187535 14.233C0.310535 14.42 0.485535 14.566 0.691535 14.654L3.54854 15.878C3.69054 15.939 3.84354 15.97 3.99854 15.97C4.15354 15.97 4.30653 15.939 4.44853 15.878L7.30554 14.654C7.51154 14.566 7.68654 14.419 7.80954 14.233C7.93254 14.046 7.99854 13.828 7.99854 13.604V9.39603C7.99854 9.17203 7.93254 8.95403 7.80954 8.76703ZM2.44554 11.974C2.35754 12.149 2.18054 12.25 1.99854 12.25C1.92354 12.25 1.84754 12.233 1.77454 12.197L1.27454 11.947C1.02754 11.823 0.927535 11.523 1.05054 11.276C1.17454 11.029 1.47554 10.93 1.72154 11.052L2.22154 11.302C2.46854 11.426 2.56854 11.726 2.44554 11.973V11.974ZM6.72154 9.94803L4.49754 11.06V14.501C4.49754 14.777 4.27354 15.001 3.99754 15.001C3.72154 15.001 3.49754 14.777 3.49754 14.501V11.06L1.27354 9.94803C1.02654 9.82403 0.926535 9.52403 1.04954 9.27703C1.17354 9.03003 1.47454 8.93203 1.72054 9.05303L3.99654 10.191L6.27254 9.05303C6.52054 8.93103 6.81954 9.03003 6.94354 9.27703C7.06654 9.52403 6.96654 9.82403 6.71954 9.94803H6.72154Z" fill="#202020"/>
</g>
<defs>
<clipPath id="clip0_7205_109259">
<rect width="16" height="16" fill="white"/>
</clipPath>
</defs>
</svg>
