<svg width="16" height="16" viewBox="0 0 16 16" fill="none" xmlns="http://www.w3.org/2000/svg">
<g clip-path="url(#clip0_7205_109269)">
<path d="M15.875 13.452L11.6 0.8C11.5228 0.568728 11.3752 0.367335 11.1781 0.223921C10.9809 0.0805074 10.7438 0.00222628 10.5 0L5.55299 0C5.28381 0.0192912 5.02632 0.117657 4.81283 0.282753C4.59934 0.447849 4.43937 0.672321 4.35299 0.928L0.128994 13.453C0.0688094 13.6291 0.0515502 13.8171 0.078652 14.0012C0.105754 14.1854 0.176433 14.3604 0.284811 14.5117C0.393188 14.663 0.536131 14.7863 0.701748 14.8712C0.867365 14.9561 1.05087 15.0003 1.23699 15H4.51799C4.76326 14.9997 5.00222 14.9223 5.20107 14.7788C5.39992 14.6352 5.54858 14.4327 5.62599 14.2L6.06799 12.891L9.01499 14.78C9.20494 14.9016 9.42211 14.9741 9.64699 14.991V14.991H14.767C14.9521 14.9906 15.1345 14.9464 15.2991 14.8618C15.4638 14.7773 15.6061 14.6548 15.7142 14.5046C15.8224 14.3544 15.8933 14.1806 15.9213 13.9977C15.9492 13.8147 15.9334 13.6277 15.875 13.452V13.452ZM9.75099 14C9.68009 14.0006 9.61057 13.9805 9.55099 13.942L3.54199 10.092L3.52599 10.08H6.81899L6.94399 9.763L7.97099 7.156L10.1 13.517C10.1191 13.5722 10.1246 13.6313 10.1161 13.6891C10.1076 13.7469 10.0853 13.8018 10.051 13.8492C10.0168 13.8966 9.97167 13.935 9.91945 13.9613C9.86722 13.9875 9.80944 14.0008 9.75099 14V14ZM14.767 14H11.067C11.1406 13.7372 11.133 13.4583 11.045 13.2L6.96799 1H10.5C10.5355 0.99982 10.5702 1.01083 10.5991 1.03148C10.628 1.05212 10.6496 1.08134 10.661 1.115L14.933 13.772C14.9425 13.7982 14.9455 13.8263 14.9416 13.8539C14.9377 13.8815 14.9271 13.9077 14.9107 13.9302C14.8943 13.9527 14.8726 13.9708 14.8475 13.983C14.8225 13.9952 14.7948 14.001 14.767 14V14Z" fill="#006CBF"/>
</g>
<defs>
<clipPath id="clip0_7205_109269">
<rect width="16" height="16" fill="white"/>
</clipPath>
</defs>
</svg>
