<svg width="16" height="16" viewBox="0 0 16 16" fill="none" xmlns="http://www.w3.org/2000/svg">
<g clip-path="url(#clip0_7205_109309)">
<path d="M7.49963 3C6.11863 3 4.99963 4.119 4.99963 5.5V10.5C4.99963 11.881 6.11863 13 7.49963 13H12.4996C13.8806 13 14.9996 11.881 14.9996 10.5V5.5C14.9996 4.119 13.8806 3 12.4996 3H7.49963ZM13.9146 5H6.08463C6.29063 4.417 6.84663 4 7.49963 4H12.4996C13.1526 4 13.7086 4.417 13.9146 5ZM5.99963 6H13.9996V10.5C13.9996 11.328 13.3276 12 12.4996 12H7.49963C6.67163 12 5.99963 11.328 5.99963 10.5V6Z" fill="#202020"/>
<path d="M0.499634 6C0.223634 6 -0.000366211 5.776 -0.000366211 5.5C-0.000366211 5.224 0.223634 5 0.499634 5H3.49963C3.77563 5 3.99963 5.224 3.99963 5.5C3.99963 5.776 3.77563 6 3.49963 6H0.499634ZM0.499634 12C0.223634 12 -0.000366211 11.776 -0.000366211 11.5C-0.000366211 11.224 0.223634 11 0.499634 11H3.49963C3.77563 11 3.99963 11.224 3.99963 11.5C3.99963 11.776 3.77563 12 3.49963 12H0.499634ZM1.99963 8.5C1.99963 8.776 2.22363 9 2.49963 9H3.49963C3.77563 9 3.99963 8.776 3.99963 8.5C3.99963 8.224 3.77563 8 3.49963 8H2.49963C2.22363 8 1.99963 8.224 1.99963 8.5Z" fill="#202020"/>
</g>
<defs>
<clipPath id="clip0_7205_109309">
<rect width="16" height="16" fill="white"/>
</clipPath>
</defs>
</svg>
