<svg width="16" height="16" viewBox="0 0 16 16" fill="none" xmlns="http://www.w3.org/2000/svg">
<path d="M7.507 3H10.507C11.335 3 12.007 3.672 12.007 4.5V5H12V5.5H11V5H11.007V4.5C11.007 4.224 10.783 4 10.507 4H7.507C7.231 4 7.007 4.224 7.007 4.5V5H7V5.5H6V5H6.007V4.5C6.007 3.672 6.679 3 7.507 3Z" fill="#202020"/>
<path d="M13 5C14.105 5 15 5.895 15 7V10.999C15 12.104 14.105 12.999 13 12.999H7.73257C7.90268 12.7049 8 12.3636 8 12V11.999H13C13.552 11.999 14 11.551 14 10.999V9H7.73169C7.38543 8.40259 6.73894 8 6 8H14V7C14 6.448 13.552 6 13 6H5C4.448 6 4 6.448 4 7V8C3.63594 8 3.29433 8.09772 3 8.26831V7C3 5.895 3.895 5 5 5H13Z" fill="#C50F1F"/>
<path d="M6 8V7.5C6 7.224 6.224 7 6.5 7C6.776 7 7 7.224 7 7.5V8.26831C6.70567 8.09772 6.36406 8 6 8Z" fill="#202020"/>
<path d="M11.5 10C11.224 10 11 9.776 11 9.5V7.5C11 7.224 11.224 7 11.5 7C11.776 7 12 7.224 12 7.5V9.5C12 9.776 11.776 10 11.5 10Z" fill="#202020"/>
<path d="M2.27 12.99C2.1 13.29 2 13.63 2 14V15H1C0.45 15 0 14.55 0 14V12C0 11.45 0.45 11 1 11H2V12C2 12.36 2.1 12.7 2.27 12.99ZM6 9H4C3.448 9 3 9.448 3 10V12C3 12.552 3.448 13 4 13H6C6.552 13 7 12.552 7 12V10C7 9.448 6.552 9 6 9ZM4 14C3.65 14 3.32 13.91 3.04 13.75C3.01 13.83 3 13.91 3 14V15C3 15.55 3.45 16 4 16H5C5.55 16 6 15.55 6 15V14H4Z" fill="#202020"/>
</svg>
