<svg width="16" height="16" viewBox="0 0 16 16" fill="none" xmlns="http://www.w3.org/2000/svg">
<path d="M7.49963 1C4.83363 1 1.99963 1.876 1.99963 3.5V12.5C1.99963 14.124 4.83363 15 7.49963 15C10.1656 15 12.9996 14.124 12.9996 12.5V3.5C12.9996 1.876 10.1656 1 7.49963 1ZM7.49963 2C10.2466 2 11.9996 2.889 11.9996 3.5C11.9996 4.111 10.2466 5 7.49963 5C4.75263 5 2.99963 4.111 2.99963 3.5C2.99963 2.889 4.75263 2 7.49963 2ZM6.99963 5.99V13.99C6.23863 13.959 5.56663 13.86 4.99963 13.72V5.738C5.63163 5.877 6.31463 5.962 6.99963 5.99ZM7.99963 5.99C8.68463 5.962 9.36763 5.877 9.99963 5.738V13.72C9.43263 13.86 8.76063 13.959 7.99963 13.99V5.99ZM2.99963 12.5V4.981C3.28763 5.163 3.62663 5.32 4.00163 5.454C4.00063 5.469 3.99963 5.484 3.99963 5.499V13.388C3.35663 13.106 2.99963 12.774 2.99963 12.499V12.5ZM10.9996 5.5C10.9996 5.485 10.9996 5.47 10.9976 5.455C11.3726 5.321 11.7116 5.163 11.9996 4.982V12.501C11.9996 12.777 11.6426 13.109 10.9996 13.39V5.5Z" fill="#202020"/>
</svg>
