<svg width="16" height="16" viewBox="0 0 16 16" fill="none" xmlns="http://www.w3.org/2000/svg">
<path d="M8.72918 4.56346C9.47673 3.81592 10.6887 3.81592 11.4363 4.56347C12.1838 5.31102 12.1838 6.52303 11.4363 7.27058L4.26641 14.4404C3.51886 15.1879 2.30685 15.1879 1.55931 14.4404C0.81176 13.6928 0.811764 12.4808 1.55931 11.7333L8.72918 4.56346ZM8.24965 6.4572L2.26642 12.4404C1.90939 12.7974 1.90939 13.3763 2.26642 13.7333C2.62344 14.0903 3.20228 14.0903 3.55931 13.7333L9.54254 7.75009L8.24965 6.4572ZM10.2497 7.04299L10.7292 6.56347C11.0862 6.20645 11.0862 5.6276 10.7292 5.27057C10.3722 4.91355 9.79331 4.91355 9.43629 5.27057L8.95676 5.7501L10.2497 7.04299Z" fill="#202020"/>
<path d="M13.9996 1.5C13.9996 1.22386 13.7758 1 13.4996 1C13.2235 1 12.9996 1.22386 12.9996 1.5V2H12.4996C12.2235 2 11.9996 2.22386 11.9996 2.5C11.9996 2.77614 12.2235 3 12.4996 3H12.9996V3.5C12.9996 3.77614 13.2235 4 13.4996 4C13.7758 4 13.9996 3.77614 13.9996 3.5V3H14.4996C14.7758 3 14.9996 2.77614 14.9996 2.5C14.9996 2.22386 14.7758 2 14.4996 2H13.9996V1.5Z" fill="#B27C00"/>
<path d="M3.99963 3.5C3.99963 3.22386 3.77578 3 3.49963 3C3.22349 3 2.99963 3.22386 2.99963 3.5V4H2.49963C2.22349 4 1.99963 4.22386 1.99963 4.5C1.99963 4.77614 2.22349 5 2.49963 5H2.99963V5.5C2.99963 5.77614 3.22349 6 3.49963 6C3.77578 6 3.99963 5.77614 3.99963 5.5V5H4.49963C4.77578 5 4.99963 4.77614 4.99963 4.5C4.99963 4.22386 4.77578 4 4.49963 4H3.99963V3.5Z" fill="#B27C00"/>
<path d="M12.9996 11.5C12.9996 11.7761 12.7758 12 12.4996 12H11.9996V12.5C11.9996 12.7761 11.7758 13 11.4996 13C11.2235 13 10.9996 12.7761 10.9996 12.5V12H10.4996C10.2235 12 9.99963 11.7761 9.99963 11.5C9.99963 11.2239 10.2235 11 10.4996 11H10.9996V10.5C10.9996 10.2239 11.2235 10 11.4996 10C11.7758 10 11.9996 10.2239 11.9996 10.5V11H12.4996C12.7758 11 12.9996 11.2239 12.9996 11.5Z" fill="#B27C00"/>
</svg>
