<svg width="16" height="16" viewBox="0 0 16 16" fill="none" xmlns="http://www.w3.org/2000/svg">
<path d="M12.2351 2.379C12.1791 2.156 11.9791 2 11.7501 2H10.2501C10.0211 2 9.8211 2.156 9.7651 2.379L9.2651 4.379C9.2141 4.584 9.2971 4.799 9.4731 4.916L10.0001 5.268V10C10.0001 10.552 10.4481 11 11.0001 11C11.5521 11 12.0001 10.552 12.0001 10V5.268L12.5271 4.916C12.7031 4.799 12.7861 4.583 12.7351 4.379L12.2351 2.379Z" fill="#202020"/>
<path fill-rule="evenodd" clip-rule="evenodd" d="M7.5 11L7.511 12H6.5C6.367 12 6.24 12.053 6.146 12.146C6.052 12.24 6 12.367 6 12.5V13H5.5C5.367 13 5.24 13.053 5.146 13.146C5.052 13.24 5 13.367 5 13.5V14H1.5C1.367 14 1.24 14.053 1.146 14.146C1.052 14.24 1 14.367 1 14.5C1 14.633 1.053 14.76 1.146 14.854C1.24 14.948 1.367 15 1.5 15H5V15.5C5 15.633 5.053 15.76 5.146 15.854C5.24 15.948 5.367 16 5.5 16H10.5C10.633 16 10.76 15.947 10.854 15.854C10.948 15.76 11 15.633 11 15.5V15H14.5C14.633 15 14.76 14.947 14.854 14.854C14.948 14.76 15 14.633 15 14.5C15 14.367 14.947 14.24 14.854 14.146C14.76 14.052 14.633 14 14.5 14H11V13.5C11 13.367 10.947 13.24 10.854 13.146C10.76 13.052 10.633 13 10.5 13H10V12.5C10 12.367 9.947 12.24 9.854 12.146C9.76 12.052 9.633 12 9.5 12H8.511L8.5 11H7.5ZM7 13.5V13H9V13.5C9 13.633 9.053 13.76 9.146 13.854C9.24 13.948 9.367 14 9.5 14H10V15H6V14H6.5C6.633 14 6.76 13.947 6.854 13.854C6.948 13.76 7 13.633 7 13.5Z" fill="#202020"/>
<path d="M6 2.37995C6 2.23595 6.119 2.12695 6.253 2.12695C6.326 2.12695 8 2.66795 8 4.49895C8 5.52295 7.382 6.40195 6.5 6.78795V9.99995C6.5 10.552 6.052 11 5.5 11C4.948 11 4.5 10.552 4.5 9.99995V6.78295C3.895 6.50895 3 5.85595 3 4.49895C3 2.66795 4.674 2.12795 4.747 2.12795C4.881 2.12795 5 2.23595 5 2.37995V3.99895C5 4.27895 5.22 4.49895 5.5 4.49895C5.78 4.49895 6 4.27895 6 3.99895V2.37995Z" fill="#202020"/>
</svg>
