<svg width="16" height="16" viewBox="0 0 16 16" fill="none" xmlns="http://www.w3.org/2000/svg">
<path fill-rule="evenodd" clip-rule="evenodd" d="M8.5 1C7.847 1 7.291 1.417 7.085 2H6.5C5.672 2 5 2.672 5 3.5V8H6V3.5C6 3.224 6.224 3 6.5 3H7.085C7.291 3.583 7.847 4 8.5 4H11.5C12.153 4 12.709 3.583 12.915 3H13.5C13.776 3 14 3.224 14 3.5V13.5C14 13.776 13.776 14 13.5 14H7.73364C7.42978 14.5243 6.89471 14.8985 6.26885 14.9823C6.3442 14.9939 6.4214 15 6.5 15H13.5C14.328 15 15 14.328 15 13.5V3.5C15 2.672 14.328 2 13.5 2H12.915C12.709 1.417 12.153 1 11.5 1H8.5ZM8 2.5C8 2.224 8.224 2 8.5 2H11.5C11.776 2 12 2.224 12 2.5C12 2.776 11.776 3 11.5 3H8.5C8.224 3 8 2.776 8 2.5Z" fill="#202020"/>
<path d="M9.50001 10.9993C9.50034 10.9993 9.49967 10.9993 9.50001 10.9993Z" fill="#11910D"/>
<path d="M7.97708 9.68433L9.14601 10.8533C9.24375 10.95 9.37234 10.999 9.50001 10.9993C9.62767 10.999 9.75426 10.951 9.85201 10.8533L12.852 7.85325C13.047 7.65825 13.047 7.34125 12.852 7.14625C12.657 6.95125 12.34 6.95125 12.145 7.14625L9.49901 9.79225L8.35301 8.64625C8.15801 8.45125 7.84101 8.45125 7.64601 8.64625C7.61345 8.6788 7.58634 8.71475 7.56465 8.75297C7.77588 9.01715 7.92163 9.33587 7.97708 9.68433Z" fill="#11910D"/>
<path d="M6.00195 9H3.00195C2.45195 9 2.00195 9.45 2.00195 10V11H1.00195C0.451953 11 0.00195312 11.45 0.00195312 12V15C0.00195312 15.55 0.451953 16 1.00195 16H4.00195C4.55195 16 5.00195 15.55 5.00195 15V14H6.00195C6.55195 14 7.00195 13.55 7.00195 13V10C7.00195 9.45 6.55195 9 6.00195 9ZM6.00195 13H4.50195V13.5H4.00195V15H1.00195V12H2.50195V11.5H3.00195V10H6.00195V13Z" fill="#202020"/>
<path d="M4.00195 11H2.00195V13C2.00195 13.55 2.45195 14 3.00195 14H5.00195V12C5.00195 11.45 4.55195 11 4.00195 11ZM4.00195 13H3.00195V12H4.00195V13Z" fill="#B27C00"/>
</svg>
