<svg width="16" height="16" viewBox="0 0 16 16" fill="none" xmlns="http://www.w3.org/2000/svg">
<g clip-path="url(#clip0_7205_109400)">
<path d="M8.00828 8.73568C8.26532 8.52253 8.50264 8.28642 8.7171 8.0305L9.4796 8.793L11.7826 6.49C11.9776 6.295 12.2946 6.295 12.4896 6.49C12.6846 6.685 12.6846 7.002 12.4896 7.197H12.4906L9.8336 9.854C9.6386 10.049 9.3216 10.049 9.1266 9.854L8.00828 8.73568Z" fill="#11910D"/>
<path d="M5.23955 9.95066C4.99754 9.9832 4.75055 10 4.49963 10C4.40137 10 4.30371 9.99742 4.20672 9.99233C4.85926 12.3014 6.98596 13.999 9.50061 13.999C12.5326 13.999 15.0006 11.531 15.0006 8.49901C15.0006 8.22301 14.7766 7.99901 14.5006 7.99901L14.4996 8.00001C14.2236 8.00001 13.9996 8.22401 13.9996 8.50001C13.9996 10.981 11.9806 13 9.49961 13C7.52591 13 5.8446 11.7223 5.23955 9.95066Z" fill="#202020"/>
<path d="M9.97721 4.00001H12.2926L11.6466 4.64601C11.4516 4.84101 11.4516 5.15801 11.6466 5.35301C11.7446 5.45101 11.8726 5.49901 12.0006 5.49901C12.1286 5.49901 12.2566 5.45001 12.3546 5.35301L13.8546 3.85301C14.0496 3.65801 14.0496 3.34101 13.8546 3.14601L12.3546 1.64601C12.1596 1.45101 11.8426 1.45101 11.6476 1.64601C11.4526 1.84101 11.4526 2.15801 11.6476 2.35301L12.2936 2.99901H9.79232C9.88363 3.3216 9.94624 3.65624 9.97721 4.00001Z" fill="#202020"/>
<path fill-rule="evenodd" clip-rule="evenodd" d="M1.99957 0.758387C2.73959 0.26392 3.60962 0 4.49964 0C5.69311 0 6.8377 0.474106 7.68162 1.31802C8.52553 2.16193 8.99964 3.30653 8.99964 4.5C8.99964 5.39002 8.73572 6.26004 8.24125 7.00007C7.74678 7.74009 7.04398 8.31686 6.22171 8.65746C5.39944 8.99805 4.49464 9.08717 3.62173 8.91353C2.74881 8.7399 1.94699 8.31132 1.31766 7.68198C0.688319 7.05264 0.259736 6.25082 0.0861021 5.37791C-0.0875314 4.50499 0.00158355 3.60019 0.342178 2.77792C0.682772 1.95566 1.25955 1.25285 1.99957 0.758387ZM6.71263 4.937L3.74263 6.587C3.66652 6.62932 3.58068 6.65103 3.49359 6.64998C3.40651 6.64893 3.32122 6.62515 3.24615 6.581C3.17108 6.53685 3.10885 6.47386 3.06561 6.39826C3.02237 6.32266 2.99963 6.23708 2.99963 6.15V2.85C2.99963 2.76291 3.02237 2.67733 3.06561 2.60173C3.10885 2.52614 3.17108 2.46315 3.24615 2.41899C3.32122 2.37484 3.40651 2.35106 3.49359 2.35001C3.58068 2.34896 3.66652 2.37067 3.74263 2.413L6.71263 4.063C6.79054 4.10631 6.85545 4.16967 6.90065 4.2465C6.94584 4.32334 6.96967 4.41086 6.96967 4.5C6.96967 4.58914 6.94584 4.67666 6.90065 4.75349C6.85545 4.83033 6.79054 4.89368 6.71263 4.937Z" fill="#11910D"/>
</g>
<defs>
<clipPath id="clip0_7205_109400">
<rect width="16" height="16" fill="white"/>
</clipPath>
</defs>
</svg>
