<svg width="16" height="16" viewBox="0 0 16 16" fill="none" xmlns="http://www.w3.org/2000/svg">
<path d="M6.49963 1C5.84663 1 5.29063 1.417 5.08463 2H4.49963C3.67163 2 2.99963 2.672 2.99963 3.5V11.5C2.99963 12.328 3.67163 13 4.49963 13H10.4996C11.3276 13 11.9996 12.328 11.9996 11.5V3.5C11.9996 2.672 11.3276 2 10.4996 2H9.91463C9.70863 1.417 9.15263 1 8.49963 1H6.49963ZM5.99963 2.5C5.99963 2.224 6.22363 2 6.49963 2H8.49963C8.77563 2 8.99963 2.224 8.99963 2.5C8.99963 2.776 8.77563 3 8.49963 3H6.49963C6.22363 3 5.99963 2.776 5.99963 2.5ZM4.49963 3H5.08463C5.29063 3.583 5.84663 4 6.49963 4H8.49963C9.15263 4 9.70863 3.583 9.91463 3H10.4996C10.7756 3 10.9996 3.224 10.9996 3.5V11.5C10.9996 11.776 10.7756 12 10.4996 12H4.49963C4.22363 12 3.99963 11.776 3.99963 11.5V3.5C3.99963 3.224 4.22363 3 4.49963 3ZM12.9996 11.5V3.27C13.5996 3.62 13.9996 4.26 13.9996 5V11.5C13.9996 13.43 12.4296 15 10.4996 15H5.99963C5.25963 15 4.61963 14.6 4.26963 14H10.4996C11.8796 14 12.9996 12.88 12.9996 11.5Z" fill="#202020"/>
<path d="M6.99964 9.50023C6.87164 9.50023 6.74364 9.45123 6.64564 9.35423L5.14564 7.85423C4.95064 7.65923 4.95064 7.34223 5.14564 7.14723C5.34064 6.95223 5.65764 6.95223 5.85264 7.14723L6.99864 8.29323L9.14464 6.14723C9.33964 5.95223 9.65664 5.95223 9.85164 6.14723C10.0466 6.34223 10.0466 6.65923 9.85164 6.85423L7.35164 9.35423C7.25364 9.45223 7.12564 9.50023 6.99764 9.50023H6.99964Z" fill="#11910D"/>
</svg>
