<svg width="16" height="16" viewBox="0 0 16 16" fill="none" xmlns="http://www.w3.org/2000/svg">
<g clip-path="url(#clip0_7205_109395)">
<path fill-rule="evenodd" clip-rule="evenodd" d="M9.99962 4.5C9.99962 5.32843 10.6712 6 11.4996 6H13.9996V13C13.9996 13.5523 13.5519 14 12.9996 14H7.74432C7.61897 14.356 7.45012 14.6915 7.2442 15H12.9996C14.1042 15 14.9996 14.1046 14.9996 13V5.41421C14.9996 5.01639 14.8416 4.63486 14.5603 4.35355L11.6461 1.43934C11.3648 1.15804 10.9832 1 10.5854 1H8.74246C8.99609 1.30711 9.21701 1.64222 9.39991 2H9.99962V4.5ZM11.4996 5H13.7925L10.9996 2.20711V4.5C10.9996 4.77614 11.2235 5 11.4996 5Z" fill="#202020"/>
<path d="M5.77686 9.8506C5.36698 9.94807 4.93933 9.99967 4.49963 9.99967C3.58419 9.99967 2.72099 9.77602 1.96168 9.38037C1.61977 9.54267 1.30276 9.75948 1.02408 10.0254C0.367669 10.6818 -0.00109864 11.5721 -0.00109863 12.5004C-0.00109863 13.4287 0.367669 14.319 1.02408 14.9754C1.68049 15.6318 2.57077 16.0006 3.49908 16.0006C4.42738 16.0006 5.31767 15.6318 5.97408 14.9754C6.06516 14.8811 6.11556 14.7548 6.11442 14.6237C6.11328 14.4926 6.06069 14.3672 5.96799 14.2745C5.87528 14.1818 5.74988 14.1292 5.61878 14.1281C5.48768 14.1269 5.36138 14.1773 5.26708 14.2684C4.79059 14.7228 4.15747 14.9762 3.49908 14.9762C2.84069 14.9762 2.20757 14.7228 1.73108 14.2684C1.49886 14.0363 1.31466 13.7606 1.18898 13.4573C1.0633 13.1539 0.998614 12.8288 0.998614 12.5004C0.998614 12.1721 1.0633 11.8469 1.18898 11.5436C1.31466 11.2402 1.49886 10.9646 1.73108 10.7324C2.20746 10.2778 2.84062 10.0242 3.49908 10.0242C4.15754 10.0242 4.7907 10.2778 5.26708 10.7324C5.35078 10.8157 5.42831 10.9049 5.49908 10.9994H4.49908C4.36647 10.9994 4.23929 11.0521 4.14553 11.1459C4.05176 11.2396 3.99908 11.3668 3.99908 11.4994C3.99908 11.632 4.05176 11.7592 4.14553 11.853C4.23929 11.9467 4.36647 11.9994 4.49908 11.9994H6.49908C6.63169 11.9994 6.75886 11.9467 6.85263 11.853C6.9464 11.7592 6.99908 11.632 6.99908 11.4994V9.49942C6.99908 9.46745 6.99602 9.43579 6.99006 9.40484C6.67593 9.56465 6.34441 9.69516 5.99908 9.79279V10.0514L5.97408 10.0254C5.9103 9.96455 5.8445 9.90626 5.77686 9.8506Z" fill="#006CBF"/>
<path fill-rule="evenodd" clip-rule="evenodd" d="M1.99957 0.758387C2.73959 0.26392 3.60962 0 4.49964 0C5.69311 0 6.8377 0.474106 7.68162 1.31802C8.52553 2.16193 8.99964 3.30653 8.99964 4.5C8.99964 5.39002 8.73572 6.26004 8.24125 7.00007C7.74678 7.74009 7.04398 8.31686 6.22171 8.65746C5.39944 8.99805 4.49464 9.08717 3.62173 8.91353C2.74881 8.7399 1.94699 8.31132 1.31766 7.68198C0.688319 7.05264 0.259736 6.25082 0.0861021 5.37791C-0.0875314 4.50499 0.00158355 3.60019 0.342178 2.77792C0.682772 1.95566 1.25955 1.25285 1.99957 0.758387ZM6.71263 4.937L3.74263 6.587C3.66652 6.62932 3.58068 6.65103 3.49359 6.64998C3.40651 6.64893 3.32122 6.62515 3.24615 6.581C3.17108 6.53685 3.10885 6.47386 3.06561 6.39826C3.02237 6.32266 2.99963 6.23708 2.99963 6.15V2.85C2.99963 2.76291 3.02237 2.67733 3.06561 2.60173C3.10885 2.52614 3.17108 2.46315 3.24615 2.41899C3.32122 2.37484 3.40651 2.35106 3.49359 2.35001C3.58068 2.34896 3.66652 2.37067 3.74263 2.413L6.71263 4.063C6.79054 4.10631 6.85545 4.16967 6.90065 4.2465C6.94584 4.32334 6.96967 4.41086 6.96967 4.5C6.96967 4.58914 6.94584 4.67666 6.90065 4.75349C6.85545 4.83033 6.79054 4.89368 6.71263 4.937Z" fill="#11910D"/>
</g>
<defs>
<clipPath id="clip0_7205_109395">
<rect width="16" height="16" fill="white"/>
</clipPath>
</defs>
</svg>
