<svg width="16" height="16" viewBox="0 0 16 16" fill="none" xmlns="http://www.w3.org/2000/svg">
<path d="M7 1C5.89543 1 5 1.89543 5 3V13C5 14.1046 5.89543 15 7 15H13C14.1046 15 15 14.1046 15 13V5.41421C15 5.01639 14.842 4.63486 14.5607 4.35355L11.6464 1.43934C11.3651 1.15804 10.9836 1 10.5858 1H7ZM6 3C6 2.44772 6.44772 2 7 2H10V4.5C10 5.32843 10.6716 6 11.5 6H14V13C14 13.5523 13.5523 14 13 14H7C6.44772 14 6 13.5523 6 13V3ZM13.7929 5H11.5C11.2239 5 11 4.77614 11 4.5V2.20711L13.7929 5Z" fill="#202020"/>
<path d="M0.5 6C0.224 6 0 5.776 0 5.5C0 5.224 0.224 5 0.5 5H3.5C3.776 5 4 5.224 4 5.5C4 5.776 3.776 6 3.5 6H0.5ZM0.5 12C0.224 12 0 11.776 0 11.5C0 11.224 0.224 11 0.5 11H3.5C3.776 11 4 11.224 4 11.5C4 11.776 3.776 12 3.5 12H0.5ZM2 8.5C2 8.776 2.224 9 2.5 9H3.5C3.776 9 4 8.776 4 8.5C4 8.224 3.776 8 3.5 8H2.5C2.224 8 2 8.224 2 8.5Z" fill="#202020"/>
</svg>
