<svg width="16" height="16" viewBox="0 0 16 16" fill="none" xmlns="http://www.w3.org/2000/svg">
<path fill-rule="evenodd" clip-rule="evenodd" d="M2 4.5C2 3.11929 3.11929 2 4.5 2H11.5C12.8807 2 14 3.11929 14 4.5V11.5C14 12.8807 12.8807 14 11.5 14H9.19L9.63971 13.475C9.76058 13.3338 9.85317 13.1725 9.91423 13H11.5C12.3284 13 13 12.3284 13 11.5V6H3V9.62902C2.99389 9.62362 2.98774 9.61827 2.98154 9.61297C2.70945 9.37762 2.3614 9.24869 2.00166 9.24997L2 9.24997V4.5ZM3 5H13V4.5C13 3.67157 12.3284 3 11.5 3H4.5C3.67157 3 3 3.67157 3 4.5V5Z" fill="#202020"/>
<path fill-rule="evenodd" clip-rule="evenodd" d="M2.32706 10.3704C2.53669 10.5501 2.56097 10.8657 2.38128 11.0754L1.16035 12.5L2.38128 13.9246C2.56097 14.1343 2.53669 14.4499 2.32706 14.6296C2.11742 14.8093 1.80181 14.7851 1.62212 14.5754L0.12231 12.8254C-0.0381658 12.6382 -0.0381658 12.3619 0.12231 12.1746L1.62212 10.4246C1.80181 10.215 2.11742 10.1907 2.32706 10.3704Z" fill="#202020"/>
<path fill-rule="evenodd" clip-rule="evenodd" d="M6.67572 10.3704C6.88536 10.1907 7.20097 10.215 7.38066 10.4246L8.88047 12.1746C9.04095 12.3619 9.04095 12.6382 8.88047 12.8254L7.38066 14.5754C7.20097 14.7851 6.88536 14.8093 6.67572 14.6296C6.46609 14.4499 6.44181 14.1343 6.6215 13.9246L7.84243 12.5L6.6215 11.0754C6.44181 10.8657 6.46609 10.5501 6.67572 10.3704Z" fill="#202020"/>
<path d="M6.00158 11.5V13.5C6.00158 13.6326 5.9489 13.7598 5.85513 13.8536C5.76136 13.9473 5.63419 14 5.50158 14H3.50158C3.36897 14 3.24179 13.9473 3.14803 13.8536C3.05426 13.7598 3.00158 13.6326 3.00158 13.5V11.5C3.00158 11.3674 3.05426 11.2402 3.14803 11.1464C3.24179 11.0527 3.36897 11 3.50158 11H5.50158C5.63419 11 5.76136 11.0527 5.85513 11.1464C5.9489 11.2402 6.00158 11.3674 6.00158 11.5Z" fill="#006CBF"/>
</svg>
