<svg width="16" height="16" viewBox="0 0 16 16" fill="none" xmlns="http://www.w3.org/2000/svg">
<g clip-path="url(#clip0_7205_108722)">
<path d="M3.374 4.08199C3.557 3.87499 3.538 3.55899 3.332 3.37599C3.125 3.19299 2.809 3.21199 2.626 3.41799L0.626 5.66799C0.458 5.85699 0.458 6.14299 0.626 6.33199L2.626 8.58199C2.81 8.78899 3.126 8.80699 3.332 8.62399C3.539 8.43999 3.557 8.12399 3.374 7.91799L1.669 5.99999L3.374 4.08199Z" fill="#202020"/>
<path d="M11.374 3.41799C11.19 3.21099 10.874 3.19299 10.668 3.37599C10.461 3.55999 10.442 3.87599 10.626 4.08199L12.331 5.99999L10.626 7.91799C10.443 8.12399 10.462 8.44099 10.668 8.62399C10.874 8.80699 11.19 8.78799 11.374 8.58199L13.374 6.33199C13.542 6.14299 13.542 5.85699 13.374 5.66799L11.374 3.41799Z" fill="#202020"/>
<path fill-rule="evenodd" clip-rule="evenodd" d="M6 8H8C8.552 8 9 7.551 9 7V5C9 4.449 8.552 4 8 4H6C5.448 4 5 4.449 5 5V7C5 7.551 5.448 8 6 8ZM6 7V5H8V7H6Z" fill="#006CBF"/>
<path d="M15.5449 8.45396C15.2519 8.16162 14.8549 7.99744 14.4409 7.99744C14.027 7.99744 13.63 8.16162 13.3369 8.45396L9.04895 12.7414C8.69299 13.0975 8.44065 13.5437 8.31895 14.0323L8.01895 15.2431C7.99361 15.3452 7.99509 15.452 8.02324 15.5534C8.0514 15.6547 8.10528 15.747 8.17964 15.8213C8.25401 15.8957 8.34633 15.9496 8.44766 15.9777C8.54899 16.0059 8.65588 16.0074 8.75795 15.982L9.96895 15.6821C10.4572 15.5598 10.9031 15.3071 11.2589 14.9512L15.5479 10.6637C15.6931 10.5185 15.8081 10.3461 15.8865 10.1564C15.9649 9.96675 16.0051 9.76346 16.0049 9.5582C16.0046 9.35295 15.9638 9.14976 15.8849 8.96028C15.806 8.7708 15.6905 8.59875 15.5449 8.45396V8.45396Z" fill="#006CBF"/>
</g>
<defs>
<clipPath id="clip0_7205_108722">
<rect width="16" height="16" fill="white"/>
</clipPath>
</defs>
</svg>
