<svg width="16" height="16" viewBox="0 0 16 16" fill="none" xmlns="http://www.w3.org/2000/svg">
<path fill-rule="evenodd" clip-rule="evenodd" d="M11.5 3.5C11.5 4.70948 10.6411 5.71836 9.5 5.94999V8H13C13.3978 8 13.7794 8.15804 14.0607 8.43934C14.342 8.72064 14.5 9.10217 14.5 9.5V11.063C15.3626 11.285 16 12.0681 16 13C16 14.1046 15.1046 15 14 15C12.8954 15 12 14.1046 12 13C12 12.0681 12.6374 11.285 13.5 11.063V9.5C13.5 9.36739 13.4473 9.24022 13.3536 9.14645C13.2598 9.05268 13.1326 9 13 9H5C4.86739 9 4.74021 9.05268 4.64645 9.14645C4.55268 9.24022 4.5 9.36739 4.5 9.5V9.99997H3.50148L3.5 9.99997V9.5C3.5 9.10217 3.65804 8.72064 3.93934 8.43934C4.22064 8.15804 4.60217 8 5 8H8.5V5.94999C7.35888 5.71836 6.5 4.70948 6.5 3.5C6.5 2.11929 7.61929 1 9 1C10.3807 1 11.5 2.11929 11.5 3.5ZM7.5 3.5C7.5 2.67157 8.17157 2 9 2C9.82843 2 10.5 2.67157 10.5 3.5C10.5 4.32843 9.82843 5 9 5C8.17157 5 7.5 4.32843 7.5 3.5ZM14 12C13.4477 12 13 12.4477 13 13C13 13.5523 13.4477 14 14 14C14.5523 14 15 13.5523 15 13C15 12.4477 14.5523 12 14 12Z" fill="#202020"/>
<path d="M8.5 10.1667V10.1919L8.52164 10.2172L8.5 10.1667Z" fill="#202020"/>
<path d="M4 15L3.98919 15H4.01081L4 15Z" fill="#202020"/>
<path fill-rule="evenodd" clip-rule="evenodd" d="M2.32706 10.3704C2.53669 10.5501 2.56097 10.8657 2.38128 11.0754L1.16035 12.5L2.38128 13.9246C2.56097 14.1343 2.53669 14.4499 2.32706 14.6296C2.11742 14.8093 1.80181 14.7851 1.62212 14.5754L0.12231 12.8254C-0.0381658 12.6382 -0.0381658 12.3619 0.12231 12.1746L1.62212 10.4246C1.80181 10.215 2.11742 10.1907 2.32706 10.3704Z" fill="#202020"/>
<path fill-rule="evenodd" clip-rule="evenodd" d="M6.67572 10.3704C6.88536 10.1907 7.20097 10.215 7.38066 10.4246L8.88047 12.1746C9.04095 12.3619 9.04095 12.6382 8.88047 12.8254L7.38066 14.5754C7.20097 14.7851 6.88536 14.8093 6.67572 14.6296C6.46609 14.4499 6.44181 14.1343 6.6215 13.9246L7.84243 12.5L6.6215 11.0754C6.44181 10.8657 6.46609 10.5501 6.67572 10.3704Z" fill="#202020"/>
<path d="M6.00157 11.5V13.5C6.00157 13.6326 5.94889 13.7598 5.85512 13.8536C5.76136 13.9473 5.63418 14 5.50157 14H3.50157C3.36896 14 3.24179 13.9473 3.14802 13.8536C3.05425 13.7598 3.00157 13.6326 3.00157 13.5V11.5C3.00157 11.3674 3.05425 11.2402 3.14802 11.1464C3.24179 11.0527 3.36896 11 3.50157 11H5.50157C5.63418 11 5.76136 11.0527 5.85512 11.1464C5.94889 11.2402 6.00157 11.3674 6.00157 11.5Z" fill="#006CBF"/>
</svg>
