<svg width="16" height="16" viewBox="0 0 16 16" fill="none" xmlns="http://www.w3.org/2000/svg">
<path d="M12.561 4.35398L9.647 1.43998C9.366 1.15898 8.984 1.00098 8.586 1.00098H5C3.895 1.00098 3 1.89598 3 3.00098V9.63598C3.122 9.74498 3.229 9.86998 3.31 10.014C3.374 10.005 3.438 10.001 3.502 10.001H4.001V2.99998C4.001 2.44798 4.449 1.99998 5.001 1.99998H8.001V4.49998C8.001 5.32798 8.673 5.99998 9.501 5.99998H12.001V13C12.001 13.552 11.553 14 11.001 14H9.191L8.334 15H11.001C12.106 15 13.001 14.105 13.001 13V5.41398C13.001 5.01598 12.843 4.63498 12.562 4.35298L12.561 4.35398ZM9.5 4.99998C9.224 4.99998 9 4.77598 9 4.49998V2.20698L11.793 4.99998H9.5Z" fill="#202020"/>
<path fill-rule="evenodd" clip-rule="evenodd" d="M2.327 10.37C2.537 10.55 2.561 10.865 2.381 11.075L1.16 12.5L2.381 13.925C2.561 14.135 2.536 14.45 2.327 14.63C2.117 14.81 1.802 14.786 1.622 14.576L0.121999 12.825C-0.0380011 12.638 -0.0380011 12.361 0.121999 12.174L1.622 10.424C1.802 10.214 2.117 10.19 2.327 10.37Z" fill="#202020"/>
<path fill-rule="evenodd" clip-rule="evenodd" d="M6.676 10.37C6.886 10.19 7.201 10.215 7.381 10.424L8.881 12.174C9.041 12.361 9.041 12.638 8.881 12.825L7.381 14.575C7.201 14.785 6.886 14.809 6.676 14.629C6.466 14.449 6.442 14.134 6.622 13.924L7.843 12.499L6.622 11.074C6.442 10.864 6.467 10.55 6.676 10.37Z" fill="#202020"/>
<path d="M6.00101 11.5V13.5C6.00101 13.633 5.94801 13.76 5.85501 13.854C5.76101 13.948 5.63401 14 5.50101 14H3.50101C3.36801 14 3.24101 13.947 3.14701 13.854C3.05301 13.76 3.00101 13.633 3.00101 13.5V11.5C3.00101 11.367 3.05401 11.24 3.14701 11.146C3.24101 11.052 3.36801 11 3.50101 11H5.50101C5.63401 11 5.76101 11.053 5.85501 11.146C5.94901 11.24 6.00101 11.367 6.00101 11.5Z" fill="#006CBF"/>
</svg>
