<svg width="16" height="16" viewBox="0 0 16 16" fill="none" xmlns="http://www.w3.org/2000/svg">
<g clip-path="url(#clip0_7205_108755)">
<path fill-rule="evenodd" clip-rule="evenodd" d="M8.001 1.99998H7.12198L6.12298 1.00098H8.586C8.984 1.00098 9.366 1.15898 9.647 1.43998L12.561 4.35398L12.562 4.35298C12.843 4.63498 13.001 5.01598 13.001 5.41398V13C13.001 14.105 12.106 15 11.001 15H8.334L9.191 14H11.001C11.553 14 12.001 13.552 12.001 13V5.99998H9.501C8.673 5.99998 8.001 5.32798 8.001 4.49998V1.99998ZM9 4.49998C9 4.77598 9.224 4.99998 9.5 4.99998H11.793L9 2.20698V4.49998Z" fill="#202020"/>
<path d="M3.69844 6.77115C3.79411 6.83147 3.89565 6.88038 4.001 6.91741V10.001H3.502C3.438 10.001 3.374 10.005 3.31 10.014C3.229 9.86998 3.122 9.74498 3 9.63598V5.57137C3 5.57138 3 5.57136 3 5.57137L3 6H3.08339C3.19559 6.31897 3.41229 6.59075 3.69844 6.77115Z" fill="#202020"/>
<path d="M3 5.43319C3 5.43319 3 5.43318 3 5.43319Z" fill="#202020"/>
<path d="M2.381 11.075C2.561 10.865 2.537 10.55 2.327 10.37C2.117 10.19 1.802 10.214 1.622 10.424L0.121999 12.174C-0.0380011 12.361 -0.0380011 12.638 0.121999 12.825L1.622 14.576C1.802 14.786 2.117 14.81 2.327 14.63C2.536 14.45 2.561 14.135 2.381 13.925L1.16 12.5L2.381 11.075Z" fill="#202020"/>
<path d="M6.676 10.37C6.886 10.19 7.201 10.215 7.381 10.424L8.881 12.174C9.041 12.361 9.041 12.638 8.881 12.825L7.381 14.575C7.201 14.785 6.886 14.809 6.676 14.629C6.466 14.449 6.442 14.134 6.622 13.924L7.843 12.499L6.622 11.074C6.442 10.864 6.467 10.55 6.676 10.37Z" fill="#202020"/>
<path d="M6.00101 11.5V13.5C6.00101 13.633 5.94801 13.76 5.85501 13.854C5.76101 13.948 5.63401 14 5.50101 14H3.50101C3.36801 14 3.24101 13.947 3.14701 13.854C3.05301 13.76 3.00101 13.633 3.00101 13.5V11.5C3.00101 11.367 3.05401 11.24 3.14701 11.146C3.24101 11.052 3.36801 11 3.50101 11H5.50101C5.63401 11 5.76101 11.053 5.85501 11.146C5.94901 11.24 6.00101 11.367 6.00101 11.5Z" fill="#006CBF"/>
<path d="M4.854 5.854L6.854 3.854C6.90056 3.80755 6.93751 3.75238 6.96271 3.69163C6.98792 3.63089 7.00089 3.56577 7.00089 3.5C7.00089 3.43423 6.98792 3.36911 6.96271 3.30837C6.93751 3.24762 6.90056 3.19245 6.854 3.146L4.854 1.146C4.76011 1.05211 4.63278 0.999368 4.5 0.999368C4.36722 0.999368 4.23989 1.05211 4.146 1.146C4.05211 1.23989 3.99937 1.36722 3.99937 1.5C3.99937 1.63278 4.05211 1.76011 4.146 1.854L5.293 3L2.5 3C2.10218 3 1.72064 2.84196 1.43934 2.56066C1.15804 2.27936 1 1.89782 1 1.5L1 0.5C1 0.367392 0.947322 0.240215 0.853554 0.146447C0.759786 0.0526784 0.632608 -2.76522e-08 0.5 -2.18557e-08C0.367392 -1.60592e-08 0.240214 0.0526784 0.146446 0.146447C0.0526781 0.240215 1.60592e-08 0.367392 2.18557e-08 0.5L6.55671e-08 1.5C9.45495e-08 2.16304 0.263392 2.79893 0.732233 3.26777C1.20107 3.73661 1.83696 4 2.5 4L5.293 4L4.146 5.146C4.05211 5.23989 3.99937 5.36722 3.99937 5.5C3.99937 5.63278 4.05211 5.76011 4.146 5.854C4.23989 5.94789 4.36722 6.00063 4.5 6.00063C4.63278 6.00063 4.76011 5.94789 4.854 5.854V5.854Z" fill="#006CBF"/>
</g>
<defs>
<clipPath id="clip0_7205_108755">
<rect width="16" height="16" fill="white"/>
</clipPath>
</defs>
</svg>
