<svg width="16" height="16" viewBox="0 0 16 16" fill="none" xmlns="http://www.w3.org/2000/svg">
<path d="M1 3.5C1 2.67157 1.67157 2 2.5 2H6C6.8178 2 7.54389 2.39267 8 2.99976C8.45612 2.39267 9.1822 2 10 2H13.5C14.3284 2 15 2.67157 15 3.5V12.5C15 13.3284 14.3284 14 13.5 14H10C9.74975 14 9.50808 13.9632 9.28011 13.8948L9.63971 13.475C9.76113 13.3331 9.85401 13.171 9.91506 12.9976C9.94318 12.9992 9.97149 13 10 13H13.5C13.7761 13 14 12.7761 14 12.5V3.5C14 3.22386 13.7761 3 13.5 3H10C9.17157 3 8.5 3.67157 8.5 4.5V10.1919L8.1399 9.77097C7.96715 9.56977 7.74585 9.41982 7.5 9.33326V4.5C7.5 3.67157 6.82843 3 6 3H2.5C2.22386 3 2 3.22386 2 3.5V9.24997C1.78375 9.25025 1.57009 9.29707 1.37353 9.38728C1.23726 9.44981 1.11143 9.53217 1 9.63138V3.5Z" fill="#202020"/>
<path fill-rule="evenodd" clip-rule="evenodd" d="M2.32706 10.3704C2.53669 10.5501 2.56097 10.8657 2.38128 11.0754L1.16035 12.5L2.38128 13.9246C2.56097 14.1343 2.53669 14.4499 2.32706 14.6296C2.11742 14.8093 1.80181 14.7851 1.62212 14.5754L0.12231 12.8254C-0.0381657 12.6382 -0.0381657 12.3619 0.12231 12.1746L1.62212 10.4246C1.80181 10.215 2.11742 10.1907 2.32706 10.3704Z" fill="#202020"/>
<path fill-rule="evenodd" clip-rule="evenodd" d="M6.67572 10.3704C6.88536 10.1907 7.20097 10.215 7.38066 10.4246L8.88047 12.1746C9.04095 12.3619 9.04095 12.6382 8.88047 12.8254L7.38066 14.5754C7.20097 14.7851 6.88536 14.8093 6.67572 14.6296C6.46609 14.4499 6.44181 14.1343 6.6215 13.9246L7.84243 12.5L6.6215 11.0754C6.44181 10.8657 6.46609 10.5501 6.67572 10.3704Z" fill="#202020"/>
<path d="M6.00158 11.5V13.5C6.00158 13.6326 5.9489 13.7598 5.85513 13.8536C5.76136 13.9473 5.63419 14 5.50158 14H3.50158C3.36897 14 3.24179 13.9473 3.14802 13.8536C3.05426 13.7598 3.00158 13.6326 3.00158 13.5V11.5C3.00158 11.3674 3.05426 11.2402 3.14802 11.1464C3.24179 11.0527 3.36897 11 3.50158 11H5.50158C5.63419 11 5.76136 11.0527 5.85513 11.1464C5.9489 11.2402 6.00158 11.3674 6.00158 11.5Z" fill="#006CBF"/>
</svg>
