<svg width="16" height="16" viewBox="0 0 16 16" fill="none" xmlns="http://www.w3.org/2000/svg">
<path d="M6.507 3H9.507C10.335 3 11.007 3.672 11.007 4.5V5H11V5.5H10V5H10.007V4.5C10.007 4.224 9.783 4 9.507 4H6.507C6.231 4 6.007 4.224 6.007 4.5V5H6V5.5H5V5H5.007V4.5C5.007 3.672 5.679 3 6.507 3Z" fill="#202020"/>
<path fill-rule="evenodd" clip-rule="evenodd" d="M12 5C13.105 5 14 5.895 14 7V10.999C14 12.104 13.105 12.999 12 12.999H9.91458C9.97081 12.8398 10.0002 12.671 10.0002 12.4995C10.0002 12.3276 9.97069 12.1585 9.91425 11.999H12C12.552 11.999 13 11.551 13 10.999V9H3V9.62902C2.99389 9.62362 2.98774 9.61827 2.98154 9.61297C2.70945 9.37762 2.3614 9.24869 2.00166 9.24997L2 9.24997V7C2 5.895 2.895 5 4 5H12ZM13 8V7C13 6.448 12.552 6 12 6H4C3.448 6 3 6.448 3 7V8H13Z" fill="#C50F1F"/>
<path d="M5.4946 9.99997C5.22108 9.99707 5 9.7742 5 9.5V7.5C5 7.224 5.224 7 5.5 7C5.776 7 6 7.224 6 7.5V9.5C6 9.55379 5.99149 9.6056 5.97575 9.65417C5.88446 9.73948 5.80406 9.83571 5.73634 9.94067C5.67005 9.97631 5.59481 9.99744 5.51488 9.99978C5.51033 9.99982 5.50578 9.99989 5.50123 9.99997H5.4946Z" fill="#202020"/>
<path d="M10.5 10C10.224 10 10 9.776 10 9.5V7.5C10 7.224 10.224 7 10.5 7C10.776 7 11 7.224 11 7.5V9.5C11 9.776 10.776 10 10.5 10Z" fill="#202020"/>
<path fill-rule="evenodd" clip-rule="evenodd" d="M2.32706 10.3704C2.53669 10.5501 2.56097 10.8657 2.38128 11.0754L1.16035 12.5L2.38128 13.9246C2.56097 14.1343 2.53669 14.4499 2.32706 14.6296C2.11742 14.8093 1.80181 14.7851 1.62212 14.5754L0.12231 12.8254C-0.0381658 12.6382 -0.0381658 12.3619 0.12231 12.1746L1.62212 10.4246C1.80181 10.215 2.11742 10.1907 2.32706 10.3704Z" fill="#202020"/>
<path fill-rule="evenodd" clip-rule="evenodd" d="M6.67572 10.3704C6.88536 10.1907 7.20097 10.215 7.38066 10.4246L8.88047 12.1746C9.04095 12.3619 9.04095 12.6382 8.88047 12.8254L7.38066 14.5754C7.20097 14.7851 6.88536 14.8093 6.67572 14.6296C6.46609 14.4499 6.44181 14.1343 6.6215 13.9246L7.84243 12.5L6.6215 11.0754C6.44181 10.8657 6.46609 10.5501 6.67572 10.3704Z" fill="#202020"/>
<path d="M6.00158 11.5V13.5C6.00158 13.6326 5.9489 13.7598 5.85513 13.8536C5.76136 13.9473 5.63419 14 5.50158 14H3.50158C3.36897 14 3.24179 13.9473 3.14803 13.8536C3.05426 13.7598 3.00158 13.6326 3.00158 13.5V11.5C3.00158 11.3674 3.05426 11.2402 3.14803 11.1464C3.24179 11.0527 3.36897 11 3.50158 11H5.50158C5.63419 11 5.76136 11.0527 5.85513 11.1464C5.9489 11.2402 6.00158 11.3674 6.00158 11.5Z" fill="#006CBF"/>
</svg>
