<svg width="16" height="16" viewBox="0 0 16 16" fill="none" xmlns="http://www.w3.org/2000/svg">
<path fill-rule="evenodd" clip-rule="evenodd" d="M2.13149 9.25517C2.04534 8.85038 2 8.43048 2 8C2 4.68629 4.68629 2 8 2C11.3137 2 14 4.68629 14 8C14 10.8625 11.9955 13.2568 9.31353 13.8558L9.63971 13.475C9.85376 13.2249 9.97909 12.912 9.99775 12.5849C10.7951 12.237 11.4842 11.6872 12.0004 11H10.6159C10.5057 11.3962 10.3739 11.764 10.2229 12.096C10.1545 12.2465 10.0801 12.3937 9.99976 12.5354C10 12.5234 10.0002 12.5115 10.0002 12.4995C10.0002 12.1417 9.87234 11.7957 9.63971 11.524L9.46302 11.3175C9.50126 11.2152 9.53785 11.1093 9.57265 11H9.19141L8.33585 10H9.82134C9.93562 9.3892 10 8.71396 10 8C10 7.28604 9.93562 6.6108 9.82134 6H6.17866C6.06438 6.6108 6 7.28604 6 8C6 8.54141 6.03702 9.06055 6.10475 9.54621C6.07759 9.56649 6.05104 9.58775 6.02516 9.60997C5.89272 9.72333 5.78077 9.85864 5.6942 10.01C5.63019 10.0021 5.56571 9.99876 5.50123 9.99997H5.16298C5.05694 9.37248 5 8.69853 5 8C5 7.30146 5.05694 6.6275 5.16299 6H3.41604C3.14845 6.61246 3 7.2889 3 8C3 8.7111 3.14845 9.38754 3.41604 10H3.48592C3.4269 10.0005 3.36796 10.0048 3.3095 10.013C3.22465 9.86132 3.11361 9.7259 2.98154 9.61297C2.74234 9.40607 2.44443 9.28141 2.13149 9.25517ZM9.31258 4.31781C8.87543 3.35608 8.37372 3 8 3C7.62628 3 7.12457 3.35608 6.68742 4.31781C6.5927 4.52619 6.50552 4.75446 6.42735 5H9.57265C9.49448 4.75446 9.4073 4.52619 9.31258 4.31781ZM5.38411 5C5.49428 4.6038 5.62614 4.23601 5.77705 3.90401C5.85596 3.7304 5.94287 3.56117 6.03766 3.39978C5.22525 3.74677 4.52341 4.30269 3.99963 5H5.38411ZM10.837 10H12.584C12.8516 9.38754 13 8.7111 13 8C13 7.2889 12.8516 6.61246 12.584 6H10.837C10.9431 6.6275 11 7.30146 11 8C11 8.69854 10.9431 9.3725 10.837 10ZM12.0004 5C11.4766 4.30269 10.7747 3.74677 9.96234 3.39978C10.0571 3.56117 10.144 3.7304 10.2229 3.90401C10.3739 4.23601 10.5057 4.6038 10.6159 5H12.0004Z" fill="#006CBF"/>
<path fill-rule="evenodd" clip-rule="evenodd" d="M2.32706 10.3704C2.53669 10.5501 2.56097 10.8657 2.38128 11.0754L1.16035 12.5L2.38128 13.9246C2.56097 14.1343 2.53669 14.4499 2.32706 14.6296C2.11742 14.8093 1.80181 14.7851 1.62212 14.5754L0.12231 12.8254C-0.0381658 12.6382 -0.0381658 12.3619 0.12231 12.1746L1.62212 10.4246C1.80181 10.215 2.11742 10.1907 2.32706 10.3704Z" fill="#202020"/>
<path fill-rule="evenodd" clip-rule="evenodd" d="M6.67572 10.3704C6.88536 10.1907 7.20097 10.215 7.38066 10.4246L8.88047 12.1746C9.04095 12.3619 9.04095 12.6382 8.88047 12.8254L7.38066 14.5754C7.20097 14.7851 6.88536 14.8093 6.67572 14.6296C6.46609 14.4499 6.44181 14.1343 6.6215 13.9246L7.84243 12.5L6.6215 11.0754C6.44181 10.8657 6.46609 10.5501 6.67572 10.3704Z" fill="#202020"/>
<path d="M6.00158 11.5V13.5C6.00158 13.6326 5.9489 13.7598 5.85513 13.8536C5.76136 13.9473 5.63419 14 5.50158 14H3.50158C3.36897 14 3.24179 13.9473 3.14803 13.8536C3.05426 13.7598 3.00158 13.6326 3.00158 13.5V11.5C3.00158 11.3674 3.05426 11.2402 3.14803 11.1464C3.24179 11.0527 3.36897 11 3.50158 11H5.50158C5.63419 11 5.76136 11.0527 5.85513 11.1464C5.9489 11.2402 6.00158 11.3674 6.00158 11.5Z" fill="#006CBF"/>
</svg>
