<svg width="16" height="16" viewBox="0 0 16 16" fill="none" xmlns="http://www.w3.org/2000/svg">
<g clip-path="url(#clip0_7205_109476)">
<path fill-rule="evenodd" clip-rule="evenodd" d="M11.9995 6.414V7.5H12.0005V8.36579L11.0012 9.36469L11.0015 8.061H10.9995V7H9.49951C8.67151 7 7.99951 6.328 7.99951 5.5V4H4.99951C4.44751 4 3.99951 4.448 3.99951 5V13C3.99951 13.552 4.44751 14 4.99951 14H7.28762L7.04054 14.9981L7.04006 15H4.99951C3.89451 15 2.99951 14.105 2.99951 13V5C2.99951 3.895 3.89451 3 4.99951 3H8.58551C8.98351 3 9.36551 3.158 9.64651 3.439L11.5605 5.353C11.8415 5.635 11.9995 6.016 11.9995 6.414ZM10.7925 6L8.99951 4.207V5.5C8.99951 5.776 9.22351 6 9.49951 6H10.7925Z" fill="#202020"/>
<path d="M14.0005 7.03092V6.41C14.0005 5.48 13.6405 4.6 12.9705 3.94L11.0605 2.03C10.4105 1.37 9.51051 1 8.59051 1H7.00051C6.26051 1 5.62051 1.4 5.27051 2H8.59051C9.24051 2 9.89051 2.27 10.3505 2.73L12.2705 4.65C12.7405 5.12 13.0005 5.75 13.0005 6.41V7.43232C13.3014 7.22926 13.6423 7.0923 14.0005 7.03092Z" fill="#202020"/>
<path d="M15.5445 8.45396C15.2514 8.16162 14.8544 7.99744 14.4405 7.99744C14.0265 7.99744 13.6295 8.16162 13.3365 8.45396L9.04846 12.7414C8.69251 13.0975 8.44016 13.5437 8.31846 14.0323L8.01846 15.2431C7.99312 15.3452 7.9946 15.452 8.02276 15.5534C8.05091 15.6547 8.10479 15.747 8.17915 15.8213C8.25352 15.8957 8.34585 15.9496 8.44717 15.9777C8.5485 16.0059 8.65539 16.0074 8.75746 15.982L9.96846 15.6821C10.4567 15.5598 10.9026 15.3071 11.2585 14.9512L15.5475 10.6637C15.6926 10.5185 15.8076 10.3461 15.886 10.1564C15.9644 9.96675 16.0047 9.76346 16.0044 9.5582C16.0041 9.35295 15.9633 9.14976 15.8844 8.96028C15.8055 8.7708 15.69 8.59875 15.5445 8.45396V8.45396Z" fill="#006CBF"/>
</g>
<defs>
<clipPath id="clip0_7205_109476">
<rect width="16" height="16" fill="white"/>
</clipPath>
</defs>
</svg>
