<svg width="16" height="16" viewBox="0 0 16 16" fill="none" xmlns="http://www.w3.org/2000/svg">
<path fill-rule="evenodd" clip-rule="evenodd" d="M10.5 5.99982C10.0822 5.68597 9.5628 5.5 9 5.5C7.61929 5.5 6.5 6.61929 6.5 8C6.5 9.38071 7.61929 10.5 9 10.5C9.7079 10.5 10.3471 10.2058 10.8019 9.73294C11.1168 10.1959 11.6479 10.5 12.25 10.5C13.2165 10.5 14 9.7165 14 8.75V8C14 5.23858 11.7614 3 9 3C6.23858 3 4 5.23858 4 8C4 8.5226 4.08018 9.02648 4.2289 9.5H5.29076C5.10325 9.03678 5 8.53045 5 8C5 5.79086 6.79086 4 9 4C11.2091 4 13 5.79086 13 8V8.75C13 9.16421 12.6642 9.5 12.25 9.5C11.8358 9.5 11.5 9.16421 11.5 8.75V6C11.5 5.72386 11.2761 5.5 11 5.5C10.7239 5.5 10.5001 5.72376 10.5 5.99982ZM9 6.5C9.82843 6.5 10.5 7.17157 10.5 8C10.5 8.82843 9.82843 9.5 9 9.5C8.17157 9.5 7.5 8.82843 7.5 8C7.5 7.17157 8.17157 6.5 9 6.5Z" fill="#202020"/>
<path d="M8.79895 11.995C8.98006 12.3035 9.04178 12.6594 8.9841 13C8.9894 13 8.9947 13 9 13C9.57389 13 10.1252 12.9033 10.6385 12.7253C10.8613 12.6481 11 12.4315 11 12.1957C11 11.8814 10.6592 11.6736 10.3607 11.7723C9.92649 11.9159 9.44943 12 9 12C8.93258 12 8.86555 11.9983 8.79895 11.995Z" fill="#202020"/>
<path d="M6.38191 10.674C6.20191 10.465 5.88691 10.44 5.67691 10.62C5.46791 10.8 5.44291 11.114 5.62291 11.324L6.84391 12.749L5.62291 14.174C5.44291 14.384 5.46691 14.699 5.67691 14.879C5.88691 15.059 6.20191 15.035 6.38191 14.825L7.88191 13.075C8.04191 12.888 8.04191 12.611 7.88191 12.424L6.38191 10.674Z" fill="#202020"/>
<path d="M3.38193 11.325C3.56193 11.115 3.53793 10.8 3.32793 10.62V10.621C3.11793 10.441 2.80293 10.465 2.62293 10.675L1.12293 12.425C0.96293 12.612 0.96293 12.889 1.12293 13.076L2.62293 14.826C2.80293 15.036 3.11793 15.06 3.32793 14.88C3.53693 14.7 3.56193 14.385 3.38193 14.175L2.16093 12.75L3.38193 11.325Z" fill="#202020"/>
</svg>
