<svg width="16" height="16" viewBox="0 0 16 16" fill="none" xmlns="http://www.w3.org/2000/svg">
<path fill-rule="evenodd" clip-rule="evenodd" d="M7.5 3.99982C7.08217 3.68597 6.5628 3.5 6 3.5C4.61929 3.5 3.5 4.61929 3.5 6C3.5 7.38071 4.61929 8.5 6 8.5C6.37399 8.5 6.7288 8.41788 7.04738 8.27068C7.44547 7.72274 7.94223 7.25113 8.51157 6.88194C8.50397 6.83911 8.5 6.79502 8.5 6.75V4C8.5 3.72386 8.27614 3.5 8 3.5C7.72392 3.5 7.5001 3.72376 7.5 3.99982ZM6 4.5C6.82843 4.5 7.5 5.17157 7.5 6C7.5 6.82843 6.82843 7.5 6 7.5C5.17157 7.5 4.5 6.82843 4.5 6C4.5 5.17157 5.17157 4.5 6 4.5Z" fill="#202020"/>
<path d="M10 6.20703V6C10 3.79086 8.20914 2 6 2C3.79086 2 2 3.79086 2 6C2 8.12904 3.66335 9.86959 5.76143 9.993L5.7575 10L5.78337 9.99423C5.85509 9.99806 5.92732 10 6 10C6.069 10 6.13865 9.99802 6.20869 9.99414C6.11664 10.3182 6.05356 10.6545 6.02243 11C6.01496 11 6.00748 11 6 11C3.23858 11 1 8.76142 1 6C1 3.23858 3.23858 1 6 1C8.76142 1 11 3.23858 11 6V6.02242C10.6566 6.05337 10.3223 6.11588 10 6.20703Z" fill="#202020"/>
<path fill-rule="evenodd" clip-rule="evenodd" d="M16 11.5C16 13.9853 13.9853 16 11.5 16C9.01472 16 7 13.9853 7 11.5C7 9.01472 9.01472 7 11.5 7C13.9853 7 16 9.01472 16 11.5ZM13.8536 9.64645C14.0488 9.84171 14.0488 10.1583 13.8536 10.3536L10.8536 13.3536C10.6583 13.5488 10.3417 13.5488 10.1464 13.3536L9.14645 12.3536C8.95118 12.1583 8.95118 11.8417 9.14645 11.6464C9.34171 11.4512 9.65829 11.4512 9.85355 11.6464L10.5 12.2929L13.1464 9.64645C13.3417 9.45118 13.6583 9.45118 13.8536 9.64645Z" fill="#11910D"/>
</svg>
