<svg width="16" height="16" viewBox="0 0 16 16" fill="none" xmlns="http://www.w3.org/2000/svg">
<path fill-rule="evenodd" clip-rule="evenodd" d="M5.00001 4.99998H8.00001C8.55101 4.99998 9.00001 4.55198 9.00001 3.99998V2.99998C9.00001 2.44798 8.55101 1.99998 8.00001 1.99998H5.00001C4.44901 1.99998 4.00001 2.44798 4.00001 2.99998V3.99998C4.00001 4.55198 4.44901 4.99998 5.00001 4.99998ZM5.00001 3.99998V2.99998H8.00001V3.99998H5.00001Z" fill="#202020"/>
<path d="M6.29749 9.71105C6.46716 9.2175 6.7051 8.75569 7.00001 8.3369V7.99998H7.25718C7.57054 7.62055 7.93381 7.28387 8.33695 6.99998H7.00001C6.44901 6.99998 6.00001 7.44798 6.00001 7.99998V8.99998C6.00001 9.27806 6.11396 9.52974 6.29749 9.71105Z" fill="#202020"/>
<path d="M2.35401 4.64698C2.54901 4.84198 2.54901 5.15898 2.35401 5.35398L2.35501 5.35498C2.25701 5.45198 2.12901 5.50098 2.00101 5.50098C1.87301 5.50098 1.74501 5.45298 1.64701 5.35498L0.147013 3.85498C-0.0479871 3.65998 -0.0479871 3.34298 0.147013 3.14798L1.64701 1.64798C1.84201 1.45298 2.15901 1.45298 2.35401 1.64798C2.54901 1.84298 2.54901 2.15998 2.35401 2.35498L1.20801 3.50098L2.35401 4.64698Z" fill="#202020"/>
<path d="M12.854 3.85398L11.355 5.35298C11.257 5.44998 11.129 5.49898 11.001 5.49898C10.873 5.49898 10.745 5.45098 10.647 5.35298C10.452 5.15798 10.452 4.84098 10.647 4.64598L11.793 3.49998L10.647 2.35398C10.452 2.15898 10.452 1.84198 10.647 1.64698C10.842 1.45198 11.159 1.45198 11.354 1.64698L12.854 3.14698C13.049 3.34198 13.049 3.65898 12.854 3.85398Z" fill="#202020"/>
<path fill-rule="evenodd" clip-rule="evenodd" d="M11.5 16C13.9853 16 16 13.9853 16 11.5C16 9.01472 13.9853 7 11.5 7C9.01472 7 7 9.01472 7 11.5C7 13.9853 9.01472 16 11.5 16ZM11.5 8.50342C10.452 8.50342 9.63568 9.32081 9.64659 10.4577C9.64924 10.7338 9.87524 10.9555 10.1514 10.9529C10.4275 10.9502 10.6492 10.7242 10.6465 10.4481C10.641 9.8691 11.0062 9.50342 11.5 9.50342C11.9723 9.50342 12.3534 9.89531 12.3534 10.4529C12.3534 10.6547 12.2822 10.7679 11.9937 10.9968L11.7157 11.2118C11.2099 11.6161 11 11.9293 10.9999 12.5003C10.9999 12.7764 11.2238 13.0003 11.4999 13.0003C11.7454 13.0003 11.9495 12.8234 11.9919 12.5902L12.0034 12.434C12.0202 12.2863 12.103 12.1804 12.3487 11.9858L12.6257 11.7715C13.1391 11.3606 13.3534 11.0387 13.3534 10.4529C13.3534 9.34921 12.531 8.50342 11.5 8.50342ZM11.4999 13.3803C11.155 13.3803 10.8754 13.6599 10.8754 14.0048C10.8754 14.3497 11.155 14.6293 11.4999 14.6293C11.8448 14.6293 12.1244 14.3497 12.1244 14.0048C12.1244 13.6599 11.8448 13.3803 11.4999 13.3803Z" fill="#006CBF"/>
</svg>
