<svg width="16" height="16" viewBox="0 0 16 16" fill="none" xmlns="http://www.w3.org/2000/svg">
<path d="M3.5 2H12.5C13.881 2 15 3.119 15 4.5V7.25716C14.6929 7.00353 14.3578 6.78261 14 6.59971V4.5C14 3.672 13.328 3 12.5 3H3.5C2.672 3 2 3.672 2 4.5V9.5C2 10.328 2.672 11 3.5 11H6.02242C6.00758 11.1647 6 11.3315 6 11.5C6 11.6685 6.00758 11.8353 6.02242 12H3.5C2.119 12 1 10.881 1 9.5V4.5C1 3.119 2.119 2 3.5 2Z" fill="#202020"/>
<path d="M6.45808 9.29902C6.36619 9.50922 6.28706 9.72627 6.22167 9.9492C6.15196 9.98374 6.07598 10.001 6 10.001C5.872 10.001 5.744 9.953 5.646 9.855L3.146 7.355C2.951 7.16 2.951 6.843 3.146 6.648L5.646 4.148C5.841 3.953 6.158 3.953 6.353 4.148C6.548 4.343 6.549 4.66 6.354 4.855L4.208 7.001L6.354 9.147C6.39914 9.19214 6.43384 9.24382 6.45808 9.29902Z" fill="#202020"/>
<path d="M12.2589 6.05194C12.0109 6.01769 11.7575 6 11.5 6C11.2742 6 11.0517 6.0136 10.833 6.04003L9.647 4.854C9.452 4.659 9.452 4.342 9.647 4.147C9.842 3.952 10.159 3.952 10.354 4.147L12.2589 6.05194Z" fill="#202020"/>
<path fill-rule="evenodd" clip-rule="evenodd" d="M16 11.5C16 13.9853 13.9853 16 11.5 16C9.01472 16 7 13.9853 7 11.5C7 9.01472 9.01472 7 11.5 7C13.9853 7 16 9.01472 16 11.5ZM13.8536 9.64645C14.0488 9.84171 14.0488 10.1583 13.8536 10.3536L10.8536 13.3536C10.6583 13.5488 10.3417 13.5488 10.1464 13.3536L9.14645 12.3536C8.95118 12.1583 8.95118 11.8417 9.14645 11.6464C9.34171 11.4512 9.65829 11.4512 9.85355 11.6464L10.5 12.2929L13.1464 9.64645C13.3417 9.45118 13.6583 9.45118 13.8536 9.64645Z" fill="#11910D"/>
</svg>
