<svg width="16" height="16" viewBox="0 0 16 16" fill="none" xmlns="http://www.w3.org/2000/svg">
<path d="M7 2.00002C5.895 2.00002 5 2.89502 5 4.00002V6.00502C5 6.53502 4.992 6.79902 4.911 7.00202C4.848 7.15802 4.716 7.33302 4.277 7.55302C4.108 7.63802 4.001 7.81102 4.001 8.00002C4.001 8.18902 4.108 8.36302 4.277 8.44702C4.716 8.66702 4.849 8.84102 4.911 8.99802C4.993 9.20202 5 9.46702 5 10V12C5 13.105 5.895 14 7 14C7.276 14 7.5 13.776 7.5 13.5C7.5 13.224 7.276 13 7 13C6.448 13 6 12.552 6 12V9.94102C6 9.49202 6 9.03002 5.839 8.62602C5.742 8.38302 5.596 8.17902 5.4 7.99902C5.596 7.82002 5.741 7.61502 5.838 7.37302C6 6.97002 5.999 6.50902 5.999 6.06202V3.99902C5.999 3.44702 6.447 2.99902 6.999 2.99902C7.275 2.99902 7.499 2.77502 7.499 2.49902C7.499 2.22302 7.275 1.99902 6.999 1.99902L7 2.00002ZM9 2.00002C10.105 2.00002 11 2.89502 11 4.00002V6.00502C11 6.53502 11.008 6.79902 11.089 7.00202C11.152 7.15802 11.284 7.33302 11.724 7.55302C11.893 7.63802 12 7.81102 12 8.00002C12 8.18902 11.893 8.36302 11.724 8.44702C11.285 8.66702 11.152 8.84102 11.09 8.99802C11.008 9.20202 11.001 9.46702 11.001 10V12C11.001 13.105 10.106 14 9.001 14C8.725 14 8.501 13.776 8.501 13.5C8.501 13.224 8.725 13 9.001 13C9.553 13 10.001 12.552 10.001 12V9.94102C10.001 9.49202 10.001 9.03002 10.162 8.62602C10.259 8.38302 10.405 8.17902 10.601 7.99902C10.405 7.82002 10.26 7.61502 10.163 7.37302C10.001 6.97002 10.002 6.50902 10.002 6.06202V3.99902C10.002 3.44702 9.554 2.99902 9.002 2.99902C8.726 2.99902 8.502 2.77502 8.502 2.49902C8.502 2.22302 8.726 1.99902 9.002 1.99902L9 2.00002ZM2.5 10C2.372 10 2.244 9.95102 2.146 9.85402L0.646 8.35402C0.548 8.25602 0.5 8.12802 0.5 8.00002C0.5 7.87202 0.549 7.74402 0.646 7.64602L2.146 6.14602C2.244 6.04802 2.372 6.00002 2.5 6.00002C2.776 6.00002 3 6.22402 3 6.50002C3 6.62802 2.951 6.75602 2.854 6.85402L1.708 8.00002L2.854 9.14602C2.952 9.24402 3 9.37202 3 9.50002C3 9.77602 2.776 10 2.5 10ZM13.5 10C13.224 10 13 9.77602 13 9.50002C13 9.37202 13.049 9.24402 13.146 9.14602L14.292 8.00002L13.146 6.85402C13.048 6.75602 13 6.62802 13 6.50002C13 6.22402 13.224 6.00002 13.5 6.00002C13.628 6.00002 13.756 6.04902 13.854 6.14602L15.354 7.64602C15.452 7.74402 15.5 7.87202 15.5 8.00002C15.5 8.12802 15.451 8.25602 15.354 8.35402L13.854 9.85402C13.756 9.95202 13.628 10 13.5 10Z" fill="#202020"/>
</svg>
