<svg width="16" height="16" viewBox="0 0 16 16" fill="none" xmlns="http://www.w3.org/2000/svg">
<path d="M7 5.503C7 5.631 6.951 5.758 6.854 5.856L4.708 8.002L6.854 10.148C6.951 10.245 7 10.373 7 10.501C7 10.779 6.774 11.001 6.5 11.001C6.372 11.001 6.244 10.953 6.146 10.855L3.646 8.355C3.549 8.258 3.5 8.13 3.5 8.002C3.5 7.874 3.549 7.746 3.646 7.649L6.146 5.149C6.244 5.051 6.372 5.003 6.5 5.003C6.785 5.003 7 5.236 7 5.504V5.503ZM15 12.5C15 12.224 14.776 12 14.5 12H3.5C2.673 12 2 11.327 2 10.5V5.5C2 4.673 2.673 4 3.5 4H14.5C14.776 4 15 3.776 15 3.5C15 3.224 14.776 3 14.5 3H3.5C2.121 3 1 4.121 1 5.5V10.5C1 11.879 2.121 13 3.5 13H14.5C14.776 13 15 12.776 15 12.5ZM10.5 5C9.452 5 8.636 5.817 8.647 6.954C8.65 7.23 8.876 7.452 9.152 7.449C9.428 7.446 9.65 7.22 9.647 6.944C9.641 6.365 10.007 5.999 10.5 5.999C10.972 5.999 11.353 6.391 11.353 6.948C11.353 7.15 11.282 7.263 10.993 7.492L10.715 7.707C10.209 8.111 9.999 8.425 9.999 8.995C9.999 9.271 10.223 9.495 10.499 9.495C10.744 9.495 10.949 9.318 10.991 9.085L11.003 8.929C11.02 8.781 11.103 8.675 11.348 8.481L11.625 8.267C12.138 7.856 12.353 7.534 12.353 6.948C12.353 5.844 11.531 5 10.5 5ZM10.5 9.877C10.155 9.877 9.875 10.157 9.875 10.502C9.875 10.847 10.155 11.127 10.5 11.127C10.845 11.127 11.125 10.847 11.125 10.502C11.125 10.157 10.845 9.877 10.5 9.877Z" fill="#202020"/>
</svg>
