<svg width="16" height="16" viewBox="0 0 16 16" fill="none" xmlns="http://www.w3.org/2000/svg">
<path d="M5.85355 1.14645C6.04882 1.34171 6.04882 1.65829 5.85355 1.85355L4.20711 3.5L5.85355 5.14645C6.04882 5.34171 6.04882 5.65829 5.85355 5.85355C5.65829 6.04882 5.34171 6.04882 5.14645 5.85355L3.14645 3.85355C2.95118 3.65829 2.95118 3.34171 3.14645 3.14645L5.14645 1.14645C5.34171 0.951184 5.65829 0.951184 5.85355 1.14645Z" fill="#202020"/>
<path fill-rule="evenodd" clip-rule="evenodd" d="M12 10.048V8.36599C12 7.61099 11.388 6.99899 10.634 6.99899H8.5V5.99899C8.5 5.72299 8.276 5.49899 8 5.49899C7.724 5.49899 7.5 5.72299 7.5 5.99899V6.99899H5.367C4.612 6.99899 4 7.61099 4 8.36599V10.049C2.859 10.281 2 11.289 2 12.499C2 13.88 3.119 14.999 4.5 14.999C5.881 14.999 7 13.88 7 12.499C7 11.29 6.141 10.281 5 10.049V8.36499C5 8.16299 5.164 7.99799 5.367 7.99799H10.634C10.836 7.99799 11 8.16199 11 8.36499V10.048C9.859 10.28 9 11.288 9 12.498C9 13.879 10.119 14.998 11.5 14.998C12.881 14.998 14 13.879 14 12.498C14 11.289 13.141 10.28 12 10.048ZM6 12.5C6 13.328 5.328 14 4.5 14C3.672 14 3 13.328 3 12.5C3 11.672 3.672 11 4.5 11C5.328 11 6 11.672 6 12.5ZM11.5 14C10.672 14 10 13.328 10 12.5C10 11.672 10.672 11 11.5 11C12.328 11 13 11.672 13 12.5C13 13.328 12.328 14 11.5 14Z" fill="#202020"/>
<path d="M10.8536 1.14645C10.6583 0.951184 10.3417 0.951184 10.1464 1.14645C9.95118 1.34171 9.95118 1.65829 10.1464 1.85355L11.7929 3.5L10.1464 5.14645C9.95118 5.34171 9.95118 5.65829 10.1464 5.85355C10.3417 6.04882 10.6583 6.04882 10.8536 5.85355L12.8536 3.85355C13.0488 3.65829 13.0488 3.34171 12.8536 3.14645L10.8536 1.14645Z" fill="#202020"/>
</svg>
