<svg width="16" height="16" viewBox="0 0 16 16" fill="none" xmlns="http://www.w3.org/2000/svg">
<g clip-path="url(#clip0_7205_109627)">
<path d="M15 4.13098H12.362L4.337 14.74H7.092L15 4.13098Z" fill="#8C9DA7"/>
<path d="M5.059 3.217C5.10559 3.2507 5.14498 3.29337 5.17486 3.34249C5.20475 3.39162 5.22452 3.44621 5.23303 3.50308C5.24154 3.55995 5.23861 3.61794 5.22442 3.67366C5.21022 3.72938 5.18505 3.78171 5.15037 3.82757C5.11568 3.87343 5.0722 3.91191 5.02245 3.94075C4.97271 3.96959 4.9177 3.98821 4.86067 3.99551C4.80364 4.00282 4.74572 3.99866 4.69031 3.98329C4.6349 3.96792 4.58312 3.94164 4.538 3.906L4.529 3.9C4.50465 3.88082 4.48281 3.85864 4.464 3.834C4.274 3.642 3.316 2.734 2.509 2.043C1.723 1.369 0 0 0 0C0 0 2.049 1.215 3.04 1.854C3.954 2.442 4.979 3.163 5.04 3.204L5.059 3.217ZM6.059 4.091C5.94785 4.091 5.83919 4.12396 5.74677 4.18571C5.65435 4.24747 5.58232 4.33524 5.53978 4.43793C5.49724 4.54062 5.48611 4.65362 5.5078 4.76264C5.52948 4.87166 5.58301 4.9718 5.66161 5.05039C5.7402 5.12899 5.84034 5.18252 5.94936 5.2042C6.05838 5.22589 6.17138 5.21476 6.27407 5.17222C6.37676 5.12968 6.46453 5.05765 6.52629 4.96523C6.58804 4.87281 6.621 4.76415 6.621 4.653C6.621 4.57911 6.60643 4.50595 6.57812 4.4377C6.54982 4.36945 6.50833 4.30745 6.45604 4.25525C6.40375 4.20305 6.34168 4.16168 6.27338 4.13349C6.20507 4.10531 6.13189 4.09087 6.058 4.091H6.059ZM8.109 5.958C8.109 5.82133 8.06847 5.68774 7.99255 5.5741C7.91662 5.46047 7.8087 5.3719 7.68243 5.3196C7.55617 5.2673 7.41723 5.25361 7.28319 5.28028C7.14915 5.30694 7.02603 5.37275 6.92939 5.46939C6.83275 5.56603 6.76694 5.68915 6.74028 5.82319C6.71361 5.95723 6.7273 6.09617 6.7796 6.22243C6.8319 6.3487 6.92047 6.45662 7.0341 6.53255C7.14774 6.60847 7.28133 6.649 7.418 6.649C7.60118 6.64874 7.77679 6.57585 7.90632 6.44632C8.03585 6.31679 8.10874 6.14118 8.109 5.958ZM12.265 10.548C11.438 9.32676 10.5363 8.15786 9.565 7.048L9.559 7.041C9.53762 7.01298 9.51458 6.98626 9.49 6.961V6.961C9.34315 6.81565 9.14741 6.73023 8.94098 6.72139C8.73455 6.71255 8.53223 6.78093 8.37349 6.91319C8.21475 7.04546 8.11097 7.23211 8.08241 7.43675C8.05385 7.64139 8.10254 7.84933 8.219 8.02V8.02C8.219 8.02 9.65 10.159 10.319 11.255C10.8283 12.3195 11.4194 13.3429 12.087 14.316C12.3061 14.5574 12.5929 14.7271 12.91 14.803C13.4132 14.8736 13.9238 14.8736 14.427 14.803C13.8296 13.3253 13.1063 11.9017 12.265 10.548V10.548Z" fill="#F4793B"/>
</g>
<defs>
<clipPath id="clip0_7205_109627">
<rect width="16" height="16" fill="white"/>
</clipPath>
</defs>
</svg>
