<svg width="16" height="16" viewBox="0 0 16 16" fill="none" xmlns="http://www.w3.org/2000/svg">
<path d="M14 7.086V6C14 5.449 13.552 5 13 5H12V3.914C12.582 3.708 13 3.152 13 2.5C13 1.673 12.327 1 11.5 1C10.673 1 10 1.673 10 2.5C10 3.152 10.418 3.708 11 3.914V5H10C9.448 5 9 5.449 9 6V7.086C8.418 7.292 8 7.848 8 8.5C8 9.327 8.673 10 9.5 10C10.327 10 11 9.327 11 8.5C11 7.848 10.582 7.292 10 7.086V6H13V7.086C12.418 7.292 12 7.848 12 8.5C12 9.327 12.673 10 13.5 10C14.327 10 15 9.327 15 8.5C15 7.848 14.582 7.292 14 7.086ZM11.5 2C11.775 2 12 2.224 12 2.5C12 2.776 11.775 3 11.5 3C11.225 3 11 2.776 11 2.5C11 2.224 11.225 2 11.5 2ZM9.5 9C9.225 9 9 8.776 9 8.5C9 8.224 9.225 8 9.5 8C9.775 8 10 8.224 10 8.5C10 8.776 9.775 9 9.5 9ZM13.5 9C13.225 9 13 8.776 13 8.5C13 8.224 13.225 8 13.5 8C13.775 8 14 8.224 14 8.5C14 8.776 13.775 9 13.5 9ZM6.5 11H1.5C1.224 11 1 10.776 1 10.5C1 10.224 1.224 10 1.5 10H6.5C6.776 10 7 10.224 7 10.5C7 10.776 6.776 11 6.5 11ZM5.5 13H1.5C1.224 13 1 12.776 1 12.5C1 12.224 1.224 12 1.5 12H5.5C5.776 12 6 12.224 6 12.5C6 12.776 5.776 13 5.5 13ZM6.5 15H1.5C1.224 15 1 14.776 1 14.5C1 14.224 1.224 14 1.5 14H6.5C6.776 14 7 14.224 7 14.5C7 14.776 6.776 15 6.5 15Z" fill="#202020"/>
<path d="M2.5 7.00025C2.224 7.00025 2 6.77625 2 6.50025V5.24925C2 4.91725 2.132 4.59925 2.366 4.36525C2.601 4.13125 2.918 3.99925 3.25 3.99925H5.293L4.647 3.35325C4.452 3.15825 4.452 2.84125 4.647 2.64625C4.842 2.45125 5.159 2.45125 5.354 2.64625L6.854 4.14625C7.049 4.34125 7.049 4.65825 6.854 4.85325L5.354 6.35325C5.159 6.54825 4.842 6.54825 4.647 6.35325C4.452 6.15825 4.452 5.84125 4.647 5.64625L5.293 5.00025H3.25C3.183 5.00025 3.12 5.02625 3.073 5.07325C3.026 5.12025 3 5.18425 3 5.25025V6.50025C3 6.77625 2.776 7.00025 2.5 7.00025Z" fill="#006CBF"/>
</svg>
