<svg width="16" height="16" viewBox="0 0 16 16" fill="none" xmlns="http://www.w3.org/2000/svg">
<path d="M12.561 4.354L9.646 1.439C9.365 1.158 8.984 1 8.586 1H4C3.47 1 2.961 1.211 2.586 1.586C2.211 1.961 2 2.47 2 3V13C2 13.53 2.211 14.039 2.586 14.414C2.961 14.789 3.47 15 4 15H11C11.53 15 12.039 14.789 12.414 14.414C12.789 14.039 13 13.53 13 13V5.414C13 5.016 12.842 4.635 12.561 4.354ZM9 2.207L11.793 5H9.5C9.367 5 9.24 4.947 9.146 4.854C9.052 4.761 9 4.633 9 4.5V2.207ZM12 13C12 13.265 11.895 13.52 11.707 13.707C11.519 13.894 11.265 14 11 14H4C3.735 14 3.48 13.895 3.293 13.707C3.105 13.519 3 13.265 3 13V3C3 2.735 3.105 2.48 3.293 2.293C3.481 2.106 3.735 2 4 2H8V4.5C8 4.898 8.158 5.279 8.439 5.561C8.72 5.842 9.102 6 9.5 6H12V13ZM6.713 12.91C6.939 13.068 7.251 13.013 7.409 12.787L7.96 12H10V12.5C10 12.776 10.224 13 10.5 13C10.776 13 11 12.776 11 12.5V7.5C11 7.282 10.859 7.089 10.65 7.023C10.442 6.957 10.215 7.034 10.09 7.213L6.59 12.213C6.432 12.439 6.487 12.752 6.713 12.91ZM10 9.087V11.001H8.66L10 9.087ZM4 5.501C4 5.225 4.224 5.001 4.5 5.001H6.5C6.776 5.001 7 5.225 7 5.501C7 5.777 6.776 6.001 6.5 6.001H4.5C4.224 6.001 4 5.777 4 5.501ZM6.5 8.001H4.5C4.224 8.001 4 7.777 4 7.501C4 7.225 4.224 7.001 4.5 7.001H6.5C6.776 7.001 7 7.225 7 7.501C7 7.777 6.776 8.001 6.5 8.001Z" fill="#202020"/>
</svg>
