<svg width="16" height="16" viewBox="0 0 16 16" fill="none" xmlns="http://www.w3.org/2000/svg">
<path d="M15 3.5C15 3.224 14.776 3 14.5 3C14.224 3 14 3.224 14 3.5V12.5C14 12.776 14.224 13 14.5 13C14.776 13 15 12.776 15 12.5V3.5Z" fill="#202020"/>
<path d="M2 3.5C2 3.224 1.776 3 1.5 3C1.224 3 1 3.224 1 3.5V12.5C1 12.776 1.224 13 1.5 13C1.776 13 2 12.776 2 12.5V3.5Z" fill="#202020"/>
<path d="M12.854 7.64576C13.049 7.84076 13.049 8.15776 12.854 8.35276L10.854 10.3528C10.659 10.5478 10.342 10.5478 10.147 10.3528C9.95201 10.1578 9.95201 9.84076 10.147 9.64576L11.293 8.49976H4.70701L5.85301 9.64576C6.04801 9.84076 6.04801 10.1578 5.85301 10.3528C5.65801 10.5478 5.34101 10.5478 5.14601 10.3528L3.14601 8.35276C2.95101 8.15776 2.95101 7.84076 3.14601 7.64576L5.14601 5.64576C5.34101 5.45076 5.65801 5.45076 5.85301 5.64576C6.04801 5.84076 6.04801 6.15776 5.85301 6.35276L4.70701 7.49876H11.293L10.147 6.35276C9.95201 6.15776 9.95201 5.84076 10.147 5.64576C10.342 5.45076 10.659 5.45076 10.854 5.64576L12.854 7.64576Z" fill="#006CBF"/>
</svg>
