<svg width="16" height="16" viewBox="0 0 16 16" fill="none" xmlns="http://www.w3.org/2000/svg">
<path d="M7.99392 10.7461C8.4749 10.5769 8.91846 10.3283 9.30887 10.016L13.1464 13.8536C13.3417 14.0488 13.6583 14.0488 13.8536 13.8536C14.0488 13.6583 14.0488 13.3417 13.8536 13.1464L10.016 9.30885C10.6318 8.53901 11 7.56252 11 6.50002C11 4.01473 8.98528 2 6.5 2C4.04743 2 2.05311 3.96204 2.00104 6.40214C2.31316 6.2213 2.66067 6.09511 3.03039 6.03672C3.25707 4.32271 4.72407 3 6.5 3C8.433 3 10 4.56701 10 6.50002C10 8.02781 9.02111 9.32697 7.65631 9.80452C7.84524 10.0749 7.96623 10.3973 7.99392 10.7461Z" fill="#202020"/>
<path d="M1.5 9V10H0.875C0.392 10 0 10.403 0 10.9V15.1C0 15.597 0.392 16 0.875 16H6.125C6.608 16 7 15.597 7 15.1V10.9C7 10.403 6.608 10 6.125 10H5.5V9C5.5 7.895 4.605 7 3.5 7C2.395 7 1.5 7.895 1.5 9ZM3.5 8C4.052 8 4.5 8.448 4.5 9V10H2.5V9C2.5 8.448 2.948 8 3.5 8ZM3.5 13.75C3.086 13.75 2.75 13.414 2.75 13C2.75 12.586 3.086 12.25 3.5 12.25C3.914 12.25 4.25 12.586 4.25 13C4.25 13.414 3.914 13.75 3.5 13.75Z" fill="#202020"/>
</svg>
